<!-- Generated by IcoMoon.io -->
<svg version="1.1" xmlns="http://www.w3.org/2000/svg" width="24" height="24" viewBox="0 0 24 24"><title>ATOM</title>
<path fill="#2e3148" d="M12 0c6.627 0 12 5.373 12 12s-5.373 12-12 12c-6.627 0-12-5.373-12-12s5.373-12 12-12z"></path>
<path fill="#1b1e36" d="M12 18.843c3.779 0 6.843-3.064 6.843-6.843s-3.064-6.843-6.843-6.843-6.843 3.064-6.843 6.843c0 3.779 3.064 6.843 6.843 6.843z"></path>
<path fill="#6f7390" d="M12.025 1.712c-1.273 0-2.305 4.617-2.305 10.313s1.032 10.313 2.305 10.313c1.273 0 2.305-4.617 2.305-10.313s-1.032-10.313-2.305-10.313zM12.184 21.755c-0.146 0.194-0.291 0.049-0.291 0.049-0.586-0.679-0.879-1.941-0.879-1.941-1.025-3.3-0.781-10.385-0.781-10.385 0.482-5.625 1.359-6.954 1.657-7.249 0.030-0.030 0.071-0.049 0.113-0.052s0.085 0.008 0.12 0.033c0.433 0.307 0.796 1.589 0.796 1.589 1.072 3.979 0.975 7.716 0.975 7.716 0.097 3.251-0.537 6.891-0.537 6.891-0.488 2.766-1.172 3.349-1.172 3.349z"></path>
<path fill="#6f7390" d="M20.97 6.893c-0.634-1.105-5.152 0.298-10.094 3.132s-8.429 6.027-7.796 7.131 5.152-0.298 10.095-3.132c4.943-2.834 8.429-6.027 7.796-7.131zM3.664 17.005c-0.243-0.031-0.188-0.23-0.188-0.23 0.298-0.846 1.245-1.729 1.245-1.729 2.353-2.532 8.621-5.846 8.621-5.846 5.118-2.381 6.708-2.281 7.111-2.17 0.041 0.012 0.077 0.037 0.102 0.073s0.035 0.078 0.031 0.121c-0.048 0.528-0.983 1.481-0.983 1.481-2.916 2.911-6.206 4.687-6.206 4.687-2.772 1.703-6.245 2.963-6.245 2.963-2.642 0.952-3.488 0.649-3.488 0.649h-0z"></path>
<path fill="#6f7390" d="M20.947 17.193c0.639-1.102-2.839-4.309-7.764-7.165s-9.443-4.275-10.081-3.172c-0.638 1.104 2.839 4.309 7.767 7.165s9.44 4.275 10.078 3.172zM3.525 7.282c-0.094-0.224 0.105-0.278 0.105-0.278 0.882-0.167 2.12 0.213 2.12 0.213 3.369 0.767 9.378 4.531 9.378 4.531 4.626 3.237 5.335 4.663 5.442 5.067 0.011 0.042 0.007 0.085-0.012 0.124s-0.050 0.070-0.089 0.087c-0.482 0.221-1.774-0.108-1.774-0.108-3.982-1.068-7.166-3.024-7.166-3.024-2.861-1.543-5.691-3.918-5.691-3.918-2.15-1.81-2.311-2.693-2.311-2.693l-0.001-0.002z"></path>
<path fill="#b7b9c8" d="M17.679 7.342c0 0.402-0.315 0.728-0.704 0.728s-0.704-0.326-0.704-0.728 0.315-0.728 0.704-0.728c0.389 0 0.704 0.326 0.704 0.728z"></path>
<path fill="#b7b9c8" d="M13.214 12.001c0 0.67-0.543 1.213-1.213 1.213s-1.213-0.543-1.213-1.213 0.543-1.213 1.213-1.213c0.67 0 1.213 0.543 1.213 1.213z"></path>
<path fill="#b7b9c8" d="M5.425 10.545c0.389 0 0.704-0.326 0.704-0.728s-0.315-0.728-0.704-0.728c-0.389 0-0.704 0.326-0.704 0.728s0.315 0.728 0.704 0.728z"></path>
<path fill="#b7b9c8" d="M11.273 18.746c0 0.402-0.315 0.728-0.704 0.728s-0.704-0.326-0.704-0.728c0-0.402 0.315-0.728 0.704-0.728s0.704 0.326 0.704 0.728z"></path>
</svg>
