<!-- Generated by IcoMoon.io -->
<svg version="1.1" xmlns="http://www.w3.org/2000/svg" width="24" height="24" viewBox="0 0 24 24"><title>AVAX</title>
<path fill="#e84142" d="M12 0c6.627 0 12 5.373 12 12s-5.373 12-12 12c-6.627 0-12-5.373-12-12s5.373-12 12-12z"></path>
<path fill="#fff" d="M6.209 17.066h2.327c0.548 0 0.822 0 1.066-0.068 0.268-0.080 0.513-0.221 0.716-0.415 0.187-0.178 0.321-0.414 0.587-0.879l0.008-0.014 3.018-5.336c0.268-0.468 0.401-0.704 0.46-0.952 0.065-0.268 0.065-0.551 0-0.819-0.058-0.246-0.192-0.48-0.456-0.941l-1.187-2.073c-0.244-0.43-0.368-0.645-0.524-0.725-0.168-0.085-0.368-0.085-0.536 0-0.156 0.080-0.28 0.295-0.524 0.725l-5.746 10.129c-0.242 0.424-0.362 0.636-0.354 0.81 0.012 0.189 0.109 0.359 0.268 0.463 0.147 0.094 0.389 0.094 0.878 0.094z"></path>
<path fill="#fff" d="M17.748 17.066h-3.335c-0.492 0-0.739 0-0.884-0.094-0.159-0.103-0.256-0.277-0.268-0.465-0.009-0.172 0.113-0.383 0.357-0.803l0-0 0.006-0.010 1.664-2.858c0.245-0.421 0.368-0.63 0.521-0.71 0.168-0.086 0.365-0.086 0.533 0 0.152 0.077 0.271 0.278 0.505 0.674l0.019 0.033 1.67 2.858c0.008 0.014 0.016 0.028 0.024 0.041 0.232 0.4 0.35 0.604 0.341 0.772-0.009 0.188-0.109 0.362-0.268 0.465-0.147 0.097-0.395 0.097-0.887 0.097z"></path>
</svg>
