<!-- Generated by IcoMoon.io -->
<svg version="1.1" xmlns="http://www.w3.org/2000/svg" width="24" height="24" viewBox="0 0 24 24"><title>BNB</title>
<path fill="#f0b90b" d="M12 0c6.627 0 12 5.373 12 12s-5.373 12-12 12c-6.627 0-12-5.373-12-12s5.373-12 12-12z"></path>
<path fill="#fff" d="M6.633 12.047l0.009 3.173 2.696 1.586v1.858l-4.274-2.507v-5.038l1.569 0.928zM6.633 8.874v1.849l-1.57-0.929v-1.849l1.57-0.929 1.578 0.929-1.578 0.929zM10.463 7.945l1.57-0.929 1.578 0.929-1.578 0.929-1.57-0.929z"></path>
<path fill="#fff" d="M7.767 14.562v-1.858l1.57 0.929v1.849l-1.57-0.92zM10.463 17.472l1.57 0.929 1.578-0.929v1.849l-1.578 0.929-1.57-0.929v-1.849zM15.863 7.945l1.57-0.929 1.578 0.929v1.849l-1.578 0.929v-1.849l-1.57-0.929zM17.434 15.22l0.009-3.173 1.57-0.929v5.039l-4.274 2.507v-1.858l2.695-1.586z"></path>
<path fill="#fff" d="M16.308 14.562l-1.57 0.92v-1.849l1.57-0.929v1.858z"></path>
<path fill="#fff" d="M16.308 9.531l0.009 1.858-2.704 1.586v3.181l-1.57 0.92-1.57-0.92v-3.181l-2.704-1.586v-1.858l1.577-0.929 2.687 1.594 2.704-1.594 1.578 0.929h-0.007zM7.767 6.359l4.266-2.515 4.274 2.515-1.57 0.929-2.704-1.594-2.696 1.594-1.57-0.929z"></path>
</svg>
