<!-- Generated by IcoMoon.io -->
<svg version="1.1" xmlns="http://www.w3.org/2000/svg" width="24" height="24" viewBox="0 0 24 24"><title>BTC</title>
<path fill="#f7931a" d="M12 0c6.627 0 12 5.373 12 12s-5.373 12-12 12c-6.627 0-12-5.373-12-12s5.373-12 12-12z"></path>
<path fill="#fff" d="M17.258 10.277c0.239-1.597-0.977-2.456-2.64-3.028l0.539-2.163-1.317-0.328-0.525 2.106c-0.346-0.086-0.702-0.168-1.055-0.248l0.529-2.12-1.316-0.328-0.54 2.163c-0.287-0.065-0.568-0.13-0.841-0.198l0.002-0.007-1.816-0.454-0.35 1.407c0 0 0.977 0.224 0.956 0.238 0.533 0.133 0.63 0.486 0.614 0.766l-0.614 2.465c0.037 0.009 0.084 0.023 0.137 0.044-0.044-0.011-0.091-0.023-0.139-0.034l-0.861 3.453c-0.065 0.162-0.231 0.405-0.603 0.313 0.013 0.019-0.957-0.239-0.957-0.239l-0.654 1.507 1.714 0.427c0.319 0.080 0.631 0.164 0.939 0.242l-0.545 2.188 1.315 0.328 0.54-2.165c0.359 0.098 0.708 0.188 1.049 0.272l-0.538 2.155 1.317 0.328 0.545-2.184c2.246 0.425 3.934 0.254 4.645-1.778 0.573-1.635-0.028-2.579-1.21-3.194 0.86-0.198 1.509-0.764 1.681-1.934l-0-0zM14.249 14.497c-0.407 1.635-3.16 0.751-4.053 0.53l0.723-2.899c0.893 0.223 3.755 0.664 3.33 2.369h-0zM14.656 10.254c-0.371 1.488-2.663 0.732-3.406 0.546l0.656-2.629c0.743 0.185 3.137 0.531 2.751 2.083h-0z"></path>
</svg>
