<!-- Generated by IcoMoon.io -->
<svg version="1.1" xmlns="http://www.w3.org/2000/svg" width="24" height="24" viewBox="0 0 24 24"><title>ETH</title>
<path fill="#eceff0" d="M12 0c6.627 0 12 5.373 12 12s-5.373 12-12 12c-6.627 0-12-5.373-12-12s5.373-12 12-12z"></path>
<path fill="#343434" d="M12.043 2.156l-0.132 0.449v13.018l0.132 0.132 6.043-3.572-6.043-10.026z"></path>
<path fill="#8c8c8c" d="M12.043 2.156l-6.043 10.026 6.043 3.572v-13.598z"></path>
<path fill="#3c3c3b" d="M12.043 16.899l-0.074 0.091v4.637l0.074 0.217 6.046-8.515-6.046 3.57z"></path>
<path fill="#8c8c8c" d="M12.043 21.844v-4.945l-6.043-3.57 6.043 8.515z"></path>
<path fill="#141414" d="M12.042 15.755l6.043-3.572-6.043-2.747v6.319z"></path>
<path fill="#393939" d="M6 12.183l6.043 3.572v-6.319l-6.043 2.747z"></path>
</svg>
