<!-- Generated by IcoMoon.io -->
<svg version="1.1" xmlns="http://www.w3.org/2000/svg" width="24" height="24" viewBox="0 0 24 24"><title>FIL</title>
<path fill="#0090ff" d="M12 0c6.627 0 12 5.373 12 12s-5.373 12-12 12c-6.627 0-12-5.373-12-12s5.373-12 12-12z"></path>
<path fill="#fff" d="M13.14 10.56l-0.36 1.92 3.42 0.48-0.24 0.9-3.36-0.48c-0.24 0.78-0.36 1.62-0.66 2.34-0.3 0.84-0.6 1.68-0.96 2.46-0.48 1.020-1.32 1.74-2.46 1.92-0.66 0.12-1.38 0.060-1.92-0.36-0.18-0.12-0.36-0.36-0.36-0.54 0-0.24 0.12-0.54 0.3-0.66 0.12-0.060 0.42 0 0.6 0.060 0.18 0.18 0.36 0.42 0.48 0.66 0.36 0.48 0.84 0.54 1.32 0.18 0.54-0.48 0.84-1.14 1.020-1.8 0.36-1.44 0.72-2.82 1.020-4.26v-0.24l-3.18-0.48 0.12-0.9 3.3 0.48 0.42-1.86-3.42-0.54 0.12-0.96 3.54 0.48c0.12-0.36 0.18-0.66 0.3-0.96 0.3-1.080 0.6-2.16 1.32-3.12s1.56-1.56 2.82-1.5c0.54 0 1.080 0.18 1.44 0.6 0.060 0.060 0.18 0.18 0.18 0.3 0 0.24 0 0.54-0.18 0.72-0.24 0.18-0.54 0.12-0.78-0.12-0.18-0.18-0.3-0.36-0.48-0.54-0.36-0.48-0.9-0.54-1.32-0.12-0.3 0.3-0.6 0.72-0.78 1.14-0.42 1.26-0.72 2.58-1.14 3.9l3.3 0.48-0.24 0.9-3.18-0.48z"></path>
</svg>
