<!-- Generated by IcoMoon.io -->
<svg version="1.1" xmlns="http://www.w3.org/2000/svg" width="24" height="24" viewBox="0 0 24 24"><title>USDC</title>
<path fill="#2775ca" d="M12 0c6.627 0 12 5.373 12 12s-5.373 12-12 12c-6.627 0-12-5.373-12-12s5.373-12 12-12z"></path>
<path fill="#fff" d="M5 9.55c-1.45 3.85 0.55 8.2 4.45 9.6 0.15 0.1 0.3 0.3 0.3 0.45v0.7c0 0.1 0 0.15-0.050 0.2-0.050 0.2-0.25 0.3-0.45 0.2-2.8-0.9-4.95-3.050-5.85-5.85-1.5-4.75 1.1-9.8 5.85-11.3 0.050-0.050 0.15-0.050 0.2-0.050 0.2 0.050 0.3 0.2 0.3 0.4v0.7c0 0.25-0.1 0.4-0.3 0.5-2.050 0.75-3.7 2.35-4.45 4.45z"></path>
<path fill="#fff" d="M14.3 3.75c0.050-0.2 0.25-0.3 0.45-0.2 2.75 0.9 4.95 3.050 5.85 5.9 1.5 4.75-1.1 9.8-5.85 11.3-0.050 0.050-0.15 0.050-0.2 0.050-0.2-0.050-0.3-0.2-0.3-0.4v-0.7c0-0.25 0.1-0.4 0.3-0.5 2.050-0.75 3.7-2.35 4.45-4.45 1.45-3.85-0.55-8.2-4.45-9.6-0.15-0.1-0.3-0.3-0.3-0.5v-0.7c0-0.1 0-0.15 0.050-0.2z"></path>
<path fill="#fff" d="M12.15 11.3c2.1 0.25 3.15 0.85 3.15 2.6 0 1.35-1 2.4-2.5 2.65v1.2c-0.050 0.25-0.2 0.4-0.4 0.4h-0.75c-0.25-0.050-0.4-0.2-0.4-0.4v-1.2c-1.65-0.25-2.45-1.15-2.65-2.4v-0.050c0-0.2 0.15-0.35 0.35-0.35h0.85c0.15 0 0.3 0.1 0.35 0.3 0.15 0.75 0.6 1.3 1.9 1.3 0.95 0 1.65-0.55 1.65-1.35s-0.45-1.1-1.85-1.35c-2.1-0.25-3.1-0.9-3.1-2.55 0-1.25 0.95-2.25 2.45-2.45v-1.15c0.050-0.25 0.2-0.4 0.4-0.4h0.75c0.25 0.050 0.4 0.2 0.4 0.4v1.2c1.15 0.1 2.050 0.95 2.25 2.050v0.050c0 0.2-0.15 0.35-0.35 0.35h-0.8c-0.15 0-0.3-0.1-0.35-0.25-0.25-0.75-0.75-1.050-1.65-1.050-1 0-1.5 0.45-1.5 1.15s0.3 1.1 1.8 1.3z"></path>
</svg>
