<svg viewBox="0 0 24 24" xmlns="http://www.w3.org/2000/svg"><path fill="currentColor" d="M12 6.5c1.24 0 2.25-1.01 2.25-2.25C14.25 3 13.24 2 12 2c-1.25 0-2.25 1-2.25 2.25 0 1.24 1 2.25 2.25 2.25ZM6.14 4.17c-1.15-.49-2.47.04-2.97 1.18s.03 2.46 1.18 2.95l3.02 1.28c.36.15.6.51.6.92v3.03l-1.88 5.45c-.41 1.17.21 2.45 1.39 2.85 1.17.4 2.45-.22 2.85-1.4l1.38-4.03c.07-.23.39-.23.47 0l1.38 4.02c.4 1.17 1.68 1.79 2.85 1.39 1.17-.41 1.79-1.69 1.39-2.86l-1.88-5.46v-3.05c0-.41.23-.77.6-.93l3.01-1.29c1.14-.49 1.67-1.82 1.18-2.96 -.5-1.14-1.82-1.67-2.97-1.19l-1.61.68c-.35.14-.58.42-.7.73 -.55 1.43-1.93 2.45-3.55 2.45 -1.63 0-3.01-1.02-3.55-2.46 -.12-.31-.36-.59-.7-.74l-1.61-.69Z"/></svg>