<svg viewBox="0 0 24 24" xmlns="http://www.w3.org/2000/svg"><path fill="currentColor" d="M3 5.25C3 4 4 3 5.25 3h11c1.24 0 2.25 1 2.25 2.25v11c0 1.24-1.01 2.25-2.25 2.25h-11C4 18.5 3 17.49 3 16.25v-11Zm8.5 2c0-.42-.34-.75-.75-.75 -.42 0-.75.33-.75.75V10H7.25c-.42 0-.75.33-.75.75 0 .41.33.75.75.75H10v2.75c0 .41.33.75.75.75 .41 0 .75-.34.75-.75V11.5h2.75c.41 0 .75-.34.75-.75 0-.42-.34-.75-.75-.75H11.5V7.25ZM7.75 20.99c-.98 0-1.82-.63-2.13-1.5h10.62c1.79 0 3.25-1.46 3.25-3.25V5.61c.87.3 1.5 1.14 1.5 2.12v8.5c0 2.62-2.13 4.75-4.75 4.75h-8.5Z"/></svg>