<svg viewBox="0 0 24 24" xmlns="http://www.w3.org/2000/svg"><path fill="currentColor" d="M13.75 14.5c-.42 0-.75.33-.75.75 0 .41.33.75.75.75h3.5c.41 0 .75-.34.75-.75 0-.42-.34-.75-.75-.75h-3.5ZM12 22c5.52 0 10-4.48 10-10 0-5.53-4.48-10-10-10C6.47 2 2 6.47 2 12c0 5.52 4.47 10 10 10Zm6.51-15.46c1.23 1.47 1.98 3.37 1.98 5.45 0 4.69-3.81 8.5-8.5 8.5 -2.08 0-3.99-.75-5.46-1.99L18.5 6.52ZM5.99 8.74c0-.42.33-.75.75-.75h1.25V6.74c0-.42.33-.75.75-.75 .41 0 .75.33.75.75v1.25h1.25c.41 0 .75.33.75.75 0 .41-.34.75-.75.75H9.49v1.25c0 .41-.34.75-.75.75 -.42 0-.75-.34-.75-.75V9.49H6.74c-.42 0-.75-.34-.75-.75Z"/></svg>