<svg viewBox="0 0 24 24" xmlns="http://www.w3.org/2000/svg"><path fill="currentColor" d="M21.98 11.94c0 1.09-.9 1.99-2 1.99 -.02 0-.04-.01-.06-.01l-4.74-.14 -3.46 7.14c-.28.57-.86.93-1.5.93 -.52 0-.93-.42-.93-.93 0-.04 0-.08 0-.12l.86-7.2 -3.77-.11 -.5 1.34c-.19.5-.67.84-1.22.84 -.5 0-.91-.41-.91-.91l0-1.48 -.82-.17c-.59-.13-1.01-.64-1.01-1.24s.41-1.12 1-1.24l.81-.17 -.01-1.48c0-.46.34-.84.78-.9l.11-.01c.54 0 1.02.33 1.21.84l.49 1.34 3.75-.11 -.85-7.09c-.01-.02-.01-.04-.01-.06l-.01-.06c0-.52.41-.93.92-.93 .58 0 1.12.3 1.42.8l.07.13L15 9.96l4.78-.15c1.09-.04 2.01.83 2.04 1.93l0 .05Z"/></svg>