<svg viewBox="0 0 24 24" xmlns="http://www.w3.org/2000/svg"><path fill="currentColor" d="M10.52 4.41l1.87 1.51c-.2.2-.36.39-.5.56 -.13.14-.24.19-.3.21l-3.47.72 -.39-.69c-.69-1.23.19-2.75 1.6-2.75 .42 0 .83.14 1.15.41Zm6.16.09c2.23-.18 3.9 1.24 4.85 2.32 .48.55.58 1.26.37 1.88 -.21.6-.7 1.09-1.35 1.32l-5.38 1.85 -3.24 4.31c-.38.5-.98.8-1.61.8 -1.43 0-2.4-1.45-1.86-2.77l.5-1.24 -3.31.63c-1.42.27-2.73-.82-2.73-2.26V7.65c0-.94.75-1.7 1.69-1.7 .61 0 1.18.33 1.48.88l.96 1.77 4.66-.98c.31-.07.61-.26.85-.56 .37-.45.92-1.06 1.59-1.58 .65-.51 1.49-.99 2.42-1.06ZM3.73 19.49c-.42 0-.75.33-.75.75 0 .41.33.75.75.75h16.5c.41 0 .75-.34.75-.75 0-.42-.34-.75-.75-.75H3.73Z"/></svg>