<svg viewBox="0 0 24 24" xmlns="http://www.w3.org/2000/svg"><path fill="currentColor" d="M10 5.03v.77L13.02 7h2.11l-1.25-2.81c-.9-2.01-3.9-1.38-3.9.82Zm2.72 2.93L8.49 6.28V4.73c0-1.74-2.26-2.42-3.22-.97l-1.91 2.9c-.8 1.2-.3 2.83 1.03 3.39l3.5 1.46 -2.05 1.89c-1.63 1.51-.01 4.16 2.08 3.4l6.76-2.47 3.46 1.44c1.34.56 2.82-.43 2.82-1.88v-1.24c0-2.61-2.12-4.72-4.72-4.72l-3.33-.01c-.09 0-.17-.02-.24-.05ZM2.99 20.23c-.001-.42.33-.75.75-.75h16.5c.41 0 .75.33.75.75 0 .41-.34.75-.75.75H3.74c-.42 0-.75-.34-.75-.75Z"/></svg>