<svg viewBox="0 0 24 24" xmlns="http://www.w3.org/2000/svg"><path fill="currentColor" d="M2 6c0-1.11.89-2 2-2h1v7.17c-1.15.27-2.18.84-3 1.63V5.99Zm14 2.5h-4c-.28 0-.5.22-.5.5v1c0 .27.22.5.5.5h4c.27 0 .5-.23.5-.5V9c0-.28-.23-.5-.5-.5ZM12.5 20h7.49c1.1 0 2-.9 2-2V6c0-1.11-.9-2-2-2H6.49v7c3.58 0 6.5 2.91 6.5 6.5 0 .88-.18 1.73-.5 2.5ZM9.99 9c0-1.11.89-2 2-2h4c1.1 0 2 .89 2 2v1c0 1.1-.9 2-2 2h-4c-1.11 0-2-.9-2-2V9Zm-3.5 3c3.03 0 5.5 2.46 5.5 5.5 0 3.03-2.47 5.5-5.5 5.5 -3.04 0-5.5-2.47-5.5-5.5 0-3.04 2.46-5.5 5.5-5.5Zm.5 8.5l-.01-2.51h2.49c.27 0 .49-.23.49-.5 0-.28-.23-.5-.5-.5h-2.5l-.01-2.51c0-.28-.23-.5-.5-.5 -.28 0-.5.22-.5.5l0 2.5H3.44c-.28 0-.5.22-.5.5 0 .27.22.5.49.5h2.5l0 2.5c0 .27.22.5.5.5 .27 0 .5-.23.5-.5Z"/></svg>