<svg viewBox="0 0 24 24" xmlns="http://www.w3.org/2000/svg"><path fill="currentColor" d="M15.25 7h-2.5l-.11 0c-.37.04-.65.36-.65.74 0 .41.33.75.75.75h1.04l-1.66 2.31 -.06.08c-.26.48.09 1.09.66 1.09h2.5l.1-.01c.36-.05.64-.37.64-.75 0-.42-.34-.75-.75-.75h-1.05l1.65-2.32 .05-.09c.25-.49-.1-1.1-.67-1.1Zm6-5h-3.5l-.11 0c-.37.04-.65.36-.65.74 0 .41.33.75.75.75h2.13L17.1 7.83l-.05.08c-.23.48.12 1.06.68 1.06h3.5l.1-.01c.36-.05.64-.37.64-.75 0-.42-.34-.75-.75-.75h-2.14l2.76-4.35 .04-.09c.22-.49-.13-1.07-.69-1.07Zm-8.56 3.5h2.55c.5 0 .95.15 1.31.41l.62-.99c-.94-.24-1.64-1.07-1.7-2.07 -1.05-.56-2.24-.87-3.51-.87 -4.05 0-7.36 3.2-7.5 7.23l-.01.24 -.01 4.01 -1.42 3.16c-.22.47 0 1.04.47 1.25 .12.05.25.08.38.08h16.09c.52 0 .95-.43.95-.95 0-.14-.03-.27-.09-.39l-1.42-3.17v-3.01h-1.76c-.14 0-.27-.02-.39-.04 .09.24.13.5.13.78 0 1.14-.85 2.08-1.95 2.22l-.06 0 -.21.01H12.6c-1.73 0-2.77-1.84-2-3.3l.02-.05 .1-.18 .38-.54c-.48-.42-.78-1.02-.78-1.7 0-1.15.84-2.09 1.94-2.23l.05-.01 .2-.02Zm2.25 13.503c-.24 1.41-1.48 2.49-2.96 2.49 -1.49 0-2.72-1.09-2.96-2.5h5.91Z"/></svg>