<svg viewBox="0 0 24 24" xmlns="http://www.w3.org/2000/svg"><path fill="currentColor" d="M9.04 19.003h5.91c-.24 1.41-1.48 2.49-2.96 2.49 -1.49 0-2.72-1.09-2.96-2.5Zm2.95-17c4.14 0 7.5 3.35 7.5 7.5v3.99l1.41 3.16c.05.12.08.25.08.38 0 .52-.43.95-.95.95H3.93c-.14 0-.27-.03-.39-.09 -.48-.22-.7-.78-.48-1.26l1.41-3.17 0-4.02 0-.25c.13-4.04 3.45-7.24 7.49-7.24Zm11 6.24c.41 0 .75.33.75.75 0 .37-.29.69-.65.74l-.11 0h-2c-.42 0-.75-.34-.75-.75 0-.38.28-.7.64-.75l.1-.01h2Zm-20 0c.41 0 .75.33.75.75 0 .37-.29.69-.65.74l-.11 0h-2c-.42 0-.75-.34-.75-.75 0-.38.28-.7.64-.75l.1-.01h2Zm19.6-5.7c.22.3.19.71-.07.97l-.09.07 -2 1.5c-.34.24-.81.18-1.05-.15 -.23-.31-.2-.72.06-.98l.08-.08 2-1.5c.33-.25.8-.19 1.05.15ZM2.44 2.39l2 1.5c.33.24.39.71.15 1.05 -.25.33-.72.39-1.05.15l-2-1.5c-.34-.25-.4-.72-.15-1.05 .24-.34.71-.4 1.05-.15Z"/></svg>