<svg viewBox="0 0 24 24" xmlns="http://www.w3.org/2000/svg"><path fill="currentColor" d="M10.42 19.924l3.56-1.52c.13.88-.34 1.77-1.2 2.13 -.86.36-1.83.08-2.37-.63Zm5.43-17.84c2.08 1.13 3.65 2.6 4.68 4.38 1.03 1.78 1.51 3.87 1.45 6.24 -.01.41-.36.74-.77.73 -.42-.01-.75-.36-.74-.77 .04-2.12-.38-3.93-1.26-5.47 -.89-1.54-2.25-2.81-4.11-3.83 -.37-.2-.5-.66-.3-1.02 .19-.37.65-.5 1.01-.3ZM6.7 6.504c2.86-1.28 6.2-.07 7.59 2.74l.09.2 1.28 2.89 1.69 1.46c.09.08.17.17.26.32l.05.11c.27.63-.01 1.36-.64 1.64l-10.33 4.57c-.16.07-.34.1-.51.1 -.7 0-1.25-.56-1.25-1.25l-.01-2.35 -1.25-2.8c-1.32-2.96 0-6.39 2.95-7.7Zm8.91-.83c.96.52 1.74 1.29 2.31 2.28 .57.99.85 2.04.82 3.15 -.02.41-.36.74-.77.73 -.42-.02-.75-.36-.74-.77 .02-.83-.19-1.61-.63-2.37s-1.02-1.33-1.74-1.73c-.37-.2-.5-.66-.3-1.02 .19-.37.65-.5 1.01-.3Z"/></svg>