<svg viewBox="0 0 24 24" xmlns="http://www.w3.org/2000/svg"><path fill="currentColor" d="M3.28 2.21c-.3-.3-.77-.3-1.07-.01 -.3.29-.3.76-.01 1.06l3 3c-.43.9-.69 1.9-.72 2.95l-.01.24 -.01 4.01 -1.42 3.16c-.22.47 0 1.04.47 1.25 .12.05.25.08.38.08h12.98l3.77 3.77c.29.29.76.29 1.06 0 .29-.3.29-.77 0-1.07L3.2 2.14ZM21 17.04c0 .21-.08.41-.2.57L7.04 3.85c1.32-1.17 3.05-1.87 4.94-1.87 4.14 0 7.5 3.35 7.5 7.5v3.99l1.41 3.16c.05.12.08.25.08.38Zm-6.05 1.95c-.24 1.41-1.48 2.49-2.96 2.49 -1.49 0-2.72-1.09-2.96-2.5h5.91Z"/></svg>