<svg viewBox="0 0 24 24" xmlns="http://www.w3.org/2000/svg"><g fill="currentColor"><path d="M4.79 12c0-1.33 1.07-2.4 2.4-2.4h9.6c1.32 0 2.4 1.07 2.4 2.4v2.4c0 1.32-1.08 2.4-2.4 2.4H7.18c-1.33 0-2.4-1.08-2.4-2.4V12Z"/><path d="M2.39 19.8c0-.34.26-.6.6-.6h18c.33 0 .6.26.6.6 0 .33-.27.6-.6.6H2.98c-.34 0-.6-.27-.6-.6Z"/><path fill="currentColor" fill-rule="evenodd" d="M4.49 12c0-1.5 1.2-2.7 2.7-2.7h9.6c1.49 0 2.7 1.2 2.7 2.7v2.4c0 1.49-1.21 2.7-2.7 2.7H7.18c-1.5 0-2.7-1.21-2.7-2.7V12Zm2.7-2.1c-1.16 0-2.1.94-2.1 2.1v2.4c0 1.15.94 2.1 2.1 2.1h9.6c1.15 0 2.1-.95 2.1-2.1V12c0-1.16-.95-2.1-2.1-2.1H7.18Zm-5.1 9.9c0-.5.4-.9.9-.9h18c.49 0 .9.4.9.9 0 .49-.41.9-.9.9H2.98c-.5 0-.9-.41-.9-.9Zm.9-.3c-.17 0-.3.13-.3.3 0 .16.13.3.3.3h18c.16 0 .3-.14.3-.3 0-.17-.14-.3-.3-.3H2.98Z"/></g></svg>