<svg viewBox="0 0 24 24" xmlns="http://www.w3.org/2000/svg"><path fill="currentColor" d="M4.5 2.25c0-.42-.34-.75-.75-.75 -.42 0-.75.33-.75.75v19.5c0 .41.33.75.75.75 .41 0 .75-.34.75-.75V2.25Zm16.5 0c0-.42-.34-.75-.75-.75 -.42 0-.75.33-.75.75v19.5c0 .41.33.75.75.75 .41 0 .75-.34.75-.75V2.25ZM6 6.75C6 5.5 7 4.5 8.25 4.5h7.5c1.24 0 2.25 1 2.25 2.25v1.5c0 1.24-1.01 2.25-2.25 2.25h-7.5C7 10.5 6 9.49 6 8.25v-1.5Zm0 9c0-1.25 1-2.25 2.25-2.25h7.5c1.24 0 2.25 1 2.25 2.25v1.5c0 1.24-1.01 2.25-2.25 2.25h-7.5C7 19.5 6 18.49 6 17.25v-1.5Z"/></svg>