<svg viewBox="0 0 24 24" xmlns="http://www.w3.org/2000/svg"><path fill="currentColor" d="M2.25 19.5c-.42 0-.75.33-.75.75 0 .41.33.75.75.75h19.5c.41 0 .75-.34.75-.75 0-.42-.34-.75-.75-.75H2.25Zm0-16.5c-.42 0-.75.33-.75.75 0 .41.33.75.75.75h19.5c.41 0 .75-.34.75-.75 0-.42-.34-.75-.75-.75H2.25Zm4.5 15C5.5 18 4.5 16.99 4.5 15.75v-7.5C4.5 7 5.5 6 6.75 6h1.5c1.24 0 2.25 1 2.25 2.25v7.5c0 1.24-1.01 2.25-2.25 2.25h-1.5Zm6.75-2.25c0 1.24 1 2.25 2.25 2.25h1.5c1.24 0 2.25-1.01 2.25-2.25v-7.5C19.5 7 18.49 6 17.25 6h-1.5C14.5 6 13.5 7 13.5 8.25v7.5Z"/></svg>