<svg viewBox="0 0 24 24" xmlns="http://www.w3.org/2000/svg"><path fill="currentColor" d="M5.54 5.16c-1.76.38-2.86 2.12-2.47 3.87l.26 1.2h16.53l-1.05-4.71c-.39-1.76-2.13-2.86-3.88-2.47L5.51 5.13Zm-.39 13.28L4.1 13.73h16.53l.26 1.2c.38 1.75-.72 3.48-2.47 3.87L9 20.88c-1.76.38-3.49-.72-3.88-2.47ZM.98 11.98c0-.42.33-.75.75-.75h2.5c.41 0 .75.33.75.75 0 .41-.34.75-.75.75h-2.5c-.42 0-.75-.34-.75-.75Zm6 0c0-.42.33-.75.75-.75h2.5c.41 0 .75.33.75.75 0 .41-.34.75-.75.75h-2.5c-.42 0-.75-.34-.75-.75Zm6.75-.75c-.42 0-.75.33-.75.75 0 .41.33.75.75.75h2.5c.41 0 .75-.34.75-.75 0-.42-.34-.75-.75-.75h-2.5Zm5.25.75c0-.42.33-.75.75-.75h2.5c.41 0 .75.33.75.75 0 .41-.34.75-.75.75h-2.5c-.42 0-.75-.34-.75-.75Z"/></svg>