<svg viewBox="0 0 24 24" xmlns="http://www.w3.org/2000/svg"><path fill="currentColor" d="M1.5 21.75c0 .41.33.75.75.75 .41 0 .75-.34.75-.75V2.24c0-.42-.34-.75-.75-.75 -.42 0-.75.33-.75.75v19.5Zm10.5 0c0 .41.33.75.75.75 .41 0 .75-.34.75-.75V2.24c0-.42-.34-.75-.75-.75 -.42 0-.75.33-.75.75v19.5ZM6.75 19.5c-1.25 0-2.25-1.01-2.25-2.25V6.74c0-1.25 1-2.25 2.25-2.25h1.5c1.24 0 2.25 1 2.25 2.25v10.5c0 1.24-1.01 2.25-2.25 2.25h-1.5ZM15 14.25c0 1.24 1 2.25 2.25 2.25h1.5c1.24 0 2.25-1.01 2.25-2.25V9.74c0-1.25-1.01-2.25-2.25-2.25h-1.5C16 7.49 15 8.49 15 9.74v4.5Z"/></svg>