<svg viewBox="0 0 24 24" xmlns="http://www.w3.org/2000/svg"><path fill="currentColor" d="M22.5 2.24c0-.42-.34-.75-.75-.75 -.42 0-.75.33-.75.75v19.49c0 .41.33.75.75.75 .41 0 .75-.34.75-.75V2.23Zm-10.5 0c0-.42-.34-.75-.75-.75 -.42 0-.75.33-.75.75v19.49c0 .41.33.75.75.75 .41 0 .75-.34.75-.75V2.23ZM5.25 19.48C4 19.48 3 18.47 3 17.23V6.73c0-1.25 1-2.25 2.25-2.25h1.5c1.24 0 2.25 1 2.25 2.25v10.49c0 1.24-1.01 2.25-2.25 2.25h-1.5Zm8.25-5.25c0 1.24 1 2.25 2.25 2.25h1.5c1.24 0 2.25-1.01 2.25-2.25v-4.5c0-1.25-1.01-2.25-2.25-2.25h-1.5c-1.25 0-2.25 1-2.25 2.25v4.49Z"/></svg>