<svg viewBox="0 0 24 24" xmlns="http://www.w3.org/2000/svg"><path fill="currentColor" d="M21.75 22.5c.41 0 .75-.34.75-.75 0-.42-.34-.75-.75-.75H2.25c-.42 0-.75.33-.75.75 0 .41.33.75.75.75h19.5Zm0-10.5c.41 0 .75-.34.75-.75 0-.42-.34-.75-.75-.75H2.25c-.42 0-.75.33-.75.75 0 .41.33.75.75.75h19.5ZM4.5 5.24c0-1.25 1-2.25 2.25-2.25h10.5c1.24 0 2.25 1 2.25 2.25v1.5c0 1.24-1.01 2.25-2.25 2.25l-10.5-.01C5.5 8.98 4.5 7.97 4.5 6.73v-1.5Zm5.25 8.25c-1.25 0-2.25 1-2.25 2.25v1.5c0 1.24 1 2.25 2.25 2.25h4.5c1.24 0 2.25-1.01 2.25-2.25v-1.5c0-1.25-1.01-2.25-2.25-2.25h-4.5Z"/></svg>