<svg viewBox="0 0 24 24" xmlns="http://www.w3.org/2000/svg"><g fill="currentColor"><path d="M3.6 21c0 .33.26.6.6.6 .33 0 .6-.27.6-.6V3c0-.34-.27-.6-.6-.6 -.34 0-.6.26-.6.6v18Z"/><path d="M9.6 4.8c-1.33 0-2.4 1.07-2.4 2.4v9.6c0 1.32 1.07 2.4 2.4 2.4h2.39c1.32 0 2.4-1.08 2.4-2.4V7.2c0-1.33-1.08-2.4-2.4-2.4h-2.4Z"/><path fill="currentColor" fill-rule="evenodd" d="M4.2 2.7c-.17 0-.3.13-.3.3v18c0 .16.13.3.3.3 .16 0 .3-.14.3-.3V3c0-.17-.14-.3-.3-.3Zm-.9.3c0-.5.4-.9.9-.9 .49 0 .9.4.9.9v18c0 .49-.41.9-.9.9 -.5 0-.9-.41-.9-.9V3Zm6.3 2.1c-1.16 0-2.1.94-2.1 2.1v9.6c0 1.15.94 2.1 2.1 2.1h2.39c1.15 0 2.1-.95 2.1-2.1V7.2c0-1.16-.95-2.1-2.1-2.1h-2.4ZM6.9 7.2c0-1.5 1.2-2.7 2.7-2.7h2.39c1.49 0 2.7 1.2 2.7 2.7v9.6c0 1.49-1.21 2.7-2.7 2.7h-2.4c-1.5 0-2.7-1.21-2.7-2.7V7.2Z"/></g></svg>