<svg viewBox="0 0 24 24" xmlns="http://www.w3.org/2000/svg"><path fill="currentColor" d="M2.24 1.5c-.42 0-.75.33-.75.75 0 .41.33.75.75.75l19.5 0c.41 0 .75-.34.75-.75 0-.42-.34-.75-.75-.75L2.23 1.49Zm0 10.49c-.42 0-.75.33-.75.75 0 .41.33.75.75.75h19.5c.41 0 .75-.34.75-.75 0-.42-.34-.75-.75-.75H2.23Zm12 9c1.24 0 2.25-1.01 2.25-2.25v-1.5c0-1.25-1.01-2.25-2.25-2.25H9.73c-1.25 0-2.25 1-2.25 2.25v1.5c0 1.24 1 2.25 2.25 2.25h4.5Zm3-10.5c1.24 0 2.25-1.01 2.25-2.25v-1.5c0-1.25-1.01-2.25-2.25-2.25H6.73c-1.25 0-2.25 1-2.25 2.25v1.5c0 1.24 1 2.24 2.25 2.24h10.5Z"/></svg>