<svg viewBox="0 0 24 24" xmlns="http://www.w3.org/2000/svg"><path fill="currentColor" d="M10.87 8.66c.38.21.84.33 1.37.33 .84 0 1.55-.31 2.04-.85 .48-.53.7-1.22.7-1.91 0-.42-.34-.75-.75-.75 -.42 0-.75.33-.75.75 0 .37-.13.68-.31.89 -.18.19-.48.35-.95.35 -.45 0-.74-.17-.92-.38 -.19-.21-.31-.51-.34-.84V4.21c0-1.25 1-2.25 2.24-2.25l3.18-.01c.5 0 1 .14 1.44.4l2.76 1.7c.22.13.35.37.35.63v1.5c0 1.24-1.01 2.25-2.25 2.25h-.25v9.53c.91.08 1.61.36 2.04.96 .25.35.36.76.4 1.12 .04.35.04.73.04 1.09v.03c0 .41-.34.75-.75.75H16.9v-.78c0-.58 0-2.21-1.5-3.17v-2.81c0-.42-.34-.75-.75-.75 -.42 0-.75.33-.75.75v2.26c-.17-.02-.33-.03-.5-.03 -.08 0-.15 0-.2 0 -.03 0-.05 0-.07 0l-.02 0 -.01 0 -.01 0c-.42.02-.74.37-.71.78 .02.41.37.73.78.7l0-.01 .01-.01 .04-.01c.04-.01.09-.01.14-.01 .43 0 .71.07.9.17 .01 0 .02.01.03.01 1.03.48 1.06 1.439 1.06 2.07v.75H5.67c-2.12 0-3.84-1.72-3.84-3.84 0-1.4.74-2.63 1.86-3.29 .35-.22.81-.1 1.02.25 .21.35.09.81-.26 1.02 -.69.4-1.14 1.15-1.14 2 0 1.28 1.04 2.33 2.33 2.33 .31 0 .51-.09.64-.18 .13-.1.24-.24.33-.41 .08-.18.13-.35.16-.5 .01-.07.02-.13.02-.17 0-.02 0-.03 0-.04l0-.04c0-.04 0-.09 0-.15 0-.13.01-.3.02-.51 .03-.43.09-1.02.23-1.68 .25-1.3.79-2.97 1.95-4.14 .84-.86 1.3-2.12 1.54-3.37 .04-.24.08-.48.11-.7Z"/></svg>