<svg viewBox="0 0 24 24" xmlns="http://www.w3.org/2000/svg"><path fill="currentColor" d="M17.68 18.74l3.53 3.53c.29.29.76.29 1.06 0 .29-.3.29-.77 0-1.07L2.76 1.7c-.3-.3-.77-.3-1.07 0 -.3.29-.3.76 0 1.06l5.03 5.03c-.46-.21-.97-.32-1.51-.32 -2.08 0-3.75 1.67-3.75 3.75 0 1.81 1.28 3.32 3 3.67v1.57c0 2.07 1.67 3.75 3.75 3.75h3.75v-1.88c0-1.04-.84-1.875-1.875-1.875H8.95c-.42 0-.75-.34-.75-.75 0-.42.33-.75.75-.75h1.12c1.86 0 3.375 1.51 3.375 3.375v1.875l1.57 0c1.11 0 2.08-.61 2.6-1.51Zm4.81-6c0 1.91-1.21 3.55-2.9 4.2l-7.96-7.96h1.54c.1-.2.21-.39.35-.57l-1.43-1.77c-.72-.89-.67-2.17.13-2.99 .88-.92 2.35-.92 3.24 0l5.37 5.59c.99.82 1.62 2.06 1.62 3.46Z"/></svg>