<svg viewBox="0 0 24 24" xmlns="http://www.w3.org/2000/svg"><path fill="currentColor" d="M7.24 22l-.02-.01H5.78c-2.1 0-3.8-1.71-3.8-3.8 0-.97.36-1.89 1.02-2.6l1.13-1.22c.76-.82 1.01-2 .66-3.06 -.16-.46-.41-.86-.74-1.2L2.93 8.99c-.3-.3-.3-.77-.01-1.07 .29-.3.76-.3 1.06-.01l1.11 1.11c.5.5.87 1.11 1.1 1.78 .52 1.58.14 3.33-1 4.55l-1.14 1.21c-.4.42-.62.98-.62 1.56 0 1.26 1.02 2.29 2.29 2.29h.67c-.01-.29-.01-.64.01-1.04 .03-1.09.15-2.55.49-4.02 .34-1.47.91-3 1.89-4.18 .87-1.05 2.05-1.81 3.6-1.99V5.03c0-1.74 1.4-3.15 3.14-3.15 .74 0 1.34.6 1.34 1.35v.65h1.63c.95 0 1.83.49 2.33 1.3l.61 1c1.09 1.76-.09 4.01-2.1 4.18v9.26c0 1.24-1.01 2.25-2.25 2.25h-.75v-2.25c0-2.08-1.68-3.75-3.75-3.75h-1.25c-.42 0-.75.33-.75.75 0 .41.33.75.74.75h1.24c1.24 0 2.24 1 2.24 2.25v2.25H7.05Z"/></svg>