<svg viewBox="0 0 24 24" xmlns="http://www.w3.org/2000/svg"><path fill="currentColor" d="M10.99 5.99c2.62 0 4.94 1.66 5.79 4.12l.07.23 .04.14 2.33 0c1.46 0 2.65 1.14 2.74 2.58l0 .16v.99c0 .91-.71 1.67-1.61 1.74l-.15 0 -1.63-.01 .24.58c.34.84-.02 1.8-.82 2.22l-.14.06c-.16.06-.33.1-.5.12l-.18 0h-1.79c-.63 0-1.2-.34-1.52-.87l-.08-.14 -.54-1.15 .05-.01c-1.41.18-2.82.2-4.23.06l-.5-.06 -.54 1.13c-.29.61-.91 1-1.59 1H4.62c-.23 0-.46-.05-.67-.14 -.9-.37-1.32-1.4-.96-2.29l.43-1.06c-.95-.57-1.58-1.6-1.58-2.78 0-.38.28-.7.64-.75l.1-.01 1.88-.01 .49-1.65c.78-2.59 3.16-4.36 5.87-4.36Zm6.77 9.69c-.78.3-1.56.56-2.36.76l-.55.12 .36.77c.02.05.06.09.11.11l.05.01 .05 0h1.78c.03 0 .06-.01.09-.02 .1-.05.16-.16.15-.27l-.02-.07 -.48-1.16 -.05 0 .41-.15 .4-.16ZM4.2 15.67l.39.15 .38.14 -.49 1.16c-.06.12 0 .27.13.32 .03.01.06.01.09.01h1.8l.05-.01c.07-.02.13-.07.16-.14l.35-.77 .04 0c-1.01-.22-2-.52-2.97-.91Zm-.21-1.7l.15-.5 -.51 0 .02.05c.08.16.19.31.33.44Zm13.34-2l.75 2.49 2.11 0c.11 0 .21-.09.24-.2l0-.06v-1c0-.65-.5-1.18-1.13-1.25l-.13-.01 -1.88-.01Z"/></svg>