<svg viewBox="0 0 24 24" xmlns="http://www.w3.org/2000/svg"><path fill="currentColor" d="M15.53 5.43l5.42 5.43c1.39 1.39 1.39 3.65 0 5.04 -.91.9-2.19 1.22-3.35.94v.12c0 1.1-.9 2-2 2l-2.12-.01 0-.75 -.01-.17c-.09-1.39-1.19-2.5-2.57-2.59l-.18-.01h-1l-.11 0c-.37.04-.65.36-.65.74s.28.69.64.74l.1 0h.99l.12 0c.58.05 1.05.52 1.11 1.11l0 .12 -.01.74 -5 0c-1.11 0-2-.9-2-2.01v-2.51c0-.2.01-.38.03-.57 -.18.04-.36.06-.55.06 -1.39 0-2.5-1.13-2.5-2.51 0-1.39 1.11-2.51 2.49-2.51 1.14 0 2.11.77 2.4 1.83 .73-.53 1.62-.83 2.59-.83h3.61c.6 0 1.17.11 1.7.33 .16-.28.36-.54.59-.78l-2-2c-.59-.59-.59-1.53 0-2.11 .58-.59 1.52-.59 2.1 0Z"/></svg>