<svg viewBox="0 0 24 24" xmlns="http://www.w3.org/2000/svg"><path fill="currentColor" d="M6.25 3C4.45 3 3 4.45 3 6.25v11.5C3 19.54 4.45 21 6.25 21h11.5c1.79 0 3.25-1.46 3.25-3.25V6.25C21 4.45 19.54 3 17.75 3H6.25ZM4.5 8h15v9.75c0 .96-.79 1.75-1.75 1.75H6.25c-.97 0-1.75-.79-1.75-1.75V8ZM6 10.35c0-.47.38-.85.85-.85h3.3c.46 0 .85.38.85.85v6.8c0 .46-.39.85-.85.85h-3.3c-.47 0-.85-.39-.85-.85v-6.8Zm1.5.65v5.5h2V11h-2Zm5.25-1.5h4.5c.41 0 .75.33.75.75 0 .41-.34.75-.75.75h-4.5c-.42 0-.75-.34-.75-.75 0-.42.33-.75.75-.75ZM12 13.25c0-.42.33-.75.75-.75h3.5c.41 0 .75.33.75.75 0 .41-.34.75-.75.75h-3.5c-.42 0-.75-.34-.75-.75Z"/></svg>