<svg viewBox="0 0 24 24" xmlns="http://www.w3.org/2000/svg"><path fill="currentColor" d="M11.5 14.25c0-.97-.79-1.75-1.76-1.75h-2c-.97 0-1.75.78-1.75 1.75v2c0 .96.78 1.75 1.75 1.75h2c.96 0 1.75-.79 1.75-1.75v-2Zm6.49 0c0-.97-.79-1.75-1.75-1.75h-2c-.97 0-1.75.78-1.75 1.75v2c0 .96.78 1.75 1.75 1.75h2c.96 0 1.75-.79 1.75-1.75v-2Zm-6.5-6.5c0-.97-.79-1.75-1.75-1.75h-2c-.97 0-1.75.78-1.75 1.75v2c0 .96.78 1.75 1.75 1.75h2c.96 0 1.75-.79 1.75-1.75v-2Zm6.49 0c0-.97-.79-1.75-1.75-1.75h-2c-.97 0-1.75.78-1.75 1.75v2c0 .96.78 1.75 1.75 1.75h2c.96 0 1.75-.79 1.75-1.75v-2ZM6.23 3c-1.8 0-3.25 1.45-3.25 3.25v11.5c0 1.79 1.45 3.25 3.25 3.25h11.5c1.79 0 3.25-1.46 3.25-3.25V6.25c0-1.8-1.46-3.25-3.25-3.25H6.23ZM4.48 6.25c0-.97.78-1.75 1.75-1.75h11.5c.96 0 1.75.78 1.75 1.75v11.5c0 .96-.79 1.75-1.75 1.75H6.23c-.97 0-1.75-.79-1.75-1.75V6.25Z"/></svg>