<svg viewBox="0 0 24 24" xmlns="http://www.w3.org/2000/svg"><path fill="currentColor" d="M17.75 3C19.54 3 21 4.45 21 6.25v11.5c0 1.79-1.46 3.25-3.25 3.25H6.25C4.45 21 3 19.54 3 17.75V6.25C3 4.45 4.45 3 6.25 3h11.5ZM9.36 15.25H7.62l-.07.11 -.05.09c-.15.34-.02.74.31.93 .32.19.74.1.96-.19l.05-.09 .5-.88Zm3.92-5.23l-.88 1.49 2.65 4.6 .05.08c.22.29.63.37.96.19 .32-.19.45-.6.31-.94l-.05-.1 -.51-.88 .87 0 .1-.01c.33-.05.59-.31.64-.65l0-.11 -.01-.11c-.05-.34-.31-.6-.65-.65l-.11-.01 -1.75-.01 -1.72-2.98Zm-.03-2.93c-.33-.2-.75-.11-.97.18l-.06.08 -.25.4 -.24-.41 -.06-.09c-.21-.27-.56-.37-.87-.24l-.11.04 -.09.05c-.27.2-.37.55-.24.86l.04.1 .66 1.14 -2.19 3.73h-1.7l-.11 0c-.37.04-.65.36-.65.74 0 .37.28.69.64.74l.1 0 6.02-.01 -.87-1.5 -1.74-.01 2.84-4.88 .04-.1c.14-.35.01-.75-.32-.94Z"/></svg>