<svg viewBox="0 0 24 24" xmlns="http://www.w3.org/2000/svg"><path fill="currentColor" d="M10.54 1.79c.39-.4 1.02-.4 1.41 0l2.49 2.49c.18.18.29.44.29.7 0 .26-.11.51-.3.7l-2.5 2.49c-.4.39-1.03.39-1.42 0 -.4-.4-.4-1.03 0-1.42l.75-.76c-3.54.35-6.31 3.33-6.31 6.96 0 3.86 3.13 7 7 7 3.56 0 6.51-2.68 6.94-6.13 .06-.55.56-.94 1.11-.87 .54.06.93.56.86 1.11 -.56 4.44-4.35 7.87-8.94 7.87 -4.98 0-9-4.03-9-9 0-4.76 3.68-8.65 8.35-8.98l-.82-.82c-.4-.4-.4-1.03 0-1.42Zm5.66 8c.39.39.39 1.02 0 1.41l-4.5 4.5c-.4.39-1.03.39-1.42 0l-2.01-2c-.4-.4-.4-1.03 0-1.42 .39-.4 1.02-.4 1.41 0l1.29 1.29 3.79-3.8c.39-.4 1.02-.4 1.41 0Z"/></svg>