<svg viewBox="0 0 24 24" xmlns="http://www.w3.org/2000/svg"><path fill="currentColor" d="M10.5 3C11.88 3 13 4.11 13 5.5V11h5.5c1.38 0 2.5 1.11 2.5 2.5v5c0 1.38-1.12 2.5-2.5 2.5h-13C4.11 21 3 19.88 3 18.5v-13C3 4.11 4.11 3 5.5 3h5Zm.5 10H5v5.5c0 .27.22.5.5.5H11v-6Zm7.5 0H13v6h5.5c.27 0 .5-.23.5-.5v-5c0-.28-.23-.5-.5-.5Zm-8-8h-5c-.28 0-.5.22-.5.5V11h6V5.5c0-.28-.23-.5-.5-.5Zm7.38-3l.11-.01c.51 0 .93.38.99.88l0 .11v2h2c.51 0 .93.38.99.88l0 .11c0 .51-.39.93-.89.99l-.12 0h-2v2c0 .51-.39.93-.89.99l-.12 0c-.52 0-.94-.39-1-.89l-.01-.12v-2h-2c-.52 0-.94-.39-1-.89l-.01-.12c0-.52.38-.94.88-1l.11-.01h2v-2c0-.52.38-.94.88-1l.11-.01 -.12 0Z"/></svg>