<svg viewBox="0 0 24 24" xmlns="http://www.w3.org/2000/svg"><path fill="currentColor" d="M18.49 2.33l3.17 3.17c.87.87.87 2.3 0 3.18l-2.59 2.58c1.08.16 1.91 1.09 1.91 2.22v5.25c0 1.24-1.01 2.25-2.25 2.25H5.23c-1.25 0-2.25-1.01-2.25-2.25V5.23c0-1.25 1-2.25 2.25-2.25h5.25c1.12 0 2.06.83 2.22 1.91l2.58-2.59c.87-.88 2.3-.88 3.18 0Zm-14 16.41c0 .41.33.75.75.75l5.99-.01 0-6.75 -6.75-.01v6Zm8.24.74l6 0c.41 0 .75-.34.75-.75v-5.25c0-.42-.34-.75-.75-.75l-6.01-.01v6.75Zm-2.25-15H5.23c-.42 0-.75.33-.75.75v5.99h6.75v-6c0-.42-.34-.75-.75-.75Zm2.25 4.8v1.94l1.94-.01 -1.94-1.94Z"/></svg>