<svg viewBox="0 0 24 24" xmlns="http://www.w3.org/2000/svg"><path fill="currentColor" d="M6.24 16c.96 0 1.75.78 1.75 1.75v2.49c0 .96-.79 1.75-1.75 1.75h-2.5c-.97 0-1.75-.79-1.75-1.75v-2.5c0-.97.78-1.75 1.75-1.75h2.49Zm3.5 1.99h11.5c.41 0 .75.33.75.75 0 .37-.29.69-.65.74l-.11 0H9.72c-.42 0-.75-.34-.75-.75 0-.38.28-.7.64-.75l.1-.01h11.5H9.7Zm-3.51-9c.96 0 1.75.78 1.75 1.75v2.49c0 .96-.79 1.75-1.75 1.75h-2.5c-.97 0-1.75-.79-1.75-1.75v-2.5c0-.97.78-1.76 1.75-1.76h2.49Zm3.5 1.99h11.5c.41 0 .75.33.75.75 0 .37-.29.69-.65.74l-.11 0H9.71c-.42 0-.75-.34-.75-.75 0-.38.28-.7.64-.75l.1-.01h11.5H9.69Zm-3.51-9c.96 0 1.75.78 1.75 1.75v2.49c0 .96-.79 1.75-1.75 1.75h-2.5c-.97 0-1.75-.79-1.75-1.75v-2.5c0-.97.78-1.75 1.75-1.75h2.49Zm3.5 2h11.5c.41 0 .75.33.75.75 0 .37-.29.69-.65.74l-.11 0H9.7c-.42 0-.75-.34-.75-.75 0-.38.28-.7.64-.75l.1-.01h11.5H9.68Z"/></svg>