<svg viewBox="0 0 24 24" xmlns="http://www.w3.org/2000/svg"><path fill="currentColor" d="M4.25 4C3 4 2 5 2 6.25v2.5C2 9.99 3 11 4.25 11h2.5C7.99 11 9 9.99 9 8.75v-2.5C9 5 7.99 4 6.75 4h-2.5Zm7 1c-.42 0-.75.33-.75.75 0 .41.33.75.75.75h10c.41 0 .75-.34.75-.75 0-.42-.34-.75-.75-.75h-10Zm0 3c-.42 0-.75.33-.75.75 0 .41.33.75.75.75h7c.41 0 .75-.34.75-.75 0-.42-.34-.75-.75-.75h-7Zm-7 5C3 13 2 14 2 15.25v2.5C2 18.99 3 20 4.25 20h2.5C7.99 20 9 18.99 9 17.75v-2.5C9 14 7.99 13 6.75 13h-2.5Zm7 1c-.42 0-.75.33-.75.75 0 .41.33.75.75.75h10c.41 0 .75-.34.75-.75 0-.42-.34-.75-.75-.75h-10Zm0 3c-.42 0-.75.33-.75.75 0 .41.33.75.75.75h7c.41 0 .75-.34.75-.75 0-.42-.34-.75-.75-.75h-7Z"/></svg>