<svg viewBox="0 0 24 24" xmlns="http://www.w3.org/2000/svg"><path fill="currentColor" d="M4.75 2C3.78 2 3 2.78 3 3.75v1.5C3 6.21 3.78 7 4.75 7h13.5C19.21 7 20 6.21 20 5.25v-1.5C20 2.78 19.21 2 18.25 2H4.75ZM19 8H4v7.75c0 2.07 1.67 3.75 3.75 3.75h7.5c2.07 0 3.75-1.68 3.75-3.75V8ZM9 11.25c0-.42.33-.75.75-.75h3.47c.41 0 .75.33.75.75 0 .41-.34.75-.75.75H9.74c-.42 0-.75-.34-.75-.75Zm12.5.5c0-1.23-.59-2.32-1.5-3.01v7.5c0 2.34-1.91 4.25-4.25 4.25h-5.5 -.01 -3c.68.91 1.77 1.5 3 1.5h5.5c3.17 0 5.75-2.58 5.75-5.75v-4.5Z"/></svg>