<svg viewBox="0 0 24 24" xmlns="http://www.w3.org/2000/svg"><path fill="currentColor" d="M3 4.5C3 3.67 3.67 3 4.5 3h15c.82 0 1.5.67 1.5 1.5V6c0 .82-.68 1.5-1.5 1.5h-15C3.67 7.5 3 6.82 3 6V4.5ZM4 9h16v2.49c-.77-.33-1.62-.5-2.5-.5 -1.09 0-2.11.26-3.01.73 -.01-.41-.35-.74-.75-.74h-3.5c-.42 0-.75.33-.75.75 0 .41.33.75.75.75h3.09c-1.44 1.19-2.35 2.98-2.35 5 0 1.28.37 2.48 1.02 3.5H7.72c-2.08 0-3.75-1.68-3.75-3.75V8.98Zm10.27 4.97c.31 1.09-.34 2.22-1.45 2.49l-.59.14c-.05.28-.07.58-.07.88 0 .31.02.62.07.92l.53.12c1.11.26 1.77 1.41 1.45 2.51l-.19.63c.43.38.93.69 1.48.92l.49-.52c.78-.83 2.11-.83 2.89 0l.49.52c.54-.23 1.04-.54 1.48-.92l-.2-.69c-.32-1.1.33-2.23 1.44-2.5l.58-.15c.04-.29.06-.59.06-.89 0-.32-.03-.63-.08-.93l-.54-.13c-1.12-.27-1.78-1.42-1.45-2.52l.18-.64c-.44-.39-.94-.7-1.49-.93l-.5.51c-.79.82-2.12.82-2.9-.01l-.5-.53c-.55.22-1.05.53-1.49.91l.19.68Zm3.22 5.02c-.81 0-1.45-.68-1.45-1.5 0-.83.64-1.5 1.44-1.5 .8 0 1.44.67 1.44 1.5 0 .82-.65 1.5-1.45 1.5Z"/></svg>