<svg viewBox="0 0 24 24" xmlns="http://www.w3.org/2000/svg"><path fill="currentColor" d="M3 4.5C3 3.67 3.67 3 4.5 3h15c.82 0 1.5.67 1.5 1.5V6c0 .82-.68 1.5-1.5 1.5h-15C3.67 7.5 3 6.82 3 6V4.5ZM4 9h16v2.49c-.77-.33-1.62-.5-2.5-.5 -1.09 0-2.11.26-3.01.73 -.01-.41-.35-.74-.75-.74h-3.5c-.42 0-.75.33-.75.75 0 .41.33.75.75.75h3.09c-1.44 1.19-2.35 2.98-2.35 5 0 1.28.37 2.48 1.02 3.5H7.72c-2.08 0-3.75-1.68-3.75-3.75V8.98Zm19 8.5c0 3.03-2.47 5.5-5.5 5.5 -3.04 0-5.5-2.47-5.5-5.5 0-3.04 2.46-5.5 5.5-5.5 3.03 0 5.5 2.46 5.5 5.5Zm-6.65-2.15c.19-.2.19-.52 0-.71 -.2-.2-.52-.2-.71 0l-1.5 1.5c-.2.19-.2.51 0 .7l1.5 1.5c.19.19.51.19.7 0 .19-.2.19-.52 0-.71l-.65-.65h2.04c1.24 0 2.25 1 2.25 2.25v.25c0 .27.22.5.5.5 .27 0 .5-.23.5-.5v-.25c0-1.8-1.46-3.25-3.25-3.25h-2.05l.64-.65Z"/></svg>