<svg viewBox="0 0 24 24" xmlns="http://www.w3.org/2000/svg"><path fill="currentColor" d="M12 2.75c-.66 0-1.31.06-1.93.2 -.55.11-.89.64-.78 1.18 .11.54.64.88 1.18.77 .48-.11.99-.16 1.5-.16s1.02.05 1.5.15c.54.11 1.07-.24 1.18-.78 .11-.55-.24-1.08-.78-1.19 -.63-.14-1.27-.21-1.93-.21Zm5.75 2v-.51c0-.56.44-1 1-1 .55 0 1 .44 1 1v3c0 .55-.45 1-1 1h-3c-.56 0-1-.45-1-1 0-.56.44-1 1-1h.66c-.16-.12-.31-.23-.47-.34 -.47-.31-.6-.93-.3-1.39 .3-.47.92-.6 1.38-.3 .24.15.48.33.71.51Zm-9.41-.22c-.31-.47-.93-.6-1.39-.3 -1.09.7-2.02 1.63-2.72 2.71 -.31.46-.18 1.08.29 1.38 .46.3 1.08.17 1.38-.3 .55-.86 1.28-1.58 2.13-2.14 .46-.31.59-.93.29-1.39ZM4.13 9.3c-.55-.12-1.08.23-1.19.77 -.14.62-.21 1.26-.21 1.92 0 .65.06 1.3.2 1.92 .11.54.64.88 1.18.77 .54-.12.88-.65.77-1.19 -.11-.49-.16-1-.16-1.51 0-.52.05-1.03.15-1.51 .11-.55-.24-1.08-.78-1.19Zm16.11.94c-.56 0-1 .44-1 1v.75c0 .51-.06 1.02-.16 1.5 -.12.54.23 1.07.77 1.18 .54.11 1.07-.24 1.18-.78 .13-.63.2-1.27.2-1.93v-.75c0-.56-.45-1-1-1Zm-.79 5.4c-.47-.31-1.09-.18-1.39.29 -.56.85-1.282 1.57-2.14 2.13 -.47.3-.6.92-.3 1.38 .3.46.92.59 1.38.29 1.08-.71 2.01-1.64 2.71-2.72 .3-.47.17-1.09-.3-1.39Zm-13.55.29c-.31-.47-.93-.6-1.39-.3 -.47.3-.6.92-.3 1.38 .7 1.08 1.63 2.01 2.71 2.71 .46.3 1.08.17 1.38-.3 .3-.47.17-1.09-.3-1.39 -.86-.56-1.58-1.282-2.14-2.14Zm4.57 3.14c-.55-.12-1.08.23-1.19.77 -.12.54.23 1.07.77 1.18 .62.13 1.26.2 1.92.2 .65 0 1.3-.07 1.92-.21 .54-.12.88-.65.77-1.19 -.12-.55-.65-.89-1.19-.78 -.49.1-1 .15-1.51.15 -.52 0-1.03-.06-1.51-.16Z"/></svg>