<svg viewBox="0 0 24 24" xmlns="http://www.w3.org/2000/svg"><path fill="currentColor" d="M17.5 3.99c1.38 0 2.5 1.11 2.5 2.5v4c0 .55-.45 1-1 1 -.56 0-1-.45-1-1V6.48c0-.28-.23-.5-.5-.5h-11c-.28 0-.5.22-.5.5v4c0 .55-.45 1-1 1 -.56 0-1-.45-1-1V6.47c0-1.39 1.11-2.5 2.5-2.5h11Zm.69 9.04l-.1-.09 -.01-.01c-.4-.3-.95-.26-1.31.09 -.36.35-.39.91-.1 1.3l0 0 .08.09 .8.79h-3.19l-.11 0 -.01 0c-.47.07-.78.51-.78.99 0 .47.31.91.77.99l0 0 .1 0h3.18l-.81.8 -.1.1 -.01 0c-.26.35-.25.82 0 1.17l0 0 .09.1 .11.09 0 0c.35.25.82.24 1.17-.01l0-.01 .09-.09 2.36-2.36 .06-.05 0-.01c.22-.19.36-.49.36-.81 0-.36-.17-.69-.45-.87l-2.36-2.36ZM7.26 14.34l-.09.09 -.81.79h3.17c.53-.01.9.48.9.99 0 .47-.32.91-.78.99l-.01 0 -.11 0H6.34l.79.79c.35.35.38.91.09 1.3l-.01 0 -.09.09 -.01 0c-.36.35-.92.38-1.31.09l-.01-.01 -.1-.09 -2.36-2.36c-.28-.18-.45-.51-.45-.87s.16-.69.44-.87l2.35-2.35c.39-.4 1.02-.4 1.41 0 .35.35.38.91.09 1.3l-.01 0Z"/></svg>