<svg viewBox="0 0 24 24" xmlns="http://www.w3.org/2000/svg"><path fill="currentColor" d="M11.625 21c-.63 0-1.125-.51-1.125-1.125 0-.63.5-1.125 1.125-1.125h5.53l-1.83-1.83c-.44-.44-.44-1.16 0-1.6 .43-.44 1.15-.44 1.59 0l1.82 1.82V11.6c0-.63.5-1.125 1.125-1.125 .62 0 1.125.5 1.125 1.125v8.25c0 .62-.51 1.125-1.125 1.125h-8.25Zm1.54-9.43c.43.43.43 1.15 0 1.59 -.44.43-1.16.43-1.6 0l-2.25-2.25c-.44-.44-.44-1.16 0-1.6 .43-.44 1.15-.44 1.59 0l2.25 2.25Zm-6-6c.43.43.43 1.15 0 1.59 -.44.43-1.16.43-1.6 0L3.31 4.91c-.44-.44-.44-1.16 0-1.6 .43-.44 1.15-.44 1.59 0l2.25 2.25Z"/></svg>