<svg viewBox="0 0 24 24" xmlns="http://www.w3.org/2000/svg"><path fill="currentColor" d="M21 4c0-.56-.45-1-1-1l-5-.01c-.56 0-1 .44-1 1 0 .55.44 1 1 1l2.58 0 -5.09 5.08 -1.8-1.8c-.19-.19-.45-.3-.71-.3 -.27 0-.52.1-.71.29l-6 6c-.4.39-.4 1.02 0 1.41 .39.39 1.02.39 1.41 0l5.29-5.3 1.79 1.79c.15.15.35.25.56.28 .29-.2.62-.34.98-.42l5.65-5.66v2.58c0 .55.44 1 1 1 .55 0 1-.45 1-1.01v-5Zm-7 8.99c-1.11 0-2 .89-2 2v6c0 1.1.89 2 2 2h7c1.1 0 2-.9 2-2v-6c0-1.11-.9-2-2-2h-7Zm0 3.5c0-.28.22-.5.5-.5h6c.27 0 .5.22.5.5 0 .27-.23.5-.5.5h-6c-.28 0-.5-.23-.5-.5Zm0 3c0-.28.22-.5.5-.5h6c.27 0 .5.22.5.5 0 .27-.23.5-.5.5h-6c-.28 0-.5-.23-.5-.5Z"/></svg>