<svg viewBox="0 0 24 24" xmlns="http://www.w3.org/2000/svg"><path fill="currentColor" d="M15.21 3.21c-.3.29-.3.76 0 1.06l3.21 3.21h-3.51c-2.21-.01-4.36-.01-6.34.59 -2.05.61-3.88 1.85-5.471 4.23 -.23.34-.14.81.2 1.04 .34.22.81.13 1.04-.21 1.4-2.12 2.95-3.13 4.65-3.64 1.74-.53 3.69-.54 5.97-.54h3.43l-3.22 3.21c-.3.29-.3.76 0 1.06 .29.29.76.29 1.06 0l4.49-4.5c.29-.3.29-.77 0-1.07l-4.5-4.5c-.3-.3-.77-.3-1.07 0Zm-3.22 19.28c1.65 0 3-1.35 3-3 0-1.66-1.35-3-3-3 -1.66 0-3 1.34-3 3 0 1.65 1.34 3 2.99 3Z"/></svg>