<svg viewBox="0 0 24 24" xmlns="http://www.w3.org/2000/svg"><path fill="currentColor" d="M13.79 18.7c.39.39 1.02.39 1.41 0 .39-.4.39-1.03 0-1.42l-2.5-2.5c-.4-.4-1.03-.4-1.42 0l-2.51 2.5c-.4.39-.4 1.02 0 1.41 .39.39 1.02.39 1.41 0l.79-.8v3.08c0 .55.44 1 1 1 .55 0 1-.45 1-1v-3.09l.79.79Zm-9.8-6.71c0-.56.44-1 1-1h14c.55 0 1 .44 1 1 0 .55-.45 1-1 1h-14c-.56 0-1-.45-1-1Zm9-9.01c0-.56-.45-1-1-1 -.56 0-1 .44-1 1v3.08l-.8-.8c-.4-.4-1.03-.4-1.42 0 -.4.39-.4 1.02 0 1.41l2.5 2.5c.39.39 1.02.39 1.41 0l2.5-2.5c.39-.4.39-1.03 0-1.42 -.4-.4-1.03-.4-1.42 0l-.8.79V2.95Z"/></svg>