<svg viewBox="0 0 24 24" xmlns="http://www.w3.org/2000/svg"><path fill="currentColor" d="M14.71 2.28l-.09-.08c-.4-.32-.97-.29-1.33.07l-.08.08c-.32.39-.29.96.07 1.32l1.29 1.29 -5.6 0 -.25 0c-3.76.12-6.76 3.2-6.76 6.99 0 1.44.43 2.78 1.18 3.89 .18.25.47.41.81.41 .55 0 1-.45 1-1 0-.22-.07-.42-.19-.58l-.14-.22c-.44-.74-.69-1.6-.69-2.52 0-2.76 2.23-5 4.99-5l5.59-.01 -1.3 1.29 -.08.08c-.32.39-.29.96.07 1.32 .39.39 1.02.39 1.41 0l3-3.01 .07-.09c.31-.4.28-.97-.08-1.33l-3.01-3.01Zm6.07 5.77c-.19-.24-.47-.39-.79-.39 -.56 0-1 .44-1 .99 0 .2.06.4.17.56 .43.65.71 1.42.8 2.24 .73.3 1.41.74 1.98 1.28 .02-.26.04-.52.04-.78 0-1.46-.45-2.82-1.22-3.94l-.01 0ZM9.4 16.97l1.6 0c-.02.16-.02.33-.02.51 0 .51.05 1 .17 1.48l-1.77-.01 1.3 1.3 .07.08c.31.39.28.96-.08 1.32 -.37.36-.93.38-1.33.08l-.1-.09 -3.01-3.01 -.08-.09c-.29-.36-.29-.87-.01-1.24l.08-.1 3-3.01 .08-.08c.35-.29.87-.29 1.23-.01l.09.08 .07.08c.28.35.28.86 0 1.23l-.09.09 -1.3 1.29Zm13.58.51c0 3.03-2.47 5.5-5.5 5.5 -3.04 0-5.5-2.47-5.5-5.5 0-3.04 2.46-5.5 5.5-5.5 3.03 0 5.5 2.46 5.5 5.5Zm-4.89-3.49c-.23-.06-.46.05-.57.26 -.06.11-.28.45-.62.82 -.34.37-.75.73-1.17.94 -.25.12-.35.42-.23.67 .12.24.42.34.67.22 .48-.25.92-.62 1.27-.98v4.53c0 .27.22.5.5.5 .27 0 .5-.23.5-.5v-6c0-.24-.16-.44-.39-.49Z"/></svg>