<svg viewBox="0 0 24 24" xmlns="http://www.w3.org/2000/svg"><path fill="currentColor" d="M8.5 4l-.12 0c-.5.05-.89.48-.89.99l-.01 11.57 -2.3-2.3 -.1-.09c-.4-.31-.96-.28-1.32.08 -.4.39-.4 1.02 0 1.41l4 4 .09.08c.39.3.95.27 1.31-.09l3.99-4 .08-.1c.3-.4.27-.96-.09-1.32l-.1-.09c-.4-.31-.96-.28-1.32.08l-2.3 2.29 0-11.59 -.01-.12c-.06-.5-.49-.89-1-.89Zm4.5.99c-.56 0-1 .44-1 1 0 .55.44 1 1 1h8c.55 0 1-.45 1-1 0-.56-.45-1-1-1h-8Zm0 3c-.56 0-1 .44-1 1 0 .55.44 1 1 1h5c.55 0 1-.45 1-1 0-.56-.45-1-1-1h-5Zm-1 4c0-.56.44-1 1-1h2c.55 0 1 .44 1 1 0 .55-.45 1-1 1h-2c-.56 0-1-.45-1-1Z"/></svg>