<svg viewBox="0 0 24 24" xmlns="http://www.w3.org/2000/svg"><path fill="currentColor" d="M7 19c0 .55.44 1 1 1h5c2.24 0 4.01-.78 5.21-2.03 1.19-1.24 1.78-2.87 1.78-4.48 0-1.62-.59-3.25-1.79-4.48 -1.21-1.25-2.98-2.03-5.22-2.03H8.39l2.04-2.05c.39-.4.39-1.03 0-1.42 -.4-.4-1.03-.4-1.42 0L5.26 7.26c-.4.39-.4 1.02 0 1.41l3.75 3.74c.39.39 1.02.39 1.41 0 .39-.4.39-1.03 0-1.42L8.37 8.94h4.58c1.75 0 2.98.59 3.78 1.41 .8.82 1.21 1.94 1.21 3.08 0 1.13-.42 2.25-1.22 3.08 -.8.81-2.03 1.41-3.79 1.41h-5c-.56 0-1 .44-1 1Z"/></svg>