<svg viewBox="0 0 24 24" xmlns="http://www.w3.org/2000/svg"><g fill="currentColor"><path d="M15.63 4.46c.35.35.35.92 0 1.27l-3 3c-.36.35-.93.35-1.28 0l-3-3.01c-.36-.36-.36-.93 0-1.28 .35-.36.92-.36 1.27 0l1.46 1.46V2.07c0-.5.4-.9.9-.9 .49 0 .9.4.9.9v3.82l1.46-1.47c.35-.36.92-.36 1.27 0ZM4.45 8.36c.35-.36.92-.36 1.27 0l3 3c.35.35.35.92 0 1.27l-3 3c-.36.35-.93.35-1.28 0 -.36-.36-.36-.93 0-1.28l1.46-1.47H2.07c-.5 0-.9-.41-.9-.9 0-.5.4-.9.9-.9h3.82L4.42 9.61c-.36-.36-.36-.93 0-1.28Zm13.8 0c.35-.36.92-.36 1.27 0 .35.35.35.92 0 1.27l-1.47 1.46h3.82c.49 0 .9.4.9.9 0 .49-.41.9-.9.9h-3.83l1.46 1.46c.35.35.35.92 0 1.27 -.36.35-.93.35-1.28 0l-3-3c-.36-.36-.36-.93 0-1.28l3-3Zm-2.63 11.17c.35-.36.35-.93 0-1.28l-3-3c-.36-.36-.93-.36-1.28 0l-3 3c-.36.35-.36.92 0 1.27 .35.35.92.35 1.27 0l1.46-1.47v3.82c0 .49.4.9.9.9 .49 0 .9-.41.9-.9v-3.83l1.46 1.46c.35.35.92.35 1.27 0Z"/><path fill="currentColor" fill-rule="evenodd" d="M12 1.3c-.45 0-.8.35-.8.8v3.82c0 .04-.03.07-.07.09 -.04.01-.09 0-.11-.03L9.55 4.51c-.32-.32-.82-.32-1.14 0 -.32.31-.32.81 0 1.13l2.99 3c.31.31.81.31 1.13 0l3-3c.31-.32.31-.82 0-1.14 -.32-.32-.82-.32-1.14 0l-1.47 1.46c-.03.02-.08.03-.11.02 -.04-.02-.07-.06-.07-.1V2.05c0-.45-.36-.8-.8-.8Zm-1 .8c0-.56.44-1 1-1 .55 0 1 .44 1 1v3.58l1.29-1.3c.39-.4 1.02-.4 1.41 0 .39.39.39 1.02 0 1.41l-3 3c-.4.39-1.03.39-1.42 0l-3.01-3c-.4-.4-.4-1.03 0-1.42 .39-.4 1.02-.4 1.41 0l1.29 1.29V2.07ZM5.66 8.43c-.32-.32-.82-.32-1.14 0 -.32.31-.32.81 0 1.13l1.46 1.46c.02.02.03.07.02.1 -.02.03-.06.06-.1.06H2.07c-.45 0-.8.35-.8.8 0 .44.35.8.8.8h3.82c.04 0 .07.02.09.06 .01.03 0 .08-.03.1L4.48 14.4c-.32.31-.32.81 0 1.13l-.08.07m-.08-7.35c.39-.4 1.02-.4 1.41 0l3 3c.39.39.39 1.02 0 1.41l-3 3c-.4.39-1.03.39-1.42 0 -.4-.4-.4-1.03 0-1.42l1.29-1.3H2.01c-.56 0-1-.45-1-1 0-.56.44-1 1-1h3.58l-1.3-1.3c-.4-.4-.4-1.03 0-1.42Zm15.07.14c-.32-.32-.82-.32-1.14 0l-3 2.99c-.32.31-.32.81 0 1.13l3 3c.31.31.81.31 1.13 0 .31-.32.31-.82 0-1.14l-1.47-1.47c-.03-.03-.04-.08-.03-.11 .01-.04.05-.07.09-.07h3.82c.44 0 .8-.36.8-.8 0-.45-.36-.8-.8-.8h-3.83c-.05 0-.08-.03-.1-.07 -.02-.04-.01-.09.02-.11l1.46-1.47c.31-.32.31-.82 0-1.14Zm-1.28-.15c.39-.4 1.02-.4 1.41 0 .39.39.39 1.02 0 1.41l-1.3 1.29h3.58c.55 0 1 .44 1 1 0 .55-.45 1-1 1h-3.59l1.29 1.29c.39.39.39 1.02 0 1.41 -.4.39-1.03.39-1.42 0l-3-3c-.4-.4-.4-1.03 0-1.42l3-3.01Zm-12.53.14l3 2.99 -3-3Zm3 2.99c.31.31.31.81 0 1.13v-1.14Zm0 1.13l-3 3 3-3Zm2.62 2.62c.39-.4 1.02-.4 1.41 0l3 3c.39.39.39 1.02 0 1.41 -.4.39-1.03.39-1.42 0l-1.3-1.3v3.58c0 .55-.45 1-1 1 -.56 0-1-.45-1-1v-3.59l-1.3 1.29c-.4.39-1.03.39-1.42 0 -.4-.4-.4-1.03 0-1.42l3-3Zm1.27.14c-.32-.32-.82-.32-1.14 0l-3 3c-.32.31-.32.81 0 1.13 .31.31.81.31 1.13 0l1.46-1.47c.02-.03.07-.04.1-.03 .03.01.06.05.06.09v3.82c0 .44.35.8.8.8 .44 0 .8-.36.8-.8v-3.83c0-.05.02-.08.06-.1 .03-.02.08-.01.1.02l1.46 1.46c.31.31.81.31 1.13 0 .31-.32.31-.82 0-1.14l-3-3Zm-6.91.23c-.32.31-.82.31-1.14 0h1.13Z"/></g></svg>