<svg viewBox="0 0 24 24" xmlns="http://www.w3.org/2000/svg"><path fill="currentColor" d="M16.25 5.18c-.26.32-.19.79.14 1.05 1.78 1.36 2.85 3.47 2.85 5.76 0 3.73-2.83 6.81-6.46 7.2l0-.01c-.27.02-.53.04-.8.04 -.43 0-.85-.04-1.26-.11l-.34.33c-.27.26-.3.68-.08.97l.07.08 2 2c.29.29.76.29 1.06 0 .26-.27.29-.69.07-.98l-.08-.09 -.76-.75c4.49-.37 8.03-4.14 8.03-8.73 0-2.77-1.3-5.32-3.45-6.97 -.33-.26-.8-.19-1.06.14Zm-5.73-3.72c-.3.29-.3.76 0 1.06l.74.74c-4.5.36-8.03 4.13-8.03 8.72 0 2.64 1.18 5.09 3.18 6.74 .31.26.79.21 1.05-.11s.21-.8-.11-1.06c-1.66-1.37-2.64-3.41-2.64-5.6 0-3.74 2.82-6.82 6.45-7.21l-.01 0c.26-.03.52-.05.8-.05 .42 0 .84.03 1.25.1l.33-.34c.29-.3.29-.77 0-1.07l-2-2c-.3-.3-.77-.3-1.07-.001Zm7.46 10.53c0 3.31-2.69 6-6 6 -3.32 0-6-2.69-6-6 0-3.32 2.68-6 6-6 3.31 0 6 2.68 6 6Zm-2.97-2.04c-.3-.3-.77-.3-1.07 0l-2.97 2.96 -.97-.97c-.3-.3-.77-.3-1.07 0 -.3.29-.3.76 0 1.06l1.5 1.5c.29.29.76.29 1.06 0l3.5-3.5c.29-.3.29-.77 0-1.07Z"/></svg>