<svg viewBox="0 0 24 24" xmlns="http://www.w3.org/2000/svg"><g fill="currentColor"><path d="M12.864 20.13c.35.35.92.35 1.27 0l4.8-4.8c.35-.36.35-.93 0-1.28l-4.8-4.8c-.36-.36-.93-.36-1.28 0 -.36.35-.36.92 0 1.27l3.26 3.26h-7.73c-1 0-1.8-.81-1.8-1.8v-7.5c0-.5-.41-.9-.9-.9 -.5 0-.9.4-.9.9v7.5c0 1.98 1.61 3.6 3.6 3.6h7.72l-3.27 3.26c-.36.35-.36.92 0 1.27Z"/><path fill="currentColor" fill-rule="evenodd" d="M14.03 20.03c-.3.29-.77.29-1.07 0 -.3-.3-.3-.77 0-1.07l3.26-3.27c.04-.05.05-.11.03-.17 -.03-.06-.08-.1-.14-.1H8.38c-1.91 0-3.45-1.55-3.45-3.45v-7.5c0-.42.33-.75.75-.75 .41 0 .75.33.75.75v7.5c0 1.077.87 1.95 1.95 1.95h7.72c.06 0 .11-.04.13-.1 .02-.06.01-.13-.04-.17l-3.27-3.27c-.3-.3-.3-.77 0-1.07 .29-.3.76-.3 1.06 0l4.8 4.8c.29.29.29.76 0 1.06l-4.8 4.8Zm-1.28.21c.41.41 1.07.41 1.48 0l4.8-4.8c.41-.42.41-1.08 0-1.49l-4.8-4.8c-.42-.42-1.08-.42-1.49 0 -.41.41-.41 1.07 0 1.48l3 3H8.37c-.92 0-1.65-.74-1.65-1.65v-7.5c0-.58-.48-1.05-1.05-1.05 -.58 0-1.05.47-1.05 1.05v7.5c0 2.07 1.67 3.75 3.75 3.75h7.36l-3.01 3c-.41.41-.41 1.07 0 1.48Z"/></g></svg>