<svg viewBox="0 0 24 24" xmlns="http://www.w3.org/2000/svg"><path fill="currentColor" d="M16.95 10.2l2.5-2.5c.39-.4.39-1.03 0-1.42 -.4-.4-1.03-.4-1.42 0l-.8.79V3.98c0-.56-.45-1-1-1 -.56 0-1 .44-1 1v3.08l-.8-.8c-.4-.4-1.03-.4-1.42 0 -.4.39-.4 1.02 0 1.41l2.5 2.49c.39.39 1.02.39 1.41 0ZM3.99 6.49c0-1.39 1.11-2.5 2.5-2.5h4c.55 0 1 .44 1 1 0 .55-.45 1-1 1h-4c-.28 0-.5.22-.5.5v11c0 .27.22.5.5.5h4c.55 0 1 .44 1 1 0 .55-.45 1-1 1h-4c-1.39 0-2.5-1.12-2.5-2.5v-11Zm15.45 9.79l-2.5-2.5c-.4-.4-1.03-.4-1.42 0l-2.5 2.5c-.4.39-.4 1.02 0 1.41 .39.39 1.02.39 1.41 0l.79-.8v3.08c0 .55.44 1 1 1 .55 0 1-.45 1-1v-3.09l.79.79c.39.39 1.02.39 1.41 0 .39-.4.39-1.03 0-1.42Z"/></svg>