<svg viewBox="0 0 24 24" xmlns="http://www.w3.org/2000/svg"><path fill="currentColor" d="M15.45 6.45c-.4.39-1.03.39-1.42 0L12.98 5.4v2.83c0 .55-.45 1-1 1 -.56 0-1-.45-1-1V5.39L9.93 6.43c-.4.39-1.03.39-1.42 0 -.4-.4-.4-1.03 0-1.42l2.75-2.75c.18-.19.44-.3.7-.3 .26 0 .51.1.7.29L15.41 5c.39.39.39 1.02 0 1.41Zm-9 7.58c.39.39.39 1.02-.001 1.41 -.4.39-1.03.39-1.42 0l-2.75-2.75c-.19-.19-.3-.45-.3-.71 0-.27.1-.52.29-.71l2.75-2.76c.39-.4 1.02-.4 1.41 0 .39.39.39 1.02 0 1.41l-1.05 1.04h2.83c.55 0 1 .44 1 1 0 .55-.45 1-1 1h-2.84L6.409 14Zm12.49 1.41c-.4.39-1.03.39-1.42 0 -.4-.4-.4-1.03 0-1.42l1.04-1.05h-2.84c-.56 0-1-.45-1-1 0-.56.44-1 1-1h2.83L17.5 9.92c-.4-.4-.4-1.03 0-1.42 .39-.4 1.02-.4 1.41 0l2.75 2.75c.18.18.29.44.29.7 0 .26-.11.51-.3.7L18.9 15.4Zm-7.96 3.12v-2.84c0-.56.44-1 1-1 .55 0 1 .44 1 1v2.83l1.04-1.05c.39-.4 1.02-.4 1.41 0 .39.39.39 1.02 0 1.41l-2.75 2.75c-.19.18-.45.29-.71.29 -.27 0-.52-.11-.71-.3L8.5 18.9c-.4-.4-.4-1.03 0-1.42 .39-.4 1.02-.4 1.41 0l1.04 1.04Z"/></svg>