<svg viewBox="0 0 24 24" xmlns="http://www.w3.org/2000/svg"><path fill="currentColor" d="M13 16.5c0 3.03-2.47 5.5-5.5 5.5C4.46 22 2 19.53 2 16.5 2 13.46 4.46 11 7.5 11c3.03 0 5.5 2.46 5.5 5.5ZM8.52 13H7.08c-.21 0-.4.12-.47.32l-1.13 3c-.13.32.11.67.46.67h.77l-.78 2.31c-.12.33.13.68.49.68 .17 0 .33-.09.43-.24l2.62-4.04c.2-.32-.03-.73-.4-.73h-.64l.49-1.33c.12-.33-.12-.68-.47-.68Zm7.76-8.71c-.4.39-.4 1.02-.01 1.41l3.29 3.29 -6.59-.01 -.23-.01c-3.21-.12-5.78-2.76-5.78-6 0-.56-.45-1-1-1 -.56 0-1 .44-1 1l0 .24c.13 4.3 3.66 7.75 7.99 7.75h6.58l-3.3 3.29c-.4.39-.4 1.02 0 1.41 .39.39 1.02.39 1.41-.01l4.99-5c.39-.4.39-1.03 0-1.42l-5-5.01c-.4-.4-1.03-.4-1.42-.01Z"/></svg>