<svg viewBox="0 0 24 24" xmlns="http://www.w3.org/2000/svg"><path fill="currentColor" d="M17.2 3.29c-.4-.4-1.03-.4-1.42 0l-2.5 2.5c-.4.39-.4 1.02 0 1.41 .39.39 1.02.39 1.41 0l1.79-1.8 1.79 1.79c.39.39 1.02.39 1.41 0 .39-.4.39-1.03 0-1.42l-2.5-2.5Zm-10.71.69c-1.39 0-2.5 1.11-2.5 2.5v11c0 1.38 1.11 2.5 2.5 2.5h4c.55 0 1-.45 1-1 0-.56-.45-1-1-1h-4c-.28 0-.5-.23-.5-.5V6.47c0-.28.22-.5.5-.5h4c.55 0 1-.45 1-1 0-.56-.45-1-1-1h-4Zm10.7 16.71l2.5-2.5c.39-.4.39-1.03 0-1.42 -.4-.4-1.03-.4-1.42 0l-1.8 1.79 -1.8-1.8c-.4-.4-1.03-.4-1.42 0 -.4.39-.4 1.02 0 1.41l2.5 2.5c.39.39 1.02.39 1.41 0Zm.29-8.71c0-.56-.45-1-1-1 -.56 0-1 .44-1 1 0 .55.44 1 1 1 .55 0 1-.45 1-1Zm-1 2c.55 0 1 .44 1 1v1c0 .55-.45 1-1 1 -.56 0-1-.45-1-1v-1c0-.56.44-1 1-1Zm0-7c-.56 0-1 .44-1 1v1c0 .55.44 1 1 1 .55 0 1-.45 1-1v-1c0-.56-.45-1-1-1Z"/></svg>