<svg viewBox="0 0 24 24" xmlns="http://www.w3.org/2000/svg"><path fill="currentColor" d="M12.95 5.89l.08-.1 2.35-2.36c.17-.28.5-.45.86-.45 .32 0 .61.13.8.36l0 0 .04.06 2.35 2.36 .08.09 0 0c.25.34.26.82 0 1.17l-.01 0 -.1.11 -.11.09 -.01 0c-.35.25-.83.26-1.18 0l-.01-.01 -.11-.1 -.81-.81v13.68l-.01.1 -.01 0c-.08.46-.52.77-1 .77s-.92-.32-1-.78l-.01-.01 -.01-.11V6.26l-.8.8 -.1.08 -.01 0c-.4.29-.95.25-1.31-.1 -.36-.36-.39-.92-.1-1.31l0-.01Zm-8.96.59c0-1.39 1.11-2.5 2.5-2.5h4c.55 0 1 .44 1 1 0 .55-.45 1-1 1h-4c-.28 0-.5.22-.5.5v11c0 .27.22.5.5.5h6c.55 0 1 .44 1 1 0 .55-.45 1-1 1h-6c-1.39 0-2.5-1.12-2.5-2.5V6.47Z"/></svg>