<svg viewBox="0 0 24 24" xmlns="http://www.w3.org/2000/svg"><path fill="currentColor" d="M11.24 13.74c.26.26.29.68.07.97l-.08.08 -1.98 1.97c-.27.26-.69.29-.98.07l-.09-.08 -1.97-1.98c-.3-.3-.3-.77 0-1.07 .26-.27.68-.3.97-.08l.08.07 .68.69 -.01-6.7c0-.38.28-.7.64-.75l.1-.01c.37 0 .69.28.74.64l0 .1 0 6.68 .68-.69c.26-.27.68-.3.97-.08l.08.07Zm-9.26-1.75c0 5.52 4.47 10 9.99 10 5.52 0 10-4.48 10-10 0-5.53-4.48-10-10-10 -5.53 0-10 4.47-10 9.99Zm15.66 1.67l.08.07c.26.26.29.68.07.97l-.08.08 -1.98 1.97c-.27.26-.69.29-.98.07l-.09-.08 -1.97-1.98c-.3-.3-.3-.77 0-1.07 .26-.27.68-.3.97-.08l.08.07 .68.69 -.01-6.7c0-.38.28-.7.64-.75l.1-.01c.37 0 .69.28.74.64l0 .1 0 6.68 .68-.69c.26-.27.68-.3.97-.08Z"/></svg>