<svg viewBox="0 0 24 24" xmlns="http://www.w3.org/2000/svg"><path fill="currentColor" d="M10.125 2.25C9.495 2.25 9 2.75 9 3.37c0 .62.5 1.12 1.125 1.12h7.125c1.24 0 2.25 1 2.25 2.25v10.5c0 1.24-1.01 2.25-2.25 2.25h-7.125c-.63 0-1.125.5-1.125 1.125 0 .62.5 1.125 1.125 1.125h7.125c2.48 0 4.5-2.02 4.5-4.5V6.74c0-2.49-2.02-4.5-4.5-4.5h-7.125Zm4.54 8.95l-3.75-3.75c-.44-.44-1.16-.44-1.6 0 -.44.43-.44 1.15 0 1.59l1.82 1.82H2.6c-.63 0-1.125.5-1.125 1.12 0 .62.5 1.125 1.125 1.125h8.534l-1.83 1.82c-.44.43-.44 1.15 0 1.59 .43.43 1.15.43 1.59 0l3.75-3.75c.21-.22.32-.5.32-.8 0-.3-.12-.59-.33-.8Z"/></svg>