<svg viewBox="0 0 24 24" xmlns="http://www.w3.org/2000/svg"><path fill="currentColor" d="M3.28 2.21c-.3-.3-.77-.3-1.07-.01 -.3.29-.3.76-.01 1.06l3.7 3.7c-.88-.31-1.85-.49-2.93-.49 -.56 0-1 .44-1 1 0 .55.44 1 1 1 2.47 0 4.18 1.18 5.88 2.79 .21-.22.44-.45.66-.69l.7.7c-2.22 2.28-4.13 4.17-7.27 4.17 -.56 0-1 .44-1 1 0 .55.44 1 1 1 4.04 0 6.5-2.53 8.63-4.72l.04-.05 .7.7 -.1.1c-.19.19-.38.38-.58.58 1.18 1.12 2.51 2.19 4.17 2.81l1.68 1.68c-.15.35-.07.78.22 1.07 .29.29.71.36 1.07.22l1.85 1.85c.29.29.76.29 1.06 0 .29-.3.29-.77 0-1.07L3.18 2.1Zm14.3 12.18l3.46 3.46 .65-.66c.18-.19.29-.45.29-.71 0-.27-.11-.52-.3-.71l-2.5-2.5c-.4-.4-1.03-.4-1.42 0 -.3.3-.37.74-.21 1.1ZM12.4 9.21l1.41 1.41c1.37-1.19 2.82-2.03 4.74-2.14l-.79.78c-.4.39-.4 1.02 0 1.41 .39.39 1.02.39 1.41 0l2.5-2.5c.18-.19.29-.45.29-.71 0-.27-.11-.52-.3-.71l-2.5-2.5c-.4-.4-1.03-.4-1.42 0 -.4.39-.4 1.02 0 1.41l.8.8c-2.63.11-4.57 1.29-6.19 2.71Z"/></svg>