<svg viewBox="0 0 24 24" xmlns="http://www.w3.org/2000/svg"><path fill="currentColor" d="M15.2 2.29l4 3.99c.36.36.38.92.08 1.31l-.09.09 -4 4c-.4.39-1.03.39-1.42 0 -.37-.37-.39-.93-.09-1.32l.08-.1 2.29-2.3 -10.59 0c-.52 0-.94-.39-1-.89l-.01-.12c0-.52.38-.94.88-1l.11-.01 10.59-.01 -2.3-2.3c-.37-.37-.39-.93-.09-1.32l.08-.1c.36-.37.92-.39 1.32-.09l.09.08 4 3.99 -4-4Zm4.28 14.59l0 .11c0 .51-.39.93-.89.99l-.12 0H7.88l2.29 2.29c.36.36.38.92.08 1.31l-.09.09c-.37.36-.93.38-1.32.08l-.1-.09 -4-4c-.37-.37-.39-.93-.09-1.32l.08-.1 4-4.01c.39-.4 1.02-.4 1.41-.01 .36.36.38.92.08 1.31l-.09.09 -2.3 2.29H18.4c.51 0 .93.38.99.88l0 .11 -.01-.12Z"/></svg>