<svg viewBox="0 0 24 24" xmlns="http://www.w3.org/2000/svg"><path fill="currentColor" d="M5.12 6.18c-1.33 1.56-2.13 3.59-2.13 5.81 0 2.77 1.26 5.26 3.23 6.91 .47.39 1.18.33 1.58-.15 .39-.48.33-1.19-.15-1.59 -1.49-1.24-2.43-3.11-2.43-5.19 0-1.6.55-3.06 1.47-4.22l9.48 9.48c-.94.74-2.07 1.25-3.32 1.41l.64-.65c.43-.44.43-1.16 0-1.6 -.44-.44-1.16-.44-1.6 0l-2.63 2.625c-.22.21-.33.49-.33.79 0 .29.11.58.32.79l2.62 2.62c.43.43 1.15.43 1.59 0 .43-.44.43-1.16 0-1.6l-.75-.75c1.9-.17 3.63-.93 5-2.1l3.4 3.4c.29.29.76.29 1.06 0 .29-.3.29-.77 0-1.07L2.67 1.58c-.3-.3-.77-.3-1.07-.001 -.3.29-.3.76 0 1.06L5 6.04Zm5.32-.24c-.28.27-.38.65-.31 1l.89.89c.35.06.73-.04 1-.31l2.625-2.625c.43-.44.43-1.16 0-1.6L12.02.66c-.44-.44-1.16-.44-1.6 0 -.44.43-.44 1.15 0 1.59l.74.74c-1.37.12-2.65.54-3.77 1.21l1.66 1.66c.62-.3 1.29-.51 2-.6l-.65.64Zm7.63 8.95l1.66 1.66c.79-1.34 1.24-2.91 1.24-4.58 0-2.78-1.27-5.27-3.24-6.92 -.48-.4-1.19-.34-1.59.14 -.4.47-.34 1.18.14 1.58 1.48 1.23 2.42 3.1 2.42 5.18 0 1.04-.24 2.029-.66 2.91Z"/></svg>