<svg viewBox="0 0 24 24" xmlns="http://www.w3.org/2000/svg"><g fill="currentColor"><path d="M12.864 3.86c.35-.36.92-.36 1.27 0l4.8 4.8c.35.35.35.92 0 1.27l-4.8 4.8c-.36.35-.93.35-1.28 0 -.36-.36-.36-.93 0-1.28l3.26-3.27h-7.73c-1 0-1.8.8-1.8 1.8v7.5c0 .49-.41.9-.9.9 -.5 0-.9-.41-.9-.9v-7.5c0-1.99 1.61-3.6 3.6-3.6h7.72l-3.27-3.27c-.36-.36-.36-.93 0-1.28Z"/><path fill="currentColor" fill-rule="evenodd" d="M14.03 3.96c-.3-.3-.77-.3-1.07 0 -.3.29-.3.76 0 1.06l3.26 3.26c.04.04.05.1.03.16 -.03.05-.08.09-.14.09H8.38c-1.91 0-3.45 1.54-3.45 3.45v7.5c0 .41.33.75.75.75 .41 0 .75-.34.75-.75v-7.5c0-1.077.87-1.95 1.95-1.95h7.72c.06 0 .11.03.13.09 .02.05.01.12-.04.16l-3.27 3.26c-.3.29-.3.76 0 1.06 .29.29.76.29 1.06 0l4.8-4.8c.29-.3.29-.77 0-1.07l-4.8-4.8Zm-1.28-.22c.41-.42 1.07-.42 1.48 0l4.8 4.8c.41.41.41 1.07 0 1.48l-4.8 4.8c-.42.41-1.08.41-1.49 0 -.41-.42-.41-1.08 0-1.49l3-3.01H8.37c-.92 0-1.65.73-1.65 1.65v7.5c0 .57-.48 1.05-1.05 1.05 -.58 0-1.05-.48-1.05-1.05v-7.5c0-2.08 1.67-3.75 3.75-3.75h7.36l-3.01-3.01c-.41-.42-.41-1.08 0-1.49Z"/></g></svg>