<svg viewBox="0 0 24 24" xmlns="http://www.w3.org/2000/svg"><g fill="currentColor"><path d="M19.73 4.16c-.1-.24-.29-.42-.52-.51 -.24-.09-.5-.08-.73.03l-6.01 3c-.45.22-.63.76-.41 1.2 .22.44.76.62 1.2.4l3.89-1.95 -5.19 11.78 -5.49-12.8c-.2-.46-.73-.67-1.19-.48 -.46.19-.67.72-.48 1.18l5.75 13.43c.51 1.2 2.22 1.21 2.75.01l5.52-12.56 1.55 3.89c.18.46.7.68 1.16.5 .46-.19.68-.71.5-1.17l-2.4-6Z"/><path fill="currentColor" fill-rule="evenodd" d="M18.431 3.56c.26-.14.56-.15.84-.05 .27.1.49.31.6.59l2.39 5.99c.21.53-.05 1.14-.59 1.36 -.54.21-1.15-.05-1.37-.59l-1.43-3.57 -5.39 12.23c-.59 1.32-2.46 1.31-3.03-.02L4.69 6.06c-.23-.54.01-1.16.55-1.38 .53-.23 1.15.01 1.37.55l5.34 12.47 4.87-11.09 -3.53 1.76c-.52.25-1.15.04-1.41-.47 -.26-.52-.05-1.15.46-1.41l6-3Zm.73.23c-.2-.08-.42-.07-.61.03l-6.01 3c-.38.18-.53.63-.34 1 .18.37.63.52 1 .33l3.89-1.95c.05-.03.12-.02.17.02 .04.04.05.11.03.16L12.1 18.16c-.03.05-.08.08-.14.08 -.06-.01-.12-.04-.14-.1L6.33 5.34c-.17-.39-.61-.56-.99-.4 -.39.16-.56.6-.4.98l5.75 13.43c.46 1.08 2 1.09 2.47.01l5.52-12.56c.02-.06.07-.1.13-.09 .06 0 .11.03.13.09l1.55 3.89c.15.38.59.57.97.41 .38-.16.57-.6.41-.98l-2.4-6c-.08-.2-.24-.35-.43-.43Z"/></g></svg>