<svg viewBox="0 0 24 24" xmlns="http://www.w3.org/2000/svg"><path fill="currentColor" d="M14.71 2.28l-.09-.08c-.4-.32-.97-.29-1.33.07l-.08.08c-.32.39-.29.96.07 1.32l1.29 1.29 -5.6 0 -.25 0c-3.76.12-6.76 3.2-6.76 6.99 0 1.44.43 2.78 1.18 3.89 .18.25.47.41.81.41 .55 0 1-.45 1-1 0-.22-.07-.42-.19-.58l-.14-.22c-.44-.74-.69-1.6-.69-2.52 0-2.76 2.23-5 4.99-5l5.59-.01 -1.3 1.29 -.08.08c-.32.39-.29.96.07 1.32 .39.39 1.02.39 1.41 0l3-3.01 .07-.09c.31-.4.28-.97-.08-1.33l-3.01-3.01Zm6.07 5.77c-.19-.24-.47-.39-.79-.39 -.56 0-1 .44-1 .99 0 .2.06.4.17.56 .52.78.82 1.73.82 2.75 0 2.75-2.24 4.99-5 4.99l-5.59-.01 1.29-1.3 .08-.1c.28-.37.27-.88-.01-1.24l-.08-.09 -.1-.09c-.37-.29-.88-.28-1.24 0l-.09.07 -3.01 3 -.09.09c-.29.36-.28.87 0 1.23l.07.08 3 3 .09.08c.39.3.95.27 1.32-.09 .36-.37.38-.94.07-1.33l-.08-.09 -1.31-1.31 5.59 0 .24-.01c3.75-.13 6.75-3.21 6.75-7 0-1.46-.45-2.82-1.22-3.94l-.01 0Z"/></svg>