<svg viewBox="0 0 24 24" xmlns="http://www.w3.org/2000/svg"><path fill="currentColor" d="M15.27 14.97c.31 1.09-.34 2.22-1.45 2.49l-.59.14c-.05.28-.07.58-.07.88 0 .31.02.62.07.92l.53.12c1.11.26 1.77 1.41 1.45 2.51l-.19.63c.43.38.93.69 1.48.92l.49-.52c.78-.83 2.11-.83 2.89 0l.49.52c.54-.23 1.04-.54 1.48-.92l-.2-.69c-.32-1.1.33-2.23 1.44-2.5l.58-.15c.04-.29.06-.59.06-.89 0-.32-.03-.63-.08-.93l-.54-.13c-1.12-.27-1.78-1.42-1.45-2.52l.18-.64c-.44-.39-.94-.7-1.49-.93l-.5.51c-.79.82-2.12.82-2.9-.01l-.5-.53c-.55.22-1.05.53-1.49.91l.19.68Zm3.22 5.02c-.81 0-1.45-.68-1.45-1.5 0-.83.64-1.5 1.44-1.5 .8 0 1.44.67 1.44 1.5 0 .82-.65 1.5-1.45 1.5Zm-12.25.99h6.24c-.33-.77-.5-1.62-.5-2.5 0-.53.06-1.04.17-1.53 -.06.01-.12.02-.18.02l-.11-.01c-.37-.05-.65-.37-.65-.75l0-6.7 -2.73 2.72 -.09.07c-.3.21-.72.19-.98-.08 -.3-.3-.3-.77-.01-1.07l3.99-4.01 .08-.08c.29-.22.71-.2.97.07l4 4 .07.08c.21.29.19.71-.08.97l-.05.03c.63-.21 1.31-.32 2.01-.32 .88 0 1.73.17 2.5.49V6.13c0-1.8-1.46-3.25-3.25-3.25H6.14c-1.8 0-3.25 1.45-3.25 3.25v11.5c0 1.79 1.45 3.25 3.25 3.25Zm6.5-11.44l-.01 5.9c.7-1.33 1.85-2.39 3.24-2.97 -.2-.01-.39-.08-.53-.22l-2.72-2.72Z"/></svg>