<svg viewBox="0 0 24 24" xmlns="http://www.w3.org/2000/svg"><path fill="currentColor" d="M20 3c.55 0 1 .44 1 1v4.99c0 .55-.45 1-1 1 -.56 0-1-.45-1-1V6.4l-5.8 5.79c-.19.18-.45.29-.71.29 -.27 0-.52-.11-.71-.3l-1.8-1.8 -5.3 5.29c-.4.39-1.03.39-1.42 0 -.4-.4-.4-1.03 0-1.42l6-6.01c.18-.19.44-.3.7-.3 .26 0 .51.1.7.29l1.79 1.79 5.08-5.09 -2.59-.01c-.56 0-1-.45-1-1 0-.56.44-1 1-1l5 0Zm3 14.49c0 3.03-2.47 5.5-5.5 5.5 -3.04 0-5.5-2.47-5.5-5.5 0-3.04 2.46-5.5 5.5-5.5 3.03 0 5.5 2.46 5.5 5.5Zm-2.15-2.36c-.2-.2-.52-.2-.71 0l-3.65 3.64 -1.65-1.65c-.2-.2-.52-.2-.71 0 -.2.19-.2.51 0 .7l2 2c.19.19.51.19.7 0l4-4c.19-.2.19-.52 0-.71Z"/></svg>