<svg viewBox="0 0 24 24" xmlns="http://www.w3.org/2000/svg"><g fill="currentColor"><path d="M15.29 21c.49 0 .9-.41.9-.9 0-.5-.41-.9-.9-.9h-7.5c-1.33 0-2.4-1.08-2.4-2.4V7.2c0-1.33 1.07-2.4 2.4-2.4h7.5c.49 0 .9-.41.9-.9 0-.5-.41-.9-.9-.9h-7.5c-2.32 0-4.2 1.88-4.2 4.2v9.6c0 2.31 1.88 4.2 4.2 4.2h7.5Zm1.18-13.57c.36-.34.93-.32 1.27.05l3.6 3.9c.31.34.31.87 0 1.22l-3.6 3.9c-.34.36-.91.38-1.28.05 -.37-.34-.39-.91-.06-1.28l2.2-2.39H9.25c-.5 0-.9-.41-.9-.9 0-.5.4-.9.9-.9h9.34l-2.21-2.39c-.34-.37-.32-.94.05-1.28Z"/><path fill="currentColor" fill-rule="evenodd" d="M16.39 20.1c0 .6-.5 1.1-1.1 1.1h-7.5c-2.44 0-4.4-1.97-4.4-4.4V7.2c0-2.44 1.96-4.4 4.4-4.4h7.5c.6 0 1.1.49 1.1 1.1 0 .6-.5 1.1-1.1 1.1h-7.5c-1.22 0-2.2.98-2.2 2.2v9.6c0 1.21.98 2.2 2.2 2.2h7.5c.6 0 1.1.49 1.1 1.1Zm-.05-12.81c.44-.42 1.14-.39 1.55.06l3.6 3.9c.38.42.38 1.07 0 1.49l-3.6 3.9c-.42.44-1.11.47-1.56.06 -.45-.42-.48-1.11-.07-1.56l1.89-2.06H9.26c-.61 0-1.1-.5-1.1-1.1 0-.61.49-1.1 1.1-1.1h8.88l-1.9-2.06c-.42-.45-.39-1.15.06-1.56Zm2.29 3.8H9.28c-.5 0-.9.4-.9.9 0 .49.4.9.9.9h9.34l-2.21 2.38c-.34.36-.32.93.05 1.27 .36.33.93.31 1.27-.06l3.6-3.9c.31-.35.31-.88 0-1.23l-3.6-3.91c-.34-.37-.91-.39-1.28-.06s-.39.9-.06 1.27l2.2 2.38Zm-2.45 9c0 .49-.41.9-.9.9h-7.5c-2.32 0-4.2-1.89-4.2-4.2v-9.6c0-2.32 1.88-4.2 4.2-4.2h7.5c.49 0 .9.4.9.9 0 .49-.41.9-.9.9h-7.5c-1.33 0-2.4 1.07-2.4 2.4v9.6c0 1.32 1.07 2.4 2.4 2.4h7.5c.49 0 .9.4.9.9Z"/></g></svg>