<svg viewBox="0 0 24 24" xmlns="http://www.w3.org/2000/svg"><g fill="currentColor"><path d="M3.86 11.13c-.36-.36-.36-.93 0-1.28l4.8-4.8c.35-.36.92-.36 1.27 0l4.8 4.8c.35.35.35.92 0 1.27 -.36.35-.93.35-1.28 0l-3.27-3.27v7.72c0 .99.8 1.8 1.8 1.8h7.5c.49 0 .9.4.9.9 0 .49-.41.9-.9.9h-7.5c-1.99 0-3.61-1.62-3.61-3.6l0-7.73L5.1 11.1c-.36.35-.93.35-1.28 0Z"/><path fill="currentColor" fill-rule="evenodd" d="M9.83 5.16c-.3-.3-.77-.3-1.07 0l-4.8 4.8c-.3.29-.3.76-.001 1.06 .29.29.76.29 1.06 0l3.26-3.27c.04-.05.1-.06.16-.04 .05.02.09.07.09.13l-.01 7.72c0 1.9 1.54 3.45 3.45 3.45h7.5c.41 0 .75-.34.75-.75 0-.42-.34-.75-.75-.75h-7.5c-1.077 0-1.95-.88-1.95-1.95V7.83c0-.07.03-.12.09-.14 .05-.03.12-.02.16.03l3.26 3.26c.29.29.76.29 1.06 0 .29-.3.29-.77 0-1.07l-4.8-4.8Zm-1.28-.22c.41-.42 1.07-.42 1.48 0l4.8 4.8c.41.41.41 1.07 0 1.48 -.42.41-1.08.41-1.49 0l-3.01-3.01v7.36c0 .91.73 1.65 1.65 1.65h7.5c.57 0 1.05.47 1.05 1.05 0 .57-.48 1.05-1.05 1.05h-7.5c-2.08 0-3.76-1.68-3.75-3.75V8.2l-3.01 3c-.42.41-1.08.41-1.49 0 -.42-.42-.42-1.08 0-1.49l4.8-4.8Z"/></g></svg>