<svg viewBox="0 0 24 24" xmlns="http://www.w3.org/2000/svg"><path fill="currentColor" d="M12 22C6.47 22 2 17.52 2 12 2 6.47 6.47 2 12 2c5.52 0 10 4.47 10 10 0 5.52-4.48 10-10 10Zm3.27-11.25h-1.28c-.42 0-.75.33-.75.75 0 .41.33.75.75.75h2.75c.41 0 .75-.34.75-.75V8.25c0-.42-.34-.75-.75-.75 -.42 0-.75.33-.75.75v.74c-.92-1.22-2.37-2-4-2 -1.54 0-2.91.66-3.83 1.77 -.27.31-.23.79.09 1.05 .31.26.79.22 1.05-.1 .63-.77 1.58-1.23 2.67-1.23 1.49 0 2.76.93 3.27 2.25Zm-7.28 5V15c.91 1.21 2.36 2 4 2 1.52 0 2.904-.69 3.82-1.77 .26-.32.23-.79-.09-1.06s-.79-.23-1.06.08c-.65.75-1.61 1.23-2.68 1.23 -1.4 0-2.61-.82-3.17-2h1.16c.41 0 .75-.34.75-.75 0-.42-.34-.75-.75-.75H7.22c-.42 0-.75.33-.75.75v3c0 .41.33.75.75.75 .41 0 .75-.34.75-.75Z"/></svg>