<svg viewBox="0 0 24 24" xmlns="http://www.w3.org/2000/svg"><path fill="currentColor" d="M12 4.75c4 0 7.25 3.24 7.25 7.25 0 4-3.25 7.25-7.25 7.25 -4.01 0-7.25-3.25-7.25-7.25 0-.29.01-.57.04-.85 .06-.59-.36-1.16-.95-1.16 -.52 0-.97.35-1.04.86 -.05.37-.07.74-.07 1.13 0 5.1 4.14 9.25 9.25 9.25 5.1 0 9.25-4.15 9.25-9.25 0-5.11-4.15-9.25-9.25-9.25 -2.18 0-4.18.74-5.75 2v-.51c0-.56-.45-1-1-1 -.56 0-1 .44-1 1v2.69c-.02.01-.03.03-.04.05h.03v.25c0 .55.44 1 1 1h3c.55 0 1-.45 1-1 0-.56-.45-1-1-1h-.67c1.22-.95 2.75-1.5 4.41-1.5Z"/></svg>