<svg viewBox="0 0 24 24" xmlns="http://www.w3.org/2000/svg"><path fill="currentColor" d="M20 3c.55 0 1 .44 1 1v4.99c0 .55-.45 1-1 1 -.56 0-1-.45-1-1V6.4l-5.8 5.79c-.19.18-.45.29-.71.29 -.27 0-.52-.11-.71-.3l-1.8-1.8 -5.3 5.29c-.4.39-1.03.39-1.42 0 -.4-.4-.4-1.03 0-1.42l6-6.01c.18-.19.44-.3.7-.3 .26 0 .51.1.7.29l1.79 1.79 5.08-5.09 -2.59-.01c-.56 0-1-.45-1-1 0-.56.44-1 1-1l5 0Zm-5.73 10.97c.31 1.09-.34 2.22-1.45 2.49l-.59.14c-.05.28-.07.58-.07.88 0 .31.02.62.07.92l.53.12c1.11.26 1.77 1.41 1.45 2.51l-.19.63c.43.38.93.69 1.48.92l.49-.52c.78-.83 2.11-.83 2.89 0l.49.52c.54-.23 1.04-.54 1.48-.92l-.2-.69c-.32-1.1.33-2.23 1.44-2.5l.58-.15c.04-.29.06-.59.06-.89 0-.32-.03-.63-.08-.93l-.54-.13c-1.12-.27-1.78-1.42-1.45-2.52l.18-.64c-.44-.39-.94-.7-1.49-.93l-.5.51c-.79.82-2.12.82-2.9-.01l-.5-.53c-.55.22-1.05.53-1.49.91l.19.68Zm3.22 5.02c-.81 0-1.45-.68-1.45-1.5 0-.83.64-1.5 1.44-1.5 .8 0 1.44.67 1.44 1.5 0 .82-.65 1.5-1.45 1.5Z"/></svg>