<svg viewBox="0 0 24 24" xmlns="http://www.w3.org/2000/svg"><path fill="currentColor" d="M17 4c-.56 0-1-.45-1-1 0-.56.44-1 1-1h4c.55 0 1 .44 1 1v4c0 .55-.45 1-1 1 -.56 0-1-.45-1-1V5.41l-5.8 5.79c-.4.39-1.03.39-1.42 0l-2.8-2.8 -5.3 5.29c-.4.39-1.03.39-1.42 0 -.4-.4-.4-1.03 0-1.42l6-6.01c.18-.19.44-.3.7-.3 .26 0 .51.1.7.29l2.79 2.79 5.08-5.09h-1.59ZM5 18v3c0 .55-.45 1-1 1 -.56 0-1-.45-1-1v-3c0-.56.44-1 1-1 .55 0 1 .44 1 1Zm5-4c0-.56-.45-1-1-1 -.56 0-1 .44-1 1v7c0 .55.44 1 1 1 .55 0 1-.45 1-1v-7Zm4 1c.55 0 1 .44 1 1v5c0 .55-.45 1-1 1 -.56 0-1-.45-1-1v-5c0-.56.44-1 1-1Zm6-4c0-.56-.45-1-1-1 -.56 0-1 .44-1 1v10c0 .55.44 1 1 1 .55 0 1-.45 1-1V11Z"/></svg>