<svg viewBox="0 0 24 24" xmlns="http://www.w3.org/2000/svg"><path fill="currentColor" d="M11.999 21.99c-5.53 0-10-4.48-10-10 0-5.53 4.47-10 9.99-10 5.52 0 10 4.47 10 9.99 0 5.52-4.48 10-10 10Zm-1-8l-.09-.08c-.3-.22-.72-.2-.98.07l-.44.43 -.01-3.94h4.99l0 3.94 -.52-.45 -.09-.08c-.3-.22-.72-.2-.98.07 -.3.29-.3.76-.01 1.06l1.79 1.72 .08.07c.29.21.71.19.97-.08l1.72-1.73 .07-.09c.21-.3.19-.72-.08-.98l-.09-.08c-.3-.22-.72-.2-.98.07l-.44.43 -.01-4.69 -.01-.11c-.05-.37-.37-.65-.75-.65l-.02 0H12.63l-.01-3.26 -.01-.11c-.05-.37-.37-.65-.75-.65l-.11 0c-.37.04-.65.36-.65.74l0 3.25H8.64c-.02-.01-.03-.01-.05-.01l-.11 0c-.37.04-.65.36-.65.74l0 4.69 -.44-.45 -.09-.08c-.3-.22-.72-.2-.98.07 -.3.29-.3.76-.01 1.06l1.71 1.72 .08.07c.29.21.71.19.97-.08l1.72-1.73 .07-.09c.21-.3.19-.72-.08-.98Z"/></svg>