<svg viewBox="0 0 24 24" xmlns="http://www.w3.org/2000/svg"><g fill="currentColor"><path d="M11.13 20.13c-.36.35-.93.35-1.28 0l-4.8-4.8c-.36-.36-.36-.93 0-1.28l4.8-4.8c.35-.36.92-.36 1.27 0 .35.35.35.92 0 1.27l-3.27 3.26h7.72c.99 0 1.8-.81 1.8-1.8v-7.5c0-.5.4-.9.9-.9 .49 0 .9.4.9.9v7.5c0 1.98-1.62 3.6-3.6 3.6H7.84l3.26 3.26c.35.35.35.92 0 1.27Z"/><path fill="currentColor" fill-rule="evenodd" d="M18.3 3.75c-.42 0-.75.33-.75.75V12c0 1.077-.88 1.95-1.95 1.95H7.87c-.07 0-.12-.04-.14-.1 -.03-.06-.02-.13.03-.17l3.26-3.27c.29-.3.29-.77 0-1.07 -.3-.3-.77-.3-1.07 0l-4.8 4.8c-.3.29-.3.76 0 1.06l4.8 4.8c.29.29.76.29 1.06 0 .29-.3.29-.77 0-1.07l-3.27-3.27c-.05-.05-.06-.11-.04-.17 .02-.06.07-.1.13-.1h7.72c1.9 0 3.45-1.55 3.45-3.45v-7.5c0-.42-.34-.75-.75-.75Zm-1.05.75c0-.58.47-1.05 1.05-1.05 .57 0 1.05.47 1.05 1.05V12c0 2.07-1.68 3.75-3.75 3.75H8.23l3 3c.41.41.41 1.07 0 1.48 -.42.41-1.08.41-1.49 0l-4.8-4.8c-.42-.42-.42-1.08 0-1.49l4.8-4.8c.41-.42 1.07-.42 1.48 0 .41.41.41 1.07 0 1.48l-3.01 3h7.36c.91 0 1.65-.74 1.65-1.65v-7.5Z"/></g></svg>