<svg viewBox="0 0 24 24" xmlns="http://www.w3.org/2000/svg"><path fill="currentColor" d="M6.42 7.82c.43.43.43 1.15 0 1.59l-1.08 1.07h4.03c.62 0 1.12.5 1.12 1.125 0 .62-.51 1.125-1.13 1.125H5.32l1.07 1.07c.43.43.43 1.15 0 1.59 -.44.43-1.16.43-1.6 0l-3-3c-.44-.44-.44-1.16 0-1.6l3-3c.43-.44 1.15-.44 1.59 0Zm11.15 0c.43-.44 1.15-.44 1.59 0l3 3c.43.43.43 1.15 0 1.59l-3 3c-.44.43-1.16.43-1.6 0 -.44-.44-.44-1.16 0-1.6l1.07-1.08h-4.04c-.63 0-1.125-.51-1.125-1.125 0-.63.5-1.125 1.125-1.125h4.03L17.54 9.4c-.44-.44-.44-1.16 0-1.6Z"/></svg>