<svg viewBox="0 0 24 24" xmlns="http://www.w3.org/2000/svg"><path fill="currentColor" d="M10.49 12.5c.51 0 .93.38.99.88l0 .11v7.5c0 .55-.45 1-1 1 -.52 0-.94-.39-1-.89l-.01-.12 -.01-5.1 -5.8 5.79c-.37.36-.93.38-1.32.08l-.1-.09c-.37-.37-.39-.93-.09-1.32l.08-.1 5.78-5.79 -5.09 0c-.56 0-1-.45-1-1 0-.52.38-.94.88-1l.11-.01h7.5Zm3-10.51c.51 0 .93.38.99.88l0 .11 -.01 5.08 5.79-5.8c.36-.37.92-.39 1.32-.09l.09.08c.36.36.38.92.08 1.32l-.09.09 -5.8 5.79 5.09 0c.55 0 1 .44 1 1 0 .51-.39.93-.89.99l-.12 0h-7.51c-.52 0-.94-.39-1-.89l-.01-.12V2.92c0-.56.44-1 1-1Z"/></svg>