<svg viewBox="0 0 24 24" xmlns="http://www.w3.org/2000/svg"><path fill="currentColor" d="M12.37 21c.62 0 1.12-.51 1.12-1.125 0-.63-.51-1.125-1.13-1.125H6.82l1.82-1.83c.43-.44.43-1.16 0-1.6 -.44-.44-1.16-.44-1.6 0l-1.83 1.82V11.6c0-.63-.51-1.125-1.13-1.125 -.63 0-1.13.5-1.13 1.125v8.25c0 .62.5 1.125 1.12 1.125h8.25Zm-1.55-9.43c-.44.43-.44 1.15 0 1.59 .43.43 1.15.43 1.59 0l2.25-2.25c.43-.44.43-1.16 0-1.6 -.44-.44-1.16-.44-1.6 0l-2.25 2.25Zm6-6c-.44.43-.44 1.15 0 1.59 .43.43 1.15.43 1.59 0l2.25-2.25c.43-.44.43-1.16 0-1.6 -.44-.44-1.16-.44-1.6 0l-2.25 2.25Z"/></svg>