<svg viewBox="0 0 24 24" xmlns="http://www.w3.org/2000/svg"><g fill="currentColor"><path d="M3.42 2.57c-.24-.24-.62-.24-.85 0 -.24.23-.24.61 0 .84l1.17 1.17c-.1.14-.16.31-.16.49 0 .49.4.9.9.9h.65l4.2 4.2H7.47c-2.16 0-3.9 1.74-3.9 3.9 0 2.15 1.74 3.9 3.9 3.9h9.65l.84.84c-.02.24.07.49.26.68 .18.18.43.27.68.26l1.62 1.62c.23.23.61.23.84 0 .23-.24.23-.62 0-.85l-18.01-18Zm11.92 13.62H7.48c-1.16 0-2.1-.95-2.1-2.1 0-1.16.94-2.1 2.1-2.1h3.65l4.2 4.2Z"/><path d="M16.5 10.2h-3.76l1.8 1.8h1.95c2.15 0 3.9-1.75 3.9-3.9 0-2.16-1.75-3.9-3.9-3.9H6.73L8.53 6h7.95c1.15 0 2.1.94 2.1 2.1 0 1.15-.95 2.1-2.1 2.1Z"/><path d="M20.8 18.26l-2.8-2.8c-.06-.29.02-.59.24-.81 .35-.36.92-.36 1.27 0l1.8 1.8c.35.35.35.92 0 1.27l-.53.52Z"/></g></svg>