<svg viewBox="0 0 24 24" xmlns="http://www.w3.org/2000/svg"><g fill="currentColor"><path d="M18.63 18.53c.23-.1.41-.29.5-.52 .08-.24.07-.5-.04-.73l-3-6.01c-.23-.45-.77-.63-1.21-.41 -.45.22-.63.76-.41 1.2l1.94 3.89 -11.79-5.19 12.79-5.49c.45-.2.66-.73.47-1.19 -.2-.46-.73-.67-1.19-.48L3.25 9.35c-1.21.51-1.22 2.22-.02 2.75l12.55 5.52 -3.9 1.55c-.47.18-.69.7-.51 1.16 .18.46.7.68 1.16.5l6-2.4Z"/><path fill="currentColor" fill-rule="evenodd" d="M16.686 3.53c.53-.23 1.15.01 1.37.55 .22.53-.02 1.15-.56 1.37L5.01 10.79l11.08 4.87 -1.77-3.53c-.26-.52-.05-1.15.46-1.41s1.14-.05 1.4.46l3 6c.13.26.14.56.04.84 -.11.27-.32.49-.6.6l-6 2.39c-.54.21-1.15-.05-1.37-.59 -.22-.54.04-1.15.58-1.37l3.56-1.43 -12.24-5.39c-1.33-.59-1.32-2.46.01-3.03l13.43-5.76Zm1.1.66c-.17-.39-.61-.56-.99-.4L3.35 9.54c-1.09.46-1.1 2-.02 2.47l12.55 5.52c.05.02.09.07.08.13 -.01.06-.04.11-.1.13l-3.9 1.55c-.39.15-.58.59-.42.97 .15.38.59.57.97.41l6-2.4c.19-.08.34-.24.42-.43 .07-.2.06-.42-.04-.61l-3-6.01c-.19-.38-.64-.53-1.01-.34 -.38.18-.53.63-.34 1l1.94 3.89c.02.05.01.12-.03.17 -.05.04-.12.05-.17.03L4.49 10.83c-.06-.03-.09-.08-.09-.14 0-.06.03-.12.09-.14l12.79-5.49c.38-.17.55-.61.39-.99Z"/></g></svg>