<svg viewBox="0 0 24 24" xmlns="http://www.w3.org/2000/svg"><path fill="currentColor" d="M20 6.5C20 5.11 18.88 4 17.5 4h-11C5.11 4 4 5.11 4 6.5v4c0 .55.44 1 1 1 .55 0 1-.45 1-1v-4c0-.28.22-.5.5-.5h10.99c.27 0 .5.22.5.5v4c0 .55.44 1 1 1 .55 0 1-.45 1-1v-4Zm-1.81 13.2l2.5-2.5c.39-.4.39-1.03 0-1.42l-2.5-2.5c-.4-.4-1.03-.4-1.42 0 -.4.39-.4 1.02 0 1.41l1.79 1.79 -1.8 1.79c-.4.39-.4 1.02 0 1.41 .39.39 1.02.39 1.41 0ZM3.27 15.78c-.4.39-.4 1.02 0 1.41l2.5 2.5c.39.39 1.02.39 1.41 0 .39-.4.39-1.03 0-1.42l-1.8-1.8 1.79-1.8c.39-.4.39-1.03 0-1.42 -.4-.4-1.03-.4-1.42 0l-2.5 2.5Zm9.7.7c0-.56-.45-1-1-1 -.56 0-1 .44-1 1 0 .55.44 1 1 1 .55 0 1-.45 1-1Zm-4-1c.55 0 1 .44 1 1 0 .55-.45 1-1 1h-1c-.56 0-1-.45-1-1 0-.56.44-1 1-1h1Zm8 1c0-.56-.45-1-1-1h-1c-.56 0-1 .44-1 1 0 .55.44 1 1 1h1c.55 0 1-.45 1-1Z"/></svg>