<svg viewBox="0 0 24 24" xmlns="http://www.w3.org/2000/svg"><path fill="currentColor" d="M12.49 3l7.55 0 .12.01 .08.01 .1.03 .08.04 .06.03 .06.04 .06.04 .06.05 .09.1 .07.11 .05.11 .03.1 .01.06 0 .05 .01.14v7.5c0 .55-.45 1-1 1 -.52 0-.94-.39-1-.89l-.01-.12 -.01-5.09L6.31 18.9l5.08 0c.51 0 .93.38.99.88l0 .11c0 .51-.39.93-.89.99l-.12 0 -7.57-.01 -.1-.02 -.08-.02 -.08-.03 -.07-.03 -.1-.05 -.09-.06 -.1-.07 .03.02c-.07-.05-.12-.11-.17-.17l-.06-.08 -.04-.07 -.04-.07 -.04-.09 -.03-.08 -.03-.12 -.01-.07 -.01-.09v-7.51c0-.56.44-1 1-1 .51 0 .93.38.99.88l0 .11v5.08L17.35 4.74h-5.09c-.52 0-.94-.39-1-.89l-.01-.12c0-.56.44-1 1-1Z"/></svg>