<svg viewBox="0 0 24 24" xmlns="http://www.w3.org/2000/svg"><path fill="currentColor" d="M12 8.25c-.66 0-1.26.2-1.76.56 -.76.54-1.25 1.43-1.25 2.43 0 1.65 1.34 3 3 3h6.65l-.33-.33c-.44-.44-.44-1.16 0-1.6 .43-.44 1.15-.44 1.59 0l2.25 2.25c.43.43.43 1.15 0 1.59L19.9 18.4c-.44.43-1.16.43-1.6 0 -.44-.44-.44-1.16 0-1.6l.32-.33h-6.66c-2.9 0-5.25-2.36-5.25-5.25 0-.95.24-1.83.68-2.59 0 0 0 0 0 0 .9-1.59 2.61-2.67 4.56-2.67 2.89 0 5.25 2.35 5.25 5.25l-.01.03c-.41.41-.65.92-.73 1.46h-1.93c.25-.45.4-.96.4-1.5 0-1.66-1.35-3-3-3Zm-7.88 6h1.82c.43.87 1.05 1.64 1.8 2.25H4.1c-.63 0-1.13-.51-1.13-1.13 0-.63.5-1.13 1.12-1.13Z"/></svg>