<svg viewBox="0 0 24 24" xmlns="http://www.w3.org/2000/svg"><path fill="currentColor" d="M16.29 5.7c-.4-.4-.39-1.03 0-1.42 .39-.4 1.02-.39 1.41 0l4.99 5c.39.39.38 1.02-.01 1.41l-5 4.99c-.4.39-1.03.39-1.42 0 -.4-.4-.4-1.03-.01-1.42l3.29-3.3h-6.59c-4.34 0-7.87-3.45-8-7.76l-.01-.25c0-.56.44-1 1-1 .55 0 1 .44 1 1 0 3.23 2.56 5.87 5.77 5.99l.22 0h6.58l-3.3-3.3Zm-7.3 7.79c0 1.38-1.12 2.5-2.5 2.5 -1.39 0-2.5-1.12-2.5-2.5 0-1.39 1.11-2.5 2.5-2.5 1.38 0 2.5 1.11 2.5 2.5Zm2 5.375c0 1.55-1.29 3.125-4.5 3.125 -3.22 0-4.5-1.57-4.5-3.125v-.11c0-.98.79-1.78 1.77-1.78h5.45c.97 0 1.77.79 1.77 1.77v.1Z"/></svg>