<svg viewBox="0 0 24 24" xmlns="http://www.w3.org/2000/svg"><g fill="currentColor"><path d="M3.86 12.86c-.36.35-.36.92 0 1.27l4.8 4.8c.35.35.92.35 1.27 0l4.8-4.8c.35-.36.35-.93 0-1.28 -.36-.36-.93-.36-1.28 0l-3.27 3.26V8.38c0-1 .8-1.8 1.8-1.8h7.5c.49 0 .9-.41.9-.9 0-.5-.41-.9-.9-.9h-7.5c-1.99 0-3.61 1.61-3.61 3.6l0 7.72 -3.27-3.27c-.36-.36-.93-.36-1.28 0Z"/><path fill="currentColor" fill-rule="evenodd" d="M12 4.65h7.5c.57 0 1.05.47 1.05 1.05 0 .57-.48 1.05-1.05 1.05H12c-.92 0-1.65.73-1.65 1.65v7.36l3-3.01c.41-.41 1.07-.41 1.48 0 .41.41.41 1.07 0 1.48l-4.8 4.8c-.42.41-1.08.41-1.49 0l-4.8-4.8c-.42-.42-.42-1.08 0-1.49 .41-.41 1.07-.41 1.48 0l3 3V8.37c-.01-2.08 1.67-3.75 3.75-3.75Zm7.5.3H12c-1.91 0-3.46 1.54-3.46 3.45l0 7.72c0 .06-.04.11-.1.13 -.06.02-.13.01-.17-.04L5 12.94c-.3-.3-.77-.3-1.07 0 -.3.29-.3.76 0 1.06l4.8 4.8c.29.29.76.29 1.06 0l4.79-4.8c.29-.3.29-.77 0-1.07 -.3-.3-.77-.3-1.07 0l-3.27 3.26c-.05.04-.11.05-.17.03 -.06-.03-.1-.08-.1-.14V8.35c0-1.08.87-1.95 1.95-1.95h7.5c.41 0 .75-.34.75-.75 0-.42-.34-.75-.75-.75Z"/></g></svg>