<svg viewBox="0 0 24 24" xmlns="http://www.w3.org/2000/svg"><path fill="currentColor" d="M13.7 16.29c.39.39.38 1.02-.01 1.41 -.4.39-1.03.38-1.42-.01l-5-5.01c-.4-.4-.39-1.03 0-1.42l4.99-5c.39-.4 1.02-.4 1.41-.01 .39.39.39 1.02 0 1.41l-3.3 3.29h2.58c4.33 0 7.86 3.44 7.99 7.75l0 .24c0 .55-.45 1-1 1 -.56 0-1-.45-1-1 0-3.24-2.57-5.88-5.78-6l-.23-.01h-2.59l3.29 3.29ZM8.69 6.28c.39.39.39 1.02 0 1.41l-4.3 4.29 4.29 4.29c.39.39.38 1.02-.01 1.41 -.4.39-1.03.38-1.42-.01l-5-5.01c-.4-.4-.39-1.03 0-1.42l4.99-5c.39-.4 1.02-.4 1.41-.01Z"/></svg>