<svg viewBox="0 0 24 24" xmlns="http://www.w3.org/2000/svg"><path fill="currentColor" d="M12 2.75c.65 0 1.3.06 1.92.2 .54.11.88.64.77 1.18 -.12.54-.65.88-1.19.77 -.49-.11-1-.16-1.51-.16 -.52 0-1.03.05-1.51.15 -.55.11-1.08-.24-1.19-.78 -.12-.55.23-1.08.77-1.19 .62-.14 1.26-.21 1.92-.21Zm-5.75 2v-.51c0-.56-.45-1-1-1 -.56 0-1 .44-1 1v3c0 .55.44 1 1 1h3c.55 0 1-.45 1-1 0-.56-.45-1-1-1h-.67c.15-.12.3-.23.46-.34 .46-.31.59-.93.29-1.39 -.31-.47-.93-.6-1.39-.3 -.25.15-.49.33-.72.51Zm9.4-.22c.3-.47.92-.6 1.38-.3 1.08.7 2.01 1.63 2.71 2.71 .3.46.17 1.08-.3 1.38 -.47.3-1.09.17-1.39-.3 -.56-.86-1.282-1.58-2.14-2.14 -.47-.31-.6-.93-.3-1.39Zm4.2 4.77c.54-.12 1.07.23 1.18.77 .13.62.2 1.26.2 1.92 0 .65-.07 1.3-.21 1.92 -.12.54-.65.88-1.19.77 -.55-.12-.89-.65-.78-1.19 .1-.49.15-1 .15-1.51 0-.52-.06-1.03-.16-1.51 -.12-.55.23-1.08.77-1.19Zm-16.12.94c.55 0 1 .44 1 1v.75c0 .51.05 1.02.15 1.5 .11.54-.24 1.07-.78 1.18 -.55.11-1.08-.24-1.19-.78 -.14-.63-.21-1.27-.21-1.93v-.75c0-.56.44-1 1-1Zm.78 5.4c.46-.31 1.08-.18 1.38.29 .55.85 1.28 1.57 2.13 2.13 .46.3.59.92.29 1.38 -.31.46-.93.59-1.39.29 -1.09-.71-2.02-1.64-2.72-2.72 -.31-.47-.18-1.09.29-1.39Zm13.54.29c.3-.47.92-.6 1.38-.3 .46.3.59.92.29 1.38 -.71 1.08-1.64 2.01-2.72 2.71 -.47.3-1.09.17-1.39-.3 -.31-.47-.18-1.09.29-1.39 .85-.56 1.57-1.282 2.13-2.14Zm-4.58 3.14c.54-.12 1.07.23 1.18.77 .11.54-.24 1.07-.78 1.18 -.63.13-1.27.2-1.93.2 -.66 0-1.31-.07-1.93-.21 -.55-.12-.89-.65-.78-1.19 .11-.55.64-.89 1.18-.78 .48.1.99.15 1.5.15s1.02-.06 1.5-.16Z"/></svg>