<svg viewBox="0 0 24 24" xmlns="http://www.w3.org/2000/svg"><g fill="currentColor"><path d="M15.2 6.2c-.4.39-1.03.39-1.42 0l-.8-.8v3.58c0 .55-.45 1-1 1 -.56 0-1-.45-1-1V5.39l-.8.79c-.4.39-1.03.39-1.42 0 -.4-.4-.4-1.03 0-1.42l2.5-2.5c.09-.1.2-.17.32-.22 .11-.05.24-.08.37-.08h0 0c.25 0 .5.09.7.29l2.5 2.5c.39.39.39 1.02 0 1.41Z"/><path d="M5 11c-.56 0-1 .44-1 1 0 .55.44 1 1 1h14c.55 0 1-.45 1-1 0-.56-.45-1-1-1H5Z"/><path d="M12 22c.13-.01.25-.03.37-.08 .11-.05.22-.13.32-.22l2.5-2.5c.39-.4.39-1.03 0-1.42 -.4-.4-1.03-.4-1.42 0l-.8.79v-3.59c0-.56-.45-1-1-1 -.56 0-1 .44-1 1v3.58l-.8-.8c-.4-.4-1.03-.4-1.42 0 -.4.39-.4 1.02 0 1.41l2.5 2.5c.19.19.44.29.69.29"/></g></svg>