<svg viewBox="0 0 24 24" xmlns="http://www.w3.org/2000/svg"><path fill="currentColor" d="M14 16c0-.56.44-1 1-1h5c.55 0 1 .44 1 1v4c0 .55-.45 1-1 1h-5c-.56 0-1-.45-1-1v-4Zm9 1.5c0-.28-.23-.5-.5-.5 -.28 0-.5.22-.5.5v3c0 .82-.68 1.5-1.5 1.5h-4c-.28 0-.5.22-.5.5 0 .27.22.5.5.5h4c1.38 0 2.5-1.12 2.5-2.5v-3ZM17.53 3.21c-.3-.3-.77-.3-1.07 0 -.3.29-.3.76 0 1.06l2.96 2.96h-4.94c-1.8 0-3.25 1.45-3.25 3.25v3c0 .82-.57 1.51-1.34 1.69 -.38-1.83-1.99-3.2-3.92-3.2 -2.21 0-4 1.79-4 4 0 2.2 1.79 4 4 4 1.96 0 3.59-1.42 3.93-3.28 1.58-.22 2.81-1.58 2.81-3.23v-3c0-.97.78-1.75 1.75-1.75h4.93l-2.97 2.96c-.3.29-.3.76 0 1.06 .29.29.76.29 1.06 0l4.25-4.25c.29-.3.29-.77 0-1.07l-4.25-4.25Z"/></svg>