<svg viewBox="0 0 24 24" xmlns="http://www.w3.org/2000/svg"><path fill="currentColor" d="M17.97 13.076l.09.08 2.35 2.35c.27.17.44.5.44.86 0 .32-.14.61-.37.8l-.01 0 -.07.04 -2.37 2.35 -.1.08 -.01 0c-.35.25-.83.26-1.18 0l-.01-.01 -.12-.1 -.1-.11 -.01-.01c-.26-.35-.27-.83-.01-1.18l0-.01 .09-.11 .8-.81H3.69l-.11-.01 -.01-.01c-.47-.08-.78-.52-.78-1s.31-.92.77-1l0-.01 .1-.01h13.68l-.81-.8 -.09-.1 -.01-.01c-.3-.4-.26-.95.09-1.31 .35-.36.91-.39 1.3-.1l0 0Zm-.6-8.96c1.38 0 2.5 1.11 2.5 2.5v4c0 .55-.45 1-1 1 -.56 0-1-.45-1-1v-4.01c0-.28-.23-.5-.5-.5H6.36c-.28 0-.5.22-.5.5v6c0 .55-.45 1-1 1 -.56 0-1-.45-1-1v-6.01c0-1.39 1.11-2.5 2.5-2.5h11Z"/></svg>