<svg viewBox="0 0 24 24" xmlns="http://www.w3.org/2000/svg"><path fill="currentColor" d="M12 4.75c-4.01 0-7.25 3.24-7.25 7.25 0 4 3.24 7.25 7.25 7.25 4 0 7.25-3.25 7.25-7.25 0-.29-.02-.57-.05-.85 -.07-.59.35-1.16.94-1.16 .51 0 .96.35 1.03.86 .04.37.06.74.06 1.13 0 5.1-4.15 9.25-9.25 9.25 -5.11 0-9.25-4.15-9.25-9.25 0-5.11 4.14-9.25 9.25-9.25 2.17 0 4.17.74 5.75 2v-.51c0-.56.44-1 1-1 .55 0 1 .44 1 1v2.69c.01.01.02.03.03.05h-.04v.25c0 .55-.45 1-1 1h-3c-.56 0-1-.45-1-1 0-.56.44-1 1-1h.66c-1.23-.95-2.76-1.5-4.42-1.5Z"/></svg>