<svg viewBox="0 0 24 24" xmlns="http://www.w3.org/2000/svg"><path fill="currentColor" d="M6.28 4.29l-4 4 -.09.09c-.31.39-.28.95.08 1.31l.09.08c.39.3.95.27 1.31-.09l2.29-2.3 0 11.59 0 .11c.05.49.48.88.99.88l.11-.01c.49-.06.88-.49.88-1L7.93 7.36l2.29 2.29 .09.08c.39.3.95.27 1.32-.09 .39-.4.38-1.03-.01-1.42l-4.01-4 -.1-.09c-.4-.31-.96-.28-1.32.08Zm10.71-.3l-.12 0c-.5.05-.89.48-.89.99v11.57l-2.3-2.3 -.1-.09c-.4-.31-.96-.28-1.32.08 -.4.39-.4 1.02 0 1.41l4 4 .09.08c.39.3.95.27 1.32-.09l3.99-4 .08-.1c.3-.4.27-.96-.09-1.32l-.1-.09c-.4-.31-.96-.28-1.32.08l-2.3 2.29V4.91l-.01-.12c-.06-.5-.49-.89-1-.89Z"/></svg>