<svg viewBox="0 0 24 24" xmlns="http://www.w3.org/2000/svg"><path fill="currentColor" d="M12 3c4.97 0 9 4.02 9 9 0 3.43-1.95 6.48-4.88 8l1.87-.01c.55 0 1 .44 1 1 0 .51-.39.93-.89.99l-.12 0h-4c-.52 0-.94-.39-1-.89l-.01-.12v-4c0-.56.44-1 1-1 .51 0 .93.38.99.88l0 .11 0 1.32c2.39-1.14 3.99-3.58 3.99-6.33 0-3.87-3.14-7-7-7 -3.87 0-7 3.13-7 7 0 .55-.45 1-1 1 -.56 0-1-.45-1-1 0-4.98 4.02-9 9-9Zm0 6c1.65 0 3 1.34 3 3 0 1.65-1.35 3-3 3 -1.66 0-3-1.35-3-3 0-1.66 1.34-3 3-3Zm0 2c-.56 0-1 .44-1 1 0 .55.44 1 1 1 .55 0 1-.45 1-1 0-.56-.45-1-1-1Z"/></svg>