<svg viewBox="0 0 24 24" xmlns="http://www.w3.org/2000/svg"><path fill="currentColor" d="M11.625 3c-.63 0-1.125.5-1.125 1.12 0 .62.5 1.12 1.125 1.12h5.53l-1.83 1.82c-.44.43-.44 1.15 0 1.59 .43.43 1.15.43 1.59 0l1.82-1.83v5.53c0 .62.5 1.12 1.125 1.12 .62 0 1.125-.51 1.125-1.13V4.09c0-.63-.51-1.13-1.125-1.13h-8.25Zm1.54 9.42c.43-.44.43-1.16 0-1.6 -.44-.44-1.16-.44-1.6 0l-2.25 2.25c-.44.43-.44 1.15 0 1.59 .43.43 1.15.43 1.59 0l2.25-2.25Zm-6 6c.43-.44.43-1.16 0-1.6 -.44-.44-1.16-.44-1.6 0l-2.25 2.25c-.44.43-.44 1.15 0 1.59 .43.43 1.15.43 1.59 0l2.25-2.25Z"/></svg>