<svg viewBox="0 0 24 24" xmlns="http://www.w3.org/2000/svg"><path fill="currentColor" d="M16.49 4.2c2.15 0 3.9 1.74 3.9 3.9 0 2.15-1.75 3.9-3.9 3.9h-9c-1.16 0-2.1.94-2.1 2.1 0 1.15.94 2.1 2.1 2.1h11.02l-.27-.27c-.36-.36-.36-.93 0-1.28 .35-.36.92-.36 1.27 0l1.8 1.8c.35.35.35.92 0 1.27l-1.8 1.8c-.36.35-.93.35-1.28 0 -.36-.36-.36-.93 0-1.28l.26-.27H7.46c-2.16 0-3.9-1.75-3.9-3.9 0-2.16 1.74-3.9 3.9-3.9h8.99c1.15 0 2.1-.95 2.1-2.1 0-1.16-.95-2.1-2.1-2.1h-12c-.5 0-.9-.41-.9-.9 0-.5.4-.9.9-.9h11.99Z"/></svg>