<svg viewBox="0 0 24 24" xmlns="http://www.w3.org/2000/svg"><path fill="currentColor" d="M6.06 5.24c.27-.32.24-.79-.08-1.06 -.32-.28-.79-.25-1.06.07L3.17 6.24c-.25.28-.25.7 0 .98l1.75 2c.27.31.74.34 1.05.07 .31-.28.34-.75.07-1.06l-.67-.76h2.86c.41 0 .75-.34.75-.75 0-.42-.34-.75-.75-.75H5.36l.66-.76Zm11.95-1.06c-.32.27-.35.74-.08 1.05l.66.75h-2.87c-.42 0-.75.33-.75.75 0 .41.33.75.75.75h2.86l-.67.75c-.28.31-.25.78.07 1.05 .31.27.78.24 1.05-.08l1.75-2.01c.24-.29.24-.71 0-.99l-1.75-2c-.28-.32-.75-.35-1.06-.08ZM5.73 10.99c-1.52 0-2.75 1.23-2.75 2.75v4c0 1.51 1.23 2.75 2.75 2.75h12.5c1.51 0 2.75-1.24 2.75-2.75v-4c0-1.52-1.24-2.75-2.75-2.75H5.73Zm.25 4.75c0-.42.33-.75.75-.75h10.5c.41 0 .75.33.75.75 0 .41-.34.75-.75.75H6.73c-.42 0-.75-.34-.75-.75Z"/></svg>