<svg viewBox="0 0 24 24" xmlns="http://www.w3.org/2000/svg"><path fill="currentColor" d="M12 3c.55 0 1 .44 1 1v5h2.24c1.51 0 2.75 1.23 2.75 2.75v5.83l1.29-1.3c.39-.4 1.02-.4 1.41 0 .39.39.39 1.02 0 1.41l-3 3c-.4.39-1.03.39-1.42 0l-3-3c-.4-.4-.4-1.03 0-1.42 .39-.4 1.02-.4 1.41 0l1.29 1.29v-5.84c0-.42-.34-.75-.75-.75h-6.5c-.42 0-.75.33-.75.75v5.83l1.29-1.3c.39-.4 1.02-.4 1.41 0 .39.39.39 1.02 0 1.41l-3 3c-.4.39-1.03.39-1.42 0l-3.01-3c-.4-.4-.4-1.03-.01-1.42 .39-.4 1.02-.4 1.41 0l1.29 1.29v-5.84c0-1.52 1.23-2.75 2.75-2.75h2.25v-5c0-.56.44-1 1-1Z"/></svg>