<svg viewBox="0 0 24 24" xmlns="http://www.w3.org/2000/svg"><g fill="currentColor"><path d="M5.36 18.53c-.24-.1-.42-.29-.51-.52 -.09-.24-.08-.5.03-.73l3-6.01c.22-.45.76-.63 1.2-.41 .44.22.62.76.4 1.2l-1.95 3.89 11.78-5.19 -12.8-5.49c-.46-.2-.67-.73-.48-1.19 .19-.46.72-.67 1.18-.48l13.43 5.75c1.2.51 1.21 2.22.01 2.75L8.09 17.62l3.89 1.55c.46.18.68.7.5 1.16 -.19.46-.71.68-1.17.5l-6.01-2.4Z"/><path fill="currentColor" fill-rule="evenodd" d="M7.19 3.81c-.39-.17-.83.01-.99.39 -.17.38.01.82.39.98l12.79 5.48c.05.02.09.07.09.13 0 .05-.04.11-.09.13L7.59 16.1c-.06.02-.13.01-.17-.04 -.05-.05-.06-.12-.03-.18l1.94-3.9c.18-.38.03-.83-.34-1.01 -.38-.19-.83-.04-1.01.33l-3 6c-.1.18-.11.4-.04.6 .07.19.22.35.42.42l6 2.39c.38.15.82-.04.97-.42 .15-.39-.04-.83-.42-.98l-3.9-1.56c-.06-.03-.1-.08-.1-.14 -.01-.07.03-.12.08-.14l12.55-5.53c1.08-.48 1.07-2.02-.02-2.48L7.08 3.7Zm-1.27.27c.22-.54.84-.78 1.37-.56l13.43 5.75c1.32.56 1.33 2.44.01 3.02L8.49 17.67l3.56 1.42c.53.21.8.82.58 1.36 -.22.53-.83.8-1.37.58l-6.01-2.4c-.28-.11-.49-.33-.6-.61 -.11-.28-.09-.59.04-.85l3-6.01c.25-.52.88-.73 1.4-.47 .51.25.72.89.46 1.4l-1.77 3.52 11.08-4.88L6.38 5.38c-.54-.23-.78-.85-.56-1.38Z"/></g></svg>