<svg viewBox="0 0 24 24" xmlns="http://www.w3.org/2000/svg"><path fill="currentColor" d="M3 4c-.52 0-.94.38-1 .88l-.01.11v6.5c0 1.86 1.46 3.39 3.3 3.49l.19 0h13.08l-3.3 3.29c-.37.36-.39.92-.09 1.32l.08.09c.36.36.92.38 1.32.08l.09-.09 5-5c.03-.04.06-.08.09-.12l.07-.12 .05-.12 .03-.11 .02-.12 0-.06 0-.09 -.01-.08 -.02-.13 -.03-.12 -.05-.12 -.06-.1 -.07-.1 -.09-.1 -5-5.01c-.4-.4-1.03-.4-1.42 0 -.37.36-.39.92-.09 1.32l.08.09 3.29 3.29H5.36c-.78 0-1.43-.6-1.5-1.36l-.01-.15v-6.5c0-.56-.45-1-1-1Z"/></svg>