<svg viewBox="0 0 24 24" xmlns="http://www.w3.org/2000/svg"><path fill="currentColor" d="M5.77 13.076l-.1.08 -2.36 2.35c-.28.17-.45.5-.45.86 0 .32.13.61.36.8l0 0 .06.04 2.361 2.35 .09.08 0 0c.34.25.82.26 1.17 0l0-.01 .11-.1 .09-.11 0-.01c.25-.35.26-.83 0-1.18l-.01-.01 -.1-.11 -.81-.81h13.68l.1-.01 0-.01c.46-.08.77-.52.77-1s-.32-.92-.78-1l-.01-.01 -.11-.01H6.141l.8-.8 .08-.1 0-.01c.29-.4.25-.95-.1-1.31 -.36-.36-.92-.39-1.31-.1l-.01 0Zm.59-8.96c-1.39 0-2.5 1.11-2.5 2.5v4c0 .55.44 1 1 1 .55 0 1-.45 1-1v-4.01c0-.28.22-.5.5-.5h11c.27 0 .5.22.5.5v6c0 .55.44 1 1 1 .55 0 1-.45 1-1v-6.01c0-1.39-1.12-2.5-2.5-2.5H6.35Z"/></svg>