<svg viewBox="0 0 24 24" xmlns="http://www.w3.org/2000/svg"><g fill="currentColor"><path d="M5.4 2.4c.33 0 .6.26.6.6 0 4.34 3.45 7.8 7.8 7.8h.95l-1.38-1.38c-.24-.24-.24-.62 0-.85 .23-.24.61-.24.84 0l2.4 2.39c.23.23.23.61 0 .84l-2.4 2.4c-.24.23-.62.23-.85 0 -.24-.24-.24-.62 0-.85l1.37-1.38h-.96c-4.35 0-7.8 3.45-7.8 7.8 0 .33-.27.6-.6.6 -.34 0-.6-.27-.6-.6 0-3.86 2.36-7.11 5.73-8.4 -3.38-1.3-5.74-4.55-5.74-8.4 0-.34.26-.6.6-.6Zm6.63 11.03c-1.5.4-2.78 1.31-3.64 2.53v.82c0 1.32 1.07 2.4 2.4 2.4h7.2c1.32 0 2.4-1.08 2.4-2.4V5.98c0-1.33-1.08-2.4-2.4-2.4h-7.2c-1.33 0-2.4 1.07-2.4 2.4v.82c.86 1.22 2.13 2.13 3.63 2.53 -.12-.58.04-1.2.48-1.65 .7-.71 1.84-.71 2.54 0l2.4 2.39c.7.7.7 1.84 0 2.54l-2.4 2.4c-.71.7-1.85.7-2.55 0 -.45-.45-.61-1.07-.49-1.65Z"/><path fill="currentColor" fill-rule="evenodd" d="M12.1 13.35c.02.02.03.05.02.09 -.12.54.04 1.12.46 1.55 .66.66 1.74.66 2.4 0l2.4-2.4c.66-.67.66-1.75 0-2.41l-2.4-2.4c-.67-.67-1.75-.67-2.41 0 -.43.42-.58 1-.47 1.55 0 .03-.01.06-.03.09 -.03.02-.07.03-.1.02 -1.53-.41-2.82-1.34-3.7-2.58 -.02-.02-.02-.04-.02-.06v-.83c0-1.39 1.11-2.5 2.5-2.5h7.2c1.38 0 2.5 1.11 2.5 2.5v10.8c0 1.38-1.12 2.5-2.5 2.5h-7.2c-1.39 0-2.5-1.12-2.5-2.5v-.83c0-.03 0-.05.01-.06 .87-1.25 2.17-2.17 3.69-2.58 .03-.01.06-.01.09.02ZM5.39 2.29c.38 0 .7.31.7.7 0 4.29 3.4 7.7 7.7 7.7h.71l-1.21-1.21c-.28-.28-.28-.72 0-.99 .27-.28.71-.28.99 0l2.4 2.39c.27.27.27.71 0 .99l-2.4 2.4c-.28.27-.72.27-.99 0 -.28-.28-.28-.72 0-.99l1.2-1.21h-.71c-4.3 0-7.7 3.4-7.7 7.7 0 .38-.32.7-.7.7 -.39 0-.7-.32-.7-.7 0-3.81 2.27-7.04 5.56-8.4 -3.29-1.37-5.57-4.6-5.57-8.4 0-.39.31-.7.7-.7Zm4.99 9.04c.04.01.09.03.13.05 -.05.01-.1.03-.14.05 -3.3 1.32-5.6 4.54-5.6 8.34 0 .33.26.6.6.6 .33 0 .6-.27.6-.6 0-4.35 3.45-7.8 7.8-7.8h.95l-1.38 1.37c-.24.23-.24.61 0 .84 .23.23.61.23.84 0l2.4-2.4c.23-.24.23-.62 0-.85l-2.4-2.4c-.24-.24-.62-.24-.85 0 -.24.23-.24.61 0 .84l1.37 1.37h-.96c-4.35 0-7.8-3.46-7.8-7.8 0-.34-.27-.6-.6-.6 -.34 0-.6.26-.6.6 0 3.8 2.29 7.01 5.59 8.34Zm-2-4.52v-.83c0-1.33 1.07-2.4 2.4-2.4h7.2c1.32 0 2.4 1.07 2.4 2.4v10.8c0 1.32-1.08 2.4-2.4 2.4h-7.2c-1.33 0-2.4-1.08-2.4-2.4v-.83c.84-1.2 2.07-2.1 3.53-2.51 .03-.02.07-.03.1-.03 -.01.03-.02.07-.02.1 -.08.54.09 1.11.5 1.53 .7.7 1.84.7 2.54 0l2.4-2.4c.7-.71.7-1.85 0-2.55l-2.4-2.4c-.71-.71-1.85-.71-2.55 0 -.42.41-.59.98-.51 1.53 0 .03.01.07.01.1 -.04-.01-.08-.02-.11-.04 -1.46-.42-2.69-1.32-3.54-2.51Z"/></g></svg>