<svg viewBox="0 0 24 24" xmlns="http://www.w3.org/2000/svg"><path fill="currentColor" d="M8.78 3.21c.29.29.29.76 0 1.06L5.56 7.48h3.5c2.2-.01 4.35-.01 6.33.59 2.04.61 3.87 1.85 5.471 4.23 .22.34.13.81-.21 1.04 -.35.22-.82.13-1.04-.21C18.2 11.01 16.65 10 14.95 9.49c-1.75-.53-3.7-.54-5.98-.54H5.53l3.21 3.21c.29.29.29.76 0 1.06 -.3.29-.77.29-1.07 0l-4.5-4.5c-.3-.3-.3-.77 0-1.07l4.49-4.5c.29-.3.76-.3 1.06 0Zm3.21 17.78c1.65 0 2.99-1.35 2.99-3 0-1.66-1.35-3-3-3 -1.66 0-3.01 1.34-3.01 3 0 1.65 1.34 3 3 3Z"/></svg>