<svg viewBox="0 0 24 24" xmlns="http://www.w3.org/2000/svg"><path fill="currentColor" d="M12.95 18.1l.08.09 2.35 2.35c.17.27.5.44.86.44 .32 0 .61-.14.8-.37l0-.01 .04-.07 2.35-2.37 .08-.1 0-.01c.25-.35.26-.83 0-1.18l-.01-.01 -.1-.12 -.11-.1 -.01-.01c-.35-.26-.83-.27-1.18-.01l-.01 0 -.11.09 -.81.8V3.82l-.01-.11 -.01-.01c-.08-.47-.52-.78-1-.78s-.92.31-1 .77l-.01 0 -.01.1v13.68l-.8-.81 -.1-.09 -.01-.01c-.4-.3-.95-.26-1.31.09 -.36.35-.39.91-.1 1.3l0 0Zm-8.96-.6c0 1.38 1.11 2.5 2.5 2.5h4c.55 0 1-.45 1-1 0-.56-.45-1-1-1h-4c-.28 0-.5-.23-.5-.5v-11c0-.28.22-.5.5-.5h6c.55 0 1-.45 1-1 0-.56-.45-1-1-1h-6c-1.39 0-2.5 1.11-2.5 2.5v10.99Z"/></svg>