<svg viewBox="0 0 24 24" xmlns="http://www.w3.org/2000/svg"><path fill="currentColor" d="M12.37 3c.62 0 1.12.5 1.12 1.12 0 .62-.51 1.12-1.13 1.12H6.82l1.82 1.82c.43.43.43 1.15 0 1.59 -.44.43-1.16.43-1.6 0L5.21 6.82v5.53c0 .62-.51 1.12-1.13 1.12 -.63 0-1.13-.51-1.13-1.13V4.09c0-.63.5-1.13 1.12-1.13h8.25Zm-1.55 9.42c-.44-.44-.44-1.16 0-1.6 .43-.44 1.15-.44 1.59 0l2.25 2.25c.43.43.43 1.15 0 1.59 -.44.43-1.16.43-1.6 0l-2.25-2.25Zm6 6c-.44-.44-.44-1.16 0-1.6 .43-.44 1.15-.44 1.59 0l2.25 2.25c.43.43.43 1.15 0 1.59 -.44.43-1.16.43-1.6 0l-2.25-2.25Z"/></svg>