<svg viewBox="0 0 24 24" xmlns="http://www.w3.org/2000/svg"><path fill="currentColor" d="M19.2 4.29c-.4-.4-1.03-.4-1.42 0 -.4.39-.4 1.02 0 1.41l.8.8c-3.81.16-6.17 2.59-8.226 4.7l-.09.08c-2.23 2.28-4.14 4.19-7.29 4.19 -.56 0-1 .44-1 1 0 .55.44 1 1 1 4.04 0 6.5-2.53 8.63-4.72l.08-.09c2.12-2.19 3.96-4.03 6.85-4.19l-.79.78c-.4.39-.4 1.02 0 1.41 .39.39 1.02.39 1.41 0l2.5-2.5c.18-.19.29-.45.29-.71 0-.27-.11-.52-.3-.71l-2.5-2.5ZM2.99 6.49c3.22 0 5.44 1.6 7.28 3.36 -.2.19-.39.39-.58.58l-.15.15c-.24.23-.46.47-.68.69 -1.71-1.62-3.42-2.8-5.89-2.8 -.56 0-1-.45-1-1 0-.56.44-1 1-1Zm15.59 10.99c-3.02-.13-5.12-1.68-6.89-3.36 .19-.2.38-.4.57-.59l.14-.16c.23-.24.45-.48.67-.7 1.6 1.52 3.21 2.65 5.46 2.78l-.79-.79c-.4-.4-.4-1.03 0-1.42 .39-.4 1.02-.4 1.41 0l2.5 2.5c.18.18.29.44.29.7 0 .26-.11.51-.3.7l-2.5 2.5c-.4.39-1.03.39-1.42 0 -.4-.4-.4-1.03 0-1.42l.8-.81Z"/></svg>