<svg viewBox="0 0 24 24" xmlns="http://www.w3.org/2000/svg"><path fill="currentColor" d="M16.05 5.02c-.34.43-.26 1.06.18 1.4 1.72 1.31 2.75 3.35 2.75 5.56 0 3.49-2.57 6.39-5.916 6.91l.7-.71c.39-.4.39-1.03 0-1.42 -.4-.4-1.03-.4-1.42 0l-2.51 2.5c-.4.39-.4 1.02 0 1.41l2.5 2.5c.39.39 1.02.39 1.41 0 .39-.4.39-1.03 0-1.42l-.85-.85c4.52-.48 8.05-4.31 8.05-8.96 0-2.85-1.33-5.47-3.55-7.17 -.44-.34-1.07-.26-1.41.18Zm-1.94-1.74l-2.5-2.5c-.4-.4-1.03-.4-1.42 0 -.37.36-.39.92-.09 1.32l.08.09 .84.84c-4.53.47-8.06 4.3-8.06 8.95 0 2.71 1.21 5.24 3.27 6.94 .42.35 1.05.29 1.4-.14 .35-.43.29-1.06-.14-1.41 -1.61-1.33-2.55-3.29-2.55-5.4 0-3.5 2.56-6.4 5.916-6.92l-.71.7c-.4.39-.4 1.02 0 1.41 .36.36.92.38 1.32.08l.09-.09 2.5-2.5c.36-.37.38-.93.08-1.33l-.09-.1Z"/></svg>