<svg viewBox="0 0 24 24" xmlns="http://www.w3.org/2000/svg"><path fill="currentColor" d="M7.66 14.92c.39-.4 1.02-.4 1.41 0 .39.39.39 1.02 0 1.41L6.4 18.99h1.585c.51 0 .93.38.99.88l0 .11c0 .55-.45 1-1 1h-4c-.56 0-1-.45-1-1v-4c0-.56.44-1 1-1 .55 0 1 .44 1 1v1.58l2.66-2.67ZM15.99 21c-.56 0-1-.45-1-1 0-.56.44-1 1-1h1.58l-2.67-2.67c-.37-.37-.39-.93-.09-1.32l.08-.1c.39-.4 1.02-.4 1.41 0l2.66 2.67v-1.59c0-.52.38-.94.88-1l.11-.01c.55 0 1 .44 1 1v4c0 .55-.45 1-1 1h-4ZM7.98 2.99c.55 0 1 .44 1 1 0 .55-.45 1-1 1H6.39l2.66 2.66c.36.36.38.92.08 1.32l-.09.09c-.4.39-1.03.39-1.42-.01L4.95 6.38V7.96c0 .51-.39.93-.89.99l-.12 0c-.56 0-1-.45-1-1v-4c0-.56.44-1 1-1h4Zm12 0c.55 0 1 .44 1 1v4c0 .55-.45 1-1 1 -.56 0-1-.45-1-1V6.4l-2.67 2.66c-.37.36-.93.38-1.32.08l-.1-.09c-.4-.4-.4-1.03-.01-1.42l2.66-2.67h-1.59c-.52 0-.94-.39-1-.89l-.01-.12c0-.56.44-1 1-1h4Z"/></svg>