<svg viewBox="0 0 24 24" xmlns="http://www.w3.org/2000/svg"><path fill="currentColor" d="M3.61 2.2l.09.08 17.99 18c.39.39.39 1.02 0 1.41 -.37.36-.93.38-1.32.08l-.1-.09 -3.07-3.07c-.6.2-1.24.32-1.9.35l-.34 0 -5.6-.01 1.3 1.3 .07.08c.31.39.28.96-.08 1.32 -.37.36-.93.38-1.33.08l-.1-.09 -3.01-3.01 -.08-.09c-.29-.36-.29-.88-.01-1.24l.08-.1 3-3.01 .08-.08c.35-.29.87-.29 1.23-.01l.09.08 .07.08c.28.35.28.87 0 1.23l-.09.09 -1.3 1.29 5.58 0c.18 0 .37-.02.55-.04L6.2 7.62c-1.42.88-2.35 2.45-2.35 4.23 0 .91.24 1.77.68 2.519l.13.21c.11.16.18.36.18.57 0 .55-.45 1-1 1 -.34 0-.63-.17-.82-.42 -.76-1.12-1.19-2.46-1.19-3.901 0-2.34 1.14-4.41 2.9-5.68L2.11 3.52c-.4-.4-.4-1.03 0-1.42 .36-.37.92-.39 1.32-.09Zm16.38 5.47c.31 0 .6.14.78.38l.05.07 .01.02c.72 1.1 1.14 2.41 1.14 3.83 0 1.97-.82 3.76-2.14 5.03l-1.42-1.42c.95-.92 1.55-2.2 1.55-3.63 0-.93-.26-1.8-.7-2.54l-.14-.22c-.11-.16-.18-.36-.18-.57 0-.56.44-1 1-1Zm-5.38-5.48l.08.07 3 3c.36.36.38.93.07 1.32l-.08.08 -3.01 3c-.4.39-1.03.39-1.42 0 -.37-.37-.39-.94-.08-1.33l.07-.09 1.29-1.3H9.76L7.84 5.02c.27-.05.56-.08.84-.08l.24-.01 5.59-.01 -1.3-1.3c-.37-.37-.39-.94-.08-1.33l.07-.09c.36-.37.93-.39 1.32-.08Z"/></svg>