<svg viewBox="0 0 24 24" xmlns="http://www.w3.org/2000/svg"><path fill="currentColor" d="M6.5 21.75c0 .55-.45 1-1 1 -.56 0-1-.45-1-1v-.25C4.5 20.11 5.61 19 7 19h10c1.38 0 2.5 1.11 2.5 2.5v.25c0 .55-.45 1-1 1 -.56 0-1-.45-1-1v-.25c0-.28-.23-.5-.5-.5H7c-.28 0-.5.22-.5.5v.25Zm5.5-4c.55 0 1-.45 1-1V9.66l2.79 2.79c.39.39 1.02.39 1.41 0 .39-.4.39-1.03 0-1.42l-4.5-4.51c-.4-.4-1.03-.4-1.42 0l-4.51 4.5c-.4.39-.4 1.02 0 1.41 .39.39 1.02.39 1.41 0l2.79-2.8v7.08c0 .55.44 1 1 1ZM4.5 2.5C4.5 3.88 5.61 5 7 5h10c1.38 0 2.5-1.12 2.5-2.5v-.25c0-.56-.45-1-1-1 -.56 0-1 .44-1 1v.25c0 .27-.23.5-.5.5H7c-.28 0-.5-.23-.5-.5v-.25c0-.56-.45-1-1-1 -.56 0-1 .44-1 1v.25Z"/></svg>