<svg viewBox="0 0 24 24" xmlns="http://www.w3.org/2000/svg"><path fill="currentColor" d="M12 3c-4.98 0-9 4.02-9 9 0 3.43 1.94 6.48 4.87 8l-1.88-.01c-.56 0-1 .44-1 1 0 .51.38.93.88.99l.11 0h4c.51 0 .93-.39.99-.89l0-.12v-4c0-.56-.45-1-1-1 -.52 0-.94.38-1 .88l-.01.11 -.01 1.32c-2.4-1.14-4-3.58-4-6.33 0-3.87 3.13-7 7-7 3.86 0 7 3.13 7 7 0 .55.44 1 1 1 .55 0 1-.45 1-1 0-4.98-4.03-9-9-9Zm0 6c-1.66 0-3 1.34-3 3 0 1.65 1.34 3 3 3 1.65 0 3-1.35 3-3 0-1.66-1.35-3-3-3Zm0 2c.55 0 1 .44 1 1 0 .55-.45 1-1 1 -.56 0-1-.45-1-1 0-.56.44-1 1-1Z"/></svg>