<svg viewBox="0 0 24 24" xmlns="http://www.w3.org/2000/svg"><g fill="currentColor"><path d="M20.13 12.86c.35.35.35.92 0 1.27l-4.8 4.8c-.36.35-.93.35-1.28 0l-4.8-4.8c-.36-.36-.36-.93 0-1.28 .35-.36.92-.36 1.27 0l3.26 3.26V8.38c0-1-.81-1.8-1.8-1.8h-7.5c-.5 0-.9-.41-.9-.9 0-.5.4-.9.9-.9h7.5c1.98 0 3.6 1.61 3.6 3.6v7.72l3.26-3.27c.35-.36.92-.36 1.27 0Z"/><path fill="currentColor" fill-rule="evenodd" d="M4.5 4.95c-.42 0-.75.33-.75.75 0 .41.33.75.75.75H12c1.07 0 1.95.87 1.95 1.95v7.72c0 .06-.04.11-.1.13 -.06.02-.13.01-.17-.04l-3.27-3.27c-.3-.3-.77-.3-1.07 0 -.3.29-.3.76 0 1.06l4.8 4.8c.29.29.76.29 1.06 0L20 14c.29-.3.29-.77 0-1.07 -.3-.3-.77-.3-1.07 0l-3.27 3.26c-.05.04-.11.05-.17.03 -.06-.03-.1-.08-.1-.14V8.35c0-1.91-1.55-3.45-3.45-3.45h-7.5Zm-1.05.75c0-.58.47-1.05 1.05-1.05H12c2.07 0 3.75 1.67 3.75 3.75v7.36l3-3.01c.41-.41 1.07-.41 1.48 0 .41.41.41 1.07 0 1.48l-4.8 4.8c-.42.41-1.08.41-1.49 0l-4.8-4.8c-.42-.42-.42-1.08 0-1.49 .41-.41 1.07-.41 1.48 0l3 3V8.37c0-.92-.74-1.65-1.65-1.65h-7.5c-.58 0-1.05-.48-1.05-1.05Z"/></g></svg>