<svg viewBox="0 0 24 24" xmlns="http://www.w3.org/2000/svg"><path fill="currentColor" d="M6.9 6.68l2.73-2.73c2.6-2.61 6.81-2.61 9.41 0 2.6 2.6 2.6 6.81 0 9.41l-8.34 8.33c-.4.39-1.03.39-1.42-.01 -.4-.4-.4-1.03 0-1.42l8.33-8.34c1.82-1.83 1.82-4.78 0-6.6 -1.77-1.77-4.59-1.82-6.42-.17l-.18.16 -3.65 3.63 4.586 0c.51 0 .93.38.99.88l0 .11c0 .51-.39.93-.89.99l-.12 0 -7.06-.01 -.1-.02 -.12-.03 -.14-.05 -.09-.05 -.11-.07c-.05-.04-.09-.07-.13-.11l-.1-.11 -.08-.12 -.05-.1 -.04-.11 -.02-.06 -.02-.09 -.01-.07 -.01-.09v-7c0-.56.44-1 1-1 .51 0 .93.38.99.88l0 .11V7.4l3.64-3.64 -2.74 2.72Z"/></svg>