<svg viewBox="0 0 24 24" xmlns="http://www.w3.org/2000/svg"><path fill="currentColor" d="M21 4c0-.56-.45-1-1-1l-5-.01c-.56 0-1 .44-1 1 0 .55.44 1 1 1l2.58 0 -5.09 5.08 -1.8-1.8c-.19-.19-.45-.3-.71-.3 -.27 0-.52.1-.71.29l-6 6c-.4.39-.4 1.02 0 1.41 .39.39 1.02.39 1.41 0l5.29-5.3 1.79 1.79c.18.18.44.29.7.29 .26 0 .51-.11.7-.3l5.79-5.8v2.58c0 .55.44 1 1 1 .55 0 1-.45 1-1.01v-5Zm-.52 7.83c.25-.26.16-.68-.19-.75 -1.29-.29-2.69.07-3.69 1.07 -1.19 1.18-1.48 2.93-.86 4.391l-3.75 3.74c-.59.58-.59 1.53 0 2.12 .58.58 1.53.58 2.12 0l3.74-3.75c1.45.61 3.2.33 4.39-.86 1-1.01 1.36-2.4 1.07-3.69 -.08-.35-.5-.44-.75-.19l-1.75 1.74c-.59.58-1.54.58-2.13 0 -.59-.59-.59-1.54 0-2.13l1.74-1.75Z"/></svg>