<svg viewBox="0 0 24 24" xmlns="http://www.w3.org/2000/svg"><g fill="currentColor"><path d="M13.43 5.52c-.73-.97-2.17-.97-2.89 0l-5.4 7.2c-.89 1.18-.05 2.87 1.44 2.87h10.79c1.48 0 2.32-1.7 1.44-2.88l-5.4-7.21ZM4.79 17.99c-.34 0-.6.26-.6.6 0 .33.26.6.6.6h14.4c.33 0 .6-.27.6-.6 0-.34-.27-.6-.6-.6H4.79Z"/><path fill="currentColor" fill-rule="evenodd" d="M10.31 5.34c.83-1.13 2.52-1.13 3.36-.01l5.39 7.2c1.03 1.38.04 3.35-1.69 3.35H6.57c-1.73 0-2.72-1.98-1.69-3.36l5.39-7.21Zm2.88.35c-.61-.81-1.81-.81-2.41 0l-5.4 7.2c-.75.98-.04 2.39 1.2 2.39h10.79c1.23 0 1.94-1.42 1.2-2.4l-5.4-7.21Zm-9.3 12.89c0-.5.4-.9.9-.9h14.4c.49 0 .9.4.9.9 0 .49-.41.9-.9.9H4.79c-.5 0-.9-.41-.9-.9Zm.9-.3c-.17 0-.3.13-.3.3 0 .16.13.3.3.3h14.4c.16 0 .3-.14.3-.3 0-.17-.14-.3-.3-.3H4.79Z"/></g></svg>