<svg viewBox="0 0 24 24" xmlns="http://www.w3.org/2000/svg"><g fill="currentColor"><path d="M19.73 19.83c-.1.23-.29.41-.52.5 -.24.08-.5.07-.73-.04l-6.01-3c-.45-.23-.63-.77-.41-1.21 .22-.45.76-.63 1.2-.41l3.89 1.94 -5.19-11.79 -5.49 12.79c-.2.45-.73.66-1.19.47 -.46-.2-.67-.73-.48-1.19l5.75-13.44c.51-1.21 2.22-1.22 2.75-.02l5.52 12.55 1.55-3.9c.18-.47.7-.69 1.16-.51 .46.18.68.7.5 1.16l-2.4 6Z"/><path fill="currentColor" fill-rule="evenodd" d="M13.24 4.56c-.48-1.09-2.02-1.08-2.48.01L5 18c-.17.38.01.82.39.98 .38.16.82-.02.98-.4l5.48-12.8c.02-.06.07-.1.13-.1 .05-.01.11.03.13.08l5.18 11.78c.02.05.01.12-.04.16 -.05.04-.12.05-.18.02l-3.9-1.95c-.38-.19-.83-.04-1.01.33 -.19.37-.04.82.33 1l6 3c.18.09.4.1.6.03 .19-.08.35-.23.42-.43l2.39-6c.15-.39-.04-.83-.42-.98 -.39-.16-.83.03-.98.41l-1.56 3.89c-.03.05-.08.09-.14.09 -.07 0-.12-.04-.14-.09L13.13 4.46Zm-2.76-.11c.56-1.33 2.44-1.34 3.02-.02l5.38 12.23 1.42-3.57c.21-.54.82-.81 1.36-.59 .53.21.8.82.58 1.36l-2.4 6c-.11.27-.33.48-.61.59 -.28.1-.59.08-.85-.05l-6.01-3c-.52-.26-.73-.89-.47-1.41 .25-.52.89-.73 1.4-.47l3.52 1.76 -4.88-11.09 -5.35 12.47c-.23.53-.85.77-1.38.55 -.54-.23-.78-.85-.56-1.38L10.4 4.39Z"/></g></svg>