<svg viewBox="0 0 24 24" xmlns="http://www.w3.org/2000/svg"><g fill="currentColor"><path d="M11.13 3.86c-.36-.36-.93-.36-1.28 0l-4.8 4.8c-.36.35-.36.92 0 1.27l4.8 4.8c.35.35.92.35 1.27 0 .35-.36.35-.93 0-1.28l-3.27-3.27h7.72c.99 0 1.8.8 1.8 1.8v7.5c0 .49.4.9.9.9 .49 0 .9-.41.9-.9v-7.5c0-1.99-1.62-3.6-3.6-3.6H7.84l3.26-3.27c.35-.36.35-.93 0-1.28Z"/><path fill="currentColor" fill-rule="evenodd" d="M9.75 3.75c.41-.42 1.07-.42 1.48 0 .41.41.41 1.07 0 1.48l-3.01 3h7.36c2.07 0 3.75 1.67 3.75 3.75v7.5c0 .57-.48 1.05-1.05 1.05 -.58 0-1.05-.48-1.05-1.05v-7.5c0-.92-.74-1.65-1.65-1.65H8.21l3 3c.41.41.41 1.07 0 1.48 -.42.41-1.08.41-1.49 0l-4.8-4.8c-.42-.42-.42-1.08 0-1.49l4.8-4.8Zm1.27.21c-.3-.3-.77-.3-1.07 0l-4.8 4.8c-.3.29-.3.76 0 1.06l4.8 4.79c.29.29.76.29 1.06 0 .29-.3.29-.77 0-1.07l-3.27-3.27c-.05-.05-.06-.11-.04-.17 .02-.06.07-.1.13-.1h7.72c1.07 0 1.95.87 1.95 1.95v7.5c0 .41.33.75.75.75 .41 0 .75-.34.75-.75v-7.5c0-1.91-1.55-3.45-3.45-3.45H7.82c-.07 0-.12-.04-.14-.1 -.03-.06-.02-.13.03-.17l3.26-3.27c.29-.3.29-.77 0-1.07Z"/></g></svg>