<svg viewBox="0 0 24 24" xmlns="http://www.w3.org/2000/svg"><path fill="currentColor" d="M7 3c2.68 0 4.88 2.12 4.99 4.78l0 .21v11c0 1.65-1.35 3-3 3 -1.6 0-2.91-1.25-3-2.83l-.01-.18v-10c0-.56.44-1 1-1 .51 0 .93.38.99.88l0 .11v10c0 .55.44 1 1 1 .51 0 .93-.39.99-.89l0-.12v-11c0-1.66-1.35-3-3-3 -1.6 0-2.91 1.24-3 2.82l-.01.17v9c0 .55-.45 1-1 1 -.52 0-.94-.39-1-.89l-.01-.12v-9c0-2.77 2.23-5 5-5Zm8 14h2c.55 0 1 .44 1 1 0 .51-.39.93-.89.99l-.12 0h-2c-.56 0-1-.45-1-1 0-.52.38-.94.88-1l.11-.01h2 -2Zm0-4h5.5c.55 0 1 .44 1 1 0 .51-.39.93-.89.99l-.12 0h-5.5c-.56 0-1-.45-1-1 0-.52.38-.94.88-1l.11-.01h5.5 -5.5Zm0-4h5.5c.55 0 1 .44 1 1 0 .51-.39.93-.89.99l-.12 0h-5.5c-.56 0-1-.45-1-1 0-.52.38-.94.88-1l.11-.01h5.5 -5.5Zm0-4h5.5c.55 0 1 .44 1 1 0 .51-.39.93-.89.99l-.12 0h-5.5c-.56 0-1-.45-1-1 0-.52.38-.94.88-1l.11-.01h5.5 -5.5Z"/></svg>