<svg viewBox="0 0 24 24" xmlns="http://www.w3.org/2000/svg"><path fill="currentColor" d="M15.99 2c3.31 0 6 2.68 6 6 0 1.53-.59 2.98-1.61 4.08l-.19.19 -8.73 8.72 -.06.04 -.06.04c-.67.57-1.53.9-2.43.9 -2.06 0-3.73-1.67-3.73-3.73 0-.91.32-1.76.89-2.43l.14-.17 .01-.02 7.29-7.31c.39-.4 1.02-.4 1.41-.01 .39.39.39 1.02 0 1.41l-7.3 7.3 -.02 0c-.3.31-.47.73-.47 1.17 0 .95.77 1.72 1.72 1.72 .37 0 .73-.13 1.03-.35l.12-.11 0 0 8.7-8.71 .15-.17c.66-.73 1.04-1.69 1.04-2.7 0-2.21-1.8-4-4-4 -1.07 0-2.06.41-2.8 1.13l-.16.15 -.02.01 -9.33 9.32c-.4.39-1.03.39-1.42 0 -.4-.4-.4-1.03-.01-1.42l9.3-9.32 .04-.05c1.12-1.19 2.68-1.88 4.35-1.88Z"/></svg>