<svg viewBox="0 0 24 24" xmlns="http://www.w3.org/2000/svg"><path fill="currentColor" d="M15.99 2c3.31 0 6 2.68 6 6 0 1.41-.5 2.74-1.37 3.8 -.64-.35-1.33-.6-2.07-.72l.23-.24 .15-.17c.66-.73 1.04-1.69 1.04-2.7 0-2.21-1.8-4-4-4 -1.07 0-2.06.41-2.8 1.13l-.16.15 -.02.01 -9.33 9.32c-.4.39-1.03.39-1.42 0 -.4-.4-.4-1.03-.01-1.42l9.3-9.32 .04-.05c1.12-1.19 2.68-1.88 4.35-1.88Zm-4.92 16.56c.12.74.37 1.45.73 2.09l-.35.34 -.06.04 -.06.04c-.67.57-1.53.9-2.43.9 -2.06 0-3.73-1.67-3.73-3.73 0-.91.32-1.76.89-2.43l.14-.17 .01-.02 7.29-7.31c.39-.4 1.02-.4 1.41-.01 .39.39.39 1.02 0 1.41l-7.3 7.3 -.02 0c-.3.31-.47.73-.47 1.17 0 .95.77 1.72 1.72 1.72 .37 0 .73-.13 1.03-.35l.12-.11 0 0 .99-1Zm11.91-1.07c0 3.03-2.47 5.5-5.5 5.5 -3.04 0-5.5-2.47-5.5-5.5 0-3.04 2.46-5.5 5.5-5.5 3.03 0 5.5 2.46 5.5 5.5Zm-8.5-.5c-.28 0-.5.22-.5.5 0 .27.22.5.5.5h4.79l-1.65 1.64c-.2.19-.2.51 0 .7 .19.19.51.19.7 0l2.5-2.5c.19-.2.19-.52 0-.71l-2.5-2.5c-.2-.2-.52-.2-.71 0 -.2.19-.2.51 0 .7l1.64 1.64h-4.8Z"/></svg>