<svg viewBox="0 0 24 24" xmlns="http://www.w3.org/2000/svg"><path fill="currentColor" d="M3 18c0 .55.44 1 1 1 .55 0 1-.45 1-1V6c0-.56-.45-1-1-1 -.56 0-1 .44-1 1v12Zm16 0c0 .55.44 1 1 1 .55 0 1-.45 1-1V6c0-.56-.45-1-1-1 -.56 0-1 .44-1 1v12Zm-5.22-4.21l-.09.09 -.01 0c-.3.39-.26.94.09 1.3 .39.39 1.02.39 1.41 0l2.35-2.35c.27-.18.44-.51.44-.87s-.18-.69-.45-.87l-2.36-2.36 -.1-.09 -.01-.01c-.4-.3-.95-.26-1.31.09l-.01 0 -.09.09 -.01 0c-.3.39-.26.94.09 1.3l.79.79h-3.19l-.03 0H9.32l.8-.81 .09-.11 0-.01c.25-.36.24-.83-.01-1.18l-.01-.01 -.1-.11 -.12-.1 -.01-.01c-.36-.26-.83-.25-1.18 0l-.01 0 -.1.08 -2.37 2.35 -.07.04 -.01 0c-.23.18-.37.48-.37.8 0 .35.16.68.44.86l2.35 2.35 .09.08 0 0c.39.29.94.25 1.3-.1 .35-.36.38-.92.09-1.31l-.01-.01 -.09-.1 -.81-.8h3.18l.02-.01h1.96l-.81.79Z"/></svg>