<svg viewBox="0 0 24 24" xmlns="http://www.w3.org/2000/svg"><path fill="currentColor" d="M6 3c-.56 0-1 .44-1 1 0 .55.44 1 1 1h12c.55 0 1-.45 1-1 0-.56-.45-1-1-1H6Zm4.35 10.7l.09.08 .79.8v-1.96l-.01-.03V9.4l-.8.8 -.1.08 -.01 0c-.4.29-.95.25-1.31-.1 -.36-.36-.39-.92-.1-1.31l0-.01 .08-.1 2.35-2.36c.17-.28.5-.45.86-.45 .32 0 .61.13.8.36l0 0 .04.06 2.35 2.36 .08.09 0 0c.25.34.26.82 0 1.17l-.01 0 -.1.11 -.11.09 -.01 0c-.35.25-.83.26-1.18 0l-.01-.01 -.11-.1 -.81-.81v1.95l0 .02v3.18l.79-.8c.35-.36.91-.39 1.3-.1l0 0 .09.08 0 0c.35.35.38.91.09 1.3l-.01 0 -.09.09 -2.36 2.35c-.18.27-.51.44-.87.44s-.69-.17-.87-.45l-2.35-2.36c-.4-.4-.4-1.03 0-1.42 .35-.36.91-.39 1.3-.1l0 0Zm-5.36 6.29c0-.56.44-1 1-1h12c.55 0 1 .44 1 1 0 .55-.45 1-1 1h-12c-.56 0-1-.45-1-1Z"/></svg>