<svg viewBox="0 0 24 24" xmlns="http://www.w3.org/2000/svg"><path fill="currentColor" d="M13.594 4.72c.38.24.7.56.94.94 1.11 1.77 2.07 3.3 2.87 4.58l4.08-.01c.55 0 1 .44 1 1 0 .55-.45 1-1 1l-2.76-.01c.62.83 1 1.87 1 3 0 2.76-2.24 5-5 5 -2.77 0-5-2.24-5-5 0-2.77 2.23-5 4.99-5l.3-.01 -.29-.46c-.59-.94-1.23-1.97-1.93-3.07 -.09-.13-.19-.24-.32-.32 -.44-.28-1-.17-1.32.22l-.07.09 -7.56 12.04c-.3.46-.92.6-1.38.31 -.44-.28-.59-.83-.38-1.28l.05-.11L9.36 5.58c.88-1.41 2.73-1.83 4.13-.95Zm1.15 7.52c-1.66 0-3 1.34-3 3 0 1.65 1.34 3 3 3 1.65 0 3-1.35 3-3 0-1.66-1.35-3-3-3Z"/></svg>