<svg viewBox="0 0 24 24" xmlns="http://www.w3.org/2000/svg"><path fill="currentColor" d="M12 2c-1.97 0-3.58 1.5-3.74 3.42 -2.54 1.34-4.27 4-4.27 7.07v1.5h16v-1.5c0-3.07-1.73-5.74-4.27-7.08 -.17-1.92-1.78-3.43-3.74-3.43Zm8 13.71H9.5v1.53c0 .41-.34.75-.75.75 -.42 0-.75-.34-.75-.75V15.7H4v3.03c0 1.79 1.45 3.25 3.25 3.25h9.5c1.79 0 3.25-1.46 3.25-3.25v-3.04ZM12 4.49c-.7 0-1.38.08-2.02.25 .36-.75 1.13-1.26 2.01-1.26 .88 0 1.65.51 2.01 1.25 -.65-.17-1.33-.26-2.02-.26ZM8 10.4c0-1.34 1.08-2.42 2.41-2.42h3.16c1.33 0 2.41 1.08 2.41 2.41 0 .87-.71 1.58-1.59 1.58H9.55c-.88 0-1.59-.71-1.59-1.59Zm2.41-.92c-.51 0-.92.41-.92.91 0 .04.03.08.08.08h4.83c.04 0 .08-.04.08-.09 0-.51-.42-.92-.92-.92h-3.17Z"/></svg>