<svg viewBox="0 0 24 24" xmlns="http://www.w3.org/2000/svg"><path fill="currentColor" d="M8.26 5.42c.16-1.92 1.77-3.43 3.73-3.43s3.57 1.5 3.73 3.42c2.24 1.18 3.86 3.41 4.19 6.04 -.76-.31-1.58-.48-2.44-.48 -.6 0-1.18.08-1.73.23 .14-.24.22-.52.22-.82 0-1.34-1.09-2.42-2.42-2.42h-3.17c-1.34 0-2.42 1.08-2.42 2.41 0 .87.7 1.58 1.58 1.58h4.45c-.81.51-1.5 1.19-2.02 2H3.93v-1.5c0-3.07 1.72-5.74 4.26-7.08Zm1.71-.67c.64-.17 1.32-.26 2.01-.26 .69 0 1.37.08 2.01.25 -.37-.75-1.14-1.26-2.02-1.26 -.89 0-1.66.51-2.02 1.25Zm1.26 10.95H9.48v1.53c0 .41-.34.75-.75.75 -.42 0-.75-.34-.75-.75v-1.54h-4v3.03c0 1.79 1.45 3.25 3.25 3.25h5.55c-1.13-1.17-1.81-2.76-1.81-4.5 0-.62.08-1.22.24-1.79Zm-1.75-5.3c0-.51.41-.92.91-.92h3.16c.5 0 .91.41.91.91 0 .04-.04.08-.09.08H9.53c-.05 0-.09-.04-.09-.09Zm8 1.58c3.03 0 5.5 2.46 5.5 5.5 0 3.03-2.47 5.5-5.5 5.5 -3.04 0-5.5-2.47-5.5-5.5 0-3.04 2.46-5.5 5.5-5.5Zm.5 8.5l-.01-2.51h2.49c.27 0 .49-.23.49-.5 0-.28-.23-.5-.5-.5h-2.5l-.01-2.51c0-.28-.23-.5-.5-.5 -.28 0-.5.22-.5.5l0 2.5h-2.51c-.28 0-.5.22-.5.5 0 .27.22.5.49.5h2.5l0 2.5c0 .27.22.5.5.5 .27 0 .5-.23.5-.5Z"/></svg>