<svg viewBox="0 0 24 24" xmlns="http://www.w3.org/2000/svg"><path fill="currentColor" d="M18.75 4c1.73 0 3.14 1.35 3.24 3.06l0 .18v9.5c0 1.73-1.36 3.14-3.07 3.24l-.19 0h-8.51c-.77 0-1.51-.27-2.09-.76l-.16-.14 -5-4.75c-1.31-1.24-1.36-3.3-.12-4.6l.11-.12 4.99-4.75c.55-.53 1.27-.84 2.03-.89l.2-.01h8.5Zm-7.31 4.39c-.3-.22-.72-.2-.98.07 -.27.26-.3.68-.08.97l.07.08 2.46 2.46 -2.47 2.46 -.08.08c-.22.29-.2.71.07.97 .26.26.68.29.97.07l.08-.08L13.94 13l2.46 2.46 .08.07c.29.21.71.19.97-.08s.29-.69.07-.98l-.08-.09 -2.47-2.47 2.46-2.47 .07-.09c.21-.3.19-.72-.08-.98 -.27-.27-.69-.3-.98-.08l-.09.07 -2.47 2.46 -2.47-2.47 -.09-.08Z"/></svg>