<svg viewBox="0 0 24 24" xmlns="http://www.w3.org/2000/svg"><path fill="currentColor" d="M5 9c0-3.87 3.13-7 7-7 3.86 0 7 3.13 7 7 0 2.02-.67 4.23-1.85 5.95 -1.05 1.51-2.55 2.73-4.41 2.99v.3c0 .41.33.75.75.75h3.25c1.24 0 2.25 1 2.25 2.25v1c0 .41-.34.75-.75.75 -.42 0-.75-.34-.75-.75v-1c0-.42-.34-.75-.75-.75h-3.25c-1.25 0-2.25-1.01-2.25-2.25v-.31c-1.86-.27-3.36-1.48-4.41-3 -1.19-1.72-1.85-3.94-1.85-5.96Zm7.91-3.9c-.41-.1-.81.15-.91.55 -.1.4.15.8.55.9 .91.21 1.63.93 1.85 1.85 .09.4.5.65.9.55 .4-.1.65-.51.55-.91 -.35-1.47-1.51-2.62-2.98-2.97Z"/></svg>