<svg viewBox="0 0 24 24" xmlns="http://www.w3.org/2000/svg"><path fill="currentColor" d="M2 6c0-1.66 1.34-3 3-3h1.5c.55 0 1 .44 1 1 0 .55-.45 1-1 1H5c-.56 0-1 .44-1 1v1.5c0 .55-.45 1-1 1 -.56 0-1-.45-1-1V6Zm14.5-2c0-.56.44-1 1-1H19c1.65 0 3 1.34 3 3v1.5c0 .55-.45 1-1 1 -.56 0-1-.45-1-1V6c0-.56-.45-1-1-1h-1.5c-.56 0-1-.45-1-1ZM3 15.5c.55 0 1 .44 1 1V18c0 .55.44 1 1 1h1.5c.55 0 1 .44 1 1 0 .55-.45 1-1 1H5c-1.66 0-3-1.35-3-3v-1.5c0-.56.44-1 1-1Zm18 0c.55 0 1 .44 1 1V18c0 1.65-1.35 3-3 3h-1.5c-.56 0-1-.45-1-1 0-.56.44-1 1-1H19c.55 0 1-.45 1-1v-1.5c0-.56.44-1 1-1ZM6 6.75c.55 0 1 .44 1 1v8.5c0 .55-.45 1-1 1 -.56 0-1-.45-1-1v-8.5c0-.56.44-1 1-1Zm5 1c0-.56-.45-1-1-1 -.56 0-1 .44-1 1v8.5c0 .55.44 1 1 1 .55 0 1-.45 1-1v-8.5Zm3-1c.55 0 1 .44 1 1v8.5c0 .55-.45 1-1 1 -.56 0-1-.45-1-1v-8.5c0-.56.44-1 1-1Zm5 1c0-.56-.45-1-1-1 -.56 0-1 .44-1 1v8.5c0 .55.44 1 1 1 .55 0 1-.45 1-1v-8.5Z"/></svg>