<svg viewBox="0 0 24 24" xmlns="http://www.w3.org/2000/svg"><path fill="currentColor" d="M8.64 4.36c1.56 2.85 2.35 5.14 2.35 6.71 0 1.57-.75 2.89-1.47 3.52 -.06.05-.13.09-.2.13l-.12.05c-.23.1-.5 0-.61-.23 -.04-.09-.05-.18-.04-.27l.02-.09c.61-1.52.9-3.01.88-4.47 -.01-.42-.35-.75-.77-.74 -.4 0-.72.32-.74.71l0 .02c0 .36-.02.74-.06 1.12l-.07.47 -.05.23 -.07.33 -.11.41 -.05.15c-.18.6-.4 1.21-.69 1.83 -.77 1.65-2.08 2.87-3.92 3.63 -.39.15-.83-.03-.98-.41 -.16-.39.02-.83.4-.98 .96-.4 1.73-.94 2.32-1.63 -1.67-.53-2.64-1.68-2.77-3.27 -.15-1.81.53-3.04 2.26-4.42l.49-.38 .35-.27 .36-.29c.83-.68 1.45-1.34 1.87-1.99 .3-.47 1-.48 1.27.01Zm8.35 1.63c1.59 0 2.9 1.24 2.99 2.82l0 .17v1l1 .01c.18 0 .35.04.5.13 .26.15.45.42.49.74l0 .12v2c0 .37-.21.69-.5.86 -.12.06-.24.1-.37.12l-.14 0 -1.01-.02v1c0 1.59-1.25 2.9-2.83 2.99l-.18 0H8.18c-.56 0-1-.45-1-1 0-.52.38-.94.88-1l.11-.01h.63l.07-.01 .1-.02c.74-.17 2.94-1.21 2.94-4.96 0-1.22-.31-2.57-.91-4.06 -.04-.09-.06-.18-.06-.27 0-.36.26-.65.6-.7l.09-.01h5.25Z"/></svg>