<svg viewBox="0 0 24 24" xmlns="http://www.w3.org/2000/svg"><path fill="currentColor" d="M10.75 6H17c1.59 0 2.9 1.24 2.99 2.82l0 .17v1l1 .01c.18 0 .35.04.5.13 .26.15.45.42.49.74l0 .12v2c0 .37-.21.69-.5.86 -.12.06-.24.1-.37.12l-.14 0 -1.01-.02v1c0 1.59-1.25 2.9-2.83 2.99l-.18 0H7.94c-.38 0-.7-.29-.75-.65l-.01-.11v-4.5c0-.38.28-.7.64-.75l.1-.01h.62c.71 0 1.3-.55 1.37-1.25l0-.14V6.65c0-.38.28-.7.64-.75l.1-.01h6.25 -6.25ZM6.64 4l.1-.01c.37 0 .69.28.74.64l0 .1 -.01 1.25h.75c.41 0 .75.33.75.75v2.49c0 .96-.79 1.74-1.75 1.74l-1.01-.01 0 6.24c0 .37-.29.69-.65.74l-.11 0c-.38 0-.7-.29-.75-.65l-.01-.11v-6.25l-1.01 0c-.97 0-1.75-.79-1.75-1.75v-2.5c0-.42.33-.75.75-.75h.75l0-1.25c0-.38.28-.7.64-.75l.1-.01c.37 0 .69.28.74.64l0 .1L4.9 5.9h.99l0-1.25c0-.38.28-.7.64-.75l.1-.01 -.11 0Z"/></svg>