<svg viewBox="0 0 24 24" xmlns="http://www.w3.org/2000/svg"><path fill="currentColor" d="M2 9c0-1.66 1.34-3 3-3h12c1.65 0 3 1.34 3 3v1h1c.18 0 .35.04.5.13 .29.17.5.49.5.86v2c0 .37-.21.69-.5.86 -.15.08-.32.13-.5.13h-1.01v1c0 1.65-1.35 3-3 3h-4.18c.11-.49.17-.99.17-1.5 0-3.59-2.92-6.5-6.5-6.5 -1.75 0-3.34.68-4.5 1.8V8.97Zm10 7.5c0 3.03-2.47 5.5-5.5 5.5C3.46 22 1 19.53 1 16.5 1 13.46 3.46 11 6.5 11c3.03 0 5.5 2.46 5.5 5.5Zm-2.15-2.36c-.2-.2-.52-.2-.71 0l-3.65 3.64 -1.65-1.65c-.2-.2-.52-.2-.71 0 -.2.19-.2.51 0 .7l2 2c.19.19.51.19.7 0l4-4c.19-.2.19-.52 0-.71Z"/></svg>