<svg viewBox="0 0 24 24" xmlns="http://www.w3.org/2000/svg"><path fill="currentColor" d="M8.24 11.2c.23.13.42.32.55.55l4 6.99c.41.71.16 1.63-.56 2.04 -.23.13-.484.19-.75.19H3.46c-.83 0-1.5-.68-1.5-1.5 0-.27.06-.52.19-.75l4-7c.41-.72 1.32-.97 2.04-.56Zm-.75 6.79c-.28 0-.5.22-.5.5 0 .27.22.5.5.5 .27 0 .5-.23.5-.5 0-.28-.23-.5-.5-.5Zm9.49-12c1.65 0 3 1.34 3 3v1h1c.18 0 .35.04.5.13 .29.17.5.49.5.86v2c0 .37-.21.69-.5.86 -.15.08-.32.13-.5.13h-1.01v1c0 1.65-1.35 3-3 3H13.49l-3.87-6.75c-.23-.39-.55-.71-.93-.93 -1.2-.69-2.73-.28-3.42.92L2.3 16.38c-.24-.43-.37-.92-.37-1.44v-6c0-1.66 1.34-3 3-3h12Zm-9.51 7c-.28 0-.5.22-.5.5v3l0 .08c.04.23.24.41.49.41 .27 0 .5-.23.5-.5v-3l-.01-.09c-.05-.24-.25-.42-.5-.42Z"/></svg>