<svg viewBox="0 0 24 24" xmlns="http://www.w3.org/2000/svg"><path fill="currentColor" d="M18.57 2.85c-3.23-1.87-7.36-.76-9.23 2.47l-.25.43c-.21.35-.09.81.27 1.02l4.53 2.61 -2.81 4.9c-1.89.23-3.55 1.21-4.79 2.6 .73.11 1.34.63 1.58 1.36 .23.73.72.95 1.11.96 .4 0 .86-.22 1.08-.87 .27-.82 1.03-1.37 1.89-1.37 .86 0 1.62.55 1.89 1.36 .21.65.67.87 1.08.86 .39-.01.88-.23 1.11-.96 .23-.73.85-1.25 1.58-1.37 -1.26-1.41-2.94-2.39-4.85-2.62l2.37-4.16 4.55 2.63c.35.2.81.08 1.02-.28l.25-.44c1.86-3.23.75-7.36-2.48-9.23ZM6.71 18.65c-.11-.33-.41-.54-.75-.52 -.34.01-.63.24-.71.57 -.22.89-.61 1.36-1.05 1.63 -.46.28-1.06.4-1.73.4 -.42 0-.75.33-.75.75 0 .41.33.75.75.75 .82 0 1.73-.14 2.52-.63 .41-.26.77-.6 1.06-1.03 1.55 1.86 4.4 1.85 5.91-.03 1.53 1.91 4.46 1.89 5.99-.08 .84 1.1 2.17 1.75 3.5 1.75 .41 0 .75-.34.75-.75 0-.42-.34-.75-.75-.75 -1.19 0-2.39-.8-2.79-2.09 -.1-.32-.39-.53-.72-.53 -.33-.01-.62.2-.72.52 -.79 2.43-3.81 2.39-4.58.1 -.11-.31-.39-.52-.72-.52 -.33 0-.61.2-.72.51 -.77 2.29-3.8 2.33-4.58-.11Z"/></svg>