<svg viewBox="0 0 24 24" xmlns="http://www.w3.org/2000/svg"><path fill="currentColor" d="M8.99 4.5v6.23c0 .37-.1.74-.28 1.07l-1.19 2.18H12c.73-1.15 1.81-2.05 3.09-2.55 -.08-.23-.12-.47-.12-.72V4.47h1c.41 0 .75-.34.75-.75 0-.42-.34-.75-.75-.75h-8c-.42 0-.75.33-.75.75 0 .41.33.75.75.75h.99Zm-2.28 11h4.58c-.21.63-.32 1.3-.32 2 0 1.28.37 2.48 1.02 3.49H6.64c-1.33 0-2.18-1.42-1.54-2.59l1.58-2.92Zm16.27 2c0-3.04-2.47-5.5-5.5-5.5 -3.04 0-5.5 2.46-5.5 5.5 0 3.03 2.46 5.5 5.5 5.5 3.03 0 5.5-2.47 5.5-5.5ZM15 15.02l.06-.06 .07-.05c.15-.08.34-.06.49.04l.06.05 1.76 1.76 1.77-1.77 .06-.06c.17-.12.39-.12.56 0l.06.05 .05.06c.11.17.11.39 0 .56l-.06.06 -1.78 1.76 1.76 1.76 .05.06c.11.17.11.39 0 .56l-.06.06 -.07.05c-.18.11-.4.11-.57 0l-.07-.06 -1.77-1.77 -1.77 1.76 -.07.05c-.18.11-.4.11-.57 0l-.07-.06 -.06-.07c-.12-.18-.12-.4 0-.57l.05-.07 1.76-1.77 -1.77-1.77 -.06-.07c-.12-.18-.12-.4 0-.57l.05-.07Z"/></svg>