<svg viewBox="0 0 24 24" xmlns="http://www.w3.org/2000/svg"><path fill="currentColor" d="M8.99 4.5v6.23c0 .37-.1.74-.28 1.07l-1.19 2.18H12c.73-1.15 1.81-2.05 3.09-2.55 -.08-.23-.12-.47-.12-.72V4.47h1c.41 0 .75-.34.75-.75 0-.42-.34-.75-.75-.75h-8c-.42 0-.75.33-.75.75 0 .41.33.75.75.75h.99Zm-2.28 11h4.58c-.21.63-.32 1.3-.32 2 0 1.28.37 2.48 1.02 3.49H6.64c-1.33 0-2.18-1.42-1.54-2.59l1.58-2.92ZM17.48 12c3.03 0 5.5 2.46 5.5 5.5 0 3.03-2.47 5.5-5.5 5.5 -3.04 0-5.5-2.47-5.5-5.5 0-3.04 2.46-5.5 5.5-5.5Zm.5 8.5l-.01-2.51h2.5c.27 0 .5-.23.5-.5 0-.28-.23-.5-.5-.5h-2.51l-.01-2.51c0-.28-.23-.5-.5-.5 -.28 0-.5.22-.5.5l0 2.5h-2.51c-.28 0-.5.22-.5.5 0 .27.22.5.5.5h2.5l0 2.5c0 .27.22.5.5.5 .27 0 .5-.23.5-.5Z"/></svg>