<svg viewBox="0 0 24 24" xmlns="http://www.w3.org/2000/svg"><path fill="currentColor" d="M6.6 4.2c0-.34.26-.6.6-.6h9.59c.33 0 .6.26.6.6 0 .33-.27.6-.6.6h-1.2v5.62c0 .2.01.41.04.61 -1.81.49-3.3 1.73-4.14 3.36h-4.7l1.06-1.99c.32-.62.5-1.3.5-2V4.77h-1.2c-.34 0-.6-.27-.6-.6Zm4.19 13.19c0-.63.08-1.23.24-1.8H6.15l-1.16 2.14c-.65 1.19.22 2.65 1.58 2.65h4.91c-.47-.91-.73-1.93-.73-3.01Zm3.67-3.67c.36 1.29-.42 2.64-1.72 2.97l-.56.14c-.02.18-.03.36-.03.55 0 .22.01.44.03.66l.41.09c1.34.31 2.14 1.7 1.74 3.02l-.16.5c.3.24.64.45 1 .62l.39-.42c.94-1.01 2.54-1.01 3.49 0l.4.42c.35-.17.68-.37.98-.6l-.19-.67c-.37-1.3.41-2.64 1.71-2.98l.55-.15c.01-.19.02-.37.02-.56 0-.23-.02-.45-.04-.67l-.42-.1c-1.35-.32-2.15-1.71-1.75-3.03l.15-.51c-.31-.25-.65-.46-1.01-.63l-.39.41c-.95 1-2.55 1-3.5-.01l-.41-.43c-.36.16-.69.36-.99.59l.18.66Zm2.92 4.86c-.67 0-1.2-.54-1.2-1.2 0-.67.53-1.2 1.2-1.2 .66 0 1.2.53 1.2 1.2 0 .66-.54 1.2-1.2 1.2Z"/></svg>