<svg viewBox="0 0 24 24" xmlns="http://www.w3.org/2000/svg"><path fill="currentColor" d="M6.99 3.5v6.23c0 .37-.1.74-.28 1.07l-1.19 2.18h8.92l-1.19-2.19c-.18-.33-.28-.7-.28-1.08V3.47h1c.41 0 .75-.34.75-.75 0-.42-.34-.75-.75-.75h-8c-.42 0-.75.33-.75.75 0 .41.33.75.75.75h.99Zm8.27 11H4.71l-1.59 2.91c-.64 1.16.21 2.58 1.53 2.58h6.73l.1-.43c.16-.65.49-1.24.96-1.72l2.98-2.99 -.21-.38Zm3.82-1.84l-5.91 5.9c-.35.34-.59.77-.71 1.24L12 21.63c-.2.79.52 1.51 1.31 1.31l1.83-.46c.47-.12.9-.37 1.24-.71l5.9-5.91c.89-.9.89-2.34 0-3.24 -.9-.9-2.34-.9-3.24 0Z"/></svg>