<svg viewBox="0 0 24 24" xmlns="http://www.w3.org/2000/svg"><path fill="currentColor" d="M19.25 11c1.46 0 2.65 1.14 2.74 2.58l0 .16v6.5c0 .41-.34.75-.75.75 -.38 0-.7-.29-.75-.65l-.01-.11v-2.25h-17v2.25c0 .37-.29.69-.65.74l-.11 0c-.38 0-.7-.29-.75-.65l-.01-.11v-6.5c0-1.47 1.14-2.66 2.58-2.75l.16-.01h14.5ZM6.75 4h10.5c1.46 0 2.65 1.14 2.74 2.58l0 .16v3.25h-3l-.01-.12c-.06-.46-.42-.83-.88-.88l-.12-.01h-2c-.52 0-.94.38-1 .88l-.01.11h-2l-.01-.12c-.06-.46-.42-.83-.88-.88l-.12-.01h-2c-.52 0-.94.38-1 .88l-.01.11h-3V6.7c0-1.47 1.14-2.66 2.58-2.75l.16-.01Z"/></svg>