<svg viewBox="0 0 24 24" xmlns="http://www.w3.org/2000/svg"><path fill="currentColor" d="M5.99 3.6c-1.33 0-2.4 1.07-2.4 2.4v9.59c1.67-.001 2.71-.49 3.43-1.16 .73-.69 1.18-1.63 1.55-2.66 .12-.36.23-.7.34-1.04 .05-.17.1-.33.15-.49 .16-.5.33-1 .55-1.43 .21-.44.49-.85.88-1.16 .4-.32.89-.49 1.46-.49s1.06.17 1.46.48c.38.3.66.71.88 1.15 .21.43.39.93.55 1.42 .05.16.1.32.15.48 .11.34.22.68.34 1.03 .36 1.02.81 1.96 1.55 2.65 .71.66 1.76 1.15 3.43 1.15v-9.6c0-1.33-1.08-2.4-2.4-2.4H5.9Zm14.4 13.19c-1.93 0-3.29-.57-4.26-1.48 -.96-.89-1.48-2.05-1.87-3.13 -.14-.37-.26-.75-.37-1.11 -.06-.16-.1-.32-.15-.46 -.17-.49-.32-.92-.49-1.27 -.18-.36-.36-.6-.56-.75 -.19-.15-.41-.24-.73-.24 -.33 0-.55.08-.73.23 -.2.15-.38.39-.56.74 -.18.35-.33.77-.49 1.26 -.05.14-.1.29-.15.45 -.12.35-.24.73-.37 1.1 -.39 1.07-.92 2.23-1.87 3.12 -.98.9-2.33 1.47-4.26 1.47v1.2c0 1.32 1.07 2.4 2.4 2.4h12c1.32 0 2.4-1.08 2.4-2.4v-1.2Z"/></svg>