<svg viewBox="0 0 24 24" xmlns="http://www.w3.org/2000/svg"><path fill="currentColor" d="M17.15 3.38c.34-.23.44-.69.22-1.04 -.23-.35-.69-.45-1.04-.23l-14 8.99c-.22.13-.35.37-.35.63v7c0 1.79 1.45 3.25 3.25 3.25h13.5c1.79 0 3.25-1.46 3.25-3.25v-7c0-.42-.34-.75-.75-.75h-.25V7.73c0-.97-.79-1.75-1.75-1.75h-3c-.97 0-1.75.78-1.75 1.75v.75h-3.25c-.97 0-1.75.78-1.75 1.75v.75h-4.2l11.85-7.62Zm-2.66 6.61v1h-3.5v-.75c0-.14.11-.25.25-.25h3.25Zm5 1h-3.5V7.74c0-.14.11-.25.25-.25h3c.13 0 .25.11.25.25v3.25Z"/></svg>