<svg viewBox="0 0 24 24" xmlns="http://www.w3.org/2000/svg"><path fill="currentColor" d="M3.8 5.59c-.21-1.93 1.29-3.6 3.23-3.6h9.93c1.93 0 3.43 1.67 3.23 3.59l-1.56 14.39c-.13 1.14-1.09 2-2.24 2H7.58c-1.15 0-2.12-.87-2.24-2.01L3.78 5.56Zm1.49-.61h13.39c-.13-.84-.85-1.5-1.74-1.5H7c-.89 0-1.62.65-1.74 1.49Zm6.49 5.41c.09-.15.31-.15.41 0l.66.99c.23.34.69.43 1.04.2 .34-.24.43-.7.2-1.05l-.67-1c-.7-1.04-2.22-1.04-2.91 0l-.67.99c-.24.34-.14.81.2 1.04 .34.23.81.13 1.04-.21l.66-1Zm-1.9 3.21c.21-.36.09-.82-.26-1.03 -.36-.22-.82-.1-1.03.25l-.37.6c-.8 1.33.16 3.02 1.71 3.02h.79c.41 0 .75-.34.75-.75 0-.42-.34-.75-.75-.75h-.8c-.39 0-.63-.43-.43-.76l.36-.61Zm4.47-1.03c-.36.21-.48.67-.26 1.02l.36.6c.19.33-.05.75-.43.75h-.8c-.42 0-.75.33-.75.75 0 .41.33.75.75.75h.79c1.55 0 2.51-1.7 1.71-3.03l-.37-.61c-.22-.36-.68-.48-1.03-.26Z"/></svg>