<svg viewBox="0 0 24 24" xmlns="http://www.w3.org/2000/svg"><path fill="currentColor" d="M8.55 1.44c-.28-.29-.67-.45-1.06-.45 -.83 0-1.5.66-1.5 1.49v3H4.61c-.22 0-.42.09-.56.24 -.15.15-.22.37-.19.58l1.48 13.66c.12 1.14 1.08 2 2.23 2h8.8c1.14 0 2.11-.87 2.23-2.01l1.47-13.67c.02-.22-.05-.43-.19-.59 -.15-.16-.35-.25-.56-.25h-1.38V2.69c0-.97-.79-1.75-1.75-1.75h-3.5c-.97 0-1.75.78-1.75 1.75v1.17L8.49 1.38Zm7.94 1.3v2.75h-4V2.74c0-.14.11-.25.25-.25h3.5c.13 0 .25.11.25.25Zm-6.05 2.75H7.48V2.5l2.95 2.98Zm1.34 4.9l-.67.99c-.24.34-.7.43-1.05.2 -.35-.24-.44-.7-.21-1.05l.66-1c.69-1.04 2.21-1.04 2.9 0l.66.99c.23.34.13.81-.21 1.04 -.35.23-.82.13-1.05-.21l-.67-1c-.1-.15-.32-.15-.42 0Zm-1.9 3.21l-.37.6c-.2.33.04.75.42.75h.79c.41 0 .75.33.75.75 0 .41-.34.75-.75.75h-.8c-1.56 0-2.52-1.7-1.72-3.03l.36-.61c.21-.36.67-.48 1.02-.26 .35.21.47.67.25 1.02Zm4.47-1.03c.35-.22.81-.1 1.02.25l.36.6c.79 1.33-.17 3.02-1.72 3.02h-.8c-.42 0-.75-.34-.75-.75 0-.42.33-.75.75-.75H14c.38 0 .62-.43.42-.76l-.37-.61c-.22-.36-.1-.82.25-1.03Z"/></svg>