<svg viewBox="0 0 24 24" xmlns="http://www.w3.org/2000/svg"><path fill="currentColor" d="M5.25 2C4 2 3 3 3 4.25V5h-.75c-.42 0-.75.33-.75.75 0 .41.33.75.75.75H3v3.25h-.75c-.42 0-.75.33-.75.75 0 .41.33.75.75.75H3v3.25h-.75c-.42 0-.75.33-.75.75 0 .41.33.75.75.75H3v.75C3 17.99 4 19 5.25 19h1.78l9.96-12.46v-2.3c0-1.25-1.01-2.25-2.25-2.25h-9.5Zm2.5 5h4.5c.41 0 .75.33.75.75 0 .41-.34.75-.75.75h-4.5c-.42 0-.75-.34-.75-.75 0-.42.33-.75.75-.75Zm11.47-1.63c.59-.74 1.78-.33 1.78.62v13.74c0 1.24-1.01 2.25-2.25 2.25H8c-.84 0-1.31-.97-.79-1.63l11.99-15Zm-5.25 12.21c-.14.16-.02.4.19.4h2.33c.27 0 .5-.23.5-.5V14.5c0-.24-.3-.35-.45-.16l-2.58 3.22Z"/></svg>