<svg viewBox="0 0 24 24" xmlns="http://www.w3.org/2000/svg"><path fill="currentColor" d="M11.61 2.07c.37-.16.8-.07 1.08.21l5 5c.2.2.3.47.29.76 -.02.28-.16.54-.38.72l-4.03 3.21 4.02 3.21c.22.17.35.44.37.72 .01.28-.1.56-.3.76l-5 5c-.29.28-.72.37-1.09.21 -.38-.16-.62-.52-.62-.93v-6.92l-3.38 2.7c-.44.34-1.07.27-1.41-.16 -.35-.44-.28-1.07.15-1.41l4.02-3.22L6.3 8.71c-.44-.35-.51-.98-.16-1.41 .34-.44.97-.51 1.4-.16l3.37 2.7V2.92c0-.41.24-.77.61-.93Zm1.38 12v4.5l2.5-2.51 -2.51-2.01Zm0-4.17l2.5-2.01 -2.51-2.51v4.5Z"/></svg>