<svg viewBox="0 0 24 24" xmlns="http://www.w3.org/2000/svg"><path fill="currentColor" d="M11.61 2.07c.37-.16.8-.07 1.08.21l5 5c.2.2.3.47.29.76 -.02.28-.16.54-.38.72l-4.03 3.21 4.02 3.21c.22.17.35.44.37.72 .01.28-.1.56-.3.76l-5 5c-.29.28-.72.37-1.09.21 -.38-.16-.62-.52-.62-.93v-6.92l-3.38 2.7c-.44.34-1.07.27-1.41-.16 -.35-.44-.28-1.07.15-1.41l4.02-3.22L6.3 8.71c-.44-.35-.51-.98-.16-1.41 .34-.44.97-.51 1.4-.16l3.37 2.7V2.92c0-.41.24-.77.61-.93Zm1.38 12v4.5l2.5-2.51 -2.51-2.01Zm0-4.17l2.5-2.01 -2.51-2.51v4.5Zm5.49-.79c.47-.28 1.08-.12 1.36.36 .44.76.63 1.62.63 2.5 0 .87-.2 1.73-.64 2.5 -.28.47-.89.64-1.37.36 -.48-.28-.65-.89-.37-1.37 .23-.42.36-.92.36-1.5 0-.59-.13-1.09-.37-1.5 -.28-.48-.12-1.09.36-1.37Zm3.28-2.09c-.35-.44-.98-.51-1.41-.17 -.44.34-.51.97-.17 1.4 .8 1.02 1.28 2.3 1.28 3.71 0 1.4-.48 2.69-1.29 3.71 -.35.43-.27 1.06.16 1.4 .43.34 1.06.26 1.4-.17 1.07-1.37 1.71-3.09 1.71-4.95 0-1.87-.65-3.59-1.72-4.95Z"/></svg>