<svg viewBox="0 0 24 24" xmlns="http://www.w3.org/2000/svg"><path fill="currentColor" d="M16.67 17.73l4.04 4.04c.29.29.76.29 1.06 0 .29-.3.29-.77 0-1.07L3.27 2.19c-.3-.3-.77-.3-1.07-.01 -.3.29-.3.76-.01 1.06l8.47 8.47 -4.33 3.45c-.44.34-.51.97-.16 1.4 .34.43.97.5 1.4.15L10.94 14v6.91c0 .4.24.76.61.92 .37.15.8.06 1.08-.22l3.96-3.97Zm-3.58-3.58l2.16 2.16 -2.27 2.26v-4.51l.09.07Zm4.52-5.38l-3.15 2.51 -1.43-1.43 2.44-1.96 -2.51-2.51v4.4l-2-2.01V2.95c0-.41.24-.77.61-.93 .37-.16.8-.07 1.08.21l5 5c.2.2.3.47.29.76 -.02.28-.16.54-.38.72Z"/></svg>