<svg viewBox="0 0 24 24" xmlns="http://www.w3.org/2000/svg"><path fill="currentColor" d="M11.5 21.001l-.01-1.94 -.2-.21c-1.74-1.8-1.74-4.71 0-6.51 .06-.07.12-.13.19-.2l-.01-2.68H2.971v8.25l0 .18c.09 1.7 1.51 3.06 3.24 3.06l5.24-.01Zm10-15.26l-.01 5.72c-1.43-.73-3.16-.63-4.51.3 -1.2-.83-2.69-1-4.01-.53l0-8.77h5.25c1.73 0 3.14 1.35 3.24 3.06l0 .18ZM11.49 17.47c-.67-1.15-.67-2.59-.01-3.73 .14-.25.31-.48.52-.7 .29-.31.62-.54.97-.72 1.21-.6 2.68-.43 3.75.51 .07.06.14.13.21.2l.03.03 .03-.04c.06-.08.13-.14.21-.21 1.21-1.07 2.96-1.14 4.25-.22 .16.12.32.25.47.41 1.36 1.41 1.36 3.7 0 5.11l-4.45 4.59c-.15.15-.35.22-.54.22 -.2 0-.39-.08-.54-.23l-4.45-4.6c-.21-.22-.38-.45-.53-.7Zm-.01-9.49l0-5.51H6.23c-1.8 0-3.25 1.45-3.26 3.24l-.01 2.25h8.499Z"/></svg>