<svg viewBox="0 0 24 24" xmlns="http://www.w3.org/2000/svg"><path fill="currentColor" d="M19.13 6.6c.02-.01.04-.01.06-.01 .39 0 .77.07 1.12.21 1.1.44 1.87 1.52 1.87 2.78 0 1.65-1.35 3-3 3 -.1 0-.19-.01-.28-.02 -.5-.05-.96-.21-1.35-.47l.53 2.22c.22.94-.49 1.85-1.46 1.85h-.92c-.98 0-1.69-.91-1.46-1.86l.54-2.23c-.4.25-.86.41-1.35.46 -.1 0-.19.01-.28.01 -.03 0-.06-.01-.08-.01 -.14-.52-.44-.97-.84-1.29 .2-.54.31-1.12.31-1.72 0-.99-.3-1.9-.8-2.66 .09-.05.18-.1.27-.13 .34-.14.72-.22 1.12-.22 .02 0 .04 0 .06 0 -.04-.2-.07-.4-.07-.61 0-.21.02-.41.05-.6 .27-1.37 1.48-2.41 2.94-2.41 1.45 0 2.66 1.03 2.94 2.4 .03.19.05.39.05.59 0 .2-.03.4-.07.6ZM7.79 5.99c-1.99 0-3.6 1.61-3.6 3.6 0 .92.34 1.76.91 2.4h-.32c-.67 0-1.2.53-1.2 1.2 0 .66.53 1.2 1.2 1.2h.62c-.45 2.15-1.63 3.4-2.28 3.95 -.42.34-.75.88-.75 1.5 0 .96.77 1.74 1.74 1.74h7.31c.96 0 1.74-.78 1.74-1.75 0-.63-.33-1.16-.75-1.51 -.66-.55-1.84-1.8-2.28-3.96h.62c.66 0 1.2-.54 1.2-1.2 0-.67-.54-1.2-1.2-1.2h-.32c.57-.64.91-1.48.91-2.4 0-1.99-1.62-3.6-3.6-3.6Z"/></svg>