<svg viewBox="0 0 24 24" xmlns="http://www.w3.org/2000/svg"><path fill="currentColor" d="M11 10c0-.7.55-1.25 1.25-1.25 .69 0 1.25.55 1.25 1.25 0 .69-.56 1.25-1.25 1.25 -.7 0-1.25-.56-1.25-1.25ZM4 4.5C4 3.11 5.11 2 6.5 2H18c1.38 0 2.5 1.11 2.5 2.5v14.25c0 .41-.34.75-.75.75H5.5c0 .55.44 1 1 1h13.25c.41 0 .75.33.75.75 0 .41-.34.75-.75.75H6.5C5.11 22 4 20.88 4 19.5v-15Zm9 1.25c0-.42-.34-.75-.75-.75 -.42 0-.75.33-.75.75v1.6c-1.16.32-2 1.38-2 2.64 0 .78.32 1.48.84 1.98l-1.3 3.23c-.16.38.03.82.41.97 .38.15.82-.04.97-.42l1.23-3.09c.18.03.37.05.56.05 .19 0 .38-.03.56-.06L14 15.73c.15.38.59.57.97.41 .38-.16.57-.6.41-.98l-1.3-3.24c.52-.51.84-1.21.84-1.99 0-1.26-.85-2.33-2-2.65V5.67Z"/></svg>