<svg viewBox="0 0 24 24" xmlns="http://www.w3.org/2000/svg"><path fill="currentColor" d="M4 4c-1.11 0-2 .89-2 2v12c0 1.1.89 2 2 2h6c.76 0 1.46-.29 2-.77 .47.42 1.07.69 1.74.75 -.24-.38-.43-.78-.56-1.21 -.13-.42-.2-.85-.2-1.29 0-.1 0-.19.02-.28 -.02-.08-.03-.15-.03-.23v-10c0-.56.44-1 1-1h6v5.33c.53.25.97.63 1.3 1.08 .44.59.69 1.33.69 2.08v-8.5c0-1.11-.9-2-2-2h-6c-.77 0-1.47.28-2 .76 -.54-.48-1.24-.77-2-.77h-6Zm7 3v10c0 .55-.45 1-1 1H4V6h6c.55 0 1 .44 1 1Zm11 10.5c0 1.01-.53 1.85-1.34 2.38 -.6.38-1.35.61-2.17.61 -.74 0-1.42-.19-1.98-.5 -.31-.18-.58-.4-.81-.65 -.23-.26-.41-.55-.54-.86 -.04-.1-.07-.19-.1-.29 -.02-.08-.04-.15-.05-.22 -.03-.17-.05-.33-.05-.5 0-.28-.23-.5-.5-.5 -.28 0-.5.22-.5.5 0 .16.01.33.03.5 .02.16.06.33.11.5 .03.11.07.23.12.35 .17.41.42.8.74 1.14 .72.78 1.78 1.34 2.98 1.47v1.02c0 .27.22.5.5.5 .27 0 .5-.23.5-.5v-1.03c2.25-.25 4-1.98 4-3.98 0-.28-.23-.5-.5-.5 -.28 0-.5.22-.5.5Zm-5.5 1c-.12-.16-.22-.33-.3-.5 -.14-.32-.22-.66-.22-1v-2.5c0-1.26 1-2.5 2.5-2.5 .58 0 1.09.19 1.5.49 .19.14.35.31.5.5 .32.43.5.96.5 1.49v2.5c0 1.24-1 2.5-2.5 2.5 -.87 0-1.56-.42-2-1Z"/></svg>