<svg viewBox="0 0 24 24" xmlns="http://www.w3.org/2000/svg"><path fill="currentColor" d="M5.39 1.2c-1.66 0-3 1.34-3 3v10.79c0 1.65 1.34 3 3 3h4.2v-7.2h-3c-.34 0-.6-.27-.6-.6 0-.34.26-.6.6-.6h3.2c.15-.45.4-.86.71-1.2H6.58c-.34 0-.6-.27-.6-.6 0-.34.26-.6.6-.6h12.6v-3c0-1.66-1.35-3-3-3H5.38Zm.6 4.2c0-.34.26-.6.6-.6h8.4c.33 0 .6.26.6.6 0 .33-.27.6-.6.6h-8.4c-.34 0-.6-.27-.6-.6Zm15.6 5.39c0-1.33-1.08-2.4-2.4-2.4h-6c-1.33 0-2.4 1.07-2.4 2.39v9.6c0 1.32 1.07 2.4 2.4 2.4h7.8c.33 0 .6-.27.6-.6 0-.34-.27-.6-.6-.6h-7.8c-.67 0-1.2-.54-1.2-1.2v-.01h9c.33 0 .6-.27.6-.6v-9Zm-9.6 8.39v-8.4c0-.67.53-1.2 1.2-1.2h6c.66 0 1.2.53 1.2 1.19v8.39h-8.4Z"/></svg>