<svg viewBox="0 0 24 24" xmlns="http://www.w3.org/2000/svg"><path fill="currentColor" d="M11.72 7.44c-1.26 0-2.28 1.01-2.28 2.27 0 1.25 1.01 2.27 2.27 2.27 1.25 0 2.27-1.02 2.27-2.28 0-1.26-1.02-2.28-2.28-2.28ZM3.99 4.49c0-1.39 1.11-2.5 2.5-2.5h11.5c1.38 0 2.5 1.11 2.5 2.5v14.25c0 .41-.34.75-.75.75H5.49c0 .55.44 1 1 1h13.25c.41 0 .75.33.75.75 0 .41-.34.75-.75.75H6.49c-1.39 0-2.5-1.12-2.5-2.5v-15Zm10.81 7.295c.39-.6.62-1.31.62-2.08 0-2.06-1.67-3.73-3.73-3.73s-3.73 1.66-3.73 3.72c0 2.05 1.66 3.72 3.72 3.72 .76 0 1.47-.24 2.07-.63l2.47 2.47 .06.05 0 0c.28.21.68.18.94-.07 .28-.29.28-.75 0-1.03l-2.47-2.47Z"/></svg>