<svg viewBox="0 0 24 24" xmlns="http://www.w3.org/2000/svg"><path fill="currentColor" d="M11.97 9.98h1.49l-.37 1.58H11.57l.38-1.59ZM3.99 4.49c0-1.39 1.11-2.5 2.5-2.5h11.5c1.38 0 2.5 1.11 2.5 2.5v14.25c0 .41-.34.75-.75.75H5.49c0 .55.44 1 1 1h13.25c.41 0 .75.33.75.75 0 .41-.34.75-.75.75H6.49c-1.39 0-2.5-1.12-2.5-2.5v-15Zm7.02 3.07l-.23.9 -1.08 0 -.11 0c-.37.04-.65.36-.65.74l0 .1c.04.36.36.64.74.64l.7-.01 -.39 1.58 -.8 0 -.11 0c-.37.04-.65.36-.65.74l0 .1c.04.36.36.64.74.64l.42-.01 -.13.5 -.02.1c-.04.36.19.71.56.8l.1.01c.36.03.71-.2.8-.57l.21-.87h1.53l-.12.51 -.02.1c-.04.36.2.71.57.79l.1.01c.36.03.71-.21.79-.58l.19-.86 .94 0 .1-.01c.36-.05.64-.37.64-.75l-.01-.11c-.05-.37-.37-.65-.75-.65l-.6-.01 .36-1.59 .72 0 .1-.01c.36-.05.64-.37.64-.75l-.01-.11c-.05-.37-.37-.65-.75-.65l-.38-.01 .12-.57 .01-.11c.03-.37-.21-.72-.58-.8l-.11-.02c-.37-.04-.72.2-.8.57l-.21.89h-1.47l.13-.56 .01-.11c.03-.37-.2-.72-.57-.81 -.41-.1-.81.14-.91.55Z"/></svg>