<svg viewBox="0 0 24 24" xmlns="http://www.w3.org/2000/svg"><path fill="currentColor" d="M11.75 11.37c0 .34.27.62.62.62 .02 0 .04-.01.06-.01 .02 0 .04 0 .06 0h1.25c.34 0 .62-.28.62-.63s-.28-.63-.63-.63h-.75V9.09c0-.35-.28-.625-.63-.625s-.63.27-.63.625v2.25ZM4 4.49c0-1.39 1.11-2.5 2.5-2.5H18c1.38 0 2.5 1.11 2.5 2.5v14.25c0 .41-.34.75-.75.75H5.5c0 .55.44 1 1 1h13.25c.41 0 .75.33.75.75 0 .41-.34.75-.75.75H6.5c-1.39 0-2.5-1.12-2.5-2.5v-15Zm8.37 1.5c-2.63 0-4.75 2.12-4.75 4.75 0 2.62 2.12 4.75 4.75 4.75 2.62 0 4.75-2.13 4.75-4.75 0-2.63-2.13-4.76-4.75-4.76Z"/></svg>