<svg viewBox="0 0 24 24" xmlns="http://www.w3.org/2000/svg"><path fill="currentColor" d="M4.8 4.79c0-1.33 1.07-2.4 2.4-2.4h9.59c1.32 0 2.4 1.07 2.4 2.4v6.24c-.58-.17-1.18-.25-1.8-.25 -3.65 0-6.6 2.95-6.6 6.6 0 .62.08 1.22.24 1.8H5.98c0 .66.53 1.2 1.2 1.2h4.31c.21.42.48.83.78 1.2H7.16c-1.33 0-2.4-1.08-2.4-2.4V4.77Zm3.3 0c-.5 0-.9.4-.9.9v.6c0 .49.4.9.9.9h7.79c.49 0 .9-.41.9-.9v-.6c0-.5-.41-.9-.9-.9h-7.8Zm14.69 12.6c0 2.98-2.42 5.4-5.4 5.4 -2.99 0-5.4-2.42-5.4-5.4 0-2.99 2.41-5.4 5.4-5.4 2.98 0 5.4 2.41 5.4 5.4Zm-3.18-1.38c.23-.24.23-.62 0-.85 -.24-.24-.62-.24-.85 0l-1.38 1.37L16 15.15c-.24-.24-.62-.24-.85 0 -.24.23-.24.61 0 .84l1.37 1.37 -1.38 1.37c-.24.23-.24.61 0 .84 .23.23.61.23.84 0l1.37-1.38 1.37 1.37c.23.23.61.23.84 0 .23-.24.23-.62 0-.85l-1.38-1.38 1.37-1.38Z"/></svg>