<svg viewBox="0 0 24 24" xmlns="http://www.w3.org/2000/svg"><path fill="currentColor" d="M19.1 9.16c-.74.52-1.64.83-2.61.83 -2.49 0-4.5-2.02-4.5-4.5 0-2.49 2.01-4.5 4.5-4.5 2.48 0 4.5 2.01 4.5 4.5 0 .97-.31 1.87-.84 2.6l2.61 2.61c.29.29.29.76 0 1.06 -.3.29-.77.29-1.07 0l-2.62-2.62Zm.39-3.67c0-1.66-1.35-3-3-3 -1.66 0-3 1.34-3 3 0 1.65 1.34 3 3 3 1.65 0 3-1.35 3-3Zm-.5 4.97v10.76c0 .61-.7.96-1.19.6l-5.82-4.19 -5.82 4.18c-.5.35-1.19 0-1.19-.61v-15c0-1.8 1.45-3.25 3.25-3.25h3.34c-.39.75-.61 1.6-.61 2.5 0 3.03 2.46 5.5 5.5 5.5 .88 0 1.71-.21 2.45-.58l.05.05Z"/></svg>