<svg viewBox="0 0 24 24" xmlns="http://www.w3.org/2000/svg"><path fill="currentColor" d="M4 4.5v15C4 20.88 5.11 22 6.5 22h13.25c.41 0 .75-.34.75-.75 0-.42-.34-.75-.75-.75H6.5c-.56 0-1-.45-1-1h14.25c.41 0 .75-.34.75-.75V4.5C20.5 3.11 19.38 2 18 2H6.5C5.11 2 4 3.11 4 4.5Zm6.99 3.51c-.01.4-.35.73-.75.73 -.75 0-.75-.76-.75-.76v-.01l0-.01 0-.01c0-.02 0-.03 0-.05 0-.03 0-.06 0-.1 0-.08.02-.17.04-.28 .05-.22.15-.51.37-.8 .45-.62 1.26-1.07 2.58-1.04 .94.01 1.79.41 2.32 1.07 .53.66.71 1.56.36 2.45 -.37.9-1.19 1.26-1.66 1.47l-.06.02c-.28.12-.42.18-.5.25l-.01 0v.72c0 .41-.34.75-.75.75 -.42 0-.75-.34-.76-.75v-.76c0-.53.25-.9.56-1.15 .25-.21.56-.34.78-.44l.03-.02c.54-.24.79-.39.91-.68 .14-.37.07-.7-.14-.96 -.23-.28-.63-.51-1.18-.52 -.94-.02-1.25.28-1.36.43 -.07.09-.11.18-.13.25 -.01.03-.02.06-.02.07l-.01 0Zm2.25 6.48c0 .55-.45 1-1 1 -.56 0-1-.45-1-1 0-.56.44-1 1-1 .55 0 1 .44 1 1Z"/></svg>