<svg viewBox="0 0 24 24" xmlns="http://www.w3.org/2000/svg"><g fill="currentColor"><path d="M4 4c-1.11 0-2 .89-2 2v12c0 1.1.89 2 2 2h6c.49 0 .95-.12 1.37-.34 -.25-.68-.38-1.41-.38-2.17 0-1.85.76-3.51 2-4.7V6.98c0-.56.44-1 1-1h6v5.49c.74.31 1.42.75 2 1.31V5.97c0-1.11-.9-2-2-2h-6c-.77 0-1.47.28-2 .76 -.54-.48-1.24-.77-2-.77h-6Zm7 3v10c0 .55-.45 1-1 1H4V6h6c.55 0 1 .44 1 1Z"/><path d="M16 17c.04-1.42.24-2.67.55-3.59 .17-.52.36-.9.55-1.14 .19-.25.32-.29.38-.29 .05 0 .19.03.38.28 .18.24.38.62.55 1.13 .3.91.51 2.17.55 3.58h-2.99Z"/><path d="M15.61 13.09c.1-.33.22-.63.36-.89 -2.15.61-3.76 2.49-3.96 4.78h2.98c.04-1.51.25-2.87.6-3.91Z"/><path d="M19.38 13.09c-.11-.33-.23-.63-.37-.89 2.14.61 3.75 2.49 3.95 4.78h-2.99c-.05-1.51-.26-2.87-.61-3.91Z"/><path d="M19.99 18h2.98c-.21 2.28-1.82 4.17-3.96 4.78 .13-.27.26-.57.36-.89 .34-1.04.56-2.41.6-3.91Z"/><path d="M17.88 22.719c-.2.24-.33.28-.39.28s-.2-.04-.39-.29c-.19-.25-.39-.63-.56-1.14 -.31-.92-.52-2.17-.56-3.59h2.98c-.04 1.41-.25 2.66-.56 3.58 -.18.51-.37.89-.56 1.13Z"/><path d="M12.02 18c.2 2.28 1.81 4.17 3.95 4.78 -.14-.27-.27-.57-.37-.89 -.35-1.04-.57-2.41-.61-3.91H12Z"/></g></svg>