<svg viewBox="0 0 24 24" xmlns="http://www.w3.org/2000/svg"><path fill="currentColor" d="M23 6.5C23 3.46 20.53 1 17.5 1 14.46 1 12 3.46 12 6.5c0 3.03 2.46 5.5 5.5 5.5 3.03 0 5.5-2.47 5.5-5.5ZM18 7l0 2.5c0 .27-.23.49-.5.49 -.28 0-.5-.23-.5-.5l-.01-2.51h-2.51c-.28 0-.5-.23-.5-.5 0-.28.22-.5.49-.5h2.5l-.01-2.51c0-.28.22-.5.5-.5 .27 0 .5.22.5.5l0 2.5h2.49c.27 0 .49.22.49.5 0 .27-.23.5-.5.5h-2.5Zm-.51 5.99c.51 0 1.01-.07 1.5-.18v8.41c0 .61-.7.96-1.19.6l-5.82-4.19 -5.82 4.18c-.5.35-1.19 0-1.19-.61v-15c0-1.8 1.45-3.25 3.25-3.25h3.76c-.65 1.01-1.03 2.21-1.03 3.5 0 3.58 2.91 6.5 6.5 6.5Z"/></svg>