<svg viewBox="0 0 24 24" xmlns="http://www.w3.org/2000/svg"><path fill="currentColor" d="M14 4h-.5c-.83 0-1.5.67-1.5 1.5V7h2.5v-.25c0-.42.33-.75.75-.75 .41 0 .75.33.75.75V7h3v-.25c0-.42.33-.75.75-.75 .41 0 .75.33.75.75V7H23V5.5c0-.83-.68-1.5-1.5-1.5H21V3c0-.97-.79-1.75-1.75-1.75h-3.5C14.78 1.25 14 2.03 14 3v1Zm1.5-1c0-.14.11-.25.25-.25h3.5c.13 0 .25.11.25.25v1h-4V3ZM12 10.5v-2h2.5v.75c0 .41.33.75.75.75 .41 0 .75-.34.75-.75V8.5h3v.75c0 .41.33.75.75.75 .41 0 .75-.34.75-.75V8.5H23v2c0 .82-.68 1.5-1.5 1.5h-8c-.83 0-1.5-.68-1.5-1.5Zm1-7.45c-1.15.23-2 1.24-2 2.44v5c0 1.38 1.11 2.5 2.5 2.5h7v5.75c0 .41-.34.75-.75.75H5.5c0 .55.44 1 1 1h13.25c.41 0 .75.33.75.75 0 .41-.34.75-.75.75H6.5c-1.39 0-2.5-1.12-2.5-2.5v-15c0-1.39 1.11-2.5 2.5-2.5h6.68c-.13.3-.19.64-.19 1v.05Z"/></svg>