<svg viewBox="0 0 24 24" xmlns="http://www.w3.org/2000/svg"><path fill="currentColor" d="M22 4.25c0 .41-.34.75-.75.75H18.5c-.42 0-.75-.34-.75-.75 0-.42.33-.75.75-.75h1.32l-.01-.01 -.01-.01c-.78-.62-1.75-.99-2.82-.99 -2.49 0-4.5 2.01-4.5 4.5 0 2.48 2.01 4.5 4.5 4.5 2.48 0 4.5-2.02 4.5-4.5 0-.42.33-.75.75-.75 .41 0 .75.33.75.75 0 3.31-2.69 6-6 6 -3.32 0-6-2.69-6-6 0-3.32 2.68-6 6-6 1.3 0 2.51.41 3.5 1.12v-.63c0-.18.06-.34.16-.47 .13-.18.34-.29.58-.29 .41 0 .75.33.75.75v2.75ZM12.1 2H6.49c-1.39 0-2.5 1.11-2.5 2.5v15c0 1.38 1.11 2.5 2.5 2.5h13.25c.41 0 .75-.34.75-.75 0-.42-.34-.75-.75-.75H6.49c-.56 0-1-.45-1-1h14.25c.41 0 .75-.34.75-.75v-5.69c-1.03.59-2.23.93-3.5.93 -3.18 0-5.85-2.11-6.72-5 -.01-.03-.02-.05-.02-.07 -.09-.31-.16-.62-.2-.94 -.05-.33-.08-.67-.08-1 0-.7.1-1.37.28-2 .1-.35.23-.68.38-1 .35-.75.84-1.43 1.42-2.01Z"/></svg>