<svg viewBox="0 0 24 24" xmlns="http://www.w3.org/2000/svg"><path fill="currentColor" d="M4 4.5v15C4 20.88 5.11 22 6.5 22h13.25c.41 0 .75-.34.75-.75 0-.42-.34-.75-.75-.75H6.5c-.56 0-1-.45-1-1h14.25c.41 0 .75-.34.75-.75V4.5C20.5 3.11 19.38 2 18 2H6.5C5.11 2 4 3.11 4 4.5Zm10.5 4.24c-.41 0-.75-.33-.75-.74l-.01-.01c-.01-.02-.01-.04-.02-.08 -.02-.08-.06-.17-.13-.26 -.11-.15-.42-.45-1.36-.44 -.56 0-.96.23-1.18.51 -.22.26-.29.59-.14.95 .11.29.37.43.91.67l.03.01c.22.09.53.23.78.43 .31.24.56.62.56 1.14v.75c-.01.41-.34.75-.76.74 -.42 0-.75-.34-.75-.76v-.73l-.01-.01c-.08-.07-.22-.13-.5-.26l-.06-.03c-.48-.21-1.3-.57-1.66-1.48 -.36-.89-.18-1.8.36-2.46 .52-.66 1.37-1.06 2.32-1.08 1.31-.03 2.13.42 2.58 1.03 .21.28.31.57.37.79 .02.1.04.2.04.27 0 .03 0 .06 0 .09 0 .01 0 .02 0 .04l0 0v0 0s0 .75-.75.75Zm-3 5.75c0-.56.44-1 1-1 .55 0 1 .44 1 1 0 .55-.45 1-1 1 -.56 0-1-.45-1-1Z"/></svg>