<svg viewBox="0 0 24 24" xmlns="http://www.w3.org/2000/svg"><path fill="currentColor" d="M14.11 14c.37-.52.66-1.21.8-2.01h-4.84c.13.8.43 1.49.8 2 .51.71 1.1.99 1.61.99 .5 0 1.09-.28 1.61-1Zm0-6.02c.44.61.78 1.48.86 2.5h-4.96c.08-1.03.41-1.9.86-2.51 .51-.72 1.1-1 1.61-1 .5 0 1.09.27 1.61.99ZM3.99 4.48c0-1.39 1.11-2.5 2.5-2.5h11.5c1.38 0 2.5 1.11 2.5 2.5v14.25c0 .41-.34.75-.75.75H5.49c0 .55.44 1 1 1h13.25c.41 0 .75.33.75.75 0 .41-.34.75-.75.75H6.49c-1.39 0-2.5-1.12-2.5-2.5v-15Zm8.5 12c2.2 0 4-2.47 4-5.5 0-3.04-1.8-5.5-4-5.5 -2.21 0-4 2.46-4 5.5 0 3.03 1.79 5.5 4 5.5Z"/></svg>