<svg viewBox="0 0 24 24" xmlns="http://www.w3.org/2000/svg"><path fill="currentColor" d="M4 4.5C4 3.11 5.11 2 6.5 2H18c1.38 0 2.5 1.11 2.5 2.5v14.25c0 .41-.34.75-.75.75H5.5c0 .55.44 1 1 1h13.25c.41 0 .75.33.75.75 0 .41-.34.75-.75.75H6.5C5.11 22 4 20.88 4 19.5v-15Zm6.55 1.86c-1.58.65-2.72 2.12-2.9 3.88h2.1c.04-1.25.23-2.4.54-3.29 .07-.21.15-.42.24-.6Zm3.33-.12c.11.22.21.46.3.71 .31.88.5 2.03.54 3.28h2.35c-.2-1.88-1.49-3.42-3.21-4Zm-.65 3.99c-.05-1.12-.22-2.09-.47-2.79 -.15-.41-.3-.69-.43-.85 -.05-.06-.09-.09-.11-.11 -.03.01-.06.04-.11.1 -.14.15-.29.43-.43.84 -.25.7-.43 1.67-.47 2.78h1.98Zm-1.96 1.5c.06.9.22 1.69.43 2.28 .14.4.29.68.42.84 .04.05.08.08.1.1 .02-.02.05-.05.1-.11 .13-.16.28-.44.42-.85 .2-.6.36-1.39.43-2.29h-1.93Zm-1.51 0H7.7c.32 1.54 1.4 2.8 2.82 3.39 -.1-.2-.18-.4-.26-.62 -.27-.77-.46-1.73-.53-2.79Zm4.1 3.51c1.57-.53 2.78-1.87 3.13-3.51h-2.31c-.08 1.05-.26 2.01-.53 2.78 -.09.25-.2.5-.32.72Zm-1.61-.26s0 0 0 0l-.01-.01Z"/></svg>