<svg viewBox="0 0 24 24" xmlns="http://www.w3.org/2000/svg"><path fill="currentColor" d="M12.5 8.74l1.12 2.75h-2.25l1.12-2.76ZM4 4.49v15c0 1.38 1.11 2.5 2.5 2.5h13.25c.41 0 .75-.34.75-.75 0-.42-.34-.75-.75-.75H6.5c-.56 0-1-.45-1-1h14.25c.41 0 .75-.34.75-.75V4.49c0-1.39-1.12-2.5-2.5-2.5H6.5C5.11 1.99 4 3.1 4 4.49Zm8.5 1.5c.3 0 .58.18.69.46l3.25 7.99c.15.38-.03.82-.42.97 -.39.15-.83-.03-.98-.42l-.83-2.04h-3.46l-.83 2.03c-.16.38-.6.56-.98.41 -.39-.16-.57-.6-.42-.98l3.25-8c.11-.29.38-.47.69-.47Z"/></svg>