<svg viewBox="0 0 24 24" xmlns="http://www.w3.org/2000/svg"><path fill="currentColor" d="M10.55 8.42c-.49.26-.56.5-.56.57 0 .07.06.31.55.57 .45.24 1.14.42 1.94.42 .79 0 1.48-.18 1.94-.43 .48-.27.55-.51.55-.58 0-.08-.07-.32-.56-.58 -.46-.25-1.15-.43-1.95-.43s-1.49.17-1.95.42Zm4.44 4.57v-2.03c-.7.33-1.58.52-2.5.52 -.93 0-1.81-.19-2.5-.53v2.02c0 .07.06.31.55.57 .45.24 1.14.42 1.94.42 .79 0 1.48-.18 1.94-.43 .48-.27.55-.51.55-.58Zm-11-8.5c0-1.39 1.11-2.5 2.5-2.5h11.5c1.38 0 2.5 1.11 2.5 2.5v14.25c0 .41-.34.75-.75.75H5.49c0 .55.44 1 1 1h13.25c.41 0 .75.33.75.75 0 .41-.34.75-.75.75H6.49c-1.39 0-2.5-1.12-2.5-2.5v-15Zm5.84 2.6c-.69.36-1.35 1-1.35 1.89v4c0 .89.65 1.52 1.34 1.89 .71.38 1.65.6 2.65.6 .99 0 1.93-.22 2.65-.61 .68-.37 1.34-1.01 1.34-1.9v-4c0-.9-.66-1.53-1.35-1.9 -.72-.39-1.657-.61-2.66-.61 -1 0-1.94.21-2.66.6Z"/></svg>