<svg viewBox="0 0 24 24" xmlns="http://www.w3.org/2000/svg"><path fill="currentColor" d="M11.6 9.52c-.1.2-.29.33-.52.37l-1.46.21 1.05 1.02c.15.15.23.38.19.6l-.25 1.44 1.3-.69c.19-.11.43-.11.63 0l1.3.68 -.25-1.45c-.04-.22.03-.45.19-.61l1.05-1.03 -1.46-.22c-.23-.04-.42-.18-.52-.38l-.66-1.32 -.65 1.31ZM4 4.49c0-1.39 1.11-2.5 2.5-2.5H18c1.38 0 2.5 1.11 2.5 2.5v14.25c0 .41-.34.75-.75.75H5.5c0 .55.44 1 1 1h13.25c.41 0 .75.33.75.75 0 .41-.34.75-.75.75H6.5c-1.39 0-2.5-1.12-2.5-2.5v-15Zm6.54 4.1l-2.47.35c-.56.08-.78.76-.38 1.15l1.78 1.73 -.43 2.45c-.1.55.48.97.98.71l2.2-1.16 2.2 1.15c.49.26 1.07-.17.98-.72l-.43-2.46 1.78-1.74c.4-.4.18-1.08-.38-1.16l-2.47-.36 -1.11-2.23c-.25-.51-.97-.51-1.22 0l-1.11 2.22Z"/></svg>