<svg viewBox="0 0 24 24" xmlns="http://www.w3.org/2000/svg"><path fill="currentColor" d="M6.5 2C5.11 2 4 3.11 4 4.5v15C4 20.88 5.11 22 6.5 22h6.3c-.43-.45-.8-.95-1.08-1.5H6.48c-.56 0-1-.45-1-1h5.81c-.21-.64-.32-1.31-.32-2 0-3.59 2.91-6.5 6.5-6.5 1.08 0 2.1.26 3 .73V4.49c0-1.39-1.12-2.5-2.5-2.5H6.47ZM8 5h8c.55 0 1 .44 1 1v1c0 .55-.45 1-1 1H8c-.56 0-1-.45-1-1V6c0-.56.44-1 1-1Zm15 12.5c0-3.04-2.47-5.5-5.5-5.5 -3.04 0-5.5 2.46-5.5 5.5 0 3.03 2.46 5.5 5.5 5.5 3.03 0 5.5-2.47 5.5-5.5Zm-5 .5l0 2.5c0 .27-.23.5-.5.5 -.28 0-.5-.23-.5-.5l-.01-2.51h-2.51c-.28 0-.5-.23-.5-.5 0-.28.22-.5.49-.5h2.5l-.01-2.51c0-.28.22-.5.5-.5 .27 0 .5.22.5.5l0 2.5h2.49c.27 0 .49.22.49.5 0 .27-.23.5-.5.5h-2.5Z"/></svg>