<svg viewBox="0 0 24 24" xmlns="http://www.w3.org/2000/svg"><path fill="currentColor" d="M4 4.5C4 3.11 5.11 2 6.5 2H18c1.38 0 2.5 1.11 2.5 2.5v14.25c0 .41-.34.75-.75.75H5.5c0 .55.44 1 1 1h13.25c.41 0 .75.33.75.75 0 .41-.34.75-.75.75H6.5C5.11 22 4 20.88 4 19.5v-15Zm7.69 2.95c-.12-.27-.38-.45-.67-.46 -.3-.01-.57.15-.7.41l-1.55 3.08H7.73c-.42 0-.75.33-.75.75 0 .41.33.75.75.75h1.5c.28 0 .54-.17.67-.42l1.02-2.05 2.11 5c.11.26.35.43.64.45 .28.01.55-.13.69-.38l1.53-2.63h.81c.41 0 .75-.34.75-.75 0-.42-.34-.75-.75-.75h-1.25c-.27 0-.52.14-.65.37l-1 1.7 -2.17-5.13Z"/></svg>