<svg viewBox="0 0 24 24" xmlns="http://www.w3.org/2000/svg"><path fill="currentColor" d="M4 4.5C4 3.11 5.11 2 6.5 2H18c1.38 0 2.5 1.11 2.5 2.5v14.25c0 .41-.34.75-.75.75H5.5c0 .55.44 1 1 1h13.25c.41 0 .75.33.75.75 0 .41-.34.75-.75.75H6.5C5.11 22 4 20.88 4 19.5v-15Zm6.19 2.96c-.58.27-1.2.77-1.2 1.53 0 .75.62 1.26 1.19 1.53 .62.29 1.43.46 2.3.46 .86 0 1.68-.17 2.3-.47 .57-.28 1.19-.78 1.19-1.54s-.63-1.27-1.2-1.54c-.63-.3-1.44-.47-2.31-.47 -.87 0-1.69.16-2.31.46Zm5.79 3.42c-.83.67-2.09 1.11-3.5 1.11 -1.42 0-2.67-.44-3.5-1.11 -.01.03-.01.07-.01.11 0 1.1 1.56 2 3.5 2 1.93 0 3.5-.9 3.5-2 0-.04-.01-.08-.01-.12Zm-3.5 3.11c-1.42 0-2.67-.44-3.5-1.11 -.01.03-.01.07-.01.11 0 1.1 1.56 2 3.5 2 1.93 0 3.5-.9 3.5-2 0-.04-.01-.08-.01-.11 -.83.67-2.09 1.11-3.5 1.11Z"/></svg>