<svg viewBox="0 0 24 24" xmlns="http://www.w3.org/2000/svg"><path fill="currentColor" d="M13 5c.55 0 1-.45 1-1 0-.56-.45-1-1-1h-2c-.56 0-1 .44-1 1 0 .55.44 1 1 1h2Zm-8 6c0-.56-.45-1-1-1 -.56 0-1 .44-1 1v2c0 .55.44 1 1 1 .55 0 1-.45 1-1v-2Zm9 9c0 .55-.45 1-1 1h-2c-.56 0-1-.45-1-1 0-.56.44-1 1-1h2c.55 0 1 .44 1 1ZM6 3c.55 0 1 .44 1 1 0 .55-.45 1-1 1 -.56 0-1 .44-1 1 0 .55-.45 1-1 1 -.56 0-1-.45-1-1 0-1.66 1.34-3 3-3Zm1 17c0 .55-.45 1-1 1 -1.66 0-3-1.35-3-3 0-.56.44-1 1-1 .55 0 1 .44 1 1 0 .55.44 1 1 1 .55 0 1 .44 1 1Zm11 1c-.56 0-1-.45-1-1 0-.56.44-1 1-1 .55 0 1-.45 1-1V6c0-.56-.45-1-1-1 -.56 0-1-.45-1-1 0-.56.44-1 1-1 1.65 0 3 1.34 3 3v12c0 1.65-1.35 3-3 3Z"/></svg>