<svg viewBox="0 0 24 24" xmlns="http://www.w3.org/2000/svg"><path fill="currentColor" d="M3 6c0 .55.44 1 1 1 .55 0 1-.45 1-1 0-.56.44-1 1-1h12c.55 0 1 .44 1 1 0 .55.44 1 1 1 .55 0 1-.45 1-1 0-1.66-1.35-3-3-3H6C4.34 3 3 4.34 3 6Zm2 5c0-.56-.45-1-1-1 -.56 0-1 .44-1 1v2c0 .55.44 1 1 1 .55 0 1-.45 1-1v-2Zm-1 7c-.56 0-1-.45-1-1 0-.56.44-1 1-1h16c.55 0 1 .44 1 1 0 .55-.45 1-1 1H4Zm0 3c-.56 0-1-.45-1-1 0-.56.44-1 1-1h16c.55 0 1 .44 1 1 0 .55-.45 1-1 1H4Zm16-11c-.56 0-1 .44-1 1v2c0 .55.44 1 1 1 .55 0 1-.45 1-1v-2c0-.56-.45-1-1-1Z"/></svg>