<svg viewBox="0 0 24 24" xmlns="http://www.w3.org/2000/svg"><path fill="currentColor" d="M6 21c.55 0 1-.45 1-1 0-.56-.45-1-1-1 -.56 0-1-.45-1-1V6c0-.56.44-1 1-1 .55 0 1-.45 1-1 0-.56-.45-1-1-1C4.34 3 3 4.34 3 6v12c0 1.65 1.34 3 3 3Zm7-16c.55 0 1-.45 1-1 0-.56-.45-1-1-1h-2c-.56 0-1 .44-1 1 0 .55.44 1 1 1h2Zm6 6c0-.56.44-1 1-1 .55 0 1 .44 1 1v2c0 .55-.45 1-1 1 -.56 0-1-.45-1-1v-2Zm-5 9c0 .55-.45 1-1 1h-2c-.56 0-1-.45-1-1 0-.56.44-1 1-1h2c.55 0 1 .44 1 1Zm4-17c-.56 0-1 .44-1 1 0 .55.44 1 1 1 .55 0 1 .44 1 1 0 .55.44 1 1 1 .55 0 1-.45 1-1 0-1.66-1.35-3-3-3Zm-1 17c0 .55.44 1 1 1 1.65 0 3-1.35 3-3 0-.56-.45-1-1-1 -.56 0-1 .44-1 1 0 .55-.45 1-1 1 -.56 0-1 .44-1 1Z"/></svg>