<svg viewBox="0 0 24 24" xmlns="http://www.w3.org/2000/svg"><path fill="currentColor" d="M13 5c.55 0 1-.45 1-1 0-.56-.45-1-1-1h-2c-.56 0-1 .44-1 1 0 .55.44 1 1 1h2Zm-8 6c0-.56-.45-1-1-1 -.56 0-1 .44-1 1v2c0 .55.44 1 1 1 .55 0 1-.45 1-1v-2Zm-2 7c0-.56.44-1 1-1 .55 0 1 .44 1 1 0 .55.44 1 1 1h12c.55 0 1-.45 1-1 0-.56.44-1 1-1 .55 0 1 .44 1 1 0 1.65-1.35 3-3 3H6c-1.66 0-3-1.35-3-3Zm17-8c-.56 0-1 .44-1 1v2c0 .55.44 1 1 1 .55 0 1-.45 1-1v-2c0-.56-.45-1-1-1ZM7 4c0-.56-.45-1-1-1C4.34 3 3 4.34 3 6c0 .55.44 1 1 1 .55 0 1-.45 1-1 0-.56.44-1 1-1 .55 0 1-.45 1-1Zm11-1c-.56 0-1 .44-1 1 0 .55.44 1 1 1 .55 0 1 .44 1 1 0 .55.44 1 1 1 .55 0 1-.45 1-1 0-1.66-1.35-3-3-3Z"/></svg>