<svg viewBox="0 0 24 24" xmlns="http://www.w3.org/2000/svg"><path fill="currentColor" d="M17.75 13.99c1.24 0 2.25 1 2.25 2.25v.9c0 1.09-.48 2.13-1.31 2.84 -1.57 1.34-3.81 2-6.7 2s-5.13-.66-6.7-2.01c-.83-.72-1.31-1.76-1.31-2.85v-.91c0-1.25 1-2.25 2.25-2.25h11.49Zm-5.86-12l.1-.01c.37 0 .69.28.74.64l0 .1 -.01.74 3.5 0c1.24 0 2.25 1 2.25 2.25v4.5c0 1.24-1.01 2.25-2.25 2.25H7.71c-1.25 0-2.25-1.01-2.25-2.25V5.7c0-1.25 1-2.25 2.25-2.25l3.49-.01 0-.75c0-.38.28-.7.64-.75l.1-.01 -.11 0ZM9.74 6.48c-.69 0-1.25.55-1.25 1.24 0 .68.55 1.24 1.24 1.24 .68 0 1.24-.56 1.24-1.25s-.56-1.25-1.25-1.25Zm4.49 0c-.69 0-1.25.55-1.25 1.24 0 .68.55 1.24 1.24 1.24s1.24-.56 1.24-1.25 -.56-1.25-1.25-1.25Z"/></svg>