<svg viewBox="0 0 24 24" xmlns="http://www.w3.org/2000/svg"><path fill="currentColor" d="M18.364 10.28c.04.03.09.06.13.1 0-.05 0-.09 0-.14V5.73c0-1.25-1.01-2.25-2.25-2.25l-3.51-.01 0-.75 -.01-.11c-.05-.37-.37-.65-.75-.65l-.11 0c-.37.04-.65.36-.65.74l-.01.74 -3.5 0c-1.25 0-2.25 1-2.25 2.25v4.5c0 1.24 1 2.25 2.25 2.25h7.78c0-.02.01-.04.01-.06l0-.03 .45-1.39 0-.02c.1-.31.3-.57.56-.75 .26-.19.57-.29.89-.29 .31 0 .63.09.89.28ZM9.74 6.49c.68 0 1.24.55 1.24 1.24 0 .68-.56 1.24-1.25 1.24s-1.25-.56-1.25-1.25 .55-1.25 1.24-1.25Zm4.49 0c.69 0 1.24.55 1.24 1.24 0 .68-.56 1.24-1.25 1.24s-1.25-.56-1.25-1.25 .55-1.25 1.24-1.25Zm-1.2 7.53l.11-.04H6.23c-1.25 0-2.25 1-2.25 2.25v.9c0 1.09.47 2.13 1.3 2.84 1.56 1.34 3.8 2 6.69 2 2.07 0 3.81-.34 5.21-1.03 -.22-.05-.43-.13-.61-.26 -.27-.19-.46-.45-.57-.75l-.01-.02 -.46-1.39 -.01-.01c-.07-.2-.17-.39-.3-.55 -.05-.07-.1-.12-.16-.18l-.36-.27 -.36-.19 -1.39-.45 -.02-.01c-.31-.11-.57-.31-.75-.57 -.19-.27-.29-.58-.29-.9 0-.32.09-.64.28-.9 .18-.27.44-.46.74-.57l.01-.01Zm2.81 3.1c.08.08.16.17.23.26 .19.25.34.54.45.84l.44 1.37c.03.1.1.19.19.26 .09.06.2.09.31.09 .11 0 .22-.04.31-.1 .08-.06.14-.14.18-.23 0-.02 0-.03.01-.04l.44-1.38c.13-.42.37-.8.68-1.12 .31-.32.69-.55 1.11-.69l1.37-.45c.1-.04.19-.11.26-.2 .06-.1.1-.21.1-.32 0-.12-.04-.23-.1-.32 -.07-.1-.16-.17-.27-.2l-.03-.01 -1.38-.45c-.42-.14-.8-.38-1.12-.69 -.32-.32-.55-.7-.69-1.12l-.45-1.38c-.04-.11-.11-.2-.2-.27 -.1-.07-.21-.1-.32-.1 -.12 0-.23.03-.32.09 -.1.06-.17.15-.2.26l-.45 1.37 -.02.03c-.14.4-.37.76-.67 1.07 -.31.31-.69.54-1.1.69l-1.38.44c-.11.03-.2.1-.27.19s-.1.2-.1.31c0 .11.03.22.1.31 .06.09.15.16.26.19l1.37.44c.41.13.8.37 1.11.68ZM23 20.93l.76.24 .01 0c.05.02.11.05.14.11 .03.05.05.11.05.17 0 .06-.02.12-.06.17 -.04.05-.09.08-.15.11l-.77.24c-.24.07-.45.2-.62.38 -.18.17-.31.38-.39.61l-.25.76c-.03.05-.06.11-.12.14 -.06.03-.12.05-.18.05 -.07 0-.13-.02-.18-.06 -.06-.04-.09-.09-.12-.15l-.25-.77c-.08-.24-.21-.45-.39-.62 -.18-.18-.39-.31-.62-.39l-.77-.25c-.06-.03-.11-.06-.15-.12 -.04-.06-.06-.12-.06-.18 0-.07.01-.13.05-.18 .03-.06.08-.09.14-.12l.76-.25c.22-.08.43-.22.6-.39 .17-.18.29-.39.37-.62l.24-.77c.02-.06.05-.11.11-.15 .05-.04.11-.06.17-.06 .06 0 .12.01.17.05 .05.03.08.08.11.14l.24.76c.07.23.2.44.38.61 .17.17.38.3.61.38Z"/></svg>