<svg viewBox="0 0 24 24" xmlns="http://www.w3.org/2000/svg"><path fill="currentColor" d="M17.49 12c3.03 0 5.5 2.46 5.5 5.5 0 3.03-2.47 5.5-5.5 5.5 -3.04 0-5.5-2.47-5.5-5.5 0-3.04 2.46-5.5 5.5-5.5Zm-5.48 1.99c-.65 1.01-1.03 2.21-1.03 3.5 0 1.64.61 3.14 1.61 4.29 -.81.14-1.68.21-2.62.21 -2.89 0-5.13-.66-6.7-2.01 -.83-.72-1.31-1.76-1.31-2.85v-.91c0-1.25 1-2.25 2.25-2.25l7.76-.01Zm5.47-.01l-.09 0c-.21.03-.37.19-.41.4l-.01.08 -.01 2.5 -2.51 0 -.09 0c-.21.03-.37.19-.41.4l-.01.08 0 .08c.03.2.19.36.4.4l.08 0 2.5-.01 0 2.5 0 .08c.03.2.19.36.4.4l.08 0 .08-.01c.2-.04.36-.2.4-.41l0-.09 -.01-2.51 2.5 0 .08-.01c.2-.04.36-.2.4-.41l0-.09 -.01-.09c-.04-.21-.2-.37-.41-.41l-.09-.01 -2.51-.01 0-2.5 -.01-.09c-.04-.21-.2-.37-.41-.41l-.09-.01Zm-7.5-12c.37 0 .69.28.74.64l0 .1 -.01.74 3.5 0c1.24 0 2.25 1 2.25 2.25v4.5c0 .3-.06.58-.17.85 -1.13.2-2.15.69-3 1.39l-7.6-.01c-1.25 0-2.25-1.01-2.25-2.25V5.68c0-1.25 1-2.25 2.25-2.25l3.49-.01 0-.75c0-.35.23-.64.55-.73l.09-.02 .1-.01ZM7.72 6.47c-.69 0-1.25.55-1.25 1.24 0 .68.55 1.24 1.24 1.24 .68 0 1.24-.56 1.24-1.25s-.56-1.25-1.25-1.25Zm4.49 0c-.69 0-1.25.55-1.25 1.24 0 .68.55 1.24 1.24 1.24s1.24-.56 1.24-1.25 -.56-1.25-1.25-1.25Z"/></svg>