<svg viewBox="0 0 24 24" xmlns="http://www.w3.org/2000/svg"><path fill="currentColor" d="M2 5.76c0-1.92 2.07-3.13 3.74-2.18l3.5 2c.17.1.34.22.48.36 .34-.29.78-.46 1.27-.46h2c.48 0 .92.17 1.27.45 .14-.14.3-.27.48-.37l3.5-2c1.66-.96 3.74.25 3.74 2.17v5.95c0 1.91-2.07 3.11-3.74 2.17l-3.5-1.99c-.31-.18-.57-.41-.77-.68 -.3.17-.64.26-1.01.26h-2c-.37 0-.71-.1-1.01-.27 -.21.27-.47.5-.77.67l-3.5 1.98c-1.67.94-3.74-.26-3.74-2.18V5.68Zm6 2.23c-.42 0-.75.33-.75.75 0 .41.33.75.75.75h1.75v-1.5H8Zm8.75.75c0-.42-.34-.75-.75-.75h-1.75v1.5H16c.41 0 .75-.34.75-.75Zm-7.03 4.02c.18-.11.36-.24.52-.37 .27.07.49.3.49.58v6.25c0 .96-.79 1.75-1.75 1.75H6.56c-1.17 0-2.02-1.13-1.68-2.25l1.15-3.91c.05-.03.1-.06.15-.09l3.5-1.99Zm4.01-.37c-.28.07-.5.3-.5.58v6.25c0 .96.78 1.75 1.75 1.75h2.41c1.16 0 2.01-1.13 1.67-2.25l-1.16-3.91c-.06-.03-.11-.06-.16-.09l-3.5-1.99c-.19-.11-.37-.24-.53-.37Z"/></svg>