<svg viewBox="0 0 24 24" xmlns="http://www.w3.org/2000/svg"><path fill="currentColor" d="M11.99 2C9.64 2 7.64 3.46 6.85 5.52c-.44-.13-.87-.23-1.27-.3 -.81-.15-1.53-.21-2.04-.23 -.26-.01-.47-.02-.62-.01 -.08 0-.14 0-.18 0l-.05 0 -.03 0c-.39.02-.69.32-.71.7l-.01.06c-.01.04-.01.09-.01.17 -.01.14-.01.35 0 .61 .01.51.07 1.22.22 2.03 .13.73.34 1.56.68 2.39h-.18c-.42 0-.75.33-.75.74v.25c0 1.04.16 2.05.45 3h19.08c.29-.95.45-1.96.45-3v-.26c0-.42-.34-.75-.75-.75h-.26c0-.05 0-.09 0-.13 0-2.28-1.56-4.19-3.67-4.73 -.61-2.39-2.77-4.16-5.34-4.16Zm0 1.5c1.68 0 3.12 1.04 3.71 2.51 -1.79.14-3.31 1.26-4.03 2.82 -.27-.4-.57-.77-.92-1.12 -.75-.75-1.63-1.3-2.51-1.69 .58-1.49 2.03-2.54 3.72-2.54Zm7.49 7.37c0 .04-.01.08-.01.12h-6.73l-.02-.06c-.01-.03-.01-.05-.01-.08 0-1.87 1.51-3.38 3.37-3.38s3.37 1.51 3.37 3.37Zm-9.79-2.1c.64.64 1.1 1.41 1.44 2.21H9.02L7.23 9.19c-.3-.3-.77-.3-1.07 0 -.3.29-.3.76 0 1.06l.71.71H4.5c-.44-.88-.71-1.82-.86-2.67 -.14-.73-.19-1.37-.21-1.83l-.01-.01 0 0c.45.01 1.1.06 1.82.2 1.45.26 3.15.85 4.38 2.07Zm-6.65 7.71c1.64 3.26 5.02 5.5 8.93 5.5 3.9 0 7.28-2.24 8.93-5.5H3.03Zm9.68-5.56c0 .01.01.03.01.05l-.02-.06Z"/></svg>