<svg viewBox="0 0 24 24" xmlns="http://www.w3.org/2000/svg"><path fill="currentColor" d="M16.29 2.33c-.84-.32-1.77-.32-2.6 0L9.38 3.92c-.69.25-1.15.9-1.15 1.64v2.79c.8-.13 1.62-.05 2.39.23l4.3 1.59c1.07.39 1.79 1.42 1.79 2.57v5.67c0 .32-.06.63-.17.92l4.01-1.49c.68-.26 1.14-.91 1.14-1.65V5.51c0-.74-.46-1.39-1.15-1.65l-4.31-1.6ZM11.75 7.2c-.4-.14-.6-.57-.47-.96 .13-.4.56-.6.95-.47l2.65.91c.05.01.11.01.16-.01l2.65-.92c.39-.14.81.07.95.46 .13.39-.08.81-.47.95l-2.66.91c-.38.12-.78.12-1.15 0l-2.66-.92ZM7.68 9.52c.83-.32 1.76-.32 2.59 0l4.3 1.59c.68.25 1.14.9 1.14 1.64v5.67c0 .73-.46 1.38-1.15 1.64l-4.31 1.59c-.84.31-1.77.31-2.6 0l-4.31-1.6c-.69-.26-1.15-.91-1.15-1.65v-5.68c0-.74.45-1.39 1.14-1.65l4.3-1.6Zm-2.4 4.18c-.14.39.07.81.46.95l2.48.85v2.69c0 .41.33.75.75.75 .41 0 .75-.34.75-.75v-2.7l2.47-.86c.39-.14.59-.57.46-.96 -.14-.4-.57-.6-.96-.47l-2.74.94 -2.75-.95c-.4-.14-.82.07-.96.46Z"/></svg>