<svg viewBox="0 0 24 24" xmlns="http://www.w3.org/2000/svg"><path fill="currentColor" d="M13.4 2.51c-.91-.37-1.92-.37-2.82 0l-2.2.88 9.59 3.73 3.37-1.31c-.14-.12-.3-.21-.46-.28l-7.5-3.04Zm8.59 4.67l-9.26 3.57v6.84l5.64-5.65c.97-.98 2.41-1.21 3.6-.71V7.15Zm-10.76 3.57v9.89l-.19.74c-.02.07-.04.15-.05.22 -.15-.04-.29-.09-.43-.15l-7.5-3.04c-.67-.27-1.1-.91-1.1-1.63V7.14l9.24 3.57ZM2.61 5.81l9.36 3.61L15.88 7.9 6.33 4.18 3.04 5.51c-.17.06-.33.16-.46.27Zm16.46 6.84l-5.91 5.9c-.35.34-.59.77-.71 1.24l-.46 1.83c-.2.79.52 1.51 1.31 1.31l1.83-.46c.47-.12.9-.37 1.24-.71l5.9-5.91c.89-.9.89-2.34 0-3.24 -.9-.9-2.34-.9-3.24 0Z"/></svg>