<svg viewBox="0 0 24 24" xmlns="http://www.w3.org/2000/svg"><path fill="currentColor" d="M13.4 2.51c-.91-.37-1.92-.37-2.82 0l-2.2.88 9.59 3.73 3.37-1.31c-.14-.12-.3-.21-.46-.28l-7.5-3.04Zm8.59 4.67l-9.26 3.57v10.92c.22-.05.44-.12.65-.2l7.49-3.04c.66-.27 1.09-.91 1.09-1.63V7.16Zm-10.76 3.57v10.01L9.4 18.93c.36-.74.57-1.57.57-2.46 0-3.04-2.47-5.5-5.5-5.5 -.91 0-1.75.21-2.5.59V7.15l9.24 3.57ZM2.61 5.81l9.36 3.61L15.88 7.9 6.33 4.18 3.04 5.51c-.17.06-.33.16-.46.27Zm1.86 15.17c.97 0 1.87-.31 2.6-.84l2.61 2.61c.29.29.76.29 1.06 0 .29-.3.29-.77 0-1.07l-2.62-2.62c.52-.74.83-1.64.83-2.61 0-2.49-2.02-4.5-4.5-4.5 -2.49 0-4.5 2.01-4.5 4.5 0 2.48 2.01 4.5 4.5 4.5Zm0-1.5c-1.66 0-3-1.35-3-3 0-1.66 1.34-3 3-3 1.65 0 3 1.34 3 3 0 1.65-1.35 3-3 3Z"/></svg>