<svg viewBox="0 0 24 24" xmlns="http://www.w3.org/2000/svg"><path fill="currentColor" d="M13.4 2.51c-.91-.37-1.92-.37-2.82 0l-2.2.88 9.59 3.73 3.37-1.31c-.14-.12-.3-.21-.46-.28l-7.5-3.04Zm8.59 4.67l-9.26 3.57v2.29c1.18-1.27 2.87-2.07 4.75-2.07 1.74 0 3.33.68 4.5 1.8V7.15Zm-10.76 3.57v4.94c-.17.56-.25 1.16-.25 1.79 0 .62.08 1.22.24 1.79v2.39c-.23-.05-.45-.12-.66-.2l-7.5-3.04c-.67-.27-1.1-.91-1.1-1.63V7.15l9.24 3.57ZM2.61 5.81l9.36 3.61L15.88 7.9 6.33 4.18 3.04 5.51c-.17.06-.33.16-.46.27Zm14.86 17.17c3.03 0 5.5-2.47 5.5-5.5 0-3.04-2.47-5.5-5.5-5.5 -3.04 0-5.5 2.46-5.5 5.5 0 3.03 2.46 5.5 5.5 5.5Zm2.64-7.86c.19-.2.51-.2.7 0 .19.19.19.51 0 .7l-4 4c-.2.19-.52.19-.71 0l-2-2c-.2-.2-.2-.52 0-.71 .19-.2.51-.2.7 0l1.64 1.64 3.64-3.65Z"/></svg>