<svg viewBox="0 0 24 24" xmlns="http://www.w3.org/2000/svg"><path fill="currentColor" d="M13.4 2.51c-.91-.37-1.92-.37-2.82 0l-2.2.88 9.59 3.73 3.37-1.31c-.14-.12-.3-.21-.46-.28l-7.5-3.04Zm8.59 4.67l-9.26 3.57v2.29c1.18-1.27 2.87-2.07 4.75-2.07 1.74 0 3.33.68 4.5 1.8V7.15Zm-10.76 8.51v-4.95L1.98 7.16v9.63c0 .71.43 1.35 1.09 1.62l7.49 3.04c.21.08.43.15.65.19v-2.4c-.17-.57-.25-1.17-.25-1.8 0-.63.08-1.23.24-1.8ZM2.61 5.8l9.36 3.61 3.917-1.52 -9.55-3.72L3.04 5.5c-.17.06-.33.16-.46.27Zm14.86 6.17c-3.04 0-5.5 2.46-5.5 5.5 0 3.03 2.46 5.5 5.5 5.5 3.03 0 5.5-2.47 5.5-5.5 0-3.04-2.47-5.5-5.5-5.5Zm-3.5 5.45l.01-.09 .02-.07 .03-.07 .03-.05 2.54-2.55 .06-.06c.19-.14.46-.12.63.05 .17.17.19.44.05.63l-.06.06 -1.65 1.64 5.29-.01 .08 0c.2.03.36.19.4.4l0 .08 -.01.08c-.04.2-.2.36-.41.4l-.09 0 -5.3 0 1.64 1.64 .05.06c.11.17.11.39 0 .56l-.06.06 -.07.05c-.18.11-.4.11-.57 0l-.07-.06 -2.52-2.52 -.05-.06 -.05-.08 -.04-.09 -.02-.07 -.01-.06 0-.06Z"/></svg>