<svg viewBox="0 0 24 24" xmlns="http://www.w3.org/2000/svg"><path fill="currentColor" d="M16.29 2.33c-.84-.32-1.77-.32-2.6 0L9.38 3.92c-.69.25-1.15.9-1.15 1.64v2.79c.8-.13 1.62-.05 2.39.23l4.3 1.59c.51.19.94.52 1.25.94 .41-.09.84-.13 1.28-.13 1.62 0 3.11.59 4.25 1.58V5.54c0-.74-.46-1.39-1.15-1.65l-4.31-1.6ZM11.75 7.2c-.4-.14-.6-.57-.47-.96 .13-.4.56-.6.95-.47l2.65.91c.05.01.11.01.16-.01l2.65-.92c.39-.14.81.07.95.46 .13.39-.08.81-.47.95l-2.66.91c-.38.12-.78.12-1.15 0l-2.66-.92Zm2.83 3.91c.2.07.38.18.53.31 -1.06.41-1.98 1.08-2.69 1.94 -.2-.17-.48-.23-.74-.14l-2.74.94 -2.75-.95c-.4-.14-.82.07-.96.46s.07.81.46.95l2.48.85v2.69c0 .41.33.75.75.75 .41 0 .75-.34.75-.75v-2.7l1.78-.62c-.35.79-.54 1.67-.54 2.59 0 1.29.38 2.5 1.03 3.52l-1.74.64c-.84.31-1.77.31-2.6 0l-4.31-1.6c-.69-.26-1.15-.91-1.15-1.65v-5.68c0-.74.45-1.39 1.14-1.65l4.3-1.6c.83-.32 1.76-.32 2.59 0l4.3 1.59Zm8.39 6.378c0 3.03-2.47 5.5-5.5 5.5 -3.04 0-5.5-2.47-5.5-5.5 0-3.04 2.46-5.5 5.5-5.5 3.03 0 5.5 2.46 5.5 5.5Zm-2.5.5c.27 0 .5-.23.5-.5 0-.28-.23-.5-.5-.5h-4.8l1.64-1.65c.19-.2.19-.52 0-.71 -.2-.2-.52-.2-.71 0l-2.5 2.5c-.2.19-.2.51 0 .7l2.5 2.5c.19.19.51.19.7 0 .19-.2.19-.52 0-.71l-1.65-1.65h4.79Z"/></svg>