<svg viewBox="0 0 24 24" xmlns="http://www.w3.org/2000/svg"><path fill="currentColor" d="M13.7 2.33c.83-.32 1.76-.32 2.59 0l4.3 1.59c.68.25 1.14.9 1.14 1.64v9.29c-.7-2.24-2.79-3.86-5.25-3.86 -.13 0-.26 0-.38.01 -.31-.37-.71-.66-1.17-.83l-4.31-1.6c-.78-.29-1.6-.37-2.4-.24v-2.8c0-.74.45-1.39 1.14-1.65l4.3-1.6Zm-2.4 3.92c-.14.39.07.81.46.95l2.65.91c.37.12.77.12 1.14-.01l2.65-.92c.39-.14.59-.57.46-.96 -.14-.4-.57-.6-.96-.47l-2.66.91c-.06.01-.12.01-.17 0l-2.66-.92c-.4-.14-.82.07-.96.46Zm3.56 4.99c-.09-.05-.18-.09-.27-.13l-4.31-1.6c-.84-.32-1.77-.32-2.6 0L3.37 11.1c-.69.25-1.15.9-1.15 1.64v5.67c0 .73.45 1.38 1.14 1.64l4.3 1.59c.83.31 1.76.31 2.59 0l2.63-.98c-1.19-1.01-1.94-2.52-1.94-4.2 0-.52.06-1.01.2-1.48l-1.46.5v2.69c0 .41-.34.75-.75.75 -.42 0-.75-.34-.75-.75v-2.7l-2.49-.86c-.4-.14-.6-.57-.47-.96 .13-.4.56-.6.95-.47l2.74.94 2.73-.95c.11-.05.23-.06.35-.04 .68-.93 1.65-1.63 2.78-1.98Zm5.29 7.86c.52-.74.83-1.64.83-2.61 0-2.49-2.02-4.5-4.5-4.5 -2.49 0-4.5 2.01-4.5 4.5 0 2.48 2.01 4.5 4.5 4.5 .97 0 1.87-.31 2.6-.84l2.61 2.61c.29.29.76.29 1.06 0 .29-.3.29-.77 0-1.07l-2.62-2.62Zm-.67-2.61c0 1.65-1.35 3-3 3 -1.66 0-3-1.35-3-3 0-1.66 1.34-3 3-3 1.65 0 3 1.34 3 3Z"/></svg>