<svg viewBox="0 0 24 24" xmlns="http://www.w3.org/2000/svg"><path fill="currentColor" d="M13.4 2.51c-.91-.37-1.92-.37-2.82 0l-2.2.88 9.59 3.73 3.37-1.31c-.14-.12-.3-.21-.46-.28l-7.5-3.04Zm8.59 4.67l-9.26 3.57v3.35c.08-.03.16-.05.25-.07v-.05c0-1.52 1.23-2.75 2.75-2.75h3.5c1.51 0 2.74 1.22 2.75 2.73v-6.8Zm-10.76 3.57v4.64c-.16.32-.25.69-.25 1.09v5c0 .04 0 .08 0 .12 -.14-.04-.28-.09-.42-.14l-7.5-3.04c-.67-.27-1.1-.91-1.1-1.63V7.15l9.24 3.57ZM2.61 5.81l9.36 3.61L15.88 7.9 6.33 4.18 3.04 5.51c-.17.06-.33.16-.46.27Zm11.36 9.17h-.5c-.83 0-1.5.67-1.5 1.5v1.5h2.5v-.25c0-.42.33-.75.75-.75 .41 0 .75.33.75.75v.25h3v-.25c0-.42.33-.75.75-.75 .41 0 .75.33.75.75v.25h2.5v-1.5c0-.83-.68-1.5-1.5-1.5h-.5v-1c0-.97-.79-1.75-1.75-1.75h-3.5c-.97 0-1.75.78-1.75 1.75v1Zm1.5-1c0-.14.11-.25.25-.25h3.5c.13 0 .25.11.25.25v1h-4v-1Zm-3.5 7.5v-2h2.5v.75c0 .41.33.75.75.75 .41 0 .75-.34.75-.75v-.75h3v.75c0 .41.33.75.75.75 .41 0 .75-.34.75-.75v-.75h2.5v2c0 .82-.68 1.5-1.5 1.5h-8c-.83 0-1.5-.68-1.5-1.5Z"/></svg>