<svg viewBox="0 0 24 24" xmlns="http://www.w3.org/2000/svg"><path fill="currentColor" d="M6 3C4.34 3 3 4.34 3 6v4.5c0 .41-.34.75-.75.75 -.42 0-.75.33-.75.75 0 .41.33.75.75.75 .41 0 .75.33.75.75V18c0 1.65 1.34 3 3 3 .41 0 .75-.34.75-.75 0-.42-.34-.75-.75-.75 -.83 0-1.5-.68-1.5-1.5v-4.5c0-.58-.22-1.11-.58-1.5 .35-.4.57-.93.57-1.5V6c0-.83.67-1.5 1.5-1.5 .41 0 .75-.34.75-.75 0-.42-.34-.75-.75-.75Zm12 0c1.65 0 3 1.34 3 3v4.5c0 .41.33.75.75.75 .41 0 .75.33.75.75 0 .41-.34.75-.75.75 -.42 0-.75.33-.75.75V18c0 1.65-1.35 3-3 3 -.42 0-.75-.34-.75-.75 0-.42.33-.75.75-.75 .82 0 1.5-.68 1.5-1.5v-4.5c0-.58.21-1.11.57-1.5 -.36-.4-.58-.93-.58-1.5V6c0-.83-.68-1.5-1.5-1.5 -.42 0-.75-.34-.75-.75 0-.42.33-.75.75-.75Zm-6 15c3.31 0 6-2.69 6-6 0-3.32-2.69-6-6-6 -3.32 0-6 2.68-6 6 0 3.31 2.68 6 6 6Zm1.71-8.04c.29-.3.76-.3 1.06 0 .29.29.29.76 0 1.06l-3 3c-.15.14-.34.21-.54.21s-.39-.08-.54-.22l-1.51-1.5c-.3-.3-.3-.77 0-1.07 .29-.3.76-.3 1.06 0l.96.96 2.46-2.47Z"/></svg>