<svg viewBox="0 0 24 24" xmlns="http://www.w3.org/2000/svg"><path fill="currentColor" d="M3 6c0-1.66 1.34-3 3-3 .55 0 1 .44 1 1 0 .55-.45 1-1 1 -.56 0-1 .44-1 1v3.93c0 .78-.31 1.51-.83 2.06 .51.54.82 1.27.82 2.06v3.93c0 .55.44 1 1 1 .55 0 1 .44 1 1 0 .55-.45 1-1 1 -1.66 0-3-1.35-3-3v-3.94c0-.46-.32-.86-.76-.98l-.49-.13c-.45-.12-.76-.52-.76-.98 0-.46.31-.86.75-.98l.48-.13c.44-.12.75-.52.75-.98V5.92Zm18 0c0-1.66-1.35-3-3-3 -.56 0-1 .44-1 1 0 .55.44 1 1 1 .55 0 1 .44 1 1v3.93c0 .78.3 1.51.82 2.06 -.52.54-.83 1.27-.83 2.06v3.93c0 .55-.45 1-1 1 -.56 0-1 .44-1 1 0 .55.44 1 1 1 1.65 0 3-1.35 3-3v-3.94c0-.46.31-.86.75-.98l.48-.13c.44-.12.75-.52.75-.98 0-.46-.32-.86-.76-.98l-.49-.13c-.45-.12-.76-.52-.76-.98V5.92Zm-11.72.88c-.34-.44-.97-.52-1.41-.18 -.44.33-.52.96-.18 1.4l3.02 3.88 -3.03 3.88c-.34.43-.27 1.06.17 1.4 .43.33 1.06.26 1.4-.18l2.71-3.49 2.71 3.48c.33.43.96.51 1.4.17 .43-.34.51-.97.17-1.41l-3.03-3.89 3.02-3.89c.33-.44.26-1.07-.18-1.41 -.44-.34-1.07-.27-1.41.17l-2.72 3.48L9.2 6.8Z"/></svg>