<svg viewBox="0 0 24 24" xmlns="http://www.w3.org/2000/svg"><path fill="currentColor" d="M4 6c0-1.66 1.34-3 3-3 .55 0 1 .44 1 1 0 .55-.45 1-1 1 -.56 0-1 .44-1 1v3.93c0 .78-.31 1.51-.83 2.06 .51.54.82 1.27.82 2.06v3.93c0 .55.44 1 1 1 .55 0 1 .44 1 1 0 .55-.45 1-1 1 -1.66 0-3-1.35-3-3v-3.94c0-.46-.32-.86-.76-.98l-.49-.13c-.45-.12-.76-.52-.76-.98 0-.46.31-.86.75-.98l.48-.13c.44-.12.75-.52.75-.98V5.92Zm16 0c0-1.66-1.35-3-3-3 -.56 0-1 .44-1 1 0 .55.44 1 1 1 .55 0 1 .44 1 1v3.93c0 .78.3 1.51.82 2.06 -.52.54-.83 1.27-.83 2.06v3.93c0 .55-.45 1-1 1 -.56 0-1 .44-1 1 0 .55.44 1 1 1 1.65 0 3-1.35 3-3v-3.94c0-.46.31-.86.75-.98l.48-.13c.44-.12.75-.52.75-.98 0-.46-.32-.86-.76-.98l-.49-.13c-.45-.12-.76-.52-.76-.98V5.92Z"/></svg>