<svg viewBox="0 0 24 24" xmlns="http://www.w3.org/2000/svg"><path fill="currentColor" d="M10.13 2c.7 0 1.11.7 1.11 1.41v4.33h-.9c-.3-.74-1.02-1.25-1.86-1.25 -1.11 0-2 .89-2 2 0 1.1.89 2 2 2 .83 0 1.55-.52 1.85-1.26h.89v10.89c0 .59-.26 1.189-.79 1.46 -.46.23-.98.38-1.56.38 -1.52 0-2.64-.77-3.36-1.67 -.54-.67-.88-1.45-1.02-2.14 -.41-.12-.86-.34-1.27-.69 -.72-.61-1.27-1.6-1.27-3.04 0-.76.05-1.42.18-1.97h4.21c.67 0 1.23.5 1.33 1.15 -.73.3-1.24 1.01-1.24 1.84 0 1.1.89 2 2 2 1.1 0 2-.9 2-2 0-.85-.53-1.57-1.26-1.86 -.11-1.48-1.34-2.65-2.85-2.65H2.95c.13-.11.27-.2.42-.28 .02-.02.04-.03.06-.03 -.11-.37-.17-.76-.18-1.13 -.04-.74.07-1.51.29-2.19 .21-.68.55-1.33 1.03-1.78 .3-.29.67-.5 1.09-.57 .19-.84.7-1.54 1.35-2.04 .83-.65 1.91-1.01 3-1.01Zm2.61 14.99h1.65c1.57 0 2.85-1.28 2.85-2.85v-1.8c.73-.3 1.25-1.02 1.25-1.86 0-1.11-.9-2-2-2 -1.11 0-2 .89-2 2 0 .83.51 1.55 1.25 1.85v1.79c0 .74-.61 1.35-1.35 1.35h-1.65v-7c0-.01 0-.01 0-.01 0-.01 0-.01 0-.01V3.37c0-.71.4-1.42 1.11-1.42 1.08 0 2.16.35 3 1 .64.5 1.15 1.19 1.35 2.03 .42.06.79.28 1.09.56 .48.45.82 1.1 1.03 1.77 .21.68.32 1.44.29 2.18 -.02.37-.08.75-.18 1.12 .02 0 .04.01.06.02 .37.17.66.44.89.81 .42.68.57 1.67.57 2.92 0 1.44-.56 2.42-1.27 3.03 -.42.35-.87.57-1.27.68 -.14.69-.49 1.47-1.02 2.13 -.73.9-1.85 1.66-3.36 1.66 -.59 0-1.11-.16-1.56-.39 -.54-.28-.79-.87-.79-1.47v-3.15Zm-4.75-8.5c0-.28.22-.5.5-.5 .27 0 .5.22.5.5 0 .27-.23.5-.5.5 -.28 0-.5-.23-.5-.5Zm.5 6.5c-.28 0-.5.22-.5.5 0 .27.22.5.5.5 .27 0 .5-.23.5-.5 0-.28-.23-.5-.5-.5Zm7.5-4.5c0 .27.22.5.5.5 .27 0 .5-.23.5-.5 0-.28-.23-.5-.5-.5 -.28 0-.5.22-.5.5Z"/></svg>