<svg viewBox="0 0 24 24" xmlns="http://www.w3.org/2000/svg"><path fill="currentColor" d="M6.5 2C4.56 2 3 3.56 3 5.5c0 1.58 1.05 2.92 2.5 3.35v5.39c0 .41.33.75.75.75 .41 0 .75-.34.75-.75v-1.25h6.25c2.07 0 3.75-1.68 3.75-3.75v-.29c1.69-.25 3-1.71 3-3.47 0-1.94-1.57-3.5-3.5-3.5 -1.94 0-3.5 1.56-3.5 3.5 0 1.58 1.05 2.92 2.5 3.35v.39c0 1.24-1.01 2.25-2.25 2.25H7V8.93c1.69-.25 3-1.71 3-3.47 0-1.94-1.57-3.5-3.5-3.5ZM5.34 16.88c.33-.25.41-.71.17-1.05 -.25-.34-.71-.42-1.05-.18 -.16.11-.31.23-.45.37 -.36.35-.62.77-.8 1.21 -.15.38.04.82.43.96 .38.14.82-.05.96-.44 .09-.26.24-.49.45-.7 .07-.08.16-.16.25-.22Zm3.18-1.23c-.34-.25-.81-.17-1.05.17 -.25.33-.17.8.17 1.04 .08.06.17.13.25.21 .2.2.35.44.45.69 .14.38.58.57.96.43 .38-.15.57-.59.43-.97 -.18-.45-.44-.86-.8-1.22 -.14-.14-.29-.27-.45-.38ZM4.76 19.5c-.21-.36-.67-.48-1.03-.27 -.36.2-.48.66-.27 1.02 .14.25.32.48.54.7 .27.27.59.5.92.66 .37.18.82.02 1-.35 .18-.38.02-.83-.35-1.01 -.2-.1-.38-.23-.54-.39 -.13-.13-.23-.26-.32-.41Zm4.74.75c.2-.36.08-.82-.27-1.03 -.36-.21-.82-.09-1.03.26 -.09.14-.19.27-.32.4 -.17.16-.34.28-.54.38 -.38.18-.53.63-.35 1 .18.37.63.52 1 .34 .33-.17.65-.39.92-.67 .21-.22.39-.46.54-.71Z"/></svg>