<svg viewBox="0 0 24 24" xmlns="http://www.w3.org/2000/svg"><path fill="currentColor" d="M9 5.5c0 1.76-1.31 3.22-3 3.46v6.03c0 1.65 1.34 3 3 3h2.68l-.97-.97c-.3-.3-.3-.77 0-1.07 .29-.3.76-.3 1.06 0l2.25 2.25c.29.29.29.76 0 1.06l-2.25 2.25c-.3.29-.77.29-1.07 0 -.3-.3-.3-.77 0-1.07l.96-.97H8.97c-2.49 0-4.5-2.02-4.5-4.5V8.84l0-.02c-1.45-.44-2.51-1.77-2.51-3.36 0-1.94 1.56-3.5 3.5-3.5 1.93 0 3.5 1.56 3.5 3.5Zm13 13c0 1.93-1.57 3.5-3.5 3.5 -1.94 0-3.5-1.57-3.5-3.5 0-1.77 1.3-3.23 3-3.47V8.99c0-1.66-1.35-3-3-3h-1.94l.96.96c.29.29.29.76 0 1.06 -.3.29-.77.29-1.07 0L10.7 5.76c-.3-.3-.3-.77 0-1.07l2.25-2.25c.29-.3.76-.3 1.06 0 .29.29.29.76 0 1.06l-.97.96h1.93c2.48 0 4.5 2.01 4.5 4.5v6.125l-.01.01c1.44.43 2.5 1.76 2.5 3.35Z"/></svg>