<svg viewBox="0 0 24 24" xmlns="http://www.w3.org/2000/svg"><path fill="currentColor" d="M19.5 15.07V8.24c0-2.07-1.68-3.75-3.75-3.75h-2.69l1.71-1.73c.3-.29.3-.77 0-1.05 -.29-.3-.77-.3-1.05 0l-3 3c-.3.28-.3.76 0 1.05l3 3c.28.3.76.3 1.05 0 .3-.29.3-.77 0-1.05l-1.71-1.73h2.68c1.24 0 2.25 1.005 2.25 2.25v6.82c-1.71.34-3 1.86-3 3.67 0 2.07 1.68 3.75 3.75 3.75 2.07 0 3.75-1.68 3.75-3.75 0-1.82-1.29-3.33-3-3.68ZM9 5.24c0-2.07-1.68-3.75-3.75-3.75 -2.07 0-3.75 1.68-3.75 3.75 0 1.81 1.29 3.33 3 3.67v6.15c-1.71.34-3 1.86-3 3.67 0 2.06 1.68 3.75 3.75 3.75 2.06 0 3.75-1.69 3.75-3.75 0-1.82-1.29-3.33-3-3.68V8.89c1.71-.35 3-1.86 3-3.68Z"/></svg>