<svg viewBox="0 0 24 24" xmlns="http://www.w3.org/2000/svg"><path fill="currentColor" d="M5.13 6.19c-1.25.45-2.14 1.65-2.14 3.05v1.5c0 .96.78 1.75 1.75 1.75h5.25v-.5c0-.27.09-.5.26-.68l3.41 3.41c-.18.16-.42.26-.68.26h-2c-.56 0-1-.45-1-1H4.73c-.65 0-1.25-.19-1.75-.52v3.26c0 1.79 1.45 3.25 3.25 3.25h11.5c.35 0 .7-.06 1.02-.17l1.94 1.94c.29.29.76.29 1.06 0 .29-.3.29-.77 0-1.07L3.25 2.16c-.3-.3-.77-.3-1.07-.01 -.3.29-.3.76-.01 1.06l2.91 2.91Zm12.04 7.8l3.68 3.68c.08-.3.13-.61.13-.94v-3.27c-.51.32-1.11.51-1.75.51h-2.07ZM7.98 4.8l7.68 7.68h3.56c.96 0 1.75-.79 1.75-1.75v-1.5c0-1.8-1.46-3.25-3.25-3.25h-1.75V4.23c0-1.25-1.01-2.25-2.25-2.25h-3.5c-1.25 0-2.25 1-2.25 2.25v.56Zm2.25-1.32h3.5c.41 0 .75.33.75.75v1.75h-5V4.23c0-.42.33-.75.75-.75Z"/></svg>