<svg viewBox="0 0 24 24" xmlns="http://www.w3.org/2000/svg"><path fill="currentColor" d="M10.25 3.5h3.5c.41 0 .75.33.75.75V6h-5V4.25c0-.42.33-.75.75-.75ZM8 4.25V6H6.25C4.45 6 3 7.45 3 9.25v1.34c.75-.39 1.59-.6 2.5-.6 1.86 0 3.5.92 4.5 2.33v-.34c0-.56.44-1 1-1h2c.55 0 1 .44 1 1v.5h5.25c.96 0 1.75-.79 1.75-1.75v-1.5c0-1.8-1.46-3.25-3.25-3.25H16V4.23c0-1.25-1.01-2.25-2.25-2.25h-3.5C9 1.98 8 2.98 8 4.23ZM17.75 20h-5.28l-2.05-2.05c.36-.74.57-1.57.57-2.46 0-.17-.01-.34-.03-.51l.02 0h2c.55 0 1-.45 1-1h5.25c.64 0 1.24-.19 1.75-.52v3.26c0 1.79-1.46 3.25-3.25 3.25ZM5.5 20c.97 0 1.87-.31 2.6-.84l2.61 2.61c.29.29.76.29 1.06 0 .29-.3.29-.77 0-1.07l-2.62-2.62c.52-.74.83-1.64.83-2.61 0-2.49-2.02-4.5-4.5-4.5 -2.49 0-4.5 2.01-4.5 4.5 0 2.48 2.01 4.5 4.5 4.5Zm0-1.5c-1.66 0-3-1.35-3-3 0-1.66 1.34-3 3-3 1.65 0 3 1.34 3 3 0 1.65-1.35 3-3 3Z"/></svg>