<svg viewBox="0 0 24 24" xmlns="http://www.w3.org/2000/svg"><path fill="currentColor" d="M10.25 3.5h3.5c.41 0 .75.33.75.75V6h-5V4.25c0-.42.33-.75.75-.75ZM8 4.25V6H6.25C4.45 6 3 7.45 3 9.25v1.5c0 .96.78 1.75 1.75 1.75H10V12c0-.56.44-1 1-1h2c.55 0 1 .44 1 1v.5h5.25c.96 0 1.75-.79 1.75-1.75v-1.5C21 7.45 19.54 6 17.75 6H16V4.25C16 3 14.99 2 13.75 2h-3.5C9 2 8 3 8 4.25Zm13 9.23c-.51.32-1.11.51-1.75.51H14c0 .55-.45 1-1 1h-2c-.56 0-1-.45-1-1H4.75c-.65 0-1.25-.19-1.75-.52v3.26c0 1.79 1.45 3.25 3.25 3.25h11.5c1.79 0 3.25-1.46 3.25-3.25v-3.27Z"/></svg>