<svg viewBox="0 0 24 24" xmlns="http://www.w3.org/2000/svg"><path fill="currentColor" d="M10.25 3.5h3.5c.41 0 .75.33.75.75V6h-5V4.25c0-.42.33-.75.75-.75ZM8 4.25V6H6.25C4.45 6 3 7.45 3 9.25v7.5C3 18.54 4.45 20 6.25 20h11.5c1.79 0 3.25-1.46 3.25-3.25v-7.5C21 7.45 19.54 6 17.75 6H16V4.25C16 3 14.99 2 13.75 2h-3.5C9 2 8 3 8 4.25Zm3.5 6.5c0-.42.33-.75.75-.75 .41 0 .75.33.75.75v1.75h1.75c.41 0 .75.33.75.75 0 .41-.34.75-.75.75H13v1.75c0 .41-.34.75-.75.75 -.42 0-.75-.34-.75-.75V14H9.75c-.42 0-.75-.34-.75-.75 0-.42.33-.75.75-.75h1.75v-1.75Z"/></svg>