<svg viewBox="0 0 24 24" xmlns="http://www.w3.org/2000/svg"><path fill="currentColor" d="M8 6V4.25C8 3 9 2 10.25 2h3.5C14.99 2 16 3 16 4.25V6h1.75C19.54 6 21 7.45 21 9.25v1.5c0 .62-.34 1.17-.83 1.48 -.65-.76-1.61-1.24-2.68-1.24 -1.19 0-2.25.59-2.88 1.5h-.63v-.5c0-.56-.45-1-1-1h-2c-.56 0-1 .44-1 1v.5H4.73c-.97 0-1.75-.79-1.75-1.75v-1.5c0-1.8 1.45-3.25 3.25-3.25h1.75Zm5.75-2.5h-3.5c-.42 0-.75.33-.75.75V6h5V4.25c0-.42-.34-.75-.75-.75Zm.28 10.5h-.04c0 .55-.45 1-1 1h-2c-.56 0-1-.45-1-1H4.74c-.65 0-1.25-.19-1.75-.52v3.26c0 1.79 1.45 3.25 3.25 3.25h5.75c-.01-.05-.01-.09-.01-.125v-.11c0-1.54 1.24-2.78 2.77-2.78h.27c-.65-.64-1.06-1.53-1.06-2.5 0-.17.01-.34.03-.5Zm5.96.5c0 1.38-1.12 2.5-2.5 2.5 -1.39 0-2.5-1.12-2.5-2.5 0-1.39 1.11-2.5 2.5-2.5 1.38 0 2.5 1.11 2.5 2.5Zm2 5.375c0 1.55-1.29 3.125-4.5 3.125 -3.22 0-4.5-1.57-4.5-3.125v-.11c0-.98.79-1.78 1.77-1.78h5.45c.97 0 1.77.79 1.77 1.77v.1Z"/></svg>