<svg viewBox="0 0 24 24" xmlns="http://www.w3.org/2000/svg"><path fill="currentColor" d="M12.75 2.75c0-.42-.34-.75-.75-.75 -.42 0-.75.33-.75.75v1.5c0 .41.33.75.75.75 .41 0 .75-.34.75-.75v-1.5ZM17 12c0 2.76-2.24 5-5 5 -2.77 0-5-2.24-5-5 0-2.77 2.23-5 5-5 2.76 0 5 2.23 5 5Zm-1.5 0c0-1.94-1.57-3.5-3.5-3.5v7c1.93 0 3.5-1.57 3.5-3.5Zm6.5 0c0 .41-.34.75-.75.75h-1.5c-.42 0-.75-.34-.75-.75 0-.42.33-.75.75-.75h1.5c.41 0 .75.33.75.75Zm-9.25 7.75c0-.42-.34-.75-.75-.75 -.42 0-.75.33-.75.75v1.5c0 .41.33.75.75.75 .41 0 .75-.34.75-.75v-1.5ZM5 12c0 .41-.34.75-.75.75h-1.5c-.42 0-.75-.34-.75-.75 0-.42.33-.75.75-.75h1.5c.41 0 .75.33.75.75Zm.28-7.78c-.3-.3-.77-.3-1.07 0 -.3.29-.3.76 0 1.06l1.5 1.5c.29.29.76.29 1.06 0 .29-.3.29-.77 0-1.07l-1.5-1.5ZM4.21 19.78c.29.29.76.29 1.06 0l1.5-1.5c.29-.3.29-.77 0-1.07 -.3-.3-.77-.3-1.07 0l-1.5 1.5c-.3.29-.3.76 0 1.06Zm14.5-15.57c.29-.3.76-.3 1.06-.001 .29.29.29.76 0 1.06l-1.5 1.5c-.3.29-.77.29-1.07 0 -.3-.3-.3-.77 0-1.07l1.5-1.5Zm1.06 15.56c-.3.29-.77.29-1.07 0l-1.5-1.5c-.3-.3-.3-.77 0-1.07 .29-.3.76-.3 1.06 0l1.5 1.5c.29.29.29.76 0 1.06Z"/></svg>