<svg viewBox="0 0 24 24" xmlns="http://www.w3.org/2000/svg"><path fill="currentColor" d="M22.79 5.4c0 2.31-1.89 4.2-4.2 4.2 -2.32 0-4.2-1.89-4.2-4.2 0-2.32 1.88-4.2 4.2-4.2 2.31 0 4.2 1.88 4.2 4.2Zm-11.8 13.31c.55 1.67 2.12 2.88 3.99 2.88 2.31 0 4.2-1.89 4.2-4.2 0-2.16-1.62-3.93-3.71-4.18 -.44 2.51-2.17 4.58-4.49 5.48Zm3.39-6.72c0 3.31-2.69 6-6 6 -3.32 0-6-2.69-6-6 0-3.32 2.68-6 6-6 3.31 0 6 2.68 6 5.99Zm-5.97-3c-.12.31.05.65.36.76 .85.3 1.52.97 1.82 1.82 .11.31.45.47.76.36 .31-.12.47-.46.36-.77 -.43-1.2-1.37-2.14-2.57-2.56 -.32-.12-.66.05-.77.36Z"/></svg>