<svg viewBox="0 0 24 24" xmlns="http://www.w3.org/2000/svg"><g fill="currentColor"><path d="M17.39 12c-1.44 0-2.81.56-3.82 1.58 -1.02 1.01-1.59 2.38-1.59 3.81 0 .7.13 1.41.41 2.06 .27.65.66 1.25 1.17 1.75 1.01 1.01 2.38 1.58 3.81 1.58 .7 0 1.41-.14 2.06-.42 .65-.28 1.25-.67 1.75-1.18 .5-.51.89-1.1 1.17-1.76 .27-.66.41-1.36.41-2.07 0-1.44-.57-2.81-1.59-3.82 -1.02-1.02-2.39-1.59-3.82-1.59Zm-4.2 5.4c0-1.12.44-2.19 1.23-2.97 .78-.79 1.85-1.24 2.96-1.24 .9-.01 1.79.29 2.52.84l-5.88 5.88c-.55-.73-.85-1.62-.84-2.52Zm4.2 4.2c-.91 0-1.8-.3-2.52-.84l5.88-5.88c.54.72.84 1.61.84 2.52 0 1.11-.45 2.18-1.24 2.96 -.79.78-1.86 1.23-2.97 1.23Zm3-17.41c0-.16-.07-.32-.18-.43 -.12-.12-.27-.18-.43-.18 -.16 0-.32.06-.43.17 -.12.11-.18.26-.18.42v2.4c0 .47-.19.93-.53 1.27 -.34.33-.8.52-1.28.52h-.6c0-.82-.28-1.61-.78-2.24 -.51-.64-1.21-1.09-2-1.27 .24-.39.37-.84.37-1.3v-.6c0-.16-.07-.32-.18-.43 -.12-.12-.27-.18-.43-.18 -.16 0-.32.06-.43.17 -.12.11-.18.26-.18.42v.6c0 .31-.13.62-.36.84 -.23.22-.54.35-.85.35 -.32 0-.63-.13-.85-.36 -.23-.23-.36-.54-.36-.85v-.6c0-.16-.07-.32-.18-.43 -.12-.12-.27-.18-.43-.18 -.16 0-.32.06-.43.17 -.12.11-.18.26-.18.42v.6c-.01.45.13.9.37 1.29 -.8.18-1.5.63-2 1.26 -.51.63-.78 1.42-.78 2.23h-.6c-.48 0-.94-.19-1.28-.53 -.34-.34-.53-.8-.53-1.28v-2.4c0-.16-.07-.32-.18-.43 -.12-.12-.27-.18-.43-.18 -.16 0-.32.06-.43.17 -.12.11-.18.26-.18.42v2.4c0 .79.31 1.55.87 2.12 .56.56 1.32.87 2.12.87h.6v1.8h-4.2c-.16 0-.32.06-.43.17 -.12.11-.18.26-.18.42 0 .15.06.31.17.42 .11.11.26.17.42.17h4.2v1.8h-.6c-.8 0-1.56.31-2.13.87 -.57.56-.88 1.32-.88 2.12v2.4c0 .15.06.31.17.42 .11.11.26.17.42.17 .15 0 .31-.07.42-.18 .11-.12.17-.27.17-.43v-2.4c0-.48.18-.94.52-1.28 .33-.34.79-.53 1.27-.53h.6c0 1.18.44 2.32 1.23 3.2 .79.87 1.88 1.42 3.06 1.54 -.47-.92-.71-1.93-.71-2.95 0-1.65.61-3.24 1.72-4.45 1.1-1.22 2.63-1.98 4.27-2.13V9.34h.6c.79 0 1.55-.32 2.12-.88 .56-.57.87-1.33.87-2.13v-2.4Z"/><path d="M17.39 11.85c-1.48 0-2.89.58-3.93 1.62 -1.05 1.04-1.63 2.45-1.63 3.92 0 .72.14 1.45.42 2.12 .27.67.68 1.28 1.2 1.8 1.04 1.04 2.45 1.62 3.92 1.62 .72 0 1.45-.15 2.12-.43 .67-.28 1.28-.69 1.8-1.21 .51-.52.92-1.13 1.2-1.81 .27-.68.42-1.4.42-2.13 0-1.48-.59-2.89-1.63-3.93 -1.05-1.05-2.46-1.63-3.93-1.63Zm0 .3c1.39 0 2.72.55 3.71 1.53 .98.98 1.53 2.31 1.53 3.71 0 .68-.14 1.37-.4 2 -.27.63-.66 1.21-1.14 1.7 -.49.48-1.07.87-1.71 1.13 -.64.26-1.32.39-2.01.39 -1.4 0-2.73-.56-3.72-1.54 -.49-.49-.88-1.07-1.14-1.71 -.27-.64-.4-1.32-.4-2.01 0-1.4.55-2.73 1.53-3.72 .98-.99 2.31-1.54 3.71-1.54Zm-4.05 5.25c0-1.08.42-2.11 1.18-2.87 .75-.76 1.78-1.19 2.86-1.19 .87-.01 1.72.28 2.42.8l-.02-.23 -5.88 5.88 .22.01c-.53-.71-.82-1.56-.81-2.43Zm-.3-.01c-.01.94.3 1.85.87 2.61l.1.13 .12-.13 5.88-5.88 .12-.13 -.14-.11c-.76-.57-1.67-.88-2.62-.88 -1.16-.01-2.26.45-3.08 1.27 -.82.81-1.28 1.92-1.28 3.07Zm4.34 4.05c-.88 0-1.73-.29-2.43-.81l.01.22 5.88-5.88 -.23-.02c.52.7.81 1.55.8 2.42 -.01 1.07-.43 2.1-1.19 2.86 -.76.75-1.79 1.18-2.87 1.18Zm0 .29c1.15 0 2.26-.46 3.07-1.28 .81-.82 1.27-1.93 1.27-3.08 0-.95-.31-1.86-.88-2.62l-.11-.14 -.13.12 -5.88 5.88 -.13.12 .13.1c.75.56 1.66.87 2.61.87Zm3.15-17.56c0-.2-.08-.39-.22-.54 -.15-.15-.34-.22-.54-.22s-.39.07-.54.21c-.15.14-.22.33-.22.53v2.4c0 .43-.18.85-.49 1.16 -.31.3-.73.48-1.17.48h-.6l.14.15c0-.85-.29-1.67-.82-2.34 -.53-.67-1.26-1.13-2.09-1.33l.09.22c.26-.42.4-.89.4-1.38l0-.6c0-.2-.08-.39-.22-.54 -.15-.15-.34-.22-.54-.22s-.39.07-.54.21c-.15.14-.22.33-.22.53v.6c0 .27-.12.54-.31.74 -.2.19-.47.3-.75.3s-.55-.12-.75-.31c-.2-.2-.31-.47-.31-.75v-.6c0-.2-.08-.39-.22-.54 -.15-.15-.34-.22-.54-.22s-.39.07-.54.21c-.15.14-.22.33-.22.53v.6c-.01.48.13.96.4 1.37l.09-.23c-.83.19-1.56.65-2.09 1.32 -.53.66-.82 1.48-.82 2.33l.14-.16h-.6c-.44 0-.86-.18-1.17-.49 -.31-.31-.49-.73-.49-1.17v-2.4c0-.2-.08-.39-.22-.54 -.15-.15-.34-.22-.54-.22s-.39.07-.54.21c-.15.14-.22.33-.22.53v2.4c0 .83.33 1.63.92 2.22 .59.59 1.39.92 2.22.92h.6l-.15-.15v1.8l.15-.15h-4.2c-.2 0-.39.07-.54.21 -.15.14-.22.33-.22.53 0 .19.07.38.21.53 .14.14.33.21.53.21h4.2l-.15-.15v1.8l.15-.15h-.6c-.84 0-1.64.33-2.23.92 -.6.59-.93 1.39-.93 2.22v2.4c0 .19.07.38.21.53 .14.14.33.21.53.21 .19 0 .38-.08.53-.22 .14-.15.21-.34.21-.54v-2.4c0-.44.17-.86.48-1.17 .3-.31.72-.49 1.16-.49h.6l-.15-.15c0 1.22.45 2.39 1.27 3.3 .82.9 1.94 1.47 3.16 1.59l.27.02 -.13-.25c-.46-.9-.69-1.89-.69-2.89 0-1.61.6-3.16 1.68-4.35 1.08-1.19 2.57-1.93 4.17-2.08l.13-.15V9.28l-.15.15h.6c.83 0 1.63-.34 2.22-.93 .59-.6.92-1.4.92-2.23v-2.4Zm-.3-.001v2.4c0 .75-.31 1.48-.84 2.01 -.54.53-1.26.83-2.02.83h-.6l-.15.15v1.23l.13-.15c-1.68.15-3.24.92-4.37 2.17 -1.14 1.24-1.77 2.86-1.77 4.54 0 1.04.24 2.08.72 3.01l.14-.22c-1.15-.12-2.2-.65-2.97-1.5 -.78-.85-1.2-1.96-1.21-3.11l-.15-.15h-.6c-.52 0-1.02.2-1.38.57 -.37.36-.58.86-.58 1.37v2.4c0 .11-.05.23-.14.31 -.09.08-.2.13-.32.13s-.24-.05-.32-.14c-.09-.09-.14-.2-.14-.32v-2.4c0-.76.3-1.49.83-2.02 .53-.54 1.25-.84 2.01-.84h.6l.15-.15v-1.8l-.15-.15H2.9c-.12 0-.24-.05-.32-.14 -.09-.09-.14-.2-.14-.32s.04-.24.13-.32c.08-.09.19-.14.31-.14h4.2l.15-.15V9.45l-.15-.15h-.6c-.76 0-1.49-.31-2.02-.84 -.54-.54-.84-1.26-.84-2.02v-2.4c0-.12.04-.24.13-.32 .08-.09.19-.14.31-.14 .11 0 .23.04.31.13 .08.08.13.19.13.31v2.4c0 .51.2 1.01.57 1.37 .36.36.86.57 1.37.57h.6l.14-.16c-.01-.78.26-1.54.74-2.15 .48-.62 1.15-1.04 1.91-1.22l.2-.05 -.12-.18c-.24-.37-.36-.79-.36-1.22l0-.61c0-.12.04-.24.13-.32 .08-.09.19-.14.31-.14 .11 0 .23.04.31.13 .08.08.13.19.13.31v.6c0 .35.14.7.39.95s.59.39.95.39c.35 0 .7-.15.95-.4 .25-.26.39-.6.39-.96v-.6c0-.12.04-.24.13-.32 .08-.09.19-.14.31-.14 .11 0 .23.04.31.13 .08.08.13.19.13.31v.6c0 .42-.13.85-.36 1.21l-.12.17 .2.04c.75.17 1.43.6 1.91 1.21 .48.6.74 1.36.74 2.14l.14.15h.6c.51 0 1.01-.21 1.37-.58 .36-.37.57-.87.57-1.38v-2.4c0-.12.04-.24.13-.32 .08-.09.19-.14.31-.14 .11 0 .23.04.31.13 .08.08.13.19.13.31Z"/></g></svg>