<svg viewBox="0 0 24 24" xmlns="http://www.w3.org/2000/svg"><g fill="currentColor"><path d="M20.39 4.19c0-.16-.07-.32-.18-.43 -.12-.12-.27-.18-.43-.18 -.16 0-.32.06-.43.17 -.12.11-.18.26-.18.42v2.4c0 .47-.19.93-.53 1.27 -.34.33-.8.52-1.28.52h-.6c0-.82-.28-1.61-.78-2.24 -.51-.64-1.21-1.09-2-1.27 .24-.39.37-.84.37-1.3v-.6c0-.16-.07-.32-.18-.43 -.12-.12-.27-.18-.43-.18 -.16 0-.32.06-.43.17 -.12.11-.18.26-.18.42v.6c0 .31-.13.62-.36.84 -.23.22-.54.35-.85.35 -.32 0-.63-.13-.85-.36 -.23-.23-.36-.54-.36-.85v-.6c0-.16-.07-.32-.18-.43 -.12-.12-.27-.18-.43-.18 -.16 0-.32.06-.43.17 -.12.11-.18.26-.18.42v.6c-.01.45.13.9.37 1.29 -.8.18-1.5.63-2 1.26 -.51.63-.78 1.42-.78 2.23h-.6c-.48 0-.94-.19-1.28-.53 -.34-.34-.53-.8-.53-1.28v-2.4c0-.16-.07-.32-.18-.43 -.12-.12-.27-.18-.43-.18 -.16 0-.32.06-.43.17 -.12.11-.18.26-.18.42v2.4c0 .79.31 1.55.87 2.12 .56.56 1.32.87 2.12.87h.6v1.8h-4.2c-.16 0-.32.06-.43.17 -.12.11-.18.26-.18.42 0 .15.06.31.17.42 .11.11.26.17.42.17h4.2v1.8h-.6c-.8 0-1.56.31-2.13.87 -.57.56-.88 1.32-.88 2.12v2.4c0 .15.06.31.17.42 .11.11.26.17.42.17 .15 0 .31-.07.42-.18 .11-.12.17-.27.17-.43v-2.4c0-.48.18-.94.52-1.28 .33-.34.79-.53 1.27-.53h.6c0 1.18.44 2.32 1.23 3.2 .79.87 1.88 1.42 3.06 1.54 -.49-.96-.73-2.03-.71-3.1 .02-1.08.3-2.13.82-3.07s1.26-1.74 2.16-2.33c.9-.59 1.93-.95 3-1.04V9.33h.6c.79 0 1.55-.32 2.12-.88 .56-.57.87-1.33.87-2.13v-2.4Zm-3 7.8c-1.07 0-2.12.31-3.01.91 -.89.59-1.59 1.43-1.99 2.42 -.41.98-.52 2.07-.31 3.12 .2 1.04.72 2 1.47 2.76 .75.75 1.71 1.26 2.76 1.47 1.04.2 2.13.1 3.12-.31 .98-.41 1.83-1.11 2.42-1.99 .59-.89.91-1.94.91-3.01 0-.71-.14-1.42-.42-2.07 -.28-.66-.67-1.26-1.18-1.76 -.51-.51-1.1-.9-1.76-1.18 -.66-.28-1.36-.42-2.07-.42Zm0 8.7c-.47 0-.93-.1-1.35-.29 -.43-.19-.81-.47-1.12-.82 -.06-.06-.1-.13-.13-.21 -.03-.08-.05-.16-.04-.24 0-.09.02-.16.05-.24 .03-.08.08-.14.14-.2 .06-.06.13-.1.2-.13s.15-.04.23-.04c.08 0 .15.02.23.06 .07.03.13.08.18.15 .26.29.61.51.99.62 .38.1.78.1 1.17-.01 .38-.12.72-.34.98-.64 .26-.31.43-.67.49-1.07 .05-.4 0-.8-.16-1.17 -.17-.37-.43-.68-.76-.9 -.34-.23-.72-.35-1.12-.36 -.4-.02-.8.09-1.14.29h.48c.15 0 .31.06.42.17 .11.11.17.26.17.42 0 .15-.07.31-.18.42 -.12.11-.27.17-.43.17h-1.8c-.1 0-.19-.02-.28-.06 -.09-.04-.16-.1-.22-.18 -.06-.08-.1-.16-.12-.26 -.02-.1-.02-.19 0-.28v-1.65c0-.16.06-.32.17-.43 .11-.12.26-.18.42-.18 .15 0 .31.06.42.17 .11.11.17.26.17.42v.23c.43-.28.92-.46 1.43-.52 .51-.06 1.02 0 1.5.18 .48.17.91.46 1.26.83 .35.37.61.82.75 1.31 .14.49.17 1.01.08 1.51 -.09.5-.3.98-.61 1.39 -.31.41-.71.74-1.17.97 -.46.23-.97.35-1.48.35Z"/><path d="M20.54 4.19c0-.2-.08-.39-.22-.54 -.15-.15-.34-.22-.54-.22s-.39.07-.54.21c-.15.14-.22.33-.22.53v2.4c0 .43-.18.85-.49 1.16 -.31.3-.73.48-1.17.48h-.6l.14.15c0-.85-.29-1.67-.82-2.34 -.53-.67-1.26-1.13-2.09-1.33l.09.22c.26-.42.4-.89.4-1.38l0-.6c0-.2-.08-.39-.22-.54 -.15-.15-.34-.22-.54-.22s-.39.07-.54.21c-.15.14-.22.33-.22.53v.6c0 .27-.12.54-.31.74 -.2.19-.47.3-.75.3s-.55-.12-.75-.31c-.2-.2-.31-.47-.31-.75v-.6c0-.2-.08-.39-.22-.54 -.15-.15-.34-.22-.54-.22s-.39.07-.54.21c-.15.14-.22.33-.22.53v.6c-.01.48.13.96.4 1.37l.09-.23c-.83.19-1.56.65-2.09 1.32 -.53.66-.82 1.48-.82 2.33l.14-.16h-.6c-.44 0-.86-.18-1.17-.49 -.31-.31-.49-.73-.49-1.17v-2.4c0-.2-.08-.39-.22-.54 -.15-.15-.34-.22-.54-.22s-.39.07-.54.21c-.15.14-.22.33-.22.53v2.4c0 .83.33 1.63.92 2.22 .59.59 1.39.92 2.22.92H7l-.15-.15v1.8l.15-.15H2.8c-.2 0-.39.07-.54.21 -.15.14-.22.33-.22.53 0 .19.07.38.21.53 .14.14.33.21.53.21h4.2l-.15-.15v1.8l.15-.15h-.6c-.84 0-1.64.33-2.23.92 -.6.59-.93 1.39-.93 2.22v2.4c0 .19.07.38.21.53 .14.14.33.21.53.21 .19 0 .38-.08.53-.22 .14-.15.21-.34.21-.54v-2.4c0-.44.17-.86.48-1.17 .3-.31.72-.49 1.16-.49h.6l-.15-.15c0 1.22.45 2.39 1.27 3.3 .82.9 1.94 1.47 3.16 1.59l.27.02 -.13-.25c-.48-.94-.71-1.98-.69-3.03 .02-1.05.29-2.08.81-3 .51-.92 1.23-1.7 2.11-2.27 .88-.58 1.88-.92 2.93-1.02l.13-.15V9.3l-.15.15h.6c.83 0 1.63-.34 2.22-.93 .59-.6.92-1.4.92-2.23v-2.4Zm-.3 0v2.4c0 .75-.31 1.48-.84 2.01 -.54.53-1.26.83-2.02.83h-.6l-.15.15v1.23l.13-.15c-1.1.09-2.15.46-3.08 1.05 -.93.59-1.69 1.41-2.22 2.37 -.54.96-.83 2.03-.85 3.13 -.03 1.09.22 2.18.71 3.16l.14-.22c-1.15-.12-2.2-.65-2.97-1.5 -.78-.85-1.2-1.96-1.21-3.11l-.15-.15h-.6c-.52 0-1.02.2-1.38.57 -.37.36-.58.86-.58 1.37v2.4c0 .11-.05.23-.14.31 -.09.08-.2.13-.32.13s-.24-.05-.32-.14c-.09-.09-.14-.2-.14-.32v-2.4c0-.76.3-1.49.83-2.02 .53-.54 1.25-.84 2.01-.84h.6l.15-.15v-1.8l-.15-.15h-4.2c-.12 0-.24-.05-.32-.14 -.09-.09-.14-.2-.14-.32s.04-.24.13-.32c.08-.09.19-.14.31-.14h4.2l.15-.15V9.47l-.15-.15h-.6c-.76 0-1.49-.31-2.02-.84 -.54-.54-.84-1.26-.84-2.02v-2.4c0-.12.04-.24.13-.32 .08-.09.19-.14.31-.14 .11 0 .23.04.31.13 .08.08.13.19.13.31v2.4c0 .51.2 1.01.57 1.37 .36.36.86.57 1.37.57h.6l.14-.16c-.01-.78.26-1.54.74-2.15 .48-.62 1.15-1.04 1.91-1.22l.2-.05 -.12-.18c-.24-.37-.36-.79-.36-1.22l0-.61c0-.12.04-.24.13-.32 .08-.09.19-.14.31-.14 .11 0 .23.04.31.13 .08.08.13.19.13.31v.6c0 .35.14.7.39.95s.59.39.95.39c.35 0 .7-.15.95-.4 .25-.26.39-.6.39-.96v-.6c0-.12.04-.24.13-.32 .08-.09.19-.14.31-.14 .11 0 .23.04.31.13 .08.08.13.19.13.31v.6c0 .42-.13.85-.36 1.21l-.12.17 .2.04c.75.17 1.43.6 1.91 1.21 .48.6.74 1.36.74 2.14l.14.15h.6c.51 0 1.01-.21 1.37-.58 .36-.37.57-.87.57-1.38v-2.4c0-.12.04-.24.13-.32 .08-.09.19-.14.31-.14 .11 0 .23.04.31.13 .08.08.13.19.13.31Zm-2.85 7.65c-1.1 0-2.18.32-3.09.93 -.92.6-1.63 1.47-2.05 2.49 -.43 1.01-.54 2.13-.32 3.2 .21 1.07.74 2.06 1.51 2.84 .77.77 1.76 1.3 2.84 1.51 1.07.21 2.19.1 3.2-.32 1.01-.43 1.88-1.14 2.49-2.05 .6-.92.93-1.99.93-3.09 0-.73-.15-1.46-.43-2.13 -.28-.68-.69-1.29-1.21-1.81s-1.13-.93-1.81-1.21c-.68-.28-1.4-.43-2.13-.43Zm0 .3c.68 0 1.37.13 2 .39 .63.26 1.21.65 1.7 1.13 .48.48.87 1.06 1.13 1.7 .26.63.39 1.31.39 2 0 1.03-.31 2.05-.89 2.91 -.58.86-1.4 1.53-2.36 1.93 -.96.39-2.02.5-3.04.29 -1.02-.21-1.96-.71-2.69-1.44 -.74-.74-1.24-1.67-1.44-2.69 -.21-1.02-.1-2.08.29-3.04s1.07-1.78 1.93-2.36c.86-.58 1.87-.89 2.91-.89Zm-.01 8.4c-.45 0-.89-.1-1.29-.28 -.41-.19-.77-.45-1.07-.78 -.05-.05-.08-.1-.11-.16s-.04-.12-.03-.18c0-.07.01-.12.04-.18 .02-.06.06-.11.1-.15 .04-.05.09-.08.15-.1 .05-.02.11-.03.17-.03 .06 0 .11.02.17.04 .05.02.1.06.14.11 .28.32.65.55 1.06.66 .41.11.84.11 1.25-.01 .4-.13.77-.36 1.05-.68 .28-.33.46-.72.52-1.14 .06-.43 0-.86-.17-1.25 -.18-.4-.46-.73-.81-.97 -.36-.24-.77-.37-1.2-.39 -.43-.02-.85.09-1.22.31l-.47.27h.54 .48c.11 0 .23.04.31.13 .08.08.13.19.13.31 0 .11-.05.23-.14.31 -.09.08-.2.13-.32.13h-1.8c-.08 0-.15-.02-.21-.05 -.07-.03-.12-.08-.17-.13 -.05-.06-.08-.12-.09-.19 -.02-.07-.02-.14 0-.21l0-1.69c0-.12.04-.24.13-.32 .08-.09.19-.14.31-.14 .11 0 .23.04.31.13 .08.08.13.19.13.31v.23 .27l.23-.16c.41-.27.87-.44 1.36-.49 .48-.06.98 0 1.43.17 .45.16.87.44 1.2.8 .33.35.58.78.72 1.25 .13.46.16.96.08 1.44 -.09.48-.29.93-.58 1.33 -.3.39-.68.71-1.12.93 -.44.21-.93.33-1.42.33Zm0 .29c.53-.01 1.06-.13 1.54-.37 .47-.25.89-.6 1.21-1.03 .32-.44.53-.93.63-1.46 .09-.53.06-1.08-.09-1.59 -.16-.52-.43-.99-.8-1.38 -.37-.4-.83-.7-1.33-.88 -.51-.19-1.05-.26-1.58-.2 -.54.05-1.05.24-1.5.53l.23.12v-.24c0-.2-.08-.39-.22-.54 -.15-.15-.34-.22-.54-.22s-.39.07-.54.21c-.15.14-.22.33-.22.53v1.64c-.03.07-.03.19-.01.3 .02.11.07.22.14.31s.16.16.27.21c.1.04.22.07.33.06l1.79 0c.19 0 .38-.08.53-.22 .14-.15.21-.34.21-.54s-.08-.39-.22-.54c-.15-.15-.34-.22-.54-.22h-.48l.07.27c.31-.2.68-.29 1.05-.28 .36 0 .72.12 1.03.32 .3.2.54.49.69.83 .14.33.19.71.14 1.07 -.06.36-.22.7-.46.98 -.25.27-.57.48-.92.58 -.36.1-.74.1-1.09 0 -.36-.11-.68-.31-.93-.58 -.07-.08-.15-.14-.23-.19 -.09-.05-.19-.08-.29-.09 -.11-.01-.21 0-.3.03 -.1.03-.19.08-.26.15 -.08.06-.14.14-.18.24 -.05.09-.07.19-.08.29 -.01.1.01.2.04.29 .03.09.09.18.16.25 .31.35.71.64 1.15.84 .44.19.92.3 1.4.3Z"/></g></svg>