<svg viewBox="0 0 24 24" xmlns="http://www.w3.org/2000/svg"><path fill="currentColor" d="M14.25 2c.37 0 .69.28.74.64l0 .1v.75c0 .63-.2 1.21-.54 1.7 1.39.47 2.41 1.75 2.52 3.29l.25 0c1.24-.01 2.24-1.02 2.24-2.26l-.01-1.49c-.01-.42.33-.76.74-.76 .41-.01.75.33.75.74l0 1.48c0 2-1.56 3.64-3.54 3.75l-.22 0 -.24-.01v1.5l4.25 0c.37 0 .69.28.74.64l0 .1c0 .37-.29.69-.65.74l-.11 0h-4.26l-.01 1.99 .23 0 .21 0c1.91.1 3.43 1.64 3.53 3.56l0 .19 -.01 1.48c-.01.41-.34.74-.76.74 -.38-.01-.7-.29-.75-.66l-.01-.11 0-1.49c0-1.2-.92-2.17-2.09-2.26l-.16-.01h-.48c-.64 2.02-2.54 3.5-4.78 3.5s-4.14-1.48-4.78-3.51h-.49c-1.25 0-2.25 1.01-2.25 2.25l0 1.48c0 .41-.34.75-.75.75 -.42 0-.76-.34-.76-.75l-.01-1.49c-.01-2.01 1.55-3.65 3.53-3.76l.21-.01 .24-.01v-2l-4.25 0c-.38 0-.7-.29-.75-.65l-.01-.11c0-.38.28-.7.64-.75l.1-.01 4.25-.01V9.75l-.25 0 -.22-.01c-1.92-.11-3.44-1.65-3.54-3.57l-.01-.2 0-1.49c0-.42.33-.75.75-.75 .37 0 .69.28.74.65l0 .1 -.01 1.48c-.01 1.19.91 2.16 2.08 2.25l.15 0 .26-.01c.1-1.54 1.12-2.82 2.52-3.3 -.3-.43-.49-.95-.53-1.5l-.01-.21v-.76c0-.42.33-.75.75-.75 .37 0 .69.28.74.64l0 .1v.75c0 .82.67 1.5 1.5 1.5 .77 0 1.42-.6 1.49-1.36l0-.15V2.4c0-.42.33-.75.75-.75Z"/></svg>