<svg viewBox="0 0 24 24" xmlns="http://www.w3.org/2000/svg"><path fill="currentColor" d="M11.09 2.47c-.19-.11-.42-.11-.6 0L6.67 4.65c-.43.24-.69.69-.69 1.18 0 .69.52 1.27 1.19 1.35v2.63c-.74.34-1.28 1.05-1.38 1.91l-.95 8.53c-.08.71.47 1.33 1.19 1.33h9.45c.71 0 1.27-.63 1.19-1.34l-.95-8.54c-.1-.86-.64-1.57-1.38-1.92v-.21c0-.01 0-.02 0-.02V7.14v-.01c.67-.08 1.2-.66 1.2-1.36 0-.49-.27-.94-.69-1.19l-3.82-2.19Zm2.1 7.12h-4.8v-2.4h4.79v2.4ZM6.6 15.44l8.11-2.17 .25 2.29 -8.65 2.3 .27-2.44Zm13.18-7.06h-2.4c-.34 0-.6-.27-.6-.6 0-.34.26-.6.6-.6h2.4c.33 0 .6.26.6.6 0 .33-.27.6-.6.6ZM19 4.6c.23-.24.23-.62 0-.85 -.24-.24-.62-.24-.85 0l-1.2 1.2c-.24.23-.24.61 0 .84 .23.23.61.23.84 0l1.2-1.2Zm0 7.2c.23-.24.23-.62 0-.85l-1.2-1.2c-.24-.24-.62-.24-.85 0 -.24.23-.24.61 0 .84l1.2 1.2c.23.23.61.23.84 0Z"/></svg>