<svg viewBox="0 0 24 24" xmlns="http://www.w3.org/2000/svg"><path fill="currentColor" d="M4 4.25C4 3 5 2 6.25 2h8c1.24 0 2.25 1 2.25 2.25V9.5h1.25c1.24 0 2.25 1 2.25 2.25v9.5c0 .41-.34.75-.75.75H16.5v-3.75c0-.7-.56-1.25-1.25-1.25h-6.5c-.7 0-1.25.55-1.25 1.25V22H4.75c-.42 0-.75-.34-.75-.75v-17ZM15 18.5V22h-2.25v-3.5H15Zm-3.75 0V22H9v-3.5h2.25ZM7.5 6.5c0 .55.44 1 1 1 .55 0 1-.45 1-1 0-.56-.45-1-1-1 -.56 0-1 .44-1 1Zm1 6c-.56 0-1 .44-1 1 0 .55.44 1 1 1 .55 0 1-.45 1-1 0-.56-.45-1-1-1Zm0-3.5c-.56 0-1 .44-1 1 0 .55.44 1 1 1 .55 0 1-.45 1-1 0-.56-.45-1-1-1ZM12 5.5c-.56 0-1 .44-1 1 0 .55.44 1 1 1 .55 0 1-.45 1-1 0-.56-.45-1-1-1Zm0 7c-.56 0-1 .44-1 1 0 .55.44 1 1 1 .55 0 1-.45 1-1 0-.56-.45-1-1-1Zm3.5 0c-.56 0-1 .44-1 1 0 .55.44 1 1 1 .55 0 1-.45 1-1 0-.56-.45-1-1-1ZM12 9c-.56 0-1 .44-1 1 0 .55.44 1 1 1 .55 0 1-.45 1-1 0-.56-.45-1-1-1Z"/></svg>