<svg viewBox="0 0 24 24" xmlns="http://www.w3.org/2000/svg"><path fill="currentColor" d="M8.5 12.5c-.56 0-1 .44-1 1 0 .55.44 1 1 1 .55 0 1-.45 1-1 0-.56-.45-1-1-1Zm-1-2.5c0 .55.44 1 1 1 .55 0 1-.45 1-1 0-.56-.45-1-1-1 -.56 0-1 .44-1 1ZM12 5.5c-.56 0-1 .44-1 1 0 .55.44 1 1 1 .55 0 1-.45 1-1 0-.56-.45-1-1-1ZM4 4.25C4 3 5 2 6.25 2h8c1.24 0 2.25 1 2.25 2.25v5.24h1.25c1.24 0 2.25 1 2.25 2.25v1.35c-.44.12-.84.35-1.16.66 -.42-1.32-1.65-2.27-3.1-2.27 -1.8 0-3.25 1.45-3.25 3.25 0 .87.34 1.67.91 2.25 -1.47.11-2.42 1.49-2.42 2.86 0 .54.1 1.1.32 1.625H4.72c-.42 0-.75-.34-.75-.75v-16.5ZM8.5 5.5c-.56 0-1 .44-1 1 0 .55.44 1 1 1 .55 0 1-.45 1-1 0-.56-.45-1-1-1ZM11 10c0 .55.44 1 1 1 .55 0 1-.45 1-1 0-.56-.45-1-1-1 -.56 0-1 .44-1 1Zm7 4.75c0 1.24-1.01 2.25-2.25 2.25 -1.25 0-2.25-1.01-2.25-2.25 0-1.25 1-2.25 2.25-2.25 1.24 0 2.25 1 2.25 2.25Zm1.5 5.125c0 1.55-1.08 3.125-3.75 3.125 -2.68 0-3.75-1.57-3.75-3.125 0-1.04.71-1.875 1.6-1.875h4.28c.88 0 1.6.83 1.6 1.875Zm1.25-2.375c.96 0 1.75-.79 1.75-1.75 0-.97-.79-1.75-1.75-1.75 -.97 0-1.75.78-1.75 1.75 0 .96.78 1.75 1.75 1.75Zm-.26 2.375c0 .71-.18 1.46-.59 2.12 .02 0 .05 0 .08 0 2.14 0 3-1.1 3-2.19 0-.73-.58-1.32-1.29-1.32h-1.55c.2.42.32.89.32 1.375Z"/></svg>