<svg viewBox="0 0 24 24" xmlns="http://www.w3.org/2000/svg"><path fill="currentColor" d="M8.48 3.52c-.69-.71-1.83-.71-2.51 0l-2.34 2.4c-.41.42-.64.98-.64 1.56v11.75c0 .96.78 1.75 1.75 1.75h3.25v-4.25c0-.42.33-.75.75-.75h2.5V7.26c0-.59-.23-1.15-.64-1.57l-2.14-2.2Zm4.26 3.75v8.71h2.5c.41 0 .75.33.75.75v4.25h3.25c.96 0 1.75-.79 1.75-1.75V7.47c0-.59-.23-1.15-.64-1.57l-2.34-2.41c-.69-.71-1.83-.71-2.51 0l-2.14 2.19c-.41.42-.64.98-.64 1.56Zm0 10.21v3.5h1.75v-3.5h-1.75Zm-1.5 3.5v-3.5H9.49v3.5h1.75Zm-3.125-12c0 .55-.45 1-1 1 -.56 0-1-.45-1-1 0-.56.44-1 1-1 .55 0 1 .44 1 1Zm8.75 1c-.56 0-1-.45-1-1 0-.56.44-1 1-1 .55 0 1 .44 1 1 0 .55-.45 1-1 1Zm-8.75 2.99c0 .55-.45 1-1 1 -.56 0-1-.45-1-1 0-.56.44-1 1-1 .55 0 1 .44 1 1Zm8.75 1c-.56 0-1-.45-1-1 0-.56.44-1 1-1 .55 0 1 .44 1 1 0 .55-.45 1-1 1Z"/></svg>