<svg viewBox="0 0 24 24" xmlns="http://www.w3.org/2000/svg"><path fill="currentColor" d="M10.49 14.501l-.01 7.49h-3l0-7.5h2.99Zm6.75-1.5h-3.51c-.42 0-.75.33-.75.75v3.5c0 .41.33.75.75.75h3.5c.41 0 .75-.34.75-.75v-3.51c0-.42-.34-.75-.75-.75Zm-.76 1.5v2h-2.01v-2.01h2ZM8.14 7.002H3.47l0 1.16c0 1.18.87 2.15 2.01 2.31l.15.01 .15 0c1.23 0 2.24-.96 2.32-2.18l0-.16 -.01-1.17Zm6.16 0H9.63l0 1.16c0 1.18.87 2.15 2.01 2.31l.15.01 .15 0c1.23 0 2.24-.96 2.32-2.18l0-.16 -.01-1.17Zm6.16 0h-4.67l0 1.16c0 1.18.87 2.15 2.01 2.31l.15.01 .15 0c1.23 0 2.24-.96 2.32-2.18l0-.16 -.01-1.17ZM9.02 3.5H6.28L4.42 5.502h3.97L9 3.5Zm4.3 0h-2.74l-.62 2.002h3.97L13.31 3.5Zm4.3 0h-2.74l.61 2.002h3.97L17.6 3.5ZM2.14 5.74l3.24-3.51c.11-.13.27-.21.44-.24l.1-.01h12c.17 0 .34.06.47.16l.07.07 3.27 3.52 .03.03c.1.13.14.28.14.44l-.01 1.91c0 .99-.38 1.89-1 2.58l-.01 10.5c0 .37-.29.69-.65.74l-.11 0 -8.26-.01 0-8.248c0-.42-.34-.75-.75-.75h-4.5c-.42 0-.75.33-.75.75l-.01 8.248 -2.25 0c-.38 0-.7-.29-.75-.65l-.01-.11 -.01-10.51c-.58-.64-.95-1.47-1-2.39l-.01-.2 -.01-1.88c-.01-.14.02-.28.09-.41l.04-.08 .05-.07Z"/></svg>