<svg viewBox="0 0 24 24" xmlns="http://www.w3.org/2000/svg"><path fill="currentColor" d="M3.5 2C2.67 2 2 2.67 2 3.5v13c0 .82.67 1.5 1.5 1.5H9v-3.32c0-.77.31-1.5.87-2.02l4.12-3.86v-.33c0-.83-.68-1.5-1.5-1.5h-1.5v-3.5c0-.83-.68-1.5-1.5-1.5h-6ZM6 5.75c0 .41-.34.75-.75.75 -.42 0-.75-.34-.75-.75 0-.42.33-.75.75-.75 .41 0 .75.33.75.75ZM5.25 9.5c-.42 0-.75-.34-.75-.75 0-.42.33-.75.75-.75 .41 0 .75.33.75.75 0 .41-.34.75-.75.75ZM6 11.75c0 .41-.34.75-.75.75 -.42 0-.75-.34-.75-.75 0-.42.33-.75.75-.75 .41 0 .75.33.75.75ZM7.75 6.5c-.42 0-.75-.34-.75-.75 0-.42.33-.75.75-.75 .41 0 .75.33.75.75 0 .41-.34.75-.75.75Zm.75 2.25c0 .41-.34.75-.75.75 -.42 0-.75-.34-.75-.75 0-.42.33-.75.75-.75 .41 0 .75.33.75.75Zm-.75 3.75c-.42 0-.75-.34-.75-.75 0-.42.33-.75.75-.75 .41 0 .75.33.75.75 0 .41-.34.75-.75.75Zm9.44-3.07c-.68-.63-1.72-.63-2.39 0l-4.25 3.96c-.36.33-.56.79-.56 1.27v5.81c0 .82.67 1.5 1.5 1.5h2c.82 0 1.5-.68 1.5-1.5v-2.5h2v2.49c0 .82.67 1.5 1.5 1.5h2c.82 0 1.5-.68 1.5-1.5v-5.82c0-.49-.21-.95-.56-1.28l-4.25-3.97Zm-1.37 1.09c.09-.09.24-.09.34 0l4.25 3.96c.05.04.07.11.07.18v5.81h-2v-2.5c0-.83-.68-1.5-1.5-1.5h-2c-.83 0-1.5.67-1.5 1.5v2.49h-2v-5.82c0-.07.02-.14.07-.19l4.25-3.97ZM9.24 1.98h-5.5 5.5Z"/></svg>