<svg viewBox="0 0 24 24" xmlns="http://www.w3.org/2000/svg"><path fill="currentColor" d="M7.5 11.5v-2h9v1.21c-.36.26-.82.54-1.34.78H7.49ZM18 8.75v1.21c.37-.01.74.12 1.03.38 .4.34 1.09.86 1.96 1.22V6.72c.59-.35 1-1 1-1.74 0-1.11-.9-2-2-2h-16c-1.11 0-2 .89-2 2 0 .74.4 1.38 1 1.73v13.51c0 .41.33.75.75.75h2.25v-5.25c0-.42.33-.75.75-.75h4c.41 0 .75.33.75.75v5.25h1.81c-.76-1.01-1.32-2.33-1.32-4l-.01-3.5c0-.18.02-.35.08-.51H6.71c-.42 0-.75-.34-.75-.75v-3.5c0-.42.33-.75.75-.75h10.5c.41 0 .75.33.75.75ZM3.5 5c0-.28.22-.5.5-.5h16c.27 0 .5.22.5.5 0 .27-.23.5-.5.5H4c-.28 0-.5-.23-.5-.5ZM10 16.5V21H7.5v-4.5H10Zm12.5-3.53c-1.91-.18-3.44-1.29-4.12-1.88 -.22-.19-.56-.19-.77-.01 -.69.58-2.21 1.69-4.12 1.87 -.28.02-.5.24-.5.52l0 3.5c0 4.22 4.09 5.71 4.87 5.96 .08.02.17.02.25 0 .77-.25 4.87-1.74 4.87-5.97v-3.5c0-.28-.23-.5-.5-.53Z"/></svg>