<svg viewBox="0 0 24 24" xmlns="http://www.w3.org/2000/svg"><path fill="currentColor" d="M7.5 11.5v-2h9v2h-9ZM4 3c-1.11 0-2 .89-2 2 0 .74.4 1.38 1 1.73v13.51c0 .41.33.75.75.75H6v-5.25c0-.42.33-.75.75-.75h4c.41 0 .75.33.75.75v.24c.45-.61 1.18-1 2-1H21V6.71c.59-.35 1-1 1-1.74 0-1.11-.9-2-2-2H4Zm-.5 2c0-.28.22-.5.5-.5h16c.27 0 .5.22.5.5 0 .27-.23.5-.5.5H4c-.28 0-.5-.23-.5-.5Zm3.25 3h10.5c.41 0 .75.33.75.75v3.5c0 .41-.34.75-.75.75H6.75c-.42 0-.75-.34-.75-.75v-3.5c0-.42.33-.75.75-.75ZM10 16.5V21H7.5v-4.5H10Zm2 1c0-.83.67-1.5 1.5-1.5h8c.82 0 1.5.67 1.5 1.5v4c0 .82-.68 1.5-1.5 1.5h-8c-.83 0-1.5-.68-1.5-1.5v-4Zm10 .5c-.56 0-1-.45-1-1h-1c0 1.1.89 2 2 2v-1Zm0 2c-1.11 0-2 .89-2 2h1c0-.56.44-1 1-1v-1Zm-8-3c0 .55-.45 1-1 1v1c1.1 0 2-.9 2-2h-1Zm1 5c0-1.11-.9-2-2-2v1c.55 0 1 .44 1 1h1Zm4.25-2.5c0-.97-.79-1.75-1.75-1.75 -.97 0-1.75.78-1.75 1.75 0 .96.78 1.75 1.75 1.75 .96 0 1.75-.79 1.75-1.75Z"/></svg>