<svg viewBox="0 0 24 24" xmlns="http://www.w3.org/2000/svg"><path fill="currentColor" d="M7.5 11.5v-2h9v2h-9ZM4 3c-1.11 0-2 .89-2 2 0 .74.4 1.38 1 1.73v13.51c0 .41.33.75.75.75H6v-5.25c0-.42.33-.75.75-.75h4c.41 0 .75.33.75.75v5.25h8.75c.41 0 .75-.34.75-.75V6.72c.59-.35 1-1 1-1.74 0-1.11-.9-2-2-2H4Zm-.5 2c0-.28.22-.5.5-.5h16c.27 0 .5.22.5.5 0 .27-.23.5-.5.5H4c-.28 0-.5-.23-.5-.5Zm3.25 3h10.5c.41 0 .75.33.75.75v3.5c0 .41-.34.75-.75.75H6.75c-.42 0-.75-.34-.75-.75v-3.5c0-.42.33-.75.75-.75Zm8 7h2.5c.41 0 .75.33.75.75v2.5c0 .41-.34.75-.75.75h-2.5c-.42 0-.75-.34-.75-.75v-2.5c0-.42.33-.75.75-.75ZM10 16.5V21H7.5v-4.5H10Z"/></svg>