<svg viewBox="0 0 24 24" xmlns="http://www.w3.org/2000/svg"><path fill="currentColor" d="M7.5 11.5v-2h9v1.75h-.75c-.41 0-.8.08-1.15.25H7.49ZM18 8.75v2.5h1.25c.66 0 1.27.23 1.75.62V6.72c.59-.35 1-1 1-1.74 0-1.11-.9-2-2-2H4c-1.11 0-2 .89-2 2 0 .74.4 1.38 1 1.73v13.51c0 .41.33.75.75.75H6v-5.25c0-.42.33-.75.75-.75h4c.23 0 .43.1.57.26 .35-.62.95-1.08 1.67-1.22v-.05c0-.36.06-.7.18-1H6.73c-.42 0-.75-.34-.75-.75v-3.5c0-.42.33-.75.75-.75h10.5c.41 0 .75.33.75.75ZM3.5 5c0-.28.22-.5.5-.5h16c.27 0 .5.22.5.5 0 .27-.23.5-.5.5H4c-.28 0-.5-.23-.5-.5ZM10 16.5V21H7.5v-4.5H10Zm4-1.5h-.5c-.83 0-1.5.67-1.5 1.5V18h2.5v-.25c0-.42.33-.75.75-.75 .41 0 .75.33.75.75V18h3v-.25c0-.42.33-.75.75-.75 .41 0 .75.33.75.75V18H23v-1.5c0-.83-.68-1.5-1.5-1.5H21v-1c0-.97-.79-1.75-1.75-1.75h-3.5c-.97 0-1.75.78-1.75 1.75v1Zm1.5-1c0-.14.11-.25.25-.25h3.5c.13 0 .25.11.25.25v1h-4v-1ZM12 21.5v-2h2.5v.75c0 .41.33.75.75.75 .41 0 .75-.34.75-.75v-.75h3v.75c0 .41.33.75.75.75 .41 0 .75-.34.75-.75v-.75H23v2c0 .82-.68 1.5-1.5 1.5h-8c-.83 0-1.5-.68-1.5-1.5Z"/></svg>