<svg viewBox="0 0 24 24" xmlns="http://www.w3.org/2000/svg"><path fill="currentColor" d="M10.96 2.32c.61-.45 1.44-.45 2.06 0l7.42 5.41c.97.71.47 2.25-.74 2.25H4.26c-1.21-.01-1.72-1.55-.74-2.26l7.42-5.42Zm2.03 3.92c0-.56-.45-1-1-1 -.56 0-1 .44-1 1 0 .55.44 1 1 1 .55 0 1-.45 1-1Zm-1.75 9.75h-2v-5h1.99v5Zm1.5-.44c.57-.47 1.25-.81 2-.97v-3.61h-2v4.56Zm3.5-1.07h2.25v-3.5h-2.25v3.5Zm-5.25 4.75c0-.82.2-1.59.56-2.25H5.23c-1.25 0-2.25 1-2.25 2.25v.5c0 .41.33.75.75.75h7.41c-.11-.4-.17-.82-.17-1.25Zm-3.25-3.25H5.48v-5h2.25v5Zm15.24 3.25c0-2.08-1.68-3.75-3.75-3.75l-.11 0c-.37.04-.65.36-.65.74 0 .41.33.75.75.75l.15 0c1.17.07 2.09 1.05 2.09 2.24 0 1.24-1.01 2.25-2.25 2.25l-.01 0 -.11 0c-.37.05-.65.36-.65.74 0 .41.33.74.75.74v-.01l.19-.01c1.97-.11 3.54-1.75 3.54-3.75Zm-6.5-3c0-.42-.34-.75-.75-.75l-.2 0c-1.98.1-3.56 1.74-3.56 3.74 0 2.07 1.67 3.75 3.75 3.75l.1-.01c.36-.05.64-.37.64-.75 0-.42-.34-.75-.75-.75l-.16-.01c-1.18-.08-2.096-1.06-2.096-2.25 0-1.25 1-2.25 2.25-2.25l.1-.01c.36-.05.64-.37.64-.75Zm3.5 3c0-.42-.34-.75-.75-.75h-3.5l-.11 0c-.37.04-.65.36-.65.74 0 .41.33.75.75.75h3.5l.1-.01c.36-.05.64-.37.64-.75Z"/></svg>