<svg viewBox="0 0 24 24" xmlns="http://www.w3.org/2000/svg"><path fill="currentColor" d="M6.22 3c-.53 0-1.02.23-1.35.63L1.28 7.94c-.68.81-.1 2.04.96 2.04h19.49c1.05 0 1.63-1.24.96-2.05L19.1 3.61c-.34-.41-.83-.64-1.35-.64H6.18Zm-3.23 8.5v7.25c0 1.38 1.11 2.5 2.5 2.5h13c1.38 0 2.5-1.12 2.5-2.5V11.5h-18Zm6 3.75c0 .69-.56 1.25-1.25 1.25 -.7 0-1.25-.56-1.25-1.25 0-.7.55-1.25 1.25-1.25 .69 0 1.25.55 1.25 1.25Zm3 1.25c-.7 0-1.25-.56-1.25-1.25 0-.7.55-1.25 1.25-1.25 .69 0 1.25.55 1.25 1.25 0 .69-.56 1.25-1.25 1.25Zm5.5-1.25c0 .69-.56 1.25-1.25 1.25 -.7 0-1.25-.56-1.25-1.25 0-.7.55-1.25 1.25-1.25 .69 0 1.25.55 1.25 1.25Z"/></svg>