<svg viewBox="0 0 24 24" xmlns="http://www.w3.org/2000/svg"><path fill="currentColor" d="M8.75 2c-.42 0-.75.33-.75.75v1.24h3V2.74c0-.42-.34-.75-.75-.75h-1.5ZM11 4.99H8v0H6.75c-.42 0-.75.33-.75.75v1.24h7V5.73c0-.42-.34-.75-.75-.75H11v-.01Zm6 10.99c.55 0 1-.45 1-1 0-.56-.45-1-1-1 -.56 0-1 .44-1 1 0 .55.44 1 1 1Zm1 2c0 .55-.45 1-1 1 -.56 0-1-.45-1-1 0-.56.44-1 1-1 .55 0 1 .44 1 1Zm-14-8c0-1.1.87-1.99 1.96-2h7.07c1.08.01 1.96.9 1.96 1.99v0c3.05.13 5.5 2.65 5.5 5.74v5c0 .41-.34.75-.75.75h-8.5v-3c0-.28-.23-.5-.5-.5h-2.5c-.28 0-.5.22-.5.5v3h-3c-.42 0-.75-.34-.75-.75V9.96Zm15 5.75c0-2.27-1.77-4.12-4-4.25v8.49h4v-4.25Zm-6.75-4.75c0-.56-.45-1-1-1 -.56 0-1 .44-1 1 0 .55.44 1 1 1 .55 0 1-.45 1-1Zm-1 4.25c.55 0 1-.45 1-1 0-.56-.45-1-1-1 -.56 0-1 .44-1 1 0 .55.44 1 1 1Zm-2.5-4.25c0-.56-.45-1-1-1 -.56 0-1 .44-1 1 0 .55.44 1 1 1 .55 0 1-.45 1-1Zm-1 4.25c.55 0 1-.45 1-1 0-.56-.45-1-1-1 -.56 0-1 .44-1 1 0 .55.44 1 1 1Z"/></svg>