<svg viewBox="0 0 24 24" xmlns="http://www.w3.org/2000/svg"><path fill="currentColor" d="M2.75 6c.55 0 1-.45 1-1 0-.56-.45-1-1-1 -.56 0-1 .44-1 1 0 .55.44 1 1 1Zm18.5 0c.55 0 1-.45 1-1 0-.56-.45-1-1-1 -.56 0-1 .44-1 1 0 .55.44 1 1 1ZM2.75 7c.41 0 .75.33.75.75V13h2.49c-.33-.77-.5-1.62-.5-2.5 0-1.03.46-1.95 1.05-2.71 .59-.77 1.37-1.44 2.12-1.98 .75-.55 1.5-.99 2.06-1.29 .27-.16.51-.27.67-.35 .08-.05.14-.08.19-.1l.05-.03 .01-.01 0-.01 0-.01c.19-.09.41-.09.61 0l0 0 0 0 .01 0 .05.02c.04.02.11.05.19.09 .16.08.39.19.67.34 .55.3 1.3.73 2.06 1.28 .74.54 1.52 1.2 2.12 1.97 .59.76 1.05 1.67 1.05 2.7 0 .88-.18 1.73-.5 2.5h2.49V7.66c0-.42.33-.75.75-.75 .41 0 .75.33.75.75v13c0 .69-.56 1.25-1.25 1.25h-5.5c-.7 0-1.25-.56-1.25-1.25v-1.75c0-1.11-.9-2-2-2 -1.11 0-2 .89-2 2v1.75c0 .69-.56 1.25-1.25 1.25h-5.5c-.7 0-1.25-.56-1.25-1.25v-13c0-.42.33-.75.75-.75Z"/></svg>