<svg viewBox="0 0 24 24" xmlns="http://www.w3.org/2000/svg"><path fill="currentColor" d="M8.5 12.75v4c0 .42.07.84.22 1.25H3.5c-.4 0-.78-.16-1.07-.44 -.29-.29-.44-.67-.44-1.07v-13c0-.4.15-.78.43-1.07 .28-.29.66-.44 1.06-.44h6c.39 0 .77.15 1.06.43 .28.28.43.66.43 1.06v3.5h1.5c.39 0 .77.15 1.06.43 .28.28.43.66.43 1.06v.5h-1.75c-1 0-1.95.39-2.66 1.09 -.71.7-1.1 1.65-1.1 2.65Zm-.34-7.63c-.13-.09-.27-.13-.42-.13 -.2 0-.39.08-.53.22 -.15.14-.22.32-.23.52 0 .14.04.29.12.41 .08.12.19.21.33.27 .13.05.28.07.43.04 .14-.03.27-.11.38-.21 .1-.11.17-.24.2-.39 .02-.15.01-.3-.05-.44 -.06-.14-.16-.26-.28-.34Zm0 3c-.13-.09-.27-.13-.42-.13 -.2 0-.39.08-.53.22 -.15.14-.22.32-.23.52 0 .14.04.29.12.41 .08.12.19.21.33.27 .13.05.28.07.43.04 .14-.03.27-.11.38-.21 .1-.11.17-.24.2-.39 .02-.15.01-.3-.05-.44 -.06-.14-.16-.26-.28-.34Zm-3.34 4.24c.12.08.26.12.41.12 .19-.01.38-.09.52-.23 .14-.15.21-.33.22-.53 0-.15-.05-.3-.13-.42 -.09-.13-.2-.22-.34-.28 -.14-.06-.29-.08-.44-.05 -.15.02-.28.1-.39.2 -.11.1-.18.23-.21.38 -.03.14-.02.29.04.43 .05.13.15.25.27.33Zm0-3c.12.08.26.12.41.12 .19-.01.38-.09.52-.23 .14-.15.21-.33.22-.53 0-.15-.05-.3-.13-.42 -.09-.13-.2-.22-.34-.28 -.14-.06-.29-.08-.44-.05 -.15.02-.28.1-.39.2 -.11.1-.18.23-.21.38 -.03.14-.02.29.04.43 .05.13.15.25.27.33Zm0-3c.12.08.26.12.41.12 .19-.01.38-.09.52-.23 .14-.15.21-.33.22-.53 0-.15-.05-.3-.13-.42 -.09-.13-.2-.22-.34-.28 -.14-.06-.29-.08-.44-.05 -.15.02-.28.1-.39.2 -.11.1-.18.23-.21.38 -.03.14-.02.29.04.43 .05.13.15.25.27.33Zm2.5 6c.12.08.26.12.41.12 .19-.01.38-.09.52-.23 .14-.15.21-.33.22-.53 0-.15-.05-.3-.13-.42 -.09-.13-.2-.22-.34-.28 -.14-.06-.29-.08-.44-.05 -.15.02-.28.1-.39.2 -.11.1-.18.23-.21.38 -.03.14-.02.29.04.43 .05.13.15.25.27.33Zm2.16.37c0-1.52 1.23-2.75 2.75-2.75h7c1.51 0 2.75 1.23 2.75 2.75v4c0 1.51-1.24 2.75-2.75 2.75h-1.25v1h1.25c.41 0 .75.33.75.75 0 .41-.34.75-.75.75h-7c-.42 0-.75-.34-.75-.75 0-.42.33-.75.75-.75h1.25v-1h-1.25c-1.52 0-2.75-1.24-2.75-2.75v-4Zm5.5 6.75v1h1.5v-1h-1.5Zm-2.75-8c-.7 0-1.25.55-1.25 1.25v4c0 .69.55 1.25 1.25 1.25h7c.69 0 1.25-.56 1.25-1.25v-4c0-.7-.56-1.25-1.25-1.25h-7Z"/></svg>