<svg viewBox="0 0 24 24" xmlns="http://www.w3.org/2000/svg"><path fill="currentColor" d="M15.5 2h-3.75c-.42 0-.75.33-.75.75v3.32c-3.4.48-6 3.4-6 6.92h-.75C3 12.99 2 13.99 2 15.24v6c0 .41.33.75.75.75H10c.13 0 .25-.12.25-.25v-3c0-.28.22-.5.5-.5h2.5c.27 0 .5.22.5.5v3c0 .13.11.25.25.25h7.25c.41 0 .75-.34.75-.75v-6c0-1.25-1.01-2.25-2.25-2.25H19c0-3.7-2.87-6.73-6.5-6.99V4.98h3c.27 0 .5-.23.5-.5v-2c0-.28-.23-.5-.5-.5Zm0 9.75v2c0 .41-.34.75-.75.75 -.42 0-.75-.34-.75-.75v-2c0-.42.33-.75.75-.75 .41 0 .75.33.75.75ZM11.75 11c.41 0 .75.33.75.75v2c0 .41-.34.75-.75.75 -.42 0-.75-.34-.75-.75v-2c0-.42.33-.75.75-.75Zm-2.25.75v2c0 .41-.34.75-.75.75 -.42 0-.75-.34-.75-.75v-2c0-.42.33-.75.75-.75 .41 0 .75.33.75.75ZM5.75 15.5c.41 0 .75.33.75.75v2.5c0 .41-.34.75-.75.75 -.42 0-.75-.34-.75-.75v-2.5c0-.42.33-.75.75-.75Zm13.25.75v2.5c0 .41-.34.75-.75.75 -.42 0-.75-.34-.75-.75v-2.5c0-.42.33-.75.75-.75 .41 0 .75.33.75.75Z"/></svg>