<svg viewBox="0 0 24 24" xmlns="http://www.w3.org/2000/svg"><path fill="currentColor" d="M3.75 18h1.5c.1-2.02 1.47-3.7 3.32-4.27 .8-2.24 2.91-3.84 5.41-3.89v-1.1c0-.97-.79-1.75-1.75-1.75h-1c-.14 0-.25-.12-.25-.25v-3c0-.97-.79-1.75-1.75-1.75h-5.5c-.97 0-1.75.78-1.75 1.75v12.5c0 .96.78 1.75 1.75 1.75ZM6 8.75c0 .41-.34.75-.75.75 -.42 0-.75-.34-.75-.75 0-.42.33-.75.75-.75 .41 0 .75.33.75.75Zm2.5-3c0 .41-.34.75-.75.75 -.42 0-.75-.34-.75-.75 0-.42.33-.75.75-.75 .41 0 .75.33.75.75ZM7.75 9.5c-.42 0-.75-.34-.75-.75 0-.42.33-.75.75-.75 .41 0 .75.33.75.75 0 .41-.34.75-.75.75Zm.75 2.25c0 .41-.34.75-.75.75 -.42 0-.75-.34-.75-.75 0-.42.33-.75.75-.75 .41 0 .75.33.75.75Zm-2.5 0c0 .41-.34.75-.75.75 -.42 0-.75-.34-.75-.75 0-.42.33-.75.75-.75 .41 0 .75.33.75.75ZM5.25 6.5c-.42 0-.75-.34-.75-.75 0-.42.33-.75.75-.75 .41 0 .75.33.75.75 0 .41-.34.75-.75.75Zm8.875 4.34c-2.3 0-4.23 1.58-4.75 3.72 -1.78.29-3.13 1.83-3.13 3.68 0 2.06 1.67 3.73 3.73 3.73h8.27c2.06 0 3.73-1.68 3.73-3.74 0-1.86-1.36-3.4-3.13-3.69 -.53-2.14-2.45-3.73-4.75-3.73Zm-3.37 4.5c.18-1.7 1.62-3.01 3.36-3.01 1.74 0 3.17 1.31 3.36 3l.07.67 .69-.01h0c1.23 0 2.23 1 2.23 2.23s-1.01 2.23-2.24 2.23H9.94c-1.24 0-2.24-1.01-2.24-2.24 0-1.24 1-2.24 2.23-2.24h0l.69 0 .07-.68Z"/></svg>