<svg viewBox="0 0 24 24" xmlns="http://www.w3.org/2000/svg"><path fill="currentColor" d="M13.03 2.33c-.62-.45-1.45-.45-2.07 0L3.53 7.74c-.98.71-.48 2.25.73 2.25h11.71v-.01h3v0h.71c1.2-.01 1.71-1.55.73-2.26L12.98 2.3Zm-1.04 2.92c.55 0 1 .44 1 .99s-.45.99-1 .99c-.56 0-1-.45-1-1 0-.56.44-1 1-1Zm-.75 10.14c-.1.18-.16.38-.21.59h-1.8v-5h2v4.4Zm3.5-3.98c-1.03.4-1.75 1.39-1.75 2.56v.05c-.09.01-.17.03-.25.06v-3.11h2v.43Zm-3.75 5.56v3.49H3.74c-.42 0-.75-.34-.75-.75v-.5c0-1.25 1-2.25 2.25-2.25h5.75Zm-5.5-1h2.25v-5H5.49v4.99Zm8.5-1.01h-.5c-.83 0-1.5.67-1.5 1.5v1.5h2.5v-.25c0-.42.33-.75.75-.75 .41 0 .75.33.75.75v.25h3v-.25c0-.42.33-.75.75-.75 .41 0 .75.33.75.75v.25h2.5v-1.5c0-.83-.68-1.5-1.5-1.5h-.5v-1c0-.97-.79-1.75-1.75-1.75h-3.5c-.97 0-1.75.78-1.75 1.75v1Zm1.5-1c0-.14.11-.25.25-.25h3.5c.13 0 .25.11.25.25v1h-4v-1Zm-2 9c-.83 0-1.5-.68-1.5-1.5v-2h2.5v.75c0 .41.33.75.75.75 .41 0 .75-.34.75-.75v-.75h3v.75c0 .41.33.75.75.75 .41 0 .75-.34.75-.75v-.75h2.5v2c0 .82-.68 1.5-1.5 1.5h-8Z"/></svg>