<svg viewBox="0 0 24 24" xmlns="http://www.w3.org/2000/svg"><path fill="currentColor" d="M4 5.25C4 3.45 5.45 2 7.25 2h9.5C18.54 2 20 3.45 20 5.25v5.02c-.05.04-.09.08-.12.13 -.05.05-.08.1-.12.15 -.85-.37-1.79-.57-2.77-.57 -3.87 0-7 3.13-7 7 0 1.95.8 3.72 2.1 5H7.23c-1.8 0-3.25-1.46-3.25-3.25V5.23ZM9 5c-1.11 0-2 .89-2 2v1c0 1.1.89 2 2 2h6c1.1 0 2-.9 2-2V7c0-1.11-.9-2-2-2H9Zm.5 8.25c0-.7-.56-1.25-1.25-1.25 -.7 0-1.25.55-1.25 1.25 0 .69.55 1.25 1.25 1.25 .69 0 1.25-.56 1.25-1.25ZM8.25 18.5c.69 0 1.25-.56 1.25-1.25 0-.7-.56-1.25-1.25-1.25 -.7 0-1.25.55-1.25 1.25 0 .69.55 1.25 1.25 1.25Zm13-3.5c.41 0 .75-.34.75-.75V11.5c0-.42-.34-.75-.75-.75 -.24 0-.45.11-.59.28 -.11.12-.17.29-.17.46v.62c-.99-.71-2.2-1.13-3.5-1.13 -3.32 0-6 2.68-6 6 0 3.31 2.68 6 6 6 3.31 0 6-2.69 6-6 0-.42-.34-.75-.75-.75 -.42 0-.75.33-.75.75 0 2.48-2.02 4.5-4.5 4.5 -2.49 0-4.5-2.02-4.5-4.5 0-2.49 2.01-4.5 4.5-4.5 1.06 0 2.04.36 2.81.98 0 0 0 0 0 0s0 0 0 0h-1.33c-.42 0-.75.33-.75.75 0 .41.33.75.75.75h2.75Z"/></svg>