<svg viewBox="0 0 24 24" xmlns="http://www.w3.org/2000/svg"><path fill="currentColor" d="M4 5.25C4 3.45 5.45 2 7.25 2h9.5C18.54 2 20 3.45 20 5.25v13.5c0 1.79-1.46 3.25-3.25 3.25h-9.5C5.45 22 4 20.54 4 18.75V5.25ZM9 5c-1.11 0-2 .89-2 2v1c0 1.1.89 2 2 2h6c1.1 0 2-.9 2-2V7c0-1.11-.9-2-2-2H9Zm.5 8.25c0-.7-.56-1.25-1.25-1.25 -.7 0-1.25.55-1.25 1.25 0 .69.55 1.25 1.25 1.25 .69 0 1.25-.56 1.25-1.25ZM8.25 18.5c.69 0 1.25-.56 1.25-1.25 0-.7-.56-1.25-1.25-1.25 -.7 0-1.25.55-1.25 1.25 0 .69.55 1.25 1.25 1.25ZM17 13.25c0-.7-.56-1.25-1.25-1.25 -.7 0-1.25.55-1.25 1.25 0 .69.55 1.25 1.25 1.25 .69 0 1.25-.56 1.25-1.25Zm-1.25 5.25c.69 0 1.25-.56 1.25-1.25 0-.7-.56-1.25-1.25-1.25 -.7 0-1.25.55-1.25 1.25 0 .69.55 1.25 1.25 1.25Zm-2.5-5.25c0-.7-.56-1.25-1.25-1.25 -.7 0-1.25.55-1.25 1.25 0 .69.55 1.25 1.25 1.25 .69 0 1.25-.56 1.25-1.25ZM12 18.5c.69 0 1.25-.56 1.25-1.25 0-.7-.56-1.25-1.25-1.25 -.7 0-1.25.55-1.25 1.25 0 .69.55 1.25 1.25 1.25Z"/></svg>