<svg viewBox="0 0 24 24" xmlns="http://www.w3.org/2000/svg"><path fill="currentColor" d="M6.13 2C4.39 2 2.99 3.4 2.99 5.13v11.22c0 1.73 1.4 3.13 3.13 3.13h8.72c1.73 0 3.13-1.41 3.13-3.14V5.11c0-1.74-1.41-3.14-3.14-3.14H6.1Zm1.61 3h5.5c.96 0 1.75.78 1.75 1.75v1c0 .96-.79 1.75-1.75 1.75h-5.5c-.97 0-1.75-.79-1.75-1.75v-1c0-.97.78-1.75 1.75-1.75Zm-2 7c0-.7.55-1.25 1.25-1.25 .69 0 1.25.55 1.25 1.25 0 .69-.56 1.25-1.25 1.25 -.7 0-1.25-.56-1.25-1.25Zm4.75-1.25c.69 0 1.25.55 1.25 1.25 0 .69-.56 1.25-1.25 1.25 -.7 0-1.25-.56-1.25-1.25 0-.7.55-1.25 1.25-1.25Zm0 3.5c.69 0 1.25.55 1.25 1.25 0 .69-.56 1.25-1.25 1.25 -.7 0-1.25-.56-1.25-1.25 0-.7.55-1.25 1.25-1.25Zm-3.5 0c.69 0 1.25.55 1.25 1.25 0 .69-.56 1.25-1.25 1.25 -.7 0-1.25-.56-1.25-1.25 0-.7.55-1.25 1.25-1.25ZM12.74 12c0-.7.55-1.25 1.25-1.25 .69 0 1.25.55 1.25 1.25 0 .69-.56 1.25-1.25 1.25 -.7 0-1.25-.56-1.25-1.25Zm1.25 2.25c.69 0 1.25.55 1.25 1.25 0 .69-.56 1.25-1.25 1.25 -.7 0-1.25-.56-1.25-1.25 0-.7.55-1.25 1.25-1.25Zm-8.2 6.23c.45.89 1.38 1.51 2.45 1.51h6.99c2.89 0 5.24-2.36 5.25-5.25l0-9.51c0-1.08-.62-2.01-1.52-2.46 0 .11.01.22.01.34V7.2l0 .01 -.01 9.11v.02 .36c-.01 2.07-1.68 3.75-3.75 3.75h-.38 -.02 -8.73c-.12 0-.23-.01-.34-.02Z"/></svg>