<svg viewBox="0 0 24 24" xmlns="http://www.w3.org/2000/svg"><path fill="currentColor" d="M3 8.5v9.25C3 19.54 4.45 21 6.25 21h11.5c1.79 0 3.25-1.46 3.25-3.25V8.5H3ZM16.75 15c.69 0 1.25.55 1.25 1.25 0 .69-.56 1.25-1.25 1.25 -.7 0-1.25-.56-1.25-1.25 0-.7.55-1.25 1.25-1.25ZM12 15c.69 0 1.25.55 1.25 1.25 0 .69-.56 1.25-1.25 1.25 -.7 0-1.25-.56-1.25-1.25 0-.7.55-1.25 1.25-1.25Zm4.75-4.5c.69 0 1.25.55 1.25 1.25 0 .69-.56 1.25-1.25 1.25 -.7 0-1.25-.56-1.25-1.25 0-.7.55-1.25 1.25-1.25Zm-4.75 0c.69 0 1.25.55 1.25 1.25 0 .69-.56 1.25-1.25 1.25 -.7 0-1.25-.56-1.25-1.25 0-.7.55-1.25 1.25-1.25Zm-4.75 0c.69 0 1.25.55 1.25 1.25 0 .69-.56 1.25-1.25 1.25 -.7 0-1.25-.56-1.25-1.25 0-.7.55-1.25 1.25-1.25Zm-1-7.5C4.45 3 3 4.45 3 6.25V7h18v-.75C21 4.45 19.54 3 17.75 3H6.25Z"/></svg>