<svg viewBox="0 0 24 24" xmlns="http://www.w3.org/2000/svg"><path fill="currentColor" d="M21 8.5v3.05c-.64-.65-1.53-1.06-2.5-1.06 -1.94 0-3.5 1.56-3.5 3.5v.05c-1.15.23-2 1.24-2 2.45v4.5H6.25c-1.8 0-3.25-1.46-3.25-3.25V8.49h18ZM17.75 3C19.54 3 21 4.45 21 6.25V7H3v-.75C3 4.45 4.45 3 6.25 3h11.5ZM16 15h-.5c-.83 0-1.5.67-1.5 1.5v5c0 .82.67 1.5 1.5 1.5h6c.82 0 1.5-.68 1.5-1.5v-5c0-.83-.68-1.5-1.5-1.5H21v-1c0-1.39-1.12-2.5-2.5-2.5 -1.39 0-2.5 1.11-2.5 2.5v1Zm1.5-1c0-.56.44-1 1-1 .55 0 1 .44 1 1v1h-2v-1Zm2 5c0 .55-.45 1-1 1 -.56 0-1-.45-1-1 0-.56.44-1 1-1 .55 0 1 .44 1 1Z"/></svg>