<svg viewBox="0 0 24 24" xmlns="http://www.w3.org/2000/svg"><path fill="currentColor" d="M21 12.02V8.49H3v9.25c0 1.79 1.45 3.25 3.25 3.25h5.77c-.65-1.02-1.03-2.22-1.03-3.5 0-3.59 2.91-6.5 6.5-6.5 1.28 0 2.48.37 3.5 1.02Zm0-5.78c0-1.8-1.46-3.25-3.25-3.25H6.25C4.45 2.99 3 4.44 3 6.24v.75h18v-.75Zm2 11.25c0-3.04-2.47-5.5-5.5-5.5 -3.04 0-5.5 2.46-5.5 5.5 0 3.03 2.46 5.5 5.5 5.5 3.03 0 5.5-2.47 5.5-5.5Zm-6-3c0-.28.22-.5.5-.5 .27 0 .5.22.5.5v4c0 .27-.23.5-.5.5 -.28 0-.5-.23-.5-.5v-4Zm1.125 6c0 .34-.28.625-.625.625 -.35 0-.625-.28-.625-.625 0-.35.27-.625.625-.625 .34 0 .625.27.625.625Z"/></svg>