<svg viewBox="0 0 24 24" xmlns="http://www.w3.org/2000/svg"><path fill="currentColor" d="M21 8.5v9.25c0 1.79-1.46 3.25-3.25 3.25H6.25C4.45 21 3 19.54 3 17.75V8.5h18Zm-7.01 2.19c-.67 0-1.2.17-1.59.53 -.4.35-.59.83-.59 1.44 0 .34.08.65.26.93 .17.27.41.48.72.64 -.37.16-.65.39-.85.69 -.21.3-.31.64-.31 1.02 0 .62.21 1.11.63 1.48 .42.36.99.55 1.69.55s1.26-.19 1.68-.55c.42-.37.63-.87.63-1.49 0-.38-.11-.72-.31-1.02 -.21-.3-.49-.54-.86-.71 .3-.16.55-.38.73-.65 .17-.28.26-.59.26-.94 0-.61-.2-1.09-.59-1.45 -.4-.36-.92-.54-1.59-.54Zm-3.78.07h-.16l-2.78 1.02v1l1.74-.6v5.7h1.18v-7.14Zm3.77 3.95c.34 0 .62.1.83.32 .2.21.31.5.31.85 0 .36-.11.64-.31.84 -.21.2-.48.3-.84.3s-.64-.11-.85-.32c-.21-.21-.31-.49-.31-.84 0-.36.1-.64.31-.86 .2-.22.48-.33.82-.33Zm0-3.09c.3 0 .54.1.72.3 .17.2.26.45.26.76 0 .32-.09.58-.27.77 -.18.19-.42.28-.73.28s-.55-.1-.73-.29c-.18-.2-.27-.46-.27-.78 0-.33.08-.59.26-.78 .17-.2.41-.29.71-.29Zm3.75-8.65c1.79 0 3.25 1.45 3.25 3.25v.75h-18v-.75c0-1.8 1.45-3.25 3.25-3.25h11.5Z"/></svg>