<svg viewBox="0 0 24 24" xmlns="http://www.w3.org/2000/svg"><path fill="currentColor" d="M9.38 21H6.74c-2.08 0-3.75-1.68-3.75-3.75V9h8c-2.13 1.49-3.51 3.95-3.51 6.75 0 1.99.7 3.82 1.88 5.25ZM20.99 7.5v-.75c0-2.08-1.68-3.75-3.75-3.75H6.74C4.66 3 2.99 4.67 2.99 6.75v.75h18Zm-6.19 5.25c0-.52.41-.94.93-.94 .51 0 .93.41.93.93 0 .51-.42.93-.94.93s-.94-.42-.94-.94Zm1.68 6c0 .41-.34.75-.75.75 -.42 0-.75-.34-.75-.75v-3c0-.42.33-.75.75-.75 .41 0 .75.33.75.75v3Zm-7.5-3C8.98 12.02 12 9 15.73 9c3.72 0 6.75 3.02 6.75 6.75 0 3.72-3.03 6.75-6.75 6.75 -3.73 0-6.75-3.03-6.75-6.75Zm1.5 0c0 2.89 2.35 5.25 5.25 5.25 2.89 0 5.25-2.36 5.25-5.25 0-2.9-2.36-5.25-5.25-5.25 -2.9 0-5.25 2.35-5.25 5.25Z"/></svg>