<svg viewBox="0 0 24 24" xmlns="http://www.w3.org/2000/svg"><path fill="currentColor" d="M21 8.5v4.55c-.37.07-.71.23-1 .44 -.01-1.39-1.12-2.5-2.5-2.5 -1.39 0-2.5 1.11-2.5 2.5v1.99c-.42-.32-.94-.5-1.5-.5 -1.39 0-2.5 1.11-2.5 2.5v3.5H6.25c-1.8 0-3.25-1.46-3.25-3.25V8.48h18ZM17.75 3C19.54 3 21 4.45 21 6.25V7H3v-.75C3 4.45 4.45 3 6.25 3h11.5Zm-.25 9c-.83 0-1.5.67-1.5 1.5v8c0 .82.67 1.5 1.5 1.5 .82 0 1.5-.68 1.5-1.5v-8c0-.83-.68-1.5-1.5-1.5Zm-4 4c-.83 0-1.5.67-1.5 1.5v4c0 .82.67 1.5 1.5 1.5 .82 0 1.5-.68 1.5-1.5v-4c0-.83-.68-1.5-1.5-1.5Zm6.5-.5c0-.83.67-1.5 1.5-1.5 .82 0 1.5.67 1.5 1.5v6c0 .82-.68 1.5-1.5 1.5 -.83 0-1.5-.68-1.5-1.5v-6Z"/></svg>