<svg viewBox="0 0 24 24" xmlns="http://www.w3.org/2000/svg"><path fill="currentColor" d="M13.25 11.75c0 .69-.56 1.25-1.25 1.25 -.7 0-1.25-.56-1.25-1.25 0-.7.55-1.25 1.25-1.25 .69 0 1.25.55 1.25 1.25ZM21 8.5v9.25c0 1.79-1.46 3.25-3.25 3.25h-4s0-.49 0-.75v-.83c.63.18 1.34 0 1.8-.52 .64-.73.57-1.83-.15-2.48l-2.25-2c-.67-.59-1.67-.59-2.33 0l-2.26 2c-.73.64-.79 1.74-.15 2.47 .46.52 1.17.7 1.8.51v.82c0 .26 0 .75 0 .75h-4c-1.8 0-3.25-1.46-3.25-3.25V8.47h18ZM12 14c1.24 0 2.25-1.01 2.25-2.25 0-1.25-1.01-2.25-2.25-2.25 -1.25 0-2.25 1-2.25 2.25 0 1.24 1 2.25 2.25 2.25Zm5.75-11C19.54 3 21 4.45 21 6.25V7H3v-.75C3 4.45 4.45 3 6.25 3h11.5Zm-2.94 15.24c-.28.3-.75.33-1.06.06l-1.01-.9v3.82c0 .41-.34.75-.75.75 -.42 0-.75-.34-.75-.75v-3.83l-1.01.89c-.31.27-.79.24-1.06-.07 -.28-.31-.25-.79.06-1.06l2.25-2c.28-.26.71-.26.99 0l2.25 2c.3.27.33.74.06 1.05Z"/></svg>