<svg viewBox="0 0 24 24" xmlns="http://www.w3.org/2000/svg"><path fill="currentColor" d="M21 17.25V9H10.993c1.52 1.23 2.5 3.12 2.5 5.25 0 1.04-.24 2.029-.66 2.91l2.99 2.99c.24.24.42.53.53.84h.87c2.07 0 3.75-1.68 3.75-3.75Zm0-10.5C21 4.67 19.32 3 17.25 3H6.75C4.67 3 3 4.67 3 6.75v.75h18v-.75ZM9.89 18.45c-.88.65-1.97 1.04-3.15 1.04 -2.9 0-5.25-2.36-5.25-5.25 0-2.9 2.35-5.25 5.25-5.25 2.89 0 5.25 2.35 5.25 5.25 0 1.17-.39 2.26-1.05 3.14l3.82 3.82c.29.29.29.76 0 1.06 -.3.29-.77.29-1.07 0l-3.83-3.83Zm.6-4.21c0-2.08-1.68-3.75-3.75-3.75 -2.08 0-3.75 1.67-3.75 3.75 0 2.07 1.67 3.75 3.75 3.75 2.07 0 3.75-1.68 3.75-3.75Z"/></svg>