<svg viewBox="0 0 24 24" xmlns="http://www.w3.org/2000/svg"><path fill="currentColor" d="M17.5 12c3.03 0 5.5 2.46 5.5 5.5 0 3.03-2.47 5.5-5.5 5.5 -3.04 0-5.5-2.47-5.5-5.5 0-3.04 2.46-5.5 5.5-5.5Zm-2.48 3.02c-.2.19-.2.51 0 .7l1.76 1.76 -1.77 1.76c-.2.19-.2.51 0 .7 .19.19.51.19.7 0l1.76-1.77 1.76 1.76c.19.19.51.19.7 0 .19-.2.19-.52 0-.71l-1.77-1.77 1.77-1.77c.19-.2.19-.52 0-.71 -.2-.2-.52-.2-.71 0l-1.78 1.76 -1.78-1.77c-.2-.2-.52-.2-.71 0Zm5.97-6.53l0 3.52c-1.02-.65-2.22-1.03-3.51-1.03 -3.59 0-6.5 2.91-6.5 6.5 0 1.28.37 2.49 1.02 3.5l-5.78-.01c-1.8 0-3.25-1.46-3.25-3.25V8.47h18Zm-3.25-5.5c1.79 0 3.25 1.45 3.25 3.25v.75h-18v-.75c0-1.8 1.45-3.25 3.25-3.25h11.5Z"/></svg>