<svg viewBox="0 0 24 24" xmlns="http://www.w3.org/2000/svg"><g fill="currentColor"><path d="M20.4 8.4v5.48c-.87-.42-1.88-.69-3-.69 -2.01 0-3.65.84-4.77 1.89 -.56.52-1.01 1.1-1.32 1.68 -.31.56-.52 1.2-.52 1.82 0 .58.18 1.2.5 1.8H6.58c-1.66 0-3-1.35-3-3v-9h16.8Zm-3-4.8c1.65 0 3 1.34 3 3v.6H3.59v-.6c0-1.66 1.34-3 3-3h10.8Zm0 10.79c-3.32 0-5.4 2.78-5.4 4.2 0 1.44 2.08 4.2 5.4 4.2 3.31 0 5.4-2.79 5.4-4.2 0-1.44-2.09-4.2-5.4-4.2Zm0 7.2c-.6 0-1.18-.18-1.67-.51 -.5-.33-.88-.8-1.11-1.35 -.23-.55-.29-1.16-.18-1.74 .11-.59.4-1.12.82-1.54 .41-.42.95-.71 1.53-.83 .58-.12 1.18-.06 1.73.17 .54.22 1.01.61 1.34 1.1 .32.49.5 1.07.5 1.66 0 .79-.32 1.55-.88 2.12 -.57.56-1.33.87-2.13.87Zm1.8-3c0 .35-.11.7-.31 1 -.2.29-.48.52-.81.66 -.33.13-.7.17-1.04.1 -.35-.07-.67-.25-.93-.5 -.26-.26-.43-.58-.5-.93 -.07-.35-.04-.72.1-1.04 .13-.33.36-.61.66-.81 .29-.2.64-.31 1-.31 .47 0 .93.18 1.27.52 .33.33.52.79.52 1.27Z"/><path fill="currentColor" fill-rule="evenodd" d="M6.59 3.75c-1.58 0-2.85 1.27-2.85 2.85v.45h16.5V6.6c0-1.58-1.28-2.85-2.85-2.85H6.58ZM3.44 6.6c0-1.74 1.41-3.15 3.15-3.15h10.8c1.73 0 3.15 1.41 3.15 3.15v.75H3.43V6.6Zm0 1.65h17.1v5.86l-.22-.11c-.85-.41-1.84-.67-2.94-.67 -1.97 0-3.57.82-4.67 1.85 -.55.51-.99 1.08-1.29 1.64 -.3.55-.51 1.16-.51 1.75 0 .54.17 1.14.48 1.72l.11.22H6.54c-1.74 0-3.15-1.42-3.15-3.15V8.21Zm.3.3v8.84c0 1.57 1.27 2.85 2.85 2.85h4.46c-.26-.55-.42-1.12-.42-1.65 0-.66.22-1.32.53-1.9 .32-.6.77-1.2 1.34-1.73 1.14-1.07 2.811-1.94 4.86-1.94 1.05 0 2.01.22 2.85.59v-5.1H3.7Zm9.6 7.3c.95-.9 2.34-1.61 4.04-1.61 1.7 0 3.08.7 4.04 1.6 .95.88 1.5 1.97 1.5 2.74 0 .38-.15.85-.4 1.32 -.26.47-.64.96-1.11 1.41 -.96.89-2.35 1.6-4.05 1.6 -1.71 0-3.09-.71-4.05-1.61 -.96-.89-1.51-1.98-1.51-2.75 0-.39.14-.86.39-1.33 .25-.48.62-.97 1.1-1.42Zm-.85 1.55c-.25.44-.36.86-.36 1.18 0 .66.49 1.67 1.4 2.53 .91.84 2.22 1.51 3.84 1.51 1.61 0 2.92-.68 3.84-1.53 .45-.43.81-.9 1.04-1.34 .24-.45.36-.87.36-1.19 0-.67-.5-1.68-1.41-2.54 -.92-.85-2.23-1.52-3.85-1.52s-2.93.67-3.85 1.52c-.46.42-.82.89-1.05 1.33Zm5.98-1.45c-.53-.22-1.1-.28-1.65-.17 -.56.1-1.07.38-1.46.78 -.4.39-.67.9-.78 1.45 -.11.55-.06 1.12.16 1.64 .21.52.58.96 1.04 1.27 .46.31 1.01.48 1.58.48 .75 0 1.48-.31 2.01-.84 .53-.54.83-1.26.83-2.02 0-.57-.17-1.12-.49-1.59 -.32-.47-.76-.84-1.279-1.05Zm-1.71-.46c.61-.13 1.24-.06 1.82.17 .57.23 1.06.64 1.41 1.16 .34.51.53 1.12.53 1.75 0 .83-.34 1.63-.93 2.22 -.6.59-1.4.92-2.23.92 -.63 0-1.24-.19-1.76-.54 -.52-.35-.93-.84-1.17-1.42 -.24-.58-.31-1.21-.18-1.82 .12-.62.42-1.18.86-1.62 .44-.45 1-.75 1.61-.87Zm.61 1.43c-.33 0-.65.09-.92.27 -.28.18-.49.43-.61.74 -.13.3-.16.63-.1.95 .06.32.22.61.45.84 .23.23.52.38.84.45 .32.06.65.03.95-.1 .3-.13.55-.34.74-.61 .18-.28.27-.6.27-.92 0-.44-.18-.86-.49-1.17 -.31-.31-.73-.49-1.17-.49Zm-1.09.02c.32-.22.69-.33 1.08-.33 .51 0 1.01.2 1.37.57 .36.36.57.86.57 1.37 0 .38-.12.76-.33 1.08 -.22.32-.52.57-.88.71s-.75.18-1.13.11c-.38-.08-.73-.27-1-.54 -.28-.28-.46-.63-.54-1 -.08-.38-.04-.78.11-1.13 .14-.36.39-.67.71-.88Z"/></g></svg>