<svg viewBox="0 0 24 24" xmlns="http://www.w3.org/2000/svg"><path fill="currentColor" d="M17.75 3C19.54 3 21 4.45 21 6.25v11.5c0 1.79-1.46 3.25-3.25 3.25H6.25C4.45 21 3 19.54 3 17.75V6.25C3 4.45 4.45 3 6.25 3h11.5Zm-10 10.5c-.7 0-1.25.55-1.25 1.25 0 .69.55 1.25 1.25 1.25C8.44 16 9 15.44 9 14.75c0-.7-.56-1.25-1.25-1.25Zm4.25 0c-.7 0-1.25.55-1.25 1.25 0 .69.55 1.25 1.25 1.25 .69 0 1.25-.56 1.25-1.25 0-.7-.56-1.25-1.25-1.25Zm-4.25-5c-.7 0-1.25.55-1.25 1.25 0 .69.55 1.25 1.25 1.25C8.44 11 9 10.44 9 9.75c0-.7-.56-1.25-1.25-1.25Zm4.25 0c-.7 0-1.25.55-1.25 1.25 0 .69.55 1.25 1.25 1.25 .69 0 1.25-.56 1.25-1.25 0-.7-.56-1.25-1.25-1.25Zm4.25 0c-.7 0-1.25.55-1.25 1.25 0 .69.55 1.25 1.25 1.25 .69 0 1.25-.56 1.25-1.25 0-.7-.56-1.25-1.25-1.25Z"/></svg>