<svg viewBox="0 0 24 24" xmlns="http://www.w3.org/2000/svg"><path fill="currentColor" d="M7.12 3C4.84 3 2.99 4.84 2.99 7.12v9.75c0 2.27 1.84 4.125 4.12 4.125h9.75c2.27 0 4.125-1.85 4.125-4.125V7.12c0-2.28-1.85-4.125-4.125-4.125H7.11ZM5.24 7.12c0-1.04.83-1.88 1.87-1.88h9.75c1.03 0 1.875.83 1.875 1.87v1.87H5.23V7.1Zm12.31 3.37h1.18v1.18l-3.32 3.31h-2.38l4.5-4.5Zm-2.13 0l-4.5 4.5H8.54l4.5-4.5h2.37Zm-9 4.5H5.23V13.8l3.31-3.32h2.37l-4.5 4.5Zm-1.19-3.32v-1.19h1.18l-1.19 1.18Zm12.31 3.31l1.18-1.19v1.18h-1.19Z"/></svg>