<svg viewBox="0 0 24 24" xmlns="http://www.w3.org/2000/svg"><path fill="currentColor" d="M17.75 3C19.54 3 21 4.45 21 6.25v11.5c0 1.79-1.46 3.25-3.25 3.25H6.25C4.45 21 3 19.54 3 17.75V6.25C3 4.45 4.45 3 6.25 3h11.5Zm-10 4c-.38 0-.7.28-.75.64l-.01.1v8.5l0 .1c.04.36.36.64.74.64 .37 0 .69-.29.74-.65l0-.11v-8.5l-.01-.11c-.05-.37-.37-.65-.75-.65Zm8.5 0c-.38 0-.7.28-.75.64l-.01.1v8.5l0 .1c.04.36.36.64.74.64 .37 0 .69-.29.74-.65l0-.11v-8.5l-.01-.11c-.05-.37-.37-.65-.75-.65ZM12 7c-.38 0-.7.28-.75.64l-.01.1v8.5l0 .1c.04.36.36.64.74.64 .37 0 .69-.29.74-.65l0-.11v-8.5l-.01-.11c-.05-.37-.37-.65-.75-.65Z"/></svg>