<svg viewBox="0 0 24 24" xmlns="http://www.w3.org/2000/svg"><g fill="currentColor"><path d="M21 8.5v3.52c-1.02-.65-2.22-1.03-3.5-1.03 -3.59 0-6.5 2.91-6.5 6.5 0 1.28.37 2.48 1.02 3.5H6.24c-1.8 0-3.25-1.46-3.25-3.25V8.49h18Z"/><path d="M17.75 3C19.54 3 21 4.45 21 6.25V7H3v-.75C3 4.45 4.45 3 6.25 3h11.5Z"/><path d="M17.5 23c3.03 0 5.5-2.47 5.5-5.5 0-3.04-2.47-5.5-5.5-5.5 -3.04 0-5.5 2.46-5.5 5.5 0 3.03 2.46 5.5 5.5 5.5Zm-.41-9h1.43c.34 0 .59.34.46.67l-.5 1.32h.63c.37 0 .59.41.39.72l-2.63 4.03c-.1.14-.26.23-.44.23 -.36 0-.61-.35-.5-.69l.77-2.32h-.78c-.35 0-.6-.35-.47-.68l1.125-3c.07-.2.25-.33.46-.33Z"/></g></svg>