<svg viewBox="0 0 24 24" xmlns="http://www.w3.org/2000/svg"><path fill="currentColor" d="M21 17.75V8.5H7.48c.07.52-.09 1.08-.5 1.48l-2 1.99c-.54.53-1.34.65-1.99.34v5.41c0 1.79 1.45 3.25 3.25 3.25h11.5c1.79 0 3.25-1.46 3.25-3.25Zm-15-1.5c-.001-.7.55-1.25 1.25-1.25 .69 0 1.25.55 1.25 1.25 0 .69-.56 1.25-1.25 1.25 -.7 0-1.25-.56-1.25-1.25Zm4.75 0c0-.7.55-1.25 1.25-1.25 .69 0 1.25.55 1.25 1.25 0 .69-.56 1.25-1.25 1.25 -.7 0-1.25-.56-1.25-1.25ZM6 11.75c0-.7.55-1.25 1.25-1.25 .69 0 1.25.55 1.25 1.25 0 .69-.56 1.25-1.25 1.25 -.7 0-1.25-.56-1.25-1.25Zm4.75 0c0-.7.55-1.25 1.25-1.25 .69 0 1.25.55 1.25 1.25 0 .69-.56 1.25-1.25 1.25 -.7 0-1.25-.56-1.25-1.25Zm4.75 0c0-.7.55-1.25 1.25-1.25 .69 0 1.25.55 1.25 1.25 0 .69-.56 1.25-1.25 1.25 -.7 0-1.25-.56-1.25-1.25ZM21 7v-.75C21 4.45 19.54 3 17.75 3H6.25C4.45 3 3 4.45 3 6.25v2.68l-.72-.72c-.3-.3-.77-.3-1.07 0 -.3.29-.3.76 0 1.06l2 1.99c.29.29.76.29 1.06 0l2-2c.29-.3.29-.77 0-1.07 -.3-.3-.77-.3-1.07 0l-.72.71V6.96h16.5Z"/></svg>