<svg viewBox="0 0 24 24" xmlns="http://www.w3.org/2000/svg"><path fill="currentColor" d="M12 11.25c0-.85.27-1.63.74-2.25H2.99v8.25c0 2.07 1.67 3.75 3.75 3.75h5.32c-.05-.25-.08-.5-.08-.75v-9ZM3 7.5v-.75C3 4.67 4.67 3 6.75 3h10.5C19.32 3 21 4.67 21 6.75v.75H3ZM16.125 9c-1.45 0-2.625 1.17-2.625 2.625v8.25c0 1.44 1.17 2.625 2.625 2.625h3.75c1.44 0 2.625-1.18 2.625-2.625v-8.25C22.5 10.175 21.32 9 19.875 9h-3.75Zm.375 9.75c0-.42.33-.75.75-.75h1.5c.41 0 .75.33.75.75 0 .41-.34.75-.75.75h-1.5c-.42 0-.75-.34-.75-.75Z"/></svg>