<svg viewBox="0 0 24 24" xmlns="http://www.w3.org/2000/svg"><path fill="currentColor" d="M11 16.5V21H6.25C4.45 21 3 19.54 3 17.75V8.5h18v3.37c-.48-.4-1.09-.63-1.75-.63l-3.65 0c-1.46.07-2.61 1.27-2.61 2.74v.05c-1.15.23-2 1.24-2 2.45ZM21 6.25C21 4.45 19.54 3 17.75 3H6.25C4.45 3 3 4.45 3 6.25V7h18v-.75ZM14 15h-.5c-.83 0-1.5.67-1.5 1.5V18h2.5v-.25c0-.42.33-.75.75-.75 .41 0 .75.33.75.75V18h3v-.25c0-.42.33-.75.75-.75 .41 0 .75.33.75.75V18H23v-1.5c0-.83-.68-1.5-1.5-1.5H21v-1c0-.97-.79-1.75-1.75-1.75h-3.5c-.97 0-1.75.78-1.75 1.75v1Zm1.5-1c0-.14.11-.25.25-.25h3.5c.13 0 .25.11.25.25v1h-4v-1ZM12 21.5v-2h2.5v.75c0 .41.33.75.75.75 .41 0 .75-.34.75-.75v-.75h3v.75c0 .41.33.75.75.75 .41 0 .75-.34.75-.75v-.75H23v2c0 .82-.68 1.5-1.5 1.5h-8c-.83 0-1.5-.68-1.5-1.5Z"/></svg>