<svg viewBox="0 0 24 24" xmlns="http://www.w3.org/2000/svg"><path fill="currentColor" d="M17.5 12c3.03 0 5.5 2.46 5.5 5.5 0 3.03-2.47 5.5-5.5 5.5 -3.04 0-5.5-2.47-5.5-5.5 0-3.04 2.46-5.5 5.5-5.5ZM21 8.5l0 3.52c-1.02-.65-2.22-1.03-3.51-1.03 -3.59 0-6.5 2.91-6.5 6.5 0 1.28.37 2.49 1.02 3.5l-5.78-.01c-1.8 0-3.25-1.46-3.25-3.25V8.48h18Zm-4.02 5.54l-.04.09 -.56 1.78h-1.81c-.54 0-.78.66-.42 1.03l.07.06 1.45 1.1 -.56 1.78c-.17.52.375.97.82.73l.07-.06 1.45-1.11 1.45 1.1c.43.32 1-.08.92-.59l-.03-.1 -.56-1.79 1.45-1.11c.43-.33.24-1.02-.25-1.1l-.1-.01h-1.81l-.56-1.79c-.17-.53-.85-.56-1.08-.1Zm.76-11.05c1.79 0 3.25 1.45 3.25 3.25v.75h-18v-.75c0-1.8 1.45-3.25 3.25-3.25h11.5Z"/></svg>