<svg viewBox="0 0 24 24" xmlns="http://www.w3.org/2000/svg"><path fill="currentColor" d="M21 8.5v3.52c-1.02-.65-2.22-1.03-3.5-1.03 -3.6 0-6.51 2.91-6.51 6.5 0 .98.22 1.92.61 2.76l-.23.73H6.22c-1.8 0-3.25-1.46-3.25-3.25V8.48h18ZM17.75 3C19.54 3 21 4.45 21 6.25V7H3v-.75C3 4.45 4.45 3 6.25 3h11.5ZM21 13.25c-.84-.7-1.89-1.14-3.03-1.24 -.16-.02-.32-.02-.47-.02 -3.04 0-5.51 2.46-5.51 5.5 0 .96.25 1.87.68 2.66L12 22.33c-.12.38.24.74.62.62l2.18-.67c.78.43 1.69.68 2.66.68 3.03 0 5.5-2.47 5.5-5.51 0-1.71-.78-3.24-2.01-4.25Zm-5.5 3.74c-.28 0-.51-.23-.51-.51s.22-.51.5-.51h4c.27 0 .5.22.5.5 0 .27-.23.5-.51.5h-4.01Zm2 2h-2.01c-.28 0-.51-.23-.51-.51s.22-.51.5-.51h2c.27 0 .5.22.5.5 0 .27-.23.5-.51.5Z"/></svg>