<svg viewBox="0 0 24 24" xmlns="http://www.w3.org/2000/svg"><path fill="currentColor" d="M21 17.75c0 1.79-1.46 3.25-3.25 3.25H6.25C4.45 21 3 19.54 3 17.75V6.25C3 4.45 4.45 3 6.25 3h11.5C19.54 3 21 4.45 21 6.25v11.5Zm-4-10c0-.38-.29-.7-.65-.75l-.11-.01h-8.5l-.11 0c-.37.04-.65.36-.65.74 0 .37.28.69.64.74l.1 0h8.5l.1-.01c.36-.05.64-.37.64-.75Zm0 8.5c0-.38-.29-.7-.65-.75l-.11-.01h-8.5l-.11 0c-.37.04-.65.36-.65.74 0 .37.28.69.64.74l.1 0h8.5l.1-.01c.36-.05.64-.37.64-.75ZM17 12c0-.38-.29-.7-.65-.75l-.11-.01h-8.5l-.11 0c-.37.04-.65.36-.65.74 0 .37.28.69.64.74l.1 0h8.5l.1-.01c.36-.05.64-.37.64-.75Z"/></svg>