<svg viewBox="0 0 24 24" xmlns="http://www.w3.org/2000/svg"><g fill="currentColor"><path d="M20.4 8.4v4.09c-.74-.33-1.55-.5-2.4-.5 -3.32 0-6 2.68-6 6 0 .85.17 1.66.49 2.4h-5.9c-1.66 0-3-1.35-3-3v-9h16.8Zm-3-4.8c1.65 0 3 1.34 3 3v.6H3.59v-.6c0-1.66 1.34-3 3-3h10.8Zm.6 10.79c-1.99 0-3.61 1.61-3.61 3.6 0 1.98 1.61 3.6 3.6 3.6 .55 0 1.06-.13 1.53-.36 .29-.15.65-.02.79.28 .14.29.01.65-.29.79 -.625.29-1.32.46-2.06.46 -2.66 0-4.81-2.15-4.81-4.81 0-2.66 2.14-4.81 4.8-4.81 2.65 0 4.79 2.14 4.8 4.79v0 .59c0 .99-.81 1.8-1.81 1.8 -.56 0-1.05-.25-1.38-.64 -.43.39-1 .63-1.63.63 -1.33 0-2.4-1.08-2.4-2.4 0-1.33 1.07-2.4 2.4-2.4 .52 0 1 .16 1.4.45 .1-.1.24-.16.39-.16 .33 0 .6.26.6.6v2.09c0 .33.26.6.6.6 .33 0 .6-.27.6-.61v-.6c0-1.99-1.62-3.61-3.61-3.61Zm-1.21 3.6c0 .66.53 1.2 1.2 1.2 .66 0 1.2-.54 1.2-1.2 0-.67-.54-1.2-1.2-1.2 -.67 0-1.2.53-1.2 1.2Z"/><path fill="currentColor" fill-rule="evenodd" d="M6.59 3.75c-1.58 0-2.85 1.27-2.85 2.85v.45h16.5V6.6c0-1.58-1.28-2.85-2.85-2.85H6.58ZM3.44 6.6c0-1.74 1.41-3.15 3.15-3.15h10.8c1.73 0 3.15 1.41 3.15 3.15v.75H3.43V6.6Zm0 1.65h17.1v4.47l-.22-.1c-.72-.32-1.51-.49-2.34-.49 -3.24 0-5.85 2.61-5.85 5.85 0 .83.17 1.62.48 2.34l.09.21H6.57c-1.74 0-3.15-1.42-3.15-3.15V8.23Zm.3.3v8.84c0 1.57 1.27 2.85 2.85 2.85h5.67c-.28-.7-.43-1.46-.43-2.25 0-3.4 2.75-6.15 6.15-6.15 .79 0 1.55.15 2.25.42V8.53H3.72Zm14.25 4.79c-2.57 0-4.66 2.08-4.66 4.65 0 2.56 2.08 4.65 4.65 4.65 .71 0 1.38-.17 1.99-.46 .22-.11.31-.38.21-.6 -.11-.23-.38-.32-.6-.22 -.5.23-1.03.36-1.61.36 -2.08 0-3.76-1.68-3.76-3.76s1.67-3.76 3.75-3.76c2.07 0 3.75 1.67 3.75 3.75v.59c0 .41-.34.75-.76.75s-.76-.34-.76-.76v-2.1c0-.25-.21-.45-.45-.45 -.12 0-.22.04-.3.11l-.09.07 -.1-.08c-.37-.27-.83-.43-1.32-.43 -1.25 0-2.25 1-2.25 2.25 0 1.24 1 2.25 2.25 2.25 .58 0 1.125-.23 1.52-.6l.11-.11 .1.11c.3.35.75.58 1.25.58 .91 0 1.65-.74 1.65-1.66v-.6 -.01c-.01-2.567-2.09-4.65-4.66-4.65Zm-4.96 4.65c0-2.74 2.21-4.96 4.95-4.96 2.73 0 4.94 2.21 4.95 4.94v0 .59c0 1.07-.88 1.95-1.96 1.95 -.55 0-1.04-.23-1.39-.58 -.44.36-1.01.57-1.62.57 -1.41 0-2.55-1.15-2.55-2.55 0-1.41 1.14-2.55 2.55-2.55 .51 0 .99.15 1.39.41 .11-.08.25-.12.4-.12 .41 0 .75.33.75.75v2.09c0 .24.2.45.45.45 .24 0 .45-.21.45-.46v-.6c0-1.91-1.55-3.46-3.46-3.46s-3.46 1.54-3.46 3.45c0 1.9 1.54 3.45 3.45 3.45 .52 0 1.02-.13 1.47-.34 .37-.18.82-.02.99.35 .17.37.01.82-.36.99 -.65.3-1.36.48-2.13.48 -2.74 0-4.96-2.22-4.96-4.96Zm3.6-.01c0-.75.6-1.35 1.35-1.35 .74 0 1.35.6 1.35 1.35 0 .74-.61 1.35-1.35 1.35 -.75 0-1.35-.61-1.35-1.35Zm1.35-1.05c-.58 0-1.05.47-1.05 1.05 0 .57.47 1.05 1.05 1.05 .57 0 1.05-.48 1.05-1.05 0-.58-.48-1.05-1.05-1.05Z"/></g></svg>