<svg viewBox="0 0 24 24" xmlns="http://www.w3.org/2000/svg"><path fill="currentColor" d="M21 8.5v3.52c-1.02-.65-2.22-1.03-3.5-1.03 -3.59 0-6.5 2.91-6.5 6.5 0 1.28.37 2.48 1.02 3.5H6.24c-1.8 0-3.25-1.46-3.25-3.25V8.49h18ZM17.75 3C19.54 3 21 4.45 21 6.25V7H3v-.75C3 4.45 4.45 3 6.25 3h11.5ZM23 17.5c0 3.03-2.47 5.5-5.5 5.5 -3.04 0-5.5-2.47-5.5-5.5 0-3.04 2.46-5.5 5.5-5.5 3.03 0 5.5 2.46 5.5 5.5Zm-2.15-2.36c-.2-.2-.52-.2-.71 0l-3.65 3.64 -1.65-1.65c-.2-.2-.52-.2-.71 0 -.2.19-.2.51 0 .7l2 2c.19.19.51.19.7 0l4-4c.19-.2.19-.52 0-.71Z"/></svg>