<svg viewBox="0 0 24 24" xmlns="http://www.w3.org/2000/svg"><path fill="currentColor" d="M17.75 3C19.54 3 21 4.45 21 6.25V7H3v-.75C3 4.45 4.45 3 6.25 3h11.5ZM21 8.5v3.52c-1.02-.65-2.22-1.03-3.5-1.03 -3.59 0-6.5 2.91-6.5 6.5 0 1.28.37 2.48 1.02 3.5H6.24c-1.8 0-3.25-1.46-3.25-3.25V8.49h18Zm2 9c0-3.04-2.47-5.5-5.5-5.5 -3.04 0-5.5 2.46-5.5 5.5 0 3.03 2.46 5.5 5.5 5.5 3.03 0 5.5-2.47 5.5-5.5Zm-5.5 0h2c.27 0 .5.22.5.5 0 .27-.23.5-.5.5H17c-.28 0-.5-.23-.5-.5v-.01 -3c0-.28.22-.5.5-.5 .27 0 .5.22.5.5v2.5Z"/></svg>