<svg viewBox="0 0 24 24" xmlns="http://www.w3.org/2000/svg"><path fill="currentColor" d="M21 8.5v4.11c-.35-.07-.68-.19-1-.38 -.34-.2-.67-.46-1-.81 -.55-.58-1.46-.58-2.01-.01 -.84.87-1.7 1.23-2.6 1.23 -.82 0-1.4.67-1.4 1.41v2.5l0 .28 0 0c.03 1.14.29 2.19.81 3.1 .2.36.44.7.71 1.01H6.22c-1.8 0-3.25-1.46-3.25-3.25V8.44h18ZM17.99 12c-.11 0-.21.04-.29.12 -1 1.03-2.1 1.54-3.32 1.54 -.23 0-.4.18-.4.41v2.5l0 .26c.03 1.01.26 1.89.68 2.65 .32.57.76 1.08 1.31 1.5 .52.4 1.14.72 1.87.97 .08.02.17.02.25 0 2.56-.89 3.87-2.72 3.87-5.4v-2.51l-.01-.09c-.04-.19-.2-.34-.4-.34 -.21 0-.41-.02-.6-.05 -.53-.08-1.03-.25-1.51-.53 -.43-.25-.83-.57-1.22-.98 -.08-.09-.19-.13-.29-.13Zm-.25-9c1.79 0 3.25 1.45 3.25 3.25V7h-18v-.75C2.99 4.45 4.44 3 6.24 3h11.5Z"/></svg>