<svg viewBox="0 0 24 24" xmlns="http://www.w3.org/2000/svg"><path fill="currentColor" d="M17.75 3C19.54 3 21 4.45 21 6.25v11.5c0 1.79-1.46 3.25-3.25 3.25H6.25C4.45 21 3 19.54 3 17.75V6.25C3 4.45 4.45 3 6.25 3h11.5ZM8.49 7.64c-.05-.37-.37-.65-.75-.65 -.42 0-.75.33-.75.75v1l0 .1c.04.36.36.64.74.64 .41 0 .75-.34.75-.75v-1l-.01-.11Zm0 7.49c-.05-.37-.37-.65-.75-.65 -.42 0-.75.33-.75.75v1l0 .1c.04.36.36.64.74.64 .41 0 .75-.34.75-.75v-1l-.01-.11Zm-.74-4.48c-.42 0-.75.33-.75.75l-.01 1.14 0 .1c.04.36.36.64.74.64 .41 0 .75-.34.75-.75l0-1.15 -.01-.11c-.05-.37-.37-.65-.75-.65Z"/></svg>