<svg viewBox="0 0 24 24" xmlns="http://www.w3.org/2000/svg"><path fill="currentColor" d="M21 6.25C21 4.45 19.54 3 17.75 3H6.25C4.45 3 3 4.45 3 6.25V7h18v-.75Zm0 5.77V8.49H3v9.25c0 1.79 1.45 3.25 3.25 3.25h5.77c-.65-1.02-1.03-2.22-1.03-3.5 0-3.59 2.91-6.5 6.5-6.5 1.28 0 2.48.37 3.5 1.02Zm2 5.47c0-3.04-2.47-5.5-5.5-5.5 -3.04 0-5.5 2.46-5.5 5.5 0 3.03 2.46 5.5 5.5 5.5 3.03 0 5.5-2.47 5.5-5.5Zm-6.13 2.87c0-.35.27-.63.62-.63 .34 0 .62.27.62.62 0 .34-.28.62-.63.62s-.63-.28-.63-.63Zm-1.23-4.55c-.02-1.14.8-1.96 1.85-1.96 1.03 0 1.85.84 1.85 1.94 0 .5-.15.84-.53 1.29l-.14.15 -.27.29 -.11.11 -.09.1c-.19.23-.24.38-.24.59 0 .27-.23.5-.5.5 -.28 0-.5-.23-.5-.5 0-.52.15-.86.53-1.32l.13-.16 .26-.3 .09-.12 .09-.12c.16-.22.22-.37.22-.57 0-.56-.39-.95-.86-.95 -.5 0-.86.36-.86.94 0 .27-.22.5-.5.5s-.51-.22-.51-.5Z"/></svg>