<svg viewBox="0 0 24 24" xmlns="http://www.w3.org/2000/svg"><path fill="currentColor" d="M21 8.5v3.52c-1.02-.65-2.22-1.03-3.5-1.03 -3.59 0-6.5 2.91-6.5 6.5 0 1.28.37 2.48 1.02 3.5H6.24c-1.8 0-3.25-1.46-3.25-3.25V8.49h18ZM17.75 3C19.54 3 21 4.45 21 6.25V7H3v-.75C3 4.45 4.45 3 6.25 3h11.5Zm-.25 20c3.03 0 5.5-2.47 5.5-5.5 0-3.04-2.47-5.5-5.5-5.5 -3.04 0-5.5 2.46-5.5 5.5 0 3.03 2.46 5.5 5.5 5.5Zm-.91-8c.11 0 .22.03.31.09l2.8 1.84c.08.05.15.13.2.22 .04.09.07.18.07.29 0 .1-.03.2-.08.29 -.02.02-.03.04-.05.06 -.05.06-.1.11-.16.15l-2.81 1.91c-.04.02-.08.04-.12.06 -.02 0-.03.01-.05.01 -.06.01-.11.02-.17.02 -.08 0-.16-.02-.23-.05 -.08-.04-.14-.08-.2-.14 -.06-.06-.1-.13-.14-.21 -.04-.08-.05-.16-.05-.24v-3.76c0-.09.01-.17.04-.24 .03-.08.07-.15.13-.2 .05-.06.11-.11.18-.14 .07-.04.14-.06.23-.06Z"/></svg>