<svg viewBox="0 0 24 24" xmlns="http://www.w3.org/2000/svg"><path fill="currentColor" d="M17.5 12c3.03 0 5.5 2.46 5.5 5.5 0 3.03-2.47 5.5-5.5 5.5 -3.04 0-5.5-2.47-5.5-5.5 0-3.04 2.46-5.5 5.5-5.5ZM21 8.5l0 3.52c-1.02-.65-2.22-1.03-3.51-1.03 -3.59 0-6.5 2.91-6.5 6.5 0 1.28.37 2.49 1.02 3.5l-5.78-.01c-1.8 0-3.25-1.46-3.25-3.25V8.48h18ZM17.5 14l-.09 0c-.21.03-.37.19-.41.4l-.01.08v2.5h-2.5l-.09 0c-.21.03-.37.19-.41.4l-.01.08 0 .08c.03.2.19.36.4.4l.08 0h2.5v2.5l0 .08c.03.2.19.36.4.4l.08 0 .08-.01c.2-.04.36-.2.4-.41l0-.09v-2.5h2.5l.08-.01c.2-.04.36-.2.4-.41l0-.09 -.01-.09c-.04-.21-.2-.37-.41-.41l-.09-.01h-2.5v-2.5l-.01-.09c-.04-.21-.2-.37-.41-.41l-.09-.01Zm.25-11C19.54 3 21 4.45 21 6.25V7H3v-.75C3 4.45 4.45 3 6.25 3h11.5Z"/></svg>