<svg viewBox="0 0 24 24" xmlns="http://www.w3.org/2000/svg"><path fill="currentColor" d="M21 8.5v3.52c-1.02-.65-2.22-1.03-3.5-1.03 -3.59 0-6.5 2.91-6.5 6.5 0 1.28.37 2.48 1.02 3.5H6.24c-1.8 0-3.25-1.46-3.25-3.25V8.49h18ZM17.75 3C19.54 3 21 4.45 21 6.25V7H3v-.75C3 4.45 4.45 3 6.25 3h11.5ZM12 17.5c0 3.03 2.46 5.5 5.5 5.5 3.03 0 5.5-2.47 5.5-5.5 0-3.04-2.47-5.5-5.5-5.5 -3.04 0-5.5 2.46-5.5 5.5Zm8.5-3.5c.27 0 .5.22.5.5v2c0 .27-.23.5-.5.5h-2c-.28 0-.5-.23-.5-.5 0-.28.22-.5.5-.5h1c-.46-.61-1.19-1-2.01-1 -.84 0-1.58.4-2.03 1.03 -.17.22-.48.27-.7.11 -.23-.17-.28-.48-.12-.7 .63-.88 1.66-1.45 2.83-1.45 .97 0 1.86.4 2.5 1.05v-.56c0-.28.22-.5.5-.5ZM15 19.94v.55c0 .27-.23.5-.5.5 -.28 0-.5-.23-.5-.5v-2c0-.28.22-.5.5-.5h2c.27 0 .5.22.5.5 0 .27-.23.5-.5.5h-1.01c.45.6 1.18 1 2 1 .76 0 1.45-.35 1.91-.89 .17-.22.49-.24.7-.06 .21.17.23.49.05.7 -.65.75-1.61 1.24-2.68 1.24 -.98 0-1.87-.41-2.5-1.06Z"/></svg>