<svg viewBox="0 0 24 24" xmlns="http://www.w3.org/2000/svg"><path fill="currentColor" d="M22.8 6.6c0 2.98-2.42 5.39-5.4 5.39 -2.99 0-5.4-2.42-5.4-5.4 0-2.99 2.41-5.4 5.4-5.4 2.98 0 5.4 2.41 5.4 5.4Zm-5.4-3c-.34 0-.6.26-.6.6v2.4c0 .33.26.6.6.6 .33 0 .6-.27.6-.6V4.2c0-.34-.27-.6-.6-.6Zm0 6.15c.41 0 .75-.34.75-.75 0-.42-.34-.75-.75-.75 -.42 0-.75.33-.75.75 0 .41.33.75.75.75Zm0 3.44c.13 0 .27-.01.41-.02 -.07.17-.15.34-.24.51l-4.16 7.08c-.2.32-.49.56-.83.7v-8.45c.35-.21.6-.6.6-1.04 0-.13-.02-.25-.06-.36 1.14.96 2.63 1.55 4.25 1.55Zm-6.6-6.6c0 1.62.58 3.1 1.55 4.25 -.12-.04-.23-.06-.36-.06 -.67 0-1.2.53-1.2 1.2 0 .44.24.83.6 1.03v8.44c-.34-.14-.64-.38-.83-.71L6.4 13.65c-.51-.86-.55-1.91-.13-2.81l1.47-3.13c-1.01-.16-1.78-1.03-1.78-2.08v-2.4c0-.5.4-.9.9-.9 .49 0 .9.4.9.9v2.4c0 .16.13.3.3.3h2.72c-.02.19-.03.39-.03.6Z"/></svg>