<svg viewBox="0 0 24 24" xmlns="http://www.w3.org/2000/svg"><g fill="currentColor"><path d="M22.8 6.6c0 2.98-2.42 5.39-5.4 5.39 -2.99 0-5.4-2.42-5.4-5.4 0-2.99 2.41-5.4 5.4-5.4 2.98 0 5.4 2.41 5.4 5.4Zm-2.58-2.23c-.24-.24-.62-.24-.85 0l-3.18 3.17 -.78-.78c-.24-.24-.62-.24-.85 0 -.24.23-.24.61 0 .84l1.2 1.2c.23.23.61.23.84 0l3.6-3.6c.23-.24.23-.62 0-.85Z"/><path d="M17.4 13.2c.13 0 .26-.01.4-.02 -.07.17-.15.34-.24.51l-4.16 7.08c-.19.32-.48.56-.81.69v-8.45c.35-.21.6-.6.6-1.04 0-.13-.02-.25-.06-.36 1.14.96 2.63 1.55 4.25 1.55Z"/><path d="M10.8 6.6c0 1.62.58 3.1 1.55 4.25 -.12-.04-.23-.06-.36-.06 -.67 0-1.2.53-1.2 1.2 0 .44.24.83.6 1.03v8.45c-.35-.14-.65-.38-.84-.71l-4.16-7.09c-.51-.86-.55-1.91-.13-2.81l1.75-3.7h-.24c-1 0-1.8-.81-1.8-1.8v-2.4c0-.34.26-.6.6-.6 .33 0 .6.26.6.6v2.4c0 .33.26.6.6.6h3.02c-.02.19-.03.39-.03.6Z"/></g></svg>