<svg viewBox="0 0 24 24" xmlns="http://www.w3.org/2000/svg"><path fill="currentColor" d="M15.5 2.75c0-.42-.34-.75-.75-.75 -.42 0-.75.33-.75.75v7.5c0 .41.33.75.75.75 .41 0 .75-.34.75-.75v-7.5Zm4 0c0-.42-.34-.75-.75-.75 -.42 0-.75.33-.75.75v7.5c0 .41.33.75.75.75 .41 0 .75-.34.75-.75v-7.5Zm-9.28 2.58L9.36 3.3c-.44-1.02-1.51-1.54-2.52-1.22l-1.08.34c-1.07.34-1.89 1.25-2.15 2.4 -.63 2.72.12 6.05 2.25 9.96 2.12 3.91 4.46 6.26 7 7.05 1.07.33 2.23.03 3.05-.78l.81-.83c.76-.77.87-2.02.25-2.92l-1.24-1.82c-.53-.78-1.47-1.11-2.34-.83l-2.28.75c-.91-.69-1.67-1.56-2.28-2.6 -.61-1.05-.97-2.11-1.09-3.18l1.89-1.8c.68-.65.88-1.69.51-2.57Z"/></svg>