<svg viewBox="0 0 24 24" xmlns="http://www.w3.org/2000/svg"><path fill="currentColor" d="M9.925 2.05l1.03.19c.97.18 1.62 1.09 1.52 2.12l-.2 2.04c-.09.89-.72 1.65-1.57 1.87l-2.36.63c-.39.93-.56 1.96-.53 3.09 .03 1.12.26 2.17.7 3.14l2.2.39c.83.14 1.46.83 1.54 1.71l.2 2.03c.1 1.01-.55 1.98-1.52 2.27l-1.04.3c-1.04.3-2.12.03-2.86-.73 -1.74-1.79-2.6-4.76-2.61-8.92 -.01-4.17.85-7.23 2.58-9.19 .72-.83 1.8-1.22 2.83-1.02Zm6.77 5.09l.08.07 3.99 3.99c.26.26.29.68.07.97l-.08.08 -4 4c-.3.29-.77.29-1.07 0 -.27-.27-.3-.69-.08-.98l.07-.09 2.71-2.72 -6.43 0c-.38 0-.7-.29-.75-.65l-.01-.11c0-.38.28-.7.64-.75l.1-.01 6.44-.01 -2.73-2.73c-.27-.27-.3-.69-.08-.98l.07-.09c.23-.24.59-.29.87-.14l.1.06Z"/></svg>