<svg viewBox="0 0 24 24" xmlns="http://www.w3.org/2000/svg"><path fill="currentColor" d="M9.36 3.31l.85 2.02c.37.88.16 1.92-.52 2.56l-1.9 1.79c.11 1.07.47 2.13 1.08 3.17 .6 1.04 1.36 1.9 2.27 2.59l2.27-.76c.86-.29 1.8.04 2.33.82l1.23 1.81c.61.9.5 2.14-.26 2.91l-.82.82c-.82.81-1.98 1.11-3.06.77 -2.54-.8-4.88-3.15-7.01-7.06 -2.14-3.92-2.89-7.24-2.26-9.97 .26-1.15 1.08-2.07 2.14-2.41l1.07-.35c1-.33 2.08.19 2.51 1.21Zm5.38-1.32l6.55 0 .1.01 .09.02 .06.02c.07.03.15.08.21.14l.04.04 .04.05 .05.08 .04.09 .02.09 .01.09 -.01.01 0 .02 0 6.53c0 .41-.34.75-.75.75 -.38 0-.7-.29-.75-.65l-.01-.11 -.01-4.7 -6.22 6.22c-.27.26-.69.29-.98.07l-.09-.08c-.27-.27-.3-.69-.08-.98l.07-.09 6.21-6.23 -4.7 0c-.38 0-.7-.29-.75-.65l-.01-.11c0-.38.28-.7.64-.75l.1-.01Z"/></svg>