<svg viewBox="0 0 24 24" xmlns="http://www.w3.org/2000/svg"><path fill="currentColor" d="M20.93 5.65c-1.96-1.74-5.03-2.6-9.19-2.59 -4.16 0-7.13.87-8.91 2.6 -.76.73-1.03 1.81-.73 2.85l.3 1.03c.28.96 1.26 1.61 2.27 1.51l2.03-.21c.87-.09 1.56-.72 1.71-1.55l.39-2.21c.96-.44 2.01-.68 3.14-.71 1.12-.04 2.15.14 3.08.52l.63 2.35c.22.84.98 1.47 1.87 1.56l2.04.19c1.02.09 1.93-.56 2.12-1.53l.19-1.04c.19-1.03-.2-2.11-1.02-2.84Zm-8.94 16.34c-3.04 0-5.5-2.47-5.5-5.5 0-3.04 2.46-5.5 5.5-5.5 3.03 0 5.5 2.46 5.5 5.5 0 3.03-2.47 5.5-5.5 5.5Zm0-1.5c2.2 0 4-1.8 4-4 0-.84-.26-1.61-.7-2.25l-5.56 5.55c.64.43 1.41.69 2.24.69Zm-3.31-1.76l5.55-5.56c-.65-.44-1.42-.7-2.25-.7 -2.21 0-4 1.79-4 4 0 .83.25 1.6.69 2.24Z"/></svg>