<svg viewBox="0 0 24 24" xmlns="http://www.w3.org/2000/svg"><path fill="currentColor" d="M21.78 2.21c.29.29.29.76 0 1.06l-3.22 3.21 3.21 3.21c.29.29.29.76 0 1.06 -.3.29-.77.29-1.07 0l-3.22-3.22 -3.22 3.21c-.3.29-.77.29-1.07 0 -.3-.3-.3-.77 0-1.07l3.21-3.22 -3.22-3.22c-.3-.3-.3-.77 0-1.07 .29-.3.76-.3 1.06 0l3.21 3.21 3.21-3.22c.29-.3.76-.3 1.06 0ZM9.36 3.3l.85 2.02c.37.88.16 1.92-.52 2.56l-1.9 1.79c.11 1.07.47 2.13 1.08 3.17 .6 1.04 1.36 1.9 2.27 2.59l2.27-.76c.86-.29 1.8.04 2.33.82l1.23 1.81c.61.9.5 2.14-.26 2.91l-.82.82c-.82.81-1.98 1.11-3.06.77 -2.54-.8-4.88-3.15-7.01-7.06 -2.14-3.92-2.89-7.24-2.26-9.97C3.82 3.62 4.64 2.7 5.7 2.36l1.07-.35c1-.33 2.08.19 2.51 1.21Z"/></svg>