<svg viewBox="0 0 24 24" xmlns="http://www.w3.org/2000/svg"><g fill="currentColor"><path d="M21.36 9.32l.18-1c.18-.99-.18-2.04-.97-2.74 -1.89-1.67-4.6-2.6-8.6-2.59 -4 0-7.07.94-8.78 2.6 -.73.7-.99 1.74-.7 2.73l.29.99c.27.92 1.21 1.54 2.18 1.45l1.95-.2c.83-.09 1.2-.79 1.44-1.6 .35-1.21.6-2.1.6-2.1 .91-.35 1.78-.61 3-.61 1.21 0 2.1.23 3 .6 0 0 .23.89.6 2.09 .26.88.9 1.51 1.75 1.59l1.96.18c.98.09 1.85-.54 2.03-1.47Zm-3.97 6.87c0 2.98-2.42 5.4-5.4 5.4 -2.99 0-5.41-2.42-5.41-5.4 0-2.99 2.41-5.4 5.4-5.4 2.98 0 5.4 2.41 5.4 5.4Zm-5.4-3c-.34 0-.6.26-.6.6v2.4c0 .33.26.6.6.6 .33 0 .6-.27.6-.6v-2.4c0-.34-.27-.6-.6-.6Zm0 6.15c.41 0 .75-.34.75-.75 0-.42-.34-.75-.75-.75 -.42 0-.75.33-.75.75 0 .41.33.75.75.75Z"/><path fill="currentColor" fill-rule="evenodd" d="M11.99 2.85c4.02-.01 6.77.93 8.69 2.62 .83.73 1.21 1.83 1.01 2.87l-.19.99c-.2 1.01-1.14 1.68-2.2 1.58l-1.97-.19c-.94-.09-1.61-.78-1.89-1.71 -.19-.61-.34-1.14-.44-1.51 -.06-.19-.1-.34-.13-.45l-.03-.09c-.86-.35-1.72-.57-2.88-.57s-2 .23-2.88.56l-.03.08c-.03.1-.08.25-.13.44 -.11.37-.26.9-.44 1.5 -.24.8-.64 1.6-1.58 1.69l-1.96.19c-1.05.1-2.05-.56-2.35-1.56l-.3-1c-.32-1.05-.04-2.15.73-2.89 1.75-1.71 4.87-2.64 8.88-2.65Zm-3.14 4l.02-.08 .07-.03c.92-.35 1.81-.61 3.05-.61 1.23 0 2.14.23 3.05.61l.06.02 .01.07 0 .01 0 .03 .03.11c.02.1.06.25.12.43 .1.37.25.89.43 1.49 .25.84.84 1.41 1.63 1.49l1.96.18c.91.08 1.71-.5 1.87-1.35l.18-1c.17-.94-.17-1.94-.92-2.6 -1.85-1.63-4.52-2.56-8.5-2.55 -3.98 0-7.01.93-8.68 2.55 -.69.66-.94 1.64-.66 2.58l.29.99c.25.85 1.12 1.43 2.02 1.34l1.95-.2c.73-.08 1.07-.69 1.31-1.49 .17-.61.32-1.13.43-1.51 .05-.19.09-.34.12-.44l.03-.12 .01-.05Zm3.14 4.08c-2.9 0-5.26 2.35-5.26 5.25 0 2.89 2.35 5.25 5.25 5.25 2.89 0 5.25-2.36 5.25-5.25 0-2.9-2.36-5.25-5.25-5.25Zm-5.56 5.25c0-3.07 2.48-5.55 5.55-5.55 3.06 0 5.55 2.48 5.55 5.55 0 3.06-2.49 5.55-5.55 5.55 -3.07 0-5.56-2.49-5.56-5.55Zm4.8-2.4c0-.42.33-.75.75-.75 .41 0 .75.33.75.75v2.4c0 .41-.34.75-.75.75 -.42 0-.75-.34-.75-.75v-2.4Zm.75-.45c-.25 0-.45.2-.45.45v2.4c0 .24.2.45.45.45 .24 0 .45-.21.45-.45v-2.4c0-.25-.21-.45-.45-.45Zm-.9 5.25c0-.5.4-.9.9-.9 .49 0 .9.4.9.9 0 .49-.41.9-.9.9 -.5 0-.9-.41-.9-.9Zm.9-.6c-.34 0-.6.26-.6.6 0 .33.26.6.6.6 .33 0 .6-.27.6-.6 0-.34-.27-.6-.6-.6Z"/></g></svg>