<svg viewBox="0 0 24 24" xmlns="http://www.w3.org/2000/svg"><g fill="currentColor"><path d="M17.4 1.2c2.98 0 5.4 2.41 5.4 5.4 0 2.98-2.42 5.39-5.4 5.39 -2.99 0-5.4-2.42-5.4-5.4 0-2.99 2.41-5.4 5.4-5.4Zm.74 8.4c0-.42-.34-.75-.75-.75 -.42 0-.75.33-.75.74s.33.74.74.74 .74-.34.74-.75Zm1.47-4.27c0-1.33-.99-2.34-2.23-2.34 -1.26 0-2.24.98-2.23 2.34 0 .33.27.59.6.59 .33-.01.59-.28.59-.61 -.01-.7.43-1.14 1.02-1.14 .56 0 1.02.47 1.02 1.13 0 .24-.09.37-.44.65l-.34.25c-.61.48-.86.86-.86 1.54 0 .33.26.6.6.6 .29 0 .53-.22.59-.5l.01-.19c.02-.18.11-.31.41-.54l.33-.26c.61-.5.87-.88.87-1.59Z"/><path d="M17.4 13.2c.13 0 .26-.01.4-.02 -.07.17-.15.34-.24.51l-4.16 7.08c-.19.32-.48.56-.81.69v-8.45c.35-.21.6-.6.6-1.04 0-.13-.02-.25-.06-.36 1.14.96 2.63 1.55 4.25 1.55Z"/><path d="M10.8 6.6c0 1.62.58 3.1 1.55 4.25 -.12-.04-.23-.06-.36-.06 -.67 0-1.2.53-1.2 1.2 0 .44.24.83.6 1.03v8.45c-.35-.14-.65-.38-.84-.71l-4.16-7.09c-.51-.86-.55-1.91-.13-2.81l1.75-3.7h-.24c-1 0-1.8-.81-1.8-1.8v-2.4c0-.34.26-.6.6-.6 .33 0 .6.26.6.6v2.4c0 .33.26.6.6.6h3.02c-.02.19-.03.39-.03.6Z"/></g></svg>