<svg viewBox="0 0 24 24" xmlns="http://www.w3.org/2000/svg"><path fill="currentColor" d="M15.23 1.68l-4.39 8.64c-.42.82.18 1.78 1.12 1.78h8.76c.93 0 1.53-.97 1.12-1.79l-4.39-8.65c-.47-.92-1.79-.92-2.25 0Zm1.74 2.39v3.7c0 .34-.29.61-.63.61 -.35 0-.63-.28-.63-.62V4.05c0-.35.28-.62.62-.62 .34 0 .62.27.62.61Zm-.63 6.8c-.35 0-.63-.28-.63-.62 0-.35.28-.62.62-.62 .34 0 .62.27.62.61 0 .34-.29.61-.63.61ZM7.61 2.36c-1.31-.33-2.67-.19-3.74.4 -1.09.6-1.86 1.66-1.9 3.09 -.06 2.22.46 5.21 2.53 8.71 2.04 3.46 4.31 5.53 6.18 6.77 1.18.77 2.49.8 3.61.29 1.1-.51 1.99-1.5 2.46-2.74 .23-.63.17-1.32-.16-1.9l-1.2-2.11c-.76-1.34-2.4-1.93-3.86-1.38l-.84.31c-.41.15-.78.08-.99-.13 -.71-.69-1.22-1.62-1.45-2.63 -.08-.32.07-.69.42-.96l.75-.57c1.25-.94 1.61-2.66.83-4.01L9.03 3.4c-.33-.57-.87-.97-1.51-1.13Z"/></svg>