<svg viewBox="0 0 24 24" xmlns="http://www.w3.org/2000/svg"><path fill="currentColor" d="M7.5 2.75c0-.42-.34-.75-.75-.75 -.42 0-.75.33-.75.75v3c0 .89.67 1.63 1.54 1.73l-1.02 2.5c-.41 1-.37 2.18.11 3.14l3.98 7.95c.14.29.36.53.61.69v-9.48c-.45-.26-.75-.75-.75-1.3 0-.83.67-1.5 1.5-1.5 .82 0 1.5.67 1.5 1.5 0 .55-.31 1.04-.75 1.29v9.47c.25-.16.46-.4.61-.7l3.98-7.96c.48-.97.52-2.14.11-3.15L16.4 7.42c.86-.11 1.54-.85 1.54-1.74v-3c0-.42-.34-.75-.75-.75 -.42 0-.75.33-.75.75v3c0 .13-.12.25-.25.25h-8.5c-.14 0-.25-.12-.25-.25v-3Z"/></svg>