<svg viewBox="0 0 24 24" xmlns="http://www.w3.org/2000/svg"><path fill="currentColor" d="M9.36 3.31l.85 2.02c.37.88.16 1.92-.52 2.56l-1.9 1.79c.11 1.07.47 2.13 1.08 3.17 .6 1.04 1.36 1.9 2.27 2.59l2.27-.76c.86-.29 1.8.04 2.33.82l1.23 1.81c.61.9.5 2.14-.26 2.91l-.82.82c-.82.81-1.98 1.11-3.06.77 -2.54-.8-4.88-3.15-7.01-7.06 -2.14-3.92-2.89-7.24-2.26-9.97 .26-1.15 1.08-2.07 2.14-2.41l1.07-.35c1-.33 2.08.19 2.51 1.21Zm5.13 5.12l6.22-6.23c.29-.3.76-.3 1.06-.01 .26.26.29.68.07.97l-.08.08 -6.23 6.22 4.69 0c.37 0 .69.28.74.64l0 .1c0 .37-.29.69-.65.74l-.11 0 -6.56-.01 -.1-.02 -.1-.03 -.07-.03c-.08-.04-.16-.09-.22-.15l-.05-.05 -.03-.04 -.05-.07 -.05-.1 -.04-.1 -.02-.08 -.01-.09 -.01-.06V3.6c0-.42.33-.75.75-.75 .37 0 .69.28.74.64l0 .1 -.01 4.69 6.22-6.23 -6.23 6.22Z"/></svg>