<svg viewBox="0 0 24 24" xmlns="http://www.w3.org/2000/svg"><path fill="currentColor" d="M20.93 5.65c-1.96-1.74-5.03-2.6-9.19-2.59 -4.16 0-7.13.87-8.91 2.6 -.76.73-1.03 1.81-.73 2.85l.3 1.03c.28.96 1.26 1.61 2.27 1.51l2.03-.21c.87-.09 1.56-.72 1.71-1.55l.39-2.21c.96-.44 2.01-.68 3.14-.71 1.12-.04 2.15.14 3.08.52l.63 2.35c.22.84.98 1.47 1.87 1.56l2.04.19c1.02.09 1.93-.56 2.12-1.53l.19-1.04c.19-1.03-.2-2.11-1.02-2.84Zm-9.19 8.34c.41 0 .75.33.75.75v1.75h1c.41 0 .75.33.75.75 0 .41-.34.75-.75.75h-1.75c-.42 0-.75-.34-.75-.75v-2.5c0-.42.33-.75.75-.75Zm.25-3c-3.04 0-5.51 2.46-5.51 5.5 0 3.03 2.46 5.5 5.5 5.5 3.03 0 5.5-2.47 5.5-5.5 0-3.04-2.47-5.5-5.5-5.5Zm-4.01 5.5c0-2.21 1.79-4 4-4 2.2 0 4 1.79 4 4 0 2.2-1.8 4-4 4 -2.21 0-4.01-1.8-4.01-4Z"/></svg>