<svg viewBox="0 0 24 24" xmlns="http://www.w3.org/2000/svg"><g fill="currentColor"><path d="M4.26 2.93c1.02-.58 2.33-.71 3.58-.4 .6.15 1.12.54 1.43 1.09l1.07 1.87c.79 1.39.35 3.16-1 4.02l-.95.6c-.4.24-.54.62-.45.93 .32 1.077 1.03 2.27 1.81 3.09 .23.24.65.3 1.07.05l.52-.31c1.44-.85 3.3-.34 4.12 1.12l.96 1.72c.31.56.36 1.23.14 1.84 -.45 1.2-1.31 2.17-2.36 2.66 -1.08.49-2.33.47-3.47-.29 -1.8-1.2-3.97-3.22-5.93-6.58 -1.99-3.41-2.49-6.31-2.44-8.47 .03-1.39.76-2.42 1.81-3.01Zm11.03-.46c-.29-.17-.66-.06-.82.23 -.17.28-.06.65.23.81l.46.25c2.92 1.62 4.86 4.57 5.19 7.9l.03.37c.03.32.32.57.65.53 .32-.04.57-.33.53-.66l-.04-.38c-.38-3.72-2.55-7.02-5.81-8.84l-.47-.26Zm-1.41 3.21c.17-.29.53-.38.82-.21l.14.08c1.95 1.17 3.3 3.15 3.68 5.4l.05.32c.05.32-.17.63-.5.69 -.33.05-.64-.17-.7-.5l-.06-.33c-.32-1.91-1.46-3.58-3.12-4.58l-.15-.09c-.29-.18-.38-.54-.21-.83Z"/><path fill="currentColor" fill-rule="evenodd" d="M7.8 2.68c-1.22-.31-2.49-.18-3.48.37 -1.01.55-1.7 1.54-1.74 2.87 -.06 2.13.43 5.007 2.41 8.38 1.95 3.34 4.1 5.34 5.87 6.52 1.08.72 2.28.74 3.31.27 1.01-.47 1.84-1.41 2.27-2.58 .2-.57.15-1.2-.14-1.72l-.97-1.73c-.78-1.4-2.55-1.88-3.93-1.07l-.53.3c-.47.27-.97.22-1.27-.09 -.8-.84-1.53-2.06-1.86-3.16 -.12-.39.07-.83.5-1.11l.94-.61c1.28-.82 1.7-2.51.94-3.83L9.04 3.61c-.3-.51-.78-.88-1.35-1.03Zm-3.62.11c1.06-.6 2.4-.74 3.69-.41 .64.16 1.2.58 1.53 1.16l1.07 1.87c.83 1.46.37 3.32-1.05 4.22l-.95.6c-.36.22-.45.53-.39.76 .31 1.05 1.01 2.22 1.77 3.03 .17.18.52.24.89.03l.52-.31c1.52-.89 3.47-.36 4.33 1.18l.96 1.72c.33.6.39 1.32.15 1.96 -.46 1.23-1.35 2.23-2.44 2.74 -1.12.51-2.43.49-3.61-.3 -1.82-1.22-4-3.25-5.98-6.63 -2.01-3.44-2.51-6.36-2.46-8.55 .03-1.45.8-2.53 1.88-3.13Zm10.15-.17c.2-.37.65-.5 1.01-.3l.46.25c3.3 1.83 5.5 5.18 5.88 8.94l.03.37c.04.41-.26.77-.68.82 -.42.04-.78-.26-.83-.68l-.04-.38c-.33-3.28-2.25-6.19-5.12-7.79l-.47-.26c-.37-.21-.5-.66-.3-1.02Zm.87-.03c-.22-.13-.5-.05-.62.17 -.13.21-.05.49.17.61l.46.25c2.96 1.64 4.93 4.64 5.27 8.01l.03.37c.02.24.24.42.49.4 .24-.03.42-.25.4-.5l-.04-.38c-.37-3.67-2.51-6.93-5.74-8.72l-.47-.26Zm-.59 3c-.22-.13-.49-.06-.62.15s-.06.48.15.61l.14.08c1.69 1.01 2.86 2.72 3.18 4.67l.05.32c.04.24.27.41.51.36 .24-.05.41-.28.36-.52l-.06-.33c-.37-2.22-1.69-4.15-3.62-5.31l-.15-.09Zm-.88 0c.21-.36.67-.48 1.029-.26l.14.08c1.99 1.19 3.36 3.21 3.75 5.51l.05.32c.06.4-.21.79-.62.86 -.41.06-.8-.21-.87-.62l-.06-.33c-.32-1.87-1.43-3.5-3.05-4.48l-.15-.09c-.36-.22-.48-.68-.26-1.03Z"/></g></svg>