<svg viewBox="0 0 24 24" xmlns="http://www.w3.org/2000/svg"><path fill="currentColor" d="M21.78 3.28c.29-.3.29-.77 0-1.07 -.3-.3-.77-.3-1.07 0l-5.72 5.71 -1.87-1.87c-.3-.3-.77-.3-1.07 0 -.3.29-.3.76 0 1.06l2.4 2.4c.14.14.33.21.53.21 .19 0 .38-.08.53-.22l6.24-6.25ZM6.84 2.09l-1.08.34c-1.07.34-1.89 1.25-2.15 2.4 -.63 2.72.12 6.05 2.25 9.96 2.12 3.91 4.46 6.26 7 7.05 1.07.33 2.23.03 3.05-.78l.81-.83c.76-.77.87-2.02.25-2.92l-1.24-1.82c-.53-.78-1.47-1.11-2.34-.83l-2.28.75c-.91-.69-1.67-1.56-2.28-2.6 -.61-1.05-.97-2.11-1.09-3.18l1.89-1.8c.68-.65.88-1.69.51-2.57l-.86-2.03c-.44-1.02-1.51-1.54-2.52-1.22Z"/></svg>