<svg viewBox="0 0 24 24" xmlns="http://www.w3.org/2000/svg"><path fill="currentColor" d="M15.85 6.14c.08.08.16.17.23.26 .19.25.34.54.45.84l.44 1.37c.03.1.1.19.19.26 .09.06.2.09.31.09 .11 0 .22-.04.31-.1 .08-.06.14-.14.18-.23 0-.02 0-.03.01-.04l.44-1.38c.13-.42.37-.8.68-1.12 .31-.32.69-.55 1.11-.69l1.37-.45c.1-.04.19-.11.26-.2 .06-.1.1-.21.1-.32 0-.12-.04-.23-.1-.32 -.07-.1-.16-.17-.27-.2l-.03-.01 -1.38-.45c-.42-.14-.8-.38-1.12-.69 -.32-.32-.55-.7-.69-1.12L17.89.26c-.04-.11-.11-.2-.2-.27 -.1-.07-.21-.1-.32-.1 -.12 0-.23.03-.32.09 -.1.06-.17.15-.2.26l-.45 1.37 -.02.03c-.14.4-.37.76-.67 1.07 -.11.1-.23.2-.35.29l-.01-.01c-.11.07-.22.14-.34.21 -.14.07-.28.13-.43.18l-.61.19 -.78.24c-.11.03-.2.1-.26.2 -.07.08-.1.19-.11.3 -.01 0-.01.01-.01.01s0 .01 0 .02c0 .09.03.18.08.26 0 0 .01.01.01.02 .04.06.11.12.18.16 .02.01.05.02.07.03l1.38.45c.25.08.5.2.72.35 .13.09.26.2.39.32Zm7.16 3.81l.76.24 .01 0c.05.02.11.05.14.11 .03.05.05.11.05.17 0 .06-.02.12-.06.17 -.04.05-.09.08-.15.11l-.77.24c-.24.07-.45.2-.62.38 -.18.17-.31.38-.39.61l-.25.76c-.03.05-.06.11-.12.14 -.06.03-.12.05-.18.05 -.04 0-.07-.01-.1-.02 -.05-.01-.08-.03-.12-.06 -.06-.04-.1-.09-.12-.14l-.1-.42 -.12-.35c-.08-.24-.21-.45-.39-.62 -.18-.18-.39-.31-.62-.39l-.77-.25c-.06-.03-.12-.06-.15-.12 -.04-.06-.06-.12-.06-.18 0-.07.01-.13.05-.18 .03-.06.08-.09.14-.12l.76-.25c.22-.08.43-.22.6-.39 .17-.18.29-.39.37-.62l.24-.77c.02-.06.05-.11.11-.15 .05-.04.11-.06.17-.06 .06 0 .12.01.17.05 .05.03.08.08.11.14l.24.76c.07.23.2.44.38.61 .17.17.38.3.61.38Zm-8.02 2.53c0-1.66-1.35-3-3-3 -1.66 0-3 1.34-3 3 0 1.65 1.34 3 3 3 1.65 0 3-1.35 3-3Zm7 5.25v-3.86c-.17.07-.36.11-.54.11 -.27 0-.54-.09-.75-.25 -.23-.17-.4-.39-.49-.65l-.24-.76c-.03-.09-.08-.17-.14-.23 -.07-.06-.14-.11-.22-.14l-.79-.25c-.26-.1-.48-.26-.63-.48 -.16-.22-.25-.49-.24-.75 -.01-.24.06-.47.18-.67 -.22.1-.45.16-.68.16 -.32-.01-.63-.1-.89-.29 -.27-.2-.47-.47-.57-.77l-.44-1.38c-.07-.2-.17-.39-.29-.55l-.15-.17c-.21-.21-.45-.36-.72-.44l-1.4-.46c-.3-.12-.56-.32-.74-.57 -.19-.27-.28-.58-.28-.89 0-.33.09-.64.28-.9 .19-.27.46-.47.77-.57l1.36-.44c.02-.01.04-.02.06-.03 -.18-.05-.35-.07-.54-.07h-3.81c-.79 0-1.51.4-1.92 1.07l-.88 1.42H5.2c-1.8 0-3.25 1.45-3.25 3.25v9.5c0 1.79 1.45 3.25 3.25 3.25h13.5c1.79 0 3.25-1.46 3.25-3.25Zm-14.5-5.25c0-2.49 2.01-4.5 4.5-4.5 2.48 0 4.5 2.01 4.5 4.5 0 2.48-2.02 4.5-4.5 4.5 -2.49 0-4.5-2.02-4.5-4.5Z"/></svg>