<svg viewBox="0 0 24 24" xmlns="http://www.w3.org/2000/svg"><path fill="currentColor" d="M9.74 2.39c-.69 0-1.31.38-1.61.99l-.71 1.4H5.39c-1.66 0-3 1.34-3 3v9.6c0 1.65 1.34 3 3 3h4.19c0-.14.03-.28.06-.42l.44-1.8c.13-.56.4-1.08.76-1.52 -2.12-.51-3.69-2.41-3.69-4.68 0-2.66 2.14-4.81 4.79-4.81 2.26 0 4.15 1.56 4.66 3.66l.25-.26c1.28-1.29 3.32-1.35 4.68-.18V7.73c0-1.66-1.35-3-3-3H16.5l-.71-1.41c-.31-.61-.93-1-1.62-1H9.65Zm5.85 9.53c-.04-1.96-1.64-3.54-3.6-3.54 -1.99 0-3.6 1.61-3.6 3.6 0 1.96 1.57 3.56 3.53 3.59l3.66-3.67Zm2.17-.48l-5.8 5.79c-.34.33-.58.76-.7 1.22l-.45 1.79c-.2.78.51 1.48 1.29 1.29l1.79-.45c.46-.12.88-.36 1.22-.7l5.79-5.8c.87-.88.87-2.3 0-3.18 -.88-.88-2.3-.88-3.18 0Z"/></svg>