<svg viewBox="0 0 24 24" xmlns="http://www.w3.org/2000/svg"><path fill="currentColor" d="M21.25 7.5c.37 0 .69.28.74.64l0 .1v8.5c0 1.73-1.36 3.14-3.07 3.24l-.19 0H6.04l.71.71c.26.26.29.68.07.97l-.08.08c-.27.26-.69.29-.98.07l-.09-.08 -2-2 -.07-.08c-.01-.01-.01-.01-.01-.01l.07.08c-.04-.04-.07-.08-.1-.12 -.02-.03-.03-.05-.04-.07 -.01-.01-.01-.02-.02-.03 -.02-.03-.03-.06-.04-.09 -.01-.01-.01-.02-.01-.02 -.03-.07-.04-.15-.04-.22 0-.04 0-.08 0-.12 0-.02 0-.03 0-.04 0-.03.01-.05.01-.08 0-.02 0-.03.01-.04 0-.03.01-.05.02-.07 0-.02.01-.03.01-.04 .01-.03.02-.05.04-.07 0-.01 0-.02.01-.02 .02-.04.04-.06.07-.09l2-2c.29-.3.76-.3 1.06 0 .26.26.29.68.07.97l-.08.08 -.73.71h12.69c.91 0 1.67-.71 1.74-1.61l0-.15V8.1c0-.42.33-.75.75-.75Zm-3.06-5.36l.08.07 2 2c.02.02.04.05.07.08l-.08-.09c.03.03.06.07.09.11 .01.02.02.04.03.06 0 0 0 .01.01.02 .01.02.02.05.03.08 0 0 0 .01 0 .01 .02.06.03.14.03.21 0 .03-.01.07-.01.11 -.01 0-.01.01-.01.02 -.01.02-.02.05-.02.07 -.01.01-.01.02-.02.03 -.01.02-.02.04-.03.06 -.01.01-.02.02-.02.03 -.02.02-.03.04-.05.06 -.01 0-.01.01-.02.01 -.03.03-.05.05-.07.07l-.01 0 -2 2c-.3.29-.77.29-1.07 0 -.27-.27-.3-.69-.08-.98l.07-.09 .71-.72H5.13c-.92 0-1.68.7-1.75 1.6l-.01.14v8.5c0 .41-.34.75-.75.75 -.38 0-.7-.29-.75-.65l-.01-.11v-8.5c0-1.74 1.35-3.15 3.06-3.25l.18-.01H17.78l-.72-.72c-.27-.27-.3-.69-.08-.98l.07-.09c.26-.27.68-.3.97-.08Zm-6.2 5.85c2.2 0 4 1.79 4 4 0 2.2-1.8 4-4 4 -2.21 0-4-1.8-4-4 0-2.21 1.79-4 4-4Z"/></svg>