<svg viewBox="0 0 24 24" xmlns="http://www.w3.org/2000/svg"><path fill="currentColor" d="M13.92 2.5c.79 0 1.53.42 1.94 1.11l.81 1.38h2.07c1.79 0 3.25 1.45 3.25 3.25v9.5c0 1.79-1.46 3.25-3.25 3.25H5.24c-1.8 0-3.25-1.46-3.25-3.25v-9.5c0-1.8 1.45-3.25 3.25-3.25h2.08l.87-1.43c.4-.67 1.13-1.08 1.91-1.08h3.8Zm-1.93 5.49c-2.49 0-4.5 2.01-4.5 4.5 0 2.48 2.01 4.5 4.5 4.5 2.48 0 4.5-2.02 4.5-4.5 0-2.49-2.02-4.5-4.5-4.5Zm0 1.5c1.65 0 3 1.34 3 3 0 1.65-1.35 3-3 3 -1.66 0-3-1.35-3-3 0-1.66 1.34-3 3-3Z"/></svg>