<svg viewBox="0 0 24 24" xmlns="http://www.w3.org/2000/svg"><path fill="currentColor" d="M2.21 2.21c.29-.3.76-.3 1.06 0l18.49 18.5c.29.29.29.76 0 1.06 -.3.29-.77.29-1.07 0l-.95-.95c-.33.1-.67.16-1.03.16H5.21c-1.8 0-3.25-1.46-3.25-3.25v-9.5c0-1.41.88-2.599 2.13-3.06L2.17 3.25c-.3-.3-.3-.77 0-1.07Zm11.6 12.66c-.51.38-1.14.61-1.83.61 -1.66 0-3-1.35-3-3 0-.69.22-1.32.61-1.83L8.52 9.58c-.66.78-1.05 1.78-1.05 2.88 0 2.48 2.01 4.5 4.5 4.5 1.09 0 2.1-.4 2.88-1.05l-1.07-1.07Zm2.61-1.63c.04-.25.06-.5.06-.76 0-2.49-2.02-4.5-4.5-4.5 -.26 0-.51.02-.76.06l-3.6-3.6 .55-.9c.4-.67 1.13-1.08 1.91-1.08h3.8c.79 0 1.53.42 1.94 1.11l.81 1.38h2.07c1.79 0 3.25 1.45 3.25 3.25v9.5c0 .32-.05.63-.14.93l-5.43-5.43Z"/></svg>