<svg viewBox="0 0 24 24" xmlns="http://www.w3.org/2000/svg"><path fill="currentColor" d="M17.5 12c3.03 0 5.5 2.46 5.5 5.5 0 3.03-2.47 5.5-5.5 5.5 -3.04 0-5.5-2.47-5.5-5.5 0-3.04 2.46-5.5 5.5-5.5Zm0 1.99l-.09 0c-.21.03-.37.19-.41.4l-.01.08 -.01 2.5 -2.51 0 -.09 0c-.21.03-.37.19-.41.4l-.01.08 0 .08c.03.2.19.36.4.4l.08 0 2.5-.01 0 2.5 0 .08c.03.2.19.36.4.4l.08 0 .08-.01c.2-.04.36-.2.4-.41l0-.09 -.01-2.51 2.5 0 .08-.01c.2-.04.36-.2.4-.41l0-.09 -.01-.09c-.04-.21-.2-.37-.41-.41l-.09-.01 -2.51-.01 0-2.5 -.01-.09c-.04-.21-.2-.37-.41-.41l-.09-.01Zm-3.58-11.5c.79 0 1.53.42 1.94 1.11l.81 1.38h2.07c1.79 0 3.25 1.45 3.25 3.25l0 4.56c-1.17-1.13-2.76-1.82-4.51-1.82 -.42 0-.83.03-1.22.11 -.59-1.81-2.29-3.12-4.29-3.12 -2.49 0-4.5 2.01-4.5 4.5 0 2.15 1.5 3.95 3.52 4.39 -.02.19-.03.4-.03.6 0 1.28.37 2.48 1.02 3.5l-6.78-.01c-1.8 0-3.25-1.46-3.25-3.25v-9.5c0-1.8 1.45-3.25 3.25-3.25h2.08l.87-1.43c.4-.67 1.13-1.08 1.91-1.08h3.8Zm-1.93 6.99c1.32 0 2.45.86 2.85 2.06 -1.65.73-2.94 2.13-3.52 3.86 -1.34-.3-2.34-1.5-2.34-2.93 0-1.66 1.34-3 3-3Z"/></svg>