<svg viewBox="0 0 24 24" xmlns="http://www.w3.org/2000/svg"><path fill="currentColor" d="M2 3.75C2 2.78 2.78 2 3.75 2h16.5c.96 0 1.75.78 1.75 1.75 0 .96-.79 1.75-1.75 1.75H3.75C2.78 5.5 2 4.71 2 3.75ZM12 17.5c2.2 0 4-1.8 4-4 0-2.21-1.8-4-4-4 -2.21 0-4 1.79-4 4 0 2.2 1.79 4 4 4Zm2.5-4c0 1.38-1.12 2.5-2.5 2.5 -1.39 0-2.5-1.12-2.5-2.5 0-1.39 1.11-2.5 2.5-2.5 1.38 0 2.5 1.11 2.5 2.5ZM3 7h18v6c0 4.97-4.03 9-9 9 -4.98 0-9-4.03-9-9V7Zm9 12c3.03 0 5.5-2.47 5.5-5.5 0-3.04-2.47-5.5-5.5-5.5 -3.04 0-5.5 2.46-5.5 5.5 0 3.03 2.46 5.5 5.5 5.5Z"/></svg>