<svg viewBox="0 0 24 24" xmlns="http://www.w3.org/2000/svg"><path fill="currentColor" d="M5.25 4C3.45 4 2 5.45 2 7.25v9.5C2 18.54 3.45 20 5.25 20h13.5c1.79 0 3.25-1.46 3.25-3.25v-9.5C22 5.45 20.54 4 18.75 4H5.25ZM5 7.75c0-.42.33-.75.75-.75h5.5c.41 0 .75.33.75.75 0 .41-.34.75-.75.75h-5.5c-.42 0-.75-.34-.75-.75ZM6 13h7c.55 0 1 .44 1 1v2c0 .55-.45 1-1 1H6c-.56 0-1-.45-1-1v-2c0-.56.44-1 1-1Zm-.25-3.5h10.5c.41 0 .75.33.75.75 0 .41-.34.75-.75.75H5.75c-.42 0-.75-.34-.75-.75 0-.42.33-.75.75-.75Z"/></svg>