<svg viewBox="0 0 24 24" xmlns="http://www.w3.org/2000/svg"><path fill="currentColor" d="M2.5 4.25c0-.42.33-.75.75-.75h.55c.95 0 1.51.63 1.84 1.23 .21.39.37.85.49 1.27 .03-.01.06-.01.1-.01h12.49c.83 0 1.42.79 1.2 1.59l-1.83 6.4c-.34 1.18-1.42 1.99-2.65 1.99H9.49c-1.24 0-2.33-.83-2.66-2.03l-.77-2.78L4.8 6.91l-.01-.01c-.16-.57-.31-1.1-.52-1.5 -.22-.39-.38-.46-.53-.46h-.56c-.42 0-.75-.34-.75-.75ZM9 21c1.1 0 2-.9 2-2 0-1.11-.9-2-2-2 -1.11 0-2 .89-2 2 0 1.1.89 2 2 2Zm7 0c1.1 0 2-.9 2-2 0-1.11-.9-2-2-2 -1.11 0-2 .89-2 2 0 1.1.89 2 2 2Z"/></svg>