<svg viewBox="0 0 24 24" xmlns="http://www.w3.org/2000/svg"><path fill="currentColor" d="M4.25 4C3 4 2 5 2 6.25v11.5C2 18.99 3 20 4.25 20h15.5c1.24 0 2.25-1.01 2.25-2.25V6.25C22 5 20.99 4 19.75 4H4.25Zm1.49 4.99c4 0 7.25 3.24 7.25 7.25 0 .41-.34.75-.75.75 -.42 0-.75-.34-.75-.75 0-3.18-2.58-5.76-5.76-5.76 -.42 0-.75-.34-.75-.75 0-.42.33-.75.75-.75Zm-.75 3.75c0-.42.33-.75.75-.75 2.34 0 4.24 1.9 4.24 4.24 0 .41-.34.75-.75.75 -.42 0-.75-.34-.75-.75 0-1.52-1.23-2.75-2.75-2.75 -.42 0-.75-.34-.75-.75Zm2 3.24c0 .55-.45.99-1 .99 -.56 0-1-.45-1-1 0-.56.44-1 .99-1s.99.44.99.99Z"/></svg>