<svg viewBox="0 0 24 24" xmlns="http://www.w3.org/2000/svg"><path fill="currentColor" d="M8.25 3C6.45 3 5 4.45 5 6.25V8.5h2.25c.41 0 .75.33.75.75 0 .41-.34.75-.75.75H5v0c-1.68.12-3 1.52-3 3.24v4.5c0 1.79 1.45 3.25 3.25 3.25h5c1.71 0 3.11-1.33 3.24-3h0v-1.75c0-.42.33-.75.75-.75 .41 0 .75.33.75.75v1.75h3.75c1.79 0 3.25-1.46 3.25-3.25v-8.5c0-1.8-1.46-3.25-3.25-3.25H8.24Zm2.25 10.99c-.56 0-1-.45-1-1 0-.56.44-1 .99-1s.99.44.99.99 -.45.99-1 .99Zm-.26-5c2.34 0 4.247 1.9 4.247 4.24 0 .41-.34.75-.75.75 -.42 0-.75-.34-.75-.75 0-1.52-1.23-2.747-2.747-2.747 -.42 0-.75-.34-.75-.76s.33-.75.75-.75Zm0-3.01c4 0 7.25 3.24 7.25 7.25 0 .41-.34.75-.75.75 -.42 0-.75-.34-.75-.75 0-3.18-2.58-5.76-5.76-5.76 -.42 0-.75-.34-.75-.75 0-.42.33-.75.75-.75Z"/></svg>