<svg viewBox="0 0 24 24" xmlns="http://www.w3.org/2000/svg"><path fill="currentColor" d="M3.28 2.21c-.3-.3-.77-.3-1.07-.01 -.3.29-.3.76-.01 1.06l8.78 8.78v6.93c0 .55.44 1 1 1 .55 0 1-.45 1-1v-4.94l2 2v2.94c0 .54.44.99 1 .99 .55 0 1-.45 1-1v-.95l3.71 3.71c.29.29.76.29 1.06 0 .29-.3.29-.77 0-1.07L3.25 2.14ZM18.99 15.8l2 2V5.98c0-.56-.45-1-1-1 -.56 0-1 .44-1 .99v9.81Zm-4-4.01l2 2V8.96c0-.55-.45-1-1-1 -.56 0-1 .44-1 .99v2.82Zm-7 2.18c.55 0 1 .44 1 .99v4.01c0 .54-.45.99-1 .99 -.56 0-1-.45-1-1v-4.02c0-.55.44-1 1-1Zm-4 3c.55 0 1 .44 1 .98v1.03c0 .54-.45.98-1 .98 -.56 0-1-.45-1-.99v-1.04c0-.55.44-.99 1-.99Z"/></svg>