<svg viewBox="0 0 24 24" xmlns="http://www.w3.org/2000/svg"><path fill="currentColor" d="M16 9c.55 0 1 .44 1 .99v1.05c-.71.14-1.37.58-1.74 1.33l-.27.52V9.97c0-.55.44-1 1-1Zm3-2.01v4.49c.29.22.55.51.73.89l1.26 2.52V6.97c0-.56-.45-1-1-1 -.56 0-1 .44-1 .99Zm-7.74 13.38l1.73-3.47v-3.92c0-.56-.45-1-1-1 -.56 0-1 .44-1 1v7c0 .21.06.41.18.57 .02-.07.05-.13.08-.2Zm-3.27-5.39c.55 0 1 .44 1 .99v4.01c0 .54-.45.99-1 .99 -.56 0-1-.45-1-1v-4.02c0-.55.44-1 1-1Zm-4 3c.55 0 1 .44 1 .98v1.03c0 .54-.45.98-1 .98 -.56 0-1-.45-1-.99v-1.04c0-.55.44-.99 1-.99Zm12.15-5.17l-4 7.99c-.5.99.22 2.17 1.34 2.17h7.99c1.11 0 1.84-1.18 1.34-2.18l-4-8c-.56-1.11-2.14-1.11-2.69 0Zm1.84 2.66v3c0 .27-.23.5-.51.5s-.51-.23-.51-.51v-3.01c0-.28.22-.51.5-.51 .27 0 .5.22.5.5Zm-.51 5.5c-.28 0-.51-.23-.51-.51s.22-.51.5-.51c.27 0 .5.22.5.5 0 .27-.23.5-.51.5Z"/></svg>