<svg viewBox="0 0 24 24" xmlns="http://www.w3.org/2000/svg"><g fill="currentColor"><path d="M12.89 3.61l0 0c.2.35.09.81-.27 1.02 -.35.2-.8.09-1.02-.25 -.01-.01-.01-.01-.02-.02 -.03-.03-.08-.08-.16-.12 -.15-.09-.47-.21-1.07-.1 -.41.07-.62.33-.75.66 -.07.16-.11.33-.12.47 -.01.06-.02.11-.02.14 -.01.01-.01.02-.01.03l-.01 0v1.24c0 .55.44 1 1 1h.25c.46 0 .85-.32.96-.75h-.47c-.42 0-.75-.34-.75-.75 0-.42.33-.75.75-.75h1.24l0-.01c.41 0 .75.33.75.75v.5c0 1.38-1.12 2.5-2.5 2.5h-.25c-1.39 0-2.51-1.12-2.51-2.5V5.41 5.4l0-.01 0-.01 0-.03c0-.03 0-.05 0-.09 0-.07.01-.16.02-.27 .02-.22.08-.51.2-.82 .24-.63.78-1.4 1.87-1.6 .91-.17 1.59-.01 2.06.25 .23.12.39.27.51.39 .05.06.1.11.13.16 .01.02.03.04.04.05 0 0 .01.01.01.02l0 0 0 0 0 0 0 0Z"/><path d="M4.72 3.06c.59-.73 1.77-.31 1.77.63v2.8h.25c.41 0 .75.33.75.75 0 .41-.34.75-.75.75h-.25v.5c0 .41-.34.75-.75.75 -.42 0-.75-.34-.75-.75v-.5h-1.8c-1.02 0-1.58-1.18-.93-1.97l2.45-2.98Zm.27 3.43V5.08l-1.17 1.4h1.16Z"/><path d="M19.99 6c.55 0 1 .44 1 .99v13c0 .55-.45.99-1 .99 -.56 0-1-.45-1-1V6.97c0-.56.44-1 1-1Z"/><path d="M15.99 9c.55 0 1 .44 1 .99v10c0 .54-.45.99-1 .99 -.56 0-1-.45-1-1V9.97c0-.55.44-1 1-1Z"/><path d="M11.99 12c.55 0 1 .44 1 1v7c0 .55-.45 1-1 1 -.56 0-1-.45-1-1v-7c0-.56.44-1 1-1Z"/><path d="M7.99 15c.55 0 1 .44 1 .99V20c0 .54-.45.99-1 .99 -.56 0-1-.45-1-1v-4.02c0-.55.44-1 1-1Z"/><path d="M3.99 18c.55 0 1 .44 1 .98v1.03c0 .54-.45.98-1 .98 -.56 0-1-.45-1-.99v-1.04c0-.55.44-.99 1-.99Z"/></g></svg>