<svg viewBox="0 0 24 24" xmlns="http://www.w3.org/2000/svg"><g fill="currentColor"><path d="M12.89 3.61l-.01-.01 -.01-.01 -.01-.01 -.01-.01 -.01-.01c-.01-.01-.01-.02-.02-.03 -.02-.02-.03-.04-.05-.06 -.04-.05-.08-.1-.14-.17 -.12-.13-.29-.27-.52-.4 -.48-.27-1.16-.43-2.07-.26 -1.1.2-1.64.96-1.88 1.59 -.13.31-.18.6-.21.81 -.02.1-.03.19-.03.26 -.01.03-.01.06-.01.08l-.01.02 -.01 0 -.01 0v0 1.25c0 1.38 1.11 2.5 2.5 2.5h.25c1.38 0 2.5-1.12 2.5-2.5v-.51c0-.42-.34-.75-.75-.75l-.01 0h-1.25c-.42 0-.75.33-.75.75 0 .41.33.75.75.75h.46c-.12.43-.51.74-.97.74h-.25c-.56 0-1-.45-1-1V5.38l0-.01c0-.01 0-.02 0-.04 0-.04 0-.09.01-.15 .01-.14.05-.31.11-.48 .13-.34.34-.6.74-.67 .59-.11.91 0 1.06.09 .08.04.12.09.15.11 0 0 .01.01.01.01 .21.33.66.44 1.01.24 .35-.21.47-.67.26-1.03Z"/><path d="M4 2.75c-.39 0-.71.28-.75.66L3 5.66c-.03.23.06.46.23.63 .17.16.41.23.64.18l1-.19c.44-.09.85.26.85.71 0 .4-.33.72-.73.72h-.22c-.26 0-.49-.13-.63-.34l-.06-.09c-.23-.35-.7-.44-1.05-.21 -.35.22-.44.69-.21 1.04l.05.08c.41.62 1.11 1 1.87 1h.21c1.23 0 2.22-1 2.22-2.23 0-1.4-1.26-2.45-2.63-2.2l-.02 0 .06-.59H6.4c.41 0 .75-.34.75-.75 0-.42-.34-.75-.75-.75H3.9Z"/><path d="M21 6.99c0-.56-.45-1-1-1 -.56 0-1 .44-1 .99v13c0 .55.44.99 1 .99 .55 0 1-.45 1-1V6.96Z"/><path d="M17 9.99c0-.55-.45-1-1-1 -.56 0-1 .44-1 .99v10c0 .54.44.99 1 .99 .55 0 1-.45 1-1V9.96Z"/><path d="M13 13c0-.56-.45-1-1-1 -.56 0-1 .44-1 1v7c0 .55.44 1 1 1 .55 0 1-.45 1-1v-7Z"/><path d="M9 15.99c0-.55-.45-1-1-1 -.56 0-1 .44-1 .99v4.01c0 .54.44.99 1 .99 .55 0 1-.45 1-1v-4.02Z"/><path d="M5 18.98c0-.55-.45-.99-1-.99 -.56 0-1 .44-1 .98V20c0 .54.44.98 1 .98 .55 0 1-.45 1-.99v-1.04Z"/></g></svg>