<svg viewBox="0 0 24 24" xmlns="http://www.w3.org/2000/svg"><g fill="currentColor"><path d="M12.89 3.61l-.01-.01 -.01-.01 -.01-.01 -.01-.01 -.01-.01c-.01-.01-.01-.02-.02-.03 -.02-.02-.03-.04-.05-.06 -.04-.05-.08-.1-.14-.17 -.12-.13-.29-.27-.52-.4 -.48-.27-1.16-.43-2.07-.26 -1.1.2-1.64.96-1.88 1.59 -.13.31-.18.6-.21.81 -.02.1-.03.19-.03.26 -.01.03-.01.06-.01.08l-.01.02 -.01 0 -.01 0v0 1.25c0 1.38 1.11 2.5 2.5 2.5h.25c1.38 0 2.5-1.12 2.5-2.5v-.51c0-.42-.34-.75-.75-.75l-.01 0h-1.25c-.42 0-.75.33-.75.75 0 .41.33.75.75.75h.46c-.12.43-.51.74-.97.74h-.25c-.56 0-1-.45-1-1V5.38l0-.01c0-.01 0-.02 0-.04 0-.04 0-.09.01-.15 .01-.14.05-.31.11-.48 .13-.34.34-.6.74-.67 .59-.11.91 0 1.06.09 .08.04.12.09.15.11 0 0 .01.01.01.01 .21.33.66.44 1.01.24 .35-.21.47-.67.26-1.03Z"/><path d="M4.43 4.61c.03-.03.05-.05.05-.05l.01-.02 .01-.02c.01-.01.02-.03.04-.04 .03-.03.08-.07.15-.11 .13-.08.31-.15.52-.15 .16 0 .25.04.32.1 .07.06.13.15.16.27 .04.17.01.34-.06.44 -.05.07-.16.17-.44.17 -.42 0-.75.33-.75.75 0 .41.33.75.75.75 .25 0 .35.08.4.14 .06.07.1.2.09.35 -.01.14-.07.27-.15.36 -.07.07-.18.13-.36.13 -.41 0-.68-.24-.75-.31l-.02-.02c-.32-.27-.79-.24-1.06.08 -.27.31-.24.78.08 1.05 -.02-.02.17.17.47.34 .29.16.72.33 1.26.33 1.25 0 1.94-.99 2-1.9 .03-.46-.09-.95-.39-1.36 .02-.04.04-.07.06-.1 .32-.5.39-1.12.25-1.65 -.21-.79-.88-1.51-1.95-1.51 -1.06 0-1.77.69-1.69.63 -.34.24-.42.7-.18 1.04 .24.33.7.41 1.04.17Z"/><path d="M21 6.99c0-.56-.45-1-1-1 -.56 0-1 .44-1 .99v13c0 .55.44.99 1 .99 .55 0 1-.45 1-1V6.96Z"/><path d="M17 9.99c0-.55-.45-1-1-1 -.56 0-1 .44-1 .99v10c0 .54.44.99 1 .99 .55 0 1-.45 1-1V9.96Z"/><path d="M13 13c0-.56-.45-1-1-1 -.56 0-1 .44-1 1v7c0 .55.44 1 1 1 .55 0 1-.45 1-1v-7Z"/><path d="M9 15.99c0-.55-.45-1-1-1 -.56 0-1 .44-1 .99v4.01c0 .54.44.99 1 .99 .55 0 1-.45 1-1v-4.02Z"/><path d="M5 18.98c0-.55-.45-.99-1-.99 -.56 0-1 .44-1 .98V20c0 .54.44.98 1 .98 .55 0 1-.45 1-.99v-1.04Z"/></g></svg>