<svg viewBox="0 0 24 24" xmlns="http://www.w3.org/2000/svg"><path fill="currentColor" d="M4.75 3C3.23 3 2 4.23 2 5.75v5.24c.91-1.22 2.36-2 4-2 2.76 0 5 2.23 5 5 0 1.12-.38 2.16-1 3v.99h9.25c1.51 0 2.75-1.24 2.75-2.75v-9.5c0-1.52-1.24-2.75-2.75-2.75H4.75Zm2 4h10.5c.41 0 .75.33.75.75 0 .41-.34.75-.75.75H6.75c-.42 0-.75-.34-.75-.75 0-.42.33-.75.75-.75ZM12 12.75c0-.42.33-.75.75-.75h4.5c.41 0 .75.33.75.75 0 .41-.34.75-.75.75h-4.5c-.42 0-.75-.34-.75-.75ZM5.99 10c-2.21 0-4.01 1.79-4.01 4 0 2.2 1.79 4 4 4 2.2 0 4-1.8 4-4.01s-1.8-4.01-4.01-4.01Zm3 8c-.84.62-1.88 1-3.01 1s-2.17-.38-3-1l-.01 3.24c0 .57.6.91 1.09.66l.08-.06 1.82-1.28 1.81 1.27c.46.32 1.09.03 1.17-.52l0-.11 0-3.25Z"/></svg>