<svg viewBox="0 0 24 24" xmlns="http://www.w3.org/2000/svg"><path fill="currentColor" d="M17.75 3C19.54 3 21 4.45 21 6.25v5.77c-1.02-.65-2.22-1.03-3.51-1.03 -1.85 0-3.52.76-4.7 2H8.73l-.11 0c-.37.04-.65.36-.65.74 0 .37.28.69.64.74l.1 0h2.98c-.47.89-.74 1.91-.74 2.99 0 1.28.37 2.48 1.02 3.5H6.19c-1.8 0-3.25-1.46-3.25-3.25l-.01-8.38c.23.08.48.12.75.12 1.24 0 2.25-1.01 2.25-2.26 0-1.25-1.01-2.26-2.26-2.26 -.19 0-.36.02-.53.06 .47-1.21 1.65-2.07 3.02-2.07h11.5Zm-2.5 6.49H8.74l-.11 0c-.37.04-.65.36-.65.74 0 .37.28.69.64.74l.1 0h6.5l.1-.01c.36-.05.64-.37.64-.75 0-.42-.34-.75-.75-.75ZM3.74 5.99c.69 0 1.25.55 1.25 1.25 0 .69-.56 1.25-1.26 1.25s-1.26-.56-1.26-1.26 .55-1.26 1.25-1.26Zm19.24 11.5c0-3.04-2.47-5.5-5.5-5.5 -3.04 0-5.5 2.46-5.5 5.5 0 3.03 2.46 5.5 5.5 5.5 3.03 0 5.5-2.47 5.5-5.5Zm-5 .5l0 2.5c0 .27-.23.5-.5.5 -.28 0-.5-.23-.5-.5l-.01-2.51h-2.51c-.28 0-.5-.23-.5-.5 0-.28.22-.5.49-.5h2.5l-.01-2.51c0-.28.22-.5.5-.5 .27 0 .5.22.5.5l0 2.5h2.49c.27 0 .49.22.49.5 0 .27-.23.5-.5.5h-2.5Z"/></svg>