<svg viewBox="0 0 24 24" xmlns="http://www.w3.org/2000/svg"><path fill="currentColor" d="M17.5 12c3.03 0 5.5 2.46 5.5 5.5 0 3.03-2.47 5.5-5.5 5.5 -3.04 0-5.5-2.47-5.5-5.5 0-3.04 2.46-5.5 5.5-5.5Zm.25-9c1.73 0 3.14 1.35 3.24 3.06l0 .18 0 5.77c-1.02-.65-2.22-1.03-3.51-1.03 -1.85 0-3.52.76-4.7 2l-4.06-.01 -.11 0c-.37.04-.65.36-.65.74 0 .37.28.69.64.74l.1 0 2.98-.01c-.47.89-.74 1.91-.74 2.99 0 1.28.37 2.49 1.02 3.5l-5.78-.01c-1.74 0-3.15-1.36-3.25-3.07l-.01-.19 -.01-8.38c.23.08.48.12.75.12 1.24 0 2.25-1.01 2.25-2.26 0-1.25-1.01-2.26-2.26-2.26 -.19 0-.36.02-.53.06 .45-1.15 1.54-1.98 2.83-2.06l.19-.01h11.5Zm.75 17h-2l0 .11c.05.49.48.88.99.88 .55 0 1-.45 1-1Zm-1-6.01l-.17 0c-.94.08-1.67.76-1.81 1.63l-.02.15 -.01.2v1.29l-.86.85c-.3.29-.12.78.26.84l.08 0h5c.41 0 .63-.47.4-.79l-.06-.07 -.85-.85v-1.36l-.01-.15c-.08-1.02-.95-1.81-2-1.81Zm-2.26-4.51H8.73l-.11 0c-.37.04-.65.36-.65.74 0 .37.28.69.64.74l.1 0h6.5l.1-.01c.36-.05.64-.37.64-.75 0-.42-.34-.75-.75-.75ZM3.73 5.98c.69 0 1.25.55 1.25 1.25 0 .69-.56 1.25-1.26 1.25s-1.26-.56-1.26-1.26 .55-1.26 1.25-1.26Z"/></svg>