<svg viewBox="0 0 24 24" xmlns="http://www.w3.org/2000/svg"><path fill="currentColor" d="M17.75 3C19.54 3 21 4.45 21 6.25v11.5c0 1.79-1.46 3.25-3.25 3.25H6.25C4.45 21 3 19.54 3 17.75l-.01-8.38c.23.08.48.12.75.12 1.24 0 2.25-1.01 2.25-2.26 0-1.25-1.01-2.26-2.26-2.26 -.19 0-.36.02-.53.06 .47-1.21 1.65-2.07 3.02-2.07h11.5Zm-4.51 10h-4.5l-.11 0c-.37.04-.65.36-.65.74 0 .37.28.69.64.74l.1 0h4.49l.1-.01c.36-.05.64-.37.64-.75 0-.42-.34-.75-.75-.75Zm2-3.51H8.73l-.11 0c-.37.04-.65.36-.65.74 0 .37.28.69.64.74l.1 0h6.5l.1-.01c.36-.05.64-.37.64-.75 0-.42-.34-.75-.75-.75ZM3.73 5.99c.69 0 1.25.55 1.25 1.25 0 .69-.56 1.25-1.26 1.25s-1.26-.56-1.26-1.26 .55-1.26 1.25-1.26Z"/></svg>