<svg viewBox="0 0 24 24" xmlns="http://www.w3.org/2000/svg"><path fill="currentColor" d="M21 6.25C21 4.45 19.54 3 17.75 3H6.25c-1.38 0-2.56.85-3.03 2.06 .16-.05.34-.07.52-.07 1.24 0 2.25 1 2.25 2.25 0 1.24-1.01 2.25-2.26 2.25 -.27 0-.52-.05-.76-.13l0 8.37c0 1.79 1.45 3.25 3.25 3.25h5.77c-.65-1.02-1.03-2.22-1.03-3.5 0-1.09.26-2.11.73-3H8.7l-.11-.01c-.37-.05-.65-.37-.65-.75s.28-.7.64-.75l.1-.01h4.05c1.18-1.24 2.84-2.01 4.69-2.01 1.28 0 2.48.37 3.5 1.02V6.19ZM8.74 9.49h6.5c.41 0 .75.33.75.74 0 .37-.29.69-.65.74l-.11 0H8.72l-.11-.01c-.37-.05-.65-.37-.65-.75s.28-.7.64-.75l.1-.01ZM4.99 7.24c0-.7-.56-1.26-1.26-1.26s-1.26.55-1.26 1.25c0 .69.55 1.25 1.25 1.25 .69 0 1.25-.56 1.25-1.26Zm12.49 4.74c3.03 0 5.5 2.46 5.5 5.5 0 3.03-2.47 5.5-5.5 5.5 -3.04 0-5.5-2.47-5.5-5.5 0-3.04 2.46-5.5 5.5-5.5Zm2.99 6c.27 0 .49-.23.49-.5 0-.28-.23-.5-.5-.5h-6.01c-.28 0-.5.22-.5.5 0 .27.22.5.49.5h6Z"/></svg>