<svg viewBox="0 0 24 24" xmlns="http://www.w3.org/2000/svg"><path fill="currentColor" d="M3 6.25C3 4.45 4.45 3 6.25 3h6c1.79 0 3.25 1.45 3.25 3.25 0 .41-.34.75-.75.75 -.42 0-.75-.34-.75-.75 0-.97-.79-1.75-1.75-1.75h-6c-.97 0-1.75.78-1.75 1.75v6c0 .96.78 1.75 1.75 1.75h5.85c.32-1.16 1.38-2 2.64-2 1.51 0 2.75 1.23 2.75 2.75 0 1.51-1.24 2.75-2.75 2.75 -1.26 0-2.32-.85-2.65-2H6.23c-1.8 0-3.25-1.46-3.25-3.25v-6ZM17.75 10c.96 0 1.75.78 1.75 1.75v6c0 .96-.79 1.75-1.75 1.75h-6c-.97 0-1.75-.79-1.75-1.75 0-.42-.34-.75-.75-.75 -.42 0-.75.33-.75.75 0 1.79 1.45 3.25 3.25 3.25h6c1.79 0 3.25-1.46 3.25-3.25v-6c0-1.8-1.46-3.25-3.25-3.25h-5.86c-.33-1.16-1.39-2-2.65-2 -1.52 0-2.75 1.23-2.75 2.75 0 1.51 1.23 2.75 2.75 2.75 1.25 0 2.32-.85 2.64-2h5.85Z"/></svg>