<svg viewBox="0 0 24 24" xmlns="http://www.w3.org/2000/svg"><path fill="currentColor" d="M17.5 12c3.03 0 5.5 2.46 5.5 5.5 0 3.03-2.47 5.5-5.5 5.5 -3.04 0-5.5-2.47-5.5-5.5 0-3.04 2.46-5.5 5.5-5.5Zm.25-9c1.73 0 3.14 1.35 3.24 3.06l0 .18 0 5.77c-1.02-.65-2.22-1.03-3.51-1.03 -1.85 0-3.52.76-4.7 2l-4.06-.01 -.11 0c-.37.04-.65.36-.65.74 0 .37.28.69.64.74l.1 0 2.98-.01c-.47.89-.74 1.91-.74 2.99 0 1.28.37 2.49 1.02 3.5l-5.78-.01c-1.74 0-3.15-1.36-3.25-3.07l-.01-.19 -.01-8.38c.23.08.48.12.75.12 1.24 0 2.25-1.01 2.25-2.26 0-1.25-1.01-2.26-2.26-2.26 -.19 0-.36.02-.53.06 .45-1.15 1.54-1.98 2.83-2.06l.19-.01h11.5Zm-2.657 11.96l-.07.05 -.06.06c-.12.17-.12.39 0 .56l.05.06 1.76 1.76 -1.77 1.76 -.06.06c-.12.17-.12.39 0 .56l.05.06 .06.05c.17.11.39.11.56 0l.06-.06 1.76-1.77 1.76 1.76 .06.05c.17.11.39.11.56 0l.06-.06 .05-.07c.11-.18.11-.4 0-.57l-.06-.07 -1.77-1.77 1.77-1.77 .05-.07c.11-.18.11-.4 0-.57l-.06-.07 -.07-.06c-.18-.12-.4-.12-.57 0l-.07.05 -1.78 1.76 -1.77-1.77 -.07-.06c-.15-.11-.34-.12-.5-.05l-.08.04Zm.15-5.48h-6.51l-.11 0c-.37.04-.65.36-.65.74 0 .37.28.69.64.74l.1 0h6.5l.1-.01c.36-.05.64-.37.64-.75 0-.42-.34-.75-.75-.75ZM3.73 5.98c.69 0 1.25.55 1.25 1.25 0 .69-.56 1.25-1.26 1.25s-1.26-.56-1.26-1.26 .55-1.26 1.25-1.26Z"/></svg>