<svg viewBox="0 0 24 24" xmlns="http://www.w3.org/2000/svg"><path fill="currentColor" d="M12.5 2.75c0-.42-.34-.75-.75-.75 -.42 0-.75.33-.75.75V3H5.25C3.45 3 2 4.45 2 6.25v9.5C2 17.54 3.45 19 5.25 19h2.39l-1.48 1.76c-.27.31-.23.79.09 1.05 .31.26.79.22 1.05-.1l2.27-2.74h3.5c.33-1.16 1.4-2 2.66-2H16c-.65-.64-1.06-1.53-1.06-2.5 0-1.94 1.56-3.5 3.5-3.5 1.93 0 3.5 1.56 3.5 3.5V6.22c0-1.8-1.46-3.25-3.25-3.25h-6.25v-.25Zm-6.5 5c0-.42.33-.75.75-.75h4c.41 0 .75.33.75.75 0 .41-.34.75-.75.75h-4c-.42 0-.75-.34-.75-.75ZM6.75 10h6.5c.41 0 .75.33.75.75 0 .41-.34.75-.75.75h-6.5c-.42 0-.75-.34-.75-.75 0-.42.33-.75.75-.75Zm0 3h5.5c.41 0 .75.33.75.75 0 .41-.34.75-.75.75h-5.5c-.42 0-.75-.34-.75-.75 0-.42.33-.75.75-.75ZM21 14.5c0 1.38-1.12 2.5-2.5 2.5 -1.39 0-2.5-1.12-2.5-2.5 0-1.39 1.11-2.5 2.5-2.5 1.38 0 2.5 1.11 2.5 2.5Zm2 5.375C23 21.425 21.71 23 18.5 23c-3.22 0-4.5-1.57-4.5-3.125v-.11c0-.98.79-1.78 1.77-1.78h5.45c.97 0 1.77.79 1.77 1.77v.1Z"/></svg>