<svg viewBox="0 0 24 24" xmlns="http://www.w3.org/2000/svg"><path fill="currentColor" d="M19 13.49c0-.69.27-1.3.71-1.75h-6.72c-.97 0-1.75-.79-1.75-1.75v-8c-5.14.13-9.25 4.33-9.25 9.49 0 5.07 3.98 9.22 9 9.48v-1.49c0-1.39 1.11-2.5 2.5-2.5 .56 0 1.08.18 1.5.49v-1c0-1.39 1.11-2.5 2.5-2.5 .56 0 1.08.18 1.5.49v-1ZM12.75 2.07v7.91c0 .13.11.25.25.25h7.91c-.56-4.25-3.93-7.62-8.17-8.17Zm8.75 9.91c-.83 0-1.5.67-1.5 1.5v8c0 .82.67 1.5 1.5 1.5 .82 0 1.5-.68 1.5-1.5v-8c0-.83-.68-1.5-1.5-1.5Zm-8 6c-.83 0-1.5.67-1.5 1.5v2c0 .82.67 1.5 1.5 1.5 .82 0 1.5-.68 1.5-1.5v-2c0-.83-.68-1.5-1.5-1.5Zm2.5-1.5c0-.83.67-1.5 1.5-1.5 .82 0 1.5.67 1.5 1.5v5c0 .82-.68 1.5-1.5 1.5 -.83 0-1.5-.68-1.5-1.5v-5Z"/></svg>