<svg viewBox="0 0 24 24" xmlns="http://www.w3.org/2000/svg"><path fill="currentColor" d="M11.99 2.39c5.3 0 9.6 4.29 9.6 9.6 0 .1-.01.2-.01.3 -1.15-.95-2.61-1.51-4.2-1.51 -3.65 0-6.6 2.95-6.6 6.6 0 1.59.56 3.05 1.5 4.19 -.11 0-.21 0-.31 0 -1.53 0-3.01-.36-4.34-1.04l-.15-.08 -4.38 1.09c-.38.09-.72-.18-.75-.53l-.01-.1 .01-.11 1.09-4.38 -.08-.15c-.55-1.08-.89-2.25-1-3.47l-.04-.46 -.01-.42c0-5.31 4.29-9.61 9.6-9.61Zm5.4 20.4c2.98 0 5.4-2.42 5.4-5.4 0-2.99-2.42-5.4-5.4-5.4 -2.99 0-5.4 2.41-5.4 5.4 0 2.98 2.41 5.4 5.4 5.4Zm-1.08-7.68l-1.08 1.07h1.85c1.82 0 3.3 1.47 3.3 3.3v.3c0 .33-.27.6-.6.6 -.34 0-.6-.27-.6-.6v-.3c0-1.16-.95-2.1-2.1-2.1h-1.86l1.07 1.07c.23.23.23.61 0 .84 -.24.23-.62.23-.85 0l-2.11-2.11c-.06-.06-.1-.13-.13-.2 -.03-.08-.05-.15-.05-.23 0-.09.01-.16.04-.23 .02-.08.07-.14.13-.2l2.1-2.1c.23-.24.61-.24.84 0 .23.23.23.61 0 .84Z"/></svg>