<svg viewBox="0 0 24 24" xmlns="http://www.w3.org/2000/svg"><path fill="currentColor" d="M22 12c0-5.53-4.48-10-10-10C6.47 2 2 6.47 2 12c0 1.62.38 3.186 1.11 4.59l-1.07 3.82c-.07.21-.07.45-.01.67 .18.66.87 1.05 1.54.86l3.82-1.07c1.4.72 2.96 1.11 4.58 1.11 5.52 0 10-4.48 10-10ZM9.28 8.21l2.71 2.71L14.7 8.2c.29-.3.76-.3 1.06 0 .29.29.29.76 0 1.06l-2.72 2.71 2.71 2.71c.29.29.29.76 0 1.06 -.3.29-.77.29-1.07 0l-2.72-2.72 -2.72 2.71c-.3.29-.77.29-1.07 0 -.3-.3-.3-.77 0-1.07l2.71-2.72 -2.72-2.72c-.3-.3-.3-.77 0-1.07 .29-.3.76-.3 1.06 0Z"/></svg>