<svg viewBox="0 0 24 24" xmlns="http://www.w3.org/2000/svg"><path fill="currentColor" d="M12 2c5.52 0 10 4.47 10 10 0 5.52-4.48 10-10 10 -1.65 0-3.23-.4-4.65-1.15l-4.3 1.11c-.46.11-.92-.16-1.04-.61 -.04-.15-.04-.29-.01-.43l1.11-4.29c-.75-1.43-1.15-3.01-1.15-4.66 0-5.53 4.47-10 10-10Zm1.25 11H8.74l-.11 0c-.37.04-.65.36-.65.74 0 .37.28.69.64.74l.1 0h4.5l.1-.01c.36-.05.64-.37.64-.75s-.29-.7-.65-.75l-.11-.01Zm1.99-3.5h-6.5l-.11 0c-.37.04-.65.36-.65.74 0 .37.28.69.64.74l.1 0h6.5l.1-.01c.36-.05.64-.37.64-.75s-.29-.7-.65-.75l-.11-.01Z"/></svg>