<svg viewBox="0 0 24 24" xmlns="http://www.w3.org/2000/svg"><path fill="currentColor" d="M11.99 2.39c5.3 0 9.6 4.29 9.6 9.6 0 .1-.01.2-.01.3 -1.15-.95-2.61-1.51-4.2-1.51 -3.65 0-6.6 2.95-6.6 6.6 0 1.59.56 3.05 1.5 4.19 -.11 0-.21 0-.31 0 -1.53 0-3.01-.36-4.34-1.04l-.15-.08 -4.38 1.09c-.38.09-.72-.18-.75-.53l-.01-.1 .01-.11 1.09-4.38 -.08-.15c-.55-1.08-.89-2.25-1-3.47l-.04-.46 -.01-.42c0-5.31 4.29-9.61 9.6-9.61Zm10.8 15c0 2.98-2.42 5.4-5.4 5.4 -2.99 0-5.4-2.42-5.4-5.4 0-2.99 2.41-5.4 5.4-5.4 2.98 0 5.4 2.41 5.4 5.4Zm-6.78-1.38c.23-.24.23-.62 0-.85 -.24-.24-.62-.24-.85 0l-1.8 1.8c-.24.23-.24.61 0 .84l1.8 1.8c.23.23.61.23.84 0 .23-.24.23-.62 0-.85l-1.38-1.38 1.37-1.38Zm2.22.77L19 16c.23-.24.23-.62 0-.85 -.24-.24-.62-.24-.85 0l-1.8 1.8c-.24.23-.24.61 0 .84l1.8 1.8c.23.23.61.23.84 0 .23-.24.23-.62 0-.85l-.78-.78h2.15v.6c0 .33.26.6.6.6 .33 0 .6-.27.6-.6v-.6c0-.67-.54-1.2-1.2-1.2H18.2Z"/></svg>