<svg viewBox="0 0 24 24" xmlns="http://www.w3.org/2000/svg"><path fill="currentColor" d="M12 2c5.52 0 10 4.47 10 10 0 .26-.02.52-.03.78 -1.17-1.11-2.74-1.79-4.47-1.79 -3.59 0-6.5 2.91-6.5 6.5 0 1.73.67 3.3 1.78 4.47 -.26.01-.52.03-.79.03 -1.65 0-3.23-.4-4.65-1.15l-4.3 1.11c-.46.11-.92-.16-1.04-.61 -.04-.15-.04-.29-.01-.43l1.11-4.29c-.75-1.43-1.15-3.01-1.15-4.66 0-5.53 4.47-10 10-10Zm2.27 11.97c.31 1.09-.34 2.22-1.45 2.49l-.59.14c-.05.28-.07.58-.07.88 0 .31.02.62.07.92l.53.12c1.11.26 1.77 1.41 1.45 2.51l-.19.63c.43.38.93.69 1.48.92l.49-.52c.78-.83 2.11-.83 2.89 0l.49.52c.54-.23 1.04-.54 1.48-.92l-.2-.69c-.32-1.1.33-2.23 1.44-2.5l.58-.15c.04-.29.06-.59.06-.89 0-.32-.03-.63-.08-.93l-.54-.13c-1.12-.27-1.78-1.42-1.45-2.52l.18-.64c-.44-.39-.94-.7-1.49-.93l-.5.51c-.79.82-2.12.82-2.9-.01l-.5-.53c-.55.22-1.05.53-1.49.91l.19.68Zm3.22 2.02c.8 0 1.44.67 1.44 1.5 0 .82-.65 1.5-1.45 1.5 -.81 0-1.45-.68-1.45-1.5 0-.83.64-1.5 1.44-1.5Z"/></svg>