<svg viewBox="0 0 24 24" xmlns="http://www.w3.org/2000/svg"><path fill="currentColor" d="M9.5 3C5.35 3 2 6.35 2 10.5c0 1.13.25 2.21.7 3.17 -.31 1.22-.57 2.53-.69 3.14 -.14.68.46 1.29 1.15 1.17 .62-.12 1.97-.37 3.23-.66 .94.42 1.98.66 3.08.66 4.14 0 7.5-3.36 7.5-7.5 0-4.15-3.36-7.5-7.5-7.5Zm-.04 15.99c1.33 1.24 3.13 2 5.09 2 1.09 0 2.14-.24 3.08-.67 1.04.24 2.18.48 2.91.64 .89.18 1.67-.62 1.46-1.5 -.17-.71-.42-1.8-.68-2.81 .45-.97.7-2.05.7-3.18 0-3.29-2.11-6.08-5.05-7.09 .35.63.62 1.32.79 2.04 1.65 1.06 2.74 2.92 2.74 5.04 0 .99-.24 1.92-.67 2.74l-.14.25 .07.27c.22.89.46 1.9.64 2.65 -.78-.17-1.82-.4-2.74-.61l-.27-.07 -.25.12c-.81.39-1.71.62-2.67.62 -1.06 0-2.06-.28-2.92-.76 -.67.16-1.37.25-2.09.25 -.04 0-.07-.01-.1-.01Z"/></svg>