<svg viewBox="0 0 24 24" xmlns="http://www.w3.org/2000/svg"><g fill="currentColor"><path d="M2.4 8.39c0-3.98 3.22-7.2 7.2-7.2 3.97 0 7.19 3.22 7.19 7.2 0 3.97-3.23 7.2-7.2 7.2 -1.32 0-2.55-.36-3.61-.97l-2.81.93c-.22.07-.45.01-.61-.14 -.17-.16-.23-.39-.17-.6l.85-2.99c-.56-1.03-.88-2.2-.88-3.45Zm5.39-1.8c-.34 0-.6.26-.6.6 0 .33.26.6.6.6h3.6c.33 0 .6-.27.6-.6 0-.34-.27-.6-.6-.6h-3.6Zm2.4 2.4h-2.4c-.34 0-.6.26-.6.6 0 .33.26.6.6.6h2.4c.33 0 .6-.27.6-.61 0-.34-.27-.6-.6-.6Z"/><path d="M14.73 17.93l-2.89-1.45c.52-.15 1.03-.35 1.51-.59l1.63.81 5.4-2.7v-.83c0-.67-.54-1.2-1.2-1.2h-2.01c.18-.39.33-.79.46-1.2h1.54c1.32 0 2.4 1.07 2.4 2.4v6c0 1.32-1.08 2.4-2.4 2.4h-8.4c-1.33 0-2.4-1.08-2.4-2.4v-2.49c.39.05.79.08 1.2.08v2.4c0 .66.53 1.2 1.2 1.2h8.4c.66 0 1.2-.54 1.2-1.2v-3.83l-5.14 2.56c-.17.08-.37.08-.54 0Z"/><path fill="currentColor" fill-rule="evenodd" d="M2.25 8.39c0-4.06 3.29-7.35 7.35-7.35 4.05 0 7.34 3.29 7.34 7.35 0 4.05-3.3 7.35-7.35 7.35 -1.32 0-2.56-.35-3.63-.96l-2.75.91c-.27.08-.56.02-.76-.17 -.21-.2-.28-.49-.21-.75l.83-2.93c-.56-1.04-.87-2.22-.87-3.47ZM9.6 1.34c-3.9 0-7.05 3.15-7.05 7.05 0 1.22.31 2.37.85 3.37 .01.03.02.07.01.11l-.86 2.98c-.05.16 0 .33.12.44 .12.11.29.15.45.1l2.8-.94c.04-.02.08-.01.12.01 1.03.6 2.24.94 3.52.94 3.89 0 7.04-3.16 7.04-7.06 0-3.9-3.16-7.05-7.05-7.05Zm-1.81 5.4c-.25 0-.45.2-.45.45 0 .24.2.45.45.45h3.6c.24 0 .45-.21.45-.45 0-.25-.21-.45-.45-.45h-3.6Zm-.75.45c0-.42.33-.75.75-.75h3.6c.41 0 .75.33.75.75 0 .41-.34.75-.75.75h-3.6c-.42 0-.75-.34-.75-.75Zm.75 1.95c-.25 0-.45.2-.45.45 0 .24.2.45.45.45h2.4c.24 0 .45-.21.45-.46s-.21-.45-.45-.45h-2.4Zm-.75.45c0-.42.33-.75.75-.75h2.4c.41 0 .75.33.75.75 0 .41-.34.75-.75.75h-2.4c-.42 0-.75-.34-.75-.76Zm10.45 1.15c.01-.07.07-.11.14-.11h1.54c1.4 0 2.55 1.14 2.55 2.55v6c0 1.4-1.15 2.55-2.55 2.55h-8.4c-1.41 0-2.55-1.15-2.55-2.55v-2.49c0-.05.01-.09.05-.12 .03-.03.07-.05.11-.04 .38.05.77.08 1.17.08 .08 0 .15.06.15.15v2.4c0 .57.47 1.05 1.05 1.05h8.4c.57 0 1.05-.48 1.05-1.05v-3.59l-4.92 2.45c-.22.1-.46.1-.68 0l-2.89-1.45c-.06-.03-.09-.09-.09-.15 0-.07.04-.12.1-.14 .51-.15 1.01-.34 1.48-.58 .04-.03.09-.03.13-.01l1.56.78 5.25-2.63v-.74c0-.58-.48-1.05-1.05-1.05h-2.01c-.06 0-.1-.03-.13-.07 -.03-.05-.04-.1-.01-.15 .17-.38.33-.78.45-1.18Zm.25.19c-.1.3-.21.6-.34.9h1.77c.74 0 1.35.6 1.35 1.35V14c0 .05-.04.1-.09.13l-5.4 2.7c-.05.02-.1.02-.14 0l-1.57-.79c-.36.17-.73.32-1.12.45l2.54 1.27c.12.06.27.06.4 0l5.13-2.57c.04-.03.1-.03.14 0 .04.02.07.07.07.12v3.82c0 .74-.61 1.35-1.35 1.35h-8.4c-.75 0-1.35-.61-1.35-1.35v-2.26c-.31-.01-.61-.03-.9-.07v2.31c0 1.24 1 2.25 2.25 2.25h8.4c1.24 0 2.25-1.01 2.25-2.25v-6c0-1.25-1.01-2.25-2.25-2.25h-1.44Z"/></g></svg>