<svg viewBox="0 0 24 24" xmlns="http://www.w3.org/2000/svg"><g fill="currentColor"><path d="M3.28 2.21c-.3-.3-.77-.3-1.07-.01 -.3.29-.3.76-.01 1.06l2.19 2.19C2.88 7.2 1.97 9.47 1.97 11.97c0 1.64.39 3.22 1.14 4.65L1.99 20.9c-.04.14-.04.28 0 .42 .11.45.58.72 1.03.6l4.29-1.12c1.41.74 3 1.14 4.64 1.14 2.49 0 4.77-.92 6.52-2.42l2.19 2.19c.29.29.76.29 1.06 0 .29-.3.29-.77 0-1.07L3.22 2.13Zm10.13 12.26c-.03 0-.05 0-.07.01l-.11 0H8.72l-.11-.01c-.37-.05-.65-.37-.65-.75s.28-.7.64-.75l.1-.01h3.18l1.48 1.48ZM9.92 10.98H8.73l-.11-.01c-.37-.05-.65-.37-.65-.75 0-.33.2-.6.48-.71l1.45 1.45Z"/><path d="M15.25 11h-1.07l6.29 6.29c.96-1.54 1.51-3.36 1.51-5.3 0-5.53-4.48-10-10-10 -1.95 0-3.77.55-5.3 1.51l5.98 5.98h2.56l.1 0c.36.04.64.36.64.74 0 .37-.29.69-.65.74l-.11 0Z"/></g></svg>