<svg viewBox="0 0 24 24" xmlns="http://www.w3.org/2000/svg"><path fill="currentColor" d="M12 2c5.52 0 10 4.47 10 10 0 5.52-4.48 10-10 10 -1.65 0-3.23-.4-4.65-1.15l-4.3 1.11c-.46.11-.92-.16-1.04-.61 -.04-.15-.04-.29-.01-.43l1.11-4.29c-.75-1.43-1.15-3.01-1.15-4.66 0-5.53 4.47-10 10-10Zm0 13.5c-.56 0-1 .44-1 1 0 .55.44 1 1 1 .55 0 1-.45 1-1 0-.56-.45-1-1-1Zm0-8.75c-1.52 0-2.75 1.23-2.75 2.75 0 .41.33.75.75.75 .37 0 .69-.29.74-.65l.01-.23c.06-.64.59-1.13 1.24-1.13 .69 0 1.25.55 1.25 1.25 0 .53-.14.8-.65 1.33l-.31.3c-.76.78-1.06 1.34-1.06 2.35 0 .41.33.75.75.75 .41 0 .75-.34.75-.75 0-.54.13-.81.64-1.34l.3-.31c.75-.79 1.05-1.35 1.05-2.36 0-1.52-1.24-2.75-2.75-2.75Z"/></svg>