<svg viewBox="0 0 24 24" xmlns="http://www.w3.org/2000/svg"><path fill="currentColor" d="M22 12c0-5.53-4.48-10-10-10C6.47 2 2 6.47 2 12c0 1.64.39 3.22 1.14 4.65l-1.12 4.28c-.04.14-.04.28 0 .42 .11.45.58.72 1.03.6l4.29-1.12c1.41.74 3 1.14 4.64 1.14 .26 0 .52-.02.78-.03 -1.11-1.17-1.79-2.74-1.79-4.47 0-3.59 2.91-6.5 6.5-6.5 1.73 0 3.3.67 4.47 1.78 .01-.26.03-.52.03-.79Zm1 5.5c0-3.04-2.47-5.5-5.5-5.5 -3.04 0-5.5 2.46-5.5 5.5 0 3.03 2.46 5.5 5.5 5.5 3.03 0 5.5-2.47 5.5-5.5Zm-5 .5l0 2.5c0 .27-.23.5-.5.5 -.28 0-.5-.23-.5-.5l-.01-2.51h-2.51c-.28 0-.5-.23-.5-.5 0-.28.22-.5.49-.5h2.5l-.01-2.51c0-.28.22-.5.5-.5 .27 0 .5.22.5.5l0 2.5h2.49c.27 0 .49.22.49.5 0 .27-.23.5-.5.5h-2.5Z"/></svg>