<svg viewBox="0 0 24 24" xmlns="http://www.w3.org/2000/svg"><path fill="currentColor" d="M2 10.5C2 6.35 5.35 3 9.5 3c4.14 0 7.5 3.35 7.5 7.5 0 4.14-3.36 7.5-7.5 7.5 -1.1 0-2.15-.24-3.09-.67 -1.26.29-2.62.54-3.24.65 -.69.12-1.29-.49-1.16-1.18 .11-.61.37-1.92.68-3.15 -.46-.97-.71-2.05-.71-3.18Zm4.34-2.16c-.8.79-.79 2.07 0 2.87l2.94 2.94c.12.12.31.12.44 0l2.92-2.93c.78-.8.78-2.08-.01-2.88 -.8-.8-2.09-.81-2.88-.01l-.28.28 -.29-.29c-.8-.8-2.09-.8-2.88-.01Zm8.22 12.659c-1.97 0-3.77-.76-5.1-2.01 .03 0 .06 0 .09 0 .71 0 1.41-.09 2.08-.26 .86.48 1.85.75 2.91.75 .96 0 1.86-.23 2.67-.63l.24-.13 .26.06c.92.21 1.96.44 2.73.6 -.18-.76-.42-1.76-.65-2.66l-.08-.28 .13-.26c.42-.83.66-1.76.66-2.75 0-2.12-1.1-3.98-2.75-5.05 -.18-.73-.45-1.42-.8-2.05 2.93 1.01 5.04 3.8 5.04 7.08 0 1.13-.26 2.2-.71 3.17 .25 1 .5 2.09.67 2.8 .2.88-.58 1.68-1.47 1.49 -.73-.16-1.87-.4-2.92-.65 -.95.42-1.99.66-3.09.66Z"/></svg>