<svg viewBox="0 0 24 24" xmlns="http://www.w3.org/2000/svg"><path fill="currentColor" d="M5.25 2C3.45 2 2 3.45 2 5.25v11.5C2 18.54 3.45 20 5.25 20h6.24c-.33-.77-.5-1.62-.5-2.5 0-3.59 2.91-6.5 6.5-6.5 .88 0 1.73.17 2.5.49V5.24c0-1.8-1.46-3.25-3.25-3.25H5.24Zm11.03 6.28l-6.76 6.74c-.3.29-.77.29-1.07-.01L5.7 12.26c-.3-.3-.3-.77 0-1.07 .29-.3.76-.3 1.06 0l2.21 2.21 6.22-6.22c.29-.3.76-.3 1.06 0 .29.29.29.76-.01 1.06Zm1.22 3.71c3.03 0 5.5 2.46 5.5 5.5 0 3.03-2.47 5.5-5.5 5.5 -3.04 0-5.5-2.47-5.5-5.5 0-3.04 2.46-5.5 5.5-5.5Zm-3 5c-.28 0-.5.22-.5.5 0 .27.22.5.5.5h4.79l-1.65 1.64c-.2.19-.2.51 0 .7 .19.19.51.19.7 0l2.5-2.5c.19-.2.19-.52 0-.71l-2.5-2.5c-.2-.2-.52-.2-.71 0 -.2.19-.2.51 0 .7l1.64 1.64h-4.8Z"/></svg>