<svg viewBox="0 0 24 24" xmlns="http://www.w3.org/2000/svg"><path fill="currentColor" d="M6.63 15.48l-4.17-4.69c-.34-.38-.9-.41-1.28-.08 -.38.33-.41.89-.08 1.27l4.8 5.4c.34.38.94.4 1.3.03L19.79 4.8c.35-.36.35-.93 0-1.28 -.36-.36-.93-.36-1.28 0L6.58 15.44Zm5.96.11c0-1.33 1.07-2.4 2.4-2.4h6c1.32 0 2.4 1.07 2.4 2.4v4.8c0 1.32-1.08 2.4-2.4 2.4h-6c-1.33 0-2.4-1.08-2.4-2.4v-4.8Zm7.8 3.6h-4.8c-.34 0-.6.26-.6.6 0 .33.26.6.6.6h4.8c.33 0 .6-.27.6-.6 0-.34-.27-.6-.6-.6Zm-4.8-3.6c-.34 0-.6.26-.6.6 0 .33.26.6.6.6h4.8c.33 0 .6-.27.6-.6 0-.34-.27-.6-.6-.6h-4.8Z"/></svg>