<svg viewBox="0 0 24 24" xmlns="http://www.w3.org/2000/svg"><path fill="currentColor" d="M5.99 2.39C4 2.39 2.39 4 2.39 5.99v9.6c0 1.98 1.61 3.6 3.6 3.6h5.04c-.17-.58-.25-1.18-.25-1.8 0-3.65 2.95-6.6 6.6-6.6 .62 0 1.22.08 1.8.24V5.98c0-1.99-1.62-3.6-3.6-3.6h-9.6Zm9.42 5.82l-6.01 6c-.24.23-.62.23-.85 0l-2.4-2.4c-.24-.24-.24-.62 0-.85 .23-.24.61-.24.84 0l1.97 1.97 5.57-5.58c.23-.24.61-.24.84 0 .23.23.23.61 0 .84Zm-3.43 9.17c0 2.98 2.41 5.4 5.4 5.4 2.98 0 5.4-2.42 5.4-5.4 0-2.99-2.42-5.4-5.4-5.4 -2.99 0-5.4 2.41-5.4 5.4Zm7.8-3.6c.33 0 .6.26.6.6v1.8c0 .33-.27.6-.6.6h-1.8c-.34 0-.6-.27-.6-.6 0-.34.26-.6.6-.6h.56c-.07-.04-.13-.07-.19-.1 -.3-.14-.62-.21-.94-.21 -.33-.01-.65.05-.95.17 -.3.12-.58.3-.8.52 -.24.23-.62.23-.85 0 -.24-.24-.24-.62 0-.85 .34-.35.74-.62 1.19-.8 .44-.19.92-.27 1.41-.27 .48 0 .96.11 1.4.31 .11.05.22.1.33.17v-.19c0-.34.26-.6.6-.6Zm-1.06 6.63c-.45.18-.93.27-1.42.26 -.49-.01-.96-.12-1.41-.32 -.12-.06-.23-.11-.34-.18v.18c0 .33-.27.6-.6.6 -.34 0-.6-.27-.6-.6v-1.8c0-.34.26-.6.6-.6h1.8c.33 0 .6.26.6.6 0 .33-.27.6-.6.6h-.57c.06.03.12.06.18.09 .29.13.61.2.93.2 .32 0 .64-.06.94-.18 .29-.13.57-.31.79-.53 .23-.24.61-.24.84 0 .23.23.23.61 0 .84 -.35.34-.75.61-1.2.79Z"/></svg>