<svg viewBox="0 0 24 24" xmlns="http://www.w3.org/2000/svg"><path fill="currentColor" d="M21.77 5.79c.29-.29.3-.77.02-1.07 -.29-.3-.77-.31-1.07-.03l-6.75 6.5c-.3.28-.31.76-.02 1.06 .28.29.76.3 1.06.02l6.75-6.5Zm-2.79-.8l-14.44 0c-1.41 0-2.55 1.14-2.55 2.55v6.89c0 1.4 1.14 2.55 2.55 2.55h14.9c1.4 0 2.55-1.15 2.55-2.55v-6.9c0-.19-.02-.37-.06-.54l-6.23 5.99c-.7.67-1.81.64-2.48-.05 -.68-.7-.65-1.81.04-2.48l5.7-5.49ZM4.49 9.24c0-.42.33-.75.75-.75h2c.41 0 .75.33.75.75 0 .41-.34.75-.75.75h-2c-.42 0-.75-.34-.75-.75Zm0 3.5c0-.42.33-.75.75-.75h5c.41 0 .75.33.75.75 0 .41-.34.75-.75.75h-5c-.42 0-.75-.34-.75-.75Z"/></svg>