<svg viewBox="0 0 24 24" xmlns="http://www.w3.org/2000/svg"><path fill="currentColor" d="M6.25 3C4.45 3 3 4.45 3 6.25v11.5C3 19.54 4.45 21 6.25 21h11.5c.64 0 1.24-.19 1.75-.52v-1.66c-.72.34-1.6.15-2.12-.49 -.61-.76-.49-1.86.27-2.46l2.5-2c.15-.13.32-.22.5-.29 .1-.04.22-.07.33-.09V6.22c0-1.8-1.46-3.25-3.25-3.25H6.23Zm11.03 6.28l-6.76 6.74c-.3.29-.77.29-1.07-.01L6.7 13.26c-.3-.3-.3-.77 0-1.07 .29-.3.76-.3 1.06 0l2.21 2.21 6.22-6.22c.29-.3.76-.3 1.06 0 .29.29.29.76-.01 1.06ZM21 14.54c-.08.02-.16.06-.22.12l-2.5 2c-.33.25-.38.73-.12 1.05 .25.32.73.37 1.05.11l1.28-1.03v4.43c0 .41.33.75.75.75 .41 0 .75-.34.75-.75v-6c0-.29-.17-.56-.43-.68 -.19-.09-.39-.1-.58-.04Z"/></svg>