<svg viewBox="0 0 24 24" xmlns="http://www.w3.org/2000/svg"><path fill="currentColor" d="M8.5 16c4.14 0 7.5-3.36 7.5-7.5C16 4.35 12.64 1 8.5 1 4.35 1 1 4.35 1 8.5 1 12.64 4.35 16 8.5 16Zm3.78-9.22l-4 3.99c-.3.29-.77.29-1.07 0l-2-2c-.3-.3-.3-.77 0-1.07 .29-.3.76-.3 1.06 0l1.46 1.46 3.46-3.47c.29-.3.76-.3 1.06 0 .29.29.29.76 0 1.06Zm8 6.93c.29.29.29.76 0 1.06l-4 4c-.3.29-.77.29-1.07 0l-2-2c-.3-.3-.3-.77 0-1.07 .29-.3.76-.3 1.06 0l1.46 1.46 3.46-3.47c.29-.3.76-.3 1.06 0ZM9.74 19.99v-3.1c.51-.08 1.01-.2 1.5-.37v3.45c0 .96.78 1.75 1.75 1.75h7c.96 0 1.75-.79 1.75-1.75v-7c0-.97-.79-1.75-1.75-1.75h-3.46c.16-.49.28-.99.36-1.5h3.09c1.79 0 3.25 1.45 3.25 3.25v7c0 1.79-1.46 3.25-3.25 3.25h-7c-1.8 0-3.25-1.46-3.25-3.25Z"/></svg>