<svg viewBox="0 0 24 24" xmlns="http://www.w3.org/2000/svg"><path fill="currentColor" d="M9.83 2.03c.11.03.22.08.32.13l1.28.63c.34.17.75.17 1.1 0l1.28-.64c1.36-.68 3.01-.12 3.68 1.25l.07.16 .06.16 .46 1.35c.12.36.41.65.78.78l1.35.46c1.43.48 2.2 2.05 1.71 3.48 -.04.11-.09.22-.14.32l-.64 1.28c-.18.34-.18.75 0 1.1l.63 1.28c.67 1.36.11 3.01-1.26 3.68 -.11.05-.22.09-.33.13l-1.36.46c-.37.12-.66.41-.79.78l-.47 1.35c-.49 1.43-2.06 2.2-3.49 1.71 -.12-.04-.23-.09-.33-.14l-1.29-.64c-.35-.18-.76-.18-1.11 0l-1.29.63c-1.37.67-3.02.11-3.69-1.26 -.06-.11-.1-.22-.14-.33l-.47-1.36c-.13-.37-.42-.66-.79-.79l-1.36-.47c-1.44-.49-2.21-2.06-1.72-3.49 .03-.12.08-.23.13-.33l.63-1.29c.17-.35.17-.76 0-1.11L2 10.01c-.68-1.37-.12-3.02 1.25-3.69 .1-.06.21-.1.32-.14l1.35-.47c.36-.13.65-.42.78-.79l.46-1.36c.48-1.44 2.05-2.21 3.48-1.72Zm5.63 6.93l-5.42 5.41L8.06 12c-.27-.32-.74-.37-1.06-.1 -.32.26-.37.73-.1 1.05l2.5 3c.28.33.79.36 1.1.05l6-6c.29-.3.29-.77 0-1.07 -.3-.3-.77-.3-1.07 0Z"/></svg>