<svg viewBox="0 0 24 24" xmlns="http://www.w3.org/2000/svg"><path fill="currentColor" d="M12 2c5.52 0 10 4.47 10 10 0 .42-.03.84-.08 1.25 -.34-1.58-1.75-2.76-3.43-2.76 -1.94 0-3.5 1.56-3.5 3.5v.05c-1.15.23-2 1.24-2 2.45v5c0 .15.01.3.03.44 -.35.03-.69.05-1.04.05 -5.53 0-10-4.48-10-10 0-5.53 4.47-10 10-10Zm3.21 6.96l-4.47 4.46 -1.97-1.97c-.3-.3-.77-.3-1.07 0 -.3.29-.3.76 0 1.06l2.5 2.5c.29.29.76.29 1.06 0l5-5c.29-.3.29-.77 0-1.07 -.3-.3-.77-.3-1.07 0Zm3.28 2.53c1.38 0 2.5 1.11 2.5 2.5v1h.5c.01 0 .02 0 .04 0 .8.02 1.45.68 1.45 1.49v5c0 .82-.68 1.5-1.5 1.5h-6c-.73 0-1.34-.52-1.48-1.21 -.02-.1-.03-.2-.03-.3v-5c0-.83.67-1.5 1.5-1.5h.5v-1c0-1.39 1.11-2.5 2.5-2.5Zm-.4 8.41c.12.05.25.08.39.08 .55 0 1-.45 1-1 0-.12-.02-.23-.06-.33 -.14-.4-.51-.68-.95-.68 -.56 0-1 .44-1 1 0 .41.24.76.6.91Zm-.61-5.92v1h2v-1c0-.56-.45-1-1-1 -.56 0-1 .44-1 1Z"/></svg>