<svg viewBox="0 0 24 24" xmlns="http://www.w3.org/2000/svg"><path fill="currentColor" d="M6.25 3C4.45 3 3 4.45 3 6.25v11.5C3 19.54 4.45 21 6.25 21h6.92c-.12-.37-.18-.75-.18-1.125v-.11c0-1.54 1.24-2.78 2.77-2.78h.27c-.65-.64-1.06-1.53-1.06-2.5 0-1.94 1.56-3.5 3.5-3.5 .97 0 1.86.4 2.5 1.05V6.22c0-1.8-1.46-3.25-3.25-3.25H6.22Zm11.03 6.28l-6.76 6.74c-.3.29-.77.29-1.07-.01L6.7 13.26c-.3-.3-.3-.77 0-1.07 .29-.3.76-.3 1.06 0l2.21 2.21 6.22-6.22c.29-.3.76-.3 1.06 0 .29.29.29.76-.01 1.06ZM21 14.49c0 1.38-1.12 2.5-2.5 2.5 -1.39 0-2.5-1.12-2.5-2.5 0-1.39 1.11-2.5 2.5-2.5 1.38 0 2.5 1.11 2.5 2.5Zm2 5.375c0 1.55-1.29 3.125-4.5 3.125 -3.22 0-4.5-1.57-4.5-3.125v-.11c0-.98.79-1.78 1.77-1.78h5.45c.97 0 1.77.79 1.77 1.77v.1Z"/></svg>