<svg viewBox="0 0 24 24" xmlns="http://www.w3.org/2000/svg"><path fill="currentColor" d="M6.25 3C4.45 3 3 4.45 3 6.25v11.5C3 19.54 4.45 21 6.25 21h10c.1-1.87 1.37-2.86 2.1-3.38 -.53.1-1.1-.03-1.53-.42 -.72-.65-.78-1.76-.14-2.48 .85-.96 2.22-1.42 3.47-1.18 .27.05.55.14.82.28v-7.6c0-1.8-1.46-3.25-3.25-3.25H6.22Zm12.81 15.34c-.7.5-1.7 1.23-1.81 2.65 -.01.08-.01.16-.01.25 0 .41.33.75.75.75h3c.41 0 .75-.34.75-.75 0-.42-.34-.75-.75-.75h-2.06c.19-.34.53-.61.99-.94 .02-.03.05-.05.08-.07 .01-.02.02-.03.04-.04 .21-.16.47-.34.71-.56 .5-.46.96-1.09.96-2.01 0-.64-.17-1.19-.51-1.61 -.08-.1-.16-.19-.25-.26 -.3-.27-.66-.43-1.02-.5 -.91-.18-1.92.16-2.54.86 -.28.3-.26.78.05 1.05 .3.27.78.25 1.05-.06s.76-.47 1.13-.4c.16.03.29.1.37.21 .08.1.17.3.17.67 0 .55-.36.83-1.19 1.43Zm-1.79-9.07l-6.76 6.74c-.3.29-.77.29-1.07-.01l-2.75-2.75c-.3-.3-.3-.77 0-1.07 .29-.3.76-.3 1.06 0l2.21 2.21 6.22-6.22c.29-.3.76-.3 1.06 0 .29.29.29.76-.01 1.06Z"/></svg>