<svg viewBox="0 0 24 24" xmlns="http://www.w3.org/2000/svg"><path fill="currentColor" d="M6.25 3C4.45 3 3 4.45 3 6.25v11.5C3 19.54 4.45 21 6.25 21h4.804c.04-.21.11-.42.21-.62l3.99-8c.92-1.85 3.55-1.85 4.47 0l1.25 2.52V6.24c0-1.8-1.46-3.25-3.25-3.25h-11.5Zm11.03 6.28l-6.76 6.74c-.3.29-.77.29-1.07-.01L6.7 13.26c-.3-.3-.3-.77 0-1.07 .29-.3.76-.3 1.06 0l2.21 2.21 6.22-6.22c.29-.3.76-.3 1.06 0 .29.29.29.76-.01 1.06Zm-1.12 3.54l-4 7.99c-.5.99.22 2.17 1.34 2.17h7.99c1.11 0 1.84-1.18 1.34-2.18l-4-8c-.56-1.11-2.14-1.11-2.69 0ZM18 15.48v3c0 .27-.23.5-.51.5s-.51-.23-.51-.51v-3.01c0-.28.22-.51.5-.51 .27 0 .5.22.5.5Zm-.51 5.5c-.28 0-.51-.23-.51-.51s.22-.51.5-.51c.27 0 .5.22.5.5 0 .27-.23.5-.51.5Z"/></svg>