<svg viewBox="0 0 24 24" xmlns="http://www.w3.org/2000/svg"><path fill="currentColor" d="M12.59 2.39c-.34 0-.6.26-.6.6v3.12c0 1.65 1.11 3.04 2.62 3.46 -.27 3.28-1.22 5.74-2 7.25 .22.25.42.45.59.58 .62.52 1.17 1.36 1.17 2.42 0 .65-.22 1.25-.58 1.74h6.57c.99 0 1.8-.81 1.8-1.8v-.37c0-.42-.15-.81-.37-1.12 -.65-.94-2.49-3.95-2.87-8.73 1.51-.43 2.62-1.82 2.62-3.47V2.95c0-.34-.27-.6-.6-.6h-.9c-.5 0-.9.4-.9.9v.9c0 .33-.27.59-.6.6 -.34 0-.6-.27-.61-.6v-.01l-.01-.91c-.01-.5-.41-.9-.9-.9h-.6c-.5 0-.9.4-.9.89l-.01.9c-.01.33-.28.59-.61.59 -.34-.01-.6-.27-.6-.6v-.9c0-.5-.41-.9-.9-.9h-.9Zm-4.8 3.6c-1.99 0-3.6 1.61-3.6 3.6 0 .92.34 1.76.91 2.4h-.32c-.67 0-1.2.53-1.2 1.2 0 .66.53 1.2 1.2 1.2h.62c-.45 2.15-1.63 3.4-2.28 3.95 -.42.34-.75.88-.75 1.5 0 .96.77 1.74 1.74 1.74h7.31c.96 0 1.74-.78 1.74-1.75 0-.63-.33-1.16-.75-1.51 -.66-.55-1.84-1.8-2.28-3.96h.62c.66 0 1.2-.54 1.2-1.2 0-.67-.54-1.2-1.2-1.2h-.32c.57-.64.91-1.48.91-2.41 0-1.99-1.62-3.6-3.6-3.6Z"/></svg>