<svg viewBox="0 0 24 24" xmlns="http://www.w3.org/2000/svg"><g fill="currentColor"><path d="M10.47 5.04c.35-.35.92-.33 1.27.03l6 6.3c.33.34.33.89 0 1.24l-6.01 6.3c-.35.35-.92.37-1.28.03 -.36-.35-.38-.92-.04-1.28l5.41-5.68L10.4 6.3c-.35-.36-.33-.93.03-1.28Zm-4.81 0c.35-.35.92-.33 1.27.03l6 6.3c.33.34.33.89 0 1.24l-6.01 6.3c-.35.35-.92.37-1.28.03 -.36-.35-.38-.92-.04-1.28l5.41-5.68L5.59 6.3c-.35-.36-.33-.93.03-1.28Z"/><path fill="currentColor" fill-rule="evenodd" d="M6.84 5.18c-.29-.3-.77-.32-1.07-.03 -.3.28-.32.76-.03 1.06l5.41 5.67c.05.05.05.14 0 .2l-5.42 5.67c-.29.29-.28.77.02 1.06 .29.28.77.27 1.06-.03l6-6.31c.27-.29.27-.75 0-1.04L6.8 5.12Zm-1.27-.25c.41-.4 1.08-.39 1.48.03l6 6.3c.38.4.38 1.04 0 1.44L7.04 19c-.4.41-1.07.43-1.49.03 -.42-.4-.44-1.07-.04-1.49l5.31-5.58L5.5 6.38c-.4-.42-.39-1.09.03-1.49Zm6.06.24c-.29-.3-.77-.32-1.07-.03 -.3.28-.32.76-.03 1.06l5.41 5.67c.05.05.05.14 0 .2l-5.42 5.67c-.29.29-.28.77.02 1.06 .29.28.77.27 1.06-.03l6-6.31c.27-.29.27-.75 0-1.04l-6.01-6.31Zm-1.27-.25c.41-.4 1.08-.39 1.48.03l6 6.3c.38.4.38 1.04 0 1.44l-6.01 6.3c-.4.41-1.07.43-1.49.03 -.42-.4-.44-1.07-.04-1.49l5.31-5.58 -5.32-5.58c-.4-.42-.39-1.09.03-1.49Z"/></g></svg>