<svg viewBox="0 0 24 24" xmlns="http://www.w3.org/2000/svg"><g fill="currentColor"><path d="M5.04 18.32c-.35-.36-.33-.93.03-1.28l6.3-6.01c.34-.34.89-.34 1.24 0l6.3 6c.35.34.37.91.03 1.27 -.35.35-.92.37-1.28.03l-5.68-5.42 -5.68 5.41c-.36.34-.93.32-1.28-.04Zm0-6c-.35-.36-.33-.93.03-1.28l6.3-6.01c.34-.34.89-.34 1.24 0l6.3 6c.35.34.37.91.03 1.27 -.35.35-.92.37-1.28.03l-5.68-5.42 -5.68 5.41c-.36.34-.93.32-1.28-.04Z"/><path fill="currentColor" fill-rule="evenodd" d="M12.51 5.15c-.29-.28-.75-.28-1.04 0l-6.31 6c-.3.28-.32.76-.03 1.06 .28.29.76.31 1.06.02l5.67-5.42c.05-.06.14-.06.2 0l5.67 5.41c.29.28.77.27 1.06-.03 .28-.3.27-.78-.03-1.07l-6.31-6.01Zm-1.25-.22c.4-.39 1.04-.39 1.44 0l6.3 6c.41.4.43 1.06.03 1.48 -.4.41-1.07.43-1.49.03l-5.58-5.32 -5.58 5.31c-.42.39-1.09.38-1.49-.04 -.4-.42-.39-1.09.03-1.49l6.3-6.01Zm.2 6.21l-6.31 6c-.3.28-.32.76-.03 1.06 .28.29.76.31 1.06.02l5.67-5.42c.05-.06.14-.06.2 0l5.67 5.41c.29.28.77.27 1.06-.03 .28-.3.27-.78-.03-1.07l-6.31-6.01c-.29-.28-.75-.28-1.04 0Zm-.21-.22c.4-.39 1.04-.39 1.44 0l6.3 6c.41.4.43 1.06.03 1.48 -.4.41-1.07.43-1.49.03l-5.58-5.32 -5.58 5.31c-.42.39-1.09.38-1.49-.04 -.4-.42-.39-1.09.03-1.49l6.3-6.01Z"/></g></svg>