<svg viewBox="0 0 24 24" xmlns="http://www.w3.org/2000/svg"><g fill="currentColor"><path d="M18.95 10.47c.34.35.32.92-.04 1.27l-6.31 6c-.35.33-.9.33-1.25 0l-6.31-6.01c-.36-.35-.38-.92-.04-1.28s.91-.38 1.27-.04l5.67 5.41 5.67-5.42c.35-.35.92-.33 1.27.03Zm0-4.81c.34.35.32.92-.04 1.27l-6.31 6c-.35.33-.9.33-1.25 0L5.04 6.92C4.68 6.57 4.66 6 5 5.64c.34-.36.91-.38 1.27-.04l5.67 5.41 5.67-5.42c.35-.35.92-.33 1.27.03Z"/><path fill="currentColor" fill-rule="evenodd" d="M6.21 5.75c-.3-.29-.78-.28-1.07.02 -.29.29-.28.77.02 1.06l6.3 6c.28.27.74.27 1.03 0l6.3-6.01c.3-.29.31-.77.02-1.07 -.29-.3-.77-.32-1.07-.03l-5.68 5.41c-.06.05-.15.05-.21 0L6.17 5.71Zm-1.28-.19c.39-.42 1.06-.44 1.48-.04l5.57 5.31 5.57-5.32c.41-.4 1.08-.39 1.48.03 .4.41.38 1.08-.04 1.48l-6.31 6c-.41.38-1.05.38-1.45 0L4.92 7.01c-.42-.4-.44-1.07-.04-1.49Zm1.27 4.98c-.3-.29-.78-.28-1.07.02 -.29.29-.28.77.02 1.06l6.3 6c.28.27.74.27 1.03 0l6.3-6.01c.3-.29.31-.77.02-1.07 -.29-.3-.77-.32-1.07-.03l-5.68 5.41c-.06.05-.15.05-.21 0L6.16 10.5Zm-1.28-.19c.39-.42 1.06-.44 1.48-.04l5.57 5.31 5.57-5.32c.41-.4 1.08-.39 1.48.03 .4.41.38 1.08-.04 1.48l-6.31 6c-.41.38-1.05.38-1.45 0L4.91 11.8c-.42-.4-.44-1.07-.04-1.49Z"/></g></svg>