<svg viewBox="0 0 24 24" xmlns="http://www.w3.org/2000/svg"><g fill="currentColor"><path d="M13.52 18.95c-.36.34-.93.32-1.28-.04L6.23 12.6c-.34-.35-.34-.9 0-1.25l6-6.31c.34-.36.91-.38 1.27-.04 .35.34.37.91.03 1.27l-5.42 5.67 5.41 5.67c.34.35.32.92-.04 1.27Zm4.8 0c-.36.34-.93.32-1.28-.04l-6.01-6.31c-.34-.35-.34-.9 0-1.25l6-6.31c.34-.36.91-.38 1.27-.04 .35.34.37.91.03 1.27l-5.42 5.67 5.41 5.67c.34.35.32.92-.04 1.27Z"/><path fill="currentColor" fill-rule="evenodd" d="M13.41 5.15c-.3-.29-.78-.28-1.07.02l-6.01 6.3c-.28.28-.28.74 0 1.03l6 6.3c.28.3.76.31 1.06.02 .29-.29.31-.77.02-1.07l-5.42-5.68c-.06-.06-.06-.15 0-.21l5.41-5.68c.28-.3.27-.78-.03-1.07Zm-1.28-.19c.39-.42 1.06-.44 1.48-.04 .41.39.43 1.06.03 1.48l-5.32 5.57 5.31 5.57c.4.41.38 1.08-.04 1.48 -.42.4-1.09.38-1.49-.04l-6.01-6.31c-.39-.41-.39-1.05 0-1.45l6-6.31Zm6.07.18c-.3-.29-.78-.28-1.07.02l-6.01 6.3c-.28.28-.28.74 0 1.03l6 6.3c.28.29.76.31 1.06.02 .29-.29.31-.77.02-1.07l-5.42-5.68c-.06-.06-.06-.15 0-.21l5.41-5.68c.28-.3.27-.78-.03-1.07Zm-1.28-.19c.4-.42 1.06-.44 1.48-.04 .41.39.43 1.06.03 1.48l-5.32 5.57 5.31 5.57c.4.41.38 1.08-.04 1.48 -.42.4-1.09.38-1.49-.04l-6.01-6.31c-.39-.41-.39-1.05 0-1.45l6-6.31Z"/></g></svg>