<svg viewBox="0 0 24 24" xmlns="http://www.w3.org/2000/svg"><path fill="currentColor" d="M11.79 4c-2.04.04-3.88.85-5.26 2.14 -.12.1-.23.21-.34.33 -1.33 1.38-2.15 3.24-2.21 5.3 -.01.07-.01.14-.01.21 0 .06 0 .13 0 .2 .1 4.21 3.47 7.62 7.67 7.79 .1 0 .21 0 .32 0 .53 0 1.05-.06 1.56-.16 .54-.11 1.06.24 1.17.78 .1.54-.25 1.06-.79 1.17 -.64.12-1.29.19-1.96.19 -.09 0-.17-.01-.25-.01 -2.42-.06-4.62-.98-6.31-2.45 -.31-.27-.59-.54-.86-.84 -1.61-1.78-2.6-4.131-2.6-6.72 0-2.68 1.04-5.1 2.75-6.9 .08-.09.17-.18.26-.27C6.73 3 9.19 1.91 11.91 1.91c.66 0 1.31.06 1.95.19 .54.1.89.63.78 1.17 -.11.54-.64.89-1.18.78 -.51-.1-1.03-.16-1.57-.16 -.07 0-.14 0-.21 0Zm5.75-.32c-.46-.31-1.09-.19-1.39.27 -.31.45-.19 1.08.27 1.38 .87.58 1.62 1.33 2.2 2.2 .3.45.92.58 1.38.27 .45-.31.58-.93.27-1.39 -.73-1.1-1.67-2.03-2.76-2.76Zm4.25 6.36c-.11-.55-.64-.9-1.18-.79 -.55.1-.9.63-.79 1.17 .09.5.15 1.02.15 1.56 0 .53-.06 1.05-.16 1.56 -.11.54.24 1.06.78 1.17 .54.1 1.06-.25 1.17-.79 .12-.64.19-1.29.19-1.96 0-.67-.07-1.32-.2-1.96Zm-1.5 7.5c.3-.46.18-1.09-.28-1.39 -.46-.31-1.08-.19-1.39.27 -.59.87-1.34 1.62-2.21 2.2 -.46.3-.59.92-.28 1.38 .3.45.92.58 1.38.27 1.09-.73 2.02-1.67 2.75-2.76Z"/></svg>