<svg viewBox="0 0 24 24" xmlns="http://www.w3.org/2000/svg"><path fill="currentColor" d="M15.5 7.2c-4.57.05-8.25 3.73-8.3 8.3 -3.41-.58-6.01-3.54-6.01-7.11 0-3.98 3.22-7.2 7.2-7.2 3.56 0 6.52 2.59 7.1 6Zm-4.56-.01H5.39c-.34 0-.6.26-.6.6 0 .33.26.6.6.6h3.85c.51-.46 1.08-.87 1.69-1.2Zm11.85 8.39c0 3.97-3.23 7.2-7.2 7.2 -3.98 0-7.2-3.23-7.2-7.2 0-3.98 3.22-7.2 7.2-7.2 3.97 0 7.2 3.22 7.2 7.19Zm-3.78-2.23c-.24-.24-.62-.24-.85 0l-3.18 3.17 -1.38-1.38c-.24-.24-.62-.24-.85 0 -.24.23-.24.61 0 .84l1.8 1.8c.23.23.61.23.84 0l3.6-3.6c.23-.24.23-.62 0-.85Z"/></svg>