<svg viewBox="0 0 24 24" xmlns="http://www.w3.org/2000/svg"><g fill="currentColor"><path d="M20.71 11c.42 0 .85.08 1.25.24 -.39-5.18-4.71-9.25-9.98-9.25 -5.53 0-10 4.47-10 10 0 5.18 3.94 9.44 8.99 9.95 -.01-.18.01-.36.06-.55l.45-1.84c.16-.65.49-1.24.96-1.72l5.9-5.91c.64-.65 1.48-.97 2.32-.97h0Z"/><path d="M20.71 12h-.01c-.59 0-1.17.22-1.62.66l-5.91 5.9c-.35.34-.59.77-.71 1.24L12 21.63c-.2.79.52 1.51 1.31 1.31l1.83-.46c.47-.12.9-.37 1.24-.71l5.9-5.91c.89-.9.89-2.34 0-3.24 -.45-.45-1.04-.67-1.62-.67Z"/></g></svg>