<svg viewBox="0 0 24 24" xmlns="http://www.w3.org/2000/svg"><path fill="currentColor" d="M10.47 20.6c-.28-.28-.5-.61-.66-.98 -.16-.37-.23-.76-.23-1.15 0-.4.07-.79.22-1.15 .15-.37.37-.7.65-.98l5.88-5.88c.27-.28.6-.5.97-.66 .36-.16.75-.23 1.14-.23 .39 0 .78.07 1.14.22 .36.15.69.37.97.65l.96.96c-.11-1.85-.75-3.63-1.84-5.12 -1.1-1.5-2.6-2.64-4.33-3.3 -1.73-.66-3.62-.81-5.43-.42 -1.81.38-3.47 1.28-4.78 2.59 -1.31 1.3-2.22 2.96-2.6 4.77 -.39 1.8-.25 3.69.41 5.42 .65 1.72 1.8 3.23 3.29 4.32 1.49 1.09 3.27 1.73 5.11 1.83l-.96-.97Zm9.28-9.29l2.51 2.52c.16.16.3.36.39.58 .09.21.13.45.13.68 0 .23-.05.47-.14.68 -.1.21-.23.41-.4.58l-4.32 4.32 -5.06-5.07 4.32-4.32c.16-.17.36-.3.58-.4 .21-.1.45-.14.68-.14 .23 0 .47.04.68.13 .21.09.41.22.58.39l-.01-.01Zm-2.66 10.22l-5.06-5.07 -.72.72c-.17.16-.3.36-.4.58 -.1.21-.14.45-.14.68 0 .23.04.47.13.68 .09.21.22.41.39.58l2.52 2.51c.17.17.38.31.61.4 .23.09.47.13.72.12h4.91c.15 0 .31-.07.42-.18 .11-.12.17-.27.17-.43 0-.16-.07-.32-.18-.43 -.12-.12-.27-.18-.43-.18h-3.04l.04-.05Z"/></svg>