<svg viewBox="0 0 24 24" xmlns="http://www.w3.org/2000/svg"><path fill="currentColor" d="M12.25 8h3.67c-.49-3.4-3.41-6-6.93-6 -3.87 0-7 3.13-7 7 0 3.52 2.6 6.44 6 6.92v-3.68c0-2.35 1.9-4.25 4.25-4.25Zm0 1C10.45 9 9 10.45 9 12.25v6.5c0 .62.17 1.21.48 1.7l4.24-4.25c.97-.98 2.55-.98 3.53 0l4.24 4.24c.3-.5.48-1.09.48-1.71v-6.5c0-1.8-1.46-3.25-3.25-3.25h-6.5Zm8.2 12.51l-4.25-4.25c-.4-.4-1.03-.4-1.42 0l-4.25 4.24c.49.3 1.08.48 1.7.48h6.5c.62 0 1.21-.18 1.7-.49Zm-1.21-8.52c0 .69-.56 1.25-1.25 1.25 -.7 0-1.25-.56-1.25-1.25 0-.7.55-1.25 1.25-1.25 .69 0 1.25.55 1.25 1.25Z"/></svg>