<svg viewBox="0 0 24 24" xmlns="http://www.w3.org/2000/svg"><g fill="currentColor"><path d="M10.437 2.52c1.01-.17 2.1-.17 3.12 0 .49.08.82.54.74 1.03 -.09.49-.55.82-1.04.74 -.83-.14-1.72-.14-2.55 0 -.5.08-.96-.26-1.04-.75 -.09-.5.25-.96.74-1.04Zm-2.78 1.87c.28.4.19.96-.21 1.25 -.7.49-1.31 1.1-1.8 1.79 -.29.4-.86.49-1.26.2 -.41-.29-.5-.86-.21-1.26 .61-.86 1.35-1.6 2.21-2.22 .4-.29.96-.2 1.25.2Zm8.67 0c.28-.41.85-.5 1.25-.21 .85.61 1.59 1.35 2.21 2.21 .28.4.19.96-.21 1.25 -.41.28-.97.19-1.26-.21 -.5-.7-1.11-1.31-1.8-1.8 -.41-.29-.5-.86-.21-1.26ZM3.54 9.68c.49.08.82.54.74 1.03 -.14.82-.14 1.71 0 2.54 .08.49-.26.95-.75 1.03 -.5.08-.96-.26-1.04-.75 -.17-1.02-.17-2.11 0-3.13 .08-.5.54-.83 1.03-.75Zm16.87 0c.49-.09.95.25 1.03.74 .16 1.01.16 2.1 0 3.12 -.09.49-.55.82-1.04.74 -.5-.09-.83-.55-.75-1.04 .13-.83.13-1.72 0-2.55 -.09-.5.25-.96.74-1.04ZM4.37 16.32c.4-.29.96-.2 1.25.2 .49.69 1.1 1.3 1.79 1.79 .4.28.49.85.2 1.25s-.86.49-1.26.2c-.86-.62-1.6-1.36-2.22-2.22 -.29-.41-.2-.97.2-1.26Zm15.19 0c.4.28.49.85.2 1.25 -.62.85-1.36 1.59-2.22 2.21 -.41.28-.97.19-1.26-.21 -.29-.41-.2-.97.2-1.26 .69-.5 1.3-1.11 1.79-1.8 .28-.41.85-.5 1.25-.21Zm-9.91 4.1c.08-.5.54-.83 1.03-.75 .82.13 1.71.13 2.54 0 .49-.09.95.25 1.03.74 .08.49-.26.95-.75 1.03 -1.02.16-2.11.16-3.13 0 -.5-.09-.83-.55-.75-1.04Z"/><path fill="currentColor" fill-rule="evenodd" d="M13.53 2.67c-1.01-.17-2.08-.17-3.08 0 -.41.06-.69.45-.62.86 .06.4.45.68.86.61 .843-.14 1.75-.14 2.593 0 .4.06.79-.22.86-.62 .06-.41-.21-.8-.62-.87Zm-3.13-.3c1.03-.17 2.14-.17 3.17 0 .57.09.96.63.86 1.2 -.1.57-.64.96-1.21.86 -.82-.14-1.69-.14-2.5 0 -.58.09-1.12-.3-1.21-.87 -.1-.58.29-1.12.86-1.21ZM7.52 4.48c-.25-.34-.72-.42-1.05-.18 -.84.6-1.58 1.33-2.18 2.17 -.25.33-.17.8.17 1.04 .33.24.8.16 1.04-.18C6 6.62 6.62 6 7.33 5.49c.33-.25.41-.72.17-1.05Zm-1.23-.42c.47-.34 1.12-.24 1.46.24 .33.47.23 1.12-.25 1.46 -.68.48-1.28 1.08-1.77 1.76 -.34.47-1 .57-1.47.24 -.48-.34-.58-1-.25-1.47 .62-.87 1.38-1.63 2.24-2.25Zm11.18.24c-.34-.25-.81-.17-1.05.17 -.25.33-.17.8.17 1.04 .7.5 1.32 1.12 1.83 1.83 .24.33.71.41 1.04.17 .33-.25.41-.72.17-1.05 -.61-.84-1.34-1.58-2.18-2.18Zm-1.3-.01c.33-.48.99-.58 1.46-.25 .86.62 1.62 1.38 2.24 2.24 .33.47.23 1.12-.25 1.46 -.48.33-1.13.23-1.47-.25 -.49-.68-1.09-1.28-1.77-1.77 -.48-.34-.58-1-.25-1.47ZM3.49 9.81c-.41-.07-.8.21-.87.61 -.17 1-.17 2.07 0 3.07 .06.4.45.68.86.61 .4-.07.68-.46.61-.87 -.14-.85-.14-1.75 0-2.593 .06-.41-.22-.8-.62-.87Zm-1.16.57c.09-.58.63-.97 1.2-.87 .57.09.96.63.86 1.2 -.14.81-.14 1.68 0 2.49 .09.57-.3 1.11-.87 1.2 -.58.09-1.12-.3-1.21-.87 -.17-1.04-.17-2.15 0-3.18Zm18.94.04c-.07-.41-.46-.69-.87-.62 -.41.06-.69.45-.62.86 .13.843.13 1.75 0 2.593 -.07.4.21.79.61.86 .4.06.79-.21.86-.62 .16-1.01.16-2.08 0-3.08Zm-.91-.92c.57-.1 1.11.29 1.2.86 .16 1.03.16 2.14 0 3.17 -.1.57-.64.96-1.21.86 -.58-.1-.97-.64-.87-1.21 .13-.82.13-1.69 0-2.5 -.1-.58.29-1.12.86-1.21ZM5.48 16.58c-.25-.34-.72-.42-1.05-.18 -.34.24-.42.71-.18 1.04 .6.83 1.33 1.57 2.17 2.17 .33.24.8.16 1.04-.18 .24-.34.16-.81-.18-1.05 -.71-.51-1.33-1.13-1.84-1.84Zm-1.23-.42c.47-.34 1.12-.24 1.46.24 .48.67 1.08 1.27 1.76 1.76 .47.33.57.99.24 1.46 -.34.47-1 .57-1.47.24 -.87-.63-1.63-1.38-2.25-2.25 -.34-.48-.24-1.13.24-1.47Zm15.19.24c-.34-.25-.81-.17-1.05.17 -.51.7-1.13 1.32-1.84 1.83 -.34.24-.42.71-.18 1.04 .24.33.71.41 1.04.17 .83-.61 1.57-1.34 2.17-2.18 .24-.34.16-.81-.18-1.05Zm-1.3-.01c.33-.48.99-.58 1.46-.25 .47.33.57.99.24 1.46 -.63.86-1.39 1.62-2.25 2.24 -.48.33-1.13.23-1.47-.25 -.34-.48-.24-1.13.24-1.47 .67-.49 1.27-1.09 1.76-1.77Zm-7.52 3.38c-.41-.07-.8.21-.87.61 -.07.4.21.79.61.86 1 .16 2.07.16 3.07 0 .4-.07.68-.46.61-.87 -.07-.41-.46-.69-.87-.62 -.843.13-1.75.13-2.593 0Zm-1.16.57c.09-.58.63-.97 1.2-.87 .81.13 1.68.13 2.49 0 .57-.1 1.11.29 1.2.86 .09.57-.3 1.11-.87 1.2 -1.04.16-2.15.16-3.18 0 -.58-.1-.97-.64-.87-1.21Z"/></g></svg>