<svg viewBox="0 0 24 24" xmlns="http://www.w3.org/2000/svg"><path fill="currentColor" d="M12.75 2.74c0-.42-.34-.75-.75-.75 -.42 0-.75.33-.75.75v1.25h-2c-.97 0-1.75.78-1.75 1.75v2.15c1.51-.14 3 1.03 3 2.74v10.6c0 .02-.01.05-.01.07v.67h3v-1.25h0v-7.5c0-1.52 1.23-2.75 2.75-2.75h.25V5.72c0-.97-.79-1.75-1.75-1.75h-2V2.71Zm1.74 19.25h4.25c.96 0 1.75-.79 1.75-1.75v-7c0-.97-.79-1.75-1.75-1.75h-2.5c-.97 0-1.75.78-1.75 1.75v7.5h-.01v1.25Zm-5-1.25h-.01v.55l-.01 0v.69h-.75 -.01 -3.5c-.97 0-1.75-.79-1.75-1.75v-7.97c0-.59.29-1.14.78-1.47l2.5-1.65c1.16-.77 2.71.07 2.71 1.46v10.1Z"/></svg>