<svg viewBox="0 0 24 24" xmlns="http://www.w3.org/2000/svg"><path fill="currentColor" d="M9.01 6l-1.5 1.5 -3.28 0c-.42 0-.75.33-.75.75v11.49c0 .41.33.75.75.75h11.5c.41 0 .75-.34.75-.75l-.01-3.28 1.5-1.5v4.77c0 1.24-1.01 2.25-2.25 2.25H4.22c-1.25 0-2.25-1.01-2.25-2.25V8.23c0-1.25 1-2.25 2.25-2.25l4.76-.01Zm-3.8 6.21l1.99-2c.26-.27.68-.3.97-.08l.08.07 5.5 5.49c.26.26.29.68.07.97l-.08.08 -2 2c-.27.26-.69.29-.98.07l-.09-.08 -5.51-5.5c-.27-.27-.3-.69-.08-.98l.07-.09 1.99-2 -2 1.99ZM21.26 2.7c.18.18.33.38.45.61 .63 1.2.22 2.69-.93 3.39l-.15.08 -1.17.61 .51.51c1.22 1.22 1.26 3.17.13 4.45l-.14.14 -1.24 1.23c-.27.26-.69.29-.98.07l-.09-.08 -.47-.47 -1.47 1.46c-.27.26-.69.29-.98.07l-.09-.08 -5.51-5.5c-.27-.27-.3-.69-.08-.98l.07-.09 1.46-1.47 -.47-.47c-.27-.27-.3-.69-.08-.98l.07-.09 1.23-1.24c1.22-1.22 3.17-1.27 4.45-.14l.14.13 .51.51 .61-1.17c.09-.18.19-.33.32-.48l.13-.15c1-1.01 2.63-1.01 3.64-.01Zm-9.54 5.09l-.94.93 4.43 4.43 .93-.94 -4.45-4.44Zm6.94-4.04c-.06.05-.1.1-.14.16l-.06.09 -.84 1.57 .71.71 1.57-.84c.52-.28.72-.94.44-1.46 -.06-.1-.12-.19-.2-.26 -.43-.43-1.11-.43-1.53 0Z"/></svg>