<svg viewBox="0 0 24 24" xmlns="http://www.w3.org/2000/svg"><path fill="currentColor" d="M17.5 12c3.03 0 5.5 2.46 5.5 5.5 0 3.03-2.47 5.5-5.5 5.5 -3.04 0-5.5-2.47-5.5-5.5 0-3.04 2.46-5.5 5.5-5.5ZM3 19l8.17 0c.17.72.46 1.39.84 2l-9.03-.01c-.56 0-1-.45-1-1 0-.52.38-.94.88-1l.11-.01Zm12.093-4.04l-.07.05 -.06.06c-.12.17-.12.39 0 .56l.05.06 1.76 1.76 -1.77 1.76 -.06.06c-.12.17-.12.39 0 .56l.05.06 .06.05c.17.11.39.11.56 0l.06-.06 1.76-1.77 1.76 1.76 .06.05c.17.11.39.11.56 0l.06-.06 .05-.07c.11-.18.11-.4 0-.57l-.06-.07 -1.77-1.77 1.77-1.77 .05-.07c.11-.18.11-.4 0-.57l-.06-.07 -.07-.06c-.18-.12-.4-.12-.57 0l-.07.05 -1.78 1.76 -1.77-1.77 -.07-.06c-.15-.11-.34-.12-.5-.05l-.08.04Zm.9-11.97c.57 0 1.02.48.99 1.04l-.02.11 -.25 1.5c-.09.54-.61.91-1.15.82 -.51-.09-.87-.54-.84-1.04l.01-.12 .05-.34h-3.4l-1.76 11h.32c.51 0 .93.38.99.88l0 .11c0 .51-.39.93-.89.99l-.12 0h-3c-.56 0-1-.45-1-1 0-.52.38-.94.88-1l.11-.01h.64l1.76-11H5.74l-.12.66c-.1.54-.61.91-1.16.82 -.51-.09-.86-.54-.84-1.04l.01-.12 .25-1.5c.07-.45.43-.78.86-.83l.12-.01h11Z"/></svg>