<svg viewBox="0 0 24 24" xmlns="http://www.w3.org/2000/svg"><path fill="currentColor" d="M10.25 2h3.5c1.15 0 2.11.87 2.23 1.99l1.76 0c1.24 0 2.25 1 2.25 2.25v7.75h-5c-2.77 0-5 2.23-5 5 0 1.12.37 2.16.99 3H6.23c-1.25 0-2.25-1.01-2.25-2.25V6.24c0-1.25 1-2.25 2.25-2.25l1.76-.01c.12-1.13 1.07-2 2.23-2Zm3.5 1.5h-3.5c-.42 0-.75.33-.75.75 0 .41.33.75.75.75h3.5c.41 0 .75-.34.75-.75 0-.42-.34-.75-.75-.75ZM23 19c0-2.21-1.8-4-4-4l-.11 0c-.37.04-.65.36-.65.74 0 .41.33.75.75.75l.16 0c1.3.08 2.33 1.16 2.33 2.49 0 1.38-1.12 2.5-2.5 2.5l-.11 0c-.37.04-.65.36-.65.74 0 .41.33.75.75.75l.19-.01c2.11-.11 3.8-1.86 3.8-4Zm-7.25-3.25c0-.42-.34-.75-.75-.75l-.2 0c-2.12.1-3.81 1.85-3.81 3.99 0 2.2 1.79 4 4 4l.1-.01c.36-.05.64-.37.64-.75 0-.42-.34-.75-.75-.75l-.17-.01c-1.31-.09-2.34-1.17-2.34-2.5 0-1.39 1.11-2.5 2.5-2.5l.1-.01c.36-.05.64-.37.64-.75Zm3 2.5h-3.5l-.11 0c-.37.04-.65.36-.65.74 0 .41.33.75.75.75h3.5l.1-.01c.36-.05.64-.37.64-.75 0-.42-.34-.75-.75-.75Z"/></svg>