<svg viewBox="0 0 24 24" xmlns="http://www.w3.org/2000/svg"><path fill="currentColor" d="M13.75 3.5h-3.5c-.42 0-.75.33-.75.75 0 .41.33.75.75.75h3.5c.41 0 .75-.34.75-.75 0-.42-.34-.75-.75-.75ZM10.25 2h3.5c1.15 0 2.11.87 2.23 1.99l1.76 0c1.24 0 2.25 1 2.25 2.25v4.75h-5c-2.21 0-4 1.79-4 4v5c0 .72.19 1.41.53 2H6.23c-1.25 0-2.25-1.01-2.25-2.25V6.24c0-1.25 1-2.25 2.25-2.25l1.76-.01c.12-1.13 1.07-2 2.23-2ZM15 12c-1.66 0-3 1.34-3 3v5c0 .55.15 1.07.41 1.52l3.49-3.5c.87-.88 2.3-.88 3.18 0l3.49 3.49c.26-.45.41-.97.41-1.53v-5c0-1.66-1.35-3-3-3h-5Zm0 11c-.56 0-1.08-.16-1.53-.42l3.49-3.5c.29-.3.76-.3 1.06 0l3.49 3.49c-.45.26-.97.41-1.53.41h-5Zm5-7c-.56 0-1-.45-1-1 0-.56.44-1 1-1 .55 0 1 .44 1 1 0 .55-.45 1-1 1Z"/></svg>