<svg viewBox="0 0 24 24" xmlns="http://www.w3.org/2000/svg"><path fill="currentColor" d="M8.5 3.59c.24-.7.91-1.2 1.69-1.2h3.6c.78 0 1.45.5 1.69 1.2h1.9c.99 0 1.8.8 1.8 1.8v6.6h-4.8c-1.99 0-3.6 1.61-3.6 3.6v4.8c0 .42.07.82.2 1.2H6.57c-1 0-1.8-.81-1.8-1.8V5.38c0-1 .8-1.8 1.8-1.8h1.9Zm1.69 0c-.34 0-.6.26-.6.6 0 .33.26.6.6.6h3.6c.33 0 .6-.27.6-.6 0-.34-.27-.6-.6-.6h-3.6Zm4.2 9.6c-1.33 0-2.4 1.07-2.4 2.4v4.8c0 1.32 1.07 2.4 2.4 2.4h6c1.32 0 2.4-1.08 2.4-2.4v-4.8c0-1.33-1.08-2.4-2.4-2.4h-6Zm0 6.6c0-.34.26-.6.6-.6h4.8c.33 0 .6.26.6.6 0 .33-.27.6-.6.6h-4.8c-.34 0-.6-.27-.6-.6Zm0-3.6c0-.34.26-.6.6-.6h4.8c.33 0 .6.26.6.6 0 .33-.27.6-.6.6h-4.8c-.34 0-.6-.27-.6-.6Z"/></svg>