<svg viewBox="0 0 24 24" xmlns="http://www.w3.org/2000/svg"><path fill="currentColor" d="M10.25 3.5h3.5c.41 0 .75.33.75.75 0 .41-.34.75-.75.75h-3.5c-.42 0-.75-.34-.75-.75 0-.42.33-.75.75-.75Zm3.5-1.5h-3.5c-1.16 0-2.12.87-2.24 1.99l-1.77 0c-1.25 0-2.25 1-2.25 2.25v13.5c0 1.24 1 2.25 2.25 2.25h11.5c1.24 0 2.25-1.01 2.25-2.25V6.24c0-1.25-1.01-2.25-2.25-2.25l-1.77-.01c-.13-1.13-1.08-2-2.24-2Zm2.75 11.75v3.5c0 .41-.34.75-.75.75 -.42 0-.75-.34-.75-.75v-3.5c0-.42.33-.75.75-.75 .41 0 .75.33.75.75ZM12 11c.41 0 .75.33.75.75v5.5c0 .41-.34.75-.75.75 -.42 0-.75-.34-.75-.75v-5.5c0-.42.33-.75.75-.75ZM9 9.75v7.5c0 .41-.34.75-.75.75 -.42 0-.75-.34-.75-.75v-7.5c0-.42.33-.75.75-.75 .41 0 .75.33.75.75Z"/></svg>