<svg viewBox="0 0 24 24" xmlns="http://www.w3.org/2000/svg"><path fill="currentColor" d="M10.25 2h3.5c1.15 0 2.11.87 2.23 1.99l1.76 0c1.24 0 2.25 1 2.25 2.25v5.24c-.77-.33-1.62-.5-2.5-.5 -3.59 0-6.5 2.91-6.5 6.5 0 1.74.68 3.33 1.8 4.5H6.23c-1.25 0-2.25-1.01-2.25-2.25V6.23c0-1.25 1-2.25 2.25-2.25l1.76-.01c.12-1.13 1.07-2 2.23-2Zm3.5 1.5h-3.5c-.42 0-.75.33-.75.75 0 .41.33.75.75.75h3.5c.41 0 .75-.34.75-.75 0-.42-.34-.75-.75-.75Zm9.25 14c0 3.03-2.47 5.5-5.5 5.5 -3.04 0-5.5-2.47-5.5-5.5 0-3.04 2.46-5.5 5.5-5.5 3.03 0 5.5 2.46 5.5 5.5ZM17.5 14c-.28 0-.5.22-.5.5v4c0 .27.22.5.5.5 .27 0 .5-.23.5-.5v-4c0-.28-.23-.5-.5-.5Zm0 7.125c.34 0 .625-.28.625-.625 0-.35-.28-.625-.625-.625 -.35 0-.625.27-.625.625 0 .34.27.625.625.625Z"/></svg>