<svg viewBox="0 0 24 24" xmlns="http://www.w3.org/2000/svg"><path fill="currentColor" d="M10.19 2.39h3.6c.78 0 1.45.5 1.69 1.2h1.9c.99 0 1.8.8 1.8 1.8v14.4c0 .99-.81 1.8-1.8 1.8H6.58c-1 0-1.8-.81-1.8-1.8V5.38c0-1 .8-1.8 1.8-1.8h1.9c.24-.7.91-1.2 1.69-1.2Zm-.6 1.8c0 .33.26.6.6.6h3.6c.33 0 .6-.27.6-.6 0-.34-.27-.6-.6-.6h-3.6c-.34 0-.6.26-.6.6Zm5.7 6.9c.49 0 .9-.41.9-.9 0-.5-.41-.91-.9-.91 -.5 0-.9.4-.9.9 0 .49.4.9.9.9Zm0 3.6c.49 0 .9-.41.9-.9 0-.5-.41-.9-.9-.9 -.5 0-.9.4-.9.9 0 .49.4.9.9.9Zm-.9 2.7c0 .49.4.9.9.9 .49 0 .9-.41.9-.9 0-.5-.41-.9-.9-.9 -.5 0-.9.4-.9.9Zm-1.2-7.2c0-.34-.27-.61-.6-.61h-4.2c-.34 0-.6.26-.6.6 0 .33.26.6.6.6h4.2c.33 0 .6-.27.6-.6Zm0 3.6c0-.34-.27-.6-.6-.6h-4.2c-.34 0-.6.26-.6.6 0 .33.26.6.6.6h4.2c.33 0 .6-.27.6-.6Zm0 3.6c0-.34-.27-.6-.6-.6h-4.2c-.34 0-.6.26-.6.6 0 .33.26.6.6.6h4.2c.33 0 .6-.27.6-.6Z"/></svg>