<svg viewBox="0 0 24 24" xmlns="http://www.w3.org/2000/svg"><path fill="currentColor" d="M10.25 2h3.5c1.15 0 2.11.87 2.23 1.99l1.76 0c1.24 0 2.25 1 2.25 2.25v6.74h-2.26l-1-1.66c-.33-.55-.93-.88-1.57-.85 -.64.02-1.22.39-1.5.96l-.52 1.02 -1.25-4.24c-.21-.69-.81-1.19-1.53-1.25 -.72-.07-1.4.31-1.73.96l-2.52 5.03H3.94V6.2c0-1.25 1-2.25 2.25-2.25l1.76-.01c.12-1.13 1.07-2 2.23-2Zm3.5 1.5h-3.5c-.42 0-.75.33-.75.75 0 .41.33.75.75.75h3.5c.41 0 .75-.34.75-.75 0-.42-.34-.75-.75-.75Zm3 12.99H20v3.25c0 1.24-1.01 2.25-2.25 2.25H6.25C5 21.99 4 20.98 4 19.74v-3.25h3.25c.66 0 1.26-.38 1.56-.97l1.01-2.03 1.24 4.23c.2.69.8 1.18 1.52 1.24 .71.06 1.39-.32 1.72-.97l1.08-2.17c.32.39.82.63 1.35.63Zm-5.79-7.97c-.09-.3-.35-.51-.66-.54 -.31-.03-.6.13-.74.41l-2.8 5.58H2.72c-.42 0-.75.33-.75.75 0 .41.33.75.75.75h4.5c.28 0 .54-.17.67-.42l2.14-4.3 1.96 6.67c.08.29.34.5.65.53 .3.02.59-.14.73-.42l1.88-3.78 .79 1.32c.13.22.37.36.64.36h4.5c.41 0 .75-.34.75-.75 0-.42-.34-.75-.75-.75H17.1l-1.29-2.14c-.15-.24-.4-.38-.68-.37 -.28.01-.52.16-.65.41l-1.65 3.295 -1.97-6.68Z"/></svg>