<svg viewBox="0 0 24 24" xmlns="http://www.w3.org/2000/svg"><path fill="currentColor" d="M13.75 2h-3.5c-1.16 0-2.12.87-2.24 1.99l-1.77 0c-1.25 0-2.25 1-2.25 2.25v13.5c0 1.24 1 2.25 2.25 2.25h11.5c1.24 0 2.25-1.01 2.25-2.25V6.24c0-1.25-1.01-2.25-2.25-2.25l-1.77-.01c-.13-1.13-1.08-2-2.24-2Zm-3.5 1.5h3.5c.41 0 .75.33.75.75 0 .41-.34.75-.75.75h-3.5c-.42 0-.75-.34-.75-.75 0-.42.33-.75.75-.75Zm2.25 6.75c0-.42.33-.75.75-.75h3.5c.41 0 .75.33.75.75 0 .41-.34.75-.75.75h-3.5c-.42 0-.75-.34-.75-.75Zm.75 4.75h3.49c.41 0 .75.33.75.75 0 .41-.34.75-.75.75h-3.5c-.42 0-.75-.34-.75-.75 0-.42.33-.75.75-.75Zm-2.47-5.22l-2 1.99c-.3.29-.77.29-1.07 0l-1-1c-.3-.3-.3-.77 0-1.07 .29-.3.76-.3 1.06 0l.46.46 1.46-1.47c.29-.3.76-.3 1.06 0 .29.29.29.76 0 1.06Zm0 4.43c.29.29.29.76 0 1.06l-2 2c-.3.29-.77.29-1.07 0l-1-1c-.3-.3-.3-.77 0-1.07 .29-.3.76-.3 1.06 0l.46.46 1.46-1.47c.29-.3.76-.3 1.06 0Z"/></svg>