<svg viewBox="0 0 24 24" xmlns="http://www.w3.org/2000/svg"><path fill="currentColor" d="M10.25 2h3.5c1.15 0 2.11.87 2.23 1.99l1.76 0c1.24 0 2.25 1 2.25 2.25v4.98c-1.03-.12-2.1.12-2.99.72 -1.74-1.17-4.12-.99-5.65.55 -1.75 1.74-1.75 4.57 0 6.31l3.17 3.17H6.23c-1.25 0-2.25-1.01-2.25-2.25V6.22c0-1.25 1-2.25 2.25-2.25l1.76-.01c.12-1.13 1.07-2 2.23-2Zm3.5 1.5h-3.5c-.42 0-.75.33-.75.75 0 .41.33.75.75.75h3.5c.41 0 .75-.34.75-.75 0-.42-.34-.75-.75-.75Zm3.26 19.25c-.2 0-.39-.08-.54-.22l-4.41-4.41c-1.36-1.36-1.36-3.55 0-4.91 1.35-1.36 3.54-1.36 4.9 0l.03.03 .03-.04c1.35-1.36 3.54-1.36 4.9 0 1.35 1.35 1.35 3.54 0 4.9l-4.41 4.4c-.15.14-.34.21-.54.21Z"/></svg>