<svg viewBox="0 0 24 24" xmlns="http://www.w3.org/2000/svg"><path fill="currentColor" d="M13.75 2h-3.5c-1.16 0-2.12.87-2.24 1.99l-1.77 0c-1.25 0-2.25 1-2.25 2.25v3.84c.75-.39 1.59-.6 2.5-.6 3.03 0 5.5 2.46 5.5 5.5 0 1.01-.28 1.96-.76 2.77l2.23 2.23c.53.53.65 1.33.34 1.98h3.91c1.24 0 2.25-1.01 2.25-2.25V6.21c0-1.25-1.01-2.25-2.25-2.25l-1.77-.01c-.13-1.13-1.08-2-2.24-2Zm-3.5 1.5h3.5c.41 0 .75.33.75.75 0 .41-.34.75-.75.75h-3.5c-.42 0-.75-.34-.75-.75 0-.42.33-.75.75-.75Zm-.3 14.38c.65-.79 1.04-1.79 1.04-2.89 0-2.49-2.02-4.5-4.5-4.5 -2.49 0-4.5 2.01-4.5 4.5 0 2.48 2.01 4.5 4.5 4.5 .84 0 1.63-.24 2.3-.64l2.91 2.91c.29.29.76.29 1.06 0 .29-.3.29-.77 0-1.07l-2.84-2.84Zm-3.46.11c-1.66 0-3-1.35-3-3 0-1.66 1.34-3 3-3 1.65 0 3 1.34 3 3 0 1.65-1.35 3-3 3Z"/></svg>