<svg viewBox="0 0 24 24" xmlns="http://www.w3.org/2000/svg"><path fill="currentColor" d="M11.37 13.62c0 .34.27.625.62.625l.06-.01 .06 0h1.25c.34 0 .62-.29.62-.625 0-.35-.28-.63-.63-.63h-.75V11.35c0-.35-.28-.63-.625-.63 -.35 0-.63.28-.63.62v2.25Zm2.37-11.63h-3.5c-1.16 0-2.12.87-2.24 1.99l-1.77 0c-1.25 0-2.25 1-2.25 2.25v13.5c0 1.24 1 2.25 2.25 2.25h11.5c1.24 0 2.25-1.01 2.25-2.25V6.23c0-1.25-1.01-2.25-2.25-2.25l-1.77-.01c-.13-1.13-1.08-2-2.24-2Zm-3.5 1.5h3.5c.41 0 .75.33.75.75 0 .41-.34.75-.75.75h-3.5c-.42 0-.75-.34-.75-.75 0-.42.33-.75.75-.75Zm1.75 4.75c2.62 0 4.75 2.12 4.75 4.75 0 2.62-2.13 4.75-4.75 4.75 -2.63 0-4.75-2.13-4.75-4.75 0-2.63 2.12-4.75 4.75-4.75Z"/></svg>