<svg viewBox="0 0 24 24" xmlns="http://www.w3.org/2000/svg"><path fill="currentColor" d="M13.75 2h-3.5c-1.16 0-2.12.87-2.24 1.99l-1.77 0c-1.25 0-2.25 1-2.25 2.25v13.5c0 1.24 1 2.25 2.25 2.25h11.5c1.24 0 2.25-1.01 2.25-2.25V6.24c0-1.25-1.01-2.25-2.25-2.25l-1.77-.01c-.13-1.13-1.08-2-2.24-2Zm-3.5 1.5h3.5c.41 0 .75.33.75.75 0 .41-.34.75-.75.75h-3.5c-.42 0-.75-.34-.75-.75 0-.42.33-.75.75-.75Zm-2 9c-.7 0-1.25-.56-1.25-1.25 0-.7.55-1.25 1.25-1.25 .69 0 1.25.55 1.25 1.25 0 .69-.56 1.25-1.25 1.25Zm0 4c-.7 0-1.25-.56-1.25-1.25 0-.7.55-1.25 1.25-1.25 .69 0 1.25.55 1.25 1.25 0 .69-.56 1.25-1.25 1.25Zm9.25-5.25c0 .69-.56 1.25-1.25 1.25 -.7 0-1.25-.56-1.25-1.25 0-.7.55-1.25 1.25-1.25 .69 0 1.25.55 1.25 1.25Zm-5.25 1.25c-.7 0-1.25-.56-1.25-1.25 0-.7.55-1.25 1.25-1.25 .69 0 1.25.55 1.25 1.25 0 .69-.56 1.25-1.25 1.25Zm1.25 2.75c0 .69-.56 1.25-1.25 1.25 -.7 0-1.25-.56-1.25-1.25 0-.7.55-1.25 1.25-1.25 .69 0 1.25.55 1.25 1.25Z"/></svg>