<svg viewBox="0 0 24 24" xmlns="http://www.w3.org/2000/svg"><path fill="currentColor" d="M9.75 1.5c-.98 0-1.82.62-2.13 1.5h-.88C5.498 3 4.49 4.008 4.49 5.25v12c0 1.24 1.008 2.25 2.25 2.25h9c1.24 0 2.25-1.01 2.25-2.25v-12c0-1.242-1.01-2.25-2.25-2.25h-.88c-.31-.88-1.15-1.5-2.13-1.5h-3ZM9 3.75c0-.42.33-.75.75-.75h3c.41 0 .75.33.75.75 0 .41-.34.75-.75.75h-3c-.42 0-.75-.34-.75-.75Zm10.5 13.5V4.9c.9.52 1.5 1.48 1.5 2.59v9.74c0 2.89-2.36 5.25-5.25 5.25H9c-1.11 0-2.07-.6-2.6-1.5h9.34c2.07 0 3.75-1.68 3.75-3.75Z"/></svg>