<svg viewBox="0 0 24 24" xmlns="http://www.w3.org/2000/svg"><path fill="currentColor" d="M15.97 3.94c-.15-1.1-1.1-1.95-2.23-1.95h-3.5c-1.14 0-2.09.84-2.23 1.94l-.02.13 0-.09 -1.77 0c-1.25 0-2.25 1-2.25 2.25v13.5c0 1.24 1 2.25 2.25 2.25h11.5c1.24 0 2.25-1.01 2.25-2.25V6.22c0-1.25-1.01-2.25-2.25-2.25l-1.77-.01 0 .08 -.02-.14Zm-5.73-.45h3.5c.41 0 .75.33.75.75 0 .41-.34.75-.75.75h-3.5c-.42 0-.75-.34-.75-.75 0-.42.33-.75.75-.75Zm-2.25 5.5h8c.41 0 .75.33.75.75 0 .41-.34.75-.75.75h-8c-.42 0-.75-.34-.75-.75 0-.42.33-.75.75-.75Zm3.25 4.75c0-.42.33-.75.75-.75h4c.41 0 .75.33.75.75 0 .41-.34.75-.75.75h-4c-.42 0-.75-.34-.75-.75Zm-1.25 3.25h6c.41 0 .75.33.75.75 0 .41-.34.75-.75.75h-6c-.42 0-.75-.34-.75-.75 0-.42.33-.75.75-.75Z"/></svg>