<svg viewBox="0 0 24 24" xmlns="http://www.w3.org/2000/svg"><path fill="currentColor" d="M10.25 2h3.5c1.15 0 2.11.87 2.23 1.99l1.76 0c1.24 0 2.25 1 2.25 2.25v5.24c-.77-.33-1.62-.5-2.5-.5 -3.59 0-6.5 2.91-6.5 6.5 0 1.74.68 3.33 1.8 4.5H6.23c-1.25 0-2.25-1.01-2.25-2.25V6.23c0-1.25 1-2.25 2.25-2.25l1.76-.01c.12-1.13 1.07-2 2.23-2Zm3.5 1.5h-3.5c-.42 0-.75.33-.75.75 0 .41.33.75.75.75h3.5c.41 0 .75-.34.75-.75 0-.42-.34-.75-.75-.75Zm.52 10.47c.31 1.09-.34 2.22-1.45 2.49l-.59.14c-.05.28-.07.58-.07.88 0 .31.02.62.07.92l.53.12c1.11.26 1.77 1.41 1.45 2.51l-.19.63c.43.38.93.69 1.48.92l.49-.52c.78-.83 2.11-.83 2.89 0l.49.52c.54-.23 1.04-.54 1.48-.92l-.2-.69c-.32-1.1.33-2.23 1.44-2.5l.58-.15c.04-.29.06-.59.06-.89 0-.32-.03-.63-.08-.93l-.54-.13c-1.12-.27-1.78-1.42-1.45-2.52l.18-.64c-.44-.39-.94-.7-1.49-.93l-.5.51c-.79.82-2.12.82-2.9-.01l-.5-.53c-.55.22-1.05.53-1.49.91l.19.68Zm3.22 5.02c-.81 0-1.45-.68-1.45-1.5 0-.83.64-1.5 1.44-1.5 .8 0 1.44.67 1.44 1.5 0 .82-.65 1.5-1.45 1.5Z"/></svg>