<svg viewBox="0 0 24 24" xmlns="http://www.w3.org/2000/svg"><path fill="currentColor" d="M10.19 2.39c-.79 0-1.46.5-1.7 1.2H6.58c-1 0-1.8.8-1.8 1.8v14.4c0 .99.8 1.8 1.8 1.8h3c0-.14.03-.28.06-.42l.44-1.8c.16-.68.51-1.3 1-1.79l5.79-5.8c.63-.64 1.44-.97 2.27-1.01V5.36c0-1-.81-1.8-1.8-1.8h-1.91c-.25-.7-.92-1.2-1.7-1.2h-3.6Zm-.6 1.8c0-.34.26-.6.6-.6h3.6c.33 0 .6.26.6.6 0 .33-.27.6-.6.6h-3.6c-.34 0-.6-.27-.6-.6Zm2.37 14.25l5.79-5.8c.87-.88 2.29-.88 3.17 0 .87.87.87 2.29 0 3.17l-5.8 5.79c-.34.33-.77.57-1.23.69l-1.8.44c-.79.19-1.49-.52-1.3-1.3l.44-1.8c.11-.47.35-.89.69-1.23Z"/></svg>