<svg viewBox="0 0 24 24" xmlns="http://www.w3.org/2000/svg"><path fill="currentColor" d="M12.75 2c1.15 0 2.11.87 2.23 2l1.76-.01c1.19 0 2.16.92 2.24 2.09l0 .15c0 .37-.29.69-.65.74l-.11 0c-.38 0-.7-.29-.75-.65l-.01-.11c0-.38-.29-.7-.65-.75l-.11-.01 -2.14 0c-.41.59-1.09.99-1.87.99H9.18c-.78 0-1.47-.4-1.87-1l-2.14-.01c-.38 0-.7.28-.75.64l-.01.1v13.5c0 .37.28.69.64.74l.1 0 3-.01c.37 0 .69.28.74.64l0 .1c0 .41-.34.75-.75.75l-3 0c-1.2 0-2.17-.93-2.25-2.1l-.01-.16V6.12c0-1.2.92-2.17 2.09-2.25l.15-.01 1.76 0C7 2.73 7.95 1.85 9.11 1.85h3.5Zm5.99 6c1.19 0 2.16.92 2.24 2.096l0 .15v9.5c0 1.19-.93 2.16-2.096 2.24l-.16 0h-6.5c-1.2 0-2.17-.93-2.25-2.096l-.01-.16v-9.5c0-1.2.92-2.17 2.096-2.25l.15-.01h6.5Zm-6-4.5H9.23c-.42 0-.75.33-.75.74s.33.74.74.74h3.5c.41 0 .74-.34.74-.75 0-.42-.34-.75-.75-.75Z"/></svg>