<svg viewBox="0 0 24 24" xmlns="http://www.w3.org/2000/svg"><path fill="currentColor" d="M10.25 3.5h3.5c.41 0 .75.33.75.75 0 .41-.34.75-.75.75h-3.5c-.42 0-.75-.34-.75-.75 0-.42.33-.75.75-.75Zm3.5-1.5h-3.5c-1.16 0-2.12.87-2.24 1.99l-1.77 0c-1.25 0-2.25 1-2.25 2.25v13.5c0 1.24 1 2.25 2.25 2.25h2.24c-.32-.42-.5-.94-.5-1.5 0-1.39 1.11-2.5 2.5-2.5 1.38 0 2.5 1.11 2.5 2.5 0-1.39 1.11-2.5 2.5-2.5 1.38 0 2.5 1.11 2.5 2.5 0-1.21.85-2.22 2-2.45V6.24c0-1.25-1.01-2.25-2.25-2.25l-1.77-.01c-.13-1.13-1.08-2-2.24-2ZM12 20.5c0 .82-.68 1.5-1.5 1.5 -.83 0-1.5-.68-1.5-1.5 0-.83.67-1.5 1.5-1.5 .82 0 1.5.67 1.5 1.5Zm3.5 1.5c.82 0 1.5-.68 1.5-1.5 0-.83-.68-1.5-1.5-1.5 -.83 0-1.5.67-1.5 1.5 0 .82.67 1.5 1.5 1.5Zm5 0c.82 0 1.5-.68 1.5-1.5 0-.83-.68-1.5-1.5-1.5 -.83 0-1.5.67-1.5 1.5 0 .82.67 1.5 1.5 1.5Z"/></svg>