<svg viewBox="0 0 24 24" xmlns="http://www.w3.org/2000/svg"><path fill="currentColor" d="M10.25 2h3.5c1.15 0 2.11.87 2.23 1.99l1.76 0c1.24 0 2.25 1 2.25 2.25v7.46c-.02-.75-.51-1.42-1.26-1.64 -.93-.28-1.9.25-2.18 1.18l-.52 1.74h-.73c-.1-.21-.24-.4-.42-.56 -.73-.65-1.83-.58-2.48.14l-2 2.25c-.59.66-.59 1.66 0 2.32l2 2.25c.34.38.81.58 1.29.58H6.2c-1.25 0-2.25-1.01-2.25-2.25V6.21c0-1.25 1-2.25 2.25-2.25l1.76-.01c.12-1.13 1.07-2 2.23-2Zm3.5 1.5h-3.5c-.42 0-.75.33-.75.75 0 .41.33.75.75.75h3.5c.41 0 .75-.34.75-.75 0-.42-.34-.75-.75-.75Zm-2.57 14.99l2 2.25c.14.16.35.25.56.25 .17 0 .35-.07.49-.19 .3-.28.33-.75.06-1.06l-1.56-1.76 1.55-1.76c.27-.31.24-.79-.07-1.06s-.76-.25-1.04.03c-.01 0-.01.01-.02.01s-.01 0-.01 0l-2 2.25s0 0 0 0c-.26.28-.26.71 0 .99Zm6.34-4.96c.11-.4.53-.63.93-.51 .04.01.08.02.12.04 .1.05.2.13.27.22 .09.12.14.28.14.44 -.01.07-.01.14-.04.21l-2.5 8.5c-.12.39-.54.62-.94.5 -.4-.12-.63-.54-.51-.94l2.5-8.5Zm2.22 7.27c-.31-.28-.34-.75-.07-1.06l1.55-1.76 -1.56-1.76c-.28-.31-.25-.79.06-1.06 .3-.28.78-.25 1.05.06l2 2.25c.25.28.25.71 0 .99l-2 2.25c-.28.3-.75.33-1.06.06Z"/></svg>