<svg viewBox="0 0 24 24" xmlns="http://www.w3.org/2000/svg"><path fill="currentColor" d="M15.97 3.94c-.15-1.1-1.1-1.95-2.23-1.95h-3.5c-1.14 0-2.09.84-2.23 1.94l-.02.13 0-.09 -1.77 0c-1.25 0-2.25 1-2.25 2.25v13.5c0 1.24 1 2.25 2.25 2.25h4.75c-.01-.2.01-.4.06-.6l.45-1.84c.09-.39.25-.75.46-1.08H7.95c-.42 0-.75-.34-.75-.75 0-.42.33-.75.75-.75h5.35l5.03-5.04c.45-.46 1.01-.76 1.6-.89V6.19c0-1.25-1.01-2.25-2.25-2.25l-1.77-.01 0 .08 -.02-.14Zm-5.73-.45h3.5c.41 0 .75.33.75.75 0 .41-.34.75-.75.75h-3.5c-.42 0-.75-.34-.75-.75 0-.42.33-.75.75-.75Zm-2.25 9.5h4c.41 0 .75.33.75.75 0 .41-.34.75-.75.75h-4c-.42 0-.75-.34-.75-.75 0-.42.33-.75.75-.75Zm0-4h8c.41 0 .75.33.75.75 0 .41-.34.75-.75.75h-8c-.42 0-.75-.34-.75-.75 0-.42.33-.75.75-.75Zm11.09 3.66l-5.91 5.9c-.35.34-.59.77-.71 1.24L12 21.62c-.2.79.52 1.51 1.31 1.31l1.83-.46c.47-.12.9-.37 1.24-.71l5.9-5.91c.89-.9.89-2.34 0-3.24 -.9-.9-2.34-.9-3.24 0Z"/></svg>