<svg viewBox="0 0 24 24" xmlns="http://www.w3.org/2000/svg"><path fill="currentColor" d="M10.25 2h3.5c1.15 0 2.11.87 2.23 1.99l1.76 0c1.24 0 2.25 1 2.25 2.25v5.24c-.77-.33-1.62-.5-2.5-.5 -3.59 0-6.5 2.91-6.5 6.5 0 1.74.68 3.33 1.8 4.5H6.23c-1.25 0-2.25-1.01-2.25-2.25V6.23c0-1.25 1-2.25 2.25-2.25l1.76-.01c.12-1.13 1.07-2 2.23-2Zm3.5 1.5h-3.5c-.42 0-.75.33-.75.75 0 .41.33.75.75.75h3.5c.41 0 .75-.34.75-.75 0-.42-.34-.75-.75-.75Zm9.25 14c0 3.03-2.47 5.5-5.5 5.5 -3.04 0-5.5-2.47-5.5-5.5 0-3.04 2.46-5.5 5.5-5.5 3.03 0 5.5 2.46 5.5 5.5Zm-8.5-.5c-.28 0-.5.22-.5.5 0 .27.22.5.5.5h4.79l-1.65 1.64c-.2.19-.2.51 0 .7 .19.19.51.19.7 0l2.5-2.5c.19-.2.19-.52 0-.71l-2.5-2.5c-.2-.2-.52-.2-.71 0 -.2.19-.2.51 0 .7l1.64 1.64h-4.8Z"/></svg>