<svg viewBox="0 0 24 24" xmlns="http://www.w3.org/2000/svg"><path fill="currentColor" d="M8.5 3.59H6.59c-1 0-1.8.8-1.8 1.8v14.4c0 .99.8 1.8 1.8 1.8h10.8c.99 0 1.8-.81 1.8-1.8V5.38c0-1-.81-1.8-1.8-1.8h-1.91c-.25-.7-.92-1.2-1.7-1.2h-3.6c-.79 0-1.46.5-1.7 1.2Zm1.69 0h3.6c.33 0 .6.26.6.6 0 .33-.27.6-.6.6h-3.6c-.34 0-.6-.27-.6-.6 0-.34.26-.6.6-.6Zm.6 6.6c0-.34.26-.61.6-.61h4.2c.33 0 .6.26.6.6 0 .33-.27.6-.6.6h-4.2c-.34 0-.6-.27-.6-.6Zm0 3.6c0-.34.26-.6.6-.6h4.2c.33 0 .6.26.6.6 0 .33-.27.6-.6.6h-4.2c-.34 0-.6-.27-.6-.6Zm0 3.6c0-.34.26-.6.6-.6h4.2c.33 0 .6.26.6.6 0 .33-.27.6-.6.6h-4.2c-.34 0-.6-.27-.6-.6Zm-1.2-7.2c0 .49-.41.9-.9.9 -.5 0-.9-.41-.9-.9 0-.5.4-.91.9-.91 .49 0 .9.4.9.9Zm0 3.6c0 .49-.41.9-.9.9 -.5 0-.9-.41-.9-.9 0-.5.4-.9.9-.9 .49 0 .9.4.9.9Zm-.9 4.5c-.5 0-.9-.41-.9-.9 0-.5.4-.9.9-.9 .49 0 .9.4.9.9 0 .49-.41.9-.9.9Z"/></svg>