<svg viewBox="0 0 24 24" xmlns="http://www.w3.org/2000/svg"><path fill="currentColor" d="M13.75 3.5h-3.5c-.42 0-.75.33-.75.75 0 .41.33.75.75.75h3.5c.41 0 .75-.34.75-.75 0-.42-.34-.75-.75-.75Zm0-1.5c1.13 0 2.08.84 2.22 1.94l.01.13 -.01-.09 1.76 0c1.24 0 2.25 1 2.25 2.25v13.5c0 1.24-1.01 2.25-2.25 2.25H6.23c-1.25 0-2.25-1.01-2.25-2.25V6.23c0-1.25 1-2.25 2.25-2.25l1.76-.01 -.01.08 .01-.14c.14-1.1 1.09-1.95 2.22-1.95h3.5ZM14 17H8c-.42 0-.75.33-.75.75 0 .41.33.75.75.75h6c.41 0 .75-.34.75-.75 0-.42-.34-.75-.75-.75Zm-2-4H8c-.42 0-.75.33-.75.75 0 .41.33.75.75.75h4c.41 0 .75-.34.75-.75 0-.42-.34-.75-.75-.75Zm4-4H8c-.42 0-.75.33-.75.75 0 .41.33.75.75.75h8c.41 0 .75-.34.75-.75 0-.42-.34-.75-.75-.75Z"/></svg>