<svg viewBox="0 0 24 24" xmlns="http://www.w3.org/2000/svg"><path fill="currentColor" d="M9.5 13.75c0-.14.11-.25.25-.25h4.5c.13 0 .25.11.25.25v2.5c0 .13-.12.25-.25.25h-4.5c-.14 0-.25-.12-.25-.25v-2.5ZM10.25 2h3.5c1.15 0 2.11.87 2.23 1.99l1.76 0c1.24 0 2.25 1 2.25 2.25v13.5c0 1.24-1.01 2.25-2.25 2.25H6.24c-1.25 0-2.25-1.01-2.25-2.25V6.24c0-1.25 1-2.25 2.25-2.25L8 3.98c.12-1.13 1.07-2 2.23-2Zm3.5 1.5h-3.5c-.42 0-.75.33-.75.75 0 .41.33.75.75.75h3.5c.41 0 .75-.34.75-.75 0-.42-.34-.75-.75-.75ZM8 9.75c0 .41.33.75.75.75h6.5c.41 0 .75-.34.75-.75 0-.42-.34-.75-.75-.75h-6.5c-.42 0-.75.33-.75.75ZM9.75 12C8.78 12 8 12.78 8 13.75v2.5c0 .96.78 1.75 1.75 1.75h4.5c.96 0 1.75-.79 1.75-1.75v-2.5c0-.97-.79-1.75-1.75-1.75h-4.5Z"/></svg>