<svg viewBox="0 0 24 24" xmlns="http://www.w3.org/2000/svg"><path fill="currentColor" d="M16.25 12.5h-4c-.42 0-.75-.34-.75-.75v-6c0-.42.33-.75.75-.75 .41 0 .75.33.75.75V11h3.25c.41 0 .75.33.75.75 0 .41-.34.75-.75.75ZM13 1C7.47 1 3 5.47 3 11c0 .33.01.66.04.99 1-.63 2.18-1 3.45-1 3.58 0 6.5 2.91 6.5 6.5 0 1.26-.37 2.45-1 3.45 .32.03.65.04.99.04 5.52 0 10-4.48 10-10 0-5.53-4.48-10-10-10ZM1 17.5c0-2.87 2.19-5.23 5-5.48v5.77l-1.65-1.65c-.2-.2-.52-.2-.71 0 -.2.19-.2.51 0 .7l2.5 2.5c.19.19.51.19.7 0l2.5-2.5c.19-.2.19-.52 0-.71 -.2-.2-.52-.2-.71 0l-1.65 1.64v-5.78c2.8.25 5 2.6 5 5.47 0 3.03-2.47 5.5-5.5 5.5 -3.04 0-5.5-2.47-5.5-5.5Zm2.5 3c0 .27.22.5.5.5h5c.27 0 .5-.23.5-.5 0-.28-.23-.5-.5-.5H4c-.28 0-.5.22-.5.5Z"/></svg>