<svg viewBox="0 0 24 24" xmlns="http://www.w3.org/2000/svg"><path fill="currentColor" d="M16.25 12.5h-4c-.42 0-.75-.34-.75-.75v-6c0-.42.33-.75.75-.75 .41 0 .75.33.75.75V11h3.25c.41 0 .75.33.75.75 0 .41-.34.75-.75.75ZM13 1C7.47 1 3 5.47 3 11c0 .33.01.66.04.99 1-.63 2.18-1 3.45-1 3.58 0 6.5 2.91 6.5 6.5 0 1.26-.37 2.45-1 3.45 .32.03.65.04.99.04 5.52 0 10-4.48 10-10 0-5.53-4.48-10-10-10Zm-1 16.5c0 3.03-2.47 5.5-5.5 5.5C3.46 23 1 20.53 1 17.5 1 14.46 3.46 12 6.5 12c3.03 0 5.5 2.46 5.5 5.5Zm-7.15-2.36c-.2-.2-.52-.2-.71 0 -.2.19-.2.51 0 .7l1.64 1.64 -1.65 1.64c-.2.19-.2.51 0 .7 .19.19.51.19.7 0l1.64-1.65 1.64 1.64c.19.19.51.19.7 0 .19-.2.19-.52 0-.71l-1.65-1.65L8.8 15.8c.19-.2.19-.52 0-.71 -.2-.2-.52-.2-.71 0l-1.65 1.64 -1.65-1.65Z"/></svg>