<svg viewBox="0 0 24 24" xmlns="http://www.w3.org/2000/svg"><path fill="currentColor" d="M16.24 12.5h-4c-.42 0-.75-.34-.75-.75v-6c0-.42.33-.75.75-.75 .41 0 .75.33.75.75V11h3.25c.41 0 .75.33.75.75 0 .41-.34.75-.75.75ZM12.99 1C7.46 1 2.98 5.47 2.98 11c-.001.2 0 .41.01.61 .47-.39 1.07-.62 1.73-.62h3.5c1.51 0 2.74 1.23 2.74 2.75v.3c1.14.23 2 1.24 2 2.45v4.5c5.52-.01 9.99-4.48 9.99-10 0-5.53-4.48-10-10-10ZM8.24 13.5h-3.5c-.14 0-.25.11-.25.25V15h4v-1.25c0-.14-.12-.25-.25-.25ZM2.99 15v-1.25c0-.97.78-1.75 1.75-1.75h3.5c.96 0 1.75.78 1.75 1.75V15h.5c.82 0 1.5.67 1.5 1.5V18h-2v-.5c0-.28-.23-.5-.5-.5 -.28 0-.5.22-.5.5v.5h-5v-.5c0-.28-.23-.5-.5-.5 -.28 0-.5.22-.5.5v.5h-2v-1.5c0-.83.67-1.5 1.5-1.5h.5Zm6 4.5V19h-5v.5c0 .27-.23.5-.5.5 -.28 0-.5-.23-.5-.5V19h-2v2.5c0 .82.67 1.5 1.5 1.5h8c.82 0 1.5-.68 1.5-1.5V19h-2v.5c0 .27-.23.5-.5.5 -.28 0-.5-.23-.5-.5Z"/></svg>