<svg viewBox="0 0 24 24" xmlns="http://www.w3.org/2000/svg"><path fill="currentColor" d="M9.1 3.47c-.74-.9-1.86-1.48-3.11-1.48 -2.21 0-4 1.79-4 4 0 1.25.57 2.37 1.47 3.1 -.31.9-.48 1.88-.48 2.89 0 2.21.8 4.24 2.12 5.81l-1.91 1.9c-.3.29-.3.76 0 1.06 .29.29.76.29 1.06 0l1.9-1.91c1.56 1.32 3.59 2.12 5.81 2.12 2.21 0 4.24-.81 5.81-2.13l1.9 1.9c.29.29.76.29 1.06 0 .29-.3.29-.77 0-1.07l-1.91-1.91c1.32-1.57 2.12-3.6 2.12-5.82 0-1.02-.17-1.99-.48-2.9 .9-.74 1.47-1.86 1.47-3.11 0-2.21-1.8-4-4-4 -1.26 0-2.38.57-3.11 1.47 -.91-.31-1.89-.48-2.9-.48 -1.02 0-1.99.16-2.9.47Zm-3.11.02c.63 0 1.2.23 1.64.62 -1.49.82-2.71 2.04-3.53 3.52 -.39-.45-.63-1.02-.63-1.65 0-1.39 1.11-2.5 2.5-2.5Zm10.35.62c.44-.39 1.01-.63 1.64-.63 1.38 0 2.5 1.11 2.5 2.5 0 .63-.24 1.2-.63 1.64 -.83-1.49-2.05-2.71-3.53-3.53Zm-5.11 2.87c.41 0 .75.33.75.75v4.25h2.75c.41 0 .75.33.75.75 0 .41-.34.75-.75.75h-3.5c-.42 0-.75-.34-.75-.75v-5c0-.42.33-.75.75-.75Z"/></svg>