<svg viewBox="0 0 24 24" xmlns="http://www.w3.org/2000/svg"><path fill="currentColor" d="M15.25 13.5h-4c-.42 0-.75-.34-.75-.75v-6c0-.42.33-.75.75-.75 .41 0 .75.33.75.75V12h3.25c.41 0 .75.33.75.75 0 .41-.34.75-.75.75ZM12 2C6.47 2 2 6.47 2 12c0 .42.02.84.07 1.25 .33-1.58 1.74-2.76 3.42-2.76 1.93 0 3.5 1.56 3.5 3.5v.05c1.14.23 2 1.24 2 2.45v5c0 .15-.02.3-.04.44 .34.03.68.05 1.03.05 5.52 0 10-4.48 10-10 0-5.53-4.48-10-10-10ZM3 15v-1c0-1.39 1.11-2.5 2.5-2.5C6.88 11.5 8 12.61 8 14v1h.5c.82 0 1.5.67 1.5 1.5v5c0 .82-.68 1.5-1.5 1.5h-6c-.83 0-1.5-.68-1.5-1.5v-5c0-.83.67-1.5 1.5-1.5H3Zm1.5-1v1h2v-1c0-.56-.45-1-1-1 -.56 0-1 .44-1 1Zm2 5c0-.56-.45-1-1-1 -.56 0-1 .44-1 1 0 .55.44 1 1 1 .55 0 1-.45 1-1Z"/></svg>