<svg viewBox="0 0 24 24" xmlns="http://www.w3.org/2000/svg"><path fill="currentColor" d="M18.75 4C20.54 4 22 5.45 22 7.25v9.5c0 1.79-1.46 3.25-3.25 3.25H5.25C3.45 20 2 18.54 2 16.75V7.24C2 5.5 3.35 4.09 5.06 3.99l.18-.01h13.5Zm-8.13 4.59c-2.41-1.38-5.13.25-5.13 3.4 0 3.14 2.71 4.77 5.12 3.4 .36-.21.48-.67.28-1.03 -.21-.36-.67-.49-1.03-.29 -1.4.79-2.88-.1-2.88-2.11s1.48-2.9 2.87-2.1c.35.2.81.07 1.02-.28 .2-.36.07-.82-.28-1.03Zm7.5 0c-2.41-1.38-5.13.25-5.13 3.4 0 3.14 2.71 4.77 5.12 3.4 .36-.21.48-.67.28-1.03 -.21-.36-.67-.49-1.03-.29 -1.4.79-2.88-.1-2.88-2.11s1.48-2.9 2.87-2.1c.35.2.81.07 1.02-.28 .2-.36.07-.82-.28-1.03Z"/></svg>