<svg viewBox="0 0 24 24" xmlns="http://www.w3.org/2000/svg"><path fill="currentColor" d="M3.28 2.21c-.3-.3-.77-.3-1.07-.01 -.3.29-.3.76-.01 1.06l1.25 1.25c-.89.58-1.47 1.58-1.47 2.71v9.5c0 1.79 1.45 3.25 3.25 3.25h13.5c.06 0 .12-.01.18-.01l1.78 1.78c.29.29.76.29 1.06 0 .29-.3.29-.77 0-1.07L3.25 2.16Zm5.29 7.41c-.89.14-1.58.99-1.58 2.36 0 2 1.48 2.89 2.87 2.1 .36-.21.81-.08 1.02.28 .2.36.07.81-.29 1.02 -2.41 1.36-5.13-.27-5.13-3.41 0-1.71.79-2.96 1.9-3.54L8.53 9.6Zm8.8.26c-1.25-.71-2.55-.09-2.83 1.46l7.01 7.01c.27-.48.43-1.04.43-1.63V7.21c0-1.8-1.46-3.25-3.25-3.25H7.16l6.17 6.17c.81-1.89 2.88-2.65 4.76-1.58 .35.2.48.66.27 1.02 -.21.35-.67.48-1.03.27Z"/></svg>