<svg viewBox="0 0 24 24" xmlns="http://www.w3.org/2000/svg"><path fill="currentColor" d="M12 5c-2.98 0-5.46 2.17-5.93 5.01 -2.29.21-4.08 2.13-4.08 4.48 0 2.48 2.01 4.5 4.5 4.5h11c2.48 0 4.5-2.02 4.5-4.5 0-2.35-1.8-4.27-4.08-4.49 -.47-2.85-2.95-5.02-5.93-5.02Zm-2 4.5h4c.41 0 .75.33.75.75 0 .41-.34.75-.75.75h-4c-.42 0-.75-.34-.75-.75 0-.42.33-.75.75-.75Zm-4.5 4.75c0-.42.33-.75.75-.75h4c.41 0 .75.33.75.75 0 .41-.34.75-.75.75h-4c-.42 0-.75-.34-.75-.75Zm8.25-.75h4c.41 0 .75.33.75.75 0 .41-.34.75-.75.75h-4c-.42 0-.75-.34-.75-.75 0-.42.33-.75.75-.75Z"/></svg>