<svg viewBox="0 0 24 24" xmlns="http://www.w3.org/2000/svg"><path fill="currentColor" d="M6.07 9.01c.46-2.85 2.94-5.02 5.92-5.02 2.97 0 5.45 2.17 5.92 5.01 2.28.21 4.07 2.13 4.07 4.48 0 .59-.12 1.17-.34 1.69l-1.69-1.69c-.69-.69-1.8-.69-2.48 0 -.54.53-.66 1.33-.35 1.98h-2.34c.3-.65.19-1.45-.35-1.99 -.69-.69-1.8-.69-2.48 0l-2.51 2.5c-.54.53-.66 1.33-.35 1.98H6.42c-2.49 0-4.5-2.02-4.5-4.5 0-2.35 1.79-4.27 4.07-4.49Zm7.7 6.26c.29-.3.29-.77 0-1.07 -.3-.3-.77-.3-1.07 0l-2.5 2.5c-.3.29-.3.76 0 1.06l2.5 2.5c.29.29.76.29 1.06 0 .29-.3.29-.77 0-1.07l-1.22-1.22h6.87l-1.22 1.21c-.3.29-.3.76 0 1.06 .29.29.76.29 1.06 0l2.5-2.5c.29-.3.29-.77 0-1.07l-2.5-2.5c-.3-.3-.77-.3-1.07 0 -.3.29-.3.76 0 1.06l1.21 1.21h-6.88l1.21-1.22Z"/></svg>