<svg viewBox="0 0 24 24" xmlns="http://www.w3.org/2000/svg"><path fill="currentColor" d="M6.07 9.01c.46-2.85 2.94-5.02 5.92-5.02 2.97 0 5.45 2.17 5.92 5.01 1.77.16 3.25 1.35 3.82 2.98h-8.75c-1.11 0-2 .89-2 2v1c0 .74.4 1.38 1 1.73v1.26h-5.5c-2.49 0-4.5-2.02-4.5-4.5 0-2.35 1.79-4.27 4.07-4.49Zm6.92 3.98c-.56 0-1 .44-1 1v1c0 .55.44 1 1 1h9c.55 0 1-.45 1-1v-1c0-.56-.45-1-1-1h-9Zm9 4h-9v4c0 1.1.89 2 2 2h5c1.1 0 2-.9 2-2v-4Zm-6.5 1.5c0-.28.22-.5.5-.5h3c.27 0 .5.22.5.5 0 .27-.23.5-.5.5h-3c-.28 0-.5-.23-.5-.5Z"/></svg>