<svg viewBox="0 0 24 24" xmlns="http://www.w3.org/2000/svg"><path fill="currentColor" d="M6.07 8.01c.46-2.85 2.94-5.02 5.92-5.02 2.97 0 5.45 2.17 5.92 5.01 2.28.21 4.07 2.13 4.07 4.48 0 .16-.01.33-.03.49 -1.16-1.8-3.18-3-5.48-3 -3.59 0-6.5 2.91-6.5 6.5 0 .16 0 .33.01.5H6.46c-2.49 0-4.5-2.02-4.5-4.5 0-2.35 1.79-4.27 4.07-4.49Zm15.92 8.48c0-3.04-2.47-5.5-5.5-5.5 -3.04 0-5.5 2.46-5.5 5.5 0 3.03 2.46 5.5 5.5 5.5 3.03 0 5.5-2.47 5.5-5.5Zm-5 .5l0 2.5c0 .27-.23.5-.5.5 -.28 0-.5-.23-.5-.5l-.01-2.51h-2.51c-.28 0-.5-.23-.5-.5 0-.28.22-.5.49-.5h2.5l-.01-2.51c0-.28.22-.5.5-.5 .27 0 .5.22.5.5l0 2.5h2.49c.27 0 .49.22.49.5 0 .27-.23.5-.5.5h-2.5Z"/></svg>