<svg viewBox="0 0 24 24" xmlns="http://www.w3.org/2000/svg"><path fill="currentColor" d="M6.07 7.01c.46-2.85 2.94-5.02 5.92-5.02 2.97 0 5.45 2.17 5.92 5.01 2.28.21 4.07 2.13 4.07 4.48 0 2.48-2.02 4.5-4.5 4.5h-4v-3.17c.64.3 1.44.19 1.98-.35 .68-.69.68-1.8 0-2.48l-2.5-2.51c-.69-.69-1.8-.69-2.48 0l-2.5 2.5c-.69.68-.69 1.79 0 2.47 .53.53 1.33.65 1.98.34v3.16h-3.5c-2.49 0-4.5-2.02-4.5-4.5 0-2.35 1.79-4.27 4.07-4.49Zm8.7 4.76c-.3.29-.77.29-1.07 0l-1.22-1.22v8.87l1.21-1.22c.29-.3.76-.3 1.06 0 .29.29.29.76 0 1.06l-2.5 2.5c-.3.29-.77.29-1.07 0l-2.51-2.5c-.3-.3-.3-.77 0-1.07 .29-.3.76-.3 1.06 0l1.21 1.21v-8.88l-1.22 1.21c-.3.29-.77.29-1.07 0 -.3-.3-.3-.77 0-1.07l2.5-2.51c.29-.3.76-.3 1.06 0l2.5 2.5c.29.29.29.76 0 1.06Z"/></svg>