<svg viewBox="0 0 24 24" xmlns="http://www.w3.org/2000/svg"><path fill="currentColor" d="M12 2C9.02 2 6.54 4.17 6.07 7.01c-2.29.21-4.08 2.13-4.08 4.48 0 2.48 2.01 4.5 4.5 4.5h6.68l.13-.51c.3-1.19 1.3-2.05 2.48-2.22 .57-1.34 1.9-2.28 3.45-2.28 1.06 0 2.02.44 2.7 1.15 .03-.22.04-.43.04-.66 0-2.35-1.8-4.27-4.08-4.49 -.47-2.85-2.95-5.02-5.93-5.02Zm7.25 11.5c.69 0 1.25.55 1.25 1.25 0 .69-.56 1.25-1.25 1.25 -.7 0-1.25-.56-1.25-1.25 0-.7.55-1.25 1.25-1.25Zm-3.04 2.25h.47c.4 1.02 1.39 1.75 2.56 1.75 1.51 0 2.75-1.24 2.75-2.75 0-1.52-1.24-2.75-2.75-2.75 -1.35 0-2.47.96-2.71 2.25h-.33c-.92 0-1.71.61-1.94 1.49l-1.02 3.88c-.06.22-.26.37-.49.37h-.8c-.13-1.41-1.31-2.5-2.74-2.5 -1.52 0-2.75 1.23-2.75 2.75 0 1.51 1.23 2.75 2.75 2.75 1.06 0 1.99-.61 2.45-1.5h1.08c.91 0 1.7-.62 1.93-1.5l1.01-3.89c.05-.23.25-.38.48-.38Zm-8.22 4.5c0-.7.55-1.25 1.25-1.25 .69 0 1.25.55 1.25 1.25 0 .69-.56 1.25-1.25 1.25 -.7 0-1.25-.56-1.25-1.25Z"/></svg>