<svg viewBox="0 0 24 24" xmlns="http://www.w3.org/2000/svg"><path fill="currentColor" d="M12 3.6c3.38 0 5.29 2.3 5.57 5.09h.08c1.84 0 3.38 1.3 3.81 3.05 -.21-.13-.42-.24-.64-.33 -.95-.41-2.17-.63-3.45-.63 -1.29 0-2.51.22-3.45.62 -.47.2-.93.47-1.29.83 -.37.36-.68.88-.68 1.54v3H6.28c-2.18 0-3.94-1.82-3.94-4.06 0-2.24 1.76-4.06 3.93-4.06h.08c.28-2.81 2.19-5.1 5.57-5.1Zm8.96 13.53c-.98.55-2.24.86-3.57.86 -1.33 0-2.6-.31-3.57-.87 -.22-.13-.44-.27-.64-.44v3.69c0 1.32 1.88 2.4 4.2 2.4 2.31 0 4.2-1.08 4.2-2.4v-3.7c-.21.16-.42.31-.64.43Zm-3.57-5.14c-2.32 0-4.2 1.07-4.2 2.4 0 1.32 1.88 2.4 4.2 2.4 2.31 0 4.2-1.08 4.2-2.4 0-1.33-1.89-2.4-4.2-2.4Z"/></svg>