<svg viewBox="0 0 24 24" xmlns="http://www.w3.org/2000/svg"><path fill="currentColor" d="M6.07 8.01c.46-2.85 2.94-5.02 5.92-5.02 2.97 0 5.45 2.17 5.92 5.01 2.28.21 4.07 2.13 4.07 4.48 0 .16-.01.33-.03.49 -1.16-1.8-3.18-3-5.48-3 -3.59 0-6.5 2.91-6.5 6.5 0 .16 0 .33.01.5H6.46c-2.49 0-4.5-2.02-4.5-4.5 0-2.35 1.79-4.27 4.07-4.49Zm15.92 8.48c0 3.03-2.47 5.5-5.5 5.5 -3.04 0-5.5-2.47-5.5-5.5 0-3.04 2.46-5.5 5.5-5.5 3.03 0 5.5 2.46 5.5 5.5Zm-5-3c0-.28-.23-.5-.5-.5 -.28 0-.5.22-.5.5v4.79l-1.65-1.65c-.2-.2-.52-.2-.71 0 -.2.19-.2.51 0 .7l2.5 2.5c.19.19.51.19.7 0l2.5-2.5c.19-.2.19-.52 0-.71 -.2-.2-.52-.2-.71 0l-1.65 1.64v-4.8Z"/></svg>