<svg viewBox="0 0 24 24" xmlns="http://www.w3.org/2000/svg"><path fill="currentColor" d="M6.07 8.01c.46-2.85 2.94-5.02 5.92-5.02 2.97 0 5.45 2.17 5.92 5.01 2.28.21 4.07 2.13 4.07 4.48 0 .16-.01.33-.03.49 -1.16-1.8-3.18-3-5.48-3 -3.59 0-6.5 2.91-6.5 6.5 0 .16 0 .33.01.5H6.46c-2.49 0-4.5-2.02-4.5-4.5 0-2.35 1.79-4.27 4.07-4.49Zm10.42 13.98c3.03 0 5.5-2.47 5.5-5.5 0-3.04-2.47-5.5-5.5-5.5 -3.04 0-5.5 2.46-5.5 5.5 0 3.03 2.46 5.5 5.5 5.5Zm2-7c-.46-.61-1.19-1-2.01-1 -.75 0-1.41.32-1.87.83 -.19.2-.51.22-.71.03 -.21-.19-.23-.51-.04-.71 .64-.72 1.57-1.17 2.6-1.17 .97 0 1.86.4 2.5 1.05v-.56c0-.28.22-.5.5-.5 .27 0 .5.22.5.5v2c0 .27-.23.5-.5.5h-2c-.28 0-.5-.23-.5-.5 0-.28.22-.5.5-.5h1Zm-5.51 2.5c0-.28.22-.5.5-.5h2c.27 0 .5.22.5.5 0 .27-.23.5-.5.5h-1.01c.45.6 1.18 1 2 1 .74 0 1.4-.33 1.86-.84 .18-.21.5-.23.7-.04 .2.18.22.5.03.7 -.65.71-1.58 1.16-2.61 1.16 -.98 0-1.87-.41-2.5-1.06v.55c0 .27-.23.5-.5.5 -.28 0-.5-.23-.5-.5v-2Z"/></svg>