<svg viewBox="0 0 24 24" xmlns="http://www.w3.org/2000/svg"><path fill="currentColor" d="M6.75 2C4.12 2 2 4.12 2 6.75c0 2.62 2.12 4.75 4.75 4.75h4c.41 0 .75-.34.75-.75v-4C11.5 4.12 9.37 2 6.75 2Zm0 20C4.12 22 2 19.87 2 17.25c0-2.63 2.12-4.75 4.75-4.75h4c.41 0 .75.33.75.75v4c0 2.62-2.13 4.75-4.75 4.75Zm10.5-20C19.87 2 22 4.12 22 6.75c0 2.62-2.13 4.75-4.75 4.75h-4c-.42 0-.75-.34-.75-.75v-4C12.5 4.12 14.62 2 17.25 2Zm0 20c2.62 0 4.75-2.13 4.75-4.75 0-2.63-2.13-4.75-4.75-4.75h-4c-.42 0-.75.33-.75.75v4c0 2.62 2.12 4.75 4.75 4.75Z"/></svg>