<svg viewBox="0 0 24 24" xmlns="http://www.w3.org/2000/svg"><g fill="currentColor"><path d="M21.66 5.84c.11.08.21.19.29.32l-.01 0c.07.12.13.26.15.41 .02.13.01.28-.02.43 -.04.15-.1.28-.19.4l-3.54 4.95v4.89c0 .29-.12.58-.33.79 -.21.21-.5.32-.8.32 -.31 0-.59-.12-.8-.33 -.21-.21-.33-.5-.33-.8v-4.89l-3.54-4.96c-.09-.12-.16-.26-.19-.41 -.04-.15-.04-.3-.02-.44 .02-.15.07-.29.15-.41 .07-.13.18-.24.3-.33 .12-.09.25-.15.4-.19 .13-.04.28-.04.43-.02 .14.02.28.07.41.15 .12.08.23.18.31.3l2.83 3.97 2.83-3.97c.08-.12.18-.22.31-.3 .12-.08.26-.14.41-.16 .15-.03.29-.02.44.01 .14.03.27.09.4.18ZM5.24 5.62h3.37c1 0 1.94.39 2.65 1.09 .7.7 1.09 1.64 1.09 2.65 -.01 1-.39 1.94-1.1 2.65 -.71.7-1.65 1.09-2.66 1.09H6.34v4.125c0 .29-.12.58-.33.79 -.21.21-.5.32-.8.32 -.31 0-.59-.12-.8-.33 -.21-.21-.33-.5-.33-.8V6.69c0-.3.12-.59.33-.8 .21-.22.49-.33.79-.33Zm1.12 5.25h2.25c.39 0 .78-.16 1.05-.44 .28-.29.44-.67.44-1.07 -.01-.4-.16-.78-.45-1.06 -.28-.29-.67-.45-1.07-.45H6.33v3Z"/><path fill="currentColor" fill-rule="evenodd" d="M13.66 5.78c-.14-.03-.27-.02-.38.01l-.01 0c-.13.02-.25.08-.35.15 -.11.07-.2.17-.27.28 -.07.1-.12.23-.14.35 -.03.12-.02.25.01.37 .02.12.08.24.15.34l0 0 3.56 4.99v4.93c0 .25.1.51.28.69 .18.18.42.28.68.28 .26 0 .5-.11.68-.29 .18-.19.28-.44.28-.7v-4.94l3.56-5 0-.01c.07-.1.12-.22.15-.35 .02-.13.03-.26.01-.38l-.01-.01c-.02-.13-.07-.26-.14-.36l-.06-.09c-.06-.08-.13-.15-.21-.2l-.01-.01c-.11-.08-.23-.14-.35-.16l-.01-.01c-.13-.03-.25-.04-.39-.02s-.26.06-.36.13c-.12.07-.21.15-.28.25l-.01 0 -2.96 4.14 -2.952-4.15c-.01-.01 0 0 0 0 -.08-.11-.17-.2-.28-.27 -.11-.07-.23-.12-.36-.14Zm8.49.44c.04.1.08.21.09.32 .02.15.02.32-.02.48l-.01 0c-.05.16-.11.31-.21.45 -.01 0 0-.01 0 0l-3.52 4.91v4.84c0 .33-.14.66-.38.9s-.57.37-.91.37c-.35 0-.67-.14-.91-.38s-.38-.57-.38-.91v-4.85l-3.52-4.92c-.01-.01 0 0 0 0 -.1-.14-.18-.3-.21-.46 -.04-.17-.05-.34-.02-.5l0-.01c.02-.16.08-.32.17-.47 .09-.15.2-.27.34-.37 .13-.1.28-.17.45-.21 .15-.04.32-.05.49-.02 .16.02.32.08.47.17 .14.09.26.2.36.33l2.7 3.8 2.71-3.8c.09-.14.21-.25.36-.35 .14-.1.3-.15.47-.18l0-.01c.17-.03.33-.03.49.01 .16.03.31.1.45.2 .13.09.24.21.33.36l.08.13 -.02 0ZM5.23 5.77c-.27 0-.51.1-.69.28 -.19.18-.29.43-.29.68v10.5c0 .25.1.51.28.69 .18.18.42.28.68.28 .26 0 .5-.11.68-.29 .18-.19.28-.44.28-.7v-4.28h2.4c.96 0 1.86-.38 2.54-1.06 .67-.68 1.05-1.59 1.05-2.55 0-.97-.38-1.87-1.06-2.55 -.68-.68-1.59-1.06-2.55-1.06H5.17Zm-.91.07c.23-.25.56-.38.9-.38h3.37c1.04 0 2.02.4 2.75 1.14 .73.73 1.14 1.71 1.14 2.75 -.01 1.04-.41 2.02-1.15 2.75s-1.72 1.14-2.76 1.14h-2.1v3.97c0 .33-.14.66-.38.9s-.57.37-.91.37c-.35 0-.67-.14-.91-.38s-.38-.57-.38-.91V6.68c0-.34.13-.67.37-.91Zm1.87 1.87h2.39c.43 0 .85.17 1.16.48 .3.3.48.72.48 1.16 0 .44-.18.85-.49 1.16 -.31.3-.73.48-1.17.48h-2.4V7.68Zm.3.3v2.7h2.1c.35 0 .7-.15.95-.4 .25-.26.39-.6.39-.96 -.01-.36-.15-.7-.4-.96 -.26-.26-.6-.4-.96-.4h-2.1Z"/></g></svg>