<svg viewBox="0 0 24 24" xmlns="http://www.w3.org/2000/svg"><path fill="currentColor" d="M18.375 4.5H4.125C2.675 4.5 1.5 5.67 1.5 7.12v11.25c0 1.44 1.17 2.625 2.62 2.625h14.25c1.44 0 2.625-1.18 2.625-2.625V7.12c0-1.45-1.18-2.625-2.625-2.625Zm-7.173 5.51l-2.25 6c-.06.14-.15.26-.28.35 -.13.08-.28.13-.43.13 -.16 0-.31-.05-.43-.14 -.13-.09-.23-.21-.28-.36l-2.25-6c-.04-.1-.06-.2-.05-.29 0-.1.02-.2.06-.29 .08-.19.23-.33.41-.4 .18-.08.39-.07.57.01 .18.08.32.23.39.41l1.548 4.12 1.54-4.13c.07-.19.21-.34.39-.42 .18-.09.38-.09.57-.02 .18.07.33.21.41.39 .08.18.08.38.01.57h-.01Zm5.53 5.01c-.16.43-.45.8-.83 1.06 -.38.26-.83.4-1.29.4h-1.88c-.2 0-.39-.08-.54-.22 -.15-.15-.22-.34-.22-.54v-6c0-.2.07-.39.21-.54 .14-.15.33-.22.53-.22h1.5c.41 0 .81.11 1.16.32 .35.21.63.52.82.88 .19.36.27.77.24 1.18 -.03.41-.17.8-.41 1.14 .34.3.59.69.71 1.14 .11.44.09.91-.07 1.34l0 0Zm-2.11-1.54h-1.125v1.5h1.125c.19 0 .39-.08.53-.22 .14-.15.21-.34.21-.54s-.08-.39-.22-.54c-.14-.15-.34-.22-.54-.22Zm.15-1.72c.14-.15.21-.34.21-.54s-.08-.39-.22-.54c-.15-.15-.34-.22-.54-.22h-.75v1.5h.75c.19 0 .39-.08.53-.22Z"/></svg>