<svg viewBox="0 0 24 24" xmlns="http://www.w3.org/2000/svg"><path fill="currentColor" d="M13.87 9.76c0 .61.67.97 2.27 1.57 1.57.59 3.72 1.39 3.72 3.67v0c-.01.53-.12 1.04-.34 1.52 -.22.48-.53.91-.93 1.26s-.85.61-1.36.78c-.5.16-1.04.22-1.56.17 -.11.01-.22.01-.33.01 -.38 0-.78-.07-1.16-.2 -.51-.17-.96-.44-1.36-.79 -.4-.36-.71-.78-.93-1.27 -.22-.49-.34-1-.34-1.53 0-.31.11-.59.33-.8 .42-.43 1.16-.43 1.59 0 .21.21.33.49.33.79 0 1.42 1.56 1.5 1.875 1.5 .31 0 1.875-.08 1.875-1.5 0-.62-.68-.98-2.28-1.58 -1.58-.6-3.73-1.4-3.73-3.68 0-.54.11-1.05.33-1.53 .21-.49.52-.91.92-1.27 .39-.36.84-.62 1.35-.79 .49-.17 1.02-.23 1.55-.18 .44-.05.98.01 1.48.17s.95.42 1.35.78c.39.35.7.78.92 1.26 .21.48.33.99.33 1.52 0 .3-.12.58-.33.79 -.43.42-1.17.42-1.6 0 -.22-.22-.33-.5-.33-.8 0-1.43-1.57-1.5-1.875-1.5 -.32 0-1.88.07-1.88 1.5ZM3.37 6.01h6.75c.3 0 .58.11.79.33 .21.21.33.49.33.79 0 .3-.12.58-.33.79 -.22.21-.5.33-.8.33H7.86v9.375c0 .3-.12.58-.33.79 -.22.21-.5.33-.8.33 -.3 0-.59-.12-.8-.33 -.22-.22-.33-.5-.33-.8V8.24H3.35c-.3 0-.59-.12-.8-.33 -.22-.22-.33-.5-.33-.8 0-.3.11-.59.33-.8 .21-.22.49-.33.79-.33Z"/></svg>