<svg viewBox="0 0 24 24" xmlns="http://www.w3.org/2000/svg"><path fill="currentColor" d="M18.375 4.5H4.125C2.675 4.5 1.5 5.67 1.5 7.12v11.25c0 1.44 1.17 2.625 2.62 2.625h14.25c1.44 0 2.625-1.18 2.625-2.625V7.12c0-1.45-1.18-2.625-2.625-2.625ZM10.5 14.25c0 .29-.06.58-.18.86 -.12.27-.28.52-.49.73 -.21.2-.46.375-.74.48 -.28.11-.57.17-.87.17 -.3 0-.59-.06-.87-.18s-.53-.28-.74-.49c-.21-.21-.38-.46-.49-.74 -.12-.28-.18-.57-.18-.87v-.75c0-.1.01-.2.05-.29 .03-.1.09-.18.16-.25s.15-.13.24-.17c.09-.04.18-.06.28-.06 .09 0 .19.01.28.05 .09.03.17.09.24.16 .06.07.12.15.16.24 .03.09.05.18.05.28v.75c0 .09.01.19.05.28 .03.09.09.17.16.24 .07.06.15.12.24.16 .09.03.18.05.28.05 .09 0 .19-.02.28-.06 .09-.04.17-.1.24-.17 .06-.08.12-.16.16-.25 .03-.1.05-.19.05-.29v-4.5c0-.1.01-.2.05-.29 .03-.1.09-.18.16-.25s.15-.13.24-.17c.09-.04.18-.06.28-.06 .09 0 .19.01.28.05 .09.03.17.09.24.16 .06.07.12.15.16.24 .03.09.05.18.05.28v4.5Zm4.31-3.56c-.12-.12-.29-.19-.45-.19h-.22c-.17 0-.33.06-.45.18s-.19.28-.19.45c0 .11.03.23.09.33s.15.18.25.23l1.46.73c.42.21.77.57.97 1 .2.43.25.92.15 1.39 -.11.46-.38.88-.75 1.18 -.38.29-.85.46-1.33.46h-.22c-.29 0-.57-.06-.82-.17 -.26-.11-.5-.27-.7-.47 -.21-.2-.37-.44-.47-.7 -.11-.26-.17-.54-.17-.83 -.01-.21.07-.41.21-.56 .13-.15.33-.25.53-.26 .09-.01.19 0 .28.04 .09.03.17.08.24.15 .07.06.12.14.16.23 .03.08.05.18.06.27 -.02.09-.01.18.02.27 .02.08.07.17.13.24 .06.07.13.12.21.16 .08.04.17.06.26.06h.21c.08 0 .16-.02.24-.05 .07-.04.14-.08.2-.14 .12-.12.18-.29.18-.45 0-.12-.04-.24-.1-.34 -.07-.11-.16-.19-.26-.24l-1.47-.74c-.43-.22-.78-.58-.98-1.01 -.21-.44-.26-.93-.15-1.4 .1-.47.37-.89.75-1.19 .86-.69 2.27-.63 3.05.15 .4.4.62.94.62 1.51 0 .2-.08.4-.22.55 -.14.15-.34.24-.54.25 -.1 0-.2-.01-.29-.05 -.09-.04-.18-.09-.25-.15 -.08-.07-.13-.15-.17-.24 -.04-.09-.06-.18-.07-.28v-.11c0-.17-.07-.33-.19-.45Z"/></svg>