<svg viewBox="0 0 24 24" xmlns="http://www.w3.org/2000/svg"><path fill="currentColor" d="M12.08 15.677c.06.2.14.48.21.67l0-.01c.12.09.22.2.29.33 .1.16.15.36.15.56 0 .3-.12.58-.33.79 -.22.21-.5.33-.8.33 -1.1 0-1.41-1.06-1.71-2.07 -.63-2.07-1.2-3.19-2.43-3.19H6.33v4.12c0 .3-.12.58-.33.79 -.43.42-1.17.42-1.6 0 -.22-.22-.33-.5-.33-.8V6.69c0-.3.11-.59.33-.8 .21-.22.49-.33.79-.33h3.37c1 0 1.94.38 2.65 1.09 .7.7 1.09 1.64 1.09 2.65 -.01.7-.21 1.39-.59 1.99 -.3.46-.69.86-1.16 1.15 .68.94 1.16 2 1.44 3.14l0 0Zm-2.41-5.25c.28-.28.44-.67.44-1.07 -.01-.4-.17-.78-.45-1.06 -.28-.29-.67-.45-1.07-.45H6.34v2.99h2.25c.39-.01.78-.17 1.05-.45Zm10.79 1.37c.34.3.63.66.84 1.07h0c.28.53.42 1.13.42 1.74 -.01 1-.39 1.94-1.1 2.65 -.71.7-1.65 1.09-2.66 1.09h-3.75c-.3 0-.59-.12-.8-.33 -.22-.22-.33-.5-.33-.8V6.71c0-.3.11-.59.33-.8 .21-.22.49-.33.79-.33h3.375c1 0 1.94.39 2.65 1.09 .7.7 1.09 1.65 1.09 2.65 0 .52-.11 1.02-.32 1.5 -.15.34-.35.65-.59.93Zm-5.11-3.94v3h2.25c.39-.01.78-.17 1.05-.45s.44-.67.44-1.06c-.01-.4-.17-.78-.45-1.06 -.28-.29-.67-.45-1.07-.45h-2.25Zm3.68 7.8c.28-.28.44-.67.44-1.07 -.01-.4-.17-.78-.45-1.06 -.28-.29-.67-.45-1.07-.45h-2.63v3h2.62c.39-.01.78-.17 1.06-.45Z"/></svg>