<svg viewBox="0 0 24 24" xmlns="http://www.w3.org/2000/svg"><path fill="currentColor" d="M10.76 5.73c.26-.13.57-.14.85-.05l0-.01c.27.09.5.3.63.57 .12.26.14.58.04.86L8.53 17.59c-.08.21-.22.4-.41.54 -.2.13-.42.2-.65.2 -.24 0-.46-.08-.65-.21 -.2-.14-.34-.33-.42-.55L2.65 7.07c-.06-.14-.08-.29-.07-.44 0-.14.04-.29.1-.42 .06-.14.15-.26.26-.36 .11-.11.24-.18.38-.23 .13-.05.28-.06.43-.07 .13 0 .28.04.41.1 .13.06.25.15.35.26 .1.11.17.24.22.38l2.68 7.53 2.69-7.54c.09-.28.3-.52.57-.65Zm9.7 6.07c.48.42.85.97 1.06 1.593 .26.76.27 1.56.03 2.33 -.24.76-.71 1.42-1.36 1.9 -.65.47-1.42.72-2.23.72h-3.75c-.3 0-.59-.12-.8-.33 -.22-.22-.33-.5-.33-.8V6.71c0-.3.11-.59.33-.8 .21-.22.49-.33.79-.33h3.38c.75 0 1.48.22 2.1.64 .62.42 1.1 1.02 1.38 1.73 .27.7.33 1.47.16 2.2 -.14.59-.42 1.13-.81 1.59Zm-5.1-3.94v3h2.25c.39-.01.78-.17 1.06-.45 .27-.28.43-.67.43-1.06 -.01-.4-.17-.78-.44-1.06 -.29-.28-.67-.45-1.07-.45h-2.25Zm0 8.25h2.62c.39 0 .78-.17 1.06-.44 .28-.28.43-.67.43-1.07s-.17-.78-.44-1.07c-.28-.29-.67-.44-1.07-.44h-2.63v3Z"/></svg>