<svg viewBox="0 0 24 24" xmlns="http://www.w3.org/2000/svg"><path fill="currentColor" d="M8.25 10.5H7.5V12h.75c.19 0 .39-.08.53-.22s.21-.34.21-.54 -.08-.39-.22-.54c-.15-.15-.34-.22-.54-.22Zm10.125-6H4.125C2.675 4.5 1.5 5.67 1.5 7.12v11.25c0 1.44 1.17 2.625 2.62 2.625h14.25c1.44 0 2.625-1.18 2.625-2.625V7.12c0-1.45-1.18-2.625-2.625-2.625Zm-8.54 8.34c-.43.42-1 .65-1.6.65h-.75v2.25c0 .19-.08.39-.22.53 -.15.14-.34.21-.54.21s-.39-.08-.54-.22c-.15-.15-.22-.34-.22-.54v-6c0-.2.07-.39.21-.54 .14-.15.33-.22.53-.22h1.5c.59 0 1.16.23 1.59.65 .42.42.65.99.65 1.59 0 .59-.24 1.16-.66 1.59Zm7.25-2.65l-2.1 2.79v2.75c0 .19-.08.39-.22.53 -.15.14-.34.21-.54.21s-.39-.08-.54-.22c-.15-.15-.22-.34-.22-.54v-2.76l-2.1-2.8c-.06-.08-.11-.17-.13-.27 -.03-.1-.03-.2-.02-.3 .01-.1.04-.2.09-.28 .05-.09.11-.16.19-.22 .15-.12.35-.18.55-.15 .19.02.375.13.49.29l1.65 2.2 1.65-2.21c.12-.16.29-.27.49-.3 .19-.03.39.02.55.14 .15.12.26.29.29.49 .02.19-.03.39-.15.55Z"/></svg>