<svg viewBox="0 0 24 24" xmlns="http://www.w3.org/2000/svg"><path fill="currentColor" d="M5.25 7.87c-.5 0-.98.19-1.33.54 -.36.35-.55.82-.55 1.32v4.5c0 .49.19.97.54 1.32 .35.35.82.54 1.32.54 .49 0 .97-.2 1.32-.55 .35-.36.54-.83.54-1.33 0-.63.5-1.125 1.12-1.125 .62 0 1.12.5 1.12 1.125 0 1.09-.44 2.14-1.21 2.91 -.78.77-1.83 1.2-2.92 1.2 -1.1 0-2.15-.44-2.92-1.21 -.78-.78-1.21-1.83-1.21-2.92v-4.5c0-1.1.43-2.15 1.2-2.92 .77-.78 1.82-1.21 2.91-1.21s2.14.43 2.91 1.2 1.2 1.82 1.2 2.91c0 .62-.51 1.12-1.13 1.12 -.63 0-1.13-.51-1.13-1.13 0-.5-.2-.98-.55-1.33 -.36-.36-.83-.55-1.33-.55Zm9-1.5c.62 0 1.12.5 1.12 1.125v1.12h2.25v-1.13c0-.63.5-1.125 1.125-1.125 .62 0 1.125.5 1.125 1.125v1.12h1.5c.62 0 1.125.5 1.125 1.125 0 .62-.51 1.12-1.125 1.12h-1.5v2.25h1.5c.62 0 1.125.5 1.125 1.125 0 .62-.51 1.12-1.125 1.12h-1.5v1.12c0 .62-.51 1.125-1.125 1.125 -.63 0-1.125-.51-1.125-1.125v-1.13h-2.25v1.12c0 .62-.51 1.125-1.13 1.125 -.63 0-1.125-.51-1.125-1.125v-1.13H11.99c-.63 0-1.13-.51-1.13-1.13 0-.63.5-1.125 1.12-1.125H13.1v-2.25H11.98c-.63 0-1.13-.51-1.13-1.13 0-.63.5-1.125 1.12-1.125h1.125V7.43c0-.63.5-1.125 1.125-1.125Zm1.12 4.5v2.25h2.25v-2.25h-2.25Z"/></svg>