<svg viewBox="0 0 24 24" xmlns="http://www.w3.org/2000/svg"><path fill="currentColor" d="M18.375 4.5H4.125C2.675 4.5 1.5 5.67 1.5 7.12v11.25c0 1.44 1.17 2.625 2.62 2.625h14.25c1.44 0 2.625-1.18 2.625-2.625V7.12c0-1.45-1.18-2.625-2.625-2.625Zm-7.35 5.78c-.15.14-.34.21-.54.21h-1.5v5.25c0 .19-.08.39-.22.53 -.15.14-.34.21-.54.21s-.39-.08-.54-.22c-.15-.15-.22-.34-.22-.54v-5.25h-1.5c-.2 0-.39-.08-.54-.22 -.15-.14-.22-.34-.22-.54s.07-.39.21-.54c.14-.15.33-.22.53-.22h4.5c.19 0 .39.07.53.21 .14.14.21.33.21.53 0 .19-.08.39-.22.53Zm3.78.4c-.12-.12-.29-.19-.45-.19h-.22c-.17 0-.33.06-.45.18s-.19.28-.19.45c0 .11.03.23.09.33s.15.18.25.23l1.46.73c.42.21.77.57.97 1 .2.43.25.92.15 1.39 -.11.46-.38.88-.75 1.18 -.38.29-.85.46-1.33.46h-.22c-.57 0-1.12-.23-1.52-.63 -.41-.41-.64-.95-.64-1.52 -.01-.21.07-.41.21-.56 .13-.15.33-.25.53-.26 .09-.01.19 0 .28.04 .09.03.17.08.24.15 .07.06.12.14.16.23 .03.08.05.18.06.27 -.02.09-.01.18.02.27 .02.08.07.17.13.24 .06.07.13.12.21.16 .08.04.17.06.26.06h.21c.16 0 .33-.07.45-.19s.18-.29.18-.45c0-.12-.04-.24-.1-.34 -.07-.11-.16-.19-.26-.24l-1.47-.74c-.43-.22-.78-.58-.98-1.01 -.21-.44-.26-.93-.15-1.4 .1-.47.37-.89.75-1.19 .37-.3.84-.47 1.32-.47h.21c.56 0 1.11.22 1.51.62 .4.4.62.94.62 1.51 0 .2-.08.4-.22.55 -.14.15-.34.24-.54.25 -.1 0-.2-.01-.29-.05 -.09-.04-.18-.09-.25-.15 -.08-.07-.13-.15-.17-.24 -.04-.09-.06-.18-.07-.28v-.11c0-.17-.07-.33-.19-.45Z"/></svg>