<svg viewBox="0 0 24 24" xmlns="http://www.w3.org/2000/svg"><path fill="currentColor" d="M8.08 18.61L14.07 4.6c.21-.51.8-.75 1.31-.53 .47.2.7.72.56 1.2l-.04.1 -6 14c-.22.5-.81.74-1.32.52 -.48-.21-.71-.73-.57-1.21l.03-.11 5.99-14.01 -6 14Zm-5.8-7.32l4-4c.39-.4 1.02-.4 1.41 0 .36.36.38.92.08 1.32l-.09.09 -3.3 3.29 3.29 3.29c.39.39.39 1.02 0 1.41 -.37.36-.93.38-1.33.08l-.1-.09 -4-4c-.37-.37-.39-.93-.09-1.32l.08-.1 4-4 -4 3.99Zm13.99-4.01c.36-.37.92-.39 1.32-.09l.09.08 4 4c.36.36.38.92.08 1.32l-.09.09 -4.01 3.99c-.4.39-1.03.38-1.42-.01 -.37-.37-.39-.93-.09-1.33l.08-.1 3.29-3.29 -3.3-3.3c-.4-.4-.4-1.03 0-1.42Z"/></svg>