<svg viewBox="0 0 24 24" xmlns="http://www.w3.org/2000/svg"><path fill="currentColor" d="M16.15 10.95l0 0c1.56.58 3.71 1.39 3.71 3.67 -.01.53-.12 1.04-.34 1.53 -.22.48-.53.91-.93 1.26s-.85.61-1.36.78c-.5.16-1.04.22-1.56.17 -.11.01-.22.01-.33.01 -.38 0-.78-.07-1.16-.2 -.51-.17-.96-.44-1.36-.79 -.4-.36-.71-.78-.93-1.27 -.22-.49-.34-1-.34-1.53 0-.31.11-.59.33-.8 .42-.43 1.16-.43 1.59 0 .21.21.33.49.33.79 0 1.42 1.56 1.5 1.875 1.5 .31 0 1.87-.08 1.87-1.5 0-.62-.68-.98-2.28-1.58l-.01-.01c-1.58-.59-3.73-1.4-3.73-3.68 0-.54.11-1.05.33-1.53 .21-.49.52-.92.92-1.27 .39-.36.84-.62 1.35-.79 .91-.31 2.11-.3 3.03 0 .5.16.95.42 1.35.78 .39.35.7.77.92 1.26 .21.48.33.99.33 1.52 0 .3-.12.58-.33.79 -.43.42-1.17.42-1.6 0 -.22-.22-.33-.5-.33-.8 0-1.43-1.57-1.5-1.88-1.5 -.32 0-1.88.07-1.88 1.5 0 .61.67.97 2.27 1.57l0 0Zm-7.53-4.2c0-.3.11-.59.33-.8 .42-.43 1.16-.43 1.58 0 .21.21.33.49.33.79v7.49c0 .54-.11 1.07-.32 1.57 -.21.5-.51.95-.9 1.33 -.39.38-.84.68-1.34.89 -.51.21-1.04.31-1.58.31 -1.11 0-2.14-.44-2.92-1.21 -.78-.78-1.21-1.82-1.21-2.92v-.75c0-.3.11-.59.33-.8 .42-.43 1.16-.43 1.59 0 .21.21.33.49.33.79v.75c0 .49.2.97.54 1.32 .69.69 1.95.69 2.65 0 .34-.35.54-.84.54-1.33v-7.5Z"/></svg>