<svg viewBox="0 0 24 24" xmlns="http://www.w3.org/2000/svg"><path fill="currentColor" d="M8.25 10.5H7.5V12h.75c.19 0 .39-.08.53-.22s.21-.34.21-.54 -.08-.39-.22-.54c-.15-.15-.34-.22-.54-.22Zm6.375 3H13.5V15h1.125c.19 0 .39-.08.53-.22 .14-.15.21-.34.21-.54s-.08-.39-.22-.54c-.14-.15-.34-.22-.54-.22Zm.15-1.72c.14-.15.21-.34.21-.54s-.08-.39-.22-.54c-.15-.15-.34-.22-.54-.22h-.75v1.5h.75c.19 0 .39-.08.53-.22Zm3.59-7.29H4.11c-1.45 0-2.625 1.17-2.625 2.62v11.25c0 1.44 1.17 2.625 2.62 2.625h14.25c1.44 0 2.625-1.18 2.625-2.625V7.11c0-1.45-1.18-2.625-2.625-2.625ZM10.81 16.01c-.06.13-.16.25-.28.34 -.13.08-.27.12-.42.12 -.72 0-.89-.69-1.05-1.35 -.14-.54-.42-1.65-.83-1.65h-.75v2.25c0 .19-.08.39-.22.53 -.15.14-.34.21-.54.21s-.39-.08-.54-.22c-.15-.15-.22-.34-.22-.54v-6c0-.2.07-.39.21-.54 .14-.15.33-.22.53-.22h1.5c.44 0 .88.14 1.25.39s.65.61.82 1.029c.16.41.2.87.1 1.31 -.1.43-.33.83-.65 1.14 .35.58.6 1.23.75 1.9 .04.16.07.3.1.41 .1.1.18.23.21.38 .03.14.01.3-.04.43l0 0Zm5.91-1c-.16.43-.45.8-.83 1.06 -.38.26-.83.4-1.29.4H12.72c-.2 0-.39-.08-.54-.22 -.15-.15-.22-.34-.22-.54v-6c0-.2.07-.39.21-.54 .14-.15.33-.22.53-.22h1.5c.41 0 .81.11 1.16.32 .35.21.63.52.82.88 .19.36.27.77.24 1.18 -.03.41-.17.8-.41 1.14 .34.3.59.69.71 1.14 .11.44.09.91-.07 1.34l0 0Z"/></svg>