<svg viewBox="0 0 24 24" xmlns="http://www.w3.org/2000/svg"><g fill="currentColor"><path d="M3.3 5.4c-.5 0-.9.4-.9.9 0 .49.4.9.9.9h6c.49 0 .9-.41.9-.9 0-.5-.41-.9-.9-.9h-6ZM6.9 9c-.5 0-.9.4-.9.9 0 .49.4.9.9.9h5.4c.49 0 .9-.41.9-.9 0-.5-.41-.9-.9-.9H6.9Zm-2.1 4.5c0-.5.4-.9.9-.9h11.4c.49 0 .9.4.9.9 0 .49-.41.9-.9.9H5.7c-.5 0-.9-.41-.9-.9Zm-1.5 2.7c-.5 0-.9.4-.9.9 0 .49.4.9.9.9h9.6c.49 0 .9-.41.9-.9 0-.5-.41-.9-.9-.9H3.3ZM15 9.9c0-.5.4-.9.9-.9h3.6c.49 0 .9.4.9.9 0 .49-.41.9-.9.9h-3.6c-.5 0-.9-.41-.9-.9Zm-2.1-4.5c-.5 0-.9.4-.9.9 0 .49.4.9.9.9h7.8c.49 0 .9-.41.9-.9 0-.5-.41-.9-.9-.9h-7.8Z"/><path fill="currentColor" fill-rule="evenodd" d="M2.25 6.3c0-.58.47-1.05 1.05-1.05h6c.57 0 1.05.47 1.05 1.05 0 .57-.48 1.05-1.05 1.05h-6c-.58 0-1.05-.48-1.05-1.05Zm1.05-.75c-.42 0-.75.33-.75.75 0 .41.33.75.75.75h6c.41 0 .75-.34.75-.75 0-.42-.34-.75-.75-.75h-6Zm8.55.75c0-.58.47-1.05 1.05-1.05h7.8c.57 0 1.05.47 1.05 1.05 0 .57-.48 1.05-1.05 1.05h-7.8c-.58 0-1.05-.48-1.05-1.05Zm1.05-.75c-.42 0-.75.33-.75.75 0 .41.33.75.75.75h7.8c.41 0 .75-.34.75-.75 0-.42-.34-.75-.75-.75h-7.8ZM5.85 9.9c0-.58.47-1.05 1.05-1.05h5.4c.57 0 1.05.47 1.05 1.05 0 .57-.48 1.05-1.05 1.05H6.9c-.58 0-1.05-.48-1.05-1.05Zm1.05-.75c-.42 0-.75.33-.75.75 0 .41.33.75.75.75h5.4c.41 0 .75-.34.75-.75 0-.42-.34-.75-.75-.75H6.9Zm9 0c-.42 0-.75.33-.75.75 0 .41.33.75.75.75h3.6c.41 0 .75-.34.75-.75 0-.42-.34-.75-.75-.75h-3.6Zm-1.05.75c0-.58.47-1.05 1.05-1.05h3.6c.57 0 1.05.47 1.05 1.05 0 .57-.48 1.05-1.05 1.05h-3.6c-.58 0-1.05-.48-1.05-1.05ZM5.7 12.75c-.42 0-.75.33-.75.75 0 .41.33.75.75.75h11.4c.41 0 .75-.34.75-.75 0-.42-.34-.75-.75-.75H5.7Zm-1.05.75c0-.58.47-1.05 1.05-1.05h11.4c.57 0 1.05.47 1.05 1.05 0 .57-.48 1.05-1.05 1.05H5.7c-.58 0-1.05-.48-1.05-1.05Zm-2.4 3.6c0-.58.47-1.05 1.05-1.05h9.6c.57 0 1.05.47 1.05 1.05 0 .57-.48 1.05-1.05 1.05H3.3c-.58 0-1.05-.48-1.05-1.05Zm1.05-.75c-.42 0-.75.33-.75.75 0 .41.33.75.75.75h9.6c.41 0 .75-.34.75-.75 0-.42-.34-.75-.75-.75H3.3Z"/></g></svg>