<svg viewBox="0 0 24 24" xmlns="http://www.w3.org/2000/svg"><path fill="currentColor" d="M22 12c0-5.53-4.48-10-10-10C6.47 2 2 6.47 2 12c0 5.52 4.47 10 10 10 5.52 0 10-4.48 10-10Zm-7.07-4.96l-4.5 10.49c-.17.38-.61.55-.99.39 -.39-.17-.56-.61-.4-.99l4.49-10.51c.16-.39.6-.56.98-.4 .38.16.55.6.39.98ZM8.74 10.3l-1.89 1.69 1.88 1.69c.3.27.33.75.05 1.05 -.28.3-.76.33-1.06.05l-2.5-2.26c-.16-.15-.25-.35-.25-.56 0-.22.09-.42.24-.56l2.5-2.25c.3-.28.78-.26 1.05.05 .27.3.25.78-.06 1.05Zm6.44-1.06c.27-.31.75-.34 1.05-.06l2.5 2.24c.15.14.24.34.24.55 0 .21-.1.41-.25.55l-2.5 2.25c-.31.27-.79.25-1.06-.06 -.28-.31-.26-.79.05-1.06l1.88-1.7 -1.89-1.7c-.31-.28-.34-.76-.06-1.06Z"/></svg>