<svg viewBox="0 0 24 24" xmlns="http://www.w3.org/2000/svg"><path fill="currentColor" d="M13.5 13.5H15V12h-1.5v1.5Zm4.875-9H4.125C2.675 4.5 1.5 5.67 1.5 7.12v11.25c0 1.44 1.17 2.625 2.62 2.625h14.25c1.44 0 2.625-1.18 2.625-2.625V7.12c0-1.45-1.18-2.625-2.625-2.625Zm-9.44 5.53c-.06.13-.16.25-.28.33 -.13.08-.27.12-.42.12H5.98v1.5h1.5c.19 0 .39.07.53.21 .14.14.21.33.21.53 0 .19-.08.39-.22.53s-.34.21-.54.21h-1.5v2.25c0 .19-.08.39-.22.53 -.15.14-.34.21-.54.21s-.39-.08-.54-.22c-.15-.15-.22-.34-.22-.54v-6c0-.2.07-.39.21-.54 .14-.15.33-.22.53-.22h3c.09 0 .19.01.28.05 .09.03.17.09.24.16 .1.1.17.23.2.38 .02.14.01.29-.05.43Zm8.3 3.46c.19 0 .39.07.53.21 .14.14.21.33.21.53 0 .19-.08.39-.22.53 -.15.14-.34.21-.54.21h-.75v.75c0 .19-.08.39-.22.53 -.15.14-.34.21-.54.21s-.39-.08-.54-.22c-.15-.15-.22-.34-.22-.54v-.75h-1.5v.75c0 .19-.08.39-.22.53 -.15.14-.34.21-.54.21s-.39-.08-.54-.22c-.15-.15-.22-.34-.22-.54v-.75h-.75c-.2 0-.39-.08-.54-.22 -.15-.14-.22-.34-.22-.54s.07-.39.21-.54c.14-.15.33-.22.53-.22h.75v-1.5h-.75c-.2 0-.39-.08-.54-.22 -.15-.14-.22-.34-.22-.54s.07-.39.21-.54c.14-.15.33-.22.53-.22h.75v-.75c0-.2.07-.39.21-.54 .14-.15.33-.22.53-.22 .19 0 .39.07.53.21 .14.14.21.33.21.53v.75h1.5v-.75c0-.2.07-.39.21-.54 .14-.15.33-.22.53-.22 .19 0 .39.07.53.21 .14.14.21.33.21.53v.75h.75c.19 0 .39.07.53.21 .14.14.21.33.21.53 0 .19-.08.39-.22.53 -.15.14-.34.21-.54.21h-.75v1.5h.75Z"/></svg>