<svg viewBox="0 0 24 24" xmlns="http://www.w3.org/2000/svg"><path fill="currentColor" d="M3.75 5.625H9c.3 0 .58.11.79.33 .21.21.33.49.33.79 0 .3-.12.58-.33.79 -.22.21-.5.33-.8.33H4.86v3H8.24c.3 0 .58.11.79.33 .21.21.33.49.33.79 0 .3-.12.58-.33.79 -.22.21-.5.33-.8.33H4.85v4.125c0 .3-.12.58-.33.79 -.22.21-.5.33-.8.33 -.3 0-.59-.12-.8-.33 -.22-.22-.33-.5-.33-.8V6.72c0-.3.11-.59.33-.8 .21-.22.49-.33.79-.33Zm16.12 7.5h1.49c.3 0 .58.11.79.33 .21.21.33.49.33.79 0 .3-.12.58-.33.79 -.22.21-.5.33-.8.33h-1.5v1.12c0 .3-.12.58-.33.79 -.22.21-.5.33-.8.33 -.3 0-.59-.12-.8-.33 -.22-.22-.33-.5-.33-.8v-1.13h-2.25v1.12c0 .3-.12.58-.33.79 -.43.42-1.17.42-1.6 0 -.22-.22-.33-.5-.33-.8v-1.13h-1.125c-.3 0-.59-.12-.8-.33 -.22-.22-.33-.5-.33-.8 0-.3.11-.59.33-.8 .21-.22.49-.33.79-.33h1.125v-2.25h-1.125c-.3 0-.59-.12-.8-.33 -.22-.22-.33-.5-.33-.8 0-.3.11-.59.33-.8 .21-.22.49-.33.79-.33h1.125V7.42c0-.3.11-.59.33-.8 .42-.43 1.16-.43 1.59 0 .21.21.33.49.33.79v1.12h2.25V7.4c0-.3.11-.59.33-.8 .42-.43 1.16-.43 1.59 0 .21.21.33.49.33.79v1.12h1.5c.3 0 .58.11.79.33 .21.21.33.49.33.79 0 .3-.12.58-.33.79 -.22.21-.5.33-.8.33h-1.5V13Zm-2.25 0v-2.25h-2.25v2.25h2.25Z"/></svg>