<svg viewBox="0 0 24 24" xmlns="http://www.w3.org/2000/svg"><path fill="currentColor" d="M13.5 13.5H15V12h-1.5v1.5Zm4.875-9H4.125C2.675 4.5 1.5 5.67 1.5 7.12v11.25c0 1.44 1.17 2.625 2.62 2.625h14.25c1.44 0 2.625-1.18 2.625-2.625V7.12c0-1.45-1.18-2.625-2.625-2.625ZM6.215 14.78c.14.14.33.21.53.21 .19 0 .39-.08.53-.22s.21-.34.21-.54 .07-.39.21-.54c.14-.15.33-.22.53-.22 .19 0 .39.07.53.21 .14.14.21.33.21.53 0 .59-.24 1.16-.66 1.59 -.43.42-1 .65-1.6.65 -.6 0-1.17-.24-1.6-.66 -.43-.43-.66-1-.66-1.6v-3c0-.6.23-1.17.65-1.6 .42-.43.99-.66 1.59-.66 .59 0 1.16.23 1.59.65 .42.42.65.99.65 1.59 0 .19-.08.39-.22.53s-.34.21-.54.21 -.39-.08-.54-.22c-.15-.14-.22-.34-.22-.54s-.08-.39-.22-.54c-.15-.15-.34-.22-.54-.22s-.39.07-.54.21c-.15.14-.22.33-.22.53v3c0 .19.07.39.21.53Zm11.03-1.29c.19 0 .39.07.53.21 .14.13.21.33.21.53 0 .19-.08.39-.22.53 -.15.14-.34.21-.54.21h-.75v.75c0 .19-.08.39-.22.53s-.34.21-.54.21 -.39-.08-.54-.22c-.15-.14-.22-.34-.22-.54v-.75h-1.5v.75c0 .19-.08.39-.22.53s-.34.21-.54.21 -.39-.08-.54-.22c-.15-.14-.22-.34-.22-.54v-.75h-.75c-.2 0-.39-.08-.54-.22 -.15-.14-.22-.34-.22-.54s.07-.39.21-.54c.14-.15.33-.22.53-.22h.75v-1.5h-.75c-.2 0-.39-.08-.54-.22 -.15-.14-.22-.34-.22-.54s.07-.39.21-.54c.14-.15.33-.22.53-.22h.75v-.75c0-.2.07-.39.21-.54 .14-.15.33-.22.53-.22 .19 0 .39.07.53.21 .14.14.21.33.21.53v.75h1.5v-.75c0-.2.07-.39.21-.54 .14-.15.33-.22.53-.22 .19 0 .39.07.53.21 .14.14.21.33.21.53v.75h.75c.19 0 .39.07.53.21 .14.13.21.33.21.53 0 .19-.08.39-.22.53 -.15.14-.34.21-.54.21h-.75v1.5h.75Z"/></svg>