<svg viewBox="0 0 24 24" xmlns="http://www.w3.org/2000/svg"><g fill="currentColor"><path d="M3.3 5.4c-.5 0-.9.4-.9.9 0 .49.4.9.9.9h6c.49 0 .9-.41.9-.9 0-.5-.41-.9-.9-.9h-6ZM6.9 9c-.5 0-.9.4-.9.9 0 .49.4.9.9.9h5.4c.49 0 .9-.41.9-.9 0-.5-.41-.9-.9-.9H6.9Zm-2.1 4.5c0-.5.4-.9.9-.9h11.4c.07 0 .14 0 .2.02l-1.78 1.77H5.68c-.5 0-.9-.41-.9-.9Zm7.52 4.1l1.17-1.18c-.16-.15-.38-.24-.61-.24h-9.6c-.5 0-.9.4-.9.9 0 .49.4.9.9.9h8.68c.1-.14.22-.28.34-.4Zm2.67-7.71c0-.5.4-.9.9-.9h3.6c.49 0 .9.4.9.9 0 .49-.41.9-.9.9h-3.6c-.5 0-.9-.41-.9-.9Zm-2.1-4.5c-.5 0-.9.4-.9.9 0 .49.4.9.9.9h7.8c.49 0 .9-.41.9-.9 0-.5-.41-.9-.9-.9h-7.8Zm.27 13.05l5.79-5.8c.87-.88 2.29-.88 3.17 0 .87.87.87 2.29 0 3.17l-5.8 5.79c-.34.33-.77.57-1.23.69l-1.8.44c-.79.19-1.49-.52-1.3-1.3l.44-1.8c.11-.47.35-.89.69-1.23Z"/><path fill="currentColor" fill-rule="evenodd" d="M2.25 6.3c0-.58.47-1.05 1.05-1.05h6c.57 0 1.05.47 1.05 1.05 0 .57-.48 1.05-1.05 1.05h-6c-.58 0-1.05-.48-1.05-1.05Zm1.05-.75c-.42 0-.75.33-.75.75 0 .41.33.75.75.75h6c.41 0 .75-.34.75-.75 0-.42-.34-.75-.75-.75h-6Zm8.55.75c0-.58.47-1.05 1.05-1.05h7.8c.57 0 1.05.47 1.05 1.05 0 .57-.48 1.05-1.05 1.05h-7.8c-.58 0-1.05-.48-1.05-1.05Zm1.05-.75c-.42 0-.75.33-.75.75 0 .41.33.75.75.75h7.8c.41 0 .75-.34.75-.75 0-.42-.34-.75-.75-.75h-7.8ZM5.85 9.9c0-.58.47-1.05 1.05-1.05h5.4c.57 0 1.05.47 1.05 1.05 0 .57-.48 1.05-1.05 1.05H6.9c-.58 0-1.05-.48-1.05-1.05Zm1.05-.75c-.42 0-.75.33-.75.75 0 .41.33.75.75.75h5.4c.41 0 .75-.34.75-.75 0-.42-.34-.75-.75-.75H6.9Zm9 0c-.42 0-.75.33-.75.75 0 .41.33.75.75.75h3.6c.41 0 .75-.34.75-.75 0-.42-.34-.75-.75-.75h-3.6Zm-1.05.75c0-.58.47-1.05 1.05-1.05h3.6c.57 0 1.05.47 1.05 1.05 0 .57-.48 1.05-1.05 1.05h-3.6c-.58 0-1.05-.48-1.05-1.05Zm7.18 2.86c-.82-.82-2.15-.82-2.97 0l-5.8 5.79c-.32.31-.55.71-.66 1.15l-.45 1.79c-.17.67.44 1.28 1.11 1.11l1.79-.45c.43-.11.83-.34 1.15-.66l5.79-5.8c.81-.82.81-2.15 0-2.97Zm-3.18-.22c.93-.94 2.45-.94 3.38 0 .93.93.93 2.45 0 3.38l-5.8 5.79c-.36.35-.81.61-1.3.73l-1.8.44c-.9.22-1.7-.59-1.48-1.48l.44-1.8c.12-.49.37-.94.73-1.3l5.79-5.8Zm-13.165.19c-.42 0-.75.33-.75.75 0 .41.33.75.75.75h9.77l1.5-1.5H5.67Zm-1.05.75c0-.58.47-1.05 1.05-1.05h11.4c.08 0 .16 0 .24.02l.26.06 -2.01 2h-9.9c-.58 0-1.05-.48-1.05-1.05Zm-2.4 3.6c0-.58.47-1.05 1.05-1.05h9.6c.26 0 .51.1.7.26l.11.1 -1.29 1.28c-.12.11-.24.24-.34.38l-.05.05H3.25c-.58 0-1.05-.48-1.05-1.05Zm1.05-.75c-.42 0-.75.33-.75.75 0 .41.33.75.75.75h8.6c.09-.13.2-.25.31-.36l1.04-1.05c-.11-.07-.24-.1-.38-.1h-9.6Z"/></g></svg>