<svg viewBox="0 0 24 24" xmlns="http://www.w3.org/2000/svg"><g fill="currentColor"><path d="M19.875 10.5h-4.5c-.63 0-1.125-.51-1.125-1.13 0-.63.5-1.13 1.125-1.13h4.5c.62 0 1.125.5 1.125 1.12 0 .62-.51 1.12-1.125 1.12ZM14.625 6h6.75c.62 0 1.125-.51 1.125-1.125 0-.63-.51-1.125-1.125-1.125h-6.75c-.63 0-1.125.5-1.125 1.125C13.5 5.495 14 6 14.625 6Zm-1.5 11.24H2.615c-.63 0-1.125.5-1.125 1.125 0 .62.5 1.125 1.12 1.125h10.5c.62 0 1.125-.51 1.125-1.125 0-.63-.51-1.125-1.125-1.125Zm-3-11.25c.62 0 1.125-.51 1.125-1.125 0-.63-.51-1.125-1.125-1.125h-3.2l2.25 2.25h.94Zm12.15 15.21L2.76 1.7c-.3-.3-.77-.3-1.07-.001 -.3.29-.3.76 0 1.06l.96.96h-.07c-.621 0-1.13.5-1.13 1.125 0 .62.5 1.125 1.12 1.125h2.31l2.25 2.25h-.07c-.63 0-1.13.5-1.13 1.12 0 .62.5 1.12 1.12 1.12h2.31l2.25 2.25H5.54c-.63 0-1.13.5-1.13 1.12 0 .62.5 1.12 1.12 1.12h8.31l7.28 7.28c.14.14.33.21.53.21 .19-.01.38-.08.53-.23 .29-.3.29-.77 0-1.07Z"/><path fill="currentColor" fill-rule="evenodd" d="M2.88 1.61s0 0 0 0l19.5 19.49c.35.35.35.92 0 1.27 -.18.17-.41.26-.64.26h-.01c-.24 0-.47-.09-.64-.27l-7.24-7.24H5.59c-.71 0-1.28-.58-1.28-1.28 0-.71.57-1.28 1.27-1.28h5.7l-1.96-1.95H7.06c-.71 0-1.28-.58-1.28-1.28 0-.62.43-1.13 1-1.25L4.8 6.1H2.54c-.71 0-1.28-.58-1.28-1.28 0-.62.43-1.13 1-1.25l-.75-.75c-.36-.36-.36-.93 0-1.28 .35-.36.92-.36 1.27 0Zm-.22.21c-.24-.24-.62-.24-.85 0 -.24.23-.24.61 0 .84l1.22 1.22H2.6c-.54 0-.98.43-.98.97 0 .53.43.97.97.97h2.37l2.55 2.55h-.43c-.54 0-.98.43-.98.97 0 .53.43.97.97.97h2.37l2.54 2.55H5.55c-.54 0-.98.43-.98.97 0 .53.43.97.97.97h8.37l7.32 7.32c-.01-.01 0 0 0 0 .11.11.27.17.42.17 .15-.01.3-.06.42-.18 .23-.24.23-.62 0-.85L2.56 1.76Zm3.89 1.77h3.55c.7 0 1.27.57 1.27 1.27 0 .7-.58 1.27-1.28 1.27H9.08L6.53 3.58Zm.72.3l1.95 1.95h.87c.53 0 .97-.44.97-.98s-.44-.98-.98-.98H7.25Zm6.05.97c0-.71.57-1.28 1.27-1.28h6.75c.7 0 1.27.57 1.27 1.27 0 .7-.58 1.27-1.28 1.27h-6.75c-.71 0-1.28-.58-1.28-1.28Zm1.27-.98c-.54 0-.98.43-.98.97 0 .53.43.97.97.97h6.75c.53 0 .97-.44.97-.98s-.44-.98-.98-.98h-6.75Zm.75 4.5c-.54 0-.98.43-.98.97 0 .53.43.97.97.97h4.5c.53 0 .97-.44.97-.98s-.44-.98-.98-.98h-4.5Zm-1.28.97c0-.71.57-1.28 1.27-1.28h4.5c.7 0 1.27.57 1.27 1.27 0 .7-.58 1.27-1.28 1.27h-4.5c-.71 0-1.28-.58-1.28-1.28ZM1.3 18.34c0-.71.57-1.28 1.27-1.28h10.5c.7 0 1.27.57 1.27 1.27 0 .7-.58 1.27-1.28 1.27H2.55c-.71 0-1.28-.58-1.28-1.28Zm1.27-.98c-.54 0-.98.43-.98.97 0 .53.43.97.97.97h10.5c.53 0 .97-.44.97-.98s-.44-.98-.98-.98H2.54Z"/></g></svg>