<svg viewBox="0 0 24 24" xmlns="http://www.w3.org/2000/svg"><path fill="currentColor" d="M9.11 8.8c.33-.3.74-.53 1.19-.67l.24-.07 .15-.04 .17-.03 .17-.02 .18-.01h7.5c1.73 0 3.14 1.35 3.24 3.06l0 .18v7.5c0 1.73-1.36 3.14-3.07 3.24l-.19 0h-7.5c-1.74 0-3.15-1.36-3.25-3.07l-.01-.19v-7.5l0-.15 .01-.2 .02-.2 .03-.19 .05-.23 .08-.24 .08-.21 .08-.17 .09-.17 .14-.22 .09-.13 .13-.16 .1-.12 .14-.14Zm5.88 2.19c-.38 0-.7.28-.75.64l-.01.1v2.49h-2.5c-.38 0-.7.28-.75.64l-.01.1c0 .37.28.69.64.74l.1 0h2.5v2.5c0 .37.28.69.64.74l.1 0c.37 0 .69-.29.74-.65l0-.11v-2.51h2.5c.37 0 .69-.29.74-.65l0-.11c0-.38-.29-.7-.65-.75l-.11-.01h-2.5v-2.5c0-.38-.29-.7-.65-.75l-.11-.01Zm.58-6.77l.05.17 .69 2.58 -5.08 0c-2.35 0-4.25 1.9-4.25 4.24l0 6.43c-1.31-.08-2.48-.94-2.9-2.23l-.06-.18 -1.95-7.25c-.45-1.68.49-3.4 2.12-3.93l.17-.06 7.24-1.95c1.67-.45 3.39.49 3.92 2.12Z"/></svg>