<svg viewBox="0 0 24 24" xmlns="http://www.w3.org/2000/svg"><path fill="currentColor" d="M14.77 2.45c.82.44 1.47 1.19 1.78 2.13l.51 1.9h-5.83l-.2 0 -.02 0c-1.98.11-3.54 1.74-3.54 3.74l-.01 7.5 0 .19 0 .01c.01.24.05.49.11.72 -.61-.02-1.19-.18-1.71-.46 -.83-.45-1.48-1.2-1.79-2.14l-2-7.44c-.26-.97-.12-1.94.32-2.76 .44-.83 1.19-1.48 2.13-1.79l7.43-2c.96-.26 1.93-.12 2.75.32Zm-3.52 5.04l-.18 0c-1.45.08-2.59 1.28-2.59 2.74v7.49l0 .17c.08 1.44 1.28 2.58 2.74 2.58h.48c-.47-.9-.74-1.92-.74-3 0-3.59 2.91-6.5 6.5-6.5 1.5 0 2.89.51 4 1.37v-2.12l-.01-.18c-.09-1.45-1.29-2.59-2.75-2.59H11.2Zm11.743 10c0-3.04-2.47-5.5-5.5-5.5 -3.04 0-5.5 2.46-5.5 5.5 0 3.03 2.46 5.5 5.5 5.5 3.03 0 5.5-2.47 5.5-5.5Zm-5.59-3.5l.08-.01 .08 0c.2.03.36.19.4.4l0 .08 -.01 2.5 2.5 0 .08 0c.2.03.36.19.4.4l0 .08 -.01.08c-.04.2-.2.36-.41.4l-.09 0 -2.51-.01 0 2.5 -.01.08c-.04.2-.2.36-.41.4l-.09 0 -.09-.01c-.21-.04-.37-.2-.41-.41l-.01-.09 -.01-2.51 -2.51 0 -.09-.01c-.21-.04-.37-.2-.41-.41l-.01-.09 0-.09c.03-.21.19-.37.4-.41l.08-.01 2.5-.01 0-2.5 0-.09c.03-.21.19-.37.4-.41Z"/></svg>