<svg viewBox="0 0 24 24" xmlns="http://www.w3.org/2000/svg"><path fill="currentColor" d="M1.99 12.41v5.08c0 1.38 1.11 2.5 2.5 2.5h15c1.38 0 2.5-1.12 2.5-2.5v-11c0-1.39-1.12-2.5-2.5-2.5h-8.95l2.42 2.42c.83.83 1.07 2.04.71 3.08 .38.04.74.2 1.04.5l0 0 0 0 0 0 .02.02c.01.01.04.04.07.07 .05.06.14.15.23.26 .19.21.45.52.71.89 .25.36.54.8.77 1.3 .21.47.43 1.1.43 1.79 0 1.85-1.4 3.625-3.5 3.625 -2.11 0-3.51-1.77-3.51-3.625 0-.3.03-.57.09-.83l-1.37 1.36c-1.18 1.17-3.08 1.17-4.25 0l-2.5-2.5Zm9.34.57c-.19.4-.35.88-.35 1.38 0 1.39 1.02 2.62 2.5 2.62 1.47 0 2.5-1.24 2.5-2.63 0-.5-.16-.98-.35-1.39 -.2-.42-.44-.81-.68-1.14 -.24-.34-.48-.62-.65-.82l-.31-.33c-.3-.3-.77-.3-1.07 0l-.01 0c-.06.06-.22.22-.3.32 -.18.19-.42.48-.65.81 -.24.32-.49.71-.68 1.13Zm2.15-.61c.08.1.17.22.26.34 .2.28.39.58.52.88 .14.3.2.56.2.75 0 .69-.49 1.12-1 1.12 -.52 0-1-.44-1-1.13 0-.2.06-.45.2-.76 .13-.3.32-.61.52-.89 .08-.13.17-.25.26-.35ZM6.72.98c-.42 0-.75.33-.75.75v1.75c-.04.02-.07.05-.1.08L1.62 7.8c-.79.78-.79 2.04 0 2.82l3.53 3.53c.78.78 2.04.78 2.82 0l4.24-4.25c.78-.79.78-2.05 0-2.83L8.67 3.53c-.35-.35-.79-.54-1.24-.58V1.68c0-.42-.34-.75-.75-.75ZM5.97 5.6v.62c0 .41.33.75.75.75 .41 0 .75-.34.75-.75V4.51c.06.02.12.06.17.11l3.53 3.53c.08.08.13.2.14.32H3.06l2.88-2.89Zm.26 7.51L3.1 9.98h6.96L6.93 13.1c-.2.19-.52.19-.71 0Z"/></svg>