<svg viewBox="0 0 24 24" xmlns="http://www.w3.org/2000/svg"><path fill="currentColor" d="M13.02 14c-.02.12-.03.24-.03.37 0 1.85 1.39 3.625 3.5 3.625 2.1 0 3.5-1.77 3.5-3.625 0-.12-.01-.23-.02-.33 1.14.22 2.01 1.23 2.01 2.45v3c0 1.38-1.12 2.5-2.5 2.5h-15c-1.39 0-2.5-1.12-2.5-2.5v-3c0-1.39 1.11-2.5 2.5-2.5h2.08l.9.907c1.17 1.17 3.07 1.17 4.24 0l.907-.907h.37Zm1.32-1.01c-.19.4-.35.88-.35 1.38 0 1.39 1.02 2.62 2.5 2.62 1.47 0 2.5-1.24 2.5-2.63 0-.5-.16-.98-.35-1.39 -.2-.42-.44-.81-.68-1.14 -.24-.34-.48-.62-.65-.82l-.31-.33c-.3-.3-.77-.3-1.07 0l-.01 0c-.06.06-.22.22-.3.32 -.18.19-.42.48-.65.81 -.24.32-.49.71-.68 1.13Zm2.15-.61c.08.1.17.22.26.34 .2.28.39.58.52.88 .14.3.2.56.2.75 0 .69-.49 1.12-1 1.12 -.52 0-1-.44-1-1.13 0-.2.06-.45.2-.76 .13-.3.32-.61.52-.89 .08-.13.17-.25.26-.35ZM9.73.99c-.42 0-.75.33-.75.75v1.75c-.04.02-.07.05-.1.08L4.63 7.81c-.79.78-.79 2.04 0 2.82l3.53 3.53c.78.78 2.04.78 2.82 0l4.24-4.25c.78-.79.78-2.05 0-2.83l-3.54-3.54c-.35-.35-.79-.54-1.24-.58V1.69c0-.42-.34-.75-.75-.75Zm-.75 4.62v.62c0 .41.33.75.75.75 .41 0 .75-.34.75-.75V4.52c.06.02.12.06.17.11l3.53 3.53c.08.08.13.2.14.32H6.07l2.88-2.89Zm.26 7.51L6.11 9.99h6.96l-3.13 3.12c-.2.19-.52.19-.71 0Z"/></svg>