<svg viewBox="0 0 24 24" xmlns="http://www.w3.org/2000/svg"><path fill="currentColor" d="M3.83 5.85C6.77 1.93 12.85.79 17.19 3.48c4.27 2.66 5.85 7.77 4.1 12.57 -1.66 4.53-6.02 6.32-9.16 4.04 -1.18-.86-1.64-1.93-1.86-3.67l-.11-.99 -.05-.4c-.13-.94-.32-1.36-.71-1.58 -.54-.3-.9-.31-1.6-.04l-.36.14 -.18.07c-1.02.44-1.69.59-2.55.41l-.21-.05 -.17-.05c-2.79-.87-3.21-4.65-.57-8.16Zm12.92 4.72c.17.66.86 1.06 1.53.88 .66-.18 1.06-.87.88-1.54 -.18-.67-.87-1.07-1.54-.89 -.67.17-1.07.86-.89 1.53Zm.49 3.48c.17.66.86 1.06 1.53.88 .66-.18 1.06-.87.88-1.54 -.18-.67-.87-1.07-1.54-.89 -.67.17-1.07.86-.89 1.53Zm-2.48-6.5c.17.66.86 1.06 1.53.88 .66-.18 1.06-.87.88-1.54 -.18-.67-.87-1.07-1.54-.89 -.67.17-1.07.86-.89 1.53Zm-.03 8.99c.17.66.86 1.06 1.53.88 .66-.18 1.06-.87.88-1.54 -.18-.67-.87-1.07-1.54-.89 -.67.17-1.07.86-.89 1.53Zm-3.5-9.98c.17.66.86 1.06 1.53.88 .66-.18 1.06-.87.88-1.54 -.18-.67-.87-1.07-1.54-.89 -.67.17-1.07.86-.89 1.53Z"/></svg>