<svg viewBox="0 0 24 24" xmlns="http://www.w3.org/2000/svg"><path fill="currentColor" d="M8.4 3.6H3.6c-.64 0-1.25.25-1.7.7 -.46.45-.71 1.06-.71 1.69v11.99c0 .63.25 1.24.7 1.69 .45.45 1.06.7 1.69.7h4.8c.63 0 1.24-.26 1.69-.71 .45-.46.7-1.07.7-1.7v-12c0-.64-.26-1.25-.71-1.7 -.46-.46-1.07-.71-1.7-.71Zm1.2 4.8H2.4V7.24h7.2v1.15Zm10.8-4.8h-4.8c-.64 0-1.25.25-1.7.7 -.45.45-.71 1.06-.71 1.69v11.99c0 .63.25 1.24.7 1.69 .45.45 1.06.7 1.69.7h4.8c.63 0 1.24-.26 1.69-.71 .45-.46.7-1.07.7-1.7v-12c0-.64-.26-1.25-.71-1.7 -.46-.46-1.07-.71-1.7-.71Zm1.2 11.99h-7.2v-3.6h7.2v3.6Z"/></svg>