<svg viewBox="0 0 24 24" xmlns="http://www.w3.org/2000/svg"><path fill="currentColor" d="M2 18.5C2 19.88 3.11 21 4.5 21h1C6.88 21 8 19.88 8 18.5v-13C8 4.11 6.88 3 5.5 3h-1C3.11 3 2 4.11 2 5.5v13Zm7 0c0 1.26.94 2.31 2.17 2.47l.35-1.41c.16-.65.49-1.24.96-1.72l2.5-2.51V5.47c0-1.39-1.12-2.5-2.5-2.5h-1c-1.39 0-2.5 1.11-2.5 2.5v13ZM19.5 21h-.86l3.35-3.36v.85c0 1.38-1.12 2.5-2.5 2.5ZM22 5.5v5.76c-1.2-.51-2.64-.28-3.61.7l-2.4 2.39V5.49c0-1.39 1.11-2.5 2.5-2.5h1c1.38 0 2.5 1.11 2.5 2.5Zm-2.91 7.16l-5.91 5.9c-.35.34-.59.77-.71 1.24l-.46 1.83c-.2.79.52 1.51 1.31 1.31l1.83-.46c.47-.12.9-.37 1.24-.71l5.9-5.91c.89-.9.89-2.34 0-3.24 -.9-.9-2.34-.9-3.24 0Z"/></svg>