<svg viewBox="0 0 24 24" xmlns="http://www.w3.org/2000/svg"><path fill="currentColor" d="M5.25 5.75c0-.7-.56-1.25-1.25-1.25h-.75c-.42 0-.75-.34-.75-.75 0-.42.33-.75.75-.75H4c1.51 0 2.75 1.23 2.75 2.75v12.5C6.75 19.76 5.51 21 4 21h-.75c-.42 0-.75-.34-.75-.75 0-.42.33-.75.75-.75H4c.69 0 1.25-.56 1.25-1.25V5.75ZM10.75 3C9.23 3 8 4.23 8 5.75v12.5C8 19.76 9.23 21 10.75 21h.41l.35-1.43c.16-.65.49-1.24.96-1.72l3.5-3.51V5.73c0-1.52-1.24-2.75-2.75-2.75h-2.5ZM19 5.75v5.73c-.22.13-.43.29-.61.47l-.9.89V5.73c0-1.52 1.23-2.75 2.75-2.75h.75c.41 0 .75.33.75.75 0 .41-.34.75-.75.75h-.75c-.7 0-1.25.55-1.25 1.25Zm.09 6.91l-5.91 5.9c-.35.34-.59.77-.71 1.24l-.46 1.83c-.2.79.52 1.51 1.31 1.31l1.83-.46c.47-.12.9-.37 1.24-.71l5.9-5.91c.89-.9.89-2.34 0-3.24 -.9-.9-2.34-.9-3.24 0Z"/></svg>