<svg viewBox="0 0 24 24" xmlns="http://www.w3.org/2000/svg"><g fill="currentColor"><path d="M19.8 20.4c.33 0 .6-.27.6-.6 0-.34-.27-.6-.6-.6h-.6c-.67 0-1.2-.54-1.2-1.2V6c0-.67.53-1.2 1.2-1.2h.6c.33 0 .6-.27.6-.6 0-.03-.01-.05-.01-.07 -.01-.04-.01-.07-.02-.09 -.07-.26-.31-.46-.59-.46h-.6c-.17 0-.33.01-.49.04 -1.1.22-1.92 1.19-1.92 2.35v11.99c0 1.32 1.07 2.4 2.4 2.4h.6ZM8.4 6c0-1.33 1.07-2.4 2.4-2.4h2.4c1.32 0 2.4 1.07 2.4 2.4v11.99c0 1.32-1.08 2.4-2.4 2.4h-2.4c-1.33 0-2.4-1.08-2.4-2.4v-12ZM4.8 20.39c1.32 0 2.4-1.08 2.4-2.4v-12c0-1.33-1.08-2.4-2.4-2.4h-.6c-.34 0-.6.26-.6.6 0 .33.26.6.6.6h.6c.66 0 1.2.53 1.2 1.2v11.99c0 .04-.01.08-.01.12 -.07.6-.58 1.07-1.2 1.07h-.6c-.05 0-.09 0-.13.01 -.28.05-.48.29-.48.58 0 .27.19.51.45.58 .02 0 .05.01.08.01 .02 0 .04 0 .06 0h.6Z"/><path fill="currentColor" fill-rule="evenodd" d="M13.2 3.75h-2.4c-1.25 0-2.25 1-2.25 2.25v11.99c0 1.24 1 2.25 2.25 2.25h2.4c1.24 0 2.25-1.01 2.25-2.25v-12c0-1.25-1.01-2.25-2.25-2.25Zm-2.4-.3h2.4c1.4 0 2.55 1.14 2.55 2.55v11.99c0 1.4-1.15 2.55-2.55 2.55h-2.4c-1.41 0-2.55-1.15-2.55-2.55v-12c0-1.41 1.14-2.55 2.55-2.55Zm7.88.05c.16-.04.33-.06.51-.06h.6c.34 0 .64.23.72.56 0 .03.01.07.01.11 0 .02 0 .05 0 .07 0 .41-.34.75-.75.75h-.6c-.58 0-1.05.47-1.05 1.05v11.99c0 .57.47 1.05 1.05 1.05h.6c.41 0 .75.33.75.75 0 .41-.34.75-.75.75h-.6c-1.41 0-2.55-1.15-2.55-2.55v-12c0-1.24.87-2.27 2.03-2.5Zm.51.24c-.16 0-.31.01-.46.04 -1.03.2-1.8 1.11-1.8 2.2v11.99c0 1.24 1 2.25 2.25 2.25h.6c.24 0 .45-.21.45-.45 0-.25-.21-.45-.45-.45h-.6c-.75 0-1.35-.61-1.35-1.35v-12c0-.75.6-1.35 1.35-1.35h.6c.24 0 .45-.21.45-.45 0-.02-.01-.04-.01-.05 -.01-.03-.01-.05-.02-.07 -.05-.2-.23-.34-.44-.34h-.6Zm-15.75.45c0-.42.33-.75.75-.75h.6c1.4 0 2.55 1.14 2.55 2.55v11.99c0 1.4-1.15 2.55-2.55 2.55h-.6c-.03 0-.06-.01-.08-.01 -.04-.01-.08-.02-.12-.02 -.33-.09-.57-.38-.57-.73 0-.37.25-.67.59-.74 .04-.01.09-.02.15-.02h.6c.54 0 .99-.42 1.04-.95 0-.04 0-.08 0-.11v-12c0-.58-.48-1.05-1.05-1.05h-.6c-.42 0-.75-.34-.75-.75Zm.75-.45c-.25 0-.45.2-.45.45 0 .24.2.45.45.45h.6c.74 0 1.35.6 1.35 1.35v11.99c0 .04-.01.09-.01.13 -.07.68-.65 1.21-1.35 1.21h-.6c-.04 0-.07 0-.1 0 -.21.04-.36.22-.36.44 0 .2.14.38.33.43 .02 0 .04 0 .06.01 .01 0 .03 0 .04 0h.6C5.99 20.2 7 19.19 7 17.95v-12C7 4.7 5.99 3.7 4.75 3.7h-.6Z"/></g></svg>