<svg viewBox="0 0 24 24" xmlns="http://www.w3.org/2000/svg"><g fill="currentColor"><path d="M5.99 5.62c0-1.45 1.17-2.63 2.62-2.63h5.24c.71 0 1.36.28 1.83.75h.03v.03c.46.47.75 1.12.75 1.83v12.74c0 1.44-1.18 2.625-2.63 2.625H8.58c-1.45 0-2.63-1.18-2.63-2.625V5.59Zm1.5 12.74c0 .62.5 1.125 1.12 1.125h5.24c.62 0 1.125-.51 1.125-1.125V8.98h-7.5v9.37Z"/><path fill="currentColor" fill-rule="evenodd" d="M8.62 3.15c-1.37 0-2.48 1.1-2.48 2.47v12.74c0 1.36 1.1 2.47 2.47 2.47h5.24c1.36 0 2.47-1.11 2.47-2.48V5.6c0-.68-.27-1.29-.71-1.74 -.01-.01-.02-.02-.02-.02 -.01-.01-.02-.02-.02-.02 -.45-.44-1.06-.71-1.74-.71H8.58Zm7.14.45c-.5-.47-1.17-.76-1.9-.76H8.61c-1.54 0-2.78 1.24-2.78 2.77v12.74c0 1.53 1.24 2.77 2.77 2.77h5.24c1.53 0 2.77-1.25 2.77-2.78V5.59c0-.74-.29-1.41-.76-1.9 -.02-.07-.07-.12-.13-.13ZM7.33 8.99c0-.09.06-.15.15-.15h7.49c.08 0 .15.06.15.15v9.37c0 .7-.58 1.27-1.28 1.27H8.59c-.71 0-1.28-.58-1.28-1.28V8.97Zm.3.15v9.22c0 .53.43.97.97.97h5.24c.53 0 .97-.44.97-.98V9.12h-7.2Z"/></g></svg>