<svg viewBox="0 0 24 24" xmlns="http://www.w3.org/2000/svg"><path fill="currentColor" d="M2.4 4.79c0-1.33 1.07-2.4 2.4-2.4H6c1.32 0 2.4 1.07 2.4 2.4v4.5H6.9c-1.16 0-2.1.94-2.1 2.1 0 1.15.94 2.1 2.1 2.1h1.5v4.5c0 1.32-1.08 2.4-2.4 2.4H4.8c-1.33 0-2.4-1.08-2.4-2.4V4.78ZM18 2.39c-1.33 0-2.4 1.07-2.4 2.4v13.2c0 1.32 1.07 2.4 2.4 2.4h1.2c1.32 0 2.4-1.08 2.4-2.4V4.78c0-1.33-1.08-2.4-2.4-2.4H18Zm-7.24 5.96c.35-.36.92-.36 1.27 0l2.4 2.4c.35.35.35.92 0 1.27l-2.4 2.4c-.36.35-.93.35-1.28 0 -.36-.36-.36-.93 0-1.28l.86-.87H6.58c-.5 0-.9-.41-.9-.9 0-.5.4-.9.9-.9h5.02l-.87-.87c-.36-.36-.36-.93 0-1.28Z"/></svg>