<svg viewBox="0 0 24 24" xmlns="http://www.w3.org/2000/svg"><path fill="currentColor" d="M23 5.75C23 3.67 21.32 2 19.25 2l-.11 0c-.37.04-.65.36-.65.74 0 .41.33.75.75.75l.15 0c1.17.07 2.096 1.05 2.096 2.24 0 1.24-1.01 2.25-2.25 2.25l-.01 0 -.11 0c-.37.05-.65.36-.65.74 0 .41.33.74.75.74v-.01l.19-.01c1.97-.11 3.54-1.75 3.54-3.75Zm-6.5-3c0-.42-.34-.75-.75-.75l-.2 0c-1.98.1-3.56 1.74-3.56 3.74 0 2.07 1.67 3.75 3.75 3.75l.1-.01c.36-.05.64-.37.64-.75 0-.42-.34-.75-.75-.75l-.16-.01c-1.18-.08-2.096-1.06-2.096-2.25 0-1.25 1-2.25 2.25-2.25l.1-.01c.36-.05.64-.37.64-.75Zm3.5 3c0-.42-.34-.75-.75-.75h-3.5l-.11 0c-.37.04-.65.36-.65.74 0 .41.33.75.75.75h3.5l.1-.01c.36-.05.64-.37.64-.75Zm-9 0c0-1.03.32-1.98.87-2.75H5.24c-1.8 0-3.25 1.45-3.25 3.25v8.5c0 1.79 1.45 3.25 3.25 3.25h.75v2.75c0 1.03 1.17 1.61 2 1l5-3.75h5.75c1.79 0 3.25-1.46 3.25-3.25V9.62c-.78.55-1.73.87-2.75.87h-3.5c-2.63 0-4.75-2.13-4.75-4.75Z"/></svg>