<svg viewBox="0 0 24 24" xmlns="http://www.w3.org/2000/svg"><path fill="currentColor" d="M8.25 2C6.53 2 5.13 3.32 5 5c.07-.01.16-.01.24-.01h9.5c2.34 0 4.25 1.9 4.25 4.25v3.75h.25c.95 0 1.84.28 2.58.76 .1-.32.16-.67.16-1.02v-6c0-2.63-2.13-4.75-4.75-4.75h-9ZM18 9.25V13h-2.25C13.12 13 11 15.12 11 17.75c0 .43.05.85.16 1.25h-.5l-3.67 2.75c-.83.61-2 .03-2-1v-1.76c-1.68-.13-3-1.53-3-3.25v-6.5c0-1.72 1.32-3.12 3-3.25 .08-.01.16-.01.25-.01h9.5c1.79 0 3.25 1.45 3.25 3.25Zm5 8.5c0-2.08-1.68-3.75-3.75-3.75l-.11 0c-.37.04-.65.36-.65.74 0 .41.33.75.75.75l.15 0c1.17.07 2.096 1.05 2.096 2.24 0 1.24-1.01 2.25-2.25 2.25l-.01 0 -.11 0c-.37.05-.65.36-.65.74 0 .41.33.74.75.74v-.01l.19-.01c1.97-.11 3.54-1.75 3.54-3.75Zm-6.5-3c0-.42-.34-.75-.75-.75l-.2 0c-1.98.1-3.56 1.74-3.56 3.74 0 2.07 1.67 3.75 3.75 3.75l.1-.01c.36-.05.64-.37.64-.75 0-.42-.34-.75-.75-.75l-.16-.01c-1.18-.08-2.096-1.06-2.096-2.25 0-1.25 1-2.25 2.25-2.25l.1-.01c.36-.05.64-.37.64-.75Zm3.5 3c0-.42-.34-.75-.75-.75h-3.5l-.11 0c-.37.04-.65.36-.65.74 0 .41.33.75.75.75h3.5l.1-.01c.36-.05.64-.37.64-.75Z"/></svg>