<svg viewBox="0 0 24 24" xmlns="http://www.w3.org/2000/svg"><path fill="currentColor" d="M12 5c-4.42 0-8 3.58-8 8 0 2.2.89 4.2 2.33 5.65 .39.39.38 1.02-.01 1.41 -.4.39-1.03.38-1.42-.01 -1.81-1.81-2.93-4.31-2.93-7.07 0-5.53 4.47-10 10-10 5.52 0 10 4.47 10 10 0 2.75-1.12 5.25-2.93 7.06 -.4.39-1.03.39-1.42 0 -.4-.4-.4-1.03-.01-1.42 1.44-1.45 2.33-3.45 2.33-5.66 0-4.42-3.59-8-8-8Zm0 6c-1.11 0-2 .89-2 2 0 1.1.89 2 2 2 1.1 0 2-.9 2-2 0-1.11-.9-2-2-2Zm-4 2c0-2.21 1.79-4 4-4 2.2 0 4 1.79 4 4 0 1.1-.45 2.1-1.18 2.82 -.4.39-.4 1.02 0 1.41 .39.39 1.02.39 1.41 0 1.08-1.09 1.75-2.59 1.75-4.25 0-3.32-2.69-6-6-6 -3.32 0-6 2.68-6 6 0 1.65.67 3.15 1.75 4.24 .39.39 1.02.39 1.41 0 .39-.4.39-1.03 0-1.42 -.73-.73-1.18-1.73-1.18-2.83Z"/></svg>