<svg viewBox="0 0 24 24" xmlns="http://www.w3.org/2000/svg"><path fill="currentColor" d="M13.99 6c0-2.21 1.79-4.01 4-4.01 2.2 0 3.99 1.78 4 3.98l-.01 0v.75c0 .41-.34.75-.75.75 -.42 0-.75-.34-.75-.75V3.97c0-.28-.23-.5-.5-.5 -.28 0-.5.22-.5.49 -.42-.32-.94-.5-1.5-.5 -1.39 0-2.5 1.11-2.5 2.5 0 1.38 1.11 2.5 2.5 2.5 .7 0 1.34-.3 1.8-.77 .31.46.84.76 1.44.76 .96 0 1.75-.79 1.75-1.75v-.75l0-.01c0-2.77-2.24-5.01-5.01-5.01 -2.77 0-5.01 2.23-5.01 5 0 2.76 2.23 5 5 5 1.02 0 1.97-.31 2.77-.84 .22-.16.29-.47.13-.7 -.16-.23-.47-.3-.7-.14 -.64.42-1.4.66-2.23.66 -2.21 0-4.01-1.8-4.01-4.01Zm4 1.5c-.83 0-1.5-.68-1.5-1.5 0-.83.67-1.5 1.5-1.5 .82 0 1.5.67 1.5 1.5 0 .82-.68 1.5-1.5 1.5ZM5.23 3h7.55c-.52.88-.81 1.9-.81 3 0 3.31 2.68 5.99 6 5.99 1.53 0 2.93-.58 4-1.53v4.27c0 1.79-1.46 3.25-3.25 3.25h-5.75l-5 3.75c-.83.61-2 .03-2-1v-2.75h-.75c-1.8 0-3.25-1.46-3.25-3.25v-8.5c0-1.8 1.45-3.25 3.25-3.25Z"/></svg>