<svg viewBox="0 0 24 24" xmlns="http://www.w3.org/2000/svg"><path fill="currentColor" d="M17.5 12C14.46 12 12 9.53 12 6.5 12 3.46 14.46 1 17.5 1 20.53 1 23 3.46 23 6.5c0 3.03-2.47 5.5-5.5 5.5Zm3-5c.27 0 .5-.23.5-.5 0-.28-.23-.5-.5-.5h-4.8l1.64-1.65c.19-.2.19-.52 0-.71 -.2-.2-.52-.2-.71 0l-2.5 2.5c-.2.19-.2.51 0 .7l2.5 2.5c.19.19.51.19.7 0 .19-.2.19-.52 0-.71l-1.65-1.65h4.79Zm-3 6c1.74 0 3.33-.69 4.5-1.81v3.55c0 1.79-1.46 3.25-3.25 3.25H13l-5 3.75c-.83.61-2 .03-2-1v-2.75h-.75c-1.8 0-3.25-1.46-3.25-3.25v-8.5c0-1.8 1.45-3.25 3.25-3.25h6.77c-.65 1.01-1.03 2.21-1.03 3.5 0 3.58 2.91 6.5 6.5 6.5Z"/></svg>