<svg viewBox="0 0 24 24" xmlns="http://www.w3.org/2000/svg"><path fill="currentColor" d="M8.25 2C6.53 2 5.13 3.32 5 5c.07-.01.16-.01.24-.01h9.5c2.34 0 4.25 1.9 4.25 4.25v1.92c1.14.27 2.17.84 2.99 1.63 0-.02 0-.04 0-.06v-6c0-2.63-2.13-4.75-4.75-4.75h-9ZM18 9.25v1.76c-.17-.02-.34-.02-.5-.02 -3.59 0-6.5 2.91-6.5 6.5 0 .51.06 1.01.17 1.5h-.51l-3.67 2.75c-.83.61-2 .03-2-1v-1.76c-1.68-.13-3-1.53-3-3.25v-6.5c0-1.72 1.32-3.12 3-3.25 .08-.01.16-.01.25-.01h9.5c1.79 0 3.25 1.45 3.25 3.25Zm5 8.25c0-3.04-2.47-5.5-5.5-5.5 -3.04 0-5.5 2.46-5.5 5.5 0 3.03 2.46 5.5 5.5 5.5 3.03 0 5.5-2.47 5.5-5.5Zm-2.15-2.36c.19.19.19.51 0 .7l-4 4c-.2.19-.52.19-.71 0l-2-2c-.2-.2-.2-.52 0-.71 .19-.2.51-.2.7 0l1.64 1.64 3.64-3.65c.19-.2.51-.2.7 0Z"/></svg>