<svg viewBox="0 0 24 24" xmlns="http://www.w3.org/2000/svg"><path fill="currentColor" d="M14 1c-1.11 0-2 .89-2 2v6c0 1.1.89 2 2 2h7c1.1 0 2-.9 2-2V3c0-1.11-.9-2-2-2h-7Zm0 3.5c0-.28.22-.5.5-.5h6c.27 0 .5.22.5.5 0 .27-.23.5-.5.5h-6c-.28 0-.5-.23-.5-.5Zm0 3c0-.28.22-.5.5-.5h6c.27 0 .5.22.5.5 0 .27-.23.5-.5.5h-6c-.28 0-.5-.23-.5-.5ZM5.25 3H11v6c0 1.65 1.34 3 3 3h7c.35 0 .68-.07 1-.18v2.92c0 1.79-1.46 3.25-3.25 3.25H13l-5 3.75c-.83.61-2 .03-2-1v-2.75h-.75c-1.8 0-3.25-1.46-3.25-3.25v-8.5c0-1.8 1.45-3.25 3.25-3.25Z"/></svg>