<svg viewBox="0 0 24 24" xmlns="http://www.w3.org/2000/svg"><path fill="currentColor" d="M4 13c0-4.42 3.58-8 8-8 3.81 0 7.01 2.67 7.8 6.25 1.11.45 1.95 1.46 2.14 2.69 .02-.32.04-.63.04-.95 0-5.53-4.48-10-10-10 -5.53 0-10 4.47-10 10 0 2.75 1.11 5.25 2.92 7.06 .39.39 1.02.39 1.41 0 .39-.4.39-1.03 0-1.42 -1.45-1.45-2.34-3.45-2.34-5.66Zm13.69-1.91c-.8-2.38-3.05-4.1-5.7-4.1 -3.32 0-6 2.68-6 6 0 1.65.67 3.15 1.75 4.24 .39.39 1.02.39 1.41 0 .39-.4.39-1.03 0-1.42 -.73-.73-1.18-1.73-1.18-2.83 0-2.21 1.79-4 4-4 1.91 0 3.51 1.34 3.9 3.14 .46-.52 1.08-.89 1.78-1.06Zm-7.7 1.9c0-1.11.89-2 2-2 1.1 0 2 .89 2 2 0 1.1-.9 2-2 2 -1.11 0-2-.9-2-2Zm11 1.5c0 1.38-1.12 2.5-2.5 2.5 -1.39 0-2.5-1.12-2.5-2.5 0-1.39 1.11-2.5 2.5-2.5 1.38 0 2.5 1.11 2.5 2.5Zm2 5.375c0 1.55-1.29 3.125-4.5 3.125 -3.22 0-4.5-1.57-4.5-3.125v-.11c0-.98.79-1.78 1.77-1.78h5.45c.97 0 1.77.79 1.77 1.77v.1Z"/></svg>