<svg viewBox="0 0 24 24" xmlns="http://www.w3.org/2000/svg"><path fill="currentColor" d="M23 6.5c0 3.03-2.47 5.5-5.5 5.5 -3.04 0-5.5-2.47-5.5-5.5C12 3.46 14.46 1 17.5 1 20.53 1 23 3.46 23 6.5Zm-2.15-2.36c-.2-.2-.52-.2-.71 0l-3.65 3.64 -1.65-1.65c-.2-.2-.52-.2-.71 0 -.2.19-.2.51 0 .7l2 2c.19.19.51.19.7 0l4-4c.19-.2.19-.52 0-.71Zm-3.36 8.85c1.74 0 3.33-.69 4.5-1.81v3.55c0 1.79-1.46 3.25-3.25 3.25h-5.75l-5 3.75c-.83.61-2 .03-2-1v-2.75h-.75c-1.8 0-3.25-1.46-3.25-3.25v-8.5c0-1.8 1.45-3.25 3.25-3.25h6.77c-.65 1.01-1.03 2.21-1.03 3.5 0 3.58 2.91 6.5 6.5 6.5Z"/></svg>