<svg viewBox="0 0 24 24" xmlns="http://www.w3.org/2000/svg"><path fill="currentColor" d="M16.31 1h4.82c.38 0 .62.41.43.74l-1.84 3.25h1.49c.64 0 .98.75.56 1.24l-4.83 5.5c-.51.57-1.45.08-1.26-.66l.77-3.1h-3.01c-.37 0-.61-.39-.46-.72l2.82-6c.08-.18.25-.29.45-.29ZM5.24 3h8.7l-1.82 3.86c-.47.99.25 2.13 1.35 2.13h1.72l-.47 1.85c-.44 1.76 1.78 2.92 2.98 1.55l4.26-4.87v7.2c0 1.79-1.46 3.25-3.25 3.25h-5.75l-5 3.75c-.83.61-2 .03-2-1v-2.75h-.75c-1.8 0-3.25-1.46-3.25-3.25v-8.5c0-1.8 1.45-3.25 3.25-3.25Z"/></svg>