<svg viewBox="0 0 24 24" xmlns="http://www.w3.org/2000/svg"><g fill="currentColor"><path d="M12.7 2.7c-.4-.4-1.03-.4-1.42 0L8.31 5.66c-.4.39-.4 1.02 0 1.41l2.96 2.96c.39.39 1.02.39 1.41 0l2.96-2.97c.39-.4.39-1.03 0-1.42l-2.97-2.97Z"/><path d="M12.7 13.93c-.4-.4-1.03-.4-1.42 0l-2.97 2.96c-.4.39-.4 1.02 0 1.41l2.96 2.96c.39.39 1.02.39 1.41 0l2.96-2.97c.39-.4.39-1.03 0-1.42l-2.97-2.97Z"/><path d="M16.91 8.3c.39-.4 1.02-.4 1.41 0l2.96 2.96c.39.39.39 1.02 0 1.41l-2.97 2.96c-.4.39-1.03.39-1.42 0l-2.97-2.97c-.4-.4-.4-1.03 0-1.42l2.96-2.97Z"/><path d="M7.09 8.3c-.4-.4-1.03-.4-1.42 0L2.7 11.26c-.4.39-.4 1.02 0 1.41l2.96 2.96c.39.39 1.02.39 1.41 0l2.96-2.97c.39-.4.39-1.03 0-1.42L7.06 8.27Z"/></g></svg>