<svg viewBox="0 0 24 24" xmlns="http://www.w3.org/2000/svg"><path fill="currentColor" d="M8.24 4c.41 0 .75.33.75.75v2.77l1.87 2.81c.08.12.12.26.12.41v4.496c0 .41-.34.75-.75.75H8.97l0 3.25c0 .41-.34.75-.75.75 -.38 0-.7-.29-.75-.65l-.01-.11 -.01-3.26 -1.995-.01 0 3.25c0 .41-.34.75-.75.75 -.38 0-.7-.29-.75-.65l-.01-.11 -.01-3.26 -1.25 0c-.42 0-.75-.34-.75-.75V10.69c0-.15.04-.3.12-.42l1.87-2.82V4.67c0-.42.33-.75.75-.75h3.49Zm7 0h4.49c.37 0 .69.28.74.64l0 .1 -.01 3.24h.75c.41 0 .75.33.75.75v4.49c0 .14-.05.29-.13.41l-1.88 2.81v2.77c0 .41-.34.75-.75.75h-3.5c-.42 0-.75-.34-.75-.75v-2.78l-1.88-2.82c-.09-.13-.13-.27-.13-.42v-4.5c0-.42.33-.75.75-.75h.75l0-3.25c0-.38.28-.7.64-.75l.1-.01h4.49 -4.5Zm3.74 1.5h-3l-.01 2.49h2.99l0-2.5Z"/></svg>