<svg viewBox="0 0 24 24" xmlns="http://www.w3.org/2000/svg"><path fill="currentColor" d="M6.25 3C4.45 3 3 4.45 3 6.25v11.5C3 19.54 4.45 21 6.25 21h11.5c1.79 0 3.25-1.46 3.25-3.25V6.25C21 4.45 19.54 3 17.75 3H6.25ZM6 8.25c0-.97.78-1.75 1.75-1.75h8.5c.96 0 1.75.78 1.75 1.75v1.5c0 .96-.79 1.75-1.75 1.75h-8.5C6.78 11.5 6 10.71 6 9.75v-1.5ZM7.75 8c-.14 0-.25.11-.25.25v1.5c0 .13.11.25.25.25h8.5c.13 0 .25-.12.25-.25v-1.5c0-.14-.12-.25-.25-.25h-8.5Zm-1 5h4.5c.41 0 .75.33.75.75 0 .41-.34.75-.75.75h-4.5c-.42 0-.75-.34-.75-.75 0-.42.33-.75.75-.75ZM6 16.75c0-.42.33-.75.75-.75h4.5c.41 0 .75.33.75.75 0 .41-.34.75-.75.75h-4.5c-.42 0-.75-.34-.75-.75ZM15.25 13h1c.96 0 1.75.78 1.75 1.75v1c0 .96-.79 1.75-1.75 1.75h-1c-.97 0-1.75-.79-1.75-1.75v-1c0-.97.78-1.75 1.75-1.75ZM15 14.75c0-.14.11-.25.25-.25h1c.13 0 .25.11.25.25v1c0 .13-.12.25-.25.25h-1c-.14 0-.25-.12-.25-.25v-1Z"/></svg>