<svg viewBox="0 0 24 24" xmlns="http://www.w3.org/2000/svg"><path fill="currentColor" d="M2 7.25C2 5.45 3.45 4 5.25 4h13.5C20.54 4 22 5.45 22 7.25v9.5c0 1.79-1.46 3.25-3.25 3.25H5.25C3.45 20 2 18.54 2 16.75v-9.5ZM7.75 8C6.23 8 5 9.23 5 10.75v2.5C5 14.76 6.23 16 7.75 16h.5c.41 0 .75-.34.75-.75 0-.42-.34-.75-.75-.75h-.5c-.7 0-1.25-.56-1.25-1.25v-2.5c0-.7.55-1.25 1.25-1.25h.5c.41 0 .75-.34.75-.75C9 8.33 8.66 8 8.25 8h-.5Zm3.75.75c0-.42-.34-.75-.75-.75 -.42 0-.75.33-.75.75V11h-.25c-.42 0-.75.33-.75.75 0 .41.33.75.75.75H10V14c0 1.1.89 2 2 2h.25c.41 0 .75-.34.75-.75 0-.42-.34-.75-.75-.75H12c-.28 0-.5-.23-.5-.5v-1.5h.75c.41 0 .75-.34.75-.75 0-.42-.34-.75-.75-.75h-.75V8.75Zm8 0c0-.42-.34-.75-.75-.75 -.42 0-.75.33-.75.75v6.5c0 .41.33.75.75.75 .41 0 .75-.34.75-.75V8.74Zm-4 4.24c0-.28.22-.5.5-.5h.25c.41 0 .75-.34.75-.75 0-.42-.34-.75-.75-.75H16c-1.11 0-2 .89-2 2v2.25c0 .41.33.75.75.75 .41 0 .75-.34.75-.75v-2.25Z"/></svg>