<svg viewBox="0 0 24 24" xmlns="http://www.w3.org/2000/svg"><path fill="currentColor" d="M18.75 4C20.54 4 22 5.45 22 7.25v9.5c0 1.79-1.46 3.25-3.25 3.25H5.25C3.45 20 2 18.54 2 16.75V7.24C2 5.5 3.35 4.09 5.06 3.99l.18-.01h13.5Zm-9.5 8.5H5.74c-.38 0-.7.28-.75.64l-.01.1v.58c0 1.27.96 1.91 2.5 1.91 1.46 0 2.41-.6 2.49-1.76l0-.17v-.59c0-.38-.29-.7-.65-.75l-.11-.01Zm2.99 0l-1.42-.01c.08.18.14.38.16.59l0 .15v.58l-.01.25c-.03.33-.1.63-.21.89 .1.01.22.01.33.01 1.05 0 1.79-.41 1.86-1.27l0-.15v-.34c0-.38-.29-.7-.65-.75l-.11-.01 -1.42-.01 1.41 0Zm6 0h-3.01l-.11 0c-.37.04-.65.36-.65.74 0 .37.28.69.64.74l.1 0h3l.1-.01c.36-.05.64-.37.64-.75s-.29-.7-.65-.75l-.11-.01Zm-10.75-4c-.83 0-1.51.67-1.51 1.5 0 .82.67 1.5 1.5 1.5 .82 0 1.5-.68 1.5-1.51s-.68-1.51-1.51-1.51Zm3.86.5c-.69 0-1.25.55-1.25 1.24 0 .68.55 1.24 1.24 1.24 .68 0 1.24-.56 1.24-1.25s-.56-1.25-1.25-1.25Zm6.88.49h-3.01l-.11 0c-.37.04-.65.36-.65.74 0 .37.28.69.64.74l.1 0h3l.1-.01c.36-.05.64-.37.64-.75s-.29-.7-.65-.75l-.11-.01Z"/></svg>