<svg viewBox="0 0 24 24" xmlns="http://www.w3.org/2000/svg"><path fill="currentColor" d="M19.75 4C20.99 4 22 5 22 6.25v5.5c-.72-.48-1.58-.76-2.5-.76 -1.56 0-2.94.79-3.74 1.99h-2.51l-.11 0c-.37.04-.65.36-.65.74 0 .37.28.69.64.74l.1 0h1.86c-.08.32-.12.65-.12 1 0 1.07.37 2.05 1 2.82v1.67H4.22c-1.25 0-2.25-1.01-2.25-2.25V6.19c0-1.25 1-2.25 2.25-2.25h15.5Zm-13.5 8.5c-.38 0-.7.28-.75.64l-.01.1v.49l0 .1c.16 1.11 1.09 1.65 2.49 1.65 1.33 0 2.23-.49 2.46-1.5l.02-.16 0-.11v-.5c0-.38-.29-.7-.65-.75l-.11-.01H6.2ZM8 8.5c-.83 0-1.5.67-1.5 1.5 0 .82.67 1.49 1.49 1.49s1.49-.68 1.49-1.5c0-.83-.68-1.51-1.5-1.51Zm9.75.99h-4.5l-.11 0c-.37.04-.65.36-.65.74 0 .37.28.69.64.74l.1 0h4.49l.1-.01c.36-.05.64-.37.64-.75s-.29-.7-.65-.75l-.11-.01Zm5.25 6c0 1.93-1.57 3.5-3.5 3.5 -1.94 0-3.5-1.57-3.5-3.5 0-1.94 1.56-3.5 3.5-3.5 1.93 0 3.5 1.56 3.5 3.5Zm-6 3.74v3.04c0 .63.76.94 1.21.5l1.28-1.29 1.28 1.28c.44.44 1.21.13 1.21-.51V19.2c-.72.47-1.58.75-2.5.75 -.93 0-1.79-.28-2.5-.76Z"/></svg>