<svg viewBox="0 0 24 24" xmlns="http://www.w3.org/2000/svg"><path fill="currentColor" d="M17.93 3l-.19-.01H6.24l-.19 0c-1.71.09-3.07 1.51-3.07 3.24v11.5l0 .18c.09 1.7 1.51 3.06 3.24 3.06h5.77c-.39-.61-.68-1.28-.85-2H6.21l-.13-.01c-.64-.07-1.13-.6-1.13-1.25l0-9.75h13.99l0 3.17c.72.17 1.39.46 2 .84V6.19L20.93 6c-.1-1.65-1.42-2.97-3.07-3.07Zm-6.95 7.14c-.05-.37-.37-.65-.75-.65h-3.5l-.11 0c-.37.04-.65.36-.65.74v7l0 .1c.04.36.36.64.74.64h3.5l.1-.01c.36-.05.64-.37.64-.75v-7l-.01-.11Zm-3.5.85h2v5.5h-2v-5.5Zm10.5-.75c0-.42-.34-.75-.75-.75h-4.5l-.11 0c-.37.04-.65.36-.65.74 0 .41.33.75.75.75h4.49l.1-.01c.36-.05.64-.37.64-.75Zm-3.73 3.72c.31 1.09-.34 2.22-1.45 2.49l-.59.14c-.05.28-.07.58-.07.88 0 .31.02.62.07.92l.53.13c1.11.26 1.77 1.41 1.45 2.51l-.19.63c.43.38.93.69 1.48.92l.49-.52c.78-.83 2.11-.83 2.89 0l.49.52c.54-.23 1.04-.54 1.48-.92l-.2-.69c-.32-1.1.33-2.23 1.44-2.5l.58-.15c.04-.29.06-.59.06-.89 0-.32-.03-.63-.08-.93l-.54-.13c-1.12-.27-1.78-1.42-1.45-2.52l.18-.64c-.44-.39-.94-.7-1.49-.93l-.5.51c-.79.82-2.12.82-2.9-.01l-.5-.53c-.55.22-1.05.53-1.49.91l.19.68Zm3.22 5.02c-.81 0-1.45-.68-1.45-1.5 0-.83.64-1.5 1.44-1.5 .8 0 1.44.67 1.44 1.5 0 .82-.65 1.5-1.45 1.5Z"/></svg>