<svg viewBox="0 0 24 24" xmlns="http://www.w3.org/2000/svg"><path fill="currentColor" d="M6.25 3h8.25v18H6.25C4.45 21 3 19.54 3 17.75V6.25C3 4.45 4.45 3 6.25 3Zm11.5 18H16v-5h5v1.75c0 1.79-1.46 3.25-3.25 3.25ZM21 14.5h-5v-5h5v5ZM16 8V3h1.75C19.54 3 21 4.45 21 6.25V8h-5ZM6 13.75c0 .41.33.75.75.75h4.5c.41 0 .75-.34.75-.75 0-.42-.34-.75-.75-.75h-4.5c-.42 0-.75.33-.75.75ZM7.25 6.5C6.55 6.5 6 7.05 6 7.75v2.5c0 .69.55 1.25 1.25 1.25h3.5c.69 0 1.25-.56 1.25-1.25v-2.5c0-.7-.56-1.25-1.25-1.25h-3.5ZM7.5 10V8h3v2h-3ZM6 16.75c0 .41.33.75.75.75h4.5c.41 0 .75-.34.75-.75 0-.42-.34-.75-.75-.75h-4.5c-.42 0-.75.33-.75.75Z"/></svg>