<svg viewBox="0 0 24 24" xmlns="http://www.w3.org/2000/svg"><path fill="currentColor" d="M6.25 3h8.25v9.84l-2.37 5.02c-.47.99.25 2.13 1.35 2.13h1v1H6.23c-1.8 0-3.25-1.46-3.25-3.25V6.24c0-1.8 1.45-3.25 3.25-3.25Zm10.06 8h4.68V8.5h-5v2.53c.1-.03.2-.04.31-.04Zm-.32-4V3h1.75c1.79 0 3.25 1.45 3.25 3.25V7h-5Zm-10 6.75c0 .41.33.75.75.75h4.5c.41 0 .75-.34.75-.75 0-.42-.34-.75-.75-.75h-4.5c-.42 0-.75.33-.75.75ZM7.24 6.5c-.7 0-1.25.55-1.25 1.25v2.5c0 .69.55 1.25 1.25 1.25h3.5c.69 0 1.25-.56 1.25-1.25v-2.5c0-.7-.56-1.25-1.25-1.25h-3.5Zm.25 3.5V8h3v2h-3Zm-1.5 6.75c0 .41.33.75.75.75h4.5c.41 0 .75-.34.75-.75 0-.42-.34-.75-.75-.75h-4.5c-.42 0-.75.33-.75.75ZM16.3 12h4.82c.38 0 .62.41.43.74l-1.84 3.25h1.49c.64 0 .98.75.56 1.24l-4.83 5.5c-.51.57-1.45.08-1.26-.66l.77-3.1h-3.01c-.37 0-.61-.39-.46-.72l2.82-6c.08-.18.25-.29.45-.29Z"/></svg>