<svg viewBox="0 0 24 24" xmlns="http://www.w3.org/2000/svg"><path fill="currentColor" d="M2.4 6.59c0-1 .8-1.8 1.8-1.8h15.6c.99 0 1.8.8 1.8 1.8v7c-.55-.26-1.16-.41-1.8-.41H15c-2.32 0-4.2 1.88-4.2 4.2 0 .64.14 1.25.4 1.8H4.19c-1 0-1.8-.81-1.8-1.8V6.57Zm3.6 3.6c0 .99.8 1.8 1.8 1.8 .99 0 1.8-.81 1.8-1.8 0-1-.81-1.81-1.8-1.81 -1 0-1.8.8-1.8 1.8Zm4.8 3.83c0-.63-.51-1.14-1.14-1.14H5.93c-.63 0-1.14.5-1.14 1.13 0 1.01.69 1.9 1.67 2.14l.07.01c.82.2 1.68.2 2.5 0l.07-.02c.98-.25 1.67-1.14 1.67-2.15Zm3-4.44c-.34 0-.6.26-.6.6 0 .33.26.6.6.6h3.6c.33 0 .6-.27.6-.6 0-.34-.27-.61-.6-.61h-3.6Zm1.2 4.8c-1.66 0-3 1.34-3 3 0 1.65 1.34 3 3 3h.6c.33 0 .6-.27.6-.6 0-.34-.27-.6-.6-.6H15c-1 0-1.8-.81-1.8-1.8 0-1 .8-1.8 1.8-1.8h.6c.33 0 .6-.27.6-.6 0-.34-.27-.6-.6-.6H15Zm4.2 0c-.34 0-.6.26-.6.6 0 .33.26.6.6.6h.6c.99 0 1.8.8 1.8 1.8 0 .99-.81 1.8-1.8 1.8h-.6c-.34 0-.6.26-.6.6 0 .33.26.6.6.6h.6c1.65 0 3-1.35 3-3 0-1.66-1.35-3-3-3h-.6Zm-4.2 2.4c-.34 0-.6.26-.6.6 0 .33.26.6.6.6h4.8c.33 0 .6-.27.6-.6 0-.34-.27-.6-.6-.6H15Z"/></svg>