<svg viewBox="0 0 24 24" xmlns="http://www.w3.org/2000/svg"><path fill="currentColor" d="M19.75 4C20.99 4 22 5 22 6.25v11.5c0 1.24-1.01 2.25-2.25 2.25H4.25C3 20 2 18.99 2 17.75V6.24c0-1.25 1-2.25 2.25-2.25h15.5Zm-10 8.5h-3.5c-.38 0-.7.28-.75.64l-.01.1v.49l0 .1c.16 1.11 1.09 1.65 2.49 1.65 1.33 0 2.23-.49 2.46-1.5l.02-.16 0-.11v-.5c0-.38-.29-.7-.65-.75l-.11-.01Zm8 .49h-4.5l-.11 0c-.37.04-.65.36-.65.74 0 .37.28.69.64.74l.1 0h4.49l.1-.01c.36-.05.64-.37.64-.75s-.29-.7-.65-.75l-.11-.01ZM8 8.49c-.83 0-1.5.67-1.5 1.5 0 .82.67 1.49 1.49 1.49s1.49-.68 1.49-1.5c0-.83-.68-1.51-1.5-1.51Zm9.75.99h-4.5l-.11 0c-.37.04-.65.36-.65.74 0 .37.28.69.64.74l.1 0h4.49l.1-.01c.36-.05.64-.37.64-.75s-.29-.7-.65-.75l-.11-.01Z"/></svg>