<svg viewBox="0 0 24 24" xmlns="http://www.w3.org/2000/svg"><path fill="currentColor" d="M6.25 3C5 3 4 4 4 5.25v2.5C4 8.99 5 10 6.25 10h9.5C16.99 10 18 8.99 18 7.75v-2.5C18 4 16.99 3 15.75 3h-9.5Zm11.1 13.44l-.08.08c-.27.26-.69.29-.98.07l-.09-.08 -2-2c-.27-.27-.3-.69-.08-.98l.07-.09 2-2c.29-.3.76-.3 1.06 0 .26.26.29.68.07.97l-.08.08 -.72.72 1.49-.01c.64 0 1.17-.5 1.24-1.13l0-.13V9.68c0-.42.33-.75.75-.75 .37 0 .69.28.74.64l0 .1v2.25c0 1.46-1.15 2.65-2.59 2.74l-.17 0 -1.5 0 .71.71c.26.26.29.68.07.97Zm-3.08-4.45l-.79.78 -.13.13 -.03.02c-.51.68-.46 1.65.16 2.27l2.02 2.02 .13.12 .02.02c.68.5 1.65.45 2.27-.17l.01-.02v2.02c0 1.24-1.01 2.25-2.25 2.25h-9.5c-1.25 0-2.25-1.01-2.25-2.25v-5c0-1.25 1-2.25 2.25-2.25h8.02Zm-6.28 4.75c0 .41.31.75.7.75h4.6c.38 0 .7-.34.7-.75 0-.42-.32-.75-.7-.75h-4.6c-.39 0-.7.33-.7.75Z"/></svg>