<svg viewBox="0 0 24 24" xmlns="http://www.w3.org/2000/svg"><path fill="currentColor" d="M12 2c.71 0 1.41.07 2.1.22 .58.12.79.84.37 1.26 -.47.46-.73 1.09-.73 1.76 0 1.17.81 2.17 1.93 2.43 .37.08.61.43.57.81 -.01.08-.02.16-.02.25 0 1.38 1.11 2.5 2.5 2.5 .72 0 1.4-.32 1.87-.85 .42-.49 1.23-.24 1.3.4 .04.39.06.78.06 1.18 0 5.52-4.48 10-10 10 -5.53 0-10-4.48-10-10 0-5.53 4.47-10 10-10Zm3 14c-.56 0-1 .44-1 1 0 .55.44 1 1 1 .55 0 1-.45 1-1 0-.56-.45-1-1-1Zm-7-1c-.56 0-1 .44-1 1 0 .55.44 1 1 1 .55 0 1-.45 1-1 0-.56-.45-1-1-1Zm4-4c-.56 0-1 .44-1 1 0 .55.44 1 1 1 .55 0 1-.45 1-1 0-.56-.45-1-1-1ZM7 8c-.56 0-1 .44-1 1 0 .55.44 1 1 1 .55 0 1-.45 1-1 0-.56-.45-1-1-1Z"/></svg>