<svg viewBox="0 0 24 24" xmlns="http://www.w3.org/2000/svg"><path fill="currentColor" d="M17.5 12c3.03 0 5.5 2.46 5.5 5.5 0 3.03-2.47 5.5-5.5 5.5 -3.04 0-5.5-2.47-5.5-5.5 0-3.04 2.46-5.5 5.5-5.5Zm-12-7.38l-.01 2.12v10.5c0 1.79 1.45 3.25 3.25 3.25l2.98 0c.28.55.65 1.05 1.07 1.49l-4.07-.01c-2.63 0-4.75-2.13-4.75-4.75V6.71c0-.99.62-1.82 1.5-2.13Zm12.78 9.96c-.18-.12-.4-.12-.57 0l-.07.05 -.06.06c-.12.17-.12.39 0 .56l.05.06 1.64 1.64 -4.8 0 -.09 0c-.21.03-.37.19-.41.4l-.01.08 0 .08c.03.2.19.36.4.4l.08 0 4.8-.01 -1.65 1.64 -.06.06c-.14.19-.12.46.05.63 .17.17.44.19.63.05l.06-.06 2.52-2.54 .03-.06 .04-.09 .02-.09 0-.07v-.09l-.01-.07 -.02-.05 -.04-.08 -.03-.05 -.04-.06 -2.53-2.54 -.07-.06Zm-.54-12.59c1.24 0 2.25 1 2.25 2.25l0 7.24c-.77-.33-1.62-.5-2.51-.5 -3.59 0-6.5 2.91-6.5 6.5 0 .69.11 1.37.31 2l-2.57-.01c-1.25 0-2.25-1.01-2.25-2.25v-13c0-1.25 1-2.25 2.25-2.25h9Z"/></svg>