<svg viewBox="0 0 24 24" xmlns="http://www.w3.org/2000/svg"><path fill="currentColor" d="M5.5 4.62l-.01 2.12v10.5c0 1.79 1.45 3.25 3.25 3.25l1.98 0c.28.55.65 1.05 1.07 1.49H8.72c-2.63 0-4.75-2.13-4.75-4.75V6.72c0-.99.62-1.82 1.5-2.13Zm10.99 6.37c1.28 0 2.48.37 3.5 1.02V4.23c0-1.25-1.01-2.25-2.25-2.25h-9c-1.25 0-2.25 1-2.25 2.25v13c0 1.24 1 2.25 2.25 2.25h1.56c-.21-.64-.32-1.31-.32-2 0-3.59 2.91-6.5 6.5-6.5Zm5.5 6.5c0-3.04-2.47-5.5-5.5-5.5 -3.04 0-5.5 2.46-5.5 5.5 0 3.03 2.46 5.5 5.5 5.5 3.03 0 5.5-2.47 5.5-5.5Zm-5 .5l0 2.5c0 .27-.23.5-.5.5 -.28 0-.5-.23-.5-.5l-.01-2.51h-2.51c-.28 0-.5-.23-.5-.5 0-.28.22-.5.49-.5h2.5l-.01-2.51c0-.28.22-.5.5-.5 .27 0 .5.22.5.5l0 2.5h2.49c.27 0 .49.22.49.5 0 .27-.23.5-.5.5h-2.5Z"/></svg>