<svg viewBox="0 0 24 24" xmlns="http://www.w3.org/2000/svg"><path fill="currentColor" d="M9.25 3.5c-.97 0-1.75.78-1.75 1.75v1c0 .41-.34.75-.75.75C6.33 7 6 6.66 6 6.25v-1C6 3.45 7.45 2 9.25 2h1c.41 0 .75.33.75.75 0 .41-.34.75-.75.75h-1ZM12 2.75c0-.42.33-.75.75-.75h2.5c.41 0 .75.33.75.75 0 .41-.34.75-.75.75h-2.5c-.42 0-.75-.34-.75-.75Zm.75 13.75c-.42 0-.75.33-.75.75 0 .41.33.75.75.75h2.5c.41 0 .75-.34.75-.75 0-.42-.34-.75-.75-.75h-2.5Zm-6-8.5c.41 0 .75.33.75.75v2.5c0 .41-.34.75-.75.75 -.42 0-.75-.34-.75-.75v-2.5c0-.42.33-.75.75-.75ZM22 8.75c0-.42-.34-.75-.75-.75 -.42 0-.75.33-.75.75v2.5c0 .41.33.75.75.75 .41 0 .75-.34.75-.75v-2.5Zm-3.25 7.75c.96 0 1.75-.79 1.75-1.75v-1c0-.42.33-.75.75-.75 .41 0 .75.33.75.75v1c0 1.79-1.46 3.25-3.25 3.25h-1c-.42 0-.75-.34-.75-.75 0-.42.33-.75.75-.75h1ZM20.5 5.25c0-.97-.79-1.75-1.75-1.75h-1c-.42 0-.75-.34-.75-.75 0-.42.33-.75.75-.75h1C20.54 2 22 3.45 22 5.25v1c0 .41-.34.75-.75.75 -.42 0-.75-.34-.75-.75v-1ZM9.25 16.5c-.97 0-1.75-.79-1.75-1.75v-1c0-.42-.34-.75-.75-.75 -.42 0-.75.33-.75.75v1C6 16.54 7.45 18 9.25 18h1c.41 0 .75-.34.75-.75 0-.42-.34-.75-.75-.75h-1ZM2 9.24c0-1.72 1.32-3.12 3-3.25v8.99c0 2.2 1.79 4 4 4h8.99c-.13 1.67-1.53 3-3.25 3h-7c-3.18 0-5.75-2.58-5.75-5.75V9.22Z"/></svg>