<svg viewBox="0 0 24 24" xmlns="http://www.w3.org/2000/svg"><path fill="currentColor" d="M16.75 4h-9.5C5.73 4 4.5 5.23 4.5 6.75V8c1.76 0 3.22 1.3 3.46 3h8.07c.24-1.7 1.7-3 3.46-3V6.75c0-1.52-1.24-2.75-2.75-2.75Zm.25 7.5c0-1.39 1.11-2.5 2.5-2.5 1.38 0 2.5 1.11 2.5 2.5v2.75c0 1.43-1.1 2.61-2.5 2.73v1.26c0 .41-.34.75-.75.75 -.42 0-.75-.34-.75-.75v-1.25H6v1.25c0 .41-.34.75-.75.75 -.42 0-.75-.34-.75-.75v-1.27C3.09 16.84 2 15.66 2 14.23v-2.75c0-1.39 1.11-2.5 2.5-2.5 1.38 0 2.5 1.11 2.5 2.5 0 .27.22.5.5.5h9c.27 0 .5-.23.5-.5Z"/></svg>