<svg viewBox="0 0 24 24" xmlns="http://www.w3.org/2000/svg"><path fill="currentColor" d="M2 8.25C2 6.45 3.45 5 5.25 5h13.5C20.54 5 22 6.45 22 8.25V9.5H2V8.25ZM15.75 11H2v4.75C2 17.54 3.45 19 5.25 19H11v-2.75c0-1.21.85-2.22 2-2.45v-.05c0-1.52 1.23-2.75 2.75-2.75Zm-2.25 3.75h.5v-1c0-.97.78-1.75 1.75-1.75h3.5c.96 0 1.75.78 1.75 1.75v1h.5c.82 0 1.5.67 1.5 1.5V18h-3v-.5c0-.28-.23-.5-.5-.5 -.28 0-.5.22-.5.5v.5h-3v-.5c0-.28-.23-.5-.5-.5 -.28 0-.5.22-.5.5v.5h-3v-1.75c0-.83.67-1.5 1.5-1.5Zm2.25-1.25c-.14 0-.25.11-.25.25v1h4v-1c0-.14-.12-.25-.25-.25h-3.5Zm3.25 6V19h-3v.5c0 .27-.23.5-.5.5 -.28 0-.5-.23-.5-.5V19h-3v2.5c0 .82.67 1.5 1.5 1.5h8c.82 0 1.5-.68 1.5-1.5V19h-3v.5c0 .27-.23.5-.5.5 -.28 0-.5-.23-.5-.5Z"/></svg>