<svg viewBox="0 0 24 24" xmlns="http://www.w3.org/2000/svg"><path fill="currentColor" d="M5.25 5C3.45 5 2 6.45 2 8.25V9.5h20V8.25C22 6.45 20.54 5 18.75 5H5.25ZM2 15.75V11h16.5c-1.94 0-3.5 1.56-3.5 3.5 0 .97.4 1.86 1.05 2.5h-.28c-1.263 0-2.33.84-2.67 2H5.24c-1.8 0-3.25-1.46-3.25-3.25Zm19-1.25c0 1.38-1.12 2.5-2.5 2.5 -1.39 0-2.5-1.12-2.5-2.5 0-1.39 1.11-2.5 2.5-2.5 1.38 0 2.5 1.11 2.5 2.5Zm2 5.375C23 21.425 21.71 23 18.5 23c-3.22 0-4.5-1.57-4.5-3.125v-.11c0-.98.79-1.78 1.77-1.78h5.45c.97 0 1.77.79 1.77 1.77v.1Z"/></svg>