<svg viewBox="0 0 24 24" xmlns="http://www.w3.org/2000/svg"><path fill="currentColor" d="M8.35 16.99c-.77-.08-1.36-.72-1.36-1.5V2.99l-.01-.12c-.06-.5-.49-.89-1-.89 -.56 0-1 .44-1 1v2h-2l-.12 0c-.5.05-.89.48-.89.99 0 .55.44 1 1 1h2v8.5l0 .19c.09 1.84 1.62 3.308 3.49 3.308h4.67l-.14-.05 -.02-.01c-.31-.11-.57-.31-.75-.57 -.19-.27-.29-.58-.29-.9 0-.17.02-.34.08-.5H8.42l-.15-.01Zm10.64-3.75l-.07-.21 -.01-.02c-.11-.31-.31-.57-.57-.75 -.27-.19-.58-.29-.9-.29 -.17 0-.33.02-.48.07V8.466c0-.78-.6-1.43-1.36-1.5l-.15-.01h-7.5v-2h7.5c1.86 0 3.39 1.46 3.49 3.3l0 .19v4.74Zm4.21-.68l.61.19 .01 0c.04.01.08.04.11.08 .02.04.04.08.04.13s-.02.09-.05.13c-.03.04-.07.07-.12.08l-.62.19c-.19.06-.36.16-.5.3 -.14.13-.25.3-.31.49l-.2.61c-.02.04-.05.08-.09.11 -.05.02-.09.04-.14.04 -.05 0-.1-.02-.14-.05 -.05-.03-.08-.07-.09-.12l-.2-.62c-.07-.19-.17-.36-.31-.5 -.14-.14-.31-.25-.5-.31l-.62-.2c-.05-.02-.09-.05-.12-.09 -.03-.05-.05-.09-.05-.14 0-.05.01-.1.04-.14 .02-.05.06-.08.11-.09l.61-.2c.18-.07.35-.17.48-.31 .13-.14.23-.31.29-.5l.19-.62c.01-.05.04-.09.08-.12s.08-.05.13-.05 .09.01.13.04c.04.02.07.06.08.11l.19.61c.06.18.16.35.3.49 .13.13.3.24.49.3Zm-7.13 6.84c-.08-.1-.16-.19-.24-.27 -.32-.32-.7-.55-1.12-.69l-1.38-.45c-.11-.04-.2-.11-.27-.2 -.07-.1-.1-.21-.1-.32 0-.12.03-.23.1-.32 .06-.1.15-.17.26-.2l1.37-.45c.41-.15.78-.38 1.09-.7 .29-.31.52-.67.66-1.08l.01-.04 .44-1.38c.03-.11.1-.2.19-.27s.2-.1.31-.1c.11 0 .22.03.31.09s.16.15.19.26l.44 1.37c.13.41.37.79.68 1.11 .31.31.69.54 1.11.68l1.37.44 .02 0c.1.03.19.1.26.19 .06.09.1.2.1.31 0 .11-.04.22-.1.31 -.07.09-.16.16-.27.19l-1.38.44c-.42.13-.8.37-1.12.68 -.32.31-.55.69-.69 1.11l-.45 1.37c-.01.01-.01.02-.02.03 -.04.09-.11.17-.19.22 -.1.06-.21.09-.32.09 -.12 0-.23-.04-.32-.1 -.1-.07-.17-.16-.2-.27l-.45-1.38c-.11-.31-.26-.6-.46-.85Z"/></svg>