<svg viewBox="0 0 24 24" xmlns="http://www.w3.org/2000/svg"><path fill="currentColor" d="M16.67 9.1c3.03.54 5.33 3.2 5.33 6.39 0 3.58-2.92 6.5-6.5 6.5 -1.49 0-2.89-.51-4.01-1.39l-.01.63c0 .37-.29.69-.65.74l-.11 0c-.38 0-.7-.29-.75-.65l-.01-.11v-2.5c0-.38.28-.7.64-.75l.1-.01h2.5c.41 0 .75.33.75.75 0 .37-.29.69-.65.74l-.11 0 -.75 0c.84.63 1.89.99 2.99.99 2.76 0 5-2.24 5-5 0-2.28-1.52-4.19-3.59-4.8l-.25-1.6Zm-2.19-6.11c1.38 0 2.5 1.11 2.5 2.5 0 1.03-.63 1.92-1.53 2.3l.81 5.31c1 .32 1.72 1.26 1.72 2.37 0 1.38-1.12 2.5-2.5 2.5 -.82 0-1.55-.4-2-1H6.47c-.46.6-1.19.99-2 .99 -1.39 0-2.5-1.12-2.5-2.5 0-1.109.72-2.05 1.72-2.38l.81-5.32c-.91-.38-1.54-1.27-1.54-2.31 0-1.39 1.11-2.5 2.5-2.5 .81 0 1.54.39 1.99.99h4.99c.45-.61 1.18-1 1.99-1Zm-2.5 2.49H7.99c0 1.2-.85 2.2-1.97 2.44l-.8 5.16c.96.29 1.67 1.16 1.75 2.2l0 .18h6c0-1.13.73-2.07 1.75-2.39l-.8-5.17c-1.08-.23-1.9-1.15-1.98-2.28l-.01-.18Z"/></svg>