<svg viewBox="0 0 24 24" xmlns="http://www.w3.org/2000/svg"><path fill="currentColor" d="M3.28 2.21c-.3-.3-.77-.3-1.07-.01 -.3.29-.3.76-.01 1.06l1.06 1.06c-.19.34-.29.74-.29 1.15 0 1.04.63 1.93 1.53 2.3l-.82 5.31c-1 .32-1.73 1.26-1.73 2.37 0 1.38 1.11 2.5 2.5 2.5 .81 0 1.54-.4 1.99-1h7c.45.6 1.18.99 1.99.99 .41 0 .8-.11 1.15-.29l1.8 1.8c-.83.61-1.86.97-2.97.97s-2.15-.36-3-1l.74-.01 .1-.01c.36-.05.64-.37.64-.75 0-.42-.34-.75-.75-.75h-2.51l-.11 0c-.37.04-.65.36-.65.74v2.49l0 .1c.04.36.36.64.74.64l.1-.01c.36-.05.64-.37.64-.75l0-.64c1.12.88 2.52 1.38 4 1.38 1.52 0 2.92-.53 4.03-1.41l1.18 1.18c.29.29.76.29 1.06 0 .29-.3.29-.77 0-1.07L3.12 2.04Zm10 12.12c-.18.34-.29.73-.29 1.15H6.98l-.01-.19c-.08-1.05-.8-1.91-1.76-2.21L6 7.91c.21-.05.42-.13.62-.23l6.62 6.62ZM7.17 3.98l1.49 1.49h3.3l0 .17c.07 1.12.89 2.04 1.97 2.27l.51 3.34 1.79 1.79 -.82-5.29c.89-.38 1.52-1.27 1.52-2.31 0-1.39-1.12-2.5-2.5-2.5 -.82 0-1.55.39-2 .99l-5.31 0Zm13.07 13.07l1.15 1.15c.38-.83.59-1.76.59-2.73 0-3.2-2.31-5.85-5.34-6.4l.24 1.59c2.07.6 3.58 2.52 3.58 4.79 0 .54-.09 1.07-.26 1.57Z"/></svg>