<svg viewBox="0 0 24 24" xmlns="http://www.w3.org/2000/svg"><path fill="currentColor" d="M13.45 6.37c.33-.36.54-.85.54-1.38 0-1.11-.9-2-2-2 -1.11 0-2 .89-2 2 0 .53.2 1.01.54 1.37L7.9 9.63c-.08.09-.21.12-.31.06L4.93 8.36c.02-.13.03-.26.03-.4 0-1.11-.9-2-2-2 -1.11 0-2 .89-2 2 0 .95.66 1.74 1.55 1.95l1.8 9.62c.15.82.87 1.42 1.72 1.42h5.94c-.65-1.02-1.03-2.22-1.03-3.5 0-3.59 2.91-6.5 6.5-6.5 1.3 0 2.52.38 3.54 1.05l.39-2.11c.89-.21 1.55-1 1.55-1.96 0-1.11-.9-2-2-2 -1.11 0-2 .89-2 2 0 .13.01.26.03.39l-2.66 1.32c-.11.05-.24.02-.31-.07l-2.63-3.28Zm9.54 11.12c0 3.03-2.47 5.5-5.5 5.5 -3.04 0-5.5-2.47-5.5-5.5 0-3.04 2.46-5.5 5.5-5.5 3.03 0 5.5 2.46 5.5 5.5Zm-9 0c0 .27.22.5.5.5h6c.27 0 .5-.23.5-.5 0-.28-.23-.5-.5-.5h-6c-.28 0-.5.22-.5.5Z"/></svg>