<svg viewBox="0 0 24 24" xmlns="http://www.w3.org/2000/svg"><path fill="currentColor" d="M14 5c0 .53-.21 1.01-.55 1.37l2.62 3.27c.07.09.2.12.3.06l2.65-1.33c-.03-.13-.04-.26-.04-.4 0-1.11.89-2 2-2 1.1 0 2 .89 2 2 0 .95-.67 1.74-1.56 1.95l-1.81 9.62c-.16.82-.88 1.42-1.72 1.42H6.04c-.85 0-1.57-.6-1.73-1.43L2.5 9.9C1.6 9.69.94 8.9.94 7.94c0-1.11.89-2 2-2 1.1 0 2 .89 2 2 0 .13-.02.26-.04.39l2.65 1.32c.1.05.23.02.3-.07l2.62-3.28c-.34-.36-.55-.85-.55-1.38 0-1.11.89-2 2-2 1.1 0 2 .89 2 2Zm-2 12c1.1 0 2-.9 2-2 0-1.11-.9-2-2-2 -1.11 0-2 .89-2 2 0 1.1.89 2 2 2Z"/></svg>