<svg viewBox="0 0 24 24" xmlns="http://www.w3.org/2000/svg"><defs><clipPath id="a"><path d="M0 0h24v24H0Z"/></clipPath></defs><path clip-path="url(#a)" fill="currentColor" d="M10.44 2.97c1-.41 2.11-.41 3.11 0l6.9 2.76c.68.27 1.13.93 1.13 1.67v7.03c-.2-.03-.4-.05-.6-.05h-4.8c-2.32 0-4.2 1.88-4.2 4.2 0 .99.34 1.9.91 2.62 -.83.18-1.69.11-2.48-.2L3.5 18.23c-.69-.28-1.14-.94-1.14-1.68V7.37c0-.74.44-1.4 1.13-1.68l6.9-2.77Zm-3.6 4.27c-.31-.14-.66 0-.8.3s0 .65.3.79l5.04 2.24v5.61c0 .33.26.6.6.6 .33 0 .6-.27.6-.6v-5.62l5.04-2.25c.3-.14.43-.49.3-.8 -.14-.31-.49-.44-.8-.31l-5.16 2.29 -5.16-2.3Zm9.35 8.34c-1.66 0-3 1.34-3 3 0 1.65 1.34 3 3 3h.6c.33 0 .6-.27.6-.6 0-.34-.27-.6-.6-.6h-.6c-1 0-1.8-.81-1.8-1.8 0-1 .8-1.8 1.8-1.8h.6c.33 0 .6-.27.6-.6 0-.34-.27-.6-.6-.6h-.6Zm4.2 0c-.34 0-.6.26-.6.6 0 .33.26.6.6.6h.6c.99 0 1.8.8 1.8 1.8 0 .99-.81 1.8-1.8 1.8h-.6c-.34 0-.6.26-.6.6 0 .33.26.6.6.6h.6c1.65 0 3-1.35 3-3 0-1.66-1.35-3-3-3h-.6Zm-4.8 3c0-.34.26-.6.6-.6h4.8c.33 0 .6.26.6.6 0 .33-.27.6-.6.6h-4.8c-.34 0-.6-.27-.6-.6Z"/></svg>