<svg viewBox="0 0 24 24" xmlns="http://www.w3.org/2000/svg"><path fill="currentColor" d="M10.44 2.97c1-.41 2.11-.41 3.11 0l6.9 2.76c.68.27 1.13.93 1.13 1.67v4.89c-1.15-.95-2.61-1.51-4.2-1.51 -1.9 0-3.6.79-4.81 2.07v-2.28l5.04-2.25c.3-.14.43-.49.3-.8 -.14-.31-.49-.44-.8-.31L11.95 9.5 6.79 7.2c-.31-.14-.66 0-.8.3s0 .65.3.79l5.04 2.24v4.05c-.39.83-.6 1.77-.6 2.75 0 1.46.47 2.82 1.29 3.92 -.56.01-1.13-.09-1.66-.3l-6.91-2.77c-.69-.28-1.14-.94-1.14-1.68V7.32c0-.74.44-1.4 1.13-1.68l6.9-2.77Zm9.96 18.91c-.89.59-1.94.91-3.01.91 -1.44 0-2.81-.57-3.82-1.59 -1.02-1.02-1.59-2.39-1.59-3.82 0-1.07.31-2.12.91-3.01 .59-.89 1.43-1.59 2.42-1.99 .98-.41 2.07-.52 3.12-.31 1.04.2 2 .72 2.76 1.47 .75.75 1.26 1.71 1.47 2.76 .2 1.04.1 2.13-.31 3.12 -.41.98-1.11 1.83-1.99 2.42Zm-2.58-7.32c-.12-.12-.27-.18-.43-.18 -.16 0-.32.06-.43.17 -.12.11-.18.26-.18.42v1.8h-1.8c-.16 0-.32.06-.43.17 -.12.11-.18.26-.18.42 0 .15.06.31.17.42 .11.11.26.17.42.17h1.8v1.8c0 .15.06.31.17.42 .11.11.26.17.42.17 .15 0 .31-.07.42-.18 .11-.12.17-.27.17-.43v-1.8h1.8c.15 0 .31-.07.42-.18 .11-.12.17-.27.17-.43 0-.16-.07-.32-.18-.43 -.12-.12-.27-.18-.43-.18h-1.8v-1.8c0-.16-.07-.32-.18-.43Z"/></svg>