<svg viewBox="0 0 24 24" xmlns="http://www.w3.org/2000/svg"><path fill="currentColor" d="M10.23 3.15c1.11-.52 2.4-.52 3.52 0l5.59 2.58c.63.29 1.04.93 1.04 1.63v2.23h-1.2c-1 0-1.8.8-1.8 1.8 0 .63.32 1.19.82 1.51 -1.52.87-3.71 1.48-6.23 1.48 -2.53 0-4.72-.61-6.23-1.49 .49-.33.82-.88.82-1.52 0-1-.81-1.8-1.8-1.8h-1.2V7.33c0-.71.4-1.35 1.04-1.64l5.59-2.59ZM8.02 7.84c-.31-.14-.66.01-.79.31 -.14.3.01.65.31.78l3.83 1.64v2c0 .33.26.6.6.6 .33 0 .6-.27.6-.6v-2.01l3.83-1.65c.3-.14.44-.49.31-.79 -.14-.31-.49-.45-.79-.32l-3.97 1.69 -3.97-1.7Zm10.56 3.55c0-.34.26-.6.6-.6h3c.15 0 .31.06.42.17 .11.11.17.26.17.42v3c0 .33-.27.6-.6.6 -.34 0-.6-.27-.6-.6V13.2c-.34.39-.75.77-1.21 1.12 -.24.18-.5.35-.77.51 -1.96 1.19-4.66 1.93-7.64 1.93 -2.99 0-5.69-.74-7.64-1.94 -.27-.17-.53-.34-.77-.52 -.46-.35-.87-.73-1.2-1.13v1.17c0 .33-.27.6-.6.6 -.34 0-.6-.27-.6-.6v-3c0-.16.06-.32.17-.43 .11-.12.26-.18.42-.18h3c.33 0 .6.26.6.6 0 .33-.27.6-.6.6H2.9c.16.25.37.51.62.76 .14.14.3.29.47.43 .25.2.53.41.84.6 .02.01.04.02.06.03 .49.3 1.04.57 1.64.8 1.51.59 3.35.94 5.36.94 2 0 3.843-.36 5.36-.95 .6-.24 1.15-.51 1.64-.81 .33-.21.64-.43.9-.65 .17-.15.33-.29.48-.44 .24-.25.45-.51.62-.77h-1.83c-.34 0-.6-.27-.6-.6Zm-6.61 6.6c-3.2 0-6.2-.81-8.4-2.2v.82c-.001.7.4 1.34 1.04 1.63l5.59 2.58c1.11.51 2.4.51 3.52 0l5.59-2.59c.63-.3 1.04-.94 1.04-1.64v-.83c-2.21 1.39-5.21 2.19-8.41 2.19Z"/></svg>