<svg viewBox="0 0 24 24" xmlns="http://www.w3.org/2000/svg"><path fill="currentColor" d="M11.76 2.03c.15-.06.32-.06.47 0l3.75 1.25c.3.1.51.38.51.71v5c0 .32-.21.6-.52.71l-3.24 1.07v2.2h1.75c1.24 0 2.25 1 2.25 2.25v.84c1.29.33 2.25 1.5 2.25 2.9 0 1.65-1.35 3-3 3 -1.66 0-3-1.35-3-3 0-1.4.95-2.58 2.25-2.91v-.85c0-.42-.34-.75-.75-.75h-5c-.42 0-.75.33-.75.75v.84c1.29.33 2.25 1.5 2.25 2.9 0 1.65-1.35 3-3 3 -1.66 0-3-1.35-3-3 0-1.4.95-2.58 2.25-2.91v-.85c0-1.25 1-2.25 2.25-2.25h1.75v-2.21L7.99 9.64c-.31-.11-.52-.39-.52-.72v-5c0-.33.2-.61.51-.72l3.74-1.25ZM9.78 5.5c-.14.39.08.81.47.94l.98.32v.95c0 .41.33.75.75.75 .41 0 .75-.34.75-.75v-.96l.98-.33c.39-.14.6-.56.47-.95 -.14-.4-.56-.61-.95-.48l-1.27.42 -1.27-.43c-.4-.14-.82.08-.95.47Z"/></svg>