<svg viewBox="0 0 24 24" xmlns="http://www.w3.org/2000/svg"><path fill="currentColor" d="M13.4 2.51c-.91-.37-1.92-.37-2.82 0l-7.5 3.03c-.67.26-1.1.9-1.1 1.62v9.65c0 .71.43 1.35 1.09 1.62l7.49 3.04c.62.25 1.3.33 1.96.23 -.98-1.14-1.56-2.62-1.56-4.23 0-.63.08-1.23.25-1.8v-4.95L6.44 8.91c-.39-.15-.59-.58-.44-.97 .14-.39.57-.59.96-.44l4.984 1.89 4.98-1.9c.38-.15.82.04.96.43 .14.38-.05.82-.44.96l-4.77 1.8v2.3c1.18-1.27 2.87-2.07 4.75-2.07 1.74 0 3.33.68 4.5 1.8V7.07c0-.72-.44-1.36-1.1-1.63l-7.5-3.04Zm-1.41 14.98c0 3.03 2.46 5.5 5.5 5.5 3.03 0 5.5-2.47 5.5-5.5 0-3.04-2.47-5.5-5.5-5.5 -3.04 0-5.5 2.46-5.5 5.5Zm8.5-3.5c.27 0 .5.22.5.5v2c0 .27-.23.5-.5.5h-2c-.28 0-.5-.23-.5-.5 0-.28.22-.5.5-.5h1c-.46-.61-1.19-1-2.01-1 -.84 0-1.58.4-2.03 1.03 -.17.22-.48.27-.7.11 -.23-.17-.28-.48-.12-.7 .63-.88 1.66-1.45 2.83-1.45 .97 0 1.86.4 2.5 1.05v-.56c0-.28.22-.5.5-.5Zm-5.5 5.94v.55c0 .27-.23.5-.5.5 -.28 0-.5-.23-.5-.5v-2c0-.28.22-.5.5-.5h2c.27 0 .5.22.5.5 0 .27-.23.5-.5.5h-1.01c.45.6 1.18 1 2 1 .76 0 1.45-.35 1.91-.89 .17-.22.49-.24.7-.06 .21.17.23.49.05.7 -.65.75-1.61 1.24-2.68 1.24 -.98 0-1.87-.41-2.5-1.06Z"/></svg>