<svg viewBox="0 0 24 24" xmlns="http://www.w3.org/2000/svg"><path fill="currentColor" d="M1.2 6.59c0-2.98 2.41-5.4 5.4-5.4 2.98 0 5.39 2.41 5.39 5.39 0 2.97-2.42 5.39-5.4 5.39 -2.99 0-5.41-2.42-5.41-5.4Zm7.67 1.07L7.79 8.73V6.88c0-1.83-1.48-3.3-3.3-3.3h-.31c-.34 0-.6.26-.6.59 0 .33.26.59.59.59h.3c1.15 0 2.1.93 2.1 2.09v1.84L5.49 7.61c-.24-.24-.62-.24-.85 0 -.24.23-.24.61 0 .84l2.1 2.1c.05.05.12.09.19.12 .07.02.14.04.22.04 .08 0 .15-.02.22-.05 .07-.03.13-.08.19-.14l2.1-2.1c.23-.24.23-.62 0-.85 -.24-.24-.62-.24-.85 0Zm4.32-1.08c0 .94-.2 1.84-.56 2.65l4.51-2.01c.3-.14.65 0 .79.3 .13.3-.01.65-.31.79l-5.05 2.23v5.6c0 .33-.27.59-.6.59 -.34 0-.6-.27-.6-.6v-5.07c-1.21 1.27-2.91 2.06-4.8 2.06 -1.6 0-3.06-.57-4.2-1.51v4.89c0 .73.44 1.39 1.13 1.66l6.9 2.76c1 .4 2.11.4 3.11 0l6.9-2.77c.68-.28 1.13-.94 1.13-1.67V7.31c0-.74-.45-1.4-1.14-1.67l-6.91-2.77c-.53-.22-1.1-.32-1.66-.3 .81 1.09 1.29 2.45 1.29 3.91Z"/></svg>