<svg viewBox="0 0 24 24" xmlns="http://www.w3.org/2000/svg"><path fill="currentColor" d="M15.59 6.21c.56-.29 1.23-.29 1.8 0l3.5 1.76c.67.34 1.09 1.03 1.09 1.78v4.46c0 .75-.43 1.44-1.1 1.78l-3.5 1.76c-.57.28-1.24.28-1.81 0l-3.5-1.77c-.68-.35-1.1-1.04-1.1-1.79V9.72c0-.76.42-1.45 1.09-1.79l3.5-1.77Zm-2.02 4.19c-.19.36-.05.82.32 1l1.84.93v1.9c0 .41.33.75.75.75 .41 0 .75-.34.75-.75v-1.91l1.84-.94c.36-.19.51-.64.32-1.01s-.64-.52-1.01-.33l-1.91.97 -1.91-.98c-.37-.19-.83-.05-1.01.32ZM4.73 6.99c-.42 0-.75.33-.75.75 0 .41.33.75.75.75h4.5c.41 0 .75-.34.75-.75 0-.42-.34-.75-.75-.75h-4.5Zm-2 3.99c-.42 0-.75.33-.75.75 0 .41.33.75.75.75h4.5c.41 0 .75-.34.75-.75 0-.42-.34-.75-.75-.75h-4.5Zm1.25 4.75c0-.42.33-.75.75-.75h4.5c.41 0 .75.33.75.75 0 .41-.34.75-.75.75h-4.5c-.42 0-.75-.34-.75-.75Z"/></svg>