<svg viewBox="0 0 24 24" xmlns="http://www.w3.org/2000/svg"><path fill="currentColor" d="M10.51 4.25c.95-.34 2-.34 2.96 0 .03.01.07.02.1.03l5.91 2.09c.37.13.71.33.99.59v-.42c0-.85-.54-1.61-1.34-1.89l-5.17-1.84c-1.3-.47-2.72-.47-4.02 0L4.77 4.64c-.8.28-1.34 1.03-1.34 1.88v.41c.28-.26.62-.46.99-.6l5.91-2.1c.03-.02.07-.03.1-.04Zm2.73.97c-.82-.29-1.7-.29-2.51 0L4.81 7.31c-.8.28-1.34 1.03-1.34 1.88v8.23c0 .84.53 1.6 1.33 1.88l5.91 2.09c.81.28 1.69.28 2.5 0l5.91-2.1c.79-.29 1.33-1.04 1.33-1.89V9.16c0-.85-.54-1.61-1.34-1.89l-5.92-2.1ZM6.43 10.1c.13-.4.56-.6.95-.46l4.59 1.62 4.59-1.63c.39-.14.81.06.95.45 .13.39-.07.81-.46.95l-4.35 1.54v4.72c0 .41-.34.75-.75.75 -.42 0-.75-.34-.75-.75v-4.73l-4.35-1.55c-.4-.14-.6-.57-.46-.96Z"/></svg>