<svg viewBox="0 0 24 24" xmlns="http://www.w3.org/2000/svg"><path fill="currentColor" d="M6.5 2c-.56 0-1 .44-1 1v.11C3.49 3.56 2 5.35 2 7.49v.38c0 1.88 1.08 3.6 2.79 4.41l.7.33v6.14c-.89-.39-1.5-1.27-1.5-2.3v-.85c0-.56-.45-1-1-1 -.56 0-1 .44-1 1v.84c0 2.14 1.49 3.93 3.5 4.38v.12c0 .55.44 1 1 1 .55 0 1-.45 1-1v-.13c2-.46 3.5-2.25 3.5-4.39v-.38c0-1.89-1.09-3.61-2.8-4.41l-.71-.34V5.13c.88.38 1.49 1.26 1.49 2.29v.86c0 .55.44 1 1 1 .55 0 1-.45 1-1v-.87c0-2.15-1.5-3.94-3.5-4.39V2.9c0-.56-.45-1-1-1ZM4 7.49c0-1.03.61-1.91 1.5-2.3v5.2C4.57 9.88 4 8.91 4 7.85v-.39Zm3.5 11.27v-5.19c.92.5 1.49 1.46 1.49 2.52v.37c0 1.02-.62 1.9-1.5 2.29Zm7.5-6.78c0-.34.01-.66.04-.98l.95-.01c.55-.01.99-.45.99-1.01 -.01-.56-.45-1-1.01-1l-.58 0c.24-.81.57-1.53.97-2.13 .85-1.27 1.91-1.91 2.96-1.91 .37 0 .78.11 1.06.3 .45.31 1.07.19 1.39-.26 .31-.46.19-1.08-.26-1.4 -.66-.46-1.48-.66-2.2-.66 -1.92 0-3.54 1.15-4.63 2.78 -.62.92-1.1 2.02-1.39 3.23l-1.36 0c-.56 0-1 .44-1 1 0 .55.44 1 1 .99l1.03-.01c-.03.32-.04.64-.04.97 0 0 0 .01 0 .02l-1.01 0c-.56 0-1 .44-1 1 0 .55.44.99 1 .99l1.15-.01c.25 1.58.8 3.02 1.58 4.18 1.09 1.62 2.7 2.78 4.62 2.78 .69 0 1.53-.18 2.22-.68 .44-.33.54-.95.22-1.4 -.33-.45-.95-.55-1.4-.23 -.26.18-.65.29-1.06.29 -1.05 0-2.12-.64-2.97-1.9 -.56-.83-.99-1.88-1.22-3.08l.81-.01c.55-.01.99-.45.99-1.01 -.01-.56-.45-1-1.01-1l-1 0c0-.01 0-.02 0-.03Z"/></svg>