<svg viewBox="0 0 24 24" xmlns="http://www.w3.org/2000/svg"><path fill="currentColor" d="M7.5 3v.11c2 .45 3.5 2.24 3.5 4.38v.86c0 .55-.45 1-1.01 1s-1-.45-1-1v-.87c0-1.03-.62-1.91-1.5-2.3v6.15l.7.33c1.7.8 2.79 2.52 2.79 4.4v.37c0 2.14-1.5 3.93-3.5 4.38v.12c0 .55-.45 1-1 1 -.56 0-1-.45-1-1v-.13c-2.01-.46-3.5-2.25-3.5-4.39v-.85c0-.56.44-1 1-1 .55 0 1 .44 1 1v.84c0 1.02.61 1.9 1.5 2.29v-6.14l-.71-.34c-1.71-.81-2.8-2.53-2.8-4.42V7.4c0-2.15 1.49-3.94 3.5-4.39v-.12c0-.56.44-1 1-1 .55 0 1 .44 1 1Zm-2 2.2C4.61 5.58 4 6.46 4 7.49v.38c0 1.05.57 2.02 1.5 2.53V5.19Zm2 8.37v5.18c.88-.39 1.49-1.27 1.49-2.3v-.38c-.01-1.06-.58-2.03-1.5-2.53ZM13 2.98c-.56 0-1 .44-1 1 0 .55.44.99.99.99l0 0h2.5c.81 0 1.54.39 2 1h-4.51c-.56 0-1 .44-1 1 0 .55.44 1 1 1h4.95c-.24 1.14-1.25 2-2.45 2h-2.5c-.38 0-.72.2-.89.53 -.18.33-.15.72.06 1.03l7 10c.31.45.94.56 1.39.24 .45-.32.56-.95.24-1.4l-5.9-8.43h.57c2.31 0 4.22-1.75 4.47-4h1.02c.55 0 1-.45 1-1 0-.56-.45-1-1-1h-1.26c-.13-.36-.3-.7-.51-1h1.75c.55 0 1-.45 1-1 0-.56-.45-1-1-1h-8Z"/></svg>