<svg viewBox="0 0 24 24" xmlns="http://www.w3.org/2000/svg"><path fill="currentColor" d="M7.82 2.43c-.31-.46-.94-.58-1.39-.28 -.46.3-.58.93-.28 1.38l4.79 7.11 -2.33 3.67c-.5-.23-1.06-.35-1.64-.35 -2.21 0-4 1.79-4 4 0 2.2 1.79 4 4 4 2.2 0 4-1.8 4-4 0-.9-.3-1.73-.8-2.4l1.97-3.13 1.88 2.79c-.67.71-1.07 1.66-1.07 2.72 0 2.2 1.79 4 4 4 2.2 0 4-1.8 4-4 0-2.21-1.8-4-4-4 -.44 0-.86.06-1.25.19l-3.62-5.38 -.01 0L7.76 2.36ZM4.99 17.99c0-1.11.89-2 2-2 1.1 0 2 .89 2 2 0 1.1-.9 2-2 2 -1.11 0-2-.9-2-2Zm10 0c0-1.11.89-2 2-2 1.1 0 2 .89 2 2 0 1.1-.9 2-2 2 -1.11 0-2-.9-2-2Zm-.48-9.21l3.32-5.26c.29-.47.15-1.09-.32-1.38 -.47-.3-1.09-.16-1.38.31l-2.86 4.51 1.22 1.81Z"/></svg>