<svg viewBox="0 0 24 24" xmlns="http://www.w3.org/2000/svg"><path fill="currentColor" d="M12 10c4.41 0 8-1.8 8-4 0-2.21-3.59-4-8-4C7.58 2 4 3.79 4 6c0 2.2 3.58 4 8 4Zm6.32.17c.58-.3 1.17-.67 1.67-1.12v2.44c-.77-.33-1.62-.5-2.5-.5 -3.59 0-6.5 2.91-6.5 6.5 0 1.73.68 3.31 1.79 4.48 -.27.01-.53.01-.8.01 -4.42 0-8-1.8-8-4V9.03c.5.45 1.08.82 1.67 1.11 1.69.84 3.93 1.32 6.32 1.32s4.63-.49 6.32-1.33Zm-.83 1.82c3.03 0 5.5 2.46 5.5 5.5 0 3.03-2.47 5.5-5.5 5.5 -3.04 0-5.5-2.47-5.5-5.5 0-3.04 2.46-5.5 5.5-5.5Zm-3 5c-.28 0-.5.22-.5.5 0 .27.22.5.5.5h4.79l-1.65 1.64c-.2.19-.2.51 0 .7 .19.19.51.19.7 0l2.5-2.5c.19-.2.19-.52 0-.71l-2.5-2.5c-.2-.2-.52-.2-.71 0 -.2.19-.2.51 0 .7l1.64 1.64h-4.8Z"/></svg>