<svg viewBox="0 0 24 24" xmlns="http://www.w3.org/2000/svg"><path fill="currentColor" d="M12 9.6c3.97 0 7.2-1.62 7.2-3.6 0-1.99-3.23-3.6-7.2-3.6 -3.98 0-7.2 1.61-7.2 3.6 0 1.98 3.22 3.6 7.19 3.6Zm5.62.01c.56-.29 1.11-.65 1.57-1.08v2.25h-5.4c-1.66 0-3 1.34-3 3v7.2c0 .18.01.37.05.55 -3.44-.28-6.06-1.77-6.06-3.56V8.51c.45.43 1 .79 1.57 1.07 1.5.75 3.49 1.18 5.62 1.18s4.12-.43 5.62-1.19Zm-5.63 4.18c0-1 .8-1.8 1.8-1.8h7.2c.99 0 1.8.8 1.8 1.8v.6h-10.8v-.6Zm0 1.8h10.8v5.4c0 .99-.81 1.8-1.8 1.8h-7.2c-1 0-1.8-.81-1.8-1.8v-5.4Z"/></svg>