<svg viewBox="0 0 24 24" xmlns="http://www.w3.org/2000/svg"><path fill="currentColor" d="M21.6 4.8c0 1.98-3.23 3.6-7.2 3.6 -3.98 0-7.2-1.62-7.2-3.6 0-1.99 3.22-3.6 7.19-3.6s7.2 1.61 7.2 3.6Zm0 2.54c-.46.43-1.01.79-1.58 1.07 -1.51.75-3.5 1.18-5.63 1.18 -.75 0-1.48-.06-2.18-.16 1.12.63 2.06 1.6 2.16 2.92l.01-.01 -.01 2.69c-.01 1.41-.01 3.651-.01 4.73 0 .2-.03.4-.07.6l.06 0c3.97 0 7.2-1.62 7.2-3.6V7.3ZM8.77 8.41l.06.02c-.34-.04-.69-.05-1.04-.05 -.21 0-.41 0-.6.01V7.31c.45.43 1 .79 1.57 1.07Zm2.02 1.68c-.42-.16-.87-.28-1.35-.37 -.53-.1-1.08-.15-1.66-.15 -2.99 0-5.4 1.34-5.4 2.99 0 1.65 2.41 3 5.4 3 2.98 0 5.39-1.35 5.39-3 0-1.05-.96-1.96-2.41-2.5Zm1.4 5.66c-1.19.65-2.75 1.02-4.41 1.02 -1.66 0-3.22-.38-4.41-1.03 -.36-.2-.7-.44-1-.71v4.73c0 1.65 2.41 3 5.4 3 2.98 0 5.39-1.35 5.39-3 0-1.09 0-3.33 0-4.74 -.31.27-.65.51-1.01.7Z"/></svg>