<svg viewBox="0 0 24 24" xmlns="http://www.w3.org/2000/svg"><path fill="currentColor" d="M18.251 3c-1.25 0-2.25 1-2.25 2.24v5.92c.48-.12.98-.18 1.49-.18 1.08 0 2.1.26 3 .73V5.22c0-1.25-1.01-2.25-2.25-2.25Zm-4.26 6.24v2.77c-1.81 1.15-3.01 3.17-3.01 5.47 0 1.28.37 2.47 1.01 3.48 -.09 0-.18.01-.27.01 -1.25 0-2.25-1.01-2.25-2.25V9.21c0-1.25 1-2.25 2.24-2.25 1.24 0 2.24 1 2.24 2.24Zm-11 4c0-1.25 1-2.25 2.24-2.25 1.24 0 2.24 1 2.24 2.24v5.5c0 1.24-1.01 2.24-2.25 2.24 -1.25 0-2.25-1.01-2.25-2.25v-5.51Zm19.99 4.25c0 3.03-2.47 5.5-5.5 5.5 -3.04 0-5.5-2.47-5.5-5.5 0-3.04 2.46-5.5 5.5-5.5 3.03 0 5.5 2.46 5.5 5.5Zm-4.95-3.08c-.18-.57-.94-.57-1.12 0l-.56 1.78h-1.81c-.57 0-.81.75-.35 1.1l1.45 1.1 -.56 1.78c-.18.56.44 1.02.89.68l1.45-1.11 1.45 1.1c.45.34 1.07-.12.89-.69l-.56-1.79 1.45-1.11c.45-.35.22-1.11-.35-1.11h-1.81l-.56-1.79Z"/></svg>