<svg viewBox="0 0 24 24" xmlns="http://www.w3.org/2000/svg"><path fill="currentColor" d="M5 4c0-.56-.45-1-1-1 -.56 0-1 .44-1 1v13.5C3 19.43 4.56 21 6.5 21H20c.55 0 1-.45 1-1 0-.56-.45-1-1-1H6.5c-.83 0-1.5-.68-1.5-1.5V4Zm10 2c-.56 0-1 .44-1 1 0 .55.44 1 1 1h2.08l-3.84 3.83 -1.8-1.8c-.4-.4-1.03-.4-1.42 0l-3.26 3.25c-.4.39-.4 1.02 0 1.41 .39.39 1.02.39 1.41 0l2.54-2.55 1.79 1.79c.39.39 1.02.39 1.41 0l4.54-4.55 -.01 2.08c-.01.55.44 1 .99 1s1-.45 1-1l0-4.5c0-.27-.11-.52-.3-.71 -.19-.19-.45-.3-.71-.3h-4.51Z"/></svg>