<svg viewBox="0 0 24 24" xmlns="http://www.w3.org/2000/svg"><path fill="currentColor" d="M14.22 22.62c-.06.05-.13.1-.2.13 -.08.03-.16.04-.23.04 -.08 0-.16-.02-.23-.05 -.08-.04-.14-.08-.2-.14l-2.4-2.4c-.06-.06-.11-.13-.14-.2 -.04-.08-.05-.16-.05-.23 0-.08.01-.16.04-.23 .03-.08.07-.14.13-.2l2.4-2.4c.05-.06.12-.11.19-.14 .07-.04.15-.05.22-.05s.15.01.23.04c.07.03.13.07.19.13 .05.05.1.12.13.19s.04.15.04.22 -.02.15-.05.23c-.04.07-.08.13-.14.19l-1.38 1.37h6.7l-1.38-1.38c-.06-.06-.11-.13-.14-.2 -.04-.08-.05-.16-.05-.23 0-.08.01-.16.04-.23 .03-.08.07-.14.13-.2 .05-.06.12-.11.19-.14 .07-.04.15-.05.22-.05s.15.01.23.04c.07.03.13.07.19.13l2.4 2.4c.05.05.1.12.13.19s.04.15.04.22 -.02.15-.05.23c-.04.07-.08.13-.14.19l-2.4 2.4c-.06.05-.13.1-.2.13 -.08.03-.16.04-.23.04 -.08 0-.16-.02-.23-.05 -.08-.04-.14-.08-.2-.14 -.06-.06-.11-.13-.14-.2 -.04-.08-.05-.16-.05-.23 0-.08.01-.16.04-.23 .03-.08.07-.14.13-.2l1.37-1.38h-6.71l1.37 1.37c.05.05.1.12.13.19s.04.15.04.22 -.02.15-.05.23c-.04.07-.08.13-.14.19ZM11.99 9.59c3.97 0 7.2-1.62 7.2-3.6 0-1.99-3.23-3.6-7.2-3.6 -3.98 0-7.2 1.61-7.2 3.6 0 1.98 3.22 3.6 7.19 3.6Zm-1.88 11.47c-.17-.17-.3-.37-.4-.59 -.1-.22-.14-.46-.14-.69 0-.24.04-.48.13-.69 .09-.22.22-.42.39-.59l2.4-2.4c.16-.17.36-.31.58-.4 .21-.1.45-.14.68-.14 .23-.01.47.04.68.13 .21.09.41.22.58.39 .24.24.4.54.48.87 .07.33.05.67-.06.99h1.4c-.12-.33-.14-.67-.06-1 .07-.34.24-.64.48-.88 .16-.17.36-.31.58-.4 .21-.1.45-.14.68-.14 .2 0 .4.03.6.1V8.45c-.24.21-.49.42-.75.6 -.27.17-.54.33-.83.48 -.4.19-.8.36-1.22.5 -1.43.46-2.92.68-4.42.67 -1.5.01-2.99-.22-4.42-.68 -.42-.14-.83-.31-1.22-.51 -.29-.15-.57-.31-.83-.48 -.27-.18-.52-.38-.75-.6v9.45c0 1.74 2.484 3.18 5.77 3.52l-.45-.45Z"/></svg>