<svg viewBox="0 0 24 24" xmlns="http://www.w3.org/2000/svg"><path fill="currentColor" d="M12 9.6c3.97 0 7.2-1.62 7.2-3.6 0-1.99-3.23-3.6-7.2-3.6 -3.98 0-7.2 1.61-7.2 3.6 0 1.98 3.22 3.6 7.19 3.6Zm5.62.01c.56-.29 1.11-.65 1.57-1.08v2.5c-.58-.17-1.18-.25-1.8-.25 -3.65 0-6.6 2.95-6.6 6.6 0 1.59.56 3.05 1.5 4.19 -.11 0-.21 0-.31 0 -3.98 0-7.2-1.62-7.2-3.6V8.51c.45.43 1 .79 1.57 1.07 1.5.75 3.49 1.18 5.62 1.18s4.12-.43 5.62-1.19Zm5.17 7.78c0 2.98-2.42 5.4-5.4 5.4 -2.99 0-5.4-2.42-5.4-5.4 0-2.99 2.41-5.4 5.4-5.4 2.98 0 5.4 2.41 5.4 5.4Zm-5.83 2.82l0 0c.05.05.12.09.19.12 .06.02.14.04.22.04h0 0c.08-.01.15-.02.22-.05 .07-.03.13-.08.19-.14l2.4-2.4c.23-.24.23-.62 0-.85 -.24-.24-.62-.24-.85 0l-1.38 1.37v-3.36c0-.34-.27-.6-.6-.6 -.34 0-.6.26-.6.6v3.35l-1.38-1.38c-.24-.24-.62-.24-.85 0 -.24.23-.24.61 0 .84l2.39 2.39Z"/></svg>