<svg viewBox="0 0 24 24" xmlns="http://www.w3.org/2000/svg"><path fill="currentColor" d="M17.25 1.99c1.51 0 2.75 1.23 2.75 2.75v6.6c-.24-.07-.49-.11-.75-.11H16V6.7c0-.41-.34-.73-.75-.73 -.42 0-.75.32-.75.72v4.82c-.9.45-1.5 1.38-1.5 2.45v.05c-.49.09-.92.33-1.26.67l-.03-3.01c-.01-.41-.34-.73-.74-.72 -.41 0-.73.33-.73.73l.03 3.54c0 .4.33.72.73.71 0-.01.01-.01.02-.01 -.04.16-.06.33-.06.5v3.49H4.71c-1.52 0-2.75-1.24-2.75-2.75V4.65c0-1.52 1.23-2.75 2.75-2.75h12.5Zm-10.5 6c-.42 0-.75.33-.75.74v6.5c0 .41.33.74.75.74 .41 0 .75-.34.75-.75V8.71c0-.42-.34-.75-.75-.75Zm7.25 7h-.5c-.83 0-1.5.67-1.5 1.5v1.5h2.5v-.25c0-.42.33-.75.75-.75 .41 0 .75.33.75.75v.25h3v-.25c0-.42.33-.75.75-.75 .41 0 .75.33.75.75v.25H23v-1.5c0-.83-.68-1.5-1.5-1.5H21v-1c0-.97-.79-1.75-1.75-1.75h-3.5c-.97 0-1.75.78-1.75 1.75v1Zm1.5-1c0-.14.11-.25.25-.25h3.5c.13 0 .25.11.25.25v1h-4v-1Zm-3.5 7.5v-2h2.5v.75c0 .41.33.75.75.75 .41 0 .75-.34.75-.75v-.75h3v.75c0 .41.33.75.75.75 .41 0 .75-.34.75-.75v-.75H23v2c0 .82-.68 1.5-1.5 1.5h-8c-.83 0-1.5-.68-1.5-1.5Z"/></svg>