<svg viewBox="0 0 24 24" xmlns="http://www.w3.org/2000/svg"><path fill="currentColor" d="M18.25 2.99c1.51 0 2.75 1.23 2.75 2.75v12.5c0 1.51-1.24 2.75-2.75 2.75H5.75C4.23 20.99 3 19.75 3 18.24V5.73c0-1.52 1.23-2.75 2.75-2.75h12.5Zm-10.5 6c-.42 0-.75.33-.75.74v6.5c0 .41.33.74.75.74 .41 0 .75-.34.75-.75V9.71c0-.42-.34-.75-.75-.75Zm8.5-2c-.42 0-.75.32-.75.72v8.54c0 .4.33.72.75.72 .41 0 .75-.33.75-.73V7.69c0-.41-.34-.73-.75-.73Zm-4.28 4.99c-.41 0-.73.33-.73.73l.03 3.54c0 .4.33.72.73.71 .4-.01.72-.34.72-.74l-.04-3.55c-.01-.41-.34-.73-.74-.72Z"/></svg>