<svg viewBox="0 0 24 24" xmlns="http://www.w3.org/2000/svg"><path fill="currentColor" d="M18.24 3c-1.25 0-2.25 1-2.25 2.24v5.92c.48-.12.98-.18 1.49-.18h0c1.08 0 2.1.26 2.99.73V5.22c0-1.25-1.01-2.25-2.25-2.25Zm-4.26 6.24v2.77c-1.81 1.15-3 3.17-3 5.47 0 1.28.37 2.47 1.01 3.48 -.09 0-.18.01-.27.01 -1.25 0-2.25-1.01-2.25-2.25V9.21c0-1.25 1-2.25 2.24-2.25 1.24 0 2.24 1 2.24 2.24Zm-11 4c0-1.25 1-2.25 2.24-2.25 1.24 0 2.24 1 2.24 2.24v5.5c0 1.24-1.01 2.24-2.25 2.24 -1.25 0-2.25-1.01-2.25-2.25v-5.51Zm20 4.25c0-3.04-2.47-5.5-5.5-5.5 -3.04 0-5.5 2.46-5.5 5.5 0 3.03 2.46 5.5 5.5 5.5 3.03 0 5.5-2.47 5.5-5.5Zm-5 .5l0 2.5c0 .27-.23.5-.5.5 -.28 0-.5-.23-.5-.5l-.01-2.51h-2.51c-.28 0-.5-.23-.5-.5 0-.28.22-.5.49-.5h2.5l-.01-2.51c0-.28.22-.5.5-.5 .27 0 .5.22.5.5l0 2.5h2.49c.27 0 .49.22.49.5 0 .27-.23.5-.5.5h-2.5Z"/></svg>