<svg viewBox="0 0 24 24" xmlns="http://www.w3.org/2000/svg"><path fill="currentColor" d="M2.4 7.19c0-1.99 1.61-3.6 3.6-3.6h9.59c1.98 0 3.6 1.61 3.6 3.6v3.85c-.17-.05-.34-.09-.52-.13 -1.03-.21-2.09-.17-3.09.12V7.77c0-.34-.27-.6-.6-.6 -.34 0-.6.26-.6.6v3.72c-1.01.51-1.86 1.27-2.49 2.21 -.2.29-.37.59-.52.91v-2.06c0-.34-.27-.6-.6-.6 -.34 0-.6.26-.6.6v3.6c0 .33.26.6.6.6 0 0 .01-.01.02-.01 -.02.19-.03.39-.03.6 0 1.05.25 2.07.72 3H5.95c-1.99 0-3.6-1.62-3.6-3.6V7.13Zm4.2 2.4c-.34 0-.6.26-.6.6v6c0 .33.26.6.6.6 .33 0 .6-.27.6-.6v-6c0-.34-.27-.61-.6-.61Zm7.87 4.13c.36 1.29-.42 2.64-1.72 2.97l-.56.14c-.02.18-.03.36-.03.55 0 .22.01.44.03.66l.41.09c1.34.31 2.14 1.7 1.74 3.02l-.16.5c.3.24.64.45 1 .62l.39-.42c.94-1.01 2.54-1.01 3.49 0l.4.42c.35-.17.68-.37.98-.6l-.19-.67c-.37-1.3.41-2.64 1.71-2.98l.55-.15c.01-.19.02-.37.02-.56 0-.23-.02-.45-.04-.67l-.42-.1c-1.35-.32-2.15-1.71-1.75-3.03l.15-.51c-.31-.25-.65-.46-1.01-.63l-.39.41c-.95 1-2.55 1-3.5-.01l-.41-.43c-.36.16-.69.36-.99.59l.18.66Zm2.92 4.86c-.67 0-1.2-.54-1.2-1.2 0-.67.53-1.21 1.2-1.21 .66 0 1.2.53 1.2 1.2 0 .66-.54 1.19-1.2 1.19Z"/></svg>