<svg viewBox="0 0 24 24" xmlns="http://www.w3.org/2000/svg"><path fill="currentColor" d="M12 10c4.41 0 8-1.8 8-4 0-2.21-3.59-4-8-4C7.58 2 4 3.79 4 6c0 2.2 3.58 4 8 4Zm6.32.17c.58-.3 1.17-.67 1.67-1.12v3.2c-.96-.79-2.18-1.26-3.5-1.26 -.18 0-.35 0-.53.02 .85-.22 1.64-.51 2.34-.86Zm-7.33 6.32c0 2.45 1.6 4.53 3.83 5.24 -.89.16-1.84.25-2.84.25 -4.42 0-8-1.8-8-4V9.03c.5.45 1.08.82 1.67 1.11 1.69.84 3.93 1.32 6.32 1.32 .95 0 1.89-.08 2.77-.23 -2.2.72-3.78 2.78-3.78 5.22Zm5.5 4.5c.97 0 1.87-.31 2.6-.84l2.61 2.61c.29.29.76.29 1.06 0 .29-.3.29-.77 0-1.07l-2.62-2.62c.52-.74.83-1.64.83-2.61 0-2.49-2.02-4.5-4.5-4.5 -2.49 0-4.5 2.01-4.5 4.5 0 2.48 2.01 4.5 4.5 4.5Zm0-1.5c-1.66 0-3-1.35-3-3 0-1.66 1.34-3 3-3 1.65 0 3 1.34 3 3 0 1.65-1.35 3-3 3Z"/></svg>