<svg viewBox="0 0 24 24" xmlns="http://www.w3.org/2000/svg"><path fill="currentColor" d="M15 3.51c0 .32.2.6.49.73 1.88.85 3.4 2.37 4.25 4.25 .13.29.41.49.73.49 .52 0 .89-.51.68-.99 -1.01-2.32-2.88-4.18-5.19-5.19 -.48-.21-.99.16-.99.68Zm-6.99-.69c.47-.21.98.16.98.68 0 .32-.21.6-.5.73 -1.89.85-3.41 2.37-4.26 4.25 -.14.29-.42.49-.74.49 -.53 0-.9-.51-.69-.99 1-2.32 2.87-4.18 5.18-5.19Zm6.98 17.66c0-.33.2-.61.49-.74 1.88-.86 3.4-2.38 4.25-4.26 .13-.3.41-.5.73-.5 .52 0 .89.5.68.98 -1.01 2.31-2.88 4.17-5.19 5.18 -.48.2-.99-.17-.99-.69Zm-10.76-5c-.14-.3-.42-.5-.74-.5 -.53 0-.9.5-.69.98 1 2.31 2.87 4.17 5.18 5.18 .47.2.98-.17.98-.69 0-.33-.21-.61-.5-.74 -1.89-.86-3.41-2.38-4.26-4.26Zm7.75-9c-.2 0-.39 0-.58.02 -.42.04-.79-.26-.83-.67 -.05-.42.25-.79.66-.83 .23-.03.48-.04.72-.04 3.33 0 6.11 2.32 6.82 5.44 .09.4-.17.8-.57.89 -.41.09-.81-.17-.9-.57 -.56-2.45-2.75-4.28-5.37-4.28Zm-2.88-.1c.23.34.14.8-.21 1.04 -1.47.99-2.43 2.66-2.43 4.55 0 1.14.34 2.2.94 3.07 .23.34.14.8-.21 1.04 -.35.23-.81.14-1.05-.21 -.76-1.12-1.21-2.47-1.21-3.93 0-2.42 1.22-4.55 3.07-5.8 .34-.24.8-.15 1.04.2Zm9.1 6.5c.4.1.63.51.52.91 -.81 2.98-3.53 5.17-6.76 5.17 -1.18 0-2.28-.29-3.25-.8 -.37-.2-.51-.65-.32-1.02s.64-.51 1.01-.32c.76.4 1.62.62 2.55.62 2.54 0 4.68-1.73 5.31-4.07 .1-.4.51-.64.91-.53Zm-6.24-4.91c-2.21 0-4.01 1.79-4.01 4 0 2.2 1.79 4 4 4 2.2 0 4-1.8 4-4 0-2.21-1.8-4.01-4-4.01Z"/></svg>