<svg viewBox="0 0 24 24" xmlns="http://www.w3.org/2000/svg"><path fill="currentColor" d="M20 4.74c0-1.52-1.24-2.75-2.75-2.75H4.75C3.23 1.99 2 3.22 2 4.74v12.5c0 1.51 1.23 2.75 2.75 2.75h6.666l.1-.42c.16-.65.49-1.24.96-1.72l2.15-2.16c-.1-.13-.15-.28-.15-.44V6.7c0-.41.33-.73.75-.73 .41 0 .75.32.75.72v7.62l2.39-2.4c.45-.46 1.01-.76 1.6-.89V4.68Zm-14 4c0-.42.33-.75.75-.75 .41 0 .75.33.75.74v6.5c0 .41-.34.74-.75.74 -.42 0-.75-.34-.75-.75V8.71Zm4.25 2.98c-.01-.41.32-.73.72-.74 .4-.01.73.31.73.71l.03 3.54c0 .4-.33.72-.73.73 -.41 0-.74-.32-.74-.72l-.04-3.55Zm8.84.93l-5.91 5.9c-.35.34-.59.77-.71 1.24l-.46 1.83c-.2.79.52 1.51 1.31 1.31l1.83-.46c.47-.12.9-.37 1.24-.71l5.9-5.91c.89-.9.89-2.34 0-3.24 -.9-.9-2.34-.9-3.24 0Z"/></svg>