<svg viewBox="0 0 24 24" xmlns="http://www.w3.org/2000/svg"><path fill="currentColor" d="M12 10c4.41 0 8-1.8 8-4 0-2.21-3.59-4-8-4C7.58 2 4 3.79 4 6c0 2.2 3.58 4 8 4Zm6.32.17c.58-.3 1.17-.67 1.67-1.12v4c-.25-.04-.5-.06-.75-.06h-3.5c-2.63 0-4.75 2.12-4.75 4.75 0 1.8 1 3.37 2.49 4.18 -.49.04-.99.06-1.5.06 -4.42 0-8-1.8-8-4V9.03c.5.45 1.08.82 1.67 1.11 1.69.84 3.93 1.32 6.32 1.32s4.63-.49 6.32-1.33Zm4.67 7.57c0-2.08-1.68-3.75-3.75-3.75l-.11 0c-.37.04-.65.36-.65.74 0 .41.33.75.75.75l.15 0c1.17.07 2.096 1.05 2.096 2.24 0 1.24-1.01 2.25-2.25 2.25l-.01 0 -.11 0c-.37.05-.65.36-.65.74 0 .41.33.74.75.74v-.01l.19-.01c1.97-.11 3.54-1.75 3.54-3.75Zm-6.5-3c0-.42-.34-.75-.75-.75l-.2 0c-1.98.1-3.56 1.74-3.56 3.74 0 2.07 1.67 3.75 3.75 3.75l.1-.01c.36-.05.64-.37.64-.75 0-.42-.34-.75-.75-.75l-.16-.01c-1.18-.08-2.096-1.06-2.096-2.25 0-1.25 1-2.25 2.25-2.25l.1-.01c.36-.05.64-.37.64-.75Zm3.5 3c0-.42-.34-.75-.75-.75h-3.5l-.11 0c-.37.04-.65.36-.65.74 0 .41.33.75.75.75h3.5l.1-.01c.36-.05.64-.37.64-.75Z"/></svg>