<svg viewBox="0 0 24 24" xmlns="http://www.w3.org/2000/svg"><defs><clipPath id="a"><path d="M0 0h24v24H0Z"/></clipPath></defs><path clip-path="url(#a)" fill="currentColor" d="M19.2 6c0 1.98-3.23 3.6-7.2 3.6 -3.98 0-7.2-1.62-7.2-3.6 0-1.99 3.22-3.6 7.19-3.6s7.2 1.61 7.2 3.6Zm-1.58 3.61c.12-.07.24-.13.37-.2v.25c-.64.16-1.21.57-1.55 1.25l-4.2 8.39c-.39.77-.32 1.61.06 2.27 -.11 0-.22 0-.33 0 -3.98 0-7.2-1.62-7.2-3.6V8.51c.45.43 1 .79 1.57 1.07 1.5.75 3.49 1.18 5.62 1.18s4.12-.43 5.62-1.19Zm-.11 1.84l-4.2 8.39c-.4.79.18 1.73 1.07 1.73h8.39c.89 0 1.47-.94 1.07-1.74l-4.2-8.4c-.45-.89-1.71-.89-2.15 0Zm1.67 2.32v3.6c0 .33-.27.6-.61.6 -.34 0-.61-.27-.61-.61v-3.61c0-.34.26-.61.6-.61 .33 0 .6.26.6.6Zm-.61 6.6c-.34 0-.61-.27-.61-.61 0-.34.26-.61.6-.61 .33 0 .6.26.6.6 0 .33-.27.6-.61.6Z"/></svg>