<svg viewBox="0 0 24 24" xmlns="http://www.w3.org/2000/svg"><path fill="currentColor" d="M12 9.6c3.97 0 7.2-1.62 7.2-3.6 0-1.99-3.23-3.6-7.2-3.6 -3.98 0-7.2 1.61-7.2 3.6 0 1.98 3.22 3.6 7.19 3.6Zm5.62.01c.56-.29 1.11-.65 1.57-1.08v3.58c-.38.02-.74.11-1.09.26 -.44.18-.83.44-1.17.77l-.72.72c-.45.44-.7 1.05-.7 1.68 0 .04 0 .09 0 .14 -.05-.01-.1-.01-.15-.01 -.64 0-1.24.25-1.68.69l-.72.72c-.45.44-.77 1-.93 1.61 -.17.6-.17 1.25 0 1.86l-.92.91c-.03.02-.05.04-.06.06 -3.56-.23-6.31-1.74-6.31-3.58V8.48c.45.43 1 .79 1.57 1.07 1.5.75 3.49 1.18 5.62 1.18s4.12-.43 5.62-1.19Zm5.4 3.4c.11-.12.17-.27.17-.43 0-.16-.07-.32-.18-.43 -.12-.12-.27-.18-.43-.18 -.16-.01-.32.06-.43.17l-1.43 1.42c-.02.02-.03.04-.05.06 -.46-.28-1-.39-1.53-.33s-1.03.3-1.4.68l-.72.72c-.23.22-.35.51-.35.83 0 .31.12.61.34.83l1.73 1.72c.22.22.52.34.83.34 .31 0 .61-.13.83-.35l.72-.72c.37-.38.61-.88.68-1.41 .06-.53-.05-1.07-.33-1.53 .02-.02.04-.03.06-.05l1.41-1.43Zm-6.81 4.22c-.11-.11-.24-.2-.39-.26 -.15-.06-.3-.09-.45-.09 -.16 0-.31.03-.46.08 -.15.05-.28.14-.39.25l-.72.72c-.38.37-.62.87-.69 1.4 -.07.52.04 1.06.32 1.52 -.03.01-.05.02-.07.04l-1.42 1.42c-.11.11-.17.26-.17.42 0 .15.06.3.17.41 .11.11.26.17.41.17 .15 0 .3-.06.42-.17l1.42-1.43c.01-.03.03-.05.04-.07 .45.27.99.38 1.52.32 .52-.07 1.02-.31 1.39-.69l.72-.72c.22-.23.34-.53.34-.84 0-.32-.13-.62-.35-.84l-1.74-1.73Z"/></svg>