<svg viewBox="0 0 24 24" xmlns="http://www.w3.org/2000/svg"><path fill="currentColor" d="M12 9.6c3.97 0 7.2-1.62 7.2-3.6 0-1.99-3.23-3.6-7.2-3.6 -3.98 0-7.2 1.61-7.2 3.6 0 1.98 3.22 3.6 7.19 3.6Zm5.62.01c.56-.29 1.11-.65 1.57-1.08v2.25h-2.3c-.73 0-1.39.43-1.67 1.1l-2.5 6c-.5 1.18.37 2.49 1.66 2.49h.56l-.24.93c-.85.17-1.77.26-2.74.26 -3.98 0-7.2-1.62-7.2-3.6V8.5c.45.43 1 .79 1.57 1.07 1.5.75 3.49 1.18 5.62 1.18s4.12-.43 5.62-1.19Zm-1.9 9.58c.39 0 .67.36.58.74l-.53 2.08c-.15.57.55.99.99.58l5.84-5.46c.59-.56.2-1.56-.62-1.56h-.49c-.41 0-.7-.41-.57-.79l.67-2.03c.12-.39-.16-.79-.57-.79h-4.17c-.25 0-.47.14-.56.36l-2.5 6c-.17.39.12.83.55.83h1.33Z"/></svg>