<svg viewBox="0 0 24 24" xmlns="http://www.w3.org/2000/svg"><path fill="currentColor" d="M20 6.5c0 2.2-3.59 4-8 4 -4.42 0-8-1.8-8-4 0-2.21 3.58-4 8-4 4.41 0 8 1.79 8 4Zm-2.24 4.42c-1.62.68-3.64 1.07-5.77 1.07 -2.4 0-4.64-.49-6.33-1.33 -.59-.3-1.18-.67-1.68-1.12v8.94c0 2.2 3.58 4 8 4 .55 0 1.09-.03 1.61-.09 -.42-.63-.62-1.34-.62-2.05v-.11c0-1.54 1.24-2.78 2.77-2.78h.27c-.65-.64-1.06-1.53-1.06-2.5 0-1.37.78-2.56 1.93-3.13 .39-.2.72-.52.83-.95Zm3.23 4.07c0 1.38-1.12 2.5-2.5 2.5 -1.39 0-2.5-1.12-2.5-2.5 0-1.39 1.11-2.5 2.5-2.5 1.38 0 2.5 1.11 2.5 2.5Zm2 5.375c0 1.55-1.29 3.125-4.5 3.125 -3.22 0-4.5-1.57-4.5-3.125v-.11c0-.98.79-1.78 1.77-1.78h5.45c.97 0 1.77.79 1.77 1.77v.1Z"/></svg>