<svg viewBox="0 0 24 24" xmlns="http://www.w3.org/2000/svg"><path fill="currentColor" d="M5.75 2c-.42 0-.75.33-.75.75 0 .41.33.75.75.75h1V5h-.5C5 5 4 6 4 7.25V11h7V7.25C11 6 9.99 5 8.75 5h-.5V3.5h1c.41 0 .75-.34.75-.75 0-.42-.34-.75-.75-.75h-3.5Zm0 16c-.42 0-.75.33-.75.75 0 .41.33.75.75.75h3.5c.41 0 .75-.34.75-.75 0-.42-.34-.75-.75-.75h-1v-1.5h.5c1.24 0 2.25-1.01 2.25-2.25V12.5H4v1.75c0 1.24 1 2.25 2.25 2.25h.5V18h-1ZM14 4.75c0-.42.33-.75.75-.75h3.5c.41 0 .75.33.75.75 0 .41-.34.75-.75.75h-1V7h.5C18.99 7 20 8 20 9.25V11h-7V9.25C13 8 14 7 15.25 7h.5V5.5h-1c-.42 0-.75-.34-.75-.75Zm-1 11.5V12.5h7v3.75c0 1.24-1.01 2.25-2.25 2.25h-.5V20h1c.41 0 .75.33.75.75 0 .41-.34.75-.75.75h-3.5c-.42 0-.75-.34-.75-.75 0-.42.33-.75.75-.75h1v-1.5h-.5C14 18.5 13 17.49 13 16.25Z"/></svg>