<svg viewBox="0 0 24 24" xmlns="http://www.w3.org/2000/svg"><path fill="currentColor" d="M10 4C8.34 4 7 5.34 7 7v4c0 1.65 1.34 3 3 3 1.65 0 3-1.35 3-3V7c0-1.66-1.35-3-3-3Zm1 7c0 .55-.45 1-1 1 -.56 0-1-.45-1-1V7c0-.56.44-1 1-1 .55 0 1 .44 1 1v4Zm-6 1.5c0 .82-.68 1.5-1.5 1.5 -.83 0-1.5-.68-1.5-1.5 0-.83.67-1.5 1.5-1.5 .82 0 1.5.67 1.5 1.5ZM19 7v4c0 .05-.01.11-.02.17 .66.15 1.29.41 1.86.75 .09-.3.14-.61.14-.94v-4c0-1.66-1.35-3-3-3 -1.66 0-3 1.34-3 3v4c0 .16.01.32.03.48 .61-.26 1.27-.42 1.96-.47l-.01-.02v-4c0-.56.44-1 1-1 .55 0 1 .44 1 1Zm4 10.5c0 3.03-2.47 5.5-5.5 5.5 -3.04 0-5.5-2.47-5.5-5.5 0-3.04 2.46-5.5 5.5-5.5 3.03 0 5.5 2.46 5.5 5.5Zm-2.5.5c.27 0 .5-.23.5-.5 0-.28-.23-.5-.5-.5h-4.8l1.64-1.65c.19-.2.19-.52 0-.71 -.2-.2-.52-.2-.71 0l-2.5 2.5c-.2.19-.2.51 0 .7l2.5 2.5c.19.19.51.19.7 0 .19-.2.19-.52 0-.71l-1.65-1.65h4.79Z"/></svg>