<svg viewBox="0 0 24 24" xmlns="http://www.w3.org/2000/svg"><path fill="currentColor" d="M3.93 5L2.21 3.28c-.3-.3-.3-.77 0-1.07 .29-.3.76-.3 1.06 0l18.49 18.5c.29.29.29.76 0 1.06 -.3.29-.77.29-1.07 0l-2.2-2.2c-.55 1.41-1.92 2.4-3.503 2.4h-6.06c-1.94 0-3.55-1.47-3.74-3.39L4.007 6.46H2.68c-.42 0-.75-.34-.75-.75 0-.42.33-.75.75-.75h1.18Zm11.06 11.06l-1.5-1.5v2.68c0 .41.33.75.75.75 .41 0 .75-.34.75-.75v-1.19Zm-4.5-4.51l-1.5-1.5v7.18c0 .41.33.75.75.75 .41 0 .75-.34.75-.75v-5.69Zm4.5-1.82v2.06l4.02 4.02 .9-9.35h1.31c.41 0 .75-.34.75-.75 0-.42-.34-.75-.75-.75h-5.75c0-1.94-1.57-3.5-3.5-3.5 -1.94 0-3.5 1.56-3.5 3.5h-.32l5.31 5.31V9.7c0-.42.33-.75.75-.75 .41 0 .75.33.75.75Zm-1-4.75h-4c0-1.11.89-2 2-2 1.1 0 2 .89 2 2Z"/></svg>