<svg viewBox="0 0 24 24" xmlns="http://www.w3.org/2000/svg"><path fill="currentColor" d="M13.79 4.79c0-1-.81-1.8-1.8-1.8 -1 0-1.8.8-1.8 1.8h3.6Zm-4.8 0c0-1.66 1.34-3 3-3 1.65 0 3 1.34 3 3h6c.33 0 .6.26.6.6 0 .33-.27.6-.6.6h-1.27l-.59 5.03c-.56-.16-1.15-.24-1.76-.24 -3.65 0-6.6 2.95-6.6 6.6 0 1.59.56 3.05 1.5 4.2H9.23c-1.83 0-3.37-1.38-3.58-3.19L4.21 5.97H2.94c-.34 0-.6-.27-.6-.6 0-.34.26-.6.6-.6h6Zm8.4 18c2.98 0 5.4-2.42 5.4-5.4 0-2.99-2.42-5.4-5.4-5.4 -2.99 0-5.4 2.41-5.4 5.4 0 2.98 2.41 5.4 5.4 5.4Zm-1.08-7.68l-1.08 1.07h1.85c1.82 0 3.3 1.47 3.3 3.3v.3c0 .33-.27.6-.6.6 -.34 0-.6-.27-.6-.6v-.3c0-1.16-.95-2.1-2.1-2.1h-1.86l1.07 1.07c.23.23.23.61 0 .84 -.24.23-.62.23-.85 0l-2.11-2.11c-.06-.06-.1-.13-.13-.2 -.03-.08-.05-.15-.05-.23 0-.09.01-.16.04-.23 .02-.08.07-.14.13-.2l2.1-2.1c.23-.24.61-.24.84 0 .23.23.23.61 0 .84Z"/></svg>