<svg viewBox="0 0 24 24" xmlns="http://www.w3.org/2000/svg"><path fill="currentColor" d="M10 5h4c0-1.11-.9-2-2-2 -1.11 0-2 .89-2 2ZM8.5 5c0-1.94 1.56-3.5 3.5-3.5 1.93 0 3.5 1.56 3.5 3.5h5.75c.41 0 .75.33.75.75 0 .41-.34.75-.75.75h-1.32l-1.18 12.11c-.19 1.92-1.81 3.38-3.74 3.38H8.95c-1.94 0-3.55-1.47-3.74-3.39L4.03 6.48H2.71c-.42 0-.75-.34-.75-.75 0-.42.33-.75.75-.75h5.75Zm2 4.75c0-.42-.34-.75-.75-.75 -.42 0-.75.33-.75.75v7.5c0 .41.33.75.75.75 .41 0 .75-.34.75-.75v-7.5ZM14.25 9c-.42 0-.75.33-.75.75v7.5c0 .41.33.75.75.75 .41 0 .75-.34.75-.75v-7.5c0-.42-.34-.75-.75-.75Z"/></svg>