<svg viewBox="0 0 24 24" xmlns="http://www.w3.org/2000/svg"><path fill="currentColor" d="M14 5c0-1.11-.9-2-2-2 -1.11 0-2 .89-2 2h4ZM8.5 5c0-1.94 1.56-3.5 3.5-3.5 1.93 0 3.5 1.56 3.5 3.5h5.75c.41 0 .75.33.75.75 0 .41-.34.75-.75.75h-1.32l-.51 5.19c-.88-.45-1.88-.7-2.93-.7 -3.59 0-6.5 2.91-6.5 6.5 0 1.74.68 3.33 1.8 4.5H8.95c-1.94 0-3.55-1.47-3.74-3.39L4.03 6.48H2.71c-.42 0-.75-.34-.75-.75 0-.42.33-.75.75-.75h5.75ZM22 17.5c0 3.03-2.47 5.5-5.5 5.5 -3.04 0-5.5-2.47-5.5-5.5 0-3.04 2.46-5.5 5.5-5.5 3.03 0 5.5 2.46 5.5 5.5Zm-7.15-2.36c-.2-.2-.52-.2-.71 0 -.2.19-.2.51 0 .7l1.64 1.64 -1.65 1.64c-.2.19-.2.51 0 .7 .19.19.51.19.7 0l1.64-1.65 1.64 1.64c.19.19.51.19.7 0 .19-.2.19-.52 0-.71l-1.65-1.65 1.64-1.65c.19-.2.19-.52 0-.71 -.2-.2-.52-.2-.71 0l-1.65 1.64 -1.65-1.65Z"/></svg>