<svg viewBox="0 0 24 24" xmlns="http://www.w3.org/2000/svg"><path fill="currentColor" d="M4.35 4.38c.99-.84 2.28-1.39 3.39-1.39 .86 0 1.55.13 2.1.37 .55.23.95.54 1.25.84 .13.12.24.25.34.36l.03.03c.1.11.18.2.26.26 .12.11.17.12.25.12 .07 0 .12-.02.25-.13 .07-.07.15-.15.26-.27l.03-.04c.09-.11.21-.24.34-.37 .3-.3.69-.61 1.25-.85 .55-.24 1.23-.38 2.1-.38 1.1 0 2.39.55 3.39 1.38 1 .83 1.85 2.08 1.85 3.56 0 .77-.01 2.3-1.38 3.93 -.37.58-.63 1.27-.63 1.86 -.02 1.92-.44 3.55-1.09 4.72 -.62 1.11-1.56 2.02-2.67 2.02 -.36 0-.7-.11-.98-.32 -.28-.21-.46-.48-.58-.74 -.24-.52-.35-1.18-.42-1.81 -.04-.27-.06-.53-.09-.8 -.12-1.11-.24-2.26-.63-3.3 -.19-.36-.51-.56-.82-.56h-.5c-.32 0-.65.2-.83.57 -.55 1.11-.62 2.36-.68 3.56 -.01.15-.02.31-.03.46 -.04.61-.1 1.29-.34 1.82 -.13.28-.32.56-.62.76 -.31.2-.66.29-1.03.29 -1.24 0-2.19-.88-2.79-2.04 -.61-1.19-.95-2.81-.97-4.71 -.01-.54-.21-1.15-.53-1.7 -.06-.1-.14-.2-.27-.35 -1.22-1.45-1.22-3.04-1.22-3.75l0-.02c0-1.48.84-2.73 1.85-3.57Zm11.39 1.61c-.42 0-.75.33-.75.75 0 .41.33.75.75.75 .71 0 1.25.53 1.25 1.25 0 .41.33.75.75.75 .41 0 .75-.34.75-.75 0-1.55-1.21-2.75-2.75-2.75Z"/></svg>