<svg viewBox="0 0 24 24" xmlns="http://www.w3.org/2000/svg"><path fill="currentColor" d="M5.57 2.07c.25.12.42.38.42.67 0 .82.31 1.3.7 1.88l.02.04c.33.49.76 1.14.76 2.06 0 .94-.48 1.77-1.21 2.27 .19.16.36.35.5.59 .47.76.69 1.94.69 3.63 0 1.71-.23 3.76-.61 5.4 -.19.81-.42 1.56-.7 2.13 -.14.28-.31.55-.52.76 -.21.21-.53.43-.95.43 -.43 0-.74-.23-.95-.44 -.21-.22-.38-.49-.52-.77 -.28-.57-.51-1.32-.7-2.14 -.38-1.65-.61-3.7-.61-5.41 0-1.7.22-2.87.69-3.64 .14-.24.31-.44.5-.6 -.73-.5-1.21-1.33-1.21-2.28 0-.37 0-1.01.38-1.82 .37-.8 1.08-1.72 2.39-2.77 .22-.19.53-.22.79-.1Zm4.42 12.84c-.54-.1-1.06-.26-1.54-.48 .02-.41.03-.81.03-1.19 0-.41-.02-.8-.04-1.17 .44.36.96.63 1.53.78v-2.38c0-.83.67-1.5 1.49-1.5h3.5c0-2.21-1.8-4-4-4 -.99 0-1.89.35-2.59.94 -.18-.82-.58-1.42-.84-1.8l-.05-.06c.97-.7 2.17-1.1 3.45-1.1 3.31 0 6 2.68 6 6h3.5c.82 0 1.5.67 1.5 1.5v9c0 .82-.68 1.5-1.5 1.5h-9c-.83 0-1.5-.68-1.5-1.5V14.86Zm1.99-.001v4.083h8v-8h-3.35c-.72 2.02-2.5 3.55-4.66 3.917Zm2.46-3.917h-2.47v1.87c1.05-.28 1.93-.96 2.46-1.88Z"/></svg>