<svg viewBox="0 0 24 24" xmlns="http://www.w3.org/2000/svg"><path fill="currentColor" d="M4.25 3C3 3 2 4 2 5.25v10.5C2 16.99 3 18 4.25 18H9.5v1.25c0 .69-.56 1.25-1.25 1.25h-.5c-.42 0-.75.33-.75.75 0 .41.33.75.75.75h8.5c.41 0 .75-.34.75-.75 0-.42-.34-.75-.75-.75h-.5c-.7 0-1.25-.56-1.25-1.25V18h5.25c1.24 0 2.25-1.01 2.25-2.25V5.25C22 4 20.99 3 19.75 3H4.25ZM13 18v1.25c0 .45.1.875.29 1.25h-2.6c.19-.375.29-.8.29-1.25V18h2Zm-9.5-3.5h17v1.25c0 .41-.34.75-.75.75H4.25c-.42 0-.75-.34-.75-.75V14.5Z"/></svg>