<svg viewBox="0 0 24 24" xmlns="http://www.w3.org/2000/svg"><path fill="currentColor" d="M15 1.5c-.19 0-.37 0-.55.01 -.42.02-.73.38-.71.79 .02.41.38.72.79.7 .14-.01.3-.02.45-.02 3.86 0 7 3.13 7 7 0 .15-.01.3-.02.45 -.03.41.28.76.7.79 .41.02.76-.29.79-.71 .01-.19.01-.37.01-.55 0-4.7-3.81-8.5-8.5-8.5ZM15 4c-.2 0-.39 0-.58.02 -.42.03-.72.4-.68.81 .03.41.4.71.81.67 .14-.02.28-.03.42-.03 2.48 0 4.5 2.01 4.5 4.5 0 .14-.01.28-.03.42 -.04.41.26.77.67.81 .41.03.77-.27.81-.68 .01-.19.02-.38.02-.58 0-3.32-2.69-6-6-6Zm0 2.5c-.22 0-.43.01-.64.05 -.41.07-.68.46-.61.87 .07.4.46.67.87.6 .11-.03.23-.04.36-.04 1.1 0 2 .89 2 2 0 .12-.02.24-.04.36 -.08.4.19.79.6.87 .4.07.79-.2.87-.61 .03-.21.05-.42.05-.64 0-1.94-1.57-3.5-3.5-3.5ZM12.91 3H4.24l-.16 0c-1.18.07-2.1 1.05-2.1 2.24v10.5l0 .15c.07 1.17 1.05 2.09 2.24 2.09l4.24-.01v2.49l-1.75 0 -.11 0c-.37.04-.65.36-.65.74 0 .41.33.75.75.75h10.5l.1-.01c.36-.05.64-.37.64-.75 0-.42-.34-.75-.75-.75l-1.76-.01v-2.5l4.24 0 .15-.01c1.17-.08 2.09-1.06 2.09-2.25V12c-.2-.1-.38-.22-.52-.37 -.36.36-.87.57-1.42.52 -.44-.05-.82-.24-1.1-.53 -.4.4-.98.61-1.58.5 -.46-.09-.85-.35-1.1-.7 -.35.29-.8.47-1.29.47 -1.11 0-2-.9-2-2 0-.5.17-.95.47-1.29 -.36-.26-.61-.64-.7-1.1 -.12-.6.09-1.19.5-1.58 -.3-.29-.49-.67-.53-1.1 -.06-.55.15-1.07.52-1.42 -.16-.15-.28-.33-.37-.53ZM9.99 18h4l0 2.49h-4l-.01-2.5Zm6-8.01c0 .55-.45 1-1 1 -.56 0-1-.45-1-1 0-.56.44-1 1-1 .55 0 1 .44 1 1Z"/></svg>