<svg viewBox="0 0 24 24" xmlns="http://www.w3.org/2000/svg"><path fill="currentColor" d="M16.94 18l3.77 3.77c.29.29.76.29 1.06 0 .29-.3.29-.77 0-1.07L3.27 2.19c-.3-.3-.77-.3-1.07-.01 -.3.29-.3.76-.01 1.06l.4.4c-.39.4-.63.95-.63 1.56v10.5l0 .15c.07 1.17 1.05 2.09 2.24 2.09l4.24-.01v2.49l-1.75 0 -.11 0c-.37.04-.65.36-.65.74 0 .41.33.75.75.75h10.5l.1-.01c.36-.05.64-.37.64-.75 0-.42-.34-.75-.75-.75l-1.76-.01v-2.5l1.44 0Zm5.05-2.25c0 .83-.45 1.55-1.12 1.94L6.17 2.99h5.79c-.55.01-.98.45-.98.99v3c0 .55.44 1 1 1h1.53l1.43 1.53c.86.91 2.263.62 2.8-.34 .36.24.8.34 1.23.27 .04.31.17.62.39.89 .61.74 1.72.84 2.46.22 .04-.04.08-.08.12-.12v5.27Zm.14-13.46c-.33-.55-.67-.93-.92-1.13 -.32-.27-.8-.23-1.06.09 -.27.31-.23.79.09 1.05 .12.1.35.35.58.74 .4.66.64 1.47.64 2.42s-.25 1.75-.65 2.42c-.24.39-.47.64-.59.74 -.32.26-.37.73-.1 1.05 .26.31.73.36 1.05.09 .24-.21.58-.59.91-1.13 .53-.9.85-1.97.85-3.2 0-1.24-.33-2.31-.86-3.2Zm-2.27 1.09c-.24-.36-.49-.61-.68-.75 -.34-.25-.81-.19-1.05.15 -.25.33-.19.8.15 1.05 .06.04.19.17.32.37 .23.35.37.77.37 1.27s-.14.92-.38 1.27c-.14.2-.27.33-.33.37l-.09.07c-.26.25-.3.67-.07.97 .24.33.71.39 1.05.15 .18-.15.43-.39.67-.75 .39-.59.62-1.3.62-2.11 0-.82-.24-1.52-.63-2.11Zm-2.88-.65c0-.32-.2-.6-.49-.71 -.3-.11-.63-.03-.83.2l-1.53 1.74h-1.41c-.42 0-.75.33-.75.75v1.5c0 .41.33.75.75.75h1.4l1.52 1.74c.2.23.53.31.82.2 .29-.11.48-.39.48-.71v-5.5Zm-3.01 15.25l0 2.49h-4l-.01-2.5h4Z"/></svg>