<svg viewBox="0 0 24 24" xmlns="http://www.w3.org/2000/svg"><path fill="currentColor" d="M6.75 22c-.42 0-.75-.34-.75-.75 0-.38.28-.7.64-.75l.1-.01 1.74-.01v-2.5l-4.25 0c-1.2 0-2.17-.93-2.25-2.1l-.01-.16V5.21c0-1.2.92-2.17 2.09-2.25l.15-.01H19.7c1.19 0 2.16.92 2.24 2.09l0 .15v8.66c-.05-1.49-1.26-2.67-2.75-2.67h-3.5c-1.52 0-2.75 1.23-2.75 2.75v.05c-1.15.23-2 1.24-2 2.45v1.5H9.93l0 2.49h1v1c0 .17.01.33.05.5h-4.3ZM14 15h-.5c-.83 0-1.5.67-1.5 1.5V18h2.5v-.25c0-.42.33-.75.75-.75 .41 0 .75.33.75.75V18h3v-.25c0-.42.33-.75.75-.75 .41 0 .75.33.75.75V18H23v-1.5c0-.83-.68-1.5-1.5-1.5H21v-1c0-.97-.79-1.75-1.75-1.75h-3.5c-.97 0-1.75.78-1.75 1.75v1Zm1.5-1c0-.14.11-.25.25-.25h3.5c.13 0 .25.11.25.25v1h-4v-1ZM12 21.5v-2h2.5v.75c0 .41.33.75.75.75 .41 0 .75-.34.75-.75v-.75h3v.75c0 .41.33.75.75.75 .41 0 .75-.34.75-.75v-.75H23v2c0 .82-.68 1.5-1.5 1.5h-8c-.83 0-1.5-.68-1.5-1.5Z"/></svg>