<svg viewBox="0 0 24 24" xmlns="http://www.w3.org/2000/svg"><path fill="currentColor" d="M19.09 1.66l-5.91 5.9c-.35.34-.59.77-.71 1.24l-.46 1.83c-.2.79.52 1.51 1.31 1.31l1.83-.46c.47-.12.9-.37 1.24-.71l5.9-5.91c.89-.9.89-2.34 0-3.24 -.9-.9-2.34-.9-3.24 0Zm-6.61 5.19l3.86-3.87H4.23l-.16 0c-1.18.07-2.1 1.05-2.1 2.24v10.5l0 .15c.07 1.17 1.05 2.09 2.24 2.09l4.24-.01v2.49l-1.75 0 -.11 0c-.37.04-.65.36-.65.74 0 .41.33.75.75.75h10.5l.1-.01c.36-.05.64-.37.64-.75 0-.42-.34-.75-.75-.75l-1.76-.01v-2.5l4.24 0 .15-.01c1.17-.08 2.09-1.06 2.09-2.25V6.54l-4.87 4.86c-.48.47-1.07.8-1.72.96l-1.84.45c-1.53.38-2.92-1.01-2.54-2.54l.45-1.84c.16-.65.49-1.24.96-1.72Zm1.5 11.13l0 2.49h-4l-.01-2.5h4Z"/></svg>