<svg viewBox="0 0 24 24" xmlns="http://www.w3.org/2000/svg"><path fill="currentColor" d="M23 6.5c0 3.03-2.47 5.5-5.5 5.5 -3.04 0-5.5-2.47-5.5-5.5C12 3.46 14.46 1 17.5 1 20.53 1 23 3.46 23 6.5Zm-5-3c0-.28-.23-.5-.5-.5 -.28 0-.5.22-.5.5v4.79l-1.65-1.65c-.2-.2-.52-.2-.71 0 -.2.19-.2.51 0 .7l2.5 2.5c.19.19.51.19.7 0l2.5-2.5c.19-.2.19-.52 0-.71 -.2-.2-.52-.2-.71 0l-1.65 1.64v-4.8Zm-.5 9.5c1.74 0 3.33-.69 4.49-1.81v4.56c0 1.19-.93 2.16-2.1 2.24l-.16 0 -4.25-.01v2.49l1.75 0c.41 0 .75.33.75.75 0 .37-.29.69-.65.74l-.11 0H6.72c-.42 0-.75-.34-.75-.75 0-.38.28-.7.64-.75l.1-.01 1.74-.01v-2.5l-4.25 0c-1.2 0-2.17-.93-2.25-2.1l-.01-.16V5.17c0-1.2.92-2.17 2.09-2.25l.15-.01h7.77c-.65 1.01-1.03 2.21-1.03 3.5 0 3.58 2.91 6.5 6.5 6.5Zm-3.51 5h-4l0 2.49h4l-.01-2.5Z"/></svg>