<svg viewBox="0 0 24 24" xmlns="http://www.w3.org/2000/svg"><path fill="currentColor" d="M6.72 22s.01 0 .02 0h2.49c-.17-.39-.25-.81-.25-1.26v-5.5c0-1.8 1.45-3.25 3.25-3.25h8.5c.44 0 .86.08 1.24.24v-7l-.01-.16c-.08-1.18-1.06-2.1-2.25-2.1H4.21l-.16 0c-1.18.07-2.1 1.05-2.1 2.24v10.5l0 .15c.07 1.13.99 2.04 2.14 2.09h-.15v0h.23l.01 0 3.24-.01v2.49l-1.75 0 -.11 0c-.37.04-.65.36-.65.74 0 .4.32.73.72.74h1Zm3.27-6.75c0-1.25 1-2.25 2.25-2.25h8.5c1.24 0 2.25 1 2.25 2.25v5.5c0 1.24-1.01 2.25-2.25 2.25h-8.5c-1.25 0-2.25-1.01-2.25-2.25v-5.5Zm4 .25c0-.42-.34-.75-.75-.75 -.42 0-.75.33-.75.75 0 .41.33.75.75.75 .41 0 .75-.34.75-.75Zm3.5 0c0-.42-.34-.75-.75-.75 -.42 0-.75.33-.75.75 0 .41.33.75.75.75 .41 0 .75-.34.75-.75Zm2.5.75c.41 0 .75-.34.75-.75 0-.42-.34-.75-.75-.75 -.42 0-.75.33-.75.75 0 .41.33.75.75.75ZM19.24 18c0-.42-.34-.75-.75-.75 -.42 0-.75.33-.75.75 0 .41.33.75.75.75 .41 0 .75-.34.75-.75Zm-4.25.75c.41 0 .75-.34.75-.75 0-.42-.34-.75-.75-.75 -.42 0-.75.33-.75.75 0 .41.33.75.75.75Zm-2 2c0 .41.33.75.75.75h5.5c.41 0 .75-.34.75-.75 0-.42-.34-.75-.75-.75h-5.5c-.42 0-.75.33-.75.75Z"/></svg>