<svg viewBox="0 0 24 24" xmlns="http://www.w3.org/2000/svg"><path fill="currentColor" d="M16.49 3.75c0-.27.06-.53.16-.76H4.23l-.16 0c-1.18.07-2.1 1.05-2.1 2.24v10.5l0 .15c.07 1.17 1.05 2.09 2.24 2.09l4.24-.01v2.49l-1.75 0 -.11 0c-.37.04-.65.36-.65.74 0 .41.33.75.75.75h10.5l.1-.01c.36-.05.64-.37.64-.75 0-.42-.34-.75-.75-.75l-1.76-.01v-2.5l4.24 0 .15-.01c1.17-.08 2.09-1.06 2.09-2.25V9.4h-3.75c-.42 0-.81-.15-1.11-.4l-.44 1.31c-.4 1.18-1.47 1.99-2.71 2.07v.75c0 .96-.79 1.75-1.75 1.75h-4c-.97 0-1.75-.79-1.75-1.75V9.12c0-.97.78-1.75 1.75-1.75h3.99c.61 0 1.15.31 1.47.8l.57-1.73c.34-1.03 1.18-1.77 2.2-2v-.83ZM13.98 18l0 2.49h-4l-.01-2.5h4Zm4.25-15.01c-.42 0-.75.33-.75.75v1.75h-.33c-.88 0-1.66.56-1.94 1.39l-.92 2.74c-.08.21-.28.36-.51.36h-.83v-.75c0-.42-.34-.75-.75-.75h-4c-.42 0-.75.33-.75.75v4c0 .41.33.75.75.75h3.99c.41 0 .75-.34.75-.75v-1.75h.82c.87 0 1.65-.57 1.93-1.4l.91-2.75c.07-.22.27-.37.5-.37h.32v.75c0 .41.33.75.75.75h3.99c.41 0 .75-.34.75-.75v-4c0-.42-.34-.75-.75-.75h-4Z"/></svg>