<svg viewBox="0 0 24 24" xmlns="http://www.w3.org/2000/svg"><path fill="currentColor" d="M12 6.5c0 3.03 2.46 5.5 5.5 5.5 3.03 0 5.5-2.47 5.5-5.5C23 3.46 20.53 1 17.5 1 14.46 1 12 3.46 12 6.5ZM20.5 3c.27 0 .5.22.5.5v2c0 .27-.23.5-.5.5h-2c-.28 0-.5-.23-.5-.5 0-.28.22-.5.5-.5h1c-.46-.61-1.19-1-2.01-1 -.84 0-1.58.4-2.03 1.03 -.17.22-.48.27-.7.11 -.23-.17-.28-.48-.12-.7 .63-.88 1.66-1.45 2.83-1.45 .97 0 1.86.4 2.5 1.05v-.56c0-.28.22-.5.5-.5ZM15 8.94v.55c0 .27-.23.5-.5.5 -.28 0-.5-.23-.5-.5v-2c0-.28.22-.5.5-.5h2c.27 0 .5.22.5.5 0 .27-.23.5-.5.5h-1.01c.45.6 1.18 1 2 1 .76 0 1.45-.35 1.91-.89 .17-.22.49-.24.7-.06 .21.17.23.49.05.7 -.65.75-1.61 1.24-2.68 1.24 -.98 0-1.87-.41-2.5-1.06Zm2.5 4.05c1.74 0 3.33-.69 4.49-1.81v4.56c0 1.19-.93 2.16-2.1 2.24l-.16 0 -4.25-.01v2.49l1.75 0c.41 0 .75.33.75.75 0 .37-.29.69-.65.74l-.11 0H6.72c-.42 0-.75-.34-.75-.75 0-.38.28-.7.64-.75l.1-.01 1.74-.01v-2.5l-4.25 0c-1.2 0-2.17-.93-2.25-2.1l-.01-.16V5.16c0-1.2.92-2.17 2.09-2.25l.15-.01h7.77c-.65 1.01-1.03 2.21-1.03 3.5 0 3.58 2.91 6.5 6.5 6.5Zm-3.51 5h-4l0 2.49h4l-.01-2.5Z"/></svg>