<svg viewBox="0 0 24 24" xmlns="http://www.w3.org/2000/svg"><path fill="currentColor" d="M2 4.25C2 3 3 2 4.25 2h5.5C10.99 2 12 3 12 4.25V6H9.25C7.45 6 6 7.45 6 9.25v6.5C6 17.54 7.45 19 9.25 19h1.25v.5h-.25c-.97 0-1.75.78-1.75 1.75 0 .26.06.52.16.75H4.24c-1.25 0-2.25-1.01-2.25-2.25V4.25ZM9.25 7C8 7 7 8 7 9.25v6.5C7 16.99 8 18 9.25 18h2.25v2.5h-1.25c-.42 0-.75.33-.75.75 0 .41.33.75.75.75h8.5c.41 0 .75-.34.75-.75 0-.42-.34-.75-.75-.75H17.5V18h2.25c1.24 0 2.25-1.01 2.25-2.25v-6.5C22 8 20.99 7 19.75 7H9.25ZM16 18v2.5h-3V18h3Z"/></svg>