<svg viewBox="0 0 24 24" xmlns="http://www.w3.org/2000/svg"><path fill="currentColor" d="M6 21.25c0 .41.33.75.75.75h10.5l.1-.01c.36-.05.64-.37.64-.75 0-.42-.34-.75-.75-.75l-1.76-.01v-2.5l4.24 0 .15-.01c1.17-.08 2.09-1.06 2.09-2.25v-2.76h-5c-.58 0-1.11-.28-1.44-.75l-.2-.28 -1.87 3.16c-.34.57-.98.9-1.65.85 -.67-.06-1.25-.48-1.5-1.1l-1.47-3.67 -.34.73c-.29.62-.91 1.03-1.6 1.03H1.91v2.75l0 .15c.07 1.17 1.05 2.09 2.24 2.09l4.24-.01v2.49l-1.75 0 -.11 0c-.37.04-.65.36-.65.74ZM9.99 18h4l0 2.49h-4l-.01-2.5Zm12-12.76v4.25H17.9l-1.23-1.76c-.35-.49-.91-.77-1.51-.75 -.6.02-1.14.34-1.44.85l-1.44 2.43 -1.68-4.2c-.27-.66-.89-1.09-1.59-1.1 -.71-.02-1.35.39-1.64 1.03L5.81 9.45H1.96V5.19c0-1.2.92-2.17 2.09-2.25l.15-.01h15.49c1.19 0 2.16.92 2.24 2.09l0 .15ZM9.68 6.46c-.12-.28-.38-.47-.69-.48 -.31-.01-.58.16-.7.44l-1.83 4.05H2.71c-.42 0-.75.33-.75.75 0 .41.33.75.75.75h4.22c.29 0 .56-.18.68-.45L8.9 8.63l2.34 5.85c.1.26.35.44.63.46 .28.02.55-.13.7-.37l2.65-4.5 1.08 1.54c.14.2.36.31.61.31h4.25c.41 0 .75-.34.75-.75 0-.42-.34-.75-.75-.75H17.3l-1.53-2.19c-.15-.21-.39-.33-.65-.32 -.26 0-.49.14-.62.36l-2.48 4.18 -2.44-6.09Z"/></svg>