<svg viewBox="0 0 24 24" xmlns="http://www.w3.org/2000/svg"><path fill="currentColor" d="M9.59 3c0-.34-.27-.6-.6-.6 -.34 0-.6.26-.6.6v1.8h-.6c-1.66 0-3 1.34-3 3v.6h-1.8c-.34 0-.6.26-.6.6 0 .33.26.6.6.6h1.8v1.79h-1.8c-.34 0-.6.26-.6.6 0 .33.26.6.6.6h1.8v1.8h-1.8c-.34 0-.6.26-.6.6 0 .33.26.6.6.6h1.8v.6c0 1.65 1.34 3 3 3h.6v1.8c0 .33.26.6.6.6 .33 0 .6-.27.6-.6v-1.8h1.2v-3c0-.28.03-.55.1-.81 -.1-.12-.14-.28-.09-.46l.51-1.75 -1.87-.01c-.41 0-.63-.48-.37-.79l3.2-3.83c.34-.42 1.02-.07.87.46l-.5 1.75 1.83-.01c.2 0 .35.11.43.27 .38-.18.8-.28 1.24-.28h2.4c.2 0 .4.02.6.06V9.53h1.8c.33 0 .6-.27.6-.6 0-.34-.27-.6-.6-.6h-1.8v-.6c0-1.66-1.35-3-3-3h-.6v-1.8c0-.34-.27-.6-.6-.6 -.34 0-.6.26-.6.6v1.8h-1.8v-1.8c0-.34-.27-.6-.6-.6 -.34 0-.6.26-.6.6v1.8h-1.8v-1.8Zm4.8 11.39v-.6c0-1 .8-1.8 1.8-1.8h2.4c.99 0 1.8.8 1.8 1.8v.6h.6c.99 0 1.8.8 1.8 1.8v1.8h-2.4v-.6c0-.34-.27-.6-.6-.6 -.34 0-.6.26-.6.6v.6h-3.6v-.6c0-.34-.27-.6-.6-.6 -.34 0-.6.26-.6.6v.6h-2.4v-1.8c0-1 .8-1.8 1.8-1.8h.6Zm1.2-.6v.6h3.6v-.6c0-.34-.27-.6-.6-.6h-2.4c-.34 0-.6.26-.6.6Zm4.8 6v-.6h2.4v1.8c0 .99-.81 1.8-1.8 1.8h-7.2c-1 0-1.8-.81-1.8-1.8v-1.8h2.4v.6c0 .33.26.6.6.6 .33 0 .6-.27.6-.6v-.6h3.6v.6c0 .33.26.6.6.6 .33 0 .6-.27.6-.6Z"/></svg>