<svg viewBox="0 0 24 24" xmlns="http://www.w3.org/2000/svg"><path fill="currentColor" d="M16.99 1.64c-.05-.37-.37-.65-.75-.65l-.11 0 -.1.01c-.32.08-.56.37-.56.72v2.24h-1.76l0-2.25 -.01-.11c-.05-.37-.37-.65-.75-.65l-.11 0c-.37.04-.65.36-.65.74l-.01 2.24h-1.75V1.68l-.01-.11c-.05-.37-.37-.65-.75-.65 -.42 0-.75.33-.75.75l0 2.32c-1.47.29-2.63 1.45-2.93 2.92l-2.33 0 -.11 0c-.37.04-.65.36-.65.74l0 .1c.04.36.36.64.74.64l2.25-.01v1.75l-2.25 0 -.11 0c-.37.04-.65.36-.65.74l0 .1c.02.15.08.29.18.4 .7-.33 1.48-.51 2.3-.51 3.03 0 5.5 2.46 5.5 5.5 0 .51-.08 1.02-.21 1.49h1.45l0 2.25 0 .1c.04.36.36.64.74.64l.1-.01c.36-.05.64-.37.64-.75l-.01-2.26h1.75v2.25l0 .1c.04.36.36.64.74.64 .41 0 .75-.34.75-.75l0-2.33c1.46-.3 2.62-1.46 2.92-2.93l2.32 0 .1-.01c.36-.05.64-.37.64-.75l-.01-.11c-.05-.37-.37-.65-.75-.65l-2.25-.01v-1.75l2.25 0 .1-.01c.36-.05.64-.37.64-.75l-.01-.11c-.05-.37-.37-.65-.75-.65l-2.25-.01V8.24l2.25 0 .1-.01c.36-.05.64-.37.64-.75 0-.42-.34-.75-.75-.75l-2.33-.01c-.3-1.48-1.46-2.64-2.93-2.93l-.01-2.33 -.01-.11ZM10 10.99c0-1.66 1.34-3 3-3 1.65 0 3 1.34 3 2.99 0 1.65-1.35 3-3 3 -1.66 0-3-1.35-3-3Zm4.5 0c0-.83-.68-1.5-1.5-1.5 -.83 0-1.5.67-1.5 1.49s.67 1.5 1.5 1.5c.82 0 1.5-.68 1.5-1.5Zm-9.01 9.99c.97 0 1.87-.31 2.6-.84l2.61 2.61c.29.29.76.29 1.06 0 .29-.3.29-.77 0-1.07l-2.62-2.62c.52-.74.83-1.64.83-2.61 0-2.49-2.02-4.5-4.5-4.5 -2.49 0-4.5 2.01-4.5 4.5 0 2.48 2.01 4.5 4.5 4.5Zm0-1.5c-1.66 0-3-1.35-3-3 0-1.66 1.34-3 3-3 1.65 0 3 1.34 3 3 0 1.65-1.35 3-3 3Z"/></svg>