<svg viewBox="0 0 24 24" xmlns="http://www.w3.org/2000/svg"><path fill="currentColor" d="M9.59 3c0-.34-.27-.6-.6-.6 -.34 0-.6.26-.6.6v1.8h-.6c-1.66 0-3 1.34-3 3v.6h-1.8c-.34 0-.6.26-.6.6 0 .33.26.6.6.6h1.8v1.79h-1.8c-.34 0-.6.26-.6.6 0 .33.26.6.6.6h1.8v1.8h-1.8c-.34 0-.6.26-.6.6 0 .33.26.6.6.6h1.8v.6c0 1.65 1.34 3 3 3h.6v1.8c0 .33.26.6.6.6 .33 0 .6-.27.6-.6v-1.8h1.8v1.8c0 .33.26.6.6.6 .33 0 .6-.27.6-.6v-1.8h1.8v1.8c0 .33.26.6.6.6 .33 0 .6-.27.6-.6v-1.8h.6c1.65 0 3-1.35 3-3v-.6h1.8c.33 0 .6-.27.6-.6 0-.34-.27-.6-.6-.6h-1.8v-1.8h1.8c.33 0 .6-.27.6-.6 0-.34-.27-.6-.6-.6h-1.8v-1.8h1.8c.33 0 .6-.27.6-.6 0-.34-.27-.6-.6-.6h-1.8v-.6c0-1.66-1.35-3-3-3h-.6v-1.8c0-.34-.27-.6-.6-.6 -.34 0-.6.26-.6.6v1.8h-1.8v-1.8c0-.34-.27-.6-.6-.6 -.34 0-.6.26-.6.6v1.8h-1.8v-1.8Zm3.58 6.04l-.5 1.75 1.83-.01c.4 0 .62.47.36.78l-3.2 3.82c-.36.42-1.03.05-.88-.47l.51-1.75 -1.87-.01c-.41 0-.63-.48-.37-.79l3.2-3.83c.34-.42 1.02-.07.87.46Z"/></svg>