<svg viewBox="0 0 24 24" xmlns="http://www.w3.org/2000/svg"><path fill="currentColor" d="M15.25 2c.37 0 .69.28.74.64l0 .1 0 2.32c1.47.29 2.62 1.45 2.92 2.92l2.32 0c.41 0 .75.33.75.75 0 .37-.29.69-.65.74l-.11 0 -2.25-.01v1.75l2.25 0c.37 0 .69.28.74.64l0 .1c0 .37-.29.69-.65.74l-.11 0 -2.25-.01v1.75l2.25 0c.37 0 .69.28.74.64l0 .1c0 .37-.29.69-.65.74l-.11 0 -2.33-.01c-.3 1.46-1.46 2.622-2.93 2.92l-.01 2.32c0 .41-.34.75-.75.75 -.38 0-.7-.29-.75-.65l-.01-.11v-2.26h-1.76l0 2.25c0 .37-.29.69-.65.74l-.11 0c-.38 0-.7-.29-.75-.65l-.01-.11 -.01-2.26H9.36v2.25c0 .37-.29.69-.65.74l-.11 0c-.38 0-.7-.29-.75-.65l-.01-.11 0-2.33c-1.47-.3-2.63-1.46-2.93-2.93H2.58c-.42 0-.75-.34-.75-.75 0-.38.28-.7.64-.75l.1-.01 2.25-.01v-1.75l-2.25 0c-.38 0-.7-.29-.75-.65l-.01-.11c0-.38.28-.7.64-.75l.1-.01 2.25-.01V9.26l-2.25 0c-.38 0-.7-.29-.75-.65l-.01-.11c0-.38.28-.7.64-.75l.1-.01 2.32-.01C5.14 6.26 6.3 5.1 7.77 4.8l-.01-2.33c0-.42.33-.75.75-.75 .37 0 .69.28.74.64l0 .1V4.7h1.74l0-2.25c0-.38.28-.7.64-.75l.1-.01c.37 0 .69.28.74.64l0 .1 -.01 2.24h1.75V2.42c0-.35.23-.64.55-.73l.09-.02 .1-.01ZM12 9c-1.66 0-3 1.34-3 2.99 0 1.65 1.34 3 2.99 3 1.65 0 3-1.35 3-3 0-1.66-1.35-3-3-3Zm0 1.49c.82 0 1.5.67 1.5 1.5 0 .82-.68 1.5-1.5 1.5 -.83 0-1.5-.68-1.5-1.5 0-.83.67-1.5 1.5-1.5Z"/></svg>