<svg viewBox="0 0 24 24" xmlns="http://www.w3.org/2000/svg"><path fill="currentColor" d="M7.07 3c-1.42 0-2.65.96-2.98 2.34l-.77 3.18c.13-.03.27-.04.42-.04h4c1.51 0 2.75 1.23 2.75 2.75v6.75h7.94c2.29 0 3.98-2.15 3.45-4.39l-2-8.28c-.34-1.38-1.57-2.35-2.98-2.35H7.04Zm3.41 17.5c0-.09.01-.17.01-.25V19h6.75c.41 0 .75.33.75.75 0 .41-.34.75-.75.75h-6.77Zm-4.739-6c.69 0 1.25-.56 1.25-1.25 0-.7-.56-1.25-1.26-1.25s-1.26.55-1.26 1.25c0 .69.55 1.25 1.25 1.25Zm-3.76-3.25c0-.97.78-1.75 1.75-1.75h4c.96 0 1.75.78 1.75 1.75v9c0 .96-.79 1.75-1.76 1.75H3.71c-.97 0-1.76-.79-1.76-1.75v-9ZM3.73 11c-.14 0-.26.11-.26.25v9c0 .13.11.25.25.25h4c.13 0 .25-.12.25-.25v-9c0-.14-.12-.25-.26-.25H3.7Z"/></svg>