<svg viewBox="0 0 24 24" xmlns="http://www.w3.org/2000/svg"><path fill="currentColor" d="M12 3c.51 0 .93.38.99.88l0 .11v16c0 .55-.45 1-1 1 -.52 0-.94-.39-1-.89l-.01-.12v-16c0-.56.44-1 1-1ZM8 6c.51 0 .93.38.99.88l0 .11v10c0 .55-.45 1-1 1 -.52 0-.94-.39-1-.89l-.01-.12v-10c0-.56.44-1 1-1Zm8 0c.51 0 .93.38.99.88l0 .11v10c0 .55-.45 1-1 1 -.52 0-.94-.39-1-.89l-.01-.12v-10c0-.56.44-1 1-1ZM4 9c.51 0 .93.38.99.88l0 .11v4c0 .55-.45 1-1 1 -.52 0-.94-.39-1-.89l-.01-.12v-4c0-.56.44-1 1-1Zm16 0c.51 0 .93.38.99.88l0 .11v4c0 .55-.45 1-1 1 -.52 0-.94-.39-1-.89l-.01-.12v-4c0-.56.44-1 1-1Z"/></svg>