<svg viewBox="0 0 24 24" xmlns="http://www.w3.org/2000/svg"><path fill="currentColor" d="M2 5.25C2 3.45 3.45 2 5.25 2h10.5C17.54 2 19 3.45 19 5.25v6.03c-.38-.19-.79-.29-1.22-.29h-.29V5.24c0-.97-.79-1.75-1.75-1.75H5.24c-.97 0-1.75.78-1.75 1.75v11.5c0 .96.78 1.75 1.75 1.75h3.37l-1.27 1.5H5.23c-1.8 0-3.25-1.46-3.25-3.25V5.24ZM6.75 6c-.42 0-.75.33-.75.75 0 .41.33.75.75.75h7.5c.41 0 .75-.34.75-.75 0-.42-.34-.75-.75-.75h-7.5Zm.32 6.43c.12-.27.38-.44.68-.44h10.03c.51 0 1 .22 1.33.62l3.7 4.39c.23.27.23.68 0 .96l-3.71 4.39c-.34.39-.83.62-1.34.62H7.72c-.3 0-.56-.17-.69-.44 -.13-.27-.09-.58.1-.8l3.59-4.27 -3.6-4.27c-.19-.23-.23-.54-.11-.8Zm-.32-3.44c-.42 0-.75.33-.75.75 0 .41.33.75.75.75h4.5c.41 0 .75-.34.75-.75 0-.42-.34-.75-.75-.75h-4.5Z"/></svg>