<svg viewBox="0 0 24 24" xmlns="http://www.w3.org/2000/svg"><path fill="currentColor" d="M3.28 2.21c-.3-.3-.77-.3-1.07-.01 -.3.29-.3.76-.01 1.06l4.49 4.49c-.7.13-1.22.74-1.22 1.47 0 .82.67 1.49 1.5 1.49 .73 0 1.33-.53 1.47-1.22l3.23 3.23c-.7.13-1.22.74-1.22 1.47 0 .82.67 1.5 1.5 1.5 .73 0 1.34-.53 1.47-1.22l7.24 7.24c.29.29.76.29 1.06 0 .29-.3.29-.77 0-1.07L3.22 2.13Zm15.21 12.03c0 .3-.09.58-.25.82l-2.08-2.08c.23-.16.51-.25.82-.25 .82 0 1.5.67 1.5 1.5Zm-5-5c0 .3-.1.58-.25.82l-2.08-2.08c.23-.16.51-.25.82-.25 .82 0 1.5.67 1.5 1.5Zm-5-5c0 .3-.1.58-.25.82L6.16 2.98c.23-.16.52-.25.82-.25 .82 0 1.5.67 1.5 1.5Zm3.49 13.49c.82 0 1.5.67 1.5 1.5 0 .82-.68 1.5-1.5 1.5 -.83 0-1.5-.68-1.5-1.5 0-.83.67-1.5 1.5-1.5Zm-5-5c.82 0 1.5.67 1.5 1.5 0 .82-.68 1.5-1.5 1.5 -.83 0-1.5-.68-1.5-1.5 0-.83.67-1.5 1.5-1.5Zm9.99-5c.82 0 1.5.67 1.5 1.5 0 .82-.68 1.49-1.5 1.49 -.83 0-1.5-.68-1.5-1.5 0-.83.67-1.5 1.5-1.5Zm-5-5c.82 0 1.5.67 1.5 1.5 0 .82-.68 1.5-1.5 1.5 -.83 0-1.5-.68-1.5-1.5 0-.83.67-1.5 1.5-1.5Zm4.99 0c.82 0 1.5.67 1.5 1.5 0 .82-.68 1.5-1.5 1.5 -.83 0-1.5-.68-1.5-1.5 0-.83.67-1.5 1.5-1.5Z"/></svg>