<svg viewBox="0 0 24 24" xmlns="http://www.w3.org/2000/svg"><path fill="currentColor" d="M14.29 2.98L21 9.69c1.26 1.26 1.26 3.32 0 4.59l-6.72 6.71c-1.27 1.26-3.33 1.26-4.6 0l-6.72-6.72C1.69 13 1.69 10.94 2.95 9.67l6.71-6.72c1.26-1.27 3.32-1.27 4.59 0Zm-.71 4.23l-.09-.08c-.27-.2-.62-.2-.89-.01l-.1.07 -.08.08c-.2.26-.2.61-.01.88l.07.09 .71.71 -1.5 0 -.17 0c-1.39.08-2.5 1.18-2.58 2.57l-.01.17v3.25l0 .1c.04.36.36.64.74.64 .37 0 .69-.29.74-.65l0-.11v-3.25l0-.13c.05-.59.52-1.06 1.11-1.12l.12-.01 1.5-.01 -.72.72 -.08.08c-.22.29-.2.71.07.97 .26.26.68.29.97.07l.08-.08 2-2 .07-.09c.19-.27.19-.62 0-.89l-.08-.1 -2-2L13.36 7l.08.07Z"/></svg>