<svg viewBox="0 0 24 24" xmlns="http://www.w3.org/2000/svg"><path fill="currentColor" d="M3 6.25C3 4.45 4.45 3 6.25 3h11.5C19.54 3 21 4.45 21 6.25V9H3V6.25Zm5.98 4.26l-.02-.02h12.02v7.25c0 1.79-1.46 3.25-3.25 3.25H8.46c-.11-.77-.72-1.38-1.49-1.49v-1.9c1.47-.67 2.5-2.16 2.5-3.88v-2c0-.47-.19-.91-.52-1.24Zm.01-4.27c0-.56-.45-1-1-1 -.56 0-1 .44-1 1 0 .55.44 1 1 1 .55 0 1-.45 1-1Zm3.75-.75c-.42 0-.75.33-.75.75 0 .41.33.75.75.75h3.5c.41 0 .75-.34.75-.75 0-.42-.34-.75-.75-.75h-3.5Zm-10 5.5c-.42 0-.75.33-.75.75v2c0 1.53 1.06 2.82 2.5 3.16v3.58h-.75c-.42 0-.75.33-.75.75 0 .41.33.75.75.75h3c.41 0 .75-.34.75-.75 0-.42-.34-.75-.75-.75h-.75v-3.59c1.43-.34 2.5-1.63 2.5-3.17v-2c0-.42-.34-.75-.75-.75h-5Z"/></svg>