<svg viewBox="0 0 24 24" xmlns="http://www.w3.org/2000/svg"><path fill="currentColor" d="M3.6 6.59c0-1.66 1.34-3 3-3H15c1.65 0 3 1.34 3 3v8.4c0 1.65-1.35 3-3 3H6.6c-1.66 0-3-1.35-3-3V6.58Zm3.77.77c-.24.23-.24.61 0 .84l2.57 2.57 -2.58 2.57c-.24.23-.24.61 0 .84 .23.23.61.23.84 0l2.57-2.58 2.57 2.57c.23.23.61.23.84 0 .23-.24.23-.62 0-.85l-2.58-2.58 2.57-2.58c.23-.24.23-.62 0-.85 -.24-.24-.62-.24-.85 0l-2.58 2.57L8.16 7.3c-.24-.24-.62-.24-.85 0Zm-.78 11.82c.54.72 1.41 1.2 2.4 1.2h5.99c2.98 0 5.4-2.42 5.4-5.4V8.97c0-.99-.48-1.86-1.2-2.41v8.4c0 2.31-1.89 4.2-4.2 4.2H6.57Z"/></svg>