<svg viewBox="0 0 24 24" xmlns="http://www.w3.org/2000/svg"><path fill="currentColor" d="M12 2c5.52 0 10 4.47 10 10 0 5.52-4.48 10-10 10C6.47 22 2 17.52 2 12 2 6.47 6.47 2 12 2Zm3.53 6.46l-.09-.08c-.27-.2-.62-.2-.89-.01l-.1.07 -2.47 2.46 -2.47-2.47 -.09-.08c-.27-.2-.62-.2-.89-.01l-.1.07 -.08.08c-.2.26-.2.61-.01.88l.07.09 2.46 2.46 -2.47 2.46 -.08.08c-.2.26-.2.61-.01.88l.07.09 .08.07c.26.19.61.19.88 0l.09-.08 2.46-2.47 2.46 2.46 .08.07c.26.19.61.19.88 0l.09-.08 .07-.09c.19-.27.19-.62 0-.89l-.08-.1 -2.47-2.47 2.46-2.47 .07-.09c.19-.27.19-.62 0-.89l-.08-.1 -.09-.08 .08.07Z"/></svg>