<svg viewBox="0 0 24 24" xmlns="http://www.w3.org/2000/svg"><path fill="currentColor" d="M16 3c-1.66 0-3 1.34-3 3v2c0 1.65 1.34 3 3 3h2c1.65 0 3-1.35 3-3V6c0-1.66-1.35-3-3-3h-2Zm-10.45.89c.6-1.2 2.29-1.2 2.89 0l2.37 4.71c.54 1.09-.24 2.38-1.45 2.38H4.61c-1.22 0-2-1.3-1.45-2.39l2.37-4.72Zm5.37 13.86c-.11.54-.32 1.04-.62 1.48l-5.56-5.56c.44-.31.95-.52 1.5-.63 .02-.01.04-.01.06-.02 .22-.04.45-.06.68-.06 2.2 0 4 1.79 4 4 0 .25-.03.5-.07.74 -.01 0-.01 0-.01.01Zm-3.25 3.17c-.23.03-.46.05-.69.05 -2.21 0-4-1.8-4-4 -.001-.26.02-.51.06-.75 0-.01 0-.01 0-.02 .1-.55.31-1.05.61-1.49l5.55 5.55c-.45.3-.96.51-1.51.62 -.03 0-.05 0-.07.01Zm8.83-7.83c.3-.16.65-.16.96 0l2.97 1.53c.33.17.54.51.54.88v2.92c0 .37-.22.71-.55.88l-2.98 1.53c-.31.15-.66.15-.97 0l-2.98-1.54c-.34-.18-.55-.52-.55-.89v-2.93c0-.38.21-.72.54-.89l2.97-1.54Z"/></svg>