<svg viewBox="0 0 24 24" xmlns="http://www.w3.org/2000/svg"><path fill="currentColor" d="M12.7 3.29c-.4-.4-1.03-.4-1.42 0l-3.51 3.5c-.4.39-.4 1.02 0 1.41 .39.39 1.02.39 1.41 0l1.79-1.8v8.58c0 .55.44 1 1 1 .55 0 1-.45 1-1V6.39l1.79 1.79c.39.39 1.02.39 1.41 0 .39-.4.39-1.03 0-1.42l-3.5-3.5Zm-8.71 9.45c0-.42.33-.75.75-.75h4.25c.55 0 1-.45 1-1 0-.56-.45-1-1-1H4.74c-1.52 0-2.75 1.23-2.75 2.75v4.5c0 1.51 1.23 2.75 2.75 2.75h14.5c1.51 0 2.75-1.24 2.75-2.75v-4.5c0-1.52-1.24-2.75-2.75-2.75h-4.25c-.56 0-1 .44-1 1 0 .55.44 1 1 1h4.25c.41 0 .75.33.75.75v4.5c0 .41-.34.75-.75.75H4.74c-.42 0-.75-.34-.75-.75v-4.5Z"/></svg>