<svg viewBox="0 0 24 24" xmlns="http://www.w3.org/2000/svg"><path fill="currentColor" d="M20.25 12.02c.96 0 1.75.78 1.75 1.75v2.5c0 .96-.79 1.75-1.75 1.75h-2.5c-.97 0-1.75-.79-1.75-1.75v-2.5c0-.97.78-1.75 1.75-1.75h2.5Zm-14 0c.96 0 1.75.78 1.75 1.75v2.5c0 .96-.79 1.75-1.75 1.75h-2.5c-.97 0-1.75-.79-1.75-1.75v-2.5c0-.97.78-1.75 1.75-1.75h2.5Zm7 0c.96 0 1.75.78 1.75 1.75v2.5c0 .96-.79 1.75-1.75 1.75h-2.5c-.97 0-1.75-.79-1.75-1.75v-2.5c0-.97.78-1.75 1.75-1.75h2.5Zm0-7c.96 0 1.75.78 1.75 1.75v2.5c0 .96-.79 1.74-1.75 1.74h-2.5c-.97 0-1.75-.79-1.75-1.75v-2.5c0-.97.78-1.75 1.75-1.75h2.5Zm7 0c.96 0 1.75.78 1.75 1.75v2.5c0 .96-.79 1.74-1.75 1.74h-2.5c-.97 0-1.75-.79-1.75-1.75v-2.5c0-.97.78-1.75 1.75-1.75h2.5Zm-14 0C7.21 5.02 8 5.8 8 6.77v2.5c0 .96-.79 1.74-1.75 1.74h-2.5c-.97 0-1.75-.79-1.75-1.75v-2.5c0-.92.7-1.68 1.6-1.75L3.74 5h2.5Z"/></svg>