<svg viewBox="0 0 24 24" xmlns="http://www.w3.org/2000/svg"><path fill="currentColor" d="M4 4.25C4 3 5 2 6.25 2h11.5C18.99 2 20 3 20 4.25v7.24c-.77-.33-1.62-.5-2.5-.5 -.32 0-.64.02-.94.06 -.1-.05-.21-.07-.32-.07h-8.5c-.42 0-.75.33-.75.75 0 .41.33.75.75.75h5.59c-1.44 1.19-2.35 2.98-2.35 5 0 1.74.68 3.33 1.8 4.5H6.22c-1.25 0-2.25-1.01-2.25-2.25V4.23ZM16.25 6h-8.5c-.42 0-.75.33-.75.75 0 .41.33.75.75.75h8.5c.41 0 .75-.34.75-.75 0-.42-.34-.75-.75-.75ZM23 17.5c0-3.04-2.47-5.5-5.5-5.5 -3.04 0-5.5 2.46-5.5 5.5 0 3.03 2.46 5.5 5.5 5.5 3.03 0 5.5-2.47 5.5-5.5Zm-5 .5l0 2.5c0 .27-.23.5-.5.5 -.28 0-.5-.23-.5-.5l-.01-2.51h-2.51c-.28 0-.5-.23-.5-.5 0-.28.22-.5.49-.5h2.5l-.01-2.51c0-.28.22-.5.5-.5 .27 0 .5.22.5.5l0 2.5h2.49c.27 0 .49.22.49.5 0 .27-.23.5-.5.5h-2.5Z"/></svg>