<svg viewBox="0 0 24 24" xmlns="http://www.w3.org/2000/svg"><path fill="currentColor" d="M11.25 16.88l.23-1.5h1.48l-.24 1.5h-1.49Zm6.49-14.89c1.19 0 2.16.92 2.24 2.09l0 .15v15.49c0 1.19-.93 2.16-2.096 2.24l-.16 0H6.22c-1.2 0-2.17-.93-2.25-2.1l-.01-.16V4.2c0-1.2.92-2.17 2.09-2.25l.15-.01h11.49Zm-5.36 17.04c-.07.4.21.79.62.85 .4.06.79-.22.85-.63l.14-.9h.73c.41 0 .75-.34.75-.75 0-.42-.34-.75-.75-.75h-.5l.23-1.5h.75c.41 0 .75-.34.75-.75 0-.42-.34-.75-.75-.75h-.52l.16-1.03c.06-.41-.22-.8-.63-.86 -.41-.07-.8.21-.86.62l-.2 1.25h-1.49l.16-1.03c.06-.41-.22-.8-.63-.86 -.41-.07-.8.21-.86.62l-.2 1.25h-.97c-.42 0-.75.33-.75.75 0 .41.33.75.75.75h.72l-.24 1.5h-.99c-.42 0-.75.33-.75.75 0 .41.33.75.75.75h.75l-.11.66c-.07.4.21.79.62.85 .4.06.79-.22.85-.63l.14-.9h1.48l-.11.66Z"/></svg>