<svg viewBox="0 0 24 24" xmlns="http://www.w3.org/2000/svg"><path fill="currentColor" d="M12 8V2H6c-1.11 0-2 .89-2 2v9.5h6.5c1.1 0 2 .89 2 2 0 1.1-.9 2-2 2H4V20c0 1.1.89 2 2 2h12c1.1 0 2-.9 2-2V10h-6c-1.11 0-2-.9-2-2Zm-4.5 3.75c0-.42.33-.75.75-.75h7.5c.41 0 .75.33.75.75 0 .41-.34.75-.75.75h-7.5c-.42 0-.75-.34-.75-.75Zm0 7.5c0-.42.33-.75.75-.75h7.5c.41 0 .75.33.75.75 0 .41-.34.75-.75.75h-7.5c-.42 0-.75-.34-.75-.75ZM13.5 8V2.5l6 6H14c-.28 0-.5-.23-.5-.5ZM2.75 14.75c-.42 0-.75.33-.75.75 0 .41.33.75.75.75h7.5c.41 0 .75-.34.75-.75 0-.42-.34-.75-.75-.75h-7.5Z"/></svg>