<svg viewBox="0 0 24 24" xmlns="http://www.w3.org/2000/svg"><path fill="currentColor" d="M7.5 13c-.28 0-.5.22-.5.5v3c0 .27.22.5.5.5 .27 0 .5-.23.5-.5V16h.49c.82 0 1.5-.68 1.5-1.51s-.68-1.51-1.51-1.51h-1Zm.99 2h-.5v-1.01h.49c.27 0 .5.22.5.5 0 .27-.23.5-.51.5Zm6.49-1.51c0-.28.22-.5.5-.5h1.5c.27 0 .5.22.5.5 0 .27-.23.5-.5.5h-1.01l-.01 1h1c.27 0 .5.22.5.5 0 .27-.23.5-.5.5h-1.01l0 .49c0 .27-.23.5-.5.5 -.28 0-.51-.23-.51-.5l-.01-1v-.01l0-2.01Zm-3.5-.5h.49c1.1 0 2 .89 2 2 -.01 1.1-.9 2-2 2h-.5c-.28 0-.5-.23-.5-.5v-3c0-.28.22-.5.5-.5Zm.5 3c.55-.01.99-.45.99-1 0-.56-.45-1-1-1v2Zm0-8.01v-6h-6c-1.11 0-2 .89-2 2v6.66c-.6.28-1 .88-1 1.58v5.5c0 .69.4 1.3 1 1.58v.66c0 1.1.89 2 2 2h12c1.1 0 2-.9 2-2v-.67c.59-.29 1-.89 1-1.59v-5.5c0-.7-.41-1.31-1-1.59v-.67h-6c-1.11 0-2-.9-2-2Zm-7.25 4h14.5c.13 0 .25.11.25.25v5.5c0 .13-.12.25-.25.25H4.73c-.14 0-.25-.12-.25-.25v-5.5c0-.14.11-.25.25-.25Zm8.75-4v-5.5l6 6h-5.5c-.28 0-.5-.23-.5-.5Z"/></svg>