<svg viewBox="0 0 24 24" xmlns="http://www.w3.org/2000/svg"><path fill="currentColor" d="M15.5 2h-7v4.25c0 .41-.34.75-.75.75C7.33 7 7 6.66 7 6.25V2h-.75C5 2 4 3 4 4.25v15.5C4 20.99 5 22 6.25 22H7v-4.25c0-.42.33-.75.75-.75 .41 0 .75.33.75.75V22h7v-4.25c0-.42.33-.75.75-.75 .41 0 .75.33.75.75V22h.75c1.24 0 2.25-1.01 2.25-2.25V4.25C20 3 18.99 2 17.75 2H17v4.25c0 .41-.34.75-.75.75 -.42 0-.75-.34-.75-.75V2ZM7.75 8.5c.41 0 .75.33.75.75v5.5c0 .41-.34.75-.75.75 -.42 0-.75-.34-.75-.75v-5.5c0-.42.33-.75.75-.75Zm9.25.75v5.5c0 .41-.34.75-.75.75 -.42 0-.75-.34-.75-.75v-5.5c0-.42.33-.75.75-.75 .41 0 .75.33.75.75Z"/></svg>