<svg viewBox="0 0 24 24" xmlns="http://www.w3.org/2000/svg"><path fill="currentColor" d="M12 2v6c0 1.1.89 2 2 2h6v10c0 1.1-.9 2-2 2h-5.05c.03-.17.05-.33.05-.5v-5c0-1.21-.86-2.22-2-2.45v-.31c0-1.52-1.24-2.75-2.75-2.75H4.74c-.27 0-.52.03-.75.1V3.98c0-1.11.89-2 2-2h6Zm1.5.5V8c0 .27.22.5.5.5h5.5l-6-6ZM3 15h-.5c-.83 0-1.5.67-1.5 1.5v4.99c0 .82.67 1.5 1.5 1.5h8c.82 0 1.5-.68 1.5-1.5v-5c0-.83-.68-1.5-1.5-1.5H10v-1.26c0-.97-.79-1.75-1.75-1.75H4.74c-.97 0-1.75.78-1.75 1.75v1.25Zm1.5-1.26c0-.14.11-.25.25-.25h3.5c.13 0 .24.11.24.25v1.25H4.48v-1.26Z"/></svg>