<svg viewBox="0 0 24 24" xmlns="http://www.w3.org/2000/svg"><path fill="currentColor" d="M10.8 7.8V2.4H6.6c-1 0-1.8.8-1.8 1.8v6.84c.57-.17 1.17-.25 1.8-.25 3.64 0 6.6 2.95 6.6 6.6 0 .62-.09 1.22-.25 1.8h3.24c.99 0 1.8-.81 1.8-1.8v-7.8h-5.4c-1 0-1.8-.81-1.8-1.8Zm4.87 13.79h-3.99c.3-.37.56-.78.78-1.2h3.11c1.98 0 3.6-1.62 3.6-3.6v-7.2c.66 0 1.2.53 1.2 1.19v6.07c0 2.61-2.12 4.72-4.73 4.72Zm-3.68-13.8v-5.1l5.7 5.7h-5.1c-.34 0-.6-.27-.6-.6Zm-10.8 9.59c0 2.98 2.41 5.4 5.4 5.4 2.98 0 5.4-2.42 5.4-5.4 0-2.99-2.42-5.4-5.4-5.4 -2.99 0-5.4 2.41-5.4 5.4Zm7.8-3.6c.33 0 .6.26.6.6v1.8c0 .33-.27.6-.6.6h-1.8c-.34 0-.6-.27-.6-.6 0-.34.26-.6.6-.6h.56c-.07-.04-.13-.07-.19-.1 -.3-.14-.62-.21-.94-.21 -.33-.01-.65.05-.95.17 -.3.12-.58.3-.8.52 -.24.23-.62.23-.85 0 -.24-.24-.24-.62 0-.85 .34-.35.74-.62 1.19-.8 .44-.19.92-.27 1.41-.27 .48 0 .95.11 1.4.31 .11.05.22.1.33.17v-.19c0-.34.26-.6.6-.6Zm-1.06 6.63c-.45.18-.93.27-1.42.26 -.49-.01-.96-.12-1.41-.32 -.12-.06-.23-.11-.34-.18v.18c0 .33-.27.6-.6.6 -.34 0-.6-.27-.6-.6v-1.8c0-.34.26-.6.6-.6h1.8c.33 0 .6.26.6.6 0 .33-.27.6-.6.6h-.57c.06.03.12.06.18.09 .29.13.61.2.93.2 .32 0 .64-.06.94-.18 .29-.13.57-.31.79-.53 .23-.24.61-.24.84 0 .23.23.23.61 0 .84 -.35.34-.75.61-1.2.79Z"/></svg>