<svg viewBox="0 0 24 24" xmlns="http://www.w3.org/2000/svg"><path fill="currentColor" d="M12 2.4v5.4c0 .99.8 1.8 1.8 1.8h5.4v10.19c0 .99-.81 1.8-1.8 1.8h-7.05c.29-.57.44-1.19.44-1.8 0-1.57-1.2-2.86-2.73-2.99 .57-.64.92-1.49.92-2.42 0-1.99-1.62-3.6-3.6-3.6 -.21 0-.41.01-.6.04V4.17c0-1 .8-1.8 1.8-1.8h5.4Zm1.2.3v5.1c0 .33.26.6.6.6h5.1l-5.7-5.7ZM7.8 14.39c0 1.32-1.08 2.4-2.4 2.4 -1.33 0-2.4-1.08-2.4-2.4 0-1.33 1.07-2.4 2.4-2.4 1.32 0 2.4 1.07 2.4 2.4Zm1.8 5.4c0 1.49-1.2 3-4.2 3 -3.01 0-4.2-1.51-4.2-3 0-1 .8-1.8 1.8-1.8h4.8c.99 0 1.8.8 1.8 1.8Z"/></svg>