<svg viewBox="0 0 24 24" xmlns="http://www.w3.org/2000/svg"><path fill="currentColor" d="M12 8V2H6c-1.11 0-2 .89-2 2v10.05c.24-.04.49-.06.75-.06h3.5c.53 0 1.04.08 1.52.25h5.97c.41 0 .75.33.75.75 0 .41-.34.75-.75.75h-3.82c.3.37.55.79.73 1.25h3.08c.41 0 .75.33.75.75 0 .41-.34.75-.75.75h-2.76c0 .08 0 .16 0 .25 0 1.25-.49 2.4-1.29 3.25h6.28c1.1 0 2-.9 2-2v-10h-6c-1.11 0-2-.9-2-2Zm-3.75 3.5h7.5c.41 0 .75.33.75.75 0 .41-.34.75-.75.75h-7.5c-.42 0-.75-.34-.75-.75 0-.42.33-.75.75-.75ZM13.5 8V2.5l6 6H14c-.28 0-.5-.23-.5-.5ZM12 18.75C12 16.67 10.32 15 8.25 15l-.11 0c-.37.04-.65.36-.65.74 0 .41.33.75.75.75l.15 0c1.17.07 2.09 1.05 2.09 2.24 0 1.24-1.01 2.25-2.25 2.25l-.01 0 -.11 0c-.37.05-.65.36-.65.74 0 .41.33.74.75.74v-.01l.19-.01c1.97-.11 3.54-1.75 3.54-3.75Zm-6.5-3c0-.42-.34-.75-.75-.75l-.2 0c-1.98.1-3.56 1.74-3.56 3.74 0 2.07 1.67 3.75 3.75 3.75l.1-.01c.36-.05.64-.37.64-.75 0-.42-.34-.75-.75-.75l-.16-.01c-1.18-.08-2.1-1.06-2.1-2.25 0-1.25 1-2.25 2.25-2.25l.1-.01c.36-.05.64-.37.64-.75Zm3.5 3c0-.42-.34-.75-.75-.75h-3.5l-.11 0c-.37.04-.65.36-.65.74 0 .41.33.75.75.75h3.5l.1-.01c.36-.05.64-.37.64-.75Z"/></svg>