<svg viewBox="0 0 24 24" xmlns="http://www.w3.org/2000/svg"><path fill="currentColor" d="M12 8V2H6c-1.11 0-2 .89-2 2v7.35c.23-.07.48-.11.75-.11h3.5c.4 0 .79.08 1.14.25h6.35c.41 0 .75.33.75.75 0 .41-.34.75-.75.75H10.8c.12.3.18.64.18 1v.05c.2.04.4.11.59.2h4.15c.41 0 .75.33.75.75 0 .41-.34.75-.75.75h-2.87c.07.23.11.48.11.75v.5h2.75c.41 0 .75.33.75.75 0 .41-.34.75-.75.75h-2.75v3c0 .17-.02.33-.05.5h5.05c1.1 0 2-.9 2-2v-10h-6c-1.11 0-2-.9-2-2Zm1.5 0V2.5l6 6H14c-.28 0-.5-.23-.5-.5ZM3 15h-.5c-.83 0-1.5.67-1.5 1.5V18h2.5v-.25c0-.42.33-.75.75-.75 .41 0 .75.33.75.75V18h3v-.25c0-.42.33-.75.75-.75 .41 0 .75.33.75.75V18H12v-1.5c0-.83-.68-1.5-1.5-1.5H10v-1c0-.97-.79-1.75-1.75-1.75H4.74c-.97 0-1.75.78-1.75 1.75v1Zm1.5-1c0-.14.11-.25.25-.25h3.5c.13 0 .25.11.25.25v1H4.49v-1ZM1 21.5v-2h2.5v.75c0 .41.33.75.75.75 .41 0 .75-.34.75-.75v-.75h3v.75c0 .41.33.75.75.75 .41 0 .75-.34.75-.75v-.75H12v2c0 .82-.68 1.5-1.5 1.5h-8c-.83 0-1.5-.68-1.5-1.5Z"/></svg>