<svg viewBox="0 0 24 24" xmlns="http://www.w3.org/2000/svg"><path fill="currentColor" d="M12 8V2H6c-1.11 0-2 .89-2 2v7.5c0 .27.22.5.5.5h15c.27 0 .5-.23.5-.5V10h-6c-1.11 0-2-.9-2-2Zm1.5 0V2.5l6 6H14c-.28 0-.5-.23-.5-.5Zm-8 5.75c0-.42-.34-.75-.75-.75 -.42 0-.75.33-.75.75v2.49c0 .41.33.75.75.75 .41 0 .75-.34.75-.75v-2.5ZM19.25 13c.41 0 .75.33.75.75v2.49c0 .41-.34.75-.75.75 -.42 0-.75-.34-.75-.75v-2.5c0-.42.33-.75.75-.75Zm-9 7.5c-.42 0-.75.33-.75.75 0 .41.33.75.75.75h3.5c.41 0 .75-.34.75-.75 0-.42-.34-.75-.75-.75h-3.5Zm-5.5-2c.41 0 .75.33.75.75V20c0 .27.22.5.5.5h1.25c.41 0 .75.33.75.75 0 .41-.34.75-.75.75H6c-1.11 0-2-.9-2-2v-.75c0-.42.33-.75.75-.75Zm13.75.75c0-.42.33-.75.75-.75 .41 0 .75.33.75.75V20c0 1.1-.9 2-2 2h-1.25c-.42 0-.75-.34-.75-.75 0-.42.33-.75.75-.75H18c.27 0 .5-.23.5-.5v-.75Z"/></svg>