<svg viewBox="0 0 24 24" xmlns="http://www.w3.org/2000/svg"><path fill="currentColor" d="M12 2v6c0 1.1.89 2 2 2h6v10c0 1.1-.9 2-2 2h-6.81c1.12-1.17 1.8-2.76 1.8-4.5 0-3.59-2.92-6.5-6.5-6.5 -.89 0-1.74.17-2.5.49v-7.5c0-1.11.89-2 2-2h6Zm1.5.5V8c0 .27.22.5.5.5h5.5l-6-6Zm-7 9.5C3.46 12 1 14.46 1 17.5 1 20.53 3.46 23 6.5 23c3.03 0 5.5-2.47 5.5-5.5 0-3.04-2.47-5.5-5.5-5.5Zm2.47 3.73L7.2 17.49l1.76 1.76c.19.19.19.51 0 .7 -.2.19-.52.19-.71 0l-1.77-1.77 -1.77 1.76c-.2.19-.52.19-.71 0 -.2-.2-.2-.52 0-.71l1.76-1.77 -1.77-1.77c-.2-.2-.2-.52 0-.71 .19-.2.51-.2.7 0l1.76 1.76 1.76-1.77c.19-.2.51-.2.7 0 .19.19.19.51 0 .7Z"/></svg>