<svg viewBox="0 0 24 24" xmlns="http://www.w3.org/2000/svg"><path fill="currentColor" d="M12 8V2H6c-1.11 0-2 .89-2 2v7.49c.76-.33 1.61-.5 2.5-.5 .88 0 1.73.17 2.5.5h6.74c.41 0 .75.33.75.75 0 .41-.34.75-.75.75h-4.56c.36.37.67.79.94 1.25h3.61c.41 0 .75.33.75.75 0 .41-.34.75-.75.75h-2.99c.11.4.18.82.21 1.25h2.76c.41 0 .75.33.75.75 0 .41-.34.75-.75.75h-2.83c-.21 1.34-.84 2.55-1.74 3.5h6.8c1.1 0 2-.9 2-2v-10h-6c-1.11 0-2-.9-2-2Zm1.5 0V2.5l6 6H14c-.28 0-.5-.23-.5-.5ZM12 17.5c0-3.04-2.47-5.5-5.5-5.5C3.46 12 1 14.46 1 17.5 1 20.53 3.46 23 6.5 23c3.03 0 5.5-2.47 5.5-5.5Zm-5.5 0h2c.27 0 .5.22.5.5 0 .27-.23.5-.5.5H6c-.28 0-.5-.23-.5-.5v-.01 -3c0-.28.22-.5.5-.5 .27 0 .5.22.5.5v2.5Z"/></svg>