<svg viewBox="0 0 24 24" xmlns="http://www.w3.org/2000/svg"><path fill="currentColor" d="M12 2.4v5.4c0 .99.8 1.8 1.8 1.8h5.4v10.19c0 .99-.81 1.8-1.8 1.8h-5.71c.94-1.15 1.5-2.61 1.5-4.2 0-3.65-2.96-6.6-6.6-6.6 -.63 0-1.23.08-1.8.24V4.18c0-1 .8-1.8 1.8-1.8h5.4Zm1.2.3v5.1c0 .33.26.6.6.6h5.1l-5.7-5.7ZM6.6 22.79c2.98 0 5.4-2.42 5.4-5.4 0-2.99-2.42-5.4-5.4-5.4 -2.99 0-5.4 2.41-5.4 5.4 0 2.98 2.41 5.4 5.4 5.4Zm-2.83-4.98c-.24-.24-.24-.62 0-.85 .23-.24.61-.24.84 0l1.37 1.37v-3.36c0-.34.26-.6.6-.6 .33 0 .6.26.6.6v3.35l1.37-1.38c.23-.24.61-.24.84 0 .23.23.23.61 0 .84l-2.4 2.4c-.06.05-.13.1-.2.13 -.07.02-.15.04-.23.04h-.01 -.01c-.09-.01-.16-.02-.23-.05 -.07-.03-.14-.08-.2-.13l-.01-.01 -2.4-2.4Z"/></svg>