<svg viewBox="0 0 24 24" xmlns="http://www.w3.org/2000/svg"><path fill="currentColor" d="M12 2H6c-1.11 0-2 .89-2 2v8h.6l1.29-2.96c.58-1.33 2.38-1.39 3.1-.21l.02.04 .08.17 1.72 4.31 .34-.51c.26-.46.72-.77 1.24-.86l.05-.01 .18-.02h2.03c.96 0 1.75.78 1.75 1.75 0 .87-.65 1.6-1.49 1.73l-.06 0 -.18.01h-1.05l-1.67 2.6c-.67 1.18-2.36 1.17-3.03.04l-.03-.05 -.09-.18 -1.47-3.66 -.08.17c-.23.51-.68.88-1.21 1 -.04 0-.08.01-.11.02l-.06 0 -.2.01H3.88v4.5c0 1.1.89 2 2 2h12c1.1 0 2-.9 2-2v-10h-6c-1.11 0-2-.9-2-2V1.88Zm2 6.5c-.28 0-.5-.23-.5-.5V2.5l6 6H14ZM5.25 13H2.74l-.11 0 -.02 0c-.37.05-.64.36-.64.74 0 .41.33.75.75.75h2.99l.11-.01 .01-.01c.01-.01.03-.01.04-.01 .22-.06.42-.21.51-.43l1.03-2.37 2.33 5.83 .04.1 0 0c.29.48 1.03.48 1.3-.05l1.97-3.1h1.55l.1-.01 .01-.01c.36-.06.63-.37.63-.75 0-.42-.34-.75-.75-.75h-2l-.11 0 -.02 0c-.24.03-.44.17-.55.38l-1.43 2.09 -2.42-6.03L8 9.25l-.01-.01c-.31-.51-1.08-.48-1.33.09L5.1 12.88Zm.49 1.5H3.99h1.74Z"/></svg>