<svg viewBox="0 0 24 24" xmlns="http://www.w3.org/2000/svg"><path fill="currentColor" d="M12 8V2H6c-1.11 0-2 .89-2 2v16c0 1.1.89 2 2 2h12c1.1 0 2-.9 2-2V10h-6c-1.11 0-2-.9-2-2Zm-3.75 3.5h7.5c.41 0 .75.33.75.75 0 .41-.34.75-.75.75h-7.5c-.42 0-.75-.34-.75-.75 0-.42.33-.75.75-.75Zm0 2.75h7.5c.41 0 .75.33.75.75 0 .41-.34.75-.75.75h-7.5c-.42 0-.75-.34-.75-.75 0-.42.33-.75.75-.75Zm0 2.75h7.5c.41 0 .75.33.75.75 0 .41-.34.75-.75.75h-7.5c-.42 0-.75-.34-.75-.75 0-.42.33-.75.75-.75Zm5.25-9V2.5l6 6H14c-.28 0-.5-.23-.5-.5Z"/></svg>