<svg viewBox="0 0 24 24" xmlns="http://www.w3.org/2000/svg"><path fill="currentColor" d="M16.08 6.62c-.07-.1-.15-.19-.23-.27h-.01c-.31-.31-.69-.55-1.11-.69l-1.38-.45c-.1-.04-.2-.11-.26-.2 -.07-.09-.1-.2-.1-.31 0-.11.03-.22.1-.31 .06-.09.15-.16.26-.2l1.38-.45c.42-.14.79-.38 1.1-.69 .29-.3.52-.67.67-1.07v-.03l.45-1.38c.04-.1.11-.2.2-.26 .09-.07.2-.1.31-.1 .11 0 .22.04.31.1 .09.06.16.15.2.26l.45 1.37c.14.42.38.8.69 1.11 .31.32.69.55 1.11.69l1.38.45h.03c.1.04.19.11.26.2 .07.09.1.2.1.31 0 .11-.03.22-.1.31 -.06.09-.15.16-.26.2l-1.38.45c-.42.14-.8.38-1.11.69 -.32.31-.55.69-.69 1.11l-.46 1.38v.03c-.04.09-.11.17-.19.23 -.09.07-.2.1-.31.1 -.11 0-.22-.03-.31-.1 -.09-.06-.16-.15-.2-.26l-.45-1.38c-.1-.31-.25-.6-.45-.85Zm7.7 3.8l-.77-.24c-.24-.08-.45-.22-.62-.39 -.17-.18-.3-.39-.38-.62l-.25-.76c-.02-.06-.06-.11-.11-.15 -.05-.04-.11-.06-.17-.06 -.06 0-.12.02-.17.06 -.05.04-.09.09-.11.15l-.25.76c-.07.23-.2.44-.37.61 -.17.17-.38.3-.61.38l-.77.25c-.06.02-.11.06-.15.11 -.04.05-.06.11-.06.17 0 .06.02.12.06.17 .04.05.09.09.15.11l.77.25c.23.07.45.21.62.38 .17.17.3.39.38.62l.25.76c.02.06.06.11.11.15 .05.04.11.06.17.06 .06 0 .12-.02.17-.06 .05-.04.09-.09.11-.15l.25-.76c.08-.24.21-.45.38-.62 .18-.17.39-.3.62-.38l.77-.25c.06-.02.11-.06.15-.11 .04-.05.04-.11.04-.17 0-.06-.01-.12-.05-.17 -.04-.05-.11-.08-.17-.11Zm-4.25 2.28l.26.8c.05.14.12.25.2.37v6.08c0 1.24-1.01 2.25-2.25 2.25H6.24c-1.24 0-2.25-1.01-2.25-2.25V4.44C3.99 3.2 5 2.19 6.24 2.19h8.26c-.07.04-.15.08-.22.11l-1.42.46c-.4.15-.75.4-.99.75 -.25.35-.38.75-.38 1.18 0 .43.13.84.37 1.18 .07.11.17.2.27.28 .01.01.03.02.04.04H7.73c-.41 0-.75.34-.75.75s.34.75.75.75h7.24c.01.01.02.03.03.05 .03.05.06.1.08.16l.46 1.41c.14.4.4.74.75.99 .35.24.76.37 1.18.37 0 .37.11.73.33 1.04 .22.31.52.53.91.67l.8.29Zm-11.79 5h8.5c.41 0 .75-.34.75-.75s-.34-.75-.75-.75h-8.5c-.41 0-.75.34-.75.75s.34.75.75.75Zm0-5h8.5c.41 0 .75-.34.75-.75s-.34-.75-.75-.75h-8.5c-.41 0-.75.34-.75.75s.34.75.75.75Z"/></svg>