<svg viewBox="0 0 24 24" xmlns="http://www.w3.org/2000/svg"><path fill="currentColor" d="M5 4c0-1.11.89-2 2-2h5.5l-.01 4.74c0 .96.78 1.75 1.75 1.75h4.75v2.67c-.49-.12-.99-.18-1.5-.18 -3.59 0-6.5 2.91-6.5 6.5 0 .51.06 1.01.17 1.5H6.98c-1.11 0-2-.9-2-2v-13Zm3 1.75c0 .41.33.75.75.75h1.5c.41 0 .75-.34.75-.75 0-.42-.34-.75-.75-.75h-1.5c-.42 0-.75.33-.75.75ZM8.75 8c-.42 0-.75.33-.75.75 0 .41.33.75.75.75h1.5c.41 0 .75-.34.75-.75 0-.42-.34-.75-.75-.75h-1.5ZM8 11.75c0 .41.33.75.75.75h1.5c.41 0 .75-.34.75-.75 0-.42-.34-.75-.75-.75h-1.5c-.42 0-.75.33-.75.75ZM12.8 22c-.43-.45-.8-.95-1.08-1.5H6.48c-1.66 0-3-1.35-3-3v-1.75c0-.42-.34-.75-.75-.75 -.42 0-.75.33-.75.75v1.75c0 2.48 2.01 4.5 4.5 4.5h6.3Zm6.18-15l-5-5 -.01 4.74c0 .13.11.25.25.25h4.74Zm4 10.49c0-3.04-2.47-5.5-5.5-5.5 -3.04 0-5.5 2.46-5.5 5.5 0 3.03 2.46 5.5 5.5 5.5 3.03 0 5.5-2.47 5.5-5.5Zm-5 .5l0 2.5c0 .27-.23.5-.5.5 -.28 0-.5-.23-.5-.5l-.01-2.51h-2.51c-.28 0-.5-.23-.5-.5 0-.28.22-.5.49-.5h2.5l-.01-2.51c0-.28.22-.5.5-.5 .27 0 .5.22.5.5l0 2.5h2.49c.27 0 .49.22.49.5 0 .27-.23.5-.5.5h-2.5Zm-5.51-16l1.49 0 -1.5-.01Z"/></svg>