<svg viewBox="0 0 24 24" xmlns="http://www.w3.org/2000/svg"><path fill="currentColor" d="M6.25 2C5 2 4 3 4 4.25v15.5C4 20.99 5 22 6.25 22h11.5c1.24 0 2.25-1.01 2.25-2.25V4.25C20 3 18.99 2 17.75 2H6.25Zm1.5 4h8.5c.41 0 .75.33.75.75 0 .41-.34.75-.75.75h-8.5c-.42 0-.75-.34-.75-.75 0-.42.33-.75.75-.75ZM7 16.75c0-.42.33-.75.75-.75h8.5c.41 0 .75.33.75.75 0 .41-.34.75-.75.75h-8.5c-.42 0-.75-.34-.75-.75ZM7.75 11h8.5c.41 0 .75.33.75.75 0 .41-.34.75-.75.75h-8.5c-.42 0-.75-.34-.75-.75 0-.42.33-.75.75-.75Z"/></svg>