<svg viewBox="0 0 24 24" xmlns="http://www.w3.org/2000/svg"><path fill="currentColor" d="M15 1.875V6.75c0 .42.33.75.75.75h4.875L15 1.875ZM15.75 9C14.5 9 13.5 7.995 13.5 6.75V1.5H8.25C7.005 1.5 6 2.505 6 3.75v9.75c.6 0 1.15.24 1.59.66 .6-.42 1.3-.66 2.04-.66h.22c.96 0 1.9.39 2.58 1.06 .67.67 1.06 1.62 1.06 2.58 0 .51-.17 1-.48 1.41 .02.04.04.08.06.12 .02.04.04.08.06.12 .34.75.43 1.59.24 2.38 -.11.46-.32.91-.6 1.3h5.955c1.24 0 2.25-1.01 2.25-2.25V8.97h-5.25Zm-5.9 13.5h-.22c-.57 0-1.12-.23-1.52-.63 -.41-.41-.63-.95-.63-1.52 -.01-.21.07-.41.21-.56 .13-.15.33-.24.53-.26 .09-.01.19 0 .28.04 .09.03.17.08.24.14 .07.06.12.14.16.23 .03.08.06.18.06.27 -.02.09-.01.18.02.27 .02.08.07.17.13.24 .06.07.13.12.21.16 .08.04.17.06.26.06h.21c.16 0 .33-.07.45-.19s.18-.29.18-.46c0-.12-.04-.24-.1-.34 -.07-.11-.16-.19-.26-.24l-1.47-.74c-.43-.22-.78-.58-.98-1.01 -.21-.44-.26-.93-.15-1.4 .11-.47.375-.89.75-1.19 .37-.3.84-.47 1.32-.47h.21c.56 0 1.11.22 1.51.62 .4.4.62.94.62 1.51 0 .2-.08.4-.22.55 -.14.15-.34.24-.54.25 -.1 0-.2-.01-.29-.05 -.09-.04-.18-.09-.25-.15 -.08-.07-.13-.15-.17-.24 -.04-.09-.06-.19-.06-.28V17c0-.17-.07-.34-.19-.46s-.29-.19-.46-.19h-.22c-.17 0-.34.06-.46.18s-.19.28-.19.45c0 .11.03.23.09.33s.15.18.25.23l1.46.73c.43.21.77.57.98 1 .2.43.25.93.14 1.39 -.12.46-.38.88-.76 1.18 -.38.29-.85.46-1.33.46Zm-3.33-6.22c.13-.15.21-.34.21-.54s-.08-.39-.22-.54c-.15-.14-.34-.22-.54-.22h-4.5c-.2 0-.39.07-.531.21 -.14.14-.22.33-.22.53 0 .19.07.39.21.53 .14.13.33.21.531.21h1.5v5.25c0 .19.07.39.21.53 .14.13.33.21.53.21 .19 0 .39-.08.53-.22 .13-.15.21-.34.21-.54v-5.25h1.5c.19 0 .39-.08.53-.22Z"/></svg>