<svg viewBox="0 0 24 24" xmlns="http://www.w3.org/2000/svg"><path fill="currentColor" d="M12 8V2H6c-1.11 0-2 .89-2 2v7.49c.76-.33 1.61-.5 2.5-.5 1.3 0 2.51.38 3.52 1.04 .09-.32.37-.55.72-.55h5.5c.41 0 .75.33.75.75 0 .41-.34.75-.75.75h-5.06c.42.44.79.94 1.07 1.5h3.98c.41 0 .75.33.75.75 0 .41-.34.75-.75.75H12.8c.11.48.17.98.17 1.5h3.25c.41 0 .75.33.75.75 0 .41-.34.75-.75.75h-3.43c-.28 1.14-.85 2.17-1.64 3h6.8c1.1 0 2-.9 2-2v-10h-6c-1.11 0-2-.9-2-2Zm1.5 0V2.5l6 6H14c-.28 0-.5-.23-.5-.5Zm-7 15C3.46 23 1 20.53 1 17.5 1 14.46 3.46 12 6.5 12c3.03 0 5.5 2.46 5.5 5.5 0 3.03-2.47 5.5-5.5 5.5Zm3-5c.27 0 .5-.23.5-.5 0-.28-.23-.5-.5-.5H4.7l1.64-1.65c.19-.2.19-.52 0-.71 -.2-.2-.52-.2-.71 0l-2.5 2.5c-.2.19-.2.51 0 .7l2.5 2.5c.19.19.51.19.7 0 .19-.2.19-.52 0-.71l-1.65-1.65h4.79Z"/></svg>