<svg viewBox="0 0 24 24" xmlns="http://www.w3.org/2000/svg"><path fill="currentColor" d="M12 7.8V2.4H6.6c-1 0-1.8.8-1.8 1.8v9.59c.72.54 1.2 1.41 1.2 2.4 0 .08-.01.17-.02.26l.72-2.06c.25-.73.93-1.21 1.69-1.21 .76 0 1.44.48 1.69 1.2l.7 2v-.21c0-1.66 1.34-3 3-3 .98 0 1.85.47 2.4 1.19 .54-.73 1.41-1.2 2.4-1.2 .2 0 .4.02.6.06V9.56h-5.4c-1 0-1.8-.81-1.8-1.8Zm1.2 0V2.7l5.7 5.7h-5.1c-.34 0-.6-.27-.6-.6ZM3 15.59c-.34 0-.6.26-.6.6v.28c0 .33.18.64.48.79l.76.38c.7.35 1.15 1.07 1.15 1.86v.28c0 .99-.81 1.8-1.8 1.8 -1 0-1.8-.81-1.8-1.8 0-.34.26-.6.6-.6 .33 0 .6.26.6.6 0 .33.26.6.6.6 .33 0 .6-.27.6-.6v-.29c0-.34-.19-.65-.49-.79l-.77-.38c-.71-.36-1.16-1.08-1.16-1.87v-.29c0-1 .8-1.8 1.8-1.8 .99 0 1.8.8 1.8 1.8 0 .33-.27.6-.6.6 -.34 0-.6-.27-.6-.6 0-.34-.27-.6-.6-.6Zm5.96-.8c-.09-.25-.32-.41-.57-.41 -.26 0-.49.16-.57.4l-2.1 6c-.11.31.05.65.36.76 .31.1.65-.06.76-.37l.27-.8h2.5l.27.79c.1.31.45.47.76.36 .31-.11.47-.46.36-.77l-2.1-6Zm.26 4.39H7.55l.83-2.39 .83 2.38Zm3.96-3c0-.34.26-.6.6-.6 .33 0 .6.26.6.6 0 .33.26.6.6.6 .33 0 .6-.27.6-.6 0-1-.81-1.8-1.8-1.8 -1 0-1.8.8-1.8 1.8v.28c0 .78.44 1.51 1.15 1.86l.76.38c.29.14.48.45.48.79v.28c0 .33-.27.6-.6.6 -.34 0-.6-.27-.6-.6 0-.34-.27-.6-.6-.6 -.34 0-.6.26-.6.6 0 .99.8 1.8 1.8 1.8 .99 0 1.8-.81 1.8-1.8v-.29c0-.79-.45-1.52-1.16-1.87l-.77-.39c-.3-.15-.49-.46-.49-.79v-.29Zm5.4-.6c-.34 0-.6.26-.6.6v.28c0 .33.18.64.48.79l.76.38c.7.35 1.15 1.07 1.15 1.86v.28c0 .99-.81 1.8-1.8 1.8 -1 0-1.8-.81-1.8-1.8 0-.34.26-.6.6-.6 .33 0 .6.26.6.6 0 .33.26.6.6.6 .33 0 .6-.27.6-.6v-.29c0-.34-.19-.65-.49-.79l-.77-.38c-.71-.36-1.16-1.08-1.16-1.87v-.29c0-1 .8-1.8 1.8-1.8 .99 0 1.8.8 1.8 1.8 0 .33-.27.6-.6.6 -.34 0-.6-.27-.6-.6 0-.34-.27-.6-.6-.6Z"/></svg>