<svg viewBox="0 0 24 24" xmlns="http://www.w3.org/2000/svg"><path fill="currentColor" d="M12 2.4v5.4c0 .99.8 1.8 1.8 1.8h5.4v10.19c0 .99-.81 1.8-1.8 1.8h-7.01c1.69-1.2 2.8-3.17 2.8-5.4 0-3.65-2.96-6.6-6.61-6.6 -.63 0-1.23.08-1.8.24V4.18c0-1 .8-1.8 1.8-1.8h5.4Zm1.2.3v5.1c0 .33.26.6.6.6h5.1l-5.7-5.7Zm-9.53 9.83c.36 1.29-.42 2.64-1.72 2.97l-.56.14c-.02.18-.03.36-.03.55 0 .22.01.44.03.66l.41.09c1.34.31 2.14 1.7 1.74 3.02l-.16.5c.3.24.64.45 1 .62l.38-.42c.94-1.01 2.54-1.01 3.49 0l.4.42c.35-.17.68-.37.98-.6l-.19-.67c-.37-1.3.41-2.64 1.71-2.98l.55-.15c.01-.19.02-.37.02-.56 0-.23-.02-.45-.04-.67l-.42-.1c-1.35-.32-2.15-1.71-1.75-3.03l.15-.51c-.31-.25-.65-.46-1.01-.63l-.39.41c-.95 1-2.55 1-3.5-.01l-.41-.43c-.36.16-.69.36-.99.59l.18.66Zm2.92 4.86c-.67 0-1.2-.54-1.2-1.2 0-.67.53-1.2 1.2-1.2 .66 0 1.2.53 1.2 1.2 0 .66-.54 1.2-1.2 1.2Z"/></svg>