<svg viewBox="0 0 24 24" xmlns="http://www.w3.org/2000/svg"><path fill="currentColor" d="M12 7.8V2.4H6.59c-1 0-1.8.8-1.8 1.8v10.25l.3-.46c.55-.83 1.66-1.06 2.49-.5 .07.04.13.1.2.15 .21-.2.48-.34.78-.41 .81-.2 1.65.2 2.02.94l1.39 2.78 1.39-2.78c.37-.75 1.21-1.14 2.02-.95 .3.07.56.21.78.41 .31-.29.73-.46 1.2-.46 .98 0 1.77.78 1.79 1.76V9.56h-5.4c-1 0-1.8-.81-1.8-1.81Zm1.2 0V2.7l5.7 5.7h-5.1c-.34 0-.6-.27-.6-.6Zm-9 13.79c.33 0 .6-.27.6-.6v-2.22l2.29-3.45c.18-.28.1-.65-.17-.84 -.28-.19-.65-.11-.84.16l-1.91 2.85 -1.91-2.86c-.19-.28-.56-.36-.84-.17 -.28.18-.36.55-.17.83l2.29 3.44v2.21c0 .33.26.6.6.6Zm5.33-6.87c-.13-.25-.41-.38-.68-.32 -.28.06-.47.3-.47.58v6c0 .33.26.6.6.6 .33 0 .6-.27.6-.6v-3.46l1.86 3.72c.1.2.3.33.53.33 .22 0 .43-.13.53-.34l1.86-3.73v3.45c0 .33.26.6.6.6 .33 0 .6-.27.6-.6v-6c0-.28-.2-.53-.47-.59 -.28-.07-.56.06-.68.31l-2.47 4.92 -2.47-4.93Zm8.46.26c0-.34-.27-.6-.6-.6 -.34 0-.6.26-.6.6v6c0 .33.26.6.6.6h3.6c.33 0 .6-.27.6-.6 0-.34-.27-.6-.6-.6h-3v-5.4Z"/></svg>