<svg viewBox="0 0 24 24" xmlns="http://www.w3.org/2000/svg"><path fill="currentColor" d="M12 2v6c0 1.1.89 2 2 2h6v10c0 1.1-.9 2-2 2h-7.41l.02-.02c.84-.43 1.38-1.29 1.38-2.24V15.23c0-.95-.54-1.82-1.39-2.24l-3.5-1.75c-.71-.36-1.54-.36-2.24 0l-.89.44V3.97c0-1.11.89-2 2-2h6Zm1.5.5V8c0 .27.22.5.5.5h5.5l-6-6Zm-6.83 9.65l3.49 1.75c.5.25.82.77.82 1.34v4.503c0 .56-.33 1.08-.83 1.34l-3.5 1.75c-.43.21-.92.21-1.35 0l-3.5-1.75c-.51-.26-.83-.78-.83-1.35V15.23c0-.57.32-1.09.82-1.35l3.5-1.75c.42-.22.91-.22 1.34 0Zm-3.45 2.89c-.25-.13-.55-.03-.68.22 -.13.24-.03.54.22.67l2.72 1.36v3.19c0 .27.22.5.5.5 .27 0 .5-.23.5-.5v-3.2l2.72-1.37c.24-.13.34-.43.22-.68 -.13-.25-.43-.35-.68-.23l-2.78 1.38 -2.78-1.39Z"/></svg>