<svg viewBox="0 0 24 24" xmlns="http://www.w3.org/2000/svg"><path fill="currentColor" d="M13 6.75V2H8.75C7.5 2 6.5 3 6.5 4.25V11c3.58 0 6.5 2.91 6.5 6.5 0 .69-.11 1.36-.32 2h5.06c1.24 0 2.25-1.01 2.25-2.25V9h-4.75c-1.25 0-2.25-1.01-2.25-2.25ZM5.5 4.62l-.01 6.44c-.53.08-1.03.22-1.51.42V6.73c0-.99.62-1.82 1.5-2.13Zm9.74 17.37h-4.06c.42-.45.79-.95 1.07-1.5l5.1 0c-.31.87-1.15 1.49-2.13 1.49Zm-.75-15.26V2.48l5 5h-4.25c-.42 0-.75-.34-.75-.75Zm-2.5 10.75c0 3.03-2.47 5.5-5.5 5.5 -3.04 0-5.5-2.47-5.5-5.5 0-3.04 2.46-5.5 5.5-5.5 3.03 0 5.5 2.46 5.5 5.5Zm-9.5 0c0 .83.25 1.6.69 2.24l5.55-5.56c-.65-.44-1.42-.7-2.25-.7 -2.21 0-4 1.79-4 4Zm4 4c2.2 0 4-1.8 4-4 0-.84-.26-1.61-.7-2.25l-5.56 5.55c.64.43 1.41.69 2.24.69Z"/></svg>