<svg viewBox="0 0 24 24" xmlns="http://www.w3.org/2000/svg"><path fill="currentColor" d="M12 2v6c0 1.1.89 2 2 2h6v10c0 1.1-.9 2-2 2h-6.81c1.12-1.17 1.8-2.76 1.8-4.5 0-3.59-2.92-6.5-6.5-6.5 -.89 0-1.74.17-2.5.49v-7.5c0-1.11.89-2 2-2h6Zm1.5.5V8c0 .27.22.5.5.5h5.5l-6-6Zm-1.5 15c0 3.03-2.47 5.5-5.5 5.5C3.46 23 1 20.53 1 17.5 1 14.46 3.46 12 6.5 12c3.03 0 5.5 2.46 5.5 5.5ZM6.5 14c-.28 0-.5.22-.5.5v4c0 .27.22.5.5.5 .27 0 .5-.23.5-.5v-4c0-.28-.23-.5-.5-.5Zm0 7.125c.34 0 .62-.28.62-.625 0-.35-.28-.625-.63-.625s-.625.27-.625.625c0 .34.27.625.625.625Z"/></svg>