<svg viewBox="0 0 24 24" xmlns="http://www.w3.org/2000/svg"><path fill="currentColor" d="M12 8V2H6c-1.11 0-2 .89-2 2v10.22c.33.19.67.51.86.97 .64-.74 1.58-1.2 2.63-1.2 1.27 0 2.38.67 2.99 1.69 .61-1.02 1.72-1.7 3-1.7 1.93 0 3.5 1.56 3.5 3.5v2c0 .97-.41 1.86-1.06 2.5h2.05c1.1 0 2-.9 2-2v-10h-6c-1.11 0-2-.9-2-2Zm1.5 0V2.5l6 6H14c-.28 0-.5-.23-.5-.5Zm-6 7C6.11 15 5 16.11 5 17.5v2C5 20.88 6.11 22 7.5 22c1.38 0 2.49-1.12 2.49-2.5v-2c0-1.39-1.12-2.5-2.5-2.5Zm-1 2.5c0-.56.44-1 1-1 .55 0 1 .44 1 1v2c0 .55-.45 1-1 1 -.56 0-1-.45-1-1v-2Zm4.49 0c0-1.39 1.11-2.5 2.5-2.5 1.38 0 2.5 1.11 2.5 2.5v2c0 1.38-1.12 2.5-2.5 2.5 -1.39 0-2.5-1.12-2.5-2.5v-2Zm2.5-1c-.56 0-1 .44-1 1v2c0 .55.44 1 1 1 .55 0 1-.45 1-1v-2c0-.56-.45-1-1-1Zm-9.5-.57c0-.57-.44-.87-.75-.96 -.31-.09-.81-.06-1.12.37 -.32.44-.76.93-1.28 1.24 -.36.21-.48.67-.27 1.02 .21.35.67.47 1.02.26 .32-.2.61-.43.86-.67v4.01c0 .41.33.75.75.75 .41 0 .75-.34.75-.75v-5.32Z"/></svg>