<svg viewBox="0 0 24 24" xmlns="http://www.w3.org/2000/svg"><path fill="currentColor" d="M12 2.4v5.4c0 .99.8 1.8 1.8 1.8h5.4v10.19c0 .99-.81 1.8-1.8 1.8h-5.71c.94-1.15 1.5-2.61 1.5-4.2 0-3.65-2.96-6.6-6.6-6.6 -.63 0-1.23.08-1.8.24V4.18c0-1 .8-1.8 1.8-1.8h5.4Zm1.2.3v5.1c0 .33.26.6.6.6h5.1l-5.7-5.7ZM6.6 22.79c2.98 0 5.4-2.42 5.4-5.4 0-2.99-2.42-5.4-5.4-5.4 -2.99 0-5.4 2.41-5.4 5.4 0 2.98 2.41 5.4 5.4 5.4Zm2.82-5.83c.23.23.23.61 0 .84 -.24.23-.62.23-.85 0l-1.38-1.38v3.35c0 .33-.27.6-.6.6 -.34 0-.6-.27-.6-.6v-3.36l-1.38 1.37c-.24.23-.62.23-.85 0 -.24-.24-.24-.62 0-.85l2.4-2.4c.05-.06.12-.11.19-.14 .06-.03.14-.05.22-.05h0 0c.08 0 .15.01.22.04 .06.02.13.07.19.12l0 0 2.39 2.39Z"/></svg>