<svg viewBox="0 0 24 24" xmlns="http://www.w3.org/2000/svg"><path fill="currentColor" d="M12 2v6c0 1.1.89 2 2 2h6v10.5c0 .82-.68 1.5-1.5 1.5H13v-5.01c0-1.11-.9-2-2-2h-1v-1c0-1.11-.9-2.01-2.01-2.01h-3c-.37 0-.71.09-1.01.26V3.47c0-.83.67-1.5 1.5-1.5h6.5Zm1.5.5V8c0 .27.22.5.5.5h5.5l-6-6ZM4 16v-1.5c0-.83.67-1.5 1.5-1.5h2c.82 0 1.5.67 1.5 1.5V16h1.5c.82 0 1.5.67 1.5 1.5V19H9v-.5c0-.28-.23-.5-.5-.5 -.28 0-.5.22-.5.5v.5H5v-.5c0-.28-.23-.5-.5-.5 -.28 0-.5.22-.5.5v.5H1v-1.5c0-.83.67-1.5 1.5-1.5H4Zm1-1.5V16h3v-1.5c0-.28-.23-.5-.5-.5h-2c-.28 0-.5.22-.5.5ZM9 20h3v1.5c0 .82-.68 1.5-1.5 1.5h-8c-.83 0-1.5-.68-1.5-1.5V20h3v.5c0 .27.22.5.5.5 .27 0 .5-.23.5-.5V20h3v.5c0 .27.22.5.5.5 .27 0 .5-.23.5-.5V20Z"/></svg>