<svg viewBox="0 0 24 24" xmlns="http://www.w3.org/2000/svg"><path fill="currentColor" d="M8.5 13.25c0-.14.11-.25.25-.25H10v1.5H8.5v-1.25Zm0 2.75H10v1.5H8.75c-.14 0-.25-.12-.25-.25V16Zm7 1.25V16h-4v1.5h3.75c.13 0 .25-.12.25-.25Zm-4-4.25v1.5h4v-1.25c0-.14-.12-.25-.25-.25H11.5Zm.5-5V2H6c-1.11 0-2 .89-2 2v16c0 1.1.89 2 2 2h12c1.1 0 2-.9 2-2V10h-6c-1.11 0-2-.9-2-2Zm-3.25 3.5h6.5c.96 0 1.75.78 1.75 1.75v4c0 .96-.79 1.75-1.75 1.75h-6.5C7.78 19 7 18.21 7 17.25v-4c0-.97.78-1.75 1.75-1.75ZM13.5 8V2.5l6 6H14c-.28 0-.5-.23-.5-.5Z"/></svg>