<svg viewBox="0 0 24 24" xmlns="http://www.w3.org/2000/svg"><path fill="currentColor" d="M17.353 6.15c.02.02.04.05.06.08l1.58 1.58V6.5c0-.54-.22-1.05-.59-1.42l-1.72-1.71c-.9-.89-2.1-1.39-3.36-1.39H6.97c-1.11 0-2 .89-2 2v.12c.56-.4 1.25-.63 2-.63h6.34c.86 0 1.68.34 2.29.94l1.71 1.7ZM2.74 14.99c.41 0 .75.33.75.75v1.75c0 1.65 1.34 3 3 3h11c1.65 0 3-1.35 3-3v-1.75c0-.42.33-.75.75-.75 .41 0 .75.33.75.75v1.75c0 2.48-2.02 4.5-4.5 4.5h-11c-2.49 0-4.5-2.02-4.5-4.5v-1.75c0-.42.33-.75.75-.75Zm9.75-10l-.01 4.74c0 .96.78 1.75 1.75 1.75h4.75v5.5c0 1.1-.9 2-2 2h-10c-1.11 0-2-.9-2-2v-10c0-1.11.89-2 2-2h5.5ZM7.98 8.74c0 .41.33.75.75.75h1.5c.41 0 .75-.34.75-.75 0-.42-.34-.75-.75-.75h-1.5c-.42 0-.75.33-.75.75Zm.75 2.25c-.42 0-.75.33-.75.75 0 .41.33.75.75.75h1.5c.41 0 .75-.34.75-.75 0-.42-.34-.75-.75-.75h-1.5Zm-.75 3.75c0 .41.33.75.75.75h1.5c.41 0 .75-.34.75-.75 0-.42-.34-.75-.75-.75h-1.5c-.42 0-.75.33-.75.75Zm6-9.75l-.01 4.74c0 .13.11.25.25.25h4.74l-5-5Z"/></svg>