<svg viewBox="0 0 24 24" xmlns="http://www.w3.org/2000/svg"><path fill="currentColor" d="M14.25 7.5h4.875L13.5 1.875V6.75c0 .41.33.75.75.75Zm0 1.5C13 9 12 7.992 12 6.75V1.5H6.75C5.508 1.5 4.5 2.508 4.5 3.75v16.5c0 1.24 1.008 2.25 2.25 2.25h10.5c1.24 0 2.25-1.01 2.25-2.25V9h-5.25Zm-2.48 7.72c.07.06.13.15.16.24 .04.09.06.18.06.28 0 .1-.02.19-.06.28 -.03.09-.09.18-.17.24 -.06.07-.15.13-.24.16 -.09.04-.18.06-.29.06 -.11 0-.2-.02-.29-.06 -.09-.03-.18-.09-.24-.17l-.98-.96 -.98.96c-.06.07-.15.13-.24.16 -.09.04-.18.06-.29.06 -.11 0-.2-.02-.29-.06 -.09-.03-.18-.09-.24-.17 -.08-.06-.14-.15-.17-.24 -.05-.09-.06-.18-.06-.29 0-.11.01-.2.06-.29 .03-.09.09-.18.16-.24l.96-.98 -.96-.98c-.15-.14-.23-.33-.23-.53s.07-.39.22-.53c.13-.15.33-.23.52-.23s.39.07.52.22l.97.96 .97-.96c.13-.15.33-.23.52-.23s.39.07.52.22c.15.13.22.33.22.52s-.08.39-.23.52l-.96.97 .96.97Zm6.225 1.27h-3.75c-.2 0-.39-.08-.53-.23 -.15-.14-.23-.33-.23-.53s.07-.39.22-.53c.13-.15.33-.23.52-.23h3.75v1.5Z"/></svg>