<svg viewBox="0 0 24 24" xmlns="http://www.w3.org/2000/svg"><path fill="currentColor" d="M12 2v6c0 1.1.89 2 2 2h6v10c0 1.1-.9 2-2 2h-6.81c1.12-1.17 1.8-2.76 1.8-4.5 0-3.59-2.92-6.5-6.5-6.5 -.89 0-1.74.17-2.5.49v-7.5c0-1.11.89-2 2-2h6Zm1.5.5V8c0 .27.22.5.5.5h5.5l-6-6Zm-1.5 15c0 3.03-2.47 5.5-5.5 5.5C3.46 23 1 20.53 1 17.5 1 14.46 3.46 12 6.5 12c3.03 0 5.5 2.46 5.5 5.5Zm-9.5 0c0 .83.25 1.6.69 2.24l5.55-5.56c-.65-.44-1.42-.7-2.25-.7 -2.21 0-4 1.79-4 4Zm4 4c2.2 0 4-1.8 4-4 0-.84-.26-1.61-.7-2.25L4.24 20.8c.64.43 1.41.69 2.24.69Z"/></svg>