<svg viewBox="0 0 24 24" xmlns="http://www.w3.org/2000/svg"><path fill="currentColor" d="M4 4.25C4 3 5 2 6.25 2h11.5C18.99 2 20 3 20 4.25v9.58c-.55-.22-1.14-.34-1.75-.34h-3.5c-2.63 0-4.75 2.12-4.75 4.75 0 1.52.71 2.88 1.83 3.75H6.24c-1.25 0-2.25-1.01-2.25-2.25V4.24ZM16.25 6h-8.5c-.42 0-.75.33-.75.75 0 .41.33.75.75.75h8.5c.41 0 .75-.34.75-.75 0-.42-.34-.75-.75-.75Zm0 5h-8.5c-.42 0-.75.33-.75.75 0 .41.33.75.75.75h8.5c.41 0 .75-.34.75-.75 0-.42-.34-.75-.75-.75ZM22 18.25c0-2.08-1.68-3.75-3.75-3.75l-.11 0c-.37.04-.65.36-.65.74 0 .41.33.75.75.75l.15 0c1.17.07 2.096 1.05 2.096 2.24 0 1.24-1.01 2.25-2.25 2.25l-.01 0 -.11 0c-.37.05-.65.36-.65.74 0 .41.33.74.75.74v-.01l.19-.01c1.97-.11 3.54-1.75 3.54-3.75Zm-6.5-3c0-.42-.34-.75-.75-.75l-.2 0c-1.98.1-3.56 1.74-3.56 3.74 0 2.07 1.67 3.75 3.75 3.75l.1-.01c.36-.05.64-.37.64-.75 0-.42-.34-.75-.75-.75l-.16-.01c-1.18-.08-2.096-1.06-2.096-2.25 0-1.25 1-2.25 2.25-2.25l.1-.01c.36-.05.64-.37.64-.75Zm3.5 3c0-.42-.34-.75-.75-.75h-3.5l-.11 0c-.37.04-.65.36-.65.74 0 .41.33.75.75.75h3.5l.1-.01c.36-.05.64-.37.64-.75Z"/></svg>