<svg viewBox="0 0 24 24" xmlns="http://www.w3.org/2000/svg"><path fill="currentColor" d="M12 8V2H6c-1.11 0-2 .89-2 2v16c0 1.1.89 2 2 2h6.8c-.79-.83-1.37-1.86-1.64-3h-.43c-.42 0-.75-.34-.75-.75 0-.42.33-.75.75-.75h.25c0-.52.06-1.02.17-1.5h-.43c-.42 0-.75-.34-.75-.75 0-.42.33-.75.75-.75h.98c.28-.56.65-1.06 1.07-1.5h-2.06c-.42 0-.75-.34-.75-.75 0-.42.33-.75.75-.75h4.24c.77-.33 1.61-.5 2.5-.5 .88 0 1.73.17 2.5.49v-1.5h-6c-1.11 0-2-.9-2-2Zm-5 4.25c0-.42.33-.75.75-.75 .41 0 .75.33.75.75 0 .41-.34.75-.75.75 -.42 0-.75-.34-.75-.75Zm0 3c0-.42.33-.75.75-.75 .41 0 .75.33.75.75 0 .41-.34.75-.75.75 -.42 0-.75-.34-.75-.75Zm0 3c0-.42.33-.75.75-.75 .41 0 .75.33.75.75 0 .41-.34.75-.75.75 -.42 0-.75-.34-.75-.75ZM13.5 8V2.5l6 6H14c-.28 0-.5-.23-.5-.5Zm9.5 9.5c0-3.04-2.47-5.5-5.5-5.5 -3.04 0-5.5 2.46-5.5 5.5 0 3.03 2.46 5.5 5.5 5.5 3.03 0 5.5-2.47 5.5-5.5Zm-5.78.41c-.14-.09-.23-.25-.23-.42 0-.03 0-.05 0-.08l-.01-3.93c0-.28.22-.5.5-.5 .27 0 .5.22.5.5l0 3.5h2.49c.27 0 .49.22.49.5 0 .27-.23.5-.5.5H17.52c-.02 0-.04 0-.06 0 -.11 0-.21-.04-.29-.09Z"/></svg>