<svg viewBox="0 0 24 24" xmlns="http://www.w3.org/2000/svg"><path fill="currentColor" d="M12 2v6c0 1.1.89 2 2 2h6v10c0 1.1-.9 2-2 2h-6.81c1.12-1.17 1.8-2.76 1.8-4.5 0-3.59-2.92-6.5-6.5-6.5 -.89 0-1.74.17-2.5.49v-7.5c0-1.11.89-2 2-2h6Zm1.5.5V8c0 .27.22.5.5.5h5.5l-6-6ZM6.5 23C3.46 23 1 20.53 1 17.5 1 14.46 3.46 12 6.5 12c3.03 0 5.5 2.46 5.5 5.5 0 3.03-2.47 5.5-5.5 5.5Zm-1.15-7.65c.19-.2.19-.52 0-.71 -.2-.2-.52-.2-.71 0l-2.5 2.5c-.2.19-.2.51 0 .7l2.5 2.5c.19.19.51.19.7 0 .19-.2.19-.52 0-.71l-2.15-2.15 2.14-2.15Zm2.29-.71c-.2.19-.2.51 0 .7l2.14 2.14 -2.15 2.14c-.2.19-.2.51 0 .7 .19.19.51.19.7 0l2.5-2.5c.19-.2.19-.52 0-.71l-2.51-2.5c-.2-.2-.52-.2-.71 0Z"/></svg>