<svg viewBox="0 0 24 24" xmlns="http://www.w3.org/2000/svg"><path fill="currentColor" d="M12 8V2H6c-1.11 0-2 .89-2 2v16c0 1.1.89 2 2 2h12c1.1 0 2-.9 2-2V10h-6c-1.11 0-2-.9-2-2Zm-5.5.25c0-.42.33-.75.75-.75h2.5c.41 0 .75.33.75.75v2.5c0 .41-.34.75-.75.75h-.5v2.68l1.56 1.56h2.68v-.5c0-.42.33-.75.75-.75h2.5c.41 0 .75.33.75.75v2.5c0 .41-.34.75-.75.75h-2.5c-.42 0-.75-.34-.75-.75v-.5H10.8l-1.79 1.78c-.3.29-.77.29-1.07 0l-2-2c-.3-.3-.3-.77 0-1.07l1.78-1.79v-2.69h-.5c-.42 0-.75-.34-.75-.75v-2.5Zm7-.25V2.5l6 6H14c-.28 0-.5-.23-.5-.5Z"/></svg>