<svg viewBox="0 0 24 24" xmlns="http://www.w3.org/2000/svg"><path fill="currentColor" d="M12 2.4v5.4c0 .99.8 1.8 1.8 1.8h5.4v3.62c-.6.1-1.11.49-1.35 1.05 -.2-.45-.57-.81-1.06-.98 -.94-.33-1.97.16-2.3 1.1l-.41 1.14 -.41-1.15c-.33-.94-1.36-1.44-2.3-1.11 -.5.17-.87.53-1.06.97 -.29-.66-.94-1.09-1.66-1.09 -.77 0-1.45.48-1.7 1.2l-1.01 2.86v-2.27c0-.79-.51-1.46-1.2-1.7V4.13c0-1 .8-1.8 1.79-1.8h5.4Zm1.2.3v5.1c0 .33.26.6.6.6h5.1l-5.7-5.7Zm.9 18.9c.25 0 .48-.17.56-.41l2.1-6c.1-.32-.06-.66-.37-.77 -.32-.11-.66.05-.77.36l-1.54 4.38 -1.54-4.39c-.11-.32-.46-.48-.77-.37 -.32.1-.48.45-.37.76l2.1 6c.08.24.31.4.56.4Zm5.96-6.8c-.09-.25-.32-.41-.57-.41 -.26 0-.49.16-.57.4l-2.1 6c-.11.31.05.65.36.76 .31.1.65-.06.76-.37l.27-.8h2.5l.27.79c.1.31.45.47.76.36 .31-.11.47-.46.36-.77l-2.1-6Zm.26 4.39h-1.67l.83-2.39 .83 2.38Zm-16.14-4.8c.33 0 .6.26.6.6v4.8c0 .99-.81 1.8-1.8 1.8 -1 0-1.8-.81-1.8-1.8v-.6c0-.34.26-.6.6-.6 .33 0 .6.26.6.6v.6c0 .33.26.6.6.6 .33 0 .6-.27.6-.6v-4.8c0-.34.26-.6.6-.6Zm4.49 0c.25 0 .48.16.56.4l2.09 6c.1.31-.06.65-.37.76 -.32.1-.66-.06-.77-.37l-.28-.8H7.39l-.28.79c-.11.31-.46.47-.77.36 -.32-.11-.48-.46-.37-.77l2.1-6c.08-.25.31-.41.56-.41Zm0 2.41l-.84 2.38h1.66l-.84-2.39Z"/></svg>