<svg viewBox="0 0 24 24" xmlns="http://www.w3.org/2000/svg"><path fill="currentColor" d="M15 6.75V1.875L20.625 7.5H15.75c-.42 0-.75-.33-.75-.75Zm-1.5 0c0 1.245 1 2.25 2.25 2.25H21v11.25c0 1.24-1.01 2.25-2.25 2.25h-6.89c.09-.24.13-.48.13-.75V19.5l1.8-2.4c.36-.47.51-1.08.42-1.67 -.08-.6-.39-1.125-.87-1.49 -.375-.29-.87-.45-1.35-.45h-.23l-.11.03c-.59.07-1.11.39-1.47.87l-.45.6 -.45-.6c-.36-.48-.87-.78-1.49-.89l-.21-.02h-.11c-.5 0-.98.16-1.35.45 -.06.04-.11.09-.15.13L5.96 3.72c0-1.245 1.005-2.25 2.25-2.25h5.25v5.25ZM2.25 15h1.5c.59 0 1.17.23 1.59.65 .42.42.65.99.65 1.59 0 .59-.24 1.17-.66 1.59 -.43.42-1 .65-1.6.65h-.75v2.25c0 .19-.08.39-.22.53 -.15.13-.34.21-.54.21s-.39-.08-.54-.22c-.14-.15-.22-.34-.22-.54v-6c0-.2.07-.39.21-.54 .14-.14.33-.22.53-.22ZM3 18h.75c.19 0 .39-.08.53-.22 .13-.15.21-.34.21-.54s-.08-.39-.22-.54c-.15-.14-.34-.22-.54-.22h-.75v1.5Zm7.5.99l2.1-2.8c.12-.16.17-.36.14-.56 -.03-.2-.14-.38-.3-.5 -.16-.12-.36-.18-.56-.15 -.2.02-.38.13-.5.29l-1.65 2.2 -1.65-2.21c-.12-.16-.3-.27-.5-.3 -.2-.03-.4.02-.56.14 -.08.05-.15.13-.2.21 -.06.08-.09.17-.1.27 -.02.09-.01.19.01.29 .02.09.06.18.12.26l2.1 2.79v2.75c0 .19.07.39.21.53 .14.13.33.21.53.21 .19 0 .39-.08.53-.22 .13-.15.21-.34.21-.54v-2.76Z"/></svg>