<svg viewBox="0 0 24 24" xmlns="http://www.w3.org/2000/svg"><path fill="currentColor" d="M7 2c-1.11 0-2 .89-2 2v13c0 1.1.89 2 2 2h10c1.1 0 2-.9 2-2V8.5h-4.75c-.97 0-1.75-.79-1.75-1.76l0-4.75H6.99Zm1.75 3h1.5c.41 0 .75.33.75.75 0 .41-.34.75-.75.75h-1.5c-.42 0-.75-.34-.75-.75 0-.42.33-.75.75-.75ZM8 8.75c0-.42.33-.75.75-.75h1.5c.41 0 .75.33.75.75 0 .41-.34.75-.75.75h-1.5c-.42 0-.75-.34-.75-.75ZM8.75 11h1.5c.41 0 .75.33.75.75 0 .41-.34.75-.75.75h-1.5c-.42 0-.75-.34-.75-.75 0-.42.33-.75.75-.75ZM14 2l4.99 4.99h-4.75c-.14 0-.25-.12-.25-.26l0-4.75ZM2.74 14.99c.41 0 .75.33.75.75v1.75c0 1.65 1.34 3 3 3h11c1.65 0 3-1.35 3-3v-1.75c0-.42.33-.75.75-.75 .41 0 .75.33.75.75v1.75c0 2.48-2.02 4.5-4.5 4.5h-11c-2.49 0-4.5-2.02-4.5-4.5v-1.75c0-.42.33-.75.75-.75Zm9.75-13l1.49 0 -1.5-.01Z"/></svg>