<svg viewBox="0 0 24 24" xmlns="http://www.w3.org/2000/svg"><path fill="currentColor" d="M12 2v6c0 1.1.89 2 2 2h6v10c0 1.1-.9 2-2 2h-6.81c1.12-1.17 1.8-2.76 1.8-4.5 0-3.59-2.92-6.5-6.5-6.5 -.89 0-1.74.17-2.5.49v-7.5c0-1.11.89-2 2-2h6Zm1.5.5V8c0 .27.22.5.5.5h5.5l-6-6ZM1 17.5C1 20.53 3.46 23 6.5 23c3.03 0 5.5-2.47 5.5-5.5 0-3.04-2.47-5.5-5.5-5.5C3.46 12 1 14.46 1 17.5Zm4.75 3.25c0-.42.33-.75.75-.75 .41 0 .75.33.75.75 0 .41-.34.75-.75.75 -.42 0-.75-.34-.75-.75ZM4.5 16c0-1.11.89-2 2-2 1.1 0 2 .89 2 2 0 .73-.22 1.13-.76 1.7l-.27.26 -.12.125c-.29.31-.37.52-.37.89 0 .27-.23.5-.5.5 -.28 0-.5-.23-.5-.5 0-.74.21-1.14.75-1.71l.26-.27 .11-.13c.28-.32.36-.53.36-.9 0-.56-.45-1-1-1 -.56 0-1 .44-1 1 0 .27-.23.5-.5.5 -.28 0-.5-.23-.5-.5Z"/></svg>