<svg viewBox="0 0 24 24" xmlns="http://www.w3.org/2000/svg"><path fill="currentColor" d="M12.75 4H14v6c0 1.1.89 2 2 2h6v6c0 1.1-.9 2-2 2h-7.25c-.42 0-.75-.34-.75-.75V4.75c0-.42.33-.75.75-.75Zm8.73 6.42c.02.02.04.04.06.07h-5.56c-.28 0-.5-.23-.5-.5V4.43c.02.02.04.04.07.06l5.91 5.91Zm-17.99-.18c0-.42-.34-.75-.75-.75 -.42 0-.75.33-.75.75v3.5c0 .41.33.75.75.75 .41 0 .75-.34.75-.75v-3.5Zm3.5-5.5c0-.42.33-.75.75-.75h2c.41 0 .75.33.75.75 0 .41-.34.75-.75.75h-2c-.42 0-.75-.34-.75-.75Zm.75 13.75c-.42 0-.75.33-.75.75 0 .41.33.75.75.75h2c.41 0 .75-.34.75-.75 0-.42-.34-.75-.75-.75h-2ZM1.99 5.99c0-1.11.89-2 2-2h.75c.41 0 .75.33.75.75 0 .41-.34.75-.75.75h-.75c-.28 0-.5.22-.5.5v1.25c0 .41-.34.75-.75.75 -.42 0-.75-.34-.75-.75V5.99Zm2 14c-1.11 0-2-.9-2-2v-1.25c0-.42.33-.75.75-.75 .41 0 .75.33.75.75v1.25c0 .27.22.5.5.5h.75c.41 0 .75.33.75.75 0 .41-.34.75-.75.75h-.75Z"/></svg>