<svg viewBox="0 0 24 24" xmlns="http://www.w3.org/2000/svg"><path fill="currentColor" d="M12 8V2H6c-1.11 0-2 .89-2 2v10.01c.08-.02.16-.02.25-.02 .67 0 1.25.37 1.54.93 .53-.58 1.3-.94 2.15-.94h.1c1.62 0 2.95 1.32 2.95 2.95v.05c0 .45-.17.86-.45 1.17 .28.43.44.95.44 1.5v.37c0 .74-.28 1.43-.74 1.95h7.73c1.1 0 2-.9 2-2v-10h-6c-1.11 0-2-.9-2-2Zm1.5 0V2.5l6 6H14c-.28 0-.5-.23-.5-.5Zm-9.25 7c.41 0 .75.33.75.75V20c0 1.1-.9 2-2 2 -1.11 0-2-.9-2-2v-.25c0-.42.33-.75.75-.75 .41 0 .75.33.75.75V20c0 .27.22.5.5.5 .27 0 .5-.23.5-.5v-4.25c0-.42.33-.75.75-.75Zm3.7 0C6.87 15 6 15.87 6 16.95v.23c0 .61.32 1.18.84 1.5l1.52.91c.07.04.12.12.12.21v.23c0 .24-.21.45-.45.45h-.1c-.25 0-.45-.21-.45-.45v-.05c0-.42-.34-.75-.75-.75 -.42 0-.75.33-.75.75v.05c0 1.07.87 1.95 1.95 1.95h.1c1.07 0 1.95-.88 1.95-1.95v-.24c0-.62-.33-1.19-.85-1.51l-1.53-.92c-.08-.05-.13-.13-.13-.22v-.24c0-.25.2-.45.45-.45h.1c.24 0 .45.2.45.45v.05c0 .41.33.75.75.75 .41 0 .75-.34.75-.75v-.05c0-1.08-.88-1.95-1.95-1.95h-.1Z"/></svg>