<svg viewBox="0 0 24 24" xmlns="http://www.w3.org/2000/svg"><path fill="currentColor" d="M4 4.25C4 3 5 2 6.25 2h4.25v4.74c0 1.24 1 2.25 2.25 2.25h4.74v8.25c0 1.24-1.01 2.25-2.25 2.25h-2.4c-.44-1.45-1.77-2.5-3.36-2.5l-.03 0 2.01-2.02c.68-.69.68-1.8 0-2.48 -.69-.69-1.8-.69-2.48 0L6.96 14.5l0-.03c0-1.77-1.31-3.23-3-3.47V4.21Zm9 16.25c0 .53-.13 1.04-.34 1.5h2.58c2.62 0 4.75-2.13 4.75-4.75v-5.89c0-.6-.24-1.17-.66-1.6l-.85-.85v8.31c0 1.79-1.46 3.25-3.25 3.25h-2.26ZM12 6.74V2.45c.07.05.14.12.21.19l4.61 4.61c.06.06.13.14.19.21h-4.28c-.42 0-.75-.34-.75-.75ZM3.49 16.99c1.38 0 2.5-1.12 2.5-2.5 0-1.39-1.12-2.5-2.5-2.5 -1.39 0-2.5 1.11-2.5 2.5 0 1.38 1.11 2.5 2.5 2.5Zm0-3.5c.55 0 1 .44 1 1 0 .55-.45 1-1 1 -.56 0-1-.45-1-1 0-.56.44-1 1-1Zm6 9.5c1.38 0 2.5-1.12 2.5-2.5 0-1.39-1.12-2.5-2.5-2.5 -1.39 0-2.5 1.11-2.5 2.5 0 1.38 1.11 2.5 2.5 2.5Zm0-3.5c.55 0 1 .44 1 1 0 .55-.45 1-1 1 -.56 0-1-.45-1-1 0-.56.44-1 1-1Zm1.28-5.22c.29-.3.29-.77 0-1.07 -.3-.3-.77-.3-1.07 0l-7.5 7.5c-.3.29-.3.76 0 1.06 .29.29.76.29 1.06 0l7.49-7.5Z"/></svg>