<svg viewBox="0 0 24 24" xmlns="http://www.w3.org/2000/svg"><path fill="currentColor" d="M12 2v6c0 1.1.89 2 2 2h6v10c0 1.1-.9 2-2 2H9v-3.68c.62-.78 1-1.76 1-2.83 0-2.49-2.02-4.51-4.5-4.51 -.53 0-1.04.09-1.5.25V3.97c0-1.11.89-2.01 2-2.01h6Zm1.5.5V8c0 .27.22.5.5.5h5.5l-6-6.01ZM9 15.5C9 17.43 7.43 19 5.5 19 3.56 19 2 17.43 2 15.49c0-1.94 1.56-3.51 3.5-3.51 1.93 0 3.5 1.56 3.5 3.5Zm-6 3.74v3.04c0 .63.76.94 1.21.5l1.28-1.29 1.28 1.28c.44.44 1.21.13 1.21-.51v-3.05c-.72.47-1.58.75-2.5.75 -.93 0-1.79-.28-2.5-.76Z"/></svg>