<svg viewBox="0 0 24 24" xmlns="http://www.w3.org/2000/svg"><path fill="currentColor" d="M15 6.75V1.875L20.625 7.5H15.75c-.42 0-.75-.33-.75-.75Zm-1.5 0c0 1.245 1 2.25 2.25 2.25H21v11.25c0 1.24-1.01 2.25-2.25 2.25h-5.625c.21-.29.39-.6.52-.95 .25-.72.3-1.5.1-2.25 -.09-.35-.23-.68-.42-.99 .09-.26.13-.54.15-.83 .04-.68-.09-1.37-.41-1.98 -.32-.6-.8-1.11-1.38-1.47 -.59-.36-1.26-.54-1.95-.54h-1.5c-.41 0-.8.1-1.13.3 -.11-.06-.23-.12-.35-.17 -.26-.09-.51-.14-.78-.14V3.73c0-1.245 1.005-2.25 2.25-2.25h5.25v5.25Zm-1.51 10.64c-.03.41-.17.8-.41 1.14l0 0c.34.29.59.69.71 1.14 .11.44.09.91-.07 1.34 -.17.43-.45.8-.83 1.06 -.38.26-.83.4-1.29.4H8.22c-.2 0-.39-.08-.54-.22 -.14-.15-.22-.34-.22-.54v-6c0-.2.07-.39.21-.54 .14-.14.33-.22.53-.22h1.5c.41 0 .81.11 1.16.32 .35.21.63.51.82.88 .19.36.27.77.24 1.18Zm-2.25-.91h-.75v1.5h.75c.19 0 .38-.08.53-.22 .13-.15.21-.34.21-.54s-.08-.39-.22-.54c-.15-.14-.34-.22-.54-.22Zm-.75 4.5h1.12c.19 0 .39-.08.53-.22 .13-.15.21-.34.21-.54s-.08-.39-.22-.54c-.15-.14-.34-.22-.54-.22H8.96v1.5Zm-4.548 1.01l2.25-6v0c.06-.19.06-.4-.03-.58 -.09-.19-.24-.33-.42-.4 -.19-.07-.4-.07-.58.01 -.19.08-.33.23-.4.41L3.71 19.558 2.16 15.43c-.08-.19-.22-.34-.4-.42 -.18-.09-.387-.09-.573-.02 -.19.07-.34.21-.42.39 -.05.09-.07.18-.07.28 -.01.09.01.19.04.28l2.25 5.99c.05.14.14.26.27.35 .12.08.27.13.42.13 .15 0 .3-.05.42-.14 .12-.09.22-.21.27-.36Z"/></svg>