<svg viewBox="0 0 24 24" xmlns="http://www.w3.org/2000/svg"><path fill="currentColor" d="M12 2v6c0 1.1.89 2 2 2h6v10c0 1.1-.9 2-2 2h-6.05c.03-.17.05-.33.05-.5v-5c0-1.21-.86-2.22-2-2.45V14c0-1.94-1.57-3.5-3.5-3.5 -.98 0-1.87.4-2.5 1.05V3.99c0-1.11.89-2 2-2h6Zm1.5.5V8c0 .27.22.5.5.5h5.5l-6-6ZM4 15h-.5c-.83 0-1.5.67-1.5 1.5v5c0 .82.67 1.5 1.5 1.5h6c.82 0 1.5-.68 1.5-1.5v-5c0-.83-.68-1.5-1.5-1.5H9v-1c0-1.39-1.12-2.5-2.5-2.5C5.11 11.5 4 12.61 4 14v1Zm1.5-1c0-.56.44-1 1-1 .55 0 1 .44 1 1v1h-2v-1Zm2 5c0 .55-.45 1-1 1 -.56 0-1-.45-1-1 0-.56.44-1 1-1 .55 0 1 .44 1 1Z"/></svg>