<svg viewBox="0 0 24 24" xmlns="http://www.w3.org/2000/svg"><g fill="currentColor"><path d="M12 2v6c0 1.1.89 2 2 2h6v10c0 1.1-.9 2-2 2h-6.81c1.12-1.17 1.8-2.76 1.8-4.5 0-3.59-2.92-6.5-6.5-6.5 -.89 0-1.74.17-2.5.49v-7.5c0-1.11.89-2 2-2h6Z"/><path d="M13.5 2.5V8c0 .27.22.5.5.5h5.5l-6-6Z"/><path d="M12 17.5c0 3.03-2.47 5.5-5.5 5.5C3.46 23 1 20.53 1 17.5 1 14.46 3.46 12 6.5 12c3.03 0 5.5 2.46 5.5 5.5Zm-2.15-2.36c-.2-.2-.52-.2-.71 0l-3.65 3.64 -1.65-1.65c-.2-.2-.52-.2-.71 0 -.2.19-.2.51 0 .7l2 2c.19.19.51.19.7 0l4-4c.19-.2.19-.52 0-.71Z"/></g></svg>