<svg viewBox="0 0 24 24" xmlns="http://www.w3.org/2000/svg"><path fill="currentColor" d="M15.75 7.5h4.875L15 1.875V6.75c0 .41.33.75.75.75Zm0 1.5C14.5 9 13.5 7.992 13.5 6.75V1.5H8.25C7.008 1.5 6 2.508 6 3.75v9.88c.31.11.6.28.84.52 .28.28.47.63.57 1.01 .02-.01.04-.03.07-.04 .03-.02.06-.04.1-.05 .1-.35.29-.68.56-.94 .42-.43.99-.66 1.59-.66 .55 0 1.08.2 1.5.57 .41-.38.94-.58 1.5-.58 .6 0 1.16.23 1.59.65 .26.26.45.58.56.93 .34.1.67.29.93.56 .42.42.65.99.65 1.59 0 .55-.21 1.08-.58 1.5 .37.41.57.94.57 1.5 0 .6-.24 1.16-.66 1.59 -.27.26-.59.45-.94.56 -.01.01-.02.03-.03.05 -.01.01-.02.02-.03.04h3.88c1.24 0 2.25-1.01 2.25-2.25V8.93h-5.25Zm-1.5 10.5h-.75V18h.75c.19 0 .39-.08.53-.22 .14-.15.21-.34.21-.54s-.08-.39-.22-.54c-.15-.15-.34-.22-.54-.22h-.75v-.75c0-.2-.08-.39-.22-.54 -.15-.15-.34-.22-.54-.22s-.39.07-.54.21c-.15.14-.22.33-.22.53v.75h-1.5v-.75c0-.2-.08-.39-.22-.54 -.15-.15-.34-.22-.54-.22s-.39.07-.54.21c-.15.14-.22.33-.22.53v.75h-.75c-.2 0-.39.07-.54.21 -.15.14-.22.33-.22.53 0 .19.07.39.21.53 .14.14.33.21.53.21h.76l0 1.5h-.78c-.2 0-.39.07-.54.21 -.15.14-.22.33-.22.53 0 .19.07.39.21.53 .14.14.33.21.53.21h.78v.75c0 .19.07.39.21.53 .14.14.33.21.53.21 .19 0 .39-.08.53-.22 .14-.15.21-.34.21-.54v-.75h1.46v.75c0 .19.07.39.21.53 .14.14.33.21.53.21 .19 0 .39-.08.53-.22 .14-.15.21-.34.21-.54v-.75h.75c.19 0 .39-.08.53-.22 .14-.15.21-.34.21-.54s-.08-.39-.22-.54c-.15-.15-.34-.22-.54-.22Zm-2.25 0h-1.48l-.01-1.5h1.48v1.5Zm-6.22-3.22c.13-.15.21-.34.21-.54s-.08-.39-.22-.54c-.15-.14-.34-.22-.54-.22h-3c-.2 0-.39.07-.54.21 -.14.14-.22.33-.22.53v6c0 .19.07.39.21.53 .14.13.33.21.53.21 .19 0 .39-.08.53-.22 .13-.15.21-.34.21-.54v-2.25h1.5c.19 0 .39-.08.53-.22 .13-.15.21-.34.21-.54s-.08-.39-.22-.54c-.15-.14-.34-.22-.54-.22h-1.5v-1.5h2.25c.19 0 .39-.08.53-.22Z"/></svg>