<svg viewBox="0 0 24 24" xmlns="http://www.w3.org/2000/svg"><path fill="currentColor" d="M17.75 2c1.19 0 2.16.92 2.24 2.09l0 .15 -.01 3.51c-.53-.08-1.09.08-1.49.49 -.47.46-.62 1.12-.43 1.74l.05.15 .04.09 -1.53 0c-.85-.01-1.51.64-1.64 1.45l-.02.14 -.01.14c0 .79.51 1.51 1.33 1.7l.15.03 .16 0 1.51-.01 -.02.03c-.21.46-.2 1.01.04 1.51l.09.16 .09.14 .12.13c.39.39.94.56 1.48.48v3.52c0 1.19-.93 2.16-2.096 2.24l-.16 0H6.14c-1.2 0-2.17-.93-2.25-2.096l-.01-.16 -.01-3.53c.54.08 1.08-.09 1.48-.49l.12-.14 .09-.15c.33-.54.36-1.16.13-1.68l-.02-.04 1.51 0 .16-.01c.91-.14 1.49-.9 1.49-1.75l-.01-.15c-.07-.88-.76-1.61-1.66-1.61l-1.53-.01 .04-.1c.26-.67.12-1.4-.38-1.9 -.41-.41-.97-.58-1.49-.5l0-3.52c0-1.2.92-2.17 2.09-2.25l.15-.01h11.5ZM4.78 8.96c.26.26.29.68.07.97l-.08.08 -1.23 1.21h3.78c.36-.01.65.33.65.74 0 .37-.25.69-.57.74l-.09 0H3.52l1.22 1.22c.26.26.29.68.07.97l-.08.08c-.27.26-.69.29-.98.07l-.09-.08 -2.37-2.37c-.21-.13-.36-.38-.36-.67 0-.29.14-.54.35-.67l2.37-2.37c.29-.3.76-.3 1.06 0Zm14.43-.01c.26-.27.68-.3.97-.08l.08.07 2.37 2.36c.2.12.35.37.35.66 0 .25-.11.47-.28.61l-.08.05 -2.37 2.36 -.09.07c-.27.19-.62.19-.89 0l-.1-.08 -.08-.09c-.2-.27-.2-.62-.01-.89l.07-.1 1.22-1.23h-3.79l-.09-.01c-.33-.05-.57-.37-.57-.75s.24-.7.56-.75l.08-.01h3.78l-1.23-1.22 -.08-.09c-.22-.3-.2-.72.07-.98Z"/></svg>