<svg viewBox="0 0 24 24" xmlns="http://www.w3.org/2000/svg"><path fill="currentColor" d="M12 8V2H5.5C4.67 2 4 2.67 4 3.5v17c0 .82.67 1.5 1.5 1.5h5.96c.06 0 .13-.01.2-.02 -.89-1.49-.7-3.45.58-4.73l5-5c.75-.76 1.74-1.14 2.73-1.14V9.98h-6c-1.11 0-2-.9-2-2Zm1.5 0V2.5l6 6H14c-.28 0-.5-.23-.5-.5Zm8.53 4.96c-1.13-1.13-2.94-1.13-4.07 0l-5 5c-1.13 1.12-1.13 2.93 0 4.06 1.12 1.12 2.93 1.12 4.06 0l5-5c1.12-1.13 1.12-2.94 0-4.07Zm-3 1.06c.53-.54 1.4-.54 1.93 0 .53.53.53 1.4 0 1.93l-1.97 1.96 -1.94-1.94L19.01 14Zm-2 4.93c.29.29.29.76 0 1.06l-1 1c-.3.29-.77.29-1.07 0 -.3-.3-.3-.77 0-1.07l1-1c.29-.3.76-.3 1.06 0Z"/></svg>