<svg viewBox="0 0 24 24" xmlns="http://www.w3.org/2000/svg"><path fill="currentColor" d="M12 2v6c0 1.1.89 2 2 2h6v10c0 1.1-.9 2-2 2h-5.05c.03-.17.05-.33.05-.5v-6.88c0-.67-.27-1.3-.74-1.77l-1.13-1.13c-.47-.47-1.11-.74-1.77-.74H3.98v-7c0-1.11.89-2 2-2h6Zm1.5.5V8c0 .27.22.5.5.5h5.5l-6-6ZM5 12h3v2H5v-2Zm-2.5 0H4v2.5c0 .27.22.5.5.5h4c.27 0 .5-.23.5-.5V12h.37c.39 0 .77.15 1.06.43l1.12 1.12c.28.28.43.66.43 1.06v6.87c0 .82-.68 1.5-1.5 1.5h-.5v-5.5c0-.28-.23-.5-.5-.5h-6c-.28 0-.5.22-.5.5v5.5h-.5c-.83 0-1.5-.68-1.5-1.5v-8c0-.83.67-1.5 1.5-1.5ZM9 18v5H4v-5h5Z"/></svg>