<svg viewBox="0 0 24 24" xmlns="http://www.w3.org/2000/svg"><path fill="currentColor" d="M17.75 2c1.19 0 2.16.92 2.24 2.09l0 .15v7.24c-.77-.33-1.62-.5-2.5-.5 -3.59 0-6.5 2.91-6.5 6.5 0 1.74.68 3.33 1.8 4.5H6.23c-1.2 0-2.17-.93-2.25-2.1l-.01-.16V4.22c0-1.2.92-2.17 2.09-2.25l.15-.01H17.7ZM8.5 5c-.83 0-1.51.67-1.51 1.5 0 .82.67 1.5 1.5 1.5h7c.82 0 1.5-.68 1.5-1.51s-.68-1.51-1.5-1.51H8.48Zm14.49 12.49c0 3.03-2.47 5.5-5.5 5.5 -3.04 0-5.5-2.47-5.5-5.5 0-3.04 2.46-5.5 5.5-5.5 3.03 0 5.5 2.46 5.5 5.5Zm-5-3c0-.28-.23-.5-.5-.5 -.28 0-.5.22-.5.5v4.79l-1.65-1.65c-.2-.2-.52-.2-.71 0 -.2.19-.2.51 0 .7l2.5 2.5c.19.19.51.19.7 0l2.5-2.5c.19-.2.19-.52 0-.71 -.2-.2-.52-.2-.71 0l-1.65 1.64v-4.8Z"/></svg>