<svg viewBox="0 0 24 24" xmlns="http://www.w3.org/2000/svg"><path fill="currentColor" d="M10.47 19h4.77c.96 0 1.75-.79 1.75-1.75v-4c0-.97-.79-1.75-1.75-1.75h-6.5c-.25 0-.48.04-.68.13 -.77-.41-1.65-.64-2.58-.64 -.53 0-1.03.07-1.5.2V3.98c0-1.11.89-2 2-2h6v6c0 1.1.89 2 2 2h6v10c0 1.1-.9 2-2 2h-5.02c-.06-.37-.22-.71-.5-.99l-2.02-2.02Zm5.02-3v1.25c0 .13-.12.25-.25.25h-3.75V16h4Zm-4-1.5V13h3.75c.13 0 .25.11.25.25v1.25h-4Zm2-12V8c0 .27.22.5.5.5h5.5l-6-6ZM9.15 19.1c.52-.74.83-1.64.83-2.61 0-2.49-2.02-4.5-4.5-4.5 -2.49 0-4.5 2.01-4.5 4.5 0 2.48 2.01 4.5 4.5 4.5 .97 0 1.87-.31 2.6-.84l2.61 2.61c.29.29.76.29 1.06 0 .29-.3.29-.77 0-1.07l-2.62-2.62Zm-.67-2.61c0 1.65-1.35 3-3 3 -1.66 0-3-1.35-3-3 0-1.66 1.34-3 3-3 1.65 0 3 1.34 3 3Z"/></svg>