<svg viewBox="0 0 24 24" xmlns="http://www.w3.org/2000/svg"><path fill="currentColor" d="M17.74 2c1.19 0 2.16.92 2.24 2.09l0 .15v7.24c-.77-.32-1.62-.5-2.5-.5 -3.59 0-6.5 2.9-6.5 6.49 0 1.74.68 3.32 1.8 4.49H6.22c-1.2 0-2.17-.93-2.25-2.1l-.01-.16V4.2c0-1.2.92-2.17 2.09-2.25l.15-.01h11.49ZM8.49 5c-.83 0-1.5.67-1.5 1.49s.67 1.49 1.49 1.49h6.99c.82 0 1.49-.68 1.49-1.5 0-.83-.68-1.5-1.5-1.5h-7Zm14.49 12.49c0 3.03-2.47 5.49-5.5 5.49 -3.04 0-5.5-2.47-5.5-5.5 0-3.04 2.46-5.5 5.49-5.5 3.03 0 5.49 2.46 5.49 5.49Zm-7.15-2.36c-.2-.2-.52-.2-.71 0 -.2.19-.2.51 0 .7l1.64 1.64 -1.65 1.64c-.2.19-.2.51 0 .7 .19.19.51.19.7 0l1.64-1.65 1.64 1.64c.19.19.51.19.7 0 .19-.2.19-.52 0-.71l-1.65-1.65 1.64-1.65c.19-.2.19-.52 0-.71 -.2-.2-.52-.2-.71 0l-1.65 1.64 -1.65-1.65Z"/></svg>