<svg viewBox="0 0 24 24" xmlns="http://www.w3.org/2000/svg"><path fill="currentColor" d="M12 2v6c0 1.1.89 2 2 2h6v10.5c0 .82-.68 1.5-1.5 1.5H9.73l2.57-2.58 .01-.03 .34-.35c1.79-1.8 1.79-4.72 0-6.52 -1.53-1.53-3.87-1.76-5.64-.7 -.93-.58-2.01-.8-3.05-.66V3.45c0-.83.67-1.5 1.5-1.5h6.5Zm1.5.5V8c0 .27.22.5.5.5h5.5l-6-6ZM2.06 13.21c1.36-1.37 3.55-1.41 4.97-.12 1.41-1.26 3.57-1.2 4.93.15 .75.75 1.1 1.76 1.05 2.74h-2.05l-.74-.74c-.35-.35-.81-.53-1.29-.52 -.49.01-.94.22-1.26.58l-.5.55 -.75-1.12c-.35-.52-.95-.82-1.57-.78 -.63.03-1.18.4-1.46.96l-.52 1.03H.96c-.07-1 .28-2.03 1.04-2.79Zm1.18 6.28l3.25 3.25c.15.15.36.22.56.21 .17-.01.35-.09.49-.22l3.25-3.26H8.64l-.37.41c-.37.4-.89.62-1.43.58 -.55-.04-1.04-.33-1.34-.78l-.15-.23H3.2Zm2.37-4.166c-.15-.23-.41-.35-.68-.34 -.27.01-.51.17-.63.41l-.8 1.58H1.71c-.42 0-.75.33-.75.75 0 .41.33.75.75.75h2.25c.28 0 .54-.17.67-.42l.42-.85 1.28 1.92c.12.19.34.31.57.33 .23.01.45-.08.61-.25l1.47-1.66 .68.68c.14.14.33.21.53.21h2c.41 0 .75-.34.75-.75 0-.42-.34-.75-.75-.75H10.5l-1.04-1.04c-.15-.15-.35-.23-.56-.22 -.21 0-.41.09-.54.25L7 17.44l-1.47-2.2Z"/></svg>