<svg viewBox="0 0 24 24" xmlns="http://www.w3.org/2000/svg"><path fill="currentColor" d="M12 2v6c0 1.1.89 2 2 2h6v10.5c0 .82-.68 1.5-1.5 1.5H13v-8c0-1.11-.9-2-2-2H4V3.5C4 2.67 4.67 2 5.5 2H12Zm1.5.5V8c0 .27.22.5.5.5h5.5l-6-6Zm-6.25 15c0-.42-.34-.75-.75-.75 -.42 0-.75.33-.75.75V21c0 .41.33.75.75.75 .41 0 .75-.34.75-.75v-3.5Zm0-2.25c0 .41-.34.75-.75.75 -.42 0-.75-.34-.75-.75 0-.42.33-.75.75-.75 .41 0 .75.33.75.75Zm-2.75-1.5c0 .41-.34.75-.75.75H2.5v7h1.25c.41 0 .75.33.75.75 0 .41-.34.75-.75.75H2.5c-.83 0-1.5-.68-1.5-1.5v-7c0-.83.67-1.5 1.5-1.5h1.25c.41 0 .75.33.75.75Zm4.75.75c-.42 0-.75-.34-.75-.75 0-.42.33-.75.75-.75h1.25c.82 0 1.5.67 1.5 1.5v7c0 .82-.68 1.5-1.5 1.5H9.25c-.42 0-.75-.34-.75-.75 0-.42.33-.75.75-.75h1.25v-7H9.25Z"/></svg>