<svg viewBox="0 0 24 24" xmlns="http://www.w3.org/2000/svg"><path fill="currentColor" d="M18.5 6.75l-.01-2.13c.87.3 1.5 1.14 1.5 2.12v7.49c-.39-.17-.81-.25-1.25-.25h-.25V6.73ZM4 4.25v2.99c.38-.17.8-.25 1.25-.25h2.84c.9 0 1.76.37 2.38 1.03L16 13.98h1.48V4.23c0-1.25-1.01-2.25-2.25-2.25h-9c-1.25 0-2.25 1-2.25 2.25ZM5.25 8C4 8 3 9 3 10.25v8.5C3 20.54 4.45 22 6.25 22h11.5c1.79 0 3.25-1.46 3.25-3.25v-1.5C21 16 19.99 15 18.75 15H15.9c-.21 0-.41-.09-.55-.24L9.74 8.71c-.43-.46-1.03-.72-1.65-.72H5.24Z"/></svg>