<svg viewBox="0 0 24 24" xmlns="http://www.w3.org/2000/svg"><path fill="currentColor" d="M12 8V2H6c-1.11 0-2 .89-2 2v10.55c.24-.04.49-.06.75-.06H8v-2.75c0-.42.33-.75.75-.75 .41 0 .75.33.75.75v2.91c.64.17 1.24.48 1.75.9v-.82c0-.42.33-.75.75-.75 .41 0 .75.33.75.75v2.97c.16.47.25.99.25 1.52 0 1.02-.33 1.97-.88 2.75h5.87c1.1 0 2-.9 2-2v-10h-6c-1.11 0-2-.9-2-2Zm3.25 4c.41 0 .75.33.75.75v5.5c0 .41-.34.75-.75.75 -.42 0-.75-.34-.75-.75v-5.5c0-.42.33-.75.75-.75ZM13.5 8V2.5l6 6H14c-.28 0-.5-.23-.5-.5ZM12 19.25c0-2.08-1.68-3.75-3.75-3.75l-.11 0c-.37.04-.65.36-.65.74 0 .41.33.75.75.75l.15 0c1.17.07 2.09 1.05 2.09 2.24 0 1.24-1.01 2.25-2.25 2.25l-.01 0 -.11 0c-.37.05-.65.36-.65.74 0 .41.33.74.75.74v-.01l.19-.01c1.97-.11 3.54-1.75 3.54-3.75Zm-6.5-3c0-.42-.34-.75-.75-.75l-.2 0c-1.98.1-3.56 1.74-3.56 3.74 0 2.07 1.67 3.75 3.75 3.75l.1-.01c.36-.05.64-.37.64-.75 0-.42-.34-.75-.75-.75l-.16-.01c-1.18-.08-2.1-1.06-2.1-2.25 0-1.25 1-2.25 2.25-2.25l.1-.01c.36-.05.64-.37.64-.75Zm3.5 3c0-.42-.34-.75-.75-.75h-3.5l-.11 0c-.37.04-.65.36-.65.74 0 .41.33.75.75.75h3.5l.1-.01c.36-.05.64-.37.64-.75Z"/></svg>