<svg viewBox="0 0 24 24" xmlns="http://www.w3.org/2000/svg"><path fill="currentColor" d="M12 6.75V1.5H6.75c-1.25 0-2.25 1-2.25 2.25v9.82c.94.19 1.76.74 2.3 1.5 .29-.18.5-.4.65-.6 .88-1.17 2.2-1.01 2.67-.89 .33.08.73.26 1.09.6 .37.35.77.95.77 1.77v5.76c0 .26-.05.51-.13.75h5.37c1.24 0 2.25-1.01 2.25-2.25V8.96h-5.25c-1.25 0-2.25-1.01-2.25-2.25Zm1.5 0V1.875L19.125 7.5H14.25c-.42 0-.75-.34-.75-.75Zm-12 10.5C1.5 16 2.5 15 3.75 15 4.99 15 6 16 6 17.25v3c0 1.24-1.01 2.25-2.25 2.25 -1.25 0-2.25-1.01-2.25-2.25v-3Zm2.25-.75c-.42 0-.75.33-.75.75v3c0 .41.33.75.75.75 .41 0 .75-.34.75-.75v-3c0-.42-.34-.75-.75-.75Zm6.75-.52c0-.31-.15-.54-.3-.68s-.32-.22-.46-.26c-.23-.07-.76-.11-1.09.33 -.3.39-.77.85-1.47 1.17 -.38.17-.55.61-.38.99 .17.37.61.54.99.37 .46-.22.86-.48 1.18-.75v4.56c0 .41.33.75.75.75 .41 0 .75-.34.75-.75v-5.77Z"/></svg>