<svg viewBox="0 0 24 24" xmlns="http://www.w3.org/2000/svg"><path fill="currentColor" d="M15.75 7.5h4.875L15 1.875V6.75c0 .41.33.75.75.75Zm0 1.5C14.5 9 13.5 7.992 13.5 6.75V1.5H8.25C7.008 1.5 6 2.508 6 3.75v10.51l.05.04c.11.09.23.17.34.28 .23.23.42.51.58.8 .18-.13.38-.24.6-.31 .1-.35.29-.68.56-.94 .42-.43.99-.66 1.59-.66 .55 0 1.08.2 1.5.57 .41-.38.94-.58 1.5-.58 .6 0 1.16.23 1.59.65 .26.26.45.58.56.93 .34.1.67.29.93.56 .42.42.65.99.65 1.59 0 .55-.21 1.08-.58 1.5 .37.41.57.94.57 1.5 0 .6-.24 1.16-.66 1.59 -.27.26-.59.45-.94.56 -.01.01-.02.03-.03.05 -.01.01-.02.02-.03.04h3.88c1.24 0 2.25-1.01 2.25-2.25V8.93h-5.26Zm-12 13.5c-.597 0-1.17-.24-1.6-.66 -.43-.43-.66-1-.66-1.6v-3c0-.6.23-1.17.65-1.6 .42-.43.99-.66 1.59-.66 .59 0 1.16.23 1.59.65 .42.42.65.99.65 1.59 0 .19-.08.39-.22.53 -.15.14-.34.21-.54.21s-.39-.08-.54-.22c-.15-.15-.22-.34-.22-.54s-.08-.39-.22-.54c-.15-.15-.34-.22-.54-.22s-.39.07-.54.21c-.15.14-.22.33-.22.53v3c0 .19.07.39.21.53 .14.14.33.21.53.21 .19 0 .39-.08.53-.22 .14-.15.21-.34.21-.54s.07-.39.21-.54c.14-.15.33-.22.53-.22 .19 0 .39.07.53.21 .14.14.21.33.21.53 0 .59-.24 1.16-.66 1.59 -.43.42-1 .65-1.6.65Zm9.75-3h.75c.19 0 .39.07.53.21 .13.14.21.33.21.53 0 .19-.08.39-.22.53 -.15.13-.34.21-.54.21h-.75v.75c0 .19-.08.39-.22.53 -.15.13-.34.21-.54.21s-.39-.08-.54-.22c-.14-.15-.22-.34-.22-.54v-.75h-1.47v.75c0 .19-.08.39-.22.53 -.15.13-.34.21-.54.21s-.39-.08-.54-.22c-.14-.15-.22-.34-.22-.54v-.75h-.79c-.2 0-.39-.08-.54-.22 -.14-.15-.22-.34-.22-.54s.07-.39.21-.54c.14-.14.33-.22.53-.22h.77l-.01-1.5h-.77c-.2 0-.39-.08-.54-.22 -.14-.15-.22-.34-.22-.54s.07-.39.21-.54c.14-.14.33-.22.53-.22h.75v-.75c0-.2.07-.39.21-.54 .14-.14.33-.22.53-.22 .19 0 .39.07.53.21 .13.14.21.33.21.53v.75h1.5v-.75c0-.2.07-.39.21-.54 .14-.14.33-.22.53-.22 .19 0 .39.07.53.21 .13.14.21.33.21.53v.75h.75c.19 0 .39.07.53.21 .13.14.21.33.21.53 0 .19-.08.39-.22.53 -.15.13-.34.21-.54.21h-.75v1.5Zm-2.98 0h1.47V18H10.5l0 1.5Z"/></svg>