<svg viewBox="0 0 24 24" xmlns="http://www.w3.org/2000/svg"><path fill="currentColor" d="M11.72 14.5c-.07-.13-.14-.26-.23-.38v-1.13h3.75c.13 0 .25.11.25.25v1.25h-3.78Zm.25 3V16h3.51v1.25c0 .13-.12.25-.25.25h-3.27Zm0 1.5h3.26c.96 0 1.75-.79 1.75-1.75v-4c0-.97-.79-1.75-1.75-1.75h-6.5c-.42 0-.81.14-1.11.39l-.55-.28c-.71-.36-1.54-.36-2.24 0l-.87.43V3.99c0-1.11.89-2 2-2h6v6c0 1.1.89 2 2 2h6v10c0 1.1-.9 2-2 2h-7.44l.03-.02c.84-.43 1.38-1.29 1.38-2.24v-.75Zm1.51-16.5V8c0 .27.22.5.5.5h5.5l-6-6ZM.96 15.6v4.14c0 .56.32 1.08.82 1.34l3.5 1.75c.42.21.91.21 1.34 0l3.5-1.75c.5-.26.82-.78.82-1.35v-4.15c0-.57-.33-1.09-.83-1.35L6.6 12.48c-.43-.22-.92-.22-1.35 0l-3.5 1.75c-.51.25-.83.77-.83 1.34Zm1.77.77c-.25-.13-.35-.43-.23-.68 .12-.25.42-.35.67-.23l2.77 1.38 2.77-1.39c.24-.13.54-.03.67.22 .12.24.02.54-.23.67L6.42 17.7v2.94c0 .27-.23.5-.5.5 -.28 0-.5-.23-.5-.5v-2.95l-2.73-1.37Z"/></svg>