<svg viewBox="0 0 24 24" xmlns="http://www.w3.org/2000/svg"><path fill="currentColor" d="M15.5 17.25V16h-2.68c.11.48.17.98.17 1.5h2.25c.13 0 .25-.12.25-.25Zm0-2.75h-3.24c-.22-.42-.48-.8-.77-1.16v-.35h3.75c.13 0 .25.11.25.25v1.25Zm-9-3.5c.88 0 1.73.17 2.5.5h6.24c.96 0 1.75.78 1.75 1.75v4c0 .96-.79 1.75-1.75 1.75h-2.43c-.28 1.14-.85 2.17-1.64 3h6.8c1.1 0 2-.9 2-2V10h-6c-1.11 0-2-.9-2-2V2h-6c-1.11 0-2 .89-2 2v7.49c.76-.33 1.61-.5 2.5-.5Zm7-3V2.5l6 6H14c-.28 0-.5-.23-.5-.5ZM12 17.5c0 3.03-2.47 5.5-5.5 5.5C3.46 23 1 20.53 1 17.5 1 14.46 3.46 12 6.5 12c3.03 0 5.5 2.46 5.5 5.5ZM3.5 17c-.28 0-.5.22-.5.5 0 .27.22.5.5.5h4.79l-1.65 1.64c-.2.19-.2.51 0 .7 .19.19.51.19.7 0l2.5-2.5c.19-.2.19-.52 0-.71l-2.5-2.5c-.2-.2-.52-.2-.71 0 -.2.19-.2.51 0 .7l1.64 1.64h-4.8Z"/></svg>