<svg viewBox="0 0 24 24" xmlns="http://www.w3.org/2000/svg"><path fill="currentColor" d="M12 2v6c0 1.1.89 2 2 2h6v10c0 1.1-.9 2-2 2h-6.81c1.12-1.17 1.8-2.76 1.8-4.5 0-3.59-2.92-6.5-6.5-6.5 -.89 0-1.74.17-2.5.49v-7.5c0-1.11.89-2 2-2h6Zm1.5.5V8c0 .27.22.5.5.5h5.5l-6-6ZM1 17.5C1 20.53 3.46 23 6.5 23c3.03 0 5.5-2.47 5.5-5.5 0-3.04-2.47-5.5-5.5-5.5C3.46 12 1 14.46 1 17.5ZM9.5 14c.27 0 .5.22.5.5v2c0 .27-.23.5-.5.5h-2c-.28 0-.5-.23-.5-.5 0-.28.22-.5.5-.5h1c-.46-.61-1.19-1-2.01-1 -.84 0-1.58.4-2.03 1.03 -.17.22-.48.27-.7.11 -.23-.17-.28-.48-.12-.7 .63-.88 1.66-1.45 2.83-1.45 .97 0 1.86.4 2.49 1.05v-.56c0-.28.22-.5.5-.5ZM4 19.94v.55c0 .27-.23.5-.5.5 -.28 0-.5-.23-.5-.5v-2c0-.28.22-.5.5-.5h2c.27 0 .5.22.5.5 0 .27-.23.5-.5.5H4.49c.45.6 1.18 1 2 1 .76 0 1.45-.35 1.91-.89 .17-.22.49-.24.7-.06 .21.17.23.49.05.7 -.65.75-1.61 1.24-2.68 1.24 -.98 0-1.87-.41-2.51-1.06Z"/></svg>