<svg viewBox="0 0 24 24" xmlns="http://www.w3.org/2000/svg"><path fill="currentColor" d="M2.5 12c0-.42.33-.75.75-.75h1.5c.41 0 .75.33.75.75 0 .41-.34.75-.75.75h-1.5c-.42 0-.75-.34-.75-.75Zm4 0c0-.42.33-.75.75-.75h1.5c.41 0 .75.33.75.75 0 .41-.34.75-.75.75h-1.5c-.42 0-.75-.34-.75-.75Zm4 0c0-.42.33-.75.75-.75h1.5c.41 0 .75.33.75.75 0 .41-.34.75-.75.75h-1.5c-.42 0-.75-.34-.75-.75Zm4 0c0-.42.33-.75.75-.75h1.5c.41 0 .75.33.75.75 0 .41-.34.75-.75.75h-1.5c-.42 0-.75-.34-.75-.75Zm4 0c0-.42.33-.75.75-.75h1.5c.41 0 .75.33.75.75 0 .41-.34.75-.75.75h-1.5c-.42 0-.75-.34-.75-.75ZM5 2c-.56 0-1 .44-1 1v4c0 1.1.89 2 2 2h12c1.1 0 2-.9 2-2V3c0-.56-.45-1-1-1H5Zm14 20c.55 0 1-.45 1-1v-4c0-1.11-.9-2-2-2H6c-1.104 0-2 .89-2 2v4c0 .55.44 1 1 1h14Z"/></svg>