<svg viewBox="0 0 24 24" xmlns="http://www.w3.org/2000/svg"><path fill="currentColor" d="M23 6.5c0 3.03-2.47 5.5-5.5 5.5 -3.04 0-5.5-2.47-5.5-5.51C12 3.45 14.46.98 17.49.98c3.03 0 5.49 2.46 5.49 5.5Zm-7.15-2.36c-.2-.2-.52-.2-.71 0 -.2.19-.2.51 0 .7l1.64 1.64 -1.65 1.64c-.2.19-.2.51 0 .7 .19.19.51.19.7 0l1.64-1.65 1.64 1.64c.19.19.51.19.7 0 .19-.2.19-.52 0-.71l-1.65-1.65L19.8 4.8c.19-.2.19-.52 0-.71 -.2-.2-.52-.2-.71 0l-1.65 1.64 -1.65-1.65Zm1.64 8.85c.88 0 1.72-.18 2.49-.5v7.24c0 1.19-.93 2.16-2.1 2.24l-.16 0H6.22c-1.2 0-2.17-.93-2.25-2.1l-.01-.16V4.2c0-1.2.92-2.17 2.09-2.25l.15-.01h6.56c-1.13 1.16-1.82 2.75-1.82 4.5 0 3.59 2.9 6.5 6.49 6.5Zm-9 3c-.83 0-1.5.67-1.5 1.5 0 .82.67 1.5 1.49 1.5h6.99c.82 0 1.49-.68 1.49-1.51s-.68-1.51-1.5-1.51h-7Z"/></svg>