<svg viewBox="0 0 24 24" xmlns="http://www.w3.org/2000/svg"><path fill="currentColor" d="M3.28 2.21c-.3-.3-.77-.3-1.07-.01 -.3.29-.3.76-.01 1.06l1.78 1.78v6.43c0 .27.22.5.5.5h6.43l7.56 7.561v.43c0 .27-.23.5-.5.5h-1.25c-.42 0-.75.33-.75.75 0 .41.33.75.75.75h1.25c.79 0 1.48-.47 1.8-1.14l.91.91c.29.29.76.29 1.06 0 .29-.3.29-.77 0-1.07L3.24 2.15ZM18.49 15.3l1.36 1.36c.08-.13.13-.28.13-.44v-2.5c0-.42-.34-.75-.75-.75 -.42 0-.75.33-.75.75v1.56ZM12.7 9.51l2.47 2.47h4.31c.27 0 .5-.23.5-.5v-1.5h-6.01c-.5 0-.95-.18-1.29-.48Zm-.72-1.53c0 .49.17.94.47 1.28L5.28 2.09c.21-.09.45-.13.69-.13h6v5.99Zm1.5 0v-5.5l6 5.99h-5.51c-.28 0-.5-.23-.5-.5Zm-8.01 5.74c-.001-.42-.34-.75-.76-.75s-.76.33-.76.75v2.49c0 .41.33.75.75.75 .41 0 .75-.34.75-.75v-2.5Zm4.75 6.75c-.42 0-.76.33-.76.75 0 .41.33.75.75.75h3.5c.41 0 .75-.34.75-.75 0-.42-.34-.75-.75-.75h-3.5Zm-5.51-2c.41 0 .75.33.75.75v.75c0 .27.22.5.5.5h1.25c.41 0 .75.33.75.75 0 .41-.34.75-.76.75H5.94c-1.11 0-2.01-.9-2.01-2v-.75c0-.42.33-.75.75-.75Z"/></svg>