<svg viewBox="0 0 24 24" xmlns="http://www.w3.org/2000/svg"><path fill="currentColor" d="M13 8V2H7c-1.11 0-2 .89-2 2v5.3c.88-.52 1.9-.81 3-.81 3.31 0 6 2.68 6 6 0 1.08-.29 2.1-.8 2.98L16.73 21c.27.27.44.62.49.98h1.76c1.1 0 2-.9 2-2v-10h-6c-1.11 0-2-.9-2-2Zm1.96 14.78c.29.29.76.29 1.06 0 .21-.22.27-.52.17-.79 -.04-.11-.1-.2-.18-.29l-4.12-4.12c.67-.86 1.08-1.94 1.08-3.11 0-1.37-.55-2.6-1.43-3.5 -.91-.93-2.18-1.5-3.58-1.5 -1.13 0-2.17.37-3 .99 -1.22.91-2 2.36-2 4 0 2.76 2.23 5 5 5 1.04 0 2.01-.33 2.81-.88l4.15 4.15ZM7.99 10.99c1.93 0 3.5 1.56 3.5 3.5 0 1.93-1.57 3.5-3.5 3.5 -1.94 0-3.5-1.57-3.5-3.5 0-1.94 1.56-3.5 3.5-3.5Zm6.5-3v-5.5l6 6h-5.5c-.28 0-.5-.23-.5-.5Z"/></svg>