<svg viewBox="0 0 24 24" xmlns="http://www.w3.org/2000/svg"><path fill="currentColor" d="M4 5.06v14.93c0 1.1.89 2 2 2h12c.79 0 1.48-.47 1.8-1.14l.91.91c.29.29.76.29 1.06 0 .29-.3.29-.77 0-1.07L3.27 2.18c-.3-.3-.77-.3-1.07-.01 -.3.29-.3.76-.01 1.06l1.78 1.78Zm12.47 12.47l.49.49c.02.07.03.14.03.22 0 .41-.34.75-.75.75h-5.5c-.42 0-.75-.34-.75-.75 0-.42.33-.75.75-.75h5.5c.07 0 .15.01.22.03Zm-1.54-1.54h-4.19c-.42 0-.75-.34-.75-.75 0-.42.33-.75.75-.75h2.68l1.5 1.5Zm-3-3h-1.19c-.42 0-.75-.34-.75-.75 0-.33.2-.6.48-.71l1.45 1.45Zm-4.94-.75c0-.42.33-.75.75-.75 .41 0 .75.33.75.75 0 .41-.34.75-.75.75 -.42 0-.75-.34-.75-.75Zm0 3c0-.42.33-.75.75-.75 .41 0 .75.33.75.75 0 .41-.34.75-.75.75 -.42 0-.75-.34-.75-.75Zm0 3c0-.42.33-.75.75-.75 .41 0 .75.33.75.75 0 .41-.34.75-.75.75 -.42 0-.75-.34-.75-.75Zm9.25-5.25h-.07l3.81 3.81V9.98h-6c-.5 0-.95-.18-1.29-.48l1.97 1.97h1.56c.41 0 .75.33.75.75 0 .41-.34.75-.75.75Zm-4.25-5c0 .49.17.94.47 1.28L5.29 2.1c.21-.09.45-.13.69-.13h6v6Zm1.5 0v-5.5l6 6h-5.5c-.28 0-.5-.23-.5-.5Z"/></svg>