<svg viewBox="0 0 24 24" xmlns="http://www.w3.org/2000/svg"><path fill="currentColor" d="M6.25 2C5 2 4 3 4 4.25v13c0 1.24 1 2.25 2.25 2.25h9c1.24 0 2.25-1.01 2.25-2.25v-13C17.5 3 16.49 2 15.25 2h-9ZM7 6.25c0-.42.33-.75.74-.75h6c.41 0 .74.33.74.75 0 .41-.34.75-.75.75H7.72c-.42 0-.75-.34-.75-.75Zm.74 8.25h6c.41 0 .74.33.74.75 0 .41-.34.75-.75.75H7.72c-.42 0-.75-.34-.75-.75 0-.42.33-.75.74-.75Zm-.75-3.75c0-.42.33-.75.74-.75h6c.41 0 .74.33.74.75 0 .41-.34.75-.75.75H7.71c-.42 0-.75-.34-.75-.75ZM8.74 22c-.98 0-1.82-.63-2.13-1.5h8.62c1.79 0 3.25-1.46 3.25-3.25V8.93l.84.84c.42.42.65.99.65 1.59v5.88c0 2.62-2.13 4.75-4.75 4.75H8.71Z"/></svg>