<svg viewBox="0 0 24 24" xmlns="http://www.w3.org/2000/svg"><path fill="currentColor" d="M12 2v6c0 1.1.89 2 2 2h6v10c0 1.1-.9 2-2 2h-6.54c.32-.42.53-.92.53-1.5v-6.21l-.01 0c-.06-.67-.4-1.23-.84-1.66 -.48-.47-1.11-.83-1.81-1.09 -.52-.2-1.1-.35-1.7-.44 -.53-.09-1.09-.13-1.66-.13 -.7 0-1.37.06-2 .18V3.96c0-1.11.89-2 2-2h6Zm-1 18.5c0 .56-.38 1.08-1 1.5 -.92.6-2.37 1-4.01 1 -2.06 0-3.82-.62-4.59-1.5 -.27-.31-.42-.65-.42-1v-4.01c.3.27.66.49 1.01.67 .57.28 1.24.5 1.98.65 .63.12 1.3.18 2 .18 .07 0 .14-.01.21-.01 .43-.01.87-.05 1.28-.11 .01-.01.02-.01.04-.01 .03-.01.07-.02.11-.02 .12-.03.25-.05.38-.07 .05-.02.11-.03.17-.04 .27-.06.53-.13.78-.22 .35-.12.68-.25.98-.4l.01-.01 .01-.01c.34-.18.68-.4.98-.66v4ZM6 17c-.72 0-1.39-.08-2-.21 -1.77-.39-3-1.27-3-2.3 0-1.03 1.23-1.91 3-2.3 .61-.14 1.28-.21 2-.21 .52 0 1.02.04 1.49.11 .54.08 1.05.21 1.5.38 1.21.45 2 1.18 2 2 0 .42-.22.83-.6 1.18 -.01 0-.01 0-.01 0 -.02.01-.04.03-.06.04 -.23.19-.5.37-.81.52 -.12.05-.23.1-.35.15 -.07.02-.13.05-.19.07 -.33.12-.69.22-1.07.3 -.15.02-.29.05-.44.07 -.04 0-.08.01-.12.01 -.01 0-.02 0-.02 0 -.37.05-.76.08-1.16.09 -.07 0-.14 0-.21 0Zm7.5-14.5V8c0 .27.22.5.5.5h5.5l-6-6Z"/></svg>