<svg viewBox="0 0 24 24" xmlns="http://www.w3.org/2000/svg"><path fill="currentColor" d="M12 8V2H6c-1.11 0-2 .89-2 2v7.03c1.69.24 3 1.7 3 3.46l-.01.02L9 12.49c.68-.69 1.79-.69 2.47 0 .68.68.68 1.79 0 2.47l-2.02 2.01 .02-.01c1.93 0 3.5 1.56 3.5 3.5 0 .53-.13 1.04-.34 1.5h5.33c1.1 0 2-.9 2-2v-10h-6c-1.11 0-2-.9-2-2Zm-6.88 8.39c-.32.27-.71.46-1.13.55 -.17.03-.33.05-.5.05 -1.39 0-2.5-1.12-2.5-2.5 0-1.39 1.11-2.5 2.5-2.5 .17 0 .33.01.5.05 1.14.23 2 1.24 2 2.45 0 .62-.23 1.18-.61 1.62 -.09.09-.18.18-.28.27Zm-1.13-2.77c-.15-.09-.32-.14-.5-.14 -.56 0-1 .44-1 1 0 .55.44 1 1 1 .18 0 .35-.05.5-.14 .29-.18.5-.5.5-.87 0-.38-.21-.7-.5-.87Zm6.78.64c.29-.3.29-.77 0-1.07 -.3-.3-.77-.3-1.07 0l-7.5 7.5c-.3.29-.3.76 0 1.06 .29.29.76.29 1.06 0l7.49-7.5Zm-3.79 6.21c0 .56.18 1.08.49 1.5 .45.6 1.18 1 2 1 .81 0 1.54-.4 2-1 .31-.42.49-.94.49-1.5 0-1.39-1.12-2.5-2.5-2.5 -.63 0-1.19.22-1.63.6 -.1.08-.19.17-.28.27 -.38.43-.61 1-.61 1.62Zm3.5 0c0 .55-.45 1-1 1 -.56 0-1-.45-1-1 0-.56.44-1 1-1 .55 0 1 .44 1 1Zm3-12.5v-5.5l6 6h-5.5c-.28 0-.5-.23-.5-.5Z"/></svg>