<svg viewBox="0 0 24 24" xmlns="http://www.w3.org/2000/svg"><path fill="currentColor" d="M12 2v6c0 1.1.89 2 2 2h6v10c0 1.1-.9 2-2 2h-7.11c.04-.17.07-.33.09-.5h.01c1.1 0 2-.9 2-2V16c0-1.22-.87-2.23-2.01-2.46 -.11-1.43-1.3-2.55-2.75-2.55h-3.5c-.27 0-.52.03-.75.1V3.98c0-1.11.89-2 2-2h6Zm1.5.5V8c0 .27.22.5.5.5h5.5l-6-6ZM3 13.75c0-.97.78-1.75 1.75-1.75h3.5c.96 0 1.75.78 1.75 1.75v.75h.5c.82 0 1.5.67 1.5 1.5v3.5c0 .55-.45 1-1 1h-1v.75c0 .96-.79 1.75-1.75 1.75h-3.5C3.78 23 3 22.21 3 21.25v-.75H2c-.56 0-1-.45-1-1V16c0-.83.67-1.5 1.5-1.5H3v-.75Zm5.5 0c0-.14-.12-.25-.25-.25h-3.5c-.14 0-.25.11-.25.25v.75h4v-.75Zm-4 5.5v2c0 .13.11.25.25.25h3.5c.13 0 .25-.12.25-.25v-2c0-.14-.12-.25-.25-.25h-3.5c-.14 0-.25.11-.25.25Z"/></svg>