<svg viewBox="0 0 24 24" xmlns="http://www.w3.org/2000/svg"><path fill="currentColor" d="M7.5 1.5c-1.66 0-3 1.34-3 3v15c0 1.65 1.34 3 3 3h4.9c-.49-.84-.58-1.91-.07-2.88l.84-1.64H9.73c-.42 0-.75-.34-.75-.75 0-.37.26-.68.61-.74l.13-.02h4.2l.87-1.69c.11-.22.16-.45.16-.69v-2.05c-.04.33-.29.6-.62.66l-.14.01h-4.5c-.42 0-.75-.34-.75-.75 0-.37.26-.68.61-.74l.13-.02H14c-.36-.4-.58-.93-.58-1.5 0-1.25 1-2.25 2.25-2.25h3.75v-3c0-1.66-1.35-3-3-3h-9Zm7.49 10.37v.05c-.01-.03-.01-.05-.01-.07l0 0Zm-.62-4.39l-.14.01h-4.5c-.42 0-.75-.34-.75-.75 0-.37.26-.68.61-.74l.13-.02h4.5c.41 0 .75.33.75.75 0 .36-.27.67-.62.73Zm6.6 6.61c0 .48.11.95.33 1.37l.52 1.01H15.6l.52-1.01c.22-.43.33-.9.33-1.38v-3.62h-.75c-.42 0-.75-.34-.75-.75 0-.42.33-.75.75-.75h6c.41 0 .75.33.75.75 0 .41-.34.75-.75.75h-.76v3.6Zm-6.13 3.89l-1.2 2.31c-.52.99.2 2.18 1.33 2.18h7.49c1.12 0 1.84-1.2 1.33-2.19l-1.2-2.32h-7.77Z"/></svg>