<svg viewBox="0 0 24 24" xmlns="http://www.w3.org/2000/svg"><path fill="currentColor" d="M4 4.25C4 3 5 2 6.25 2h4.25v4.74c0 1.24 1 2.25 2.25 2.25h4.74v8.25c0 1.24-1.01 2.25-2.25 2.25h-9c-1.25 0-2.25-1.01-2.25-2.25v-13Zm3.75 7.25c-.42 0-.75.33-.75.75 0 .41.33.75.75.75 .41 0 .75-.34.75-.75 0-.42-.34-.75-.75-.75ZM7 15.25c0 .41.33.75.75.75 .41 0 .75-.34.75-.75 0-.42-.34-.75-.75-.75 -.42 0-.75.33-.75.75Zm3-3c0 .41.33.75.75.75h3.05c.41 0 .75-.34.75-.75 0-.42-.34-.75-.75-.75h-3.06c-.42 0-.75.33-.75.75Zm.75 2.25c-.42 0-.75.33-.75.75 0 .41.33.75.75.75h3.05c.41 0 .75-.34.75-.75 0-.42-.34-.75-.75-.75h-3.06ZM12 6.74V2.45c.07.05.14.12.21.19l4.61 4.61c.06.06.13.14.19.21h-4.28c-.42 0-.75-.34-.75-.75ZM6.62 20.49c.3.87 1.14 1.5 2.12 1.5h6.5c2.62 0 4.75-2.13 4.75-4.75v-5.89c0-.6-.24-1.17-.66-1.6l-.85-.85v8.31c0 1.79-1.46 3.25-3.25 3.25H6.6Z"/></svg>