<svg viewBox="0 0 24 24" xmlns="http://www.w3.org/2000/svg"><path fill="currentColor" d="M12 2v6c0 1.1.89 2 2 2h6v10c0 1.1-.9 2-2 2h-7.98c-.01-.16-.03-.31-.08-.46 1.96-.22 3.24-2.1 3.24-4.04 0-3.71-3-6.7-6.71-6.7 -.89 0-1.73.17-2.51.48V3.99c0-1.11.89-2 2-2h6Zm1.5.5V8c0 .27.22.5.5.5h5.5l-6-6Zm-1.5 15c0-3.04-2.47-5.5-5.5-5.5C3.46 12 1 14.46 1 17.5 1 20.53 3.46 23 6.5 23c.57 0 1.13-.09 1.66-.26l.22-.08 .08-.04c.28-.16.42-.5.31-.82 -.13-.35-.51-.52-.85-.4l-.18.05 -.25.06c-.34.08-.68.12-1.03.12 -2.31 0-4.18-1.88-4.18-4.18 -.001-2.31 1.87-4.18 4.18-4.18 2.3 0 4.18 1.87 4.18 4.18 0 .9-.55 1.54-1.1 1.54 -.42 0-.66-.45-.66-1.54v-2.2l-.01-.09c-.05-.33-.32-.58-.66-.58 -.25 0-.47.13-.58.33 -.34-.22-.74-.34-1.19-.34 -1.49 0-2.42 1.33-2.42 2.86 0 1.52.93 2.86 2.42 2.86 .66 0 1.22-.28 1.63-.71 .32.45.8.7 1.44.7 1.33 0 2.42-1.27 2.42-2.86Zm-6.6 0c0-.88.46-1.54 1.1-1.54 .63 0 1.1.66 1.1 1.54 0 .87-.47 1.54-1.1 1.54 -.64 0-1.1-.67-1.1-1.54Z"/></svg>