<svg viewBox="0 0 24 24" xmlns="http://www.w3.org/2000/svg"><path fill="currentColor" d="M20.625 7.5H15.75c-.42 0-.75-.34-.75-.75V1.875L20.625 7.5ZM13.5 6.75c0 1.242 1 2.25 2.25 2.25H21v11.247c0 1.24-1.01 2.25-2.25 2.25h-5.634c.21-.29.39-.61.52-.95 .26-.72.3-1.5.11-2.25 -.09-.36-.24-.69-.42-.99 .08-.27.13-.55.15-.83 .04-.69-.1-1.38-.42-1.98 -.32-.61-.8-1.12-1.38-1.48 -.59-.36-1.26-.55-1.95-.55h-1.5c-.61 0-1.17.23-1.59.65 -.13.12-.24.25-.33.4 -.09-.09-.19-.16-.29-.24 -.03-.02-.05-.04-.07-.05V3.69c0-1.242 1.008-2.25 2.25-2.25h5.25v5.25ZM11.99 17.4c-.03.41-.17.8-.41 1.14l0 0c.34.29.59.69.71 1.14 .11.44.09.91-.07 1.34 -.17.43-.45.8-.83 1.06 -.38.26-.83.4-1.29.4H8.22c-.2 0-.39-.08-.54-.22 -.14-.15-.22-.34-.22-.54v-6c0-.2.07-.39.21-.54 .14-.14.33-.22.53-.22h1.5c.41 0 .81.11 1.16.32 .35.21.63.51.82.88 .19.36.27.77.24 1.18Zm-2.25-.91h-.75v1.5h.75c.19 0 .39-.08.53-.22 .13-.15.21-.34.21-.54s-.08-.39-.22-.54c-.15-.14-.34-.22-.54-.22Zm-.75 4.5h1.125c.19 0 .39-.08.53-.22 .13-.15.21-.34.21-.54s-.08-.39-.22-.54c-.15-.14-.34-.22-.54-.22H8.97v1.5Zm-3.72-2.12c.35.58.6 1.23.75 1.9 0 .03.02.07.02.11 .02.11.05.21.08.3 .1.1.18.23.21.38 .03.14.01.29-.04.43 -.06.13-.16.25-.28.34 -.13.08-.27.13-.42.13 -.72 0-.89-.69-1.05-1.35l-.01-.01 -.01-.02c-.14-.54-.42-1.64-.83-1.64h-.75v2.25c0 .19-.08.39-.22.53 -.15.13-.34.21-.54.21s-.39-.08-.54-.22c-.14-.15-.22-.34-.22-.54v-6c0-.2.07-.39.21-.54 .14-.14.33-.22.53-.22h1.5c.44 0 .88.14 1.25.39s.65.61.82 1.02c.16.41.2.87.1 1.31 -.1.43-.33.83-.65 1.14Zm-1.54-2.39h-.75v1.5h.75c.19 0 .39-.08.53-.22 .13-.15.21-.34.21-.54s-.08-.39-.22-.54c-.15-.14-.34-.22-.54-.22Z"/></svg>