<svg viewBox="0 0 24 24" xmlns="http://www.w3.org/2000/svg"><path fill="currentColor" d="M12 2v6c0 1.1.89 2 2 2h6v10c0 1.1-.9 2-2 2h-7.41l.02-.02c.84-.43 1.38-1.29 1.38-2.24v-.76h4.25c.41 0 .75-.34.75-.75 0-.42-.34-.75-.75-.75h-4.25v-1.5h4.25c.41 0 .75-.34.75-.75 0-.42-.34-.75-.75-.75h-4.37c-.21-.64-.66-1.18-1.27-1.49l-.11-.06c.07.02.15.03.23.03h5.5c.41 0 .75-.34.75-.75 0-.42-.34-.75-.75-.75h-5.5c-.42 0-.75.33-.75.75 0 .25.12.48.32.61l-3.21-1.61c-.71-.36-1.54-.36-2.24 0l-.89.44V3.94c0-1.11.89-2 2-2h6Zm1.5.5V8c0 .27.22.5.5.5h5.5l-6-6Zm-3.33 11.4l-3.5-1.75c-.43-.22-.92-.22-1.35 0l-3.5 1.75c-.51.25-.83.77-.83 1.34v4.503c0 .56.32 1.08.82 1.34l3.5 1.75c.42.21.91.21 1.34 0l3.49-1.75c.5-.26.82-.78.82-1.35V15.23c0-.57-.33-1.09-.83-1.35Zm-7.62 1.36c.12-.25.42-.35.67-.23l2.77 1.38 2.77-1.39c.24-.13.54-.03.67.22 .12.24.02.54-.23.67l-2.73 1.36v3.19c0 .27-.23.5-.5.5 -.28 0-.5-.23-.5-.5v-3.2l-2.73-1.37c-.25-.13-.35-.43-.23-.68Z"/></svg>