<svg viewBox="0 0 24 24" xmlns="http://www.w3.org/2000/svg"><path fill="currentColor" d="M14.25 7.5h4.875L13.5 1.875V6.75c0 .41.33.75.75.75Zm0 1.5C13 9 12 7.992 12 6.75V1.5H6.75C5.508 1.5 4.5 2.508 4.5 3.75v7.16c0-.01 0-.01.01-.01 0-.01 0-.01.01-.01 .07-.47.28-.9.62-1.25 .42-.43.99-.67 1.59-.67 .59 0 1.16.23 1.58.657 .34.34.56.77.63 1.24 .94.33 1.82.87 2.53 1.59 .71.71 1.25 1.58 1.59 2.53 .46.07.9.28 1.24.63 .42.42.66.99.66 1.593 0 .59-.24 1.16-.66 1.58 -.35.34-.78.56-1.25.63 -.34.94-.88 1.82-1.6 2.532 -.13.12-.28.23-.43.34 -.07.04-.14.09-.2.14h6.36c1.24 0 2.25-1.01 2.25-2.25V8.92h-5.25Zm-6.44 7.18c-.21-.21-.48-.36-.77-.42 -.3-.06-.6-.03-.867.08 -.28.11-.51.3-.68.55 -.17.24-.26.53-.26.83 0 .39.15.77.43 1.06 .28.28.66.43 1.06.43 .29 0 .58-.09.83-.26 .24-.17.43-.4.55-.68 .11-.28.14-.58.08-.87 -.06-.3-.21-.56-.42-.77Zm4.93.31c.19 0 .39.07.53.21 .14.14.21.33.21.53 0 .19-.08.39-.22.53 -.15.14-.34.21-.54.21h-.83c-.17 1.11-.69 2.14-1.48 2.94 -.8.79-1.83 1.31-2.95 1.47v.82c0 .19-.08.39-.22.53 -.15.14-.34.21-.54.21s-.39-.08-.54-.22c-.15-.15-.22-.34-.22-.54v-.83c-1.12-.17-2.15-.69-2.946-1.48 -.8-.8-1.32-1.83-1.48-2.95H.68c-.2 0-.39-.08-.54-.22 -.15-.15-.22-.34-.22-.54s.07-.39.21-.54c.14-.15.33-.22.53-.22h.82c.16-1.12.68-2.15 1.47-2.95 .79-.8 1.83-1.32 2.946-1.48v-.83c0-.2.07-.39.21-.54 .14-.15.33-.22.53-.22 .19 0 .39.07.53.21 .14.14.21.33.21.53v.82c1.11.16 2.14.68 2.94 1.47 .79.79 1.31 1.83 1.47 2.94h.82Zm-3.35 3.4c.34-.35.62-.77.81-1.22 .18-.46.28-.95.28-1.44 0-.87-.31-1.71-.86-2.38 -.56-.68-1.32-1.13-2.17-1.3 -.86-.17-1.74-.04-2.5.37 -.77.4-1.37 1.07-1.7 1.87 -.34.8-.38 1.69-.13 2.52 .25.83.78 1.54 1.5 2.02s1.58.69 2.45.61c.86-.09 1.67-.47 2.28-1.08Z"/></svg>