<svg viewBox="0 0 24 24" xmlns="http://www.w3.org/2000/svg"><path fill="currentColor" d="M12 2v6c0 1.1.89 2 2 2h6v10c0 1.1-.9 2-2 2h-5c.62-.84.99-1.88.99-3 0-2.77-2.24-5-5-5h-5V4c0-1.11.89-2 2-2h6Zm1.5.5V8c0 .27.22.5.5.5h5.5l-6-6ZM5.75 15.75c0-.42-.34-.75-.75-.75l-.2 0c-2.12.1-3.81 1.85-3.81 3.99 0 2.2 1.79 4 4 4l.1-.01c.36-.05.64-.37.64-.75 0-.42-.34-.75-.75-.75l-.17-.01c-1.31-.09-2.34-1.17-2.34-2.5 0-1.39 1.11-2.5 2.5-2.5l.1-.01c.36-.05.64-.37.64-.75ZM13 19c0-2.21-1.8-4-4-4l-.11 0c-.37.04-.65.36-.65.74 0 .41.33.75.75.75l.16 0c1.3.08 2.33 1.16 2.33 2.49 0 1.38-1.12 2.5-2.5 2.5l-.11 0c-.37.04-.65.36-.65.74 0 .41.33.75.75.75l.19-.01c2.11-.11 3.8-1.86 3.8-4Zm-4.25-.75h-3.5l-.11 0c-.37.04-.65.36-.65.74 0 .41.33.75.75.75h3.5l.1-.01c.36-.05.64-.37.64-.75 0-.42-.34-.75-.75-.75Z"/></svg>