<svg viewBox="0 0 24 24" xmlns="http://www.w3.org/2000/svg"><path fill="currentColor" d="M11.99 2.4v5.4c0 .99.8 1.8 1.8 1.8h5.4v1.19h-.02l-.02 0c-.63.01-1.23.13-1.8.36 -.58.23-1.09.57-1.54 1 -.44.42-.79.92-1.04 1.48 -.27.58-.4 1.21-.4 1.86 0 .16 0 .33.02.5l-3.1 3.09c-.34.33-.53.77-.53 1.27v1.2h-4.2c-1 0-1.8-.81-1.8-1.8V4.15c0-1 .8-1.8 1.8-1.8h5.4Zm1.2.3v5.1c0 .33.26.6.6.6h5.1l-5.7-5.7Zm-1.03 19.92c.11.11.25.17.42.17h2.4c.13-.01.24-.04.32-.09 .08-.05.14-.12.17-.21s.06-.19.07-.29c.01-.1.01-.21.01-.31v-.32c.28-.01.51-.02.67-.03 .16-.02.28-.06.36-.15 .08-.09.12-.2.14-.36 .01-.16.01-.39.01-.68h.6c.13 0 .23-.03.31-.09 .08-.06.14-.125.18-.21 .04-.09.07-.18.08-.29 .01-.11.01-.22.01-.33 -.01-.1-.01-.19-.01-.28v-.24c.2.07.41.12.62.15 .21.03.42.04.64.04 .5-.01.95-.11 1.37-.3 .41-.19.79-.45 1.11-.79 .32-.34.57-.73.75-1.16 .18-.44.27-.89.27-1.37 0-.5-.1-.97-.29-1.41 -.19-.44-.45-.82-.77-1.15 -.33-.33-.71-.59-1.15-.77 -.44-.19-.91-.29-1.41-.29 -.49.01-.95.1-1.38.28 -.44.17-.82.42-1.15.75 -.34.32-.6.7-.79 1.12 -.2.42-.3.88-.3 1.36 0 .29.03.6.1.92l-3.53 3.52c-.12.11-.18.25-.18.42v1.8c0 .16.05.3.17.42Zm8.55-8.56c.17.17.26.38.26.63s-.09.46-.27.63c-.18.17-.39.26-.64.26s-.47-.09-.64-.27c-.18-.18-.27-.39-.27-.64s.08-.47.26-.64c.17-.18.38-.27.63-.27s.46.08.63.26Z"/></svg>