<svg viewBox="0 0 24 24" xmlns="http://www.w3.org/2000/svg"><path fill="currentColor" d="M15.11 17.25V16h-2.47l.09.19c.16.32.25.69.25 1.06v.24h1.86c.13 0 .25-.12.25-.25Zm0-2.75h-3.22l-.18-.36c-.16-.31-.37-.57-.62-.77v-.38h3.75c.13 0 .25.11.25.25v1.25Zm-2.12 5.75V19h1.86c.96 0 1.75-.79 1.75-1.75v-4c0-.97-.79-1.75-1.75-1.75H9.16c-.44-.32-.97-.5-1.54-.5H3.58V4c-.001-1.11.89-2 2-2h6v6c0 1.1.89 2 2 2h6v10c0 1.1-.9 2-2 2h-5.39c.47-.44.76-1.06.76-1.75ZM13.1 8V2.5l6 6h-5.5c-.28 0-.5-.23-.5-.5ZM.98 13.6c0-.89.71-1.61 1.6-1.61h5.04c.88 0 1.6.71 1.6 1.6v.22h.34c.52 0 .99.29 1.22.76l1.02 2.04c.09.19.14.4.14.61v2.99c0 .75-.62 1.375-1.375 1.375h-.52c-.21.79-.93 1.375-1.78 1.375 -.86 0-1.58-.59-1.78-1.375h-1.04c-.21.79-.93 1.375-1.78 1.375 -.91 0-1.66-.66-1.81-1.52 -.56-.26-.95-.82-.95-1.47v-6.42Zm8.25 1.14v1.83h1.54l-.79-1.58c-.08-.16-.24-.26-.41-.26h-.35Zm-5.51 5.5c-.51 0-.92.41-.92.91s.41.91.91.91 .91-.42.91-.92c0-.51-.42-.92-.92-.92Zm3.66.91c0 .5.41.91.91.91s.91-.42.91-.92c0-.51-.42-.92-.92-.92 -.51 0-.92.41-.92.91Z"/></svg>