<svg viewBox="0 0 24 24" xmlns="http://www.w3.org/2000/svg"><path fill="currentColor" d="M12 2.4v5.4c0 .99.8 1.8 1.8 1.8h5.4v10.19c0 .99-.81 1.8-1.8 1.8h-4.61c.25-.55.4-1.16.4-1.8v-4.8c0-2.32-1.89-4.2-4.2-4.2h-4.2v-6.6c0-1 .8-1.8 1.8-1.8h5.4Zm1.2.3v5.1c0 .33.26.6.6.6h5.1l-5.7-5.7Zm-12 12.29c0-1.66 1.34-3 3-3H9c1.65 0 3 1.34 3 3v4.8c0 .61-.19 1.18-.5 1.65L7.86 17.8c-.71-.71-1.85-.71-2.55 0l-3.64 3.63c-.32-.48-.5-1.05-.5-1.66v-4.8Zm8.4.3c0-.5-.41-.9-.9-.9 -.5 0-.9.4-.9.9 0 .49.4.9.9.9 .49 0 .9-.41.9-.9Zm-7.06 7c.47.31 1.04.49 1.65.49h4.8c.61 0 1.18-.19 1.65-.5L7 18.64c-.24-.24-.62-.24-.85 0l-3.64 3.63Z"/></svg>