<svg viewBox="0 0 24 24" xmlns="http://www.w3.org/2000/svg"><path fill="currentColor" d="M7.25 2C5.45 2 4 3.45 4 5.25v13.5C4 20.54 5.45 22 7.25 22h5.85c-.05-.17-.08-.33-.1-.5h-.02c-.75 0-1.39-.41-1.74-1H7.22c-.97 0-1.75-.79-1.75-1.75V5.25c0-.97.78-1.75 1.75-1.75h9.5c.96 0 1.75.78 1.75 1.75V11h.75c.26 0 .51.03.75.1V5.24c0-1.8-1.46-3.25-3.25-3.25h-9.5Zm8.5 9H17V6c0-.56-.45-1-1-1H8c-.56 0-1 .44-1 1v12c0 .55.44 1 1 1h3v-3c0-1.22.86-2.23 2-2.46 .1-1.43 1.29-2.55 2.74-2.55ZM14 13.75c0-.97.78-1.75 1.75-1.75h3.5c.96 0 1.75.78 1.75 1.75v.75h.5c.82 0 1.5.67 1.5 1.5v3.5c0 .55-.45 1-1 1h-1v.75c0 .96-.79 1.75-1.75 1.75h-3.5c-.97 0-1.75-.79-1.75-1.75v-.75h-1c-.56 0-1-.45-1-1V16c0-.83.67-1.5 1.5-1.5h.5v-.75Zm5.5 0c0-.14-.12-.25-.25-.25h-3.5c-.14 0-.25.11-.25.25v.75h4v-.75Zm-4 5.5v2c0 .13.11.25.25.25h3.5c.13 0 .25-.12.25-.25v-2c0-.14-.12-.25-.25-.25h-3.5c-.14 0-.25.11-.25.25Z"/></svg>