<svg viewBox="0 0 24 24" xmlns="http://www.w3.org/2000/svg"><path fill="currentColor" d="M6.25 2.75c-.83 0-1.5.67-1.5 1.5v15.5c0 .82.67 1.5 1.5 1.5h5.94c-.75-1.06-1.2-2.36-1.2-3.75 0-3.59 2.91-6.5 6.5-6.5 .6 0 1.19.08 1.75.23V4.24c0-.83-.68-1.5-1.5-1.5H6.24Zm2.25 10.5c-.83 0-1.5-.68-1.5-1.5 0-.83.67-1.5 1.5-1.5 .82 0 1.5.67 1.5 1.5 0 .82-.68 1.5-1.5 1.5Zm9 9.75c3.03 0 5.5-2.47 5.5-5.5 0-3.04-2.47-5.5-5.5-5.5 -3.04 0-5.5 2.46-5.5 5.5 0 3.03 2.46 5.5 5.5 5.5Zm3.5-5.5c0 .27-.23.5-.5.5h-4.8l1.64 1.64c.19.19.19.51 0 .7 -.2.19-.52.19-.71 0l-2.5-2.5c-.2-.2-.2-.52 0-.71l2.5-2.5c.19-.2.51-.2.7 0 .19.19.19.51 0 .7l-1.65 1.64h4.79c.27 0 .5.22.5.5Z"/></svg>