<svg viewBox="0 0 24 24" xmlns="http://www.w3.org/2000/svg"><path fill="currentColor" d="M6.85 1.71c-1.43 0-2.58 1.15-2.58 2.57V19.7c0 1.42 1.15 2.57 2.57 2.57h6.34c-1.27-1.18-2.06-2.86-2.06-4.72 0-3.56 2.87-6.43 6.42-6.43 .75 0 1.47.12 2.14.36V4.25c0-1.43-1.16-2.58-2.58-2.58H6.81Zm1.28 11.14c-.72 0-1.29-.58-1.29-1.29 0-.71.57-1.29 1.28-1.29 .71 0 1.28.57 1.28 1.28 0 .71-.58 1.28-1.29 1.28Zm15 4.71c0 3.07-2.5 5.57-5.58 5.57s-5.58-2.5-5.58-5.58c0-3.077 2.49-5.58 5.57-5.58 3.07 0 5.57 2.49 5.57 5.57Zm-9-.43c-.24 0-.43.19-.43.42 0 .23.19.42.42.42h5.82L18.1 19.8c-.17.16-.17.43 0 .6 .16.16.43.16.6 0l2.57-2.58c.04-.05.07-.09.09-.14 .02-.05.03-.11.03-.17v-.01 -.01c-.01-.11-.05-.22-.13-.31l-2.58-2.58c-.17-.17-.44-.17-.61 0 -.17.16-.17.43 0 .6l1.83 1.83h-5.83Z"/></svg>