<svg viewBox="0 0 24 24" xmlns="http://www.w3.org/2000/svg"><path fill="currentColor" d="M12.7 2.29c-.4-.4-1.03-.4-1.42 0l-3.01 3c-.4.39-.4 1.02 0 1.41 .39.39 1.02.39 1.41 0l1.29-1.3v9.58c0 .55.44 1 1 1 .55 0 1-.45 1-1V5.39l1.29 1.29c.39.39 1.02.39 1.41 0 .39-.4.39-1.03 0-1.42l-3-3Zm-8.21 12.7c0-3.45 2.32-6.36 5.5-7.24v2.1c-2.05.8-3.5 2.79-3.5 5.12 0 3.03 2.46 5.5 5.5 5.5 3.03 0 5.5-2.47 5.5-5.5 0-2.34-1.46-4.33-3.5-5.13V7.73c3.17.87 5.5 3.78 5.5 7.23 0 4.14-3.36 7.5-7.5 7.5 -4.15 0-7.5-3.36-7.5-7.5Zm3 0c0-1.77 1.01-3.3 2.5-4.04v2.532c-.32.41-.5.93-.5 1.5 0 1.38 1.11 2.5 2.5 2.5 1.38 0 2.5-1.12 2.5-2.5 0-.57-.19-1.09-.5-1.51V10.94c1.48.73 2.5 2.26 2.5 4.03 0 2.48-2.02 4.5-4.5 4.5 -2.49 0-4.5-2.02-4.5-4.5Z"/></svg>