<svg viewBox="0 0 24 24" xmlns="http://www.w3.org/2000/svg"><path fill="currentColor" d="M18.2 21.7c-.4.39-1.03.39-1.42 0l-3-3c-.4-.4-.4-1.03 0-1.42 .39-.4 1.02-.4 1.41 0l1.29 1.29V6.98c0-.56.44-1 1-1 .55 0 1 .44 1 1v11.58l1.29-1.3c.39-.4 1.02-.4 1.41 0 .39.39.39 1.02 0 1.41l-3 3ZM12.49 6.99c0 2.05 1.23 3.81 3 4.584V9.22c-.62-.55-1-1.35-1-2.24 0-1.66 1.34-3 3-3 1.65 0 3 1.34 3 3 0 .88-.39 1.68-1 2.23v2.34c1.76-.78 3-2.54 3-4.584 0-2.77-2.24-5-5-5 -2.77 0-5 2.23-5 5Zm-8 4.584c-1.77-.78-3-2.54-3-4.584 0-2.77 2.23-5 5-5 2.76 0 5 2.23 5 5 0 2.05-1.24 3.81-3 4.584V9.22c.61-.55 1-1.35 1-2.24 0-1.66-1.35-3-3-3 -1.66 0-3 1.34-3 3 0 .88.38 1.68 1 2.23v2.34Zm2.7 10.12c-.4.39-1.03.39-1.42 0l-3-3c-.4-.4-.4-1.03 0-1.42 .39-.4 1.02-.4 1.41 0l1.29 1.29V6.97c0-.56.44-1 1-1 .55 0 1 .44 1 1v11.58l1.29-1.3c.39-.4 1.02-.4 1.41 0 .39.39.39 1.02 0 1.41l-3 3Z"/></svg>