<svg viewBox="0 0 24 24" xmlns="http://www.w3.org/2000/svg"><path fill="currentColor" d="M12.7 21.7c-.4.39-1.03.39-1.42 0l-3.01-3c-.4-.4-.4-1.03 0-1.42 .39-.4 1.02-.4 1.41 0l1.29 1.29V8.98c0-.56.44-1 1-1 .55 0 1 .44 1 1v9.58l1.29-1.3c.39-.4 1.02-.4 1.41 0 .39.39.39 1.02 0 1.41l-3 3ZM4.49 8.99c0 3.44 2.32 6.35 5.5 7.23v-2.11c-2.05-.8-3.5-2.8-3.5-5.13 0-3.04 2.46-5.5 5.5-5.5 3.03 0 5.5 2.46 5.5 5.5 0 2.33-1.46 4.32-3.5 5.12v2.1c3.17-.88 5.5-3.79 5.5-7.24 0-4.15-3.36-7.5-7.5-7.5 -4.15 0-7.5 3.35-7.5 7.5Zm3 0c0 1.76 1.01 3.29 2.5 4.03v-2.532c-.32-.42-.5-.94-.5-1.51 0-1.39 1.11-2.5 2.5-2.5 1.38 0 2.5 1.11 2.5 2.5 0 .56-.19 1.08-.5 1.5v2.532c1.48-.74 2.5-2.27 2.5-4.04 0-2.49-2.02-4.5-4.5-4.5 -2.49 0-4.5 2.01-4.5 4.5Z"/></svg>