<svg viewBox="0 0 24 24" xmlns="http://www.w3.org/2000/svg"><path fill="currentColor" d="M13.939 4.99L19 10.05l-9.94 9.93c-.28.27-.63.47-1 .57l-5.12 1.39c-.56.15-1.08-.37-.93-.93l1.39-5.12c.1-.38.3-.73.57-1l9.93-9.94Zm-7.42 6l-1.5 1.5 -2.28 0c-.42 0-.75-.34-.75-.75 0-.42.33-.75.75-.75l3.77-.01Zm14.35-8.18l.15.14 .14.15c1.25 1.4 1.2 3.56-.15 4.9l-.98.96 -5.07-5.06 .97-.97c1.34-1.35 3.5-1.4 4.9-.15Zm-10.36 4.17l-1.51 1.5 -6.28 0c-.42 0-.75-.34-.75-.75 0-.42.33-.75.75-.75l7.77-.01Zm4-4l-1.5 1.5 -10.28 0c-.42 0-.75-.34-.75-.75 0-.42.33-.75.75-.75l11.77-.01Z"/></svg>