<svg viewBox="0 0 24 24" xmlns="http://www.w3.org/2000/svg"><path fill="currentColor" d="M11.99 16c.51 0 .93.38.99.88l0 .11v1.58l.29-.3c.36-.37.92-.39 1.32-.09l.09.08c.36.36.38.92.08 1.32l-.09.09 -2 2 -.05.04 -.07.05 -.12.07 -.12.05 -.11.03 -.12.02 -.09 0h-.12l-.06-.01 -.12-.03 -.11-.04 -.09-.04 -.1-.06 -.1-.07c-.04-.03-.07-.06-.1-.09l-2-2c-.4-.4-.4-1.03 0-1.42 .36-.37.92-.39 1.31-.09l.09.08 .29.29v-1.59c0-.52.38-.94.88-1l.11-.01Zm6.29-6.71c.36-.37.92-.39 1.32-.09l.09.08 2 2 .04.04 .05.06 .07.11 .05.11 .03.1 .02.11 0 .08V12l-.01.05 -.03.11 -.04.1 -.04.08 -.06.09 -.08.1 -.08.08 -2 2c-.4.39-1.03.39-1.42 0 -.37-.37-.39-.93-.09-1.32l.08-.1 .29-.3h-1.59c-.52 0-.94-.39-1-.89l-.01-.12c0-.52.38-.94.88-1l.11-.01h1.58l-.3-.3c-.37-.37-.39-.93-.09-1.32l.08-.1Zm-14 0c.39-.4 1.02-.4 1.41 0 .36.36.38.92.08 1.32l-.09.09 -.3.29h1.58c.51 0 .93.38.99.88l0 .11c0 .51-.39.93-.89.99l-.12 0H5.35l.29.29c.36.36.38.92.08 1.32l-.09.09c-.37.36-.93.38-1.33.08l-.1-.09 -2-2 -.1-.12 -.08-.12 -.06-.12 -.04-.11 -.03-.12 -.01-.07 -.01-.11 0-.08 .01-.12 .02-.12 .04-.12 .05-.1 .06-.1c.02-.04.05-.07.08-.1l2-2.01Zm7.7-.05c1.51 0 2.75 1.23 2.75 2.75 0 1.51-1.24 2.75-2.75 2.75 -1.52 0-2.75-1.24-2.75-2.75 0-1.52 1.23-2.75 2.74-2.75ZM11.83 2l.07-.01 .12-.01 .12.01 .13.03 .11.04 .09.05 .1.07 .08.07 2 2c.39.39.39 1.02 0 1.41 -.37.36-.93.38-1.32.08l-.1-.09 -.3-.3V6.93c0 .51-.39.93-.89.99l-.12 0c-.52 0-.94-.39-1-.89l-.01-.12V5.32l-.3.29c-.37.36-.93.38-1.32.08l-.1-.09c-.37-.37-.39-.93-.09-1.32l.08-.1 1.99-2 .11-.1 .11-.08 .11-.06 .1-.04 .11-.03Z"/></svg>