<svg viewBox="0 0 24 24" xmlns="http://www.w3.org/2000/svg"><path fill="currentColor" d="M12.24 13.14H7.75l2.24-6.41 2.24 6.4Zm.7 2l.32.93 1.56-1.57 -3.77-10.76c-.36-1.02-1.8-1.02-2.16 0l-4.87 13.9c-.19.52.09 1.09.61 1.27 .52.18 1.09-.1 1.27-.62l1.11-3.19h5.88Zm.25 2.42l5.9-5.91c.89-.9 2.33-.9 3.23 0 .89.89.89 2.33 0 3.23l-5.91 5.9c-.35.34-.78.58-1.25.7l-1.84.45c-.05.01-.1.02-.15.02 -.6.2-2.98.57-3.83-.09 -.58-.45-.47-1.34-.22-1.82 .03-.08-.02-.18-.11-.17 -.67.1-1.25.45-1.83.79 -.79.46-1.57.93-2.55.81 -.98-.13-1.47-.73-1.72-1.26 -.1-.22.17-.41.38-.29 .46.25 1.1.49 1.63.37 .37-.09.9-.46 1.49-.88 1.06-.76 2.33-1.66 3.29-1.27 .83.33 1.45 1.15 1.02 2.11 -.06.11 0 .26.12.29 .42.09.77.06 1.13-.11l.42-1.72c.11-.48.36-.91.7-1.25Z"/></svg>