<svg viewBox="0 0 24 24" xmlns="http://www.w3.org/2000/svg"><path fill="currentColor" d="M11 6.5c0-2.87 2.19-5.23 5-5.48v5.77l-1.65-1.65c-.2-.2-.52-.2-.71 0 -.2.19-.2.51 0 .7l2.5 2.5c.19.19.51.19.7 0l2.5-2.5c.19-.2.19-.52 0-.71 -.2-.2-.52-.2-.71 0l-1.65 1.64V.99c2.8.25 5 2.6 5 5.47 0 3.03-2.47 5.49-5.5 5.49 -3.04 0-5.5-2.47-5.5-5.5Zm8.5 2.99c0-.28-.23-.5-.5-.5h-5c-.28 0-.5.22-.5.5 0 .27.22.5.5.5h5c.27 0 .5-.23.5-.5ZM6.25 3.99h4.24c-.2.47-.35.97-.43 1.5H6.23c-.97 0-1.75.78-1.75 1.75v.75h5.67c.12.52.31 1.03.55 1.5H4.46v4.5h4.55c.38 0 .69.31.69.69v.05c0 1.24 1 2.25 2.25 2.25 1.24 0 2.25-1.01 2.25-2.25v-.06c0-.39.31-.7.69-.7h4.55v-1.74c.55-.29 1.05-.66 1.5-1.08v7.55c0 1.79-1.46 3.25-3.25 3.25H6.19c-1.8 0-3.25-1.46-3.25-3.25V7.2c0-1.8 1.45-3.25 3.25-3.25Z"/></svg>