<svg viewBox="0 0 24 24" xmlns="http://www.w3.org/2000/svg"><path fill="currentColor" d="M15.66 14.69l-2.09-2.05 -.13-.12c-.84-.71-2.06-.71-2.89-.01l-.14.12 -6.24 6.12c-.45.43-1.2.12-1.2-.5v-.53c0-.01 0 0 0 0V6.21c0-1.8 1.45-3.25 3.25-3.25h11.49c1.79 0 3.25 1.45 3.25 3.25v4.76c-.94-.09-1.9.23-2.61.95l-2.74 2.73Zm-2.17-6.45c0 1.24 1 2.25 2.25 2.25 1.24 0 2.25-1.01 2.25-2.26 0-1.25-1.01-2.26-2.26-2.26 -1.25 0-2.26 1-2.26 2.25Zm2.25-.76c.41 0 .75.33.75.75 0 .41-.34.75-.76.75s-.76-.34-.76-.76 .33-.76.75-.76Zm-4.28 6.21l.08-.08c.25-.19.61-.2.87-.01l.09.07 2.07 2.03 -2.11 2.11c-.44.43-.76.97-.94 1.57 -.35-.54-.88-.92-1.42-1.14 -.7-.28-1.39-.16-1.94.03l-.12.03c-.49.16-.87-.41-.53-.8l.21-.25 3.69-3.63Zm7.62-1.05l-5.91 5.9c-.35.34-.59.77-.71 1.24l-.43 1.71c-.36.17-.71.2-1.14.1 -.13-.03-.18-.18-.13-.3 .42-.97-.2-1.78-1.03-2.12 -.96-.39-2.23.51-3.3 1.26 -.6.41-1.13.79-1.5.87 -.53.11-1.17-.13-1.64-.38 -.21-.12-.49.07-.39.28 .24.52.73 1.13 1.71 1.25 .97.12 1.76-.35 2.54-.82 .58-.35 1.16-.7 1.82-.8 .08-.02.14.08.1.16 -.25.48-.36 1.37.21 1.81 .84.66 3.23.29 3.82.08 .04-.01.09-.02.14-.03l1.83-.46c.47-.12.9-.37 1.24-.71l5.9-5.91c.89-.9.89-2.34 0-3.24 -.9-.9-2.34-.9-3.24 0Z"/></svg>