<svg viewBox="0 0 24 24" xmlns="http://www.w3.org/2000/svg"><path fill="currentColor" d="M2.99 6.25C2.99 4.45 4.44 3 6.24 3h11.49c1.79 0 3.25 1.45 3.25 3.25v4.76c-.94-.09-1.9.23-2.62.94l-5.91 5.9c-.44.43-.76.97-.94 1.57 -.35-.54-.87-.92-1.42-1.14 -.7-.28-1.39-.16-1.94.03 -.25.08-.5.2-.73.32 -.03.02-.06.04-.09.06l-1.7 1.03c-.47.27-.91.36-1.3.33 -.39-.03-.7-.18-.91-.32 -.39-.26-.5-.69-.5-1.01v-1.04c0-.01 0 0 0 0V6.17Zm16.09 6.41l-5.91 5.9c-.35.34-.59.77-.71 1.24l-.43 1.71c-.36.17-.71.2-1.14.1 -.13-.03-.18-.18-.13-.3 .42-.97-.2-1.78-1.03-2.12 -.96-.39-2.23.51-3.3 1.26 -.6.41-1.13.79-1.5.87 -.53.11-1.17-.13-1.64-.38 -.21-.12-.49.07-.39.28 .24.52.73 1.13 1.71 1.25 .97.12 1.76-.35 2.54-.82 .58-.35 1.16-.7 1.82-.8 .08-.02.14.08.1.16 -.25.48-.36 1.37.21 1.81 .84.66 3.23.29 3.82.08 .04-.01.09-.02.14-.03l1.83-.46c.47-.12.9-.37 1.24-.71l5.9-5.91c.89-.9.89-2.34 0-3.24 -.9-.9-2.34-.9-3.24 0Z"/></svg>