<svg viewBox="0 0 24 24" xmlns="http://www.w3.org/2000/svg"><path fill="currentColor" d="M6.4 3.89c.37-.56.99-.9 1.66-.9h7.85c.66 0 1.29.33 1.66.89l2.07 3.1c.21.32.33.71.33 1.1v2.89c0 .55-.45 1-1 1h-.36l.85 2c.82 0 1.5.67 1.5 1.5v4c0 .82-.68 1.5-1.5 1.5h-15c-.83 0-1.5-.68-1.5-1.5v-4c0-.83.67-1.5 1.5-1.5l.85-2h-.36c-.56 0-1-.45-1-1v-2.9c0-.4.11-.79.33-1.11l2.07-3.11Zm-.41 6.6l.85-2H5.48v2h.5Zm9.51-2H8.47l-2.34 5.45 .02.04h11.64l.02-.05 -2.34-5.46Zm1.63 0l.85 2h.5v-2h-1.36Zm-6.9 8.25c-.42 0-.75.33-.75.75 0 .41.33.75.75.75h3.5c.41 0 .75-.34.75-.75 0-.42-.34-.75-.75-.75h-3.5Z"/></svg>