<svg viewBox="0 0 24 24" xmlns="http://www.w3.org/2000/svg"><path fill="currentColor" d="M22 6.5C22 3.46 19.53 1 16.5 1 13.46 1 11 3.46 11 6.5c0 3.03 2.46 5.5 5.5 5.5 3.03 0 5.5-2.47 5.5-5.5ZM17 7l0 2.5c0 .27-.23.49-.5.49 -.28 0-.5-.23-.5-.5l-.01-2.51h-2.51c-.28 0-.5-.23-.5-.5 0-.28.22-.5.49-.5h2.5l-.01-2.51c0-.28.22-.5.5-.5 .27 0 .5.22.5.5l0 2.5h2.49c.27 0 .49.22.49.5 0 .27-.23.5-.5.5h-2.5ZM6.24 3.99h4.24c-.2.47-.35.97-.43 1.5H6.22c-.97 0-1.75.78-1.75 1.75v.75h5.67c.12.52.31 1.03.55 1.5H4.45v4.5H9c.38 0 .69.31.69.69v.05c0 1.24 1 2.25 2.25 2.25 1.24 0 2.25-1.01 2.25-2.25v-.06c0-.39.31-.7.69-.7h4.55v-1.74c.55-.29 1.05-.66 1.5-1.08v7.55c0 1.79-1.46 3.25-3.25 3.25H6.18c-1.8 0-3.25-1.46-3.25-3.25V7.2c0-1.8 1.45-3.25 3.25-3.25Z"/></svg>