<svg viewBox="0 0 24 24" xmlns="http://www.w3.org/2000/svg"><path fill="currentColor" d="M22 6.5c0 3.03-2.47 5.5-5.5 5.5 -3.04 0-5.5-2.47-5.5-5.5C11 3.46 13.46 1 16.5 1 19.53 1 22 3.46 22 6.5Zm-7 2.11c0 .38.42.62.75.42l3.52-2.12c.32-.2.32-.67 0-.86l-3.53-2.12c-.34-.2-.76.04-.76.42v4.23ZM6.25 3.99h4.24c-.2.47-.35.97-.43 1.5H6.23c-.97 0-1.75.78-1.75 1.75v.75h5.67c.12.52.31 1.03.55 1.5H4.46v4.5h4.55c.38 0 .69.31.69.69v.05c0 1.24 1 2.25 2.25 2.25 1.24 0 2.25-1.01 2.25-2.25v-.06c0-.39.31-.7.69-.7h4.55v-1.74c.55-.29 1.05-.66 1.5-1.08v7.55c0 1.79-1.46 3.25-3.25 3.25H6.19c-1.8 0-3.25-1.46-3.25-3.25V7.2c0-1.8 1.45-3.25 3.25-3.25Z"/></svg>