<svg viewBox="0 0 24 24" xmlns="http://www.w3.org/2000/svg"><path fill="currentColor" d="M6.75 2c-.42 0-.75.33-.75.75v7c0 2.92 2.17 5.334 5 5.7v5.05l-2.25-.01c-.42-.01-.76.33-.76.74 -.01.41.33.75.74.75l2.99.01h0l3.5-.02c.41-.01.74-.34.74-.76 -.01-.42-.34-.75-.76-.75l-2.75 0V15.4c3.09-.38 5.5-3.01 5.5-6.21v-6.5c0-.42-.34-.75-.75-.75H6.7Zm.75 5V3.5h9V7h-9Zm8.18 2.7c-.07.36-.2.7-.36 1.02 -.21.39-.48.74-.81 1.04 -.32.28-.68.52-1.08.68 -.22.09-.45.16-.68.2 -.28.05-.54-.12-.6-.39 -.06-.28.11-.54.38-.6 .17-.04.33-.09.49-.16 .29-.13.56-.3.79-.51 .23-.22.43-.48.58-.77 .12-.24.2-.49.26-.75 .05-.28.31-.45.58-.4 .27.05.44.31.39.58Z"/></svg>