<svg viewBox="0 0 24 24" xmlns="http://www.w3.org/2000/svg"><path fill="currentColor" d="M20.48 2.62c.06.4-.21.79-.62.86l-5.49.91 -.12.59h3.98c.41 0 .75.33.75.75v4c0 1.71-1.33 3.11-3 3.24v.5c0 1.95-1.4 3.57-3.25 3.92v3.07h2.5c.41 0 .75.33.75.75 0 .41-.34.75-.75.75h-6.5c-.42 0-.75-.34-.75-.75 0-.42.33-.75.75-.75h2.5v-3.08c-1.86-.36-3.25-1.98-3.25-3.93v-.51c-1.68-.13-3-1.53-3-3.25v-4c0-.42.33-.75.75-.75h6.98l.27-1.4c.06-.31.3-.55.61-.6l6-1c.4-.07.79.2.86.61Zm-8.51 6.12l.45-2.25H6.48v2.25h5.48Zm5.51 0V6.49h-3.54l-.45 2.25h3.98Z"/></svg>