<svg viewBox="0 0 24 24" xmlns="http://www.w3.org/2000/svg"><path fill="currentColor" d="M8.4 4.2c0 .76.47 1.41 1.14 1.67 -.14.6-.56 1.05-1.2 1.71l-.01 0 -.01 0c-.13.12-.26.26-.4.41 -1.19.97-1.96 2.39-1.96 3.99 0 .11 0 .22.01.33 -.01.08-.02.17-.02.26v6c0 1.65 1.34 3 3 3 .54 0 1.05-.15 1.5-.41 .44.25.95.4 1.5.4 .54 0 1.05-.15 1.5-.41 .44.25.95.4 1.5.4 1.65 0 3-1.35 3-3v-6c0-.09-.01-.18-.02-.27 0-.12.01-.23.01-.34 0-.98-.29-1.9-.8-2.69 -.01-.02-.02-.04-.04-.06 -.48-.72-1.03-1.26-1.49-1.71l-.02-.02c-.66-.65-1.09-1.09-1.23-1.68 .66-.27 1.14-.92 1.14-1.68 0-1-.81-1.8-1.8-1.8h-3.6c-1 0-1.8.8-1.8 1.8ZM7.2 18.59v-.6h9.6v.6c0 .99-.81 1.8-1.8 1.8 -.43 0-.82-.15-1.13-.4 -.22-.18-.54-.18-.76 0 -.31.24-.7.39-1.13.39 -.43 0-.82-.15-1.13-.4 -.22-.18-.54-.18-.76 0 -.31.24-.7.39-1.13.39 -1 0-1.8-.81-1.8-1.8Zm3.54-12.6h2.5c.19 1.03.89 1.72 1.53 2.35l.05.04h-5.6l.01-.02c.63-.65 1.29-1.34 1.48-2.39Zm3.05-1.2h-3.6c-.34 0-.6-.27-.6-.6 0-.34.26-.6.6-.6h3.6c.33 0 .6.26.6.6 0 .33-.27.6-.6.6Z"/></svg>