<svg viewBox="0 0 24 24" xmlns="http://www.w3.org/2000/svg"><path fill="currentColor" d="M17.991 18.83l2.58 2.58c.23.23.61.23.84 0 .23-.24.23-.62 0-.85L3.4 2.55c-.24-.24-.62-.24-.85 0 -.24.23-.24.61 0 .84l4.96 4.96c-.95.94-1.54 2.21-1.54 3.61 0 .11 0 .22.01.33 -.01.08-.02.17-.02.26v6c0 1.65 1.34 3 3 3 .54 0 1.05-.15 1.5-.41 .44.25.95.4 1.5.4 .54 0 1.05-.15 1.5-.41 .44.25.95.4 1.5.4 1.57 0 2.86-1.22 2.99-2.77Zm-10.8-.84h9.6v.6c0 .99-.81 1.8-1.8 1.8 -.43 0-.82-.15-1.13-.4 -.22-.18-.54-.18-.76 0 -.31.24-.7.39-1.13.39 -.43 0-.82-.15-1.13-.4 -.22-.18-.54-.18-.76 0 -.31.24-.7.39-1.13.39 -1 0-1.8-.81-1.8-1.8v-.6Zm10.8-5.4v2.85l-7.06-7.06h3.89l-.06-.05c-.64-.63-1.34-1.32-1.54-2.36h-2.51c-.11.59-.38 1.08-.7 1.5l-.86-.86c.17-.25.29-.5.35-.77 -.68-.27-1.15-.92-1.15-1.68 0-1 .8-1.8 1.8-1.8h3.6c.99 0 1.8.8 1.8 1.8 0 .76-.48 1.41-1.15 1.67 .14.58.57 1.02 1.22 1.67l.01.01c.46.45 1 .99 1.48 1.7 .01.01.02.03.03.05 .5.78.79 1.7.79 2.68 0 .11-.01.22-.02.33 0 .08.01.17.01.26Zm-7.8-7.8h3.6c.33 0 .6-.27.6-.6 0-.34-.27-.6-.6-.6h-3.6c-.34 0-.61.26-.61.6 0 .33.26.6.6.6Z"/></svg>