<svg viewBox="0 0 24 24" xmlns="http://www.w3.org/2000/svg"><path fill="currentColor" d="M7.25 2C5.45 2 4 3.45 4 5.25v14.5C4 20.99 5 22 6.25 22h9c1.24 0 2.25-1.01 2.25-2.25V18h1.25c1.79 0 3.25-1.46 3.25-3.25v-5.5C22 7.45 20.54 6 18.75 6H17.5v-.75c0-1.8-1.46-3.25-3.25-3.25h-7Zm11.5 14.5H17.5v-9h1.25c.96 0 1.75.78 1.75 1.75v5.5c0 .96-.79 1.75-1.75 1.75ZM16 6H5.5v-.75c0-.97.78-1.75 1.75-1.75h7c.96 0 1.75.78 1.75 1.75V6Zm-7.5 4v7c0 .41-.34.75-.75.75 -.42 0-.75-.34-.75-.75v-7c0-.42.33-.75.75-.75 .41 0 .75.33.75.75Zm3 0v7c0 .41-.34.75-.75.75 -.42 0-.75-.34-.75-.75v-7c0-.42.33-.75.75-.75 .41 0 .75.33.75.75Zm3 0v7c0 .41-.34.75-.75.75 -.42 0-.75-.34-.75-.75v-7c0-.42.33-.75.75-.75 .41 0 .75.33.75.75Z"/></svg>