<svg viewBox="0 0 24 24" xmlns="http://www.w3.org/2000/svg"><path fill="currentColor" d="M5.5 2.75c0-.42-.34-.75-.75-.75 -.42 0-.75.33-.75.75 0 1.27.92 1.91 1.5 2.31l.06.04c.67.47.93.7.93 1.13 0 .41.33.75.75.75 .41 0 .75-.34.75-.75 0-1.28-.93-1.92-1.51-2.32l-.07-.05c-.68-.48-.94-.71-.94-1.14ZM4.82 8c-1.01 0-1.83.81-1.83 1.82v4.17c0 4.41 3.58 8 8 8 3.35 0 6.23-2.07 7.41-5h1.33c1.79 0 3.25-1.46 3.25-3.25 0-1.8-1.46-3.25-3.25-3.25h-.75v-.68c0-1.01-.82-1.83-1.83-1.83H4.79Zm14.92 7.5h-.9c.09-.49.14-.99.14-1.5v-2h.75c.96 0 1.75.78 1.75 1.75 0 .96-.79 1.75-1.75 1.75ZM8.74 2c.41 0 .75.33.75.75 0 .43.25.65.93 1.13l.06.04c.57.4 1.5 1.04 1.5 2.31 0 .41-.34.75-.75.75 -.42 0-.75-.34-.75-.75 0-.44-.26-.66-.94-1.14l-.07-.05c-.58-.41-1.51-1.05-1.51-2.32 0-.42.33-.75.75-.75Zm4.75.75c0-.42-.34-.75-.75-.75 -.42 0-.75.33-.75.75 0 1.27.92 1.91 1.5 2.31l.06.04c.68.47.93.7.93 1.13 0 .41.33.75.75.75 .41 0 .75-.34.75-.75 0-1.28-.93-1.92-1.51-2.32l-.07-.05c-.68-.48-.94-.71-.94-1.14Z"/></svg>