<svg viewBox="0 0 24 24" xmlns="http://www.w3.org/2000/svg"><path fill="currentColor" d="M3 5.5C3 4.11 4.11 3 5.5 3 6.88 3 8 4.11 8 5.5v1h2.06c.22-.87 1-1.5 1.93-1.5 .93 0 1.71.63 1.93 1.5h2.06v-1c0-1.39 1.11-2.5 2.5-2.5 1.38 0 2.5 1.11 2.5 2.5v3c0 1.38-1.12 2.5-2.5 2.5 -1.39 0-2.5-1.12-2.5-2.5V8h-2.27c-.23.38-.57.68-.99.85v6.29c.41.16.76.47.98.85h2.26v-.5c0-1.39 1.11-2.5 2.5-2.5 1.38 0 2.5 1.11 2.5 2.5v3c0 1.38-1.12 2.5-2.5 2.5 -1.39 0-2.5-1.12-2.5-2.5v-1h-2.07c-.23.86-1.01 1.5-1.94 1.5 -.94 0-1.72-.64-1.94-1.5H7.94v1c0 1.38-1.12 2.5-2.5 2.5 -1.39 0-2.5-1.12-2.5-2.5v-3c0-1.39 1.11-2.5 2.5-2.5 1.38 0 2.5 1.11 2.5 2.5v.5h2.26c.22-.39.56-.69.98-.86v-6.3c-.42-.17-.77-.48-.99-.86H7.92v.5c0 1.38-1.12 2.5-2.5 2.5 -1.39 0-2.5-1.12-2.5-2.5v-3Z"/></svg>