<svg viewBox="0 0 24 24" xmlns="http://www.w3.org/2000/svg"><path fill="currentColor" d="M7.5 8.99v12l-3.75 0c-.92 0-1.68-.71-1.75-1.61l-.01-.15v-8.51c0-.92.7-1.68 1.6-1.75l.14-.01 3.75-.01Zm4.75 0c.91 0 1.67.7 1.74 1.6l0 .14v8.5c0 .91-.71 1.67-1.61 1.74l-.15 0 -3.75-.01V8.95l3.75 0Zm-1.61 8.5h-.5l-.11 0c-.37.04-.65.36-.65.74 0 .37.28.69.64.74l.1 0h.5l.1-.01c.36-.05.64-.37.64-.75 0-.42-.34-.75-.75-.75Zm-4.76 0h-.5l-.11 0c-.37.04-.65.36-.65.74 0 .37.28.69.64.74l.1 0h.5l.1-.01c.36-.05.64-.37.64-.75 0-.42-.34-.75-.75-.75Zm13.85-14.5c1.19 0 2.16.92 2.24 2.09l0 .15v8.5c0 1.19-.93 2.16-2.096 2.24l-.16 0h-4.75v-2.5h1.25c.41 0 .75-.34.75-.75 0-.42-.34-.75-.75-.75h-1.25v-1.5c0-1.33-1.04-2.42-2.34-2.5l-.17-.01h-6.5V5.21c0-1.2.92-2.17 2.09-2.25l.15-.01h11.5Z"/></svg>