<svg viewBox="0 0 24 24" xmlns="http://www.w3.org/2000/svg"><path fill="currentColor" d="M20.24 4c.96 0 1.75.78 1.75 1.75v12.49c0 .96-.79 1.75-1.75 1.75h-7.25c-.09 0-.18-.01-.26-.02l-.01-15.96c.08-.02.16-.02.25-.02h7.24Zm-9.25-.01c.08 0 .16 0 .24.01l-.01 15.96c-.09.01-.17.01-.25.01H3.72c-.97 0-1.75-.79-1.75-1.75V5.72c0-.97.78-1.75 1.75-1.75h7.24Zm4.7 9.4c-.3-.23-.71-.21-.98.06 -.27.26-.3.68-.09.97l.07.08 2.25 2.29 .08.07c.26.2.63.2.9-.01l.08-.08 2.25-2.3 .07-.09c.21-.3.18-.72-.09-.98 -.27-.27-.69-.29-.98-.07l-.09.07 -1.72 1.74 -1.72-1.75 -.09-.08Zm2.33-6.18c-.27-.28-.7-.3-.99-.08l-.09.07 -2.26 2.29c-.3.29-.29.77.01 1.06 .26.26.68.28.97.06l.08-.08 1.71-1.75 1.71 1.74c.28.29.76.3 1.06.01 .26-.27.29-.68.08-.98l-.08-.09 -2.25-2.3Z"/></svg>