<svg viewBox="0 0 24 24" xmlns="http://www.w3.org/2000/svg"><path fill="currentColor" d="M20.252 4c.96 0 1.75.78 1.75 1.75v12.49c0 .96-.79 1.75-1.75 1.75H13c-.09 0-.18-.01-.26-.02l-.01-15.96c.08-.02.16-.02.25-.02h7.24Zm-2.09 5.41c-.13-.26-.39-.42-.68-.42 -.29 0-.55.16-.68.41l-2.25 4.5c-.12.23-.11.5.03.72 .13.22.37.35.63.35h4.5c.25 0 .5-.14.63-.36 .13-.23.14-.5.03-.73l-2.25-4.51Zm-7.17-5.42c.08 0 .16 0 .24.01l-.01 15.96c-.09.01-.17.01-.25.01H3.72c-.97 0-1.75-.79-1.75-1.75V5.72c0-.97.78-1.75 1.75-1.75h7.24ZM7.15 9.4c-.13-.26-.39-.42-.68-.42 -.29 0-.55.16-.68.41l-2.25 4.5c-.12.23-.11.5.03.72 .13.22.37.35.63.35h4.5c.25 0 .5-.14.63-.36 .13-.23.14-.5.03-.73l-2.25-4.51Z"/></svg>