<svg viewBox="0 0 24 24" xmlns="http://www.w3.org/2000/svg"><path fill="currentColor" d="M17 5h-.5c-.66 0-1.22.41-1.42 1 -.06.15-.09.32-.09.49v5c0 .82.67 1.5 1.5 1.5h6c.82 0 1.5-.68 1.5-1.5v-5c0-.83-.68-1.5-1.5-1.5h-.5v-1c0-1.39-1.12-2.5-2.5-2.5 -1.39 0-2.5 1.11-2.5 2.5v1Zm1.5-1c0-.56.44-1 1-1 .55 0 1 .44 1 1v1h-2V4Zm2 5c0 .55-.45 1-1 1 -.56 0-1-.45-1-1 0-.56.44-1 1-1 .55 0 1 .44 1 1Zm-7.51-3h1.05c-.04.16-.05.32-.05.49v5c0 1.38 1.11 2.5 2.5 2.5h5.49v6.24c0 .96-.79 1.75-1.75 1.75h-7.25c-.09 0-.18-.01-.26-.02L12.71 6c.08-.02.16-.02.25-.02Zm3.24 11.49h-1.5l-.11 0c-.37.04-.65.36-.65.74 0 .37.28.69.64.74l.1 0h1.5l.1-.01c.36-.05.64-.37.64-.75s-.29-.7-.65-.75l-.11-.01Zm-5.25-11.5c.08 0 .16 0 .24.01l-.01 15.96c-.09.01-.17.01-.25.01H3.71c-.97 0-1.75-.79-1.75-1.75V7.72c0-.97.78-1.75 1.75-1.75h7.24ZM9.22 17.48H7.71l-.11 0c-.37.04-.65.36-.65.74 0 .37.28.69.64.74l.1 0h1.5l.1-.01c.36-.05.64-.37.64-.75s-.29-.7-.65-.75l-.11-.01Z"/></svg>