<svg viewBox="0 0 24 24" xmlns="http://www.w3.org/2000/svg"><path fill="currentColor" d="M20.24 4c.96 0 1.75.78 1.75 1.75v12.49c0 .96-.79 1.75-1.75 1.75h-7.25c-.09 0-.18-.01-.26-.02l-.01-15.96c.08-.02.16-.02.25-.02h7.24Zm-9.25-.01c.08 0 .16 0 .24.01l-.01 15.96c-.09.01-.17.01-.25.01H3.72c-.97 0-1.75-.79-1.75-1.75V5.72c0-.97.78-1.75 1.75-1.75h7.24ZM9.23 15.48H7.72l-.11 0c-.37.04-.65.36-.65.74 0 .37.28.69.64.74l.1 0h1.5l.1-.01c.36-.05.64-.37.64-.75s-.29-.7-.65-.75l-.11-.01Zm6.99 0h-1.5l-.11 0c-.37.04-.65.36-.65.74 0 .37.28.69.64.74l.1 0h1.5l.1-.01c.36-.05.64-.37.64-.75s-.29-.7-.65-.75l-.11-.01Z"/></svg>