<svg viewBox="0 0 24 24" xmlns="http://www.w3.org/2000/svg"><path fill="currentColor" d="M20.24 4c.96 0 1.75.78 1.75 1.75v12.49c0 .96-.79 1.75-1.75 1.75h-7.25c-.09 0-.18-.01-.26-.02l-.01-15.96c.08-.02.16-.02.25-.02h7.24Zm-9.25-.01c.08 0 .16 0 .24.01l-.01 15.96c-.09.01-.17.01-.25.01H3.72c-.97 0-1.75-.79-1.75-1.75V5.72c0-.97.78-1.75 1.75-1.75h7.24Zm6.5 2.99l-.11 0 -.1.01c-.29.07-.5.31-.55.6l-.01.11 -.01 6.69 -.97-.96 -.09-.08c-.3-.22-.72-.2-.98.07 -.27.26-.3.68-.08.97l.07.08 2.24 2.23 .1.08 .07.04 .11.04 .09.02 .09.01h.09l.09-.02 .06-.02 .1-.04 .06-.03 .06-.05 .06-.05 .03-.04 2.24-2.24 .07-.09c.19-.27.19-.62 0-.89l-.08-.1 -.09-.08c-.27-.2-.63-.2-.89-.01l-.1.07 -.97.95 0-6.7 -.01-.11c-.05-.34-.31-.6-.65-.65l-.11-.01Z"/></svg>