<svg viewBox="0 0 24 24" xmlns="http://www.w3.org/2000/svg"><path fill="currentColor" d="M22.002 5.75c0-.97-.79-1.75-1.75-1.75H13c-.09 0-.18 0-.26.01v7.22h4.83l-.9-1.01c-.28-.31-.25-.79.06-1.06 .3-.28.78-.25 1.05.06l2 2.24c.25.28.25.71 0 .99l-2 2.25c-.28.3-.75.33-1.06.06 -.31-.28-.34-.75-.07-1.06l.89-1.01H12.7l0 7.23c.08.01.16.01.25.01h7.24c.96 0 1.75-.79 1.75-1.75V5.68Zm-10.76 5.49H6.41l.89-1.01c.27-.31.24-.79-.07-1.06 -.31-.28-.79-.25-1.06.06l-2 2.24c-.26.28-.26.71 0 .99l2 2.25c.27.3.74.33 1.05.06 .3-.28.33-.75.06-1.06l-.9-1.01h4.82l-.01 7.22c-.09.01-.17.01-.25.01H3.69c-.97 0-1.75-.79-1.75-1.75V5.68c0-.97.78-1.75 1.75-1.75h7.24c.08 0 .16 0 .24.01l-.01 7.23Z"/></svg>