<svg viewBox="0 0 24 24" xmlns="http://www.w3.org/2000/svg"><path fill="currentColor" d="M21.996 9.97l-.01 10.27c0 .96-.79 1.75-1.75 1.75h-7.25c-.09 0-.18-.01-.26-.02l0-10.18c1.06.75 2.35 1.19 3.75 1.19 2.31 0 4.34-1.21 5.49-3.03ZM10.01 5.99c-.02.16-.02.33-.02.49 0 1.42.46 2.74 1.24 3.82l0 11.65c-.09.01-.17.01-.25.01H3.73c-.97 0-1.75-.79-1.75-1.75V7.71c0-.97.78-1.75 1.75-1.75l6.26 0Zm-.78 11.49H7.72l-.11 0c-.37.04-.65.36-.65.74 0 .37.28.69.64.74l.1 0h1.5l.1-.01c.36-.05.64-.37.64-.75s-.29-.7-.65-.75l-.11-.01Zm6.99 0h-1.5l-.11 0c-.37.04-.65.36-.65.74 0 .37.28.69.64.74l.1 0h1.5l.1-.01c.36-.05.64-.37.64-.75s-.29-.7-.65-.75l-.11-.01Zm.26-16.5c3.03 0 5.5 2.46 5.5 5.5 0 3.03-2.47 5.5-5.5 5.5 -3.04 0-5.5-2.47-5.5-5.5 0-3.04 2.46-5.5 5.5-5.5Zm.29 2.54l-.08.04 -.07.05 -.06.06c-.12.17-.12.39 0 .56l.05.06 1.64 1.64 -4.8 0 -.09 0c-.21.03-.37.19-.41.4l-.01.08 0 .08c.03.2.19.36.4.4l.08 0 4.8-.01 -1.65 1.64 -.06.06c-.14.19-.12.46.05.63 .17.17.44.19.63.05l.06-.06 2.52-2.54 .03-.06 .04-.09 .02-.09 0-.07v-.09l-.01-.07 -.03-.09 -.05-.09 -.04-.06 -2.53-2.54 -.07-.06c-.15-.11-.34-.12-.5-.05Z"/></svg>