<svg viewBox="0 0 24 24" xmlns="http://www.w3.org/2000/svg"><path fill="currentColor" d="M16.49 2l0-.01c1.05 0 2.07.42 2.82 1.17 .74.74 1.17 1.76 1.17 2.82v0 2.51l1.38 1.66c.12.14.15.35.06.53 -.09.17-.26.28-.46.28h-10c-.2 0-.38-.12-.46-.29 -.09-.18-.06-.39.06-.54l1.38-1.67V5.93c0-1.06.42-2.08 1.17-2.83 .74-.75 1.76-1.18 2.82-1.18ZM5.74 4.99h5.85c-.07.32-.11.65-.11.99v2.16l-1.16 1.38c-.38.44-.46 1.06-.21 1.59 .24.52.77.86 1.35.86h2.17c.41 1.16 1.52 2 2.82 2 .17 0 .33-.02.5-.05v4.79c0 1.24-1.01 2.25-2.25 2.25h-9c-.42 0-.75-.34-.75-.75V5.71c0-.42.33-.75.75-.75Zm9.754 7.73c-.31-.18-.56-.43-.73-.74h3.44c-.18.3-.43.55-.73.73 -.31.17-.65.26-1 .26s-.7-.1-1-.27Z"/></svg>