<svg viewBox="0 0 24 24" xmlns="http://www.w3.org/2000/svg"><path fill="currentColor" d="M22 6.5c0 3.03-2.47 5.5-5.5 5.5 -3.04 0-5.5-2.47-5.5-5.5C11 3.46 13.46 1 16.5 1 19.53 1 22 3.46 22 6.5Zm-6-1.8v4.79c0 .27.22.5.5.5 .27 0 .5-.23.5-.5v-4.8l1.64 1.64c.19.19.51.19.7 0 .19-.2.19-.52 0-.71l-2.5-2.5c-.2-.2-.52-.2-.71 0l-2.5 2.5c-.2.19-.2.51 0 .7 .19.19.51.19.7 0l1.64-1.65Zm5.99 15.54l0-10.28c-1.16 1.81-3.19 3.02-5.5 3.02 -1.4 0-2.7-.45-3.76-1.2l-.01 10.17c.08.01.16.01.25.01h7.24c.96 0 1.75-.79 1.75-1.75Zm-7.26-2.75h1.5l.1 0c.36.04.64.36.64.74 0 .37-.29.69-.65.74l-.11 0h-1.5l-.11-.01c-.37-.05-.65-.37-.65-.75s.28-.7.64-.75l.1-.01Zm-4.74-11c0-.17 0-.34.01-.5l-6.27-.01c-.97 0-1.75.78-1.75 1.75v12.49c0 .96.78 1.75 1.75 1.75h7.24c.08 0 .16-.01.24-.02l-.01-11.66c-.79-1.08-1.25-2.4-1.25-3.83Zm-2.26 11h1.5l.1 0c.36.04.64.36.64.74 0 .37-.29.69-.65.74l-.11 0H7.7l-.11-.01c-.37-.05-.65-.37-.65-.75s.28-.7.64-.75l.1-.01Z"/></svg>