<svg viewBox="0 0 24 24" xmlns="http://www.w3.org/2000/svg"><path fill="currentColor" d="M13.27 2.97c.31 1.09-.34 2.22-1.45 2.49l-.59.14c-.05.28-.07.58-.07.88 0 .31.02.62.07.92l.53.12c1.11.26 1.77 1.41 1.45 2.51l-.19.63c.43.38.93.69 1.48.92l.49-.52c.78-.83 2.11-.83 2.89 0l.49.52c.54-.23 1.04-.54 1.48-.92l-.2-.69c-.32-1.1.33-2.23 1.44-2.5l.58-.15c.04-.29.06-.59.06-.89 0-.32-.03-.63-.08-.93l-.54-.13c-1.12-.27-1.78-1.42-1.46-2.52l.18-.64c-.44-.39-.94-.7-1.49-.93l-.5.51c-.79.82-2.12.82-2.9-.01l-.5-.53c-.55.22-1.05.53-1.49.91l.19.68Zm3.22 5.02c-.81 0-1.45-.68-1.45-1.5 0-.83.64-1.5 1.45-1.5 .8 0 1.45.67 1.45 1.5 0 .82-.65 1.5-1.45 1.5Zm0 5c2.31 0 4.35-1.22 5.5-3.04v10.28c0 .96-.79 1.75-1.76 1.75h-7.25c-.09 0-.18-.01-.26-.02V11.78c1.06.75 2.35 1.19 3.75 1.19Zm-.26 4.49h-1.51l-.11 0c-.37.04-.65.36-.65.74 0 .37.28.69.64.74l.1 0h1.5l.1-.01c.36-.05.64-.37.64-.75s-.29-.7-.65-.75l-.11-.01Zm-6.25-11c0-.17 0-.34.01-.5H3.72c-.97 0-1.76.78-1.76 1.75v12.49c0 .96.78 1.75 1.75 1.75h7.24c.08 0 .16-.01.24-.02l0-11.65c-.79-1.08-1.26-2.4-1.26-3.84Zm-.76 10.99l.1 0c.36.04.64.36.64.74 0 .37-.29.69-.65.74l-.11 0H7.69l-.11-.01c-.37-.05-.65-.37-.65-.75s.28-.7.64-.75l.1-.01h1.5Z"/></svg>