<svg viewBox="0 0 24 24" xmlns="http://www.w3.org/2000/svg"><path fill="currentColor" d="M11.49 5.99v12.99l-4.25 0c-.92 0-1.68-.71-1.75-1.61l-.01-.15v-9.5c0-.92.7-1.68 1.6-1.75l.14-.01 4.24-.01Zm5.25 0c.91 0 1.67.7 1.74 1.6l0 .14v9.49c0 .91-.71 1.67-1.61 1.74l-.15 0 -4.26-.01v-13l4.25 0Zm-1.51 9.49h-1l-.11 0c-.37.04-.65.36-.65.74 0 .37.28.69.64.74l.1 0h1l.1-.01c.36-.05.64-.37.64-.75 0-.42-.34-.75-.75-.75Zm-5.51 0h-1l-.11 0c-.37.04-.65.36-.65.74 0 .37.28.69.64.74l.1 0h.99l.1-.01c.36-.05.64-.37.64-.75 0-.42-.34-.75-.75-.75Zm11.36-7.47l.06.09 .04.09 .58 1.45c.33.83.23 1.76-.25 2.51l-.11.15 -.16.2c-.24.31-.31.7-.21 1.07l.04.13 .58 1.45c.15.38-.04.82-.42.97 -.36.14-.75-.01-.94-.33l-.05-.1 -.59-1.46c-.34-.84-.24-1.77.24-2.52l.1-.16 .15-.21c.23-.32.3-.71.2-1.08l-.05-.14 -.59-1.46c-.16-.39.03-.83.41-.98 .31-.13.66-.03.87.23Zm-17.55 0l.06.09 .04.09 .58 1.45c.33.83.23 1.76-.25 2.51l-.11.15 -.16.2c-.24.31-.31.7-.21 1.07l.04.13 .58 1.45c.15.38-.04.82-.42.97 -.36.14-.75-.01-.94-.33l-.05-.1 -.59-1.46c-.34-.84-.24-1.77.24-2.52l.1-.16 .15-.21c.23-.32.3-.71.2-1.08l-.05-.14 -.59-1.46c-.16-.39.03-.83.41-.98 .31-.13.66-.03.86.23Z"/></svg>