<svg viewBox="0 0 24 24" xmlns="http://www.w3.org/2000/svg"><path fill="currentColor" d="M17.33 3.52c-.96-.96-2.51-.96-3.47 0 -.09.08-.17.18-.24.27 -.93-.17-1.91.11-2.63.82 -1.17 1.16-1.17 3.04 0 4.2l1.24 1.24 -1.13 1.12 1.68 1.68 1.12-1.13 1.24 1.24c1.16 1.16 3.04 1.16 4.2 0 .71-.72.98-1.7.82-2.63 .09-.08.19-.16.27-.24 .95-.96.95-2.51 0-3.47l-.74-.74 .64-.65c.46-.47.46-1.22 0-1.69 -.47-.47-1.22-.47-1.69 0l-.65.64 -.74-.74Zm.42 5.34c-.3.29-.77.29-1.07 0l-1.57-1.57c-.3-.3-.3-.77 0-1.07 .29-.3.76-.3 1.06 0l1.56 1.56c.29.29.29.76 0 1.06ZM4.6 11.01c1.16-1.17 3.04-1.17 4.2 0l4.17 4.17c1.16 1.16 1.16 3.04 0 4.2 -.72.71-1.7.98-2.63.82 -.08.09-.16.19-.24.27 -.96.95-2.51.95-3.47 0l-.74-.74 -.67.66c-.47.46-1.22.46-1.69 0 -.47-.47-.47-1.22 0-1.69l.66-.67 -.74-.74c-.96-.96-.96-2.51 0-3.47 .08-.09.18-.17.27-.24 -.17-.93.11-1.91.82-2.63Zm3.72 7.26c.29-.3.29-.77 0-1.07l-1.57-1.57c-.3-.3-.77-.3-1.07 0 -.3.29-.3.76 0 1.06l1.56 1.56c.29.29.76.29 1.06 0Z"/></svg>