<svg viewBox="0 0 24 24" xmlns="http://www.w3.org/2000/svg"><path fill="currentColor" d="M6 4c.55 0 1-.45 1-1 0-.56-.45-1-1-1 -.56 0-1 .44-1 1 0 .55.44 1 1 1Zm16 8c0 .55-.45 1-1 1 -.56 0-1-.45-1-1 0-.56.44-1 1-1 .55 0 1 .44 1 1ZM7 21c0 .55-.45 1-1 1 -.56 0-1-.45-1-1 0-.56.44-1 1-1 .55 0 1 .44 1 1ZM8.66 6.94c.58-2.27 2.63-3.95 5.08-3.95 2.89 0 5.25 2.35 5.25 5.25 0 1.46-.61 2.79-1.58 3.75 .97.95 1.57 2.28 1.57 3.75 0 2.89-2.36 5.25-5.25 5.25 -2.45 0-4.51-1.68-5.09-3.95 -.46.12-.93.19-1.42.19 -2.9 0-5.25-2.36-5.25-5.25 0-2.9 2.35-5.25 5.25-5.25 .48 0 .96.06 1.41.19Z"/></svg>