<svg viewBox="0 0 24 24" xmlns="http://www.w3.org/2000/svg"><path fill="currentColor" d="M10.94 2.04l0 0c.34-.04.69-.06 1.04-.06 5.52 0 10 4.47 10 10 0 5.52-4.48 10-10 10 -3.21 0-6.07-1.52-7.9-3.87l-.01-.01 0-.01c-1.32-1.7-2.11-3.83-2.11-6.14 0-5.17 3.91-9.42 8.93-9.95l.01-.01Zm1.05 1.45c-.06 0-.11 0-.16 0 .12.24.25.53.37.85 .34.92.66 2.28.09 3.48 -.53 1.11-1.43 1.4-2.1 1.57l-.09.02c-.66.16-.91.23-1.1.51 -.17.25-.15.58.06 1.24 .01.04.02.09.04.14 .08.25.17.56.22.86 .06.36.08.82-.16 1.27 -.24.44-.54.74-.91.94 -.35.18-.7.25-.96.3l-.1.01c-.52.09-.77.13-1.01.391 -.19.19-.31.55-.38 1.07 -.03.21-.05.42-.07.64l-.01.11c-.02.24-.05.52-.1.76l-.01 0c1.55 1.69 3.78 2.75 6.26 2.75 1.577 0 3.05-.43 4.31-1.18 -.1-.11-.21-.22-.32-.36 -.34-.43-.79-1.17-.64-2.04 .07-.42.29-.77.51-1.04 .22-.28.48-.53.71-.75 .05-.06.1-.1.15-.15 .17-.17.32-.31.45-.44 .17-.19.21-.27.21-.27 .06-.23-.02-.39-.11-.46 -.05-.04-.11-.07-.19-.07 -.09-.01-.22.02-.41.13 -.21.13-.52.21-.84.08 -.27-.11-.42-.32-.49-.44 -.15-.24-.23-.55-.28-.78 -.05-.18-.08-.38-.12-.56 -.02-.08-.03-.15-.05-.21 -.06-.25-.1-.43-.14-.54 0 0-.01-.02-.02-.04 -.02-.03-.04-.07-.07-.11 -.06-.09-.14-.2-.23-.32 -.04-.05-.08-.1-.11-.15 -.17-.22-.36-.47-.52-.72 -.2-.3-.42-.69-.49-1.11 -.04-.23-.04-.48.05-.74 .09-.27.26-.49.48-.65 .48-.37 1.19-1.18 1.82-1.96 .28-.36.54-.7.73-.96 -1.32-.83-2.87-1.31-4.54-1.31Z"/></svg>