<svg viewBox="0 0 24 24" xmlns="http://www.w3.org/2000/svg"><path fill="currentColor" d="M10.94 2.04l0 0c.34-.04.69-.06 1.04-.06 5.439 0 9.86 4.34 9.99 9.74 -1.17-.25-2.85-.4-5.23-.08 -.64.08-1.23.25-1.76.49 -.01-.04-.02-.08-.03-.11 -.06-.25-.1-.43-.14-.54 0 0-.01-.02-.02-.04 -.02-.03-.04-.07-.07-.11 -.06-.09-.14-.2-.23-.32 -.04-.05-.08-.1-.11-.15 -.17-.22-.36-.47-.52-.72 -.2-.3-.42-.69-.49-1.11 -.04-.23-.04-.48.05-.74 .09-.27.26-.49.48-.65 .48-.37 1.19-1.18 1.82-1.96 .28-.36.54-.7.73-.96 -1.32-.83-2.87-1.31-4.54-1.31 -.06 0-.11 0-.16 0 .12.24.25.53.37.85 .34.92.66 2.28.09 3.48 -.53 1.11-1.43 1.4-2.1 1.57l-.09.02c-.66.16-.91.23-1.1.51 -.17.25-.15.58.06 1.24 .01.04.02.09.04.14 .08.25.17.56.22.86 .06.36.08.82-.16 1.27 -.24.44-.54.74-.91.94 -.35.18-.7.25-.96.3l-.1.01c-.52.09-.77.13-1.01.391 -.19.19-.31.55-.38 1.07 -.03.21-.05.42-.07.64l-.01.11c-.02.24-.05.52-.1.76l-.01 0c1.41 1.54 3.4 2.57 5.62 2.73 -.18.5-.3 1-.34 1.47 -2.81-.28-5.28-1.71-6.92-3.82l-.01-.01 0-.01c-1.32-1.7-2.11-3.83-2.11-6.14 0-5.17 3.91-9.42 8.93-9.95l.01-.01Zm1.05 20.15c.05-.97.49-2.15 1.23-3.26 .23-.41.53-.82.88-1.22 1.06-1.22 2.6-2.28 4.49-2.76 .26-.07.43-.34.36-.61 -.07-.27-.34-.44-.61-.37 -2.11.52-3.83 1.71-5.01 3.06 -.27.3-.52.62-.73.94 -.09-.31-.15-.65-.15-1.02 0-.92.46-1.92 1.2-2.71 .75-.81 1.84-1.46 3.19-1.64 2.8-.38 4.53-.07 5.56.22 .28.07.49.31.53.6 .04.28-.09.57-.33.74 -.06.03-.15.12-.27.34 -.11.2-.22.48-.32.82 -.09.28-.18.59-.27.92l-.06.21c-.12.4-.24.84-.39 1.28 -.3.86-.71 1.78-1.4 2.48 -.72.73-1.7 1.18-3 1.18 -1.33 0-2.26-.54-2.86-1.16 -.41.73-.62 1.43-.65 1.95 -.03.41-.39.72-.8.7 -.42-.03-.73-.39-.71-.8Z"/></svg>