<svg viewBox="0 0 24 24" xmlns="http://www.w3.org/2000/svg"><path fill="currentColor" d="M16.5 23c3.03 0 5.5-2.47 5.5-5.5 0-3.04-2.47-5.5-5.5-5.5 -3.04 0-5.5 2.46-5.5 5.5 0 3.03 2.46 5.5 5.5 5.5Zm-1.15-8.36c.19.19.19.51 0 .7l-.65.64h2.04c1.79 0 3.25 1.45 3.25 3.25v.25c0 .27-.23.5-.5.5 -.28 0-.5-.23-.5-.5v-.25c0-1.25-1.01-2.25-2.25-2.25h-2.05l.64.64c.19.19.19.51 0 .7 -.2.19-.52.19-.71 0l-1.5-1.5c-.2-.2-.2-.52 0-.71l1.5-1.5c.19-.2.51-.2.7 0Zm.53-11.6c1.39-1.4 3.66-1.4 5.06-.01 1.39 1.39 1.39 3.66 0 5.06l-.9.89 -5.07-5.07 .89-.9Zm-1.96 1.95l-10 9.99c-.41.4-.7.91-.83 1.47l-1.1 4.6c-.07.25.01.51.19.7 .18.18.45.25.7.19l4.6-1.1c.55-.14 1.07-.42 1.47-.83l1.15-1.16c-.11-.46-.16-.93-.16-1.41 0-3.59 2.91-6.5 6.5-6.5 .48 0 .95.05 1.4.15l1.09-1.1 -5.07-5.07Z"/></svg>