<svg viewBox="0 0 24 24" xmlns="http://www.w3.org/2000/svg"><path fill="currentColor" d="M15.89 3.04c1.39-1.4 3.66-1.4 5.06-.01 1.39 1.39 1.39 3.66 0 5.06l-.9.89 -5.07-5.07 .89-.9Zm-1.96 1.95l-10 9.99c-.41.4-.7.91-.83 1.47L2 21.05c-.07.25.01.51.19.7 .18.18.45.25.7.19l4.6-1.1c.55-.14 1.07-.42 1.47-.83l1.15-1.16c-.11-.46-.16-.93-.16-1.41 0-3.59 2.91-6.5 6.5-6.5 .48 0 .95.05 1.4.15l1.09-1.1 -5.07-5.07Zm8.06 12.49c0 3.03-2.47 5.5-5.5 5.5 -3.04 0-5.5-2.47-5.5-5.5 0-3.04 2.46-5.5 5.5-5.5 3.03 0 5.5 2.46 5.5 5.5Zm-9.5 0c0 .83.25 1.6.69 2.24l5.55-5.56c-.65-.44-1.42-.7-2.25-.7 -2.21 0-4 1.79-4 4Zm4 4c2.2 0 4-1.8 4-4 0-.84-.26-1.61-.7-2.25l-5.56 5.55c.64.43 1.41.69 2.24.69Zm-7.5-1.45l-.54-.54 .53.53Z"/></svg>