<svg viewBox="0 0 24 24" xmlns="http://www.w3.org/2000/svg"><path fill="currentColor" d="M15.89 3.04c1.39-1.4 3.66-1.4 5.06-.01 1.39 1.39 1.39 3.66 0 5.06l-.9.89 -5.07-5.07 .89-.9Zm-1.96 1.95l-10 9.99c-.41.4-.7.91-.83 1.47L2 21.05c-.07.25.01.51.19.7 .18.18.45.25.7.19l4.6-1.1c.55-.14 1.07-.42 1.47-.83l1.15-1.16c-.11-.46-.16-.93-.16-1.41 0-3.59 2.91-6.5 6.5-6.5 .48 0 .95.05 1.4.15l1.09-1.1 -5.07-5.07Zm-.67 8.97c.31 1.09-.34 2.22-1.45 2.49l-.59.14c-.05.28-.07.58-.07.88 0 .31.02.62.07.92l.53.12c1.11.26 1.77 1.41 1.45 2.51l-.19.63c.43.38.93.69 1.48.92l.49-.52c.78-.83 2.11-.83 2.89 0l.49.52c.54-.23 1.04-.54 1.48-.92l-.2-.69c-.32-1.1.33-2.23 1.44-2.5l.58-.15c.04-.29.06-.59.06-.89 0-.32-.03-.63-.08-.93l-.54-.13c-1.12-.27-1.78-1.42-1.45-2.52l.18-.64c-.44-.39-.94-.7-1.49-.93l-.5.51c-.79.82-2.12.82-2.9-.01l-.5-.53c-.55.22-1.05.53-1.49.91l.19.68Zm3.22 5.02c-.81 0-1.45-.68-1.45-1.5 0-.83.64-1.5 1.44-1.5 .8 0 1.44.67 1.44 1.5 0 .82-.65 1.5-1.45 1.5Z"/></svg>