<svg viewBox="0 0 24 24" xmlns="http://www.w3.org/2000/svg"><path fill="currentColor" d="M2 8.5c0 3.05 2.1 5.61 4.94 6.31 .03-1.82.67-3.48 1.71-4.81 -.06-.01-.11-.01-.17-.01 -.29 0-.58.06-.84.18 -.27.12-.5.29-.69.51 -.27.31-.75.35-1.06.08 -.32-.27-.36-.75-.09-1.06 .32-.39.73-.7 1.19-.91 .45-.22.95-.33 1.46-.33 .46-.01.93.09 1.36.27 1.35-1.12 3.07-1.8 4.95-1.84 -.7-2.84-3.26-4.95-6.32-4.95 -3.59 0-6.5 2.91-6.5 6.5Zm5.5-2c0 .55-.45 1-1 1 -.56 0-1-.45-1-1 0-.56.44-1 1-1 .55 0 1 .44 1 1Zm4 0c0 .55-.45 1-1 1 -.56 0-1-.45-1-1 0-.56.44-1 1-1 .55 0 1 .44 1 1ZM22 15c0 3.86-3.14 7-7 7 -3.87 0-7-3.14-7-7 0-3.87 3.13-7 7-7 3.86 0 7 3.13 7 7Zm-8.5-1.5c0-.56-.45-1-1-1 -.56 0-1 .44-1 1 0 .55.44 1 1 1 .55 0 1-.45 1-1Zm4.47 3.21c-.27-.23-.66-.2-.89.06 -.26.3-.58.54-.94.71 -.37.16-.76.25-1.15.25 -.4 0-.79-.09-1.15-.26 -.37-.17-.69-.41-.94-.71 -.23-.27-.62-.3-.89-.07 -.27.22-.3.61-.07.88 .37.43.84.78 1.36 1.03 .52.24 1.09.36 1.67.36 .57-.01 1.14-.13 1.67-.37 .52-.25.98-.6 1.36-1.04 .22-.27.19-.66-.07-.89Zm-.48-2.22c.55 0 1-.45 1-1 0-.56-.45-1-1-1 -.56 0-1 .44-1 1 0 .55.44 1 1 1Z"/></svg>