<svg viewBox="0 0 24 24" xmlns="http://www.w3.org/2000/svg"><path fill="currentColor" d="M12 2c5.52 0 10 4.47 10 9.99 0 5.52-4.48 10-10 10 -5.53 0-10-4.48-10-10 0-5.53 4.47-10 10-10Zm0 11.49c-1.64 0-3.17.65-4.29 1.8 -.29.29-.29.77.01 1.06 .29.28.77.28 1.06-.02 .84-.86 1.98-1.36 3.21-1.36 1.22 0 2.36.49 3.21 1.34 .29.29.76.29 1.06 0 .29-.3.29-.77 0-1.07 -1.13-1.15-2.65-1.8-4.29-1.8ZM8.21 6.65l-.1-.07c-.32-.19-.73-.12-.97.18 -.24.29-.22.71.03.97l.08.07 1.25 1c-.47.18-.79.63-.79 1.16 0 .68.55 1.24 1.24 1.24 .68 0 1.24-.56 1.24-1.25 .21-.01.43-.1.58-.29 .23-.3.21-.72-.04-.98l-.09-.08 -2.5-2 -.1-.07 .09.06Zm8.61.11c-.24-.3-.65-.37-.97-.18l-.1.06 -2.5 2 -.09.07c-.25.26-.28.68-.04.97 .12.15.29.24.47.27l.1 0c0 .69.55 1.25 1.24 1.25s1.24-.56 1.24-1.25c0-.49-.28-.91-.68-1.11l-.12-.06 1.25-1.01 .08-.08c.24-.27.27-.69.03-.98Z"/></svg>