<svg viewBox="0 0 24 24" xmlns="http://www.w3.org/2000/svg"><path fill="currentColor" d="M17.5 12c3.03 0 5.5 2.46 5.5 5.5 0 3.03-2.47 5.5-5.5 5.5 -3.04 0-5.5-2.47-5.5-5.5 0-3.04 2.46-5.5 5.5-5.5ZM12 1.99c5.52 0 10 4.47 10 10 0 .26-.02.52-.04.78 -1.17-1.11-2.74-1.79-4.48-1.79 -3.22 0-5.89 2.33-6.41 5.4 -1.04-.22-1.97-.79-2.63-1.63 -.26-.33-.73-.39-1.06-.13 -.33.25-.39.72-.13 1.05 .92 1.17 2.25 1.96 3.73 2.2 .09 1.56.75 2.98 1.76 4.05 -.26.02-.52.03-.79.03 -5.53 0-10.01-4.48-10.01-10.01 0-5.53 4.47-10.01 10-10.01Zm5.5 12l-.09 0c-.21.03-.37.19-.41.4l-.01.08 -.01 2.5 -2.51 0 -.09 0c-.21.03-.37.19-.41.4l-.01.08 0 .08c.03.2.19.36.4.4l.08 0 2.5-.01 0 2.5 0 .08c.03.2.19.36.4.4l.08 0 .08-.01c.2-.04.36-.2.4-.41l0-.09 -.01-2.51 2.5 0 .08-.01c.2-.04.36-.2.4-.41l0-.09 -.01-.09c-.04-.21-.2-.37-.41-.41l-.09-.01 -2.51-.01 0-2.5 -.01-.09c-.04-.21-.2-.37-.41-.41l-.09-.01ZM9 8.74c-.69 0-1.25.55-1.25 1.24s.55 1.24 1.24 1.24c.68 0 1.24-.56 1.24-1.25s-.56-1.25-1.25-1.25Zm6 0c-.69 0-1.25.55-1.25 1.24s.55 1.24 1.24 1.24c.68 0 1.24-.56 1.24-1.25s-.56-1.25-1.25-1.25Z"/></svg>