<svg viewBox="0 0 24 24" xmlns="http://www.w3.org/2000/svg"><path fill="currentColor" d="M12 2c-.67 0-1.32.06-1.96.19 -.41.08-.68.47-.6.88 .08.4.47.67.88.59 .53-.11 1.09-.17 1.65-.17 .56 0 1.12.05 1.65.16 .4.08.8-.19.88-.6 .08-.41-.19-.81-.6-.89 -.64-.13-1.29-.2-1.96-.2ZM7.27 4.93c.34-.24.43-.7.2-1.05 -.24-.35-.7-.44-1.05-.21 -1.1.72-2.03 1.66-2.76 2.75 -.24.34-.14.81.2 1.04 .34.23.81.13 1.04-.21 .62-.93 1.41-1.73 2.34-2.35Zm10.27-1.25c-.35-.24-.81-.14-1.05.2s-.14.81.2 1.04c.92.62 1.72 1.41 2.34 2.34 .23.34.69.43 1.04.2 .34-.24.43-.7.2-1.05 -.73-1.1-1.67-2.03-2.76-2.76Zm4.253 6.36c-.09-.41-.48-.68-.89-.6 -.41.08-.68.47-.6.88 .1.53.16 1.09.16 1.65 0 .56-.06 1.12-.17 1.65 -.09.4.18.8.59.88 .4.08.8-.19.88-.6 .12-.64.19-1.29.19-1.96 0-.67-.07-1.32-.2-1.96Zm-18.15.29c.08-.41-.19-.81-.6-.89 -.41-.09-.81.18-.89.59 -.13.63-.2 1.28-.2 1.95 0 .66.06 1.31.19 1.95 .08.4.47.67.88.59 .4-.09.67-.48.59-.89 -.11-.54-.17-1.1-.17-1.66 0-.57.05-1.13.16-1.66Zm1.26 6.38c-.24-.35-.7-.44-1.05-.21 -.35.23-.44.69-.21 1.04 .72 1.09 1.66 2.02 2.75 2.75 .34.23.81.13 1.04-.21 .23-.35.13-.81-.21-1.05 -.93-.63-1.73-1.42-2.35-2.35Zm15.38.83c.23-.35.13-.81-.21-1.05 -.35-.24-.81-.14-1.05.2 -.63.92-1.42 1.72-2.35 2.34 -.35.23-.44.69-.21 1.04 .23.34.69.43 1.04.2 1.09-.73 2.02-1.67 2.75-2.76Zm-9.98 2.78c-.41-.09-.81.18-.89.59 -.09.4.18.8.59.88 .63.12 1.28.19 1.95.19 .66 0 1.31-.07 1.95-.2 .4-.09.67-.48.59-.89 -.09-.41-.48-.68-.89-.6 -.54.1-1.1.16-1.66.16 -.57 0-1.13-.06-1.66-.17Zm8.65-8.34c0 3.86-3.14 7-7 7 -3.87 0-7-3.14-7-7 0-3.87 3.13-7 7-7 3.86 0 7 3.13 7 7ZM8.21 14.14c-.32.26-.36.74-.09 1.05 .91 1.08 2.28 1.77 3.82 1.77 1.53 0 2.9-.7 3.82-1.78 .26-.32.22-.79-.09-1.06 -.32-.27-.79-.23-1.06.08 -.65.76-1.61 1.24-2.68 1.24 -1.08 0-2.04-.49-2.68-1.25 -.27-.32-.75-.36-1.06-.09Zm1.23-3.17c.55 0 1-.45 1-1 0-.56-.45-1-1-1 -.56 0-1 .44-1 1 0 .55.44 1 1 1Zm6-1c0-.56-.45-1-1-1 -.56 0-1 .44-1 1 0 .55.44 1 1 1 .55 0 1-.45 1-1Z"/></svg>