<svg viewBox="0 0 24 24" xmlns="http://www.w3.org/2000/svg"><path fill="currentColor" d="M22 12c0-5.53-4.48-10.01-10.01-10.01 -5.53 0-10.01 4.47-10.01 10 0 5.52 4.47 10 10 10 5.52 0 10-4.48 10-10.01ZM7.74 9.99c0-.69.55-1.25 1.24-1.25 .68 0 1.24.55 1.24 1.24s-.56 1.24-1.25 1.24 -1.25-.56-1.25-1.25Zm5.99 0c0-.69.55-1.25 1.24-1.25s1.24.55 1.24 1.24 -.56 1.24-1.25 1.24 -1.25-.56-1.25-1.25Zm1.99 3.99h.6c.41 0 .75.33.75.75 0 .41-.34.75-.75.75h-.6c-.62 0-1.34.16-2 .41 -.67.26-1.2.58-1.48.86 -.3.29-.77.29-1.07 0 -.3-.3-.3-.77 0-1.07 .47-.48 1.21-.9 1.98-1.2 .78-.31 1.69-.52 2.54-.52Z"/></svg>