<svg viewBox="0 0 24 24" xmlns="http://www.w3.org/2000/svg"><path fill="currentColor" d="M14.74 5.457c.41.13.8.37 1.11.68 .08.08.16.17.23.266 .19.25.35.54.45.84l.44 1.37c.03.1.1.19.19.25 .08.06.19.1.3.1 .1 0 .21-.03.3-.09 .01-.02.03-.03.05-.05 .06-.06.11-.13.15-.21l0-.01 .01-.03 .04-.16L18 8.4l.4-1.24c.12-.39.33-.74.61-1.04 0-.01 0-.01.01-.01 .02-.03.04-.05.06-.07 .18-.19.38-.34.61-.47 -.01-.01-.01-.01-.01-.01 .15-.09.32-.17.5-.23l1.37-.45c.1-.04.19-.11.26-.2 .06-.1.1-.21.1-.32 0-.12-.04-.23-.1-.32 -.07-.1-.16-.17-.27-.2l-.03-.01 -1.38-.45c-.42-.14-.8-.38-1.12-.69 -.32-.32-.55-.7-.69-1.12L17.87.19c-.04-.11-.11-.2-.2-.27 -.1-.07-.21-.1-.32-.1 -.12 0-.23.03-.32.09 -.1.06-.17.15-.2.26l-.45 1.37 -.02.03c-.14.4-.37.76-.67 1.07 -.13.12-.27.24-.42.34 -.22.14-.45.26-.69.34l-1.38.44c-.08.02-.16.07-.21.13 -.06.06-.11.13-.13.21 -.03.08-.04.16-.02.24 0 .03.01.06.02.09 .01.04.04.09.06.13 .06.09.15.16.26.19l1.37.44Zm9.04 4.75l-.77-.25c-.24-.08-.45-.21-.62-.39 -.18-.18-.31-.39-.39-.62l-.25-.77c-.03-.06-.06-.11-.12-.15 -.06-.04-.12-.06-.18-.06 -.07 0-.13.01-.18.05 -.06.03-.09.08-.12.14l-.25.76c-.08.23-.21.44-.38.61 -.18.17-.38.3-.61.38l-.1.03 -.01-.01 -.67.21c-.06.02-.12.05-.15.11 -.04.05-.06.11-.06.17 0 .06.01.12.05.17 .03.04.07.08.12.1 0 0 .01 0 .02 0l.76.24c.05.01.11.04.16.06 .16.07.32.18.45.31 .07.07.14.16.2.25 .07.11.12.23.17.35l.24.76c0 .01.01.03.02.05 .02.03.05.06.08.09 .05.03.11.05.17.05 .06 0 .12-.02.17-.06 .05-.04.08-.09.11-.15l.24-.77c.07-.24.2-.45.38-.62 .17-.18.38-.31.61-.39l.76-.25c.05-.03.11-.06.14-.12 .03-.06.05-.12.05-.18 0-.07-.02-.13-.06-.18 -.04-.06-.09-.09-.15-.12l-.02-.01ZM11.99 21.98c4.85 0 8.89-3.46 9.8-8.04 -.17.04-.34.04-.51.02 -.2-.04-.39-.11-.56-.23 -.23-.17-.4-.39-.49-.66l-.25-.77c-.03-.09-.08-.17-.14-.23 -.07-.07-.14-.11-.22-.14l-.79-.26c-.19-.07-.35-.17-.49-.31 -.14-.14-.25-.3-.31-.48 -.07-.18-.1-.38-.08-.57 .01-.2.07-.38.17-.55 -.2.09-.42.14-.64.15 -.22 0-.44-.04-.65-.13 -.21-.09-.39-.22-.54-.38 -.15-.17-.27-.36-.34-.57l-.45-1.38c-.07-.2-.17-.39-.3-.55 -.05-.07-.1-.12-.16-.18 -.21-.21-.45-.36-.72-.45l-1.4-.46c-.23-.08-.43-.21-.6-.39 -.17-.18-.3-.38-.37-.61 -.08-.23-.1-.47-.06-.71 .03-.24.12-.47.26-.66 .18-.27.45-.47.77-.58l1.36-.45c.13-.05.27-.12.39-.2 -.9-.27-1.84-.41-2.82-.41 -5.53 0-10.01 4.47-10.01 10 0 5.52 4.47 10 10 10Zm-4.6-7.35c.32-.26.79-.21 1.05.12 .84 1.07 2.14 1.71 3.53 1.71 1.39 0 2.68-.64 3.53-1.72 .25-.33.72-.39 1.05-.13 .32.25.38.72.12 1.05 -1.14 1.43-2.86 2.28-4.72 2.28 -1.87 0-3.59-.86-4.72-2.29 -.26-.33-.21-.8.12-1.06Zm.34-4.66c0-.69.55-1.25 1.24-1.25 .68 0 1.24.55 1.24 1.24 0 .68-.56 1.24-1.25 1.24s-1.25-.56-1.25-1.25Zm6 0c0-.69.55-1.25 1.24-1.25s1.24.55 1.24 1.24c0 .68-.56 1.24-1.25 1.24s-1.25-.56-1.25-1.25Z"/></svg>