<svg viewBox="0 0 24 24" xmlns="http://www.w3.org/2000/svg"><path fill="currentColor" d="M12 1.99c5.52 0 10 4.47 10 10 0 5.52-4.48 10-10.01 10 -5.53 0-10.01-4.48-10.01-10.01 0-5.53 4.47-10.01 10-10.01Zm0 11.49c-1.64 0-3.17.65-4.29 1.8 -.29.29-.29.77.01 1.06 .29.28.77.28 1.06-.02 .84-.86 1.98-1.36 3.21-1.36 1.22 0 2.36.49 3.21 1.34 .29.29.76.29 1.06 0 .29-.3.29-.77 0-1.07 -1.13-1.15-2.65-1.8-4.29-1.8ZM9 8.73c-.69 0-1.25.55-1.25 1.24s.55 1.24 1.24 1.24c.68 0 1.24-.56 1.24-1.25s-.56-1.25-1.25-1.25Zm6 0c-.69 0-1.25.55-1.25 1.24s.55 1.24 1.24 1.24c.68 0 1.24-.56 1.24-1.25s-.56-1.25-1.25-1.25Z"/></svg>