<svg viewBox="0 0 24 24" xmlns="http://www.w3.org/2000/svg"><path fill="currentColor" d="M11.99 1.99c5.27 0 9.58 4.07 9.97 9.25 -1.2-.5-2.62-.26-3.59.71l-2.64 2.63c-.09.04-.16.11-.23.18 -.06.06-.11.13-.17.19l-.39.38c-.82.71-1.87 1.13-2.99 1.13 -1.4 0-2.69-.65-3.54-1.72 -.26-.33-.73-.39-1.06-.13 -.33.25-.39.72-.13 1.05 1.13 1.43 2.85 2.29 4.71 2.29 .12 0 .24-.01.37-.02 -.41.44-.71.99-.85 1.58l-.46 1.83c-.05.18-.07.36-.07.54 -5.06-.51-9.01-4.77-9.01-9.96 0-5.53 4.47-10.01 10-10.01Zm-3 6.75c-.69 0-1.25.55-1.25 1.24 0 .68.55 1.24 1.24 1.24 .68 0 1.24-.56 1.24-1.25s-.56-1.25-1.25-1.25Zm5.99 0c-.69 0-1.25.55-1.25 1.24 0 .68.55 1.24 1.24 1.24s1.24-.56 1.24-1.25 -.56-1.25-1.25-1.25Zm4.09 3.91l-5.91 5.9c-.35.34-.59.77-.71 1.24l-.46 1.83c-.2.79.52 1.51 1.31 1.31l1.83-.46c.47-.12.9-.37 1.24-.71l5.9-5.91c.89-.9.89-2.34 0-3.24 -.9-.9-2.34-.9-3.24 0Z"/></svg>