<svg viewBox="0 0 24 24" xmlns="http://www.w3.org/2000/svg"><path fill="currentColor" d="M12 1.99c5.52 0 10 4.47 10 10 0 5.52-4.48 10-10.01 10 -5.53 0-10.01-4.48-10.01-10.01 0-5.53 4.47-10.01 10-10.01ZM8.46 14.77c-.26-.33-.73-.39-1.06-.13 -.33.25-.39.72-.13 1.05 1.13 1.43 2.85 2.28 4.71 2.28 1.86 0 3.58-.86 4.71-2.29 .25-.33.2-.8-.13-1.06s-.8-.21-1.06.12c-.85 1.07-2.14 1.71-3.54 1.71s-2.69-.65-3.54-1.72Zm.53-6.04c-.69 0-1.25.55-1.25 1.24s.55 1.24 1.24 1.24c.68 0 1.24-.56 1.24-1.25s-.56-1.25-1.25-1.25Zm5.99 0c-.69 0-1.25.55-1.25 1.24s.55 1.24 1.24 1.24 1.24-.56 1.24-1.25 -.56-1.25-1.25-1.25Z"/></svg>