<svg viewBox="0 0 24 24" xmlns="http://www.w3.org/2000/svg"><path fill="currentColor" d="M12 2c5.52 0 10 4.47 10 9.99 0 5.52-4.48 10-10 10 -5.53 0-10-4.48-10-10 0-5.53 4.47-10 10-10Zm0 10.99c-1.25 0-2.25 1-2.25 2.25 0 1.24 1 2.25 2.25 2.25 1.24 0 2.25-1.01 2.25-2.25 0-1.25-1.01-2.25-2.25-2.25ZM9 8.74c-.69 0-1.25.55-1.25 1.24 0 .68.55 1.24 1.24 1.24 .68 0 1.24-.56 1.24-1.25s-.56-1.25-1.25-1.25Zm5.99 0c-.69 0-1.25.55-1.25 1.24 0 .68.55 1.24 1.24 1.24s1.24-.56 1.24-1.25 -.56-1.25-1.25-1.25Z"/></svg>