<svg viewBox="0 0 24 24" xmlns="http://www.w3.org/2000/svg"><path fill="currentColor" d="M7.5 7.5V1.74c0-.42.33-.75.75-.75 .41 0 .75.33.75.75v5.75c0 .27.22.5.5.5 .27 0 .5-.23.5-.5V2.48c0-.42.33-.75.75-.75 .41 0 .75.33.75.75v5.75c0 .02-.01.04-.01.06 .43-.17.97-.32 1.5-.32 .49 0 .92.12 1.24.28 .15.07.3.17.42.28 .05.05.12.12.18.21 .04.06.15.23.15.47 0 .25-.14.49-.36.63l-1.91 1.19 -1.66 1.891 -1.38 1.89c-.52.71-1.35 1.13-2.23 1.13H6.3c-.94 0-1.83-.48-2.31-1.32 -.31-.53-.68-1.22-.98-1.91 -.29-.66-.57-1.42-.57-2.04v-7c0-.42.33-.75.75-.75 .41 0 .75.33.75.75v4.24c0 .27.22.5.5.5 .27 0 .5-.23.5-.5v-5.5c0-.42.33-.75.75-.75 .41 0 .75.33.75.75v5c0 .27.22.5.5.5 .27 0 .5-.23.5-.5Zm7.49 14.49c-3.21 0-5.91-2.15-6.74-5.09 .89-.2 1.7-.71 2.24-1.47l1.35-1.86 1.53-1.75 1.78-1.12c.51-.32.82-.89.82-1.49 0-.54-.24-.91-.33-1.04 -.05-.08-.1-.14-.15-.2 3.61.27 6.47 3.29 6.47 6.98 0 3.86-3.14 7-7 7Zm3-8c0-.56-.45-1-1-1 -.56 0-1 .44-1 1 0 .55.44 1 1 1 .55 0 1-.45 1-1Zm-5.87 2.71c-.3.28-.31.76-.03 1.06 .72.75 1.75 1.22 2.88 1.22s2.15-.48 2.88-1.23c.28-.3.27-.78-.03-1.07 -.3-.29-.78-.28-1.07.02 -.46.47-1.1.76-1.81.76s-1.35-.3-1.81-.77c-.29-.3-.77-.31-1.07-.03Zm1.86-2.72c0-.56-.45-1-1-1 -.56 0-1 .44-1 1 0 .55.44 1 1 1 .55 0 1-.45 1-1Z"/></svg>