<svg viewBox="0 0 24 24" xmlns="http://www.w3.org/2000/svg"><path fill="currentColor" d="M9.75 3c.41 0 .75.33.75.75V5h2V3.75c0-.42.33-.75.75-.75 .41 0 .75.33.75.75V5h2.75c.3 0 .58.18.69.47l.81 2.02h.99c1.51 0 2.75 1.23 2.75 2.75v5.5c0 1.51-1.24 2.75-2.75 2.75h-1l-.82 2.02c-.12.28-.39.47-.7.47h-7.5c-.21 0-.41-.09-.55-.24L5.7 17.56c-.48-.51-.74-1.18-.74-1.88v-3.22h-1.5v3.75c0 .41-.34.75-.75.75 -.42 0-.75-.34-.75-.75v-8.5c0-.42.33-.75.75-.75 .41 0 .75.33.75.75v3.25h1.5V7.71c0-1.52 1.23-2.75 2.75-2.75h1.25V3.71c0-.42.33-.75.75-.75Zm.75 6.75c0-.42-.34-.75-.75-.75 -.42 0-.75.33-.75.75v2.5C9 13.76 10.23 15 11.75 15h6.5c.41 0 .75-.34.75-.75 0-.42-.34-.75-.75-.75H14V9.75c0-.42-.34-.75-.75-.75 -.42 0-.75.33-.75.75v3.75h-.75c-.7 0-1.25-.56-1.25-1.25v-2.5Z"/></svg>