<svg viewBox="0 0 24 24" xmlns="http://www.w3.org/2000/svg"><g fill="currentColor"><path d="M2.21 2.21c.29-.3.76-.3 1.06 0l18.49 18.5c.29.29.29.76 0 1.06 -.3.29-.77.29-1.07 0L2.19 3.26c-.3-.3-.3-.77 0-1.07Z"/><path d="M5.41 4.47c-2.1 1.83-3.42 4.52-3.42 7.52 0 5.52 4.47 10 10 10 3 0 5.69-1.33 7.52-3.42l-3.59-3.59H7.73c-.42 0-.75-.34-.75-.75 0-.42.33-.75.75-.75h6.68l-3-3H7.72c-.42 0-.75-.34-.75-.75 0-.42.33-.75.75-.75H9.9L5.37 4.45Z"/><path d="M13.56 10.5h2.69c.41 0 .75-.34.75-.75 0-.42-.34-.75-.75-.75h-4.2L6.61 3.56c1.55-1 3.39-1.57 5.37-1.57 5.52 0 10 4.47 10 10 0 1.97-.58 3.82-1.57 5.37l-3.62-3.62c-.03-.03-.05-.05-.08-.08l-3.19-3.19Z"/></g></svg>