<svg viewBox="0 0 24 24" xmlns="http://www.w3.org/2000/svg"><path fill="currentColor" d="M12.65 2.63c.88-.88 2.31-.87 3.19.02l4.91 5c.86.87.85 2.28-.01 3.15l-2.26 2.28c-.32-.08-.65-.11-.99-.11 -2.49 0-4.5 2.01-4.5 4.5 0 .35.04.7.11 1.03l-1.79 1.8c-.88.88-2.3.89-3.18.02l-5.1-5.01c-.9-.88-.9-2.33-.01-3.21l9.59-9.51ZM4.1 13.2c-.3.29-.3.77 0 1.06l5.09 5c.29.28.76.28 1.05-.01l1.46-1.49 -6.1-6.1 -1.53 1.51Zm13.39 7.78c1.93 0 3.5-1.57 3.5-3.5 0-1.94-1.57-3.5-3.5-3.5 -1.94 0-3.5 1.56-3.5 3.5 0 1.93 1.56 3.5 3.5 3.5Z"/></svg>