<svg viewBox="0 0 24 24" xmlns="http://www.w3.org/2000/svg"><path fill="currentColor" d="M12.65 2.63c.88-.88 2.31-.87 3.19.02l4.91 5c.86.87.85 2.28-.01 3.15l-.69.69c-.79-.34-1.65-.53-2.56-.53 -3.45 0-6.27 2.683-6.49 6.07l-5.38-5.38 -1.53 1.51c-.3.29-.3.77 0 1.06l5.09 5c.29.28.76.28 1.05-.01l.8-.82c.08.57.24 1.13.47 1.65l-.22.21c-.88.88-2.3.89-3.18.02L3 15.26c-.9-.88-.9-2.33-.01-3.21l9.59-9.51Zm4.84 9.36c.62 0 1.22.1 1.78.29 2.15.74 3.71 2.79 3.71 5.2 0 3.03-2.47 5.5-5.5 5.5 -2.391 0-4.43-1.53-5.19-3.66 -.21-.58-.32-1.2-.32-1.85 0-3.04 2.46-5.5 5.5-5.5Z"/></svg>