<svg viewBox="0 0 24 24" xmlns="http://www.w3.org/2000/svg"><path fill="currentColor" d="M21.6 12c0-5.31-4.3-9.6-9.6-9.6 -5.31 0-9.6 4.29-9.6 9.59 0 5.302 4.29 9.6 9.59 9.6 .23 0 .47-.01.7-.03 -.46-.9-.71-1.91-.71-2.98 0-.64.09-1.26.25-1.84 -.09.02-.17.03-.26.03 -.5 0-.9-.41-.9-.9 0-.5.4-.9.9-.9 .34 0 .63.18.78.46 1.11-2.07 3.29-3.47 5.81-3.47 1.07 0 2.08.25 2.97.7 .01-.24.02-.47.02-.71ZM11.4 7.69c.05-.28.29-.5.59-.5 .29 0 .53.21.59.49l0 .1v5.39l-.01.1c-.06.27-.3.49-.6.49s-.54-.22-.6-.5l-.01-.11v-5.4l0-.11Zm2.55 10.21c1.3-.34 2.08-1.68 1.71-2.98l-.19-.67c.3-.24.63-.44.98-.6l.4.42c.94 1 2.54 1 3.49 0l.38-.42c.35.16.69.37 1 .62l-.16.5c-.4 1.32.4 2.7 1.74 3.02l.41.09c.02.21.03.44.03.66 0 .18-.01.37-.03.55l-.56.14c-1.31.33-2.09 1.67-1.72 2.97l.18.66c-.31.23-.64.43-.99.59l-.41-.43c-.95-1.01-2.55-1.01-3.5-.01l-.39.41c-.36-.17-.7-.38-1.01-.63l.15-.51c.39-1.33-.41-2.71-1.75-3.03l-.42-.1c-.03-.22-.04-.44-.04-.67 0-.19 0-.38.02-.56l.55-.15Zm5.83.69c0-.67-.54-1.2-1.2-1.2 -.67 0-1.2.53-1.2 1.2 0 .66.53 1.2 1.2 1.2 .66 0 1.2-.54 1.2-1.2Z"/></svg>