<svg viewBox="0 0 24 24" xmlns="http://www.w3.org/2000/svg"><path fill="currentColor" d="M11 3.75c0-.42-.34-.75-.75-.75H3.74c-.42 0-.75.33-.75.75v6.5c0 .41.33.75.75.75 .41 0 .75-.34.75-.75V5.56l5.22 5.21c.29.29.76.29 1.06-.01 .29-.3.29-.77 0-1.07L5.54 4.47h4.68c.41 0 .75-.34.75-.75Zm6.75.75c.96 0 1.75.78 1.75 1.75V12h-4.75C13.23 12 12 13.23 12 14.75v4.75H6.24c-.97 0-1.75-.79-1.75-1.75v-4c0-.42-.34-.75-.75-.75 -.42 0-.75.33-.75.75v4c0 1.79 1.45 3.25 3.25 3.25l11 0 .03-.01h.46c1.79 0 3.25-1.46 3.25-3.25V6.24c0-1.8-1.46-3.25-3.25-3.25h-4c-.42 0-.75.33-.75.75 0 .41.33.75.75.75h4Z"/></svg>