<svg viewBox="0 0 24 24" xmlns="http://www.w3.org/2000/svg"><path fill="currentColor" d="M6.25 4.5c-.97 0-1.75.78-1.75 1.75V12h4.75c1.51 0 2.75 1.23 2.75 2.75v4.75h5.75c.96 0 1.75-.79 1.75-1.75v-4c0-.42.33-.75.75-.75 .41 0 .75.33.75.75v4c0 1.79-1.46 3.25-3.25 3.25l-11 0 -.04-.01h-.47c-1.8 0-3.25-1.46-3.25-3.25V6.24c0-1.8 1.45-3.25 3.25-3.25h4c.41 0 .75.33.75.75 0 .41-.34.75-.75.75h-4ZM13 3.75c0-.42.33-.75.75-.75h6.5c.41 0 .75.33.75.75v6.5c0 .41-.34.75-.75.75 -.42 0-.75-.34-.75-.75V5.56l-5.23 5.21c-.3.29-.77.29-1.07-.01 -.3-.3-.3-.77 0-1.07l5.22-5.22h-4.69c-.42 0-.75-.34-.75-.75Z"/></svg>