<svg viewBox="0 0 24 24" xmlns="http://www.w3.org/2000/svg"><path fill="currentColor" d="M6.25 10.99c.96 0 1.75.78 1.75 1.75v2.5c0 .96-.79 1.75-1.75 1.75h-2.5c-.97 0-1.75-.79-1.75-1.75v-2.5c0-.97.78-1.75 1.75-1.75h2.5Zm7 0c.96 0 1.75.78 1.75 1.75v2.5c0 .96-.79 1.75-1.75 1.75h-2.5c-.97 0-1.75-.79-1.75-1.75v-2.5c0-.97.78-1.75 1.75-1.75h2.5Zm7 0c.96 0 1.75.78 1.75 1.75v2.5c0 .96-.79 1.75-1.75 1.75h-2.5c-.97 0-1.75-.79-1.75-1.75v-2.5c0-.97.78-1.75 1.75-1.75h2.5ZM7.96 7.71l3.5-3.5c.26-.27.67-.3.96-.08l.08.07 3.6 3.5c.29.28.3.76.01 1.06 -.27.27-.68.3-.98.08l-.09-.08 -3.08-2.99 -2.98 2.97c-.3.29-.77.29-1.07 0 -.27-.27-.3-.69-.08-.98l.07-.09 3.5-3.5 -3.51 3.5Z"/></svg>