<svg viewBox="0 0 24 24" xmlns="http://www.w3.org/2000/svg"><path fill="currentColor" d="M2.21 2.21c-.27.26-.3.68-.08.97l.07.08 4.03 4.03C4.3 8.63 2.87 10.65 2.27 13.03c-.11.4.14.8.54.9 .4.1.8-.15.9-.55 .52-2.12 1.83-3.89 3.58-5.04l1.8 1.8c-.71.72-1.15 1.71-1.15 2.8 0 2.2 1.79 4 4 4 1.09 0 2.07-.44 2.8-1.15l5.91 5.91c.29.29.76.29 1.06 0 .26-.27.29-.69.07-.98l-.08-.09 -6.12-6.12 0-.01 -6.95-6.95 0-.01L7.49 6.4 3.18 2.09c-.3-.3-.77-.3-1.07 0Zm9.78 3.28c-1.01 0-1.98.14-2.89.42l1.23 1.23c.53-.11 1.08-.17 1.65-.17 3.92 0 7.3 2.68 8.24 6.43 .1.4.5.64.9.54 .4-.11.64-.51.54-.91 -1.11-4.42-5.09-7.57-9.71-7.57Zm.19 3.5l3.8 3.8c-.11-2.06-1.75-3.71-3.81-3.81Z"/></svg>