<svg viewBox="0 0 24 24" xmlns="http://www.w3.org/2000/svg"><path fill="currentColor" d="M3.49 15.64c-.05-.37-.37-.65-.75-.65s-.7.28-.75.64l-.01.1v3.5l0 .17c.08 1.38 1.19 2.48 2.57 2.57l.16 0h3.5l.1-.01c.36-.05.64-.37.64-.75s-.29-.7-.65-.75l-.11-.01h-3.5l-.13-.01c-.59-.06-1.056-.53-1.12-1.12l-.01-.13v-3.51l-.01-.11Zm18.49 0c-.05-.37-.37-.65-.75-.65 -.42 0-.75.33-.75.75v3.5l-.01.12c-.07.63-.6 1.12-1.25 1.12h-3.5l-.11 0c-.37.04-.65.36-.65.74 0 .41.33.75.75.75h3.5l.16-.01c1.44-.09 2.58-1.29 2.58-2.75V15.7l-.01-.11Zm-13-12.9c0-.42-.34-.75-.75-.75h-3.5l-.17 0c-1.45.08-2.59 1.28-2.59 2.74v3.5l0 .1c.04.36.36.64.74.64 .41 0 .75-.34.75-.75V4.71l0-.13c.06-.64.59-1.13 1.24-1.13h3.5l.1-.01c.36-.05.64-.37.64-.75Zm10.41-.75l-.17-.01h-3.5l-.11 0c-.37.04-.65.36-.65.74 0 .37.28.69.64.74l.1 0h3.5l.12 0c.58.05 1.05.52 1.11 1.11l0 .12v3.5l0 .1c.04.36.36.64.74.64 .37 0 .69-.29.74-.65l0-.11V4.66l-.01-.18c-.09-1.39-1.2-2.49-2.58-2.58ZM8.47 13.48c0-1.94 1.56-3.5 3.5-3.5 1.93 0 3.5 1.56 3.5 3.5 0 1.93-1.57 3.5-3.5 3.5 -1.94 0-3.5-1.57-3.5-3.5Zm-2.29-1.76l-.01.02 -.01 0c-.15.38-.58.58-.97.43 -.6-.23-.44-.97-.44-.98l0-.02c0-.02.01-.03.01-.05 .01-.04.03-.1.06-.16 .05-.13.14-.31.27-.52 .24-.42.62-.98 1.18-1.53 1.12-1.13 2.92-2.22 5.65-2.22 2.72 0 4.53 1.09 5.65 2.21 .55.55.93 1.1 1.18 1.52 .12.2.21.38.27.51 .02.06.05.11.06.15 0 .01.01.03.01.04l0 .01 0 0 0 0 0 0c.14.38-.06.82-.44.96 -.39.14-.82-.06-.97-.44l-.01-.03s-.03-.06-.05-.1c-.05-.1-.11-.23-.21-.4 -.2-.34-.5-.78-.95-1.23 -.88-.88-2.33-1.79-4.6-1.79 -2.28 0-3.72.9-4.6 1.78 -.45.44-.76.89-.95 1.22 -.1.16-.17.3-.21.39 -.03.04-.04.07-.05.09Z"/></svg>