<svg viewBox="0 0 24 24" xmlns="http://www.w3.org/2000/svg"><path fill="currentColor" d="M4.38 7.05c.29-.37.62-.72.99-1.06h6.61v-1H6.65c1.38-.89 3.13-1.5 5.32-1.5 3.64 0 6.09 1.69 7.61 3.55 .75.92 1.28 1.88 1.62 2.7 .32.79.51 1.52.51 1.98 0 .45-.19 1.19-.52 1.98 -.35.82-.87 1.78-1.63 2.7 -1.53 1.85-3.98 3.55-7.62 3.55 -2.19-.01-3.94-.62-5.33-1.5h5.32v-1H5.31c-.37-.34-.71-.7-1-1.06 -.13-.15-.24-.3-.35-.45h7.95v-.75c-.01 0 0 0 0 0 1.93 0 3.5-1.57 3.5-3.5 0-1.94-1.57-3.5-3.5-3.5 -.01 0 0 0 0 0l-.01-.75H3.94c.1-.15.22-.3.34-.45Zm6.31 1.44H3.38c-.26.44-.47.86-.63 1.26 -.04.07-.07.15-.1.23h6.29c.39-.68.99-1.21 1.73-1.5Zm-2.12 2.5H2.34c-.07.29-.11.54-.11.75 0 .2.03.45.1.75h6.22c-.06-.25-.09-.5-.09-.75 0-.26.02-.51.08-.75Zm.38 2.5h-6.3c.03.07.06.15.09.23 .16.39.37.82.62 1.26h7.3c-.74-.3-1.34-.83-1.74-1.5Z"/></svg>