<svg viewBox="0 0 24 24" xmlns="http://www.w3.org/2000/svg"><path fill="currentColor" d="M3.28 2.21c-.3-.3-.77-.3-1.07-.01 -.3.29-.3.76-.01 1.06l.12.12c-.23.39-.35.85-.35 1.34v3.5l0 .1c.04.36.36.64.74.64 .41 0 .75-.34.75-.75V4.7l0-.13c0-.02 0-.04 0-.06l3.67 3.67c-.32.23-.6.47-.85.72 -.56.55-.94 1.1-1.19 1.52 -.13.2-.22.38-.28.51 -.03.06-.06.11-.07.15 -.01.01-.02.03-.02.04l-.01.01c-.01 0-.17.75.43.97 .38.14.81-.06.96-.44l0-.01 0-.03c0-.03.02-.06.04-.1 .04-.1.1-.23.2-.4 .19-.34.49-.78.94-1.23 .24-.25.52-.49.85-.71l1.49 1.49c-.77.64-1.26 1.6-1.26 2.68 0 1.93 1.56 3.5 3.5 3.5 1.07 0 2.04-.49 2.68-1.26l4.74 4.74c-.06 0-.12.01-.19.01h-3.5l-.11 0c-.37.04-.65.36-.65.74 0 .41.33.75.75.75h3.5l.16-.01c.42-.03.82-.15 1.17-.35l.12.12c.29.29.76.29 1.06 0 .29-.3.29-.77 0-1.07L3.09 2.01Zm8.16 6.04l-1.33-1.33c.57-.13 1.19-.19 1.87-.19 2.72 0 4.53 1.09 5.65 2.21 .55.55.93 1.1 1.18 1.52 .12.2.21.38.27.51 .02.06.05.11.06.15 0 .01.01.03.01.04l0 .01 0 0 0 0 0 0c.14.38-.06.82-.44.96 -.39.14-.82-.06-.97-.44l-.01-.03s-.03-.06-.05-.1c-.05-.1-.11-.23-.21-.4 -.2-.34-.5-.78-.95-1.23 -.88-.88-2.33-1.79-4.6-1.79 -.19 0-.38 0-.55.01Zm10.54 10.54l-1.5-1.5v-1.57c0-.42.33-.75.75-.75 .37 0 .69.28.74.64l0 .1v3.06ZM6.66 3.47l-1.5-1.5h3.06c.41 0 .75.33.75.75 0 .37-.29.69-.65.74l-.11 0H6.64ZM2.72 14.96c.37 0 .69.28.74.64l0 .1v3.5l0 .12c.05.58.52 1.05 1.11 1.11l.12 0h3.5l.1 0c.36.04.64.36.64.74 0 .37-.29.69-.65.74l-.11 0h-3.5l-.17-.01c-1.39-.09-2.5-1.19-2.58-2.58l-.01-.18v-3.51l0-.11c.04-.37.36-.65.74-.65Zm16.5-13l.16 0c1.38.08 2.49 1.18 2.57 2.57l0 .17v3.5l-.01.1c-.05.36-.37.64-.75.64s-.7-.29-.75-.65l-.01-.11V4.67l-.01-.13c-.06-.59-.53-1.06-1.12-1.12l-.13-.01h-3.5l-.11-.01c-.37-.05-.65-.37-.65-.75s.28-.7.64-.75l.1-.01h3.5Z"/></svg>