<svg viewBox="0 0 24 24" xmlns="http://www.w3.org/2000/svg"><path fill="currentColor" d="M8.93 10l-4.78 4.77c-.43.42-.66.99-.66 1.59v.68L2.2 19.38c-.84 1.53.84 3.21 2.37 2.37l2.34-1.29h.68c.59 0 1.16-.24 1.59-.66l4.77-4.78 6.71 6.71c.29.29.76.29 1.06 0 .29-.3.29-.77 0-1.07L3.22 2.15c-.3-.3-.77-.3-1.07-.01 -.3.29-.3.76-.01 1.06l6.72 6.72Zm3.99 4l-4.78 4.77c-.15.14-.34.21-.54.21h-.88c-.13 0-.25.03-.36.09l-2.52 1.37c-.07.03-.13.03-.16.03 -.05-.01-.1-.04-.14-.08 -.05-.05-.07-.1-.08-.14 -.01-.04-.01-.09.03-.16l1.37-2.52c.06-.12.09-.24.09-.36v-.88c0-.2.07-.39.21-.54l4.77-4.78 2.93 2.93Zm5.54-.93c-.5.49-1.21.62-1.82.41l-6.16-6.16c-.22-.62-.08-1.33.41-1.82l.58-.59c.68-.69 1.79-.69 2.47 0l.01.01 1.96-1.97c1.39-1.4 3.66-1.4 5.06 0 1.39 1.39 1.39 3.66 0 5.06L19 9.97l.01.01c.68.68.68 1.79 0 2.47l-.59.58Z"/></svg>