<svg viewBox="0 0 24 24" xmlns="http://www.w3.org/2000/svg"><path fill="currentColor" d="M21.03 2.96c-1.4-1.4-3.67-1.4-5.07 0l-1.97 1.96 -.02-.02c-.69-.69-1.8-.69-2.48 0l-.59.58c-.69.68-.69 1.79 0 2.47l.01.01 -6.79 6.78c-.43.42-.66.99-.66 1.59v.68l-1.29 2.34c-.84 1.53.84 3.21 2.37 2.37l2.34-1.29h.68c.59 0 1.16-.24 1.59-.66l6.78-6.79 .01.01c.68.68 1.79.68 2.47 0l.58-.59c.68-.69.68-1.8 0-2.48l-.02-.02 1.96-1.97c1.39-1.4 1.39-3.67 0-5.07Zm-9.04 6.09l2.93 2.93 -6.79 6.78c-.15.14-.34.21-.54.21h-.88c-.13 0-.25.03-.36.09l-2.52 1.37c-.07.03-.13.03-.16.03 -.05-.01-.1-.04-.14-.08 -.05-.05-.07-.1-.08-.14 -.01-.04-.01-.09.03-.16l1.37-2.52c.06-.12.09-.24.09-.36v-.88c0-.2.07-.39.21-.54l6.78-6.79Z"/></svg>