<svg viewBox="0 0 24 24" xmlns="http://www.w3.org/2000/svg"><path fill="currentColor" d="M13.5 4c4.69 0 8.5 3.8 8.5 8.5 0 4.69-3.81 8.5-8.5 8.5 -1.8 0-3.46-.56-4.83-1.5l-6.93-.01c-.42 0-.75-.34-.75-.75 0-.38.28-.7.64-.75l.1-.01 5.26 0c-.4-.47-.74-.97-1.03-1.51l-2.26-.01c-.42 0-.75-.34-.75-.75 0-.38.28-.7.64-.75l.1-.01 1.62 0c-.25-.8-.38-1.64-.38-2.51 0-2.1.75-4.02 2.01-5.51l-4.27 0c-.42 0-.75-.34-.75-.75 0-.38.28-.7.64-.75l.1-.01 5.92-.01c1.37-.95 3.03-1.5 4.82-1.5Zm1.15 10.71c-.35.18-.74.28-1.16.28 -.42 0-.81-.1-1.15-.28l-1.1 1.09c.63.43 1.41.68 2.24.68 .83 0 1.6-.26 2.24-.7l-1.1-1.1Zm-5.16-2.22c0 .83.25 1.61.69 2.25l1.093-1.1c-.19-.35-.29-.75-.29-1.17 0-.42.1-.81.28-1.16l-1.1-1.09c-.44.64-.7 1.41-.7 2.24Zm7.31-2.25l-1.1 1.09c.17.34.27.73.27 1.14 0 .41-.11.8-.29 1.15l1.09 1.09c.43-.65.69-1.42.69-2.25 0-.84-.26-1.61-.69-2.25Zm-3.32 1.23c-.56 0-1 .44-1 .99s.44.99.99.99 .99-.45.99-1c0-.56-.45-1-1-1Zm0-3c-.84 0-1.61.25-2.25.69l1.09 1.08c.34-.19.73-.29 1.15-.29 .42 0 .81.1 1.16.28l1.09-1.1c-.65-.44-1.42-.7-2.26-.7Z"/></svg>