<svg viewBox="0 0 24 24" xmlns="http://www.w3.org/2000/svg"><path fill="currentColor" d="M5.99 5.39c0-1 .8-1.8 1.8-1.8h8.4c.99 0 1.8.8 1.8 1.8v3h-1.2v-3c0-.34-.27-.6-.6-.6H7.78c-.34 0-.6.26-.6.6v4.2h6.59c-.38.5-.6 1.12-.6 1.8v7.2c0 .67.22 1.29.59 1.8h-8.4c-1 0-1.8-.81-1.8-1.8v-6.6c0-1.33 1.07-2.41 2.4-2.41v-4.2Zm1.5 7.35c0-.42-.34-.75-.75-.75 -.42 0-.75.33-.75.75 0 .41.33.75.75.75 .41 0 .75-.34.75-.75Zm0 2.7c0-.42-.34-.75-.75-.75 -.42 0-.75.33-.75.75 0 .41.33.75.75.75 .41 0 .75-.34.75-.75Zm1.95-.6c-.42 0-.75.33-.75.75 0 .41.33.75.75.75 .41 0 .75-.34.75-.75 0-.42-.34-.75-.76-.75Zm.75-2.1c0-.42-.34-.75-.76-.75s-.75.33-.75.75c0 .41.33.75.75.75 .41 0 .75-.34.75-.75Zm6-3.16c-1 0-1.8.8-1.8 1.8v7.2c0 .99.8 1.8 1.8 1.8h2.4c.99 0 1.8-.81 1.8-1.8v-7.2c0-1-.81-1.81-1.8-1.81h-2.4Z"/></svg>