<svg viewBox="0 0 24 24" xmlns="http://www.w3.org/2000/svg"><path fill="currentColor" d="M15 21c.94-.01 1.74-.68 1.93-1.6l.48-2.41h2.83c.96 0 1.75-.79 1.75-1.75V9.25c0-1.25-1.01-2.26-2.25-2.27v-.01h-5.25V5.22c0-1.25-1.01-2.25-2.25-2.25h-8c-1.25 0-2.25 1-2.25 2.25v12.5c0 1.79 1.45 3.25 3.25 3.25h9.73 .01Zm2.52-12.19L15.46 19.1c-.05.22-.25.39-.48.39 -.27 0-.49-.22-.49-.49V8.48h3.11c-.04.1-.07.21-.09.32ZM5.77 8.49c-.42 0-.75-.34-.75-.75 0-.42.33-.75.75-.75 .41 0 .75.33.75.75 0 .41-.34.75-.75.75Zm-.75 7.25c0-.42.33-.75.75-.75h4.99c.41 0 .75.33.75.75 0 .41-.34.75-.75.75h-5c-.42 0-.75-.34-.75-.75Zm.75-4.75h4.99c.41 0 .75.33.75.75 0 .41-.34.75-.75.75h-5c-.42 0-.75-.34-.75-.75 0-.42.33-.75.75-.75Z"/></svg>