<svg viewBox="0 0 24 24" xmlns="http://www.w3.org/2000/svg"><path fill="currentColor" d="M2 5.25C2 3.45 3.45 2 5.25 2h9.5C16.54 2 18 3.45 18 5.25V8h-5.75C9.9 8 8 9.9 8 12.25V16H5.25C3.45 16 2 14.54 2 12.75v-7.5ZM4.75 4c-.42 0-.75.33-.75.75v.5c0 .41.33.75.75.75 .41 0 .75-.34.75-.75v-.5c0-.42-.34-.75-.75-.75Zm.75 4.75c0-.42-.34-.75-.75-.75 -.42 0-.75.33-.75.75v.5c0 .41.33.75.75.75 .41 0 .75-.34.75-.75v-.5ZM15.25 4c-.42 0-.75.33-.75.75v.5c0 .41.33.75.75.75 .41 0 .75-.34.75-.75v-.5c0-.42-.34-.75-.75-.75ZM5.5 12.75c0-.42-.34-.75-.75-.75 -.42 0-.75.33-.75.75v.5c0 .41.33.75.75.75 .41 0 .75-.34.75-.75v-.5Zm3.5-.5C9 10.45 10.45 9 12.25 9h6.5C20.54 9 22 10.45 22 12.25v6.5c0 .6-.17 1.17-.46 1.66l-4.49-4.31c-.87-.81-2.21-.81-3.08 0l-4.51 4.34c-.31-.5-.48-1.08-.48-1.71v-6.5Zm8.75 2.25c.69 0 1.25-.56 1.25-1.25 0-.7-.56-1.25-1.25-1.25 -.7 0-1.25.55-1.25 1.25 0 .69.55 1.25 1.25 1.25Zm-5.5 7.5c-.63 0-1.22-.18-1.72-.49l4.46-4.32c.28-.27.73-.27 1.02 0l4.46 4.28c-.51.32-1.11.5-1.75.5h-6.5Z"/></svg>