<svg viewBox="0 0 24 24" xmlns="http://www.w3.org/2000/svg"><path fill="currentColor" d="M12.75 2.75c0-.42-.34-.75-.75-.75 -.42 0-.75.33-.75.75v18.5c0 .41.33.75.75.75 .41 0 .75-.34.75-.75V2.75ZM2 7.25C2 5.45 3.45 4 5.25 4h5v16h-5C3.45 20 2 18.54 2 16.75v-9.5ZM4.75 7c-.42 0-.75.33-.75.75v.5c0 .41.33.75.75.75 .41 0 .75-.34.75-.75v-.5c0-.42-.34-.75-.75-.75ZM4 15.75v.5c0 .41.33.75.75.75 .41 0 .75-.34.75-.75v-.5c0-.42-.34-.75-.75-.75 -.42 0-.75.33-.75.75ZM4.75 11c-.42 0-.75.33-.75.75v.5c0 .41.33.75.75.75 .41 0 .75-.34.75-.75v-.5c0-.42-.34-.75-.75-.75Zm9 9V4h5C20.54 4 22 5.45 22 7.25v9.5c0 1.79-1.46 3.25-3.25 3.25h-5ZM18.5 7.75v.5c0 .41.33.75.75.75 .41 0 .75-.34.75-.75v-.5c0-.42-.34-.75-.75-.75 -.42 0-.75.33-.75.75Zm.75 7.25c-.42 0-.75.33-.75.75v.5c0 .41.33.75.75.75 .41 0 .75-.34.75-.75v-.5c0-.42-.34-.75-.75-.75Zm-.75-3.25v.5c0 .41.33.75.75.75 .41 0 .75-.34.75-.75v-.5c0-.42-.34-.75-.75-.75 -.42 0-.75.33-.75.75Z"/></svg>