<svg viewBox="0 0 24 24" xmlns="http://www.w3.org/2000/svg"><path fill="currentColor" d="M5.25 4C3.45 4 2 5.45 2 7.25v9.5C2 18.54 3.45 20 5.25 20h13.5c1.79 0 3.25-1.46 3.25-3.25v-9.5C22 5.45 20.54 4 18.75 4H5.25Zm14 3c.41 0 .75.33.75.75v.5c0 .41-.34.75-.75.75 -.42 0-.75-.34-.75-.75v-.5c0-.42.33-.75.75-.75Zm-.75 8.75c0-.42.33-.75.75-.75 .41 0 .75.33.75.75v.5c0 .41-.34.75-.75.75 -.42 0-.75-.34-.75-.75v-.5Zm.75-4.75c.41 0 .75.33.75.75v.5c0 .41-.34.75-.75.75 -.42 0-.75-.34-.75-.75v-.5c0-.42.33-.75.75-.75ZM4 7.75c0-.42.33-.75.75-.75 .41 0 .75.33.75.75v.5c0 .41-.34.75-.75.75C4.33 9 4 8.66 4 8.25v-.5ZM4.75 15c.41 0 .75.33.75.75v.5c0 .41-.34.75-.75.75 -.42 0-.75-.34-.75-.75v-.5c0-.42.33-.75.75-.75ZM4 11.75c0-.42.33-.75.75-.75 .41 0 .75.33.75.75v.5c0 .41-.34.75-.75.75 -.42 0-.75-.34-.75-.75v-.5Zm6-2c0-.58.57-.94 1.03-.65l3.67 2.34c.38.24.38.85 0 1.1l-3.68 2.343c-.46.29-1.04-.07-1.04-.65v-4.5Z"/></svg>