<svg viewBox="0 0 24 24" xmlns="http://www.w3.org/2000/svg"><path fill="currentColor" d="M12 7.5c0 3.03 2.46 5.5 5.5 5.5 3.03 0 5.5-2.47 5.5-5.5C23 4.46 20.53 2 17.5 2 14.46 2 12 4.46 12 7.5ZM20.5 4c.27 0 .5.22.5.5v2c0 .27-.23.5-.5.5h-2c-.28 0-.5-.23-.5-.5 0-.28.22-.5.5-.5h1c-.46-.61-1.19-1-2.01-1 -.84 0-1.58.4-2.03 1.03 -.17.22-.48.27-.7.11 -.23-.17-.28-.48-.12-.7 .63-.88 1.66-1.45 2.83-1.45 .97 0 1.86.4 2.5 1.05v-.56c0-.28.22-.5.5-.5ZM15 9.94v.55c0 .27-.23.5-.5.5 -.28 0-.5-.23-.5-.5v-2c0-.28.22-.5.5-.5h2c.27 0 .5.22.5.5 0 .27-.23.5-.5.5h-1.01c.45.6 1.18 1 2 1 .76 0 1.45-.35 1.91-.89 .17-.22.49-.24.7-.06 .21.17.23.49.05.7 -.65.75-1.61 1.24-2.68 1.24 -.98 0-1.87-.41-2.5-1.06Zm-7 3.05h6.03c-.81-.52-1.5-1.2-2.02-2H7.98l-.12 0c-.5.05-.89.48-.89.99 0 .55.44 1 1 1Zm-3-7h6.17c-.12.48-.18.98-.18 1.5 0 .16 0 .33.01.5H4.98c-.56 0-1-.45-1-1 0-.52.38-.94.88-1l.11-.01Zm4.88 10l.11-.01h4c.55 0 1 .44 1 1 0 .51-.39.93-.89.99l-.12 0h-4c-.56 0-1-.45-1-1 0-.52.38-.94.88-1Z"/></svg>