<svg viewBox="0 0 24 24" xmlns="http://www.w3.org/2000/svg"><g fill="currentColor"><path d="M11.01 6H4.99l-.12 0c-.5.05-.89.48-.89.99 0 .55.44 1 1 1h6.17c-.12-.49-.18-.99-.18-1.5 0-.17 0-.34.01-.5Z"/><path d="M16.41 12.9c-1.41-.24-2.66-.93-3.61-1.91H7.99l-.12 0c-.5.05-.89.48-.89.99 0 .55.44 1 1 1h8l.11-.01c.1-.02.2-.05.29-.09Z"/><path d="M14 16h-4l-.12 0c-.5.05-.89.48-.89.99 0 .55.44 1 1 1h4l.11-.01c.49-.06.88-.49.88-1 0-.56-.45-1-1-1Z"/><path fill="currentColor" fill-rule="evenodd" d="M17.5 1C20.53 1 23 3.46 23 6.5c0 3.03-2.47 5.5-5.5 5.5 -3.04 0-5.5-2.47-5.5-5.5C12 3.46 14.46 1 17.5 1Zm.5 8.5l-.01-2.51h2.49c.27 0 .49-.23.49-.5 0-.28-.23-.5-.5-.5h-2.5l-.01-2.51c0-.28-.23-.5-.5-.5 -.28 0-.5.22-.5.5l0 2.5h-2.51c-.28 0-.5.22-.5.5 0 .27.22.5.49.5h2.5l0 2.5c0 .27.22.49.5.49 .27 0 .5-.23.5-.5Z"/></g></svg>