<svg viewBox="0 0 24 24" xmlns="http://www.w3.org/2000/svg"><g fill="currentColor"><path d="M23 7.5c0 3.03-2.47 5.5-5.5 5.5 -3.04 0-5.5-2.47-5.5-5.5C12 4.46 14.46 2 17.5 2 20.53 2 23 4.46 23 7.5Zm-7.15-2.36c-.2-.2-.52-.2-.71 0 -.2.19-.2.51 0 .7l1.64 1.64 -1.65 1.64c-.2.19-.2.51 0 .7 .19.19.51.19.7 0l1.64-1.65 1.64 1.64c.19.19.51.19.7 0 .19-.2.19-.52 0-.71l-1.65-1.65L19.8 5.8c.19-.2.19-.52 0-.71 -.2-.2-.52-.2-.71 0l-1.65 1.64 -1.65-1.65Z"/><path d="M8 11h4.02c.51.8 1.2 1.48 2.01 2H7.99c-.56 0-1-.45-1-1 0-.52.38-.94.88-1l.11-.01Z"/><path d="M5 6h6.17c-.12.48-.18.98-.18 1.5 0 .16 0 .33.01.5H4.98c-.56 0-1-.45-1-1 0-.52.38-.94.88-1l.11-.01Z"/><path d="M9.88 16l.11-.01h4c.55 0 1 .44 1 1 0 .51-.39.93-.89.99l-.12 0h-4c-.56 0-1-.45-1-1 0-.52.38-.94.88-1Z"/></g></svg>