<svg viewBox="0 0 24 24" xmlns="http://www.w3.org/2000/svg"><path fill="currentColor" d="M14.97 11.97c.59.6.93 1.33 1.16 2.32l.11.52 .09.5c.12.66.19.97.3 1.21 .28.63.79 1.29 1.53 1.96 .4.37.43.99.06 1.4 -.38.4-1.01.43-1.42.06 -.94-.85-1.61-1.72-2.02-2.63 -.16-.36-.26-.68-.37-1.22l-.19-.99 -.04-.17c-.18-.81-.38-1.3-.71-1.63 -.6-.61-2.06-.44-2.41.11 -.53.81-.66 2.24-.24 3.68 .34 1.15.79 2.28 1.35 3.4 .24.49.04 1.08-.45 1.33 -.5.24-1.1.04-1.35-.45 -.62-1.23-1.12-2.47-1.49-3.74 -.59-1.97-.39-3.98.46-5.31 1.03-1.64 4.01-1.98 5.52-.45Zm-2.51 2.12c.55-.02 1.01.41 1.03.96 .04 1.49.53 2.94 1.39 4.16l.19.25 .3.39c.33.43.25 1.06-.19 1.4 -.41.31-.98.26-1.32-.09l-.09-.1 -.31-.39c-1.24-1.61-1.94-3.56-2.01-5.58 -.02-.56.41-1.02.96-1.04Zm-3.9-4.92c2.2-1.63 5.07-1.55 7.01-.3 .96.61 1.69 1.34 2.18 2.17 .27.47.11 1.08-.36 1.36 -.48.27-1.09.11-1.37-.36 -.33-.55-.83-1.05-1.54-1.51 -1.28-.83-3.26-.89-4.75.21 -1.56 1.15-2.23 3.14-2.03 5.25 .11 1.19.47 2.4 1.08 3.63 .24.49.04 1.09-.45 1.34 -.5.24-1.1.04-1.35-.45 -.73-1.45-1.16-2.9-1.3-4.35 -.26-2.75.63-5.43 2.82-7.06Zm10.57 5.15c.02.56.16 1.01.4 1.36 .22.33.39.49.48.52 .52.15.82.718.66 1.24 -.16.52-.718.82-1.25.66 -.62-.19-1.13-.65-1.58-1.34 -.45-.67-.69-1.47-.73-2.37 -.03-.56.39-1.03.94-1.06 .55-.03 1.02.39 1.05.94Zm-8.69-8.4c.22.5 0 1.09-.51 1.32 -1.8.8-3.11 1.95-3.97 3.44 -1.09 1.87-1.38 4.07-1.14 5.92 .07.54-.32 1.04-.87 1.12 -.55.07-1.05-.32-1.13-.87 -.3-2.26.05-4.89 1.38-7.19 1.07-1.87 2.71-3.3 4.88-4.27 .5-.23 1.09-.01 1.32.5Zm2.46-1.04c1.89.03 3.77.9 5.61 2.54 1.86 1.66 2.99 3.92 3.37 6.73 .07.54-.31 1.05-.86 1.12 -.55.07-1.06-.31-1.13-.86 -.32-2.36-1.23-4.18-2.73-5.51 -1.52-1.36-2.96-2.02-4.34-2.05 -.56-.02-1-.47-.98-1.03 .01-.56.46-1 1.02-.98Zm-7.32.23c.36.41.33 1.04-.09 1.41 -.27.23-.54.51-.83.83 -.27.29-.54.68-.82 1.17 -.28.47-.89.64-1.37.36 -.48-.28-.65-.89-.37-1.37 .34-.6.69-1.1 1.05-1.5 .33-.39.66-.72.98-1.01 .41-.37 1.04-.34 1.41.08Zm6.88-3.14c2.24.1 4.32.59 5.86 1.78 .43.33.51.96.18 1.4 -.34.43-.97.51-1.41.18 -1.21-.93-2.89-1.29-4.74-1.38 -1.86-.09-3.37.24-4.56.97 -.48.28-1.09.14-1.38-.33 -.29-.48-.15-1.09.32-1.38 1.55-.96 3.45-1.37 5.69-1.27Z"/></svg>