<svg viewBox="0 0 24 24" xmlns="http://www.w3.org/2000/svg"><path fill="currentColor" d="M12 2c-4.98 0-9 4.02-9 9v6.25c0 .41.33.75.75.75h16.5c.41 0 .75-.34.75-.75V11c0-4.98-4.03-9-9-9Zm-7.5 9c0-4.15 3.35-7.5 7.5-7.5 4.14 0 7.5 3.35 7.5 7.5v5.5h-4.31c.81-.78 1.3-1.85 1.3-3.02 0-1.73-.88-2.79-1.6-3.66l-.08-.1c-.74-.9-1.33-1.66-1.33-3 0-.24-.11-.46-.3-.6 -.19-.15-.43-.19-.66-.13 -.95.25-1.48.87-1.75 1.55 -.23.56-.29 1.2-.33 1.65 -.01.04-.01.08-.02.13 -.03.21-.04.37-.07.49 -.12-.05-.29-.12-.54-.26 -.29-.17-.65-.13-.89.09l-.01 0 -.01 0 -.01 0 -.01 0 -.02.01c-.02.01-.04.03-.06.05 -.05.04-.11.11-.18.19 -.15.16-.33.41-.51.73 -.37.63-.73 1.57-.73 2.77 0 1.18.48 2.24 1.29 3.01h-4.3v-5.5Zm-1.75 8.5c-.42 0-.75.33-.75.75 0 .41.33.75.75.75h18.5c.41 0 .75-.34.75-.75 0-.42-.34-.75-.75-.75H2.75Z"/></svg>