<svg viewBox="0 0 24 24" xmlns="http://www.w3.org/2000/svg"><path fill="currentColor" d="M6.15 9.32l-.01 0 -.01 0 -.02 0c-.01 0-.02.01-.04.02 -.03.01-.06.04-.1.07 -.08.06-.19.16-.31.29 -.25.25-.55.62-.84 1.13 -.59 1.01-1.08 2.52-.8 4.55 .27 1.99 1.1 3.66 2.52 4.82 1.41 1.15 3.32 1.75 5.64 1.75 2.38 0 4.29-.9 5.55-2.44 1.25-1.53 1.8-3.6 1.67-5.87 -.13-2.18-1.32-3.83-2.36-5.29 -.11-.15-.21-.28-.3-.42 -1.15-1.62-2.05-3.1-1.83-5.18 .02-.22-.05-.43-.19-.59 -.15-.16-.35-.25-.56-.25 -.39 0-.82.11-1.25.29 -.44.18-.91.45-1.38.8 -.93.69-1.85 1.74-2.35 3.15 -.5 1.4-.25 2.73.11 3.71 .23.63-.03 1.26-.41 1.45 -.35.16-.76.02-.93-.31l-.81-1.54c-.11-.2-.29-.34-.5-.39 -.22-.05-.44-.01-.62.13Z"/></svg>