<svg viewBox="0 0 24 24" xmlns="http://www.w3.org/2000/svg"><path fill="currentColor" d="M3.75 4c.41 0 .75.3.75.68v1.31h6.75V4.67c0-.38.33-.69.75-.69 .41 0 .75.3.75.68v1.31h6.75V4.65c0-.38.33-.69.75-.69 .41 0 .75.3.75.68v4.12c0 .37-.34.68-.75.68 -.42 0-.75-.31-.75-.69V7.43h-6.75v1.31c0 .37-.34.68-.75.68 -.42 0-.75-.31-.75-.69V7.41H4.5v1.31c0 .37-.34.68-.75.68 -.42 0-.75-.31-.75-.69V4.58c0-.38.33-.69.75-.69Zm2 7C4.23 11 3 12.23 3 13.75v4c0 1.51 1.23 2.75 2.75 2.75h5.5V11h-5.5Zm12.5 9.5h-5.5V11h5.5c1.51 0 2.75 1.23 2.75 2.75v4c0 1.51-1.24 2.75-2.75 2.75Z"/></svg>