<svg viewBox="0 0 24 24" xmlns="http://www.w3.org/2000/svg"><g fill="currentColor"><path d="M3 3.74c0-.42.33-.75.75-.75h16.5c.61 0 .97.7.6 1.2l-4.17 5.55 .93 1.25c-.05-.01-.09-.01-.13-.01 -3.25 0-5.95 2.38-6.43 5.5l-6.58-.01v4.74c0 .37-.29.69-.65.74l-.11 0c-.38 0-.7-.29-.75-.65l-.01-.11V3.68Z"/><path d="M17.5 12c3.03 0 5.5 2.46 5.5 5.5 0 3.03-2.47 5.5-5.5 5.5 -3.04 0-5.5-2.47-5.5-5.5 0-3.04 2.46-5.5 5.5-5.5Zm2 5.5h-2v-2.51c0-.28-.23-.5-.5-.5 -.28 0-.5.22-.5.5v2.99 0c0 .27.22.5.5.5h2.5c.27 0 .5-.23.5-.5 0-.28-.23-.5-.5-.5Z"/></g></svg>