<svg viewBox="0 0 24 24" xmlns="http://www.w3.org/2000/svg"><path fill="currentColor" d="M16.75 1.25c.41 0 .75.33.75.75v1c0 .41-.34.75-.75.75 -.42 0-.75-.34-.75-.75V2c0-.42.33-.75.75-.75Zm3.71 1.21c.29-.3.76-.3 1.06 0 .29.29.29.76 0 1.06l-2 2c-.3.29-.77.29-1.07 0 -.3-.3-.3-.77 0-1.07l2-2ZM8.24 6.3v2.87l6.56 6.56h2.87L8.23 6.29Zm10.81 8.68l1.4-1.41c.87-.88.87-2.31 0-3.19L13.57 3.5c-.88-.88-2.31-.88-3.19 0L8.97 4.9l10.06 10.06Zm-6.07 1.06l-5.07-5.07L3 15.87c-.88.87-.88 2.3 0 3.18l1.87 1.87c.87.87 2.3.87 3.18 0l4.9-4.91Zm-3.47-1.6c.29.29.29.76 0 1.06L8.01 17c-.3.29-.77.29-1.07 0 -.3-.3-.3-.77 0-1.07l1.5-1.5c.29-.3.76-.3 1.06 0Zm12.46-6.47h-1c-.42 0-.75-.34-.75-.75 0-.42.33-.75.75-.75h1c.41 0 .75.33.75.75 0 .41-.34.75-.75.75Z"/></svg>