<svg viewBox="0 0 24 24" xmlns="http://www.w3.org/2000/svg"><path fill="currentColor" d="M7.42 2.83c.17-.5.64-.84 1.17-.84h6.45c.85 0 1.45.83 1.18 1.64l-1.46 4.35h3.95c1.1 0 1.66 1.32.89 2.11l-.96.98c-.39-.08-.79-.11-1.19-.11 -3.59 0-6.5 2.91-6.5 6.5 0 .47.05.94.14 1.38l-2.57 2.64c-1.06 1.08-2.88.1-2.55-1.38l1.26-5.67 -1.57-.01c-1.21-.01-2.05-1.21-1.65-2.34l3.32-9.33Zm6.85 11.14c.31 1.09-.34 2.22-1.45 2.49l-.59.14c-.05.28-.07.58-.07.88 0 .31.02.62.07.92l.53.12c1.11.26 1.77 1.41 1.45 2.51l-.19.63c.43.38.93.69 1.48.92l.49-.52c.78-.83 2.11-.83 2.89 0l.49.52c.54-.23 1.04-.54 1.48-.92l-.2-.69c-.32-1.1.33-2.23 1.44-2.5l.58-.15c.04-.29.06-.59.06-.89 0-.32-.03-.63-.08-.93l-.54-.13c-1.12-.27-1.78-1.42-1.45-2.52l.18-.64c-.44-.39-.94-.7-1.49-.93l-.5.51c-.79.82-2.12.82-2.9-.01l-.5-.53c-.55.22-1.05.53-1.49.91l.19.68Zm3.22 5.02c-.81 0-1.45-.68-1.45-1.5 0-.83.64-1.5 1.44-1.5 .8 0 1.44.67 1.44 1.5 0 .82-.65 1.5-1.45 1.5Z"/></svg>