<svg viewBox="0 0 24 24" xmlns="http://www.w3.org/2000/svg"><path fill="currentColor" d="M8.65 2.4c-.57 0-1.07.37-1.23.92l-2.7 9.44c-.24.81.37 1.62 1.22 1.62h1.52l-1.41 5.61c-.32 1.26 1.24 2.13 2.15 1.19l2.66-2.72c-.06-.36-.09-.72-.09-1.09 0-3.65 2.95-6.6 6.6-6.6 .32 0 .64.02.95.06l.28-.3 0-.01c.76-.81.21-2.18-.92-2.18H14.6l1.51-4.32 0-.01c.27-.83-.34-1.68-1.21-1.68H8.6Zm11.74 19.48c-.89.59-1.94.91-3 .91 -1.44 0-2.81-.57-3.82-1.59 -1.02-1.02-1.59-2.39-1.59-3.82 0-1.07.31-2.112.91-3.01 .59-.89 1.43-1.59 2.42-1.99 .98-.41 2.07-.52 3.11-.31 1.04.2 2 .72 2.76 1.47 .75.75 1.26 1.71 1.47 2.76 .2 1.04.1 2.13-.31 3.12 -.41.98-1.11 1.83-1.99 2.42Zm-2.58-7.32c-.12-.12-.27-.18-.43-.18 -.16 0-.32.06-.43.17 -.12.11-.18.26-.18.42v1.8h-1.8c-.16 0-.32.06-.43.17 -.12.11-.18.26-.18.42 0 .15.06.31.17.42 .11.11.26.17.42.17h1.8v1.8c0 .15.06.31.17.42 .11.11.26.17.42.17 .15 0 .31-.07.42-.18 .11-.12.17-.27.17-.43v-1.8h1.8c.15 0 .31-.07.42-.18 .11-.12.17-.27.17-.43 0-.16-.07-.32-.18-.43 -.12-.12-.27-.18-.43-.18h-1.8v-1.8c0-.16-.07-.32-.18-.43Z"/></svg>