<svg viewBox="0 0 24 24" xmlns="http://www.w3.org/2000/svg"><path fill="currentColor" d="M7.42 2.83l-3.33 9.32c-.41 1.13.43 2.33 1.64 2.33l1.56 0 -1.27 5.66c-.34 1.47 1.48 2.45 2.54 1.37l5.02-5.183c-.06-.23-.12-.48-.19-.75 -.13-.52-.26-1.01-.37-1.39 -.69.77-1.7 1.26-2.82 1.26 -2.08 0-3.75-1.68-3.75-3.75 0-2.08 1.67-3.75 3.75-3.75 1.55 0 2.88.94 3.45 2.28 .42.06.86.21 1.28.51 .55.39.93.96 1.15 1.6 .1.25.21.61.32 1l3.18-3.29c.76-.8.2-2.12-.9-2.12h-3.96l1.45-4.36c.26-.81-.34-1.65-1.19-1.65H8.52c-.53 0-1.01.33-1.18.83Zm4.07 8.91c0-.7-.56-1.25-1.25-1.25 -.7 0-1.25.55-1.25 1.25 0 .69.55 1.25 1.25 1.25 .69 0 1.25-.56 1.25-1.25Zm1.31 1c-.4 1.02-1.4 1.75-2.57 1.75 -1.52 0-2.75-1.24-2.75-2.75 0-1.52 1.23-2.75 2.75-2.75 1.34 0 2.46.96 2.7 2.25h.29c.37 0 .78.09 1.15.35 .36.26.63.64.79 1.13 .18.48.44 1.45.64 2.26 .1.42.19.81.26 1.1 .03.14.06.26.08.34l.02.09c.08.23.18.33.24.37 .06.04.15.07.28.07h.76c.12-1.41 1.3-2.5 2.73-2.5 1.51 0 2.75 1.23 2.75 2.75 0 1.51-1.24 2.75-2.75 2.75 -1.07 0-2-.61-2.46-1.5h-1.05c-.38 0-.79-.1-1.16-.36 -.38-.27-.65-.66-.81-1.16 -.01-.03-.02-.05-.02-.08l-.01-.04 -.03-.1c-.02-.09-.05-.2-.08-.34 -.07-.29-.17-.68-.27-1.09 -.22-.86-.46-1.74-.6-2.1 -.01-.02-.02-.03-.02-.05 -.09-.26-.19-.37-.26-.41 -.07-.05-.16-.08-.29-.08h-.44Zm7.43 5.75c.69 0 1.25-.56 1.25-1.25 0-.7-.56-1.25-1.25-1.25 -.7 0-1.25.55-1.25 1.25 0 .69.55 1.25 1.25 1.25Z"/></svg>