<svg viewBox="0 0 24 24" xmlns="http://www.w3.org/2000/svg"><path fill="currentColor" d="M8.65 2.4c-.57 0-1.07.37-1.23.92l-2.7 9.44c-.24.81.37 1.62 1.22 1.62h1.52l-1.41 5.61c-.32 1.26 1.24 2.13 2.15 1.19l2.66-2.72c-.06-.36-.09-.72-.09-1.09 0-3.65 2.95-6.6 6.6-6.6 .32 0 .64.02.95.06l.28-.3 0-.01c.76-.81.21-2.18-.92-2.18H14.6l1.51-4.32 0-.01c.27-.83-.34-1.68-1.21-1.68H8.6Zm14.14 14.99c0 2.98-2.42 5.4-5.4 5.4 -2.99 0-5.4-2.42-5.4-5.4 0-2.99 2.41-5.4 5.4-5.4 2.98 0 5.4 2.41 5.4 5.4Zm-2.75-.53l-3.57-1.99c-.4-.23-.9.06-.9.52v3.96c0 .45.49.74.89.52l3.56-1.99c.41-.23.41-.83 0-1.05Z"/></svg>