<svg viewBox="0 0 24 24" xmlns="http://www.w3.org/2000/svg"><path fill="currentColor" d="M7.42 2.83c.17-.5.64-.84 1.17-.84h6.45c.85 0 1.45.83 1.18 1.64l-1.46 4.35h3.95c1.1 0 1.66 1.32.89 2.11l-.96.98c-.39-.08-.79-.11-1.19-.11 -3.59 0-6.5 2.91-6.5 6.5 0 .47.05.94.14 1.38l-2.57 2.64c-1.06 1.08-2.88.1-2.55-1.38l1.26-5.67 -1.57-.01c-1.21-.01-2.05-1.21-1.65-2.34l3.32-9.33Zm15.57 14.66c0-3.04-2.47-5.5-5.5-5.5 -3.04 0-5.5 2.46-5.5 5.5 0 3.03 2.46 5.5 5.5 5.5 3.03 0 5.5-2.47 5.5-5.5Zm-2.15-2.36c.19.19.19.51 0 .7l-4 4c-.2.19-.52.19-.71 0l-2-2c-.2-.2-.2-.52 0-.71 .19-.2.51-.2.7 0l1.64 1.64 3.64-3.65c.19-.2.51-.2.7 0Z"/></svg>