<svg viewBox="0 0 24 24" xmlns="http://www.w3.org/2000/svg"><path fill="currentColor" d="M8.6 2c-.53 0-1.01.33-1.18.83l-3.33 9.32c-.41 1.13.43 2.33 1.64 2.33l1.56 0 -1.27 5.66c-.34 1.47 1.48 2.45 2.54 1.37l3.95-4.09c-.04-.02-.08-.04-.12-.05L11 16.92l-.02-.01c-.31-.11-.57-.31-.75-.57 -.19-.27-.29-.58-.29-.9 0-.32.09-.64.28-.9 .18-.27.44-.46.74-.57l.01-.01 1.38-.45c.26-.1.5-.25.7-.45 .19-.2.33-.44.42-.7l0-.03 .45-1.39 0-.02c.1-.31.3-.57.56-.75 .26-.19.57-.29.89-.29 .31 0 .63.09.89.28 .26.18.45.44.56.74l0 .01 .45 1.38 0 .02 2.25-2.33c.76-.8.2-2.12-.9-2.12h-3.96l1.45-4.36c.26-.81-.34-1.65-1.19-1.65H8.46Zm5.25 15.14c.08.08.16.17.23.26 .19.25.34.54.45.84l.44 1.37c.03.1.1.19.19.26 .09.06.2.09.31.09 .11 0 .22-.04.31-.1 .08-.06.14-.14.18-.23 0-.02 0-.03.01-.04l.44-1.38c.13-.42.37-.8.68-1.12 .31-.32.69-.55 1.11-.69l1.37-.45c.1-.04.19-.11.26-.2 .06-.1.1-.21.1-.32 0-.12-.04-.23-.1-.32 -.07-.1-.16-.17-.27-.2l-.03-.01 -1.38-.45c-.42-.14-.8-.38-1.12-.69 -.32-.32-.55-.7-.69-1.12l-.45-1.38c-.04-.11-.11-.2-.2-.27 -.1-.07-.21-.1-.32-.1 -.12 0-.23.03-.32.09 -.1.06-.17.15-.2.26l-.45 1.37 -.02.03c-.14.4-.37.76-.67 1.07 -.31.31-.69.54-1.1.69l-1.38.44c-.11.03-.2.1-.27.19s-.1.2-.1.31c0 .11.03.22.1.31 .06.09.15.16.26.19l1.37.44c.41.13.8.37 1.11.68Zm7.92 4.06l-.77-.25c-.24-.08-.45-.21-.62-.39 -.18-.18-.31-.39-.39-.62l-.25-.77c-.03-.06-.06-.11-.12-.15 -.06-.04-.12-.06-.18-.06 -.07 0-.13.01-.18.05 -.06.03-.09.08-.12.14l-.25.76c-.08.23-.21.44-.38.61 -.18.17-.38.3-.61.38l-.77.24c-.06.02-.12.05-.15.11 -.04.05-.06.11-.06.17 0 .06.01.12.05.17 .03.05.08.08.14.11l.76.24c.23.07.44.2.61.38 .17.17.3.38.38.61l.24.76c.02.05.05.11.11.14 .05.03.11.05.17.05 .06 0 .12-.02.17-.06 .05-.04.08-.09.11-.15l.24-.77c.07-.24.2-.45.38-.62 .17-.18.38-.31.61-.39l.76-.25c.05-.03.11-.06.14-.12 .03-.06.05-.12.05-.18 0-.07-.02-.13-.06-.18 -.04-.06-.09-.09-.15-.12l-.02-.01Z"/></svg>