<svg viewBox="0 0 24 24" xmlns="http://www.w3.org/2000/svg"><path fill="currentColor" d="M3.28 2.21c-.3-.3-.77-.3-1.07-.01 -.3.29-.3.76-.01 1.06l18.49 18.5c.29.29.76.29 1.06 0 .29-.3.29-.77 0-1.07L3.25 2.18Zm15.78 12.78l1.4-1.41c.87-.88.87-2.31 0-3.19l-6.88-6.88c-.88-.88-2.31-.88-3.19 0l-1.41 1.4 10.06 10.06Zm-6.07 1.06l-5.07-5.07 -4.91 4.9c-.88.87-.88 2.3 0 3.18l1.87 1.87c.87.87 2.3.87 3.18 0l4.9-4.91Zm-3.47-.54l-1.5 1.5c-.3.29-.77.29-1.07 0 -.3-.3-.3-.77 0-1.07l1.5-1.5c.29-.3.76-.3 1.06 0 .29.29.29.76 0 1.06Z"/></svg>