<svg viewBox="0 0 24 24" xmlns="http://www.w3.org/2000/svg"><path fill="currentColor" d="M7.42 2.83c.17-.5.64-.84 1.17-.84h6.45c.85 0 1.45.83 1.18 1.64l-1.46 4.35h3.95c1.1 0 1.66 1.32.89 2.11l-.68.69c-.74-1.17-2.57-1.09-3.11.29l-1.95 4.91 -5.35 5.51c-1.06 1.08-2.88.1-2.55-1.38l1.26-5.67 -1.57-.01C4.44 14.42 3.6 13.22 4 12.09l3.32-9.33Zm10.76 8.64l3.74 9.49c.15.38-.04.82-.43.97 -.36.13-.75-.01-.93-.33l-.05-.1 -1-2.53H15.4l-1 2.52c-.14.35-.52.54-.88.45l-.1-.04c-.36-.14-.55-.52-.46-.88l.03-.1 3.74-9.5c.08-.23.25-.37.44-.44 .17-.07.37-.06.54.01 .14.05.26.16.34.3l.05.1Zm-2.17 6.02h2.92l-1.47-3.705 -1.47 3.705Z"/></svg>