<svg viewBox="0 0 24 24" xmlns="http://www.w3.org/2000/svg"><path fill="currentColor" d="M2.99 5.24c0-1.25 1-2.25 2.25-2.25h2.5c1.24 0 2.25 1 2.25 2.25v2.5c0 1.24-1.01 2.25-2.26 2.25h-.51v3.7c.04.03.09.07.13.11l2.79 2.79c.04.04.08.08.11.13h3.71v-.51c0-1.25 1-2.25 2.25-2.25h2.49c1.24 0 2.25 1 2.25 2.25v2.5c0 1.24-1.01 2.25-2.25 2.25h-2.5c-1.25 0-2.25-1.01-2.25-2.25v-.51h-3.72c-.04.04-.08.09-.12.13l-2.8 2.79c-.49.48-1.28.48-1.77 0l-2.8-2.8c-.49-.49-.49-1.28 0-1.77l2.79-2.8c.04-.05.08-.09.13-.12V9.92h-.51C3.9 9.92 2.9 8.91 2.9 7.66V5.15Z"/></svg>