<svg viewBox="0 0 24 24" xmlns="http://www.w3.org/2000/svg"><path fill="currentColor" d="M2.39 6.59c0-1.66 1.34-3 3-3h2.97c.55 0 1.09.22 1.48.61l1.53 1.53L8.89 8.2c-.12.11-.27.17-.43.17H2.35v-1.8Zm0 3v7.8c0 1.65 1.34 3 3 3h6.11c-.47-.91-.72-1.92-.72-3 0-3.65 2.95-6.6 6.6-6.6 1.59 0 3.05.56 4.2 1.5V8.98c0-1.66-1.35-3-3-3h-5.76L9.74 9.05c-.34.33-.8.52-1.28.52H2.35Zm13.85 3.78c-.35.87-.6 2.06-.65 3.41h3.57c-.06-1.36-.3-2.55-.65-3.42 -.21-.51-.43-.87-.65-1.1 -.22-.23-.39-.29-.5-.29 -.12 0-.29.05-.5.28 -.22.23-.45.59-.65 1.09Zm-.87-1c-.09.17-.18.35-.25.55 -.42 1.03-.68 2.38-.74 3.86H12c.22-2.02 1.55-3.7 3.36-4.42Zm4 0c.08.17.17.35.24.55 .41 1.03.67 2.38.73 3.86h2.37c-.23-2.02-1.56-3.7-3.37-4.42Zm3.36 5.61h-2.38c-.06 1.48-.33 2.83-.74 3.86 -.08.19-.16.37-.25.55 1.81-.73 3.14-2.41 3.36-4.42Zm-5.37 4.8c.11 0 .28-.06.49-.29 .21-.24.44-.6.64-1.1 .34-.88.59-2.07.64-3.42h-3.58c.05 1.35.29 2.54.64 3.41 .2.5.42.86.64 1.09 .21.22.38.28.49.28Zm-2.01-.39c-1.82-.73-3.15-2.41-3.37-4.42h2.37c.05 1.48.32 2.83.73 3.86 .07.19.15.37.24.55Z"/></svg>