<svg viewBox="0 0 24 24" xmlns="http://www.w3.org/2000/svg"><path fill="currentColor" d="M2.39 6.59c0-1.66 1.34-3 3-3h2.97c.55 0 1.09.22 1.48.61l1.53 1.53L8.89 8.2c-.12.11-.27.17-.43.17H2.35v-1.8Zm0 3v7.8c0 1.65 1.34 3 3 3h7.9c.07-.23.2-.43.35-.6 -.29-.32-.46-.74-.46-1.2 0-.47.17-.89.45-1.2 -.29-.32-.46-.74-.46-1.2 0-1 .8-1.8 1.8-1.8h6.6V8.98c0-1.66-1.35-3-3-3h-5.76L9.73 9.05c-.34.33-.8.52-1.28.52H2.34Zm12.6 6c-.34 0-.6.26-.6.6 0 .33.26.6.6.6h7.2c.33 0 .6-.27.6-.6 0-.34-.27-.6-.6-.6h-7.2Zm0 2.4c-.34 0-.6.26-.6.6 0 .33.26.6.6.6h7.2c.33 0 .6-.27.6-.6 0-.34-.27-.6-.6-.6h-7.2Zm-.6 3c0-.34.26-.6.6-.6h7.2c.33 0 .6.26.6.6 0 .33-.27.6-.6.6h-7.2c-.34 0-.6-.27-.6-.6Z"/></svg>