<svg viewBox="0 0 24 24" xmlns="http://www.w3.org/2000/svg"><path fill="currentColor" d="M2 6.25V8h6.12c.19 0 .38-.08.53-.22l2.59-2.6L9.7 3.64c-.43-.43-1-.66-1.6-.66H5.22c-1.8 0-3.25 1.45-3.25 3.25Zm0 11.5V9.5h6.12c.59 0 1.16-.24 1.59-.66l3.34-3.35h5.68c1.79 0 3.25 1.45 3.25 3.25v7.27l-1.02-1.02c-.69-.69-1.8-.69-2.48 0 -.54.53-.66 1.33-.35 1.98h-1.34c.3-.65.19-1.45-.35-1.99 -.69-.69-1.8-.69-2.48 0l-2.5 2.5c-.69.68-.69 1.79 0 2.47l1.01 1.01H5.19c-1.8 0-3.25-1.46-3.25-3.25Zm13.78-.97c.29-.3.29-.77 0-1.07 -.3-.3-.77-.3-1.07 0l-2.5 2.5c-.3.29-.3.76 0 1.06l2.5 2.5c.29.29.76.29 1.06 0 .29-.3.29-.77 0-1.07l-1.22-1.22h5.87l-1.22 1.21c-.3.29-.3.76 0 1.06 .29.29.76.29 1.06 0l2.5-2.5c.29-.3.29-.77 0-1.07l-2.5-2.5c-.3-.3-.77-.3-1.07 0 -.3.29-.3.76 0 1.06l1.21 1.21h-5.88l1.21-1.22Z"/></svg>