<svg viewBox="0 0 24 24" xmlns="http://www.w3.org/2000/svg"><path fill="currentColor" d="M2 6.25V8h6.12c.19 0 .38-.08.53-.22l2.59-2.6L9.7 3.64c-.43-.43-1-.66-1.6-.66H5.22c-1.8 0-3.25 1.45-3.25 3.25Zm0 11.5V9.5h6.12c.59 0 1.16-.24 1.59-.66l3.34-3.35h.43v3.75c0 .41.33.75.75.75h.75v3h-.25c-.42 0-.75.33-.75.75 0 .41.33.75.75.75h.25v1.5h-.25c-.42 0-.75.33-.75.75 0 .41.33.75.75.75h.25v3.5H5.23c-1.8 0-3.25-1.46-3.25-3.25ZM16.5 21h2.25c1.79 0 3.25-1.46 3.25-3.25v-9c0-1.8-1.46-3.25-3.25-3.25H18v3.75c0 .41-.34.75-.75.75h-.75v4.5h.25c.41 0 .75.33.75.75 0 .41-.34.75-.75.75h-.25v5Zm0-15.5H15v3h1.5v-3Z"/></svg>