<svg viewBox="0 0 24 24" xmlns="http://www.w3.org/2000/svg"><path fill="currentColor" d="M2.39 6.59c0-1.66 1.34-3 3-3h2.97c.55 0 1.09.22 1.48.61l1.53 1.53L8.89 8.2c-.12.11-.27.17-.43.17H2.35v-1.8Zm0 3v7.8c0 1.65 1.34 3 3 3h5.4v-4.2c0-1.47 1.05-2.7 2.45-2.95 .25-1.4 1.48-2.46 2.94-2.46h2.4c1.46 0 2.69 1.05 2.94 2.45 .01 0 .03 0 .05 0V8.96c0-1.66-1.35-3-3-3h-5.76L9.73 9.03c-.34.33-.8.52-1.28.52H2.34Zm12 4.2v.6h-.6c-1 0-1.8.8-1.8 1.8v4.8c0 .99.8 1.8 1.8 1.8h7.2c.99 0 1.8-.81 1.8-1.8v-4.8c0-1-.81-1.8-1.8-1.8h-.6v-.6c0-1-.81-1.8-1.8-1.8h-2.4c-1 0-1.8.8-1.8 1.8Zm1.8-.6h2.4c.33 0 .6.26.6.6v.6h-3.6v-.6c0-.34.26-.6.6-.6Z"/></svg>