<svg viewBox="0 0 24 24" xmlns="http://www.w3.org/2000/svg"><path fill="currentColor" d="M2 8V6.25C2 4.45 3.45 3 5.25 3h2.87c.59 0 1.16.23 1.59.65l1.53 1.53 -2.6 2.59c-.15.14-.34.21-.54.21H1.97Zm0 1.5v8.25C2 19.54 3.45 21 5.25 21h6.62c-.56-.78-.88-1.73-.88-2.75 0-2.63 2.12-4.75 4.75-4.75h3.5c1.02 0 1.97.32 2.75.87V8.74c0-1.8-1.46-3.25-3.25-3.25h-5.69L9.7 8.83c-.43.42-1 .65-1.6.65H1.97Zm21 8.75c0-2.08-1.68-3.75-3.75-3.75l-.11 0c-.37.04-.65.36-.65.74 0 .41.33.75.75.75l.15 0c1.17.07 2.096 1.05 2.096 2.24 0 1.24-1.01 2.25-2.25 2.25l-.01 0 -.11 0c-.37.05-.65.36-.65.74 0 .41.33.74.75.74v-.01l.19-.01c1.97-.11 3.54-1.75 3.54-3.75Zm-6.5-3c0-.42-.34-.75-.75-.75l-.2 0c-1.98.1-3.56 1.74-3.56 3.74 0 2.07 1.67 3.75 3.75 3.75l.1-.01c.36-.05.64-.37.64-.75 0-.42-.34-.75-.75-.75l-.16-.01c-1.18-.08-2.096-1.06-2.096-2.25 0-1.25 1-2.25 2.25-2.25l.1-.01c.36-.05.64-.37.64-.75Zm3.5 3c0-.42-.34-.75-.75-.75h-3.5l-.11 0c-.37.04-.65.36-.65.74 0 .41.33.75.75.75h3.5l.1-.01c.36-.05.64-.37.64-.75Z"/></svg>