<svg viewBox="0 0 24 24" xmlns="http://www.w3.org/2000/svg"><path fill="currentColor" d="M9.21 3.65l1.28 1.28 -2.35 2.34c-.15.14-.34.21-.54.21H1.47v-.75c0-2.08 1.67-3.75 3.75-3.75h2.37c.59 0 1.16.23 1.59.65ZM1.49 14.24V8.99h6.12c.59 0 1.16-.24 1.59-.66l3.09-3.1h3.43c2.07 0 3.75 1.67 3.75 3.75v5.25c0 2.07-1.68 3.75-3.75 3.75H5.22c-2.08 0-3.75-1.68-3.75-3.75Zm19.5-5.25v5.25c0 2.89-2.36 5.25-5.25 5.25H5.23c.68.91 1.77 1.5 3 1.5h7.5c3.72 0 6.75-3.03 6.75-6.75v-2.25c0-1.23-.59-2.32-1.5-3.01Z"/></svg>