<svg viewBox="0 0 24 24" xmlns="http://www.w3.org/2000/svg"><path fill="currentColor" d="M2 8V6.25C2 4.45 3.45 3 5.25 3h2.87c.59 0 1.16.23 1.59.65l1.53 1.53 -2.6 2.59c-.15.14-.34.21-.54.21H1.97Zm0 1.5v8.25C2 19.54 3.45 21 5.25 21h10.721l.24-1h-1.73c-1.1 0-1.83-1.15-1.36-2.14l2.82-6c.24-.53.77-.87 1.35-.87h4.68V8.74c0-1.8-1.46-3.25-3.25-3.25h-5.69l-3.35 3.34c-.43.42-1 .65-1.6.65H1.95ZM17.31 12h4.82c.38 0 .62.41.43.74l-1.84 3.25h1.49c.64 0 .98.75.56 1.24l-4.83 5.5c-.51.57-1.45.08-1.26-.66l.77-3.1h-3.01c-.37 0-.61-.39-.46-.72l2.82-6c.08-.18.25-.29.45-.29Z"/></svg>