<svg viewBox="0 0 24 24" xmlns="http://www.w3.org/2000/svg"><path fill="currentColor" d="M2 8V6.25C2 4.45 3.45 3 5.25 3h2.87c.59 0 1.16.23 1.59.65l1.53 1.53 -2.6 2.59c-.15.14-.34.21-.54.21H1.97Zm0 1.5v8.25C2 19.54 3.45 21 5.25 21h6.77c-.65-1.02-1.03-2.22-1.03-3.5 0-3.59 2.91-6.5 6.5-6.5 1.74 0 3.33.68 4.5 1.8V8.74c0-1.8-1.46-3.25-3.25-3.25h-5.69L9.7 8.83c-.43.42-1 .65-1.6.65H1.97Zm21 8c0 3.03-2.47 5.5-5.5 5.5 -3.04 0-5.5-2.47-5.5-5.5 0-3.04 2.46-5.5 5.5-5.5 3.03 0 5.5 2.46 5.5 5.5Zm-9.5 0c0 .83.25 1.6.69 2.24l5.55-5.56c-.65-.44-1.42-.7-2.25-.7 -2.21 0-4 1.79-4 4Zm4 4c2.2 0 4-1.8 4-4 0-.84-.26-1.61-.7-2.25l-5.56 5.55c.64.43 1.41.69 2.24.69Z"/></svg>