<svg viewBox="0 0 24 24" xmlns="http://www.w3.org/2000/svg"><path fill="currentColor" d="M2 8V6.25C2 4.45 3.45 3 5.25 3h2.87c.59 0 1.16.23 1.59.65l1.53 1.53 -2.6 2.59c-.15.14-.34.21-.54.21H1.97Zm0 1.5v8.25C2 19.54 3.45 21 5.25 21h5.92c-.12-.32-.18-.65-.18-1v-5c0-1.66 1.34-3 3-3h7c.35 0 .68.06 1 .17V8.74c0-1.8-1.46-3.25-3.25-3.25h-5.69L9.7 8.83c-.43.42-1 .65-1.6.65H1.97Zm10.01 5.22l5.49 3.2 5.49-2.96c-.02-1.1-.91-1.98-2-1.98h-7c-1.02 0-1.85.75-1.99 1.72Zm10.98 1.38l-5.27 2.83c-.16.08-.34.07-.49-.01l-5.25-3.07v4.12c0 1.1.89 2 2 2h7c1.1 0 2-.9 2-2v-3.9Z"/></svg>