<svg viewBox="0 0 24 24" xmlns="http://www.w3.org/2000/svg"><path fill="currentColor" d="M5.39 3.59c-1.66 0-3 1.34-3 3v1.8h6.1c.15 0 .31-.07.42-.18l2.47-2.48 -1.54-1.54c-.4-.4-.93-.62-1.49-.62H5.37Zm-3 13.8V9.58h6.1c.47 0 .93-.19 1.27-.53l3.07-3.08h5.75c1.65 0 3 1.34 3 3v3.4c-.65-.97-1.75-1.61-3-1.61 -1.99 0-3.6 1.61-3.6 3.6 0 .92.35 1.77.92 2.41 -1.53.13-2.73 1.42-2.73 2.98 0 .2.01.4.04.6H5.36c-1.66 0-3-1.35-3-3Zm18.6-3c0 1.32-1.08 2.4-2.4 2.4 -1.33 0-2.4-1.08-2.4-2.4 0-1.33 1.07-2.4 2.4-2.4 1.32 0 2.4 1.07 2.4 2.4Zm1.8 5.4c0 1.49-1.2 3-4.2 3s-4.2-1.51-4.2-3c0-1 .8-1.8 1.8-1.8h4.8c.99 0 1.8.8 1.8 1.8Z"/></svg>