<svg viewBox="0 0 24 24" xmlns="http://www.w3.org/2000/svg"><path fill="currentColor" d="M2 8V6.25C2 4.45 3.45 3 5.25 3h2.87c.59 0 1.16.23 1.59.65l1.53 1.53 -2.6 2.59c-.15.14-.34.21-.54.21H1.97Zm0 1.5v8.25C2 19.54 3.45 21 5.25 21h5.9c-.11-.38-.16-.76-.16-1.125 0-1.38.94-2.76 2.41-2.87 -.57-.59-.92-1.39-.92-2.26 0-1.8 1.45-3.25 3.25-3.25 1.45 0 2.68.95 3.09 2.26 .49-.48 1.16-.77 1.9-.77 .45 0 .875.1 1.25.29V8.72c0-1.8-1.46-3.25-3.25-3.25h-5.69L9.68 8.81c-.43.42-1 .65-1.6.65H1.95Zm16 5.25c0 1.24-1.01 2.25-2.25 2.25 -1.25 0-2.25-1.01-2.25-2.25 0-1.25 1-2.25 2.25-2.25 1.24 0 2.25 1 2.25 2.25Zm1.5 5.125c0 1.55-1.08 3.125-3.75 3.125 -2.68 0-3.75-1.57-3.75-3.125 0-1.04.71-1.875 1.6-1.875h4.28c.88 0 1.6.83 1.6 1.875Zm1.25-2.375c.96 0 1.75-.79 1.75-1.75 0-.97-.79-1.75-1.75-1.75 -.97 0-1.75.78-1.75 1.75 0 .96.78 1.75 1.75 1.75Zm-.26 2.375c0 .71-.18 1.46-.59 2.12 .02 0 .05 0 .08 0 2.14 0 3-1.1 3-2.19 0-.73-.58-1.32-1.29-1.32h-1.55c.2.42.32.89.32 1.375Z"/></svg>