<svg viewBox="0 0 24 24" xmlns="http://www.w3.org/2000/svg"><g fill="currentColor"><path d="M2 8V6.25C2 4.45 3.45 3 5.25 3h2.87c.59 0 1.16.23 1.59.65l1.53 1.53 -2.6 2.59c-.15.14-.34.21-.54.21H1.97Zm0 1.5v8.25C2 19.54 3.45 21 5.25 21h6.77c-.65-1.02-1.03-2.22-1.03-3.5 0-3.59 2.91-6.5 6.5-6.5 1.74 0 3.33.68 4.5 1.8V8.74c0-1.8-1.46-3.25-3.25-3.25h-5.69L9.7 8.83c-.43.42-1 .65-1.6.65H1.97Z"/><path fill="currentColor" fill-rule="evenodd" d="M17.5 23c3.03 0 5.5-2.47 5.5-5.5 0-3.04-2.47-5.5-5.5-5.5 -3.04 0-5.5 2.46-5.5 5.5 0 3.03 2.46 5.5 5.5 5.5Zm0-9c.27 0 .5.22.5.5v4.79l1.64-1.65c.19-.2.51-.2.7 0 .19.19.19.51 0 .7l-2.5 2.5c-.2.19-.52.19-.71 0l-2.5-2.5c-.2-.2-.2-.52 0-.71 .19-.2.51-.2.7 0l1.64 1.64v-4.8c0-.28.22-.5.5-.5Z"/></g></svg>