<svg viewBox="0 0 24 24" xmlns="http://www.w3.org/2000/svg"><path fill="currentColor" d="M2 8V6.25C2 4.45 3.45 3 5.25 3h2.87c.59 0 1.16.23 1.59.65l1.53 1.53 -2.6 2.59c-.15.14-.34.21-.54.21H1.97Zm0 1.5v8.25C2 19.54 3.45 21 5.25 21h6.77c-.65-1.02-1.03-2.22-1.03-3.5 0-3.59 2.91-6.5 6.5-6.5 1.74 0 3.33.68 4.5 1.8V8.74c0-1.8-1.46-3.25-3.25-3.25h-5.69L9.7 8.83c-.43.42-1 .65-1.6.65H1.97Zm10 8c0 3.03 2.46 5.5 5.5 5.5 3.03 0 5.5-2.47 5.5-5.5 0-3.04-2.47-5.5-5.5-5.5 -3.04 0-5.5 2.46-5.5 5.5Zm8.5-3.5c.27 0 .5.22.5.5v2c0 .27-.23.5-.5.5h-2c-.28 0-.5-.23-.5-.5 0-.28.22-.5.5-.5h1c-.46-.61-1.19-1-2.01-1 -.84 0-1.58.4-2.03 1.03 -.17.22-.48.27-.7.11 -.23-.17-.28-.48-.12-.7 .63-.88 1.66-1.45 2.83-1.45 .97 0 1.86.4 2.5 1.05v-.56c0-.28.22-.5.5-.5ZM15 19.94v.55c0 .27-.23.5-.5.5 -.28 0-.5-.23-.5-.5v-2c0-.28.22-.5.5-.5h2c.27 0 .5.22.5.5 0 .27-.23.5-.5.5h-1.01c.45.6 1.18 1 2 1 .76 0 1.45-.35 1.91-.89 .17-.22.49-.24.7-.06 .21.17.23.49.05.7 -.65.75-1.61 1.24-2.68 1.24 -.98 0-1.87-.41-2.5-1.06Z"/></svg>