<svg viewBox="0 0 24 24" xmlns="http://www.w3.org/2000/svg"><path fill="currentColor" d="M2 6.25V8h6.12c.19 0 .38-.08.53-.22l2.59-2.6L9.7 3.64c-.43-.43-1-.66-1.6-.66H5.22c-1.8 0-3.25 1.45-3.25 3.25Zm0 11.5V9.5h6.12c.59 0 1.16-.24 1.59-.66l3.34-3.35h5.68c1.79 0 3.25 1.45 3.25 3.25v6.25h-.03c-.26-2.81-2.61-5-5.48-5 -3.04 0-5.5 2.46-5.5 5.5 0 3.03 2.46 5.5 5.5 5.5H5.22c-1.8 0-3.25-1.46-3.25-3.25ZM16.5 21c.16 0 .33-.01.5-.03v.02h-.5Zm0-1c.97 0 1.87-.31 2.6-.84l2.61 2.61c.29.29.76.29 1.06 0 .29-.3.29-.77 0-1.07l-2.62-2.62c.52-.74.83-1.64.83-2.61 0-2.49-2.02-4.5-4.5-4.5 -2.49 0-4.5 2.01-4.5 4.5 0 2.48 2.01 4.5 4.5 4.5Zm0-1.5c-1.66 0-3-1.35-3-3 0-1.66 1.34-3 3-3 1.65 0 3 1.34 3 3 0 1.65-1.35 3-3 3Z"/></svg>