<svg viewBox="0 0 24 24" xmlns="http://www.w3.org/2000/svg"><path fill="currentColor" d="M4.38 16.2c.35-.28.86-.28 1.22 0l.09.08 .08.09c.27.35.27.86 0 1.22l-.09.09 -.3.29h13.17l-.3-.3c-.37-.37-.39-.93-.09-1.32l.08-.1c.36-.37.92-.39 1.32-.09l.09.08 2 2c.36.36.38.92.08 1.32l-.09.09 -2 2c-.4.39-1.03.39-1.42 0 -.37-.37-.39-.93-.09-1.32l.08-.1 .29-.3H5.33l.29.29 .08.09c.3.39.27.95-.09 1.32 -.37.36-.93.38-1.32.08l-.1-.09 -2-2 -.09-.1c-.28-.36-.28-.87 0-1.23l.08-.1 2-2 .09-.09ZM8.11 2.4l.06.1 .05.11 4.3 11c.2.51-.06 1.09-.57 1.29 -.48.18-1.02-.02-1.25-.47l-.05-.11 -1.12-2.84H5l-1.12 2.83c-.19.47-.71.73-1.19.6l-.12-.04c-.48-.19-.74-.71-.61-1.19l.03-.12 4.3-11c.3-.77 1.31-.84 1.74-.22Zm11.97.11c.23-.45.76-.65 1.24-.47 .47.18.73.7.6 1.18l-.04.11 -4.31 11 -.06.11c-.38.69-1.39.69-1.76 0l-.06-.12 -4.31-11.01 -.04-.12c-.12-.45.08-.92.49-1.14l.1-.05 .11-.04c.44-.12.91.08 1.13.49l.04.1 3.37 8.62 3.37-8.63 .04-.11ZM7.29 5.72L5.81 9.5h2.96L7.29 5.72Z"/></svg>