<svg viewBox="0 0 24 24" xmlns="http://www.w3.org/2000/svg"><path fill="currentColor" d="M22 7.99c0-3.32-2.69-6-6-6 -2.94 0-5.38 2.1-5.9 4.89 -.57 1.84-1.09 2.84-1.37 3.3l-2.52 2.51c-.22.21-.28.53-.17.81 .08.2.24.35.44.42l-2.05 2.04c-1.37.02-2.47 1.13-2.47 2.49 0 .83.41 1.57 1.04 2.03 .16.11.3.26.42.42 .45.63 1.19 1.04 2.03 1.04 1.36 0 2.48-1.11 2.49-2.47l2.04-2.05c.06.2.22.36.42.45 .28.11.6.05.81-.17l2.52-2.53c.47-.29 1.47-.8 3.31-1.37 2.77-.53 4.88-2.97 4.88-5.9Zm-13.42 6h1.41v1.41l-3.12 3.11c-.3.29-.39.67-.39.97 0 .55-.45 1-1 1 -.34 0-.64-.17-.82-.42 -.22-.3-.48-.56-.77-.77 -.26-.19-.42-.48-.42-.82 0-.56.44-1 1-1 .29 0 .67-.09.96-.39l3.11-3.12Z"/></svg>