<svg viewBox="0 0 24 24" xmlns="http://www.w3.org/2000/svg"><path fill="currentColor" d="M18 3c.51 0 .93.38.99.88l0 .11v16c0 .55-.45 1-1 1 -.52 0-.94-.39-1-.89l-.01-.12v-5h-1c-.52 0-.94-.39-1-.89l-.01-.12v-6c0-2.21 1.5-5 3-5Zm-6 0c.51 0 .93.38.99.88l0 .11v5c0 1.86-1.28 3.42-3 3.87l-.01 7.12c0 .55-.45 1-1 1 -.52 0-.94-.39-1-.89l-.01-.12 0-7.13c-1.67-.43-2.91-1.9-3-3.67l-.01-.21v-5c0-.56.44-1 1-1 .51 0 .93.38.99.88l0 .11v5c0 .74.4 1.38.99 1.73l0-6.74c0-.56.44-1 1-1 .51 0 .93.38.99.88l0 .11 0 6.73c.55-.32.93-.9.99-1.57l0-.17v-5c0-.56.44-1 1-1Z"/></svg>