<svg viewBox="0 0 24 24" xmlns="http://www.w3.org/2000/svg"><path fill="currentColor" d="M8.25 9c-.42 0-.75.33-.75.75v4.5c0 .41.33.75.75.75h4.5c.41 0 .75-.34.75-.75v-4.5c0-.42-.34-.75-.75-.75h-4.5ZM9 13.5v-3h3v3H9ZM2 7.75C2 5.12 4.12 3 6.75 3h10.5C19.87 3 22 5.12 22 7.75c0 1.23-.48 2.36-1.25 3.21v7.78c0 1.24-1.01 2.25-2.25 2.25H5.49c-1.25 0-2.25-1.01-2.25-2.25v-7.79c-.78-.85-1.25-1.98-1.25-3.22ZM6.75 4.5c-1.8 0-3.25 1.45-3.25 3.25 0 .92.38 1.76 1.01 2.36 .14.14.23.33.23.54v8.09c0 .41.33.75.75.75h10c.41 0 .75-.34.75-.75v-7.7c0-.25.12-.49.32-.62 .86-.59 1.42-1.58 1.42-2.69 0-1.8-1.46-3.25-3.25-3.25h-8Z"/></svg>