<svg viewBox="0 0 24 24" xmlns="http://www.w3.org/2000/svg"><path fill="currentColor" d="M5.47 3.41c-.09 1.38.39 2.8 1.41 3.88C5 7.82 3.5 9.42 3.21 11.5c-.33 2.35.15 4.75 1.37 6.79l.35.58c.01.02.02.04.04.06l1.41 1.9c1.27 1.71 3.79 1.87 5.27.33 .17-.18.45-.18.62 0 1.48 1.54 3.99 1.38 5.27-.34l1.41-1.91c.01-.03.02-.05.04-.07l.35-.59c1.21-2.05 1.7-4.45 1.37-6.8 -.41-2.94-3.22-4.91-6.11-4.31l-1.91.39 -.01 0c.03-.78.15-1.63.39-2.34 .28-.87.69-1.39 1.13-1.58 .38-.16.56-.6.4-.99 -.16-.39-.6-.57-.99-.41 -1.06.43-1.65 1.47-1.99 2.48 -.02.04-.04.09-.05.14 -.24-.47-.56-.91-.95-1.29 -1.1-1.1-2.56-1.6-3.99-1.52 -.7.04-1.25.59-1.29 1.28Zm2.92 7.81c-.35.06-.67.31-.87.77 -.21.47-.28 1.17-.06 2.05 .1.4-.15.8-.55.9 -.41.1-.81-.15-.91-.55 -.29-1.13-.23-2.18.13-3.01 .36-.85 1.04-1.48 1.94-1.66 .4-.09.8.18.88.58 .08.4-.19.8-.59.88Z"/></svg>