<svg viewBox="0 0 24 24" xmlns="http://www.w3.org/2000/svg"><path fill="currentColor" d="M12.61 2.28c-.35-.31-.88-.31-1.23 0C9.77 3.67 8.94 5.61 8.89 7.56c-.01.19.1.36.27.44 .58.3 1.15.68 1.7 1.14 .25.21.49.44.7.68 .22.24.61.24.83-.01 .21-.24.44-.47.7-.69 .54-.47 1.11-.85 1.7-1.15 .16-.09.28-.26.27-.45 -.05-1.95-.88-3.89-2.49-5.29Zm-.62 15.75c1.58-2.81 4.79-4.52 8.16-4.07 .48.06.85.5.81 1 -.31 3.95-3.61 7.01-7.58 7.01H12l-.03 0h-1.43c-3.97 0-7.27-3.06-7.58-7.02 -.04-.51.32-.94.81-1.01 3.37-.46 6.58 1.25 8.16 4.06Zm7.64-5.12c-1.85-.11-3.66.37-5.13 1.16 -.89.47-1.7 1.07-2.33 1.77 -.11.11-.3.11-.4 0 -.64-.7-1.44-1.31-2.33-1.78 -1.47-.79-3.27-1.27-5.12-1.17 -.73-1.15-1.23-2.47-1.36-3.8 -.05-.54.34-1 .87-1.05 2.45-.21 4.5.28 6.34 1.83 .82.7 1.38 1.54 1.76 2.26 .37-.72.93-1.57 1.76-2.27 1.83-1.56 3.9-2.05 6.35-1.84 .52.04.92.5.87 1.04 -.13 1.32-.63 2.65-1.36 3.79Z"/></svg>