<svg viewBox="0 0 24 24" xmlns="http://www.w3.org/2000/svg"><path fill="currentColor" d="M12 7c1.71 0 2-1.34 2-2.45s-.74-3.06-2-3.06c-1.27 0-2 1.95-2 3.05 0 1.1.28 2.44 2 2.44Zm-8.5 3.25C3.5 9 4.5 8 5.75 8h12.5c1.24 0 2.25 1 2.25 2.25v.875l-3.64 2.72c-.41.3-.95.33-1.39.07l-2.04-1.2c-.9-.53-2.02-.51-2.89.05l-1.77 1.13c-.42.26-.94.26-1.36 0l-3.95-2.52v-1.16Zm0 2.93v5.31h-.75c-.42 0-.75.33-.75.75 0 .41.33.75.75.75h18.5c.41 0 .75-.34.75-.75 0-.42-.34-.75-.75-.75h-.75v-5.5l-2.74 2.05c-.89.66-2.09.73-3.05.17l-2.04-1.2c-.41-.24-.92-.23-1.32.02l-1.77 1.13c-.91.58-2.07.58-2.98 0l-3.14-2.01Z"/></svg>