<svg viewBox="0 0 24 24" xmlns="http://www.w3.org/2000/svg"><path fill="currentColor" d="M5 4.66c0-1.5 1.23-2.81 2.82-2.65 5.32.52 10.06 3.05 13.44 6.82 1.06 1.19.73 2.96-.48 3.84l-.43.3 -.37-.55 -.01-.02c-3.2-4.41-8.39-7.28-14.25-7.28h-.76l0-.51Zm13.76 8.64l.37.56c-1.46 1.05-3.05 2.2-3.95 2.86l-.21.15v2.1c0 .55-.45 1-1 1 -.56 0-1-.45-1-1v-.07c-.04-.25-.25-.45-.5-.45 -.28 0-.5.22-.5.5v1.5c0 .55-.45 1-1 1 -.52 0-.95-.4-1-.9 -.47.33-.97.69-1.45 1.03 -1.49 1.07-3.57.01-3.57-1.83l0-13.14h.75c5.35 0 10.09 2.61 13.01 6.64Zm-9.77-2.32c.55 0 .99-.45.99-1 0-.56-.45-1-1-1 -.56 0-1 .44-1 1 0 .55.44 1 1 1Zm3.99 2.99c.55 0 1-.45 1-1 0-.56-.45-1-1-1 -.56 0-1 .44-1 1 0 .55.44 1 1 1Zm-4 2.99c.55 0 .99-.45.99-1 0-.56-.45-1-1-1 -.56 0-1 .44-1 1 0 .55.44 1 1 1Z"/></svg>