<svg viewBox="0 0 24 24" xmlns="http://www.w3.org/2000/svg"><path fill="currentColor" d="M11.5 12.25c0-.42.33-.75.75-.75 .41 0 .75-.34.75-.75 0-.42-.34-.76-.75-.76 -1.25 0-2.25 1-2.25 2.25 0 .41.33.75.75.75 .41 0 .75-.34.75-.75ZM13.5 2c-3.12 0-5.82 1.82-7.29 4.49 -.25.43-.61.81-1.06 1.11 -1.92 1.29-3.16 3.56-3.16 6.14 0 3.94 2.96 7.25 6.75 7.25 .32 0 .64-.03.95-.08 .86-.14 1.79-.01 2.56.38 .89.44 1.91.69 2.97.69 3.72 0 6.75-3.03 6.75-6.75 0-.43-.04-.84-.12-1.24 -.07-.38-.09-.74-.03-1.09 .08-.54.13-1.1.13-1.67 0-5.06-3.74-9.275-8.5-9.275Zm3.75 10.5c0 2.62-2.13 4.75-4.75 4.75 -2.63 0-4.75-2.13-4.75-4.75 0-2.63 2.12-4.76 4.75-4.76 2.62 0 4.75 2.12 4.75 4.75Z"/></svg>