<svg viewBox="0 0 24 24" xmlns="http://www.w3.org/2000/svg"><path fill="currentColor" d="M8.25 10c-.42 0-.75.33-.75.75 0 .41.33.75.75.75 .41 0 .75-.34.75-.75 0-.42-.34-.75-.75-.75Zm-.75 6.25c0-.42.33-.75.75-.75 .41 0 .75.33.75.75 0 .41-.34.75-.75.75 -.42 0-.75-.34-.75-.75ZM3 6.25C3 4.45 4.45 3 6.25 3h11.5C19.54 3 21 4.45 21 6.25v11.5c0 1.79-1.46 3.25-3.25 3.25H6.25C4.45 21 3 19.54 3 17.75V6.25Zm3 4.5C6 11.99 7 13 8.25 13c1.24 0 2.25-1.01 2.25-2.25 0-1.25-1.01-2.25-2.25-2.25C7 8.5 6 9.5 6 10.75ZM8.25 14C7 14 6 15 6 16.25c0 1.24 1 2.25 2.25 2.25 1.24 0 2.25-1.01 2.25-2.25C10.5 15 9.49 14 8.25 14ZM12 10.75c0 .41.33.75.75.75h4.5c.41 0 .75-.34.75-.75 0-.42-.34-.75-.75-.75h-4.5c-.42 0-.75.33-.75.75Zm.75 4.75c-.42 0-.75.33-.75.75 0 .41.33.75.75.75h4.5c.41 0 .75-.34.75-.75 0-.42-.34-.75-.75-.75h-4.5ZM6 6.25c0 .41.33.75.75.75h10.5c.41 0 .75-.34.75-.75 0-.42-.34-.75-.75-.75H6.75c-.42 0-.75.33-.75.75Z"/></svg>