<svg viewBox="0 0 24 24" xmlns="http://www.w3.org/2000/svg"><g fill="currentColor"><path d="M7.25 11.5c-.42 0-.75.33-.75.75 0 .41.33.75.75.75 .41 0 .75-.34.75-.75 0-.42-.34-.75-.75-.75Z"/><path d="M6.25 3C4.45 3 3 4.45 3 6.25v9c0 1.79 1.45 3.25 3.25 3.25h9c1.79 0 3.25-1.46 3.25-3.25v-9c0-1.8-1.46-3.25-3.25-3.25h-9ZM5 12.25C5 11 6 10 7.25 10c1.24 0 2.25 1 2.25 2.25 0 1.24-1.01 2.25-2.25 2.25C6 14.5 5 13.49 5 12.25Zm5.5 0c0-.42.33-.75.75-.75h4.5c.41 0 .75.33.75.75 0 .41-.34.75-.75.75h-4.5c-.42 0-.75-.34-.75-.75ZM5 7.75c0-.42.33-.75.75-.75h10c.41 0 .75.33.75.75 0 .41-.34.75-.75.75h-10c-.42 0-.75-.34-.75-.75Z"/><path d="M8.74 21c-1.16 0-2.17-.6-2.74-1.51h2.71l.02 0h6.99c2.07 0 3.75-1.68 3.75-3.75V6c.9.57 1.5 1.58 1.5 2.73v7c0 2.89-2.36 5.25-5.26 5.25h-7Z"/></g></svg>