<svg viewBox="0 0 24 24" xmlns="http://www.w3.org/2000/svg"><path fill="currentColor" d="M7.5 10.75c0-.42.33-.75.75-.75 .41 0 .75.33.75.75 0 .41-.34.75-.75.75 -.42 0-.75-.34-.75-.75Zm.75 4.75c-.42 0-.75.33-.75.75 0 .41.33.75.75.75 .41 0 .75-.34.75-.75 0-.42-.34-.75-.75-.75ZM3 6.25C3 4.45 4.45 3 6.25 3h11.5C19.54 3 21 4.45 21 6.25v5.77c-.9-.58-1.94-.93-3.05-1.01 .03-.09.04-.18.04-.27 0-.42-.34-.75-.75-.75h-4.5c-.42 0-.75.33-.75.75 0 .41.33.75.75.75h2.24c-2.35.98-4 3.29-4 6 0 1.28.37 2.48 1.02 3.5H6.22c-1.8 0-3.25-1.46-3.25-3.25V6.24Zm3 4.5C6 11.99 7 13 8.25 13c1.24 0 2.25-1.01 2.25-2.25 0-1.25-1.01-2.25-2.25-2.25C7 8.5 6 9.5 6 10.75ZM8.25 14C7 14 6 15 6 16.25c0 1.24 1 2.25 2.25 2.25 1.24 0 2.25-1.01 2.25-2.25C10.5 15 9.49 14 8.25 14ZM6 6.25c0 .41.33.75.75.75h10.5c.41 0 .75-.34.75-.75 0-.42-.34-.75-.75-.75H6.75c-.42 0-.75.33-.75.75ZM23 17.5c0-3.04-2.47-5.5-5.5-5.5 -3.04 0-5.5 2.46-5.5 5.5 0 3.03 2.46 5.5 5.5 5.5 3.03 0 5.5-2.47 5.5-5.5Zm-5 .5l0 2.5c0 .27-.23.5-.5.5 -.28 0-.5-.23-.5-.5l-.01-2.51h-2.51c-.28 0-.5-.23-.5-.5 0-.28.22-.5.49-.5h2.5l-.01-2.51c0-.28.22-.5.5-.5 .27 0 .5.22.5.5l0 2.5h2.49c.27 0 .49.22.49.5 0 .27-.23.5-.5.5h-2.5Z"/></svg>