<svg viewBox="0 0 24 24" xmlns="http://www.w3.org/2000/svg"><path fill="currentColor" d="M5.26 3.02c.44.1.76.51.76.97v8c0 .55-.45.99-1 .99 -.56 0-1-.45-1-1V6.47c-.15.11-.31.22-.47.33 -.46.3-1.09.18-1.39-.28 -.31-.46-.19-1.09.27-1.39 .66-.45 1.1-.88 1.36-1.2 .13-.16.22-.28.27-.36 .02-.04.04-.07.05-.09l0-.02c.21-.41.67-.61 1.11-.5Zm12.73-.03c-1.66 0-3 1.34-3 2.99v4c0 1.65 1.34 2.99 3 2.99 1.65 0 3-1.35 3-3V5.96c0-1.66-1.35-3-3-3Zm-1 2.99c0-.56.44-1 1-1 .55 0 1 .44 1 1v4c0 .55-.45 1-1 1 -.56 0-1-.45-1-1V5.97Zm-13 9.74c-.001-.42.33-.75.75-.75h3c.41 0 .75.33.75.75 0 .41-.34.75-.75.75H5.49v1.5h1.75c.41 0 .75.33.75.75 0 .41-.34.75-.75.75H5.49v1.72c0 .41-.34.75-.75.75 -.42 0-.75-.34-.75-.75V15.7Zm6.25-.75c-.42 0-.75.33-.75.75v5.5c0 .41.33.75.75.75 .41 0 .75-.34.75-.75v-1.75h.75c1.24 0 2.25-1.01 2.25-2.25 0-1.25-1.01-2.25-2.25-2.25h-1.5Zm1.5 3h-.75v-1.5h.75c.41 0 .75.33.75.75 0 .41-.34.75-.75.75Zm3.5-.875c0-1.18.95-2.125 2.125-2.125h.625c1.1 0 2 .89 2 2 0 .41-.34.75-.75.75 -.42 0-.75-.34-.75-.75 0-.28-.23-.5-.5-.5h-.625c-.35 0-.625.27-.625.625 0 .34.27.625.625.625h.5c1.17 0 2.125.95 2.125 2.125 0 1.17-.96 2.125-2.125 2.125h-.625c-1.11 0-2-.9-2-2 0-.42.33-.75.75-.75 .41 0 .75.33.75.75 0 .27.22.5.5.5h.625c.34 0 .625-.28.625-.625 0-.35-.28-.625-.625-.625h-.5c-1.18 0-2.125-.96-2.125-2.125ZM8.11 6.145c.5.2 1.07-.04 1.29-.54 0-.01.01-.03.03-.06 .03-.06.09-.14.19-.23 .17-.16.49-.37 1.1-.37 .42 0 .74.12.94.29 .18.15.3.37.3.7 0 .54-.18.86-.43 1.12 -.31.31-.73.55-1.33.89 -.55.31-1.26.71-1.8 1.32 -.59.65-.96 1.51-.96 2.64 0 .55.44 1 1 1h4.49c.55 0 1-.45 1-1 0-.56-.45-1-1-1H9.65c.06-.13.14-.23.22-.32 .29-.34.71-.6 1.29-.93l.1-.06c.51-.3 1.16-.67 1.66-1.19 .59-.62.98-1.43.98-2.52 0-.92-.39-1.7-1.02-2.23 -.62-.53-1.42-.78-2.24-.78 -1.15 0-1.94.41-2.46.88 -.25.22-.43.45-.54.63 -.06.08-.1.16-.14.22 -.02.03-.03.05-.04.07 -.01.01-.02.03-.03.04 0 0-.21.52-.01 0 -.21.51.04 1.09.55 1.29Z"/></svg>