<svg viewBox="0 0 24 24" xmlns="http://www.w3.org/2000/svg"><path fill="currentColor" d="M11.75 15c1.24 0 2.25 1 2.25 2.25 0 1.19-.93 2.16-2.096 2.24l-.16 0h-.75v1.75c0 .37-.29.69-.65.74l-.11 0c-.38 0-.7-.29-.75-.65l-.01-.11v-5.5c0-.38.28-.7.64-.75l.1-.01h1.5ZM18 15c1.1 0 2 .89 2 2 0 .41-.34.75-.75.75 -.38 0-.7-.29-.75-.65l-.01-.11c0-.25-.18-.45-.42-.5l-.09-.01h-.625c-.35 0-.625.27-.625.625 0 .31.23.57.53.61l.09 0h.5c1.17 0 2.125.95 2.125 2.125 0 1.12-.88 2.04-1.98 2.11l-.16 0h-.625c-1.11 0-2-.9-2-2 0-.42.33-.75.75-.75 .37 0 .69.28.74.64l0 .1c0 .24.17.44.41.49l.08 0h.625c.34 0 .625-.28.625-.625 0-.32-.24-.58-.54-.62l-.1-.01h-.5c-1.18 0-2.125-.96-2.125-2.125 0-1.13.87-2.05 1.97-2.12l.15-.01h.625ZM7.75 15c.41 0 .75.33.75.75 0 .37-.29.69-.65.74l-.11 0 -2.25-.01v1.5l1.75 0c.41 0 .75.33.75.75 0 .37-.29.69-.65.74l-.11 0 -1.75-.01v1.72c0 .37-.29.69-.65.74l-.11 0c-.38 0-.7-.29-.75-.65l-.01-.11v-5.49c0-.38.28-.7.64-.75l.1-.01h3Zm4 1.5H11V18h.75c.41 0 .75-.34.75-.75 0-.38-.29-.7-.65-.75l-.11-.01ZM8.25 3C9.76 3 11 4.23 11 5.75c0 .55-.45 1-1 1 -.52 0-.94-.39-1-.89l-.01-.12c0-.39-.29-.7-.65-.75l-.11-.01h-.25c-.52 0-.94.38-1 .88l-.01.11 0 1.17c.31-.12.64-.18.99-.18 1.65 0 3 1.34 3 3 0 1.65-1.35 3-3.01 3 -1.66 0-3-1.35-3-3l0-.11 -.01-.05V5.95c0-1.6 1.24-2.91 2.82-3l.17-.01h.24Zm6.74 0c1.59 0 2.9 1.24 2.99 2.82l0 .17v4c0 1.65-1.35 3-3 3 -1.6 0-2.91-1.25-3-2.83l-.01-.18v-4c0-1.66 1.34-3 3-3Zm-7 6c-.56 0-1 .44-1 1 0 .55.44 1 1 1 .55 0 1-.45 1-1 0-.56-.45-1-1-1Zm6.99-4c-.52 0-.94.38-1 .88l-.01.11v4c0 .55.44 1 1 1 .51 0 .93-.39.99-.89l0-.12v-4c0-.56-.45-1-1-1Z"/></svg>