<svg viewBox="0 0 24 24" xmlns="http://www.w3.org/2000/svg"><path fill="currentColor" d="M2.14 6.17c.5.2 1.07-.04 1.28-.54 0-.01.01-.03.03-.06 .03-.06.09-.14.19-.23 .17-.16.49-.37 1.1-.37 .42 0 .74.12.94.29 .18.15.3.37.3.7 0 .54-.18.86-.43 1.12 -.31.31-.73.55-1.33.89 -.55.31-1.25.71-1.8 1.32 -.59.65-.96 1.51-.96 2.64 0 .55.44 1 .99 1h4.49c.55 0 .99-.45.99-1 0-.56-.45-1-1-1H3.65c.06-.13.14-.23.22-.32 .29-.34.71-.6 1.29-.93l.1-.06c.51-.3 1.15-.67 1.66-1.19 .59-.62.98-1.43.98-2.52 0-.92-.39-1.7-1.02-2.23 -.62-.53-1.42-.78-2.24-.78 -1.14 0-1.94.41-2.46.88 -.25.22-.43.45-.54.63 -.06.08-.1.16-.14.22 -.02.03-.03.05-.04.07 -.01.01-.01.02-.02.02l-.01.01 -.01 0 -.01 0 -.01 0s-.21.52-.01 0c-.21.51.04 1.09.55 1.29Zm13.85-.18c0-1.66 1.34-3 2.99-3 1.65 0 2.99 1.34 2.99 3v4c0 1.65-1.35 3-3 3 -1.66 0-3-1.35-3-3v-4Zm2.99-1c-.56 0-1 .44-1 1v4c0 .55.44 1 .99 1s.99-.45.99-1v-4c0-.56-.45-1-1-1Zm-14.24 10c-.42 0-.75.33-.75.75v5.48c0 .41.33.75.74.75s.74-.34.74-.75v-1.73h1.74c.41 0 .74-.34.74-.75 0-.42-.34-.75-.75-.75H5.45v-1.51h2.24c.41 0 .74-.34.74-.75 0-.42-.34-.75-.75-.75h-3Zm4.74.75c0-.42.33-.75.74-.75h1.49c1.24 0 2.24 1 2.24 2.25 0 1.24-1.01 2.25-2.25 2.25h-.75v1.75c0 .41-.34.75-.75.75 -.42 0-.75-.34-.75-.75v-5.5Zm1.49 2.25h.74c.41 0 .74-.34.74-.75 0-.42-.34-.75-.75-.75h-.75v1.5Zm6.36-3c-1.18 0-2.13.95-2.13 2.125 0 1.17.95 2.125 2.12 2.125h.49c.34 0 .62.27.62.625 0 .34-.28.625-.63.625h-.63c-.28 0-.5-.23-.5-.5 0-.42-.34-.75-.75-.75 -.42 0-.75.33-.75.75 0 1.1.89 2 1.99 2h.62c1.17 0 2.12-.96 2.12-2.125 0-1.18-.96-2.125-2.13-2.125h-.5c-.35 0-.63-.28-.63-.625 0-.35.27-.625.62-.625h.62c.27 0 .49.22.49.5 0 .41.33.75.74.75s.74-.34.74-.75c0-1.11-.9-2-2-2h-.63ZM14.95 3.98c-.01-.56-.46-1-1.01-1 -.56 0-1 .45-1 1l.01 2.99h-2.02v-3c0-.56-.45-1-1-1 -.56 0-1 .44-1 1v3.99c0 .55.44 1 .99 1h3.02v3c0 .55.44 1 .99 1s.99-.45.99-1v-4.6c0-.04-.01-.07-.01-.1l-.02-3.32Z"/></svg>