<svg viewBox="0 0 24 24" xmlns="http://www.w3.org/2000/svg"><path fill="currentColor" d="M5.25 2c.41 0 .75.33.75.75V4.5h12V2.75c0-.42.33-.75.75-.75 .41 0 .75.33.75.75V4.5h1.75c.41 0 .75.33.75.75 0 .41-.34.75-.75.75H19.5v12h1.75c.41 0 .75.33.75.75 0 .41-.34.75-.75.75H19.5v1.75c0 .41-.34.75-.75.75 -.42 0-.75-.34-.75-.75V19.5H6v1.75c0 .41-.34.75-.75.75 -.42 0-.75-.34-.75-.75V19.5H2.75c-.42 0-.75-.34-.75-.75 0-.42.33-.75.75-.75H4.5V6H2.75C2.33 6 2 5.66 2 5.25c0-.42.33-.75.75-.75H4.5V2.75c0-.42.33-.75.75-.75Z"/></svg>