<svg viewBox="0 0 24 24" xmlns="http://www.w3.org/2000/svg"><path fill="currentColor" d="M5 6c0-.56.44-1 1-1h2c.55 0 1-.45 1-1 0-.56-.45-1-1-1H6C4.34 3 3 4.34 3 6v2c0 .55.44 1 1 1 .55 0 1-.45 1-1V6Zm0 12c0 .55.44 1 1 1h2c.55 0 1 .44 1 1 0 .55-.45 1-1 1H6c-1.66 0-3-1.35-3-3v-2c0-.56.44-1 1-1 .55 0 1 .44 1 1v2ZM18 5c.55 0 1 .44 1 1v2c0 .55.44 1 1 1 .55 0 1-.45 1-1V6c0-1.66-1.35-3-3-3h-2c-.56 0-1 .44-1 1 0 .55.44 1 1 1h2Zm1 13c0 .55-.45 1-1 1h-2c-.56 0-1 .44-1 1 0 .55.44 1 1 1h2c1.65 0 3-1.35 3-3v-2c0-.56-.45-1-1-1 -.56 0-1 .44-1 1v2Z"/></svg>