<svg viewBox="0 0 24 24" xmlns="http://www.w3.org/2000/svg"><path fill="currentColor" d="M9 4c0-.56-.45-1-1-1 -.56 0-1 .44-1 1v2.5c0 .27-.23.5-.5.5H4c-.56 0-1 .44-1 1 0 .55.44 1 1 1h2.5C7.88 9 9 7.88 9 6.5V4Zm0 16c0 .55-.45 1-1 1 -.56 0-1-.45-1-1v-2.5c0-.28-.23-.5-.5-.5H4c-.56 0-1-.45-1-1 0-.56.44-1 1-1h2.5C7.88 15 9 16.11 9 17.5V20Zm7-17c-.56 0-1 .44-1 1v2.5C15 7.88 16.11 9 17.5 9H20c.55 0 1-.45 1-1 0-.56-.45-1-1-1h-2.5c-.28 0-.5-.23-.5-.5V4c0-.56-.45-1-1-1Zm-1 17c0 .55.44 1 1 1 .55 0 1-.45 1-1v-2.5c0-.28.22-.5.5-.5H20c.55 0 1-.45 1-1 0-.56-.45-1-1-1h-2.5c-1.39 0-2.5 1.11-2.5 2.5V20Z"/></svg>