<svg viewBox="0 0 24 24" xmlns="http://www.w3.org/2000/svg"><path fill="currentColor" d="M14.99 5c3.86 0 7 3.13 7 7 0 3.78-3.01 6.86-6.76 6.99l-.25 0h-6c-3.87 0-7-3.14-7-7 0-3.79 3-6.87 6.75-7l.24-.01h5.99Zm-.25 7.5c-.7 0-1.25.55-1.25 1.25 0 .69.55 1.25 1.25 1.25 .69 0 1.25-.56 1.25-1.25 0-.7-.56-1.25-1.25-1.25ZM7.99 9c-.38 0-.7.28-.75.64l-.01.1v1.49l-1.5 0c-.42 0-.75.33-.75.75 0 .37.28.69.64.74l.1 0 1.5-.01v1.5c0 .41.33.75.75.75 .37 0 .69-.29.74-.65l0-.11v-1.51l1.5 0c.41 0 .75-.34.75-.75 0-.38-.29-.7-.65-.75l-.11-.01 -1.5-.01v-1.5c0-.42-.34-.75-.75-.75Zm8.75 0c-.7 0-1.25.55-1.25 1.25 0 .69.55 1.25 1.25 1.25 .69 0 1.25-.56 1.25-1.25 0-.7-.56-1.25-1.25-1.25Z"/></svg>