<svg viewBox="0 0 24 24" xmlns="http://www.w3.org/2000/svg"><path fill="currentColor" d="M2 7.25C2 5.45 3.45 4 5.25 4h3v3H6c-1.11 0-2 .89-2 2 0 1.1.89 2 2 2h2.25v9h-3C3.45 20 2 18.54 2 16.75v-9.5ZM9.25 20v-9H10v1c0 1.1.89 2 2 2h1v1c0 1.01.76 1.86 1.75 1.98v3.01h-5.5ZM12 10h2.75V4h-5.5v3H10c1.1 0 2 .89 2 2v1Zm6 7h-2.25v3h3c1.79 0 3.25-1.46 3.25-3.25v-9.5C22 5.45 20.54 4 18.75 4h-3v6H16c1.1 0 2 .89 2 2v1c1.1 0 2 .89 2 2 0 1.1-.9 2-2 2ZM6 8c-.56 0-1 .44-1 1 0 .55.44 1 1 1h4c.55 0 1-.45 1-1 0-.56-.45-1-1-1H6Zm5 4c0-.56.44-1 1-1h4c.55 0 1 .44 1 1 0 .55-.45 1-1 1h-4c-.56 0-1-.45-1-1Zm4 2c-.56 0-1 .44-1 1 0 .55.44 1 1 1h3c.55 0 1-.45 1-1 0-.56-.45-1-1-1h-3Z"/></svg>