<svg viewBox="0 0 24 24" xmlns="http://www.w3.org/2000/svg"><path fill="currentColor" d="M6.75 3C5.23 3 3.99 4.23 3.99 5.75V20.5h-.25c-.42 0-.76.33-.76.75 0 .41.33.75.75.75h13.5c.41 0 .75-.34.75-.75 0-.42-.34-.75-.75-.75h-.25v-1.81c.37.19.8.3 1.25.3 1.51 0 2.74-1.23 2.74-2.75V10.4c0-.6-.2-1.18-.55-1.66l-1.1-1.47c-.25-.34-.72-.4-1.05-.15 -.34.24-.4.71-.15 1.05l1.1 1.46c.16.21.25.47.25.75v5.83c0 .68-.56 1.24-1.25 1.24s-1.25-.56-1.25-1.25v-1.76c0-.05-.01-.09-.01-.13V5.68c0-1.52-1.24-2.75-2.75-2.75H6.7ZM7 6.75c0-.42.33-.75.75-.75h5.5c.41 0 .75.33.75.75v3.5c0 .41-.34.75-.75.75H7.74c-.42 0-.76-.34-.76-.75v-3.5Z"/></svg>