<svg viewBox="0 0 24 24" xmlns="http://www.w3.org/2000/svg"><path fill="currentColor" d="M13.14 2.3c.14-.2.36-.31.6-.31h4.5c.41 0 .75.33.75.75v3.75c0 .04-.01.08-.01.12 .61.5 1 1.27 1 2.12v10.5c0 1.51-1.24 2.75-2.75 2.75H6.73c-1.52 0-2.75-1.24-2.75-2.75V8.73c0-1.52 1.23-2.75 2.75-2.75h.75v-.25c0-.97-.79-1.75-1.75-1.75h-1c-.42 0-.75-.34-.75-.75 0-.42.33-.75.75-.75h1c1.79 0 3.25 1.45 3.25 3.25v.25h1.43l2.7-3.7Zm4.35 1.19h-3.37l-1.84 2.5h4.95c.08 0 .16 0 .25.01V3.48ZM8.2 10.2c-.3.29-.3.76 0 1.06l2.71 2.71 -2.72 2.71c-.3.29-.3.76 0 1.06 .29.29.76.29 1.06 0l2.71-2.72 2.71 2.71c.29.29.76.29 1.06 0 .29-.3.29-.77 0-1.07l-2.72-2.72 2.71-2.72c.29-.3.29-.77 0-1.07 -.3-.3-.77-.3-1.07 0l-2.72 2.71 -2.72-2.72c-.3-.3-.77-.3-1.07 0Z"/></svg>