<svg viewBox="0 0 24 24" xmlns="http://www.w3.org/2000/svg"><path fill="currentColor" d="M7.19 9.59v4.8h-4.8V9.58h4.8ZM2.56 20.21c-.12-.12-.18-.27-.18-.43v-4.2h4.8v2.4c0 .63-.26 1.24-.71 1.69 -.46.45-1.07.7-1.7.7h-1.8c-.16 0-.32-.07-.43-.18Zm.42-16.63h1.8c.63-.001 1.24.25 1.69.7 .45.45.7 1.06.7 1.69v2.4h-4.8v-4.2c0-.16.06-.32.17-.43 .11-.12.26-.18.42-.18Zm18.6 4.2v4.2h-4.8V9.57c0-.64.25-1.25.7-1.7 .44-.45 1.05-.71 1.69-.71h1.8c.15 0 .31.06.42.17 .11.11.17.26.17.42Zm0 9.6v-4.2h-4.8v2.4c0 .63.25 1.24.7 1.69 .44.44 1.05.7 1.69.7h1.8c.15 0 .31-.07.42-.18 .11-.12.17-.27.17-.43Zm-9.43-4.03c-.12.11-.18.26-.18.42 0 .15.06.31.17.42 .11.11.26.17.42.17 .15 0 .31-.07.42-.18l1.8-1.8c.05-.06.1-.13.13-.2 .03-.08.04-.16.04-.23 0-.08-.02-.16-.05-.23 -.04-.08-.08-.14-.14-.2l-1.8-1.8c-.12-.12-.27-.18-.43-.18 -.16 0-.32.06-.43.17 -.12.11-.18.26-.18.42 0 .15.06.31.17.42l.77.77H9.5c-.16 0-.32.06-.43.17 -.12.11-.18.26-.18.42 0 .15.06.31.17.42 .11.11.26.17.42.17h3.35l-.78.77Z"/></svg>