<svg viewBox="0 0 24 24" xmlns="http://www.w3.org/2000/svg"><path fill="currentColor" d="M12 22c5.52 0 10-4.48 10-10 0-5.53-4.48-10-10-10C6.47 2 2 6.47 2 12c0 5.52 4.47 10 10 10Zm3.87-15.34c.22-.2.55-.21.79-.02 .23.18.3.51.16.77l-.13.25c-.09.15-.21.38-.35.66 -.29.55-.68 1.29-1.08 2.04s-.82 1.53-1.16 2.15c-.18.31-.33.58-.46.8 -.12.2-.24.39-.32.49 -.65.81-1.83.94-2.64.3 -.82-.65-.95-1.83-.31-2.64 .08-.11.24-.27.41-.43 .18-.18.41-.39.67-.63 .52-.48 1.18-1.06 1.83-1.63 .64-.57 1.27-1.11 1.74-1.52 .23-.21.43-.38.56-.49l.21-.19ZM7.92 17.11c-.3.29-.77.29-1.07 0 -2.84-2.84-2.84-7.43 0-10.26C8.69 5 11.28 4.36 13.64 4.92c.4.09.65.49.55.9 -.1.4-.5.65-.91.55 -1.88-.45-3.94.06-5.4 1.52 -2.25 2.24-2.25 5.88 0 8.13 .29.29.29.76 0 1.06Zm9.95-7.99c.39-.14.81.06.95.46 .88 2.54.31 5.48-1.72 7.52 -.3.29-.77.29-1.07 0 -.3-.3-.3-.77 0-1.07 1.61-1.62 2.06-3.95 1.36-5.97 -.14-.4.06-.82.46-.96Z"/></svg>