<svg viewBox="0 0 24 24" xmlns="http://www.w3.org/2000/svg"><path fill="currentColor" d="M12 21.6c5.3 0 9.6-4.3 9.6-9.6 0-5.31-4.3-9.6-9.6-9.6 -5.31 0-9.6 4.298-9.6 9.59 -.001.1 0 .2 0 .3 .71-.59 1.54-1.03 2.46-1.28 .2-1.51.88-2.97 2.04-4.13 2.08-2.09 5.12-2.63 7.7-1.62 .3.12.46.46.34.77 -.13.3-.47.46-.78.34 -2.16-.84-4.69-.39-6.43 1.34 -.87.86-1.42 1.93-1.65 3.06 .15-.02.32-.02.48-.02 1.41 0 2.72.44 3.8 1.2 .07-.21.18-.4.33-.58 .08-.11.24-.25.41-.4 .18-.16.41-.36.67-.58 .52-.44 1.17-.98 1.81-1.49 .63-.52 1.26-1.02 1.73-1.4l.32-.27 .44-.36c.22-.18.54-.18.76.01 .21.18.27.5.13.75l-.14.23c-.09.14-.21.36-.36.62 -.14.24-.3.52-.47.82l-.28.48 -.36.62c-.17.29-.34.58-.51.87 -.25.41-.48.8-.69 1.15 -.18.29-.34.55-.47.75 -.05.06-.09.13-.13.19 -.04.04-.07.08-.09.12 -.04.05-.08.1-.11.14 -.28.31-.64.51-1.02.59 .47.9.73 1.94.73 3.03 0 1.59-.57 3.05-1.51 4.19 .1 0 .2 0 .3 0Zm6.7-12.22c1 2.57.46 5.62-1.62 7.709 -.24.23-.62.23-.85 0 -.24-.24-.24-.62 0-.85 1.73-1.74 2.18-4.28 1.34-6.43 -.13-.31.03-.66.34-.78 .3-.13.65.03.77.34Zm-9.11 12.5c-.89.59-1.94.91-3.01.91 -1.44 0-2.81-.57-3.82-1.59 -1.02-1.02-1.59-2.39-1.59-3.82 0-1.07.31-2.112.91-3.01 .59-.89 1.43-1.59 2.42-1.99 .98-.41 2.07-.52 3.11-.31 1.04.2 2 .72 2.76 1.47 .75.75 1.26 1.71 1.47 2.76 .2 1.04.1 2.13-.31 3.12 -.41.98-1.11 1.83-1.99 2.42Zm-2.58-7.32c-.12-.12-.27-.18-.43-.18 -.16 0-.32.06-.43.17 -.12.11-.18.26-.18.42v1.8h-1.8c-.16 0-.32.06-.43.17 -.12.11-.18.26-.18.42 0 .15.06.31.17.42 .11.11.26.17.42.17h1.8v1.8c0 .15.06.31.17.42 .11.11.26.17.42.17 .15 0 .31-.07.42-.18 .11-.12.17-.27.17-.43v-1.8h1.8c.15 0 .31-.07.42-.18 .11-.12.17-.27.17-.43 0-.16-.07-.32-.18-.43 -.12-.12-.27-.18-.43-.18h-1.8v-1.8c0-.16-.07-.32-.18-.43Z"/></svg>