<svg viewBox="0 0 24 24" xmlns="http://www.w3.org/2000/svg"><path fill="currentColor" d="M7.99 9.1c-.95-.64-1.08-1.97-.28-2.77l3.4-3.41c.78-.79 2.08-.68 2.73.22l.56.78 -5.68 5.67 -.76-.51Zm1.77 1.19l5.37-5.38 1.58 2.2c.03.05.08.09.13.13l2.2 1.58 -1.96 1.95c-1.73.07-3.28.8-4.41 1.94l-.53-.78c-.05-.07-.1-.13-.17-.17l-2.26-1.51Zm8.92.62c1.03.2 1.98.65 2.78 1.28 .27-.74.04-1.6-.64-2.09l-.79-.57 -1.37 1.36Zm-7.54 4.3c.18-.54.44-1.05.75-1.52l-.66-.99 -1.44-.97 -6.94 6.93c-.67.66-.67 1.73 0 2.39 .66.66 1.73.66 2.39 0l5.87-5.88Zm.83 2.16c0 2.98 2.41 5.4 5.4 5.4 2.98 0 5.4-2.42 5.4-5.4 0-2.99-2.42-5.4-5.4-5.4 -2.99 0-5.4 2.41-5.4 5.4Zm1.2 0c0-2.32 1.88-4.2 4.2-4.2 .94 0 1.81.31 2.51.83L14 19.87c-.53-.71-.84-1.58-.84-2.52Zm4.2 4.2c-.95 0-1.82-.32-2.52-.84l5.87-5.88c.52.7.83 1.57.83 2.51 0 2.31-1.89 4.2-4.2 4.2Z"/></svg>