<svg viewBox="0 0 24 24" xmlns="http://www.w3.org/2000/svg"><path fill="currentColor" d="M10.72 2.71c.97-.98 2.59-.86 3.41.26l.32.44 -6.48 6.47 -.38-.26c-1.19-.79-1.35-2.46-.35-3.47l3.46-3.47Zm-1.47 8.02l2.56 1.7c.08.05.16.13.21.22l1.23 1.93 6.01-6.02 -2.15-1.57c-.07-.05-.12-.11-.17-.17l-1.62-2.23 -6.1 6.09Zm5.1 5.58l-.27-.43 6.41-6.42 .51.37c1.11.81 1.24 2.43.26 3.41l-3.44 3.43c-1.02 1.01-2.72.83-3.49-.39Zm-5.03-4.03l-6.08 5.95c-.7.68-.71 1.8-.02 2.5 .68.68 1.8.68 2.48-.01l6.08-6.09 -.79-1.25 -1.7-1.14Zm5.4 6.7c-.42 0-.75.33-.75.75 0 .41.33.75.75.75h-2c-.42 0-.75.33-.75.75 0 .41.33.75.75.75h8.5c.41 0 .75-.34.75-.75 0-.42-.34-.75-.75-.75h-2c.41 0 .75-.34.75-.75 0-.42-.34-.75-.75-.75h-4.5Z"/></svg>