<svg viewBox="0 0 24 24" xmlns="http://www.w3.org/2000/svg"><path fill="currentColor" d="M18.75 3.5C20.54 3.5 22 4.95 22 6.75v10.5c0 1.79-1.46 3.25-3.25 3.25H5.25C3.45 20.5 2 19.04 2 17.25V6.74c0-1.8 1.45-3.25 3.25-3.25h13.5ZM8.01 8.87c-1.63 0-2.76 1.4-2.76 3.12 0 1.71 1.12 3.12 2.75 3.12 .88 0 1.7-.43 2.11-1.22l.07-.17 .02-.07 .01-.08 0-.09 0-1.53 -.01-.1c-.04-.27-.25-.49-.52-.53l-.11-.01H8.56l-.1 0c-.27.03-.49.24-.53.51l-.01.1 0 .09c.03.26.24.48.51.52l.1 0 .37-.01v.73l-.01.01c-.19.32-.56.5-.99.5 -.87 0-1.51-.8-1.51-1.88 0-1.08.63-1.88 1.5-1.88 .42 0 .66.04.96.19 .31.14.68.01.83-.3 .14-.32.01-.69-.3-.84 -.49-.24-.91-.32-1.51-.32Zm4.61.12c-.32 0-.58.23-.62.53l-.01.09v4.76l0 .09c.04.3.3.53.61.53s.57-.24.61-.54l0-.1V9.58l-.01-.1c-.05-.31-.31-.54-.62-.54Zm4.99 0l-2-.01c-.32-.01-.58.22-.63.53l-.01.09v4.74l0 .09c.03.26.24.48.51.52l.1 0 .09-.01c.26-.04.48-.25.52-.52l0-.11 -.01-1.12 1.12 0 .09-.01c.26-.04.48-.25.52-.52l0-.11 -.01-.1c-.04-.27-.25-.49-.52-.53l-.11-.01 -1.13-.01v-1.76l1.37 0 .09-.01c.3-.05.53-.31.53-.62 0-.32-.23-.58-.54-.63l-.1-.01 -2-.01 1.99 0Z"/></svg>