<svg viewBox="0 0 24 24" xmlns="http://www.w3.org/2000/svg"><path fill="currentColor" d="M17 3c0 .55-.45 1-1 1 -.56 0-1-.45-1-1 0-.56.44-1 1-1 .55 0 1 .44 1 1ZM8 9.5c0-1.66 1.34-3 3-3 2.07 0 3.75 1.67 3.75 3.75 0 2.48-2.02 4.5-4.5 4.5 -.42 0-.75.33-.75.75 0 .41.33.75.75.75 3.31 0 6-2.69 6-6C16.25 7.35 13.89 5 11 5 8.51 5 6.5 7.01 6.5 9.5c0 2.07 1.67 3.75 3.75 3.75 1.65 0 3-1.35 3-3C13.25 9 12.24 8 11 8c-.83 0-1.5.67-1.5 1.5 0 .41.33.75.75.75 .41 0 .75-.34.75-.75 .41 0 .75.33.75.75 0 .82-.68 1.5-1.5 1.5C9 11.75 8 10.74 8 9.5Zm1.16 4.62c-.41.32-.67.81-.67 1.37 0 .96.78 1.75 1.75 1.75 3.26 0 6-2.24 6.77-5.25h1.46c.64 0 1.26.18 1.8.54l2.37 1.58c.34.22.43.69.2 1.04 -.23.34-.7.43-1.04.2l-1.84-1.23v4.59c0 1.79-1.46 3.25-3.25 3.25h-9.5c-1.8 0-3.25-1.46-3.25-3.25v-4.6l-1.84 1.22c-.35.22-.82.13-1.05-.21 -.23-.35-.14-.82.2-1.04l2.37-1.59c.53-.36 1.16-.55 1.8-.55h.7c.65 1.05 1.71 1.83 2.95 2.12Zm11.08-9.13c0-.42-.34-.75-.75-.75 -.42 0-.75.33-.75.75v.75h-.75c-.42 0-.75.33-.75.75 0 .41.33.75.75.75h.75v.75c0 .41.33.75.75.75 .41 0 .75-.34.75-.75v-.75h.75c.41 0 .75-.34.75-.75 0-.42-.34-.75-.75-.75h-.75v-.75Z"/></svg>