<svg viewBox="0 0 24 24" xmlns="http://www.w3.org/2000/svg"><path fill="currentColor" d="M7.99 2h-3c-1.66 0-3 1.34-3 3v3h2.7c-.14-.31-.21-.65-.21-1 0-1.39 1.11-2.5 2.49-2.5 .35-.01.69.07.99.2V1.99Zm-6 7.5V14c0 1.65 1.34 3 3 3h2.99v-6.44l-1.72 1.71c-.3.29-.77.29-1.07 0 -.3-.3-.3-.77 0-1.07L6.9 9.48H1.96ZM9.48 17h1.5v-.5c0-1.39 1.11-2.5 2.5-2.5h8c.17 0 .33.01.5.05V9.5H10.54l1.71 1.71c.29.29.29.76 0 1.06 -.3.29-.77.29-1.07 0l-1.72-1.72v6.43Zm12.5-9h-9.208c.13-.31.2-.65.2-1 0-1.39-1.12-2.5-2.5-2.5 -.36 0-.7.07-1.01.2V1.99h9.5c1.65 0 3 1.34 3 3v3Zm-11.5 0h-1V7c0-.56.44-1 1-1 .55 0 1 .44 1 1 0 .55-.45 1-1 1ZM7.97 8h-1c-.56 0-1-.45-1-1 0-.56.44-1 1-1 .54-.01.99.44.99.99v1Zm4 8.5c0-.83.67-1.5 1.5-1.5h8c.82 0 1.5.67 1.5 1.5v4c0 .82-.68 1.5-1.5 1.5h-8c-.83 0-1.5-.68-1.5-1.5v-4Zm10 .5c-.56 0-1-.45-1-1h-1c0 1.1.89 2 2 2v-1Zm0 2c-1.11 0-2 .89-2 2h1c0-.56.44-1 1-1v-1Zm-8-3c0 .55-.45 1-1 1v1c1.1 0 2-.9 2-2h-1Zm1 5c0-1.11-.9-2-2-2v1c.55 0 1 .44 1 1h1Zm4.25-2.5c0-.97-.79-1.75-1.75-1.75 -.97 0-1.75.78-1.75 1.75 0 .96.78 1.75 1.75 1.75 .96 0 1.75-.79 1.75-1.75Z"/></svg>