<svg viewBox="0 0 24 24" xmlns="http://www.w3.org/2000/svg"><path fill="currentColor" d="M11.25 13v9h-4C5.45 22 4 20.54 4 18.75V13h7.25ZM20 13v5.75c0 1.79-1.46 3.25-3.25 3.25h-4v-9H20ZM14.5 2c1.79 0 3.25 1.45 3.25 3.25 0 .64-.19 1.24-.52 1.75l2.51-.01c.69 0 1.25.46 1.25 1.04v2.91c0 .57-.56 1.04-1.25 1.04l-7-.01v-5h-1.5v4.99l-7 0c-.7 0-1.25-.47-1.25-1.05V7.99c0-.58.55-1.05 1.25-1.05l2.51 0c-.33-.51-.52-1.11-.52-1.76 0-1.8 1.45-3.25 3.25-3.25 1 0 1.9.45 2.5 1.17 .59-.72 1.49-1.18 2.49-1.18Zm-5 1.5c-.97 0-1.75.78-1.75 1.75 0 .91.7 1.67 1.6 1.74l.14 0h1.75V5.24l-.01-.15c-.08-.9-.83-1.61-1.75-1.61Zm5 0c-.97 0-1.75.78-1.75 1.75V7h1.75c.96 0 1.75-.79 1.75-1.75 0-.97-.79-1.75-1.75-1.75Z"/></svg>