<svg viewBox="0 0 24 24" xmlns="http://www.w3.org/2000/svg"><path fill="currentColor" d="M9.5 19H19c1.65 0 3-1.35 3-3v-4.5H10.56l1.71 1.71c.29.29.29.76 0 1.06 -.3.29-.77.29-1.07 0l-1.72-1.72v6.43ZM8 10V9c0-.01 0 0 0 0 -.01-.56-.45-1-1-1 -.56 0-1 .44-1 1 0 .55.44 1 1 1h1Zm1.5-1v1h1c.55 0 1-.45 1-1 0-.56-.45-1-1-1 -.56 0-1 .44-1 1Zm0-2.3V3.99H19c1.65 0 3 1.34 3 3v3h-9.208c.13-.31.2-.65.2-1 0-1.39-1.12-2.5-2.5-2.5 -.36 0-.7.07-1 .2ZM8 3.99v2.7c-.31-.14-.65-.21-1-.21 -1.39 0-2.5 1.11-2.5 2.5 0 .35.07.69.2 1H1.99v-3c0-1.66 1.34-3 3-3h3Zm0 8.56v6.43H5c-1.66 0-3-1.35-3-3v-4.5h4.93l-1.72 1.71c-.3.29-.3.76 0 1.06 .29.29.76.29 1.06 0l1.71-1.72Z"/></svg>