<svg viewBox="0 0 24 24" xmlns="http://www.w3.org/2000/svg"><path fill="currentColor" d="M7.99 2h-3c-1.66 0-3 1.34-3 3v3h2.7c-.14-.31-.21-.65-.21-1 0-1.39 1.11-2.5 2.49-2.5 .35-.01.69.07.99.2V1.99Zm-6 7.5V14c0 1.65 1.34 3 3 3h2.99v-6.44l-1.72 1.71c-.3.29-.77.29-1.07 0 -.3-.3-.3-.77 0-1.07L6.9 9.48H1.96ZM9.48 17h1.51c.25-3.36 3.05-6 6.48-6 1.74 0 3.33.68 4.5 1.8V9.49H10.53l1.71 1.71c.29.29.29.76 0 1.06 -.3.29-.77.29-1.07 0l-1.72-1.72v6.43Zm12.5-9h-9.208c.13-.31.2-.65.2-1 0-1.39-1.12-2.5-2.5-2.5 -.36 0-.7.07-1.01.2V1.99h9.5c1.65 0 3 1.34 3 3v3Zm-11.5 0h-1V7c0-.56.44-1 1-1 .55 0 1 .44 1 1 0 .55-.45 1-1 1ZM7.97 8h-1c-.56 0-1-.45-1-1 0-.56.44-1 1-1 .54-.01.99.44.99.99v1Zm15 9.5c0 3.03-2.47 5.5-5.5 5.5 -3.04 0-5.5-2.47-5.5-5.5 0-3.04 2.46-5.5 5.5-5.5 3.03 0 5.5 2.46 5.5 5.5Zm-8.5-.5c-.28 0-.5.22-.5.5 0 .27.22.5.5.5h4.79l-1.65 1.64c-.2.19-.2.51 0 .7 .19.19.51.19.7 0l2.5-2.5c.19-.2.19-.52 0-.71l-2.5-2.5c-.2-.2-.52-.2-.71 0 -.2.19-.2.51 0 .7l1.64 1.64h-4.8Z"/></svg>