<svg viewBox="0 0 24 24" xmlns="http://www.w3.org/2000/svg"><path fill="currentColor" d="M5 4h2.99v2.7c-.31-.14-.65-.21-1-.21 -1.39 0-2.5 1.11-2.5 2.49 0 .35.07.69.2 1H1.98v-3c0-1.66 1.34-3 3-3ZM2 14.5v-3h4.93l-1.72 1.71c-.3.29-.3.76 0 1.06 .29.29.76.29 1.06 0l1.71-1.72v4.93h-3c-1.66 0-3-1.35-3-3Zm7.49 3h7c1.65 0 3-1.35 3-3v-3h-8.94l1.71 1.71c.29.29.29.76 0 1.06 -.3.29-.77.29-1.07 0l-1.72-1.72v4.93Zm3.29-7.5h6.708V7c0-1.66-1.35-3-3-3h-7.01v2.7c.3-.14.64-.21 1-.21 1.38 0 2.5 1.11 2.5 2.5 0 .35-.08.69-.21 1Zm-2.292 0h-1V9c0-.56.44-1 1-1 .55 0 1 .44 1 1 0 .55-.45 1-1 1Zm-3.5 0h.99V8.99c-.01-.55-.46-1-1-1 -.56 0-1 .44-1 .99s.44 1 1 1Zm.5 10c-1.12 0-2.08-.61-2.6-1.5h11.59c2.2 0 4-1.8 4-4V6.9c.89.51 1.5 1.48 1.5 2.59v4.99c0 3.03-2.47 5.5-5.5 5.5h-9Z"/></svg>