<svg viewBox="0 0 24 24" xmlns="http://www.w3.org/2000/svg"><path fill="currentColor" d="M19.25 11c.96 0 1.75.78 1.75 1.75v6.5c0 .96-.79 1.75-1.75 1.75h-4.5c-.97 0-1.75-.79-1.75-1.75v-6.5c0-.97.78-1.75 1.75-1.75h4.5Zm-9.99 4.01c.96 0 1.75.78 1.75 1.75v2.48c0 .96-.79 1.75-1.76 1.75H4.73c-.97 0-1.75-.79-1.75-1.75v-2.49c0-.97.78-1.75 1.75-1.75h4.51ZM9.24 2.99c.96 0 1.75.78 1.75 1.75v6.5c0 .91-.71 1.67-1.61 1.74l-.15 0h-4.5c-.97 0-1.75-.79-1.75-1.75v-6.5c0-.97.78-1.75 1.75-1.75h4.5Zm9.99 0c.96 0 1.75.78 1.75 1.75v2.5c0 .96-.79 1.75-1.75 1.75h-4.5c-.97 0-1.75-.79-1.75-1.75v-2.5c0-.97.78-1.75 1.75-1.75h4.5Z"/></svg>