<svg viewBox="0 0 24 24" xmlns="http://www.w3.org/2000/svg"><path fill="currentColor" d="M13 4.75C13 3.78 12.21 3 11.25 3h-6.5C3.78 3 3 3.78 3 4.75v4.5c0 .96.78 1.75 1.75 1.75h6.49c.96 0 1.75-.79 1.75-1.76v-4.5Zm-4.02 9.98c0-.97-.79-1.75-1.75-1.75H4.74c-.97 0-1.75.78-1.75 1.75v4.51c0 .96.78 1.75 1.75 1.75h2.48c.96 0 1.75-.79 1.75-1.75v-4.52Zm12.01.01c0-.97-.79-1.75-1.75-1.75h-6.5c-.92 0-1.68.7-1.75 1.6l-.01.14v4.5c0 .96.78 1.75 1.75 1.75h6.5c.96 0 1.75-.79 1.75-1.75v-4.5Zm0-10c0-.97-.79-1.75-1.75-1.75h-2.5c-.97 0-1.75.78-1.75 1.75v4.5c0 .96.78 1.75 1.75 1.75h2.5c.96 0 1.75-.79 1.75-1.76v-4.5Z"/></svg>