<svg viewBox="0 0 24 24" xmlns="http://www.w3.org/2000/svg"><path fill="currentColor" d="M7.9 5h.84c.41 0 .75.33.75.75 0 .37-.29.69-.65.74l-.11 0h-.85c-.18 0-.35.06-.48.17l-.08.07 -2.08 2.25 3.46 0c1.15 0 2.11.87 2.23 2h2.02c.12-1.13 1.07-2.01 2.23-2.01l3.47-.01 -2.09-2.26c-.12-.13-.28-.22-.45-.24L16 6.45h-.85c-.42 0-.75-.34-.75-.75 0-.38.28-.7.64-.75l.1-.01h.84c.56 0 1.1.21 1.52.59l.13.13 3.64 3.94c.05.05.09.11.12.17 .3.38.48.87.48 1.4v3.49c0 1.79-1.46 3.25-3.25 3.25h-2.5c-1.8 0-3.25-1.46-3.25-3.25l-.01-2.25h-2.01l0 2.24c0 1.79-1.46 3.25-3.25 3.25H5.1c-1.8 0-3.25-1.46-3.25-3.25v-3.5c0-.57.2-1.08.54-1.47l.03-.06 .04-.06 3.62-3.95c.38-.42.9-.68 1.46-.72l.18-.01h.84 -.85Z"/></svg>