<svg viewBox="0 0 24 24" xmlns="http://www.w3.org/2000/svg"><path fill="currentColor" d="M3.28 2.21c-.3-.3-.77-.3-1.07-.01 -.3.29-.3.76-.01 1.06l3.27 3.27L2.6 9.64l-.05.05 -.04.05c-.35.39-.55.9-.55 1.46v3.49c0 1.79 1.45 3.25 3.25 3.25H7.7c1.79 0 3.24-1.46 3.24-3.25l-.01-2.25h.44l1.55 1.55 0 .68c0 1.79 1.45 3.25 3.25 3.25h.68l3.78 3.78c.29.29.76.29 1.06 0 .29-.3.29-.77 0-1.07L3.19 2.12Zm4.65 6.77l-2.66-.01 1.27-1.39 1.38 1.38Zm5.36 1.12l7.29 7.29c.84-.59 1.39-1.57 1.39-2.68v-3.5c0-.53-.19-1.02-.49-1.41 -.04-.07-.08-.13-.13-.18L17.7 5.67l-.14-.14c-.42-.38-.96-.6-1.53-.6h-.85l-.11 0c-.37.04-.65.36-.65.74 0 .41.33.75.75.75h.84l.1 0c.17.02.32.1.44.23l2.08 2.25 -3.48 0c-.84 0-1.56.45-1.95 1.12Z"/></svg>