<svg viewBox="0 0 24 24" xmlns="http://www.w3.org/2000/svg"><path fill="currentColor" d="M8.9 16.5h3.61c-.02.16-.03.33-.03.49 0 1.2.45 2.36 1.27 3.48 -.55.95-1.16 1.51-1.78 1.51 -1.2 0-2.41-2.1-3.04-5.21l-.06-.3ZM8.66 15h4.2c.49-1.26 1.43-2.3 2.62-2.91l0-.1c0-.69-.03-1.36-.08-2.01H8.55l-.04.48c-.03.49-.05.99-.05 1.51 0 1.04.06 2.05.17 3Zm9.32-3.51c1.54 0 2.93.63 3.93 1.65 .04-.38.06-.77.06-1.16 0-.69-.07-1.36-.2-2.01l-4.88 0 .03.65c.01.3.02.61.02.93 .32-.06.65-.1 1-.1Zm-14.94 5l4.3-.01c.36 2.08.98 3.85 1.79 5.09 -2.57-.76-4.7-2.52-5.96-4.82l-.15-.28Zm-.87-6.51l4.87 0c-.05.65-.08 1.31-.08 1.99 0 .82.03 1.63.1 2.42l.05.58H2.4c-.3-.95-.46-1.96-.46-3.01 0-.69.06-1.36.2-2.01Zm12.74-7.43l-.11-.18c3.01.89 5.44 3.16 6.53 6.09l-4.6 0c-.32-2.42-.96-4.5-1.84-5.93ZM9 2.41l.12-.04c-.89 1.34-1.54 3.32-1.89 5.65l-.07.43 -4.6-.01c1.07-2.89 3.45-5.15 6.41-6.06Zm2.95-.45c1.31 0 2.64 2.54 3.21 6.18l.04.31H8.67c.53-3.81 1.9-6.5 3.26-6.5Zm10.5 14.99c0-2.49-2.02-4.5-4.5-4.5 -2.49 0-4.5 2.01-4.5 4.5 0 1.86 1.41 3.81 4.2 5.9 .17.13.42.13.6 0 2.78-2.09 4.2-4.04 4.2-5.9Zm-6 0c0-.83.67-1.5 1.5-1.5 .82 0 1.5.67 1.5 1.5 0 .82-.68 1.5-1.5 1.5 -.83 0-1.5-.68-1.5-1.5Z"/></svg>