<svg viewBox="0 0 24 24" xmlns="http://www.w3.org/2000/svg"><path fill="currentColor" d="M15.09 16.5c-.04.21-.09.41-.13.61 -1.14.34-1.97 1.4-1.97 2.65v.1c0 .46.08.92.25 1.37 -.41.48-.84.75-1.26.75 -1.2 0-2.41-2.1-3.04-5.21l-.06-.3h6.19Zm-.1-2.01c0-.66.17-1.27.49-1.79 0-.24 0-.48 0-.71 0-.69-.03-1.36-.08-2.01H8.55l-.04.48c-.03.49-.05.99-.05 1.51 0 1.04.06 2.05.17 3h6.36c-.03-.17-.04-.34-.04-.51Zm3.5-3.5c1.61 0 2.97 1.09 3.37 2.57 .08-.52.12-1.05.12-1.58 0-.69-.07-1.36-.2-2.01l-4.87 0 .03.65c.01.22.01.45.02.68 .45-.22.96-.34 1.5-.34Zm-15.44 5.5l4.3-.01c.36 2.08.98 3.85 1.79 5.09 -2.57-.76-4.7-2.52-5.96-4.82l-.15-.28Zm-.87-6.51l4.87 0c-.05.65-.08 1.31-.08 1.99 0 .82.03 1.63.1 2.42l.05.58H2.41c-.3-.95-.46-1.96-.46-3.01 0-.69.06-1.36.2-2.01Zm12.74-7.43l-.11-.18c3.01.89 5.44 3.16 6.53 6.09l-4.6 0c-.32-2.42-.96-4.5-1.84-5.93Zm-5.91-.14l.12-.04c-.89 1.34-1.54 3.32-1.89 5.65l-.07.43 -4.6-.01c1.07-2.89 3.45-5.15 6.41-6.06Zm2.95-.45c1.31 0 2.64 2.54 3.21 6.18l.04.31H8.68c.53-3.81 1.9-6.5 3.26-6.5Zm9 12.49c0 1.38-1.12 2.5-2.5 2.5 -1.39 0-2.5-1.12-2.5-2.5 0-1.39 1.11-2.5 2.5-2.5 1.38 0 2.5 1.11 2.5 2.5Zm2 5.375c0 1.55-1.29 3.12-4.5 3.125 -3.22 0-4.5-1.57-4.5-3.125v-.11c0-.98.79-1.78 1.77-1.78h5.45c.97 0 1.77.79 1.77 1.77v.1Z"/></svg>