<svg viewBox="0 0 24 24" xmlns="http://www.w3.org/2000/svg"><path fill="currentColor" d="M12 2c1.31 0 2.64 2.54 3.21 6.18l.04.31H8.72c.53-3.81 1.9-6.5 3.26-6.5Zm2.94.57l-.11-.18c3.01.89 5.44 3.16 6.53 6.09l-4.6 0c-.32-2.42-.96-4.5-1.84-5.93ZM7.06 9.99l-4.88-.01c-.14.64-.21 1.31-.21 2 0 1.04.16 2.05.45 3h4.7l-.06-.59c-.07-.79-.11-1.6-.11-2.43 0-.69.02-1.35.07-2Zm14.9 2.78c-1.17-1.11-2.74-1.79-4.48-1.79 -.18 0-.35 0-.52.02 -.01-.13-.01-.25-.02-.37l-.04-.66 4.87-.01c.13.64.2 1.31.2 2 0 .26-.02.52-.04.78Zm-13.3 2.21h2.82c.72-1.74 2.18-3.1 3.99-3.69 -.02-.45-.04-.89-.07-1.32H8.55l-.04.48c-.03.49-.05.99-.05 1.51 0 1.04.06 2.05.17 3Zm.23 1.49h2.17c-.06.32-.08.66-.08 1 0 1.65.61 3.16 1.63 4.3 -.21.12-.43.19-.64.19 -1.2 0-2.41-2.1-3.04-5.21l-.06-.3Zm-5.84 0l4.3-.01c.36 2.08.98 3.85 1.79 5.09 -2.57-.76-4.7-2.52-5.96-4.82l-.15-.28Zm6.09-14.1l-.13.03c-2.97.91-5.34 3.17-6.42 6.05l4.59 0 .06-.44c.34-2.33 1-4.31 1.88-5.66Zm2.83 15.09c0 3.03 2.46 5.5 5.5 5.5 3.03 0 5.5-2.47 5.5-5.5 0-3.04-2.47-5.5-5.5-5.5 -3.04 0-5.5 2.46-5.5 5.5Zm6.64-2.15c-.2-.2-.2-.52 0-.71 .19-.2.51-.2.7 0l1.5 1.5c.19.19.19.51 0 .7l-1.5 1.5c-.2.19-.52.19-.71 0 -.2-.2-.2-.52 0-.71l.64-.65h-2.05c-1.25 0-2.25 1-2.25 2.25v.25c0 .27-.23.5-.5.5 -.28 0-.5-.23-.5-.5v-.25c0-1.8 1.45-3.25 3.25-3.25h2.04l-.65-.65Z"/></svg>