<svg viewBox="0 0 24 24" xmlns="http://www.w3.org/2000/svg"><path fill="currentColor" d="M17.5 12c3.03 0 5.5 2.46 5.5 5.5 0 3.03-2.47 5.5-5.5 5.5 -3.04 0-5.5-2.47-5.5-5.5 0-3.04 2.46-5.5 5.5-5.5Zm-6.43 4.49c-.06.32-.08.66-.08 1 0 1.65.61 3.15 1.63 4.3 -.21.12-.42.19-.63.19 -1.2 0-2.41-2.1-3.04-5.21l-.06-.3 2.17-.01Zm-3.71 0c.36 2.08.98 3.85 1.79 5.09 -2.67-.79-4.87-2.66-6.1-5.1l4.3-.01Zm10.12-2.5l-.09 0c-.21.03-.37.19-.41.4l-.01.08 -.01 2.5 -2.51 0 -.09 0c-.21.03-.37.19-.41.4l-.01.08 0 .08c.03.2.19.36.4.4l.08 0 2.5-.01 0 2.5 0 .08c.03.2.19.36.4.4l.08 0 .08-.01c.2-.04.36-.2.4-.41l0-.09 -.01-2.51 2.5 0 .08-.01c.2-.04.36-.2.4-.41l0-.09 -.01-.09c-.04-.21-.2-.37-.41-.41l-.09-.01 -2.51-.01 0-2.5 -.01-.09c-.04-.21-.2-.37-.41-.41l-.09-.01ZM7.05 9.98c-.05.64-.08 1.31-.08 1.99 0 .82.03 1.63.1 2.42l.05.58H2.41c-.3-.95-.46-1.955-.46-3.01 0-.69.06-1.36.2-2.01l4.87 0Zm8.35-.01c.03.42.05.86.06 1.31 -1.81.58-3.27 1.94-4 3.68l-2.83 0c-.12-.95-.18-1.96-.18-3.01 0-.52.01-1.02.04-1.52l.03-.49h6.84Zm6.37-.01c.13.64.2 1.31.2 2 0 .26-.02.52-.04.78 -1.17-1.11-2.74-1.79-4.48-1.79 -.18 0-.35 0-.52.02 -.01-.13-.01-.25-.02-.37l-.04-.66 4.87-.01Zm-6.97-7.6c3.01.89 5.44 3.16 6.53 6.09l-4.6 0c-.3-2.27-.88-4.24-1.68-5.65l-.17-.28 -.11-.18Zm-5.68 0C8.23 3.7 7.58 5.68 7.23 8.01l-.07.43 -4.6-.01c1.04-2.79 3.28-4.99 6.1-5.96l.3-.1 .12-.04Zm2.83-.41c1.31 0 2.64 2.54 3.21 6.18l.04.31H8.67c.53-3.81 1.9-6.5 3.26-6.5Z"/></svg>