<svg viewBox="0 0 24 24" xmlns="http://www.w3.org/2000/svg"><path fill="currentColor" d="M3.44 9.95c-1.93 1.92-1.93 5.04 0 6.96 1.69 1.69 4.31 1.89 6.23.6l4.25 4.25c.3.3.79.3 1.09 0 .27-.28.29-.71.07-1.01l-.08-.09 -4.22-4.22c1.51-1.94 1.38-4.74-.4-6.52 -1.93-1.93-5.05-1.93-6.97 0Zm13.21 6.54c-.23 1.28-.55 2.45-.96 3.45l.02.02 .12.14c.22.29.34.62.37.95 2.04-.95 3.71-2.57 4.72-4.58l-4.31-.01Zm-4.41-.01l2.28 2.28c.2-.6.38-1.27.52-2l.05-.3 -2.88-.01ZM9.3 11.02c1.31 1.31 1.31 3.45 0 4.77 -1.32 1.31-3.46 1.31-4.78 0 -1.32-1.32-1.32-3.46 0-4.78 1.31-1.32 3.45-1.32 4.77 0Zm6.13-1.05l-3.71-.01c1.04 1.46 1.35 3.31.89 5l2.7 0c.11-.95.17-1.96.17-3.01 0-.52-.02-1.02-.05-1.52l-.04-.49Zm1.5 0c.04.65.07 1.31.07 1.99 0 .82-.04 1.63-.11 2.42l-.06.58h4.7c.29-.95.45-1.96.45-3.01 0-.69-.07-1.36-.21-2.01l-4.87 0Zm-2.1-7.6c.88 1.34 1.53 3.32 1.88 5.65l.06.43 4.59-.01c-1.05-2.79-3.29-4.99-6.11-5.96l-.31-.1 -.13-.04Zm-2.84-.41c-1.28 0-2.57 2.38-3.16 5.83 .46.16.91.37 1.33.65l5.08 0c-.54-3.81-1.91-6.5-3.27-6.5Zm-2.84.4c-3.02.89-5.45 3.16-6.54 6.09l.99-.01c1.12-.75 2.44-1.07 3.74-.97 .32-1.86.84-3.47 1.52-4.68l.16-.28 .1-.18Z"/></svg>