<svg viewBox="0 0 24 24" xmlns="http://www.w3.org/2000/svg"><path fill="currentColor" d="M9.68 7.5c.15-1.27.41-2.39.72-3.3 .27-.8.59-1.38.9-1.76 .31-.38.55-.46.68-.46s.37.07.68.45c.31.37.62.96.9 1.75 .31.9.57 2.02.72 3.29H9.64Zm-.69-3.79c.17-.5.37-.96.59-1.37 -2.56.75-4.62 2.67-5.55 5.15h4.12c.16-1.44.45-2.73.82-3.79Zm6.01 0c-.18-.5-.38-.96-.6-1.37 2.55.75 4.61 2.67 5.54 5.15h-4.13c-.17-1.44-.46-2.73-.83-3.79Zm.95 5.28h4.4c.08.48.13.98.13 1.5 0 .51-.05 1.01-.14 1.5h-4.41c.02-.49.04-1 .04-1.5 0-.51-.02-1.02-.05-1.5Zm-.13 4.5h4.12c-.35.92-.85 1.76-1.48 2.5 -.01 0-.02.01-.02.01 -.48.55-1.02 1.04-1.62 1.46 -.74.51-1.56.9-2.44 1.16 .22-.41.42-.87.59-1.37 .37-1.07.65-2.36.82-3.79Zm-3.15 5.04c-.32.37-.56.45-.69.45 -.14 0-.38-.08-.69-.46 -.32-.38-.63-.97-.91-1.76 -.32-.91-.58-2.03-.73-3.3h4.63c-.16 1.26-.42 2.38-.73 3.29 -.28.79-.6 1.37-.91 1.75Zm-5.54-1.06c.73.51 1.55.9 2.43 1.16 -.23-.41-.43-.87-.6-1.37 -.38-1.07-.66-2.36-.83-3.79H4c.34.92.84 1.76 1.47 2.5 0 0 .01.01.01.01 .47.55 1.01 1.04 1.61 1.46Zm.88-5.49H3.6c-.09-.49-.14-.99-.14-1.5 0-.52.04-1.02.13-1.5h4.4c-.03.48-.05.99-.05 1.5 0 .5.01 1.01.04 1.5Zm1.5-3c-.03.48-.05.98-.05 1.5 0 .51.01 1.01.04 1.5h4.91c.02-.49.04-.99.04-1.5 0-.52-.02-1.02-.05-1.5H9.48Zm-5.55 7h.25c.38.54.83 1.04 1.32 1.5H4.52l-.84 3H20.2l-.84-3h-1.01c.49-.46.93-.96 1.32-1.5h.25c.33 0 .63.22.72.54l1.25 4.5c.06.22.01.46-.13.65 -.15.18-.37.29-.6.29H2.66c-.24 0-.46-.11-.6-.3 -.15-.19-.19-.43-.13-.66l1.25-4.5c.09-.33.38-.55.72-.55Z"/></svg>