<svg viewBox="0 0 24 24" xmlns="http://www.w3.org/2000/svg"><path fill="currentColor" d="M11 17.5c0-.35.02-.68.07-1.01l-2.18 0 .05.29c.63 3.1 1.84 5.2 3.03 5.2 .21 0 .42-.07.62-.2 -1.02-1.15-1.64-2.66-1.64-4.31Zm-1.84 4.09c-.81-1.24-1.43-3.02-1.8-5.1l-4.31 0c1.23 2.43 3.43 4.3 6.09 5.09Zm-2.17-9.6c0-.69.02-1.35.07-2l-4.88-.01c-.14.64-.21 1.31-.21 2 0 1.04.16 2.05.45 3h4.7l-.06-.59c-.07-.79-.11-1.6-.11-2.43Zm8.49-.69c-.02-.45-.04-.89-.07-1.32H8.56l-.04.48c-.03.49-.05.99-.05 1.51 0 1.04.06 2.05.17 3l2.82-.01c.72-1.74 2.18-3.1 3.99-3.69Zm6.5.68c0-.69-.07-1.36-.21-2.01l-4.87 0 .03.65c0 .12.01.24.01.36 .17-.02.34-.03.51-.03 1.73 0 3.3.67 4.47 1.78 .02-.26.03-.53.03-.79Zm-.63-3.51c-1.1-2.93-3.52-5.21-6.54-6.1l.1.17 .16.27c.79 1.41 1.37 3.38 1.67 5.64l4.59-.01Zm-14.1-.44c.34-2.33 1-4.31 1.88-5.66L9 2.4l-.31.09c-2.82.97-5.07 3.17-6.11 5.95l4.59 0L7.23 8Zm7.93.12c-.57-3.65-1.9-6.19-3.22-6.19 -1.36 0-2.73 2.68-3.27 6.49h6.52l-.05-.32Zm7.78 9.31c0-3.04-2.47-5.5-5.5-5.5 -3.04 0-5.5 2.46-5.5 5.5 0 3.03 2.46 5.5 5.5 5.5 3.03 0 5.5-2.47 5.5-5.5Zm-5.5 0h2c.27 0 .5.22.5.5 0 .27-.23.5-.5.5h-2.5c-.28 0-.5-.22-.5-.5l-.01-.01v-3c0-.28.22-.5.5-.5 .27 0 .5.22.5.5v2.5Z"/></svg>