<svg viewBox="0 0 24 24" xmlns="http://www.w3.org/2000/svg"><path fill="currentColor" d="M11 16.5H8.9l.05.29c.63 3.1 1.84 5.2 3.03 5.2 .49 0 .99-.36 1.44-1h-.45c-1.11 0-2-.9-2-2v-2.5Zm0-1.5H8.67c-.12-.95-.18-1.96-.18-3.01 0-.52.01-1.02.04-1.52l.03-.49h6.84c.05.64.07 1.31.07 1.99h-2.51c-1.11 0-2 .89-2 2v1Zm11-3.01h-.01 -5c0-.46-.02-.91-.04-1.35l-.04-.66 4.87-.01c.13.64.2 1.31.2 1.99Zm-14.64 4.5l-4.31 0 .14.27c1.25 2.3 3.38 4.05 5.95 4.81 -.81-1.24-1.43-3.02-1.8-5.1Zm-.31-6.5l-4.88-.01c-.14.64-.21 1.31-.21 2 0 1.04.16 2.05.45 3h4.7l-.06-.59c-.07-.79-.11-1.6-.11-2.43 0-.69.02-1.35.07-2Zm7.76-7.6l.1.17c.88 1.43 1.52 3.5 1.83 5.92l4.59-.01c-1.1-2.93-3.52-5.21-6.54-6.1Zm-5.68 0L9 2.42c-2.97.91-5.34 3.17-6.42 6.05l4.59 0 .06-.44c.34-2.33 1-4.31 1.88-5.66Zm6.05 5.77c-.57-3.65-1.9-6.19-3.22-6.19 -1.36 0-2.73 2.68-3.27 6.49h6.52l-.05-.32Zm-3.22 5.81c0-.56.44-1 1-1h9c.55 0 1 .44 1 1v5c0 .55-.45 1-1 1h-3v2h.5c.27 0 .5.22.5.5 0 .27-.23.5-.5.5h-4c-.28 0-.5-.23-.5-.5 0-.28.22-.5.5-.5h.5v-2h-3c-.56 0-1-.45-1-1v-5Z"/></svg>