<svg viewBox="0 0 24 24" xmlns="http://www.w3.org/2000/svg"><path fill="currentColor" d="M8.9 16.5h2.09v4.99l0 .02c-.83-.79-1.58-2.5-2.04-4.74l-.06-.3ZM8.66 15h2.37c.23-1.15 1.24-2.01 2.45-2.01h1.98c.01-.33.01-.67.01-1 0-.69-.03-1.36-.08-2.01H8.54l-.04.48c-.03.49-.05.99-.05 1.51 0 1.04.06 2.05.17 3Zm12.99-1.32c.06-.05.13-.09.21-.12 .08-.52.12-1.04.12-1.57 0-.69-.07-1.36-.2-2.01l-4.87 0 .03.65c.02.44.03.88.03 1.34 0 .33-.01.67-.02.99h1.51c.95 0 1.78.53 2.2 1.32l.96-.65ZM3.04 16.49l4.3-.01c.36 2.08.98 3.85 1.79 5.09 -2.57-.76-4.7-2.52-5.96-4.82l-.15-.28Zm-.87-6.51l4.86 0c-.05.64-.08 1.31-.08 1.99 0 .82.03 1.63.1 2.42l.05.58H2.39c-.3-.95-.46-1.96-.46-3.01 0-.69.06-1.36.2-2.01Zm12.74-7.43l-.11-.18c3.01.89 5.44 3.16 6.535 6.09l-4.6 0c-.32-2.42-.96-4.5-1.84-5.93ZM9 2.41l.12-.04c-.89 1.34-1.54 3.32-1.89 5.65l-.07.43 -4.6-.01c1.07-2.89 3.45-5.15 6.41-6.06Zm2.95-.45c1.31 0 2.64 2.54 3.21 6.18l.04.31H8.67c.53-3.81 1.9-6.5 3.26-6.5Zm0 13.49c0-.83.67-1.51 1.49-1.51h4.99c.82 0 1.49.67 1.49 1.5v.5l2.22-1.49c.33-.23.77.01.77.41v7.13c0 .39-.45.63-.78.41l-2.23-1.49v.5c0 .82-.68 1.5-1.5 1.5h-5c-.83 0-1.5-.68-1.5-1.51v-6.01Z"/></svg>