<svg viewBox="0 0 24 24" xmlns="http://www.w3.org/2000/svg"><path fill="currentColor" d="M3.59 2.4c-.67 0-1.2.53-1.2 1.2V6c0 .66.53 1.2 1.2 1.2h6c.66 0 1.2-.54 1.2-1.2V3.6c0-.67-.54-1.2-1.2-1.2h-6Zm0 7.2c-.67 0-1.2.53-1.2 1.19v2.4c0 .66.53 1.2 1.2 1.2h6c.66 0 1.2-.54 1.2-1.2v-2.4c0-.67-.54-1.2-1.2-1.2h-6Zm0 7.19c-.67 0-1.2.53-1.2 1.2v2.4c0 .66.53 1.2 1.2 1.2h6c.66 0 1.2-.54 1.2-1.2v-2.4c0-.67-.54-1.2-1.2-1.2h-6Zm10.8-14.4c-.67 0-1.2.53-1.2 1.2v2.4c0 .66.53 1.2 1.2 1.2h6c.66 0 1.2-.54 1.2-1.2v-2.4c0-.67-.54-1.2-1.2-1.2h-6Zm0 7.2c-.67 0-1.2.53-1.2 1.19v2.4c0 .66.53 1.2 1.2 1.2h6c.66 0 1.2-.54 1.2-1.2v-2.4c0-.67-.54-1.2-1.2-1.2h-6Z"/></svg>