<svg viewBox="0 0 24 24" xmlns="http://www.w3.org/2000/svg"><path fill="currentColor" d="M3 11.996l3 0c.55 0 .99.44.99 1 -.01.51-.39.93-.89.99l-.12 0 -2-.01v5l2 0c.51 0 .93.38.99.88l0 .11c0 .51-.39.93-.89.99l-.12 0h-3c-.52 0-.94-.39-1-.89l-.01-.12V12.94c0-.52.38-.94.88-1l.11-.01ZM20.99 17c.55 0 1 .44 1 1 0 .51-.39.93-.89.99l-.12 0h-12c-.56 0-1-.45-1-1 0-.52.38-.94.88-1l.11-.01h12Zm0-3c.55 0 1 .44 1 1 0 .51-.39.93-.89.99l-.12 0h-12c-.56 0-1-.45-1-1 0-.52.38-.94.88-1l.11-.01h12Zm-15-12c.55 0 1 .44 1 1 0 .51-.39.93-.89.99l-.12 0h-2v4.99l2 0c.51 0 .93.38.99.88l0 .11c0 .51-.39.93-.89.99l-.12 0h-3c-.52 0-.94-.39-1-.89l-.01-.12v-7c0-.52.38-.94.88-1l.11-.01h3Zm15 5c.55 0 1 .44 1 1 0 .51-.39.93-.89.99l-.12 0h-12c-.56 0-1-.45-1-1 0-.52.38-.94.88-1l.11-.01h12Zm0-3c.55 0 1 .44 1 1 0 .51-.39.93-.89.99l-.12 0h-12c-.56 0-1-.45-1-1 0-.52.38-.94.88-1l.11-.01h12Z"/></svg>