<svg viewBox="0 0 24 24" xmlns="http://www.w3.org/2000/svg"><path fill="currentColor" d="M7 5c0 1.1-.9 2-2 2 -1.11 0-2-.9-2-2 0-1.11.89-2 2-2 1.1 0 2 .89 2 2Zm14 0c0 1.1-.9 2-2 2 -1.11 0-2-.9-2-2 0-1.11.89-2 2-2 1.1 0 2 .89 2 2ZM7 19c0 1.1-.9 2-2 2 -1.11 0-2-.9-2-2 0-1.11.89-2 2-2 1.1 0 2 .89 2 2ZM8 5c0 .35-.07.68-.18 1h4.67c.27 0 .5.22.5.5V9h-1.5c-1.39 0-2.5 1.11-2.5 2.5V13h-2.5c-.28 0-.5-.23-.5-.5V7.82c-.32.11-.65.17-1 .17 -.36 0-.69-.07-1-.18v4.67c0 1.38 1.11 2.5 2.5 2.5h2.5v2.5c0 1.38 1.11 2.49 2.49 2.5 -.33-.77-.5-1.62-.5-2.5v-6c0-.28.22-.5.5-.5h6c.88 0 1.73.17 2.5.49 -.01-1.38-1.12-2.5-2.5-2.5h-2.5v-2.5c0-1.39-1.12-2.5-2.5-2.5H7.8c.11.31.17.64.17 1Zm15 12.5c0 3.03-2.47 5.5-5.5 5.5 -3.04 0-5.5-2.47-5.5-5.5 0-3.04 2.46-5.5 5.5-5.5 3.03 0 5.5 2.46 5.5 5.5Zm-7.15-2.36c-.2-.2-.52-.2-.71 0 -.2.19-.2.51 0 .7l1.64 1.64 -1.65 1.64c-.2.19-.2.51 0 .7 .19.19.51.19.7 0l1.64-1.65 1.64 1.64c.19.19.51.19.7 0 .19-.2.19-.52 0-.71l-1.65-1.65 1.64-1.65c.19-.2.19-.52 0-.71 -.2-.2-.52-.2-.71 0l-1.65 1.64 -1.65-1.65Z"/></svg>