<svg viewBox="0 0 24 24" xmlns="http://www.w3.org/2000/svg"><path fill="currentColor" d="M5 7c1.1 0 2-.9 2-2 0-1.11-.9-2-2-2 -1.11 0-2 .89-2 2 0 1.1.89 2 2 2Zm14 0c1.1 0 2-.9 2-2 0-1.11-.9-2-2-2 -1.11 0-2 .89-2 2 0 1.1.89 2 2 2Zm2 12c0 1.1-.9 2-2 2 -1.11 0-2-.9-2-2 0-1.11.89-2 2-2 1.1 0 2 .89 2 2ZM5 21c1.1 0 2-.9 2-2 0-1.11-.9-2-2-2 -1.11 0-2 .89-2 2 0 1.1.89 2 2 2ZM7.82 6c.11-.32.17-.65.17-1 0-.36-.07-.69-.18-1h4.67c1.38 0 2.5 1.11 2.5 2.5V9h2.5c1.38 0 2.5 1.11 2.5 2.5v4.67c-.32-.12-.65-.18-1-.18 -.36 0-.69.06-1 .17v-4.68c0-.28-.23-.5-.5-.5h-2.5v1.5c0 1.38-1.12 2.5-2.5 2.5h-1.5v2.5c0 .27.22.5.5.5h4.67c-.12.31-.18.64-.18 1 0 .35.06.68.17 1h-4.68c-1.39 0-2.5-1.12-2.5-2.5v-2.5h-2.5c-1.39 0-2.5-1.12-2.5-2.5V7.8c.31.11.64.17 1 .17 .35 0 .68-.07 1-.18v4.67c0 .27.22.5.5.5h2.5v-1.5c0-1.39 1.11-2.5 2.5-2.5h1.5v-2.5c0-.28-.23-.5-.5-.5H7.78Zm5.17 6.5V11h-1.5c-.28 0-.5.22-.5.5V13h1.5c.27 0 .5-.23.5-.5Z"/></svg>