<svg viewBox="0 0 24 24" xmlns="http://www.w3.org/2000/svg"><path fill="currentColor" d="M10.5 5c0 1.65-1.35 3-3 3 -1.66 0-3-1.35-3-3 0-1.66 1.34-3 3-3 1.65 0 3 1.34 3 3Zm6 5c1.38 0 2.5-1.12 2.5-2.5C19 6.11 17.88 5 16.5 5 15.11 5 14 6.11 14 7.5c0 1.38 1.11 2.5 2.5 2.5Zm-3.11.75c.06.23.1.49.1.75v3c0 .17-.03.34-.07.5 -.23.86-1.01 1.5-1.94 1.5 -.18 0-.35-.03-.5-.07v3.56c0 1.1-.9 2-2 2 -.48 0-.91-.17-1.25-.44 -.35.27-.78.43-1.25.43 -1.11 0-2-.9-2-2v-3.57c-.16.04-.33.06-.5.06 -1.11 0-2-.9-2-2v-3c0-1.52 1.23-2.75 2.75-2.75h6c1.25 0 2.32.84 2.64 2Zm1.02 0h5.32c1.51 0 2.75 1.23 2.75 2.75v1.75c0 1.1-.9 2-2 2 -.18 0-.35-.03-.5-.07v2.81c0 1.1-.9 2-2 2 -.48 0-.91-.17-1.25-.44 -.35.27-.78.43-1.25.43 -1.11 0-2-.9-2-2v-3.27c.61-.55 1-1.35 1-2.24v-3c0-.26-.03-.51-.08-.75Z"/></svg>