<svg viewBox="0 0 24 24" xmlns="http://www.w3.org/2000/svg"><path fill="currentColor" d="M12.75 2c1.15 0 2.11.87 2.23 2l1.76-.01c1.19 0 2.16.92 2.24 2.09l0 .15v4.92c-.49-.12-.99-.18-1.5-.18V6.22c0-.38-.29-.7-.65-.75l-.11-.01 -2.14 0c-.41.59-1.09.99-1.87.99H9.2c-.78 0-1.47-.4-1.87-1l-2.14-.01c-.38 0-.7.28-.75.64l-.01.1v13.5c0 .37.28.69.64.74l.1 0h6.48c.28.55.65 1.05 1.07 1.5H5.15c-1.2 0-2.17-.93-2.25-2.1l-.01-.16V6.15c0-1.2.92-2.17 2.09-2.25l.15-.01 1.76 0c.12-1.13 1.07-2.01 2.23-2.01h3.5Zm0 1.5H9.24c-.42 0-.75.33-.75.74s.33.74.74.74h3.5c.41 0 .74-.34.74-.75 0-.42-.34-.75-.75-.75ZM8.24 13.99h3.77c-.65 1.01-1.03 2.21-1.03 3.5 0 .33.02.67.07.99l-.08 0c-2.53 0-4-.91-4-2.76v-.5c0-.7.55-1.25 1.25-1.25Zm2.75-6c1.38 0 2.5 1.11 2.5 2.49 0 1.38-1.12 2.5-2.5 2.5 -1.39 0-2.5-1.12-2.5-2.5 0-1.39 1.11-2.5 2.5-2.5Zm12 9.5c0-3.04-2.47-5.5-5.5-5.5 -3.04 0-5.5 2.46-5.5 5.5 0 3.03 2.46 5.5 5.5 5.5 3.03 0 5.5-2.47 5.5-5.5Zm-5 .5l0 2.5c0 .27-.23.5-.5.5 -.28 0-.5-.23-.5-.5l-.01-2.51h-2.51c-.28 0-.5-.23-.5-.5 0-.28.22-.5.5-.5h2.5l-.01-2.51c0-.28.22-.5.5-.5 .27 0 .5.22.5.5l0 2.5h2.5c.27 0 .5.22.5.5 0 .27-.23.5-.5.5h-2.51Z"/></svg>