<svg viewBox="0 0 24 24" xmlns="http://www.w3.org/2000/svg"><path fill="currentColor" d="M13.75 2c1.15 0 2.11.87 2.23 2l1.76-.01c1.19 0 2.16.92 2.24 2.09l0 .15v13.5c0 1.19-.93 2.16-2.096 2.24l-.16 0H6.22c-1.2 0-2.17-.93-2.25-2.1l-.01-.16V6.2c0-1.2.92-2.17 2.09-2.25l.15-.01 1.76 0c.12-1.13 1.07-2.01 2.23-2.01h3.5Zm0 4.49h-3.51c-.78 0-1.47-.4-1.87-1l-2.14-.01c-.38 0-.7.28-.75.64l-.01.1v13.5c0 .37.28.69.64.74l.1 0h11.5c.37 0 .69-.29.74-.65l0-.11V6.19c0-.38-.29-.7-.65-.75l-.11-.01 -2.14 0c-.41.59-1.09.99-1.87.99Zm.99 7.5c.69 0 1.25.55 1.25 1.25v.49c0 1.84-1.48 2.75-4 2.75 -2.53 0-4-.91-4-2.76v-.5c0-.7.55-1.25 1.25-1.25h5.5Zm-2.75-6c1.38 0 2.5 1.11 2.5 2.49 0 1.38-1.12 2.5-2.5 2.5 -1.39 0-2.5-1.12-2.5-2.5 0-1.39 1.11-2.5 2.5-2.5Zm1.75-4.5h-3.51c-.42 0-.75.33-.75.74s.33.74.74.74h3.5c.41 0 .74-.34.74-.75 0-.42-.34-.75-.75-.75Z"/></svg>