<svg viewBox="0 0 24 24" xmlns="http://www.w3.org/2000/svg"><path fill="currentColor" d="M18.49 3.43l1.18-1.19c.39-.4 1.02-.4 1.41 0l.7.7c.39.39.39 1.02 0 1.41l-1.19 1.18 -2.13-2.13Zm-1.07 1.06l-3.83 3.82 -.16-.16c-1.33-1.33-3.57-.97-4.41.71l-.42.83c-.13.24-.4.37-.67.32l-.08-.02c-1.78-.36-3.61.34-4.69 1.79 -1.8 2.39-1.57 5.75.55 7.87l.59.59c2.12 2.12 5.47 2.35 7.87.55 1.45-1.09 2.14-2.92 1.79-4.69l-.02-.08c-.06-.27.07-.55.32-.67l.83-.42c1.67-.84 2.04-3.077.71-4.41l-.16-.16 3.82-3.83 -2.13-2.13Zm-8 10.06c-.59-.59-.59-1.54 0-2.13 .58-.59 1.53-.59 2.12 0 .58.58.58 1.53 0 2.12 -.59.58-1.54.58-2.13 0Z"/></svg>