<svg viewBox="0 0 24 24" xmlns="http://www.w3.org/2000/svg"><path fill="currentColor" d="M12.83 3.16c.05-.05.1-.1.14-.15h2.56c.01 0 .02-.01.03-.01 .16-.01.33-.01.5 0 .01 0 .02 0 .03 0h.03c.57 0 1.11.12 1.6.35 .01 0 .02.01.03.01 .91.36 1.73.97 2.33 1.82 .9 1.27 1.19 2.86.8 4.34l-3.29-3.24c-.15-.14-.33-.22-.53-.22h-4.75c-.02 0-.03 0-.04 0 -.16 0-.31.05-.43.15L9.95 7.63c-.06.04-.11.07-.17.1 -.41.19-.91.08-1.2-.29 -.05-.06-.08-.11-.11-.17 -.2-.41-.09-.9.28-1.18l3.94-3ZM7.89 14.23l-.02.01 -.98.96 -.02.01c-.36.33-.92.33-1.27-.02 -.36-.35-.36-.92 0-1.27l.97-.97c.35-.35.92-.35 1.27 0 .34.34.35.9.01 1.25Zm-.3 1.69c-.34.35-.34.9.01 1.25 .35.34.92.34 1.27 0l.97-.97c.35-.35.35-.92 0-1.27 -.05-.05-.1-.09-.14-.12 -.35-.23-.82-.2-1.13.1l-.02.01 -.98.96 -.02.01Zm-2.11-4.53c.35.34.35.91 0 1.26l-.98.96c-.36.34-.93.34-1.28 0 -.36-.35-.36-.92 0-1.27l.97-.97c.35-.35.92-.35 1.27 0Zm6.35 5.51c.35.34.35.91 0 1.26l-.98.96c-.08.07-.16.12-.25.17 -.34.16-.76.1-1.04-.18s-.34-.7-.18-1.03l0-.01c.04-.09.09-.17.17-.24l.97-.97c.35-.35.923-.35 1.27 0ZM5.31 4.8C6.7 3.41 8.6 2.83 10.42 3.05L7.94 4.92c-1.09.82-1.3 2.36-.47 3.44 .82 1.07 2.37 1.28 3.45.46l1.68-1.28h4.18l3.5 3.45c.01.01.02.02.03.04l1.14 1.15c.56.56.56 1.47 0 2.03 -.53.52-1.37.56-1.94.09l-.1-.1c-.02-.02-.04-.04-.07-.06l-1.1-1.1c-.2-.2-.52-.2-.71 0 -.2.19-.2.51 0 .7l1.15 1.14c.04.04.08.08.12.11l.04.04c.39.39.39 1.04 0 1.44 -.4.39-1.05.39-1.45 0l-.17-.17c-.2-.2-.52-.2-.71 0 -.11.1-.15.23-.15.36 -.01.13.04.26.14.36l.22.22c.36.36.36.96 0 1.33 -.37.36-.97.36-1.34 0l-.01-.01 -.02-.02 -.22-.21c-.08-.08-.17-.12-.26-.14 -.16-.04-.33.01-.46.13 -.2.19-.2.51 0 .7l.21.21c.36.37.36.97-.01 1.35 -.37.36-.97.37-1.35.01l-1.44-1.37 .52-.53c.74-.74.74-1.94 0-2.68 -.4-.4-.92-.58-1.43-.56 .02-.52-.17-1.03-.56-1.42 -.4-.39-.92-.58-1.43-.56 .02-.52-.17-1.029-.56-1.42 -.5-.5-1.21-.66-1.85-.49 -.06-.4-.24-.78-.55-1.09 -.69-.69-1.77-.74-2.52-.16 -.47-1.99.08-4.17 1.64-5.72Z"/></svg>