<svg viewBox="0 0 24 24" xmlns="http://www.w3.org/2000/svg"><path fill="currentColor" d="M14 4.25c0-.56.44-1 1-1 .55 0 1 .44 1 .99v6.74c0 .27.22.49.5.49 .27 0 .5-.23.5-.5V5.96c0-.56.44-1 1-1 .55 0 1 .44 1 .99v8.75c0 2.17-1.17 4.5-1.92 5.78 -.56.95-1.59 1.45-2.63 1.45h-2.17c-1.24 0-2.36-.7-2.91-1.8l-.14-.27c-.43-.85-.95-1.63-1.57-2.34l-2.22-2.56 -2.2-1.71c-.19-.15-.29-.37-.29-.6 0-.49.25-.85.59-1.06 .29-.2.65-.28.96-.32 .63-.08 1.4 0 2.08.13 .51.09.97.29 1.35.5V4.13c0-.56.44-1 1-1 .55 0 1 .44 1 .99v6.24c0 .27.22.49.5.49 .27 0 .5-.23.5-.5V2.84c0-.56.44-1 1-1 .55 0 1 .44 1 .99v7.5c0 .27.22.49.5.49 .27 0 .5-.23.5-.5V4.07Z"/></svg>