<svg viewBox="0 0 24 24" xmlns="http://www.w3.org/2000/svg"><path fill="currentColor" d="M16.07 12.61l-4.03-4.4c-.03.02-.06.04-.08.07 -.29.22-.71.2-.97-.06L6.31 3.55c-.36-.36-.93-.36-1.28 0 -.36.35-.36.92 0 1.27l4.63 4.63c.27.26.27.7 0 .97s-.71.27-.98 0L3.89 5.63c-.36-.36-.93-.36-1.28 0 -.36.35-.36.92 0 1.27l4.86 4.86c.22.22.22.59 0 .827 -.23.22-.6.22-.83 0L3.87 9.81c-.36-.36-.93-.36-1.28 0 -.36.35-.36.92 0 1.27l4.58 4.58c-.19.03-.4.07-.61.13 -.94.25-2.14.78-2.85 1.92 -.31.48-.23 1.02.06 1.39 .27.35.71.57 1.19.57 2.58-.02 5.72.45 8.22 1.48 1.43.58 3.22.51 4.45-.63l1.5-1.39c1.08-1.01 1.45-2.58.91-3.96l-1.16-2.96 -.28.29c-.72.78-1.95.78-2.66 0Zm-4.41 4.11c-.3.14-.66.02-.81-.27 -.15-.3-.03-.66.26-.81 .72-.37 1.75-.53 2.76-.36 1.02.17 2.09.69 2.8 1.75 .18.27.1.64-.17.83 -.28.18-.65.1-.84-.17 -.49-.74-1.23-1.12-2-1.25 -.79-.14-1.56 0-2.04.24Zm-.47-13.24c-.38.77-.49 1.63-.35 2.45L8.64 3.6c-.36-.36-.36-.93-.01-1.28 .35-.36.92-.36 1.27-.01 .34.34.78.72 1.26 1.13Zm6.19.1l-.76-.6c-1.25-.98-3.04-.77-4.03.47 -.88 1.1-.83 2.68.12 3.72l4.2 4.59c.23.26.64.26.88 0l4.2-4.6c.95-1.05 1-2.63.12-3.73 -.99-1.24-2.78-1.45-4.03-.48l-.76.59Z"/></svg>