<svg viewBox="0 0 24 24" xmlns="http://www.w3.org/2000/svg"><path fill="currentColor" d="M7.94 2.66c-.19-.52-.77-.79-1.29-.61 -.52.18-.79.76-.61 1.28l2.25 6.23c.14.39-.1.81-.51.89 -.33.06-.65-.12-.77-.42L4.9 4.61c-.21-.52-.78-.77-1.3-.57 -.52.2-.77.77-.57 1.29l3.15 8.12c-1.71-.19-2.92.24-3.65.66 -.43.24-.63.69-.57 1.13 .05.41.33.76.72.93 1.33.58 4.38 2.08 6.99 4.57 1.02.97 2.52 1.47 3.96 1.04l2.79-.84c.83-.25 1.52-.89 1.77-1.77 .3-1.05.72-2.82.72-4.5 0-1.16-.41-2.59-.78-3.68 -.73-2.15-1.55-4.27-2.29-6.41 -.19-.53-.76-.8-1.28-.62 -.53.18-.8.75-.62 1.27l.99 2.86c.13.4-.11.83-.53.91 -.35.06-.69-.13-.8-.46l-1.79-5c-.19-.53-.76-.8-1.28-.61 -.53.18-.8.75-.61 1.27l1.61 4.53c.14.4-.11.84-.53.92 -.35.06-.69-.13-.81-.46L7.77 2.5Zm10.69-.34c.23-.35.7-.43 1.04-.19 .8.56 1.47 1.54 1.89 2.62 .42 1.09.62 2.38.41 3.61 -.08.4-.47.68-.87.6 -.41-.08-.69-.47-.61-.87 .15-.92.01-1.93-.34-2.82 -.36-.91-.87-1.6-1.36-1.94 -.35-.24-.43-.71-.19-1.05Zm-.34 1.91c-.29-.31-.76-.32-1.06-.04 -.31.28-.32.75-.04 1.06 .41.44.79.98.79 1.98 0 .41.33.75.75.75 .41 0 .75-.34.75-.75 0-1.51-.63-2.4-1.21-3.02Z"/></svg>