<svg viewBox="0 0 24 24" xmlns="http://www.w3.org/2000/svg"><path fill="currentColor" d="M14 4.25c0-.56.44-1 1-1 .55 0 1 .44 1 .99v6.74c0 .05.01.11.02.16 -2.89.66-5.03 3.24-5.03 6.33 0 .98.22 1.92.61 2.76l-.47 1.52c-.76-.29-1.39-.85-1.77-1.59l-.14-.27c-.43-.85-.95-1.63-1.57-2.34l-2.22-2.56 -2.2-1.71c-.19-.15-.29-.37-.29-.6 0-.49.25-.85.59-1.06 .29-.2.65-.28.96-.32 .63-.08 1.4 0 2.08.13 .51.09.97.29 1.35.5V4.16c0-.56.44-1 1-1 .55 0 1 .44 1 .99v6.24c0 .27.22.49.5.49 .27 0 .5-.23.5-.5V2.87c0-.56.44-1 1-1 .55 0 1 .44 1 .99v7.5c0 .27.22.49.5.49 .27 0 .5-.23.5-.5V4.1Zm3.5 6.74c-.17 0-.34 0-.51.01 0-.01 0-.02 0-.02V5.97c0-.56.44-1 1-1 .55 0 1 .44 1 .99v5.17c-.49-.12-.99-.18-1.5-.18Zm.47 1.01c1.14.09 2.19.54 3.02 1.23 1.22 1 2 2.53 2 4.24 0 3.03-2.47 5.5-5.51 5.5 -.97 0-1.88-.25-2.67-.69l-2.19.66c-.39.11-.75-.25-.63-.63l.66-2.19c-.44-.8-.69-1.7-.69-2.67 0-3.04 2.46-5.51 5.5-5.51 .15 0 .31 0 .46.01ZM15 16.48c0 .27.22.5.5.5h4c.27 0 .5-.23.5-.51s-.23-.51-.51-.51h-4.01c-.28 0-.51.22-.51.5Zm.5 2.5h2c.27 0 .5-.23.5-.51s-.23-.51-.51-.51h-2.01c-.28 0-.51.22-.51.5 0 .27.22.5.5.5Z"/></svg>