<svg viewBox="0 0 24 24" xmlns="http://www.w3.org/2000/svg"><g fill="currentColor"><path d="M13 9.93l-2-2.01V2.98c0-.56.44-1 1-1 .55 0 1 .44 1 .99V9.9Z"/><path d="M14 4.25c0-.56.44-1 1-1 .55 0 1 .44 1 .99v6.74c0 .27.22.49.5.49 .27 0 .5-.23.5-.5V5.96c0-.56.44-1 1-1 .55 0 1 .44 1 .99v8.75c0 .36-.04.73-.09 1.09l-5.03-5.03c.07-.09.11-.2.11-.33V4.18Z"/><path d="M17.9 18.96l3.06 3.06c.29.29.76.29 1.06 0 .29-.3.29-.77 0-1.07L3.52 2.44c-.3-.3-.77-.3-1.07-.01 -.3.29-.3.76-.01 1.06l5.53 5.53v2.95c-.39-.22-.85-.41-1.36-.51 -.68-.14-1.46-.21-2.09-.14 -.32.03-.67.11-.97.31 -.34.21-.6.57-.6 1.05 0 .23.1.44.28.59l2.19 1.7 2.21 2.55c.61.71 1.14 1.49 1.56 2.33l.13.26c.55 1.1 1.67 1.79 2.9 1.79h2.16c1.04 0 2.06-.51 2.62-1.46 .24-.43.54-.97.82-1.58Z"/><path d="M8 4.93l2 2V4.24c0-.56-.45-1-1-1 -.56 0-1 .44-1 .99v.68Z"/></g></svg>