<svg viewBox="0 0 24 24" xmlns="http://www.w3.org/2000/svg"><path fill="currentColor" d="M19.4 2.59c.31.25.59.63.59 1.15 0 .78-.5 1.29-1.07 1.59 -.55.28-1.26.44-2.02.53 -1.46.18-3.35.16-5.19.15L11.46 6c-1.96-.02-3.83-.03-5.22.18 -.7.1-1.19.24-1.49.42 -.27.15-.3.26-.3.36l0 0s.02.03.07.08c.11.09.31.21.63.32 .63.22 1.53.37 2.48.46 .1 0 .2.01.3.02v1.5c-.15-.02-.3-.03-.45-.04 -.99-.1-2.03-.26-2.85-.55 -.41-.15-.81-.34-1.12-.61 -.33-.29-.6-.69-.6-1.22 0-.79.46-1.33 1.03-1.67 .54-.32 1.26-.5 2.02-.61 1.52-.23 3.52-.22 5.44-.2l.18 0c1.89.01 3.69.03 5.04-.15 .7-.09 1.19-.22 1.5-.38 .19-.11.24-.18.25-.23 -.01-.01-.02-.02-.03-.03 -.1-.08-.29-.18-.6-.28 -.62-.2-1.5-.33-2.47-.41 -1.6-.13-3.29-.11-4.2-.1 -.2 0-.35 0-.47 0 -.42-.01-.75-.34-.75-.76s.33-.75.75-.75c.09 0 .24-.01.41-.01 .89-.02 2.68-.04 4.35.1 .99.07 2.01.21 2.79.46 .38.12.77.29 1.07.53Zm-5.41 6.73c-.07-1.36-.9-2.33-2.25-2.33 -1.41 0-2.26 1.05-2.26 2.5v4.16l-.26-.08c-1.2-.35-2.13-.37-2.83-.02 -.96.47-1.45 1.33-1.42 2.44 0 .27.16.53.41.65l2.36 1.17 .09.05 .09.05 1.88 1.25 .19.13c.43.33.79.77 1.02 1.28l.02.06 .07.15c.45.8 1.35 1.25 2.28 1.12l2.41-.35 .16-.03c.81-.18 1.47-.81 1.68-1.62l1.04-3.93 .04-.18c.34-1.68-.67-3.36-2.35-3.8 -.09-.03-.18-.05-.26-.06l-2.22-.41V9.4l-.01-.18Z"/></svg>