<svg viewBox="0 0 24 24" xmlns="http://www.w3.org/2000/svg"><path fill="currentColor" d="M5 6.06L2.21 3.27c-.3-.3-.3-.77 0-1.07 .29-.3.76-.3 1.06 0l18.49 18.5c.29.29.29.76 0 1.06 -.3.29-.77.29-1.07 0l-4.31-4.31 -.11.12c-.62.71-1.15 1.49-1.57 2.33l-.14.26c-.56 1.1-1.68 1.79-2.91 1.79H9.48c-1.05 0-2.07-.51-2.63-1.46 -.75-1.28-1.92-3.61-1.92-5.79V6Zm3 3L7 8.05v2.93c0 .27.22.5.5.5 .27 0 .5-.23.5-.5V9.04Zm2-2.25L8 4.8v-.57c0-.56.44-1 1-1 .55 0 1 .44 1 1v2.56Zm3 3L11 7.8V2.97c0-.56.44-1 1-1 .55 0 1 .44 1 1v6.82Zm5.38 5.38l-4.46-4.46c.04-.08.06-.16.06-.26V4.22c0-.56.44-1 1-1 .55 0 1 .44 1 1v7.76c.38-.22.84-.41 1.35-.51 .67-.14 1.45-.21 2.08-.14 .31.03.66.11.96.31 .33.21.59.57.59 1.05 0 .23-.11.44-.29.59l-2.2 1.7 -.14.15Z"/></svg>