<svg viewBox="0 0 24 24" xmlns="http://www.w3.org/2000/svg"><path fill="currentColor" d="M10 4.25c0-.56-.45-1-1-1 -.56 0-1 .44-1 1v6.74c0 .27-.23.5-.5.5 -.28 0-.5-.23-.5-.5V5.98c0-.56-.45-1-1-1 -.56 0-1 .44-1 1v8.75c0 2.17 1.16 4.5 1.91 5.78 .55.95 1.58 1.45 2.62 1.45h2.16c1.23 0 2.35-.7 2.9-1.8l.13-.27c.42-.85.94-1.63 1.56-2.34l2.21-2.56 2.19-1.71c.18-.15.28-.37.28-.6 0-.49-.26-.85-.6-1.06 -.3-.2-.65-.28-.97-.32 -.64-.08-1.41 0-2.09.13 -.52.09-.98.29-1.36.5V4.16c0-.56-.45-1-1-1 -.56 0-1 .44-1 1v6.25c0 .27-.23.5-.5.5 -.28 0-.5-.23-.5-.5V2.9c0-.56-.45-1-1-1 -.56 0-1 .44-1 1v7.5c0 .27-.23.5-.5.5 -.28 0-.5-.23-.5-.5V4.15Z"/></svg>