<svg viewBox="0 0 24 24" xmlns="http://www.w3.org/2000/svg"><path fill="currentColor" d="M7.44 4c-.87 0-1.65.49-2.03 1.26l-2.69 5.55c.46-.21.97-.33 1.52-.33H19.4c.4-.34.92-.52 1.46-.51l-2.29-4.73c-.38-.78-1.17-1.27-2.03-1.27H7.42Zm-3.2 8h14.25l-.25.62c-.32.79-.14 1.7.45 2.32l.59.62c-.12.66-.43 1.2-.95 1.64l-.84-.21c-.84-.21-1.71.09-2.24.77l-.8 1c-.06.06-.1.13-.15.2H4.2c-1.25 0-2.25-1.01-2.25-2.25v-2.5c0-1.25 1-2.25 2.25-2.25Zm14.94.99l.47-1.21c.24-.62.92-.94 1.54-.73l.43.14c.72.23 1.32.8 1.34 1.56 .09 3.11-2.48 7.58-5.22 9.05 -.68.36-1.47.12-2.04-.4l-.34-.31c-.49-.45-.56-1.19-.15-1.71l.79-1.02c.29-.37.76-.54 1.22-.43l1.29.31c1.1-.73 1.69-1.76 1.77-3.08l-.92-.97c-.33-.34-.42-.84-.25-1.28Z"/></svg>