<svg viewBox="0 0 24 24" xmlns="http://www.w3.org/2000/svg"><path fill="currentColor" d="M5 17.75v-3.77l4.06 2.65c1.78 1.16 4.09 1.16 5.87 0l4.06-2.66v3.76c0 .16-.06.32-.15.45l-.01 0 -.01 0 -.01 0 -.01.01 -.02.01 -.02.01c-.03.02-.05.05-.09.1 -.08.08-.18.19-.32.33 -.28.26-.7.61-1.25.95 -1.13.69-2.82 1.36-5.16 1.36 -2.34 0-4.04-.68-5.16-1.37 -.56-.35-.98-.7-1.25-.96 -.14-.14-.25-.25-.32-.34 -.04-.05-.07-.08-.09-.11 -.02-.02-.02-.03-.03-.04l-.01-.02 -.01-.01 -.01-.01c-.1-.13-.16-.29-.16-.46Zm17.16-7.63l-8.05 5.25c-1.29.84-2.96.84-4.24 0l-6.89-4.5v5.36c0 .41-.34.75-.75.75 -.42 0-.75-.34-.75-.75V9.98c0-.09.01-.18.04-.26 -.03-.09-.05-.17-.05-.26 0-.26.13-.5.34-.63l8.06-5.17c1.27-.82 2.9-.82 4.18 0l8.06 5.16c.21.13.34.37.34.62 0 .22-.1.43-.27.57 -.03.02-.05.03-.08.05Z"/></svg>