<svg viewBox="0 0 24 24" xmlns="http://www.w3.org/2000/svg"><path fill="currentColor" d="M14.5 14.5v-5h.25c.96 0 1.75.78 1.75 1.75v1.5c0 .96-.79 1.75-1.75 1.75h-.25ZM6.25 3C4.45 3 3 4.45 3 6.25v11.5C3 19.54 4.45 21 6.25 21h11.5c1.79 0 3.25-1.46 3.25-3.25V6.25C21 4.45 19.54 3 17.75 3H6.25Zm1 5c.41 0 .75.33.75.75v2.75h2V8.75c0-.42.33-.75.75-.75 .41 0 .75.33.75.75v6.5c0 .41-.34.75-.75.75 -.42 0-.75-.34-.75-.75V13H8v2.25c0 .41-.34.75-.75.75 -.42 0-.75-.34-.75-.75v-6.5c0-.42.33-.75.75-.75Zm6.5 0h1C16.54 8 18 9.45 18 11.25v1.5c0 1.79-1.46 3.25-3.25 3.25h-1c-.42 0-.75-.34-.75-.75v-6.5c0-.42.33-.75.75-.75Z"/></svg>