<svg viewBox="0 0 24 24" xmlns="http://www.w3.org/2000/svg"><path fill="currentColor" d="M18.75 3.5C20.54 3.5 22 4.95 22 6.75v10.5c0 1.79-1.46 3.25-3.25 3.25H5.25C3.45 20.5 2 19.04 2 17.25V6.74c0-1.8 1.45-3.25 3.25-3.25h13.5ZM8.37 8.99c-.32 0-.58.23-.62.53l-.01.09 -.01 1.76H6.24V9.61l-.01-.1c-.05-.31-.31-.54-.62-.54 -.32 0-.58.23-.62.53l-.01.09v4.75l0 .09c.04.3.3.53.61.53s.57-.24.61-.54l0-.1v-1.76h1.48l0 1.73 0 .09c.04.3.3.53.61.53s.57-.24.61-.54l0-.1V9.51l-.01-.1c-.05-.31-.31-.54-.62-.54Zm8.82.02h-1.58l-.1 0c-.27.03-.49.24-.53.51l-.01.1 0 4.73 0 .1 .02.1c.18.58 1.11.54 1.21-.1l0-.12 -.01-1.76 .74-.01 .8 1.98 .04.09c.15.25.47.37.76.25 .28-.12.44-.43.37-.72l-.04-.1 -.74-1.84c.47-.33.78-.88.78-1.49 0-.95-.73-1.73-1.66-1.8l-.15-.01ZM11.36 9h-.76l-.1 0c-.27.03-.49.24-.53.51l-.01.1v4.74l0 .09c.03.26.24.48.51.52l.1 0h.75l.16-.01c1.31-.09 2.37-1.14 2.45-2.46l0-.17v-.75l-.01-.17c-.09-1.32-1.14-2.38-2.46-2.46l-.17-.01Zm0 1.24c.71 0 1.3.54 1.36 1.24l0 .13v.74l-.01.13c-.07.65-.59 1.17-1.24 1.23l-.14 0 -.13-.01v-3.5h.12Zm4.87 0l.94 0 .08 0c.26.04.46.27.46.54s-.21.5-.47.54l-.09 0 -.95-.01 -.01-1.11Z"/></svg>