<svg viewBox="0 0 24 24" xmlns="http://www.w3.org/2000/svg"><path fill="currentColor" d="M3.28 2.21c-.3-.3-.77-.3-1.07-.01 -.3.29-.3.76-.01 1.06l.96.96c-.73.59-1.19 1.49-1.19 2.5v10.5c0 1.79 1.45 3.25 3.25 3.25h13.5c.21 0 .42-.03.63-.07l1.33 1.33c.29.29.76.29 1.06 0 .29-.3.29-.77 0-1.07L3.24 2.15Zm9.91 12.04c-.44.42-1.02.69-1.66.73l-.17 0h-.76l-.11-.01c-.27-.05-.48-.26-.52-.53l-.01-.1v-3.32l1.24 1.24v1.43l.12 0 .13-.01c.31-.03.59-.17.8-.37l.88.88ZM8.02 9.08l.96.96v4.3l-.01.09c-.05.3-.31.53-.62.53 -.32 0-.58-.24-.62-.54l-.01-.1 -.01-1.74H6.22v1.75l-.01.09c-.05.3-.31.53-.62.53 -.32 0-.58-.24-.62-.54l-.01-.1V9.55l0-.1c.04-.31.3-.54.61-.54s.57.23.61.53l0 .09v1.75h1.48l0-1.77 0-.1c.02-.18.12-.34.27-.43Zm13.96 8.15c0 .46-.1.89-.27 1.29l-3.61-3.61c.14.06.32.07.48 0 .28-.12.44-.43.37-.72l-.04-.1 -.74-1.84c.47-.33.78-.88.78-1.49 0-.95-.73-1.73-1.66-1.8l-.15-.01h-1.58l-.1 0c-.27.03-.49.24-.53.51l-.01.1 0 2.18 -8.33-8.33h12.06c1.79-.001 3.25 1.45 3.25 3.25v10.5Zm-4.2-2.65l.01.02 -1.56-1.56 -.01-.46 .74-.01 .8 1.98Zm-.6-4.35l-.95-.01 0 1.109 .94 0 .08-.01c.26-.05.46-.28.46-.55 0-.28-.21-.51-.47-.55l-.09-.01Z"/></svg>