<svg viewBox="0 0 24 24" xmlns="http://www.w3.org/2000/svg"><path fill="currentColor" d="M9 3.75c0-.42.33-.75.75-.75h4.5c.41 0 .75.33.75.75V5h3c2.2 0 4 1.79 4 4h.25c.41 0 .75.33.75.75v3.5c0 .41-.34.75-.75.75H22v2.5c0 2.2-1.8 4-4 4h-1.55c-.77 0-1.52-.23-2.17-.64l-2.16-1.39c-.09-.06-.19-.06-.28 0l-2.16 1.38c-.65.41-1.4.63-2.17.63H5.96c-2.21 0-4-1.8-4-4v-2.5h-.25c-.42 0-.75-.34-.75-.75v-3.5c0-.42.33-.75.75-.75h.25c0-2.21 1.79-4 4-4h3V3.73ZM12 10c.55 0 1-.45 1-1 0-.56-.45-1-1-1 -.56 0-1 .44-1 1 0 .55.44 1 1 1Zm-6 2.25c0 .41.33.75.75.75h2.5c.41 0 .75-.34.75-.75 0-.42-.34-.75-.75-.75h-2.5c-.42 0-.75.33-.75.75Zm8.75-.75c-.42 0-.75.33-.75.75 0 .41.33.75.75.75h2.5c.41 0 .75-.34.75-.75 0-.42-.34-.75-.75-.75h-2.5Z"/></svg>