<svg viewBox="0 0 24 24" xmlns="http://www.w3.org/2000/svg"><path fill="currentColor" d="M3.5 12c0-4.7 3.8-8.5 8.5-8.5 4.69 0 8.5 3.8 8.5 8.5v2h-2.25c-.42 0-.75.33-.75.75v6.5c0 .41.33.75.75.75H19c1.65 0 3-1.35 3-3v-7c0-5.53-4.48-10-10-10C6.47 2 2 6.47 2 12v7c0 1.65 1.34 3 3 3h.75c.41 0 .75-.34.75-.75v-6.5c0-.42-.34-.75-.75-.75H3.5v-2Zm9.25-.25c0-.42-.34-.75-.75-.75 -.42 0-.75.33-.75.75v10.5c0 .41.33.75.75.75 .41 0 .75-.34.75-.75v-10.5Zm-4 2.25c.41 0 .75.33.75.75v4.5c0 .41-.34.75-.75.75 -.42 0-.75-.34-.75-.75v-4.51c0-.42.33-.75.75-.75Zm7.25.75c0-.42-.34-.75-.75-.75 -.42 0-.75.33-.75.75v4.5c0 .41.33.75.75.75 .41 0 .75-.34.75-.75v-4.51Z"/></svg>