<svg viewBox="0 0 24 24" xmlns="http://www.w3.org/2000/svg"><path fill="currentColor" d="M5 9c0-3.87 3.13-7 7-7 3.86 0 7 3.13 7 7v5c0 1.1-.9 2-2 2h-2c-.56 0-1-.45-1-1v-4c0-.56.44-1 1-1h2.5V9c0-3.04-2.47-5.5-5.5-5.5 -3.04 0-5.5 2.46-5.5 5.5v1H9c.55 0 1 .44 1 1v4c0 .55-.45 1-1 1H7c-.18 0-.35-.03-.51-.07l0 .31c0 1.19.92 2.16 2.09 2.24l.15 0 1.12 0c.3-.88 1.14-1.51 2.12-1.51 1.24 0 2.25 1 2.25 2.25 0 1.24-1.01 2.25-2.25 2.25 -.98 0-1.82-.63-2.13-1.5l-1.13-.01c-2.01 0-3.65-1.58-3.75-3.56l-.01-.2V8.95Z"/></svg>