<svg viewBox="0 0 24 24" xmlns="http://www.w3.org/2000/svg"><path fill="currentColor" d="M23 6.5C23 3.46 20.53 1 17.5 1 14.46 1 12 3.46 12 6.5c0 3.03 2.46 5.5 5.5 5.5 3.03 0 5.5-2.47 5.5-5.5ZM18 7l0 2.5c0 .27-.23.49-.5.49 -.28 0-.5-.23-.5-.5l-.01-2.51h-2.51c-.28 0-.5-.23-.5-.5 0-.28.22-.5.49-.5h2.5l-.01-2.51c0-.28.22-.5.5-.5 .27 0 .5.22.5.5l0 2.5h2.49c.27 0 .49.22.49.5 0 .27-.23.5-.5.5h-2.5Zm-.51 5.99c.51 0 1.01-.07 1.5-.18v2.17c0 1.1-.9 2-2 2h-2c-.56 0-1-.45-1-1v-4l0-.03c1.01.64 2.21 1.02 3.49 1.02Zm-5.48-10c-.31.47-.55.99-.73 1.54 -2.71.34-4.8 2.65-4.8 5.45v1h2.5c.55 0 1 .44 1 1v4c0 .55-.45 1-1 1h-2c-.18 0-.35-.03-.51-.07l0 .31c0 1.19.92 2.16 2.09 2.24l.15 0 1.12 0c.3-.88 1.14-1.51 2.12-1.51 1.24 0 2.25 1 2.25 2.25 0 1.24-1.01 2.25-2.25 2.25 -.98 0-1.82-.63-2.13-1.5l-1.13-.01c-2.01 0-3.65-1.58-3.75-3.56l-.01-.2V9.93c0-3.87 3.13-7 7-7l.02 0Z"/></svg>