<svg viewBox="0 0 24 24" xmlns="http://www.w3.org/2000/svg"><path fill="currentColor" d="M12.81 5.57l-.83.82 -.83-.83c-2.1-2.1-5.51-2.1-7.61 0 -1.48 1.47-1.92 3.58-1.32 5.43 .08-.02.16-.02.24-.02H5.7l1.42-3.01c.28-.61.89-1 1.56-1 .66-.01 1.28.36 1.58.96l1.95 3.91 1.55-2.16c.31-.44.8-.7 1.33-.73 .53-.03 1.04.19 1.39.59l1.22 1.4h3.7c.08 0 .16 0 .24.01 .59-1.86.15-3.97-1.32-5.44 -2.11-2.11-5.51-2.11-7.62 0Zm-1.35 15.49l-6.58-6.58h1.95c.67 0 1.29-.39 1.58-1l.35-.76L10.4 16c.27.54.81.91 1.42.96 .61.04 1.2-.23 1.56-.72l1.96-2.72 .3.34c.33.37.81.59 1.31.59h2.1l-6.58 6.57c-.3.29-.77.29-1.07 0ZM8.73 7.98c.28-.01.55.15.67.41l2.69 5.39 2.52-3.5c.13-.19.34-.3.57-.32 .22-.02.44.08.59.25l1.52 1.74h3.9c.41 0 .75.33.75.75 0 .41-.34.75-.75.75h-4.25c-.22 0-.43-.1-.57-.26l-1.13-1.3 -2.7 3.73c-.16.21-.41.32-.67.3 -.27-.03-.5-.18-.62-.42l-2.57-5.13 -1.24 2.6c-.13.26-.39.42-.68.42H2.65c-.42 0-.75-.34-.75-.75 0-.42.33-.75.75-.75h3.63l1.68-3.58c.12-.26.38-.43.66-.43Z"/></svg>