<svg viewBox="0 0 24 24" xmlns="http://www.w3.org/2000/svg"><path fill="currentColor" d="M10.67 2.08c.43-.06.87-.09 1.32-.09 .44 0 .88.02 1.32.08 .41.05.69.43.64.84 -.06.41-.44.69-.85.64 -.37-.05-.75-.08-1.13-.08 -.39 0-.76.02-1.13.07 -.42.05-.79-.24-.85-.65 -.06-.42.23-.79.64-.85Zm10.39 7.946c.41-.06.78.23.84.64 .05.43.08.87.08 1.32 0 .44-.03.88-.09 1.32 -.06.41-.44.69-.85.64 -.42-.06-.7-.44-.65-.85 .04-.37.07-.75.07-1.13 0-.39-.03-.76-.08-1.13 -.06-.42.23-.79.64-.85Zm-18.143 0c.41.05.69.43.64.84 -.05.36-.08.74-.08 1.12 0 .38.02.75.07 1.12 .05.41-.24.78-.65.84 -.42.05-.79-.24-.85-.65 -.06-.44-.09-.88-.09-1.33 0-.45.02-.89.08-1.33 .05-.42.43-.7.84-.65Zm7.1 11.03c.05-.42.43-.7.84-.65 .36.04.74.07 1.12.07 .38 0 .75-.03 1.12-.08 .41-.06.78.23.84.64 .05.41-.24.78-.65.84 -.44.05-.88.08-1.33.08 -.45 0-.89-.03-1.33-.09 -.42-.06-.7-.44-.65-.85Zm8.04-17.02c.34.26.67.55.99.87 .31.31.6.64.87.99 .25.32.18.79-.14 1.05 -.33.25-.8.18-1.06-.14 -.23-.3-.48-.58-.75-.85 -.27-.28-.56-.52-.85-.75 -.33-.26-.4-.73-.14-1.06 .25-.33.72-.4 1.05-.14Zm1.73 12.96c.32.25.39.72.13 1.05 -.27.34-.56.67-.88.99 -.32.31-.65.6-1 .87 -.33.25-.8.18-1.06-.14 -.26-.33-.19-.8.13-1.06 .29-.23.57-.48.84-.75s.51-.56.74-.85c.25-.33.72-.4 1.05-.14ZM6.95 4.16c.25.32.18.79-.14 1.05 -.3.22-.58.47-.85.74 -.28.27-.52.55-.75.84 -.26.32-.73.39-1.06.13 -.33-.26-.4-.73-.14-1.06 .26-.35.55-.68.87-1 .31-.32.64-.61.99-.88 .32-.26.79-.19 1.05.13ZM4.16 16.98c.32-.26.79-.19 1.05.13 .22.29.47.57.74.84s.55.51.84.74c.32.25.39.72.13 1.05 -.26.32-.73.39-1.06.13 -.35-.27-.68-.56-1-.88 -.32-.32-.61-.65-.88-1 -.26-.33-.19-.8.13-1.06ZM16.3 8.86c-1.02-1.17-2.81-1.23-3.9-.13l-.46.46 -.46-.47c-1.09-1.1-2.88-1.05-3.9.12 -.87.99-.87 2.48 0 3.48l3.78 4.35c.14.16.34.25.56.25 .21 0 .42-.1.56-.26l3.78-4.36c.86-1 .86-2.49 0-3.49Z"/></svg>