<svg viewBox="0 0 24 24" xmlns="http://www.w3.org/2000/svg"><path fill="currentColor" d="M3.91 5.12c2.02-2.05 5.31-2.04 7.35.01l.72.73 .71-.73c2.02-2.06 5.32-2.05 7.36.01 1.51 1.52 1.9 3.75 1.17 5.64 -.08-.02-.17-.02-.25-.02h-1.52c-.56-.97-1.62-1.35-2.58-1.16l-.56-.64c-.38-.43-.94-.66-1.5-.61 -.57.04-1.09.35-1.39.84l-1.16 1.84 -1.66-3.99c-.28-.67-.94-1.11-1.66-1.11 -.73-.01-1.38.42-1.67 1.09l-1.58 3.7H2.92c-.08 0-.15 0-.22.01 -.77-1.9-.4-4.16 1.12-5.69Zm7.14 14.19l1.27-2.56c-.16.03-.33.03-.49.02 -.68-.06-1.26-.49-1.52-1.11L8.95 12.4l-.37.86c-.29.66-.94 1.096-1.66 1.096H5.71l5.17 5.22c.03-.11.07-.21.12-.31Zm4.19-8.397c.14-.29.33-.53.54-.73l-.36-.41c-.13-.15-.32-.22-.5-.21 -.19.01-.37.11-.47.28l-2.39 3.81L9.5 7.52c-.1-.23-.32-.37-.56-.37 -.25-.01-.46.14-.56.36l-1.89 4.43H2.92c-.34 0-.6.26-.6.6 0 .33.26.6.6.6h3.96c.24 0 .45-.15.55-.37l1.48-3.49 2.45 5.88c.08.2.28.34.5.36 .22.01.43-.09.55-.28l2.57-4.12 .02.02 .15-.31Zm1.06.53l-4.2 8.39c-.4.79.18 1.73 1.07 1.73h8.39c.89 0 1.47-.94 1.07-1.74l-4.2-8.4c-.45-.89-1.71-.89-2.15 0Zm1.67 2.32v3.6c0 .33-.27.6-.61.6 -.34 0-.61-.27-.61-.61v-3.61c0-.34.26-.61.6-.61 .33 0 .6.26.6.6Zm-.61 6.6c-.34 0-.61-.27-.61-.61 0-.34.26-.61.6-.61 .33 0 .6.26.6.6 0 .33-.27.6-.61.6Z"/></svg>