<svg viewBox="0 0 24 24" xmlns="http://www.w3.org/2000/svg"><path fill="currentColor" d="M11.26 5.14C9.22 3.08 5.93 3.07 3.9 5.12 2.38 6.65 2 8.9 2.77 10.8c.07-.01.14-.02.21-.02h2.76l1.57-3.71c.28-.67.93-1.1 1.66-1.1 .72 0 1.37.43 1.65 1.1l1.65 3.98 1.15-1.85c.3-.49.81-.8 1.38-.85 .56-.05 1.12.18 1.49.6l1.56 1.78h3.08c.08 0 .16 0 .24.01 .73-1.89.34-4.12-1.18-5.65 -2.04-2.06-5.34-2.07-7.37-.02l-.72.72 -.73-.74Zm4.18 4.65l1.14 1.3c-.41.12-.8.29-1.16.49l-.36-.41 -.702 1.12c-1 .82-1.74 1.93-2.12 3.21 -.1.04-.21.06-.32.06 -.23-.02-.42-.17-.51-.37L8.948 9.3l-1.49 3.48c-.1.22-.32.36-.56.36H2.93c-.34 0-.6-.27-.6-.6 0-.34.26-.6.6-.6h3.56l1.88-4.44c.09-.23.31-.37.55-.37 .24 0 .45.14.55.36l2.55 6.12 2.38-3.82c.1-.17.27-.27.46-.29 .18-.02.37.06.49.2Zm-3.6 6.98c.05 0 .11 0 .17 0 -.02.19-.03.39-.03.6 0 .98.21 1.91.6 2.75l-.01 0c-.32.31-.82.31-1.14 0l-5.71-5.77h1.2c.72 0 1.37-.44 1.65-1.096l.36-.87 1.35 3.25c.25.62.84 1.04 1.51 1.1Zm12.14.6c0 2.98-2.42 5.4-5.4 5.4 -2.99 0-5.4-2.42-5.4-5.4 0-2.99 2.41-5.4 5.4-5.4 2.98 0 5.4 2.41 5.4 5.4Zm-2.58-2.23c-.24-.24-.62-.24-.85 0l-3.18 3.17 -.78-.78c-.24-.24-.62-.24-.85 0 -.24.23-.24.61 0 .84l1.2 1.2c.23.23.61.23.84 0l3.6-3.6c.23-.24.23-.62 0-.85Z"/></svg>