<svg viewBox="0 0 24 24" xmlns="http://www.w3.org/2000/svg"><path fill="currentColor" d="M6.34 2c-.63 0-1.21.33-1.52.87L3.23 5.62c-.32.54-.32 1.2 0 1.75l1.58 2.75c.31.54.89.875 1.51.875h3.17c.62 0 1.2-.34 1.51-.875l1.58-2.75c.31-.55.31-1.21 0-1.75l-1.59-2.75c-.32-.55-.9-.88-1.52-.88H6.29ZM4.82 13.87c.31-.55.89-.88 1.51-.88H9.5c.62 0 1.2.33 1.51.87l1.58 2.75c.31.54.31 1.2 0 1.75L11 21.11c-.32.54-.9.875-1.52.875H6.3c-.63 0-1.21-.34-1.52-.875l-1.59-2.75c-.32-.55-.32-1.21 0-1.75l1.58-2.75Zm9.5-5.5c.31-.55.89-.88 1.51-.88H19c.62 0 1.2.33 1.51.87l1.58 2.75c.31.54.31 1.2 0 1.75l-1.59 2.75c-.32.54-.9.875-1.52.875H15.8c-.63 0-1.21-.34-1.52-.875l-1.59-2.75c-.32-.55-.32-1.21 0-1.75l1.58-2.75Z"/></svg>