<svg viewBox="0 0 24 24" xmlns="http://www.w3.org/2000/svg"><path fill="currentColor" d="M5.4 2.4c-1 0-1.8.8-1.8 1.8v3.6c0 .99.8 1.8 1.8 1.8h13.2c.99 0 1.8-.81 1.8-1.8V4.2c0-1-.81-1.8-1.8-1.8H5.4Zm1.8 10.79c-1.33 0-2.4-1.08-2.4-2.4h14.4c0 1.32-1.08 2.4-2.4 2.4H7.2Zm0 1.2H15c-2.32 0-4.2 1.88-4.2 4.2 0 .5.09.99.25 1.44l-2.99 1.49c-.4.19-.87-.1-.87-.54v-6.61Zm7.8 1.2c-1.66 0-3 1.34-3 3 0 1.65 1.34 3 3 3h.6c.33 0 .6-.27.6-.6 0-.34-.27-.6-.6-.6H15c-1 0-1.8-.81-1.8-1.8 0-1 .8-1.8 1.8-1.8h.6c.33 0 .6-.27.6-.6 0-.34-.27-.6-.6-.6H15Zm4.2 0c-.34 0-.6.26-.6.6 0 .33.26.6.6.6h.6c.99 0 1.8.8 1.8 1.8 0 .99-.81 1.8-1.8 1.8h-.6c-.34 0-.6.26-.6.6 0 .33.26.6.6.6h.6c1.65 0 3-1.35 3-3 0-1.66-1.35-3-3-3h-.6Zm-4.8 3c0-.34.26-.6.6-.6h4.8c.33 0 .6.26.6.6 0 .33-.27.6-.6.6H15c-.34 0-.6-.27-.6-.6Z"/></svg>