<svg viewBox="0 0 24 24" xmlns="http://www.w3.org/2000/svg"><path fill="currentColor" d="M19.25 12c0-4.01-3.25-7.25-7.25-7.25 -1.67 0-3.2.55-4.42 1.5h.66c.55 0 1 .44 1 1 0 .55-.45 1-1 1h-3c-.56 0-1-.45-1-1V7H4.2l.03-.06v-2.7c0-.56.44-1 1-1 .55 0 1 .44 1 1v.5C7.8 3.48 9.8 2.73 11.98 2.73c5.1 0 9.25 4.14 9.25 9.25 0 5.1-4.15 9.25-9.25 9.25 -5.11 0-9.25-4.15-9.25-9.25 0-.39.02-.76.06-1.14 .06-.52.51-.87 1.03-.87 .59 0 1.01.56.94 1.15 -.04.27-.05.55-.05.84 0 4 3.24 7.25 7.25 7.25 4 0 7.25-3.25 7.25-7.25ZM13 8c0-.56-.45-1-1-1 -.56 0-1 .44-1 1v5c0 .55.44 1 1 1h3c.55 0 1-.45 1-1 0-.56-.45-1-1-1h-2V8Z"/></svg>