<svg viewBox="0 0 24 24" xmlns="http://www.w3.org/2000/svg"><path fill="currentColor" d="M4.75 12c0 3.74 2.83 6.82 6.47 7.2 .2.74.53 1.42.96 2.03 -.07 0-.13 0-.19 0 -5.11 0-9.25-4.15-9.25-9.25 0-.39.02-.76.06-1.14 .06-.52.51-.87 1.03-.87 .59 0 1.01.56.94 1.15 -.04.27-.05.55-.05.84Zm8.05 1c.77-.81 1.75-1.42 2.86-1.74 -.18-.17-.42-.27-.68-.27h-2v-3c0-.56-.45-1-1-1 -.56 0-1 .44-1 1v4c0 .55.44 1 1 1h.8Zm8.43-.82c-.62-.44-1.3-.77-2.04-.97 -.39-3.65-3.47-6.48-7.21-6.48 -1.67 0-3.2.55-4.42 1.5h.66c.55 0 1 .44 1 1 0 .55-.45 1-1 1h-3c-.56 0-1-.45-1-1v-.25h-.04l.03-.06v-2.7c0-.56.44-1 1-1 .55 0 1 .44 1 1v.5c1.57-1.26 3.57-2.01 5.75-2.01 5.1 0 9.25 4.14 9.25 9.25 0 .06-.01.12-.01.18Zm1.75 5.31c0 3.03-2.47 5.5-5.5 5.5 -3.04 0-5.5-2.47-5.5-5.5 0-3.04 2.46-5.5 5.5-5.5 3.03 0 5.5 2.46 5.5 5.5Zm-7.15-2.36c-.2-.2-.52-.2-.71 0 -.2.19-.2.51 0 .7l1.64 1.64 -1.65 1.64c-.2.19-.2.51 0 .7 .19.19.51.19.7 0l1.64-1.65 1.64 1.64c.19.19.51.19.7 0 .19-.2.19-.52 0-.71l-1.65-1.65 1.64-1.65c.19-.2.19-.52 0-.71 -.2-.2-.52-.2-.71 0l-1.65 1.64 -1.65-1.65Z"/></svg>