<svg viewBox="0 0 24 24" xmlns="http://www.w3.org/2000/svg"><path fill="currentColor" d="M13.45 2.53c-.84-.71-2.07-.71-2.91 0L3.78 8.22c-.51.42-.8 1.05-.8 1.71v9.3c0 .96.78 1.75 1.75 1.75h8.61l-2.07-2.14c-1.49-1.54-1.7-3.86-.67-5.63 .44-.77 1.11-1.41 1.92-1.8 1.42-.7 3.11-.58 4.43.33 1.19-.83 2.68-1 4-.53V9.89c0-.67-.3-1.3-.8-1.72l-6.75-5.7Zm8.526 15.63c1.36-1.42 1.36-3.71 0-5.12 -.15-.16-.31-.3-.48-.42 -1.37-.99-3.25-.85-4.47.41h-.08c-1.08-1.11-2.67-1.35-3.97-.72 -.63.3-1.15.8-1.5 1.4 -.82 1.39-.64 3.22.52 4.42l4.44 4.59c.29.3.77.3 1.06 0l4.44-4.6Z"/></svg>