<svg viewBox="0 0 24 24" xmlns="http://www.w3.org/2000/svg"><path fill="currentColor" d="M13.43 2.53c-.84-.71-2.07-.71-2.91 0L3.78 8.22c-.51.42-.8 1.05-.8 1.71v9.29c0 .96.78 1.75 1.75 1.75h14.5c.96 0 1.75-.79 1.75-1.75v-9.3c0-.67-.3-1.3-.8-1.73l-6.77-5.7Zm-4.44 9.21c0 .69-.56 1.25-1.25 1.25 -.7 0-1.25-.56-1.25-1.25 0-.7.55-1.25 1.25-1.25 .69 0 1.25.55 1.25 1.25Zm4.25 0c0 .69-.56 1.25-1.25 1.25 -.7 0-1.25-.56-1.25-1.25 0-.7.55-1.25 1.25-1.25 .69 0 1.25.55 1.25 1.25Zm4.25 0c0 .69-.56 1.25-1.25 1.25 -.7 0-1.25-.56-1.25-1.25 0-.7.55-1.25 1.25-1.25 .69 0 1.25.55 1.25 1.25Zm-8.5 4c0 .69-.56 1.25-1.25 1.25 -.7 0-1.25-.56-1.25-1.25 0-.7.55-1.25 1.25-1.25 .69 0 1.25.55 1.25 1.25Zm3 1.25c-.7 0-1.25-.56-1.25-1.25 0-.7.55-1.25 1.25-1.25 .69 0 1.25.55 1.25 1.25 0 .69-.56 1.25-1.25 1.25Zm4.25 0c-.7 0-1.25-.56-1.25-1.25 0-.7.55-1.25 1.25-1.25 .69 0 1.25.55 1.25 1.25 0 .69-.56 1.25-1.25 1.25Z"/></svg>