<svg viewBox="0 0 24 24" xmlns="http://www.w3.org/2000/svg"><path fill="currentColor" d="M10.54 2.53c.83-.71 2.06-.71 2.9 0l6.75 5.69c.5.42.79 1.05.79 1.71v1.49c-.43-.14-.88-.25-1.35-.32 -.53-.09-1.09-.13-1.66-.13 -1.51 0-2.92.3-3.99.83 -.96.47-1.92 1.29-2.01 2.46l-.01-.01v6.2c0 .17.01.34.05.5H4.7c-.97 0-1.75-.79-1.75-1.75V9.89c0-.67.29-1.3.79-1.72l6.75-5.7Zm10.45 9.96c-.45-.17-.96-.3-1.5-.39 -.48-.08-.98-.12-1.5-.12 -2.77 0-5 1.11-5 2.5 0 1.38 2.23 2.5 5 2.5 .52 0 1.02-.05 1.5-.12 .54-.09 1.05-.22 1.5-.39 1.21-.46 2-1.19 2-2.01 0-.82-.79-1.55-2-2.01Zm0 5.05c-.47.14-.98.26-1.5.33 -.49.06-.99.1-1.5.1 -1.51 0-2.92-.31-3.99-.84 -.36-.18-.71-.41-1.02-.68v4c0 .35.14.69.41 1 .77.88 2.53 1.5 4.584 1.5 2.76 0 5-1.12 5-2.5v-4.01c-.31.27-.67.49-1.02.67 -.31.15-.64.28-.99.39Z"/></svg>