<svg viewBox="0 0 24 24" xmlns="http://www.w3.org/2000/svg"><path fill="currentColor" d="M10.54 2.53c.83-.71 2.06-.71 2.9 0l6.75 5.69c.5.42.79 1.05.79 1.71v2.1c-.64-.65-1.53-1.06-2.5-1.06 -1.94 0-3.5 1.56-3.5 3.5v.5c-.12-.57-.63-.99-1.22-1h-3.57c-.68.01-1.22.57-1.22 1.24v4c0 .96-.79 1.75-1.75 1.75h-2.5c-.97 0-1.75-.79-1.75-1.75V9.9c0-.67.29-1.3.79-1.72l6.75-5.7Zm10.45 11.96c0 1.38-1.12 2.5-2.5 2.5 -1.39 0-2.5-1.12-2.5-2.5 0-1.39 1.11-2.5 2.5-2.5 1.38 0 2.5 1.11 2.5 2.5Zm2 5.375c0 1.55-1.29 3.125-4.5 3.125 -3.22 0-4.5-1.57-4.5-3.125v-.11c0-.98.79-1.78 1.77-1.78h5.45c.97 0 1.77.79 1.77 1.77v.1Z"/></svg>