<svg viewBox="0 0 24 24" xmlns="http://www.w3.org/2000/svg"><path fill="currentColor" fill-rule="evenodd" d="M6.75 2C5.23 2 4 3.23 4 4.75v.41c0 2.01 1.05 3.89 2.79 4.93l1.81 1.08c.46.28.48.95.03 1.26L6.5 13.87c-1.58 1.07-2.52 2.85-2.52 4.75v.6c0 1.51 1.23 2.75 2.75 2.75h10.5c1.51 0 2.75-1.24 2.75-2.75v-.61c0-1.91-.95-3.69-2.52-4.76l-2.13-1.45c-.46-.31-.44-.99.03-1.27l1.81-1.09C18.9 9 19.96 7.12 19.96 5.1v-.42c0-1.52-1.24-2.75-2.75-2.75H6.71Zm10.5 17.5H6.75c-.07 0-.13-.03-.18-.08 -.05-.05-.08-.12-.08-.18v-.6c0-.53.13-1.04.38-1.5 .24-.47.6-.86 1.03-1.16l2.08-1.48c.42-.28.76-.66 1.02-1.09 .25-.44.39-.93.42-1.44h1.12c.02.5.16.99.42 1.43 .25.43.59.81 1.02 1.08l2.08 1.48c.43.29.78.68 1.03 1.15 .24.46.37.97.38 1.49v.6c0 .06-.03.12-.08.17 -.05.04-.12.07-.18.07Z"/></svg>