<svg viewBox="0 0 24 24" xmlns="http://www.w3.org/2000/svg"><g fill="currentColor"><path d="M4 4.75C4 3.23 5.23 2 6.75 2h10.5C18.76 2 20 3.23 20 4.75v.41c0 2.01-1.06 3.89-2.8 4.93l-1.82 1.08c-.47.28-.49.95-.04 1.26l2.12 1.44c1.57 1.07 2.51 2.85 2.51 4.75v.6c0 1.51-1.24 2.75-2.75 2.75H6.72c-1.52 0-2.75-1.24-2.75-2.75v-.61c0-1.91.94-3.69 2.51-4.76L8.6 12.4c.45-.31.43-.99-.04-1.27l-1.82-1.09C5 9 3.94 7.12 3.94 5.1v-.42ZM6.75 3.5c-.7 0-1.25.55-1.25 1.25v.41c0 1.49.78 2.87 2.06 3.64l1.81 1.08c1.4.84 1.46 2.86.1 3.78L7.34 15.1c-1.17.79-1.87 2.1-1.87 3.51v.6c0 .69.55 1.25 1.25 1.25h10.5c.69 0 1.25-.56 1.25-1.25v-.61c0-1.41-.7-2.73-1.87-3.52l-2.13-1.45c-1.36-.93-1.31-2.95.1-3.79l1.81-1.09c1.28-.77 2.06-2.16 2.06-3.65v-.42c0-.7-.56-1.25-1.25-1.25H6.69Z"/><path d="M6.75 3.5c-.7 0-1.25.55-1.25 1.25v.41c0 1.49.78 2.87 2.06 3.64l1.81 1.08c1.4.84 1.46 2.86.1 3.78L7.34 15.1c-1.17.79-1.87 2.1-1.87 3.51v.6c0 .69.55 1.25 1.25 1.25h10.5c.69 0 1.25-.56 1.25-1.25v-.61c0-1.41-.7-2.73-1.87-3.52l-2.13-1.45c-1.36-.93-1.31-2.95.1-3.79l1.81-1.09c1.28-.77 2.06-2.16 2.06-3.65v-.42c0-.7-.56-1.25-1.25-1.25H6.69Z"/></g></svg>