<svg viewBox="0 0 24 24" xmlns="http://www.w3.org/2000/svg"><path fill="currentColor" d="M17.1 9.59c.22-.26.41-.55.58-.85h2.31c1.1 0 2-.9 2-2 0-.56-.45-1-1-1h-2.82c-.36-2.27-2.33-4-4.7-4 -2.63 0-4.75 2.12-4.75 4.75 0 .91.26 1.77.71 2.5H4.46c-.83 0-1.5.67-1.5 1.5v.75c0 3.86 3.13 7 7 7h.96c.01-.05.03-.09.05-.13 -.29-.55-.53-1.26-.53-2.125 0-1.24.61-2.47 1.47-3.39 .89-.96 2.19-1.73 3.79-1.95 .87-.12 1.65-.17 2.34-.18 -.29-.36-.63-.66-1.02-.9Zm-4.87 8.35c-.74 1.1-1.18 2.28-1.24 3.25 -.03.41.28.76.7.79 .41.02.76-.29.79-.71 .03-.52.24-1.22.64-1.96 .59.62 1.52 1.15 2.85 1.15 1.3 0 2.27-.46 2.99-1.19 .69-.71 1.1-1.63 1.39-2.49 .14-.44.27-.88.38-1.29l.05-.22c.09-.34.17-.65.26-.93 .1-.35.2-.62.31-.83 .11-.22.2-.31.26-.35 .24-.17.37-.46.32-.75 -.05-.29-.26-.53-.54-.61 -1.03-.29-2.77-.6-5.57-.23 -1.35.17-2.45.82-3.2 1.63 -.75.78-1.21 1.78-1.21 2.7 0 .37.05.71.14 1.01 .21-.33.45-.64.72-.95 1.18-1.35 2.89-2.54 5-3.07 .26-.07.53.09.6.36 .06.26-.1.53-.37.6 -1.9.47-3.43 1.53-4.5 2.75 -.36.4-.65.81-.89 1.21Z"/></svg>