<svg viewBox="0 0 24 24" xmlns="http://www.w3.org/2000/svg"><path fill="currentColor" d="M10.409 12.659l-2.41 2.4V7.99h8v7.068l-2.41-2.41c-.88-.88-2.31-.88-3.19 0Zm3.59-3.66c-.56 0-1 .44-1 1 0 .55.44 1 1 1 .55 0 1-.45 1-1 0-.56-.45-1-1-1Zm-1.47 4.71l2.28 2.28H9.17l2.28-2.29c.29-.3.76-.3 1.06 0Zm-9.54-7.47c0-1.8 1.45-3.25 3.25-3.25h11.5c1.79 0 3.25 1.45 3.25 3.25v11.5c0 1.79-1.46 3.25-3.25 3.25H6.23c-1.8 0-3.25-1.46-3.25-3.25V6.23Zm4.25.25c-.42 0-.75.33-.75.75v9.5c0 .41.33.75.75.75h9.5c.41 0 .75-.34.75-.75v-9.5c0-.42-.34-.75-.75-.75h-9.5Z"/></svg>