<svg viewBox="0 0 24 24" xmlns="http://www.w3.org/2000/svg"><path fill="currentColor" d="M13.432 14.63l.09.07 6.92 6.8c-.5.3-1.08.48-1.71.48H7.23c-.63 0-1.21-.18-1.71-.49l6.92-6.81 .08-.08c.25-.19.61-.2.87-.01ZM18.75 3.99c1.79 0 3.25 1.45 3.25 3.25v11.5c0 .62-.18 1.21-.49 1.7l-6.94-6.82 -.13-.12c-.84-.71-2.06-.71-2.89-.01l-.14.12 -6.94 6.81c-.31-.5-.49-1.09-.49-1.71v-6.25c.76.32 1.61.49 2.5.49 3.58 0 6.5-2.92 6.5-6.5 0-.89-.18-1.74-.5-2.5h6.24ZM6.5.99c3.03 0 5.5 2.46 5.5 5.5 0 3.03-2.47 5.5-5.5 5.5 -3.04 0-5.5-2.47-5.5-5.5C1 3.45 3.46.99 6.5.99Zm10.25 6c-1.25 0-2.26 1-2.26 2.25 0 1.24 1 2.25 2.25 2.25 1.24 0 2.25-1.01 2.25-2.26 0-1.25-1.01-2.26-2.26-2.26Zm0 1.5c.41 0 .75.33.75.75 0 .41-.34.75-.76.75s-.76-.34-.76-.76 .33-.76.75-.76ZM6.49 2.98l-.09 0c-.21.03-.37.19-.41.4l-.01.08 -.01 2.5 -2.51 0 -.09 0c-.21.03-.37.19-.41.4l-.01.08 0 .08c.03.2.19.36.4.4l.08 0 2.5-.01 0 2.5 0 .08c.03.2.19.36.4.4l.08 0 .08-.01c.2-.04.36-.2.4-.41l0-.09 -.01-2.51 2.5 0 .08-.01c.2-.04.36-.2.4-.41l0-.09 -.01-.09c-.04-.21-.2-.37-.41-.41l-.09-.01 -2.51-.01 0-2.5 -.01-.09c-.04-.21-.2-.37-.41-.41l-.09-.01Z"/></svg>