<svg viewBox="0 0 24 24" xmlns="http://www.w3.org/2000/svg"><path fill="currentColor" d="M3.28 2.21c-.3-.3-.77-.3-1.07-.01 -.3.29-.3.76-.01 1.06l1.26 1.26c-.31.49-.49 1.08-.49 1.7v11.5c0 .62.17 1.21.48 1.7l6.92-6.93c.18-.19.39-.34.62-.44l1.48 1.48c-.3-.29-.77-.28-1.05.01l-6.93 6.92c.49.3 1.08.48 1.7.48h11.5c.62 0 1.21-.18 1.7-.49l1.26 1.26c.29.29.76.29 1.06 0 .29-.3.29-.77 0-1.07L3.21 2.13Zm17.71 15.53c0 .02-.01.04-.01.06L6.16 2.98c.02-.01.04-.01.06-.01h11.5c1.79 0 3.25 1.45 3.25 3.25v11.5Zm-4.5-8.25c1.1 0 2-.9 2-2 0-1.11-.9-2-2-2 -1.11 0-2 .89-2 2 0 1.1.89 2 2 2Z"/></svg>