<svg viewBox="0 0 24 24" xmlns="http://www.w3.org/2000/svg"><path fill="currentColor" d="M12 6.5C12 3.46 9.53 1 6.5 1 3.46 1 1 3.46 1 6.5 1 9.53 3.46 12 6.5 12 9.53 12 12 9.53 12 6.5Zm-8-3v.55c.63-.65 1.521-1.06 2.5-1.06 1.93 0 3.5 1.56 3.5 3.5 0 1.93-1.57 3.5-3.5 3.5 -1.08 0-2.05-.49-2.69-1.26 -.27-.32-.01-.75.4-.75 .17 0 .33.08.45.21 .45.48 1.1.78 1.82.78 1.38 0 2.5-1.12 2.5-2.5 0-1.39-1.12-2.5-2.5-2.5 -.82 0-1.55.39-2.01 1h.99c.27 0 .5.22.5.5 0 .27-.23.5-.5.5h-2c-.28 0-.5-.23-.5-.5v-2c0-.28.22-.5.5-.5 .27 0 .5.22.5.5Zm13.5 5.75c0-.42-.34-.76-.76-.76s-.76.33-.76.75c0 .41.33.75.75.75 .41 0 .75-.34.75-.76Zm-4.51-2.76c0 3.58-2.92 6.5-6.5 6.5 -.89 0-1.74-.18-2.5-.5v6.24c0 .62.17 1.21.48 1.7l6.93-6.82 .13-.13c.83-.7 2.05-.7 2.88 0l.12.11 6.93 6.81c.3-.5.48-1.09.48-1.71V7.19c0-1.8-1.46-3.25-3.25-3.25h-6.25c.32.76.49 1.61.49 2.5Zm1.5 2.75c0-1.25 1-2.26 2.25-2.26 1.24 0 2.25 1 2.25 2.25 0 1.24-1.01 2.25-2.26 2.25 -1.25 0-2.26-1.01-2.26-2.26Zm-2.03 5.46l.08-.08c.25-.19.61-.2.87-.01l.09.07 6.92 6.8c-.5.3-1.08.48-1.71.48H7.21c-.63 0-1.21-.18-1.71-.49l6.92-6.81Z"/></svg>