<svg viewBox="0 0 24 24" xmlns="http://www.w3.org/2000/svg"><path fill="currentColor" d="M3.42 2.57c-.24-.24-.62-.24-.85 0 -.24.23-.24.61 0 .84l1.68 1.68c-.42.58-.67 1.3-.67 2.08v7.19c0 .77.24 1.49.66 2.08l4.83-4.84c.3-.31.68-.52 1.07-.63l7.33 7.33c-.71.52-1.58.83-2.52.83H6.86c.65.73 1.61 1.2 2.68 1.2h5.4c1.27 0 2.44-.45 3.37-1.19l2.2 2.2c.23.23.61.23.84 0 .23-.24.23-.62 0-.85L3.34 2.48ZM18.95 16.4l.91.91c.33-.71.52-1.5.52-2.33V9.57c0-1.07-.47-2.03-1.2-2.69v8.08c0 .14-.01.28-.03.42 -.04.34-.12.67-.23.98ZM6.26 3.71l11.61 11.61c.07-.3.12-.61.12-.94v-7.2c0-1.99-1.62-3.6-3.6-3.6h-7.2c-.33 0-.64.04-.94.12Zm8.73 4.07c0 .66-.54 1.2-1.2 1.2 -.67 0-1.2-.54-1.2-1.2 0-.67.53-1.2 1.2-1.2 .66 0 1.2.53 1.2 1.2Zm1.48 9.53l-4.84-4.84c-.47-.47-1.23-.47-1.7 0L5.09 17.3c.58.41 1.3.66 2.08.66h7.19c.77 0 1.49-.25 2.08-.67Z"/></svg>