<svg viewBox="0 0 24 24" xmlns="http://www.w3.org/2000/svg"><path fill="currentColor" d="M5.25 2C3.45 2 2 3.45 2 5.25v9c0 .64.18 1.23.5 1.74l5.7-5.37c.86-.82 2.21-.82 3.08 0l5.7 5.36c.32-.51.5-1.11.5-1.75v-9c0-1.8-1.46-3.25-3.25-3.25h-9Zm7.5 6c-.7 0-1.25-.56-1.25-1.25 0-.7.55-1.25 1.25-1.25 .69 0 1.25.55 1.25 1.25C14 7.44 13.44 8 12.75 8Zm-7.5 9.5c-.61 0-1.19-.17-1.67-.46l5.65-5.33c.28-.28.73-.28 1.02 0l5.65 5.32c-.49.29-1.06.45-1.67.45h-9Zm1.24 1.25v-.25h8c.08 0 .15-.01.23-.01 2.09-.13 3.76-1.87 3.76-4v-8h.24c1.79 0 3.25 1.45 3.25 3.25v7c0 2.89-2.36 5.25-5.25 5.25h-7c-1.8 0-3.25-1.46-3.25-3.25Z"/></svg>