<svg viewBox="0 0 24 24" xmlns="http://www.w3.org/2000/svg"><path fill="currentColor" d="M7.91 6.41c.07-.1.15-.19.23-.27 .31-.32.69-.55 1.11-.69L10.62 5c.1-.04.19-.11.26-.2 .06-.1.1-.21.1-.32 0-.12-.04-.23-.1-.32 -.07-.1-.16-.17-.27-.2l-1.38-.45c-.42-.15-.79-.38-1.1-.7 -.3-.31-.53-.67-.67-1.08l-.02-.04L6.99.31c-.04-.11-.11-.2-.2-.27 -.1-.07-.21-.1-.32-.1 -.12 0-.23.03-.32.09 -.1.06-.17.15-.2.26L5.5 1.66c-.14.41-.38.79-.69 1.11 -.32.31-.7.54-1.12.68l-1.38.44 -.03 0c-.11.03-.2.1-.27.19s-.1.2-.1.31c0 .11.03.22.09.31s.15.16.26.19l1.37.44c.41.13.79.37 1.11.68 .31.31.54.69.68 1.11l.44 1.37c0 .01 0 .02.01.03 .03.09.1.17.18.22 .09.06.2.09.31.09 .11 0 .22-.04.31-.1 .09-.07.16-.16.19-.27l.44-1.38c.1-.31.25-.6.45-.85Zm-7.7 3.8l.76-.25c.23-.08.44-.21.61-.39 .17-.18.3-.39.38-.62l.24-.77c.02-.06.05-.11.11-.15 .05-.04.11-.06.17-.06 .06 0 .12.01.17.05 .05.03.08.08.11.14l.24.76c.07.23.2.44.37.61 .17.17.37.3.6.38l.76.24c.05.02.11.05.14.11 .03.05.05.11.05.17 0 .06-.02.12-.06.17 -.04.05-.09.08-.15.11l-.77.24c-.24.07-.45.2-.62.38 -.18.17-.31.38-.39.61l-.25.76c-.03.05-.06.11-.12.14 -.06.03-.12.05-.18.05 -.07 0-.13-.02-.18-.06 -.06-.04-.09-.09-.12-.15l-.25-.77c-.08-.24-.21-.45-.39-.62 -.18-.18-.39-.31-.62-.39l-.77-.25c-.06-.03-.12-.06-.15-.12 -.04-.06-.06-.12-.06-.18 0-.07.01-.13.05-.18 .03-.06.08-.09.14-.12l.01-.01Zm3.07 3.59c-.1.06-.19.11-.29.15v3.78c0 .62.17 1.21.48 1.7l6.93-6.82 .13-.13c.83-.7 2.05-.7 2.88 0l.12.11 6.93 6.81c.3-.5.48-1.09.48-1.71V6.19c0-1.8-1.46-3.25-3.25-3.25h-6.8c.3.1.57.3.76.56 .18.26.27.57.28.9 -.01.31-.1.62-.28.89 -.17.28-.42.5-.72.64l-1.4.46c-.27.09-.52.24-.72.44l-.18.1c-.13.16-.23.35-.29.55l-.41 1.45c-.11.3-.31.57-.57.77 -.27.18-.58.27-.89.27 -.24 0-.47-.06-.68-.16 .11.19.18.42.18.65 0 .26-.09.53-.24.75 -.16.22-.38.38-.63.48l-.79.25c-.09.03-.16.08-.22.14 -.07.06-.12.14-.14.23l-.24.76c-.1.26-.27.48-.49.65Zm8.18-.1l.08-.08c.25-.19.61-.2.87-.01l.09.07 6.92 6.8c-.5.3-1.08.48-1.71.48H6.21c-.63 0-1.21-.18-1.71-.49l6.92-6.81Zm1.77-4.97c0-1.11.89-2 2-2 1.1 0 2 .89 2 2 0 1.1-.9 2-2 2 -1.11 0-2-.9-2-2Z"/></svg>