<svg viewBox="0 0 24 24" xmlns="http://www.w3.org/2000/svg"><path fill="currentColor" d="M12 6.5C12 9.53 9.53 12 6.5 12 3.46 12 1 9.53 1 6.5 1 3.46 3.46 1 6.5 1 9.53 1 12 3.46 12 6.5ZM5.35 4.35c.19-.2.19-.52 0-.71 -.2-.2-.52-.2-.71 0l-1.5 1.5c-.2.19-.2.51 0 .7l1.5 1.5c.19.19.51.19.7 0 .19-.2.19-.52 0-.71l-.65-.65h2.04c1.24 0 2.25 1 2.25 2.25v.25c0 .27.22.5.5.5 .27 0 .5-.23.5-.5v-.25c0-1.8-1.46-3.25-3.25-3.25H4.68l.64-.65Zm10.39 3.14c.41 0 .75.33.75.75 0 .41-.34.75-.76.75s-.76-.34-.76-.76 .33-.76.75-.76Zm-2.76-1c0 3.58-2.92 6.5-6.5 6.5 -1.29 0-2.49-.375-3.5-1.03v5.77c0 .62.17 1.21.48 1.7l6.93-6.82 .13-.13c.83-.7 2.05-.7 2.88 0l.12.11 6.93 6.81c.3-.5.48-1.09.48-1.71V6.19c0-1.8-1.46-3.25-3.25-3.25H11.9c.64 1.01 1.02 2.21 1.02 3.5Zm2.75-.5c1.24 0 2.25 1 2.25 2.25 0 1.24-1.01 2.25-2.26 2.25 -1.25 0-2.26-1.01-2.26-2.26 0-1.25 1-2.26 2.25-2.26Zm-4.28 7.71l.08-.08c.25-.19.61-.2.87-.01l.09.07 6.92 6.8c-.5.3-1.08.48-1.71.48H6.2c-.63 0-1.21-.18-1.71-.49l6.92-6.81Z"/></svg>