<svg viewBox="0 0 24 24" xmlns="http://www.w3.org/2000/svg"><path fill="currentColor" d="M4.5 6c-.91.57-1.51 1.58-1.51 2.74v6.5c0 2.89 2.35 5.25 5.25 5.25h6.5c1.15 0 2.16-.61 2.74-1.51l-.13 0 -.13 0h-9c-2.08 0-3.75-1.68-3.75-3.75v-9c0-.09 0-.17 0-.25Zm8.06 6.14l-.1.07 -5.4 5.31c.48.29 1.05.45 1.66.45h8.5c.62 0 1.2-.18 1.69-.48l-5.42-5.3 -.09-.08c-.23-.17-.53-.19-.78-.07l-.11.06ZM8.73 2.99c-1.8 0-3.25 1.45-3.25 3.25v8.5c0 .64.18 1.23.5 1.74l5.41-5.34 .12-.12c.83-.71 2.05-.71 2.88-.02l.13.12 5.43 5.31c.31-.5.49-1.09.49-1.72v-8.5c0-1.8-1.46-3.25-3.25-3.25h-8.5Zm.74 2.75c.68 0 1.24.55 1.24 1.24 0 .68-.56 1.24-1.25 1.24s-1.25-.56-1.25-1.25 .55-1.25 1.24-1.25Z"/></svg>