<svg viewBox="0 0 24 24" xmlns="http://www.w3.org/2000/svg"><path fill="currentColor" d="M11.55 13.64l-.09.07 -6.93 6.8c.49.3 1.07.48 1.7.48h4.91l.35-1.43c.16-.65.49-1.24.96-1.72l2.1-2.11 -2.08-2.04 -.1-.08c-.27-.19-.62-.19-.88 0Zm4.94-5.4c0-.42-.34-.76-.76-.76s-.76.33-.76.75c0 .41.33.75.75.75 .41 0 .75-.34.75-.76Zm-.85 6.44l-2.09-2.05 -.13-.12c-.84-.71-2.06-.71-2.89-.01l-.14.12 -6.94 6.811c-.31-.5-.49-1.09-.49-1.71V6.22c0-1.8 1.45-3.25 3.24-3.25h11.49c1.79 0 3.24 1.45 3.24 3.24v4.76c-.94-.09-1.9.23-2.61.95l-2.74 2.73Zm-2.17-6.45c0 1.24 1 2.25 2.25 2.25 1.24 0 2.25-1.01 2.25-2.26 0-1.25-1.01-2.26-2.26-2.26 -1.25 0-2.26 1-2.26 2.25Zm5.59 4.41l-5.91 5.9c-.35.34-.59.77-.71 1.24l-.46 1.83c-.2.79.52 1.51 1.31 1.31l1.83-.46c.47-.12.9-.37 1.24-.71l5.9-5.91c.89-.9.89-2.34 0-3.24 -.9-.9-2.34-.9-3.24 0Z"/></svg>