<svg viewBox="0 0 24 24" xmlns="http://www.w3.org/2000/svg"><path fill="currentColor" d="M7.19 3.59c-1.99 0-3.6 1.61-3.6 3.6v3.6h3.95l2.96-2.97c.82-.83 2.14-.83 2.96 0l2.96 2.96h3.95V7.17c0-1.99-1.62-3.6-3.6-3.6H7.16Zm13.2 8.4v4.8c0 1.72-1.22 3.16-2.84 3.51l-4.09-4.09c-.83-.83-2.15-.83-2.97 0L6.4 20.29c-1.62-.36-2.84-1.8-2.84-3.52v-4.8h16.8Zm-12.36 8.4h7.9l-3.32-3.32c-.36-.36-.93-.36-1.28 0l-3.32 3.31Zm1.2-9.6h5.5l-2.115-2.12c-.36-.36-.93-.36-1.28 0l-2.12 2.11Zm9.35-4.21c0 .66-.54 1.2-1.2 1.2 -.67 0-1.2-.54-1.2-1.2 0-.67.53-1.2 1.2-1.2 .66 0 1.2.53 1.2 1.2Zm-1.2 9.6c.66 0 1.2-.54 1.2-1.2 0-.67-.54-1.2-1.2-1.2 -.67 0-1.2.53-1.2 1.2 0 .66.53 1.2 1.2 1.2Z"/></svg>