<svg viewBox="0 0 24 24" xmlns="http://www.w3.org/2000/svg"><path fill="currentColor" d="M6.5 12C9.53 12 12 9.53 12 6.5 12 3.46 9.53 1 6.5 1 3.46 1 1 3.46 1 6.5 1 9.53 3.46 12 6.5 12Zm0-1.5c-.84 0-1.61-.26-2.25-.7L9.8 4.24c.43.64.69 1.41.69 2.24 0 2.2-1.8 4-4 4ZM3.19 8.74c-.44-.65-.7-1.42-.7-2.25 0-2.21 1.79-4 4-4 .83 0 1.6.25 2.24.69L3.17 8.73Zm13.31-.5c0-.42-.34-.76-.76-.76s-.76.33-.76.75c0 .41.33.75.75.75 .41 0 .75-.34.75-.76ZM6.49 12.98c3.58 0 6.5-2.92 6.5-6.5 0-1.29-.375-2.49-1.03-3.5h5.77c1.79 0 3.25 1.45 3.25 3.25v11.5c0 .62-.18 1.21-.49 1.7l-6.94-6.82 -.13-.12c-.84-.71-2.06-.71-2.89-.01l-.14.12 -6.94 6.81c-.31-.5-.49-1.09-.49-1.71v-5.78c1.01.64 2.21 1.02 3.5 1.02Zm7-4.75c0 1.24 1 2.25 2.25 2.25 1.24 0 2.25-1.01 2.25-2.26 0-1.25-1.01-2.26-2.26-2.26 -1.25 0-2.26 1-2.26 2.25Zm-1.95 5.39l-.09.07 -6.93 6.8c.49.3 1.07.48 1.7.48h11.5c.62 0 1.2-.18 1.7-.49l-6.93-6.81 -.1-.08c-.27-.19-.62-.19-.88 0Z"/></svg>