<svg viewBox="0 0 24 24" xmlns="http://www.w3.org/2000/svg"><g fill="currentColor"><path d="M5 6c.04-1.42.24-2.67.55-3.59 .17-.52.36-.9.55-1.14 .19-.25.32-.29.38-.29 .05 0 .19.03.38.28 .18.24.38.62.55 1.13 .3.91.51 2.17.55 3.58H4.97Z"/><path d="M4.61 2.09c.1-.33.22-.63.36-.89 -2.15.61-3.76 2.49-3.96 4.78h2.98c.04-1.51.25-2.87.6-3.91Z"/><path d="M8.38 2.09c-.11-.33-.23-.63-.37-.89 2.14.61 3.75 2.49 3.95 4.78H8.97c-.05-1.51-.26-2.87-.61-3.91Z"/><path d="M8.99 7h2.98c-.21 2.28-1.82 4.17-3.96 4.78 .13-.27.26-.57.36-.89 .34-1.04.56-2.41.6-3.91Z"/><path d="M6.88 11.719c-.2.24-.33.28-.39.28s-.2-.04-.39-.29c-.19-.25-.39-.63-.56-1.14 -.31-.92-.52-2.17-.56-3.59h2.98c-.05 1.41-.25 2.66-.56 3.58 -.18.51-.37.89-.56 1.13Z"/><path d="M1.02 7c.2 2.28 1.81 4.17 3.95 4.78 -.14-.27-.27-.57-.37-.89 -.35-1.04-.57-2.41-.61-3.91H1Z"/><path d="M15.75 7.5c.41 0 .75.33.75.75 0 .41-.34.75-.76.75s-.76-.34-.76-.76 .33-.76.75-.76Z"/><path d="M6.5 13c3.58 0 6.5-2.92 6.5-6.5 0-1.29-.375-2.49-1.03-3.5h5.77c1.79 0 3.25 1.45 3.25 3.25v11.5c0 .62-.18 1.21-.49 1.7l-6.94-6.82 -.13-.12c-.84-.71-2.06-.71-2.89-.01l-.14.12 -6.94 6.81c-.31-.5-.49-1.09-.49-1.71v-5.78c1.01.64 2.21 1.02 3.5 1.02Zm9.25-7c-1.25 0-2.26 1-2.26 2.25 0 1.24 1 2.25 2.25 2.25 1.24 0 2.25-1.01 2.25-2.26 0-1.25-1.01-2.26-2.26-2.26Z"/><path d="M11.47 13.71l.08-.08c.25-.19.61-.2.87-.01l.09.07 6.92 6.8c-.5.3-1.08.48-1.71.48H6.22c-.63 0-1.21-.18-1.71-.49l6.92-6.81Z"/></g></svg>