<svg viewBox="0 0 24 24" xmlns="http://www.w3.org/2000/svg"><path fill="currentColor" d="M16.5 8.25c0-.42-.34-.76-.76-.76s-.76.33-.76.75c0 .41.33.75.75.75 .41 0 .75-.34.75-.76Zm-13.51 2.5V6.24c0-1.8 1.45-3.25 3.25-3.25h11.5c1.79 0 3.25 1.45 3.25 3.25v11.5c0 .62-.18 1.21-.49 1.7l-6.94-6.82 -.13-.12c-.64-.54-1.5-.67-2.25-.39 -.97-1.59-2.72-2.65-4.71-2.65 -1.33 0-2.55.47-3.5 1.25Zm10.5-2.51c0 1.24 1 2.25 2.25 2.25 1.24 0 2.25-1.01 2.25-2.26 0-1.25-1.01-2.26-2.26-2.26 -1.25 0-2.26 1-2.26 2.25Zm.48 12.74c-.06-.37-.22-.71-.5-.99l-2.24-2.24c.47-.82.75-1.77.75-2.78 0-.51-.07-1.01-.2-1.48 .21-.06.44-.03.63.11l.09.07 6.92 6.8c-.5.3-1.08.48-1.71.48h-3.77Zm-4.04-3.12c.65-.79 1.04-1.79 1.04-2.89 0-2.49-2.02-4.5-4.5-4.5 -2.49 0-4.5 2.01-4.5 4.5 0 2.48 2.01 4.5 4.5 4.5 .84 0 1.63-.24 2.3-.64l2.91 2.91c.29.29.76.29 1.06 0 .29-.3.29-.77 0-1.07L9.9 17.83Zm-3.46.11c-1.66 0-3-1.35-3-3 0-1.66 1.34-3 3-3 1.65 0 3 1.34 3 3 0 1.65-1.35 3-3 3Z"/></svg>