<svg viewBox="0 0 24 24" xmlns="http://www.w3.org/2000/svg"><path fill="currentColor" d="M1 3c0-1.11.89-2 2-2h7c1.1 0 2 .89 2 2v6c0 1.1-.9 2-2 2H3c-1.11 0-2-.9-2-2V3Zm2.5 1c-.28 0-.5.22-.5.5 0 .27.22.5.5.5h6c.27 0 .5-.23.5-.5 0-.28-.23-.5-.5-.5h-6Zm0 3c-.28 0-.5.22-.5.5 0 .27.22.5.5.5h6c.27 0 .5-.23.5-.5 0-.28-.23-.5-.5-.5h-6Zm13.25 1.5c.41 0 .75.33.75.75 0 .41-.34.75-.76.75s-.76-.34-.76-.76 .33-.76.75-.76Zm-3.76.5c0 1.65-1.35 3-3 3h-6v6.75c0 .62.17 1.21.48 1.7l6.93-6.82 .13-.13c.83-.7 2.05-.7 2.88 0l.12.11 6.93 6.81c.3-.5.48-1.09.48-1.71V7.21c0-1.8-1.46-3.25-3.25-3.25h-5.75v5Zm3.75-2c1.24 0 2.25 1 2.25 2.25 0 1.24-1.01 2.25-2.26 2.25 -1.25 0-2.26-1.01-2.26-2.26 0-1.25 1-2.26 2.25-2.26Zm-4.28 7.71l.08-.08c.25-.19.61-.2.87-.01l.09.07 6.92 6.8c-.5.3-1.08.48-1.71.48H7.21c-.63 0-1.21-.18-1.71-.49l6.92-6.81Z"/></svg>