<svg viewBox="0 0 24 24" xmlns="http://www.w3.org/2000/svg"><path fill="currentColor" d="M3 6.25C3 4.45 4.45 3 6.25 3h9c1.79 0 3.25 1.45 3.25 3.25v9c0 .64-.19 1.24-.52 1.75l-5.7-5.38c-.87-.82-2.23-.82-3.09 0l-5.7 5.37c-.33-.51-.52-1.11-.52-1.76v-9Zm10.74 2.74c.68 0 1.24-.56 1.24-1.25s-.56-1.25-1.25-1.25 -1.25.55-1.25 1.24c0 .68.55 1.24 1.24 1.24Zm-2.49 3.72l5.64 5.32c-.49.28-1.06.45-1.66.45h-9c-.61 0-1.18-.17-1.66-.46l5.64-5.33c.28-.28.74-.28 1.02 0Zm-2.52 8.28c-1.16 0-2.17-.6-2.74-1.51H8.7l.02 0h7c2.07 0 3.75-1.68 3.75-3.75V5.99c.9.57 1.5 1.58 1.5 2.73v7c0 2.89-2.36 5.25-5.25 5.25H8.71Z"/></svg>