<svg viewBox="0 0 24 24" xmlns="http://www.w3.org/2000/svg"><path fill="currentColor" d="M4 6.25C4 4.45 5.45 3 7.25 3h9.5C18.54 3 20 4.45 20 6.25v9c0 1-.46 1.9-1.18 2.5 .71.59 1.17 1.49 1.17 2.5V21c0 .41-.34.75-.75.75 -.42 0-.75-.34-.75-.75v-.75c0-.97-.79-1.75-1.75-1.75h-1c-.42 0-.75-.34-.75-.75 0-.09.01-.18.04-.25h-1.59c.02.07.04.16.04.25 0 .41-.34.75-.75.75h-1.5c-.42 0-.75-.34-.75-.75 0-.09.01-.18.04-.25H8.93c.02.07.04.16.04.25 0 .41-.34.75-.75.75h-1c-.97 0-1.75.78-1.75 1.75V21c0 .41-.34.75-.75.75 -.42 0-.75-.34-.75-.75v-.75c0-1.01.45-1.91 1.17-2.5 -.18-.15-.34-.31-.48-.49 -.44-.56-.7-1.26-.7-2.02v-9Zm1.78 9.95c.28.44.77.75 1.33.79l4.36-4.29c.29-.29.75-.29 1.04-.01l4.39 4.28c.55-.06 1.03-.37 1.31-.82l-4.66-4.55c-.88-.86-2.28-.86-3.15 0l-4.65 4.55Zm9.21-7.21c.69 0 1.25-.56 1.25-1.25 0-.7-.56-1.25-1.25-1.25 -.7 0-1.25.55-1.25 1.25 0 .69.55 1.25 1.25 1.25Z"/></svg>