<svg viewBox="0 0 24 24" xmlns="http://www.w3.org/2000/svg"><path fill="currentColor" d="M6.25 3h.25v3.5H3v-.25C3 4.45 4.45 3 6.25 3ZM3 16V8h3.5v8H3Zm13-9.5H8V3h8v3.5Zm1.5 0V3h.25C19.54 3 21 4.45 21 6.25v.25h-3.5Zm0 1.5H21v8h-3.5V8Zm0 9.5H21v.25c0 1.79-1.46 3.25-3.25 3.25h-.25v-3.5Zm-1.5 0V21H8v-3.5h8Zm-9.5 0V21h-.25C4.45 21 3 19.54 3 17.75v-.25h3.5ZM8 15.06l2.4-2.41c.87-.88 2.3-.88 3.18 0l2.4 2.4V7.98h-8v7.068Zm6-6.068c.55 0 1 .44 1 1 0 .55-.45 1-1 1 -.56 0-1-.45-1-1 0-.56.44-1 1-1Zm.81 7l-2.29-2.29c-.3-.3-.77-.3-1.07 0l-2.29 2.28h5.62Z"/></svg>