<svg viewBox="0 0 24 24" xmlns="http://www.w3.org/2000/svg"><path fill="currentColor" d="M4 3c-1.11 0-2 .89-2 2v12.5c0 1.1.89 2 2 2h6c.01 0 .02-.01.04-.01h1.09c-.09-.15-.14-.32-.14-.5v-1.51H9.84l-.04-.01v0H3.98V4.97h6c.55 0 1 .44 1 1v9.99c0-.56.44-1 1-1h1v-9c0-.56.44-1 1-1h6v7.16c.59-.29 1.32-.22 1.87.23 .04.03.08.07.12.11V4.94c0-1.11-.9-2-2-2h-6c-.77 0-1.47.28-2 .76 -.54-.48-1.24-.77-2-.77h-6Zm17.23 10.17c.24.2.58.58.91 1.12 .53.89.85 1.96.85 3.19s-.33 2.3-.86 3.19c-.33.54-.67.92-.92 1.12 -.32.26-.8.22-1.06-.1 -.27-.32-.23-.8.09-1.06 .12-.11.35-.36.58-.75 .4-.67.64-1.48.64-2.43 0-.96-.25-1.76-.65-2.43 -.24-.4-.47-.65-.59-.75 -.32-.27-.37-.74-.1-1.06 .26-.32.73-.37 1.05-.1Zm-2.04 1.47c.18.14.43.38.67.74 .39.58.62 1.29.62 2.1s-.24 1.51-.63 2.1c-.24.35-.49.6-.68.74 -.34.24-.81.18-1.05-.15 -.23-.31-.2-.72.06-.98l.08-.08c.06-.05.19-.18.32-.38 .23-.36.37-.78.37-1.28 0-.51-.14-.93-.38-1.28 -.14-.21-.27-.34-.33-.38 -.34-.25-.4-.72-.15-1.05 .24-.34.71-.4 1.05-.15Zm-2.69-.61c.29.1.48.38.48.7v5.5c0 .31-.2.59-.49.7 -.3.1-.63.02-.83-.21l-1.53-1.75h-1.41c-.42 0-.75-.34-.75-.75v-1.5c0-.42.33-.75.75-.75h1.4l1.52-1.75c.2-.24.53-.32.82-.21Z"/></svg>