<svg viewBox="0 0 24 24" xmlns="http://www.w3.org/2000/svg"><path fill="currentColor" d="M18.12 4.61l2.1 4.63c.41.08.81.17 1.2.27 .4.1.64.5.54.91 -.11.4-.51.64-.92.54 -.48-.13-.98-.23-1.5-.33 -4.56-.86-10.58-.86-15.14-.01 -.53.09-1.03.2-1.51.32 -.41.1-.81-.15-.92-.55 -.11-.41.14-.81.54-.92 .38-.1.79-.19 1.2-.28l2.1-4.64c.44-.99 1.42-1.62 2.5-1.62h7.23c1.07 0 2.05.63 2.5 1.61ZM3.49 16.49c0-1.66 1.34-3 3-3 1.65 0 3 1.34 3 3 0 1.65-1.35 3-3 3 -1.66 0-3-1.35-3-3Zm3-4.5c-2.49 0-4.5 2.01-4.5 4.5 0 2.48 2.01 4.5 4.5 4.5 2.14 0 3.93-1.5 4.38-3.5h2.22c.45 2 2.24 3.5 4.38 3.5 2.48 0 4.5-2.02 4.5-4.5 0-2.49-2.02-4.5-4.5-4.5 -2.32 0-4.23 1.75-4.48 4h-2.06c-.25-2.25-2.16-4-4.48-4Zm8 4.5c0-1.66 1.34-3 3-3 1.65 0 3 1.34 3 3 0 1.65-1.35 3-3 3 -1.66 0-3-1.35-3-3Z"/></svg>