<svg viewBox="0 0 24 24" xmlns="http://www.w3.org/2000/svg"><path fill="currentColor" d="M20.4 10.8c0-5.31-4.3-9.61-9.6-9.61 -5.31 0-9.61 4.29-9.61 9.6 0 5.3 4.29 9.6 9.6 9.6 .7 0 1.4-.08 2.06-.23 -.09-.17-.17-.34-.24-.52 -.39-.92-.59-1.93-.63-3.01l-.01-.02 -.01-.34v-3.02c0-.9.7-1.7 1.68-1.7 1.08 0 2.1-.44 3.11-1.49 .66-.69 1.75-.69 2.41 0 .23.24.47.46.71.64 .15.11.31.22.47.31 0-.1 0-.19 0-.28ZM10.2 9.49c.05-.28.29-.5.59-.5 .29 0 .53.21.59.49l0 .1v5.4l-.01.1c-.06.27-.3.49-.6.49s-.54-.22-.6-.5l-.01-.11V9.55l0-.11Zm-.31-2.6c0-.5.4-.9.9-.9 .49 0 .9.4.9.9 0 .49-.41.9-.9.9 -.5 0-.91-.41-.91-.9Zm10.5 5.51c-.42-.18-.82-.41-1.2-.7 -.3-.23-.59-.48-.86-.78 -.19-.2-.5-.2-.68-.01 -1.2 1.24-2.52 1.85-3.99 1.85 -.27 0-.48.22-.48.5v3l0 .31c.03.95.2 1.81.52 2.58 .18.43.4.83.67 1.2 .32.44.72.84 1.18 1.2 .62.48 1.37.87 2.24 1.17 .09.03.2.03.3 0 3.07-1.07 4.64-3.26 4.64-6.48v-3.01l-.01-.11c-.05-.23-.24-.4-.48-.4 -.25 0-.49-.02-.72-.06 -.42-.06-.82-.17-1.2-.34Z"/></svg>