<svg viewBox="0 0 24 24" xmlns="http://www.w3.org/2000/svg"><path fill="currentColor" d="M3 2.9c.05-.55.53-.96 1.08-.91l3.74.35c2.65.26 5.2.58 7.29.94 2.04.35 3.79.76 4.76 1.27 .24.13.52.3.73.54 .22.25.43.66.34 1.16 -.09.45-.38.76-.62.95 -.25.19-.56.35-.88.48 -1.27.52-3.67 1.02-7.4 1.51 -1.69.22-2.93.43-3.81.63 .21.04.43.09.68.13 1.21.22 2.74.41 4.38.56 1.24.11 2.58.28 3.72.51l0 0 -1.51 1.5c-.08.07-.15.15-.21.23 -.72-.11-1.48-.2-2.21-.26 -1.67-.15-3.27-.35-4.57-.59 -.65-.12-1.24-.26-1.73-.4 -.47-.14-.94-.32-1.29-.57 -.18-.13-.42-.33-.55-.65 -.17-.39-.13-.79.07-1.13 .16-.29.4-.47.6-.59 .2-.13.44-.24.7-.34 1-.38 2.75-.73 5.4-1.08 3.23-.43 5.26-.84 6.4-1.21 -.78-.26-1.95-.53-3.46-.79 -2.03-.35-4.53-.67-7.16-.93l-3.74-.35c-.55-.06-.96-.54-.91-1.09Zm12.58 12.5c.01.01.03.03.05.05 -.54.07-1.13.15-1.77.23 -2.62.31-4.18.7-5.04 1.09 -.35.15-.52.28-.6.36 .03.04.08.11.18.2 .17.17.44.36.78.56 .68.4 1.56.77 2.41 1.07L14.83 20c.52.16.81.73.64 1.25 -.17.52-.74.81-1.26.64l-3.27-1.06 -.01-.01c-.94-.32-1.96-.75-2.8-1.25 -.42-.25-.83-.53-1.16-.85 -.32-.31-.64-.71-.78-1.22 -.15-.57-.03-1.13.33-1.61 .32-.44.82-.76 1.39-1.02 1.14-.53 2.96-.95 5.62-1.27 .51-.07.98-.13 1.41-.19 -.16.65.01 1.37.53 1.88Zm4.62-4.63c-.4-.4-1.03-.4-1.42 0l-2.5 2.5c-.4.39-.4 1.02 0 1.41 .39.39 1.02.39 1.41 0l.79-.8v5.67l-.8-.8c-.4-.4-1.03-.4-1.42 0 -.4.39-.4 1.02 0 1.41l2.5 2.5c.39.39 1.02.39 1.41 0l2.5-2.5c.39-.4.39-1.03 0-1.42 -.4-.4-1.03-.4-1.42 0l-.8.79v-5.68l.79.79c.39.39 1.02.39 1.41 0 .39-.4.39-1.03 0-1.42l-2.5-2.5Z"/></svg>