<svg viewBox="0 0 24 24" xmlns="http://www.w3.org/2000/svg"><path fill="currentColor" d="M13.81 20.04c-.13.45-.31.88-.57 1.27 -.13.19-.29.34-.48.46 -.67.4-1.53.23-1.99-.39l-.09-.13 -.13-.22c-.17-.32-.3-.66-.4-1.02 -.18-.67-.23-1.35-.16-2.05l3.93 0c.07.72.02 1.4-.15 2.04Zm4.65-11.05l-3.47 7.08c-.23.45-.63.78-1.1.91l-3.74-.01 -.11-.04c-.38-.13-.7-.38-.91-.72l-.09-.16 -3.55-7.1h12.94Zm1.77-7.01c.37 0 .69.28.74.64l0 .1v3.5c0 .91-.71 1.67-1.61 1.74l-.15 0H4.71c-.92 0-1.68-.71-1.75-1.61l-.01-.15V2.7c0-.38.28-.7.64-.75l.1-.01h16.49Z"/></svg>