<svg viewBox="0 0 24 24" xmlns="http://www.w3.org/2000/svg"><path fill="currentColor" d="M17.75 13.99c1.2 0 2.19.95 2.24 2.14l-.01.1 -8-.01v.99l7.97 0c-.07.53-.24 1.04-.51 1.5l-7.47-.01v1l6.63 0c-1.57 1.5-3.79 2.25-6.65 2.25 -3.15 0-5.54-.91-7.1-2.74 -.58-.68-.9-1.55-.9-2.44v-.58c0-1.25 1-2.25 2.24-2.25h11.5Zm-5.76-12c1.63 0 3.08.78 4 1.99l-4 0 -.01.99 4.58 0c.2.46.33.97.39 1.49l-4.98-.01v1l4.97 0c-.06.52-.19 1.03-.4 1.49l-4.59-.01 0 1 3.99 0c-.92 1.21-2.37 1.99-4 1.99 -2.77 0-5-2.24-5-5 0-2.77 2.23-5 5-5Z"/></svg>