<svg viewBox="0 0 24 24" xmlns="http://www.w3.org/2000/svg"><g fill="currentColor"><path d="M4.8 4.8c0-1.33 1.07-2.4 2.4-2.4h9.6c1.32 0 2.4 1.07 2.4 2.4v2.4c0 1.32-1.08 2.4-2.4 2.4H7.2c-1.33 0-2.4-1.08-2.4-2.4V4.8Zm0 14.4c0 1.32 1.07 2.4 2.4 2.4h9.6c1.32 0 2.4-1.08 2.4-2.4v-2.4c0-1.33-1.08-2.4-2.4-2.4H7.2c-1.33 0-2.4 1.07-2.4 2.4v2.4ZM3 11.4c-.34 0-.6.26-.6.6 0 .33.26.6.6.6h18c.33 0 .6-.27.6-.6 0-.34-.27-.6-.6-.6H3Z"/><path fill="currentColor" fill-rule="evenodd" d="M7.2 2.55c-1.25 0-2.25 1-2.25 2.25v2.4c0 1.24 1 2.25 2.25 2.25h9.6c1.24 0 2.25-1.01 2.25-2.25V4.8c0-1.25-1.01-2.25-2.25-2.25H7.2ZM4.65 4.8c0-1.41 1.14-2.55 2.55-2.55h9.6c1.4 0 2.55 1.14 2.55 2.55v2.4c0 1.4-1.15 2.55-2.55 2.55H7.2c-1.41 0-2.55-1.15-2.55-2.55V4.8ZM2.25 12c0-.42.33-.75.75-.75h18c.41 0 .75.33.75.75 0 .41-.34.75-.75.75H3c-.42 0-.75-.34-.75-.75Zm.75-.45c-.25 0-.45.2-.45.45 0 .24.2.45.45.45h18c.24 0 .45-.21.45-.45 0-.25-.21-.45-.45-.45H3Zm1.65 5.25c0-1.41 1.14-2.55 2.55-2.55h9.6c1.4 0 2.55 1.14 2.55 2.55v2.4c0 1.4-1.15 2.55-2.55 2.55H7.2c-1.41 0-2.55-1.15-2.55-2.55v-2.4Zm2.55-2.25c-1.25 0-2.25 1-2.25 2.25v2.4c0 1.24 1 2.25 2.25 2.25h9.6c1.24 0 2.25-1.01 2.25-2.25v-2.4c0-1.25-1.01-2.25-2.25-2.25H7.2Z"/></g></svg>