<svg viewBox="0 0 24 24" xmlns="http://www.w3.org/2000/svg"><path fill="currentColor" d="M19 4.49c0 1.38-1.12 2.5-2.5 2.5 -.18 0-.35-.02-.52-.06L14.7 9.04c.79.73 1.29 1.77 1.29 2.94l-.01.04 -.01.01 1.29.26c.42-.79 1.25-1.32 2.2-1.32 1.38 0 2.5 1.11 2.5 2.5 0 1.38-1.12 2.5-2.5 2.5 -1.29 0-2.34-.97-2.49-2.21l-1.32-.27c-.35.83-.97 1.52-1.75 1.96l.49 1.51 .02-.01 .02-.01c1.38 0 2.5 1.11 2.5 2.5 0 1.38-1.12 2.5-2.5 2.5 -1.39 0-2.5-1.12-2.5-2.5 0-.84.4-1.57 1.02-2.03l-.5-1.52c-.18.02-.36.03-.54.03 -1.33 0-2.5-.65-3.23-1.63l-1.8.84c.01.09.01.18.01.27 0 1.38-1.12 2.5-2.5 2.5 -1.39 0-2.5-1.12-2.5-2.5 0-1.39 1.11-2.5 2.5-2.5 .74 0 1.41.32 1.87.84l1.75-.83c-.09-.33-.14-.67-.14-1.02 0-.97.34-1.86.91-2.55l-1-1.13c-.29.11-.6.17-.93.17 -1.39 0-2.5-1.12-2.5-2.5 0-1.39 1.11-2.5 2.5-2.5 1.38 0 2.5 1.11 2.5 2.5 0 .5-.16.98-.42 1.37l.98 1.11c.57-.32 1.22-.5 1.92-.5 .5 0 .98.09 1.43.26l1.24-2.07c-.43-.45-.68-1.06-.68-1.72 0-1.39 1.11-2.5 2.5-2.5 1.38 0 2.5 1.11 2.5 2.5Z"/></svg>