<svg viewBox="0 0 24 24" xmlns="http://www.w3.org/2000/svg"><path fill="currentColor" d="M19 4.49c0 1.38-1.12 2.5-2.5 2.5 -.18 0-.35-.02-.52-.06L14.7 9.04c.32.29.59.64.81 1.03 -2.3.45-4.02 2.47-4.02 4.9l-.01.96c-1.12-.14-2.09-.74-2.73-1.6l-1.8.84c.01.09.01.18.01.27 0 1.38-1.12 2.5-2.5 2.5 -1.39 0-2.5-1.12-2.5-2.5 0-1.39 1.11-2.5 2.5-2.5 .74 0 1.41.32 1.87.84l1.75-.83c-.09-.33-.14-.67-.14-1.02 0-.97.34-1.86.91-2.55l-1-1.13c-.29.11-.6.17-.93.17 -1.39 0-2.5-1.12-2.5-2.5 0-1.39 1.11-2.5 2.5-2.5 1.38 0 2.5 1.11 2.5 2.5 0 .5-.16.98-.42 1.37l.98 1.11c.57-.32 1.22-.5 1.92-.5 .5 0 .98.09 1.43.26l1.24-2.07c-.43-.45-.68-1.06-.68-1.72 0-1.39 1.11-2.5 2.5-2.5 1.38 0 2.5 1.11 2.5 2.5Zm-2.5 6.5c-2.21 0-4 1.79-4 4l-.01 3 -.95.8c-.31.25-.47.38-.51.49 -.12.24-.01.54.24.66 .1.04.3.04.7.04h9.01c.4 0 .6 0 .7-.05 .24-.12.35-.42.24-.67 -.05-.11-.21-.24-.51-.5l-.95-.81v-3c0-2.21-1.8-4-4-4Zm1.5 10c-.22.58-.81 1-1.5 1 -.7 0-1.29-.42-1.5-1h3Z"/></svg>