<svg viewBox="0 0 24 24" xmlns="http://www.w3.org/2000/svg"><path fill="currentColor" d="M3 6.25v11.5C3 19.54 4.45 21 6.25 21h11.5c1.79 0 3.25-1.46 3.25-3.25V6.25C21 4.45 19.54 3 17.75 3H6.25C4.45 3 3 4.45 3 6.25Zm9 3.25c.41 0 .75.33.75.75v6c0 .96-.79 1.75-1.75 1.75H9.75c-.42 0-.75-.34-.75-.75 0-.42.33-.75.75-.75H11c.13 0 .25-.12.25-.25v-6c0-.42.33-.75.75-.75Zm2 1.75c0-.97.78-1.75 1.75-1.75h1.5c.41 0 .75.33.75.75 0 .41-.34.75-.75.75h-1.5c-.14 0-.25.11-.25.25v1.5c0 .13.11.25.25.25h.5c.96 0 1.75.78 1.75 1.75v1.5c0 .96-.79 1.75-1.75 1.75h-1.5c-.42 0-.75-.34-.75-.75 0-.42.33-.75.75-.75h1.5c.13 0 .25-.12.25-.25v-1.5c0-.14-.12-.25-.25-.25h-.5c-.97 0-1.75-.79-1.75-1.75v-1.5Z"/></svg>