<svg viewBox="0 0 24 24" xmlns="http://www.w3.org/2000/svg"><g fill="currentColor"><path d="M12.6 9.55c1.7-.29 3-1.77 3-3.56 0-1.99-1.62-3.6-3.6-3.6 -1.99 0-3.6 1.61-3.6 3.6 0 1.78 1.29 3.26 3 3.55v3.64H9c-1 0-1.8.8-1.8 1.8v.6h9.6v-.6c0-1-.81-1.8-1.8-1.8h-2.4V9.53Zm-9 9.64c0-1.33 1.07-2.4 2.4-2.4h12c1.32 0 2.4 1.07 2.4 2.4v1.8c0 .33-.27.6-.6.6H4.2c-.34 0-.6-.27-.6-.6v-1.8Z"/><path fill="currentColor" fill-rule="evenodd" d="M8.25 6c0-2.08 1.67-3.75 3.75-3.75 2.07 0 3.75 1.67 3.75 3.75 0 1.81-1.29 3.32-3 3.67v3.37H15c1.07 0 1.95.87 1.95 1.95v.75h-9.9v-.75c0-1.077.87-1.95 1.95-1.95h2.25V9.66c-1.72-.35-3-1.87-3-3.68ZM12 2.55c-1.91 0-3.45 1.54-3.45 3.45 0 1.7 1.24 3.12 2.87 3.4l.12.02v3.92H8.99c-.92 0-1.65.73-1.65 1.65v.45h9.3v-.45c0-.92-.74-1.65-1.65-1.65h-2.55V9.41l.12-.03c1.63-.28 2.87-1.7 2.87-3.41 0-1.91-1.55-3.45-3.45-3.45Zm-6 14.4c-1.25 0-2.25 1-2.25 2.25V21c0 .24.2.45.45.45h15.6c.24 0 .45-.21.45-.45v-1.8c0-1.25-1.01-2.25-2.25-2.25H6ZM3.45 19.2c0-1.41 1.14-2.55 2.55-2.55h12c1.4 0 2.55 1.14 2.55 2.55V21c0 .41-.34.75-.75.75H4.2c-.42 0-.75-.34-.75-.75v-1.8Z"/></g></svg>