<svg viewBox="0 0 24 24" xmlns="http://www.w3.org/2000/svg"><path fill="currentColor" d="M15.49 2.04c-3.62 0-6.55 2.93-6.55 6.55 0 .38.05.76.11 1.1 .01.1-.02.18-.07.24l-6.24 6.23c-.52.51-.81 1.21-.81 1.94v2.17c0 .96.78 1.75 1.75 1.75h2.5c.96 0 1.75-.79 1.75-1.75v-1.25h1.75c.69 0 1.24-.56 1.24-1.25v-1.75h.33c.1-.16.23-.3.37-.42l-1.65-1.65c-.69-.69-.69-1.8 0-2.48l2-2.01c.68-.69 1.79-.69 2.47 0 .4.4.57.96.49 1.48h2.01c1.18 0 2.34.35 3.33 1.01 .15.1.31.22.46.34 .78-1.09 1.25-2.42 1.25-3.86 0-3.64-2.96-6.45-6.55-6.45Zm1.5 3.7c.69 0 1.25.55 1.25 1.25 0 .69-.56 1.25-1.25 1.25 -.7 0-1.25-.56-1.25-1.25 0-.7.55-1.25 1.25-1.25Zm-3.22 5.53c.29-.3.29-.77 0-1.07 -.3-.3-.77-.3-1.07 0l-2 2c-.3.29-.3.76 0 1.06l2 2c.29.29.76.29 1.06 0 .29-.3.29-.77 0-1.07l-.72-.72h3.93c.69 0 1.36.2 1.94.58 .57.38 1.02.93 1.28 1.57 .26.63.33 1.34.19 2.02 -.14.67-.47 1.3-.96 1.79 -.49.48-1.12.82-1.8.95 -.68.13-1.39.06-2.03-.2 -.64-.27-1.19-.72-1.58-1.29 -.39-.58-.59-1.26-.59-1.95 0-.42-.34-.75-.75-.75 -.42 0-.75.33-.75.75 0 .98.29 1.95.84 2.77 .54.82 1.33 1.46 2.24 1.84 .91.37 1.91.47 2.88.28 .96-.2 1.86-.67 2.56-1.37 .69-.7 1.17-1.6 1.36-2.56 .19-.97.09-1.98-.29-2.89 -.38-.92-1.02-1.7-1.85-2.25 -.83-.55-1.79-.85-2.78-.85h-3.94l.71-.72Z"/></svg>