<svg viewBox="0 0 24 24" xmlns="http://www.w3.org/2000/svg"><path fill="currentColor" d="M12.9 2.08c-.3-.06-.6-.09-.91-.09 -2.77 0-5 2.23-5 5 0 .29.02.58.07.86L2.2 12.7c-.15.14-.22.33-.22.53v4c0 .41.33.75.75.75h3.5c.41 0 .75-.34.75-.75v-1.75h2.25c.41 0 .75-.34.75-.75v-1.69l1.45-1.46c-.92-1.12-1.46-2.55-1.46-4.11 0-2.27 1.15-4.26 2.9-5.42Zm-1.91 5.41c0-3.04 2.46-5.5 5.5-5.5 3.03 0 5.5 2.46 5.5 5.5 0 1.93-1 3.62-2.5 4.61v2.57l1.27 1.28c.29.29.29.76 0 1.05l-.97.97 .96.97c.14.14.22.35.21.56 -.01.2-.11.4-.27.54l-3.25 2.75c-.29.24-.72.23-.99-.02l-2.75-2.5c-.16-.15-.25-.35-.25-.56v-7.64c-1.51-.99-2.5-2.68-2.5-4.62Zm6.5-1c0-.56-.45-1-1-1 -.56 0-1 .44-1 1 0 .55.44 1 1 1 .55 0 1-.45 1-1Z"/></svg>