<svg viewBox="0 0 24 24" xmlns="http://www.w3.org/2000/svg"><path fill="currentColor" d="M8.94 8.6c0-3.62 2.93-6.55 6.54-6.55 3.59 0 6.55 2.81 6.55 6.45 0 3.61-2.94 6.54-6.55 6.54 -.54 0-1.06-.08-1.56-.21 -.03.66-.58 1.2-1.25 1.2h-1.75v1.75c0 .69-.56 1.25-1.25 1.25H7.92v1.25c0 .96-.79 1.75-1.75 1.75h-2.5c-.97 0-1.75-.79-1.75-1.75V18.1c0-.73.28-1.43.8-1.95l6.23-6.24c.05-.06.08-.15.06-.25 -.07-.35-.12-.72-.12-1.11Zm9.3-1.6c0-.7-.56-1.25-1.25-1.25 -.7 0-1.25.55-1.25 1.25 0 .69.55 1.25 1.25 1.25 .69 0 1.25-.56 1.25-1.25Z"/></svg>