<svg viewBox="0 0 24 24" xmlns="http://www.w3.org/2000/svg"><path fill="currentColor" d="M6.5 5C7.32 5 8 5.67 8 6.5V8H6.5C5.67 8 5 7.32 5 6.5 5 5.67 5.67 5 6.5 5ZM10 8V6.5C10 4.56 8.43 3 6.5 3 4.56 3 3 4.56 3 6.5 3 8.43 4.56 10 6.5 10H8v4H6.5C4.56 14 3 15.56 3 17.5 3 19.43 4.56 21 6.5 21c1.93 0 3.5-1.57 3.5-3.5V16h4v1.5c0 1.93 1.56 3.5 3.5 3.5 1.93 0 3.5-1.57 3.5-3.5 0-1.94-1.57-3.5-3.5-3.5H16v-4h1.5c1.93 0 3.5-1.57 3.5-3.5C21 4.56 19.43 3 17.5 3 15.56 3 14 4.56 14 6.5V8h-4Zm0 2h4v4h-4v-4Zm6-2V6.5c0-.83.67-1.5 1.5-1.5 .82 0 1.5.67 1.5 1.5 0 .82-.68 1.5-1.5 1.5H16Zm0 8h1.5c.82 0 1.5.67 1.5 1.5 0 .82-.68 1.5-1.5 1.5 -.83 0-1.5-.68-1.5-1.5V16Zm-8 0v1.5c0 .82-.68 1.5-1.5 1.5 -.83 0-1.5-.68-1.5-1.5 0-.83.67-1.5 1.5-1.5H8Z"/></svg>