<svg viewBox="0 0 24 24" xmlns="http://www.w3.org/2000/svg"><path fill="currentColor" d="M21.99 4.75c0-1.25-1.01-2.25-2.25-2.25H4.24c-1.25 0-2.25 1-2.25 2.25v9.5c0 1.24 1 2.25 2.25 2.25h7v2.93l-.85-.85c-.3-.3-.77-.3-1.07 0 -.3.29-.3.76 0 1.06l2.12 2.12c.29.29.76.29 1.06 0l2.12-2.13c.29-.3.29-.77 0-1.07 -.3-.3-.77-.3-1.07 0l-.85.84v-2.94h6.99c1.24 0 2.25-1.01 2.25-2.25V4.7ZM6.74 12h10.5l.1 0c.36.04.64.36.64.74 0 .37-.29.69-.65.74l-.11 0H6.72l-.11-.01c-.37-.05-.65-.37-.65-.75s.28-.7.64-.75l.1-.01Zm8.75-2.5c0-.56.44-1 1-1 .55 0 1 .44 1 1 0 .55-.45 1-1 1 -.56 0-1-.45-1-1Zm-3 0c0-.56.44-1 1-1 .55 0 1 .44 1 1 0 .55-.45 1-1 1 -.56 0-1-.45-1-1Zm-3.01 0c0-.56.44-1 1-1 .55 0 1 .44 1 1 0 .55-.45 1-1 1 -.56 0-1.01-.45-1.01-1Zm-3 0c0-.56.44-1 1-1 .55 0 1 .44 1 1 0 .55-.45 1-1 1 -.56 0-1-.45-1-1Zm-1.51-3c0-.56.44-1 1-1 .55 0 1 .44 1 1 0 .55-.45 1-1 1 -.56 0-1-.45-1-1Zm2.99 0c0-.56.44-1 1-1 .55 0 1 .44 1 1 0 .55-.45 1-1 1 -.56 0-1-.45-1-1Zm2.99 0c0-.56.44-1 1-1 .55 0 1 .44 1 1 0 .55-.45 1-1 1 -.56 0-1-.45-1-1Zm3 0c0-.56.44-1 1-1 .55 0 1 .44 1 1 0 .55-.45 1-1 1 -.56 0-1-.45-1-1Zm3 0c0-.56.44-1 1-1 .55 0 1 .44 1 1 0 .55-.45 1-1 1 -.56 0-1-.45-1-1Z"/></svg>