<svg viewBox="0 0 24 24" xmlns="http://www.w3.org/2000/svg"><path fill="currentColor" d="M19.74 5c1.24 0 2.25 1 2.25 2.25v9.5c0 1.24-1.01 2.25-2.25 2.25H4.24c-1.25 0-2.25-1.01-2.25-2.25V7.24c0-1.25 1-2.25 2.25-2.25h15.49Zm-2.5 9.5H6.74l-.11 0c-.37.04-.65.36-.65.74 0 .37.28.69.64.74l.1 0h10.5l.1-.01c.36-.05.64-.37.64-.75s-.29-.7-.65-.75l-.11-.01Zm-.75-3.5c-.56 0-1 .44-1 1 0 .55.44 1 1 1 .55 0 1-.45 1-1 0-.56-.45-1-1-1Zm-3 0c-.56 0-1 .44-1 1 0 .55.44 1 1 1 .55 0 1-.45 1-1 0-.56-.45-1-1-1Zm-3 0c-.56 0-1.01.44-1.01 1 0 .55.44 1 1 1 .55 0 1-.45 1-1 0-.56-.45-1-1-1Zm-3.01 0c-.56 0-1 .44-1 1 0 .55.44 1 1 1 .55 0 1-.45 1-1 0-.56-.45-1-1-1ZM5.97 8c-.56 0-1 .44-1 1 0 .55.44 1 1 1 .55 0 1-.45 1-1 0-.56-.45-1-1-1Zm2.99 0c-.56 0-1 .44-1 1 0 .55.44 1 1 1 .55 0 1-.45 1-1 0-.56-.45-1-1-1Zm2.99 0c-.56 0-1 .44-1 1 0 .55.44 1 1 1 .55 0 1-.45 1-1 0-.56-.45-1-1-1Zm3 0c-.56 0-1 .44-1 1 0 .55.44 1 1 1 .55 0 1-.45 1-1 0-.56-.45-1-1-1Zm3 0c-.56 0-1 .44-1 1 0 .55.44 1 1 1 .55 0 1-.45 1-1 0-.56-.45-1-1-1Z"/></svg>