<svg viewBox="0 0 24 24" xmlns="http://www.w3.org/2000/svg"><path fill="currentColor" d="M5.16 4.17c.36.18.8.03.99-.33l0-.01c0-.01.01-.03.03-.06 .03-.06.1-.13.2-.21 .18-.16.52-.34 1.09-.34 .49 0 .78.23.89.46 .1.2.1.48-.18.75 -.2.19-.45.36-.77.54 -.09.05-.19.1-.29.16 -.25.13-.52.28-.76.44 -.76.49-1.5 1.21-1.66 2.53 -.03.21.04.42.18.58 .14.16.34.25.56.25h3.75c.41 0 .75-.34.75-.75 0-.42-.34-.75-.76-.75H6.47c.17-.25.4-.44.68-.62 .19-.13.39-.24.6-.36 .11-.07.23-.14.36-.21 .34-.21.73-.45 1.07-.79 .72-.73.84-1.7.45-2.5 -.39-.78-1.23-1.29-2.24-1.29 -.94 0-1.6.31-2.04.66 -.22.17-.37.34-.47.47 -.06.06-.1.12-.12.17 -.02.02-.03.04-.04.05l-.02.02 -.01 0 -.01 0 -.01 0 -.01 0c-.19.37-.04.82.33 1Zm9.21.31c-.14.12-.41.26-.88.26 -.42 0-.75.33-.75.75 0 .41.33.75.75.75 .47 0 .73.13.87.26 .13.12.18.28.18.43 -.02.26-.29.79-1.31.79 -.47 0-.76-.14-.93-.25 -.09-.06-.15-.12-.18-.15 -.02-.02-.03-.03-.03-.04 -.24-.34-.7-.42-1.03-.2 -.59.37-.21 1.04-.21 1.04l0 0 0 0 0 0 0 0 .01.01c0 .01.02.02.03.04 .02.03.06.08.11.13 .09.1.24.23.43.36 .39.26.97.5 1.75.5 1.62 0 2.72-.97 2.8-2.21 .03-.56-.17-1.12-.58-1.55 .41-.43.6-.99.57-1.55 -.08-1.24-1.19-2.21-2.81-2.21 -.79 0-1.37.23-1.76.5 -.2.12-.34.26-.44.36 -.05.05-.09.09-.12.13 -.02.01-.03.03-.04.04l-.02.01 -.01 0 -.01 0 -.01 0 -.01 0c-.23.34-.14.81.2 1.04 .33.22.79.13 1.02-.2 0-.01.01-.02.02-.04 .03-.04.09-.1.17-.15 .16-.12.46-.25.92-.25 1.02 0 1.28.53 1.3.79 0 .15-.05.31-.19.43Zm-2.26 2.84l-.01-.02 0 0 0 0 0 0 0 0Zm0-3.67l-.01.01 0-.01 0-.01 0-.01 0-.01ZM3.48 2.63l0 .1v5.49c0 .41-.34.75-.75.75 -.38 0-.7-.29-.75-.65l-.01-.11 -.01-4.46 -.52.17c-.36.12-.75-.05-.92-.38l-.04-.1c-.13-.36.04-.75.37-.92l.09-.04 1.5-.51c.45-.16.92.15.98.61Zm7.12 6.69c-.33.4-.82.65-1.37.65H5.48c-.51 0-.98-.22-1.32-.59 -.04-.04-.07-.08-.1-.12 -.32.42-.83.69-1.4.69 -.25 0-.49-.06-.71-.15v6.9c0 1.24 1 2.25 2.25 2.25h15.49c1.24 0 2.25-1.01 2.25-2.25V7.19c0-1.25-1.01-2.25-2.25-2.25h-2.84c-.06.17-.13.33-.21.5 .26.49.38 1.04.34 1.6 -.12 1.89-1.8 3.14-3.81 3.14 -1 0-1.78-.31-2.32-.67 -.12-.08-.23-.16-.32-.24Zm-3.87 5.15h10.5l.1 0c.36.04.64.36.64.74 0 .37-.29.69-.65.74l-.11 0H6.71l-.11-.01c-.37-.05-.65-.37-.65-.75s.28-.7.64-.75l.1-.01Zm8.75-2.5c0-.56.44-1 1-1 .55 0 1 .44 1 1 0 .55-.45 1-1 1 -.56 0-1-.45-1-1Zm-3 0c0-.56.44-1 1-1 .55 0 1 .44 1 1 0 .55-.45 1-1 1 -.56 0-1-.45-1-1Zm-3.01 0c0-.56.44-1 1-1 .55 0 1 .44 1 1 0 .55-.45 1-1 1 -.56 0-1.01-.45-1.01-1Zm-3 0c0-.56.44-1 1-1 .55 0 1 .44 1 1 0 .55-.45 1-1 1 -.56 0-1-.45-1-1Zm10.49-3c0-.56.44-1 1-1 .55 0 1 .44 1 1 0 .55-.45 1-1 1 -.56 0-1-.45-1-1Z"/></svg>