<svg viewBox="0 0 24 24" xmlns="http://www.w3.org/2000/svg"><path fill="currentColor" d="M20.25 1.5c.6 0 1.17.24 1.59.66 .42.42.66.99.66 1.59v4.5c0 .99-.39 1.95-1.1 2.65 -.71.7-1.67 1.09-2.66 1.09 -.99 0-1.95-.39-2.66-1.1 -.71-.71-1.1-1.67-1.1-2.66v-4.5c0-.6.24-1.17.66-1.59 .42-.42.99-.66 1.59-.66h3Zm-.98 4.275c.15-.14.22-.33.22-.53v-2.25h-1.5v2.25c0 .19.07.39.22.52 .13.15.33.22.52.22s.39-.08.52-.23Zm-.53 7.725c1.4 0 2.72-.55 3.71-1.54 0-.01.01-.02.01-.03 0-.01.01-.02.01-.03v4.959c0 1.44-1.18 2.625-2.625 2.625H4.09c-1.45 0-2.625-1.18-2.625-2.625V7.1c0-1.45 1.17-2.625 2.62-2.625h9.375v3.75c0 1.4.54 2.71 1.53 3.71 .99.99 2.3 1.53 3.71 1.53Zm-5.25-1.13c0-.63-.51-1.13-1.13-1.13 -.63 0-1.13.5-1.13 1.12 0 .62.5 1.12 1.12 1.12 .62 0 1.12-.51 1.12-1.13Zm-3-3c0-.63-.51-1.13-1.13-1.13 -.63 0-1.13.5-1.13 1.12 0 .62.5 1.12 1.12 1.12 .62 0 1.12-.51 1.12-1.13Zm-1.5 3c0-.63-.51-1.13-1.125-1.13 -.63 0-1.125.5-1.125 1.12 0 .62.5 1.12 1.125 1.12 .62 0 1.125-.51 1.125-1.13ZM4.86 8.24c-.63 0-1.125.5-1.125 1.12 0 .62.5 1.12 1.125 1.12 .62 0 1.125-.51 1.125-1.13 0-.63-.51-1.13-1.125-1.13Zm.375 8.25h13.5c.41 0 .75-.34.75-.75 0-.42-.34-.75-.75-.75H5.24c-.42 0-.75.33-.75.75 0 .41.33.75.75.75Z"/></svg>