<svg viewBox="0 0 24 24" xmlns="http://www.w3.org/2000/svg"><path fill="currentColor" d="M21.25 19.5c.41 0 .75.33.75.75 0 .37-.29.69-.65.74l-.11 0H2.74c-.42 0-.75-.34-.75-.75 0-.38.28-.7.64-.75l.1-.01h18.5ZM19.74 3c1.24 0 2.25 1 2.25 2.25v9.5c0 1.24-1.01 2.25-2.25 2.25l-6.53 0c-.12.56-.63.99-1.23.99 -.61 0-1.11-.43-1.23-1l-6.526-.01c-1.25 0-2.25-1.01-2.25-2.25V5.22c0-1.25 1-2.25 2.25-2.25h15.49Zm-2.5 9.5H6.74l-.11 0c-.37.04-.65.36-.65.74 0 .37.28.69.64.74l.1 0h10.5l.1-.01c.36-.05.64-.37.64-.75s-.29-.7-.65-.75l-.11-.01ZM16.49 9c-.56 0-1 .44-1 1 0 .55.44 1 1 1 .55 0 1-.45 1-1 0-.56-.45-1-1-1Zm-6 0c-.56 0-1.01.44-1.01 1 0 .55.44 1 1 1 .55 0 1-.45 1-1 0-.56-.45-1-1-1ZM7.48 9c-.56 0-1 .44-1 1 0 .55.44 1 1 1 .55 0 1-.45 1-1 0-.56-.45-1-1-1Zm6 0c-.56 0-1 .44-1 1 0 .55.44 1 1 1 .55 0 1-.45 1-1 0-.56-.45-1-1-1ZM5.97 6c-.56 0-1 .44-1 1 0 .55.44 1 1 1 .55 0 1-.45 1-1 0-.56-.45-1-1-1Zm2.99 0c-.56 0-1 .44-1 1 0 .55.44 1 1 1 .55 0 1-.45 1-1 0-.56-.45-1-1-1Zm2.99 0c-.56 0-1 .44-1 1 0 .55.44 1 1 1 .55 0 1-.45 1-1 0-.56-.45-1-1-1Zm3 0c-.56 0-1 .44-1 1 0 .55.44 1 1 1 .55 0 1-.45 1-1 0-.56-.45-1-1-1Zm3 0c-.56 0-1 .44-1 1 0 .55.44 1 1 1 .55 0 1-.45 1-1 0-.56-.45-1-1-1Z"/></svg>