<svg viewBox="0 0 24 24" xmlns="http://www.w3.org/2000/svg"><path fill="currentColor" d="M21.25 10.5c.37 0 .69.28.74.64l0 .1v8.5c0 1.19-.93 2.16-2.096 2.24l-.16 0h-2c-.42 0-.75-.34-.75-.75 0-.38.28-.7.64-.75l.1-.01h2c.37 0 .69-.29.74-.65l0-.11v-8.5c0-.42.33-.75.75-.75Zm0-8.5l.06 0 .1.01 .06.01 .05.02 .07.03 .08.05 .08.06 .05.05 .04.06 .05.08 .01.03 .02.06c.01.03.02.07.02.11l0 .1v5c0 .41-.34.75-.75.75 -.38 0-.7-.29-.75-.65l-.01-.11V4.47l-4.47 4.47c-.3.29-.77.29-1.07 0 -.27-.27-.3-.69-.08-.98l.07-.09 4.46-4.47h-3.19c-.38 0-.7-.29-.75-.65l-.01-.11c0-.38.28-.7.64-.75l.1-.01h5Zm-8 8.5c1.19 0 2.16.92 2.24 2.096l0 .15v7c0 1.19-.93 2.16-2.096 2.24l-.16 0h-9c-1.2 0-2.17-.93-2.25-2.096l-.01-.16v-7c0-1.2.92-2.17 2.09-2.25l.15-.01h9Zm-2.5 7h-4c-.41 0-.75.37-.75.75 0 .37.28.69.64.74l.1 0h4c.41 0 .75-.38.75-.75 0-.38-.29-.7-.65-.75l-.11-.01ZM6 13.5c-.56 0-1 .44-1 1 0 .55.44 1 1 1 .55 0 1-.45 1-1 0-.56-.45-1-1-1Zm5.5 0c-.56 0-1 .44-1 1 0 .55.44 1 1 1 .55 0 1-.45 1-1 0-.56-.45-1-1-1Zm-2.75 0c-.56 0-1 .44-1 1 0 .55.44 1 1 1 .55 0 1-.45 1-1 0-.56-.45-1-1-1Zm4-11.5c.41 0 .75.33.75.75 0 .37-.29.69-.65.74l-.11 0h-8.5c-.38 0-.7.28-.75.64l-.01.1v4c0 .41-.34.75-.75.75 -.38 0-.7-.29-.75-.65l-.01-.11v-4c0-1.2.92-2.17 2.09-2.25l.15-.01h8.5Z"/></svg>