<svg viewBox="0 0 24 24" xmlns="http://www.w3.org/2000/svg"><path fill="currentColor" d="M13.2 6.59c0 3.64-2.96 6.6-6.6 6.6 -1.09 0-2.1-.26-3-.72v2.51c0 .99.8 1.8 1.8 1.8h13.2c.99 0 1.8-.81 1.8-1.8V7.77c0-1-.81-1.8-1.8-1.8h-5.43c.01.19.02.39.02.6Zm-10.8 12c0-.34.26-.6.6-.6h18c.33 0 .6.26.6.6 0 .33-.27.6-.6.6H3c-.34 0-.6-.27-.6-.6Zm4.2-6.6c2.98 0 5.4-2.42 5.4-5.41s-2.42-5.4-5.4-5.4c-2.99 0-5.4 2.41-5.4 5.4 0 2.98 2.41 5.4 5.4 5.4Zm2.22-7.63c.23.23.23.61 0 .84L7.44 6.57l1.37 1.37c.23.23.23.61 0 .84 -.24.23-.62.23-.85 0L6.58 7.4 5.2 8.77c-.24.23-.62.23-.85 0 -.24-.24-.24-.62 0-.85l1.37-1.38 -1.38-1.38c-.24-.24-.24-.62 0-.85 .23-.24.61-.24.84 0l1.37 1.37L7.92 4.3c.23-.24.61-.24.84 0Z"/></svg>