<svg viewBox="0 0 24 24" xmlns="http://www.w3.org/2000/svg"><path fill="currentColor" d="M5.39 6c-1 0-1.8.8-1.8 1.8V15c0 .99.8 1.8 1.8 1.8h7.85c-.03-.24-.05-.48-.06-.73l-.01-.01 -.01-.31v-2.72c0-.84.64-1.65 1.62-1.65 .89 0 1.74-.37 2.6-1.29 .3-.33.72-.52 1.16-.52h.01c.43 0 .85.18 1.16.51 .2.22.41.41.62.57V7.76c0-1-.81-1.8-1.8-1.8H5.32Zm-2.4 12h10.48c.11.41.26.81.44 1.2H2.97c-.34 0-.6-.27-.6-.6 0-.34.26-.6.6-.6Zm15.6 3.6c-.05-.01-.09-.01-.14-.03 -.84-.3-1.54-.69-2.12-1.18l-.01-.01c-.42-.36-.77-.76-1.06-1.2l-.01-.01c-.56-.88-.86-1.94-.9-3.17l-.01-.29V13c0-.25.18-.45.42-.45 1.28 0 2.43-.55 3.48-1.67 .08-.09.18-.14.29-.14 .1 0 .21.04.29.13 1.04 1.11 2.19 1.66 3.48 1.66 .23 0 .42.2.42.45v2.7l-.01.28c-.04 1.23-.34 2.28-.9 3.16l-.01 0c-.29.44-.64.84-1.06 1.19l-.01 0c-.58.48-1.29.87-2.12 1.17 -.05.01-.09.02-.14.02Z"/></svg>