<svg viewBox="0 0 24 24" xmlns="http://www.w3.org/2000/svg"><g fill="currentColor"><path d="M4.2 2.4c-.34 0-.6.26-.6.6v3c0 .89.49 1.68 1.22 2.09 0 0 .02.01.03.01 .34.18.72.28 1.14.28h12c.42 0 .82-.12 1.17-.31 .73-.42 1.22-1.2 1.22-2.1v-3c0-.34-.27-.6-.6-.6H4.18Z"/><path d="M12.6 12h4.8c.99 0 1.8-.81 1.8-1.8v-.6H4.8v.6c0 .99.8 1.8 1.8 1.8h4.8v3c0 .33.26.6.6.6 .33 0 .6-.27.6-.6v-3Z"/><path d="M6 17.4c0-.34.26-.6.6-.6h1.8c.33 0 .6.26.6.6 0 .33-.27.6-.6.6H6.6c-.34 0-.6-.27-.6-.6Z"/><path d="M15.6 16.8c-.34 0-.6.26-.6.6 0 .33.26.6.6.6h1.8c.33 0 .6-.27.6-.6 0-.34-.27-.6-.6-.6h-1.8Z"/><path d="M12.6 17.4c0 .33-.27.6-.6.6 -.34 0-.6-.27-.6-.6 0-.34.26-.6.6-.6 .33 0 .6.26.6.6Z"/><path d="M12.6 19.8c0-.34-.27-.6-.6-.6 -.34 0-.6.26-.6.6v2.4c0 .33.26.6.6.6 .33 0 .6-.27.6-.6v-2.4Z"/><path d="M10.62 18.17c.23.23.23.61 0 .84l-1.81 1.8c-.24.23-.62.23-.85 0 -.24-.24-.24-.62 0-.85l1.8-1.8c.23-.24.61-.24.84 0Z"/><path d="M13.37 19.02c-.24-.24-.24-.62 0-.85 .23-.24.61-.24.84 0l1.8 1.8c.23.23.23.61 0 .84 -.24.23-.62.23-.85 0l-1.8-1.8Z"/><path fill="currentColor" fill-rule="evenodd" d="M4.2 2.55c-.25 0-.45.2-.45.45v3c0 .84.46 1.57 1.14 1.96l.02.01c.31.17.68.27 1.07.27h12c.4 0 .77-.11 1.1-.29 .68-.39 1.14-1.13 1.14-1.97v-3c0-.25-.21-.45-.45-.45H4.17ZM3.45 3c0-.42.33-.75.75-.75h15.6c.41 0 .75.33.75.75v3c0 .95-.53 1.78-1.31 2.22 -.37.2-.8.32-1.25.32h-12c-.44 0-.86-.12-1.22-.31l-.04-.02c-.78-.44-1.31-1.27-1.31-2.23v-3Zm1.2 6.45h14.7v.75c0 1.077-.88 1.95-1.95 1.95h-4.65V15c0 .41-.34.75-.75.75 -.42 0-.75-.34-.75-.75v-2.85H6.6c-1.08 0-1.95-.88-1.95-1.95v-.75Zm.3.3v.45c0 .91.73 1.65 1.65 1.65h4.95V15c0 .24.2.45.45.45 .24 0 .45-.21.45-.45v-3.15h4.95c.91 0 1.65-.74 1.65-1.65v-.45H4.95Zm.9 7.65c0-.42.33-.75.75-.75h1.8c.41 0 .75.33.75.75 0 .41-.34.75-.75.75H6.6c-.42 0-.75-.34-.75-.75Zm.75-.45c-.25 0-.45.2-.45.45 0 .24.2.45.45.45h1.8c.24 0 .45-.21.45-.45 0-.25-.21-.45-.45-.45H6.6Zm4.65.45c0-.42.33-.75.75-.75 .41 0 .75.33.75.75 0 .41-.34.75-.75.75 -.42 0-.75-.34-.75-.75Zm.75-.45c-.25 0-.45.2-.45.45 0 .24.2.45.45.45 .24 0 .45-.21.45-.45 0-.25-.21-.45-.45-.45Zm3.6 0c-.25 0-.45.2-.45.45 0 .24.2.45.45.45h1.8c.24 0 .45-.21.45-.45 0-.25-.21-.45-.45-.45h-1.8Zm-.75.45c0-.42.33-.75.75-.75h1.8c.41 0 .75.33.75.75 0 .41-.34.75-.75.75h-1.8c-.42 0-.75-.34-.75-.75Zm-5.19.66c.29-.3.76-.3 1.06 0 .29.29.29.76 0 1.06l-1.8 1.8c-.3.29-.77.29-1.07 0 -.3-.3-.3-.77 0-1.07l1.8-1.8Zm.84.21c-.18-.18-.47-.18-.64 0l-1.8 1.8c-.18.17-.18.46 0 .63 .17.17.46.17.63 0l1.8-1.8c.17-.18.17-.47 0-.64Zm2.75-.22c.29-.3.76-.3 1.06 0l1.8 1.8c.29.29.29.76 0 1.06 -.3.29-.77.29-1.07 0l-1.8-1.8c-.3-.3-.3-.77 0-1.07Zm.84.21c-.18-.18-.47-.18-.64 0 -.18.17-.18.46 0 .63l1.8 1.8c.17.17.46.17.63 0 .17-.18.17-.47 0-.64l-1.8-1.8Zm-2.12 1.06c-.25 0-.45.2-.45.45v2.4c0 .24.2.45.45.45 .24 0 .45-.21.45-.45v-2.4c0-.25-.21-.45-.45-.45Zm-.75.45c0-.42.33-.75.75-.75 .41 0 .75.33.75.75v2.4c0 .41-.34.75-.75.75 -.42 0-.75-.34-.75-.75v-2.4Z"/></g></svg>