<svg viewBox="0 0 24 24" xmlns="http://www.w3.org/2000/svg"><path fill="currentColor" d="M9.7 2.26c.73-.18 1.5-.27 2.29-.27 .78 0 1.55.09 2.29.26 .53.12.87.66.74 1.2 -.13.53-.67.87-1.21.74 -.59-.14-1.21-.22-1.84-.22 -.64 0-1.25.07-1.84.21 -.54.12-1.08-.21-1.21-.75 -.13-.54.2-1.08.74-1.21Zm6.17 1.55c.29-.47.9-.62 1.37-.33 1.31.81 2.43 1.92 3.24 3.24 .29.46.14 1.08-.33 1.37 -.47.29-1.09.14-1.38-.33 -.66-1.06-1.55-1.95-2.61-2.61 -.47-.3-.62-.91-.33-1.38Zm-7.77 0c.29.46.14 1.08-.33 1.37 -1.06.65-1.95 1.54-2.61 2.6 -.3.46-.91.61-1.38.32 -.47-.3-.62-.91-.33-1.38 .81-1.32 1.92-2.44 3.24-3.25 .46-.3 1.08-.15 1.37.32ZM3.45 8.95c.53.12.87.66.74 1.2 -.14.58-.22 1.2-.22 1.83 0 .63.07 1.24.21 1.83 .12.53-.21 1.07-.75 1.2 -.54.12-1.08-.21-1.21-.75 -.18-.74-.27-1.51-.27-2.3 0-.79.09-1.56.26-2.3 .12-.54.66-.88 1.2-.75Zm17.06 0c.53-.13 1.07.2 1.2.74 .17.73.26 1.5.26 2.29 0 .78-.1 1.55-.27 2.29 -.13.53-.67.87-1.21.74 -.54-.13-.88-.67-.75-1.21 .13-.59.21-1.21.21-1.84 0-.64-.08-1.25-.22-1.84 -.13-.54.2-1.08.74-1.21ZM3.79 15.87c.46-.3 1.08-.15 1.37.32 .65 1.05 1.54 1.94 2.6 2.6 .46.29.61.9.32 1.37 -.3.46-.91.61-1.38.32 -1.32-.82-2.44-1.93-3.25-3.25 -.3-.47-.15-1.09.32-1.38Zm16.8 1.6c.27-.49.1-1.1-.39-1.37 -.49-.28-1.09-.11-1.37.37l-.01 0 -.01 0 -.02.02c-.02.02-.04.05-.07.1 -.06.09-.16.22-.28.39 -.19.24-.43.54-.74.85 -1.2-1.02-2.8-1.89-4.79-1.89 -2.27 0-4 1.2-4 3 -.01 1.8 1.73 3 3.99 3 1.91 0 3.45-.64 4.63-1.42 .34.42.62.83.82 1.15 .13.21.23.39.29.51 .03.06.05.1.07.13l.01.03 0 0 0 0c.23.49.83.71 1.32.47 .49-.24.71-.84.47-1.34 -.12-.24-.01-.01-.01-.01l-.01-.01 -.01-.01 -.01-.02c-.01-.01-.01-.02-.02-.03 -.01-.01-.01-.02-.02-.03 -.03-.05-.06-.11-.1-.19 -.09-.16-.21-.37-.36-.63 -.24-.39-.57-.87-.99-1.38 .39-.41.71-.79.94-1.1 .15-.21.27-.39.35-.52 .04-.07.07-.12.09-.16 .01-.02.02-.04.02-.05l0-.02 0-.01 0-.01 0-.01Zm-7.63.5c1.22 0 2.28.47 3.16 1.14 -.87.49-1.92.85-3.17.85 -1.74 0-2-.8-2-1 0-.2.26-1 1.99-1Z"/></svg>