<svg viewBox="0 0 24 24" xmlns="http://www.w3.org/2000/svg"><path fill="currentColor" d="M12.01 2.25c.73 0 1.46.09 2.18.25 .31.06.54.33.58.64l.17 1.52c.07.7.66 1.23 1.37 1.23 .18 0 .37-.04.55-.12l1.4-.62c.29-.13.63-.06.84.17 1.01 1.08 1.76 2.37 2.2 3.79 .09.3-.02.63-.28.82l-1.25.91c-.36.26-.57.67-.57 1.11 0 .43.2.85.56 1.11l1.24.91c.25.18.36.52.27.82 -.44 1.41-1.2 2.71-2.21 3.79 -.22.23-.56.3-.85.17l-1.41-.62c-.41-.18-.87-.16-1.25.06 -.39.21-.64.6-.69 1.04l-.17 1.52c-.04.31-.27.57-.58.64 -1.45.34-2.96.34-4.41 0 -.31-.08-.54-.34-.58-.65l-.17-1.53c-.05-.44-.31-.83-.69-1.05 -.38-.22-.85-.25-1.25-.07l-1.41.61c-.3.12-.64.05-.85-.18 -1.02-1.09-1.77-2.39-2.21-3.8 -.1-.31.01-.64.27-.83l1.24-.92c.35-.27.56-.68.56-1.12 0-.44-.21-.86-.57-1.12l-1.25-.92c-.26-.19-.37-.53-.28-.83 .43-1.42 1.19-2.72 2.2-3.8 .21-.24.55-.31.84-.18l1.4.61c.4.17.86.15 1.24-.08 .38-.23.63-.61.68-1.05l.17-1.53c.03-.32.26-.58.58-.65 .71-.16 1.44-.25 2.2-.26Zm1.56 5.74h-3.28l3.1 4 -2.78 3.51c-.11.13-.09.31.04.42 .05.04.11.06.18.06h2.7c.09 0 .18-.05.23-.12l2.77-3.58c.14-.19.14-.44 0-.62l-2.78-3.58c-.06-.08-.15-.12-.24-.12Zm-3.9.8L7.4 11.67c-.13.15-.14.36-.06.53l.05.08 2 2.55 .04.04c.11.08.26.08.37 0l.04-.05 1.33-1.68c.06-.09.08-.21.04-.31l-.05-.08 -.64-.82 .78-1L9.61 8.72Z"/></svg>