<svg viewBox="0 0 24 24" xmlns="http://www.w3.org/2000/svg"><path fill="currentColor" d="M13.79 4.08c-.08-1.21-1.32-2.02-2.46-1.57L4.28 5.29c-1.15.45-1.9 1.55-1.9 2.78v6.89c0 1.24 1.23 2.11 2.4 1.69V9.44c0-1.11.67-2.11 1.7-2.52l7.29-2.89Zm3.6 2.51c0-1.28-1.29-2.15-2.47-1.68L7.49 7.84c-.92.36-1.52 1.24-1.52 2.23v7.29c0 1.27 1.28 2.14 2.46 1.67l1.13-.46v-7.18c0-.99.6-1.87 1.51-2.24l6.28-2.49v-.13Zm1.73.72c1.18-.47 2.46.4 2.46 1.67v3.4c-.65-.97-1.75-1.61-3-1.61 -1.99 0-3.6 1.61-3.6 3.6 0 .92.35 1.77.92 2.41 -1.53.13-2.73 1.42-2.73 2.98 0 .53.1 1.06.32 1.56l-.27.1c-1.19.46-2.47-.41-2.47-1.68v-7.95c0-.74.45-1.41 1.13-1.68l7.2-2.86Zm1.86 7.07c0 1.32-1.08 2.4-2.4 2.4 -1.33 0-2.4-1.08-2.4-2.4 0-1.33 1.07-2.4 2.4-2.4 1.32 0 2.4 1.07 2.4 2.4Zm1.8 5.4c0 1.49-1.2 3-4.2 3s-4.2-1.51-4.2-3c0-1 .8-1.8 1.8-1.8h4.8c.99 0 1.8.8 1.8 1.8Z"/></svg>