<svg viewBox="0 0 24 24" xmlns="http://www.w3.org/2000/svg"><path fill="currentColor" d="M11.33 2.52c1.14-.46 2.38.35 2.45 1.56l-7.3 2.88c-1.03.4-1.71 1.4-1.71 2.51v7.2c-1.17.41-2.4-.45-2.4-1.7v-6.9c0-1.24.75-2.34 1.89-2.79l7.04-2.79Zm3.6 2.4c1.18-.47 2.46.4 2.46 1.67v.12L11.1 9.19c-.92.36-1.52 1.24-1.52 2.23v7.17l-1.14.45c-1.19.46-2.47-.41-2.47-1.68v-7.3c0-.99.6-1.87 1.51-2.24l7.42-2.94Zm6.66 4.07v7.94c0 .73-.46 1.4-1.14 1.67l-7.2 2.85c-1.19.46-2.47-.41-2.47-1.68v-7.95c0-.74.45-1.41 1.13-1.68l7.2-2.86c1.18-.47 2.46.4 2.46 1.67Z"/></svg>