<svg viewBox="0 0 24 24" xmlns="http://www.w3.org/2000/svg"><path fill="currentColor" d="M13.5 2c-2.15 0-4 1.22-4.91 3 2.29.11 4.29 1.32 5.49 3.12 .45-.09.93-.14 1.41-.14h3.47c.01-.17.02-.34.02-.5V3.42c0-.8-.65-1.45-1.45-1.45h-4.06ZM8.42 17.99c-.06 0-.12 0-.18 0 -3.32 0-6-2.69-6-6V7.5c0-.84.67-1.52 1.51-1.52h4.48c1.96 0 3.71.94 4.8 2.4 -1.65.56-3.04 1.69-3.94 3.15L7.5 9.94c-.3-.3-.77-.3-1.07 0 -.3.29-.3.76 0 1.06l1.96 1.96c-.28.78-.44 1.62-.44 2.5 0 .87.15 1.71.42 2.49Zm.57-2.5c0-3.59 2.91-6.5 6.5-6.5h4.91c.87 0 1.58.71 1.58 1.58v4.91c0 3.58-2.92 6.5-6.5 6.5 -1.53 0-2.93-.53-4.04-1.41l-1.19 1.18c-.3.29-.77.29-1.07 0 -.3-.3-.3-.77 0-1.07l1.18-1.19c-.88-1.11-1.404-2.52-1.404-4.04Zm3.17 4.38l4.6-4.61c.29-.3.29-.77 0-1.07 -.3-.3-.77-.3-1.07 0l-4.603 4.6c.3.39.66.75 1.06 1.06Z"/></svg>