<svg viewBox="0 0 24 24" xmlns="http://www.w3.org/2000/svg"><path fill="currentColor" d="M3.7 2c-.95 0-1.71.76-1.71 1.7v4.29c0 2.97 2.16 5.44 5 5.91 .01-1.66.53-3.19 1.4-4.45L6.2 7.26c-.3-.3-.3-.77 0-1.07 .29-.3.76-.3 1.06 0l2.09 2.09c1.15-1.15 2.64-1.94 4.32-2.22 -.8-2.39-3.05-4.11-5.7-4.11h-4.3Zm5.84 16.38L7.2 20.71c-.3.29-.3.76-.01 1.06 .29.29.76.29 1.06 0l2.33-2.34c1.2.968 2.72 1.54 4.38 1.54 3.86 0 6.99-3.14 6.99-7V8.72c0-.97-.79-1.75-1.75-1.75h-5.25c-3.87 0-7 3.13-7 6.99 0 1.66.57 3.18 1.54 4.39Zm6.22-4.11l-4.1 4.09c-.41-.31-.76-.67-1.07-1.07l4.09-4.1c.29-.3.76-.3 1.06 0 .29.29.29.76 0 1.06Z"/></svg>