<svg viewBox="0 0 24 24" xmlns="http://www.w3.org/2000/svg"><path fill="currentColor" d="M5.5 2H17c1.38 0 2.5 1.11 2.5 2.5v6.81c-.64-.21-1.31-.32-2-.32 -3.59 0-6.5 2.91-6.5 6.5 0 .69.11 1.36.31 2H4.49c0 .55.44 1 1 1h6.23c.28.55.65 1.05 1.07 1.5H5.48c-1.39 0-2.5-1.12-2.5-2.5v-15c0-1.39 1.11-2.5 2.5-2.5ZM7 5c-.56 0-1 .44-1 1v1c0 .55.44 1 1 1h8c.55 0 1-.45 1-1V6c0-.56-.45-1-1-1H7Zm16 12.5c0-3.04-2.47-5.5-5.5-5.5 -3.04 0-5.5 2.46-5.5 5.5 0 3.03 2.46 5.5 5.5 5.5 3.03 0 5.5-2.47 5.5-5.5Zm-6.09-2.41l2.8 1.84c.08.05.15.13.2.22 .04.09.07.18.07.29 0 .1-.03.2-.08.29 -.05.09-.12.17-.2.22l-2.81 1.91c-.06.03-.11.06-.16.07 -.06.01-.11.02-.17.02 -.08 0-.16-.02-.23-.05 -.08-.04-.14-.08-.2-.14 -.06-.06-.1-.13-.14-.21 -.04-.08-.05-.16-.05-.24v-3.76c0-.09.01-.17.04-.24 .03-.08.07-.15.13-.2 .05-.06.11-.11.18-.14 .07-.04.14-.06.23-.06 .11 0 .22.03.31.09Z"/></svg>