<svg viewBox="0 0 24 24" xmlns="http://www.w3.org/2000/svg"><path fill="currentColor" d="M15.53 18.99l-.3 1.25c-.23.96-1.05 1.66-2.02 1.73l-.18 0h-2.12c-.99 0-1.86-.65-2.15-1.58l-.05-.17 -.3-1.26h7.07Zm-3.54-17c4 0 7.25 3.24 7.25 7.25 0 2.13-.94 4.09-2.77 5.84 -.04.03-.06.07-.08.12l-.53 2.28h-3.14v-6.75c0-.42-.34-.75-.75-.75 -.42 0-.75.33-.75.75v6.74H8.08l-.53-2.29c-.02-.05-.04-.1-.08-.13C5.63 13.3 4.7 11.34 4.7 9.2c0-4.01 3.24-7.25 7.25-7.25Zm-.75 4.74v1.5c0 .41.33.75.75.75 .41 0 .75-.34.75-.75V6.72c0-.42-.34-.75-.75-.75 -.42 0-.75.33-.75.75Zm5.03 1.46c-.3-.3-.77-.3-1.07 0l-1.07 1.06c-.3.29-.3.76 0 1.06 .29.29.76.29 1.06 0l1.06-1.07c.29-.3.29-.77 0-1.07Zm-7.5 0c-.3-.3-.77-.3-1.07-.01 -.3.29-.3.76 0 1.06l1.06 1.06c.29.29.76.29 1.06 0 .29-.3.29-.77 0-1.07L8.75 8.16Z"/></svg>