<svg viewBox="0 0 24 24" xmlns="http://www.w3.org/2000/svg"><path fill="currentColor" d="M22.8 6.59c0 2.98-2.42 5.4-5.4 5.4 -2.99 0-5.4-2.42-5.4-5.41s2.41-5.4 5.4-5.4c2.98 0 5.4 2.41 5.4 5.4Zm-2.58-2.23c-.24-.24-.62-.24-.85 0l-3.18 3.17 -.78-.78c-.24-.24-.62-.24-.85 0 -.24.23-.24.61 0 .84l1.2 1.2c.23.23.61.23.84 0l3.6-3.6c.23-.24.23-.62 0-.85Zm-2.83 8.82c.2 0 .4-.01.6-.03 -.39.58-.88 1.15-1.46 1.7 -.08.07-.14.15-.18.25l-.04.09 -.38 1.57H7.98l-.38-1.58c-.04-.14-.11-.26-.21-.36 -1.67-1.58-2.56-3.33-2.65-5.23l-.01-.52c.12-3.74 3.29-6.74 7.19-6.74 .1 0 .2 0 .3 0 -.94 1.14-1.51 2.6-1.51 4.19 0 3.64 2.95 6.6 6.6 6.6Zm-1.72 4.8l-.47 1.92c-.23.92-1.04 1.59-2.01 1.66l-2.28 0c-.99 0-1.85-.62-2.14-1.52l-.05-.17 -.46-1.93h7.37Z"/></svg>