<svg viewBox="0 0 24 24" xmlns="http://www.w3.org/2000/svg"><path fill="currentColor" d="M15.42 19.5l-.18.75c-.23.96-1.05 1.66-2.02 1.73l-.18 0h-2.12c-.99 0-1.86-.65-2.15-1.58l-.05-.17 -.18-.76h6.84Zm.34-1.5l.2-.91c-1.04-1-2.44-1.6-3.98-1.6 -1.55 0-2.95.6-3.98 1.59l.2.9h7.53Zm-3.77-4c-1.64 0-3.15.54-4.36 1.45l-.06-.24c-.02-.05-.04-.1-.08-.13 -1.84-1.75-2.77-3.71-2.77-5.85 0-4.01 3.24-7.25 7.25-7.25 4 0 7.25 3.24 7.25 7.25 0 2.13-.94 4.09-2.77 5.84 -.04.03-.06.07-.08.12l-.06.23c-1.22-.92-2.73-1.46-4.36-1.46Zm-1.75-4.75c0-.97.78-1.75 1.75-1.75 .96 0 1.75.78 1.75 1.75 0 .96-.79 1.75-1.75 1.75 -.97 0-1.75-.79-1.75-1.75ZM11.99 6c-1.8 0-3.25 1.45-3.25 3.25 0 1.79 1.45 3.25 3.25 3.25 1.79 0 3.25-1.46 3.25-3.25 0-1.8-1.46-3.25-3.25-3.25Z"/></svg>