<svg viewBox="0 0 24 24" xmlns="http://www.w3.org/2000/svg"><g fill="currentColor"><path d="M2.4 4.49c0-.5.4-.9.9-.9h17.4c.49 0 .9.4.9.9 0 .49-.41.9-.9.9H3.3c-.5 0-.9-.41-.9-.9Zm0 4.8c0-.5.4-.9.9-.9h17.4c.49 0 .9.4.9.9 0 .49-.41.9-.9.9H3.3c-.5 0-.9-.41-.9-.91Zm.9 3.9c-.5 0-.9.4-.9.9 0 .49.4.9.9.9h17.4c.49 0 .9-.41.9-.9 0-.5-.41-.9-.9-.9H3.3Zm-.9 5.7c0-.5.4-.9.9-.9h17.4c.49 0 .9.4.9.9 0 .49-.41.9-.9.9H3.3c-.5 0-.9-.41-.9-.9Z"/><path fill="currentColor" fill-rule="evenodd" d="M3.3 3.74c-.42 0-.75.33-.75.75 0 .41.33.75.75.75h17.4c.41 0 .75-.34.75-.75 0-.42-.34-.75-.75-.75H3.3Zm-1.05.75c0-.58.47-1.05 1.05-1.05h17.4c.57 0 1.05.47 1.05 1.05 0 .57-.48 1.05-1.05 1.05H3.3c-.58 0-1.05-.48-1.05-1.05ZM3.3 8.54c-.42 0-.75.33-.75.75 0 .41.33.75.75.75h17.4c.41 0 .75-.34.75-.76s-.34-.75-.75-.75H3.3Zm-1.05.75c0-.58.47-1.05 1.05-1.05h17.4c.57 0 1.05.47 1.05 1.05 0 .57-.48 1.05-1.05 1.05H3.3c-.58 0-1.05-.48-1.05-1.06Zm0 4.8c0-.58.47-1.05 1.05-1.05h17.4c.57 0 1.05.47 1.05 1.05 0 .57-.48 1.05-1.05 1.05H3.3c-.58 0-1.05-.48-1.05-1.05Zm1.05-.75c-.42 0-.75.33-.75.75 0 .41.33.75.75.75h17.4c.41 0 .75-.34.75-.75 0-.42-.34-.75-.75-.75H3.3Zm0 4.8c-.42 0-.75.33-.75.75 0 .41.33.75.75.75h17.4c.41 0 .75-.34.75-.75 0-.42-.34-.75-.75-.75H3.3Zm-1.05.75c0-.58.47-1.05 1.05-1.05h17.4c.57 0 1.05.47 1.05 1.05 0 .57-.48 1.05-1.05 1.05H3.3c-.58 0-1.05-.48-1.05-1.05Z"/></g></svg>