<svg viewBox="0 0 24 24" xmlns="http://www.w3.org/2000/svg"><path fill="currentColor" d="M15 12c1.16 0 2.24-.37 3.12-1l4.33 4.33c.35.35.92.35 1.27 0 .35-.36.35-.93 0-1.28l-4.34-4.34c.62-.89.99-1.97.99-3.13 0-2.99-2.42-5.41-5.4-5.41 -1.88 0-3.53.95-4.5 2.4 -.05.06-.09.13-.13.19 -.3.48-.52 1.02-.65 1.6 -.09.38-.14.78-.14 1.2 0 .65.11 1.27.32 1.85 .23.64.59 1.23 1.04 1.74 .98 1.1 2.42 1.8 4.02 1.8Zm0-9.01c1.98 0 3.6 1.61 3.6 3.6 0 1.98-1.62 3.6-3.6 3.6 -1.99 0-3.6-1.62-3.6-3.61 0-1.99 1.61-3.61 3.6-3.61Zm3.63 10.2l1.8 1.8H3.29c-.5 0-.9-.41-.9-.9 0-.5.4-.9.9-.9h11.69 3.63ZM3.29 3.58H9.1c-.29.55-.5 1.16-.62 1.8H3.27c-.5 0-.9-.41-.9-.9 0-.5.4-.9.9-.9Zm-.001 4.8h5.34c.18.64.46 1.25.81 1.8h-6.17c-.5 0-.9-.41-.9-.91s.4-.9.9-.9Zm-.9 10.5c0-.5.4-.9.9-.9h17.39c.49 0 .9.4.9.9 0 .49-.41.9-.9.9h-17.4c-.5 0-.9-.41-.9-.9Z"/></svg>