<svg viewBox="0 0 24 24" xmlns="http://www.w3.org/2000/svg"><g fill="currentColor"><path d="M3.3 3.59c-.5 0-.9.4-.9.9 0 .49.4.9.9.9h17.4c.49 0 .9-.41.9-.9 0-.5-.41-.9-.9-.9H3.3Zm0 7.2c-.5 0-.9.4-.9.9 0 .49.4.9.9.9h8.56c.45-.71 1.05-1.32 1.73-1.8H3.28Zm0 3.6h7.74c-.17.57-.25 1.17-.25 1.8h-7.5c-.5 0-.9-.41-.9-.9 0-.5.4-.9.9-.9Zm0 3.6h7.74c.18.64.46 1.25.81 1.8H3.28c-.5 0-.9-.41-.9-.9 0-.5.4-.9.9-.9Zm0-10.81c-.5 0-.9.4-.9.9 0 .49.4.9.9.9h17.4c.49 0 .9-.41.9-.9 0-.5-.41-.9-.9-.9H3.3Zm19.5 9c0 2.98-2.42 5.4-5.4 5.4 -2.99 0-5.4-2.42-5.4-5.4 0-2.99 2.41-5.4 5.4-5.4 2.98 0 5.4 2.41 5.4 5.4Zm-5.4-3c-.34 0-.6.26-.6.6v2.4c0 .33.26.6.6.6 .33 0 .6-.27.6-.6v-2.4c0-.34-.27-.6-.6-.6Zm0 6.15c.41 0 .75-.34.75-.75 0-.42-.34-.75-.75-.75 -.42 0-.75.33-.75.75 0 .41.33.75.75.75Z"/><path fill="currentColor" fill-rule="evenodd" d="M2.25 4.49c0-.58.47-1.05 1.05-1.05h17.4c.57 0 1.05.47 1.05 1.05 0 .57-.48 1.05-1.05 1.05H3.3c-.58 0-1.05-.48-1.05-1.05Zm1.05-.75c-.42 0-.75.33-.75.75 0 .41.33.75.75.75h17.4c.41 0 .75-.34.75-.75 0-.42-.34-.75-.75-.75H3.3ZM2.25 8.09c0-.58.47-1.05 1.05-1.05h17.4c.57 0 1.05.47 1.05 1.05 0 .57-.48 1.05-1.05 1.05H3.3c-.58 0-1.05-.48-1.05-1.05Zm1.05-.75c-.42 0-.75.33-.75.75 0 .41.33.75.75.75h17.4c.41 0 .75-.34.75-.75 0-.42-.34-.75-.75-.75H3.3Zm-1.05 4.35c0-.58.47-1.05 1.05-1.05h10.77l-.39.27c-.68.47-1.25 1.07-1.7 1.75l-.05.06H3.28c-.58 0-1.05-.48-1.05-1.05Zm1.05-.75c-.42 0-.75.33-.75.75 0 .41.33.75.75.75h8.48c.37-.57.84-1.08 1.37-1.5H3.29Zm14.1 0c-2.9 0-5.25 2.35-5.25 5.25 0 2.89 2.35 5.25 5.25 5.25 2.89 0 5.25-2.36 5.25-5.25 0-2.9-2.36-5.25-5.25-5.25Zm-5.55 5.25c0-3.07 2.48-5.55 5.55-5.55 3.06 0 5.55 2.48 5.55 5.55 0 3.06-2.49 5.55-5.55 5.55 -3.07 0-5.55-2.49-5.55-5.55Zm4.8-2.4c0-.42.33-.75.75-.75 .41 0 .75.33.75.75v2.4c0 .41-.34.75-.75.75 -.42 0-.75-.34-.75-.75v-2.4Zm.75-.45c-.25 0-.45.2-.45.45v2.4c0 .24.2.45.45.45 .24 0 .45-.21.45-.45v-2.4c0-.25-.21-.45-.45-.45Zm-14.1 1.2c-.42 0-.75.33-.75.75 0 .41.33.75.75.75h7.35c.01-.52.08-1.02.2-1.5H3.29Zm-1.05.75c0-.58.47-1.05 1.05-1.05h7.94l-.06.19c-.16.55-.25 1.14-.25 1.75v.15H3.28c-.58 0-1.05-.48-1.05-1.05Zm14.25 3.3c0-.5.4-.9.9-.9 .49 0 .9.4.9.9 0 .49-.41.9-.9.9 -.5 0-.9-.41-.9-.9Zm.9-.6c-.34 0-.6.26-.6.6 0 .33.26.6.6.6 .33 0 .6-.27.6-.6 0-.34-.27-.6-.6-.6Zm-14.1.15c-.42 0-.75.33-.75.75 0 .41.33.75.75.75h8.29c-.28-.47-.51-.97-.67-1.5H3.28Zm-1.05.75c0-.58.47-1.05 1.05-1.05h7.86l.03.1c.17.63.45 1.22.8 1.75l.15.23H3.29c-.58 0-1.05-.48-1.05-1.05Z"/></g></svg>