<svg viewBox="0 0 24 24" xmlns="http://www.w3.org/2000/svg"><path fill="currentColor" d="M21.7 2.29c.39.39.39 1.02 0 1.41l-.5.5c-.4.39-1.03.39-1.42 0 -.4-.4-.4-1.03 0-1.42l.5-.5c.39-.4 1.02-.4 1.41 0Zm-4.01 4c.39.39.39 1.02 0 1.41l-1 .99c-.4.39-1.03.39-1.42 0 -.4-.4-.4-1.03 0-1.42l.99-1c.39-.4 1.02-.4 1.41 0Zm-4.5 4.49c.39.39.39 1.02 0 1.41l-1 1c-.4.39-1.03.39-1.42 0 -.4-.4-.4-1.03 0-1.42l1-1c.39-.4 1.02-.4 1.41 0Zm-4.51 5.91c.39-.4.39-1.03 0-1.42 -.4-.4-1.03-.4-1.42 0l-1 .99c-.4.39-.4 1.02 0 1.41 .39.39 1.02.39 1.41 0l.99-1Zm-4.5 4.49c.39-.4.39-1.03 0-1.42 -.4-.4-1.03-.4-1.42 0l-.5.5c-.4.39-.4 1.02 0 1.41 .39.39 1.02.39 1.41 0l.5-.5Z"/></svg>