<svg viewBox="0 0 24 24" xmlns="http://www.w3.org/2000/svg"><path fill="currentColor" d="M9.99 5.99c0-.56-.45-1-1-1h-2l-.22 0c-2.67.11-4.79 2.3-4.79 4.99 0 2.76 2.23 4.99 4.99 4.99h1.99l.11-.01c.49-.06.88-.49.88-1 0-.56-.45-1-1-1h-2l-.18-.01c-1.58-.1-2.83-1.4-2.83-3 0-1.66 1.34-3 2.99-3h1.99l.11-.01c.49-.06.88-.49.88-1Zm11.99 3.99c0-2.77-2.24-5-5-5h-2l-.12 0c-.5.05-.89.48-.89.99 0 .55.44.99 1 .99h1.99l.17 0c1.57.09 2.82 1.39 2.82 2.99v.01c.69.06 1.37.34 1.92.84 .04-.28.07-.57.07-.86Zm-4.23.63c-.1.07-.2.15-.29.23 -.12.06-.24.1-.37.11l-.12 0h-10c-.56 0-1-.45-1-1 0-.52.38-.94.88-1l.11-.01h9.99c.55 0 .99.44.99.99 0 .24-.09.46-.23.63Zm.32 1.03l-5.91 5.9c-.35.34-.59.77-.71 1.24l-.46 1.83c-.2.79.52 1.51 1.31 1.31l1.83-.46c.47-.12.9-.37 1.24-.71l5.9-5.91c.89-.9.89-2.34 0-3.24 -.9-.9-2.34-.9-3.24 0Z"/></svg>