<svg viewBox="0 0 24 24" xmlns="http://www.w3.org/2000/svg"><path fill="currentColor" d="M6.5 4C3.46 4 1 6.46 1 9.5c0 2.33 1.45 4.33 3.51 5.12 .03-.7.18-1.37.43-2 -1.16-.58-1.95-1.77-1.95-3.14 0-1.94 1.56-3.5 3.5-3.5h6c1.93 0 3.5 1.56 3.5 3.5 0 1.93-1.57 3.5-3.5 3.5h-.5c-.56 0-1 .44-1 1 0 .55.44 1 1 1h.5c3.03 0 5.5-2.47 5.5-5.5 0-3.04-2.47-5.5-5.5-5.5h-6Zm12.61 8.21c1.1.44 1.88 1.52 1.88 2.78 0 1.65-1.35 3-3 3h-7c-1.66 0-3-1.35-3-3 0-1.66 1.34-3 3-3h1c.55 0 1-.45 1-1 0-.56-.45-1-1-1h-1.01c-2.77 0-5 2.23-5 5 0 2.76 2.23 5 5 5h7c2.76 0 5-2.24 5-5 0-2.25-1.48-4.14-3.51-4.78 -.03.69-.16 1.36-.39 1.98Z"/></svg>