<svg viewBox="0 0 24 24" xmlns="http://www.w3.org/2000/svg"><path fill="currentColor" d="M10 6c0-.56-.45-1-1-1H7l-.22 0c-2.67.11-4.79 2.3-4.79 4.99 0 2.76 2.23 5 5 5h2l.11-.01c.49-.06.88-.49.88-1 0-.56-.45-1-1-1h-2l-.18-.01c-1.58-.1-2.83-1.4-2.83-3 0-1.66 1.34-3 3-3h2l.11-.01c.49-.06.88-.49.88-1Zm12 4c0-2.77-2.24-5-5-5h-2l-.12 0c-.5.05-.89.48-.89.99 0 .55.44 1 1 1h2l.17 0c1.57.09 2.82 1.39 2.82 2.99 0 .49-.12.95-.34 1.37 .63.22 1.23.54 1.76.95 .36-.7.57-1.49.57-2.33Zm-5-1H7l-.12 0c-.5.05-.89.48-.89.99 0 .55.44 1 1 1h10l.11-.01c.49-.06.88-.49.88-1 0-.56-.45-1-1-1Zm-4.163 7.47c1.1-.28 1.75-1.41 1.44-2.5l-.2-.69c.43-.39.93-.7 1.48-.92l.49.52c.78.82 2.11.82 2.89 0l.49-.52c.54.22 1.04.53 1.48.92l-.19.63c-.33 1.09.33 2.24 1.45 2.51l.53.12c.04.3.07.6.07.92 0 .3-.03.59-.07.88l-.59.14c-1.11.27-1.76 1.4-1.45 2.49l.19.68c-.44.38-.94.69-1.49.91l-.5-.53c-.79-.83-2.12-.83-2.9-.01l-.5.51c-.55-.23-1.045-.54-1.49-.93l.18-.64c.32-1.1-.34-2.25-1.45-2.52l-.54-.13c-.05-.31-.08-.61-.08-.93 0-.31.02-.6.06-.89l.58-.15Zm6.11 1.02c0-.83-.65-1.5-1.45-1.5 -.81 0-1.45.67-1.45 1.5 0 .82.64 1.5 1.44 1.5 .8 0 1.44-.68 1.44-1.5Z"/></svg>