<svg viewBox="0 0 24 24" xmlns="http://www.w3.org/2000/svg"><g fill="currentColor"><path d="M10.5 5.7c0-.5-.41-.9-.9-.9H7.2l-.24 0c-2.54.12-4.57 2.22-4.57 4.79 0 2.651 2.14 4.8 4.8 4.8h2.4l.12-.01c.43-.06.77-.44.77-.9 0-.5-.41-.9-.9-.9h-2.4l-.2-.01c-1.57-.11-2.81-1.41-2.81-3 0-1.66 1.34-3 3-3h2.4l.12-.01c.43-.06.77-.44.77-.9Zm11.1 3.9c0-2.66-2.15-4.8-4.8-4.8h-2.4l-.13 0c-.44.05-.78.43-.78.89 0 .49.4.9.9.9h2.4l.19 0c1.56.1 2.8 1.4 2.8 2.99 0 .47-.12.93-.32 1.33 .59.18 1.11.55 1.48 1.03 .39-.7.62-1.51.62-2.37ZM7.5 8.7h9c.49 0 .9.4.9.9 0 .45-.34.83-.78.89l-.13 0h-9c-.5 0-.9-.41-.9-.9 0-.46.33-.84.77-.9l.12-.01Zm6.9 5.7v-.6c0-1 .8-1.8 1.8-1.8h2.4c.99 0 1.8.8 1.8 1.8v.6h.6c.99 0 1.8.8 1.8 1.8V18h-2.4v-.6c0-.34-.27-.6-.6-.6 -.34 0-.6.26-.6.6v.6h-3.6v-.6c0-.34-.27-.6-.6-.6 -.34 0-.6.26-.6.6v.6H12v-1.8c0-1 .8-1.8 1.8-1.8h.6Zm1.2-.6v.6h3.6v-.6c0-.34-.27-.6-.6-.6h-2.4c-.34 0-.6.26-.6.6Zm4.8 6v-.6h2.4V21c0 .99-.81 1.8-1.8 1.8h-7.2c-1 0-1.8-.81-1.8-1.8v-1.8h2.4v.6c0 .33.26.6.6.6 .33 0 .6-.27.6-.6v-.6h3.6v.6c0 .33.26.6.6.6 .33 0 .6-.27.6-.6Z"/><path fill="currentColor" fill-rule="evenodd" d="M14.4 4.75h2.4c2.67 0 4.85 2.17 4.85 4.85 0 .87-.23 1.68-.64 2.39l-.04.06 -.05-.06c-.37-.48-.88-.84-1.47-1.02l-.06-.02 .02-.06c.19-.4.3-.85.3-1.32 0-1.57-1.22-2.85-2.76-2.95l-.2-.01h-2.4c-.53 0-.95-.43-.95-.95 0-.49.35-.88.82-.95l0-.01 .12-.01Zm-7.2 0h2.4c.52 0 .95.42.95.95 0 .48-.36.87-.83.94l-.01 0 -.13 0 -2.4-.01c-1.63 0-2.95 1.32-2.95 2.95 0 1.56 1.21 2.84 2.75 2.94l.19 0h2.39c.52 0 .95.42.95.95 0 .48-.36.87-.83.94l-.01 0 -.13 0 -2.4-.01c-2.68 0-4.85-2.18-4.85-4.85 0-2.6 2.04-4.72 4.6-4.85l0-.01 .24-.01Zm0 .1l-.24 0c-2.52.12-4.52 2.2-4.52 4.74 0 2.62 2.12 4.75 4.75 4.75h2.39l.11-.01c.41-.06.73-.42.73-.85 0-.47-.39-.85-.85-.85H7.16l-.2-.01c-1.6-.11-2.85-1.43-2.85-3.05 0-1.69 1.36-3.05 3.05-3.05h2.39l.11-.01c.41-.06.73-.42.73-.85 0-.47-.39-.85-.85-.85h-2.4Zm7.2 0l-.12 0c-.42.05-.74.41-.74.84 0 .46.38.85.85.85h2.4l.19 0c1.59.1 2.84 1.42 2.84 3.04 0 .46-.11.9-.3 1.3 .55.18 1.04.52 1.41.97 .37-.68.58-1.46.58-2.28 0-2.63-2.13-4.75-4.75-4.75h-2.4Zm-6.91 3.8h9c.52 0 .95.42.95.95 0 .48-.36.87-.83.94l-.01 0 -.13 0 -9-.01c-.53 0-.95-.43-.95-.95 0-.49.35-.88.82-.95l0-.01 .12-.01Zm0 .1l-.12 0c-.42.05-.74.41-.74.84 0 .46.38.85.85.85h8.99l.11-.01c.41-.06.73-.42.73-.85 0-.47-.39-.85-.85-.85h-9Zm8.69 3.3c-.97 0-1.75.78-1.75 1.75v.65h-.65c-.97 0-1.75.78-1.75 1.75v1.75h2.3v-.55c0-.36.29-.65.65-.65 .35 0 .65.29.65.65v.55h3.5v-.55c0-.36.29-.65.65-.65 .35 0 .65.29.65.65v.55h2.3V16.2c0-.97-.79-1.75-1.75-1.75h-.65v-.65c0-.97-.79-1.75-1.75-1.75h-2.4Zm-1.85 1.75c0-1.03.82-1.85 1.85-1.85h2.4c1.02 0 1.85.82 1.85 1.85v.55h.55c1.02 0 1.85.82 1.85 1.85v1.85h-2.5v-.65c0-.31-.25-.55-.55-.55 -.31 0-.55.24-.55.55v.65h-3.7v-.65c0-.31-.25-.55-.55-.55 -.31 0-.55.24-.55.55v.65h-2.5V16.2c0-1.03.82-1.85 1.85-1.85h.55v-.55Zm1.2 0c0-.36.29-.65.65-.65h2.4c.35 0 .65.29.65.65v.65h-3.7v-.65Zm.65-.55c-.31 0-.55.24-.55.55v.55h3.5v-.55c0-.31-.25-.55-.55-.55h-2.4Zm-4.25 5.9h2.5v.65c0 .3.24.55.55.55 .3 0 .55-.25.55-.55v-.65h3.7v.65c0 .3.24.55.55.55 .3 0 .55-.25.55-.55v-.65h2.5V21c0 1.02-.83 1.85-1.85 1.85h-7.2c-1.03 0-1.85-.83-1.85-1.85v-1.85Zm.1.1V21c0 .96.78 1.75 1.75 1.75h7.2c.96 0 1.75-.79 1.75-1.75v-1.75h-2.3v.55c0 .35-.3.65-.65.65 -.36 0-.65-.3-.65-.65v-.55h-3.5v.55c0 .35-.3.65-.65.65 -.36 0-.65-.3-.65-.65v-.55h-2.3Z"/></g></svg>