<svg viewBox="0 0 24 24" xmlns="http://www.w3.org/2000/svg"><path fill="currentColor" d="M9 5c.55 0 1 .44 1 1 0 .51-.39.93-.89.99l-.12 0h-2c-1.66 0-3 1.34-3 3 0 1.59 1.24 2.9 2.82 2.99l.17 0h2c.55 0 1 .44 1 1 0 .51-.39.93-.89.99l-.12 0h-2c-2.77 0-5-2.24-5-5 0-2.69 2.12-4.89 4.78-5l.21-.01h2Zm8 0c2.76 0 5 2.23 5 5 0 .83-.21 1.62-.58 2.32 -.53-.41-1.13-.73-1.77-.96 .21-.42.33-.88.33-1.38 0-1.6-1.25-2.91-2.83-3l-.18-.01h-2c-.56 0-1-.45-1-1 0-.52.38-.94.88-1l.11-.01h2ZM7 9h10c.55 0 1 .44 1 1 0 .51-.39.93-.89.99l-.12 0h-10c-.56 0-1-.45-1-1 0-.52.38-.94.88-1l.11-.01Zm16 8.5c0 3.03-2.47 5.5-5.5 5.5 -3.04 0-5.5-2.47-5.5-5.5 0-3.04 2.46-5.5 5.5-5.5 3.03 0 5.5 2.46 5.5 5.5Zm-7.15-2.36c-.2-.2-.52-.2-.71 0 -.2.19-.2.51 0 .7l1.64 1.64 -1.65 1.64c-.2.19-.2.51 0 .7 .19.19.51.19.7 0l1.64-1.65 1.64 1.64c.19.19.51.19.7 0 .19-.2.19-.52 0-.71l-1.65-1.65 1.64-1.65c.19-.2.19-.52 0-.71 -.2-.2-.52-.2-.71 0l-1.65 1.64 -1.65-1.65Z"/></svg>