<svg viewBox="0 0 24 24" xmlns="http://www.w3.org/2000/svg"><path fill="currentColor" d="M6.5 3C4.56 3 3 4.56 3 6.5v5.99c0 1.93 1.56 3.5 3.5 3.5h.49v-2h-.5c-.83 0-1.5-.68-1.5-1.5v-6c0-.83.67-1.5 1.5-1.5h5.99c.82 0 1.5.67 1.5 1.5v5.99c0 .82-.68 1.5-1.5 1.5h-1.51v2h1.5c1.93 0 3.5-1.57 3.5-3.5v-6c0-1.94-1.57-3.5-3.5-3.5h-6Zm3.49 8.49c0-.83.67-1.5 1.5-1.5h1.49v-2h-1.5c-1.94 0-3.5 1.56-3.5 3.49v6c0 1.93 1.56 3.5 3.5 3.5h6c1.93 0 3.5-1.57 3.5-3.5v-6c0-1.94-1.57-3.5-3.5-3.5h-.5v2h.49c.82 0 1.5.67 1.5 1.49v6c0 .82-.68 1.5-1.5 1.5h-6c-.83 0-1.5-.68-1.5-1.5v-6Z"/></svg>