<svg viewBox="0 0 24 24" xmlns="http://www.w3.org/2000/svg"><path fill="currentColor" d="M9 7c.55 0 1 .44 1 1 0 .51-.39.93-.89.99l-.12 0h-2c-1.66 0-3 1.34-3 3 0 1.59 1.24 2.9 2.82 2.99l.17 0h2c.55 0 1 .44 1 1 0 .51-.39.93-.89.99l-.12 0h-2c-2.77 0-5-2.24-5-5 0-2.69 2.12-4.89 4.78-5l.21-.01h2Zm8 0c2.76 0 5 2.23 5 5 0 2.68-2.13 4.88-4.79 4.99l-.22 0h-2c-.56 0-1-.45-1-1 0-.52.38-.94.88-1l.11-.01h2c1.65 0 3-1.35 3-3 0-1.6-1.25-2.91-2.83-3l-.18-.01h-2c-.56 0-1-.45-1-1 0-.52.38-.94.88-1l.11-.01h2ZM7 11h10c.55 0 1 .44 1 1 0 .51-.39.93-.89.99l-.12 0h-10c-.56 0-1-.45-1-1 0-.52.38-.94.88-1l.11-.01h10 -10Z"/></svg>