<svg viewBox="0 0 24 24" xmlns="http://www.w3.org/2000/svg"><path fill="currentColor" d="M6.34 4.93c.39.39.39 1.02 0 1.41 -3.13 3.12-3.13 8.19 0 11.31 .39.39.39 1.02 0 1.41 -.4.39-1.03.39-1.42 0 -3.91-3.91-3.91-10.24 0-14.15 .39-.4 1.02-.4 1.41 0Zm12.73 0c3.9 3.9 3.9 10.23 0 14.14 -.4.39-1.03.39-1.42 0 -.4-.4-.4-1.03 0-1.42 3.12-3.13 3.12-8.2 0-11.32 -.4-.4-.4-1.03 0-1.42 .39-.4 1.02-.4 1.41 0ZM9.3 7.8c.39.39.39 1.02 0 1.41 -1.54 1.53-1.54 4.01 0 5.54 .39.39.39 1.02 0 1.41 -.4.39-1.03.39-1.42 0 -2.32-2.32-2.32-6.07 0-8.38 .39-.4 1.02-.4 1.41-.001Zm6.95 0c2.31 2.31 2.31 6.06 0 8.37 -.4.39-1.03.39-1.42 0 -.4-.4-.4-1.03 0-1.42 1.53-1.54 1.53-4.02 0-5.55 -.4-.4-.4-1.03 0-1.42 .39-.4 1.02-.4 1.41 0Zm-4.19 2.76c.82 0 1.5.67 1.5 1.5 0 .82-.68 1.5-1.5 1.5 -.83 0-1.5-.68-1.5-1.5 0-.83.67-1.5 1.5-1.5Z"/></svg>