<svg viewBox="0 0 24 24" xmlns="http://www.w3.org/2000/svg"><path fill="currentColor" d="M3.28 2.21c-.3-.3-.77-.3-1.07-.01 -.3.29-.3.76-.01 1.06l2.2 2.2c-3.4 3.92-3.23 9.87.5 13.6 .39.39 1.02.39 1.41 0 .39-.4.39-1.03 0-1.42 -2.95-2.95-3.12-7.63-.51-10.77l1.52 1.52c-1.77 2.32-1.59 5.64.53 7.76 .39.39 1.02.39 1.41 0 .39-.4.39-1.03 0-1.42 -1.34-1.34-1.51-3.4-.52-4.92l1.83 1.83c-.04.12-.06.25-.06.38 0 .82.67 1.5 1.5 1.5 .13 0 .26-.02.38-.06l8.24 8.24c.29.29.76.29 1.06 0 .29-.3.29-.77 0-1.07L3.19 2.12Zm15.74 13.62l1.46 1.46c2.41-3.87 1.94-9.02-1.42-12.37 -.4-.4-1.03-.4-1.42-.001 -.4.39-.4 1.02 0 1.41 2.57 2.57 3.02 6.45 1.36 9.49Zm-3.1-3.1l1.59 1.59c.92-2.17.51-4.77-1.26-6.53 -.4-.4-1.03-.4-1.42 0 -.4.39-.4 1.02 0 1.41 .95.95 1.31 2.28 1.07 3.52Z"/></svg>