<svg viewBox="0 0 24 24" xmlns="http://www.w3.org/2000/svg"><path fill="currentColor" d="M9 2.72c.02-.42.38-.73.79-.7 5.99.39 10.78 5.18 11.17 11.17 .02.41-.29.77-.7.79 -.42.02-.78-.29-.8-.7 -.35-5.25-4.54-9.44-9.78-9.78 -.42-.03-.73-.39-.7-.8ZM7.58 21.38l.38.38c.29.29.76.28 1.05-.01l1.34-1.34c.72-.73 1.56-1.56 2.01-2.01 2.14-2.15 2.14-5.63 0-7.78 -2.15-2.15-5.63-2.15-7.78 0 -2.15 2.14-2.15 5.62 0 7.77 .48.48 1.32 1.31 2.04 2.03 .35.35.68.68.92.92Zm.91-5.64c-.7 0-1.25-.56-1.25-1.25 0-.7.55-1.25 1.25-1.25 .69 0 1.25.55 1.25 1.25 0 .69-.56 1.25-1.25 1.25ZM9.8 5.49c-.42-.04-.78.26-.82.67 -.04.41.26.77.67.81 3.34.3 6.01 2.96 6.31 6.31 .03.41.4.71.81.67 .41-.04.71-.41.67-.82 -.37-4.07-3.61-7.31-7.68-7.68Z"/></svg>