<svg viewBox="0 0 24 24" xmlns="http://www.w3.org/2000/svg"><path fill="currentColor" d="M16.97 18.05l1.18-1.18c3.4-3.41 3.4-8.92 0-12.32 -3.41-3.41-8.92-3.41-12.32 0 -3.41 3.4-3.41 8.91 0 12.31 .29.29.66.65 1.1 1.09l3.49 3.39c.87.84 2.25.84 3.12 0 1.39-1.35 2.53-2.46 3.4-3.32ZM11.99 6.99c.41 0 .75.33.75.75v2.25h2.5c.41 0 .75.33.75.75 0 .41-.34.75-.75.75h-2.5v2.25c0 .41-.34.75-.75.75 -.42 0-.75-.34-.75-.75v-2.25h-2.5c-.42 0-.75-.34-.75-.75 0-.42.33-.75.75-.75h2.5V7.73c0-.42.33-.75.75-.75Z"/></svg>