<svg viewBox="0 0 24 24" xmlns="http://www.w3.org/2000/svg"><path fill="currentColor" d="M3.28 2.21c-.3-.3-.77-.3-1.07-.01 -.3.29-.3.76-.01 1.06l2.56 2.56c-2.3 3.38-1.95 8.03 1.05 11.03 .29.29.66.65 1.1 1.09l3.49 3.39c.87.84 2.25.84 3.12 0 1.39-1.35 2.53-2.46 3.4-3.32l.01-.02 3.73 3.73c.29.29.76.29 1.06 0 .29-.3.29-.77 0-1.07L3.22 2.14Zm9.12 11.24c-.14.02-.27.03-.41.03 -1.39 0-2.51-1.12-2.51-2.51 0-.14.01-.28.03-.41l2.87 2.87Zm2.09-2.47c0 .1-.01.2-.02.3l4.55 4.55c2.48-3.41 2.19-8.22-.89-11.29 -3.08-3.08-7.89-3.37-11.29-.89l4.82 4.82c.09-.02.19-.02.3-.02 1.38 0 2.5 1.11 2.5 2.5Z"/></svg>