<svg viewBox="0 0 24 24" xmlns="http://www.w3.org/2000/svg"><path fill="currentColor" d="M5.84 4.55c3.4-3.41 8.91-3.41 12.31 0 3.33 3.33 3.39 8.69.2 12.1l-.2.2c-.92.91-2.45 2.4-4.6 4.48 -.88.84-2.26.84-3.13-.01l-3.85-3.75c-.29-.29-.54-.53-.75-.74 -3.41-3.41-3.41-8.92 0-12.32Zm9.18 3.12l-.09-.08c-.27-.2-.62-.2-.89-.01l-.1.07 -1.97 1.96L10 7.64l-.09-.08c-.27-.2-.62-.2-.89-.01l-.1.07 -.08.08c-.2.26-.2.61-.01.88l.07.09 1.96 1.96 -1.97 1.96 -.08.08c-.2.26-.2.61-.01.88l.07.09 .08.07c.26.19.61.19.88 0l.09-.08 1.96-1.97 1.96 1.96 .08.07c.26.19.61.19.88 0l.09-.08 .07-.09c.19-.27.19-.62 0-.89l-.08-.1 -1.97-1.97 1.96-1.97 .07-.09c.19-.27.19-.62 0-.89l-.08-.1 -.09-.08 .08.07Z"/></svg>