<svg viewBox="0 0 24 24" xmlns="http://www.w3.org/2000/svg"><path fill="currentColor" d="M9.56 7.5l.05.11 5.3 13c.2.51-.04 1.09-.548 1.3 -.48.19-1.02-.01-1.26-.45l-.06-.11 -1.39-3.39H5.36l-1.5 3.4c-.21.46-.73.7-1.21.55l-.11-.05c-.47-.21-.71-.73-.56-1.21l.04-.11 5.69-13.01c.33-.77 1.39-.8 1.78-.1Zm9.43-5.51c.51 0 .93.38.99.88l0 .11 -.01 4h1c.51 0 .93.38.99.88l0 .11c0 .51-.39.93-.89.99l-.12 0h-1.01l0 7c0 .51-.39.93-.89.99l-.12 0c-.52 0-.94-.39-1-.89l-.01-.12v-13c0-.56.44-1 1-1ZM8.65 10.55l-2.38 5.43h4.59l-2.22-5.44Zm2.33-8.57h5c.51 0 .93.38.99.88l0 .11v2.97c0 2.2-1.8 4-4 4 -.56 0-1-.45-1-1 0-.56.44-1 1-1 1.05 0 1.91-.82 1.99-1.86l0-.15V3.95h-4c-.56 0-1.01-.45-1.01-1 0-.52.38-.94.88-1l.11-.01h5 -5Z"/></svg>