<svg viewBox="0 0 24 24" xmlns="http://www.w3.org/2000/svg"><path fill="currentColor" d="M18 2c0-.56-.45-1-1-1 -.56 0-1 .44-1 1v1h-4c-.56 0-1 .44-1 1v1.25c0 .55.44 1 1 1 .55 0 1-.45 1-1V5h8v.25c0 .55.44 1 1 1 .55 0 1-.45 1-1V4c0-.56-.45-1-1-1h-4V2ZM8.56 7.5l.05.11 5.3 13c.2.51-.04 1.09-.548 1.3 -.48.19-1.02-.01-1.26-.45l-.06-.11 -1.39-3.39H4.36l-1.5 3.4c-.21.46-.73.7-1.21.55l-.11-.05c-.47-.21-.71-.73-.56-1.21l.04-.11 5.69-13.01c.33-.77 1.39-.8 1.78-.1Zm-.91 3.06l-2.38 5.43h4.595l-2.22-5.44Zm5.83-3.57c0-.56.44-1 1-1h5c.4 0 .76.24.92.61 .15.37.06.8-.22 1.08l-1.8 1.79h3.58c.55 0 1 .44 1 1 0 .55-.45 1-1 1h-4.01v2.984c0 1.67-1.62 2.87-3.22 2.39l-.57-.18c-.53-.16-.83-.72-.68-1.25 .15-.53.71-.83 1.24-.68l.56.17c.32.09.64-.15.64-.48V11.44h-4c-.56 0-1-.45-1-1 0-.56.44-1 1-1h3.99c0-.27.1-.52.29-.71l.79-.8H14.4c-.56 0-1-.45-1-1Z"/></svg>