<svg viewBox="0 0 24 24" xmlns="http://www.w3.org/2000/svg"><path fill="currentColor" d="M10 2c2.2 0 4 1.79 4 4v2h2.5c.82 0 1.5.67 1.5 1.5l0 1.5c-.32 0-.64.1-.9.32l-.11.1c-.82.84-1.66 1.23-2.6 1.23 -.79 0-1.4.64-1.4 1.41v2.5c0 2.37.92 4.21 2.68 5.41l-12.19-.01c-.83 0-1.5-.68-1.5-1.5v-11c0-.83.67-1.5 1.5-1.5h2.5v-2c0-2.21 1.79-4 4-4Zm8.28 10.12c.99 1.03 2.09 1.54 3.31 1.54 .19 0 .35.14.39.33l0 .08v2.5c0 2.68-1.32 4.5-3.88 5.39 -.09.02-.18.02-.26 0 -2.48-.86-3.79-2.6-3.87-5.13l-.01-.27v-2.51c0-.24.17-.42.4-.42 1.22 0 2.32-.51 3.31-1.55 .15-.17.4-.17.56 0Zm-8.29 1.37c-.83 0-1.5.67-1.5 1.5 0 .82.67 1.5 1.49 1.5s1.5-.68 1.5-1.5c0-.83-.68-1.5-1.5-1.5Zm-.01-9.5c-1.11 0-2 .89-2 2v2h4v-2c0-1.11-.9-2-2-2Z"/></svg>