<svg viewBox="0 0 24 24" xmlns="http://www.w3.org/2000/svg"><path fill="currentColor" d="M16 6c0-2.21-1.8-4-4-4C9.79 2 8 3.79 8 6v2H5.5C4.67 8 4 8.67 4 9.5v11c0 .82.67 1.5 1.5 1.5H11v-.19c0-.47.18-.91.51-1.24l3.52-3.53c-.03-.19-.04-.37-.04-.56 0-2.49 2.01-4.5 4.5-4.5 .16 0 .33 0 .5.02V9.47c0-.83-.68-1.5-1.5-1.5h-2.5v-2Zm-1.5 2h-5V6c0-1.39 1.11-2.5 2.5-2.5 1.38 0 2.5 1.11 2.5 2.5v2Zm-4 7c0-.83.67-1.5 1.5-1.5 .82 0 1.5.67 1.5 1.5 0 .82-.68 1.5-1.5 1.5 -.83 0-1.5-.68-1.5-1.5Zm12.49 1.5c0 1.93-1.57 3.5-3.5 3.5h-1.5v1c0 .27-.23.5-.5.5h-1v1c0 .27-.23.5-.5.5h-1v.5c0 .27-.23.5-.5.5h-1.75c-.42 0-.75-.34-.75-.75v-1.44c0-.2.07-.39.21-.54l3.75-3.75c.04-.05.09-.09.15-.12 -.08-.3-.13-.6-.13-.92 0-1.94 1.56-3.5 3.5-3.5 1.93 0 3.5 1.56 3.5 3.5Zm-3 .5c.55 0 1-.45 1-1 0-.56-.45-1-1-1 -.56 0-1 .44-1 1 0 .55.44 1 1 1Z"/></svg>