<svg viewBox="0 0 24 24" xmlns="http://www.w3.org/2000/svg"><path fill="currentColor" d="M7.25 5.5c0-1.94 1.56-3.5 3.5-3.5 1.93 0 3.5 1.56 3.5 3.5v1h1c1.24 0 2.25 1 2.25 2.25v7.5c0 1.24-1.01 2.25-2.25 2.25h-9C5 18.5 4 17.49 4 16.25v-7.5C4 7.5 5 6.5 6.25 6.5h1v-1Zm5.5 0c0-1.11-.9-2-2-2 -1.11 0-2 .89-2 2v1h4v-1Zm-2 8.25c.69 0 1.25-.56 1.25-1.25 0-.7-.56-1.25-1.25-1.25 -.7 0-1.25.55-1.25 1.25 0 .69.55 1.25 1.25 1.25ZM7.62 19.5c.3.87 1.14 1.5 2.12 1.5h6c2.34 0 4.25-1.91 4.25-4.25v-4.5c0-.98-.63-1.82-1.5-2.13v6.62c0 1.51-1.24 2.75-2.75 2.75H7.61Z"/></svg>