<svg viewBox="0 0 24 24" xmlns="http://www.w3.org/2000/svg"><path fill="currentColor" d="M15.55 4.17c-1.48.36-2.75 1.27-3.56 2.5 -.82-1.24-2.09-2.15-3.56-2.51 .66-1.3 2-2.18 3.55-2.18 1.55 0 2.89.88 3.55 2.17ZM4.04 14.03c.43-3.66 3.33-6.55 6.98-6.99 -.91-1.25-2.39-2.06-4.05-2.06 -2.77 0-5 2.23-5 5 0 1.66.81 3.13 2.05 4.04Zm15.88 0c1.24-.91 2.05-2.39 2.05-4.05 0-2.77-2.24-5-5-5 -1.67 0-3.14.81-4.05 2.05 3.65.43 6.54 3.33 6.98 6.98Zm-7.95 7.95c3.86 0 7-3.14 7-7 0-3.87-3.14-7-7-7 -3.87 0-7 3.13-7 7 0 3.86 3.13 7 7 7Zm-2.5-8.75c0-.42.33-.75.75-.75h4.25c.31 0 .59.19.7.48 .1.29.02.62-.21.82l-.01 0 -.02.01c-.02.01-.03.02-.06.04 -.05.04-.13.11-.22.21 -.19.18-.44.47-.72.83 -.56.73-1.19 1.77-1.53 3.02 -.11.39-.53.63-.93.52 -.4-.11-.64-.53-.53-.93 .4-1.5 1.15-2.71 1.78-3.54l.01-.02h-2.58c-.42 0-.75-.34-.75-.75Z"/></svg>