<svg viewBox="0 0 24 24" xmlns="http://www.w3.org/2000/svg"><path fill="currentColor" d="M8.75 2c-.42 0-.75.33-.75.75 0 .41.33.75.75.75H9V5h-.75C6.45 5 5 6.45 5 8.25v9c0 1.35.82 2.51 2 3v.99c0 .41.33.75.75.75 .41 0 .75-.34.75-.75v-.75h7v.75c0 .41.33.75.75.75 .41 0 .75-.34.75-.75v-1c1.17-.49 2-1.65 2-3.01v-9c0-1.8-1.46-3.25-3.25-3.25H15v-1.5h.25c.41 0 .75-.34.75-.75 0-.42-.34-.75-.75-.75h-6.5Zm4.75 1.5V5h-3V3.5h3ZM8 9.75c0-.42.33-.75.75-.75h6.5c.41 0 .75.33.75.75 0 .41-.34.75-.75.75h-6.5c-.42 0-.75-.34-.75-.75Z"/></svg>