<svg viewBox="0 0 24 24" xmlns="http://www.w3.org/2000/svg"><path fill="currentColor" d="M17.4 8.39c1.65 0 3-1.35 3-3 0-1.66-1.35-3-3-3 -1.66 0-3 1.34-3 3 0 1.65 1.34 3 3 3Zm-3.8-4.8H5.39c-1.55 0-2.82 1.16-2.99 2.66l8.38 4.43 3.91-2.08c-.93-.78-1.52-1.94-1.52-3.24 0-.65.14-1.26.4-1.8Zm2.36 5.75l-4.87 2.56c-.19.11-.43.11-.61 0l-8.1-4.27v7.35c0 1.65 1.34 3 3 3h10.79c1.65 0 3-1.35 3-3V9.17c-.55.25-1.16.4-1.81.4 -.51 0-.99-.09-1.43-.25ZM7.78 20.38c-.99 0-1.86-.48-2.41-1.2h10.8c2.31 0 4.2-1.89 4.2-4.2v-6c.72.54 1.2 1.41 1.2 2.4v3.6c0 2.98-2.42 5.4-5.4 5.4h-8.4Z"/></svg>