<svg viewBox="0 0 24 24" xmlns="http://www.w3.org/2000/svg"><path fill="currentColor" d="M10.49 3.99c-.2.47-.35.97-.43 1.5l-3.83-.01c-.97 0-1.75.78-1.75 1.75v6.75h4.5c.37 0 .69.28.74.64l0 .1c0 1.24 1 2.25 2.25 2.25 1.24 0 2.25-1.01 2.25-2.25 0-.42.33-.75.75-.75h4.5l0-1.74c.55-.29 1.05-.66 1.49-1.08l-.01 7.56c0 1.79-1.46 3.25-3.25 3.25H6.2c-1.8 0-3.25-1.46-3.25-3.25V7.21c0-1.8 1.45-3.25 3.25-3.25l4.24-.01Zm6-3c3.03 0 5.5 2.46 5.5 5.5 0 3.03-2.47 5.5-5.5 5.5 -3.04 0-5.5-2.47-5.5-5.5 0-3.04 2.46-5.5 5.5-5.5ZM16.61 3l-.09-.02 -.06-.01 -.06 0 -.07.01 -.09.03 -.08.04 -.06.04 -2.52 2.51 -.06.06c-.12.17-.12.39 0 .56l.05.06 .06.05c.17.11.39.11.56 0l.06-.06 1.64-1.65 0 5.292 0 .08c.03.2.19.36.4.4l.08 0 .08-.01c.2-.04.36-.2.4-.41l0-.09 -.01-5.294 1.64 1.64 .06.05c.19.13.46.11.63-.06 .17-.18.19-.45.05-.64l-.06-.07 -2.55-2.55 -.05-.04 -.07-.04 -.07-.03Z"/></svg>