<svg viewBox="0 0 24 24" xmlns="http://www.w3.org/2000/svg"><path fill="currentColor" d="M17.75 3C19.54 3 21 4.45 21 6.25v11.5c0 1.79-1.46 3.25-3.25 3.25H6.25C4.45 21 3 19.54 3 17.75V6.25C3 4.45 4.45 3 6.25 3h11.5Zm0 1.5H6.25c-.97 0-1.75.78-1.75 1.75V13H9c.37 0 .69.28.74.64l0 .1c0 1.24 1 2.25 2.25 2.25 1.19 0 2.16-.93 2.24-2.096l0-.16c0-.42.33-.75.75-.75h4.5v-6.75c0-.92-.71-1.68-1.61-1.75l-.15-.01Zm-11 5h10.5c.41 0 .75.33.75.75 0 .37-.29.69-.65.74l-.11 0H6.74c-.42 0-.75-.34-.75-.75 0-.38.28-.7.64-.75l.1-.01h10.5 -10.5Zm0-3h10.5c.41 0 .75.33.75.75 0 .37-.29.69-.65.74l-.11 0H6.74c-.42 0-.75-.34-.75-.75 0-.38.28-.7.64-.75l.1-.01h10.5 -10.5Z"/></svg>