<svg viewBox="0 0 24 24" xmlns="http://www.w3.org/2000/svg"><path fill="currentColor" d="M21 8c1.65 0 3-1.35 3-3 0-1.66-1.35-3-3-3 -1.33 0-2.45.85-2.85 2.03 -.11.3-.16.62-.16.96 0 1.36.91 2.51 2.15 2.88 .26.07.54.11.84.11ZM5.25 4h11.36c-.08.32-.12.65-.12 1 0 1.56.79 2.93 2 3.74l-6.51 3.4 -9.99-5.23c.15-1.59 1.44-2.83 3.04-2.92l.18-.01Zm7.09 9.66l8.03-4.21c.2.02.41.04.62.04 .34 0 .67-.04 1-.12v7.36c0 1.73-1.36 3.14-3.07 3.24l-.19 0H5.23c-1.74 0-3.15-1.36-3.25-3.07l-.01-.19V8.56l9.65 5.05c.21.11.47.11.69 0Z"/></svg>