<svg viewBox="0 0 24 24" xmlns="http://www.w3.org/2000/svg"><path fill="currentColor" d="M23 6.5C23 3.46 20.53 1 17.5 1 14.46 1 12 3.46 12 6.5c0 3.03 2.46 5.5 5.5 5.5 3.03 0 5.5-2.47 5.5-5.5ZM18 7l0 2.5c0 .27-.23.49-.5.49 -.28 0-.5-.23-.5-.5l-.01-2.51h-2.51c-.28 0-.5-.23-.5-.5 0-.28.22-.5.49-.5h2.5l-.01-2.51c0-.28.22-.5.5-.5 .27 0 .5.22.5.5l0 2.5h2.49c.27 0 .49.22.49.5 0 .27-.23.5-.5.5h-2.5Zm-.51 5.99c1.74 0 3.33-.69 4.5-1.81v5.55c0 1.73-1.36 3.14-3.07 3.24l-.19 0H5.23c-1.74 0-3.15-1.36-3.25-3.07l-.01-.19V8.56l9.65 5.05c.21.11.47.11.69 0l2.41-1.27c.83.38 1.75.6 2.73.6Zm-12.25-9h6.24c-.33.76-.5 1.61-.5 2.5 0 1.99.89 3.77 2.3 4.968l-1.31.68L1.98 6.9c.15-1.59 1.44-2.83 3.04-2.92l.18-.01Z"/></svg>