<svg viewBox="0 0 24 24" xmlns="http://www.w3.org/2000/svg"><path fill="currentColor" d="M17.5 1c-2.21 0-4 1.79-4 4l-.01 3 -.95.8c-.31.25-.47.38-.51.49 -.12.24-.01.54.24.66 .1.04.3.04.7.04h9.01c.4 0 .6 0 .7-.05 .24-.12.35-.42.24-.67 -.05-.11-.21-.24-.51-.5l-.95-.81v-3c0-2.21-1.8-4-4-4ZM19 11c-.22.58-.81 1-1.5 1 -.7 0-1.29-.42-1.5-1h3Zm2.99 5.75V11h-1.94l-.14.35c-.38.98-1.35 1.64-2.44 1.64 -.82 0-1.57-.37-2.05-.97l-3.11 1.62c-.22.11-.48.11-.7 0L1.95 8.58v8.14l0 .18c.09 1.7 1.51 3.06 3.24 3.06h13.5l.18-.01c1.7-.1 3.06-1.52 3.06-3.25Zm-10-4.6l2.2-1.16h-1.24c-.19 0-.36 0-.5-.01 -.12-.01-.37-.03-.62-.14 -.75-.36-1.07-1.24-.73-1.99 .11-.25.29-.42.38-.5 .1-.1.23-.21.37-.33l.61-.52 0-2.54c0-.35.03-.68.1-1H5.21l-.19 0c-1.6.09-2.9 1.33-3.05 2.91l9.98 5.22Z"/></svg>