<svg viewBox="0 0 24 24" xmlns="http://www.w3.org/2000/svg"><path fill="currentColor" d="M22 6.5C22 3.46 19.53 1 16.5 1 13.46 1 11 3.46 11 6.5c0 3.03 2.46 5.5 5.5 5.5 3.03 0 5.5-2.47 5.5-5.5ZM17 7l0 2.5c0 .27-.23.49-.5.49 -.28 0-.5-.23-.5-.5l-.01-2.51h-2.51c-.28 0-.5-.23-.5-.5 0-.28.22-.5.5-.5h2.5l-.01-2.51c0-.28.22-.5.5-.5 .27 0 .5.22.5.5l0 2.5h2.5c.27 0 .5.22.5.5 0 .27-.23.5-.5.5h-2.51Zm2.49 6.99v-1.74c.55-.29 1.05-.66 1.5-1.08v7.55c0 1.79-1.46 3.25-3.25 3.25H6.24c-1.8 0-3.25-1.46-3.25-3.25V7.22c0-1.8 1.45-3.25 3.25-3.25h4.24c-.2.47-.35.97-.43 1.5H6.22c-.97 0-1.75.78-1.75 1.75v6.75h4.5c.37 0 .69.28.74.64l0 .1c0 1.24 1 2.25 2.25 2.25 1.24 0 2.25-1.01 2.25-2.25 0-.42.33-.75.75-.75h4.5Z"/></svg>