<svg viewBox="0 0 24 24" xmlns="http://www.w3.org/2000/svg"><path fill="currentColor" d="M19 8.99V6.82l3.34 2.92c.64.56 1.65.1 1.65-.76v-7c0-.86-1.02-1.32-1.66-.76l-3.35 2.92V1.97c0-.86-1.02-1.32-1.66-.76L13.31 4.7c-.46.39-.46 1.1 0 1.5l4 3.49c.64.56 1.65.1 1.65-.76ZM12.68 7c-.92-.8-.92-2.21-.01-3.01H5.241l-.19 0C3.45 4.08 2.15 5.32 2 6.9l9.98 5.22 4.1-2.16 -3.43-3Zm9 3.49L20.44 9.4l-.58.3c-.36.93-1.39 1.45-2.34 1.22l-5.19 2.71c-.22.11-.48.11-.7 0L1.97 8.57v8.14l0 .18c.09 1.7 1.51 3.06 3.24 3.06h13.5l.18-.01c1.7-.1 3.06-1.52 3.06-3.25v-6.02c-.11-.07-.22-.14-.32-.23Z"/></svg>