<svg viewBox="0 0 24 24" xmlns="http://www.w3.org/2000/svg"><path fill="currentColor" d="M21.6 3.14c-.42-.06-.82-.17-1.2-.34 -.73-.31-1.42-.8-2.06-1.47 -.19-.2-.5-.2-.68-.01 -1.2 1.24-2.52 1.85-3.99 1.85 -.27 0-.48.22-.48.5v3l0 .31c.04 1.49.45 2.76 1.2 3.78 .32.44.72.84 1.18 1.2 .62.48 1.37.87 2.24 1.17 .09.03.2.03.3 0 3.07-1.07 4.64-3.26 4.64-6.48V3.64l-.01-.11c-.05-.23-.24-.4-.48-.4 -.25 0-.49-.02-.72-.06Zm-6.84 9.72c.03.02.07.05.1.08 .74.56 1.61 1.01 2.58 1.35 .35.12.73.12 1.09 0 1.18-.42 2.21-1 3.05-1.75v4.83c0 1.65-1.35 3-3 3H5.38c-1.66 0-3.01-1.35-3.01-3V8.81l9.29 5.46c.18.11.42.11.6 0l2.45-1.45Zm-2.77-8.08v1.91l0 .33 0 .01c.05 1.69.52 3.2 1.44 4.45 .12.17.26.34.4.5l-1.86 1.09 -9.59-5.64c.16-1.51 1.43-2.67 2.98-2.67h6.59Z"/></svg>