<svg viewBox="0 0 24 24" xmlns="http://www.w3.org/2000/svg"><path fill="currentColor" d="M2 5c0-1.66 1.34-3 3-3h11c1.65 0 3 1.34 3 3v5h-9c-2.21 0-4 1.79-4 4v5c0 .34.04.68.12 1H4.99c-1.66 0-3-1.35-3-3V5Zm3.75-1c-.42 0-.75.33-.75.75 0 .41.33.75.75.75h9.5c.41 0 .75-.34.75-.75 0-.42-.34-.75-.75-.75h-9.5Zm2 3c-.42 0-.75.33-.75.75 0 .41.33.75.75.75h7.5c.41 0 .75-.34.75-.75 0-.42-.34-.75-.75-.75h-7.5Zm-.21 5.27c.54-.77 1.43-1.28 2.45-1.28h9c1.01 0 1.9.5 2.45 1.27l-6.96 4.34 -6.96-4.35ZM7 13.7c-.01.09-.02.19-.02.29v5c0 1.65 1.34 3 3 3h9c1.65 0 3-1.35 3-3v-5c0-.1-.01-.2-.02-.3l-7.09 4.43c-.25.15-.56.15-.8 0l-7.09-4.44Z"/></svg>