<svg viewBox="0 0 24 24" xmlns="http://www.w3.org/2000/svg"><path fill="currentColor" d="M19.2 12.48v.71H15c-.34 0-.6.26-.6.59v0l-.01.01c-.01.01-.01.03-.01.07 -.01.06-.02.16-.04.28 -.05.24-.12.55-.28.86 -.16.3-.38.58-.69.8 -.32.2-.76.36-1.41.36 -.65 0-1.09-.16-1.41-.37 -.32-.22-.54-.5-.69-.81 -.16-.31-.24-.62-.28-.87 -.02-.12-.03-.22-.04-.29 -.01-.04-.01-.06-.01-.08l-.01-.02c-.01-.34-.27-.6-.61-.6h-4.2V8.31c0-1.33 1.07-2.4 2.4-2.4h2.42c.03-.42.11-.82.22-1.2H7.1c-1.99 0-3.6 1.61-3.6 3.6v9.6c0 1.98 1.61 3.6 3.6 3.6h9.6c1.98 0 3.6-1.62 3.6-3.6V11.6c-.37.3-.78.56-1.2.78Zm-3-.49c2.98 0 5.4-2.42 5.4-5.41s-2.42-5.4-5.4-5.4c-2.99 0-5.4 2.41-5.4 5.4 0 2.98 2.41 5.4 5.4 5.4Zm-2.83-4.98c-.24-.24-.24-.62 0-.85 .23-.24.61-.24.84 0l1.37 1.37V4.17c0-.34.26-.6.6-.6 .33 0 .6.26.6.6v3.35l1.37-1.38c.23-.24.61-.24.84 0 .23.23.23.61 0 .84l-2.4 2.4c-.06.05-.13.1-.2.13 -.07.02-.15.04-.23.04l-.01 0 -.01-.01c-.09-.01-.16-.02-.23-.05 -.07-.03-.14-.08-.2-.13l-.01-.01 -2.4-2.4Z"/></svg>