<svg viewBox="0 0 24 24" xmlns="http://www.w3.org/2000/svg"><path fill="currentColor" d="M20.29 9.5h.95c.26 0 .52-.07.75-.17v7.41c0 1.73-1.36 3.14-3.07 3.24l-.19 0H5.23c-1.74 0-3.15-1.36-3.25-3.07l-.01-.19V8.57l9.65 5.05c.21.11.47.11.69 0l7.94-4.17ZM12.51 4H5.23l-.19 0c-1.6.09-2.9 1.33-3.05 2.91l9.98 5.22 5.06-2.66h-3.32c-.97 0-1.75-.79-1.75-1.75 0-.49.2-.94.52-1.26 -.33-.32-.53-.76-.53-1.25s.2-.94.52-1.25Zm8.72-2c.39 0 .71.29.74.67 0 .02 0 .04 0 .07 0 .05-.01.11-.02.16 -.08.33-.38.58-.74.58h-7.5c-.1 0-.2-.02-.29-.06 -.28-.12-.47-.39-.47-.7 0-.33.2-.61.5-.71 .07-.03.16-.05.25-.05h7.5Zm0 2.5c.07 0 .13 0 .2.02 .31.08.54.37.54.72 0 .41-.34.75-.75.75h-7.5c-.04 0-.08-.01-.11-.01 -.37-.06-.65-.37-.65-.75 0-.42.33-.75.75-.75h7.5Zm-8.25 3.25c0-.42.33-.75.75-.75h7.5c.41 0 .75.33.75.75 0 .41-.34.75-.75.75h-7.5c-.42 0-.75-.34-.75-.75Z"/></svg>