<svg viewBox="0 0 24 24" xmlns="http://www.w3.org/2000/svg"><path fill="currentColor" d="M22 6.5c0 3.03-2.47 5.5-5.5 5.5 -3.04 0-5.5-2.47-5.5-5.5C11 3.46 13.46 1 16.5 1 19.53 1 22 3.46 22 6.5Zm-7.15-2.36c-.2-.2-.52-.2-.71 0 -.2.19-.2.51 0 .7l1.64 1.64 -1.65 1.64c-.2.19-.2.51 0 .7 .19.19.51.19.7 0l1.64-1.65 1.64 1.64c.19.19.51.19.7 0 .19-.2.19-.52 0-.71l-1.65-1.65L18.8 4.8c.19-.2.19-.52 0-.71 -.2-.2-.52-.2-.71 0l-1.65 1.64 -1.65-1.65Zm4.64 9.85v-1.74c.55-.29 1.05-.66 1.5-1.08v7.55c0 1.79-1.46 3.25-3.25 3.25H6.24c-1.8 0-3.25-1.46-3.25-3.25V7.22c0-1.8 1.45-3.25 3.25-3.25h4.24c-.2.47-.35.97-.43 1.5H6.22c-.97 0-1.75.78-1.75 1.75v6.75h4.5c.37 0 .69.28.74.64l0 .1c0 1.24 1 2.25 2.25 2.25 1.24 0 2.25-1.01 2.25-2.25 0-.42.33-.75.75-.75h4.5Z"/></svg>