<svg viewBox="0 0 24 24" xmlns="http://www.w3.org/2000/svg"><path fill="currentColor" d="M17.4 13.2c1.59 0 3.05-.57 4.2-1.51v5.7c0 1.65-1.35 3-3 3H5.4c-1.66 0-3.01-1.35-3.01-3V8.83l9.29 5.46c.18.11.42.11.6 0l2.67-1.58c.74.29 1.56.45 2.41.45Zm-12-8.41h5.64c-.17.57-.25 1.17-.25 1.8 0 2.28 1.16 4.3 2.93 5.48l-1.73 1.01L2.4 7.44c.16-1.51 1.43-2.67 2.98-2.67Zm11.99 7.2c2.98 0 5.4-2.42 5.4-5.41s-2.42-5.4-5.4-5.4c-2.99 0-5.4 2.41-5.4 5.4 0 2.98 2.41 5.4 5.4 5.4Zm-2.83-4.98c-.24-.24-.24-.62 0-.85 .23-.24.61-.24.84 0l1.37 1.37V4.17c0-.34.26-.6.6-.6 .33 0 .6.26.6.6v3.35l1.37-1.38c.23-.24.61-.24.84 0 .23.23.23.61 0 .84l-2.4 2.4c-.06.05-.13.1-.2.13 -.07.02-.15.04-.23.04l-.01 0 -.01-.01c-.08-.01-.16-.02-.23-.05 -.07-.03-.14-.08-.2-.13l-.01-.01 -2.4-2.4Z"/></svg>