<svg viewBox="0 0 24 24" xmlns="http://www.w3.org/2000/svg"><path fill="currentColor" d="M22 11.26V7.6l-9.66 5.05c-.22.11-.48.11-.7 0L1.98 7.59v8.142l0 .18c.09 1.7 1.51 3.06 3.24 3.06h6.46c.18-.43.44-.81.77-1.14l5.9-5.91c.97-.98 2.41-1.21 3.6-.71Zm-3.25-8.27H5.25l-.19 0c-1.6.09-2.9 1.33-3.05 2.91l9.98 5.22 9.98-5.23c-.17-1.65-1.55-2.93-3.24-2.93Zm.34 9.66l-5.91 5.9c-.35.34-.59.77-.71 1.24l-.46 1.83c-.2.79.52 1.51 1.31 1.31l1.83-.46c.47-.12.9-.37 1.24-.71l5.9-5.91c.89-.9.89-2.34 0-3.24 -.9-.9-2.34-.9-3.24 0Z"/></svg>