<svg viewBox="0 0 24 24" xmlns="http://www.w3.org/2000/svg"><path fill="currentColor" d="M22 6.5c0 3.03-2.47 5.5-5.5 5.5 -3.04 0-5.5-2.47-5.5-5.5C11 3.46 13.46 1 16.5 1 19.53 1 22 3.46 22 6.5Zm-2.15-2.36c-.2-.2-.52-.2-.71 0l-3.65 3.64 -1.65-1.65c-.2-.2-.52-.2-.71 0 -.2.19-.2.51 0 .7l2 2c.19.19.51.19.7 0l4-4c.19-.2.19-.52 0-.71Zm-.36 8.12v1.73h-4.5c-.42 0-.75.33-.75.75 0 1.24-1.01 2.25-2.25 2.25 -1.25 0-2.25-1.01-2.25-2.25l-.01-.11c-.05-.37-.37-.65-.75-.65h-4.5V7.23c0-.97.78-1.75 1.75-1.75h3.82c.08-.53.22-1.03.42-1.5H6.22c-1.8 0-3.25 1.45-3.25 3.25v11.5c0 1.79 1.45 3.25 3.25 3.25h11.5c1.79 0 3.25-1.46 3.25-3.25v-7.56c-.45.42-.95.79-1.5 1.07Z"/></svg>