<svg viewBox="0 0 24 24" xmlns="http://www.w3.org/2000/svg"><path fill="currentColor" d="M11.65 14.16L1.99 9.12v7.62l0 .18c.09 1.7 1.51 3.06 3.24 3.06h7.75c-.01-.05-.01-.09-.01-.125v-.11c0-1.54 1.24-2.78 2.77-2.78h.27c-.65-.64-1.06-1.53-1.06-2.5 0-.78.25-1.5.68-2.08l-3.34 1.73c-.22.11-.48.11-.7 0ZM11.61 2.1L3.09 7.16l-.18.11c-.17.11-.31.25-.44.41l9.5 4.95 9.5-4.96c-.17-.21-.37-.39-.61-.53l-8.52-5.07 -.11-.06c-.22-.09-.46-.07-.67.05Zm9.38 12.39c0 1.38-1.12 2.5-2.5 2.5 -1.39 0-2.5-1.12-2.5-2.5 0-1.39 1.11-2.5 2.5-2.5 1.38 0 2.5 1.11 2.5 2.5Zm2 5.375c0 1.55-1.29 3.125-4.5 3.125 -3.22 0-4.5-1.57-4.5-3.125v-.11c0-.98.79-1.78 1.77-1.78h5.45c.97 0 1.77.79 1.77 1.77v.1Z"/></svg>