<svg viewBox="0 0 24 24" xmlns="http://www.w3.org/2000/svg"><path fill="currentColor" d="M23 6.5c0 3.03-2.47 5.5-5.5 5.5 -3.04 0-5.5-2.47-5.5-5.5C12 3.46 14.46 1 17.5 1 20.53 1 23 3.46 23 6.5Zm-9.5 0c0 .83.25 1.6.69 2.24l5.55-5.56c-.65-.44-1.42-.7-2.25-.7 -2.21 0-4 1.79-4 4Zm4 4c2.2 0 4-1.8 4-4 0-.84-.26-1.61-.7-2.25L15.24 9.8c.64.43 1.41.69 2.24.69Zm0 2.5c1.74 0 3.33-.69 4.5-1.81v5.55c0 1.73-1.36 3.14-3.07 3.24l-.19 0H5.24c-1.74 0-3.15-1.36-3.25-3.07l-.01-.19V8.57l9.65 5.05c.21.11.47.11.69 0l2.41-1.27c.83.38 1.75.6 2.73.6ZM5.25 4h6.24c-.33.76-.5 1.61-.5 2.5 0 1.99.89 3.77 2.3 4.968l-1.31.68 -9.99-5.23c.15-1.59 1.44-2.83 3.04-2.92l.18-.01Z"/></svg>