<svg viewBox="0 0 24 24" xmlns="http://www.w3.org/2000/svg"><path fill="currentColor" d="M23 6.75C23 4.67 21.32 3 19.25 3l-.11 0c-.37.04-.65.36-.65.74 0 .41.33.75.75.75l.15 0c1.17.07 2.096 1.05 2.096 2.24 0 1.24-1.01 2.25-2.25 2.25l-.01 0 -.11 0c-.37.05-.65.36-.65.74 0 .41.33.74.75.74v-.01l.19-.01c1.97-.11 3.54-1.75 3.54-3.75Zm-6.5-3c0-.42-.34-.75-.75-.75l-.2 0c-1.98.1-3.56 1.74-3.56 3.74 0 2.07 1.67 3.75 3.75 3.75l.1-.01c.36-.05.64-.37.64-.75 0-.42-.34-.75-.75-.75l-.16-.01c-1.18-.08-2.096-1.06-2.096-2.25 0-1.25 1-2.25 2.25-2.25l.1-.01c.36-.05.64-.37.64-.75Zm3.5 3c0-.42-.34-.75-.75-.75h-3.5l-.11 0c-.37.04-.65.36-.65.74 0 .41.33.75.75.75h3.5l.1-.01c.36-.05.64-.37.64-.75Zm-.75 4.75h-2.78l-4.14 2.16c-.22.11-.48.11-.7 0L1.97 8.6v8.14l0 .18c.09 1.7 1.51 3.06 3.24 3.06h13.5l.18-.01c1.7-.1 3.06-1.52 3.06-3.25v-6.13c-.78.55-1.73.87-2.75.87ZM5.25 4h6.62c-.56.77-.88 1.72-.88 2.75 0 1.98 1.21 3.67 2.93 4.39l-1.94 1.01 -9.99-5.23C2.14 5.33 3.43 4.09 5.03 4l.18-.01Z"/></svg>