<svg viewBox="0 0 24 24" xmlns="http://www.w3.org/2000/svg"><path fill="currentColor" d="M23 6.5c0 3.03-2.47 5.5-5.5 5.5 -3.04 0-5.5-2.47-5.5-5.5C12 3.46 14.46 1 17.5 1 20.53 1 23 3.46 23 6.5Zm-7.15-2.36c-.2-.2-.52-.2-.71 0 -.2.19-.2.51 0 .7l1.64 1.64 -1.65 1.64c-.2.19-.2.51 0 .7 .19.19.51.19.7 0l1.64-1.65 1.64 1.64c.19.19.51.19.7 0 .19-.2.19-.52 0-.71l-1.65-1.65L19.8 4.8c.19-.2.19-.52 0-.71 -.2-.2-.52-.2-.71 0l-1.65 1.64 -1.65-1.65Zm1.64 8.85c1.74 0 3.33-.69 4.5-1.81v5.55c0 1.73-1.36 3.14-3.07 3.24l-.19 0H5.23c-1.74 0-3.15-1.36-3.25-3.07l-.01-.19V8.56l9.65 5.05c.21.11.47.11.69 0l2.41-1.27c.83.38 1.75.6 2.73.6Zm-12.25-9h6.24c-.33.76-.5 1.61-.5 2.5 0 1.99.89 3.77 2.3 4.968l-1.31.68L1.98 6.9c.15-1.59 1.44-2.83 3.04-2.92l.18-.01Z"/></svg>