<svg viewBox="0 0 24 24" xmlns="http://www.w3.org/2000/svg"><path fill="currentColor" d="M16.161 1.83l-4 7.99c-.5.99.22 2.17 1.34 2.17h7.99c1.11 0 1.84-1.18 1.34-2.18l-4-8c-.56-1.11-2.14-1.11-2.69-.01Zm1.84 2.66v3c0 .27-.23.5-.51.5s-.51-.23-.51-.51V4.47c0-.28.22-.51.5-.51 .27 0 .5.22.5.5Zm-.51 5.5c-.28 0-.51-.23-.51-.51s.22-.51.5-.51c.27 0 .5.22.5.5 0 .27-.23.5-.51.5Zm3.99 3h-7.89l-1.27.66c-.22.11-.48.11-.7 0L1.96 8.59v8.14l0 .18c.09 1.7 1.51 3.06 3.24 3.06h13.5l.18-.01c1.7-.1 3.06-1.52 3.06-3.25v-3.8c-.17.03-.33.04-.51.04Zm-16.25-9h8.7l-2.69 5.38c-.42.84-.32 1.75.12 2.45L1.98 6.9c.15-1.59 1.44-2.83 3.04-2.92l.18-.01Z"/></svg>