<svg viewBox="0 0 24 24" xmlns="http://www.w3.org/2000/svg"><path fill="currentColor" d="M17.4 13.2c1.59 0 3.05-.57 4.2-1.51v5.7c0 1.65-1.35 3-3 3H5.4c-1.66 0-3.01-1.35-3.01-3V8.83l9.29 5.46c.18.11.42.11.6 0l2.67-1.58c.74.29 1.56.45 2.41.45Zm-12-8.4h5.64c-.17.57-.25 1.17-.25 1.8 0 2.28 1.16 4.3 2.93 5.48l-1.73 1.01L2.4 7.45c.16-1.51 1.43-2.67 2.98-2.67Zm7.36 1.1c1.3-.34 2.08-1.68 1.71-2.98l-.19-.67c.3-.24.63-.44.98-.6l.4.42c.94 1 2.54 1 3.49 0l.38-.42c.35.16.69.37 1 .62l-.16.5c-.4 1.32.4 2.7 1.74 3.02l.41.09c.02.21.03.44.03.66 0 .18-.01.37-.03.55l-.56.14c-1.31.33-2.09 1.67-1.72 2.97l.18.66c-.31.23-.64.43-.99.59l-.41-.43c-.95-1.01-2.55-1.01-3.5-.01l-.39.41c-.36-.17-.7-.38-1.01-.63l.15-.51c.39-1.33-.41-2.71-1.75-3.03l-.42-.1c-.03-.22-.04-.44-.04-.67 0-.19 0-.38.02-.56l.55-.15Zm5.83.69c0-.67-.54-1.2-1.2-1.2 -.67 0-1.2.53-1.2 1.2 0 .66.53 1.2 1.2 1.2 .66 0 1.2-.54 1.2-1.2Z"/></svg>