<svg viewBox="0 0 24 24" xmlns="http://www.w3.org/2000/svg"><path fill="currentColor" d="M2 5.25C2 4 3 3 4.25 3h15.5C20.99 3 22 4 22 5.25v5c0 .41-.34.75-.75.75h-8.5v2h.99c.41 0 .75.33.75.75V16h1.74c.41 0 .75.33.75.75v.74h4.25c.41 0 .75.33.75.75 0 .41-.34.75-.75.75h-4.26v1.25c0 .41-.34.75-.75.75h-8.5c-.42 0-.75-.34-.75-.75v-1.26H2.71c-.42 0-.75-.34-.75-.75 0-.42.33-.75.75-.75h4.25v-.75c0-.42.33-.75.75-.75h1.74v-2.26c0-.42.33-.75.74-.75h.99v-2.01h-8.5c-.42 0-.75-.34-.75-.75v-5ZM17.99 8c.55 0 1-.45 1-1.01s-.45-1.01-1.01-1.01 -1.01.44-1.01 1c0 .55.44 1 1 1Z"/></svg>