<svg viewBox="0 0 24 24" xmlns="http://www.w3.org/2000/svg"><path fill="currentColor" d="M12.18 4.14c-.97-.73-2.35-.08-2.4 1.13L9.7 6.99h2.28c.55 0 1 .44 1 1 0 .55-.45 1-1 1H9.6l-.4 8.85c-.14 2.93-3.6 4.41-5.81 2.47l-.09-.08c-.42-.37-.46-1-.1-1.42 .36-.42.99-.46 1.41-.1l.08.07c.94.82 2.43.19 2.48-1.07l.38-8.77H5.92c-.56 0-1-.45-1-1 0-.56.44-1 1-1h1.71l.08-1.82C7.83 2.3 11.05.78 13.3 2.47l.21.15c.44.33.53.95.2 1.4 -.34.44-.96.53-1.4.2l-.22-.16Zm.89 8.9c.25-.14.57-.04.69.22l.81 1.72 -3.3 3.295c-.4.39-.4 1.02 0 1.41 .39.39 1.02.39 1.41 0l2.78-2.79 .77 1.65c.69 1.47 2.59 1.9 3.85.86l.51-.43c.42-.36.48-.99.13-1.41 -.36-.43-.99-.49-1.41-.14l-.52.42c-.26.2-.64.12-.78-.18l-1.09-2.31 2.71-2.72c.39-.4.39-1.03 0-1.42 -.4-.4-1.03-.4-1.42 0l-2.21 2.2 -.51-1.08c-.62-1.31-2.21-1.83-3.47-1.13l-.61.33c-.49.26-.67.87-.4 1.35 .26.48.87.66 1.35.39l.6-.33Z"/></svg>