<svg viewBox="0 0 24 24" xmlns="http://www.w3.org/2000/svg"><path fill="currentColor" d="M11.7 3.29c-.4-.4-1.03-.4-1.42 0l-2.01 2c-.4.39-.4 1.02 0 1.41 .39.39 1.02.39 1.41 0l1.29-1.3 1.29 1.29c.39.39 1.02.39 1.41 0 .39-.4.39-1.03 0-1.42l-2-2Zm2.76 6.44c.24-.21.61-.14.76.14l1.1 2.1 -3.56 3.55c-.4.39-.4 1.02 0 1.41 .39.39 1.02.39 1.41 0l3.11-3.12 1.16 2.21c.74 1.42 2.62 1.77 3.83.73l.32-.28c.41-.36.46-1 .1-1.42 -.36-.42-1-.47-1.42-.11l-.33.27c-.25.2-.62.13-.77-.15l-1.46-2.77 2.9-2.91c.39-.4.39-1.03 0-1.42 -.4-.4-1.03-.4-1.42 0l-2.47 2.46 -.82-1.56c-.75-1.43-2.63-1.78-3.84-.74l-.33.27c-.42.35-.47.99-.11 1.41 .35.41.99.46 1.41.1l.32-.28ZM3.03 13.71c.87-.02 1.77-.08 2.6-.26 1.07-.24 2.18-.71 2.87-1.74 .61-.93.64-2.06.05-2.92 -.61-.88-1.69-1.25-2.87-.98 -.45.1-1.29.31-2.16 1 -.88.69-1.71 1.8-2.26 3.58 -.41 1.28-.41 2.43 0 3.37 .42.96 1.21 1.56 2.12 1.81 1.76.48 3.93-.3 5.31-2.04 .34-.44.26-1.07-.17-1.41 -.44-.35-1.07-.27-1.41.16 -.97 1.22-2.36 1.58-3.22 1.34 -.41-.12-.68-.35-.84-.69 -.12-.28-.19-.69-.1-1.28Zm3.88-3.77c.07.1.13.34-.08.67 -.27.39-.78.7-1.63.88 -.45.09-.94.15-1.47.18 .34-.63.7-1.02 1.03-1.28 .52-.42 1.01-.55 1.35-.63 .5-.12.7.06.77.16Z"/></svg>