<svg viewBox="0 0 24 24" xmlns="http://www.w3.org/2000/svg"><path fill="currentColor" d="M15.44 4.95c-.15-.27-.49-.34-.73-.17l-.39.27c-.45.32-1.08.21-1.4-.24 -.33-.45-.22-1.08.23-1.4l.38-.28c1.21-.87 2.91-.49 3.63.81l.5.91 1.59-1.6c.39-.4 1.02-.4 1.41 0 .39.39.39 1.02 0 1.41l-2 1.99 .79 1.42c.15.27.51.34.75.14l.36-.3c.42-.35 1.05-.29 1.4.14 .34.42.28 1.05-.15 1.4l-.37.29c-1.21.97-3.01.63-3.76-.73l-.52-.93 -1.54 1.53c-.4.39-1.03.39-1.42 0 -.4-.4-.4-1.03 0-1.42l1.93-1.94 -.79-1.41Zm-7.05 9.18c-1.42.27-3.01.34-4.54.35 -.28 1.11-.16 1.89.09 2.42 .3.62.88 1.06 1.7 1.26 1.69.42 4.17-.25 5.82-2.14 .36-.42.99-.46 1.41-.1 .41.36.45.99.09 1.41 -2.1 2.39-5.32 3.37-7.82 2.75 -1.28-.32-2.42-1.08-3.03-2.34 -.61-1.26-.62-2.83.01-4.63 .83-2.43 2.11-3.95 3.4-4.89 1.27-.94 2.51-1.28 3.21-1.42 1.62-.34 3.08.12 3.89 1.19 .82 1.08.8 2.56-.1 3.78 -.98 1.33-2.58 1.96-4.22 2.28Zm.8-5.31c-.55.11-1.48.36-2.44 1.07 -.73.52-1.5 1.33-2.14 2.58 1.2-.03 2.36-.12 3.37-.31 1.45-.29 2.44-.78 2.98-1.51 .43-.59.34-1.09.11-1.4 -.25-.33-.85-.67-1.91-.45Z"/></svg>