<svg viewBox="0 0 24 24" xmlns="http://www.w3.org/2000/svg"><path fill="currentColor" d="M6.5 1.5c.55 0 1 .44 1 1V5H10c.55 0 1 .44 1 1 0 .55-.45 1-1 1H7.49v2.5c0 .55-.45 1-1 1 -.56 0-1-.45-1-1V7h-2.5c-.56 0-1-.45-1-1 0-.56.44-1 1-1h2.49V2.5c0-.56.44-1 1-1ZM13.99 5c-.56 0-1 .44-1 1 0 .55.44 1 1 1h7c.55 0 1-.45 1-1 0-.56-.45-1-1-1h-7Zm-1 12.5c0-.56.44-1 1-1h7c.55 0 1 .44 1 1 0 .55-.45 1-1 1h-7c-.56 0-1-.45-1-1Zm4.5-2c.69 0 1.25-.56 1.25-1.25 0-.7-.56-1.25-1.25-1.25 -.7 0-1.25.55-1.25 1.25 0 .69.55 1.25 1.25 1.25Zm1.25 5.25c0 .69-.56 1.25-1.25 1.25 -.7 0-1.25-.56-1.25-1.25 0-.7.55-1.25 1.25-1.25 .69 0 1.25.55 1.25 1.25ZM2.28 13.29c.39-.4 1.02-.4 1.41 0l2.79 2.79 2.79-2.8c.39-.4 1.02-.4 1.41 0 .39.39.39 1.02 0 1.41l-2.8 2.79 2.79 2.79c.39.39.39 1.02 0 1.41 -.4.39-1.03.39-1.42 0l-2.8-2.8 -2.8 2.79c-.4.39-1.03.39-1.42 0 -.4-.4-.4-1.03 0-1.42l2.79-2.8 -2.8-2.8c-.4-.4-.4-1.03 0-1.42Z"/></svg>