<svg viewBox="0 0 24 24" xmlns="http://www.w3.org/2000/svg"><path fill="currentColor" d="M7.95 2.52c.96-.27 2.34-.53 4.04-.53 1.7 0 3.08.26 4.04.53 .48.13.85.26 1.11.36 .13.05.23.09.3.12 .04.01.08.03.12.05 .03.01-.56 1.12 0 0 .37.18.52.63.33 1 -.19.36-.64.52-1.01.33l-.01-.01 -.01-.01c-.02-.01-.03-.02-.06-.03 -.06-.03-.14-.06-.24-.1 -.22-.09-.55-.21-.97-.32 -.86-.24-2.1-.48-3.65-.48 -1.55-.01-2.8.23-3.65.47 -.43.11-.76.23-.97.32 -.11.04-.19.07-.24.1 -.03.01-.05.02-.06.02l-.02 0c-.37.18-.82.03-1.01-.34 -.19-.37-.04-.83.33-1.01l0-.01 0-.01 0-.01 .02-.02c.02-.01.04-.03.08-.04 .07-.04.17-.08.3-.13 .26-.11.63-.24 1.11-.38ZM6.74 20.24c-.34.67-.34.67-.34.67l0 0 0 0 0 0 .02.01c.02 0 .04.02.08.03 .07.03.17.07.3.12 .26.1.63.23 1.11.36 .96.26 2.34.52 4.04.52 1.7 0 3.08-.26 4.04-.53 .48-.14.85-.27 1.11-.38 .13-.06.23-.1.3-.13 .03-.02.06-.03.08-.04l.02-.02 0-.01 0-.01 0-.01s0-.01-.34-.68l.33.67c.37-.19.51-.64.33-1.01 -.19-.37-.64-.52-1.01-.34l-.01 0c-.02 0-.03.01-.06.02 -.06.02-.14.05-.24.1 -.22.08-.55.2-.97.31 -.86.23-2.1.47-3.65.47 -1.55-.01-2.8-.25-3.65-.48 -.43-.12-.76-.24-.97-.32 -.11-.05-.19-.08-.24-.1 -.03-.02-.05-.02-.06-.03l-.01-.01c-.38-.19-.83-.04-1.01.33 -.19.37-.04.82.33 1l.33-.68Zm-.5-13.75c-1.25 0-2.25 1-2.25 2.25v6.49c0 1.24 1 2.25 2.25 2.25h6.5c1.24 0 2.25-1.01 2.25-2.25v-6.5c0-1.25-1.01-2.25-2.25-2.25h-6.5Zm13.01 9.82l-3.27-2.73v-3.21l3.27-2.73c.22-.19.53-.23.79-.11 .26.12.43.38.43.67v7.49c0 .29-.17.55-.44.67s-.58.08-.8-.11Z"/></svg>