<svg viewBox="0 0 24 24" xmlns="http://www.w3.org/2000/svg"><path fill="currentColor" d="M3.28 2.21c-.3-.3-.77-.3-1.07-.01 -.3.29-.3.76-.01 1.06l4.5 4.5 -3.12.92c-.96.28-1.61 1.16-1.61 2.15v2.26c0 .99.65 1.87 1.6 2.15l2.39.71 0 .5 0 .19c.1 2.11 1.85 3.8 3.99 3.8 1.55 0 2.93-.9 3.59-2.25l5.12 1.52 2 2c.29.29.76.29 1.06 0 .29-.3.29-.77 0-1.07L3.22 2.13Zm4.21 14.22l4.62 1.37c-.45.71-1.24 1.17-2.13 1.17 -1.39 0-2.5-1.12-2.5-2.5l-.01-.06Zm14.501 1.29c0 .31-.07.62-.19.89L9.98 6.79l9.11-2.71c1.19-.36 2.44.32 2.79 1.51 .06.2.09.42.09.64V17.7Z"/></svg>