<svg viewBox="0 0 24 24" xmlns="http://www.w3.org/2000/svg"><path fill="currentColor" d="M17.21 2.23c.13-.4-.09-.82-.48-.95 -.4-.14-.82.08-.95.47l-.75 2.24c-.14.39.08.81.47.94 .39.13.81-.09.94-.48l.75-2.25Zm4.56-.02c.29.29.29.76 0 1.06l-2.5 2.5c-.3.29-.77.29-1.07 0 -.3-.3-.3-.77 0-1.07l2.5-2.5c.29-.3.76-.3 1.06 0Zm-8.91 1.52c-1.12-1.2-3.09-.9-3.8.57l-5.9 12.24c-.35.7-.19 1.55.38 2.09l1.43 1.35c.52.49 1.3.62 1.96.33l1.41-.63c.64 1.35 2.01 2.28 3.61 2.28 2.2 0 4-1.8 4-4 0-.55-.11-1.06-.31-1.53l3.41-1.52c1.46-.65 1.84-2.55.75-3.72l-7.01-7.51Zm1.45 13.34c.11.28.17.59.17.91 0 1.38-1.12 2.5-2.5 2.5 -.99 0-1.84-.57-2.25-1.4l4.56-2.03Zm4.67-8.84c0-.42.33-.75.75-.75h2c.41 0 .75.33.75.75 0 .41-.34.75-.75.75h-2c-.42 0-.75-.34-.75-.75Z"/></svg>