<svg viewBox="0 0 24 24" xmlns="http://www.w3.org/2000/svg"><path fill="currentColor" d="M21.62 6.87c-.57-.57-1.33-.88-2.13-.88V3.74c0-.2-.08-.39-.22-.54 -.14-.15-.34-.22-.54-.22s-.39.07-.54.21c-.15.13-.22.33-.22.53v2.25h-3V3.72c0-.2-.08-.39-.22-.54 -.15-.15-.34-.22-.54-.22s-.39.07-.54.21c-.15.14-.22.33-.22.53v2.25h-3V3.7c0-.2-.08-.39-.22-.54 -.15-.15-.34-.22-.54-.22s-.39.07-.54.21c-.15.14-.22.33-.22.53v2.25h-3V3.68c0-.2-.08-.39-.22-.54 -.15-.15-.34-.22-.54-.22s-.39.07-.54.21c-.15.14-.22.33-.22.53v2.25c-.8 0-1.56.31-2.13.87 -.57.56-.88 1.32-.88 2.12v6c0 .79.31 1.55.87 2.12 .56.56 1.32.87 2.12.87v2.25c0 .19.07.39.21.53 .14.14.33.21.53.21 .19 0 .39-.08.53-.22 .14-.15.21-.34.21-.54v-2.25h3v2.25c0 .19.07.39.21.53 .14.14.33.21.53.21 .19 0 .39-.08.53-.22 .14-.15.21-.34.21-.54v-2.25h3v2.25c0 .19.07.39.21.53 .14.14.33.21.53.21 .19 0 .39-.08.53-.22 .14-.15.21-.34.21-.54v-2.25h3v2.25c0 .19.07.39.21.53 .14.14.33.21.53.21 .19 0 .39-.08.53-.22 .14-.15.21-.34.21-.54v-2.25c.79 0 1.55-.32 2.12-.88 .56-.57.87-1.33.87-2.13v-6c0-.8-.32-1.56-.88-2.13Zm-2.13 7.37c0 .19-.08.39-.22.53 -.15.14-.34.21-.54.21H5.23c-.2 0-.39-.08-.54-.22 -.15-.14-.22-.34-.22-.54v-4.5c0-.2.07-.39.21-.54 .14-.15.33-.22.53-.22h13.5c.19 0 .39.07.53.21 .14.13.21.33.21.53v4.5Zm-13.5-.75h12v-3h-12v3Z"/></svg>