<svg viewBox="0 0 24 24" xmlns="http://www.w3.org/2000/svg"><g fill="currentColor"><path d="M12 6.6C12 9.58 9.58 12 6.6 12c-2.99 0-5.4-2.42-5.4-5.4 0-2.99 2.41-5.4 5.4-5.4 2.98 0 5.4 2.41 5.4 5.4ZM6.17 9.42l0 0c.05.05.12.09.19.12 .06.02.14.04.22.04l0 0 0-.01c.08-.01.15-.02.22-.05 .07-.03.13-.08.19-.14l2.4-2.4c.23-.24.23-.62 0-.85 -.24-.24-.62-.24-.85 0L7.16 7.5V4.14c0-.34-.27-.6-.6-.6 -.34 0-.6.26-.6.6v3.35L4.58 6.11c-.24-.24-.62-.24-.85 0 -.24.23-.24.61 0 .84l2.39 2.39Zm9.12-.46c-.62-.48-1.39-.79-2.28-.86 -.16.63-.4 1.24-.72 1.79 .09-.01.19-.02.29-.02 1.7 0 2.7 1.25 2.7 3.3 0 2-1.05 3.3-2.7 3.3 -1.66 0-2.7-1.3-2.7-3.3 0-.34.02-.65.07-.93 -.58.34-1.21.6-1.88.75 -.01.05-.01.11-.01.17 0 2.92 1.74 5.1 4.5 5.1 1.44 0 2.6-.6 3.39-1.59 .65 1.37 1.76 2.18 3.2 2.18 2.43 0 3.9-2.31 3.9-5.7 0-5.47-4.44-9.9-9.9-9.9 -.3 0-.58.01-.87.03 .31.54.54 1.13.69 1.76 .05-.01.11-.01.17-.01 4.47 0 8.1 3.62 8.1 8.1 0 2.52-.88 3.9-2.1 3.9 -1.23 0-2.1-1.38-2.1-3.9v-4.2l-.01-.13c-.06-.44-.44-.78-.9-.78 -.49 0-.89.38-.9.86ZM3.32 12.32c.54.31 1.13.54 1.76.69 -.01.05-.01.11-.01.17 0 4.47 3.62 8.1 8.1 8.1 .95 0 1.88-.17 2.75-.49 .46-.17.98.07 1.15.53 .16.46-.08.98-.54 1.15 -1.08.38-2.21.58-3.38.58 -5.47 0-9.9-4.44-9.9-9.9 0-.3.01-.58.03-.87Z"/><path fill="currentColor" fill-rule="evenodd" d="M7.2 4.2c0-.34-.27-.6-.6-.6 -.34 0-.6.26-.6.6v3.35L4.62 6.17c-.24-.24-.62-.24-.85 0 -.24.23-.24.61 0 .84L6.16 9.4l0 0c.05.05.12.09.19.12 .06.02.14.04.22.04l0 0 0-.01c.08-.01.15-.02.22-.05 .07-.03.13-.08.19-.14l2.4-2.4c.23-.24.23-.62 0-.85 -.24-.24-.62-.24-.85 0L7.15 7.48V4.12Zm-.6 5.29c.06-.01.13-.02.18-.04 .05-.03.11-.07.16-.11l2.4-2.4c.19-.2.19-.52 0-.71 -.2-.2-.52-.2-.71 0L7.08 7.77v-3.6c0-.28-.23-.5-.5-.5 -.28 0-.5.22-.5.5v3.59L4.53 6.21c-.2-.2-.52-.2-.71 0 -.2.19-.2.51 0 .7L6.21 9.3l0 0c.04.04.1.08.15.1 .05.02.12.03.18.03 -.01 0 0 0 0 0l0 0 0-.01Zm5.76.3c.29-.53.51-1.1.65-1.7 .84.06 1.58.34 2.18.78 .03.02.06.04.09.07 0-.04 0-.08.01-.12 .06-.43.43-.76.88-.76s.83.33.89.77l0 .12v4.2c0 2.52.87 3.9 2.1 3.9 1.22 0 2.1-1.38 2.1-3.9 0-4.48-3.63-8.1-8.1-8.1 -.06 0-.12 0-.18 0 -.14-.6-.36-1.16-.64-1.67 -.02-.04-.04-.07-.06-.1 .03-.01.07-.01.1-.01 .24-.02.49-.03.75-.03 5.46 0 9.9 4.43 9.9 9.9 0 3.39-1.47 5.7-3.9 5.7 -1.41 0-2.5-.78-3.16-2.09 -.02-.04-.04-.07-.05-.1 -.03.02-.05.05-.07.08 -.79.93-1.93 1.5-3.33 1.5 -2.76 0-4.5-2.18-4.5-5.1 0-.06 0-.12 0-.18 .62-.15 1.21-.39 1.76-.7 .03-.03.07-.05.11-.07 -.01.04-.02.08-.03.12 -.04.25-.06.51-.06.79 0 2 1.04 3.3 2.7 3.3 1.65 0 2.7-1.3 2.7-3.3 0-2.05-1-3.3-2.7-3.3 -.06 0-.12 0-.18 0 -.05 0-.09 0-.13 0 .02-.04.04-.07.05-.11Zm3.6 7.08c-.8.94-1.96 1.5-3.38 1.5 -1.404 0-2.56-.56-3.36-1.49 -.8-.94-1.25-2.24-1.25-3.72 0-.06 0-.12 0-.18l0-.08 .07-.02c.65-.16 1.28-.41 1.84-.75l.18-.12 -.04.21c-.05.28-.08.58-.08.91 0 .98.25 1.78.7 2.33 .44.55 1.09.86 1.89.86 .8 0 1.44-.32 1.89-.87 .44-.56.7-1.36.7-2.34 0-1.01-.25-1.81-.69-2.36 -.45-.55-1.09-.85-1.92-.85 -.1 0-.2 0-.29.01l-.2.01 .09-.17c.31-.55.55-1.14.7-1.77l.01-.09 .08 0c.84.06 1.58.33 2.19.76 .09-.46.49-.79.97-.79 .5 0 .92.37.99.86l0 0 0 .12 -.01 4.2c0 1.25.21 2.2.57 2.84 .35.63.85.95 1.42.95 .56 0 1.06-.32 1.42-.96 .36-.64.57-1.6.57-2.85 0-4.42-3.59-8-8-8 -.06 0-.12 0-.17 0l-.09 0 -.02-.08c-.15-.62-.38-1.21-.69-1.74l-.08-.14 .15-.02c.28-.03.57-.04.87-.04 5.52 0 10 4.47 10 10 0 1.7-.37 3.15-1.06 4.17 -.69 1.02-1.7 1.62-2.95 1.62 -1.45 0-2.55-.79-3.23-2.11ZM3.24 12.14l.13.07c.53.3 1.12.53 1.73.68l.07.01 -.01.08c-.01.05-.01.11-.01.16 0 4.41 3.58 8 8 8 .94 0 1.85-.17 2.72-.48 .51-.19 1.09.08 1.28.59 .18.51-.09 1.09-.6 1.28 -1.09.39-2.24.59-3.41.59 -5.53 0-10-4.48-10-10 0-.3.01-.59.03-.88l.01-.16Zm8.84-5.58c0 3.03-2.47 5.5-5.5 5.5 -3.04 0-5.5-2.47-5.5-5.5 0-3.04 2.46-5.5 5.5-5.5 3.03 0 5.5 2.46 5.5 5.5Zm-8.77 5.73c-.01.03-.01.07-.01.1 -.02.24-.03.49-.03.75 0 5.46 4.43 9.9 9.9 9.9 1.16 0 2.29-.21 3.37-.59 .46-.17.7-.69.53-1.16 -.17-.47-.69-.71-1.16-.54 -.88.31-1.81.48-2.76.48 -4.48 0-8.1-3.63-8.1-8.1 0-.06 0-.12 0-.18 -.6-.14-1.16-.36-1.67-.64 -.04-.02-.07-.04-.1-.06Zm3.26-.34c2.98 0 5.4-2.42 5.4-5.4 0-2.99-2.42-5.4-5.4-5.4 -2.99 0-5.4 2.41-5.4 5.4 0 2.98 2.41 5.4 5.4 5.4Z"/></g></svg>