<svg viewBox="0 0 24 24" xmlns="http://www.w3.org/2000/svg"><path fill="currentColor" d="M12 2c5.42 0 9.84 4.32 9.99 9.72l0 .27 -.01 1.52c-.02 2.19-1.8 3.97-4 3.97 -1.45 0-2.72-.77-3.42-1.92 -.8.83-1.89 1.34-3.09 1.34 -2.52 0-4.5-2.25-4.5-4.97 0-2.72 1.98-4.97 4.5-4.97 .93 0 1.79.31 2.51.84 .07-.48.48-.85.98-.85 .51 0 .93.38.99.88l0 .11v5.5c0 1.1.89 2 2 2 1.05 0 1.91-.82 1.99-1.86l0-.18 -.01-1.48c0-4.42-3.59-8-8-8 -4.42 0-8 3.58-8 8 0 4.41 3.58 8 8 8 .92 0 1.82-.16 2.66-.46 .52-.19 1.09.08 1.27.6 .18.52-.09 1.09-.61 1.27 -1.07.37-2.19.57-3.34.57 -5.53 0-10-4.48-10-10 0-5.53 4.47-10 10-10Zm-.36 7l-.15-.01c-1.36 0-2.5 1.3-2.5 2.96s1.14 2.96 2.5 2.96c1.3 0 2.41-1.21 2.49-2.79l0-.23c-.02-1.59-1.08-2.84-2.36-2.93l-.15-.01 .14 0Z"/></svg>