<svg viewBox="0 0 24 24" xmlns="http://www.w3.org/2000/svg"><g fill="currentColor"><path d="M5.7 2.4c-1.83 0-3.3 1.47-3.3 3.3v12.59c0 1.82 1.47 3.3 3.3 3.3h1.8c.49 0 .9-.41.9-.9 0-.5-.41-.9-.9-.9H5.7c-.83 0-1.5-.68-1.5-1.51V5.68c0-.83.67-1.5 1.5-1.5h1.8c.49 0 .9-.41.9-.9 0-.5-.41-.9-.9-.9H5.7Zm8.39 6.3c.49 0 .9.4.9.9v3.29c0 .49.4.9.9.9 .49 0 .9-.41.9-.9v-.9c0-2.66-2.15-4.8-4.8-4.8 -2.66 0-4.8 2.14-4.8 4.79 0 2.55 1.99 4.64 4.51 4.79l-.01 0 .01-.01c.09 0 .18 0 .27 0 .45 0 .86-.06 1.26-.16 .42-.12.89.06 1.06.46 .2.51-.03 1.11-.57 1.26 -.56.15-1.14.22-1.77.22 -3.65 0-6.6-2.96-6.6-6.6 0-3.65 2.95-6.6 6.59-6.6 3.64 0 6.6 2.95 6.6 6.59v.9c0 .54-.17 1.05-.45 1.48 -.05.12-.11.24-.16.37v-.16c-.5.61-1.26 1-2.1 1 -.91 0-1.71-.45-2.2-1.13 -.49.33-1.08.52-1.71.52 -1.66 0-3-1.35-3-3 0-1.66 1.34-3 2.99-3 .45 0 .87.09 1.25.27 .12-.34.45-.58.84-.58Zm-2.1 2.09c-.67 0-1.2.53-1.2 1.2 0 .66.53 1.2 1.2 1.2 .66 0 1.2-.54 1.2-1.2 0-.67-.54-1.2-1.2-1.2Zm9.6-5.1c0-1.83-1.48-3.3-3.3-3.3h-1.8c-.5 0-.9.4-.9.9 0 .49.4.9.9.9h1.8c.82 0 1.5.67 1.5 1.5v12.59c0 .82-.68 1.5-1.51 1.5h-1.8c-.5 0-.9.4-.9.9 0 .49.4.89.9.89h1.8c1.82 0 3.3-1.48 3.3-3.3V5.67Z"/><path fill="currentColor" fill-rule="evenodd" d="M11.6 16.78c.02 0 .05 0 .08 0 0 0 0 0 .01 0 0 0 0 0 .01 0l-.01 0 .01-.01c.03 0 .06 0 .1 0 .05 0 .11 0 .17 0 .45 0 .86-.06 1.26-.16 .42-.12.89.06 1.06.46 .2.51-.03 1.11-.57 1.26 -.56.15-1.14.22-1.77.22 -3.65 0-6.6-2.96-6.6-6.6 0-3.65 2.95-6.6 6.59-6.6 3.64 0 6.6 2.95 6.6 6.59v.9c0 .54-.17 1.05-.45 1.48 -.02.04-.04.09-.06.14 -.01.02-.03.04-.04.07 -.01.01-.02.02-.02.04 -.02.03-.04.07-.06.11 -.01 0-.01 0-.01 0v-.16c-.03.03-.06.06-.09.09 -.01 0-.02.01-.02.01 -.5.54-1.21.88-2.01.88 -.91 0-1.71-.45-2.2-1.13 -.49.33-1.08.52-1.71.52 -1.66 0-3-1.35-3-3 0-1.66 1.34-3 2.99-3 .41 0 .8.08 1.16.23 .03.01.06.02.09.04 .01-.04.02-.07.04-.1 .15-.29.45-.49.79-.49 .49 0 .9.4.9.9v3.29c0 .49.4.9.9.9 .49 0 .9-.41.9-.9v-.9c0-2.66-2.15-4.8-4.8-4.8 -2.66 0-4.8 2.14-4.8 4.79 0 2.51 1.93 4.58 4.4 4.78Zm1.6-7.64c.16-.33.5-.55.89-.55 .55 0 1 .44 1 1v3.29c0 .44.35.8.8.8 .44 0 .79-.36.79-.8v-.9c0-2.6-2.11-4.7-4.7-4.7 -2.6 0-4.7 2.1-4.7 4.69 0 2.5 1.95 4.54 4.41 4.69l0 0c.08 0 .18 0 .27 0 .44 0 .84-.05 1.23-.16 .46-.13.99.06 1.18.52 .22.55-.03 1.22-.63 1.39 -.57.15-1.16.23-1.79.23 -3.71 0-6.7-3-6.7-6.71s2.99-6.7 6.69-6.7 6.7 2.99 6.7 6.69v.9c0 .56-.17 1.08-.46 1.52 -.05.12-.1.24-.16.36l-.11-.03c-.52.56-1.26.92-2.09.92 -.91 0-1.71-.43-2.23-1.1 -.49.31-1.07.49-1.68.49 -1.72 0-3.1-1.39-3.1-3.1 0-1.72 1.38-3.1 3.09-3.1 .42 0 .83.08 1.2.24ZM2.29 5.69c0-1.88 1.52-3.4 3.4-3.4h1.8c.55 0 1 .44 1 1 0 .55-.45 1-1 1h-1.8c-.78 0-1.4.62-1.4 1.4v12.59c0 .77.62 1.4 1.4 1.4h1.8c.55 0 1 .44 1 1 0 .55-.45 1-1 1h-1.8c-1.88 0-3.4-1.53-3.4-3.41V5.67Zm9.69 5.19c-.61 0-1.1.49-1.1 1.1 0 .6.49 1.1 1.1 1.1 .6 0 1.1-.5 1.1-1.1 0-.61-.5-1.1-1.1-1.1Zm6.3-8.6c1.87 0 3.4 1.52 3.4 3.4v12.59c0 1.87-1.53 3.4-3.41 3.4h-1.8c-.56 0-1-.45-1-1 0-.56.44-1 1-1h1.8c.77 0 1.4-.63 1.4-1.41V5.66c0-.78-.63-1.4-1.41-1.4h-1.8c-.56 0-1-.45-1-1 0-.56.44-1 1-1h1.8Zm-15.9 3.4c0-1.83 1.47-3.3 3.3-3.3h1.8c.49 0 .9.4.9.9 0 .49-.41.9-.9.9h-1.8c-.83 0-1.5.67-1.5 1.5v12.59c0 .82.67 1.5 1.5 1.5h1.8c.49 0 .9.4.9.9 0 .49-.41.89-.9.89h-1.8c-1.83 0-3.3-1.48-3.3-3.3V5.66Zm8.39 6.29c0-.67.53-1.2 1.2-1.2 .66 0 1.2.53 1.2 1.2 0 .66-.54 1.2-1.2 1.2 -.67 0-1.2-.54-1.2-1.2Zm7.5-9.6c1.82 0 3.3 1.47 3.3 3.3v12.59c0 1.82-1.48 3.3-3.3 3.3h-1.8c-.5 0-.9-.41-.9-.9 0-.5.4-.9.9-.9h1.8c.82 0 1.5-.68 1.5-1.51V5.65c0-.83-.68-1.5-1.51-1.5h-1.8c-.5 0-.9-.41-.9-.9 0-.5.4-.9.9-.9h1.8Z"/></g></svg>