<svg viewBox="0 0 24 24" xmlns="http://www.w3.org/2000/svg"><path fill="currentColor" d="M3 7c0-.56.44-1 1-1h2.75c1.06 0 2.07.42 2.82 1.17l2.94 2.94c.56.56 1.32.87 2.12.87h3.92l-3.3-3.29c-.4-.4-.4-1.03-.01-1.42 .39-.4 1.02-.4 1.41-.01l5 4.99c.18.18.29.44.29.7 0 .26-.11.51-.3.7l-5 5c-.4.39-1.03.39-1.42 0 -.4-.4-.4-1.03 0-1.42l3.29-3.3h-3.97c-.79.01-1.53.32-2.09.87L9.5 16.74c-.76.75-1.77 1.17-2.83 1.17H3.91c-.56 0-1-.45-1-1 0-.56.44-1 1-1h2.75c.53 0 1.03-.22 1.41-.59l2.94-2.95c.16-.17.34-.33.53-.47 -.19-.15-.37-.3-.54-.47L8.05 8.48c-.38-.38-.89-.59-1.42-.59H3.87c-.56 0-1-.45-1-1Z"/></svg>