<svg viewBox="0 0 24 24" xmlns="http://www.w3.org/2000/svg"><path fill="currentColor" d="M11 17.5c0 1.096.27 2.12.75 3.03l-.01.71c0 .41-.34.75-.75.75 -.38 0-.7-.29-.75-.65l-.01-.11v-2.27c-3.42-.26-6.13-3.05-6.25-6.5l-.01-.24v-.5c0-.42.33-.75.75-.75 .37 0 .69.28.74.64l0 .1v.5c0 2.827 2.23 5.13 5.03 5.24l.21 0h.25Zm.17-1.51c.48-2.04 1.92-3.71 3.82-4.5v-5.5c0-2.21-1.8-4-4-4 -2.21 0-4 1.79-4 4v6c0 2.2 1.79 4 4 4 .05 0 .11-.01.17-.01Zm8.82 1.5c0 1.38-1.12 2.5-2.5 2.5 -1.39 0-2.5-1.12-2.5-2.5 0-1.39 1.11-2.5 2.5-2.5 1.38 0 2.5 1.11 2.5 2.5Zm3 0c0 3.03-2.47 5.5-5.5 5.5 -3.04 0-5.5-2.47-5.5-5.5 0-3.04 2.46-5.5 5.5-5.5 3.03 0 5.5 2.46 5.5 5.5Zm-9.5 0c0 2.2 1.79 4 4 4 2.2 0 4-1.8 4-4 0-2.21-1.8-4-4-4 -2.21 0-4 1.79-4 4Z"/></svg>