<svg viewBox="0 0 24 24" xmlns="http://www.w3.org/2000/svg"><path fill="currentColor" d="M7 8.06v3.93c0 2.2 1.79 4 4 4 .05 0 .11-.01.17-.01 .22-.94.64-1.8 1.22-2.54l.71.71c-.71.923-1.12 2.07-1.12 3.32 0 3.03 2.46 5.5 5.5 5.5 1.25 0 2.4-.42 3.33-1.13 .29.19.68.16.94-.1 .29-.3.29-.77 0-1.07L3.25 2.16c-.3-.3-.77-.3-1.07-.01 -.3.29-.3.76-.01 1.06l4.78 4.78ZM18.14 19.2l-.18.47c-.08.19-.27.32-.48.32 -.22-.01-.4-.15-.47-.35l-.79-2.36 1.9 1.9Zm-2.35-2.35l-.34.82c-.08.18-.26.31-.47.31h-1c-.28 0-.5-.23-.5-.5 0-.28.22-.5.5-.5h.66l.36-.92 .76.76Zm-.26-4.5l7.1 7.1c.23-.61.35-1.27.35-1.96 0-3.04-2.47-5.5-5.5-5.5 -.7 0-1.36.12-1.96.35ZM7.4 4.22l7.36 7.36c.07-.04.14-.07.22-.1v-5.5c0-2.21-1.8-4-4-4 -1.58 0-2.94.9-3.59 2.23Zm3.58 13.26c0 1.09.27 2.12.75 3.03l-.01.71c0 .41-.34.75-.75.75 -.38 0-.7-.29-.75-.65l-.01-.11v-2.27c-3.42-.26-6.13-3.05-6.25-6.5l-.01-.24v-.5c0-.42.33-.75.75-.75 .37 0 .69.28.74.64l0 .1v.5c0 2.827 2.23 5.13 5.03 5.24l.21 0h.25Z"/></svg>