<svg viewBox="0 0 24 24" xmlns="http://www.w3.org/2000/svg"><path fill="currentColor" d="M3.28 2.21c-.3-.3-.77-.3-1.07-.01 -.3.29-.3.76-.01 1.06l5.78 5.78v2.93c0 2.2 1.79 4 4 4 .83 0 1.6-.26 2.24-.7l1.14 1.14c-.88.65-1.97 1.04-3.144 1.04h-.5l-.22-.01c-2.8-.12-5.04-2.42-5.04-5.25v-.5l-.01-.11c-.05-.37-.37-.65-.75-.65 -.42 0-.75.33-.75.75v.5l0 .23c.11 3.45 2.82 6.24 6.24 6.49v2.26l0 .1c.04.36.36.64.74.64 .41 0 .75-.34.75-.75l0-2.27c1.39-.11 2.67-.64 3.71-1.46l4.25 4.25c.29.29.76.29 1.06 0 .29-.3.29-.77 0-1.07L3.19 2.09ZM17.19 14l1.14 1.14c.42-.89.65-1.87.65-2.92v-.5l-.01-.11c-.05-.37-.37-.65-.75-.65 -.42 0-.75.33-.75.75v.5l-.01.21c-.03.54-.13 1.06-.3 1.54ZM8.13 4.94l7.79 7.79c.04-.25.06-.5.06-.75v-6c0-2.21-1.8-4-4-4 -1.85 0-3.41 1.25-3.87 2.95Z"/></svg>