<svg viewBox="0 0 24 24" xmlns="http://www.w3.org/2000/svg"><path fill="currentColor" d="M11 17.5c0 1.096.27 2.12.75 3.03l-.01.71c0 .41-.34.75-.75.75 -.38 0-.7-.29-.75-.65l-.01-.11v-2.27c-3.42-.26-6.13-3.05-6.25-6.5l-.01-.24v-.5c0-.42.33-.75.75-.75 .37 0 .69.28.74.64l0 .1v.5c0 2.827 2.23 5.13 5.03 5.24l.21 0h.25Zm.17-1.51c.48-2.04 1.92-3.71 3.82-4.5v-5.5c0-2.21-1.8-4-4-4 -2.21 0-4 1.79-4 4v6c0 2.2 1.79 4 4 4 .05 0 .11-.01.17-.01Zm3.1-2.03c.31 1.09-.34 2.22-1.45 2.49l-.59.14c-.05.28-.07.58-.07.88 0 .31.02.62.07.92l.53.13c1.11.26 1.77 1.41 1.45 2.51l-.19.63c.43.38.93.69 1.48.92l.49-.52c.78-.83 2.11-.83 2.89 0l.49.52c.54-.23 1.04-.54 1.48-.92l-.2-.69c-.32-1.1.33-2.23 1.44-2.5l.58-.15c.04-.29.06-.59.06-.89 0-.32-.03-.63-.08-.93l-.54-.13c-1.12-.27-1.78-1.42-1.45-2.52l.18-.64c-.44-.39-.94-.7-1.49-.93l-.5.51c-.79.82-2.12.82-2.9-.01l-.5-.53c-.55.22-1.05.53-1.49.91l.19.68Zm3.22 5.02c-.81 0-1.45-.68-1.45-1.5 0-.83.64-1.5 1.44-1.5 .8 0 1.44.67 1.44 1.5 0 .82-.65 1.5-1.45 1.5Z"/></svg>