<svg viewBox="0 0 24 24" xmlns="http://www.w3.org/2000/svg"><g fill="currentColor"><path d="M5.4 12c0-.34-.27-.6-.6-.6 -.34 0-.6.26-.6.6 0 3.44 2.63 6.26 5.99 6.57v2.42c0 .33.26.6.6.6 .33 0 .6-.27.6-.6v-.85c-.39-.84-.6-1.78-.6-2.76 -2.99 0-5.4-2.42-5.4-5.4Zm8.99-6v5.51c-1.62.82-2.85 2.29-3.35 4.07 -.09 0-.17 0-.26 0 -1.99 0-3.6-1.62-3.6-3.6v-6c0-1.99 1.61-3.6 3.6-3.6 1.98 0 3.59 1.61 3.59 3.6Zm-2.4 11.4c0 2.98 2.41 5.4 5.4 5.4 2.98 0 5.4-2.42 5.4-5.4 0-2.99-2.42-5.4-5.4-5.4 -2.99 0-5.4 2.41-5.4 5.4Zm7.8-3.6c.33 0 .6.26.6.6v1.8c0 .33-.27.6-.6.6h-1.8c-.34 0-.6-.27-.6-.6 0-.34.26-.6.6-.6h.56c-.07-.04-.13-.07-.19-.1 -.3-.14-.62-.21-.94-.21 -.33-.01-.65.05-.95.17 -.3.12-.58.3-.8.52 -.24.23-.62.23-.85 0 -.24-.24-.24-.62 0-.85 .34-.35.74-.62 1.19-.8 .44-.19.92-.27 1.41-.27 .48 0 .95.11 1.4.31 .11.05.22.1.33.17v-.19c0-.34.26-.6.59-.6Zm-1.06 6.63c-.45.18-.93.27-1.42.26 -.49-.01-.96-.12-1.41-.32 -.12-.06-.23-.11-.34-.18v.18c0 .33-.27.6-.6.6 -.34 0-.6-.27-.6-.6v-1.8c0-.34.26-.6.6-.6h1.8c.33 0 .6.26.6.6 0 .33-.27.6-.6.6h-.57c.06.03.12.06.18.09 .29.13.61.2.93.2 .32 0 .64-.06.94-.18 .29-.13.57-.31.79-.53 .23-.24.61-.24.84 0 .23.23.23.61 0 .84 -.35.34-.75.61-1.2.79Z"/><path fill="currentColor" fill-rule="evenodd" d="M10.8 2.55C8.89 2.55 7.34 4.09 7.34 6v6c0 1.9 1.54 3.45 3.44 3.45 .04 0 .09-.01.13-.01 .52-1.75 1.73-3.19 3.31-4.02V5.99c0-1.91-1.55-3.45-3.45-3.45ZM7.04 6c0-2.08 1.67-3.75 3.75-3.75 2.07 0 3.74 1.67 3.74 3.75v5.61l-.09.04c-1.58.8-2.78 2.24-3.28 3.97l-.03.1 -.11 0c-.09 0-.18 0-.27 0C8.67 15.72 7 14.04 7 11.97v-6Zm-3 6c0-.42.33-.75.75-.75 .41 0 .75.33.75.75 0 2.89 2.35 5.25 5.24 5.25h.15v.15c0 .96.21 1.87.58 2.69l.01.02v.87c0 .41-.34.75-.75.75 -.42 0-.75-.34-.75-.75v-2.3c-3.38-.38-6-3.24-6-6.71Zm.75-.45c-.25 0-.45.2-.45.45 0 3.36 2.57 6.12 5.86 6.42l.13.01v2.564c0 .24.2.45.45.45 .24 0 .45-.21.45-.45v-.82c-.37-.81-.58-1.7-.6-2.64 -3-.08-5.41-2.54-5.41-5.55 0-.25-.21-.45-.45-.45Zm7.04 5.85c0-3.07 2.48-5.55 5.55-5.55 3.06 0 5.55 2.48 5.55 5.55 0 3.06-2.49 5.55-5.55 5.55 -3.07 0-5.55-2.49-5.55-5.55Zm5.55-5.25c-2.9 0-5.25 2.35-5.25 5.25 0 2.89 2.35 5.25 5.25 5.25 2.89 0 5.25-2.36 5.25-5.25 0-2.9-2.36-5.25-5.25-5.25Zm2.4 1.8c-.25 0-.45.2-.45.45v.44l-.23-.13c-.11-.06-.22-.12-.33-.17 -.43-.19-.88-.29-1.35-.3 -.47-.01-.93.07-1.36.25 -.43.17-.82.43-1.15.75 -.18.17-.18.46 0 .63 .17.17.46.17.63 0 .24-.25.53-.44.84-.57 .31-.13.65-.2.99-.19 .34 0 .68.08.99.22 .06.03.13.06.19.09l-.08.28h-.57c-.25 0-.45.2-.45.45 0 .24.2.45.45.45h1.8c.24 0 .45-.21.45-.45v-1.8c0-.25-.21-.45-.45-.45Zm-.75.38c.03-.39.35-.69.74-.69 .41 0 .75.33.75.75v1.8c0 .41-.34.75-.75.75h-1.8c-.42 0-.75-.34-.75-.75 0-.34.22-.63.53-.72 -.12-.02-.23-.04-.35-.04 -.31-.01-.61.05-.89.16 -.29.11-.54.28-.75.49 -.3.29-.77.29-1.07 0 -.3-.3-.3-.77 0-1.07 .35-.36.78-.64 1.24-.83 .46-.19.96-.29 1.47-.28 .5 0 .99.11 1.45.32 .04.01.08.03.12.05Zm-4.06 3.81c-.25 0-.45.2-.45.45v1.8c0 .24.2.45.45.45 .24 0 .45-.21.45-.45v-.45l.22.13c.1.06.21.11.32.16 .42.18.87.28 1.34.29 .46 0 .92-.08 1.35-.26 .42-.18.81-.44 1.14-.76 .17-.18.17-.47 0-.64 -.18-.18-.47-.18-.64 0 -.25.24-.54.43-.85.56 -.32.12-.66.19-1 .18 -.35-.01-.68-.09-1-.23 -.07-.03-.14-.07-.2-.1l.07-.29h.56c.24 0 .45-.21.45-.45 0-.25-.21-.45-.45-.45h-1.8Zm-.75.45c0-.42.33-.75.75-.75h1.8c.41 0 .75.33.75.75 0 .33-.23.62-.54.71 .11.01.22.03.34.03 .3 0 .6-.06.88-.17 .28-.12.53-.29.74-.5 .29-.3.76-.3 1.06 0 .29.29.29.76 0 1.06 -.36.35-.79.63-1.25.82 -.47.18-.97.28-1.48.27 -.51-.01-1-.12-1.46-.33 -.05-.02-.09-.04-.13-.06 -.04.38-.36.68-.75.68 -.42 0-.75-.34-.75-.75v-1.8Z"/></g></svg>