<svg viewBox="0 0 24 24" xmlns="http://www.w3.org/2000/svg"><path fill="currentColor" d="M13.85 15.14c.08.08.16.17.23.26 .19.25.34.54.45.84l.44 1.37c.03.1.1.19.19.26 .09.06.2.09.31.09 .11 0 .22-.04.31-.1 .08-.06.14-.14.18-.23 0-.02 0-.03.01-.04l.44-1.38c.13-.42.37-.8.68-1.12 .31-.32.69-.55 1.11-.69l1.37-.45c.1-.04.19-.11.26-.2 .06-.1.1-.21.1-.32 0-.12-.04-.23-.1-.32 -.07-.1-.16-.17-.27-.2l-.03-.01 -1.38-.45c-.42-.14-.8-.38-1.12-.69 -.32-.32-.55-.7-.69-1.12l-.45-1.38c-.04-.11-.11-.2-.2-.27 -.1-.07-.21-.1-.32-.1 -.12 0-.23.03-.32.09 -.1.06-.17.15-.2.26l-.45 1.37c-.14.41-.37.79-.68 1.1 -.31.31-.69.54-1.1.69l-1.38.44c-.11.03-.2.1-.27.19s-.1.2-.1.31c0 .11.03.22.1.31 .06.09.15.16.26.19l1.37.44c.41.13.8.37 1.11.68Zm2.14-9.15v2.09c-.17-.07-.35-.1-.53-.1 -.32 0-.64.09-.9.28 -.27.18-.46.44-.57.74l-.01.01 -.46 1.38c-.09.26-.24.51-.44.71 -.2.19-.44.35-.71.44l-1.38.44 -.02 0c-.31.1-.57.3-.75.56 -.19.26-.29.57-.29.89 0 .31.09.63.28.89 .18.26.44.45.74.56l.01 0 1.38.44c.26.08.5.23.7.43 -.36.1-.74.16-1.14.16 -2.21 0-4-1.8-4-4v-6c0-2.21 1.79-4 4-4 2.2 0 4 1.79 4 4Zm-3.75 11.5c.54 0 1.06-.09 1.56-.24l.22.69 0 .01c.08.25.24.47.44.65 -.55.19-1.14.31-1.74.36l-.01 2.26c0 .41-.34.75-.75.75 -.38 0-.7-.29-.75-.65l-.01-.11v-2.27c-3.42-.26-6.13-3.05-6.25-6.5l-.01-.24v-.5c0-.42.33-.75.75-.75 .37 0 .69.28.74.64l0 .1v.5c0 2.827 2.23 5.13 5.03 5.24l.21 0h.5ZM22 18.95l.76.24 .01 0c.05.02.11.05.14.11 .03.05.05.11.05.17 0 .06-.02.12-.06.17 -.04.05-.09.08-.15.11l-.77.24c-.24.07-.45.2-.62.38 -.18.17-.31.38-.39.61l-.25.76c-.03.05-.06.11-.12.14 -.06.03-.12.05-.18.05 -.07 0-.13-.02-.18-.06 -.06-.04-.09-.09-.12-.15l-.25-.77c-.08-.24-.21-.45-.39-.62 -.18-.18-.39-.31-.62-.39l-.77-.25c-.06-.03-.12-.06-.15-.12 -.04-.06-.06-.12-.06-.18 0-.07.01-.13.05-.18 .03-.06.08-.09.14-.12l.76-.25c.22-.08.43-.22.6-.39 .17-.18.29-.39.37-.62l.24-.77c.02-.06.05-.11.11-.15 .05-.04.11-.06.17-.06 .06 0 .12.01.17.05 .05.03.08.08.11.14l.24.76c.07.23.2.44.38.61 .17.17.38.3.61.38Z"/></svg>