<svg viewBox="0 0 24 24" xmlns="http://www.w3.org/2000/svg"><path fill="currentColor" d="M8 2.75c0-.42.33-.75.75-.75h1.5c.41 0 .75.33.75.75V3h1.25c.41 0 .75.33.75.75v1.78s.01 0 .02 0c2.11.19 4.06 1.2 5.45 2.8 1.39 1.6 2.11 3.67 2.01 5.79 -.1 2.11-1.02 4.11-2.55 5.58 -.3.28-.62.54-.96.78h3.25c.41 0 .75.33.75.75 0 .41-.34.75-.75.75h-7.98c-.01 0-.02 0-.03 0 -.01 0-.01-.01-.01-.01H3.7c-.42 0-.75-.34-.75-.75 0-.42.33-.75.75-.75h8.52c1.72-.01 3.38-.68 4.63-1.87 1.25-1.2 2-2.84 2.08-4.57 .08-1.74-.51-3.44-1.65-4.75 -1.12-1.29-2.67-2.1-4.35-2.29v5.2c0 .41-.34.75-.75.75h-.75v1c0 1.1-.9 2-2 2 -1.11 0-2-.9-2-2v-1h-.75c-.42 0-.75-.34-.75-.75v-8.5c0-.42.33-.75.75-.75h1.25v-.25ZM9 13v1c0 .27.22.5.5.5 .27 0 .5-.23.5-.5v-1H9Zm-3.25 4.5c-.42 0-.75.33-.75.75 0 .41.33.75.75.75h7.5c.41 0 .75-.34.75-.75 0-.42-.34-.75-.75-.75h-7.5Z"/></svg>