<svg viewBox="0 0 24 24" xmlns="http://www.w3.org/2000/svg"><path fill="currentColor" d="M21.25 4c.37 0 .69.28.74.64l0 .1v14.49c0 .37-.29.69-.65.74l-.11 0H2.73c-.38 0-.7-.29-.75-.65l-.01-.11V4.71c0-.38.28-.7.64-.75l.1-.01h18.5ZM6 12H3.5v6.49h17v-6.5H18v4.24c0 .41-.34.75-.75.75 -.38 0-.7-.29-.75-.65l-.01-.11v-4.25h-2v4.24c0 .41-.34.75-.75.75 -.38 0-.7-.29-.75-.65l-.01-.11v-4.25h-2v4.24c0 .41-.34.75-.75.75 -.38 0-.7-.29-.75-.65l-.01-.11v-4.25h-2v4.24c0 .41-.34.75-.75.75 -.38 0-.7-.29-.75-.65l-.01-.11v-4.25Zm11.25-4.51h-2.5l-.11 0c-.37.04-.65.36-.65.74 0 .37.28.69.64.74l.1 0h2.5l.1-.01c.36-.05.64-.37.64-.75 0-.42-.34-.75-.75-.75Zm-11-.01c-.42 0-.75.33-.75.75 0 .41.33.75.75.75 .41 0 .75-.34.75-.75 0-.42-.34-.75-.75-.75Zm3 0c-.42 0-.75.33-.75.75 0 .41.33.75.75.75 .41 0 .75-.34.75-.75 0-.42-.34-.75-.75-.75Z"/></svg>