<svg viewBox="0 0 24 24" xmlns="http://www.w3.org/2000/svg"><path fill="currentColor" d="M19.25 18.5h2c.41 0 .75.33.75.75 0 .37-.29.69-.65.74l-.11 0h-1.25v1.25c0 .41-.34.75-.75.75 -.38 0-.7-.29-.75-.65l-.01-.11v-2c0-.38.28-.7.64-.75l.1-.01h2 -2Zm-16.5 0h2c.37 0 .69.28.74.64l0 .1v2c0 .41-.34.75-.75.75 -.38 0-.7-.29-.75-.65l-.01-.11v-1.25H2.73c-.42 0-.75-.34-.75-.75 0-.38.28-.7.64-.75l.1-.01h2 -2Zm14-13c.41 0 .75.33.75.75v11.49c0 .41-.34.75-.75.75h-9.5c-.42 0-.75-.34-.75-.75V6.24c0-.42.33-.75.75-.75h9.49Zm-4.5 7.01H9.74l-.11 0c-.37.04-.65.36-.65.74 0 .37.28.69.64.74l.1 0h2.5l.1-.01c.36-.05.64-.37.64-.75 0-.42-.34-.75-.75-.75Zm2-3.02H9.74l-.11 0c-.37.04-.65.36-.65.74 0 .37.28.69.64.74l.1 0h4.5l.1-.01c.36-.05.64-.37.64-.75 0-.42-.34-.75-.75-.75Zm-9.51-7.5c.37 0 .69.28.74.64l0 .1v2c0 .37-.29.69-.65.74l-.11 0h-2c-.42 0-.75-.34-.75-.75 0-.38.28-.7.64-.75l.1-.01h1.25V2.71c0-.42.33-.75.75-.75Zm14.5 0c.37 0 .69.28.74.64l0 .1v1.25h1.25c.41 0 .75.33.75.75 0 .37-.29.69-.65.74l-.11 0h-2c-.38 0-.7-.29-.75-.65l-.01-.11v-2c0-.42.33-.75.75-.75Z"/></svg>