<svg viewBox="0 0 24 24" xmlns="http://www.w3.org/2000/svg"><path fill="currentColor" d="M16.25 2.25c0-.42-.34-.75-.75-.75 -.42 0-.75.33-.75.75v1.82c-.86.15-1.67.56-2.33 1.22l-.79.78 -1.37-1.37c-.3-.3-.77-.3-1.07 0 -.3.29-.3.76 0 1.06l1.36 1.36 -3.44 3.43 -1.37-1.37c-.3-.3-.77-.3-1.07 0 -.3.29-.3.76 0 1.06l1.36 1.36 -.78.77c-.67.66-1.07 1.47-1.23 2.33H2.19c-.42 0-.75.33-.75.75 0 .41.33.75.75.75h1.8c.1.66.35 1.3.76 1.87l-1.6 1.59c-.3.29-.3.76 0 1.06 .29.29.76.29 1.06 0l1.59-1.6c.56.4 1.21.65 1.87.76v1.8c0 .41.33.75.75.75 .41 0 .75-.34.75-.75v-1.83c.85-.16 1.67-.57 2.33-1.23l.77-.78 1.35 1.35c.29.29.76.29 1.06 0 .29-.3.29-.77 0-1.07l-1.36-1.36 3.43-3.44 1.35 1.35c.29.29.76.29 1.06 0 .29-.3.29-.77 0-1.07l-1.36-1.36 .78-.79c.66-.67 1.06-1.48 1.22-2.34h1.82c.41 0 .75-.34.75-.75 0-.42-.34-.75-.75-.75h-1.81c-.11-.67-.36-1.31-.77-1.88l1.59-1.6c.29-.3.29-.77 0-1.07 -.3-.3-.77-.3-1.07 0l-1.6 1.59c-.57-.41-1.22-.66-1.88-.77V2.07ZM8.49 16.5c-.56 0-1-.45-1-1 0-.56.44-1 1-1 .55 0 1 .44 1 1 0 .55-.45 1-1 1Zm7.99-8.01c0 .55-.45 1-1 1 -.56 0-1-.45-1-1 0-.56.44-1 1-1 .55 0 1 .44 1 1Z"/></svg>