<svg viewBox="0 0 24 24" xmlns="http://www.w3.org/2000/svg"><path fill="currentColor" d="M6.24 2C4.99 2 3.99 3 3.99 4.25v15.5c0 1.24 1 2.25 2.25 2.25h7.5c1.23 0 2.23-1 2.24-2.23l0-.03v-1.5c0-.42-.34-.75-.75-.75 -.46 0-.74-.13-.94-.29 -.21-.17-.38-.43-.52-.79 -.28-.76-.31-1.76-.31-2.69 -.01-.19-.08-.38-.21-.52 -.08-.09-.13-.14-.17-.18 -.1-.1-.1-.11-.18-.18 -.08-.07-.3-.29-1.19-1.17 -.47-.47-.73-.87-.82-1.17 -.04-.14-.04-.25-.02-.33 .02-.09.07-.2.2-.33 .13-.14.23-.19.32-.21 .08-.03.18-.03.32.01 .3.08.69.34 1.16.81 .53.53 1.05 1.04 1.51 1.5 .75.75 1.37 1.35 1.72 1.73 .28.3.75.31 1.06.03 .3-.29.31-.76.03-1.06 -.29-.31-.75-.77-1.3-1.32V7.96l2.84 2.84c.42.42.65.99.65 1.59v8.75c0 .41.33.75.75.75 .41 0 .75-.34.75-.75v-8.76c0-1-.4-1.95-1.1-2.66l-3.91-3.91V4.121c-.01-1.25-1.01-2.25-2.25-2.25H6.11Zm7.12 16.38c.32.25.69.43 1.12.53v.07h-.75c-.42 0-.75.33-.75.75v.75h-1.5v-.75c0-.9.52-1.67 1.27-2.03 .16.24.35.47.59.66Zm-1.38-4.35c0 .25 0 .52.02.8 -.58.4-1.27.64-2.03.64 -1.94 0-3.5-1.57-3.5-3.5 0-1.94 1.56-3.5 3.5-3.5 .16 0 .31.01.47.03 -.14.08-.26.19-.38.31 -.3.29-.5.63-.6 1.01 -.1.37-.08.75.02 1.1 .18.67.66 1.29 1.19 1.82 .88.88 1.12 1.11 1.21 1.19 0 0 .01 0 .01.01 0 0 0 0 0 0l0 0s.01.01.03.03l0 0ZM6.97 3.48h1.5v.74c0 1.24-1.01 2.25-2.25 2.25h-.76v-1.5h.75c.41 0 .75-.34.75-.75v-.75Zm4.5 0h1.5v.74c0 .41.33.75.75.75h.74v1.5h-.75c-1.25 0-2.25-1.01-2.25-2.25v-.75Zm-3 17h-1.5v-.75c0-.42-.34-.75-.75-.75h-.76v-1.5h.75c1.24 0 2.25 1 2.25 2.25v.75Z"/></svg>