<svg viewBox="0 0 24 24" xmlns="http://www.w3.org/2000/svg"><path fill="currentColor" d="M2 6.75C2 5.78 2.78 5 3.75 5h13.5c.96 0 1.75.78 1.75 1.75v4.42c-.49-.12-.99-.18-1.5-.18 -3.43 0-6.23 2.64-6.49 6H3.74c-.97 0-1.75-.79-1.75-1.75v-8.5Zm3 .5c0 .41-.34.75-.75.75h-1v1.5h1c1.24 0 2.25-1.01 2.25-2.25v-1H5v1Zm5.5 6.25c1.24 0 2.25-1.01 2.25-2.25C12.75 10 11.74 9 10.5 9c-1.25 0-2.25 1-2.25 2.25 0 1.24 1 2.25 2.25 2.25Zm-6.25.5c.41 0 .75.33.75.75v1h1.5v-1c0-1.25-1.01-2.25-2.25-2.25h-1V14h1Zm12.5-6c-.42 0-.75-.34-.75-.75v-1h-1.5v1c0 1.24 1 2.25 2.25 2.25h1V8h-1ZM4.4 18.5h6.67c.08.52.22 1.02.42 1.5h-4.5c-1.12 0-2.08-.61-2.6-1.5Zm16.09-6.77c.55.28 1.05.65 1.5 1.07V9.99c0-1.12-.61-2.08-1.5-2.6v4.33Zm2.5 5.76c0 3.03-2.47 5.5-5.5 5.5 -3.04 0-5.5-2.47-5.5-5.5 0-3.04 2.46-5.5 5.5-5.5 3.03 0 5.5 2.46 5.5 5.5Zm-7.15-2.36c-.2-.2-.52-.2-.71 0 -.2.19-.2.51 0 .7l1.64 1.64 -1.65 1.64c-.2.19-.2.51 0 .7 .19.19.51.19.7 0l1.64-1.65 1.64 1.64c.19.19.51.19.7 0 .19-.2.19-.52 0-.71l-1.65-1.65 1.64-1.65c.19-.2.19-.52 0-.71 -.2-.2-.52-.2-.71 0l-1.65 1.64 -1.65-1.65Z"/></svg>