<svg viewBox="0 0 24 24" xmlns="http://www.w3.org/2000/svg"><path fill="currentColor" d="M3.28 2.21c-.3-.3-.77-.3-1.07 0 -.3.29-.3.76 0 1.06l1.71 1.71h-.19c-.97 0-1.75.78-1.75 1.75v8.5c0 .96.78 1.75 1.75 1.75h12.18l1.49 1.49c-.07 0-.13 0-.19 0H4.36c.51.89 1.48 1.5 2.59 1.5H17.2c.5 0 1-.09 1.46-.23l2 2c.29.29.76.29 1.06 0 .29-.3.29-.77 0-1.07L3.22 2.16Zm8.64 10.76c-.39.31-.89.51-1.43.51 -1.25 0-2.25-1.01-2.25-2.25 0-.55.19-1.04.51-1.43l3.16 3.16ZM5.18 6.23l1.29 1.29c-.15 1.1-1.09 1.95-2.24 1.95h-1v-1.5h1c.41 0 .75-.34.75-.75v-1h.18Zm-.94 7.75h-1v-1.5h1c1.24 0 2.25 1 2.25 2.25v1h-1.5v-1c0-.42-.34-.75-.75-.75Zm13.5 0h-.57l1.74 1.74c.04-.16.07-.33.07-.5v-8.5c0-.97-.79-1.75-1.75-1.75H8.16l7.68 7.68c.27-.12.57-.19.88-.19h1v1.5Zm-1.75-7.75v1c0 .41.33.75.75.75h1v1.5h-1c-1.25 0-2.25-1.01-2.25-2.25v-1h1.5Zm4.06 10.631l1.08 1.08c.53-.77.85-1.71.85-2.72V9.97c0-1.12-.61-2.08-1.5-2.6v7.84c0 .59-.16 1.15-.44 1.63Z"/></svg>