<svg viewBox="0 0 24 24" xmlns="http://www.w3.org/2000/svg"><path fill="currentColor" d="M2 6.75C2 5.78 2.78 5 3.75 5h13.5c.96 0 1.75.78 1.75 1.75v8.5c0 .96-.79 1.75-1.75 1.75H3.75C2.78 17 2 16.21 2 15.25v-8.5Zm3-.5v1c0 .41-.34.75-.75.75h-1v1.5h1c1.24 0 2.25-1.01 2.25-2.25v-1H5Zm5.5 7.25c1.24 0 2.25-1.01 2.25-2.25C12.75 10 11.74 9 10.5 9c-1.25 0-2.25 1-2.25 2.25 0 1.24 1 2.25 2.25 2.25Zm-7.25.5h1c.41 0 .75.33.75.75v1h1.5v-1c0-1.25-1.01-2.25-2.25-2.25h-1V14Zm12.75.75c0-.42.33-.75.75-.75h1v-1.5h-1c-1.25 0-2.25 1-2.25 2.25v1H16v-1Zm0-7.5v-1h-1.5v1c0 1.24 1 2.25 2.25 2.25h1V8h-1c-.42 0-.75-.34-.75-.75ZM4.4 18.5c.51.89 1.48 1.5 2.59 1.5h10.25c2.62 0 4.75-2.13 4.75-4.75V10c0-1.12-.61-2.08-1.5-2.6v7.84c0 1.79-1.46 3.25-3.25 3.25H4.39Z"/></svg>