<svg viewBox="0 0 24 24" xmlns="http://www.w3.org/2000/svg"><path fill="currentColor" d="M2 6.75C2 5.78 2.78 5 3.75 5h13.5c.96 0 1.75.78 1.75 1.75v4.42c-.49-.12-.99-.18-1.5-.18 -3.43 0-6.23 2.64-6.49 6H3.74c-.97 0-1.75-.79-1.75-1.75v-8.5ZM4.4 18.5h6.67c.08.52.22 1.02.42 1.5h-4.5c-1.12 0-2.08-.61-2.6-1.5Zm16.09-6.77c.55.28 1.05.65 1.5 1.07V9.99c0-1.12-.61-2.08-1.5-2.6v4.33ZM4.99 7.24c0 .41-.34.75-.75.75h-1v1.5h1c1.24 0 2.25-1.01 2.25-2.25v-1h-1.5v1Zm5.5 6.25c1.24 0 2.25-1.01 2.25-2.25 0-1.25-1.01-2.25-2.25-2.25 -1.25 0-2.25 1-2.25 2.25 0 1.24 1 2.25 2.25 2.25Zm-6.25.5c.41 0 .75.33.75.75v1h1.5v-1c0-1.25-1.01-2.25-2.25-2.25h-1v1.5h1Zm12.5-6c-.42 0-.75-.34-.75-.75v-1h-1.5v1c0 1.24 1 2.25 2.25 2.25h1v-1.5h-1Zm-2.48 5.97c.31 1.09-.34 2.22-1.45 2.49l-.59.14c-.05.28-.07.58-.07.88 0 .31.02.62.07.92l.53.12c1.11.26 1.77 1.41 1.45 2.51l-.19.63c.43.38.93.69 1.48.92l.49-.52c.78-.83 2.11-.83 2.89 0l.49.52c.54-.23 1.04-.54 1.48-.92l-.2-.69c-.32-1.1.33-2.23 1.44-2.5l.58-.15c.04-.29.06-.59.06-.89 0-.32-.03-.63-.08-.93l-.54-.13c-1.12-.27-1.78-1.42-1.45-2.52l.18-.64c-.44-.39-.94-.7-1.49-.93l-.5.51c-.79.82-2.12.82-2.9-.01l-.5-.53c-.55.22-1.05.53-1.49.91l.19.68Zm3.22 5.02c-.81 0-1.45-.68-1.45-1.5 0-.83.64-1.5 1.44-1.5 .8 0 1.44.67 1.44 1.5 0 .82-.65 1.5-1.45 1.5Z"/></svg>