<svg viewBox="0 0 24 24" xmlns="http://www.w3.org/2000/svg"><path fill="currentColor" d="M2 5.75C2 4.78 2.78 4 3.75 4h13.5c.96 0 1.75.78 1.75 1.75V11h-3c-1.11 0-2 .89-2 2v3H3.75C2.78 16 2 15.21 2 14.25v-8.5Zm3 .5c0 .41-.34.75-.75.75h-1v1.5h1c1.24 0 2.25-1.01 2.25-2.25v-1H5v1Zm5.5 6.25c1.24 0 2.25-1.01 2.25-2.25C12.75 9 11.74 8 10.5 8c-1.25 0-2.25 1-2.25 2.25 0 1.24 1 2.25 2.25 2.25Zm-6.25.5c.41 0 .75.33.75.75v1h1.5v-1c0-1.25-1.01-2.25-2.25-2.25h-1V13h1Zm12.5-6c-.42 0-.75-.34-.75-.75v-1h-1.5v1c0 1.24 1 2.25 2.25 2.25h1V7h-1ZM4.4 17.5h9.59V19h-7c-1.12 0-2.08-.61-2.6-1.5ZM21.99 9v2h-1.5V6.4c.89.51 1.5 1.48 1.5 2.59Zm-5.5 3c-.83 0-1.5.67-1.5 1.5v8c0 .82.67 1.5 1.5 1.5h4.99c.82 0 1.5-.68 1.5-1.5v-8c0-.83-.68-1.5-1.5-1.5h-5Zm.5 4.5h.99c.27 0 .5.22.5.5 0 .27-.23.5-.5.5h-1c-.28 0-.5-.23-.5-.5 0-.28.22-.5.5-.5Zm3 0h1c.27 0 .5.22.5.5 0 .27-.23.5-.5.5h-1c-.28 0-.5-.23-.5-.5 0-.28.22-.5.5-.5Zm-3 2h.99c.27 0 .5.22.5.5 0 .27-.23.5-.5.5h-1c-.28 0-.5-.23-.5-.5 0-.28.22-.5.5-.5Zm3 0h1c.27 0 .5.22.5.5 0 .27-.23.5-.5.5h-1c-.28 0-.5-.23-.5-.5 0-.28.22-.5.5-.5Zm-3 2h.99c.27 0 .5.22.5.5 0 .27-.23.5-.5.5h-1c-.28 0-.5-.23-.5-.5 0-.28.22-.5.5-.5Zm3 0h1c.27 0 .5.22.5.5 0 .27-.23.5-.5.5h-1c-.28 0-.5-.23-.5-.5 0-.28.22-.5.5-.5Zm-3.51-6.51c0-.28.22-.5.5-.5h4c.27 0 .5.22.5.5v1c0 .27-.23.5-.5.5h-4c-.28 0-.5-.23-.5-.5v-1Z"/></svg>