<svg viewBox="0 0 24 24" xmlns="http://www.w3.org/2000/svg"><path fill="currentColor" d="M13.91 2.85c-1.07-1.04-2.76-1.04-3.83 0l-7.1 6.87c-.64.61-.99 1.45-.99 2.33v6.69c0 1.24 1 2.25 2.25 2.25h6.04c-.43-.58-.94-1.3-1.36-2.03 -.25-.42-.47-.86-.64-1.29 -.17-.42-.3-.89-.3-1.35 0-1.09.43-2.16 1.12-2.95 .68-.8 1.69-1.4 2.87-1.4 1.18 0 2.19.59 2.87 1.39 .68.79 1.12 1.85 1.12 2.94 0 .46-.14.93-.3 1.34 -.17.42-.4.86-.64 1.28 -.43.73-.94 1.45-1.36 2.03h6.04c1.24 0 2.25-1.01 2.25-2.25V12c0-.89-.36-1.73-.99-2.34l-7.1-6.88Zm-2.79 1.07c.48-.47 1.25-.47 1.73 0l3.45 3.34c-.72.08-1.39.25-2.03.46 -.69.22-1.39.51-2.05.78 -.39.15-.76.31-1.11.44 -.99.37-1.88.61-2.79.58 -.72-.03-1.47-.22-2.31-.72l5.05-4.9Zm.13 16.69c.17.23.42.35.68.36 .03 0 .07 0 .1 0 .25-.02.5-.14.68-.37 .88-1.18 2.26-3.17 2.26-4.29 0-1.66-1.35-3.35-3-3.35 -1.66 0-3 1.68-3 3.34 0 1.12 1.37 3.11 2.26 4.28Zm2.23-4.64c0 .82-.68 1.5-1.5 1.5 -.83 0-1.5-.68-1.5-1.5 0-.83.67-1.5 1.5-1.5 .82 0 1.5.67 1.5 1.5Z"/></svg>