<svg viewBox="0 0 24 24" xmlns="http://www.w3.org/2000/svg"><path fill="currentColor" d="M15 4.34c0 1.12-1.38 3.11-2.27 4.28 -.38.49-1.1.49-1.48 0 -.34-.44-.74-1-1.11-1.58 -.06-.09-.11-.17-.16-.26 -.56-.9-1-1.83-1-2.47 0-1.66 1.34-3.35 3-3.35 1.65 0 3 1.68 3 3.34Zm-3.88.87s0 0 0 0c.24.17.54.27.87.27 .32 0 .62-.11.87-.28 0 0 0 0 0 0 .38-.28.62-.72.62-1.23 0-.83-.68-1.5-1.5-1.5 -.83 0-1.5.67-1.5 1.5 0 .5.24.94.62 1.22Zm-5.06 6.6l3.68-3.57c-.29-.41-.57-.85-.83-1.29L2.96 12.7c-.64.61-.99 1.45-.99 2.33v3.69c0 1.24 1 2.25 2.25 2.25h15.5c1.24 0 2.25-1.01 2.25-2.25v-3.7c0-.89-.36-1.73-.99-2.34l-5.95-5.76c-.26.44-.55.88-.83 1.28l2.08 2.01c-.72.08-1.39.25-2.02.46 -.69.22-1.39.51-2.05.78 -.39.15-.76.31-1.11.44 -.99.37-1.88.61-2.79.58 -.72-.03-1.47-.22-2.31-.72Z"/></svg>