<svg viewBox="0 0 24 24" xmlns="http://www.w3.org/2000/svg"><path fill="currentColor" d="M10.08 2.85c1.06-1.04 2.75-1.04 3.82 0l7.09 6.87c.63.61.98 1.45.98 2.33v6.69c0 1.24-1.01 2.25-2.25 2.25h-1.07l-.06-.02c-.1-.03-.23-.06-.41-.1 -.35-.09-.85-.22-1.44-.38 -1.2-.33-2.79-.8-4.37-1.36 -1.6-.57-3.15-1.22-4.29-1.91 -.58-.35-1.01-.68-1.29-.99 -.29-.32-.36-.54-.36-.67 0-.32.19-.65 1.02-.99 .79-.34 1.91-.54 3.13-.73 .22-.04.46-.08.69-.11 .97-.15 1.97-.3 2.79-.51 .5-.14 1-.31 1.4-.55 .4-.24.79-.61.93-1.15 .15-.62-.1-1.16-.42-1.55 -.32-.39-.77-.73-1.24-1.04 -.68-.44-1.54-.88-2.39-1.31 -.33-.17-.65-.34-.96-.5 -1.18-.62-2.14-1.21-2.65-1.79 -.25-.28-.33-.5-.34-.65 -.01-.15.03-.37.3-.69 0-.01.01-.02.02-.03l1.24-1.21ZM7.2 5.63L2.97 9.72c-.64.61-.99 1.45-.99 2.33v6.69c0 1.24 1 2.25 2.25 2.25h8.94c-.42-.14-.85-.29-1.27-.44 -1.63-.58-3.29-1.27-4.56-2.03 -.64-.39-1.21-.81-1.63-1.26 -.42-.46-.75-1.03-.75-1.68 0-1.27.98-1.98 1.94-2.38 .98-.41 2.27-.64 3.47-.83 .25-.04.5-.08.74-.12 .96-.15 1.86-.29 2.59-.48 .45-.12.79-.25 1.01-.38 .22-.14.24-.22.24-.23 0-.01 0-.02-.01-.05 -.02-.04-.05-.1-.12-.2 -.17-.2-.45-.44-.88-.72 -.61-.4-1.37-.78-2.19-1.2 -.35-.18-.7-.36-1.05-.55 -1.15-.61-2.35-1.31-3.07-2.13 -.21-.23-.39-.49-.51-.78Z"/></svg>