<svg viewBox="0 0 24 24" xmlns="http://www.w3.org/2000/svg"><path fill="currentColor" d="M19.72 3.87l.05.15 .55 1.92c.1.36-.08.74-.42.89l-.1.03L9.07 9.93l11.15 0c.37 0 .69.28.74.64l0 .1v8.49c0 1.46-1.15 2.65-2.59 2.74l-.17 0H5.7c-1.47 0-2.66-1.15-2.75-2.59l-.01-.17 -.01-8.4 -.53-1.83c-.41-1.41.36-2.88 1.72-3.36l.15-.06 12.01-3.45c1.4-.41 2.87.36 3.35 1.72ZM6.26 6.6l-1.5.42c-.63.17-1 .79-.89 1.42l.02.12 .34 1.2 .29-.09 1.71-3.1Zm4.75-1.37L8.29 6 6.57 9.09l2.71-.78 1.71-3.1Zm4.75-1.37l-2.72.77 -1.72 3.09 2.71-.78 1.71-3.1Zm1.84-.24l-1.53 2.73 2.56-.74 -.35-1.21c-.11-.38-.38-.66-.71-.81Z"/></svg>