<svg viewBox="0 0 24 24" xmlns="http://www.w3.org/2000/svg"><path fill="currentColor" d="M6 7.9c0-.45-.3-.85-.73-.97 -.44-.13-.9.05-1.13.44 -.03.04-.05.08-.08.12 -.41.66-.85 1.39-2.09 2.14 -.48.28-.63.89-.35 1.37 .28.47.89.62 1.37.34 .37-.23.7-.46.98-.69v5.32c0 .55.44 1 1 1 .55 0 .99-.45.99-1.01v-8.1Zm4.99-.91c-.5 0-.92.36-.99.85l-.51 3.5c-.05.31.06.63.28.85 .22.22.54.32.85.27l1.82-.29c.93-.15 1.77.57 1.77 1.51 0 .84-.69 1.53-1.54 1.53h-.28c-.44 0-.87-.17-1.2-.46l-.34-.3c-.42-.37-1.05-.33-1.42.08 -.37.41-.33 1.04.08 1.41l.33.29c.69.61 1.59.95 2.51.95h.27c1.95 0 3.53-1.59 3.53-3.54 0-2.18-1.95-3.84-4.09-3.5l-.49.07 .18-1.31h3.13c.55 0 1-.45 1-1.01s-.45-1.01-1-1.01h-4Zm7.7 5.29c-.4-.4-1.03-.4-1.42 0 -.4.39-.4 1.02 0 1.41l.79.79 -.8.79c-.4.39-.4 1.02 0 1.41 .39.39 1.02.39 1.41 0l.79-.8 .79.79c.39.39 1.02.39 1.41 0 .39-.4.39-1.03 0-1.42l-.8-.8 .79-.8c.39-.4.39-1.03 0-1.42 -.4-.4-1.03-.4-1.42 0l-.8.79 -.8-.8ZM8.48 16.23c0 .41-.34.75-.75.75 -.42 0-.75-.34-.75-.76s.33-.76.75-.76c.41 0 .75.33.75.75Z"/></svg>