<svg viewBox="0 0 24 24" xmlns="http://www.w3.org/2000/svg"><path fill="currentColor" d="M10 7.9c0-.45-.3-.85-.74-.97 -.44-.13-.9.05-1.13.44 -.03.04-.05.08-.08.12 -.41.66-.85 1.39-2.09 2.14 -.48.28-.63.89-.35 1.37 .28.47.89.62 1.37.34 .37-.23.7-.46.98-.69v5.32c0 .55.44 1 1 1 .55 0 .99-.45.99-1.01v-8.1Zm3.7 4.39c-.4-.4-1.03-.4-1.42 0 -.4.39-.4 1.02 0 1.41l.79.79 -.8.79c-.4.39-.4 1.02 0 1.41 .39.39 1.02.39 1.41 0l.79-.8 .79.79c.39.39 1.02.39 1.41 0 .39-.4.39-1.03 0-1.42l-.8-.8 .79-.8c.39-.4.39-1.03 0-1.42 -.4-.4-1.03-.4-1.42 0l-.8.79 -.8-.8Z"/></svg>