<svg viewBox="0 0 24 24" xmlns="http://www.w3.org/2000/svg"><path fill="currentColor" d="M7.01 7.85c.07-.5.49-.86.98-.86h3.99c.55 0 1 .44 1 1 0 .55-.45 1-1 1H8.84l-.19 1.3 .34-.06c2.21-.35 4.21 1.36 4.21 3.6 0 2.02-1.67 3.64-3.67 3.64 -1.04 0-2.04-.44-2.74-1.21l-.34-.38c-.38-.41-.35-1.05.06-1.42 .4-.38 1.04-.35 1.41.06l.33.37c.31.34.77.55 1.25.55 .92 0 1.66-.75 1.66-1.65 0-1.02-.91-1.79-1.91-1.63l-1.69.26c-.32.04-.64-.06-.86-.28 -.23-.23-.34-.54-.29-.86l.5-3.51Zm7.28 4.43c.39-.4 1.02-.4 1.41 0l.79.79 .79-.8c.39-.4 1.02-.4 1.41 0 .39.39.39 1.02 0 1.41l-.8.79 .79.79c.39.39.39 1.02 0 1.41 -.4.39-1.03.39-1.42 0l-.8-.8 -.8.79c-.4.39-1.03.39-1.42 0 -.4-.4-.4-1.03 0-1.42l.79-.8 -.8-.8c-.4-.4-.4-1.03 0-1.42Zm-9.55 4.7c.41 0 .75-.34.75-.75 0-.42-.34-.75-.75-.75 -.42 0-.75.33-.75.75 0 .41.33.75.75.75Z"/></svg>