<svg viewBox="0 0 24 24" xmlns="http://www.w3.org/2000/svg"><path fill="currentColor" d="M7.48 9.67c-.1.53-.61.9-1.15.81 -.55-.09-.92-.6-.84-1.15 -.04.18 0-.01 0-.01l0-.01 0-.01 0-.01 0-.02c0-.01 0-.03 0-.04 0-.03.01-.06.02-.1 .01-.08.04-.18.08-.3 .08-.24.22-.55.46-.87 .5-.68 1.38-1.28 2.75-1.28 1.12 0 2.14.35 2.79 1.18 .64.81.77 1.88.58 2.98 -.18 1.01-.74 1.64-1.41 2.05 -.45.26-1 .46-1.44.62 -.13.04-.24.08-.34.12 -.53.2-.88.39-1.12.67 -.12.13-.24.32-.32.6h3.62c.55 0 .99.44.99 1 0 .55-.45 1-1 1H6.4c-.27 0-.52-.11-.71-.3 -.19-.19-.3-.45-.3-.71 0-1.26.31-2.2.91-2.91 .57-.69 1.32-1.02 1.92-1.25 .2-.08.38-.15.54-.21 .37-.14.64-.24.9-.39 .26-.17.41-.34.47-.69 .13-.76-.02-1.19-.19-1.41 -.17-.21-.51-.43-1.23-.43 -.71 0-1.01.27-1.16.47 -.09.11-.15.24-.18.33 -.02.04-.03.08-.04.09l-.01.01Zm0-.01l0-.02 -.01 0 -.01 0 -.01 0 -.01 0Zm-.01 0l0-.01 -.01 0 0-.01Zm7.22 2.61c-.4-.4-1.03-.4-1.42 0 -.4.39-.4 1.02 0 1.41l.79.79 -.8.79c-.4.39-.4 1.02 0 1.41 .39.39 1.02.39 1.41 0l.79-.8 .79.79c.39.39 1.02.39 1.41 0 .39-.4.39-1.03 0-1.42l-.8-.8 .79-.8c.39-.4.39-1.03 0-1.42 -.4-.4-1.03-.4-1.42 0l-.8.79 -.8-.8Z"/></svg>