<svg viewBox="0 0 24 24" xmlns="http://www.w3.org/2000/svg"><path fill="currentColor" d="M21.7 3.29c-.4-.4-1.03-.4-1.42 0l-1.3 1.29 -.3-.3c-.4-.4-1.03-.4-1.42 0 -.4.39-.4 1.02 0 1.41l1 1c.39.39 1.02.39 1.41 0l2-2c.39-.4.39-1.03 0-1.42ZM2.99 16.99h11c.55 0 1 .44 1 1 0 .51-.39.93-.89.99l-.12 0H2.97c-.56 0-1-.45-1-1 0-.52.38-.94.88-1l.11-.01Zm0-6h11c.55 0 1 .44 1 1 0 .51-.39.93-.89.99l-.12 0H2.97c-.56 0-1-.45-1-1 0-.52.38-.94.88-1l.11-.01Zm0-6h11c.55 0 1 .44 1 1 0 .51-.39.93-.89.99l-.12 0H2.97c-.56 0-1-.45-1-1 0-.52.38-.94.88-1l.11-.01Zm17.29 11.29c.39-.4 1.02-.4 1.41 0 .39.39.39 1.02 0 1.41l-2 2c-.4.39-1.03.39-1.42 0l-1-1c-.4-.4-.4-1.03 0-1.42 .39-.4 1.02-.4 1.41 0l.29.29 1.29-1.3Z"/></svg>