<svg viewBox="0 0 24 24" xmlns="http://www.w3.org/2000/svg"><path fill="currentColor" d="M16 9.5c0 .65-.24 1.23-.63 1.68 .68.63 1.12 1.55 1.12 2.56 0 1.93-1.57 3.5-3.5 3.5 -1.94 0-3.5-1.57-3.5-3.5 0-1.02.43-1.93 1.12-2.57 -.39-.46-.63-1.03-.63-1.69 0-1.65 1.47-2.75 3-2.75 1.52 0 3 1.1 3 2.75Zm-3-.75c-.69 0-1 .45-1 .75 0 .29.31.75 1 .75 .68 0 1-.46 1-.75 0-.3-.32-.75-1-.75Zm-1.5 5c0 .82.67 1.5 1.5 1.5 .82 0 1.5-.68 1.5-1.5 0-.83-.68-1.5-1.5-1.5 -.83 0-1.5.67-1.5 1.5ZM7.75 17c.41 0 .75-.34.75-.75 0-.42-.34-.75-.75-.75 -.42 0-.75.33-.75.75 0 .41.33.75.75.75Zm9.54-4.71c.39-.4 1.02-.4 1.41 0l.79.79 .79-.8c.39-.4 1.02-.4 1.41 0 .39.39.39 1.02 0 1.41l-.8.79 .79.79c.39.39.39 1.02 0 1.41 -.4.39-1.03.39-1.42 0l-.8-.8 -.8.79c-.4.39-1.03.39-1.42 0 -.4-.4-.4-1.03 0-1.42l.79-.8 -.8-.8c-.4-.4-.4-1.03 0-1.42Zm-11.3-4.4c0-.45-.3-.85-.73-.97 -.44-.13-.9.05-1.13.44 -.03.04-.05.08-.08.12 -.41.66-.85 1.39-2.09 2.14 -.48.28-.63.89-.35 1.37 .28.47.89.62 1.37.34 .37-.23.7-.46.98-.69v5.32c0 .55.44 1 1 1 .55-.01.99-.45.99-1v-8.1Z"/></svg>