<svg viewBox="0 0 24 24" xmlns="http://www.w3.org/2000/svg"><path fill="currentColor" d="M12 13.06l8.71 8.71c.29.29.76.29 1.06 0 .29-.3.29-.77 0-1.07L3.27 2.19c-.3-.3-.77-.3-1.07-.01 -.3.29-.3.76-.01 1.06l8.28 8.28v3.31c-.69-.55-1.56-.88-2.5-.88 -2.21 0-4 1.79-4 4 0 2.2 1.79 4 4 4 2.06 0 3.75-1.56 3.97-3.57 .01-.06.02-.13.02-.19V13Zm6.98-1.61l-6.97-2.62 -1.53-1.53V2.73c0-.25.12-.48.32-.62 .2-.15.46-.18.69-.09l6.37 2.39c1.26.47 2.1 1.68 2.1 3.04v3.26c0 .24-.13.47-.33.61 -.21.14-.47.17-.7.08Z"/></svg>