<svg viewBox="0 0 24 24" xmlns="http://www.w3.org/2000/svg"><path fill="currentColor" d="M8.5 9.56v6.06c-.57-.4-1.26-.63-2-.63 -1.94 0-3.5 1.56-3.5 3.5 0 1.93 1.56 3.5 3.5 3.5 1.93 0 3.5-1.57 3.5-3.5 0-.06-.01-.12-.01-.18 0-.03 0-.06 0-.08v-7.19l3.55 3.55c-.35.54-.56 1.19-.56 1.88 0 1.93 1.56 3.5 3.5 3.5 .69 0 1.34-.21 1.88-.56l2.33 2.33c.29.29.76.29 1.06 0 .29-.3.29-.77 0-1.07L3.25 2.16c-.3-.3-.77-.3-1.07-.01 -.3.29-.3.76-.01 1.06l6.28 6.28Zm8 3.43c-.11 0-.21 0-.31.01l3.79 3.79c0-.11.01-.21.01-.31 0-.06-.01-.12-.01-.18 0-.03 0-.06 0-.08V2.72c0-.24-.12-.47-.31-.61 -.2-.15-.44-.19-.67-.12l-10.01 3c-.2.05-.36.19-.45.37l4.09 4.09 5.81-1.75v5.86c-.57-.4-1.26-.63-2-.63Z"/></svg>