<svg viewBox="0 0 24 24" xmlns="http://www.w3.org/2000/svg"><g fill="currentColor"><path d="M19.18 3.61c-.12-.71-.84-1.17-1.55-.95L9.22 5.285c-.51.15-.85.62-.85 1.14v9.75c-.51-.38-1.13-.6-1.8-.6 -1.66 0-3 1.34-3 3 0 1.65 1.34 3 3 3 1.65 0 3-1.35 3-3v-8.56l8.4-2.63v3.41c.41.03.81.11 1.2.22V3.77c0-.07-.01-.14-.02-.2Zm3.61 13.78c0 2.98-2.42 5.4-5.4 5.4 -2.99 0-5.4-2.42-5.4-5.4 0-2.99 2.41-5.4 5.4-5.4 2.98 0 5.4 2.41 5.4 5.4Zm-2.72-.53l-3.6-1.99c-.4-.23-.89.06-.89.52v3.96c0 .45.48.74.88.52l3.59-1.98c.41-.23.41-.83 0-1.06Z"/><path fill="currentColor" fill-rule="evenodd" d="M17.59 2.52c.79-.25 1.6.27 1.73 1.06 .01.07.01.14.01.22v7.43l-.2-.06c-.38-.11-.77-.19-1.18-.22l-.14-.02V7.58l-8.1 2.53v8.44c0 1.73-1.42 3.15-3.15 3.15 -1.74 0-3.15-1.42-3.15-3.15 0-1.74 1.41-3.15 3.15-3.15 .6 0 1.17.17 1.65.46V6.38c0-.6.38-1.12.94-1.29l8.39-2.63Zm1.43 1.11c-.11-.62-.73-1.03-1.35-.83l-8.4 2.62c-.44.13-.74.54-.74 1v10.05l-.25-.19c-.48-.36-1.07-.57-1.71-.57 -1.58 0-2.85 1.27-2.85 2.85 0 1.57 1.27 2.85 2.85 2.85 1.57 0 2.85-1.28 2.85-2.85V9.89l8.7-2.72v3.47c.3.03.6.08.9.16V3.76c0-.06-.01-.12-.02-.18Zm-1.64 8.5c-2.9-.001-5.25 2.35-5.25 5.25 0 2.89 2.35 5.25 5.25 5.25 2.89 0 5.25-2.36 5.25-5.25 0-2.9-2.36-5.25-5.25-5.25Zm-5.55 5.25c0-3.07 2.48-5.55 5.55-5.55 3.06 0 5.55 2.48 5.55 5.55 0 3.06-2.49 5.55-5.55 5.55 -3.07 0-5.55-2.49-5.55-5.55Zm3.6-1.98c0-.58.61-.94 1.11-.66l3.59 1.98c.51.28.51 1.02 0 1.31L16.53 20c-.5.27-1.12-.09-1.12-.66v-3.97Zm.96-.4c-.3-.17-.67.05-.67.39v3.96c0 .34.36.55.66.39l3.59-1.98c.31-.18.31-.62 0-.79l-3.6-1.99Z"/></g></svg>