<svg viewBox="0 0 24 24" xmlns="http://www.w3.org/2000/svg"><path fill="currentColor" d="M12 2c.51 0 .93.38.99.88l0 .11 0 1.31c3.48.44 6.23 3.2 6.68 6.68l1.31-.01c.55 0 1 .44 1 1 0 .51-.39.93-.89.99l-.12 0 -1.314 0c-.45 3.48-3.21 6.23-6.69 6.68l-.01 1.314c0 .55-.45 1-1 1 -.52 0-.94-.39-1-.89l-.01-.12 0-1.32c-3.49-.45-6.24-3.21-6.69-6.69l-1.32-.01c-.56 0-1-.45-1-1 0-.52.38-.94.88-1l.11-.01 1.31 0c.44-3.49 3.2-6.24 6.68-6.69L10.9 2.9c0-.56.44-1 1-1Zm0 4.25c-3.18 0-5.75 2.57-5.75 5.75 0 3.17 2.57 5.75 5.75 5.75 3.17 0 5.75-2.58 5.75-5.75 0-3.18-2.58-5.75-5.75-5.75ZM12 8c2.2 0 4 1.79 4 4 0 2.2-1.8 4-4 4 -2.21 0-4-1.8-4-4 0-2.21 1.79-4 4-4Z"/></svg>