<svg viewBox="0 0 24 24" xmlns="http://www.w3.org/2000/svg"><g fill="currentColor"><path d="M2.3 6c-.5 0-.9.4-.9.9 0 .49.4.9.9.9h17.4c.49 0 .9-.41.9-.9 0-.5-.41-.9-.9-.9H2.3Zm-.9 6.9c0-.5.4-.9.9-.9h11.5c-.69.48-1.28 1.09-1.74 1.8H2.29c-.5 0-.9-.41-.9-.9Zm.9 5.1h8.72c.05.62.2 1.23.42 1.8H2.29c-.5 0-.9-.41-.9-.9 0-.5.4-.9.9-.9Zm20.7-.6c0 2.98-2.42 5.4-5.4 5.4 -2.99 0-5.4-2.42-5.4-5.4 0-2.99 2.41-5.4 5.4-5.4 2.98 0 5.4 2.41 5.4 5.4Zm-2.75-.53l-3.57-1.99c-.4-.23-.9.06-.9.52v3.96c0 .45.49.74.89.52l3.56-1.99c.41-.23.41-.83 0-1.05Z"/><path fill="currentColor" fill-rule="evenodd" d="M1.25 6.9c0-.58.47-1.05 1.05-1.05h17.4c.57 0 1.05.47 1.05 1.05 0 .57-.48 1.05-1.05 1.05H2.3c-.58 0-1.05-.48-1.05-1.05Zm1.05-.75c-.42 0-.75.33-.75.75 0 .41.33.75.75.75h17.4c.41 0 .75-.34.75-.75 0-.42-.34-.75-.75-.75H2.3Zm0 6c-.42 0-.75.33-.75.75 0 .41.33.75.75.75h9.68c.37-.57.84-1.08 1.37-1.5H2.29Zm-1.05.75c0-.58.47-1.05 1.05-1.05h11.97l-.39.27c-.68.47-1.25 1.07-1.7 1.75l-.05.06H2.28c-.58 0-1.05-.48-1.05-1.05Zm16.35-.75c-2.9 0-5.25 2.35-5.25 5.25 0 2.89 2.35 5.25 5.25 5.25 2.89 0 5.25-2.36 5.25-5.25 0-2.9-2.36-5.25-5.25-5.25Zm-5.55 5.25c0-3.07 2.48-5.55 5.55-5.55 3.06 0 5.55 2.48 5.55 5.55 0 3.06-2.49 5.55-5.55 5.55 -3.07 0-5.55-2.49-5.55-5.55Zm3.6-1.99c0-.58.61-.94 1.11-.66l3.56 1.98c.51.28.51 1.02 0 1.31l-3.57 1.98c-.5.27-1.12-.09-1.12-.66v-3.97Zm.96-.4c-.3-.17-.67.05-.67.39v3.96c0 .34.36.56.66.39l3.56-1.99c.3-.18.3-.62 0-.79l-3.57-1.99ZM2.29 18.13c-.42 0-.75.33-.75.75 0 .41.33.75.75.75h8.93c-.17-.48-.29-.98-.35-1.5h-8.6Zm-1.05.75c0-.58.47-1.05 1.05-1.05h8.864l.01.13c.05.61.19 1.2.41 1.75l.07.2H2.27c-.58 0-1.05-.48-1.05-1.05Z"/></g></svg>