<svg viewBox="0 0 24 24" xmlns="http://www.w3.org/2000/svg"><g fill="currentColor"><path d="M2.3 6c-.5 0-.9.4-.9.9 0 .49.4.9.9.9h17.4c.49 0 .9-.41.9-.9 0-.5-.41-.9-.9-.9H2.3Zm-.9 6.9c0-.5.4-.9.9-.9h13.6c-.04.1-.07.21-.09.32 -.77.26-1.46.7-2.03 1.27 -.07.06-.14.13-.2.2H2.28c-.5 0-.9-.41-.9-.9Zm.9 5.1h8.8c.07.2.18.4.32.57 .27.32.66.54 1.08.6 .07.21.16.42.26.62H2.27c-.5 0-.9-.41-.9-.9 0-.5.4-.9.9-.9Zm15.96.39c-.2.13-.43.2-.67.2 -.32 0-.63-.13-.85-.36 -.23-.23-.36-.54-.36-.85 0-.24.07-.47.2-.67 .13-.2.31-.36.53-.45 .21-.1.46-.12.69-.07 .23.04.44.16.61.32 .16.16.28.38.32.61 .04.23.02.47-.07.69 -.1.21-.25.4-.45.53Zm3.47-1.6h.66c.15 0 .31.06.42.17 .11.11.17.26.17.42 0 .15-.07.31-.18.42 -.12.11-.27.17-.43.17h-.67c-.13.89-.55 1.71-1.19 2.35 -.64.63-1.47 1.05-2.36 1.18v.66c0 .15-.07.31-.18.42 -.12.11-.27.17-.43.17 -.16 0-.32-.07-.43-.18 -.12-.12-.18-.27-.18-.43v-.67c-.9-.13-1.72-.55-2.36-1.19 -.64-.64-1.06-1.47-1.19-2.36h-.67c-.16 0-.32-.07-.43-.18 -.12-.12-.18-.27-.18-.43 0-.16.06-.32.17-.43 .11-.12.26-.18.42-.18h.66c.12-.9.54-1.72 1.18-2.36 .63-.64 1.46-1.06 2.35-1.19v-.67c0-.16.06-.32.17-.43 .11-.12.26-.18.42-.18 .15 0 .31.06.42.17 .11.11.17.26.17.42v.66c.89.12 1.71.54 2.35 1.18 .63.63 1.05 1.46 1.18 2.35Zm-3.85 3.58c.69-.07 1.33-.38 1.82-.87 .27-.28.49-.61.65-.98 .15-.37.22-.76.22-1.15 -.01-.7-.25-1.37-.69-1.91 -.45-.54-1.06-.91-1.74-1.04 -.69-.14-1.39-.04-2 .29 -.62.32-1.1.85-1.36 1.49 -.27.64-.31 1.35-.1 2.01 .2.66.62 1.23 1.2 1.62 .57.38 1.27.55 1.96.49Z"/><path fill="currentColor" fill-rule="evenodd" d="M1.25 6.9c0-.58.47-1.05 1.05-1.05h17.4c.57 0 1.05.47 1.05 1.05 0 .57-.48 1.05-1.05 1.05H2.3c-.58 0-1.05-.48-1.05-1.05Zm1.05-.75c-.42 0-.75.33-.75.75 0 .41.33.75.75.75h17.4c.41 0 .75-.34.75-.75 0-.42-.34-.75-.75-.75H2.3Zm0 6c-.42 0-.75.33-.75.75 0 .41.33.75.75.75h11.23c.05-.06.1-.11.15-.17 .56-.57 1.24-1.01 2-1.28 0-.02 0-.04.01-.06H2.28Zm-1.05.75c0-.58.47-1.05 1.05-1.05h13.81l-.08.2c-.04.09-.06.19-.08.29l-.02.08 -.09.02c-.75.25-1.42.68-1.98 1.23 -.07.06-.13.13-.19.2l-.05.04H2.25c-.58 0-1.05-.48-1.05-1.05Zm16.35-.75c-.12 0-.24.04-.32.13 -.09.08-.14.19-.14.31v.79l-.13.01c-.87.12-1.66.52-2.28 1.13 -.62.61-1.02 1.41-1.14 2.27l-.02.12h-.8c-.12 0-.24.04-.32.13 -.09.08-.14.19-.14.31 0 .11.04.23.13.31 .08.08.19.13.31.13h.79l.01.12c.12.86.52 1.65 1.13 2.27 .61.61 1.41 1.01 2.27 1.13l.12.01v.79c0 .11.04.23.13.31 .08.08.19.13.31.13 .11 0 .23-.05.31-.14 .08-.09.13-.2.13-.32v-.8l.12-.02c.86-.13 1.65-.53 2.27-1.14 .61-.62 1.01-1.42 1.13-2.28l.01-.13h.79c.11 0 .23-.05.31-.14 .08-.09.13-.2.13-.32s-.05-.24-.14-.32c-.09-.09-.2-.14-.32-.14h-.8l-.02-.13c-.13-.87-.53-1.66-1.14-2.28 -.62-.62-1.42-1.02-2.28-1.14l-.13-.02v-.8c0-.12-.05-.24-.14-.32 -.09-.09-.2-.14-.32-.14Zm-.54-.09c.14-.15.33-.22.53-.22 .19 0 .38.07.53.21 .14.14.21.33.21.53v.53c.87.15 1.68.57 2.31 1.2 .62.62 1.04 1.43 1.2 2.31h.53c.19 0 .38.07.53.21 .14.14.21.33.21.53 0 .19-.08.38-.22.53 -.15.14-.34.21-.54.21h-.54c-.16.87-.58 1.68-1.21 2.31 -.63.62-1.44 1.04-2.32 1.2v.53c0 .19-.08.38-.22.53 -.15.14-.34.21-.54.21s-.39-.08-.54-.22c-.15-.15-.22-.34-.22-.54v-.54c-.88-.16-1.69-.58-2.32-1.21 -.63-.63-1.05-1.44-1.21-2.32h-.54c-.2 0-.39-.08-.54-.22 -.15-.15-.22-.34-.22-.54s.07-.39.21-.54c.14-.15.33-.22.53-.22h.53c.15-.88.57-1.69 1.2-2.32 .62-.63 1.43-1.05 2.31-1.21v-.54c0-.2.07-.39.21-.54Zm-.96 2.55c.64-.35 1.38-.46 2.09-.32s1.35.52 1.82 1.09c.46.56.71 1.26.71 1.99 0 .41-.09.82-.24 1.2 -.16.38-.4.72-.69 1.02 -.52.51-1.2.83-1.92.9 -.73.07-1.46-.12-2.06-.52 -.61-.41-1.06-1.01-1.27-1.71 -.22-.7-.18-1.45.1-2.12 .27-.68.78-1.23 1.42-1.58Zm2.04-.02c-.65-.13-1.32-.03-1.9.28 -.59.31-1.04.81-1.29 1.423 -.26.6-.29 1.28-.1 1.91 .19.63.59 1.17 1.14 1.54 .54.36 1.2.53 1.86.46 .65-.07 1.26-.36 1.73-.83 .26-.27.47-.58.61-.93 .14-.35.21-.72.21-1.1 -.01-.66-.23-1.3-.65-1.81 -.42-.51-1.01-.86-1.65-.99Zm-.36 1.76c-.21-.05-.42-.02-.61.05 -.2.07-.36.21-.48.38s-.18.37-.18.58c0 .27.11.54.3.74 .19.19.46.3.74.3 .2 0 .41-.07.58-.18 .17-.12.3-.28.38-.48 .07-.2.1-.41.05-.61 -.05-.21-.15-.4-.29-.54 -.15-.15-.34-.25-.54-.29Zm-.73-.22c.24-.11.51-.13.78-.08 .26.05.5.18.69.36 .18.18.31.42.36.69 .05.26.02.53-.08.78 -.11.24-.28.45-.5.6 -.23.14-.49.22-.75.22 -.36 0-.71-.15-.96-.4 -.26-.26-.4-.6-.4-.96 0-.27.07-.53.22-.75 .14-.23.35-.4.6-.5ZM2.26 18.12c-.42 0-.75.33-.75.75 0 .41.33.75.75.75H12.5c-.05-.12-.1-.23-.14-.34 -.43-.09-.81-.32-1.1-.65 -.14-.16-.25-.34-.32-.52H2.23Zm-1.05.75c0-.58.47-1.05 1.05-1.05h8.9l.03.1c.06.18.16.36.3.52 .25.29.61.49.99.55l.08.01 .02.08c.07.2.15.4.25.6l.1.21H2.2c-.58 0-1.05-.48-1.05-1.05Z"/></g></svg>