<svg viewBox="0 0 24 24" xmlns="http://www.w3.org/2000/svg"><path fill="currentColor" d="M19.25 8.5C20.76 8.5 22 7.26 22 5.75 22 4.23 20.76 3 19.25 3c-1.52 0-2.75 1.23-2.75 2.75 0 1.51 1.23 2.75 2.75 2.75ZM15.71 7c-.14-.4-.22-.82-.22-1.25 0-.26.02-.51.07-.75H2.98l-.12 0c-.5.05-.89.48-.89.99 0 .55.44 1 1 1h12.71Zm5.28 10h-18l-.12 0c-.5.05-.89.48-.89.99 0 .55.44 1 1 1h18l.11-.01c.49-.06.88-.49.88-1 0-.56-.45-1-1-1ZM2.98 11l18-.01c.55 0 1 .44 1 .99 0 .51-.39.93-.89.99l-.12 0 -18 0c-.56 0-1.01-.45-1.01-1 0-.52.38-.94.88-1l.11-.01Z"/></svg>