<svg viewBox="0 0 24 24" xmlns="http://www.w3.org/2000/svg"><path fill="currentColor" d="M21.84 6.65c-.43-.43-1-.66-1.6-.66H2.99v-1.5c0-.4-.16-.78-.44-1.07 -.29-.29-.67-.44-1.07-.44H.73c-.2 0-.39.07-.54.21 -.15.14-.22.33-.22.53 0 .19.07.39.21.53 .13.14.33.21.53.21h.75v15.75c0 .19.07.39.21.53 .14.14.33.21.53.21 .19 0 .39-.08.53-.22 .14-.15.21-.34.21-.54v-2.25h6v2.25c0 .19.07.39.21.53 .14.14.33.21.53.21h9c.19 0 .39-.08.53-.22 .14-.15.21-.34.21-.54v-2.25h.75c.59 0 1.16-.24 1.59-.66 .42-.43.65-1 .65-1.6v-7.5c0-.6-.24-1.17-.66-1.6ZM5.99 14.24c0 .19-.08.39-.22.53s-.34.21-.54.21 -.39-.08-.54-.22c-.15-.14-.22-.34-.22-.54v-4.5c0-.2.07-.39.21-.54 .14-.15.33-.22.53-.22 .19 0 .39.07.53.21 .14.14.21.33.21.53v4.5Zm3.75.75c-.2 0-.39-.08-.54-.22 -.15-.14-.22-.34-.22-.54v-4.5c0-.2.07-.39.21-.54 .14-.15.33-.22.53-.22 .19 0 .39.07.53.21 .14.14.21.33.21.53v4.5c0 .19-.08.39-.22.53s-.34.21-.54.21Zm3.75 4.5h-3v-1.5h3v1.5Zm.75-4.5c-.2 0-.39-.08-.54-.22 -.15-.14-.22-.34-.22-.54v-4.5c0-.2.07-.39.21-.54 .14-.15.33-.22.53-.22 .19 0 .39.07.53.21 .14.14.21.33.21.53v4.5c0 .19-.08.39-.22.53s-.34.21-.54.21Zm3.75 4.5h-3v-1.5h3v1.5Zm1.5-5.25c0 .19-.08.39-.22.53 -.15.14-.34.21-.54.21s-.39-.08-.54-.22c-.15-.15-.22-.34-.22-.54v-4.5c0-.2.07-.39.21-.54 .13-.15.33-.22.53-.22 .19 0 .39.07.53.21 .14.13.21.33.21.53v4.5Z"/></svg>