<svg viewBox="0 0 24 24" xmlns="http://www.w3.org/2000/svg"><path fill="currentColor" d="M10.04 15.42l6.25-8.48c.2-.29.59-.37.89-.2 .27.15.4.46.34.76l-.04.09 -3.88 9.79c-.42 1.06-1.63 1.58-2.69 1.16 -.09-.04-.17-.08-.25-.12 -1.01-.56-1.37-1.82-.81-2.82l.06-.12 .07-.12 6.25-8.48 -6.26 8.47Zm2.05-4.55l-1.23 1.66c-.31.09-.6.24-.88.43 -.86.6-1.38 1.55-1.42 2.58 -.02.41-.37.73-.79.71 -.42-.02-.74-.37-.72-.79 .06-1.5.8-2.88 2.05-3.76 .9-.64 1.94-.92 2.96-.87Zm4.16 2.75c.27.58.43 1.21.46 1.86 .01.41-.31.76-.718.78 -.28.01-.52-.13-.66-.34l.91-2.31Zm-2.24-5.37l-.97 1.31c-1.6-.31-3.31.01-4.74 1.01 -1.19.83-2.03 2.02-2.42 3.39 -.12.39-.53.62-.93.51 -.4-.12-.63-.53-.52-.93 .48-1.7 1.52-3.18 3-4.21 1.98-1.4 4.4-1.72 6.56-1.11Zm3.5 2.13c.25.26.48.55.7.86 .49.7.86 1.47 1.09 2.28 .11.39-.12.81-.52.92 -.4.11-.82-.12-.93-.52 -.19-.66-.49-1.28-.89-1.85l-.11-.14 .62-1.59Zm-1.57-4.54l-.09.05c-.13.08-.24.18-.34.29l-.1.11 -.55.73c-2.69-.94-5.76-.61-8.27 1.14 -1.51 1.05-2.63 2.49-3.28 4.17 -.16.38-.59.57-.98.42 -.39-.15-.58-.59-.43-.98 .75-1.95 2.06-3.64 3.81-4.86 3.09-2.17 6.93-2.46 10.18-1.12Zm2.62 1.56c.75.61 1.43 1.33 2.02 2.17 .49.7.89 1.45 1.19 2.23 .15.38-.04.82-.43.97 -.39.15-.83-.04-.98-.43 -.27-.68-.61-1.32-1.04-1.93 -.39-.56-.83-1.05-1.3-1.49l.38-.97c.07-.2.11-.39.12-.59Z"/></svg>