<svg viewBox="0 0 24 24" xmlns="http://www.w3.org/2000/svg"><path fill="currentColor" d="M16.75 4c1.19 0 2.16.92 2.24 2.09l0 .15v11.25c0 .27.22.5.5.5 .24 0 .44-.18.49-.42l0-.09 0-10.49c1.07.11 1.91.98 1.99 2.07l0 .16v7.5c0 1.73-1.36 3.14-3.07 3.24l-.19 0H5.21c-1.74 0-3.15-1.36-3.25-3.07l-.01-.19V6.2c0-1.2.92-2.17 2.09-2.25l.15-.01h12.5Zm-7.51 7h-3.5c-.42 0-.75.33-.75.75v3.5c0 .41.33.75.75.75h3.5c.41 0 .75-.34.75-.75v-3.5c0-.42-.34-.75-.75-.75Zm6 3.5h-2.5l-.11 0c-.37.04-.65.36-.65.74 0 .41.33.75.75.75h2.49l.1-.01c.36-.05.64-.37.64-.75 0-.42-.34-.75-.75-.75Zm-6.76-2v2h-2v-2h2Zm6.75-1.5l-2.5 0 -.11 0c-.37.05-.65.36-.65.74 0 .41.33.74.75.74l2.49-.01 .1-.01c.36-.06.64-.37.64-.75 -.01-.42-.34-.75-.76-.75Zm0-3.5H5.72l-.11 0c-.37.04-.65.36-.65.74 0 .41.33.75.75.75h9.5l.1-.01c.36-.05.64-.37.64-.75 0-.42-.34-.75-.75-.75Z"/></svg>