<svg viewBox="0 0 24 24" xmlns="http://www.w3.org/2000/svg"><path fill="currentColor" d="M5.99 2.39c-1.33 0-2.4 1.07-2.4 2.4v9.08c.86-.42 1.87-.69 3-.69 2 0 3.63.83 4.75 1.88 1.06.99 1.84 2.33 1.84 3.51 0 .62-.22 1.25-.53 1.82 -.22.39-.5.79-.83 1.17h3.74c1.32 0 2.4-1.08 2.4-2.4V4.76c0-1.33-1.08-2.4-2.4-2.4H5.95Zm0 4.2c0-.34.26-.6.6-.6h8.4c.33 0 .6.26.6.6v1.2c0 .33-.27.6-.6.6H6.58c-.34 0-.6-.27-.6-.6v-1.2Zm13.2.6h.6c.33 0 .6.26.6.6v1.8c0 .33-.27.6-.6.6h-.6v-3Zm0 4.2h.6c.33 0 .6.26.6.6v1.8c0 .33-.27.6-.6.6h-.6v-3Zm0 4.2h.6c.33 0 .6.26.6.6v1.8c0 .33-.27.6-.6.6h-.6v-3Zm-18.01 3c-.001-1.42 2.08-4.2 5.4-4.2 3.31 0 5.4 2.76 5.4 4.2 0 1.41-2.09 4.2-5.41 4.2 -3.32 0-5.4-2.76-5.4-4.2Zm3.73 2.49c.49.32 1.07.5 1.66.5 .79 0 1.55-.32 2.12-.88 .56-.57.87-1.33.87-2.13 0-.6-.18-1.18-.51-1.67 -.33-.5-.8-.88-1.35-1.11 -.55-.23-1.16-.29-1.74-.18 -.59.11-1.12.4-1.54.82 -.42.41-.71.95-.83 1.53 -.12.58-.06 1.18.17 1.73 .22.54.61 1.01 1.1 1.34Zm3.16-1.5c.19-.3.3-.65.3-1 0-.48-.19-.94-.53-1.28 -.34-.34-.8-.53-1.28-.53 -.36 0-.71.1-1.01.3 -.3.19-.53.47-.67.8 -.14.32-.18.69-.11 1.04 .06.34.24.66.49.92 .25.25.57.42.92.49 .34.06.71.03 1.03-.11 .32-.14.61-.37.8-.67Z"/></svg>