<svg viewBox="0 0 24 24" xmlns="http://www.w3.org/2000/svg"><g fill="currentColor"><path d="M15.64 2l.1-.01c.37 0 .69.28.74.64l0 .1v8.32c-3.12.48-5.5 3.17-5.5 6.42 0 .88.17 1.72.49 2.49l-2.25 0c-1.25 0-2.25-1.01-2.25-2.25V6.21c0-1.25 1-2.25 2.25-2.25l5.75-.01V2.7c0-.38.28-.7.64-.75Z"/><path d="M23 17.5c0 3.03-2.47 5.5-5.5 5.5 -3.04 0-5.5-2.47-5.5-5.5 0-3.04 2.46-5.5 5.5-5.5 3.03 0 5.5 2.46 5.5 5.5Zm-8.5-.5c-.28 0-.5.22-.5.5 0 .27.22.5.5.5h4.79l-1.65 1.64c-.2.19-.2.51 0 .7 .19.19.51.19.7 0l2.5-2.5c.19-.2.19-.52 0-.71l-2.5-2.5c-.2-.2-.52-.2-.71 0 -.2.19-.2.51 0 .7l1.64 1.64h-4.8Z"/></g></svg>