<svg viewBox="0 0 24 24" xmlns="http://www.w3.org/2000/svg"><path fill="currentColor" d="M16.25 2c.37 0 .69.28.74.64l0 .1 -.01.74 .74 0c1.24 0 2.24 1 2.25 2.25l0 10.25h-3.76l-.16 0c-1.12.07-2.02.96-2.1 2.08l-.01.16v3.75H5.69c-1.25-.01-2.25-1.01-2.26-2.25L3.42 5.71c-.01-1.25 1-2.26 2.24-2.26l.74-.01 0-.75c0-.42.33-.75.75-.75 .37 0 .69.28.74.64l0 .1 -.01.74h3l0-.75c0-.42.33-.75.75-.75 .37 0 .69.28.74.64l0 .1 -.01.74h2.99l0-.75c0-.42.33-.75.75-.75Zm3.3 15.5l-4.07 4.06 0-3.32 0-.11c.04-.34.3-.6.64-.65l.1-.01h3.31ZM11.23 16h-4l-.11 0c-.37.04-.65.36-.65.74 0 .37.28.69.64.74l.1 0h3.99l.1-.01c.36-.05.64-.37.64-.75s-.29-.7-.65-.75l-.11-.01Zm5-4h-9l-.11 0c-.37.04-.65.36-.65.74 0 .37.28.69.64.74l.1 0h8.99l.1-.01c.36-.05.64-.37.64-.75s-.29-.7-.65-.75l-.11-.01Zm0-4h-9l-.11 0c-.37.04-.65.36-.65.74 0 .37.28.69.64.74l.1 0h8.99l.1-.01c.36-.05.64-.37.64-.75s-.29-.7-.65-.75l-.11-.01Z"/></svg>