<svg viewBox="0 0 24 24" xmlns="http://www.w3.org/2000/svg"><path fill="currentColor" d="M18.97 12.65l-5.8 5.79c-.34.33-.58.76-.7 1.22l-.45 1.79c-.2.78.51 1.48 1.29 1.29l1.79-.45c.46-.12.88-.36 1.22-.7l5.79-5.8c.87-.88.87-2.3 0-3.18 -.88-.88-2.3-.88-3.18 0ZM8.39 2.99c0-.34-.27-.6-.6-.6 -.34 0-.6.26-.6.6v.6h-.6c-1 0-1.8.8-1.8 1.8v14.4c0 .99.8 1.8 1.8 1.8h4.2c0-.14.03-.28.06-.42l.44-1.8c.16-.68.51-1.3 1-1.79l5.79-5.8c.31-.32.68-.57 1.07-.74V5.36c0-1-.81-1.8-1.8-1.8h-.6v-.6c0-.34-.27-.6-.6-.6 -.34 0-.6.26-.6.6v.6h-3v-.6c0-.34-.27-.6-.6-.6 -.34 0-.6.26-.6.6v.6h-3v-.6Zm.6 5.4h5.99c.33 0 .6.26.6.6 0 .33-.27.6-.6.6h-6c-.34 0-.6-.27-.6-.6 0-.34.26-.6.6-.6Zm6.59 4.2c0 .33-.27.6-.6.6h-6c-.34 0-.6-.27-.6-.6 0-.34.26-.6.6-.6h5.99c.33 0 .6.26.6.6Zm-6.6 3h2.39c.33 0 .6.26.6.6 0 .33-.27.6-.6.6h-2.4c-.34 0-.6-.27-.6-.6 0-.34.26-.6.6-.6Z"/></svg>