<svg viewBox="0 0 24 24" xmlns="http://www.w3.org/2000/svg"><path fill="currentColor" d="M6.5 12c3.03 0 5.5 2.46 5.5 5.5 0 3.03-2.47 5.5-5.5 5.5C3.46 23 1 20.53 1 17.5 1 14.46 3.46 12 6.5 12ZM16.74 2c1.24 0 2.25 1 2.25 2.25v15.5c0 1.24-1.01 2.25-2.25 2.25l-5.56 0c1.12-1.17 1.81-2.76 1.81-4.51 0-3.59-2.92-6.5-6.5-6.5 -.89 0-1.74.17-2.5.49V4.23c0-1.25 1-2.25 2.25-2.25h10.49ZM6.49 19.88c-.35 0-.63.27-.63.62 0 .34.27.62.62.62 .34 0 .62-.28.62-.63s-.28-.63-.63-.63Zm0-5.88c-1.05 0-1.87.81-1.86 1.95 0 .27.22.49.5.49 .27-.01.49-.23.49-.51 -.01-.58.35-.95.85-.95 .47 0 .85.39.85.94 0 .22-.08.39-.32.67l-.1.11 -.27.29c-.49.54-.68.89-.68 1.46 0 .27.22.5.5.5 .27 0 .5-.23.5-.5 0-.24.07-.41.32-.7l.1-.12 .26-.3c.47-.54.66-.89.66-1.45 0-1.11-.83-1.95-1.86-1.95Zm14.24.99c.37 0 .69.28.74.64l0 .1v1.49c0 .37-.29.69-.65.74l-.11 0h-.75v-3h.75Zm0-4c.37 0 .69.28.74.64l0 .1v1.49c0 .37-.29.69-.65.74l-.11 0h-.75v-3h.75Zm0-4c.37 0 .69.28.74.64l0 .1v1.49c0 .37-.29.69-.65.74l-.11 0h-.75v-3h.75Zm-6.01-1.51h-6.5c-.38 0-.7.28-.75.64l-.01.1v1.5c0 .37.28.69.64.74l.1 0h6.49c.37 0 .69-.29.74-.65l0-.11V6.19c0-.42-.34-.75-.75-.75Z"/></svg>