<svg viewBox="0 0 24 24" xmlns="http://www.w3.org/2000/svg"><path fill="currentColor" d="M16.24 2c.37 0 .69.28.74.64l0 .1 -.01.74 .74 0c1.24 0 2.24 1 2.25 2.25l0 5.58c-.46-.22-.97-.34-1.5-.34 -1.94 0-3.5 1.56-3.5 3.5 0 .97.4 1.86 1.05 2.5h-.28c-1.54 0-2.78 1.24-2.78 2.77v.1c0 .74.21 1.48.66 2.12H5.69c-1.25-.01-2.25-1.01-2.26-2.25L3.42 5.7c-.01-1.25 1-2.26 2.24-2.26l.74-.01 0-.75c0-.42.33-.75.75-.75 .37 0 .69.28.74.64l0 .1 -.01.74h3l0-.75c0-.42.33-.75.75-.75 .37 0 .69.28.74.64l0 .1 -.01.74h2.99l0-.75c0-.42.33-.75.75-.75Zm-5.01 14h-4l-.11 0c-.37.04-.65.36-.65.74 0 .37.28.69.64.74l.1 0h3.99l.1-.01c.36-.05.64-.37.64-.75s-.29-.7-.65-.75l-.11-.01Zm5-8h-9l-.11 0c-.37.04-.65.36-.65.74 0 .37.28.69.64.74l.1 0h8.99l.1-.01c.36-.05.64-.37.64-.75s-.29-.7-.65-.75l-.11-.01Zm-9.75 4.75c0 .41.33.75.75.75h6c.41 0 .75-.34.75-.75 0-.42-.34-.75-.75-.75h-6c-.42 0-.75.33-.75.75Zm14.5 1.75c0 1.38-1.12 2.5-2.5 2.5 -1.39 0-2.5-1.12-2.5-2.5 0-1.39 1.11-2.5 2.5-2.5 1.38 0 2.5 1.11 2.5 2.5Zm2 5.375c0 1.55-1.29 3.125-4.5 3.125 -3.22 0-4.5-1.57-4.5-3.125v-.11c0-.98.79-1.78 1.77-1.78h5.45c.97 0 1.77.79 1.77 1.77v.1Z"/></svg>