<svg viewBox="0 0 24 24" xmlns="http://www.w3.org/2000/svg"><path fill="currentColor" d="M1.19 6.59c0-2.99 2.41-5.4 5.4-5.4 2.98 0 5.4 2.41 5.4 5.4 0 2.98-2.42 5.4-5.41 5.4s-5.41-2.42-5.41-5.41Zm7.67 1.07L7.78 8.73V6.87c0-1.83-1.48-3.3-3.31-3.3h-.31c-.34 0-.61.26-.61.6 0 .33.26.6.6.6h.3c1.16 0 2.1.94 2.1 2.1v1.85L5.47 7.64c-.24-.24-.62-.24-.85 0 -.24.23-.24.61 0 .84l2.1 2.1c.05.05.12.09.19.12 .07.02.14.04.22.04 .08 0 .15-.02.22-.05 .07-.03.13-.08.19-.14l2.1-2.1c.23-.24.23-.62 0-.85 -.24-.24-.62-.24-.85 0Zm4.32-1.08c0 3.64-2.96 6.6-6.61 6.6 -1.09 0-2.11-.27-3.01-.73v6.72c0 1.32 1.07 2.4 2.4 2.4h9.6c1.32 0 2.4-1.08 2.4-2.41V4.76c0-1.33-1.08-2.4-2.41-2.4h-3.91c.94 1.14 1.5 2.6 1.5 4.2Zm5.99.6h.6c.33 0 .6.26.6.6v1.8c0 .33-.27.6-.61.6h-.61V7.17Zm0 4.2h.6c.33 0 .6.26.6.6v1.8c0 .33-.27.6-.61.6h-.61v-3Zm0 4.2h.6c.33 0 .6.26.6.6v1.8c0 .33-.27.6-.61.6h-.61v-3Z"/></svg>