<svg viewBox="0 0 24 24" xmlns="http://www.w3.org/2000/svg"><path fill="currentColor" d="M3.6 10.82v5.97l0 .21c.1 1.88 1.67 3.38 3.59 3.38h4.79v-4.8l0-.22c.1-1.82 1.56-3.28 3.38-3.39l.21-.01h4.8v-4.8l-.01-.22c-.11-1.89-1.68-3.39-3.6-3.39h-5.45c1.13 1.33.72 3.42-.89 4.21l-2.27 1.1 -.54 1.53c-.53 1.52-2.47 1.96-3.61.83l-.47-.47Zm16.24 3.16c.19-.24.33-.5.43-.79l-4.69-.01 -.19 0c-1.18.09-2.12 1.03-2.21 2.21l-.01.17 0 4.68c.35-.12.68-.32.95-.59l5.54-5.55 .15-.17Zm-9.61-9.92L7.91 1.74c-.88-.88-2.35-.63-2.9.48l-.97 1.97c-.14.28-.39.5-.69.6l-1.33.45c-.84.28-1.09 1.35-.46 1.98l1.13 1.13L1.13 9.9v.84h.84l1.55-1.56 1.13 1.13c.62.62 1.69.38 1.98-.46l.45-1.33c.1-.31.32-.55.6-.69l1.97-.97c1.11-.55 1.35-2.02.48-2.9Z"/></svg>