<svg viewBox="0 0 24 24" xmlns="http://www.w3.org/2000/svg"><path fill="currentColor" d="M3 17.75C3 19.54 4.45 21 6.25 21h4.91l.35-1.43c.16-.65.49-1.24.96-1.72l5.9-5.91c.71-.72 1.67-1.04 2.6-.96V6.21c0-1.8-1.46-3.25-3.25-3.25h-6.75v4.75c0 1.79-1.46 3.25-3.25 3.25H2.97v6.75ZM9.5 3.44L3.44 9.5h4.31c.96 0 1.75-.79 1.75-1.75V3.44Zm9.59 9.22l-5.91 5.9c-.35.34-.59.77-.71 1.24l-.46 1.83c-.2.79.52 1.51 1.31 1.31l1.83-.46c.47-.12.9-.37 1.24-.71l5.9-5.91c.89-.9.89-2.34 0-3.24 -.9-.9-2.34-.9-3.24 0Z"/></svg>