<svg viewBox="0 0 24 24" xmlns="http://www.w3.org/2000/svg"><path fill="currentColor" d="M16.74 2c1.24 0 2.25 1 2.25 2.25v15.5c0 1.24-1.01 2.25-2.25 2.25H6.24c-1.25 0-2.25-1.01-2.25-2.25V4.25C3.99 3 4.99 2 6.24 2h10.49Zm3.25 13h.75c.37 0 .69.28.74.64l0 .1v1.49c0 .37-.29.69-.65.74l-.11 0h-.75v-3h.75 -.75Zm0-4h.75c.37 0 .69.28.74.64l0 .1v1.49c0 .37-.29.69-.65.74l-.11 0h-.75v-3h.75 -.75Zm0-4h.75c.37 0 .69.28.74.64l0 .1v1.49c0 .37-.29.69-.65.74l-.11 0h-.75v-3h.75 -.75Zm-5.25-1.51H8.23c-.38 0-.7.28-.75.64l-.01.1v1.5c0 .37.28.69.64.74l.1 0h6.5c.37 0 .69-.29.74-.65l0-.11V6.2c0-.42-.34-.75-.75-.75Z"/></svg>