<svg viewBox="0 0 24 24" xmlns="http://www.w3.org/2000/svg"><g fill="currentColor"><path d="M16.74 2c1.24 0 2.25 1 2.25 2.25v15.5c0 1.24-1.01 2.25-2.25 2.25h-5.56c1.12-1.17 1.8-2.76 1.8-4.5 0-3.59-2.92-6.5-6.5-6.5 -.89 0-1.74.17-2.5.49V4.24c0-1.25 1-2.25 2.25-2.25h10.49Zm-2 3.49H8.23c-.38 0-.7.28-.75.64l-.01.1v1.5c0 .37.28.69.64.74l.1 0h6.5c.37 0 .69-.29.74-.65l0-.11V6.2c0-.42-.34-.75-.75-.75Z"/><path d="M20 15h.75c.37 0 .69.28.74.64l0 .1v1.49c0 .37-.29.69-.65.74l-.11 0h-.75v-3Z"/><path d="M20 11h.75c.37 0 .69.28.74.64l0 .1v1.49c0 .37-.29.69-.65.74l-.11 0h-.75v-3Z"/><path d="M20 7h.75c.37 0 .69.28.74.64l0 .1v1.49c0 .37-.29.69-.65.74l-.11 0h-.75v-3Z"/><path d="M12 17.5c0-3.04-2.47-5.5-5.5-5.5C3.46 12 1 14.46 1 17.5 1 20.53 3.46 23 6.5 23c3.03 0 5.5-2.47 5.5-5.5ZM7 18l0 2.5c0 .27-.23.5-.5.5 -.28 0-.5-.23-.5-.5l-.01-2.51H3.48c-.28 0-.5-.23-.5-.5 0-.28.22-.5.49-.5h2.5l-.01-2.51c0-.28.22-.5.5-.5 .27 0 .5.22.5.5l0 2.5h2.49c.27 0 .49.22.49.5 0 .27-.23.5-.5.5h-2.5Z"/></g></svg>