<svg viewBox="0 0 24 24" xmlns="http://www.w3.org/2000/svg"><path fill="currentColor" d="M12 6.5C12 3.46 9.53 1 6.5 1 3.46 1 1 3.46 1 6.5 1 9.53 3.46 12 6.5 12 9.53 12 12 9.53 12 6.5ZM7 7l0 2.5c0 .27-.23.49-.5.49 -.28 0-.5-.23-.5-.5l-.01-2.51H3.48c-.28 0-.5-.23-.5-.5 0-.28.22-.5.5-.5h2.5l-.01-2.51c0-.28.22-.5.5-.5 .27 0 .5.22.5.5l0 2.5h2.5c.27 0 .49.22.49.5 0 .27-.23.5-.5.5H6.95Zm-.51 5.99c3.58 0 6.5-2.92 6.5-6.5 0-1.29-.375-2.49-1.03-3.5h5.77c1.79 0 3.25 1.45 3.25 3.25v6.75h-4.75c-1.8 0-3.25 1.45-3.25 3.25v4.75H6.23c-1.8 0-3.25-1.46-3.25-3.25v-5.78c1.01.64 2.21 1.02 3.5 1.02Zm14.06 1.5l-6.06 6.06v-4.31c0-.97.78-1.75 1.75-1.75h4.31Z"/></svg>