<svg viewBox="0 0 24 24" xmlns="http://www.w3.org/2000/svg"><path fill="currentColor" d="M22 12c0 5.52-4.48 10-10 10C6.47 22 2 17.52 2 12 2 6.47 6.47 2 12 2c5.52 0 10 4.47 10 10ZM10.35 8.95c0-.01 0-.02.01-.03 .01-.03.05-.06.09-.11 .08-.1.22-.22.39-.35 .34-.26.81-.49 1.39-.49 .96 0 1.74.78 1.75 1.75 0 .53-.2.86-.53 1.15 -.32.28-.73.5-1.24.78 -.11.05-.23.12-.35.18 -.64.34-1.37.78-1.94 1.47 -.59.71-.96 1.64-.96 2.89 0 .41.33.75.75.75h5c.41 0 .75-.34.75-.75 0-.42-.34-.75-.75-.75h-4.19c.09-.53.3-.9.54-1.2 .37-.46.88-.78 1.5-1.12 .09-.06.18-.11.28-.16 .51-.28 1.1-.6 1.56-1.01 .6-.54 1.03-1.26 1.03-2.29 -.01-1.8-1.46-3.25-3.25-3.25 -.99 0-1.77.39-2.28.76 -.26.18-.46.37-.6.51 -.07.07-.13.13-.17.17 -.03.02-.05.05-.07.08l-.01 0 -.01 0c-.25.33-.19.8.15 1.04 .33.24.79.18 1.04-.15l0-.01Zm-.01 0l0-.01 -.01 0Z"/></svg>