<svg viewBox="0 0 24 24" xmlns="http://www.w3.org/2000/svg"><path fill="currentColor" d="M12 22c5.52 0 10-4.48 10-10 0-5.53-4.48-10-10-10C6.47 2 2 6.47 2 12c0 5.52 4.47 10 10 10Zm0-10.5c1.35 0 2.25.98 2.25 2.25 0 1.24-1.01 2.25-2.25 2.25 -1.25 0-2.25-1.01-2.25-2.25 0-1.25 1-2.25 2.25-2.25Zm0 6c-1.18 0-2.28-.47-3.06-1.44 -.78-.96-1.2-2.33-1.2-4.07 0-1.39.26-2.75.93-3.77 .7-1.08 1.81-1.74 3.31-1.74 1.24 0 2.24.45 2.95 1.25 .27.3.24.78-.07 1.05s-.79.24-1.06-.07c-.41-.46-.99-.75-1.84-.75 -1 0-1.64.4-2.06 1.05 -.35.52-.57 1.24-.66 2.1 .68-.72 1.64-1.16 2.71-1.16 2.22 0 3.75 1.7 3.75 3.75 0 2.07-1.68 3.75-3.75 3.75Z"/></svg>