<svg viewBox="0 0 24 24" xmlns="http://www.w3.org/2000/svg"><path fill="currentColor" d="M22 12c0 5.52-4.48 10-10 10C6.47 22 2 17.52 2 12 2 6.47 6.47 2 12 2c5.52 0 10 4.47 10 10ZM9.75 12c0-1.27.18-2.31.56-3 .34-.64.85-1.01 1.68-1.01 .82 0 1.33.36 1.68 1 .38.69.56 1.73.56 2.99 0 1.26-.19 2.3-.57 2.99 -.35.63-.86 1-1.69 1s-1.34-.37-1.69-1.01c-.39-.7-.57-1.74-.57-3ZM12 6.5c-1.43 0-2.42.7-3.01 1.78 -.56 1.02-.75 2.35-.75 3.71 0 1.36.19 2.69.74 3.71 .58 1.07 1.57 1.78 3 1.78 1.42 0 2.41-.71 3-1.79 .55-1.03.74-2.36.74-3.72 0-1.37-.2-2.7-.75-3.72 -.59-1.08-1.58-1.79-3.01-1.79Z"/></svg>