<svg viewBox="0 0 24 24" xmlns="http://www.w3.org/2000/svg"><path fill="currentColor" d="M12 22c5.52 0 10-4.48 10-10 0-5.53-4.48-10-10-10C6.47 2 2 6.47 2 12c0 5.52 4.47 10 10 10Zm0-9.5c-1.36 0-2.25-.99-2.25-2.25C9.75 9 10.75 8 12 8c1.24 0 2.25 1 2.25 2.25 0 1.24-1.01 2.25-2.25 2.25Zm2.71.34c-.69.71-1.65 1.15-2.71 1.15 -2.23 0-3.75-1.71-3.75-3.75 0-2.08 1.67-3.75 3.75-3.75 1.17 0 2.27.46 3.05 1.43 .77.95 1.19 2.32 1.19 4.06 0 1.38-.27 2.74-.94 3.76 -.71 1.07-1.82 1.73-3.32 1.73 -1.25 0-2.25-.46-2.96-1.26 -.28-.31-.25-.79.06-1.06 .3-.28.78-.25 1.05.06 .4.45.98.75 1.83.75 .99 0 1.63-.41 2.05-1.06 .34-.53.56-1.25.65-2.11Z"/></svg>