<svg viewBox="0 0 24 24" xmlns="http://www.w3.org/2000/svg"><path fill="currentColor" d="M12 22c5.52 0 10-4.48 10-10 0-5.53-4.48-10-10-10C6.47 2 2 6.47 2 12c0 5.52 4.47 10 10 10Zm-1.5-10c0-.42.33-.75.75-.75h.87c1.109 0 1.87-.8 1.87-1.625 0-.83-.77-1.625-1.88-1.625 -.64 0-1.15.22-1.52.47 -.19.12-.33.23-.42.32 -.05.04-.08.07-.1.09 -.01.01-.02.01-.02.02l-.01 0c-.27.31-.74.35-1.06.09 -.32-.27-.37-.74-.1-1.06l0-.01 0-.01 0-.01 0-.01 .01-.02c.01-.02.02-.04.04-.06 .04-.05.09-.11.16-.17 .14-.14.35-.32.62-.49 .53-.36 1.33-.72 2.33-.72 1.79 0 3.37 1.32 3.37 3.125 0 .97-.47 1.81-1.19 2.375 .71.56 1.18 1.39 1.18 2.37 0 1.79-1.59 3.12-3.38 3.12 -1.01 0-1.81-.37-2.34-.72 -.27-.18-.48-.36-.63-.49 -.08-.07-.13-.13-.17-.17 -.03-.03-.04-.04-.05-.06l-.02-.02 -.01-.01 -.01-.01 -.01-.01 -.01-.01c-.27-.32-.23-.8.09-1.06 .31-.27.78-.23 1.05.09l0 0 0 0s0 .01.01.02c.01.02.05.05.09.09 .09.08.23.2.41.32 .36.24.88.47 1.51.47 1.109 0 1.87-.8 1.87-1.63 0-.83-.77-1.63-1.88-1.63h-.88c-.42 0-.75-.34-.75-.75Zm-.43 3.08l0 0 -.01-.01Z"/></svg>