<svg viewBox="0 0 24 24" xmlns="http://www.w3.org/2000/svg"><path fill="currentColor" d="M4.75 4h4c1.51 0 2.75 1.23 2.75 2.75v10.5c0 1.51-1.24 2.75-2.75 2.75h-4C3.23 20 2 18.76 2 17.25V6.75C2 5.23 3.23 4 4.75 4ZM6 9v6c0 .41.33.75.75.75 .41 0 .75-.34.75-.75V9c0-.42-.34-.75-.75-.75 -.42 0-.75.33-.75.75Zm9.25-5h4C20.76 4 22 5.23 22 6.75v10.5c0 1.51-1.24 2.75-2.75 2.75h-4c-1.52 0-2.75-1.24-2.75-2.75V6.75C12.5 5.23 13.73 4 15.25 4Zm2.25 5.75v1.5h-1.25c-.42 0-.75.33-.75.75v3c0 .41.33.75.75.75h2c.41 0 .75-.34.75-.75 0-.42-.34-.75-.75-.75H17v-1.5h1.25c.41 0 .75-.34.75-.75V9c0-.42-.34-.75-.75-.75h-2c-.42 0-.75.33-.75.75 0 .41.33.75.75.75h1.25Z"/></svg>