<svg viewBox="0 0 24 24" xmlns="http://www.w3.org/2000/svg"><path fill="currentColor" d="M22 12c0 5.52-4.48 10-10 10C6.47 22 2 17.52 2 12 2 6.47 6.47 2 12 2c5.52 0 10 4.47 10 10ZM10.75 7c-.4 0-.73.3-.75.69l-.26 3.52c-.02.21.06.42.21.57 .15.15.36.23.57.22l0-.01 .01-.01 .04-.01c.04-.01.1-.01.17-.01 .14-.01.34-.02.56-.02 .46-.02.93-.01 1.18.02 1.09.15 1.85 1.16 1.7 2.25 -.16 1.09-1.17 1.85-2.26 1.7 -.7-.1-1.27-.55-1.54-1.15 -.18-.38-.62-.55-1-.37 -.38.17-.55.61-.37.99 .48 1.04 1.46 1.82 2.69 2 1.91.26 3.68-1.07 3.95-2.98 .26-1.92-1.07-3.69-2.98-3.96l-.01-.01c-.39-.06-.98-.05-1.43-.04l-.01 0 .14-2h2.8c.41 0 .75-.34.75-.75 0-.42-.34-.75-.75-.75h-3.51Z"/></svg>