<svg viewBox="0 0 24 24" xmlns="http://www.w3.org/2000/svg"><path fill="currentColor" d="M12 22c5.52 0 10-4.48 10-10 0-5.53-4.48-10-10-10C6.47 2 2 6.47 2 12c0 5.52 4.47 10 10 10Zm0-14c-1.05 0-1.75.74-1.75 1.5 0 .75.7 1.5 1.75 1.5 1.04 0 1.75-.75 1.75-1.5 0-.76-.71-1.5-1.75-1.5Zm2.19 3.71c.78.58 1.3 1.48 1.3 2.53 0 1.86-1.64 3.25-3.5 3.25 -1.87 0-3.5-1.39-3.5-3.25 0-1.05.52-1.95 1.3-2.54 -.65-.54-1.06-1.32-1.06-2.22 0-1.73 1.53-3 3.25-3 1.71 0 3.25 1.27 3.25 3 0 .9-.42 1.67-1.06 2.21Zm-2.2.78c-1.18 0-2 .84-2 1.75 0 .9.82 1.75 2 1.75 1.17 0 2-.85 2-1.75 0-.91-.83-1.75-2-1.75Z"/></svg>