<svg viewBox="0 0 24 24" xmlns="http://www.w3.org/2000/svg"><path fill="currentColor" d="M13.43 11l-.41 2h-2.48l.4-2h2.47ZM6.24 3c-1.8 0-3.25 1.45-3.25 3.25v11.5c0 1.79 1.45 3.25 3.25 3.25h11.5c1.79 0 3.25-1.46 3.25-3.25V6.25c0-1.8-1.46-3.25-3.25-3.25H6.24Zm4.64 4.51c.4.08.66.47.58.88l-.23 1.1h2.47l.27-1.4c.08-.41.47-.67.88-.59 .4.08.66.47.58.88l-.23 1.1h.98c.41 0 .75.33.75.75 0 .41-.34.75-.75.75h-1.29l-.41 2h1.18c.41 0 .75.33.75.75 0 .41-.34.75-.75.75h-1.49l-.28 1.39c-.09.4-.48.66-.89.58 -.41-.09-.67-.48-.59-.89l.22-1.11h-2.48l-.28 1.39c-.09.4-.48.66-.89.58 -.41-.09-.67-.48-.59-.89l.22-1.11h-.99c-.42 0-.75-.34-.75-.75 0-.42.33-.75.75-.75H8.9l.4-2H8.11c-.42 0-.75-.34-.75-.75 0-.42.33-.75.75-.75h1.48l.27-1.4c.08-.41.47-.67.88-.59Z"/></svg>