<svg viewBox="0 0 24 24" xmlns="http://www.w3.org/2000/svg"><path fill="currentColor" d="M10.98 3.16c.09-.55-.28-1.07-.83-1.16 -.55-.1-1.07.27-1.16.82l-.87 5.16 -4.16 0c-.56 0-1 .44-1 1 0 .55.44.99 1 .99l3.81-.01 -.67 4 -4.16 0c-.56 0-1 .44-1 1 0 .55.44.99 1 .99l3.81-.01 -.81 4.83c-.1.54.27 1.06.82 1.15 .54.09 1.06-.28 1.15-.83l.86-5.17 4.97-.01 -.81 4.84c-.1.54.27 1.06.82 1.15 .54.09 1.06-.28 1.15-.83l.86-5.18 4.15-.01c.55-.01.99-.45.99-1.01 -.01-.56-.45-1-1.01-1l-3.82 0 .66-4.01 4.15-.01c.55-.01.99-.45.99-1.01 -.01-.56-.45-1-1.01-1l-3.82 0 .8-4.83c.09-.55-.28-1.06-.83-1.16 -.55-.1-1.06.27-1.16.82l-.86 5.15 -4.98 0 .8-4.84ZM9.84 9.99l4.97-.01 -.67 4 -4.98 0 .66-4.01Z"/></svg>