<svg viewBox="0 0 24 24" xmlns="http://www.w3.org/2000/svg"><path fill="currentColor" d="M10.98 3.16c.09-.55-.28-1.07-.83-1.16 -.55-.1-1.07.27-1.16.82l-.87 5.16 -4.16 0c-.56 0-1 .44-1 1 0 .55.44.99 1 .99l3.81-.01 -.67 4 -4.16 0c-.56 0-1 .44-1 1 0 .55.44.99 1 .99l3.81-.01 -.81 4.83c-.1.54.27 1.06.82 1.15 .54.09 1.06-.28 1.15-.83l.86-5.17 2.33-.01c.17-.73.46-1.4.84-2.01l-2.85 0 .66-4.01 4.97-.01 -.29 1.72c.65-.34 1.37-.57 2.13-.67l.17-1.06 4.15-.01c.55-.01.99-.45.99-1.01 -.01-.56-.45-1-1.01-1l-3.82 0 .8-4.83c.09-.55-.28-1.06-.83-1.16 -.55-.1-1.06.27-1.16.82l-.86 5.15 -4.98 0 .8-4.84Zm12.01 14.33c0 3.03-2.47 5.5-5.5 5.5 -3.04 0-5.5-2.47-5.5-5.5 0-3.04 2.46-5.5 5.5-5.5 3.03 0 5.5 2.46 5.5 5.5Zm-7.15-2.36c-.2-.2-.52-.2-.71 0 -.2.19-.2.51 0 .7l1.64 1.64 -1.65 1.64c-.2.19-.2.51 0 .7 .19.19.51.19.7 0l1.64-1.65 1.64 1.64c.19.19.51.19.7 0 .19-.2.19-.52 0-.71l-1.65-1.65 1.64-1.65c.19-.2.19-.52 0-.71 -.2-.2-.52-.2-.71 0l-1.65 1.64 -1.65-1.65Z"/></svg>