<svg viewBox="0 0 24 24" xmlns="http://www.w3.org/2000/svg"><path fill="currentColor" d="M6.74 3l10.5 0c2 0 3.64 1.57 3.74 3.55l0 .19v4.49c0 .41-.34.75-.75.75 -.38 0-.7-.29-.75-.65l-.01-.11v-4.5c-.01-1.2-.93-2.17-2.1-2.25l-.16-.01L6.7 4.45c-1.18-.01-2.15.9-2.25 2.05l-.01.15 0 10.53c0 1.19.92 2.16 2.09 2.24l.15 0h4.49c.41 0 .75.33.75.75 0 .37-.29.69-.65.74l-.11 0h-4.5c-2.01-.01-3.65-1.58-3.75-3.56l-.01-.2 -.01-10.5 0-.21c.1-1.92 1.634-3.45 3.54-3.55l.19-.01Zm3.19 6l6.05-.01c.55 0 1 .44 1 1 0 .51-.39.93-.89.99l-.12 0 -3.58-.01 6.54 6.54c.36.36.38.92.08 1.32l-.09.09c-.37.36-.93.38-1.32.08l-.1-.09 -6.55-6.55 0 3.59c0 .51-.39.93-.89.99l-.12 0c-.52 0-.94-.39-1-.89l-.01-.12V9.92l0-.09 .01-.11 0-.05 .01-.07 .03-.1 .06-.13c.04-.07.09-.14.14-.19l.1-.1L9.4 9l.1-.05 .08-.04 .11-.03 .11-.02 6.05-.01 -6.06 0Z"/></svg>