<svg viewBox="0 0 24 24" xmlns="http://www.w3.org/2000/svg"><path fill="currentColor" d="M3.28 2.21c-.3-.3-.77-.3-1.07-.01 -.3.29-.3.76-.01 1.06l1.26 1.26c-.31.49-.49 1.08-.49 1.7v11.5c0 1.79 1.45 3.25 3.25 3.25h11.5c.62 0 1.21-.18 1.7-.49l1.26 1.26c.29.29.76.29 1.06 0 .29-.3.29-.77 0-1.07L3.24 2.16Zm14.64 16.76c-.06 0-.12.01-.18.01H6.24c-.7 0-1.25-.56-1.25-1.25V6.23c0-.07 0-.12.01-.18l12.91 12.91ZM13 9.81l1.15 1.15c.19-.04.38-.13.53-.28l4.29-4.3v3.58c0 .55.44 1 1 1 .55 0 1-.45 1-1v-6c0-.56-.45-1-1-1h-6c-.56 0-1 .44-1 1 0 .55.44 1 1 1h3.58l-4.3 4.29c-.16.15-.25.34-.28.53Zm7.98 7.98l-2-2v-1.82c0-.56.44-1 1-1 .55 0 1 .44 1 1v3.75c0 .02-.01.04-.01.06ZM6.16 2.97l1.99 1.99h1.81c.55 0 1-.45 1-1 0-.56-.45-1-1-1H6.21c-.03 0-.05 0-.07 0Z"/></svg>