<svg viewBox="0 0 24 24" xmlns="http://www.w3.org/2000/svg"><path fill="currentColor" d="M6.25 5C5.55 5 5 5.55 5 6.25v11.5c0 .69.55 1.25 1.25 1.25h11.5c.69 0 1.25-.56 1.25-1.25V14c0-.56.44-1 1-1 .55 0 1 .44 1 1v3.75c0 1.79-1.46 3.25-3.25 3.25H6.25C4.45 21 3 19.54 3 17.75V6.25C3 4.45 4.45 3 6.25 3H10c.55 0 1 .44 1 1 0 .55-.45 1-1 1H6.25ZM14 5c-.56 0-1-.45-1-1 0-.56.44-1 1-1h6c.55 0 1 .44 1 1v6c0 .55-.45 1-1 1 -.56 0-1-.45-1-1V6.41l-4.3 4.29c-.4.39-1.03.39-1.42 0 -.4-.4-.4-1.03 0-1.42l4.29-4.3h-3.59Z"/></svg>