<svg viewBox="0 0 24 24" xmlns="http://www.w3.org/2000/svg"><path fill="currentColor" d="M8.75 13.5c1.53 0 2.82 1.06 3.16 2.5l9.33-.01c.41 0 .75.33.75.75 0 .37-.29.69-.65.74l-.11 0 -9.34 0c-.34 1.43-1.63 2.49-3.17 2.49s-2.83-1.07-3.17-2.5l-2.84-.01c-.42 0-.75-.34-.75-.75 0-.38.28-.7.64-.75l.1-.01 2.83 0c.33-1.44 1.62-2.51 3.16-2.51Zm6.5-9.5c1.53 0 2.82 1.06 3.16 2.5l2.83-.01c.41 0 .75.33.75.75 0 .37-.29.69-.65.74l-.11 0 -2.84 0c-.34 1.43-1.63 2.49-3.17 2.49s-2.83-1.07-3.17-2.5l-9.34-.01c-.42 0-.75-.34-.75-.75 0-.38.28-.7.64-.75l.1-.01 9.33 0c.33-1.44 1.62-2.51 3.16-2.51Z"/></svg>