<svg viewBox="0 0 24 24" xmlns="http://www.w3.org/2000/svg"><g fill="currentColor"><path d="M13.66 3.66c0-.47.37-.84.83-.84h6.66c.46 0 .83.37.83.83 0 .46-.38.83-.84.83h-6.67c-.47 0-.84-.38-.84-.84Zm-5.88-.18c-.18-.4-.58-.66-1.02-.66H2.81c-.47 0-.84.37-.84.83 0 .46.37.83.83.83h2.94c.43 0 .83.25 1.01.65l6.91 15.35c.17.39.57.65 1.01.65h6.44c.46 0 .83-.38.83-.84 0-.47-.38-.84-.84-.84h-5.45c-.44 0-.84-.26-1.02-.66L7.71 3.43Z"/><path fill="currentColor" fill-rule="evenodd" d="M1.75 3.66c0-.6.48-1.09 1.08-1.09h3.94c.53 0 1.02.31 1.24.8l6.91 15.35c.13.3.44.5.78.5h5.44c.59 0 1.08.48 1.08 1.08 0 .59-.49 1.08-1.09 1.08h-6.45c-.54 0-1.03-.32-1.25-.81L6.51 5.21c-.14-.31-.45-.51-.79-.51H2.77c-.6 0-1.09-.49-1.09-1.09Zm1.08-.59c-.33 0-.59.26-.59.58 0 .32.26.58.58.58h2.94c.53 0 1.02.31 1.24.8l6.91 15.35c.13.3.44.5.78.5h6.44c.32 0 .58-.27.58-.59 0-.33-.27-.59-.59-.59h-5.45c-.54 0-1.03-.32-1.25-.81L7.5 3.53c-.14-.31-.45-.51-.79-.51H2.76Zm10.58.58c0-.6.48-1.09 1.08-1.09h6.66c.59 0 1.08.48 1.08 1.08 0 .59-.49 1.08-1.09 1.08h-6.67c-.6 0-1.09-.49-1.09-1.09Zm1.08-.59c-.33 0-.59.26-.59.58 0 .32.26.58.58.58h6.66c.32 0 .58-.27.58-.59 0-.33-.27-.59-.59-.59h-6.67Z"/></g></svg>