<svg viewBox="0 0 24 24" xmlns="http://www.w3.org/2000/svg"><g fill="currentColor"><path d="M6 15.6c-1.99 0-3.61-1.62-3.61-3.61C2.39 10 4 8.38 5.99 8.38c1.78 0 3.26 1.29 3.55 3h1.84v-3.6c0-1 .8-1.8 1.8-1.8h1.24c.28-1.71 1.76-3.01 3.55-3.01 1.98 0 3.6 1.61 3.6 3.6 0 1.98-1.62 3.6-3.61 3.6 -1.79 0-3.27-1.3-3.56-3h-1.25c-.34 0-.6.26-.6.6v8.39c0 .33.26.6.6.6h1.24c.28-1.71 1.76-3.01 3.55-3.01 1.98 0 3.6 1.61 3.6 3.6 0 1.98-1.62 3.6-3.61 3.6 -1.79 0-3.27-1.3-3.56-3h-1.25c-1 0-1.8-.81-1.8-1.8v-3.6H9.47c-.29 1.7-1.77 3-3.56 3Z"/><path fill="currentColor" fill-rule="evenodd" d="M18 3.14c-1.71 0-3.13 1.24-3.41 2.87l-.03.12h-1.38c-.92 0-1.65.73-1.65 1.65v3.74H9.4l-.03-.13c-.28-1.64-1.7-2.88-3.41-2.88 -1.91 0-3.46 1.54-3.46 3.45 0 1.9 1.54 3.45 3.45 3.45 1.7 0 3.12-1.25 3.4-2.88l.02-.13h2.12v3.75c0 .91.73 1.65 1.65 1.65h1.37l.02.12c.27 1.63 1.69 2.87 3.4 2.87 1.9 0 3.45-1.55 3.45-3.46s-1.55-3.46-3.46-3.46c-1.71 0-3.13 1.24-3.41 2.87l-.03.12H13.1c-.42 0-.75-.34-.75-.75v-8.4c0-.42.33-.75.75-.75h1.37l.02.12c.27 1.63 1.69 2.87 3.4 2.87 1.9 0 3.45-1.55 3.45-3.46s-1.55-3.46-3.46-3.46Zm-3.68 2.7c.34-1.72 1.86-3.01 3.67-3.01 2.07 0 3.75 1.67 3.75 3.75 0 2.07-1.68 3.75-3.76 3.75 -1.82 0-3.33-1.29-3.68-3h-1.13c-.25 0-.45.2-.45.45v8.39c0 .24.2.45.45.45h1.12c.34-1.72 1.86-3.01 3.67-3.01 2.07 0 3.75 1.67 3.75 3.75 0 2.07-1.68 3.75-3.76 3.75 -1.82 0-3.33-1.29-3.68-3h-1.13c-1.077 0-1.95-.88-1.95-1.95v-3.45H9.61c-.35 1.71-1.87 3-3.68 3 -2.08 0-3.76-1.68-3.76-3.76s1.67-3.76 3.75-3.76c1.81 0 3.32 1.28 3.67 3h1.57V7.74c0-1.08.87-1.95 1.95-1.95h1.12Z"/></g></svg>