<svg viewBox="0 0 24 24" xmlns="http://www.w3.org/2000/svg"><path fill="currentColor" d="M7.99 5.75c0-2.08 1.67-3.76 3.75-3.76 2.07 0 3.75 1.67 3.75 3.75 0 1.81-1.29 3.32-3.01 3.67v2.07h3.25c1.24 0 2.25 1 2.25 2.25v.82c1.71.34 3 1.86 3 3.67 0 2.07-1.68 3.75-3.76 3.75s-3.76-1.68-3.76-3.76c0-1.82 1.28-3.33 3-3.68v-.83c0-.42-.34-.75-.75-.75h-8c-.42 0-.75.33-.75.75v.82c1.71.34 3 1.86 3 3.67 0 2.07-1.68 3.75-3.76 3.75s-3.76-1.68-3.76-3.76c0-1.82 1.28-3.33 3-3.68v-.83c0-1.25 1-2.25 2.25-2.25h3.25V9.34c-1.72-.35-3.01-1.87-3.01-3.68Z"/></svg>