<svg viewBox="0 0 24 24" xmlns="http://www.w3.org/2000/svg"><path fill="currentColor" d="M6.75 4c-.42 0-.75.33-.75.75 0 .41.33.75.75.75h1.5c.41 0 .75-.34.75-.75C9 4.33 8.66 4 8.25 4h-1.5ZM3.5 8.75c0-.42-.34-.75-.75-.75 -.42 0-.75.33-.75.75v1.5c0 .41.33.75.75.75 .41 0 .75-.34.75-.75v-1.5ZM2 12.9c0-1.05.85-1.9 1.9-1.9h8.35 1.85c1.04 0 1.9.85 1.9 1.9v5.2c0 1.04-.86 1.9-1.9 1.9H3.9C2.85 20 2 19.14 2 18.1v-5.2ZM12.25 11c-.42 0-.75-.34-.75-.75v-1.5c0-.42.33-.75.75-.75 .41 0 .75.33.75.75v1.5c0 .41-.34.75-.75.75Zm-8.5-5.5c-.14 0-.25.11-.25.25v.5c0 .41-.34.75-.75.75C2.33 7 2 6.66 2 6.25v-.5C2 4.78 2.78 4 3.75 4h.5c.41 0 .75.33.75.75 0 .41-.34.75-.75.75h-.5Zm7.75.25c0-.14-.12-.25-.25-.25h-.5c-.42 0-.75-.34-.75-.75 0-.42.33-.75.75-.75h.5c.96 0 1.75.78 1.75 1.75v.5c0 .41-.34.75-.75.75 -.42 0-.75-.34-.75-.75v-.5ZM17 16.07c0 .48.41.86.88.74 2.36-.62 4.11-2.77 4.11-5.33 0-2.7-1.94-4.94-4.49-5.41l.3-.36c.26-.32.23-.79-.09-1.06s-.79-.24-1.06.08l-1.5 1.75c-.25.28-.25.69 0 .97l1.5 1.75c.26.31.74.35 1.05.08 .31-.27.35-.75.08-1.06l-.6-.7c1.86.33 3.27 1.97 3.27 3.93 0 1.82-1.23 3.37-2.91 3.84 -.34.09-.6.38-.6.72Z"/></svg>