<svg viewBox="0 0 24 24" xmlns="http://www.w3.org/2000/svg"><path fill="currentColor" d="M3 6.25C3 4.45 4.45 3 6.25 3h11.5C19.54 3 21 4.45 21 6.25V8.5H3V6.25ZM8 7c.55 0 1-.45 1-1 0-.56-.45-1-1-1 -.56 0-1 .44-1 1 0 .55.44 1 1 1Zm5-1c0-.56-.45-1-1-1 -.56 0-1 .44-1 1 0 .55.44 1 1 1 .55 0 1-.45 1-1Zm4 0c0-.56-.45-1-1-1 -.56 0-1 .44-1 1 0 .55.44 1 1 1 .55 0 1-.45 1-1ZM3 17.75V10h18v7.75c0 1.79-1.46 3.25-3.25 3.25H6.25C4.45 21 3 19.54 3 17.75ZM7.25 12c-.7 0-1.25.55-1.25 1.25v3.5c0 .69.55 1.25 1.25 1.25h9.5c.69 0 1.25-.56 1.25-1.25v-3.5c0-.7-.56-1.25-1.25-1.25h-9.5Z"/></svg>