<svg viewBox="0 0 24 24" xmlns="http://www.w3.org/2000/svg"><path fill="currentColor" d="M3 4c.55 0 1 .44 1 1v14c0 .55-.45 1-1 1 -.56 0-1-.45-1-1V5c0-.56.44-1 1-1Zm18 0c.55 0 1 .44 1 1v1.75c0 .55-.45 1-1 1 -.56 0-1-.45-1-1V5c0-.56.44-1 1-1Zm0 5.25c.55 0 1 .44 1 1v3.5c0 .55-.45 1-1 1 -.56 0-1-.45-1-1v-3.5c0-.56.44-1 1-1Zm0 7c.55 0 1 .44 1 1V19c0 .55-.45 1-1 1 -.56 0-1-.45-1-1v-1.75c0-.56.44-1 1-1Zm-2.3-3.55c.39-.4.39-1.03 0-1.42l-5-5.01c-.4-.4-1.03-.4-1.42 0 -.4.39-.4 1.02 0 1.41l3.29 3.29H5.98c-.56 0-1 .44-1 1 0 .55.44 1 1 1h9.58l-3.3 3.29c-.4.39-.4 1.02 0 1.41 .39.39 1.02.39 1.41 0l5-5Z"/></svg>