<svg viewBox="0 0 24 24" xmlns="http://www.w3.org/2000/svg"><path fill="currentColor" d="M4 3c0-.56.44-1 1-1h1.75c.55 0 1 .44 1 1 0 .55-.45 1-1 1H5c-.56 0-1-.45-1-1Zm5.25 0c0-.56.44-1 1-1h3.5c.55 0 1 .44 1 1 0 .55-.45 1-1 1h-3.5c-.56 0-1-.45-1-1Zm7 0c0-.56.44-1 1-1H19c.55 0 1 .44 1 1 0 .55-.45 1-1 1h-1.75c-.56 0-1-.45-1-1ZM4 21c0-.56.44-1 1-1h14c.55 0 1 .44 1 1 0 .55-.45 1-1 1H5c-.56 0-1-.45-1-1Zm8.7-15.71c-.4-.4-1.03-.4-1.42 0l-5.01 5c-.4.39-.4 1.02 0 1.41 .39.39 1.02.39 1.41 0l3.29-3.3v9.58c0 .55.44 1 1 1 .55 0 1-.45 1-1V8.39l3.29 3.29c.39.39 1.02.39 1.41 0 .39-.4.39-1.03 0-1.42l-5-5.01Z"/></svg>