<svg viewBox="0 0 24 24" xmlns="http://www.w3.org/2000/svg"><path fill="currentColor" d="M3 4c-.56 0-1 .44-1 1v1.75c0 .55.44 1 1 1 .55 0 1-.45 1-1V5c0-.56-.45-1-1-1Zm0 5.25c-.56 0-1 .44-1 1v3.5c0 .55.44 1 1 1 .55 0 1-.45 1-1v-3.5c0-.56-.45-1-1-1Zm0 7c-.56 0-1 .44-1 1V19c0 .55.44 1 1 1 .55 0 1-.45 1-1v-1.75c0-.56-.45-1-1-1ZM21 4c-.56 0-1 .44-1 1v14c0 .55.44 1 1 1 .55 0 1-.45 1-1V5c0-.56-.45-1-1-1ZM5.29 12.7c-.4-.4-.4-1.03 0-1.42l5-5.01c.39-.4 1.02-.4 1.41 0 .39.39.39 1.02 0 1.41l-3.3 3.29h9.58c.55 0 1 .44 1 1 0 .55-.45 1-1 1H8.39l3.29 3.29c.39.39.39 1.02 0 1.41 -.4.39-1.03.39-1.42 0l-5.01-5Z"/></svg>