<svg viewBox="0 0 24 24" xmlns="http://www.w3.org/2000/svg"><path fill="currentColor" d="M4 3c0 .55.44 1 1 1h14c.55 0 1-.45 1-1 0-.56-.45-1-1-1H5c-.56 0-1 .44-1 1Zm0 18c0 .55.44 1 1 1h1.75c.55 0 1-.45 1-1 0-.56-.45-1-1-1H5c-.56 0-1 .44-1 1Zm5.25 0c0 .55.44 1 1 1h3.5c.55 0 1-.45 1-1 0-.56-.45-1-1-1h-3.5c-.56 0-1 .44-1 1Zm7 0c0 .55.44 1 1 1H19c.55 0 1-.45 1-1 0-.56-.45-1-1-1h-1.75c-.56 0-1 .44-1 1Zm1.45-7.3l-5 5c-.4.39-1.03.39-1.42 0l-5.01-5c-.4-.4-.4-1.03 0-1.42 .39-.4 1.02-.4 1.41 0l3.29 3.29V5.98c0-.56.44-1 1-1 .55 0 1 .44 1 1v9.58l3.29-3.3c.39-.4 1.02-.4 1.41 0 .39.39.39 1.02 0 1.41Z"/></svg>