<svg viewBox="0 0 24 24" xmlns="http://www.w3.org/2000/svg"><path fill="currentColor" d="M18.25 4C20.32 4 22 5.67 22 7.75v8.5c0 2.07-1.68 3.75-3.75 3.75H5.75C3.67 20 2 18.32 2 16.25v-8.5C2 5.67 3.67 4 5.75 4h12.5Zm0 9c-.38 0-.7.28-.75.64l-.01.1v1.25c0 .24-.18.44-.42.49l-.09 0h-1.25c-.42 0-.75.33-.75.75 0 .37.28.69.64.74l.1 0h1.25c1.05 0 1.91-.82 1.99-1.86l0-.15v-1.25c0-.42-.34-.75-.75-.75Zm-12.5 0c-.38 0-.7.28-.75.64l-.01.1v1.25c0 1.05.81 1.91 1.85 1.99l.14 0h1.25c.41 0 .75-.34.75-.75 0-.38-.29-.7-.65-.75l-.11-.01H6.97c-.25 0-.45-.18-.5-.42l-.01-.09v-1.25c0-.42-.34-.75-.75-.75Zm2.5-6H7l-.15 0c-.99.07-1.77.85-1.85 1.83l-.01.15v1.25l0 .1c.04.36.36.64.74.64 .37 0 .69-.29.74-.65l0-.11V8.96l0-.09c.03-.21.19-.37.4-.41l.08-.01H8.2l.1-.01c.36-.05.64-.37.64-.75s-.29-.7-.65-.75l-.11-.01ZM17 7h-1.25c-.42 0-.75.33-.75.75 0 .37.28.69.64.74l.1 0h1.25c.24 0 .44.17.49.41l0 .08v1.25c0 .41.33.75.75.75 .37 0 .69-.29.74-.65l0-.11V8.97c0-1.06-.82-1.92-1.86-2l-.15-.01Z"/></svg>