<svg viewBox="0 0 24 24" xmlns="http://www.w3.org/2000/svg"><path fill="currentColor" d="M12 2.25c0-.42-.34-.75-.75-.75 -.42 0-.75.33-.75.75v1.24c-.31.1-.6.28-.85.53l-6.88 6.87c-.88.87-.88 2.3 0 3.18l4.87 4.87c.87.87 2.3.87 3.18 0l6.87-6.88c.87-.88.87-2.31 0-3.19l-4.88-4.88c-.25-.25-.54-.43-.85-.54V2.2Zm-1.5 3.06v1.43c0 .41.33.75.75.75 .41 0 .75-.34.75-.75V5.3l4.65 4.65c.29.29.29.76 0 1.06l-.97.96H3.8c0-.02.01-.03.02-.04l6.65-6.66Zm9.02 8.29c-.33-.62-1.22-.62-1.55 0l-2.01 3.76c-1.12 2.09.4 4.63 2.77 4.63 2.378 0 3.89-2.54 2.77-4.64l-2.01-3.77Z"/></svg>