<svg viewBox="0 0 24 24" xmlns="http://www.w3.org/2000/svg"><path fill="currentColor" d="M12 2c-1.11 0-2 .89-2 2v3.5H7.11c-1.18 0-2.08.99-2.04 2.13 .01.39.02 1.35.02 1.86h13.9V9.74c0-1.25-1.01-2.25-2.25-2.25h-2.75v-3.5c0-1.11-.9-2-2-2ZM4.85 15.11c.08-.73.18-2.12.18-2.12h13.96v1.16c-.24-.12-.49-.17-.75-.17 -.47 0-.91.18-1.24.51l-2.5 2.5c-.69.68-.69 1.79 0 2.47 .55.55 1.37.65 2.03.31v2.19h-6c.16-.39.36-.88.53-1.39 .19-.6.3-1.04.35-1.35 .02-.16.04-.28.04-.36 0-.05 0-.08 0-.11 0-.02 0-.03 0-.04l0-.02 0-.01v-.01 -.01 -.01s0-.75-.75-.75c-.42 0-.75.32-.75.73 -.01 0-.01.01-.01.03 -.01.04-.02.11-.04.23 -.04.22-.13.59-.31 1.12 -.18.53-.39 1.04-.56 1.41 -.09.18-.16.33-.21.44H7.47c.12-.27.26-.59.4-.93 .4-.97.87-2.24 1.01-3.22 .05-.42-.23-.79-.64-.85 -.42-.06-.79.22-.85.63 -.12.77-.52 1.87-.92 2.84 -.2.47-.39.89-.54 1.19 -.06.12-.12.23-.15.31H3.62c-.28 0-.53-.16-.66-.4 -.14-.25-.13-.54.02-.77 .94-1.47 1.47-3.59 1.73-5.73Zm11.42 3.66c-.3.29-.77.29-1.07 0 -.3-.3-.3-.77 0-1.07l2.5-2.5c.14-.15.33-.22.53-.22 .19 0 .38.07.53.21l2.5 2.5c.29.29.29.76 0 1.06 -.3.29-.77.29-1.07 0l-1.22-1.22v4.68c0 .41-.34.75-.75.75 -.42 0-.75-.34-.75-.75v-4.69l-1.22 1.21Z"/></svg>