<svg viewBox="0 0 24 24" xmlns="http://www.w3.org/2000/svg"><path fill="currentColor" d="M10 4c0-1.11.89-2 2-2 1.1 0 2 .89 2 2v3.5h2.75c1.24 0 2.25 1 2.25 2.25v1.75H5.08c.01-.72-.01-1.36-.02-1.87 -.04-1.14.86-2.14 2.03-2.14h2.88v-3.5Zm-4.97 9h13.96v1.14c-.22-.1-.46-.15-.71-.15 -.97 0-1.75.78-1.75 1.75v2.44c-.66-.34-1.49-.24-2.04.31 -.69.68-.69 1.79 0 2.47l1.01 1.01h-4.98c.16-.39.36-.88.53-1.39 .19-.6.3-1.04.35-1.35 .02-.16.04-.28.04-.36 0-.05 0-.08 0-.11 0-.02 0-.03 0-.04l0-.02 0-.01v-.01 -.01 -.01c0-.42-.34-.75-.75-.75 -.42 0-.75.33-.75.73 -.01 0-.01.01-.01.03 -.01.04-.02.11-.04.23 -.04.22-.13.59-.31 1.12 -.18.53-.39 1.04-.56 1.41 -.09.18-.16.33-.21.44H7.46c.12-.27.26-.59.4-.93 .4-.97.87-2.24 1.01-3.22 .05-.42-.23-.79-.64-.85 -.42-.06-.79.22-.85.63 -.12.77-.52 1.87-.92 2.84 -.2.47-.39.89-.54 1.19 -.06.12-.12.23-.15.31H3.61c-.28 0-.53-.16-.66-.4 -.14-.25-.13-.54.02-.77 .94-1.47 1.47-3.59 1.73-5.73 .08-.73.14-1.44.18-2.12Zm10.18 6.21c.29-.3.76-.3 1.06 0l1.26 1.26v-4.74c0-.42.33-.75.75-.75 .41 0 .75.33.75.75v4.63l1.16-1.17c.29-.3.76-.3 1.06 0 .29.29.29.76 0 1.06l-2.5 2.5c-.15.14-.34.21-.54.21s-.39-.08-.54-.22l-2.5-2.5c-.3-.3-.3-.77 0-1.07Z"/></svg>