<svg viewBox="0 0 24 24" xmlns="http://www.w3.org/2000/svg"><path fill="currentColor" d="M18.26 21h-6.54c-.35.59-1 .99-1.74.99 -1.11 0-2-.9-2-2 0-.75.4-1.39 1-1.74l0-3.27 -3.27 0c-.33.55-.91.94-1.59.99l-.15 0c-1.11 0-2-.9-2-2 0-.75.4-1.39.99-1.74V5.69c-.6-.35-1-1-1-1.74 0-1.11.89-2 2-2 .74 0 1.38.4 1.73.99h6.53c.34-.6.99-1 1.73-1 1.1 0 2 .89 2 2 0 .73-.41 1.38-1 1.73l-.01 3.26 3.26-.01c.32-.56.9-.95 1.58-1l.14-.01c1.1 0 2 .89 2 2 0 .73-.41 1.38-1 1.73v6.53c.59.34.99.99.99 1.73 0 1.1-.9 2-2 2 -.74 0-1.39-.41-1.74-1h-6.54 6.53Zm0-10l-3.27-.01 0 1.26c.55.32.94.9.99 1.58l0 .14c0 1.1-.9 2-2 2 -.74 0-1.39-.41-1.74-1l-1.27-.01 0 3.26c.3.17.55.42.73.73h6.53c.17-.31.42-.56.73-.74v-6.54c-.26-.15-.48-.35-.64-.59l-.1-.15Zm-5.27-.01l-1.27 0c-.18.3-.43.55-.73.73l-.01 1.26 1.26-.01c.17-.31.42-.56.73-.74l0-1.27Zm-.74-6H5.71c-.18.3-.43.55-.74.73v6.53c.3.17.55.42.73.73h3.26l-.01-1.27c-.56-.33-.95-.91-1-1.59l-.01-.15c0-1.11.89-2 2-2 .74 0 1.38.4 1.73.99l1.26 0V5.69c-.26-.15-.48-.35-.64-.59l-.1-.15Z"/></svg>