<svg viewBox="0 0 24 24" xmlns="http://www.w3.org/2000/svg"><path fill="currentColor" d="M5.25 4C3.45 4 2 5.45 2 7.25v9.5C2 18.54 3.45 20 5.25 20h6.24c-.2-.48-.35-.98-.43-1.5H9.48v-13h9.25c.96 0 1.75.78 1.75 1.75v4.48c.55.28 1.05.65 1.5 1.07V7.24c0-1.8-1.46-3.25-3.25-3.25H5.23ZM23 17.5c0-3.04-2.47-5.5-5.5-5.5 -3.04 0-5.5 2.46-5.5 5.5 0 3.03 2.46 5.5 5.5 5.5 3.03 0 5.5-2.47 5.5-5.5Zm-5 .5l0 2.5c0 .27-.23.5-.5.5 -.28 0-.5-.23-.5-.5l-.01-2.51h-2.51c-.28 0-.5-.23-.5-.5 0-.28.22-.5.49-.5h2.5l-.01-2.51c0-.28.22-.5.5-.5 .27 0 .5.22.5.5l0 2.5h2.49c.27 0 .49.22.49.5 0 .27-.23.5-.5.5h-2.5Z"/></svg>