<svg viewBox="0 0 24 24" xmlns="http://www.w3.org/2000/svg"><g fill="currentColor"><path d="M12.6 10.59l1.04 1.19c.21.24.59.27.84.05 .24-.22.27-.6.05-.85l-2.1-2.41c-.12-.14-.28-.21-.46-.21s-.34.07-.46.2l-2.1 2.4c-.22.24-.2.62.05.84 .24.21.62.19.84-.06l1.04-1.2v4.41c0 .33.26.6.6.6 .33 0 .6-.27.6-.6v-4.42Zm-7.81-5.8c-1.33 0-2.4 1.07-2.4 2.4v9.59c0 1.32 1.07 2.4 2.4 2.4h14.4c1.32 0 2.39-1.08 2.39-2.41v-9.6c0-1.33-1.08-2.4-2.4-2.4H4.77Zm-1.2 2.4c0-.67.53-1.2 1.2-1.2h14.4c.66 0 1.19.53 1.19 1.2v6h-6.6v1.8c0 .99-.81 1.8-1.8 1.8 -1 0-1.8-.81-1.8-1.8v-1.81H3.57V7.17Z"/><path fill="currentColor" fill-rule="evenodd" d="M10.2 13.2V15c0 .99.8 1.8 1.8 1.8 .99 0 1.8-.81 1.8-1.8v-1.81h6.59V7.18c0-.67-.54-1.2-1.2-1.2H4.78c-.67 0-1.2.53-1.2 1.2v6h6.6Zm-6.51-.1V7.19c0-.61.49-1.1 1.1-1.1h14.4c.6 0 1.1.49 1.1 1.1v5.9h-6.5c-.06 0-.1.04-.1.1v1.8c0 .93-.77 1.7-1.7 1.7 -.94 0-1.7-.77-1.7-1.7v-1.81c0-.06-.05-.1-.1-.1H3.68Zm8.9-2.51V15c0 .33-.27.6-.6.6 -.34 0-.6-.27-.6-.6v-4.42l-1.05 1.19c-.22.24-.6.27-.85.05 -.25-.22-.28-.6-.06-.85l2.09-2.41c.11-.14.27-.21.45-.21 .17 0 .33.07.45.2l2.1 2.4c.21.24.19.62-.06.84 -.25.21-.63.19-.85-.06l-1.05-1.2Zm.1.26l.87.99c.25.29.69.32.98.06 .29-.26.32-.7.06-.99l-2.1-2.4c-.14-.16-.33-.24-.53-.24 -.21 0-.4.08-.53.23l-2.11 2.39c-.26.29-.23.73.06.98 .29.25.73.22.98-.07l.87-1v4.14c0 .38.31.7.7.7 .38 0 .7-.32.7-.7v-4.15ZM2.28 7.19c0-1.39 1.11-2.5 2.5-2.5h14.4c1.38 0 2.5 1.11 2.5 2.5v9.6c0 1.38-1.12 2.5-2.5 2.5H4.77c-1.39 0-2.5-1.12-2.5-2.5V7.18Zm.1 0c0-1.33 1.07-2.4 2.4-2.4h14.4c1.32 0 2.39 1.07 2.39 2.4v9.59c0 1.32-1.08 2.4-2.4 2.4H4.76c-1.33 0-2.4-1.08-2.4-2.41v-9.6Z"/></g></svg>