<svg viewBox="0 0 24 24" xmlns="http://www.w3.org/2000/svg"><g fill="currentColor"><path d="M12.6 10.59l1.04 1.19c.21.24.59.27.84.05 .24-.22.27-.6.05-.85l-2.1-2.41c-.12-.14-.28-.21-.46-.21s-.34.07-.46.2l-2.11 2.4c-.22.24-.2.62.05.84 .24.21.62.19.84-.06l1.04-1.2v4.41c0 .33.26.6.6.6 .33 0 .6-.27.6-.6v-4.42Zm-7.81 8.6c-1.33 0-2.4-1.08-2.4-2.41v-9.6c0-1.33 1.07-2.4 2.4-2.4h14.4c1.32 0 2.4 1.07 2.4 2.4v9.59c0 1.32-1.08 2.4-2.4 2.4H4.78Zm-1.2-2.41c0 .66.53 1.2 1.2 1.2h14.4c.66 0 1.2-.54 1.2-1.21v-6h-4.61c-.08-.22-.19-.42-.35-.6l-2.1-2.41c-.35-.4-.84-.62-1.36-.62 -.52 0-1.02.22-1.36.61l-2.11 2.4c-.16.17-.28.37-.35.59H3.54v5.99Z"/><path fill="currentColor" fill-rule="evenodd" d="M15.79 10.9c-.05 0-.09-.03-.1-.07 -.07-.2-.18-.39-.33-.56l-2.1-2.4c-.33-.37-.79-.59-1.28-.59 -.5 0-.96.21-1.28.58l-2.1 2.39c-.15.16-.26.35-.33.55 -.02.04-.06.06-.1.06H3.66v5.9c-.001.6.49 1.1 1.1 1.1h14.4c.6 0 1.1-.5 1.1-1.1v-5.9h-4.51Zm4.6-.1v5.99c0 .66-.54 1.2-1.2 1.2H4.78c-.67 0-1.2-.54-1.2-1.21v-6h4.6c.07-.22.18-.42.34-.6l2.1-2.41c.34-.4.83-.62 1.35-.62 .51 0 1.01.22 1.35.61l2.1 2.4c.15.17.27.37.34.59h4.6Zm-7.8-.21V15c0 .33-.27.6-.6.6 -.34 0-.6-.27-.6-.6v-4.42l-1.05 1.19c-.22.24-.6.27-.85.05 -.25-.22-.28-.6-.06-.85l2.1-2.41c.11-.14.27-.21.45-.21 .17 0 .33.07.45.2l2.1 2.4c.21.24.19.62-.06.84 -.25.21-.63.19-.85-.06l-1.05-1.2Zm.1.26l.87.99c.25.29.69.32.98.06 .29-.26.32-.7.06-.99l-2.1-2.4c-.14-.16-.33-.24-.53-.24 -.21 0-.4.08-.53.23l-2.11 2.39c-.26.29-.23.73.06.98 .29.25.73.22.98-.07l.87-1v4.14c0 .38.31.7.7.7 .38 0 .7-.32.7-.7v-4.15Zm-7.91 8.44c-1.39 0-2.5-1.12-2.5-2.5V7.18c0-1.39 1.11-2.5 2.5-2.5h14.4c1.38 0 2.5 1.11 2.5 2.5v9.6c0 1.38-1.12 2.5-2.5 2.5H4.77Zm-2.4-2.51c0 1.32 1.07 2.4 2.4 2.4h14.4c1.32 0 2.4-1.08 2.4-2.41v-9.6c0-1.33-1.08-2.4-2.4-2.4H4.77c-1.33 0-2.4 1.07-2.4 2.4v9.59Z"/></g></svg>