<svg viewBox="0 0 24 24" xmlns="http://www.w3.org/2000/svg"><path fill="currentColor" d="M9.19 9.24c.27-.31.75-.34 1.05-.06l2.5 2.24c.15.14.24.34.24.55 0 .21-.1.41-.25.55l-2.5 2.25c-.31.27-.79.25-1.06-.06 -.28-.31-.26-.79.05-1.06l1.04-.95H6.71c-.42 0-.75-.34-.75-.75 0-.42.33-.75.75-.75h3.54l-1.05-.95c-.31-.28-.34-.76-.06-1.06Zm12.8 8c0 1.51-1.24 2.75-2.75 2.75H4.74c-1.52 0-2.75-1.24-2.75-2.75V6.74c0-1.52 1.23-2.75 2.75-2.75h14.5c1.51 0 2.75 1.23 2.75 2.75v10.5Zm-7 1.25v-13H4.73c-.7 0-1.25.55-1.25 1.25v10.5c0 .69.55 1.25 1.25 1.25h10.25Z"/></svg>