<svg viewBox="0 0 24 24" xmlns="http://www.w3.org/2000/svg"><g fill="currentColor"><path d="M12.6 13.4l1.04-1.2c.21-.25.59-.28.84-.06 .24.21.27.59.05.84l-2.1 2.4c-.12.13-.28.2-.46.2s-.34-.08-.46-.21l-2.1-2.4c-.22-.25-.2-.63.05-.85 .24-.22.62-.2.84.05l1.04 1.19V8.94c0-.34.26-.6.6-.6 .33 0 .6.26.6.6v4.41Zm-7.81 5.79c-1.33 0-2.4-1.08-2.4-2.41v-9.6c0-1.33 1.07-2.4 2.4-2.4h14.4c1.32 0 2.39 1.07 2.39 2.4v9.59c0 1.32-1.08 2.4-2.4 2.4H4.77Zm-1.2-2.41c0 .66.53 1.2 1.2 1.2h14.4c.66 0 1.19-.54 1.19-1.21v-6h-6.6V8.96c0-1-.81-1.8-1.8-1.8 -1 0-1.8.8-1.8 1.8v1.8H3.57v5.99Z"/><path fill="currentColor" fill-rule="evenodd" d="M13.8 10.9c-.06 0-.1-.05-.1-.1V8.99c0-.94-.77-1.7-1.7-1.7 -.94 0-1.7.76-1.7 1.7v1.8c0 .05-.05.1-.1.1H3.69v5.9c0 .6.49 1.1 1.1 1.1h14.4c.6 0 1.1-.5 1.1-1.1v-5.9h-6.5Zm6.59-.1v5.99c0 .66-.54 1.2-1.2 1.2H4.78c-.67 0-1.2-.54-1.2-1.21v-6h6.6V8.97c0-1 .8-1.8 1.8-1.8 .99 0 1.8.8 1.8 1.8v1.8h6.59Zm-7.7 2.34l.87-1c.25-.3.69-.33.98-.07 .29.25.32.69.06.98l-2.1 2.4c-.14.15-.33.23-.53.23 -.21 0-.4-.09-.53-.24l-2.11-2.4c-.26-.3-.23-.74.06-.99 .29-.26.73-.23.98.06l.87.99V8.95c0-.39.31-.7.7-.7 .38 0 .7.31.7.7v4.14Zm.94-.94c.21-.25.59-.28.84-.06 .24.21.27.59.05.84l-2.1 2.4c-.12.13-.28.2-.46.2s-.34-.08-.46-.21l-2.1-2.4c-.22-.25-.2-.63.05-.85 .24-.22.62-.2.84.05l1.04 1.19V8.94c0-.34.26-.6.6-.6 .33 0 .6.26.6.6v4.41l1.04-1.2Zm-8.85 7.08c-1.39 0-2.5-1.12-2.5-2.5V7.17c0-1.39 1.11-2.5 2.5-2.5h14.4c1.38 0 2.5 1.11 2.5 2.5v9.6c0 1.38-1.12 2.5-2.5 2.5H4.77Zm-2.4-2.51c0 1.32 1.07 2.4 2.4 2.4h14.4c1.32 0 2.39-1.08 2.39-2.41v-9.6c0-1.33-1.08-2.4-2.4-2.4H4.76c-1.33 0-2.4 1.07-2.4 2.4v9.59Z"/></g></svg>