<svg viewBox="0 0 24 24" xmlns="http://www.w3.org/2000/svg"><path fill="currentColor" d="M14.19 14.75c.27.3.75.33 1.05.05l2.5-2.25c.15-.15.24-.35.24-.56 0-.22-.1-.42-.25-.56l-2.5-2.25c-.31-.28-.79-.26-1.06.05 -.28.3-.26.78.05 1.05l1.04.94h-3.55c-.42 0-.75.33-.75.74s.33.74.75.74h3.54l-1.05.94c-.31.27-.34.75-.06 1.05ZM1.99 6.74c0-1.52 1.23-2.75 2.75-2.75h14.5c1.51 0 2.75 1.23 2.75 2.75v10.5c0 1.51-1.24 2.75-2.75 2.75H4.74c-1.52 0-2.75-1.24-2.75-2.75V6.74Zm7-1.25v13h10.25c.69 0 1.25-.56 1.25-1.25V6.74c0-.7-.56-1.25-1.25-1.25H8.99Z"/></svg>