<svg viewBox="0 0 24 24" xmlns="http://www.w3.org/2000/svg"><g fill="currentColor"><path d="M2.4 7.19c0-1.99 1.61-3.6 3.6-3.6h12c1.98 0 3.6 1.61 3.6 3.6v8.4c0 1.98-1.62 3.6-3.6 3.6H6c-1.99 0-3.6-1.62-3.6-3.6V7.18ZM6 4.79c-1.33 0-2.4 1.07-2.4 2.4v6h16.8V7.18c0-1.33-1.08-2.4-2.4-2.4H6Z"/><path fill="currentColor" fill-rule="evenodd" d="M6 3.74c-1.91 0-3.45 1.54-3.45 3.45v8.4c0 1.9 1.54 3.45 3.45 3.45h12c1.9 0 3.45-1.55 3.45-3.45V7.18c0-1.91-1.55-3.45-3.45-3.45H6ZM2.25 7.19c0-2.08 1.67-3.75 3.75-3.75h12c2.07 0 3.75 1.67 3.75 3.75v8.4c0 2.07-1.68 3.75-3.75 3.75H6c-2.08 0-3.75-1.68-3.75-3.75V7.18Zm1.2 0c0-1.41 1.14-2.55 2.55-2.55h12c1.4 0 2.55 1.14 2.55 2.55v6c0 .08-.07.15-.15.15H3.6c-.09 0-.15-.07-.15-.15V7.18ZM6 4.94c-1.25 0-2.25 1-2.25 2.25v5.85h16.5V7.18c0-1.25-1.01-2.25-2.25-2.25H6Z"/></g></svg>