<svg viewBox="0 0 24 24" xmlns="http://www.w3.org/2000/svg"><path fill="currentColor" d="M2 7.25C2 5.45 3.45 4 5.25 4h13.5C20.54 4 22 5.45 22 7.25v5.55c-.45-.43-.95-.8-1.5-1.08V7.23c0-.97-.79-1.75-1.75-1.75H10v13h1.07c.08.52.22 1.02.42 1.5H5.24c-1.8 0-3.25-1.46-3.25-3.25v-9.5ZM4.75 8.5c0 .41.33.75.75.75h1.25c.41 0 .75-.34.75-.75 0-.42-.34-.75-.75-.75H5.5c-.42 0-.75.33-.75.75Zm0 3.5c0 .41.33.75.75.75h1.25c.41 0 .75-.34.75-.75 0-.42-.34-.75-.75-.75H5.5c-.42 0-.75.33-.75.75Zm.75 2.75c-.42 0-.75.33-.75.75 0 .41.33.75.75.75h1.25c.41 0 .75-.34.75-.75 0-.42-.34-.75-.75-.75H5.5ZM23 17.5c0-3.04-2.47-5.5-5.5-5.5 -3.04 0-5.5 2.46-5.5 5.5 0 3.03 2.46 5.5 5.5 5.5 3.03 0 5.5-2.47 5.5-5.5Zm-5 .5l0 2.5c0 .27-.23.5-.5.5 -.28 0-.5-.23-.5-.5l-.01-2.51h-2.51c-.28 0-.5-.23-.5-.5 0-.28.22-.5.49-.5h2.5l-.01-2.51c0-.28.22-.5.5-.5 .27 0 .5.22.5.5l0 2.5h2.49c.27 0 .49.22.49.5 0 .27-.23.5-.5.5h-2.5Z"/></svg>