<svg viewBox="0 0 24 24" xmlns="http://www.w3.org/2000/svg"><g fill="currentColor"><path d="M12.6 13.4l1.04-1.2c.21-.25.59-.28.84-.06 .24.21.27.59.05.84l-2.1 2.4c-.12.13-.28.2-.46.2s-.34-.08-.46-.21l-2.11-2.4c-.22-.25-.2-.63.05-.85 .24-.22.62-.2.84.05l1.04 1.19V8.94c0-.34.26-.6.6-.6 .33 0 .6.26.6.6v4.41ZM4.79 4.79c-1.33 0-2.4 1.07-2.4 2.4v9.59c0 1.32 1.07 2.4 2.4 2.4h14.4c1.32 0 2.4-1.08 2.4-2.41v-9.6c0-1.33-1.08-2.4-2.4-2.4H4.78Zm-1.2 2.4c0-.67.53-1.2 1.2-1.2h14.4c.66 0 1.2.53 1.2 1.2v6h-4.61c-.08.21-.19.41-.35.59l-2.1 2.4c-.35.39-.84.61-1.36.61 -.52 0-1.02-.23-1.36-.62l-2.11-2.4c-.16-.18-.28-.38-.35-.6H3.54V7.16Z"/><path fill="currentColor" fill-rule="evenodd" d="M8.2 13.2c.07.21.18.41.34.59l2.1 2.4c.34.39.83.61 1.35.61 .51 0 1.01-.23 1.35-.62l2.1-2.4c.15-.18.27-.38.34-.6h4.6V7.17c0-.67-.54-1.2-1.2-1.2H4.77c-.67 0-1.2.53-1.2 1.2v6h4.6Zm-4.51-.1h4.5c.04 0 .08.02.09.06 .06.19.17.38.32.55l2.09 2.4c.32.36.78.58 1.27.58s.95-.22 1.27-.59l2.1-2.4c.14-.17.25-.36.32-.56 .01-.05.05-.07.09-.07h4.5V7.16c0-.61-.5-1.1-1.1-1.1H4.73c-.61 0-1.1.49-1.1 1.1v5.9Zm9 .04l.87-1c.25-.3.69-.33.98-.07 .29.25.32.69.06.98l-2.1 2.4c-.14.15-.33.23-.53.23 -.21 0-.4-.09-.53-.24l-2.11-2.4c-.26-.3-.23-.74.06-.99 .29-.26.73-.23.98.06l.87.99V8.95c0-.39.31-.7.7-.7 .38 0 .7.31.7.7v4.14Zm.94-.94c.21-.25.59-.28.84-.06 .24.21.27.59.05.84l-2.1 2.4c-.12.13-.28.2-.46.2s-.34-.08-.46-.21l-2.11-2.4c-.22-.25-.2-.63.05-.85 .24-.22.62-.2.84.05l1.04 1.19V8.94c0-.34.26-.6.6-.6 .33 0 .6.26.6.6v4.41l1.04-1.2ZM2.28 7.18c0-1.39 1.11-2.5 2.5-2.5h14.4c1.38 0 2.5 1.11 2.5 2.5v9.6c0 1.38-1.12 2.5-2.5 2.5H4.77c-1.39 0-2.5-1.12-2.5-2.5V7.17Zm.1 0c0-1.33 1.07-2.4 2.4-2.4h14.4c1.32 0 2.4 1.07 2.4 2.4v9.59c0 1.32-1.08 2.4-2.4 2.4H4.77c-1.33 0-2.4-1.08-2.4-2.41v-9.6Z"/></g></svg>