<svg viewBox="0 0 24 24" xmlns="http://www.w3.org/2000/svg"><path fill="currentColor" d="M2 7.25C2 5.45 3.45 4 5.25 4h13.5C20.54 4 22 5.45 22 7.25v9.5c0 1.79-1.46 3.25-3.25 3.25H5.25C3.45 20 2 18.54 2 16.75v-9.5Zm8 11.25h8.75c.96 0 1.75-.79 1.75-1.75v-9.5c0-.97-.79-1.75-1.75-1.75H10v13Zm-5.25-10c0 .41.33.75.75.75h1.25c.41 0 .75-.34.75-.75 0-.42-.34-.75-.75-.75H5.5c-.42 0-.75.33-.75.75Zm0 3.5c0 .41.33.75.75.75h1.25c.41 0 .75-.34.75-.75 0-.42-.34-.75-.75-.75H5.5c-.42 0-.75.33-.75.75Zm.75 2.75c-.42 0-.75.33-.75.75 0 .41.33.75.75.75h1.25c.41 0 .75-.34.75-.75 0-.42-.34-.75-.75-.75H5.5Z"/></svg>