<svg viewBox="0 0 24 24" xmlns="http://www.w3.org/2000/svg"><g fill="currentColor"><path d="M3.6 2.4c-1.33 0-2.4 1.07-2.4 2.4v4.8c0 1.32 1.07 2.4 2.4 2.4h9.59c1.32 0 2.4-1.08 2.4-2.4V4.8c0-1.33-1.08-2.4-2.4-2.4h-9.6Zm0 14.4v-3.6h1.2v3.6c0 .66.53 1.2 1.2 1.2h14.39c.66 0 1.2-.54 1.2-1.2V7.2c0-.67-.54-1.2-1.2-1.2h-3.6V4.8h3.6c1.32 0 2.4 1.07 2.4 2.4v9.6c0 1.32-1.08 2.4-2.4 2.4H5.99c-1.33 0-2.4-1.08-2.4-2.4Z"/><path fill="currentColor" fill-rule="evenodd" d="M1.05 4.8c0-1.41 1.14-2.55 2.55-2.55h9.59c1.4 0 2.55 1.14 2.55 2.55v4.8c0 1.4-1.15 2.55-2.55 2.55h-9.6c-1.41 0-2.55-1.15-2.55-2.55V4.8ZM3.6 2.55c-1.25 0-2.25 1-2.25 2.25v4.8c0 1.24 1 2.25 2.25 2.25h9.59c1.24 0 2.25-1.01 2.25-2.25V4.8c0-1.25-1.01-2.25-2.25-2.25h-9.6Zm13.04 2.1h3.75c1.4 0 2.55 1.14 2.55 2.55v9.6c0 1.4-1.15 2.55-2.55 2.55H5.99c-1.41 0-2.55-1.15-2.55-2.55v-3.75h1.5v3.75c0 .57.47 1.05 1.05 1.05h14.39c.57 0 1.05-.48 1.05-1.05V7.2c0-.58-.48-1.05-1.05-1.05h-3.75v-1.5Zm.3.3v.9h3.45c.74 0 1.35.6 1.35 1.35v9.6c0 .74-.61 1.35-1.35 1.35H5.99c-.75 0-1.35-.61-1.35-1.35v-3.45h-.9v3.45c0 1.24 1 2.25 2.25 2.25h14.39c1.24 0 2.25-1.01 2.25-2.25V7.2c0-1.25-1.01-2.25-2.25-2.25h-3.45Z"/></g></svg>