<svg viewBox="0 0 24 24" xmlns="http://www.w3.org/2000/svg"><path fill="currentColor" d="M14.8 9.24c-.28-.31-.76-.34-1.06-.06l-2.5 2.24c-.16.14-.25.34-.25.55 0 .21.09.41.24.55l2.5 2.25c.3.27.78.25 1.05-.06s.25-.79-.06-1.06l-1.05-.95h3.54c.41 0 .75-.34.75-.75 0-.42-.34-.75-.75-.75h-3.55l1.04-.95c.3-.28.33-.76.05-1.06ZM1.99 6.74c0-1.52 1.23-2.75 2.75-2.75h14.5c1.51 0 2.75 1.23 2.75 2.75v10.5c0 1.51-1.24 2.75-2.75 2.75H4.74c-1.52 0-2.75-1.24-2.75-2.75V6.74Zm6.99-1.25v13h10.25c.69 0 1.25-.56 1.25-1.25V6.74c0-.7-.56-1.25-1.25-1.25H8.97Z"/></svg>