<svg viewBox="0 0 24 24" xmlns="http://www.w3.org/2000/svg"><g fill="currentColor"><path d="M8.18 12.6l1.19 1.04c.24.21.27.59.05.84 -.22.24-.6.27-.85.05l-2.4-2.1c-.14-.12-.21-.28-.21-.46s.07-.34.2-.46l2.4-2.11c.24-.22.62-.2.84.05 .21.24.19.62-.06.84l-1.2 1.04h4.41c.33 0 .6.26.6.6 0 .33-.27.6-.6.6H8.13Zm13.41 4.2c0 1.32-1.08 2.4-2.4 2.4H4.78c-1.33 0-2.4-1.08-2.4-2.4V7.2c0-1.33 1.07-2.4 2.4-2.4h14.4c1.32 0 2.4 1.07 2.4 2.4v9.6Zm-7.2 1.2V6H4.78c-.67 0-1.2.53-1.2 1.2v9.6c0 .66.53 1.2 1.2 1.2h9.6Z"/><path fill="currentColor" fill-rule="evenodd" d="M4.79 4.85c-1.3 0-2.35 1.05-2.35 2.35v9.6c0 1.29 1.05 2.35 2.35 2.35h14.4c1.29 0 2.35-1.06 2.35-2.35V7.2c0-1.3-1.06-2.35-2.35-2.35H4.78ZM2.34 7.2c0-1.36 1.09-2.45 2.45-2.45h14.4c1.35 0 2.45 1.09 2.45 2.45v9.6c0 1.35-1.1 2.45-2.45 2.45H4.78c-1.36 0-2.45-1.1-2.45-2.45V7.2Zm1.2 0c0-.7.55-1.25 1.25-1.25h9.6c.02 0 .05.02.05.05v12c0 .01-.01.02-.02.03 -.01 0-.03.01-.04.01H4.77c-.7 0-1.25-.56-1.25-1.25v-9.6Zm1.25-1.15c-.64 0-1.15.51-1.15 1.15v9.6c0 .63.51 1.15 1.15 1.15h9.55V6.05H4.78Zm4.6 3.48c-.21-.23-.55-.26-.78-.06l-2.4 2.1c-.12.1-.19.25-.19.41 0 .15.06.3.18.41l2.4 2.1c.22.2.57.17.77-.06 .2-.23.17-.58-.06-.78l-1.2-1.05c-.02-.02-.03-.04-.02-.06 0-.02.02-.04.04-.04h4.41c.3 0 .55-.25.55-.55 0-.31-.25-.55-.55-.55H8.12c-.03 0-.04-.02-.05-.04 -.01-.02-.01-.05.01-.06l1.19-1.05c.22-.2.25-.55.05-.78Zm-.85-.13c.27-.24.68-.21.91.06 .23.27.2.68-.07.91l-1.1.96h4.28c.35 0 .65.29.65.65 0 .35-.3.65-.65.65H8.27l1.09.96c.27.23.29.64.06.91 -.24.27-.65.29-.92.06l-2.4-2.1c-.15-.13-.23-.31-.23-.49 0-.19.08-.37.22-.49l2.4-2.1Z"/></g></svg>