<svg viewBox="0 0 24 24" xmlns="http://www.w3.org/2000/svg"><g fill="currentColor"><path d="M18 3.6c1.98 0 3.6 1.61 3.6 3.6v5.1c-1.15-.95-2.61-1.51-4.2-1.51 -1.33 0-2.57.39-3.6 1.06V4.78H5.99c-1.33 0-2.4 1.07-2.4 2.4v8.39c0 1.32 1.07 2.4 2.4 2.4h4.82c.03.41.11.81.22 1.2H5.98c-1.99 0-3.6-1.62-3.6-3.6v-8.4c0-1.99 1.61-3.6 3.6-3.6h12Zm4.8 13.79c0 2.98-2.42 5.4-5.4 5.4 -2.99 0-5.4-2.42-5.4-5.4 0-2.99 2.41-5.4 5.4-5.4 2.98 0 5.4 2.41 5.4 5.4Zm-4.8-2.4c0-.34-.27-.6-.6-.6 -.34 0-.6.26-.6.6v1.8H15c-.34 0-.6.26-.6.6 0 .33.26.6.6.6h1.8v1.8c0 .33.26.6.6.6 .33 0 .6-.27.6-.6v-1.8h1.8c.33 0 .6-.27.6-.6 0-.34-.27-.6-.6-.6H18v-1.8Z"/><path fill="currentColor" fill-rule="evenodd" d="M5.99 3.65c-1.96 0-3.55 1.58-3.55 3.55v8.39c0 1.96 1.59 3.55 3.55 3.55h4.98c-.1-.36-.17-.73-.21-1.1H5.97c-1.36 0-2.45-1.1-2.45-2.45v-8.4c0-1.36 1.09-2.45 2.45-2.45h7.85v7.02c1.02-.65 2.24-1.03 3.55-1.03 1.56 0 3.01.54 4.15 1.45V7.17c0-1.97-1.6-3.55-3.55-3.55H5.96ZM2.34 7.2c0-2.02 1.63-3.65 3.65-3.65h12c2.01 0 3.65 1.63 3.65 3.65v5.21l-.09-.07c-1.14-.94-2.59-1.5-4.17-1.5 -1.32 0-2.55.38-3.58 1.05l-.08.05V4.83H5.96c-1.3 0-2.35 1.05-2.35 2.35v8.39c0 1.29 1.05 2.35 2.35 2.35h4.87l0 .04c.03.4.11.8.21 1.19l.01.06H5.93c-2.02 0-3.65-1.64-3.65-3.65v-8.4Zm15.05 4.84c-2.96 0-5.35 2.39-5.35 5.35 0 2.95 2.39 5.35 5.35 5.35 2.95 0 5.35-2.4 5.35-5.35 0-2.96-2.4-5.35-5.35-5.35Zm-5.45 5.35c0-3.01 2.44-5.45 5.45-5.45 3 0 5.45 2.44 5.45 5.45 0 3.01-2.45 5.45-5.45 5.45 -3.01 0-5.45-2.44-5.45-5.45Zm4.8-2.4c0-.36.29-.65.65-.65 .35 0 .65.29.65.65v1.75h1.75c.35 0 .65.29.65.65 0 .35-.3.65-.65.65h-1.75v1.75c0 .35-.3.65-.65.65 -.36 0-.65-.3-.65-.65v-1.75h-1.75c-.36 0-.65-.3-.65-.65 0-.36.29-.65.65-.65h1.75v-1.75Zm.65-.55c-.31 0-.55.24-.55.55v1.85h-1.85c-.31 0-.55.24-.55.55 0 .3.24.55.55.55h1.85v1.85c0 .3.24.55.55.55 .3 0 .55-.25.55-.55v-1.85h1.85c.3 0 .55-.25.55-.55 0-.31-.25-.55-.55-.55h-1.85v-1.85c0-.31-.25-.55-.55-.55Z"/></g></svg>