<svg viewBox="0 0 24 24" xmlns="http://www.w3.org/2000/svg"><path fill="currentColor" d="M5.25 4C3.45 4 2 5.45 2 7.25v9.5C2 18.54 3.45 20 5.25 20h5.94c.08-.16.18-.31.31-.43l1.07-1.08H9.48v-13h9.25c.96 0 1.75.78 1.75 1.75v3.86c.54.12 1.05.34 1.5.64V7.23c0-1.8-1.46-3.25-3.25-3.25H5.23ZM23 15.5c0 1.93-1.57 3.5-3.5 3.5H18v1c0 .27-.23.5-.5.5h-1v1c0 .27-.23.5-.5.5h-1v.5c0 .27-.23.5-.5.5h-1.75c-.42 0-.75-.34-.75-.75v-1.44c0-.2.07-.39.21-.54l3.75-3.75c.04-.05.09-.09.15-.12 -.08-.3-.13-.6-.13-.92 0-1.94 1.56-3.5 3.5-3.5 1.93 0 3.5 1.56 3.5 3.5Zm-3 .5c.55 0 1-.45 1-1 0-.56-.45-1-1-1 -.56 0-1 .44-1 1 0 .55.44 1 1 1Z"/></svg>