<svg viewBox="0 0 24 24" xmlns="http://www.w3.org/2000/svg"><path fill="currentColor" d="M2 7.25C2 5.45 3.45 4 5.25 4h13.5C20.54 4 22 5.45 22 7.25v4.5c-.45-.31-.96-.53-1.5-.65v-.62h-11v8h3.08l-1.08 1.07c-.13.12-.24.27-.32.42H5.23c-1.8 0-3.25-1.46-3.25-3.25v-9.5ZM9.5 9h11V7.25c0-.97-.79-1.75-1.75-1.75H9.5V9Zm10 10c1.93 0 3.5-1.57 3.5-3.5 0-1.94-1.57-3.5-3.5-3.5 -1.94 0-3.5 1.56-3.5 3.5 0 .31.04.62.12.91 -.06.03-.11.07-.16.11l-3.75 3.75c-.15.14-.22.33-.22.53v1.43c0 .41.33.75.75.75h1.75c.27 0 .5-.23.5-.5v-.5h1c.27 0 .5-.23.5-.5v-1h1c.27 0 .5-.23.5-.5v-1h1.5Zm1.5-4c0 .55-.45 1-1 1 -.56 0-1-.45-1-1 0-.56.44-1 1-1 .55 0 1 .44 1 1Z"/></svg>