<svg viewBox="0 0 24 24" xmlns="http://www.w3.org/2000/svg"><path fill="currentColor" d="M5.24 5c-1.8 0-3.25 1.45-3.25 3.25v7.5c0 1.79 1.45 3.25 3.25 3.25h13.5c1.79 0 3.25-1.46 3.25-3.25v-7.5c0-1.8-1.46-3.25-3.25-3.25H5.23Zm1.03 5.21l.71.71 .71-.72c.29-.3.76-.3 1.06 0 .29.29.29.76 0 1.06l-.72.71 .71.71c.29.29.29.76 0 1.06 -.3.29-.77.29-1.07 0l-.72-.72 -.73.72c-.3.29-.77.29-1.07 0 -.3-.3-.3-.77 0-1.07l.71-.72 -.72-.72c-.3-.3-.3-.77-.01-1.07 .29-.3.76-.3 1.06-.01Zm5.49 0l.72.71 .71-.72c.29-.3.76-.3 1.06 0 .29.29.29.76 0 1.06l-.72.71 .71.71c.29.29.29.76 0 1.06 -.3.29-.77.29-1.07 0l-.72-.72 -.73.72c-.3.29-.77.29-1.07 0 -.3-.3-.3-.77 0-1.07l.71-.72 -.72-.72c-.3-.3-.3-.77-.01-1.07 .29-.3.76-.3 1.06-.01Zm3.96 4.03c0-.42.33-.75.75-.75h1.75c.41 0 .75.33.75.75 0 .41-.34.75-.75.75h-1.75c-.42 0-.75-.34-.75-.75Z"/></svg>