<svg viewBox="0 0 24 24" xmlns="http://www.w3.org/2000/svg"><path fill="currentColor" d="M9.79 3.23l1.49 1.49 -6.57 6.56 -1.5-1.5c-1.27-1.27-1.27-3.33 0-4.6l1.96-1.97c1.26-1.27 3.32-1.27 4.59 0Zm4.4 17.52l-1.5-1.5 6.56-6.57 1.49 1.49c1.26 1.26 1.26 3.327 0 4.59l-1.97 1.96c-1.27 1.26-3.33 1.26-4.6 0ZM3.22 14.18c-1.27 1.26-1.27 3.327 0 4.59l1.96 1.96c1.26 1.26 3.32 1.26 4.59 0L20.73 9.76c1.26-1.27 1.26-3.33 0-4.6l-1.97-1.97c-1.27-1.27-3.33-1.27-4.6 0L3.19 14.15Zm9.51-5.202c0 .41-.34.75-.75.75 -.42 0-.75-.34-.75-.75 0-.42.33-.75.75-.75 .41 0 .75.33.75.75Zm-3.75 3.75c-.42 0-.75-.34-.75-.75 0-.42.33-.75.75-.75 .41 0 .75.33.75.75 0 .41-.34.75-.75.75Zm3 0c-.42 0-.75-.34-.75-.75 0-.42.33-.75.75-.75 .41 0 .75.33.75.75 0 .41-.34.75-.75.75Zm3.75-.75c0 .41-.34.75-.75.75 -.42 0-.75-.34-.75-.75 0-.42.33-.75.75-.75 .41 0 .75.33.75.75Zm-3.75 3.75c-.42 0-.75-.34-.75-.75 0-.42.33-.75.75-.75 .41 0 .75.33.75.75 0 .41-.34.75-.75.75Z"/></svg>