<svg viewBox="0 0 24 24" xmlns="http://www.w3.org/2000/svg"><path fill="currentColor" d="M17.75 2C18.99 2 20 3 20 4.25v15.5c0 1.24-1.01 2.25-2.25 2.25H6.25C5 22 4 20.99 4 19.75V4.24c0-1.2.92-2.17 2.09-2.25l.15-.01h11.5Zm.75 14h-13v3.75c0 .41.33.75.75.75h11.5c.41 0 .75-.34.75-.75v-3.76ZM7.75 17.5h8.49c.41 0 .75.33.75.75 0 .37-.29.69-.65.74l-.11 0h-8.5c-.42 0-.75-.34-.75-.75 0-.38.28-.7.64-.75l.1-.01h8.49 -8.5Zm9.99-14H6.24l-.11 0c-.37.04-.65.36-.65.74v10.25h2.5v-2.26c0-.65.49-1.18 1.12-1.25l.12-.01h5.5c.64 0 1.17.49 1.24 1.12l0 .12v2.25h2.5V4.21c0-.42-.34-.75-.75-.75Zm-5.75 1.49c1.38 0 2.5 1.11 2.5 2.5 0 1.38-1.12 2.5-2.5 2.5 -1.39 0-2.5-1.12-2.5-2.5 0-1.39 1.11-2.5 2.5-2.5Z"/></svg>