<svg viewBox="0 0 24 24" xmlns="http://www.w3.org/2000/svg"><g fill="currentColor"><path d="M3.6 4.44v15.35c0 .99.8 1.8 1.8 1.8h2.4c.99 0 1.8-.81 1.8-1.8v-9.36l4.8 4.8v4.55c0 .99.8 1.8 1.8 1.8h2.4c.58 0 1.1-.29 1.43-.72l.53.53c.23.23.61.23.84 0 .23-.24.23-.62 0-.85l-18.01-18c-.24-.24-.62-.24-.85 0 -.24.23-.24.61 0 .84L3.56 4.4Zm10.8 7.4l6 6V4.18c0-1-.81-1.8-1.8-1.8h-2.4c-1 0-1.8.8-1.8 1.8v7.65ZM4.99 2.43l4.6 4.6V4.17c0-1-.81-1.8-1.8-1.8h-2.4c-.15 0-.28.01-.41.04Z"/><path fill="currentColor" fill-rule="evenodd" d="M4.98 2.39c.13-.04.27-.05.41-.05h2.4c1.02 0 1.85.82 1.85 1.85v2.97L4.88 2.4l.08-.03Zm.11.07l4.45 4.45V4.17c0-.97-.79-1.75-1.75-1.75h-2.4c-.11 0-.21 0-.31.02Zm9.25 1.72c0-1.03.82-1.85 1.85-1.85h2.4c1.02 0 1.85.82 1.85 1.85v13.77l-6.1-6.1V4.17Zm1.85-1.75c-.97 0-1.75.78-1.75 1.75v7.63l5.9 5.9V4.17c0-.97-.79-1.75-1.75-1.75h-2.4Zm-13.66.09c.25-.26.66-.26.91 0l17.99 18c.25.25.25.66 0 .91 -.26.25-.67.25-.92 0l-.5-.5c-.34.42-.86.68-1.45.68h-2.4c-1.03 0-1.85-.83-1.85-1.85v-4.54l-4.7-4.7v9.23c0 1.02-.83 1.85-1.85 1.85h-2.4c-1.03 0-1.85-.83-1.85-1.85V4.41L2.5 3.4c-.26-.26-.26-.67 0-.92Zm.84.07c-.22-.22-.57-.22-.78 0 -.22.21-.22.56 0 .77l1.03 1.03v15.37c0 .96.78 1.75 1.75 1.75h2.4c.96 0 1.75-.79 1.75-1.75v-9.48l4.9 4.9v4.57c0 .96.78 1.75 1.75 1.75h2.4c.57 0 1.07-.28 1.39-.7l.03-.05 .57.57c.21.21.56.21.77 0 .21-.22.21-.57 0-.78l-18-18.01Z"/></g></svg>