<svg viewBox="0 0 24 24" xmlns="http://www.w3.org/2000/svg"><g fill="currentColor"><path d="M14.4 4.2c0-1 .8-1.8 1.8-1.8h2.4c.99 0 1.8.8 1.8 1.8v7.31c-.9-.47-1.92-.72-3-.72 -1.09 0-2.1.25-3 .71V4.18Zm-10.8 0c0-1 .8-1.8 1.8-1.8h2.4c.99 0 1.8.8 1.8 1.8v15.6c0 .99-.81 1.8-1.8 1.8H5.4c-1 0-1.8-.81-1.8-1.8V4.2Zm10.87 9.53c.36 1.29-.42 2.64-1.72 2.97l-.56.14c-.02.18-.03.36-.03.55 0 .22.01.44.03.66l.41.09c1.34.31 2.14 1.7 1.74 3.02l-.16.5c.3.24.64.45 1 .62l.39-.42c.94-1.01 2.54-1.01 3.49 0l.4.42c.35-.17.68-.37.98-.6l-.19-.67c-.37-1.3.41-2.65 1.71-2.98l.55-.15c.01-.19.02-.37.02-.56 0-.23-.02-.45-.04-.67l-.42-.1c-1.35-.32-2.15-1.71-1.75-3.03l.15-.51c-.31-.25-.65-.46-1.01-.63l-.39.41c-.95 1-2.55 1-3.5-.01l-.41-.43c-.36.16-.69.36-.99.59l.18.66Zm2.92 4.86c-.67 0-1.2-.54-1.2-1.2 0-.67.53-1.2 1.2-1.2 .66 0 1.2.53 1.2 1.2 0 .66-.54 1.2-1.2 1.2Z"/><path fill="currentColor" fill-rule="evenodd" d="M5.4 2.45c-.97 0-1.75.78-1.75 1.75v15.6c0 .96.78 1.75 1.75 1.75h2.4c.96 0 1.75-.79 1.75-1.75V4.2c0-.97-.79-1.75-1.75-1.75H5.4ZM3.55 4.2c0-1.03.82-1.85 1.85-1.85h2.4c1.02 0 1.85.82 1.85 1.85v15.6c0 1.02-.83 1.85-1.85 1.85H5.4c-1.03 0-1.85-.83-1.85-1.85V4.2Zm12.64-1.75c-.97 0-1.75.78-1.75 1.75v7.23c.88-.45 1.89-.69 2.95-.69 1.05 0 2.061.24 2.95.68V4.18c0-.97-.79-1.75-1.75-1.75h-2.4ZM14.34 4.2c0-1.03.82-1.85 1.85-1.85h2.4c1.02 0 1.85.82 1.85 1.85v7.4l-.08-.04c-.9-.46-1.91-.72-2.98-.72 -1.08 0-2.09.25-2.98.71l-.08.03V4.17Zm.93 8.2l.42.45c.92.98 2.49.98 3.41 0l.41-.44 .03.01c.36.17.69.38 1.01.62l.02.02 -.17.53c-.39 1.29.39 2.64 1.71 2.95l.45.1 0 .03c.02.22.03.44.03.67 0 .18-.01.37-.03.55l-.01.03 -.59.14c-1.28.32-2.04 1.64-1.69 2.91l.19.7 -.03.02c-.31.23-.65.43-1 .6l-.04.01 -.43-.46c-.93-.99-2.5-.99-3.42-.01l-.42.43 -.04-.02c-.37-.18-.7-.39-1.02-.63l-.03-.03 .16-.54c.38-1.3-.4-2.65-1.72-2.96l-.46-.11 -.01-.04c-.03-.22-.04-.45-.04-.68 0-.19 0-.38.02-.56l0-.04 .58-.15c1.27-.33 2.03-1.65 1.68-2.92l-.2-.71 .02-.03c.3-.24.64-.44.99-.61l.03-.02Zm-.95.67l.17.63c.37 1.32-.42 2.69-1.76 3.03l-.52.13c-.02.16-.03.34-.03.51 0 .21.01.41.03.62l.38.09c1.37.32 2.18 1.73 1.78 3.08l-.15.47c.28.22.6.41.93.57l.36-.39c.96-1.03 2.59-1.03 3.56 0l.38.4c.32-.16.63-.34.91-.56l-.18-.64c-.38-1.33.41-2.7 1.75-3.04l.51-.14c.01-.17.02-.35.02-.52 0-.22-.02-.42-.04-.625l-.39-.1c-1.38-.33-2.19-1.74-1.79-3.09l.14-.48c-.29-.23-.61-.42-.94-.58l-.37.38c-.97 1.02-2.6 1.02-3.57-.01l-.38-.41c-.33.15-.64.33-.92.55Zm3.05 3.16c-.64 0-1.15.51-1.15 1.15 0 .63.51 1.15 1.15 1.15 .63 0 1.15-.52 1.15-1.15 0-.64-.52-1.15-1.15-1.15Zm-1.25 1.15c0-.7.55-1.25 1.25-1.25 .69 0 1.25.55 1.25 1.25 0 .69-.56 1.25-1.25 1.25 -.7 0-1.25-.56-1.25-1.25Z"/></g></svg>