<svg viewBox="0 0 24 24" xmlns="http://www.w3.org/2000/svg"><path fill="currentColor" d="M4.08 6.41c-.08-.1-.16-.19-.24-.27 -.32-.32-.7-.55-1.12-.69L1.34 5c-.11-.04-.2-.11-.27-.2 -.07-.1-.1-.21-.1-.32 0-.12.03-.23.09-.32 .06-.1.15-.17.26-.2l1.37-.45c.41-.15.78-.38 1.09-.7 .29-.31.52-.67.66-1.08l.01-.04L4.89.31c.03-.11.1-.2.19-.27s.2-.1.31-.1c.11 0 .22.03.31.09s.16.15.19.26l.44 1.37c.13.41.37.79.68 1.11 .31.31.69.54 1.11.68l1.37.44 .02 0c.1.03.19.1.26.19 .06.09.09.2.09.31 0 .11-.04.22-.1.31 -.07.09-.16.16-.27.19l-1.38.44c-.42.13-.8.37-1.12.68 -.32.31-.55.69-.69 1.11l-.45 1.37c-.01.01-.01.02-.02.03 -.04.09-.11.17-.19.22 -.1.06-.21.09-.32.09 -.12 0-.23-.04-.32-.1 -.1-.07-.17-.16-.2-.27l-.45-1.38c-.11-.31-.26-.6-.46-.85Zm7.69 3.8L11 9.96c-.24-.08-.45-.21-.62-.39 -.18-.18-.31-.39-.39-.62l-.25-.77c-.03-.06-.06-.11-.12-.15 -.06-.04-.12-.06-.18-.06 -.07 0-.13.01-.18.05 -.06.03-.09.08-.12.14l-.25.76c-.08.23-.21.44-.38.61 -.18.17-.38.3-.61.38l-.77.24c-.06.02-.12.05-.15.11 -.04.05-.06.11-.06.17 0 .06.01.12.05.17 .03.05.08.08.14.11l.76.24c.23.07.44.2.61.38 .17.17.3.38.38.61l.24.76c.02.05.05.11.11.14 .05.03.11.05.17.05 .06 0 .12-.02.17-.06 .05-.04.08-.09.11-.15l.24-.77c.07-.24.2-.45.38-.62 .17-.18.38-.31.61-.39l.76-.25c.05-.03.11-.06.14-.12 .03-.06.05-.12.05-.18 0-.07-.02-.13-.06-.18 -.04-.06-.09-.09-.15-.12l-.02-.01Zm.34-.95c.25.09.47.25.63.48l-.04.05c.15.21.24.48.24.74s-.09.53-.25.75c-.16.22-.39.4-.65.49l-.76.24c-.09.03-.17.07-.23.14 -.06.06-.11.13-.14.22l-.25.79c-.1.25-.26.47-.48.63 -.22.15-.49.24-.75.24 -.27 0-.54-.09-.75-.25 -.23-.17-.4-.39-.49-.65l-.24-.76c-.03-.09-.08-.17-.14-.23 -.07-.06-.14-.11-.22-.14l-.54-.18 -3.15 3.14c-.41.4-.7.91-.83 1.47l-1.1 4.6c-.07.25.01.51.19.7 .18.18.45.25.7.19l4.6-1.1c.55-.14 1.07-.42 1.47-.83l9.99-10c.67.68.67 1.78-.01 2.47l-1.79 1.78c-.3.29-.3.76 0 1.06 .29.29.76.29 1.06 0l1.78-1.79c1.26-1.27 1.26-3.33 0-4.6l.89-.9c1.39-1.4 1.39-3.67-.01-5.07 -1.4-1.4-3.67-1.4-5.07 0L10.7 8l.17.53c.01.08.05.15.11.22 .06.06.13.1.22.13l.73.27H12Z"/></svg>