<svg viewBox="0 0 24 24" xmlns="http://www.w3.org/2000/svg"><path fill="currentColor" d="M20.95 3.04c-1.4-1.4-3.67-1.4-5.07 0L3.92 14.99c-.41.4-.7.91-.83 1.47l-1.1 4.6c-.07.25.01.51.19.7 .18.18.45.25.7.19l4.6-1.1c.55-.14 1.07-.42 1.47-.83l1.15-1.16c-.11-.46-.16-.93-.16-1.41 0-3.59 2.91-6.5 6.5-6.5 .48 0 .95.05 1.4.15l3.04-3.05c1.39-1.4 1.39-3.67-.01-5.07Zm1.04 14.45c0-3.04-2.47-5.5-5.5-5.5 -3.04 0-5.5 2.46-5.5 5.5 0 3.03 2.46 5.5 5.5 5.5 3.03 0 5.5-2.47 5.5-5.5Zm-9.5 0c0-2.21 1.79-4 4-4 .83 0 1.6.25 2.24.69l-5.56 5.55c-.44-.65-.7-1.42-.7-2.25Zm4 4c-.84 0-1.61-.26-2.25-.7l5.55-5.56c.43.64.69 1.41.69 2.24 0 2.2-1.8 4-4 4Z"/></svg>