<svg viewBox="0 0 24 24" xmlns="http://www.w3.org/2000/svg"><path fill="currentColor" d="M15.89 3.04c1.39-1.4 3.66-1.4 5.06-.01 1.39 1.39 1.39 3.66 0 5.06l-3.05 3.04c-.46-.1-.93-.16-1.41-.16 -3.59 0-6.5 2.91-6.5 6.5 0 .48.05.95.15 1.4l-1.16 1.15c-.41.4-.92.69-1.48.82l-4.61 1.09c-.26.06-.52-.02-.71-.2 -.19-.19-.26-.46-.2-.71l1.09-4.61c.13-.56.41-1.08.82-1.48L15.84 2.97Zm6.1 14.45c0 3.03-2.47 5.5-5.5 5.5 -3.04 0-5.5-2.47-5.5-5.5 0-3.04 2.46-5.5 5.5-5.5 3.03 0 5.5 2.46 5.5 5.5Zm-7.15-2.36c-.2-.2-.52-.2-.71 0 -.2.19-.2.51 0 .7l1.64 1.64 -1.65 1.64c-.2.19-.2.51 0 .7 .19.19.51.19.7 0l1.64-1.65 1.64 1.64c.19.19.51.19.7 0 .19-.2.19-.52 0-.71l-1.65-1.65 1.64-1.65c.19-.2.19-.52 0-.71 -.2-.2-.52-.2-.71 0l-1.65 1.64 -1.65-1.65Z"/></svg>