<svg viewBox="0 0 24 24" xmlns="http://www.w3.org/2000/svg"><path fill="currentColor" d="M14 15.06l6.71 6.71c.29.29.76.29 1.06 0 .29-.3.29-.77 0-1.07L3.27 2.19c-.3-.3-.77-.3-1.07-.01 -.3.29-.3.76-.01 1.06L8.9 9.95l-5 4.99c-.41.4-.7.91-.83 1.47l-1.1 4.6c-.07.25.01.51.19.7 .18.18.45.25.7.19l4.6-1.1c.55-.14 1.07-.42 1.47-.83l4.99-5Zm4.99-2.54l-1.65 1.64 1.06 1.06 1.64-1.65c1.26-1.27 1.26-3.33 0-4.6l.89-.9c1.39-1.4 1.39-3.67-.01-5.07 -1.4-1.4-3.67-1.4-5.07 0l-4.84 4.83 5.06 5.06 2.87-2.88c.67.68.67 1.78-.01 2.47Z"/></svg>