<svg viewBox="0 0 24 24" xmlns="http://www.w3.org/2000/svg"><path fill="currentColor" d="M12 7c0 2.2-1.8 4-4 4 -2.21 0-4-1.8-4-4 0-2.21 1.79-4 4-4 2.2 0 4 1.79 4 4Zm4 3.83c.45-.22.95-.34 1.49-.34 .32 0 .64.04.94.12 .92-.52 1.55-1.5 1.55-2.63 0-1.66-1.35-3-3-3 -1.66 0-3 1.34-3 3 0 1.3.83 2.42 2 2.83Zm-2.31 3.29c-.99.33-1.71 1.26-1.71 2.36v2.49c-.89.58-2.17 1-4 1 -6 0-6-4.5-6-4.5v-.25c0-1.25 1-2.25 2.25-2.25h7.5c.83 0 1.56.45 1.95 1.13Zm1.29.86v-1c0-1.39 1.11-2.5 2.5-2.5 1.38 0 2.5 1.11 2.5 2.5v1h.5c.82 0 1.5.67 1.5 1.5v5c0 .82-.68 1.5-1.5 1.5h-6c-.83 0-1.5-.68-1.5-1.5v-5c0-.83.67-1.5 1.5-1.5h.5Zm1.5-1v1h2v-1c0-.56-.45-1-1-1 -.56 0-1 .44-1 1Zm2 5c0-.56-.45-1-1-1 -.56 0-1 .44-1 1 0 .55.44 1 1 1 .55 0 1-.45 1-1Z"/></svg>