<svg viewBox="0 0 24 24" xmlns="http://www.w3.org/2000/svg"><path fill="currentColor" d="M10.5 3.99c0 1.65-1.35 2.99-3 2.99 -1.66 0-3-1.35-3-3 0-1.66 1.34-3 3-3 1.65 0 3 1.34 3 2.99Zm-6.74 4c-.98 0-1.77.79-1.77 1.76v.35c-.01.2-.01 1.4.7 2.57 .54.91 1.47 1.72 2.97 2.09 .39-1.05 1.4-1.8 2.59-1.8h1.08c-.84-.74-1.36-1.81-1.36-3 0-.73.19-1.42.53-2H3.73Zm11.69 0c.34.58.53 1.27.53 2 0 .42-.07.83-.19 1.22 .53-.15 1.1-.23 1.68-.23 1.5 0 2.88.5 3.98 1.36 .51-1.06.51-2.05.51-2.24v-.36c0-.98-.8-1.77-1.77-1.77h-4.77Zm-3.45 6c-.65 1.01-1.03 2.21-1.03 3.5 0 1.28.37 2.48 1.02 3.5h-.03c-2.62 0-4.06-1.07-4.8-2.3 -.71-1.17-.71-2.37-.71-2.58v-.36c0-.98.79-1.77 1.76-1.77h3.75Zm4.47-7.01c1.65 0 3-1.35 3-3 0-1.66-1.35-3-3-3 -1.66 0-3 1.34-3 2.99 0 1.65 1.34 2.99 3 2.99Zm1 5c3.03 0 5.5 2.46 5.5 5.5 0 3.03-2.47 5.5-5.5 5.5 -3.04 0-5.5-2.47-5.5-5.5 0-3.04 2.46-5.5 5.5-5.5Zm.5 8.5l-.01-2.51h2.49c.27 0 .49-.23.49-.5 0-.28-.23-.5-.5-.5h-2.5l-.01-2.51c0-.28-.23-.5-.5-.5 -.28 0-.5.22-.5.5l0 2.5h-2.51c-.28 0-.5.22-.5.5 0 .27.22.5.49.5h2.5l0 2.5c0 .27.22.5.5.5 .27 0 .5-.23.5-.5Zm-9-10.35c.08 1.58 1.391 2.84 2.99 2.84 1.65 0 3-1.35 3-3 0-1.56-1.19-2.84-2.71-2.99 -.1-.01-.19-.02-.28-.02l-.02-.01c-1.66 0-3.01 1.34-3.01 2.99l0 .15Zm3.01-3.16c-.01-.01-.02-.01-.02-.01l.01 0Z"/></svg>