<svg viewBox="0 0 24 24" xmlns="http://www.w3.org/2000/svg"><g fill="currentColor"><path d="M16.33 11c-.29-.6-.89-1-1.59-1H9.23c-.97 0-1.75.78-1.75 1.75v4.74c0 2.14 1.49 3.933 3.49 4.38v-4.64c0-1.21.85-2.22 2-2.45v-.05c0-1.52 1.23-2.75 2.75-2.75h.58Z"/><path d="M22 13.73c-.01-1.52-1.24-2.74-2.75-2.74H17.4c-.11-.38-.29-.72-.53-1.01l3.37 0c.96 0 1.75.78 1.75 1.75v1.98Z"/><path d="M6.51 11.53c.04-.58.27-1.11.62-1.54l-3.39 0 -.15 0c-.9.07-1.61.82-1.61 1.74v3.24c0 2.2 1.79 4 4 4 .35 0 .7-.05 1.03-.14 -.35-.72-.54-1.52-.54-2.37v-4.75l0-.22Z"/><path d="M15 6c0-1.66-1.35-3-3-3 -1.66 0-3 1.34-3 3 0 1.65 1.34 3 3 3 1.65 0 3-1.35 3-3Z"/><path d="M21 6.5C21 5.11 19.88 4 18.5 4 17.11 4 16 5.11 16 6.5 16 7.88 17.11 9 18.5 9 19.88 9 21 7.88 21 6.5Z"/><path d="M8 6.5C8 5.11 6.88 4 5.5 4 4.11 4 3 5.11 3 6.5 3 7.88 4.11 9 5.5 9 6.88 9 8 7.88 8 6.5Z"/><path fill="currentColor" fill-rule="evenodd" d="M14 14.75h-.5c-.83 0-1.5.67-1.5 1.5V18h3v-.5c0-.28.22-.5.5-.5 .27 0 .5.22.5.5v.5h3v-.5c0-.28.22-.5.5-.5 .27 0 .5.22.5.5v.5h3v-1.75c0-.83-.68-1.5-1.5-1.5H21v-1c0-.97-.79-1.75-1.75-1.75h-3.5c-.97 0-1.75.78-1.75 1.75v1Zm1.5-1c0-.14.11-.25.25-.25h3.5c.13 0 .25.11.25.25v1h-4v-1Z"/><path d="M19 19v.5c0 .27.22.5.5.5 .27 0 .5-.23.5-.5V19h3v2.5c0 .82-.68 1.5-1.5 1.5h-8c-.83 0-1.5-.68-1.5-1.5V19h3v.5c0 .27.22.5.5.5 .27 0 .5-.23.5-.5V19h3Z"/></g></svg>