<svg viewBox="0 0 24 24" xmlns="http://www.w3.org/2000/svg"><path fill="currentColor" d="M10.5 6c0 1.65-1.35 3-3 3 -1.66 0-3-1.35-3-3 0-1.66 1.34-3 3-3 1.65 0 3 1.34 3 3Zm-5.75 4C3.78 10 3 10.78 3 11.75v4.75C3 18.98 5.01 21 7.5 21c2.48 0 4.5-2.02 4.5-4.5v-4.75c0-.97-.79-1.75-1.75-1.75h-5.5Zm6.11 10.85c1.3-1.01 2.13-2.59 2.13-4.36v-4.75c0-.67-.24-1.28-.63-1.75h2.37c.96 0 1.75.78 1.75 1.75v4.75c0 2.48-2.02 4.5-4.5 4.5 -.4 0-.78-.06-1.14-.15Zm.63-14.86c0 .99-.37 1.91-.98 2.61 .43.24.93.38 1.47.38 1.65 0 3-1.35 3-3 0-1.66-1.35-3-3-3 -.54 0-1.04.14-1.48.38 .6.7.97 1.61.97 2.61Zm3.86 14.85c1.3-1.01 2.13-2.59 2.13-4.36v-4.75c0-.67-.24-1.28-.63-1.75h2.37c.96 0 1.75.78 1.75 1.75v4.75c0 2.48-2.02 4.5-4.5 4.5 -.4 0-.78-.06-1.14-.15Zm.63-14.86c0 .99-.37 1.91-.98 2.61 .43.24.93.38 1.47.38 1.65 0 3-1.35 3-3 0-1.66-1.35-3-3-3 -.54 0-1.04.14-1.48.38 .6.7.97 1.61.97 2.61Z"/></svg>