<svg viewBox="0 0 24 24" xmlns="http://www.w3.org/2000/svg"><path fill="currentColor" d="M17.5 12c3.03 0 5.5 2.46 5.5 5.5 0 3.03-2.47 5.5-5.5 5.5 -3.04 0-5.5-2.47-5.5-5.5 0-3.04 2.46-5.5 5.5-5.5Zm-3.25-2c.83 0 1.56.45 1.95 1.12 -2.98.6-5.21 3.22-5.21 6.37 0 1.28.37 2.49 1.02 3.5l-.02-.01c-2.49 0-4.51-2.02-4.51-4.51v-4.25c0-1.25 1-2.25 2.25-2.25h4.5Zm.83 4.96l-.07.05 -.06.06c-.12.17-.12.39 0 .56l.05.06 1.76 1.76 -1.77 1.76 -.06.06c-.12.17-.12.39 0 .56l.05.06 .06.05c.17.11.39.11.56 0l.06-.06 1.76-1.77 1.76 1.76 .06.05c.17.11.39.11.56 0l.06-.06 .05-.07c.11-.18.11-.4 0-.57l-.06-.07 -1.77-1.77 1.77-1.77 .05-.07c.11-.18.11-.4 0-.57l-.06-.07 -.07-.06c-.18-.12-.4-.12-.57 0l-.07.05 -1.78 1.76 -1.77-1.77 -.07-.06c-.15-.11-.34-.12-.5-.05l-.08.04ZM7.39 9.99c-.52.53-.85 1.24-.9 2.03l-.01.21v4.24c0 .84.19 1.64.53 2.36 -.33.08-.68.13-1.04.13 -2.21 0-4.01-1.8-4.01-4.01V12.2c0-1.2.92-2.17 2.09-2.25l.15-.01 3.15 0Zm12.34-.01c1.24 0 2.25 1 2.25 2.25l0 .56c-1.17-1.13-2.76-1.82-4.51-1.82l-.25 0c-.16-.38-.38-.72-.66-1.01l3.15-.01Zm-1.25-6c1.38 0 2.5 1.11 2.5 2.5 0 1.38-1.12 2.5-2.5 2.5 -1.39 0-2.5-1.12-2.5-2.5 0-1.39 1.11-2.5 2.5-2.5Zm-6.5-1c1.65 0 3 1.34 3 3 0 1.65-1.35 3-3 3 -1.66 0-3-1.35-3-3 0-1.66 1.34-3 3-3Zm-6.5 1c1.38 0 2.5 1.11 2.5 2.5 0 1.38-1.12 2.5-2.5 2.5 -1.39 0-2.5-1.12-2.5-2.5 0-1.39 1.11-2.5 2.5-2.5Z"/></svg>