<svg viewBox="0 0 24 24" xmlns="http://www.w3.org/2000/svg"><path fill="currentColor" d="M8 12c2.2 0 4-1.8 4-4 0-2.21-1.8-4-4-4C5.79 4 4 5.79 4 8c0 2.2 1.79 4 4 4Zm9 0c1.65 0 3-1.35 3-3 0-1.66-1.35-3-3-3 -1.66 0-3 1.34-3 3 0 1.65 1.34 3 3 3ZM4.25 14C3 14 2 15 2 16.25v.25s0 4.5 6 4.5 6-4.5 6-4.5v-.25C14 15 12.99 14 11.75 14h-7.5ZM17 19.5c-1.18 0-2.07-.19-2.76-.46 .34-.58.52-1.13.62-1.56 .06-.26.09-.49.1-.65 0-.09.01-.16.01-.22 0-.03 0-.06 0-.08l0-.03 0-.02v-.01 -.01c0-.01 0-.01 0-.01v-.25c0-.88-.35-1.67-.91-2.25 .03-.01.06-.01.1-.01h5.6c1.21 0 2.2.98 2.2 2.2 0 0 0 3.3-5 3.3Z"/></svg>