<svg viewBox="0 0 24 24" xmlns="http://www.w3.org/2000/svg"><path fill="currentColor" d="M8 11c2.2 0 4-1.8 4-4 0-2.21-1.8-4-4-4C5.79 3 4 4.79 4 7c0 2.2 1.79 4 4 4Zm9 0c1.65 0 3-1.35 3-3 0-1.66-1.35-3-3-3 -1.66 0-3 1.34-3 3 0 1.65 1.34 3 3 3ZM4.25 13C3 13 2 14 2 15.25v.25s0 4.5 6 4.5c1.38 0 2.45-.25 3.27-.62 -.19-.6-.28-1.24-.28-1.89 0-1.66.61-3.17 1.64-4.32 -.28-.12-.58-.19-.9-.19h-7.5ZM23 17.5c0-3.04-2.47-5.5-5.5-5.5 -3.04 0-5.5 2.46-5.5 5.5 0 3.03 2.46 5.5 5.5 5.5 3.03 0 5.5-2.47 5.5-5.5Zm-5 .5l0 2.5c0 .27-.23.5-.5.5 -.28 0-.5-.23-.5-.5l-.01-2.51h-2.51c-.28 0-.5-.23-.5-.5 0-.28.22-.5.49-.5h2.5l-.01-2.51c0-.28.22-.5.5-.5 .27 0 .5.22.5.5l0 2.5h2.49c.27 0 .49.22.49.5 0 .27-.23.5-.5.5h-2.5Z"/></svg>