<svg viewBox="0 0 24 24" xmlns="http://www.w3.org/2000/svg"><path fill="currentColor" d="M12 6.9c0 2.15-1.75 3.9-3.9 3.9 -2.16 0-3.9-1.75-3.9-3.9C4.2 4.74 5.94 3 8.1 3c2.15 0 3.89 1.74 3.89 3.9Zm5.4 3.9c1.65 0 3-1.35 3-3 0-1.66-1.35-3-3-3 -1.66 0-3 1.34-3 3 0 1.65 1.34 3 3 3Zm-3.92 1.71c-.11.23-.19.47-.24.73 -1.4.25-2.46 1.48-2.46 2.94v2.63c-.74.23-1.63.36-2.7.36 -6.3 0-6.3-4.8-6.3-4.8 0-1.33 1.07-2.4 2.4-2.4h7.79c.56 0 1.07.19 1.48.51Zm.91 1.88v-.6c0-1 .8-1.8 1.8-1.8h2.4c.99 0 1.8.8 1.8 1.8v.6h.6c.99 0 1.8.8 1.8 1.8v1.8h-2.4v-.6c0-.34-.27-.6-.6-.6 -.34 0-.6.26-.6.6v.6h-3.61v-.6c0-.34-.27-.6-.6-.6 -.34 0-.6.26-.6.6v.6h-2.4v-1.8c0-1 .8-1.8 1.8-1.8h.6Zm1.2-.6v.6h3.6v-.6c0-.34-.27-.6-.61-.6h-2.4c-.34 0-.6.26-.6.6Zm4.8 5.4h2.4v1.8c0 .99-.81 1.8-1.8 1.8h-7.2c-1 0-1.8-.81-1.8-1.8v-1.8h2.4v.6c0 .33.26.6.6.6 .33 0 .6-.27.6-.6v-.6h3.6v.6c0 .33.26.6.59.6 .33 0 .6-.27.6-.6v-.6Z"/></svg>