<svg viewBox="0 0 24 24" xmlns="http://www.w3.org/2000/svg"><path fill="currentColor" d="M8 11c2.2 0 4-1.8 4-4 0-2.21-1.8-4-4-4C5.79 3 4 4.79 4 7c0 2.2 1.79 4 4 4Zm9 0c1.65 0 3-1.35 3-3 0-1.66-1.35-3-3-3 -1.66 0-3 1.34-3 3 0 1.65 1.34 3 3 3ZM4.25 13C3 13 2 14 2 15.25v.25s0 4.5 6 4.5c1.38 0 2.45-.25 3.27-.62 -.19-.6-.28-1.24-.28-1.89 0-1.66.61-3.17 1.64-4.32 -.28-.12-.58-.19-.9-.19h-7.5ZM23 17.5c0 3.03-2.47 5.5-5.5 5.5 -3.04 0-5.5-2.47-5.5-5.5 0-3.04 2.46-5.5 5.5-5.5 3.03 0 5.5 2.46 5.5 5.5Zm-2.86-2.36l-3.65 3.64 -1.65-1.65c-.2-.2-.52-.2-.71 0 -.2.19-.2.51 0 .7l2 2c.19.19.51.19.7 0l4-4c.19-.2.19-.52 0-.71 -.2-.2-.52-.2-.71 0Z"/></svg>