<svg viewBox="0 0 24 24" xmlns="http://www.w3.org/2000/svg"><path fill="currentColor" d="M12 8c0 2.2-1.8 4-4 4 -2.21 0-4-1.8-4-4 0-2.21 1.79-4 4-4 2.2 0 4 1.79 4 4Zm8 1c0 1.65-1.35 3-3 3 -1.66 0-3-1.35-3-3 0-1.66 1.34-3 3-3 1.65 0 3 1.34 3 3ZM2 16.25C2 15 3 14 4.25 14h7.5c.37 0 .71.08 1.02.24L10.5 16.5c-.69.68-.69 1.79 0 2.47l1.18 1.18c-.87.48-2.06.82-3.7.82 -6 0-6-4.5-6-4.5v-.25Zm18.28-1.53c-.3-.3-.77-.3-1.07 0 -.3.29-.3.76 0 1.06l1.21 1.21h-6.88l1.21-1.22c.29-.3.29-.77 0-1.07 -.3-.3-.77-.3-1.07 0l-2.5 2.49c-.3.29-.3.76 0 1.06l2.49 2.49c.29.29.76.29 1.06 0 .29-.3.29-.77 0-1.07l-1.22-1.22h6.87l-1.22 1.21c-.3.29-.3.76 0 1.06 .29.29.76.29 1.06 0l2.49-2.5c.29-.3.29-.77 0-1.07l-2.5-2.5Z"/></svg>