<svg viewBox="0 0 24 24" xmlns="http://www.w3.org/2000/svg"><path fill="currentColor" d="M8.14 11.14c2.13 0 3.85-1.73 3.85-3.86 0-2.14-1.73-3.86-3.86-3.86 -2.14 0-3.86 1.72-3.86 3.85s1.72 3.85 3.85 3.85Zm11.99-3.01c0 1.65-1.35 3-3 3 -1.66 0-3-1.35-3-3.01 0-1.66 1.34-3 3-3 1.65 0 3 1.34 3 3ZM1.7 14.77c0-1.07.86-1.93 1.92-1.93h8.99c.16 0 .33.02.49.06 -1.23 1.17-2 2.82-2 4.65 0 .56.07 1.12.21 1.64 -.84.3-1.89.49-3.22.49 -6.43 0-6.43-4.5-6.43-4.5v-.43Zm10.28 2.78c0 3.07 2.49 5.57 5.57 5.57 3.07 0 5.57-2.5 5.57-5.58s-2.5-5.58-5.58-5.58c-3.077 0-5.58 2.49-5.58 5.57Zm4.58-3.5c.54-.17 1.11-.19 1.67-.08 .55.11 1.07.36 1.5.72 .32.27.59.6.8.97v-.7c0-.24.19-.43.42-.43 .23 0 .42.19.42.42v1.71c0 .23-.2.42-.43.42h-1.72c-.24 0-.43-.2-.43-.43 0-.24.19-.43.42-.43h.62c-.16-.35-.4-.66-.7-.91 -.33-.28-.72-.46-1.14-.55 -.42-.09-.85-.07-1.26.05 -.41.12-.78.34-1.08.64 -.17.16-.44.16-.61 0 -.17-.17-.17-.44 0-.61 .4-.41.89-.7 1.43-.86Zm1.97 6.99c-.55.16-1.12.18-1.68.07 -.56-.12-1.08-.37-1.51-.73 -.33-.28-.6-.61-.81-.98v.69c0 .23-.2.42-.43.42 -.24 0-.43-.2-.43-.43v-1.72c0-.24.19-.43.42-.43h1.71c.23 0 .42.19.42.42 0 .23-.2.42-.43.42h-.63c.15.34.39.65.69.9 .32.27.71.45 1.13.54 .41.08.84.06 1.25-.06 .4-.13.77-.35 1.07-.65 .16-.17.43-.17.6 0 .16.16.16.43 0 .6 -.41.4-.9.69-1.44.85Z"/></svg>