<svg viewBox="0 0 24 24" xmlns="http://www.w3.org/2000/svg"><path fill="currentColor" d="M14.754 10c.96 0 1.75.78 1.75 1.75V15h-.01v1h-9v-3h0v-1.25c0-.97.78-1.75 1.75-1.75h5.5ZM22 11.75c0-.97-.79-1.75-1.75-1.75l-3.38-.01c.39.47.62 1.08.62 1.75v1.25h-.01v3h3.75c.41 0 .75-.34.75-.75v-3.5ZM6.5 15h0v-3.25l0-.22c.04-.58.27-1.11.62-1.54l-3.39 0 -.15 0c-.9.07-1.61.82-1.61 1.74v3.5c0 .41.33.75.75.75h3.75v-1ZM12 3c1.65 0 3 1.34 3 3 0 1.65-1.35 3-3 3 -1.66 0-3-1.35-3-3 0-1.66 1.34-3 3-3Zm6.5 1C19.88 4 21 5.11 21 6.5 21 7.88 19.88 9 18.5 9 17.11 9 16 7.88 16 6.5 16 5.11 17.11 4 18.5 4Zm-13 0C6.88 4 8 5.11 8 6.5 8 7.88 6.88 9 5.5 9 4.11 9 3 7.88 3 6.5 3 5.11 4.11 4 5.5 4ZM2 17.75c0-.42.33-.75.75-.75h18.5c.41 0 .75.33.75.75v.5c0 2.07-1.68 3.75-3.75 3.75H5.75C3.67 22 2 20.32 2 18.25v-.5Z"/></svg>