<svg viewBox="0 0 24 24" xmlns="http://www.w3.org/2000/svg"><path fill="currentColor" d="M8 11c2.2 0 4-1.8 4-4 0-2.21-1.8-4-4-4C5.79 3 4 4.79 4 7c0 2.2 1.79 4 4 4Zm9 0c1.65 0 3-1.35 3-3 0-1.66-1.35-3-3-3 -1.66 0-3 1.34-3 3 0 1.65 1.34 3 3 3ZM4.25 13C3 13 2 14 2 15.25v.25s0 4.5 6 4.5c1.38 0 2.45-.25 3.27-.62 -.19-.6-.28-1.24-.28-1.89 0-1.66.61-3.17 1.64-4.32 -.28-.12-.58-.19-.9-.19h-7.5Zm10.02.97c.31 1.09-.34 2.22-1.45 2.49l-.59.14c-.05.28-.07.58-.07.88 0 .31.02.62.07.92l.53.12c1.11.26 1.77 1.41 1.45 2.51l-.19.63c.43.38.93.69 1.48.92l.49-.52c.78-.83 2.11-.83 2.89 0l.49.52c.54-.23 1.04-.54 1.48-.92l-.2-.69c-.32-1.1.33-2.23 1.44-2.5l.58-.15c.04-.29.06-.59.06-.89 0-.32-.03-.63-.08-.93l-.54-.13c-1.12-.27-1.78-1.42-1.45-2.52l.18-.64c-.44-.39-.94-.7-1.49-.93l-.5.51c-.79.82-2.12.82-2.9-.01l-.5-.53c-.55.22-1.05.53-1.49.91l.19.68Zm3.22 5.02c-.81 0-1.45-.68-1.45-1.5 0-.83.64-1.5 1.44-1.5 .8 0 1.44.67 1.44 1.5 0 .82-.65 1.5-1.45 1.5Z"/></svg>