<svg viewBox="0 0 24 24" xmlns="http://www.w3.org/2000/svg"><path fill="currentColor" d="M14.754 10c.96 0 1.75.78 1.75 1.75v4.74c0 2.48-2.02 4.5-4.51 4.5 -2.49 0-4.51-2.02-4.51-4.51v-4.75c0-.97.78-1.75 1.75-1.75h5.5Zm-7.63-.01c-.35.42-.58.95-.63 1.53l-.01.21v4.74c0 .84.19 1.64.53 2.36 -.33.08-.68.13-1.04.13 -2.21 0-4.01-1.8-4.01-4.01V11.7c0-.92.7-1.68 1.6-1.75l.14-.01 3.38-.01Zm9.74 0l3.37 0c.96 0 1.75.78 1.75 1.75v3.25c0 2.2-1.8 4-4 4 -.36 0-.71-.05-1.04-.14 .3-.63.48-1.33.52-2.06l0-.32v-4.75c0-.67-.24-1.28-.63-1.76Zm-4.88-7c1.65 0 3 1.34 3 3 0 1.65-1.35 3-3 3 -1.66 0-3-1.35-3-3 0-1.66 1.34-3 3-3Zm6.5 1c1.38 0 2.5 1.11 2.5 2.5 0 1.38-1.12 2.5-2.5 2.5 -1.39 0-2.5-1.12-2.5-2.5 0-1.39 1.11-2.5 2.5-2.5Zm-13 0c1.38 0 2.5 1.11 2.5 2.5 0 1.38-1.12 2.5-2.5 2.5 -1.39 0-2.5-1.12-2.5-2.5 0-1.39 1.11-2.5 2.5-2.5Z"/></svg>