<svg viewBox="0 0 24 24" xmlns="http://www.w3.org/2000/svg"><path fill="currentColor" d="M12 8c0 2.2-1.8 4-4 4 -2.21 0-4-1.8-4-4 0-2.21 1.79-4 4-4 2.2 0 4 1.79 4 4Zm8 1c0 1.65-1.35 3-3 3 -1.66 0-3-1.35-3-3 0-1.66 1.34-3 3-3 1.65 0 3 1.34 3 3ZM2 16.25C2 15 3 14 4.25 14h7.5c1.24 0 2.25 1 2.25 2.25v.1l-1.51 1.5c-.48.47-.81 1.06-.97 1.71l-.2.78c-.83.38-1.91.63-3.33.63 -6 0-6-4.5-6-4.5v-.25Zm17.09-3.59l-5.91 5.9c-.35.34-.59.77-.71 1.24l-.46 1.83c-.2.79.52 1.51 1.31 1.31l1.83-.46c.47-.12.9-.37 1.24-.71l5.9-5.91c.89-.9.89-2.34 0-3.24 -.9-.9-2.34-.9-3.24 0Z"/></svg>