<svg viewBox="0 0 24 24" xmlns="http://www.w3.org/2000/svg"><path fill="currentColor" d="M8 12c2.2 0 4-1.8 4-4 0-2.21-1.8-4-4-4C5.79 4 4 5.79 4 8c0 2.2 1.79 4 4 4Zm9 0c1.65 0 3-1.35 3-3 0-1.66-1.35-3-3-3 -1.66 0-3 1.34-3 3 0 1.65 1.34 3 3 3ZM4.25 14C3 14 2 15 2 16.25v.25s0 4.5 6 4.5c1.85 0 3.13-.43 4.02-1.03 .05-.38.24-.72.5-.98 -.33-.32-.53-.77-.53-1.25 0-.49.2-.94.52-1.25 -.33-.32-.53-.77-.53-1.25 0-.44.16-.84.42-1.15 -.22-.07-.45-.11-.68-.11h-7.5Zm9.5.5c-.42 0-.75.33-.75.75 0 .41.33.75.75.75h7.5c.41 0 .75-.34.75-.75 0-.42-.34-.75-.75-.75h-7.5Zm0 2.5c-.42 0-.75.33-.75.75 0 .41.33.75.75.75h7.5c.41 0 .75-.34.75-.75 0-.42-.34-.75-.75-.75h-7.5Zm0 2.5c-.42 0-.75.33-.75.75 0 .41.33.75.75.75h7.5c.41 0 .75-.34.75-.75 0-.42-.34-.75-.75-.75h-7.5Z"/></svg>