<svg viewBox="0 0 24 24" xmlns="http://www.w3.org/2000/svg"><path fill="currentColor" d="M8 11c2.2 0 4-1.8 4-4 0-2.21-1.8-4-4-4C5.79 3 4 4.79 4 7c0 2.2 1.79 4 4 4Zm9 0c1.65 0 3-1.35 3-3 0-1.66-1.35-3-3-3 -1.66 0-3 1.34-3 3 0 1.65 1.34 3 3 3ZM4.25 13C3 13 2 14 2 15.25v.25s0 4.5 6 4.5c1.23 0 2.22-.2 3-.5v-.01 -4c0-1.07.66-1.98 1.6-2.34 -.27-.11-.55-.17-.86-.17h-7.5ZM12 15.5c0-.83.67-1.5 1.5-1.5h8c.82 0 1.5.67 1.5 1.5v4c0 .82-.68 1.5-1.5 1.5h-8c-.83 0-1.5-.68-1.5-1.5v-4Zm1 .5v1c1.1 0 2-.9 2-2h-1c0 .55-.45 1-1 1Zm9 1v-1c-.56 0-1-.45-1-1h-1c0 1.1.89 2 2 2Zm-2 3h1c0-.56.44-1 1-1v-1c-1.11 0-2 .89-2 2Zm-7-2v1c.55 0 1 .44 1 1h1c0-1.11-.9-2-2-2Zm4.5 1.25c.96 0 1.75-.79 1.75-1.75 0-.97-.79-1.75-1.75-1.75 -.97 0-1.75.78-1.75 1.75 0 .96.78 1.75 1.75 1.75Z"/></svg>