<svg viewBox="0 0 24 24" xmlns="http://www.w3.org/2000/svg"><path fill="currentColor" d="M8 11c2.2 0 4-1.8 4-4 0-2.21-1.8-4-4-4C5.79 3 4 4.79 4 7c0 2.2 1.79 4 4 4Zm9 0c1.65 0 3-1.35 3-3 0-1.66-1.35-3-3-3 -1.66 0-3 1.34-3 3 0 1.65 1.34 3 3 3ZM4.25 13C3 13 2 14 2 15.25v.25s0 4.5 6 4.5 6-4.5 6-4.5v-.25C14 14 12.99 13 11.75 13h-7.5Zm13.94.99l.47-1.21c.24-.62.92-.94 1.54-.73l.43.14c.72.23 1.32.8 1.34 1.56 .09 3.11-2.48 7.58-5.22 9.05 -.68.36-1.47.12-2.04-.4l-.34-.31c-.49-.45-.56-1.19-.15-1.71l.79-1.02c.29-.37.76-.54 1.22-.43l1.29.31c1.1-.73 1.69-1.76 1.77-3.08l-.92-.97c-.33-.34-.42-.84-.25-1.28Z"/></svg>