<svg viewBox="0 0 24 24" xmlns="http://www.w3.org/2000/svg"><path fill="currentColor" d="M11.9 13.99l7.84 0c1.24 0 2.25 1 2.25 2.25v.9c0 1.09-.48 2.13-1.31 2.84 -1.57 1.34-3.81 2-6.7 2l-.18-.01c.3-.61.22-1.36-.23-1.9l-.12-.13 -2.23-2.23c.48-.83.74-1.78.74-2.76 0-.35-.04-.68-.1-1.01Zm-5.41-3.5c2.48 0 4.5 2.01 4.5 4.5 0 1.09-.4 2.09-1.04 2.87l2.82 2.81c.29.29.29.76 0 1.06 -.27.26-.69.29-.98.07l-.09-.08 -2.91-2.9c-.68.4-1.48.64-2.33.64 -2.49 0-4.5-2.02-4.5-4.5 0-2.49 2.01-4.5 4.5-4.5Zm0 1.5c-1.66 0-3 1.34-3 3 0 1.65 1.34 3 3 3 1.65 0 3-1.35 3-3 0-1.66-1.35-3-3-3Zm7.5-10c2.76 0 5 2.23 5 5 0 2.76-2.24 4.99-5 4.99 -2.77 0-5-2.24-5-5 0-2.77 2.23-5 5-5Z"/></svg>