<svg viewBox="0 0 24 24" xmlns="http://www.w3.org/2000/svg"><path fill="currentColor" d="M17.75 13.99c1.24 0 2.24 1 2.24 2.24v.91c0 .57-.18 1.13-.52 1.59 -1.55 2.16-4.08 3.23-7.5 3.23 -.17 0-.33-.01-.49-.01l0-.01c.11-.01.36-.03.61-.14 .74-.36 1.06-1.24.72-1.99 -.12-.25-.3-.42-.39-.5 -.11-.1-.24-.21-.38-.33l-.62-.52v-2.54c0-.72-.15-1.39-.42-2.01h6.67Zm-5.76-12c2.76 0 5 2.23 5 5 0 2.76-2.24 4.99-5 4.99 -2.77 0-5-2.24-5-5 0-2.77 2.23-5 5-5Zm-5.5 9.99c-2.21 0-4 1.79-4 4l-.01 3 -.95.8c-.31.25-.47.38-.51.49 -.12.24-.01.54.24.66 .1.04.3.04.7.04h9.01c.4 0 .6 0 .7-.05 .24-.12.35-.42.24-.67 -.05-.11-.21-.24-.51-.5l-.95-.81v-3c0-2.21-1.8-4-4-4Zm1.5 10c-.22.58-.81 1-1.5 1 -.7 0-1.29-.42-1.5-1h3Z"/></svg>