<svg viewBox="0 0 24 24" xmlns="http://www.w3.org/2000/svg"><path fill="currentColor" d="M17.71 15.95c-.51-.53-.71-1.26-.57-1.96H6.24c-1.25 0-2.25 1-2.25 2.24v.92c0 .57.17 1.12.51 1.59 1.54 2.16 4.06 3.23 7.48 3.23 .38 0 .76-.02 1.13-.05 -.26-.72-.15-1.54.35-2.17l.8-1.01c.532-.68 1.4-.98 2.23-.78l.83.2c.51-.44.82-.98.94-1.65l-.6-.63ZM11.99 2c2.76 0 5 2.23 5 5 0 2.76-2.24 4.99-5 4.99 -2.77 0-5.01-2.24-5.01-5 0-2.77 2.23-5 5-5Zm6.19 11.99l.47-1.21c.24-.62.92-.94 1.54-.73l.43.14c.72.23 1.32.8 1.34 1.56 .09 3.11-2.48 7.58-5.22 9.05 -.68.36-1.47.12-2.04-.4l-.34-.31c-.49-.45-.56-1.19-.15-1.71l.79-1.02c.29-.37.76-.54 1.22-.43l1.29.31c1.1-.73 1.69-1.76 1.77-3.08l-.92-.97c-.33-.34-.42-.84-.25-1.28Z"/></svg>