<svg viewBox="0 0 24 24" xmlns="http://www.w3.org/2000/svg"><path fill="currentColor" d="M11.39 19.07c-1.38-1.38-1.67-3.42-.88-5.08H4.24c-1.25 0-2.25 1-2.25 2.24v.92c0 .57.17 1.12.51 1.59 1.54 2.16 4.06 3.23 7.48 3.23 1.41 0 2.67-.19 3.77-.55l-2.38-2.38ZM9.99 1.99c2.76 0 5 2.23 5 5 0 2.76-2.24 4.99-5 4.99 -2.77 0-5.01-2.24-5.01-5 0-2.77 2.23-5 5-5Zm7.04 20.99c-.2 0-.39-.08-.54-.22l-4.41-4.41c-1.36-1.36-1.36-3.55 0-4.91 1.35-1.36 3.54-1.36 4.9 0l.03.03 .03-.04c1.35-1.36 3.54-1.36 4.9 0 1.35 1.35 1.35 3.54 0 4.9l-4.41 4.4c-.15.14-.34.21-.54.21Z"/></svg>