<svg viewBox="0 0 24 24" xmlns="http://www.w3.org/2000/svg"><path fill="currentColor" d="M10.99 17.49c0-1.29.37-2.5 1.02-3.51H6.24c-1.25 0-2.25 1-2.25 2.24v.92c0 .57.17 1.13.51 1.59 1.4 1.96 3.61 3.03 6.57 3.21l.52-1.72c-.4-.84-.62-1.78-.62-2.77Zm1-15.5c2.76 0 5 2.23 5 5 0 2.76-2.24 5-5.01 5 -2.77 0-5.01-2.24-5.01-5.01 0-2.77 2.23-5.01 5-5.01Zm11 15.49c0 3.03-2.47 5.5-5.51 5.5 -.97 0-1.88-.25-2.67-.69l-2.19.66c-.39.11-.75-.25-.63-.63l.66-2.19c-.44-.8-.69-1.7-.69-2.67 0-3.04 2.46-5.51 5.5-5.51 3.03 0 5.5 2.46 5.5 5.5Zm-7.51-1.51c-.28 0-.51.22-.51.5 0 .27.22.5.5.5h4c.27 0 .5-.23.5-.51s-.23-.51-.51-.51h-4.01Zm-.51 2.5c0 .27.22.5.5.5h2c.27 0 .5-.23.5-.51s-.23-.51-.51-.51h-2.01c-.28 0-.51.22-.51.5Z"/></svg>