<svg viewBox="0 0 24 24" xmlns="http://www.w3.org/2000/svg"><path fill="currentColor" d="M11 17.5c0-1.29.37-2.5 1.02-3.51l-7.77 0C3 13.99 2 14.99 2 16.23v.92c0 .57.17 1.12.51 1.59 1.54 2.16 4.06 3.23 7.48 3.23 .93 0 1.79-.08 2.59-.24 -1-1.15-1.6-2.64-1.6-4.27ZM15 7c0-2.77-2.24-5-5-5C7.23 2 4.99 4.23 4.99 7c0 2.76 2.23 4.99 5 4.99 2.76 0 5-2.24 5-5Zm8 10.49c0-3.04-2.47-5.5-5.5-5.5 -3.04 0-5.5 2.46-5.5 5.5 0 3.03 2.46 5.5 5.5 5.5 3.03 0 5.5-2.47 5.5-5.5Zm-5.59-3.5l.08-.01 .08 0c.2.03.36.19.4.4l0 .08 -.01 2.5h2.5l.08 0c.2.03.36.19.4.4l0 .08 -.01.08c-.04.2-.2.36-.41.4l-.09 0h-2.51l0 2.5 -.01.08c-.04.2-.2.36-.41.4l-.09 0 -.09-.01c-.21-.04-.37-.2-.41-.41l-.01-.09 -.01-2.5h-2.5l-.09-.01c-.21-.04-.37-.2-.41-.41l-.01-.09 0-.09c.03-.21.19-.37.4-.41l.08-.01h2.49l0-2.5 0-.09c.03-.21.19-.37.4-.41Z"/></svg>