<svg viewBox="0 0 24 24" xmlns="http://www.w3.org/2000/svg"><path fill="currentColor" d="M15.75 13.997c1.24 0 2.24 1 2.24 2.24v.91c0 .28-.05.56-.14.83h-2.04c.3-.65.18-1.45-.35-1.98 -.69-.69-1.8-.69-2.48-.01l-2.5 2.49c-.33.32-.52.77-.52 1.23 0 .46.18.9.51 1.23l.93.93c-.47.04-.95.06-1.46.06 -3.43 0-5.95-1.08-7.49-3.24 -.34-.47-.52-1.03-.52-1.6v-.92c0-1.25 1-2.25 2.24-2.25h11.5Zm-5.76-12c2.76 0 5 2.23 5 5 0 2.76-2.24 4.99-5.01 4.99 -2.77 0-5-2.24-5-5 0-2.77 2.23-5 5-5Zm4.78 15.78c.29-.3.29-.77-.01-1.07 -.3-.3-.77-.3-1.07 0l-2.5 2.5c-.15.14-.22.33-.22.53 0 .19.07.38.21.53l2.5 2.49c.29.29.76.29 1.06-.01 .29-.3.29-.77-.01-1.07l-1.23-1.22h6.88l-1.23 1.21c-.3.29-.3.76-.01 1.06 .29.29.76.29 1.06 0l2.5-2.5c.14-.15.21-.34.21-.54s-.08-.39-.22-.54l-2.5-2.51c-.3-.3-.77-.3-1.07-.01 -.3.29-.3.76-.01 1.06l1.21 1.21h-6.88l1.21-1.22Z"/></svg>