<svg viewBox="0 0 24 24" xmlns="http://www.w3.org/2000/svg"><path fill="currentColor" d="M13.48 3.04c-.51-1.13-2.11-1.13-2.62 0 -.38.82-1.41 1.1-2.15.57 -1.01-.72-2.39.07-2.27 1.3 .08.9-.67 1.65-1.57 1.56 -1.23-.13-2.03 1.26-1.31 2.26 .52.73.25 1.76-.58 2.14 -1.13.5-1.13 2.1 0 2.61 .82.37 1.1 1.4.57 2.14 -.72 1 .07 2.38 1.3 2.26 .9-.09 1.65.66 1.56 1.56 -.13 1.22 1.26 2.02 2.26 1.3 .73-.53 1.76-.26 2.14.57 .5 1.12 2.1 1.12 2.61 0 .37-.83 1.4-1.11 2.14-.58 1 .71 2.38-.08 2.26-1.31 -.09-.91.66-1.66 1.56-1.57 1.22.12 2.02-1.27 1.3-2.27 -.53-.74-.26-1.77.57-2.15 1.12-.51 1.12-2.11 0-2.62 -.83-.38-1.11-1.41-.58-2.15 .71-1.01-.08-2.39-1.31-2.27 -.91.08-1.66-.67-1.57-1.57 .12-1.23-1.27-2.03-2.27-1.31 -.74.52-1.77.25-2.15-.58ZM9.76 8.57c0-1.34 1.08-2.42 2.41-2.42s2.41 1.08 2.41 2.41 -1.09 2.41-2.42 2.41c-1.34 0-2.42-1.09-2.42-2.42Zm-.61 3.62h6.03c.99 0 1.81.81 1.81 1.81 0 1.34-.56 2.42-1.47 3.15 -.9.71-2.1 1.06-3.37 1.06 -1.28 0-2.48-.36-3.37-1.07 -.91-.73-1.47-1.81-1.47-3.16 0-1 .81-1.82 1.81-1.82Z"/></svg>