<svg viewBox="0 0 24 24" xmlns="http://www.w3.org/2000/svg"><path fill="currentColor" d="M11 17.5c0-1.29.37-2.5 1.02-3.51H5.25C4 13.99 3 14.99 3 16.23v.92c0 .57.17 1.12.51 1.59 1.54 2.16 4.06 3.23 7.48 3.23 .59 0 1.17-.04 1.71-.1 -1.07-1.16-1.72-2.71-1.72-4.41ZM11 2c2.76 0 5 2.23 5 5 0 2.76-2.24 4.99-5 4.99 -2.77 0-5.01-2.24-5.01-5 0-2.77 2.23-5 5-5Zm11.99 15.49c0 3.03-2.47 5.5-5.5 5.5 -3.04 0-5.5-2.47-5.5-5.5 0-3.04 2.46-5.5 5.5-5.5 3.03 0 5.5 2.46 5.5 5.5Zm-9 0c0 .27.22.5.5.5h6c.27 0 .5-.23.5-.5 0-.28-.23-.5-.5-.5h-6c-.28 0-.5.22-.5.5Z"/></svg>