<svg viewBox="0 0 24 24" xmlns="http://www.w3.org/2000/svg"><path fill="currentColor" d="M10.99 17.5c0-1.29.375-2.49 1.02-3.51H4.24c-1.25 0-2.25 1-2.25 2.24v.92c0 .57.17 1.12.51 1.59 1.54 2.16 4.06 3.23 7.48 3.23 .93 0 1.79-.08 2.59-.24 -1-1.15-1.6-2.64-1.6-4.27ZM9.98 2c2.76 0 5 2.23 5 5 0 2.76-2.24 4.99-5.01 4.99 -2.77 0-5-2.24-5-5 0-2.77 2.23-5 5-5Zm13 15.49c0 3.03-2.47 5.5-5.5 5.5 -3.04 0-5.5-2.47-5.5-5.5 0-3.04 2.46-5.5 5.5-5.5 3.03 0 5.5 2.46 5.5 5.5Zm-4.65-2.86c-.2-.2-.52-.2-.71 0 -.2.19-.2.51 0 .7l1.64 1.64h-4.3c-.28 0-.5.22-.5.5 0 .27.22.5.5.5h4.29l-1.65 1.64c-.2.19-.2.51 0 .7 .19.19.51.19.7 0l2.5-2.5c.05-.06.09-.12.11-.19 .01-.06.02-.11.03-.17l0-.01c0-.08-.02-.16-.05-.22 -.02-.04-.04-.07-.06-.1 -.02-.02-.03-.04-.05-.06l-2.5-2.5Z"/></svg>