<svg viewBox="0 0 24 24" xmlns="http://www.w3.org/2000/svg"><path fill="currentColor" d="M14.75 15c1.24 0 2.24 1 2.24 2.24v.91c0 .57-.18 1.13-.52 1.59 -1.55 2.16-4.08 3.23-7.5 3.23 -3.43 0-5.95-1.08-7.49-3.24 -.34-.47-.52-1.03-.52-1.6v-.92c0-1.25 1-2.25 2.24-2.25h11.5Zm4.29-13.6c.35-.21.81-.09 1.02.27 1.09 1.9 1.67 4.07 1.67 6.31 0 2.25-.59 4.42-1.69 6.33 -.21.35-.67.48-1.03.27 -.36-.21-.49-.67-.28-1.03 .96-1.69 1.48-3.61 1.48-5.6 0-1.99-.52-3.89-1.48-5.58 -.21-.36-.09-.82.27-1.03ZM8.98 3c2.76 0 5 2.23 5 5 0 2.76-2.24 5-5.01 5 -2.77 0-5-2.24-5-5 0-2.77 2.23-5 5-5Zm6.58.39c.36-.21.81-.08 1.02.28 .74 1.3 1.13 2.78 1.13 4.31 0 1.53-.4 3.02-1.15 4.32 -.21.35-.67.48-1.03.28 -.36-.21-.49-.67-.28-1.03 .61-1.09.94-2.31.94-3.59 0-1.28-.33-2.5-.95-3.58 -.21-.37-.08-.82.28-1.03Z"/></svg>