<svg viewBox="0 0 24 24" xmlns="http://www.w3.org/2000/svg"><path fill="currentColor" d="M17.49 12c3.03 0 5.5 2.46 5.5 5.5 0 3.03-2.47 5.5-5.5 5.5 -3.04 0-5.5-2.47-5.5-5.5 0-3.04 2.46-5.5 5.5-5.5Zm-5.48 1.99c-.65 1.01-1.03 2.21-1.03 3.5 0 1.64.61 3.14 1.61 4.28 -.81.14-1.68.21-2.62.21 -2.89 0-5.13-.66-6.7-2.01 -.83-.72-1.31-1.76-1.31-2.85v-.91c0-1.25 1-2.25 2.25-2.25l7.76-.01Zm8.78 1.25l-5.557 5.55c.64.43 1.41.69 2.24.69 2.2 0 4-1.8 4-4 0-.84-.26-1.61-.7-2.25Zm-3.31-1.76c-2.21 0-4 1.79-4 4 0 .83.25 1.6.69 2.24l5.55-5.56c-.65-.44-1.42-.7-2.25-.7ZM9.97 1.98c2.76 0 5 2.23 5 5 0 2.76-2.24 4.99-5.01 4.99 -2.77 0-5-2.24-5-5 0-2.77 2.23-5 5-5Z"/></svg>