<svg viewBox="0 0 24 24" xmlns="http://www.w3.org/2000/svg"><path fill="currentColor" d="M10.99 15.5c0-.57.18-1.09.49-1.51H5.23c-1.25 0-2.25 1-2.25 2.24v.92c0 .57.17 1.12.51 1.59 1.54 2.16 4.06 3.23 7.48 3.23l.05-.01c-.04-.17-.06-.33-.06-.51v-6Zm0-13.5c2.76 0 5 2.23 5 5 0 2.76-2.24 4.99-5 4.99 -2.77 0-5.01-2.24-5.01-5 0-2.77 2.23-5 5-5Zm6.5 16.92l-5.5-3.21c.13-.98.97-1.73 1.98-1.73h7c1.09 0 1.98.87 1.99 1.97l-5.49 2.95Zm.22 1.01l5.26-2.84v3.89c0 1.1-.9 2-2 2h-7c-1.11 0-2-.9-2-2v-4.13l5.24 3.06c.15.08.33.09.48 0Z"/></svg>