<svg viewBox="0 0 24 24" xmlns="http://www.w3.org/2000/svg"><path fill="currentColor" d="M13 16c0-.72.14-1.39.41-2H6.24c-1.25 0-2.25 1-2.25 2.24v.91c0 .57.17 1.12.51 1.59 1.54 2.16 4.06 3.23 7.48 3.23 1.17 0 2.24-.13 3.2-.39l-.35-1.74c-1.14-.92-1.86-2.32-1.86-3.89Zm3.99-9c0-2.77-2.24-5-5-5C9.22 2 6.98 4.23 6.98 7c0 2.76 2.23 5 5 5 2.76 0 5-2.24 5-5.01Zm5 8.99c0 1.38-.7 2.59-1.77 3.31l-.14.68h-4.2l-.14-.69c-1.07-.72-1.77-1.94-1.77-3.32 0-2.21 1.79-4 4-4 2.2 0 4 1.79 4 4Zm-5.9 5l.15.79c.14.7.75 1.2 1.47 1.2h.54c.71 0 1.33-.51 1.47-1.21l.15-.8h-3.8Z"/></svg>