<svg viewBox="0 0 24 24" xmlns="http://www.w3.org/2000/svg"><path fill="currentColor" d="M11.25 6.75c1.45 0 2.62-1.18 2.62-2.63 0-1.46-1.18-2.63-2.63-2.63 -1.46 0-2.625 1.17-2.625 2.62 0 1.45 1.17 2.62 2.625 2.62Zm5.25 3v4.5c0 .82-.68 1.5-1.5 1.5V21c0 .82-.68 1.5-1.5 1.5 -.83 0-1.5-.68-1.5-1.5v-4.5c0-.42-.34-.75-.75-.75 -.42 0-.75.33-.75.75V21c0 .82-.68 1.5-1.5 1.5 -.83 0-1.5-.68-1.5-1.5v-5.25c-.83 0-1.5-.68-1.5-1.5v-4.5c0-1.38.93-2.53 2.19-2.877 .75.83 1.83 1.37 3.05 1.37 1.21 0 2.29-.54 3.05-1.38 1.263.35 2.19 1.5 2.19 2.877Z"/></svg>