<svg viewBox="0 0 24 24" xmlns="http://www.w3.org/2000/svg"><path fill="currentColor" d="M11 17.5c0-1.29.37-2.49 1.02-3.51H4.25C3 13.99 2 14.99 2 16.23v.57c0 .89.31 1.75.89 2.43 1.56 1.83 3.95 2.73 7.09 2.73 .93 0 1.79-.08 2.59-.24 -1-1.15-1.6-2.64-1.6-4.27ZM10 2c2.76 0 5 2.23 5 5 0 2.76-2.24 4.99-5 4.99 -2.77 0-5.01-2.24-5.01-5 0-2.77 2.23-5 5-5Zm7.49 9.99c3.03 0 5.5 2.46 5.5 5.5 0 3.03-2.47 5.5-5.5 5.5 -3.04 0-5.5-2.47-5.5-5.5 0-3.04 2.46-5.5 5.5-5.5Zm2 5.5h-2v-2.51c0-.28-.23-.5-.5-.5 -.28 0-.5.22-.5.5v2.99 0c0 .27.22.5.5.5h2.5c.27 0 .5-.23.5-.5 0-.28-.23-.5-.5-.5Z"/></svg>