<svg viewBox="0 0 24 24" xmlns="http://www.w3.org/2000/svg"><path fill="currentColor" d="M12.49 17.865l3.86-3.87H6.24c-1.25 0-2.25 1-2.25 2.24v.91c0 .57.17 1.12.51 1.59 1.38 1.94 3.56 3.01 6.48 3.2 -.01-.19.01-.38.06-.57l.45-1.84c.16-.65.49-1.24.96-1.72Zm-.5-15.87c2.76 0 5 2.23 5 5 0 2.76-2.24 5-5 5 -2.77 0-5.01-2.24-5.01-5.01 0-2.77 2.23-5 5-5Zm7.09 10.66l-5.91 5.9c-.35.34-.59.77-.71 1.24l-.46 1.83c-.2.79.52 1.51 1.31 1.31l1.83-.46c.47-.12.9-.37 1.24-.71l5.9-5.91c.89-.9.89-2.34 0-3.24 -.9-.9-2.34-.9-3.24 0Z"/></svg>