<svg viewBox="0 0 24 24" xmlns="http://www.w3.org/2000/svg"><path fill="currentColor" d="M14.77 12.4c.15.07.32.1.48.1 .33 0 .64-.13.88-.36L18.31 10h.94C20.77 10 22 8.77 22 7.25v-2.5C22 3.23 20.77 2 19.25 2h-4.5C13.23 2 12 3.23 12 4.75v2.5c0 1.26.85 2.32 2 2.65v1.35c0 .5.31.95.77 1.15ZM8 13.5c-1.93 0-3.5-1.57-3.5-3.5s1.57-3.5 3.5-3.5 3.5 1.57 3.5 3.5 -1.57 3.5-3.5 3.5ZM8 22c-2.06 0-3.64-.56-4.7-1.67 -1.34-1.41-1.31-3.18-1.31-3.36l0-.02c0-1.07.9-1.96 2-1.96h8c1.1 0 2 .9 2 2l0 0c0 .12.04 1.91-1.31 3.32 -1.06 1.11-2.64 1.67-4.71 1.67Z"/></svg>