<svg viewBox="0 0 24 24" xmlns="http://www.w3.org/2000/svg"><path fill="currentColor" d="M10.79 2.39c-2.66 0-4.8 2.14-4.8 4.8 0 2.65 2.14 4.8 4.8 4.8 2.65 0 4.8-2.15 4.8-4.8 0-2.66-2.15-4.8-4.8-4.8ZM4.8 13.19c-1.33 0-2.42 1.06-2.42 2.4 0 2.02.99 3.55 2.56 4.55 1.53.98 3.61 1.44 5.83 1.44 .49 0 .97-.03 1.45-.07 -.91-1.14-1.46-2.57-1.46-4.14 0-1.6.56-3.06 1.5-4.2h-7.5Zm7.95 3.5c1.3-.34 2.08-1.68 1.71-2.98l-.19-.67c.3-.24.63-.44.98-.6l.4.42c.94 1 2.54 1 3.49 0l.38-.42c.35.16.69.37 1 .62l-.16.5c-.4 1.32.4 2.7 1.74 3.02l.41.09c.02.21.03.44.03.66 0 .18-.01.37-.03.55l-.56.14c-1.31.33-2.09 1.67-1.72 2.97l.18.66c-.31.23-.64.43-.99.59l-.41-.43c-.95-1.01-2.55-1.01-3.5-.01l-.39.41c-.36-.17-.7-.38-1.01-.63l.15-.51c.39-1.33-.41-2.71-1.75-3.03l-.42-.1c-.03-.22-.04-.44-.04-.67 0-.19 0-.38.02-.56l.55-.15Zm5.83.69c0-.67-.54-1.2-1.2-1.2 -.67 0-1.2.53-1.2 1.2 0 .66.53 1.2 1.2 1.2 .66 0 1.2-.54 1.2-1.2Z"/></svg>