<svg viewBox="0 0 24 24" xmlns="http://www.w3.org/2000/svg"><path fill="currentColor" d="M11 15c0-.36.06-.69.17-1.01H4.25C3 13.99 2 14.99 2 16.23v.92c0 .57.17 1.12.51 1.59 1.54 2.16 4.06 3.23 7.48 3.23 .39 0 .78-.02 1.15-.05 -.11-.31-.16-.63-.16-.96v-6ZM9.99 2c2.76 0 5 2.23 5 5 0 2.76-2.24 4.99-5.01 4.99 -2.77 0-5-2.24-5-5 0-2.77 2.23-5 5-5Zm2 12.99c0-1.11.89-2 2-2h7c1.1 0 2 .89 2 2v6c0 1.1-.9 2-2 2h-7c-1.11 0-2-.9-2-2v-6Zm2.5 1c-.28 0-.5.22-.5.5 0 .27.22.5.5.5h6c.27 0 .5-.23.5-.5 0-.28-.23-.5-.5-.5h-6Zm0 3c-.28 0-.5.22-.5.5 0 .27.22.5.5.5h6c.27 0 .5-.23.5-.5 0-.28-.23-.5-.5-.5h-6Z"/></svg>