<svg viewBox="0 0 24 24" xmlns="http://www.w3.org/2000/svg"><path fill="currentColor" d="M12.02 13.99c-.65 1.01-1.03 2.21-1.03 3.5 0 1.63.6 3.12 1.59 4.26 -.8.16-1.67.23-2.6.23 -3.43 0-5.95-1.08-7.49-3.24 -.34-.47-.52-1.03-.52-1.6v-.92c0-1.25 1-2.25 2.24-2.25l7.76-.01Zm5.47-2c3.03 0 5.5 2.46 5.5 5.5 0 3.03-2.47 5.5-5.5 5.5 -3.04 0-5.5-2.47-5.5-5.5 0-3.04 2.46-5.5 5.5-5.5Zm0 7.75c-.35 0-.63.27-.63.62 0 .34.27.62.62.62 .34 0 .62-.28.62-.63s-.28-.63-.63-.63Zm0-5.88c-1.05 0-1.87.81-1.86 1.95 0 .27.22.49.5.49 .27-.01.49-.23.49-.51 -.01-.58.35-.95.85-.95 .47 0 .85.39.85.94 0 .19-.06.34-.23.56l-.1.11 -.1.11 -.27.29 -.14.15c-.39.45-.54.79-.54 1.31 0 .27.22.5.5.5 .27 0 .5-.23.5-.5 0-.21.05-.36.23-.6l.08-.11 .1-.12 .26-.3 .13-.16c.37-.46.52-.79.52-1.3 0-1.11-.83-1.95-1.86-1.95ZM9.98 1.99c2.76 0 5 2.23 5 5 0 2.76-2.24 4.99-5.01 4.99 -2.77 0-5-2.24-5-5 0-2.77 2.23-5 5-5Z"/></svg>