<svg viewBox="0 0 24 24" xmlns="http://www.w3.org/2000/svg"><path fill="currentColor" d="M17.49 12c3.03 0 5.5 2.46 5.5 5.5 0 3.03-2.47 5.5-5.5 5.5 -3.04 0-5.5-2.47-5.5-5.5 0-3.04 2.46-5.5 5.5-5.5Zm-5.48 1.99c-.65 1.01-1.03 2.21-1.03 3.5 0 1.64.61 3.14 1.61 4.29 -.81.14-1.68.21-2.62.21 -2.89 0-5.13-.66-6.7-2.01 -.83-.72-1.31-1.76-1.31-2.85v-.91c0-1.25 1-2.25 2.25-2.25l7.76-.01Zm4.69.58l-.07.05 -2.52 2.51 -.05.05 -.04.05 -.04.07 -.02.04 -.02.08 0 .08 .01.08 .03.07 .02.04 .05.06 2.51 2.51c.19.19.51.19.7 0 .17-.18.19-.45.05-.64l-.06-.07 -1.65-1.65h4.78c.24 0 .44-.18.49-.42l0-.09c0-.25-.18-.45-.42-.5l-.09-.01h-4.79l1.64-1.65c.17-.18.19-.45.05-.64l-.06-.07c-.18-.18-.45-.2-.64-.06ZM9.98 1.98c2.76 0 5 2.23 5 5 0 2.76-2.24 4.99-5.01 4.99 -2.77 0-5-2.24-5-5 0-2.77 2.23-5 5-5Z"/></svg>