<svg viewBox="0 0 24 24" xmlns="http://www.w3.org/2000/svg"><path fill="currentColor" d="M12 2.39c-2.66 0-4.8 2.14-4.8 4.8 0 2.65 2.14 4.8 4.8 4.8 2.651 0 4.8-2.15 4.8-4.8 0-2.66-2.15-4.8-4.8-4.8Zm-5.99 10.8c-1.33 0-2.42 1.06-2.42 2.4 0 2.02.99 3.55 2.56 4.55 1.53.98 3.61 1.44 5.83 1.44 1.27 0 2.49-.16 3.6-.47v-2.37c-.75-.85-1.2-1.96-1.2-3.18 0-.88.23-1.7.64-2.4H5.98Zm13.18 5.99c1.98 0 3.6-1.62 3.6-3.6 0-1.99-1.62-3.6-3.6-3.6 -1.99 0-3.6 1.61-3.6 3.59 0 1.98 1.61 3.59 3.6 3.59Zm0 1.2c.87 0 1.69-.24 2.4-.65v2.74c0 .23-.26.37-.46.25l-1.95-1.16 -1.95 1.15c-.2.11-.46-.03-.46-.26V19.7c.7.4 1.52.64 2.4.64Z"/></svg>