<svg viewBox="0 0 24 24" xmlns="http://www.w3.org/2000/svg"><path fill="currentColor" d="M14 14.05V14H4.25C3 14 2 15 2 16.24v.91c0 .57.17 1.12.51 1.59 1.54 2.16 4.06 3.23 7.48 3.23 .71 0 1.38-.05 2.02-.15 -.02-.12-.03-.24-.03-.37v-5c0-1.21.85-2.22 2-2.45ZM10 2c2.76 0 5 2.23 5 5 0 2.76-2.24 5-5 5 -2.77 0-5.01-2.24-5.01-5.01 0-2.77 2.23-5 5-5Zm4.99 12.99v-1c0-1.39 1.11-2.5 2.5-2.5 1.38 0 2.5 1.11 2.5 2.5v1h.5c.82 0 1.5.67 1.5 1.5v5c0 .82-.68 1.5-1.5 1.5h-6c-.83 0-1.5-.68-1.5-1.5v-5c0-.83.67-1.5 1.5-1.5h.5Zm1.5-1v1h2v-1c0-.56-.45-1-1-1 -.56 0-1 .44-1 1Zm2 5c0-.56-.45-1-1-1 -.56 0-1 .44-1 1 0 .55.44 1 1 1 .55 0 1-.45 1-1Z"/></svg>