<svg viewBox="0 0 24 24" xmlns="http://www.w3.org/2000/svg"><path fill="currentColor" d="M19.99 16.24c0-1.25-1.01-2.25-2.25-2.25H6.23c-1.25 0-2.25 1-2.25 2.24v.92c0 .57.17 1.12.51 1.59 1.54 2.16 4.06 3.23 7.48 3.23 3.42 0 5.94-1.08 7.49-3.24 .33-.47.51-1.03.51-1.6v-.92Zm-3.003-9.25c0-2.77-2.24-5-5-5 -1.66 0-3.12.79-4.03 2.03 -.08-.03-.15-.04-.23-.04h-2.5c-.42 0-.75.33-.75.75v5.49c0 1.51 1.23 2.75 2.75 2.75h.24v-.01s0 0 .01 0c.55 0 .99-.45.99-1 0-.56-.45-1-1-1 -.32 0-.61.15-.79.38 -.43-.2-.73-.64-.73-1.14v-.26h.74c.38 0 .73-.13 1.02-.33 .88 1.4 2.44 2.33 4.22 2.33 2.76 0 5-2.24 5-5Zm-10-.11c-.01.03-.01.07-.01.1s0 .07 0 .1v1.14c0 .13-.12.25-.25.25h-.75v-3h.99v1.39Z"/></svg>