<svg viewBox="0 0 24 24" xmlns="http://www.w3.org/2000/svg"><path fill="currentColor" d="M11 17.5c0-1.29.37-2.5 1.02-3.51H5.25C4 13.99 3 14.99 3 16.23v.92c0 .57.17 1.12.51 1.59 1.54 2.16 4.06 3.23 7.48 3.23 .59 0 1.17-.04 1.71-.1 -1.07-1.16-1.72-2.71-1.72-4.41ZM11 2c2.76 0 5 2.23 5 5 0 2.76-2.24 4.99-5 4.99 -2.77 0-5.01-2.24-5.01-5 0-2.77 2.23-5 5-5Zm.99 15.49c0 3.03 2.46 5.5 5.5 5.5 3.03 0 5.5-2.47 5.5-5.5 0-3.04-2.47-5.5-5.5-5.5 -3.04 0-5.5 2.46-5.5 5.5Zm8.5-3.5c.27 0 .5.22.5.5v2c0 .27-.23.5-.5.5h-2c-.28 0-.5-.23-.5-.5 0-.28.22-.5.5-.5h1c-.46-.61-1.19-1-2.01-1 -.84 0-1.58.4-2.03 1.03 -.17.22-.48.27-.7.11 -.23-.17-.28-.48-.12-.7 .63-.88 1.66-1.45 2.83-1.45 .97 0 1.86.4 2.5 1.05v-.56c0-.28.22-.5.5-.5Zm-5.5 5.94v.55c0 .27-.23.5-.5.5 -.28 0-.5-.23-.5-.5v-2c0-.28.22-.5.5-.5h2c.27 0 .5.22.5.5 0 .27-.23.5-.5.5h-1.01c.45.6 1.18 1 2 1 .76 0 1.45-.35 1.91-.89 .17-.22.49-.24.7-.06 .21.17.23.49.05.7 -.65.75-1.61 1.24-2.68 1.24 -.98 0-1.87-.41-2.5-1.06Z"/></svg>