<svg viewBox="0 0 24 24" xmlns="http://www.w3.org/2000/svg"><path fill="currentColor" d="M17.75 14c.77 0 1.46.39 1.87.99h-6.13c-1.39 0-2.5 1.11-2.5 2.5v4c0 .16.01.31.04.47 -2.94-.19-5.14-1.25-6.54-3.21 -.34-.47-.52-1.03-.52-1.6v-.92c0-1.25 1-2.25 2.24-2.25h11.5ZM11.99 2c2.76 0 5 2.23 5 5 0 2.76-2.24 5-5 5 -2.77 0-5.01-2.24-5.01-5.01 0-2.77 2.23-5 5-5Zm-.01 15.49c0-.83.67-1.5 1.5-1.5h8c.82 0 1.5.67 1.5 1.5v4c0 .82-.68 1.5-1.5 1.5h-8c-.83 0-1.5-.68-1.5-1.5v-4Zm10 .5c-.56 0-1-.45-1-1h-1c0 1.1.89 2 2 2v-1Zm0 2c-1.11 0-2 .89-2 2h1c0-.56.44-1 1-1v-1Zm-8-3c0 .55-.45 1-1 1v1c1.1 0 2-.9 2-2h-1Zm1 5c0-1.11-.9-2-2-2v1c.55 0 1 .44 1 1h1Zm4.25-2.5c0-.97-.79-1.75-1.75-1.75 -.97 0-1.75.78-1.75 1.75 0 .96.78 1.75 1.75 1.75 .96 0 1.75-.79 1.75-1.75Z"/></svg>