<svg viewBox="0 0 24 24" xmlns="http://www.w3.org/2000/svg"><path fill="currentColor" d="M13 14.05v-.06H4.25C3 13.99 2 14.99 2 16.23v.91c0 .57.17 1.12.51 1.59 1.54 2.16 4.06 3.23 7.48 3.23 .35 0 .7-.02 1.04-.04 -.03-.16-.05-.31-.05-.47v-5c0-1.21.85-2.22 2-2.45ZM10 2c2.76 0 5 2.23 5 5 0 2.76-2.24 5-5 5 -2.77 0-5.01-2.24-5.01-5.01 0-2.77 2.23-5 5-5Zm3.99 12.99h-.5c-.83 0-1.5.67-1.5 1.5v4.99c0 .82.67 1.5 1.5 1.5h8c.82 0 1.5-.68 1.5-1.5v-5c0-.83-.68-1.5-1.5-1.5h-.5v-1.26c0-.97-.79-1.75-1.75-1.75h-3.5c-.97 0-1.75.78-1.75 1.75v1.25Zm1.5-1.26c0-.14.11-.25.25-.25h3.5c.13 0 .25.11.25.25v1.25h-4v-1.26Z"/></svg>