<svg viewBox="0 0 24 24" xmlns="http://www.w3.org/2000/svg"><path fill="currentColor" d="M13.8 5.4c0-1.33 1.07-2.4 2.4-2.4 1.32 0 2.4 1.07 2.4 2.4 0 1.06-.7 1.97-1.67 2.28l1.91 1.91h2.15c.99 0 1.8.8 1.8 1.8 0 .99-.81 1.8-1.8 1.8h-3.87c-.76 0-1.49-.31-2.02-.84l-.12-.12 -1.26 1.25 1.67 1.67c.11.11.17.26.17.42v4.2c0 .99-.81 1.8-1.8 1.8 -1 0-1.8-.81-1.8-1.8v-2.16l-1.86-1.86 -1.21.9c-.62.45-1.36.7-2.12.7H2.94c-1 0-1.8-.81-1.8-1.8 0-1 .8-1.8 1.8-1.8h5.1c1.49 0 2.7-1.21 2.7-2.7v-1.5h1.2c.33 0 .6-.27.6-.6 0-.34-.27-.6-.6-.6h-1.8c-.34 0-.6.26-.6.6v2.1c0 .82-.68 1.5-1.5 1.5 -.83 0-1.5-.68-1.5-1.5v-2.7c0-1.66 1.34-3 3-3h4.2Z"/></svg>