<svg viewBox="0 0 24 24" xmlns="http://www.w3.org/2000/svg"><path fill="currentColor" d="M11 17.5c0-1.29.37-2.5 1.02-3.51H5.25C4 13.99 3 14.99 3 16.23v.92c0 .57.17 1.12.51 1.59 1.54 2.16 4.06 3.23 7.48 3.23 .59 0 1.17-.04 1.71-.1 -1.07-1.16-1.72-2.71-1.72-4.41ZM11 2c2.76 0 5 2.23 5 5 0 2.76-2.24 4.99-5 4.99 -2.77 0-5.01-2.24-5.01-5 0-2.77 2.23-5 5-5Zm11.99 15.49c0 3.03-2.47 5.5-5.5 5.5 -3.04 0-5.5-2.47-5.5-5.5 0-3.04 2.46-5.5 5.5-5.5 3.03 0 5.5 2.46 5.5 5.5Zm-4.95-3.08c-.18-.57-.94-.57-1.12 0l-.56 1.78h-1.81c-.57 0-.81.75-.35 1.1l1.45 1.1 -.56 1.78c-.18.56.44 1.02.89.68l1.45-1.11 1.45 1.1c.45.34 1.07-.12.89-.69l-.56-1.79 1.45-1.11c.45-.35.22-1.11-.35-1.11H18.5l-.56-1.79Z"/></svg>