<svg viewBox="0 0 24 24" xmlns="http://www.w3.org/2000/svg"><path fill="currentColor" d="M13.99 21.37v-7.38H4.24c-1.25 0-2.25 1-2.25 2.24v.92c0 .57.17 1.12.51 1.59 1.54 2.16 4.06 3.23 7.48 3.23 1.51 0 2.84-.21 4-.63ZM9.98 2c2.76-.001 5 2.23 5 5 0 2.76-2.24 4.99-5.01 4.99 -2.77 0-5-2.24-5-5 0-2.77 2.23-5 5-5Zm11.25 7.99c.96 0 1.75.78 1.75 1.75v9.5c0 .96-.79 1.75-1.75 1.75h-4.51c-.97 0-1.75-.79-1.75-1.75v-9.51c0-.97.78-1.76 1.75-1.76h4.5Zm-2.01 8.99h-.5l-.11 0c-.37.04-.65.36-.65.74 0 .41.33.75.75.75h.5l.1-.01c.36-.05.64-.37.64-.75 0-.42-.34-.75-.75-.75Z"/></svg>