<svg viewBox="0 0 24 24" xmlns="http://www.w3.org/2000/svg"><path fill="currentColor" d="M12 2.39c-2.66 0-4.8 2.14-4.8 4.8 0 2.65 2.14 4.8 4.8 4.8 2.651 0 4.8-2.15 4.8-4.8 0-2.66-2.15-4.8-4.8-4.8Zm-5.99 10.8c-1.33 0-2.42 1.06-2.42 2.4 0 2.02.99 3.55 2.56 4.55 1.53.98 3.61 1.44 5.83 1.44 .29 0 .57-.01.86-.03 -1.17-.17-2.07-1.17-2.07-2.38v-4.8c0-.44.11-.85.32-1.2H5.97Zm5.98 1.2c0-.67.53-1.2 1.2-1.2h8.4c.66 0 1.2.53 1.2 1.2v4.8c0 .66-.54 1.2-1.2 1.2h-2.4v1.2h.6c.33 0 .6.26.6.6 0 .33-.27.6-.6.6h-4.8c-.34 0-.6-.27-.6-.6 0-.34.26-.6.6-.6h.6v-1.2h-2.4c-.67 0-1.2-.54-1.2-1.2v-4.8Z"/></svg>