<svg viewBox="0 0 24 24" xmlns="http://www.w3.org/2000/svg"><path fill="currentColor" d="M12 2.39c-2.66 0-4.8 2.14-4.8 4.8 0 2.65 2.14 4.8 4.8 4.8 2.651 0 4.8-2.15 4.8-4.8 0-2.66-2.15-4.8-4.8-4.8Zm-5.99 10.8c-1.33 0-2.42 1.06-2.42 2.4 0 2.02.99 3.55 2.56 4.55 1.53.98 3.61 1.44 5.83 1.44 .72 0 1.42-.05 2.1-.15l.26-1.06h-.57c-1.29 0-2.16-1.31-1.67-2.5l1.96-4.71h-8.1Zm9.12 6c.39 0 .67.36.58.74l-.53 2.08c-.15.57.55.99.99.58l5.84-5.46c.59-.56.2-1.56-.62-1.56h-.49c-.41 0-.7-.41-.57-.79l.67-2.03c.12-.39-.16-.79-.57-.79h-4.17c-.25 0-.47.14-.56.36l-2.5 6c-.17.39.12.83.55.83h1.33Z"/></svg>