<svg viewBox="0 0 24 24" xmlns="http://www.w3.org/2000/svg"><path fill="currentColor" d="M7.2 7.19c0-2.66 2.14-4.8 4.8-4.8 2.651 0 4.8 2.14 4.8 4.8 0 1.44-.64 2.73-1.65 3.61 -.05.03-.09.07-.14.11 -.83.67-1.88 1.07-3.03 1.07 -2.66 0-4.8-2.15-4.8-4.8Zm6.27 6H6c-1.33 0-2.42 1.06-2.42 2.4 0 2.02.99 3.55 2.56 4.55 .97.62 2.16 1.03 3.46 1.25 -.13-.91.15-1.86.85-2.55l2.78-2.79c-.19-.96-.13-1.96.2-2.89Zm5.59-2.38c.44.05.56.57.25.89l-1.18 1.17c-.71.7-.71 1.85 0 2.55 .7.7 1.85.7 2.55 0l1.17-1.18c.31-.32.83-.19.89.25 .14 1.23-.26 2.52-1.21 3.47 -1.2 1.19-2.92 1.52-4.41.99l-3.28 3.27c-.71.7-1.86.7-2.56 0 -.71-.71-.71-1.86 0-2.56l3.27-3.28c-.53-1.49-.2-3.22.99-4.41 .94-.95 2.23-1.36 3.47-1.21Z"/></svg>