<svg viewBox="0 0 24 24" xmlns="http://www.w3.org/2000/svg"><path fill="currentColor" d="M11 17.5c0-1.29.37-2.5 1.02-3.51H4.25C3 13.99 2 14.99 2 16.23v.92c0 .57.17 1.12.51 1.59 1.54 2.16 4.06 3.23 7.48 3.23 .93 0 1.79-.08 2.59-.24 -1-1.15-1.6-2.64-1.6-4.27ZM10 2c2.76 0 5 2.23 5 5 0 2.76-2.24 4.99-5 4.99 -2.77 0-5.01-2.24-5.01-5 0-2.77 2.23-5 5-5Zm12.99 15.49c0 3.03-2.47 5.5-5.5 5.5 -3.04 0-5.5-2.47-5.5-5.5 0-3.04 2.46-5.5 5.5-5.5 3.03 0 5.5 2.46 5.5 5.5Zm-6.65-2.15c.19-.2.19-.52 0-.71 -.2-.2-.52-.2-.71 0l-1.5 1.5c-.2.19-.2.51 0 .7l1.5 1.5c.19.19.51.19.7 0 .19-.2.19-.52 0-.71l-.65-.65h2.04c1.24 0 2.25 1 2.25 2.25v.25c0 .27.22.5.5.5 .27 0 .5-.23.5-.5v-.25c0-1.8-1.46-3.25-3.25-3.25h-2.05l.64-.65Z"/></svg>