<svg viewBox="0 0 24 24" xmlns="http://www.w3.org/2000/svg"><path fill="currentColor" d="M11 14v2.93c0 .78.3 1.53.85 2.09l2.25 2.29c-1.18.44-2.56.67-4.12.67 -3.43 0-5.95-1.08-7.49-3.24 -.34-.47-.52-1.03-.52-1.6v-.92c0-1.25 1-2.25 2.24-2.25h6.74Zm4-7c0-2.77-2.24-5-5-5C7.23 2 4.99 4.23 4.99 7c0 2.76 2.23 5 5 5 2.76 0 5-2.24 5-5.01Zm1.57 15.39l-4.01-4.08c-.37-.38-.58-.88-.58-1.4v-2.94c0-1.11.89-2 2-2l2.91-.01c.52-.01 1.03.2 1.41.57l4.07 4.01c.78.77.79 2.04.01 2.82l-3 2.99c-.79.78-2.08.78-2.86-.02Zm-1.58-6.404c.55 0 .99-.45.99-1 0-.56-.45-1-1-1 -.56 0-1 .44-1 1 0 .55.44 1 .99 1Z"/></svg>