<svg viewBox="0 0 24 24" xmlns="http://www.w3.org/2000/svg"><path fill="currentColor" d="M17.49 12c3.03 0 5.5 2.46 5.5 5.5 0 3.03-2.47 5.5-5.5 5.5 -3.04 0-5.5-2.47-5.5-5.5 0-3.04 2.46-5.5 5.5-5.5Zm-5.48 1.99c-.65 1.01-1.03 2.21-1.03 3.5 0 1.64.61 3.14 1.61 4.29 -.81.14-1.68.21-2.62.21 -2.89 0-5.13-.66-6.7-2.01 -.83-.72-1.31-1.76-1.31-2.85v-.91c0-1.25 1-2.25 2.25-2.25l7.76-.01Zm3.07.96l-.07.05 -.06.06c-.12.17-.12.39 0 .56l.05.06 1.76 1.76 -1.77 1.76 -.06.06c-.12.17-.12.39 0 .56l.05.06 .06.05c.17.11.39.11.56 0l.06-.06 1.76-1.77 1.76 1.76 .06.05c.17.11.39.11.56 0l.06-.06 .05-.07c.11-.18.11-.4 0-.57l-.06-.07 -1.77-1.77 1.77-1.77 .05-.07c.11-.18.11-.4 0-.57l-.06-.07 -.07-.06c-.18-.12-.4-.12-.57 0l-.07.05 -1.78 1.76 -1.77-1.77 -.07-.06c-.15-.11-.34-.12-.5-.05l-.08.04ZM9.98 1.98c2.76 0 5 2.23 5 5 0 2.76-2.24 4.99-5.01 4.99 -2.77 0-5-2.24-5-5 0-2.77 2.23-5 5-5Z"/></svg>