<svg viewBox="0 0 24 24" xmlns="http://www.w3.org/2000/svg"><path fill="currentColor" d="M13 6.5c1.24 0 2.25-1.01 2.25-2.25C15.25 3 14.24 2 13 2c-1.25 0-2.25 1-2.25 2.25 0 1.24 1 2.25 2.25 2.25Zm-2.64-.09c.18.04.35.14.49.27 .57.5 1.32.8 2.14.8 .26 0 .51-.04.75-.09 .18-.05.37-.06.56-.02l.13.03c.38.09.71.33.91.67l1.33 2.17c.14.23.38.4.65.45l1.43.28c.81.16 1.33.95 1.17 1.76 -.17.81-.96 1.33-1.77 1.17l-2.51-.5c-.42-.09-.77-.34-.99-.69l-.19-.3c-.24-.39-.81-.33-.97.08 -.18.46-.12.98.16 1.38l.99 1.43c.15.22.24.49.26.76l.25 4.25c.04.82-.59 1.53-1.41 1.58 -.83.04-1.54-.59-1.59-1.41l-.2-3.4c-.02-.23-.11-.44-.25-.61l-.86-.97c-.17-.19-.41-.3-.67-.3 -.36 0-.69.21-.82.55l-2.09 5.18c-.31.76-1.19 1.14-1.96.83 -.77-.31-1.15-1.19-.84-1.96l3.07-7.64c.01-.06.03-.11.05-.17l.56-1.48c.09-.25-.04-.53-.29-.62 -.23-.08-.49.02-.59.25l-1.27 2.8c-.35.75-1.23 1.09-1.99.75 -.76-.35-1.1-1.23-.76-1.99l1.62-3.62c.16-.37.46-.66.84-.8l3.07-1.14c.28-.11.58-.13.88-.05l.5.12Z"/></svg>