<svg viewBox="0 0 24 24" xmlns="http://www.w3.org/2000/svg"><path fill="currentColor" d="M11.68 21.99c-.9-1.49-.71-3.46.57-4.74l3.26-3.27H6.23c-1.25 0-2.25 1-2.25 2.24v.91c0 .57.17 1.12.51 1.59 1.49 2.09 3.9 3.16 7.16 3.23Zm5.31-15c0-2.77-2.24-5-5-5 -2.77 0-5 2.23-5 5 0 2.76 2.23 5 4.99 5 2.76 0 5-2.24 5-5.01Zm.96 5.96c1.12-1.13 2.93-1.13 4.06 0 1.12 1.12 1.12 2.93 0 4.06l-5 5c-1.13 1.12-2.94 1.12-4.07 0 -1.13-1.13-1.13-2.94 0-4.07l5-5Zm3 1.06c-.54-.54-1.41-.54-1.94 0l-1.97 1.96 1.93 1.93 1.96-1.97c.53-.54.53-1.41 0-1.94ZM17.01 20c.29-.3.29-.77 0-1.07 -.3-.3-.77-.3-1.07 0l-1 1c-.3.29-.3.76 0 1.06 .29.29.76.29 1.06 0l1-1Z"/></svg>