<svg viewBox="0 0 24 24" xmlns="http://www.w3.org/2000/svg"><path fill="currentColor" d="M6.25 3C4.45 3 3 4.45 3 6.25v8.5C3 16.54 4.45 18 6.25 18h8.5c1.79 0 3.25-1.46 3.25-3.25v-8.5C18 4.45 16.54 3 14.75 3h-8.5Zm6.5 4.5c0 1.24-1.01 2.25-2.25 2.25 -1.25 0-2.25-1.01-2.25-2.25 0-1.25 1-2.25 2.25-2.25 1.24 0 2.25 1 2.25 2.25Zm.75 3.25c.82 0 1.5.67 1.5 1.5v.5c0 .49-.09.86-.26 1.16 -.17.3-.44.56-.82.82 -.74.5-1.86.76-3.43.76 -1.33 0-2.45-.26-3.25-.77 -.42-.27-.73-.53-.94-.83 -.21-.31-.33-.67-.33-1.16v-.5c0-.83.67-1.5 1.5-1.5h6ZM6.01 19c.57.9 1.58 1.5 2.73 1.5h6.5c2.89 0 5.25-2.36 5.25-5.25V8.74c0-1.16-.6-2.17-1.5-2.74v9.23c0 2.07-1.68 3.75-3.75 3.75H6Z"/></svg>