<svg viewBox="0 0 24 24" xmlns="http://www.w3.org/2000/svg"><path fill="currentColor" d="M13.75 2C14.99 2 16 3 16 4.25V11h-.25C14.23 11 13 12.23 13 13.75v.3c-1.15.23-2 1.24-2 2.45v1.49H8.75c-.42 0-.75.33-.75.75 0 .41.33.75.75.75H11v2c0 .17.01.33.05.5h-4.8C5 21.99 4 20.98 4 19.74V4.24c0-1.25 1-2.25 2.25-2.25h7.5ZM14 13.74v1.25h-.5c-.83 0-1.5.67-1.5 1.5v4.99c0 .82.67 1.5 1.5 1.5h8c.82 0 1.5-.68 1.5-1.5v-5c0-.83-.68-1.5-1.5-1.5H21v-1.26c0-.97-.79-1.75-1.75-1.75h-3.5c-.97 0-1.75.78-1.75 1.75Zm1.5 0c0-.14.11-.25.25-.25h3.5c.13 0 .25.11.25.25v1.25h-4v-1.26Z"/></svg>