<svg viewBox="0 0 24 24" xmlns="http://www.w3.org/2000/svg"><path fill="currentColor" d="M15.75 2C16.99 2 18 3 18 4.25v15.5c0 1.24-1.01 2.25-2.25 2.25h-7.5C7 22 6 20.99 6 19.75V4.25C6 3 7 2 8.25 2h7.5Zm-2.04 11.47l-1.72 1.74 -1.72-1.75c-.3-.3-.77-.31-1.07-.01 -.3.29-.31.76-.01 1.06l2.25 2.29c.29.29.77.29 1.07-.01l2.25-2.3c.29-.3.28-.78-.02-1.07 -.3-.29-.78-.29-1.07.01Zm1.07-3.96l-2.25-2.3c-.27-.28-.7-.3-.99-.08l-.09.07 -2.26 2.29c-.3.29-.29.77.01 1.06 .26.26.68.28.97.06l.08-.08 1.71-1.75 1.71 1.74c.28.29.76.3 1.06.01 .26-.27.29-.68.08-.98l-.08-.09 -2.25-2.3 2.25 2.29Z"/></svg>