<svg viewBox="0 0 24 24" xmlns="http://www.w3.org/2000/svg"><path fill="currentColor" d="M17.49 1.72c.7-.71 1.84-.71 2.54 0l2.23 2.23c.7.7.7 1.84 0 2.54l-6.17 6.16c-.71.7-1.85.7-2.55 0l-2.24-2.24c-.71-.71-.71-1.85 0-2.55l6.16-6.17Zm-5.32 7.01c-.24.23-.24.61 0 .84l2.23 2.23c.23.23.61.23.84 0l1.54-1.55 -3.083-3.09 -1.55 1.54Zm2.94-6.34c-.04-.01-.08-.01-.12-.01h-8.4c-1 0-1.8.8-1.8 1.8v15.59c0 .99.8 1.8 1.8 1.8h8.4c.99 0 1.8-.81 1.8-1.81v-6.14c-1.18 1.02-2.97.97-4.09-.15l-2.24-2.24c-1.18-1.18-1.18-3.08 0-4.25l4.64-4.65Zm-2.52 14.99c0 .33-.27.6-.6.6h-2.4c-.34 0-.6-.27-.6-.6 0-.34.26-.6.6-.6h2.4c.33 0 .6.26.6.6Z"/></svg>