<svg viewBox="0 0 24 24" xmlns="http://www.w3.org/2000/svg"><path fill="currentColor" d="M17.5 12c.29 0 .58.02.86.07l.17.71c.25 1.07 1.33 1.73 2.41 1.47l.09-.03 .6-.18c.36.46.65.99.85 1.57l-.45.43c-.76.72-.82 1.9-.17 2.69l.14.15 .47.45c-.21.57-.5 1.1-.86 1.56l-.61-.18c-1.06-.32-2.18.29-2.49 1.35l-.03.09 -.18.71c-.29.04-.57.07-.87.07 -.3 0-.59-.03-.87-.08l-.18-.72c-.26-1.08-1.34-1.74-2.42-1.48l-.1.02 -.61.17c-.37-.47-.66-1-.86-1.57l.44-.44c.75-.73.81-1.91.16-2.7l-.15-.16 -.48-.46c.2-.58.49-1.11.85-1.57l.6.17c1.05.31 2.17-.3 2.48-1.36l.02-.1 .17-.72c.28-.05.56-.08.86-.08ZM13.75 2C14.99 2 16 3 16 4.25l0 6.92c-2.87.67-5.01 3.25-5.01 6.32 0 .16 0 .33.01.5l-2.269-.01c-.42 0-.75.33-.75.75 0 .37.28.69.64.74l.1 0h2.5l.06-.01c.3.94.82 1.8 1.49 2.5l-6.57-.01c-1.25 0-2.25-1.01-2.25-2.25V4.2c0-1.25 1-2.25 2.25-2.25h7.5Zm3.75 14c-.81 0-1.45.67-1.45 1.5 0 .82.64 1.5 1.44 1.5 .8 0 1.44-.68 1.44-1.5 0-.83-.65-1.5-1.45-1.5Z"/></svg>