<svg viewBox="0 0 24 24" xmlns="http://www.w3.org/2000/svg"><path fill="currentColor" d="M13.75 2C14.99 2 16 3 16 4.25v6.58c-1.19.56-2 1.76-2 3.16v.05c-1.15.23-2 1.24-2 2.45v2.25c0-.42-.34-.75-.75-.75h-2.5c-.42 0-.75.33-.75.75 0 .41.33.75.75.75h2.5c.41 0 .75-.34.75-.75v2.75c0 .17.01.33.05.5h-5.8C5 21.99 4 20.98 4 19.74V4.24c0-1.25 1-2.25 2.25-2.25h7.5ZM15 14v1h-.5c-.83 0-1.5.67-1.5 1.5v5c0 .17.03.34.08.5 .2.58.76 1 1.41 1h6c.82 0 1.5-.68 1.5-1.5v-5c0-.83-.68-1.5-1.5-1.5h-.5v-1c0-1.39-1.12-2.5-2.5-2.5 -.57 0-1.09.18-1.5.49 -.61.45-1 1.18-1 2Zm1.5 0c0-.56.44-1 1-1 .55 0 1 .44 1 1v1h-2v-1Zm2 5c0 .55-.45 1-1 1 -.56 0-1-.45-1-1 0-.56.44-1 1-1 .55 0 1 .44 1 1Z"/></svg>