<svg viewBox="0 0 24 24" xmlns="http://www.w3.org/2000/svg"><path fill="currentColor" d="M15.75 2C16.99 2 18 3 18 4.25v6.76c-.17-.02-.34-.02-.5-.02 -3.6 0-6.51 2.91-6.51 6.5 0 .98.22 1.92.61 2.76l-.53 1.73H8.23c-1.25 0-2.25-1.01-2.25-2.25V4.23c0-1.25 1-2.25 2.25-2.25h7.5ZM21 13.25c-.84-.7-1.89-1.14-3.03-1.24 -.16-.02-.32-.02-.47-.02 -3.04 0-5.51 2.46-5.51 5.5 0 .96.25 1.87.68 2.66L12 22.33c-.12.38.24.74.62.62l2.18-.67c.78.43 1.69.68 2.66.68 3.03 0 5.5-2.47 5.5-5.51 0-1.71-.78-3.24-2.01-4.25Zm-5.5 3.74c-.28 0-.51-.23-.51-.51s.22-.51.5-.51h4c.27 0 .5.22.5.5 0 .27-.23.5-.51.5h-4.01Zm2 2h-2.01c-.28 0-.51-.23-.51-.51s.22-.51.5-.51h2c.27 0 .5.22.5.5 0 .27-.23.5-.51.5Z"/></svg>