<svg viewBox="0 0 24 24" xmlns="http://www.w3.org/2000/svg"><path fill="currentColor" d="M17.5 12c3.03 0 5.5 2.46 5.5 5.5 0 3.03-2.47 5.5-5.5 5.5 -3.04 0-5.5-2.47-5.5-5.5 0-3.04 2.46-5.5 5.5-5.5ZM13.75 2C14.99 2 16 3 16 4.25l0 6.92c-2.87.67-5.01 3.25-5.01 6.32 0 .16 0 .33.01.5l-2.269-.01c-.42 0-.75.33-.75.75 0 .37.28.69.64.74l.1 0h2.5l.06-.01c.3.94.82 1.8 1.49 2.5l-6.57-.01c-1.25 0-2.25-1.01-2.25-2.25V4.2c0-1.25 1-2.25 2.25-2.25h7.5Zm2.75 12c-.28 0-.5.22-.5.5v4c0 .27.22.5.5.5h3c.27 0 .5-.23.5-.5 0-.28-.23-.5-.5-.5h-2.51v-3.5c0-.28-.23-.5-.5-.5Z"/></svg>