<svg viewBox="0 0 24 24" xmlns="http://www.w3.org/2000/svg"><path fill="currentColor" d="M13.75 2C14.99 2 16 3 16 4.25l0 5.76c-3.36.25-6.01 3.05-6.01 6.48 0 .51.06 1.01.17 1.5l-1.43-.01c-.42 0-.75.33-.75.75 0 .37.28.69.64.74l.1 0 1.98 0c.53 1.02 1.33 1.88 2.3 2.5l-6.786-.01c-1.25 0-2.25-1.01-2.25-2.25V4.21c0-1.25 1-2.25 2.25-2.25h7.5Zm2.75 9c3.03 0 5.5 2.46 5.5 5.5 0 3.03-2.47 5.5-5.5 5.5 -3.04 0-5.5-2.47-5.5-5.5 0-3.04 2.46-5.5 5.5-5.5Zm.21 2.58l-.07.05 -.06.06c-.12.17-.12.39 0 .56l.05.06 1.64 1.64 -4.8 0 -.09 0c-.21.03-.37.19-.41.4l-.01.08 0 .08c.03.2.19.36.4.4l.08 0 4.8-.01 -1.65 1.64 -.06.06c-.14.19-.12.46.05.63 .17.17.44.19.63.05l.06-.06 2.52-2.54 .03-.06 .04-.09 .02-.09 0-.07v-.09l-.01-.07 -.03-.09 -.05-.09 -.04-.06 -2.53-2.54 -.07-.06c-.15-.11-.34-.12-.5-.05l-.08.04Z"/></svg>