<svg viewBox="0 0 24 24" xmlns="http://www.w3.org/2000/svg"><path fill="currentColor" d="M8.25 22h4.55c-1.13-1.17-1.81-2.76-1.81-4.5 0-.63.08-1.23.24-1.8l-.01-6.21 -.97.96 -.09.07c-.3.21-.72.19-.98-.08 -.27-.27-.3-.69-.08-.98l.07-.09 2.24-2.25 .05-.05 .05-.05 .07-.05 .11-.05 .09-.03 .09-.02h.09l.09.01 .06.01 .1.03 .06.03 .06.04 .06.04 .03.03 2.24 2.24 .07.08c.19.26.19.61 0 .88l-.08.09 -.09.07c-.27.19-.62.19-.89 0l-.1-.08 -.97-.97 0 3.55c1.18-1.27 2.87-2.07 4.75-2.07 .16 0 .33 0 .5.01V4.09c0-1.25-1.01-2.25-2.25-2.25H8.1c-1.25 0-2.25 1-2.25 2.25v15.5c0 1.24 1 2.25 2.25 2.25ZM23 17.5c0 3.03-2.47 5.5-5.5 5.5 -3.04 0-5.5-2.47-5.5-5.5 0-3.04 2.46-5.5 5.5-5.5 3.03 0 5.5 2.46 5.5 5.5Zm-2.15-2.36c-.2-.2-.52-.2-.71 0l-3.65 3.64 -1.65-1.65c-.2-.2-.52-.2-.71 0 -.2.19-.2.51 0 .7l2 2c.19.19.51.19.7 0l4-4c.19-.2.19-.52 0-.71Z"/></svg>