<svg viewBox="0 0 24 24" xmlns="http://www.w3.org/2000/svg"><path fill="currentColor" d="M13.19 7.57l5.9-5.91c.89-.9 2.33-.9 3.23-.001 .89.89.89 2.33 0 3.23l-5.91 5.9c-.35.34-.78.58-1.25.7l-1.84.45c-.8.19-1.52-.53-1.32-1.32l.45-1.84c.11-.48.36-.91.7-1.25Zm-.71-.71l4.49-4.5c-.36-.24-.78-.37-1.24-.37h-7.5c-1.25 0-2.25 1-2.25 2.25v15.5c0 1.24 1 2.25 2.25 2.25h7.5c1.24 0 2.25-1.01 2.25-2.25v-9.11l-.87.86c-.48.47-1.07.8-1.72.96l-1.84.45c-1.53.38-2.92-1.01-2.54-2.54l.45-1.84c.16-.65.49-1.24.96-1.72Zm.75 11.13c.41 0 .75.33.75.75 0 .41-.34.75-.75.75h-2.5c-.42 0-.75-.34-.75-.75 0-.42.33-.75.75-.75h2.5Z"/></svg>