<svg viewBox="0 0 24 24" xmlns="http://www.w3.org/2000/svg"><path fill="currentColor" d="M8.25 8c.96 0 1.74.78 1.74 1.75v9.5c0 .96-.79 1.75-1.75 1.75H3.73c-.97 0-1.75-.79-1.75-1.75V9.74c0-.97.78-1.75 1.75-1.75h4.5Zm-2.01 9.49h-.5c-.42 0-.75.33-.75.75 0 .41.33.75.75.75h.5c.41 0 .75-.34.75-.75 0-.42-.34-.75-.75-.75Zm14.99-1c.41 0 .75.33.75.75 0 .37-.29.69-.65.74l-.11 0 -10.25-.01v-1.5l10.24 0Zm-3-11.5c.96 0 1.75.78 1.75 1.75v7.5c0 .96-.79 1.75-1.75 1.75l-7.26-.01 0-7.01c0-1.06-.82-1.92-1.86-2l-.15-.01 -5.01-.01 0-.25c0-.97.78-1.75 1.75-1.75h12.5Z"/></svg>