<svg viewBox="0 0 24 24" xmlns="http://www.w3.org/2000/svg"><path fill="currentColor" d="M22.79 6.59c0 2.98-2.42 5.4-5.4 5.4 -2.99 0-5.4-2.42-5.4-5.41s2.41-5.4 5.4-5.4c2.98 0 5.4 2.41 5.4 5.4Zm-4.8-2.4c0-.34-.27-.6-.6-.6 -.34 0-.6.26-.6.6v1.8h-1.8c-.34 0-.6.26-.6.6 0 .33.26.6.6.6h1.8v1.8c0 .33.26.6.6.6 .33 0 .6-.27.6-.6v-1.8h1.8c.33 0 .6-.27.6-.6 0-.34-.27-.6-.6-.6h-1.8v-1.8Zm-.6 9c1.59 0 3.05-.57 4.2-1.51v1.5c0 1.32-1.08 2.4-2.4 2.4h-3.6v2.4h1.8c.33 0 .6.26.6.6 0 .33-.27.59-.6.59h-6.6v-1.2h3.6v-2.4h-3.6v-4.2c0-1.66-1.35-3.01-3-3.01h-3v-3.6c0-1.33 1.07-2.4 2.4-2.4h5.1c-.95 1.14-1.51 2.6-1.51 4.2 0 3.64 2.95 6.6 6.6 6.6ZM4.19 9.58c-1 0-1.8.8-1.8 1.8v8.39c0 .99.8 1.8 1.8 1.8h3.6c.99 0 1.8-.81 1.8-1.81v-8.4c0-1-.81-1.81-1.8-1.81h-3.6Zm.6 9c0-.34.26-.6.6-.6h1.2c.33 0 .6.26.6.6 0 .33-.27.59-.6.59h-1.2c-.34 0-.6-.27-.6-.6Z"/></svg>