<svg viewBox="0 0 24 24" xmlns="http://www.w3.org/2000/svg"><path fill="currentColor" d="M17.5 12c3.03 0 5.5 2.46 5.5 5.5 0 3.03-2.47 5.5-5.5 5.5 -3.04 0-5.5-2.47-5.5-5.5 0-3.04 2.46-5.5 5.5-5.5ZM13.75 2C14.99 2 16 3 16 4.25l0 6.92c-2.87.67-5.01 3.25-5.01 6.32H8.74c-.42 0-.75.33-.75.75 0 .41.33.75.75.75l2.42 0c.27 1.14.84 2.17 1.63 3l-6.57-.01c-1.25 0-2.25-1.01-2.25-2.25V4.23c0-1.25 1-2.25 2.25-2.25h7.5Zm3.75 11.99l-.09 0c-.21.03-.37.19-.41.4l-.01.08 -.01 2.5 -2.51 0 -.09 0c-.21.03-.37.19-.41.4l-.01.08 0 .08c.03.2.19.36.4.4l.08 0 2.5-.01 0 2.5 0 .08c.03.2.19.36.4.4l.08 0 .08-.01c.2-.04.36-.2.4-.41l0-.09 -.01-2.51 2.5 0 .08-.01c.2-.04.36-.2.4-.41l0-.09 -.01-.09c-.04-.21-.2-.37-.41-.41l-.09-.01 -2.51-.01 0-2.5 -.01-.09c-.04-.21-.2-.37-.41-.41l-.09-.01Z"/></svg>