<svg viewBox="0 0 24 24" xmlns="http://www.w3.org/2000/svg"><path fill="currentColor" d="M15.75 2C16.99 2 18 3 18 4.25v15.5c0 1.24-1.01 2.25-2.25 2.25h-7.5C7 22 6 20.99 6 19.75V4.25C6 3 7 2 8.25 2h7.49Zm-2.5 16h-2.5c-.42 0-.75.33-.75.75 0 .37.28.69.64.74l.1 0h2.5c.41 0 .75-.34.75-.75 0-.42-.34-.75-.75-.75Zm6.87-10.43c.47-.2 1.01.01 1.25.45l.04.1 .58 1.45c.36.9.25 1.92-.27 2.74l-.12.17 -.16.2c-.19.24-.25.55-.17.84l.04.12 .58 1.45c.2.51-.05 1.09-.56 1.29 -.48.19-1.02-.02-1.26-.46l-.05-.11 -.59-1.46c-.37-.91-.26-1.93.26-2.75l.11-.18 .15-.21c.18-.25.24-.56.16-.85l-.05-.13 -.59-1.46c-.21-.52.04-1.1.55-1.3Zm-17.51 0c.47-.2 1.01.01 1.25.45l.04.1 .58 1.45c.36.9.25 1.92-.27 2.74l-.12.17 -.16.2c-.19.24-.25.55-.17.84l.04.12 .58 1.45c.2.51-.05 1.09-.56 1.29 -.48.19-1.02-.02-1.26-.46l-.05-.11 -.59-1.46c-.37-.91-.26-1.93.26-2.75l.11-.18 .15-.21c.18-.25.24-.56.16-.85l-.05-.13 -.59-1.46c-.21-.52.04-1.1.55-1.3Z"/></svg>