<svg viewBox="0 0 24 24" xmlns="http://www.w3.org/2000/svg"><path fill="currentColor" d="M8.25 8.99c.96 0 1.74.78 1.74 1.75v9.5c0 .96-.79 1.75-1.75 1.75H3.73c-.97 0-1.75-.79-1.75-1.75v-9.51c0-.97.78-1.76 1.75-1.76h4.5Zm-2.01 9.49h-.5l-.11 0c-.37.04-.65.36-.65.74 0 .37.28.69.64.74l.1 0h.5l.1-.01c.36-.05.64-.37.64-.75s-.29-.7-.65-.75l-.11-.01Zm13.49-16.5c1.19 0 2.16.92 2.24 2.09l0 .15v9c0 1.19-.93 2.16-2.1 2.24l-.16 0h-3.75v2h1.24c.41 0 .75.33.75.75 0 .37-.29.69-.65.74l-.11 0h-6.25v-1.5h3.5v-2h-3.51v-5c0-1.33-1.04-2.42-2.34-2.5l-.17-.01h-4.5V4.19c0-1.2.92-2.17 2.09-2.25l.15-.01h13.5Z"/></svg>