<svg viewBox="0 0 24 24" xmlns="http://www.w3.org/2000/svg"><path fill="currentColor" d="M21.6 6.59c0 2.98-2.42 5.4-5.4 5.4 -2.99 0-5.4-2.42-5.4-5.41s2.41-5.4 5.4-5.4c2.98 0 5.4 2.41 5.4 5.4Zm-2.58-2.23c-.24-.24-.62-.24-.85 0l-3.18 3.17 -.78-.78c-.24-.24-.62-.24-.85 0 -.24.23-.24.61 0 .84l1.2 1.2c.23.23.61.23.84 0l3.6-3.6c.23-.24.23-.62 0-.85ZM7.79 2.38h3.3c-.95 1.14-1.51 2.6-1.51 4.2 0 3.64 2.95 6.6 6.6 6.6 .62 0 1.22-.09 1.8-.25v6.84c0 .99-.81 1.8-1.8 1.8h-8.4c-1 0-1.8-.81-1.8-1.81V4.16c0-1 .8-1.8 1.8-1.8Zm1.8 15c0 .33.26.6.6.6h3.6c.33 0 .6-.27.6-.6 0-.34-.27-.6-.6-.6h-3.6c-.34 0-.6.26-.6.6Z"/></svg>