<svg viewBox="0 0 24 24" xmlns="http://www.w3.org/2000/svg"><path fill="currentColor" d="M3.27 2.97c.31 1.09-.34 2.22-1.45 2.49l-.59.14c-.05.28-.07.58-.07.88 0 .31.02.62.07.92l.53.12c1.11.26 1.77 1.41 1.44 2.51l-.19.63c.43.38.93.69 1.48.92l.49-.52c.78-.83 2.11-.83 2.89 0l.49.52c.54-.23 1.04-.54 1.48-.92l-.2-.69c-.32-1.1.33-2.23 1.44-2.5l.58-.15c.04-.29.06-.59.06-.89 0-.32-.03-.63-.08-.93l-.54-.13C9.98 5.1 9.32 3.95 9.65 2.85l.18-.64c-.44-.39-.94-.7-1.49-.93l-.5.51c-.79.82-2.12.82-2.9-.01l-.5-.53c-.55.22-1.05.53-1.49.91l.19.68Zm3.22 5.02c-.81 0-1.45-.68-1.45-1.5 0-.83.64-1.5 1.44-1.5 .8 0 1.44.67 1.44 1.5 0 .82-.65 1.5-1.45 1.5Zm6.49-1.51c0 3.58-2.92 6.5-6.5 6.5 -.17 0-.34-.01-.5-.02v4.26c0 1.24 1 2.25 2.25 2.25h5.5c1.24 0 2.25-1.01 2.25-2.25v-13c0-1.25-1.01-2.25-2.25-2.25h-2.56c1.12 1.16 1.8 2.75 1.8 4.5Zm-4 9.75c0-.42.33-.75.75-.75h2.5c.41 0 .75.33.75.75 0 .41-.34.75-.75.75h-2.5c-.42 0-.75-.34-.75-.75Zm-.38 4.25c.3.87 1.14 1.5 2.12 1.5h3.5c2.34 0 4.25-1.91 4.25-4.25v-11c0-.98-.63-1.82-1.5-2.13v13.12c0 1.51-1.24 2.75-2.75 2.75H8.59Z"/></svg>