<svg viewBox="0 0 24 24" xmlns="http://www.w3.org/2000/svg"><path fill="currentColor" d="M15.75 2C16.99 2 18 3 18 4.25v15.5c0 1.24-1.01 2.25-2.25 2.25h-7.5C7 22 6 20.99 6 19.75V4.25C6 3 7 2 8.25 2h7.5ZM12 7.03l-.11 0 -.1.01c-.29.07-.5.31-.55.61l-.01.11 -.01 6.71 -.97-.97 -.09-.08c-.3-.22-.72-.2-.98.07 -.27.26-.3.68-.08.97l.07.08 2.24 2.24 .05.04 .05.04 .07.04 .11.04 .09.02 .09.01h.09l.09-.02 .06-.02 .1-.04 .06-.04 .06-.05 .06-.05 .03-.04 2.24-2.25 .07-.09c.19-.27.19-.62 0-.89l-.08-.1 -.09-.08c-.27-.2-.62-.2-.89-.01l-.1.07 -.97.96 0-6.72 -.01-.11c-.05-.34-.31-.6-.65-.65l-.11-.01Z"/></svg>