<svg viewBox="0 0 24 24" xmlns="http://www.w3.org/2000/svg"><path fill="currentColor" d="M12.33 4.07c1.2-.33 2.43.38 2.75 1.59l2.75 10.28c.32 1.2-.4 2.43-1.6 2.75l-4.6 1.23c-1.21.32-2.44-.4-2.76-1.6L6.11 8.03c-.33-1.2.39-2.44 1.59-2.76l4.59-1.24Zm2.35 11.2c-.11-.41-.52-.64-.92-.54l-1.94.51 -.1.03c-.35.14-.54.51-.44.88 .1.4.51.63.91.53l1.93-.52 .09-.04c.34-.15.53-.52.43-.89Zm3.98-12.89c.19-.37.65-.5 1.01-.3 .31.17.75.5 1.18 1.03 .43.52.76 1.14.95 1.85 .27 1.04.19 2.03-.12 2.91 -.11.3-.23.53-.31.67 -.22.35-.68.46-1.04.25 -.33-.2-.45-.61-.3-.95l.04-.1c.03-.06.1-.2.17-.4 .21-.62.27-1.31.08-2.04 -.14-.5-.37-.93-.67-1.3 -.3-.36-.59-.58-.75-.67 -.37-.2-.5-.66-.3-1.02Zm-1.18 2.05c.25-.33.72-.4 1.05-.15 .13.1.3.26.47.49 .18.24.33.52.41.83 .11.43.09.87-.02 1.28l-.06.17c-.02.05-.04.09-.05.13 -.16.38-.6.56-.99.4 -.36-.15-.54-.53-.44-.89l.05-.15c0-.02 0-.04.01-.06 .04-.19.05-.38.01-.53 -.03-.11-.09-.21-.17-.32 -.06-.08-.12-.14-.16-.18l-.04-.03c-.33-.26-.4-.73-.15-1.06ZM2.51 15.39c.2-.36.66-.49 1.02-.28 .32.18.45.59.31.93l-.1.19c-.04.06-.07.16-.11.28 -.21.61-.26 1.31-.06 2.05 .13.5.36.93.66 1.3 .25.32.51.53.67.65l.06.04c.35.2.48.66.27 1.02 -.21.35-.67.48-1.03.27 -.32-.19-.75-.53-1.17-1.06 -.43-.53-.75-1.15-.94-1.86 -.28-1.05-.21-2.04.08-2.92 .09-.3.2-.53.28-.67Zm2.13 1.34c.15-.39.59-.57.98-.41 .35.14.53.52.43.88l-.05.14c-.01.01-.01.03-.02.05 -.05.18-.06.37-.02.52 .02.1.08.21.16.31 .05.07.11.14.15.17l.03.02c.32.25.38.72.13 1.05 -.26.32-.73.38-1.06.13 -.14-.11-.31-.27-.48-.5 -.19-.25-.34-.53-.42-.83 -.12-.44-.1-.88.01-1.29l.05-.18c.01-.06.03-.1.04-.13Z"/></svg>