<svg viewBox="0 0 24 24" xmlns="http://www.w3.org/2000/svg"><path fill="currentColor" d="M13.75 2C14.99 2 16 3 16 4.25v7.08c-1.19.56-2 1.76-2 3.16 0 .97.4 1.86 1.05 2.5h-.28c-1.54 0-2.78 1.24-2.78 2.77v.1c0 .73.21 1.47.66 2.125H6.23c-1.25 0-2.25-1.01-2.25-2.25V4.23c0-1.25 1-2.25 2.25-2.25h7.5Zm-2.5 16h-2.5c-.42 0-.75.33-.75.75 0 .41.33.75.75.75h2.5c.41 0 .75-.34.75-.75 0-.42-.34-.75-.75-.75ZM20 14.5c0 1.38-1.12 2.5-2.5 2.5 -1.39 0-2.5-1.12-2.5-2.5 0-1.39 1.11-2.5 2.5-2.5 1.38 0 2.5 1.11 2.5 2.5Zm2 5.375C22 21.425 20.71 23 17.5 23c-3.22 0-4.5-1.57-4.5-3.125v-.11c0-.98.79-1.78 1.77-1.78h5.45c.97 0 1.77.79 1.77 1.77v.1Z"/></svg>