<svg viewBox="0 0 24 24" xmlns="http://www.w3.org/2000/svg"><path fill="currentColor" d="M13.75 2C14.99 2 16 3 16 4.25v8.67c-.37.05-.73.22-1.03.54l-1.44 1.53h-1.54c-.56 0-1 .44-1 1v2H8.74c-.42 0-.75.33-.75.75 0 .41.33.75.75.75h2.38c.17.29.49.49.86.49h1.53l1.43 1.53c.02.02.04.04.06.06 -.37.25-.81.4-1.29.4h-7.5c-1.25 0-2.25-1.01-2.25-2.25V4.22c0-1.25 1-2.25 2.25-2.25h7.5Zm8.39 12.3c-.33-.55-.67-.93-.92-1.13 -.32-.27-.8-.23-1.06.09 -.27.31-.23.79.09 1.05 .12.1.35.35.58.74 .4.66.64 1.47.64 2.42s-.25 1.75-.65 2.42c-.24.39-.47.64-.59.74 -.32.26-.37.73-.1 1.05 .26.31.73.36 1.05.09 .24-.21.58-.59.91-1.13 .53-.9.85-1.97.85-3.2 0-1.24-.33-2.31-.86-3.2Zm-2.27 1.09c-.24-.36-.49-.61-.68-.75 -.34-.25-.81-.19-1.05.15 -.25.33-.19.8.15 1.05 .06.04.19.17.32.37 .23.35.37.77.37 1.27s-.14.92-.38 1.27c-.14.2-.27.33-.33.37l-.09.07c-.26.25-.3.67-.07.97 .24.33.71.39 1.05.15 .18-.15.43-.39.67-.75 .39-.59.62-1.3.62-2.11 0-.82-.24-1.52-.63-2.11Zm-2.88-.65c0-.32-.2-.6-.49-.71 -.3-.11-.63-.03-.83.2l-1.53 1.74h-1.41c-.42 0-.75.33-.75.75v1.5c0 .41.33.75.75.75h1.4l1.52 1.74c.2.23.53.31.82.2 .29-.11.48-.39.48-.71v-5.5Z"/></svg>