<svg viewBox="0 0 24 24" xmlns="http://www.w3.org/2000/svg"><path fill="currentColor" d="M15.75 2c1.19 0 2.16.92 2.24 2.09l0 .15 0 3.66c-.65-.31-1.45-.2-1.99.34l-2.18 2.21c-.53.31-.84.89-.84 1.52l0 .15c.03.46.24.88.58 1.18l.11.09 2.3 2.3 .13.12c.57.42 1.27.48 1.84.22l-.01 3.66c0 1.19-.93 2.16-2.096 2.24l-.16 0h-7.5c-1.2 0-2.17-.93-2.25-2.096l-.01-.16 -.01-3.69c.58.28 1.26.22 1.79-.17l.14-.12 2.35-2.36 .11-.1c.37-.34.59-.83.59-1.35l-.01-.16c-.04-.47-.25-.89-.59-1.19l-.12-.1 -2.31-2.31c-.54-.54-1.34-.66-1.99-.35l0-3.67c0-1.2.92-2.17 2.09-2.25l.15-.01h7.5Zm2.03 6.96c.26.26.29.68.07.97l-.08.08 -1.23 1.21h3.78c.36-.01.65.33.65.74 0 .37-.25.69-.57.74l-.09 0h-3.79l1.22 1.22c.26.26.29.68.07.97l-.08.08c-.27.26-.69.29-.98.07l-.09-.08 -2.37-2.37c-.21-.13-.36-.38-.36-.67 0-.29.14-.54.35-.67l2.37-2.37c.29-.3.76-.3 1.06 0ZM7.19 8.88l.08.07 2.37 2.36c.2.12.35.37.35.66 0 .25-.11.47-.28.61l-.08.05 -2.37 2.36 -.09.07c-.27.19-.62.19-.89 0l-.1-.08 -.08-.09c-.2-.27-.2-.62-.01-.89l.07-.1 1.22-1.23H3.59l-.09-.01c-.33-.05-.57-.37-.57-.75s.24-.7.56-.75l.08-.01h3.78L6.12 9.93l-.08-.09c-.22-.3-.2-.72.07-.98 .26-.27.68-.3.97-.08Z"/></svg>