<svg viewBox="0 0 24 24" xmlns="http://www.w3.org/2000/svg"><path fill="currentColor" d="M17.5 12c3.03 0 5.5 2.46 5.5 5.5 0 3.03-2.47 5.5-5.5 5.5 -3.04 0-5.5-2.47-5.5-5.5 0-3.04 2.46-5.5 5.5-5.5ZM13.75 2C14.99 2 16 3 16 4.25l0 6.92c-2.87.67-5.01 3.25-5.01 6.32 0 .16 0 .33.01.5l-2.269-.01c-.42 0-.75.33-.75.75 0 .37.28.69.64.74l.1 0h2.5l.06-.01c.3.94.82 1.8 1.49 2.5l-6.57-.01c-1.25 0-2.25-1.01-2.25-2.25V4.2c0-1.25 1-2.25 2.25-2.25h7.5Zm1.343 12.96l-.07.05 -.06.06c-.12.17-.12.39 0 .56l.05.06 1.76 1.76 -1.77 1.76 -.06.06c-.12.17-.12.39 0 .56l.05.06 .06.05c.17.11.39.11.56 0l.06-.06 1.76-1.77 1.76 1.76 .06.05c.17.11.39.11.56 0l.06-.06 .05-.07c.11-.18.11-.4 0-.57l-.06-.07 -1.77-1.77 1.77-1.77 .05-.07c.11-.18.11-.4 0-.57l-.06-.07 -.07-.06c-.18-.12-.4-.12-.57 0l-.07.05 -1.78 1.76 -1.77-1.77 -.07-.06c-.15-.11-.34-.12-.5-.05l-.08.04Z"/></svg>