<svg viewBox="0 0 24 24" xmlns="http://www.w3.org/2000/svg"><path fill="currentColor" d="M8.25 6.99c.96 0 1.74.78 1.74 1.75v9.5c0 .96-.79 1.75-1.75 1.75H3.73c-.97 0-1.75-.79-1.75-1.75V8.73c0-.97.78-1.75 1.75-1.75h4.5Zm-2.01 9.49h-.5l-.11 0c-.37.04-.65.36-.65.74 0 .37.28.69.64.74l.1 0h.5l.1-.01c.36-.05.64-.37.64-.75s-.29-.7-.65-.75l-.11-.01Zm13.49-12.5c1.19 0 2.16.92 2.24 2.09l0 .15v8.5c0 1.19-.93 2.16-2.1 2.24l-.16 0h-8.76l0-8.5c0-1.33-1.04-2.42-2.34-2.5l-.17-.01 -2.49 0c.11-1.08.98-1.92 2.07-2l.16-.01h11.5Zm-4.5 9.5h-2.5c-.42 0-.75.33-.75.75 0 .37.28.69.64.74l.1 0h2.5c.41 0 .75-.34.75-.75 0-.38-.29-.7-.65-.75l-.11-.01Z"/></svg>