<svg viewBox="0 0 24 24" xmlns="http://www.w3.org/2000/svg"><path fill="currentColor" d="M15.75 2C16.99 2 18 3 18 4.25v7c-1.75.61-3 2.28-3 4.24 0 .18.01.37.03.55l-1.95 1.94h-2.34c-.42 0-.75.33-.75.75 0 .41.33.75.75.75h.83l-.08.07c-.33.32-.52.77-.52 1.23v1.18H8.22c-1.25 0-2.25-1.01-2.25-2.25V4.21c0-1.25 1-2.25 2.25-2.25h7.5Zm3.75 17c1.93 0 3.5-1.57 3.5-3.5 0-1.94-1.57-3.5-3.5-3.5 -1.94 0-3.5 1.56-3.5 3.5 0 .31.04.62.12.91 -.06.03-.11.07-.16.11l-3.75 3.75c-.15.14-.22.33-.22.53v1.43c0 .41.33.75.75.75h1.75c.27 0 .5-.23.5-.5v-.5h1c.27 0 .5-.23.5-.5v-1h1c.27 0 .5-.23.5-.5v-1h1.5Zm1.5-4c0 .55-.45 1-1 1 -.56 0-1-.45-1-1 0-.56.44-1 1-1 .55 0 1 .44 1 1Z"/></svg>