<svg viewBox="0 0 24 24" xmlns="http://www.w3.org/2000/svg"><path fill="currentColor" d="M2 7c0-1.66 1.34-3 3-3h15.25c.55 0 1 .44 1 1 0 .55-.45 1-1 1H17v10.7c0 1.03 1.02 1.76 2 1.41l.15-.06c.52-.19 1.09.08 1.27.6 .18.52-.09 1.09-.61 1.27l-.16.05c-2.28.81-4.68-.88-4.68-3.3V5.96H9.94c-.02.22-.03.51-.06.86 -.06.82-.16 1.99-.31 3.34 -.32 2.68-.89 6.14-1.93 9.11 -.19.52-.76.79-1.28.61 -.53-.19-.8-.76-.62-1.28 .96-2.78 1.51-6.07 1.82-8.7 .15-1.31.24-2.44.3-3.25 .01-.3.03-.54.04-.74H4.92c-.56 0-1 .44-1 1v.5c0 .55-.45 1-1 1 -.56 0-1-.45-1-1v-.5Z"/></svg>