<svg viewBox="0 0 24 24" xmlns="http://www.w3.org/2000/svg"><path fill="currentColor" d="M5.25 3C3.45 3 2 4.45 2 6.25v9.5C2 17.54 3.45 19 5.25 19H11v-4c0-1.66 1.34-3 3-3h7c.35 0 .68.06 1 .17V6.24c0-1.8-1.46-3.25-3.25-3.25H5.25Zm1.03 3.21l3.21 3.21V7.73c0-.42.33-.75.75-.75 .41 0 .75.33.75.75v3.5c0 .41-.34.75-.75.75h-3.5c-.42 0-.75-.34-.75-.75 0-.42.33-.75.75-.75h1.68L5.2 7.26c-.3-.3-.3-.77 0-1.07 .29-.3.76-.3 1.06 0Zm15.71 7.04c-.3-.18-.64-.27-1-.27h-7c-1.11 0-2 .89-2 2v5c0 1.1.89 2 2 2h7c1.1 0 2-.9 2-2v-5c0-.75-.41-1.39-1-1.74Z"/></svg>