<svg viewBox="0 0 24 24" xmlns="http://www.w3.org/2000/svg"><path fill="currentColor" d="M10 11c1.1 0 2-.9 2-2V4c0-1.11-.9-2-2-2H3c-1.11 0-2 .89-2 2v5c0 .75.42 1.41 1.04 1.75 .28.15.6.24.95.24h7Zm0 1H3c-.36 0-.69-.07-1-.18v5.92c0 1.79 1.45 3.25 3.25 3.25h13.5c1.79 0 3.25-1.46 3.25-3.25v-9.5c0-1.8-1.46-3.25-3.25-3.25H13v4c0 1.65-1.35 3-3 3Zm4.25 4h1.68l-2.72-2.72c-.3-.3-.3-.77 0-1.07 .29-.3.76-.3 1.06 0l2.71 2.71v-1.69c0-.42.33-.75.75-.75 .41 0 .75.33.75.75v3.5c0 .41-.34.75-.75.75h-3.5c-.42 0-.75-.34-.75-.75 0-.42.33-.75.75-.75Z"/></svg>