<svg viewBox="0 0 24 24" xmlns="http://www.w3.org/2000/svg"><path fill="currentColor" d="M13.3 3.52c1.98-1.99 5.19-1.99 7.17 0 1.98 1.98 1.98 5.19 0 7.17l-9.78 9.77c-1.99 1.98-5.2 1.98-7.18 0 -1.99-1.99-1.99-5.2-.001-7.18l9.77-9.78Zm6.11 1.06c-1.4-1.4-3.66-1.4-5.06 0L9.99 8.93l5.05 5.05 4.35-4.36c1.39-1.4 1.39-3.66 0-5.06ZM10.8 18.27c.29-.3.29-.77 0-1.07 -.3-.3-.77-.3-1.07 0l-1.45 1.44c-.58.57-1.52.58-2.1.02l-.02-.02c-.3-.29-.78-.28-1.07.02 -.29.29-.28.77.02 1.06l.01.01c1.17 1.13 3.04 1.11 4.19-.05l1.44-1.45Z"/></svg>