<svg viewBox="0 0 24 24" xmlns="http://www.w3.org/2000/svg"><path fill="currentColor" d="M2.4 6.6c0-1 .8-1.8 1.8-1.8 .99 0 1.79.8 1.8 1.79v10.8c-.01.99-.81 1.79-1.8 1.79 -1 0-1.8-.81-1.8-1.8V6.58Zm14.4 4.22c-3.17.28-5.69 2.8-5.98 5.97H7.19v-9.6h9.6v3.62ZM18 6.59v4.22c1.36.12 2.6.65 3.6 1.48V6.58c0-1-.81-1.8-1.8-1.8 -1 0-1.8.8-1.8 1.8Zm4.8 10.79c0 2.98-2.42 5.4-5.4 5.4 -2.99 0-5.4-2.42-5.4-5.4 0-2.99 2.41-5.4 5.4-5.4 2.98 0 5.4 2.41 5.4 5.4Zm-4.8-2.4c0-.34-.27-.6-.6-.6 -.34 0-.6.26-.6.6v1.8H15c-.34 0-.6.26-.6.6 0 .33.26.6.6.6h1.8v1.8c0 .33.26.6.6.6 .33 0 .6-.27.6-.6v-1.8h1.8c.33 0 .6-.27.6-.6 0-.34-.27-.6-.6-.6H18v-1.8Z"/></svg>