<svg viewBox="0 0 24 24" xmlns="http://www.w3.org/2000/svg"><path fill="currentColor" d="M1.2 6.59c0-2.99 2.41-5.4 5.4-5.4 2.98 0 5.4 2.41 5.4 5.4 0 2.98-2.42 5.4-5.41 5.4s-5.41-2.42-5.41-5.41Zm7.67 1.07L7.79 8.73V6.87c0-1.83-1.48-3.3-3.31-3.3h-.31c-.34 0-.61.26-.61.6 0 .33.26.6.6.6h.3c1.16 0 2.1.94 2.1 2.1v1.85L5.48 7.64c-.24-.24-.62-.24-.85 0 -.24.23-.24.61 0 .84l2.1 2.1c.05.05.12.09.19.12 .07.02.14.04.22.04 .08 0 .15-.02.22-.05 .07-.03.13-.08.19-.14l2.1-2.1c.23-.24.23-.62 0-.85 -.24-.24-.62-.24-.85 0Zm-6.49 4.01c.99.82 2.23 1.36 3.6 1.48v4.22c-.01.99-.81 1.79-1.81 1.79s-1.81-.81-1.81-1.8v-5.72Zm10.78-4.49c-.29 3.16-2.81 5.68-5.98 5.97v3.62h9.6V7.16h-3.63Zm6.62-2.4c-1 0-1.81.8-1.81 1.8v10.8c0 .99.8 1.8 1.8 1.8 .99 0 1.8-.81 1.8-1.8V6.57c0-1-.81-1.8-1.81-1.8Z"/></svg>