<svg viewBox="0 0 24 24" xmlns="http://www.w3.org/2000/svg"><path fill="currentColor" d="M3 6.5V17c0 1.93 1.56 3.5 3.5 3.5h4.37c-.09-.24-.13-.5-.13-.76 0-.6.23-1.17.65-1.6l1.5-1.5c.87-.88 2.3-.88 3.18 0 .24.24.42.53.53.84h.87v-.88c-.31-.11-.6-.29-.85-.54 -.88-.88-.88-2.31 0-3.19l1.5-1.5c.42-.43.99-.66 1.59-.66 .25 0 .51.04.75.12V6.45c0-1.94-1.57-3.5-3.5-3.5H6.46c-1.94 0-3.5 1.56-3.5 3.5ZM6.5 5h1C8.32 5 9 5.67 9 6.5v1C9 8.32 8.32 9 7.5 9h-1C5.67 9 5 8.32 5 7.5v-1C5 5.67 5.67 5 6.5 5ZM11 6.5c0-.83.67-1.5 1.5-1.5H17c.82 0 1.5.67 1.5 1.5v1c0 .82-.68 1.5-1.5 1.5h-4.5c-.83 0-1.5-.68-1.5-1.5v-1ZM7.5 11c.82 0 1.5.67 1.5 1.5V17c0 .82-.68 1.5-1.5 1.5h-1c-.83 0-1.5-.68-1.5-1.5v-4.5c0-.83.67-1.5 1.5-1.5h1Zm12.78 1.46c-.15-.15-.34-.22-.54-.22s-.39.07-.54.21l-1.5 1.5c-.3.29-.3.76 0 1.06 .29.29.76.29 1.06 0l.21-.22v2.43c0 .96-.79 1.75-1.75 1.75h-2.44l.21-.22c.29-.3.29-.77 0-1.07 -.3-.3-.77-.3-1.07 0l-1.5 1.49c-.15.14-.22.33-.22.53 0 .19.07.38.21.53l1.5 1.5c.29.29.76.29 1.06 0 .29-.3.29-.77 0-1.07l-.22-.22h2.43c1.79 0 3.25-1.46 3.25-3.25v-2.44l.21.21c.29.29.76.29 1.06 0 .29-.3.29-.77 0-1.07l-1.5-1.5Z"/></svg>