<svg viewBox="0 0 24 24" xmlns="http://www.w3.org/2000/svg"><path fill="currentColor" d="M12 2c-1.66 0-3 1.34-3 3 0 .18.01.36.04.54 -1.17.21-2.05 1.23-2.05 2.45 0 .68.27 1.29.71 1.75 -.45.45-.72 1.06-.72 1.75 0 1.38 1.11 2.5 2.5 2.5h1.75v4.68L7.76 15.2c-.3-.3-.77-.3-1.07 0 -.3.29-.3.76 0 1.06l4.53 4.53v1.43c0 .41.33.75.75.75 .41 0 .75-.34.75-.75v-1.44l4.53-4.54c.29-.3.29-.77 0-1.07 -.3-.3-.77-.3-1.07 0l-3.47 3.46v-4.69h1.75c1.38 0 2.5-1.12 2.5-2.5 0-.69-.28-1.3-.72-1.75 .44-.46.71-1.07.71-1.75 0-1.23-.89-2.25-2.05-2.46 .03-.18.04-.36.04-.55 0-1.66-1.35-3-3-3Z"/></svg>