<svg viewBox="0 0 24 24" xmlns="http://www.w3.org/2000/svg"><path fill="currentColor" d="M8.31 3.25c-.21-.24-.54-.33-.83-.22 -.3.1-.49.38-.49.7v6.55c-.38-.77-.77-1.36-1.14-1.82 -.48-.58-.92-.94-1.27-1.16 -.18-.11-.32-.19-.44-.24 -.06-.03-.11-.05-.15-.06 -.02-.01-.04-.02-.05-.02l-.02-.01 -.01-.01 -.01-.01 -.01-.01c-.01-.01-.01-.01-.01-.01 -.23-.07-.47-.02-.66.12 -.19.14-.3.36-.3.59v9.99c0 1.79 1.45 3.25 3.25 3.25h11.5c1.79 0 3.25-1.46 3.25-3.25v-10c0-.24-.11-.46-.3-.6 -.19-.15-.43-.19-.66-.13 0 0 0-.01-.01 0l-.01 0 -.01 0 -.01 0 -.02 0c-.02 0-.03 0-.05.01 -.04.01-.09.03-.15.05 -.12.04-.26.12-.44.23 -.35.21-.79.57-1.27 1.15 -.38.45-.77 1.04-1.14 1.81V3.59c0-.32-.2-.6-.49-.71 -.3-.11-.63-.03-.83.21l-.01 0 -.01 0 -.01.01 -.04.03c-.03.03-.07.07-.12.13 -.1.11-.24.29-.4.51 -.34.44-.79 1.07-1.27 1.86 -.63 1.02-1.32 2.31-1.87 3.77 -.55-1.47-1.24-2.76-1.87-3.78 -.49-.79-.94-1.43-1.27-1.87 -.17-.23-.31-.4-.4-.52 -.05-.06-.09-.11-.12-.14l-.04-.04 -.01-.02 -.01-.01 -.01-.01Z"/></svg>