<svg viewBox="0 0 24 24" xmlns="http://www.w3.org/2000/svg"><path fill="currentColor" d="M8.18 3.28c.08-.33.22-.63.4-.89h-.19c-1.33 0-2.41 1.07-2.41 2.4l-.01 6.64 2.19-8.16Zm-3.39.91c0-.19.01-.37.04-.54l-.07.01C3.47 4 2.71 5.31 3.06 6.59l1.71 6.4 0-8.83Zm7.32-1.72c-1.29-.35-2.6.41-2.95 1.69L5.75 16.81c-.35 1.28.41 2.59 1.69 2.93l6.49 1.74c1.28.34 2.59-.42 2.94-1.7l3.4-12.66c.34-1.29-.42-2.6-1.7-2.94l-6.5-1.75Zm2.27 5.91c-.67 0-1.2-.54-1.2-1.2 0-.67.53-1.2 1.2-1.2 .66 0 1.2.53 1.2 1.2 0 .66-.54 1.2-1.2 1.2Zm-1.5 8.4c0 .66-.54 1.2-1.2 1.2 -.67 0-1.2-.54-1.2-1.2 0-.67.53-1.2 1.2-1.2 .66 0 1.2.53 1.2 1.2Z"/></svg>