<svg viewBox="0 0 24 24" xmlns="http://www.w3.org/2000/svg"><path fill="currentColor" d="M6.65 18.84c.42.42.99.65 1.59.65 .38-.01.76-.11 1.1-.3l12-6.75c.34-.2.63-.49.83-.83 .2-.35.3-.74.3-1.14 0-.4-.11-.79-.31-1.14 -.21-.35-.49-.63-.84-.83L9.3 1.74c-.35-.19-.73-.28-1.12-.27 -.39 0-.77.11-1.11.31 -.34.19-.62.47-.81.81 -.2.33-.31.71-.32 1.1v13.49c0 .59.23 1.16.65 1.59Zm10.98-2.59l1.83-1.02c.01.12.02.24.03.37 -.01.39-.11.79-.31 1.13 -.21.34-.49.63-.84.82l-7.62 4.29c-.77.4-1.63.62-2.49.63 -.47 0-.93-.07-1.37-.2 -.92-.24-1.74-.72-2.385-1.4 -.97-.98-1.51-2.29-1.5-3.66V8.82c0-.46.15-.91.41-1.29s.64-.66 1.08-.81v10.46c0 .64.18 1.28.5 1.84s.78 1.03 1.34 1.36c.55.33 1.19.51 1.84.52 .64.01 1.28-.14 1.86-.45l7.57-4.26s0-.01.01-.01c0-.01 0-.01 0-.02Z"/></svg>