<svg viewBox="0 0 24 24" xmlns="http://www.w3.org/2000/svg"><path fill="currentColor" d="M21.33 3.93c.35-.36.35-.93 0-1.28 -.36-.36-.93-.36-1.28 0l-2.94 2.93c-1.89-1.29-4.48-1.1-6.16.57l-.36.36c-.7.69-.7 1.83 0 2.52l2.95 2.95c1.07-.77 2.4-1.23 3.82-1.23 .56 0 1.11.07 1.63.2 .41-1.38.2-2.91-.64-4.14l2.93-2.94ZM9.05 10.6L12 13.55c-.77 1.07-1.23 2.4-1.23 3.82 0 .56.07 1.11.2 1.63 -1.38.41-2.91.2-4.14-.64l-2.94 2.93c-.36.35-.93.35-1.28 0 -.36-.36-.36-.93 0-1.28l2.93-2.94c-1.29-1.89-1.1-4.48.57-6.16l.36-.36c.69-.7 1.83-.7 2.52 0Zm13.73 6.78c0 2.98-2.42 5.4-5.4 5.4 -2.99 0-5.4-2.42-5.4-5.4 0-2.99 2.41-5.4 5.4-5.4 2.98 0 5.4 2.41 5.4 5.4Zm-2.58-2.23c-.24-.24-.62-.24-.85 0l-3.18 3.17 -.78-.78c-.24-.24-.62-.24-.85 0 -.24.23-.24.61 0 .84l1.2 1.2c.23.23.61.23.84 0l3.6-3.6c.23-.24.23-.62 0-.85Z"/></svg>