<svg viewBox="0 0 24 24" xmlns="http://www.w3.org/2000/svg"><path fill="currentColor" d="M21.7 3.7c.39-.4.39-1.03 0-1.42 -.4-.4-1.03-.4-1.42 0l-1.8 1.79c-1.65-1.03-3.83-.83-5.26.6l-1.07 1.06c-.69.68-.69 1.79 0 2.47l3.58 3.58c.68.68 1.79.68 2.47 0l1.06-1.07c1.42-1.43 1.62-3.62.6-5.26l1.79-1.8Zm-11 7.99c.39-.4.39-1.03 0-1.42 -.4-.4-1.03-.4-1.42 0l-1.47 1.46 -.3-.3c-.3-.3-.77-.3-1.07 0L4.66 13.2c-1.43 1.42-1.63 3.61-.61 5.25l-1.8 1.79c-.4.39-.4 1.02 0 1.41 .39.39 1.02.39 1.41 0l1.79-1.8c1.64 1.02 3.82.82 5.25-.61l1.77-1.78c.29-.3.29-.77 0-1.07l-.3-.3 1.46-1.47c.39-.4.39-1.03 0-1.42 -.4-.4-1.03-.4-1.42 0l-1.47 1.46 -1.59-1.59 1.46-1.47Z"/></svg>