<svg viewBox="0 0 24 24" xmlns="http://www.w3.org/2000/svg"><path fill="currentColor" d="M19.48 5.57c.78 1.016 1.26 2.29 1.26 3.67 0 .84-.18 1.63-.49 2.36 -.84-.4-1.78-.62-2.77-.62 -1.42 0-2.72.45-3.785 1.21L9.82 8.32c-.53-.53-.74-1.31-.39-1.96 1.01-1.88 2.99-3.16 5.28-3.16 1.38 0 2.66.47 3.67 1.26l2.29-2.3c.29-.3.76-.3 1.06 0 .29.29.29.76 0 1.06l-2.3 2.29Zm-8.49 11.92c0-1.42.45-2.72 1.21-3.79L8.33 9.83c-.53-.53-1.31-.74-1.96-.39 -1.88 1.01-3.16 2.99-3.16 5.28 0 1.38.47 2.66 1.26 3.67l-2.3 2.29c-.3.29-.3.76 0 1.06 .29.29.76.29 1.06 0l2.29-2.3c1.01.78 2.29 1.26 3.67 1.26 .84 0 1.64-.18 2.36-.49 -.4-.84-.62-1.78-.62-2.77Zm1.83-1.03c1.1-.28 1.75-1.41 1.44-2.5l-.2-.69c.43-.39.93-.7 1.48-.92l.49.52c.78.82 2.11.82 2.89 0l.49-.52c.54.22 1.04.53 1.48.92l-.19.63c-.33 1.09.33 2.24 1.45 2.51l.53.12c.04.3.07.6.07.92 0 .3-.03.59-.07.88l-.59.14c-1.11.27-1.76 1.4-1.45 2.49l.19.68c-.44.38-.94.69-1.49.91l-.5-.53c-.79-.83-2.12-.83-2.9-.01l-.5.51c-.55-.23-1.05-.54-1.49-.93l.18-.64c.32-1.1-.34-2.25-1.45-2.52l-.54-.13c-.05-.31-.08-.61-.08-.93 0-.31.02-.6.06-.89l.58-.15Zm3.21 1.02c0 .82.64 1.5 1.44 1.5 .8 0 1.44-.68 1.44-1.5 0-.83-.65-1.5-1.45-1.5 -.81 0-1.45.67-1.45 1.5Z"/></svg>