<svg viewBox="0 0 24 24" xmlns="http://www.w3.org/2000/svg"><path fill="currentColor" d="M21.33 3.93c.35-.36.35-.93 0-1.28 -.36-.36-.93-.36-1.28 0l-2.94 2.93c-1.89-1.29-4.48-1.1-6.16.57l-.36.36c-.7.69-.7 1.83 0 2.52l2.95 2.95c1.07-.77 2.4-1.23 3.82-1.23 .56 0 1.11.07 1.63.2 .41-1.38.2-2.91-.64-4.14l2.93-2.94ZM9.05 10.6L12 13.55c-.77 1.07-1.23 2.4-1.23 3.82 0 .56.07 1.11.2 1.63 -1.38.41-2.91.2-4.14-.64l-2.94 2.93c-.36.35-.93.35-1.28 0 -.36-.36-.36-.93 0-1.28l2.93-2.94c-1.29-1.89-1.1-4.48.57-6.16l.36-.36c.69-.7 1.83-.7 2.52 0Zm11.33 11.27c-.89.59-1.94.91-3.01.91 -1.44 0-2.81-.57-3.82-1.59 -1.02-1.02-1.59-2.39-1.59-3.82 0-1.07.31-2.12.91-3.01 .59-.89 1.43-1.59 2.42-1.99 .98-.41 2.07-.52 3.12-.31 1.04.2 2 .72 2.76 1.47 .75.75 1.26 1.71 1.47 2.76 .2 1.04.1 2.13-.31 3.12 -.41.98-1.11 1.83-1.99 2.42Zm-2.58-7.32c-.12-.12-.27-.18-.43-.18 -.16 0-.32.06-.43.17 -.12.11-.18.26-.18.42v1.8h-1.8c-.16 0-.32.06-.43.17 -.12.11-.18.26-.18.42 0 .15.06.31.17.42 .11.11.26.17.42.17h1.8v1.8c0 .15.06.31.17.42 .11.11.26.17.42.17 .15 0 .31-.07.42-.18 .11-.12.17-.27.17-.43v-1.8h1.8c.15 0 .31-.07.42-.18 .11-.12.17-.27.17-.43 0-.16-.07-.32-.18-.43 -.12-.12-.27-.18-.43-.18h-1.8v-1.8c0-.16-.07-.32-.18-.43Z"/></svg>