<svg viewBox="0 0 24 24" xmlns="http://www.w3.org/2000/svg"><path fill="currentColor" d="M19.48 5.57c.78 1.016 1.26 2.29 1.26 3.67 0 2.28-1.28 4.26-3.16 5.28 -.65.35-1.44.13-1.96-.39l-5.8-5.8c-.53-.53-.74-1.31-.39-1.96 1.01-1.88 2.99-3.16 5.28-3.16 1.38 0 2.66.47 3.67 1.26l2.29-2.3c.29-.3.76-.3 1.06 0 .29.29.29.76 0 1.06l-2.3 2.29ZM3.27 21.77l2.29-2.3c1.01.78 2.29 1.26 3.67 1.26 2.28 0 4.26-1.28 5.28-3.16 .35-.65.13-1.44-.39-1.96l-5.8-5.8c-.53-.53-1.31-.74-1.96-.39 -1.88 1.01-3.16 2.99-3.16 5.28 0 1.38.47 2.66 1.26 3.67l-2.3 2.29c-.3.29-.3.76 0 1.06 .29.29.76.29 1.06 0Z"/></svg>