<svg viewBox="0 0 24 24" xmlns="http://www.w3.org/2000/svg"><path fill="currentColor" d="M10.25 2c.37 0 .69.28.74.64l0 .1 0 4.79c2.85.34 5.11 2.6 5.45 5.45l4.79-.01c.41 0 .75.33.75.75 0 .37-.29.69-.65.74l-.11 0 -4.8 0c-.35 2.85-2.61 5.11-5.46 5.45l-.01 1.29c0 .41-.34.75-.75.75 -.38 0-.7-.29-.75-.65l-.01-.11 -.01-1.3c-2.86-.35-5.12-2.61-5.46-5.46l-1.3-.01c-.42 0-.75-.34-.75-.75 0-.38.28-.7.64-.75l.1-.01 1.29 0c.34-2.86 2.6-5.12 5.45-5.46l0-4.8c0-.42.33-.75.74-.75Zm0 5.49c-.26 0-.51.01-.76.04l-.01 5.45 -5.46 0c-.03.24-.05.49-.05.74s.01.5.04.75l5.45-.01 0 5.45c.24.02.49.04.75.04 .25 0 .5-.02.75-.05l-.01-5.46 5.45 0c.02-.25.04-.5.04-.76s-.02-.51-.05-.75l-5.46-.01 0-5.46c-.25-.03-.5-.05-.76-.05Z"/></svg>