<svg viewBox="0 0 24 24" xmlns="http://www.w3.org/2000/svg"><path fill="currentColor" d="M21.41 11.41l-2.82-2.82c-.19-.19-.41-.34-.66-.44 -.25-.11-.51-.16-.77-.16H6.82c-.27 0-.53.05-.77.15 -.25.1-.47.24-.66.43l-2.82 2.82c-.19.18-.34.4-.44.65 -.11.24-.16.5-.16.76v1.17c0 .53.21 1.03.58 1.41 .37.37.88.58 1.41.58h16c.53-.01 1.03-.22 1.41-.59 .37-.38.58-.89.58-1.42v-1.17c-.01-.27-.06-.53-.16-.77 -.11-.25-.25-.47-.44-.66ZM17 12c-.01.19-.09.38-.23.52 -.15.14-.34.21-.53.22h-8.5c-.2 0-.39-.08-.54-.22 -.15-.15-.22-.34-.22-.54s.07-.39.21-.54c.14-.15.33-.22.53-.22h8.5c.19 0 .38.08.52.22s.21.33.22.52Z"/></svg>