<svg viewBox="0 0 24 24" xmlns="http://www.w3.org/2000/svg"><path fill="currentColor" d="M1 3.75C1 2.23 2.23 1 3.75 1h3.5C8.76 1 10 2.23 10 3.75V5h-.75c-.26 0-.51.02-.75.06V3.74c0-.7-.56-1.25-1.25-1.25h-3.5c-.7 0-1.25.55-1.25 1.25v3.5c0 .69.55 1.25 1.25 1.25h1.31c-.05.24-.07.49-.07.75v.75H3.74C2.22 9.99.99 8.75.99 7.24v-3.5ZM14 19v1.25c0 1.51 1.23 2.75 2.75 2.75h3.5c1.51 0 2.75-1.24 2.75-2.75v-3.5c0-1.52-1.24-2.75-2.75-2.75H19v.75c0 .25-.03.5-.07.75h1.31c.69 0 1.25.55 1.25 1.25v3.5c0 .69-.56 1.25-1.25 1.25h-3.5c-.7 0-1.25-.56-1.25-1.25v-1.32c-.25.04-.5.06-.75.06h-.75ZM6 9.25C6 7.45 7.45 6 9.25 6h5.5C16.54 6 18 7.45 18 9.25v5.5c0 1.79-1.46 3.25-3.25 3.25h-5.5C7.45 18 6 16.54 6 14.75v-5.5Z"/></svg>