<svg viewBox="0 0 24 24" xmlns="http://www.w3.org/2000/svg"><path fill="currentColor" d="M8.2 4.84c.5-.24 1.09-.02 1.32.48 .23.5.01 1.09-.49 1.32 -2.45 1.14-4.05 3.59-4.05 6.34 0 3.86 3.13 6.99 7 6.99 3.86 0 7-3.14 7-7 0-2.75-1.6-5.2-4.04-6.35 -.51-.24-.72-.83-.49-1.33 .23-.51.82-.72 1.32-.49 3.13 1.46 5.18 4.62 5.18 8.15 0 4.96-4.03 8.99-9 8.99 -4.98 0-9-4.03-9-9 0-3.54 2.05-6.7 5.2-8.16Zm3.79-2.85c.51 0 .93.38.99.88l0 .11v7c0 .55-.45 1-1 1 -.52 0-.94-.39-1-.89l-.01-.12V2.96c0-.56.44-1 1-1Z"/></svg>