<svg viewBox="0 0 24 24" xmlns="http://www.w3.org/2000/svg"><path fill="currentColor" d="M16.68 14.926l1.28 3.85c.26.79-.08 1.67-.81 2.08 -1.38.76-3.1 1.13-5.16 1.13 -2.07 0-3.79-.38-5.16-1.14 -.74-.41-1.08-1.29-.81-2.09l1.28-3.86c1.3.98 2.92 1.57 4.68 1.57 1.75 0 3.38-.59 4.68-1.58ZM11.99 2c1.33 0 2.58.38 3.63 1.05 -.09.31-.21.54-.37.7 -.26.25-.69.42-1.33.47l-.23.01 -.38 0c-2.17.15-2.12 3.49.16 3.49 .89 0 1.45.18 1.76.48 .25.25.42.68.47 1.32l.01.22 0 .37c.09 1.31 1.35 1.81 2.33 1.49 -1.09 2.27-3.41 3.84-6.1 3.84 -3.73 0-6.75-3.03-6.75-6.75 0-3.73 3.02-6.75 6.75-6.75Zm6.25 0c0 1.14.26 1.95.78 2.46 .47.47 1.19.73 2.21.77l.25 0c.95 0 .99 1.37.11 1.49l-.12 0c-1.15 0-1.96.26-2.47.78 -.48.47-.74 1.19-.78 2.21l-.01.25c0 1-1.5 1-1.5 0 0-1.15-.27-1.96-.79-2.47 -.48-.48-1.2-.74-2.22-.78l-.26-.01c-.96 0-1-1.38-.12-1.5l.11-.01c1.14 0 1.95-.27 2.46-.79s.78-1.33.78-2.47c0-1 1.5-1 1.5 0Z"/></svg>