<svg viewBox="0 0 24 24" xmlns="http://www.w3.org/2000/svg"><path fill="currentColor" d="M18.83 3.44c-.19-.28-.5-.45-.84-.45h-12l-.13 0c-.33.04-.62.24-.77.54l-3 6 -.06.12c-.12.33-.05.71.2.99l8.98 9.98c.14.16.33.27.53.32l.11.01c.06 0 .12 0 .18 0 .26-.02.51-.14.69-.36l.26-.29c-.03-.16-.04-.32-.04-.48v-.11c0-1.54 1.24-2.78 2.77-2.78h.27l0-.01c-.65-.64-1.05-1.52-1.05-2.5 0-1.94 1.56-3.5 3.5-3.5 .84 0 1.62.29 2.22.79l1.01-1.13 .08-.11c.2-.3.23-.69.06-1.01l-3-6 -.07-.11Zm-9.41 7.55h5.15l-2.58 6.34 -2.577-6.35Zm-4.177 0h2.01l1.66 4.087 -3.68-4.087Zm1.37-6h2l-1.3 4h-2.71l2-4Zm4.1 0h2.54l1.29 4H9.39l1.29-4Zm4.65 0h2l2 4h-2.71l-1.3-4Zm5.62 9.5c0 1.38-1.12 2.5-2.5 2.5 -1.39 0-2.5-1.12-2.5-2.5 0-1.39 1.11-2.5 2.5-2.5 1.38 0 2.5 1.11 2.5 2.5Zm2 5.375c0 1.55-1.29 3.125-4.5 3.125 -3.22 0-4.5-1.57-4.5-3.125v-.11c0-.98.79-1.78 1.77-1.78h5.45c.97 0 1.77.79 1.77 1.77v.1Z"/></svg>