<svg viewBox="0 0 24 24" xmlns="http://www.w3.org/2000/svg"><path fill="currentColor" d="M18 3c.33 0 .64.16.83.44l.06.1 3 6c.16.32.13.71-.07 1l-.09.1 -8.98 9.97c-.18.21-.44.33-.7.35 -.07 0-.13 0-.19-.01l-.12-.02c-.21-.05-.4-.16-.54-.33l-8.99-9.99c-.25-.28-.32-.66-.21-1l.05-.13 3-6c.15-.31.44-.51.76-.55l.12-.01h11.99Zm-3.43 8H9.41l2.577 6.34 2.57-6.35Zm4.177 0h-2.02l-1.67 4.08 3.67-4.09ZM7.25 11H5.23l3.67 4.087L7.24 11ZM8.6 5H6.59L4.58 9h2.7l1.3-4Zm4.651 0h-2.55L9.4 9h5.14l-1.3-4Zm4.1 0h-2.01l1.3 4h2.7l-2-4Z"/></svg>