<svg viewBox="0 0 24 24" xmlns="http://www.w3.org/2000/svg"><path fill="currentColor" d="M3.28 2.21c-.3-.3-.77-.3-1.07-.01 -.3.29-.3.76-.01 1.06l5.85 5.85c-.64.26-1.08.88-1.08 1.61v1.25h3.93l.99.99H3.7c-.71 0-1.03.89-.47 1.33l4.71 3.77v1.64c0 1.24 1 2.25 2.24 2.25h3.49c1.24 0 2.25-1.01 2.25-2.25v-1.65l.58-.47 4.13 4.13c.29.29.76.29 1.06 0 .29-.3.29-.77 0-1.07L3.19 2.13Zm12.89 10.77l2.75 2.75 1.77-1.43c.55-.45.24-1.34-.47-1.34h-4.07Zm-4-4l2.99 2.99h1.81v-1.25l-.01-.15c-.08-.9-.83-1.61-1.75-1.61h-3.07Zm-.19-1c-.35 0-.68-.06-.99-.17L9.13 5.95c-.11-.31-.17-.64-.17-.99 0-1.66 1.34-3 2.99-3 1.65 0 3 1.34 3 3 0 1.65-1.35 3-3 3Z"/></svg>