<svg viewBox="0 0 24 24" xmlns="http://www.w3.org/2000/svg"><path fill="currentColor" d="M2 7.25C2 5.45 3.45 4 5.25 4h13.5C20.54 4 22 5.45 22 7.25v9.5c0 1.79-1.46 3.25-3.25 3.25H5.25C3.45 20 2 18.54 2 16.75v-9.5Zm3 1v2c0 .69.55 1.25 1.25 1.25h11.5c.69 0 1.25-.56 1.25-1.25v-2c0-.7-.56-1.25-1.25-1.25H6.25C5.55 7 5 7.55 5 8.25Zm1.5.25V10h11V8.5h-11Zm7.75 4.5c-.7 0-1.25.55-1.25 1.25v1.5c0 .69.55 1.25 1.25 1.25h3.5c.69 0 1.25-.56 1.25-1.25v-1.5c0-.7-.56-1.25-1.25-1.25h-3.5Zm.25 2.5v-1h3v1h-3ZM5 13.75c0 .41.33.75.75.75h5c.41 0 .75-.34.75-.75 0-.42-.34-.75-.75-.75h-5c-.42 0-.75.33-.75.75Zm.75 1.75c-.42 0-.75.33-.75.75 0 .41.33.75.75.75h5c.41 0 .75-.34.75-.75 0-.42-.34-.75-.75-.75h-5Z"/></svg>