<svg viewBox="0 0 24 24" xmlns="http://www.w3.org/2000/svg"><path fill="currentColor" d="M23 6.5C23 3.46 20.53 1 17.5 1 14.46 1 12 3.46 12 6.5c0 3.03 2.46 5.5 5.5 5.5 3.03 0 5.5-2.47 5.5-5.5ZM18 7l0 2.5c0 .27-.23.49-.5.49 -.28 0-.5-.23-.5-.5l-.01-2.51h-2.51c-.28 0-.5-.23-.5-.5 0-.28.22-.5.49-.5h2.5l-.01-2.51c0-.28.22-.5.5-.5 .27 0 .5.22.5.5l0 2.5h2.49c.27 0 .49.22.49.5 0 .27-.23.5-.5.5h-2.5Zm-.51 5.99c1.74 0 3.33-.7 4.5-1.82l0 5.06c0 1.24-1.01 2.25-2.25 2.25l-1.76-.01v1.25c0 1.24-1.01 2.25-2.25 2.25h-7.5c-1.25 0-2.25-1.01-2.25-2.25v-1.26l-1.75 0c-1.25 0-2.25-1.01-2.25-2.25v-6c0-1.8 1.45-3.26 3.25-3.26l.74-.01 0-.76c0-1.25 1-2.25 2.25-2.25h3.24c-.2.47-.35.97-.43 1.5H8.2c-.42 0-.75.33-.75.75l-.01.75h3.52c.25 3.35 3.06 5.997 6.48 5.997Zm-1 2.25c0-.42-.34-.75-.75-.75h-7.5c-.42 0-.75.33-.75.75v4.5c0 .41.33.75.75.75h7.5c.41 0 .75-.34.75-.75v-4.5Z"/></svg>