<svg viewBox="0 0 24 24" xmlns="http://www.w3.org/2000/svg"><path fill="currentColor" d="M18 17.5v1.25c0 1.24-1.01 2.25-2.25 2.25h-7.5C7 21 6 19.99 6 18.75v-1.26l-1.75 0C3 17.49 2 16.48 2 15.24v-6c0-1.8 1.45-3.25 3.25-3.25l.74-.01 0-.76c0-1.25 1-2.25 2.25-2.25h7.5c1.24 0 2.25 1 2.25 2.25l-.01.75 .75 0c1.79 0 3.24 1.45 3.25 3.24l0 5.99c0 1.24-1.01 2.25-2.25 2.25l-1.76-.01Zm-2.25-4h-7.5c-.42 0-.75.33-.75.75v4.5c0 .41.33.75.75.75h7.5c.41 0 .75-.34.75-.75v-4.5c0-.42-.34-.75-.75-.75Zm0-9H8.24c-.42 0-.75.33-.75.75L7.48 6h9l0-.76c0-.42-.34-.75-.75-.75Z"/></svg>