<svg viewBox="0 0 24 24" xmlns="http://www.w3.org/2000/svg"><path fill="currentColor" d="M6.25 3.5c-.97 0-1.75.78-1.75 1.75v2.5c0 .96.78 1.75 1.75 1.75h2.5c.96 0 1.75-.79 1.75-1.75v-2.5c0-.97-.79-1.75-1.75-1.75h-2.5Zm7.25 1.75v2.5c0 .96.78 1.75 1.75 1.75h2.5c.96 0 1.75-.79 1.75-1.75v-2.5c0-.97-.79-1.75-1.75-1.75h-2.5c-.97 0-1.75.78-1.75 1.75ZM15.25 5h2.5c.13 0 .25.11.25.25v2.5c0 .13-.12.25-.25.25h-2.5c-.14 0-.25-.12-.25-.25v-2.5c0-.14.11-.25.25-.25ZM6.5 11.5C4.01 11.5 2 13.51 2 16c0 2.48 2.01 4.5 4.5 4.5h5.23c-.47-.9-.74-1.92-.74-3 0-.13 0-.25.01-.38 -.32-.28-.52-.68-.52-1.13 0-.74.52-1.35 1.21-1.48 .69-1.36 1.86-2.44 3.27-3.03h-8.5Zm.5 6c-.83 0-1.5-.68-1.5-1.5 0-.83.67-1.5 1.5-1.5 .82 0 1.5.67 1.5 1.5 0 .82-.68 1.5-1.5 1.5Zm16 0c0 3.03-2.47 5.5-5.5 5.5 -3.04 0-5.5-2.47-5.5-5.5 0-3.04 2.46-5.5 5.5-5.5 3.03 0 5.5 2.46 5.5 5.5Zm-2.15-2.36c-.2-.2-.52-.2-.71 0l-3.65 3.64 -1.65-1.65c-.2-.2-.52-.2-.71 0 -.2.19-.2.51 0 .7l2 2c.19.19.51.19.7 0l4-4c.19-.2.19-.52 0-.71Z"/></svg>