<svg viewBox="0 0 24 24" xmlns="http://www.w3.org/2000/svg"><path fill="currentColor" d="M4.5 5.25c0-.97.78-1.75 1.75-1.75h2.5c.96 0 1.75.78 1.75 1.75v2.5c0 .96-.79 1.75-1.75 1.75h-2.5c-.97 0-1.75-.79-1.75-1.75v-2.5ZM15.25 3.5c-.97 0-1.75.78-1.75 1.75v2.5c0 .96.78 1.75 1.75 1.75h2.5c.96 0 1.75-.79 1.75-1.75v-2.5c0-.97-.79-1.75-1.75-1.75h-2.5ZM15 5.25c0-.14.11-.25.25-.25h2.5c.13 0 .25.11.25.25v2.5c0 .13-.12.25-.25.25h-2.5c-.14 0-.25-.12-.25-.25v-2.5ZM2 16c0-2.49 2.01-4.5 4.5-4.5h11c2.48 0 4.5 2.01 4.5 4.5 0 2.48-2.02 4.5-4.5 4.5h-11C4.01 20.5 2 18.48 2 16Zm6.5 0c0-.83-.68-1.5-1.5-1.5 -.83 0-1.5.67-1.5 1.5 0 .82.67 1.5 1.5 1.5 .82 0 1.5-.68 1.5-1.5Zm5 0c0-.83-.68-1.5-1.5-1.5 -.83 0-1.5.67-1.5 1.5 0 .82.67 1.5 1.5 1.5 .82 0 1.5-.68 1.5-1.5Zm3.5 1.5c.82 0 1.5-.68 1.5-1.5 0-.83-.68-1.5-1.5-1.5 -.83 0-1.5.67-1.5 1.5 0 .82.67 1.5 1.5 1.5Z"/></svg>