<svg viewBox="0 0 24 24" xmlns="http://www.w3.org/2000/svg"><g fill="currentColor"><path d="M21.59 12.2c0-.07 0-.14 0-.21 0-5.31-4.3-9.6-9.6-9.6 -5.31 0-9.6 4.29-9.6 9.6 0 4.95 3.76 9.04 8.58 9.54 -.13-.37-.19-.75-.19-1.15v-.7c-1.37-.22-2.61-.78-3.65-1.6L9 16.2l0-.01 9.07-9.08c1.05 1.33 1.68 3.01 1.68 4.84h.6c.42 0 .82.07 1.19.2Zm-4.76-6.32L5.87 16.83c-1.06-1.34-1.69-3.02-1.69-4.85 0-4.31 3.49-7.8 7.8-7.8 1.82 0 3.51.62 4.84 1.68Zm-4.85 9.71c0-1.33 1.07-2.4 2.4-2.4h6c1.32 0 2.4 1.07 2.4 2.4v4.8c0 1.32-1.08 2.4-2.4 2.4h-6c-1.33 0-2.4-1.08-2.4-2.4v-4.8Zm7.8 3.6h-4.8c-.34 0-.6.26-.6.6 0 .33.26.6.6.6h4.8c.33 0 .6-.27.6-.6 0-.34-.27-.6-.6-.6Zm-4.8-3.6c-.34 0-.6.26-.6.6 0 .33.26.6.6.6h4.8c.33 0 .6-.27.6-.6 0-.34-.27-.6-.6-.6h-4.8Z"/><path fill="currentColor" fill-rule="evenodd" d="M2.25 12c0-5.39 4.36-9.75 9.75-9.75 5.38 0 9.75 4.36 9.75 9.75 0 .06-.01.13-.01.2 -.01.04-.03.09-.07.12 -.04.02-.09.03-.14.01 -.36-.13-.75-.2-1.15-.2h-.6c-.09 0-.15-.07-.15-.15 0-1.74-.58-3.34-1.55-4.62l-8.96 8.95 -.01 0 -1.76 1.75c.98.74 2.16 1.26 3.43 1.45 .07.01.12.07.12.14v.69c0 .38.06.75.17 1.09 .01.04 0 .1-.03.14 -.04.03-.09.06-.14.05 -4.91-.52-8.721-4.66-8.721-9.7ZM12 2.55C6.78 2.54 2.55 6.78 2.55 12c-.001 4.8 3.58 8.77 8.22 9.37 -.09-.31-.13-.64-.13-.98v-.57c-1.34-.23-2.57-.8-3.59-1.61 -.04-.03-.06-.07-.06-.11 -.01-.05.01-.09.04-.12L17.98 7.02c.03-.04.07-.05.11-.05 .04 0 .08.02.1.05 1.04 1.31 1.68 2.97 1.71 4.78h.45c.36 0 .71.05 1.05.14 -.01-5.22-4.24-9.45-9.45-9.45Zm0 1.8c-4.23 0-7.65 3.42-7.65 7.65 0 1.73.57 3.333 1.54 4.61L16.6 5.89c-1.29-.98-2.89-1.55-4.62-1.55ZM4.05 12c0-4.4 3.55-7.95 7.95-7.95 1.86 0 3.57.64 4.93 1.71 .03.02.05.06.05.1 0 .04-.02.08-.05.11L5.97 16.92c-.04.03-.08.04-.12.04 -.05-.01-.09-.03-.11-.06 -1.08-1.36-1.72-3.08-1.72-4.94Zm10.35 1.35c-1.25 0-2.25 1-2.25 2.25v4.8c0 1.24 1 2.25 2.25 2.25h6c1.24 0 2.25-1.01 2.25-2.25v-4.8c0-1.25-1.01-2.25-2.25-2.25h-6Zm-2.55 2.25c0-1.41 1.14-2.55 2.55-2.55h6c1.4 0 2.55 1.14 2.55 2.55v4.8c0 1.4-1.15 2.55-2.55 2.55h-6c-1.41 0-2.55-1.15-2.55-2.55v-4.8Zm2.4.6c0-.42.33-.75.75-.75h4.8c.41 0 .75.33.75.75 0 .41-.34.75-.75.75H15c-.42 0-.75-.34-.75-.75Zm.75-.45c-.25 0-.45.2-.45.45 0 .24.2.45.45.45h4.8c.24 0 .45-.21.45-.45 0-.25-.21-.45-.45-.45H15Zm-.75 4.05c0-.42.33-.75.75-.75h4.8c.41 0 .75.33.75.75 0 .41-.34.75-.75.75H15c-.42 0-.75-.34-.75-.75Zm.75-.45c-.25 0-.45.2-.45.45 0 .24.2.45.45.45h4.8c.24 0 .45-.21.45-.45 0-.25-.21-.45-.45-.45H15Z"/></g></svg>