<svg viewBox="0 0 24 24" xmlns="http://www.w3.org/2000/svg"><path fill="currentColor" d="M10.75 19.5c4.83 0 8.75-3.92 8.75-8.75C19.5 5.91 15.58 2 10.75 2 5.91 2 2 5.91 2 10.75c0 4.83 3.91 8.75 8.75 8.75Zm0-2c-1.51 0-2.9-.5-4.02-1.33l9.44-9.45c.83 1.12 1.32 2.51 1.32 4.01 0 3.72-3.03 6.75-6.75 6.75Zm4.01-12.18l-9.45 9.44c-.84-1.13-1.33-2.52-1.33-4.02 0-3.73 3.02-6.75 6.75-6.75 1.5 0 2.89.49 4.01 1.32Zm5.73 5.42c0 5.38-4.37 9.75-9.75 9.75 -1.07 0-2.1-.18-3.06-.49 1.51 1.24 3.44 1.98 5.55 1.98 4.83 0 8.75-3.92 8.75-8.75 0-2.11-.75-4.05-1.99-5.56 .31.96.48 1.98.48 3.05Z"/></svg>