<svg viewBox="0 0 24 24" xmlns="http://www.w3.org/2000/svg"><path fill="currentColor" d="M2 4.5C2 3.67 2.67 3 3.5 3h17c.82 0 1.5.67 1.5 1.5 0 .65-.42 1.2-1 1.41v7.33c0 2.07-1.68 3.75-3.75 3.75h-4.5v2.5h3.5c.41 0 .75.33.75.75 0 .41-.34.75-.75.75h-8.5c-.42 0-.75-.34-.75-.75 0-.42.33-.75.75-.75h3.5v-2.5h-4.5C4.67 16.99 3 15.31 3 13.24V5.9c-.59-.21-1-.77-1-1.42Zm7 3.25c0 .41.33.75.75.75h4c.41 0 .75-.34.75-.75 0-.42-.34-.75-.75-.75h-4c-.42 0-.75.33-.75.75ZM9.75 13c-.42 0-.75.33-.75.75 0 .41.33.75.75.75h4c.41 0 .75-.34.75-.75 0-.42-.34-.75-.75-.75h-4Zm-1-3c-.42 0-.75.33-.75.75 0 .41.33.75.75.75h6.5c.41 0 .75-.34.75-.75 0-.42-.34-.75-.75-.75h-6.5Z"/></svg>