<svg viewBox="0 0 24 24" xmlns="http://www.w3.org/2000/svg"><path fill="currentColor" d="M23 6.5c0 3.03-2.47 5.5-5.5 5.5 -3.04 0-5.5-2.47-5.5-5.5C12 3.46 14.46 1 17.5 1 20.53 1 23 3.46 23 6.5Zm-7.15-2.36c-.2-.2-.52-.2-.71 0 -.2.19-.2.51 0 .7l1.64 1.64 -1.65 1.64c-.2.19-.2.51 0 .7 .19.19.51.19.7 0l1.64-1.65 1.64 1.64c.19.19.51.19.7 0 .19-.2.19-.52 0-.71l-1.65-1.65L19.8 4.8c.19-.2.19-.52 0-.71 -.2-.2-.52-.2-.71 0l-1.65 1.64 -1.65-1.65Zm1.64 8.85c1.28 0 2.48-.375 3.5-1.03v1.27c0 2.07-1.68 3.75-3.75 3.75h-4.5v2.5h3.5c.41 0 .75.33.75.75 0 .41-.34.75-.75.75h-8.5c-.42 0-.75-.34-.75-.75 0-.42.33-.75.75-.75h3.5v-2.5h-4.5c-2.08 0-3.75-1.68-3.75-3.75V5.89c-.59-.21-1-.77-1-1.42 0-.83.67-1.5 1.5-1.5h8.52c-.65 1.01-1.03 2.21-1.03 3.5 0 3.58 2.91 6.5 6.5 6.5Z"/></svg>