<svg viewBox="0 0 24 24" xmlns="http://www.w3.org/2000/svg"><path fill="currentColor" d="M13 2c1.36 0 2.46 1.1 2.46 2.46l-.01.53h3.53c.55 0 1 .44 1 1l-.01 3.49 -1.53 0c-1.31 0-2.39 1.01-2.47 2.3l-.01.16V12c0 1.3 1.01 2.38 2.3 2.46l.16 0 1.52-.01 0 3.5c0 .55-.45 1-1 1l-3.54-.01 0 .52c0 1.36-1.11 2.46-2.47 2.46 -1.37 0-2.47-1.11-2.47-2.47l-.01-.53 -3.53 0c-.56 0-1-.45-1-1l-.01-3.54 -.53 0c-1.37 0-2.47-1.11-2.47-2.47 0-1.37 1.1-2.47 2.46-2.47l.52-.01 0-3.54c0-.56.44-1 1-1h3.53l0-.54c0-1.37 1.1-2.47 2.46-2.47Z"/></svg>