<svg viewBox="0 0 24 24" xmlns="http://www.w3.org/2000/svg"><path fill="currentColor" d="M6 18.06v-2.82c.21.08.43.17.65.25 .35.12.73.12 1.09 0 1.71-.6 3.1-1.54 4.05-2.87 .95-1.33 1.39-2.94 1.39-4.75V4.81l-.03-.22 -.02-.06c-.15-.75-.8-1.37-1.65-1.37 -.04 0-.08-.01-.11-.01 .43-.5 1.07-.8 1.78-.8 1.32 0 2.4 1.07 2.4 2.4l-.01.06 3.6 0c.66 0 1.2.53 1.2 1.2l-.01 3.53 -1.2 0c-1.27 0-2.31.97-2.4 2.22l-.01.17c0 1.26.97 2.3 2.22 2.39l.17 0 1.19-.01 0 3.66c0 .66-.54 1.2-1.2 1.2l-3.61-.01 -.01.11c-.1 1.24-1.13 2.22-2.4 2.22 -1.31 0-2.37-1.04-2.4-2.34l-3.61-.01c-.67 0-1.2-.54-1.2-1.2ZM9.6 4c.38.16.78.27 1.2.33 .23.03.47.05.72.05 .23 0 .42.17.47.39l0 .1v3c0 3.21-1.58 5.4-4.65 6.47 -.1.03-.21.03-.31 0 -.88-.31-1.63-.7-2.25-1.18 -.47-.36-.86-.76-1.19-1.2 -.76-1.03-1.16-2.29-1.21-3.79l-.01-.32V4.84c0-.28.21-.5.48-.5 1.46 0 2.78-.62 3.98-1.86 .18-.2.49-.2.67 0 .64.67 1.33 1.16 2.05 1.46Z"/></svg>