<svg viewBox="0 0 24 24" xmlns="http://www.w3.org/2000/svg"><path fill="currentColor" d="M8 6H6v2h2V6Zm-5-.5C3 4.11 4.11 3 5.5 3h3C9.88 3 11 4.11 11 5.5v3C11 9.88 9.88 11 8.5 11h-3C4.11 11 3 9.88 3 8.5v-3ZM5.5 5c-.28 0-.5.22-.5.5v3c0 .27.22.5.5.5h3c.27 0 .5-.23.5-.5v-3c0-.28-.23-.5-.5-.5h-3ZM6 16h2v2H6v-2Zm-3-.5C3 14.11 4.11 13 5.5 13h3c1.38 0 2.5 1.11 2.5 2.5v3c0 1.38-1.12 2.5-2.5 2.5h-3C4.11 21 3 19.88 3 18.5v-3Zm2.5-.5c-.28 0-.5.22-.5.5v3c0 .27.22.5.5.5h3c.27 0 .5-.23.5-.5v-3c0-.28-.23-.5-.5-.5h-3ZM18 6h-2v2h2V6Zm-2.5-3C14.11 3 13 4.11 13 5.5v3c0 1.38 1.11 2.5 2.5 2.5h3c1.38 0 2.5-1.12 2.5-2.5v-3C21 4.11 19.88 3 18.5 3h-3ZM15 5.5c0-.28.22-.5.5-.5h3c.27 0 .5.22.5.5v3c0 .27-.23.5-.5.5h-3c-.28 0-.5-.23-.5-.5v-3ZM13 13h2.75v2.75H13V13Zm5.25 2.75h-2.5v2.5H13V21h2.75v-2.75h2.5V21H21v-2.75h-2.75v-2.5Zm0 0V13H21v2.75h-2.75Z"/></svg>