<svg viewBox="0 0 24 24" xmlns="http://www.w3.org/2000/svg"><path fill="currentColor" d="M12 2c5.523 0 10 4.47 10 10 0 5.52-4.477 10-10 10C6.477 22 2 17.52 2 12 2 6.47 6.477 2 12 2Zm0 13.5c-.56 0-1 .44-1 1 0 .55.44 1 1 1 .55 0 1-.45 1-1 0-.56-.45-1-1-1Zm0-8.75c-1.52 0-2.75 1.23-2.75 2.75 0 .41.33.75.75.75 .37 0 .69-.29.74-.65l0-.11c0-.7.55-1.25 1.25-1.25 .69 0 1.25.55 1.25 1.25 0 .53-.14.8-.65 1.33l-.14.13c-.88.87-1.22 1.44-1.22 2.53 0 .41.33.75.75.75 .41 0 .75-.34.75-.75 0-.54.13-.81.64-1.34l.13-.14c.87-.88 1.21-1.45 1.21-2.54 0-1.52-1.24-2.75-2.75-2.75Z"/></svg>