<svg viewBox="0 0 24 24" xmlns="http://www.w3.org/2000/svg"><path fill="currentColor" d="M12 4C9.23 4 7 6.23 7 9c0 .55.44 1 1 1 .55 0 1-.45 1-1 0-1.66 1.34-3 3-3 1.65 0 3 1.34 3 3 0 .81-.2 1.29-.44 1.62 -.27.36-.63.63-1.13.98l-.12.07c-.45.3-1.03.69-1.47 1.24 -.53.64-.85 1.46-.85 2.56v.5c0 .55.44 1 1 1 .55 0 1-.45 1-1v-.5c0-.66.17-1.03.4-1.3 .25-.32.6-.56 1.11-.91l.05-.04c.49-.35 1.13-.79 1.62-1.47 .51-.72.81-1.61.81-2.8 0-2.77-2.24-5-5-5Zm0 17.25c.69 0 1.25-.56 1.25-1.25 0-.7-.56-1.25-1.25-1.25 -.7 0-1.25.55-1.25 1.25 0 .69.55 1.25 1.25 1.25Z"/></svg>