<svg viewBox="0 0 24 24" xmlns="http://www.w3.org/2000/svg"><g fill="currentColor"><path d="M9.48 9h1.03l-.52-1.27 -.52 1.26Z"/><path fill="currentColor" fill-rule="evenodd" d="M5.7 3C4.2 3 3 4.2 3 5.7v12.6C3 19.79 4.2 21 5.7 21h12.6c1.49 0 2.7-1.21 2.7-2.7V5.7C21 4.2 19.79 3 18.3 3H5.7Zm10.05 2c.41 0 .75.33.75.75V7h1.25c.41 0 .75.33.75.75 0 .41-.34.75-.75.75H16.5v1.25c0 .41-.34.75-.75.75 -.42 0-.75-.34-.75-.76V8.49h-1.25c-.42 0-.75-.34-.75-.75 0-.42.33-.75.75-.75H15V5.73c0-.42.33-.75.75-.75Zm-5.06.46c-.12-.29-.39-.47-.7-.47 -.31-.01-.58.18-.7.46l-2.25 5.5c-.16.38.02.82.41.97 .38.15.82-.03.97-.42l.42-1.04h2.26l.42 1.03c.15.38.59.56.97.41 .38-.16.56-.6.41-.98l-2.25-5.51Zm-4.7 8.78c0-.42.33-.75.75-.75h10.5c.41 0 .75.33.75.75 0 .41-.34.75-.75.75H6.74c-.42 0-.75-.34-.75-.75Zm0 3.5c0-.42.33-.75.75-.75h10.5c.41 0 .75.33.75.75 0 .41-.34.75-.75.75H6.74c-.42 0-.75-.34-.75-.75Z"/></g></svg>