<svg viewBox="0 0 24 24" xmlns="http://www.w3.org/2000/svg"><g fill="currentColor"><path d="M17.14 3.88l-1.32 1.31C12.84 3.51 9 3.94 6.47 6.47c-1.33 1.32-2.08 3.01-2.25 4.75 -.68.25-1.29.62-1.84 1.06 -.09-2.56.85-5.15 2.8-7.1C8.41 1.94 13.39 1.5 17.1 3.85Zm-5.45 17.7c.44-.55.81-1.17 1.06-1.84 1.73-.17 3.42-.92 4.75-2.25 .35-.36.92-.36 1.27 0 .35.35.35.92 0 1.27 -1.96 1.95-4.54 2.88-7.1 2.8Zm1.5-4.2c0 .2-.01.4-.03.6 1.15-.23 2.25-.79 3.15-1.68 .35-.36.35-.93 0-1.28 -.36-.36-.93-.36-1.28 0 -.57.56-1.25.94-1.97 1.12 .07.39.11.8.11 1.21Zm-6.61-6.6c.41 0 .82.03 1.21.11 .18-.73.56-1.41 1.12-1.97 1.14-1.15 2.78-1.52 4.23-1.11l1.39-1.4c-2.27-1.06-5.05-.65-6.91 1.22 -.9.89-1.46 1.99-1.68 3.15 .19-.02.4-.03.6-.03Zm3.6 1.07c.76.5 1.42 1.15 1.92 1.92 .93-.07 1.67-.85 1.67-1.8 0-.17-.03-.32-.07-.47l5.19-5.2c.35-.36.35-.93 0-1.28 -.36-.36-.93-.36-1.28 0l-5.2 5.19c-.15-.04-.31-.07-.47-.07 -.96 0-1.73.73-1.8 1.67Zm10.49 4.02c0 .49-.41.9-.9.9 -.5 0-.9-.41-.9-.9 0-.5.4-.9.9-.9 .49 0 .9.4.9.9Zm-.9-6.91c.49 0 .9-.41.9-.9 0-.5-.41-.9-.9-.9 -.5 0-.9.4-.9.9 0 .49.4.9.9.9Zm1.8 4.5c0 .49-.41.9-.9.9 -.5 0-.9-.41-.9-.9 0-.5.4-.9.9-.9 .49 0 .9.4.9.9Zm-.9-2.1c.49 0 .9-.41.9-.9 0-.5-.41-.91-.9-.91 -.5 0-.9.4-.9.9 0 .49.4.9.9.9Zm-2.7 2.1c0 .49-.41.9-.9.9 -.5 0-.9-.41-.9-.9 0-.5.4-.9.9-.9 .49 0 .9.4.9.9Zm-.9-2.1c.49 0 .9-.41.9-.9 0-.5-.41-.91-.9-.91 -.5 0-.9.4-.9.9 0 .49.4.9.9.9Zm-5.1 6c0 2.98-2.42 5.4-5.41 5.4s-5.4-2.42-5.4-5.4c0-2.99 2.41-5.4 5.4-5.4 2.98 0 5.4 2.41 5.4 5.4Zm-2.58-2.23c-.24-.24-.62-.24-.85 0L5.36 18.3l-.78-.78c-.24-.24-.62-.24-.85 0 -.24.23-.24.61 0 .84l1.2 1.2c.23.23.61.23.84 0l3.6-3.6c.23-.24.23-.62 0-.85Z"/><path fill="currentColor" fill-rule="evenodd" d="M17.06 3.89C13.37 1.58 8.45 2.03 5.24 5.23c-1.92 1.91-2.85 4.44-2.8 6.95 .52-.42 1.1-.76 1.73-1.01 .17-1.74.92-3.43 2.25-4.76 2.53-2.54 6.38-2.98 9.37-1.31l1.24-1.25ZM5.17 5.16c3.25-3.26 8.25-3.7 11.99-1.33l.05.03 -1.39 1.38 -.04-.02c-2.96-1.67-6.77-1.25-9.29 1.27 -1.32 1.31-2.07 2.99-2.24 4.72l-.01.03 -.03.01c-.67.25-1.28.61-1.82 1.061l-.08.06 -.01-.11c-.09-2.58.85-5.17 2.82-7.13Zm12.45-.15c.37-.38.97-.38 1.34 0 .37.37.37.97 0 1.34l-5.18 5.17c.03.14.05.29.05.45 0 .97-.76 1.77-1.72 1.84l-.03 0 -.02-.03c-.5-.77-1.15-1.42-1.92-1.92l-.03-.02 0-.03c.06-.96.86-1.72 1.84-1.72 .15 0 .3.01.45.05l5.17-5.18Zm1.27.07c-.34-.34-.88-.34-1.21 0l-5.22 5.21 -.03-.01c-.15-.04-.3-.06-.46-.06 -.92 0-1.67.7-1.75 1.59 .75.49 1.4 1.14 1.89 1.89 .89-.08 1.59-.83 1.59-1.75 0-.16-.03-.31-.06-.46l-.01-.03 5.21-5.22c.33-.34.33-.88 0-1.21ZM7.62 7.61c1.88-1.89 4.68-2.3 6.96-1.24l.06.03 -1.47 1.46 -.03-.01c-1.45-.41-3.06-.05-4.2 1.08 -.56.55-.93 1.23-1.12 1.94l-.02.04 -.05-.01c-.4-.08-.8-.12-1.21-.12 -.21 0-.41 0-.61.02l-.07 0 .01-.07c.22-1.17.79-2.28 1.69-3.19Zm6.85-1.18c-2.24-1.01-4.96-.6-6.79 1.24 -.88.87-1.43 1.94-1.66 3.06 .17-.02.36-.03.54-.03 .4 0 .79.03 1.18.1 .19-.72.56-1.39 1.12-1.95 1.15-1.154 2.79-1.53 4.26-1.13l1.32-1.33Zm4.35 1.63c0-.53.42-.95.95-.95 .52 0 .95.42.95.95 0 .52-.43.95-.95.95 -.53 0-.95-.43-.95-.95Zm.95-.85c-.47 0-.85.38-.85.85 0 .46.38.85.85.85 .46 0 .85-.39.85-.85 0-.47-.39-.85-.85-.85Zm-3.65 3.25c0-.53.42-.96.95-.96 .52 0 .95.42.95.95 0 .52-.43.95-.95.95 -.53 0-.95-.43-.95-.95Zm.95-.86c-.47 0-.85.38-.85.85 0 .46.38.85.85.85 .46 0 .85-.39.85-.85 0-.47-.39-.86-.85-.86Zm2.65.85c0-.53.42-.96.95-.96 .52 0 .95.42.95.95 0 .52-.43.95-.95.95 -.53 0-.95-.43-.95-.95Zm.95-.86c-.47 0-.85.38-.85.85 0 .46.38.85.85.85 .46 0 .85-.39.85-.85 0-.47-.39-.86-.85-.86Zm-14.11 2.4c-2.96 0-5.35 2.39-5.35 5.35 0 2.95 2.39 5.35 5.35 5.35 2.95 0 5.35-2.4 5.35-5.35 0-2.96-2.4-5.35-5.36-5.35Zm-5.45 5.35c0-3.01 2.44-5.45 5.45-5.45 3 0 5.45 2.44 5.45 5.45 0 3-2.45 5.45-5.46 5.45s-5.45-2.45-5.45-5.45Zm15.95-4.75c-.47 0-.85.38-.85.85 0 .46.38.85.85.85 .46 0 .85-.39.85-.85 0-.47-.39-.85-.85-.85Zm-.95.85c0-.53.42-.95.95-.95 .52 0 .95.42.95.95 0 .52-.43.95-.95.95 -.53 0-.95-.43-.95-.95Zm4.55-.85c-.47 0-.85.38-.85.85 0 .46.38.85.85.85 .46 0 .85-.39.85-.85 0-.47-.39-.85-.85-.85Zm-.95.85c0-.53.42-.95.95-.95 .52 0 .95.42.95.95 0 .52-.43.95-.95.95 -.53 0-.95-.43-.95-.95Zm-4.74 1.51c.37-.38.97-.38 1.34 0 .37.37.37.97 0 1.34 -.91.9-2.02 1.46-3.19 1.69l-.07.01 0-.07c.01-.2.02-.4.02-.61 0-.42-.04-.82-.12-1.21l-.01-.05 .04-.02c.71-.19 1.38-.56 1.94-1.12Zm1.27.07c-.34-.34-.88-.34-1.21 0 -.56.55-1.24.93-1.95 1.12 .06.38.1.77.1 1.18 0 .18-.01.36-.03.54 1.12-.24 2.19-.79 3.06-1.66 .33-.34.33-.88 0-1.21Zm-7.76.05c.25-.26.66-.26.91 0 .25.25.25.66 0 .91l-3.6 3.6c-.26.25-.67.25-.92 0l-1.2-1.2c-.26-.26-.26-.67 0-.92 .25-.26.66-.26.91 0l.74.74 3.14-3.15Zm.84.07c-.22-.22-.57-.22-.78 0l-3.22 3.21 -.82-.82c-.22-.22-.57-.22-.78 0 -.22.21-.22.56 0 .77l1.2 1.2c.21.21.56.21.77 0l3.6-3.6c.21-.22.21-.57 0-.78Zm10.41-.17c-.47 0-.85.38-.85.85 0 .46.38.85.85.85 .46 0 .85-.39.85-.85 0-.47-.39-.85-.85-.85Zm-.95.85c0-.53.42-.95.95-.95 .52 0 .95.42.95.95 0 .52-.43.95-.95.95 -.53 0-.95-.43-.95-.95Zm-.1 1.65c-.34-.34-.88-.34-1.21 0 -1.33 1.32-3.02 2.08-4.76 2.25 -.25.63-.59 1.21-1.01 1.73 2.51.05 5.03-.88 6.95-2.8 .33-.34.33-.88 0-1.21Zm-1.28-.08c.37-.38.97-.38 1.34 0 .37.37.37.97 0 1.34 -1.97 1.96-4.56 2.9-7.13 2.82l-.11-.01 .06-.08c.44-.55.8-1.16 1.06-1.82l.01-.03 .03-.01c1.72-.17 3.4-.92 4.72-2.24Z"/></g></svg>