<svg viewBox="0 0 24 24" xmlns="http://www.w3.org/2000/svg"><g fill="currentColor"><path d="M17.14 3.88l-1.32 1.31C12.84 3.51 9 3.94 6.47 6.47c-1.83 1.82-2.56 4.34-2.2 6.71H2.45c-.36-2.84.55-5.81 2.73-7.99 3.23-3.24 8.21-3.68 11.92-1.33Zm-5.15 16.51v-.6c1.99 0 3.99-.77 5.51-2.29 .35-.36.92-.36 1.27 0 .35.35.35.92 0 1.27 -1.93 1.92-4.47 2.86-7 2.8 .13-.38.2-.78.2-1.2Zm0-3v.72c1.56 0 3.13-.6 4.32-1.8 .35-.36.35-.93 0-1.28 -.36-.36-.93-.36-1.28 0 -.94.93-2.21 1.35-3.43 1.24 .23.3.37.68.37 1.09Zm-4.2-4.2c.01 0 .03 0 .04 0 -.43-1.47-.06-3.11 1.09-4.26 1.14-1.15 2.78-1.52 4.23-1.11l1.39-1.4c-2.27-1.06-5.05-.65-6.91 1.22 -1.51 1.5-2.06 3.58-1.68 5.52h1.8Zm11.13-8.14c.35.35.35.92 0 1.27l-5.2 5.19c.03.14.06.3.06.46 0 .99-.81 1.8-1.8 1.8 -1 0-1.8-.81-1.8-1.8 0-1 .8-1.8 1.8-1.8 .16 0 .31.02.46.06l5.19-5.2c.35-.36.92-.36 1.27 0Zm1.76 10.83c0 .49-.41.9-.9.9 -.5 0-.9-.41-.9-.9 0-.5.4-.9.9-.9 .49 0 .9.4.9.9Zm-.9-6.9c.49 0 .9-.41.9-.9 0-.5-.41-.9-.9-.9 -.5 0-.9.4-.9.9 0 .49.4.9.9.9Zm1.8 4.49c0 .49-.41.9-.9.9 -.5 0-.9-.41-.9-.9 0-.5.4-.9.9-.9 .49 0 .9.4.9.9Zm-.9-2.1c.49 0 .9-.41.9-.9 0-.5-.41-.9-.9-.9 -.5 0-.9.4-.9.89s.4.9.9.9Zm-2.7 2.1c0 .49-.41.9-.9.9 -.5 0-.9-.41-.9-.9 0-.5.4-.9.9-.9 .49 0 .9.4.9.9Zm-.9-2.1c.49 0 .9-.41.9-.9 0-.5-.41-.9-.9-.9 -.5 0-.9.4-.9.89s.4.9.9.9Zm-15.3 3c-.34 0-.6.26-.6.6v4.8c0 .33.26.6.6.6h6c.33 0 .6-.27.6-.6v-4.8c0-.34-.27-.6-.6-.6h-6Zm8.39 2.4c.33 0 .6.26.6.6v3c0 1.32-1.08 2.4-2.4 2.4h-4.2c-.34 0-.6-.27-.6-.6 0-.34.26-.6.6-.6h4.2c.66 0 1.2-.54 1.2-1.2v-3c0-.34.26-.6.59-.6Z"/><path fill="currentColor" fill-rule="evenodd" d="M17.29 3.87l-1.46 1.45 -.07-.04c-2.94-1.66-6.73-1.24-9.23 1.26 -1.81 1.8-2.53 4.28-2.17 6.62l.01.11H2.34l-.02-.09c-.36-2.87.56-5.87 2.76-8.08 3.27-3.28 8.3-3.72 12.05-1.34l.1.06Zm-5.4 15.82h.1c1.97 0 3.94-.76 5.44-2.26 .39-.4 1.02-.4 1.41 0 .39.39.39 1.02 0 1.41 -1.95 1.94-4.52 2.89-7.07 2.83l-.14-.01 .04-.14c.12-.37.19-.76.19-1.17v-.7Zm0-1.48v-.82c0-.39-.14-.75-.36-1.04l-.14-.18 .22.01c1.19.1 2.43-.31 3.34-1.23 .39-.4 1.02-.4 1.41 0 .39.39.39 1.02 0 1.41 -1.22 1.21-2.81 1.82-4.4 1.82h-.1Zm-3.92-4.92l-.14-.01c-.02-.01-.04-.01-.05-.01H5.89l-.02-.09c-.4-1.97.17-4.1 1.7-5.62 1.89-1.9 4.72-2.32 7.02-1.25l.12.06 -1.54 1.53 -.06-.02c-1.43-.41-3.03-.05-4.15 1.07 -1.13 1.12-1.49 2.72-1.08 4.15l.03.13Zm9.15-9.42c-.03-.02-.06-.04-.09-.06 -3.71-2.3-8.63-1.84-11.85 1.37 -2.19 2.18-3.1 5.14-2.74 7.98h1.81c-.01-.04-.02-.07-.02-.1 -.34-2.35.4-4.82 2.2-6.62 2.53-2.54 6.37-2.96 9.34-1.29l1.31-1.32Zm-5.32 17.6c.11-.35.17-.72.17-1.1v-.6c1.99 0 3.99-.77 5.51-2.29 .35-.36.92-.36 1.27 0 .35.35.35.92 0 1.27 -1.9 1.89-4.4 2.83-6.89 2.81 -.04-.01-.08-.01-.11-.01 .01-.04.02-.07.03-.1Zm.27-3.38c1.53-.03 3.05-.63 4.22-1.8 .35-.36.35-.93 0-1.28 -.36-.36-.93-.36-1.28 0 -.91.9-2.12 1.32-3.3 1.25 -.05-.01-.09-.01-.14-.01 .02.03.05.06.07.1 .18.28.29.62.29.98v.72c.03 0 .06-.01.1-.01Zm-4.26-4.92c-.01-.04-.02-.07-.03-.11 -.38-1.44-.01-3.029 1.12-4.16 1.14-1.15 2.78-1.52 4.23-1.11l1.39-1.4c-.04-.02-.07-.03-.1-.05 -2.25-1-4.97-.58-6.82 1.26 -1.51 1.5-2.06 3.58-1.68 5.52h1.8c.01 0 .03 0 .04 0Zm11.15-8.21c.39.39.39 1.02 0 1.41l-5.16 5.15c.03.14.05.28.05.43 0 1.04-.86 1.9-1.9 1.9 -1.05 0-1.9-.86-1.9-1.9 0-1.05.85-1.9 1.9-1.9 .14 0 .29.01.43.05l5.15-5.16c.39-.4 1.02-.4 1.41 0Zm-6.55 5.26c-.15-.04-.31-.07-.47-.07 -1 0-1.8.8-1.8 1.8 0 .99.8 1.8 1.8 1.8 .99 0 1.8-.81 1.8-1.8 0-.17-.03-.32-.07-.47l5.19-5.2c.35-.36.35-.93 0-1.28 -.36-.36-.93-.36-1.28 0l-5.2 5.19Zm8.33 5.63c0 .55-.45 1-1 1 -.56 0-1-.45-1-1 0-.56.44-1 1-1 .55 0 1 .44 1 1Zm0-7.8c0 .55-.45 1-1 1 -.56 0-1-.45-1-1 0-.56.44-1 1-1 .55 0 1 .44 1 1Zm.9 5.39c0 .55-.45 1-1 1 -.56 0-1-.45-1-1 0-.56.44-1 1-1 .55 0 1 .44 1 1Zm0-3c0 .55-.45 1-1 1 -.56 0-1-.45-1-1 0-.56.44-1 1-1 .55 0 1 .44 1 .99Zm-3.6 3c0 .55-.45 1-1 1 -.56 0-1-.45-1-1 0-.56.44-1 1-1 .55 0 1 .44 1 1Zm0-3c0 .55-.45 1-1 1 -.56 0-1-.45-1-1 0-.56.44-1 1-1 .55 0 1 .44 1 .99Zm-17 4.5c0-.39.31-.7.7-.7h6c.38 0 .7.31.7.7v4.8c0 .38-.32.7-.7.7h-6c-.39 0-.7-.32-.7-.7v-4.8Zm9.09 1.7c.38 0 .7.31.7.7v3c0 1.38-1.12 2.5-2.5 2.5h-4.2c-.39 0-.7-.32-.7-.7 0-.39.31-.7.7-.7h4.2c.6 0 1.1-.5 1.1-1.1v-3c0-.39.31-.7.69-.7Zm9.6.1c.49 0 .9-.41.9-.9 0-.5-.41-.9-.9-.9 -.5 0-.9.4-.9.9 0 .49.4.9.9.9Zm.9-8.7c0 .49-.41.9-.9.9 -.5 0-.9-.41-.9-.9 0-.5.4-.9.9-.9 .49 0 .9.4.9.9Zm0 6.29c.49 0 .9-.41.9-.9 0-.5-.41-.9-.9-.9 -.5 0-.9.4-.9.9 0 .49.4.9.9.9Zm.9-3.9c0 .49-.41.9-.9.9 -.5 0-.9-.41-.9-.9 0-.5.4-.9.9-.9 .49 0 .9.4.9.89Zm-4.5 3.9c.49 0 .9-.41.9-.9 0-.5-.41-.9-.9-.9 -.5 0-.9.4-.9.9 0 .49.4.9.9.9Zm.9-3.9c0 .49-.41.9-.9.9 -.5 0-.9-.41-.9-.9 0-.5.4-.9.9-.9 .49 0 .9.4.9.89Zm-16.8 4.5c-.001-.34.26-.6.6-.6h6c.33 0 .6.26.6.6v4.8c0 .33-.27.6-.6.6h-6c-.34 0-.6-.27-.6-.6v-4.8Zm9.59 2.4c0-.34-.27-.6-.6-.6 -.34 0-.6.26-.6.6v3c0 .66-.54 1.2-1.2 1.2h-4.2c-.34 0-.6.26-.6.6 0 .33.26.6.6.6h4.2c1.32 0 2.39-1.08 2.39-2.4v-3Z"/></g></svg>