<svg viewBox="0 0 24 24" xmlns="http://www.w3.org/2000/svg"><g fill="currentColor"><path d="M17.14 3.88l-1.32 1.31C12.84 3.51 9 3.94 6.47 6.47c-3.05 3.04-3.05 7.98-.001 11.03 3.04 3.04 7.98 3.04 11.03 0 .35-.36.92-.36 1.27 0 .35.35.35.92 0 1.27 -3.75 3.74-9.83 3.74-13.58 0 -3.75-3.75-3.75-9.83 0-13.58 3.23-3.24 8.21-3.68 11.92-1.33Zm-3.96 3.95l1.39-1.4c-2.27-1.06-5.05-.65-6.91 1.22 -2.4 2.39-2.4 6.26 0 8.65 2.38 2.39 6.26 2.39 8.65 0 .35-.36.35-.93 0-1.28 -.36-.36-.93-.36-1.28 0 -1.69 1.68-4.43 1.68-6.11 0 -1.69-1.69-1.69-4.43 0-6.11 1.14-1.15 2.78-1.52 4.23-1.11Zm5.75-2.79c.35.35.35.92 0 1.27l-5.2 5.19c.03.14.06.3.06.46 0 .99-.81 1.8-1.8 1.8 -1 0-1.8-.81-1.8-1.8 0-1 .8-1.8 1.8-1.8 .16 0 .31.02.46.06l5.19-5.2c.35-.36.92-.36 1.27 0Zm1.76 10.83c0 .49-.41.9-.9.9 -.5 0-.9-.41-.9-.9 0-.5.4-.9.9-.9 .49 0 .9.4.9.9Zm-.9-6.91c.49 0 .9-.41.9-.9 0-.5-.41-.9-.9-.9 -.5 0-.9.4-.9.9 0 .49.4.9.9.9Zm1.8 4.5c0 .49-.41.9-.9.9 -.5 0-.9-.41-.9-.9 0-.5.4-.9.9-.9 .49 0 .9.4.9.9Zm-.9-2.1c.49 0 .9-.41.9-.9 0-.5-.41-.91-.9-.91 -.5 0-.9.4-.9.9 0 .49.4.9.9.9Zm-2.7 2.1c0 .49-.41.9-.9.9 -.5 0-.9-.41-.9-.9 0-.5.4-.9.9-.9 .49 0 .9.4.9.9Zm-.9-2.1c.49 0 .9-.41.9-.9 0-.5-.41-.91-.9-.91 -.5 0-.9.4-.9.9 0 .49.4.9.9.9Z"/><path fill="currentColor" fill-rule="evenodd" d="M17.06 3.89C13.37 1.58 8.45 2.03 5.24 5.23 1.51 8.95 1.51 15 5.23 18.73c3.72 3.72 9.77 3.72 13.5 0 .33-.34.33-.88 0-1.21 -.34-.34-.88-.34-1.21 0 -3.07 3.06-8.04 3.06-11.11 0 -3.07-3.07-3.07-8.04 0-11.11 2.53-2.54 6.38-2.98 9.37-1.31l1.24-1.25ZM5.17 5.16c3.25-3.26 8.25-3.7 11.99-1.33l.05.03 -1.39 1.38 -.04-.02c-2.96-1.67-6.77-1.25-9.29 1.27 -3.03 3.02-3.03 7.93 0 10.96 3.02 3.02 7.93 3.02 10.96 0 .37-.38.97-.38 1.34 0 .37.37.37.97 0 1.34 -3.77 3.76-9.88 3.76-13.65 0 -3.77-3.77-3.77-9.88 0-13.65Zm13.72-.08c-.34-.34-.88-.34-1.21 0l-5.22 5.21 -.03-.01c-.15-.04-.3-.06-.46-.06 -.97 0-1.75.78-1.75 1.75 0 .96.78 1.75 1.75 1.75 .96 0 1.75-.79 1.75-1.75 0-.16-.03-.31-.06-.46l-.01-.03 5.21-5.22c.33-.34.33-.88 0-1.21ZM17.61 5c.37-.38.97-.38 1.34 0 .37.37.37.97 0 1.34l-5.18 5.17c.03.14.05.29.05.45 0 1.02-.83 1.85-1.85 1.85 -1.03 0-1.85-.83-1.85-1.85 0-1.03.82-1.85 1.85-1.85 .15 0 .3.01.45.05l5.17-5.18Zm-10 2.6c1.88-1.89 4.68-2.3 6.96-1.24l.06.03 -1.47 1.46 -.03-.01c-1.45-.41-3.06-.05-4.2 1.08 -1.67 1.66-1.67 4.37 0 6.03 1.66 1.66 4.37 1.66 6.03 0 .37-.38.97-.38 1.34 0 .37.37.37.97 0 1.34 -2.41 2.4-6.32 2.4-8.73 0 -2.41-2.41-2.41-6.32-.001-8.73Zm6.85-1.18c-2.24-1.01-4.96-.6-6.79 1.24 -2.38 2.37-2.38 6.21 0 8.58 2.37 2.37 6.21 2.37 8.58 0 .33-.34.33-.88 0-1.21 -.34-.34-.88-.34-1.21 0 -1.71 1.7-4.48 1.7-6.19 0 -1.71-1.71-1.71-4.48 0-6.19 1.15-1.154 2.79-1.53 4.26-1.13l1.32-1.33Zm4.35 1.63c0-.53.42-.95.95-.95 .52 0 .95.42.95.95 0 .52-.43.95-.95.95 -.53 0-.95-.43-.95-.95Zm.95-.85c-.47 0-.85.38-.85.85 0 .46.38.85.85.85 .46 0 .85-.39.85-.85 0-.47-.39-.85-.85-.85Zm-3.65 3.25c0-.53.42-.96.95-.96 .52 0 .95.42.95.95 0 .52-.43.95-.95.95 -.53 0-.95-.43-.95-.95Zm.95-.86c-.47 0-.85.38-.85.85 0 .46.38.85.85.85 .46 0 .85-.39.85-.85 0-.47-.39-.86-.85-.86Zm2.65.85c0-.53.42-.96.95-.96 .52 0 .95.42.95.95 0 .52-.43.95-.95.95 -.53 0-.95-.43-.95-.95Zm.95-.86c-.47 0-.85.38-.85.85 0 .46.38.85.85.85 .46 0 .85-.39.85-.85 0-.47-.39-.86-.85-.86Zm-3.6 3c-.47 0-.85.38-.85.85 0 .46.38.85.85.85 .46 0 .85-.39.85-.85 0-.47-.39-.85-.85-.85Zm-.95.85c0-.53.42-.95.95-.95 .52 0 .95.42.95.95 0 .52-.43.95-.95.95 -.53 0-.95-.43-.95-.95Zm4.55-.85c-.47 0-.85.38-.85.85 0 .46.38.85.85.85 .46 0 .85-.39.85-.85 0-.47-.39-.85-.85-.85Zm-.95.85c0-.53.42-.95.95-.95 .52 0 .95.42.95.95 0 .52-.43.95-.95.95 -.53 0-.95-.43-.95-.95Zm.05 1.55c-.47 0-.85.38-.85.85 0 .46.38.85.85.85 .46 0 .85-.39.85-.85 0-.47-.39-.85-.85-.85Zm-.95.85c0-.53.42-.95.95-.95 .52 0 .95.42.95.95 0 .52-.43.95-.95.95 -.53 0-.95-.43-.95-.95Z"/></g></svg>