<svg viewBox="0 0 24 24" xmlns="http://www.w3.org/2000/svg"><path fill="currentColor" d="M6 8.4h3v3.59H6v-3.6Zm7.8 0v3.59h-3.6v-3.6h3.6Zm1.2 3.59h3v-3.6h-3v3.59Zm4.24-7.2c.31 0 .6.06.89.18 .28.12.53.29.75.51 .21.21.39.46.51.75 .125.28.19.58.19.9v6.04c0 .42-.11.82-.32 1.2 -.22.375-.51.66-.89.88v2.11c0 .24-.05.47-.15.69 -.1.21-.23.4-.39.57 -.17.16-.36.29-.59.39 -.23.1-.46.14-.7.14h-4.8c-.17 0-.31-.06-.43-.18l-1.38-1.38 -1.38 1.37c-.12.11-.26.17-.43.17h-4.8c-.25 0-.48-.05-.7-.15 -.22-.1-.41-.23-.58-.39 -.17-.17-.3-.36-.4-.59 -.1-.23-.15-.46-.15-.7v-2.12c-.37-.22-.66-.51-.88-.89 -.22-.375-.33-.78-.33-1.2V7.04c0-.32.06-.61.18-.9 .12-.29.29-.54.51-.75 .21-.22.46-.4.75-.52 .28-.125.58-.2.9-.2h14.49Zm-.79 2.49c-.15-.07-.3-.1-.46-.1h-12c-.17-.01-.32.02-.47.09 -.15.06-.28.15-.39.26 -.11.1-.2.23-.26.37 -.07.14-.1.3-.1.46v3.6c0 .17.03.33.09.47 .05.14.14.26.25.37 .11.1.24.19.38.25s.3.09.46.09h12c.16 0 .31-.03.46-.1 .14-.07.27-.16.38-.27 .1-.11.19-.24.25-.375 .06-.15.09-.3.09-.47V8.31c0-.17-.04-.32-.1-.47 -.07-.15-.15-.28-.27-.39 -.12-.11-.25-.2-.39-.26Z"/></svg>