<svg viewBox="0 0 24 24" xmlns="http://www.w3.org/2000/svg"><path fill="currentColor" d="M5.25 4C3.45 4 2 5.45 2 7.25v9.5C2 18.54 3.45 20 5.25 20h13.5c1.79 0 3.25-1.46 3.25-3.25v-9.5C22 5.45 20.54 4 18.75 4H5.25ZM8.5 8.75v6.5c0 .41-.34.75-.75.75 -.42 0-.75-.34-.75-.75v-5.1l-.34.22c-.35.22-.82.13-1.05-.21 -.23-.35-.14-.82.2-1.05l1.5-1c.23-.16.52-.17.76-.04s.39.38.39.66Zm8.99 0v6.49c0 .41-.34.75-.75.75 -.42 0-.75-.34-.75-.75v-5.1l-.34.22c-.35.22-.82.13-1.04-.21 -.23-.35-.14-.82.2-1.05l1.5-1c.23-.16.52-.17.76-.04s.39.38.39.66Zm-4.5 5.24c0 .55-.45 1-1 1 -.56 0-1-.45-1-1 0-.56.44-1 1-1 .55 0 1 .44 1 1Zm-1-3c-.56 0-1-.45-1-1 0-.56.44-1 1-1 .55 0 1 .44 1 1 0 .55-.45 1-1 1Z"/></svg>