<svg viewBox="0 0 24 24" xmlns="http://www.w3.org/2000/svg"><path fill="currentColor" d="M17.5 12c3.03 0 5.5 2.46 5.5 5.5 0 3.03-2.47 5.5-5.5 5.5 -3.04 0-5.5-2.47-5.5-5.5 0-3.04 2.46-5.5 5.5-5.5Zm0 1.99l-.09 0c-.21.03-.37.19-.41.4l-.01.08 -.01 2.5 -2.51 0 -.09 0c-.21.03-.37.19-.41.4l-.01.08 0 .08c.03.2.19.36.4.4l.08 0 2.5-.01 0 2.5 0 .08c.03.2.19.36.4.4l.08 0 .08-.01c.2-.04.36-.2.4-.41l0-.09 -.01-2.51 2.5 0 .08-.01c.2-.04.36-.2.4-.41l0-.09 -.01-.09c-.04-.21-.2-.37-.41-.41l-.09-.01 -2.51-.01 0-2.5 -.01-.09c-.04-.21-.2-.37-.41-.41l-.09-.01Zm-6.481 4c.05.7.21 1.37.47 2l-4.5-.01c-.56 0-1-.45-1-1 0-.52.38-.94.88-1l.11-.01 4.019 0Zm.47-3c-.26.62-.43 1.29-.48 2l-7.02-.01c-.56 0-1-.45-1-1 0-.52.38-.94.88-1l.11-.01 7.49 0Zm2.53-3.01c-.81.51-1.5 1.19-2.02 2l-5.03 0c-.56 0-1-.45-1-1 0-.52.38-.94.88-1l.11-.01 7.035-.01Zm-8.035-7c1.23 0 2.32.75 2.78 1.87 .2.51-.04 1.09-.56 1.3 -.48.19-1.02-.01-1.26-.45l-.06-.11c-.16-.38-.52-.63-.93-.63 -.56 0-1 .44-1 1 0 .55.44 1 1 1h11.5c.55 0 1 .44 1 1 0 .51-.39.93-.89.99l-.12 0H5.94c-1.66 0-3-1.35-3-3 0-1.66 1.34-3 3-3Zm14 1c.55 0 1 .44 1 1 0 .51-.39.93-.89.99l-.12 0h-9c-.56 0-1-.45-1-1 0-.52.38-.94.88-1l.11-.01h9Z"/></svg>