<svg viewBox="0 0 24 24" xmlns="http://www.w3.org/2000/svg"><path fill="currentColor" d="M14.59 2.08c.23-.51.82-.73 1.327-.49 .26.13 0 0 0 0l0 0 0 0 0 0 .02.01c.01 0 .04.01.06.03 .05.02.13.07.23.12 .19.1.47.27.79.48 .64.43 1.49 1.09 2.31 2.01 1.65 1.85 3.16 4.76 2.61 8.85 -.08.54-.58.93-1.13.85 -.55-.08-.94-.58-.86-1.13 .45-3.41-.79-5.75-2.14-7.27 -.69-.77-1.4-1.33-1.94-1.69 -.27-.19-.5-.32-.65-.4 -.08-.05-.14-.08-.18-.1 -.02-.01-.04-.02-.04-.02l-.01-.01c-.5-.24-.72-.83-.49-1.33ZM9.92 4.63c-.16-.39-.52-.64-.94-.64 -.42 0-.79.25-.94.63l-5.5 13.99c-.21.51.05 1.09.56 1.29 .51.2 1.09-.06 1.29-.57l1.71-4.37h5.7l1.71 4.36c.2.51.78.76 1.29.56 .51-.21.76-.79.56-1.3l-5.5-14Zm1.13 8.36H6.91l2.06-5.27 2.06 5.26Zm4.37-7.4c-.5-.25-1.1-.05-1.35.44s-.05 1.09.44 1.34c.29.14.79.57 1.22 1.26 .42.66.72 1.48.72 2.34 0 .55.44 1 1 1 .55 0 1-.45 1-1 0-1.32-.46-2.5-1.03-3.42 -.57-.9-1.32-1.63-2.03-1.99Z"/></svg>