<svg viewBox="0 0 24 24" xmlns="http://www.w3.org/2000/svg"><path fill="currentColor" d="M17.75 2c1.19 0 2.16.92 2.24 2.09l0 .15v15.49c0 1.19-.93 2.16-2.1 2.24l-.16 0H6.23c-1.2 0-2.17-.93-2.25-2.1l-.01-.16V4.21c0-1.2.92-2.17 2.09-2.25l.15-.01H17.7Zm-5.51 10.99h-4.5l-.11 0c-.37.04-.65.36-.65.74 0 .37.28.69.64.74l.1 0h4.49l.1-.01c.36-.05.64-.37.64-.75s-.29-.7-.65-.75l-.11-.01Zm4-3H7.73l-.11 0c-.37.04-.65.36-.65.74 0 .37.28.69.64.74l.1 0h8.5l.1-.01c.36-.05.64-.37.64-.75s-.29-.7-.65-.75l-.11-.01Zm0-3H7.73l-.11 0c-.37.04-.65.36-.65.74 0 .37.28.69.64.74l.1 0h8.5l.1-.01c.36-.05.64-.37.64-.75s-.29-.7-.65-.75l-.11-.01Z"/></svg>