<svg viewBox="0 0 24 24" xmlns="http://www.w3.org/2000/svg"><path fill="currentColor" d="M20 18c.55 0 1 .44 1 1 0 .51-.39.93-.89.99l-.12 0h-13c-.56 0-1-.45-1-1 0-.52.38-.94.88-1l.11-.01h13Zm-3-3c.55 0 1 .44 1 1 0 .51-.39.93-.89.99l-.12 0h-13c-.56 0-1-.45-1-1 0-.52.38-.94.88-1l.11-.01h13Zm3-3c.55 0 1 .44 1 1 0 .51-.39.93-.89.99l-.12 0h-13c-.56 0-1-.45-1-1 0-.52.38-.94.88-1l.11-.01h13ZM6 5c1.23 0 2.32.75 2.78 1.87 .2.51-.04 1.09-.56 1.3 -.48.19-1.02-.01-1.26-.45l-.06-.11c-.16-.38-.52-.63-.93-.63 -.56 0-1 .44-1 1 0 .55.44 1 1 1h11.5c.55 0 1 .44 1 1 0 .51-.39.93-.89.99l-.12 0H5.96c-1.66 0-3-1.35-3-3 0-1.66 1.34-3 3-3Zm14 1c.55 0 1 .44 1 1 0 .51-.39.93-.89.99l-.12 0h-9c-.56 0-1-.45-1-1 0-.52.38-.94.88-1l.11-.01h9Z"/></svg>