<svg viewBox="0 0 24 24" xmlns="http://www.w3.org/2000/svg"><path fill="currentColor" d="M2 21.5V3c0-.56.44-1 1-1 .55 0 1 .44 1 1v.95h16.97c.56 0 1.02.45 1.02 1.02 0 .56-.46 1.02-1.03 1.02H3.98v15.5c0 .27-.23.5-.5.5h-1c-.28 0-.5-.23-.5-.5Zm3-14c0-.28.22-.5.5-.5h14c.27 0 .5.22.5.5v7.75c0 2.07-1.68 3.75-3.75 3.75h-7.5C6.67 19 5 17.32 5 15.25V7.5Zm4.34 4.2c-.23.19-.35.46-.35.75v3.04c0 .27.22.5.5.5h1.75c.13 0 .25-.12.25-.25v-1.25c0-.28.22-.5.5-.5h1c.27 0 .5.22.5.5v1.25c0 .13.11.25.25.25h1.75c.27 0 .5-.23.5-.5v-3.05c0-.3-.13-.57-.35-.76l-2.83-2.43c-.19-.17-.47-.17-.66 0l-2.83 2.42Z"/></svg>