<svg viewBox="0 0 24 24" xmlns="http://www.w3.org/2000/svg"><path fill="currentColor" d="M4 5.25C4 4 5 3 6.25 3h9.5C16.99 3 18 4 18 5.25V14h4v3.75c0 1.79-1.46 3.25-3.25 3.25h-5.8c.03-.17.05-.33.05-.5v-4c0-1.39-1.12-2.5-2.5-2.5H4V5.25ZM18 19.5h.75c.96 0 1.75-.79 1.75-1.75V15.5H18v4ZM7.5 7.75c0 .41.33.75.75.75h5.5c.41 0 .75-.34.75-.75 0-.42-.34-.75-.75-.75h-5.5c-.42 0-.75.33-.75.75ZM8.25 11c-.42 0-.75.33-.75.75 0 .41.33.75.75.75h5.5c.41 0 .75-.34.75-.75 0-.42-.34-.75-.75-.75h-5.5ZM2.5 15c-.83 0-1.5.67-1.5 1.5v4c0 .82.67 1.5 1.5 1.5h8c.82 0 1.5-.68 1.5-1.5v-4c0-.83-.68-1.5-1.5-1.5h-8Zm7.5 1c0 .55.44 1 1 1v1c-1.11 0-2-.9-2-2h1Zm-1 5c0-1.11.89-2 2-2v1c-.56 0-1 .44-1 1H9Zm-7-4c.55 0 1-.45 1-1h1c0 1.1-.9 2-2 2v-1Zm0 2c1.1 0 2 .89 2 2H3c0-.56-.45-1-1-1v-1Zm4.5-2.25c.96 0 1.75.78 1.75 1.75 0 .96-.79 1.75-1.75 1.75 -.97 0-1.75-.79-1.75-1.75 0-.97.78-1.75 1.75-1.75Z"/></svg>