<svg viewBox="0 0 24 24" xmlns="http://www.w3.org/2000/svg"><path fill="currentColor" d="M4 5.25C4 4 5 3 6.25 3h9.5C16.99 3 18 4 18 5.25V14h4v3.75c0 1.79-1.46 3.25-3.25 3.25h-7.09c.21-.38.33-.81.33-1.25v-4.503c0-.95-.54-1.82-1.39-2.24l-1.03-.52h4.15c.41 0 .75-.34.75-.75 0-.42-.34-.75-.75-.75h-5.5c-.32 0-.6.19-.7.48l-.44-.22c-.71-.36-1.54-.36-2.24 0l-.89.44V5.22ZM18 19.5h.75c.96 0 1.75-.79 1.75-1.75V15.5H18v4ZM7.5 7.75c0 .41.33.75.75.75h5.5c.41 0 .75-.34.75-.75 0-.42-.34-.75-.75-.75h-5.5c-.42 0-.75.33-.75.75Zm2.67 6.15l-3.5-1.75c-.43-.22-.92-.22-1.35 0l-3.5 1.75c-.51.25-.83.77-.83 1.34v4.503c0 .56.32 1.08.82 1.34l3.5 1.75c.42.21.91.21 1.34 0l3.49-1.75c.5-.26.82-.78.82-1.35V15.23c0-.57-.33-1.09-.83-1.35Zm-7.62 1.36c.12-.25.42-.35.67-.23l2.77 1.38 2.77-1.39c.24-.13.54-.03.67.22 .12.24.02.54-.23.67l-2.73 1.36v3.19c0 .27-.23.5-.5.5 -.28 0-.5-.23-.5-.5v-3.2l-2.73-1.37c-.25-.13-.35-.43-.23-.68Z"/></svg>