<svg viewBox="0 0 24 24" xmlns="http://www.w3.org/2000/svg"><path fill="currentColor" d="M15.85 6.14c-.32-.32-.7-.55-1.12-.69L13.35 5c-.11-.04-.2-.11-.27-.2 -.07-.1-.1-.21-.1-.32 0-.12.03-.23.1-.32 .06-.1.15-.17.26-.2l1.37-.45c.41-.15.78-.38 1.09-.7 .29-.31.52-.67.66-1.08l.01-.04 .44-1.38c.03-.11.1-.2.19-.27s.2-.1.31-.1c.11 0 .22.03.31.09s.16.15.19.26l.44 1.37c.13.41.37.79.68 1.11 .31.31.69.54 1.11.68l1.37.44 .02 0c.1.03.19.1.26.19 .06.09.1.2.1.31 0 .11-.04.22-.1.31 -.07.09-.16.16-.27.19l-1.38.44c-.42.13-.8.37-1.12.68 -.32.31-.55.69-.69 1.11l-.45 1.37c-.04.1-.11.19-.2.26 -.1.06-.21.09-.32.09 -.12 0-.23-.04-.32-.1 -.1-.07-.17-.16-.2-.27l-.45-1.38c-.14-.42-.38-.81-.69-1.12Zm7.92 4.06L23 9.95c-.24-.08-.45-.21-.62-.39 -.18-.18-.31-.39-.39-.62l-.25-.77c-.03-.06-.06-.11-.12-.15 -.06-.04-.12-.06-.18-.06 -.07 0-.13.01-.18.05 -.06.03-.09.08-.12.14l-.25.76c-.08.23-.21.44-.38.61 -.18.17-.38.3-.61.38l-.77.24c-.06.02-.12.05-.15.11 -.04.05-.06.11-.06.17 0 .06.01.12.05.17 .03.05.08.08.14.11l.76.24c.23.07.44.2.61.38 .17.17.3.38.38.61l.24.76c.02.05.05.11.11.14 .05.03.11.05.17.05 .06 0 .12-.02.17-.06 .05-.04.08-.09.11-.15l.24-.77c.07-.24.2-.45.38-.62 .17-.18.38-.31.61-.39l.76-.25c.05-.03.11-.06.14-.12 .03-.06.05-.12.05-.18 0-.07-.02-.13-.06-.18 -.04-.06-.09-.09-.15-.12l-.02-.01ZM5.23 2.98h7.79c-.31.1-.58.3-.77.56 -.19.26-.28.57-.28.9 0 .31.09.62.28.89 .16.28.41.5.72.64l1.4.46c.26.09.51.24.72.44l.18.1c.12.16.22.35.29.55l.41 1.45c.1.3.3.57.57.77 .13.09.27.16.43.2v4.02h4v3.75c0 1.79-1.46 3.25-3.25 3.25H6.22c-1.8 0-3.25-1.46-3.25-3.25V5.21c0-1.25 1-2.25 2.25-2.25Zm11.75 16.5h.75c.96 0 1.75-.79 1.75-1.75v-2.25h-2.5v4ZM6.48 7.73c0 .41.33.75.75.75h5.5c.41 0 .75-.34.75-.75 0-.42-.34-.75-.75-.75h-5.5c-.42 0-.75.33-.75.75Zm.75 3.25c-.42 0-.75.33-.75.75 0 .41.33.75.75.75h5.5c.41 0 .75-.34.75-.75 0-.42-.34-.75-.75-.75h-5.5Zm-.75 4.75c0 .41.33.75.75.75h3c.41 0 .75-.34.75-.75 0-.42-.34-.75-.75-.75h-3c-.42 0-.75.33-.75.75Z"/></svg>