<svg viewBox="0 0 24 24" xmlns="http://www.w3.org/2000/svg"><path fill="currentColor" d="M4 5.25C4 4 5 3 6.25 3h9.5C16.99 3 18 4 18 5.25V14h4v3.75c0 1.79-1.46 3.25-3.25 3.25h-6.78c.64-1.02 1.02-2.22 1.02-3.5 0-2.02-.92-3.81-2.35-5h3.09c.41 0 .75-.34.75-.75 0-.42-.34-.75-.75-.75h-5.5c-.16 0-.31.04-.43.13 -.43-.09-.87-.14-1.33-.14 -.89 0-1.74.17-2.5.49V5.23ZM18 19.5h.75c.96 0 1.75-.79 1.75-1.75V15.5H18v4ZM7.5 7.75c0 .41.33.75.75.75h5.5c.41 0 .75-.34.75-.75 0-.42-.34-.75-.75-.75h-5.5c-.42 0-.75.33-.75.75ZM12 17.5c0-3.04-2.47-5.5-5.5-5.5C3.46 12 1 14.46 1 17.5 1 20.53 3.46 23 6.5 23c3.03 0 5.5-2.47 5.5-5.5ZM7 18l0 2.5c0 .27-.23.5-.5.5 -.28 0-.5-.23-.5-.5l-.01-2.51H3.48c-.28 0-.5-.23-.5-.5 0-.28.22-.5.49-.5h2.5l-.01-2.51c0-.28.22-.5.5-.5 .27 0 .5.22.5.5l0 2.5h2.49c.27 0 .49.22.49.5 0 .27-.23.5-.5.5h-2.5Z"/></svg>