<svg viewBox="0 0 24 24" xmlns="http://www.w3.org/2000/svg"><g fill="currentColor"><path d="M4.79 6c0-1.33 1.07-2.4 2.4-2.4h8.4c1.32 0 2.4 1.07 2.4 2.4v8.39h3.6v2.4c0 1.98-1.62 3.6-3.6 3.6h-4.66l-1.88-1.88c.33-.71.52-1.5.52-2.33 0-1.7-.79-3.21-2.01-4.2h3.8c.33 0 .6-.27.6-.6 0-.34-.27-.6-.6-.6H8.95c-.24 0-.44.13-.54.33 -.59-.22-1.21-.34-1.87-.34 -.64 0-1.237.1-1.8.3V5.96Zm13.2 13.19c1.32 0 2.4-1.08 2.4-2.4v-1.2h-2.4v3.6Zm-9.01-12c-.34 0-.6.26-.6.6 0 .33.26.6.6.6h4.8c.33 0 .6-.27.6-.6 0-.34-.27-.6-.6-.6H8.97Zm-2.4 13.19c.94 0 1.81-.32 2.51-.84l3.06 3.06c.23.23.61.23.84 0 .23-.24.23-.62 0-.85l-3.07-3.07c.52-.71.83-1.58.83-2.52 0-2.32-1.89-4.2-4.21-4.2 -2.32 0-4.2 1.88-4.2 4.2 0 2.31 1.88 4.2 4.2 4.2Zm0-1.2c-1.66 0-3-1.35-3-3 0-1.66 1.34-3 3-3 1.65 0 3 1.34 3 3 0 1.65-1.35 3-3 3Z"/><path fill="currentColor" fill-rule="evenodd" d="M7.19 3.65C5.89 3.65 4.84 4.7 4.84 6v5.03c.54-.19 1.13-.29 1.75-.29 .64 0 1.26.11 1.84.31 .11-.2.32-.32.55-.32h4.8c.359 0 .65.29.65.65 0 .359-.3.65-.65.65h-3.67c1.17.99 1.91 2.48 1.91 4.15 0 .82-.19 1.61-.52 2.31l1.83 1.83h4.63c1.96 0 3.55-1.59 3.55-3.55v-2.35h-3.6V5.97c0-1.3-1.06-2.35-2.35-2.35H7.15ZM4.74 6c0-1.36 1.09-2.45 2.45-2.45h8.4c1.35 0 2.45 1.09 2.45 2.45v8.34h3.6v2.45c0 2.01-1.64 3.65-3.65 3.65h-4.68l-1.92-1.92 .01-.04c.33-.7.52-1.49.52-2.31 0-1.69-.78-3.19-1.99-4.17l-.11-.09h3.94c.3 0 .55-.25.55-.55 0-.31-.25-.55-.55-.55H8.95c-.22 0-.41.12-.5.3l-.03.03 -.05-.02c-.58-.22-1.2-.33-1.85-.33 -.63 0-1.23.1-1.79.3l-.07.02V5.93Zm3.6 1.8c0-.36.29-.65.65-.65h4.8c.359 0 .65.29.65.65 0 .35-.3.65-.65.65H8.98c-.36 0-.65-.3-.65-.65Zm.65-.55c-.31 0-.55.24-.55.55 0 .3.24.55.55.55h4.8c.3 0 .55-.25.55-.55 0-.31-.25-.55-.55-.55H8.98Zm-6.65 8.94c0-2.35 1.9-4.25 4.25-4.25 2.34 0 4.25 1.9 4.25 4.25 0 .93-.31 1.8-.83 2.51l3.02 3.03c.25.25.25.66 0 .91 -.26.25-.67.25-.92 0l-3.03-3.03c-.71.51-1.58.82-2.52.82 -2.35 0-4.25-1.91-4.25-4.25Zm4.25-4.15c-2.3 0-4.15 1.85-4.15 4.15 0 2.29 1.85 4.15 4.15 4.15 .93 0 1.79-.31 2.48-.83l.03-.03 3.09 3.09c.21.21.56.21.77 0 .21-.22.21-.57 0-.78l-3.1-3.1 .02-.04c.51-.7.82-1.56.82-2.49 0-2.3-1.86-4.15-4.16-4.15Zm0 1.2c-1.63 0-2.95 1.32-2.95 2.95 0 1.62 1.32 2.95 2.95 2.95 1.62 0 2.95-1.33 2.95-2.95 0-1.63-1.33-2.95-2.95-2.95Zm-3.05 2.95c0-1.69 1.36-3.05 3.05-3.05 1.68 0 3.05 1.36 3.05 3.05 0 1.68-1.37 3.05-3.05 3.05 -1.69 0-3.05-1.37-3.05-3.05Zm14.4-.65h2.5v1.25c0 1.35-1.1 2.45-2.45 2.45h-.05v-3.7Zm.1.1v3.49c1.27-.03 2.3-1.07 2.3-2.35v-1.15h-2.3Z"/></g></svg>