<svg viewBox="0 0 24 24" xmlns="http://www.w3.org/2000/svg"><path fill="currentColor" d="M4 5.25C4 4 5 3 6.25 3h9.5C16.99 3 18 4 18 5.25V14h4v3.75c0 1.79-1.46 3.25-3.25 3.25h-6.78c.64-1.02 1.02-2.22 1.02-3.5 0-2.02-.92-3.81-2.35-5h3.09c.41 0 .75-.34.75-.75 0-.42-.34-.75-.75-.75h-5.5c-.16 0-.31.04-.43.13 -.43-.09-.87-.14-1.33-.14 -.89 0-1.74.17-2.5.49V5.23ZM18 19.5h.75c.96 0 1.75-.79 1.75-1.75V15.5H18v4ZM7.5 7.75c0 .41.33.75.75.75h5.5c.41 0 .75-.34.75-.75 0-.42-.34-.75-.75-.75h-5.5c-.42 0-.75.33-.75.75ZM12 17.5c0 3.03-2.47 5.5-5.5 5.5C3.46 23 1 20.53 1 17.5 1 14.46 3.46 12 6.5 12c3.03 0 5.5 2.46 5.5 5.5Zm-7 1.99c0 .39.44.63.77.41l3-2c.29-.2.29-.64 0-.84l-3.01-2c-.34-.23-.78.01-.78.41v3.99Z"/></svg>