<svg viewBox="0 0 24 24" xmlns="http://www.w3.org/2000/svg"><path fill="currentColor" d="M4 5.25C4 4 5 3 6.25 3h9.5C16.99 3 18 4 18 5.25V14h4v3.75c0 1.79-1.46 3.25-3.25 3.25h-7.26c0-.09 0-.17 0-.25v-6c0-.7-.41-1.31-1-1.59v-.17c0-.17-.02-.34-.04-.5h3.28c.41 0 .75-.34.75-.75 0-.42-.34-.75-.75-.75H9.85c-.64-.91-1.69-1.5-2.88-1.5 -.44 0-.87.08-1.26.23 -.39-.15-.82-.24-1.25-.24 -.17 0-.34.01-.51.03V5.22ZM18 19.5h.75c.96 0 1.75-.79 1.75-1.75V15.5H18v4ZM7.5 7.75c0 .41.33.75.75.75h5.5c.41 0 .75-.34.75-.75 0-.42-.34-.75-.75-.75h-5.5c-.42 0-.75.33-.75.75Zm-6.5 7c0-.42.33-.75.75-.75H2v-1c0-1.39 1.11-2.5 2.5-2.5 .45 0 .88.12 1.25.33 .36-.22.79-.34 1.25-.34 1.38 0 2.5 1.11 2.5 2.5v1h.24c.41 0 .75.33.75.75v6c0 1.24-1.01 2.25-2.25 2.25h-5c-1.25 0-2.25-1.01-2.25-2.25v-6ZM7 13v1h1v-1c0-.56-.45-1-1-1 -.07 0-.14 0-.2.01 .12.3.19.63.19.98Zm-1.5 1v-1c0-.56-.45-1-1-1 -.56 0-1.01.44-1.01 1v1h2Z"/></svg>