<svg viewBox="0 0 24 24" xmlns="http://www.w3.org/2000/svg"><path fill="currentColor" d="M3 5.25C3 4 4 3 5.25 3h9.5C15.99 3 17 4 17 5.25V14h4v3.75c0 1.79-1.46 3.25-3.25 3.25H6.25C4.45 21 3 19.54 3 17.75V5.25ZM17 19.5h.75c.96 0 1.75-.79 1.75-1.75V15.5H17v4ZM6.5 7.75c0 .41.33.75.75.75h5.5c.41 0 .75-.34.75-.75 0-.42-.34-.75-.75-.75h-5.5c-.42 0-.75.33-.75.75ZM7.25 11c-.42 0-.75.33-.75.75 0 .41.33.75.75.75h5.5c.41 0 .75-.34.75-.75 0-.42-.34-.75-.75-.75h-5.5Zm-.75 4.75c0 .41.33.75.75.75h3c.41 0 .75-.34.75-.75 0-.42-.34-.75-.75-.75h-3c-.42 0-.75.33-.75.75Z"/></svg>