<svg viewBox="0 0 24 24" xmlns="http://www.w3.org/2000/svg"><path fill="currentColor" d="M7.51 6.25c0-.97.78-1.75 1.75-1.75h1c.41 0 .75-.34.75-.75 0-.42-.34-.75-.75-.75H9.25C7.45 3 6 4.45 6 6.25l-.01.5c0 .41.33.75.75.75 .41 0 .75-.34.75-.75l0-.51ZM12.76 3c-.42 0-.75.33-.75.75 0 .41.33.75.75.75h2.5c.41 0 .75-.34.75-.75 0-.42-.34-.75-.75-.75h-2.5Zm-.75 13.24c0-.42.33-.75.75-.75h2.5c.41 0 .75.33.75.75 0 .41-.34.75-.75.75h-2.5c-.42 0-.75-.34-.75-.75Zm8.5-2.5c0 .96-.79 1.75-1.75 1.75h-1c-.42 0-.75.33-.75.75 0 .41.33.75.75.75h1c1.79 0 3.25-1.46 3.25-3.25l-.01-.49c0-.42-.34-.75-.75-.75 -.42 0-.75.33-.75.75l0 .48Zm-1.75-9.25c.96-.001 1.75.78 1.75 1.75l-.01.5c0 .41.33.75.75.75 .41 0 .75-.34.75-.75l0-.51c0-1.8-1.46-3.25-3.25-3.25h-1c-.42 0-.75.33-.75.75 0 .41.33.75.75.75h1ZM7.5 13.73c0 .96.78 1.75 1.75 1.75h1c.41 0 .75.33.75.75 0 .41-.34.75-.75.75H9.24c-1.8 0-3.25-1.46-3.25-3.25l-.01-.49c0-.42.33-.75.75-.75 .41 0 .75.33.75.75l0 .48ZM1.98 9.57c0-2.07 1.23-3.85 3-4.65v8.79c0 2.34 1.9 4.25 4.25 4.25h11.75l.04-.01c-.81 1.76-2.59 3-4.65 3H9.21c-4.01 0-7.25-3.25-7.25-7.25V9.55Zm5.5-.34c0-.42-.34-.75-.75-.75 -.42 0-.75.33-.75.75l.01 1.49c0 .41.33.75.75.75 .41 0 .75-.34.75-.75l-.02-1.5Zm13.75-.75c.41 0 .75.33.75.75l.01 1.49c0 .41-.34.75-.75.75 -.42 0-.75-.34-.75-.75l-.02-1.5c0-.42.33-.75.75-.75Z"/></svg>