<svg viewBox="0 0 24 24" xmlns="http://www.w3.org/2000/svg"><g fill="currentColor"><path d="M7.2 2.4c-1.33 0-2.4 1.07-2.4 2.4v14.4c0 1.32 1.07 2.4 2.4 2.4h6.83c-.16-.13-.31-.26-.45-.4 -.58-.58-1.01-1.27-1.28-2.03 -.38-.06-.73-.24-1-.51 -.34-.34-.53-.8-.53-1.28s.18-.94.52-1.28c.27-.28.61-.45.99-.51 .26-.76.69-1.46 1.27-2.03 .57-.58 1.26-1.01 2.02-1.28 .05-.38.23-.73.5-1 .33-.34.79-.53 1.27-.53 .47 0 .93.18 1.27.52 .27.27.44.61.5.99l.02 0V4.73c0-1.33-1.08-2.4-2.4-2.4h-9.6Zm10.86 15.99c-.2.13-.43.2-.67.2 -.32 0-.63-.13-.85-.36 -.23-.23-.36-.54-.36-.85 0-.24.07-.47.2-.67 .13-.2.31-.36.53-.45 .21-.1.46-.12.69-.07 .23.04.44.16.61.32 .16.16.28.38.32.61 .04.23.02.47-.07.69 -.1.21-.25.4-.45.53Zm3.47-1.6h.66c.15 0 .31.06.42.17 .11.11.17.26.17.42 0 .15-.07.31-.18.42 -.12.11-.27.17-.43.17h-.67c-.13.89-.55 1.71-1.19 2.35 -.64.63-1.47 1.05-2.36 1.18v.66c0 .15-.07.31-.18.42 -.12.11-.27.17-.43.17 -.16 0-.32-.07-.43-.18 -.12-.12-.18-.27-.18-.43v-.67c-.9-.13-1.72-.55-2.36-1.19 -.64-.64-1.06-1.47-1.19-2.36h-.67c-.16 0-.32-.07-.43-.18 -.12-.12-.18-.27-.18-.43 0-.16.06-.32.17-.43 .11-.12.26-.18.42-.18h.66c.12-.9.54-1.72 1.18-2.36 .63-.64 1.46-1.06 2.35-1.19v-.67c0-.16.06-.32.17-.43 .11-.12.26-.18.42-.18 .15 0 .31.06.42.17 .11.11.17.26.17.42v.66c.89.12 1.71.54 2.35 1.18 .63.63 1.05 1.46 1.18 2.35Zm-3.85 3.58c.69-.07 1.33-.38 1.82-.87 .27-.28.49-.61.65-.98 .15-.37.22-.76.22-1.15 -.01-.7-.25-1.37-.69-1.91 -.45-.54-1.06-.91-1.74-1.04 -.69-.14-1.39-.04-2 .29 -.62.32-1.1.85-1.36 1.49 -.27.64-.31 1.35-.1 2.01 .2.66.62 1.23 1.2 1.62 .57.38 1.27.55 1.96.49Z"/><path fill="currentColor" fill-rule="evenodd" d="M4.75 4.8c0-1.36 1.09-2.45 2.45-2.45h9.6c1.35 0 2.45 1.09 2.45 2.45v7.59l-.12-.05 -.01-.03c-.06-.37-.23-.71-.5-.97 -.33-.33-.78-.52-1.24-.52 -.47 0-.91.18-1.24.51 -.27.26-.44.6-.5.96l-.01.02 -.03 0c-.76.26-1.44.69-2.01 1.26 -.57.56-1 1.25-1.27 2l-.01.02 -.03 0c-.37.05-.71.22-.97.49 -.33.32-.52.77-.52 1.23 0 .46.18.9.51 1.23 .26.26.6.43.96.49l.02 0 0 .02c.26.75.69 1.439 1.26 2 .13.13.28.26.43.39l.11.08H7.1c-1.36 0-2.45-1.1-2.45-2.45V4.67ZM7.2 2.45c-1.3 0-2.35 1.05-2.35 2.35v14.4c0 1.29 1.05 2.35 2.35 2.35h6.69c-.12-.1-.23-.21-.34-.31 -.58-.58-1.01-1.27-1.28-2.02 -.38-.07-.72-.25-1-.52 -.35-.35-.55-.82-.55-1.31 0-.5.19-.97.54-1.31 .27-.28.61-.45.99-.52 .26-.76.7-1.45 1.27-2.02 .57-.58 1.26-1.01 2.01-1.28 .06-.38.24-.72.51-1 .34-.35.81-.55 1.3-.55s.96.19 1.3.54c.2.2.35.44.44.7v-7.2c0-1.3-1.06-2.35-2.35-2.35h-9.6Zm10.2 9.6c-.15 0-.29.05-.39.16 -.11.1-.17.24-.17.38v.7l-.05 0c-.89.12-1.7.53-2.33 1.16 -.64.63-1.04 1.44-1.17 2.32l-.01.04h-.71c-.15 0-.29.05-.39.16 -.11.1-.17.24-.17.38s.05.28.16.38c.1.1.24.16.38.16h.7l0 .04c.12.88.53 1.69 1.16 2.32 .63.63 1.44 1.03 2.32 1.16l.04 0v.7c0 .14.05.28.16.38 .1.1.24.16.38.16s.28-.06.38-.17c.1-.11.16-.25.16-.39v-.71l.04-.01c.88-.13 1.69-.54 2.32-1.17 .63-.64 1.03-1.45 1.16-2.33l0-.05h.7c.14 0 .28-.06.38-.17 .1-.11.16-.25.16-.39 0-.15-.06-.29-.17-.39 -.11-.11-.25-.17-.39-.17h-.71l-.01-.05c-.13-.89-.54-1.7-1.17-2.33 -.64-.64-1.45-1.04-2.33-1.17l-.05-.01v-.71c0-.15-.06-.29-.17-.39 -.11-.11-.25-.17-.39-.17Zm-.46.09c.12-.13.28-.2.45-.2 .17 0 .33.06.45.19 .12.12.19.28.19.45v.61c.88.13 1.7.55 2.34 1.18 .63.63 1.05 1.45 1.18 2.34h.61c.17 0 .33.06.45.19 .12.12.19.28.19.45 0 .17-.07.33-.2.45s-.29.19-.46.19h-.62c-.14.88-.56 1.7-1.19 2.34 -.64.63-1.46 1.05-2.35 1.18v.61c0 .17-.07.33-.2.45s-.29.19-.46.19c-.18 0-.34-.07-.46-.2 -.13-.13-.2-.29-.2-.46v-.62c-.89-.14-1.71-.56-2.35-1.19 -.64-.64-1.06-1.46-1.19-2.35h-.62c-.18 0-.34-.07-.46-.2 -.13-.13-.2-.29-.2-.46 0-.18.06-.34.19-.46 .12-.13.28-.2.45-.2h.61c.13-.89.55-1.71 1.18-2.35 .63-.64 1.45-1.06 2.34-1.19v-.62c0-.18.06-.34.19-.46Zm-.98 2.57c.62-.34 1.34-.44 2.03-.31 .69.13 1.31.51 1.76 1.05 .44.54.69 1.22.69 1.93 0 .4-.08.79-.24 1.16 -.16.37-.38.7-.67.98 -.5.49-1.16.8-1.86.87 -.71.06-1.41-.11-2-.5 -.59-.4-1.02-.98-1.23-1.66 -.21-.68-.17-1.41.1-2.06 .26-.66.75-1.2 1.37-1.53Zm2.01-.21c-.67-.14-1.37-.03-1.97.29 -.61.32-1.08.84-1.34 1.47 -.27.63-.3 1.33-.1 1.98 .19.65.61 1.21 1.18 1.59 .56.37 1.24.54 1.92.48 .67-.07 1.31-.37 1.79-.86 .27-.28.49-.6.63-.96s.22-.75.22-1.13c-.01-.69-.24-1.35-.67-1.88 -.44-.53-1.04-.89-1.71-1.03Zm-.36 1.76c-.23-.05-.46-.03-.67.06 -.22.08-.39.23-.52.42 -.13.18-.2.41-.2.63 0 .3.12.59.33.81 .21.21.5.33.81.33 .22 0 .44-.07.63-.2 .18-.13.33-.31.42-.52 .08-.22.1-.45.06-.67 -.05-.23-.16-.43-.32-.59 -.17-.17-.37-.28-.59-.32Zm-.71-.03c.22-.1.47-.12.72-.08 .24.04.46.16.64.34 .17.17.29.39.34.64 .04.24.02.49-.08.72 -.1.22-.26.42-.47.56 -.21.13-.45.21-.7.21 -.34 0-.65-.14-.89-.37 -.24-.24-.37-.56-.37-.89 0-.25.07-.49.21-.7 .13-.21.33-.37.56-.47Z"/></g></svg>