<svg viewBox="0 0 24 24" xmlns="http://www.w3.org/2000/svg"><path fill="currentColor" d="M6.56 8c.22.01.43.08.61.21l0 0 0 0c.06.04.11.09.17.15l.01.01 .01.01c.1.11.17.24.23.39l0 .01 .17.54c0 .01.01.02.02.03 .01.01.02.02.04.02l.37.12h.03l.17.06c.06.02.12.05.18.08l0 0 0 0c.14.08.26.19.36.33 .14.2.22.45.22.7 -.01.24-.08.49-.23.69l0-.01 -.01 0 0-.01c-.15.2-.35.35-.58.43l-.02 0 -.55.17c-.02 0-.03.01-.04.02l-.01 0c-.02.01-.02.02-.03.03l-.19.55 -.02.02c-.09.22-.24.41-.44.55l-.01 0c-.21.14-.45.21-.7.21 -.25-.01-.49-.08-.7-.22l-.01-.01c-.21-.15-.36-.35-.45-.58l-.01-.02 -.18-.56c-.01-.02-.02-.03-.03-.04 -.02-.02-.03-.03-.05-.03l-.54-.18 -.01-.01c-.25-.09-.45-.25-.6-.46 -.14-.2-.22-.43-.22-.67 -.23.14-.49.22-.76.22 -.29 0-.56-.09-.79-.25l-.01-.01c-.08-.06-.16-.12-.22-.19v7.19c0 1.24 1 2.25 2.25 2.25h15.5c1.24 0 2.25-1.01 2.25-2.25V5.99c0-1.25-1.01-2.25-2.25-2.25H4.03l.27.84 0 0c.04.12.11.24.21.34 .09.09.21.17.34.21l.76.24h.03l.16.05c.26.09.49.26.65.49l0 .01c.16.22.24.5.24.78s-.09.55-.25.78l-.01.01c-.06.07-.12.14-.19.2ZM2.65 9.75l-.3-.92c-.07-.21-.17-.4-.3-.57 -.05-.07-.11-.13-.16-.18 -.21-.21-.47-.37-.75-.46l-.92-.3c-.08-.03-.14-.08-.18-.14 -.05-.07-.07-.14-.07-.21 0-.08.02-.15.06-.21 .04-.07.1-.11.17-.14l.91-.3c.27-.1.52-.26.73-.47 .19-.21.34-.45.44-.72l0-.03 .3-.92c.02-.08.07-.14.13-.18 .06-.05.13-.07.21-.07 .07 0 .14.02.2.06 .06.04.1.1.13.17l.3.91c.09.27.24.53.45.74 .2.2.46.36.74.45l.91.29h.01c.07.02.13.07.17.13 .04.06.06.13.06.2s-.03.14-.07.2c-.05.06-.11.1-.18.13l-.92.29c-.28.09-.54.24-.75.45 -.21.2-.37.46-.46.74l-.3.91 -.01.02c-.02.03-.05.07-.07.1 -.02.01-.04.03-.06.04 -.07.04-.14.06-.21.06 -.08 0-.15-.03-.21-.07 -.07-.05-.11-.11-.133-.18Zm2.76.61l-.54.17c-.05.01-.08.04-.1.07 -.03.03-.04.07-.04.12 0 .04.01.08.03.12 .02.03.05.06.1.07l.53.17c.16.05.31.14.43.26s.21.27.26.43l.17.53c.01.04.04.07.07.1 .03.02.07.03.12.03 .04 0 .08-.02.12-.04 .03-.03.06-.06.07-.1l.17-.54c.05-.17.14-.32.26-.44 .12-.13.26-.22.43-.27l.53-.18c.04-.02.07-.05.1-.08 .02-.04.03-.08.03-.13s-.02-.09-.04-.13c-.02-.03-.04-.05-.07-.06 -.02-.01-.03-.02-.04-.02h-.02l-.54-.18c-.17-.06-.32-.15-.44-.27 -.13-.13-.22-.27-.27-.44l-.18-.54c-.01-.03-.03-.06-.05-.08 -.02-.02-.03-.03-.04-.04 -.04-.03-.08-.04-.13-.04 -.03-.01-.06 0-.08.01 -.02 0-.03.01-.05.02 -.04.02-.07.05-.08.09l-.18.53c-.03.07-.06.15-.1.22 -.05.07-.1.13-.16.19 -.13.12-.27.21-.43.27Z"/></svg>