<svg viewBox="0 0 24 24" xmlns="http://www.w3.org/2000/svg"><g fill="currentColor"><path d="M10.68 3.64c.56-1.06 2.07-1.06 2.64 0l1.99 3.71 -1.24-.42c-.48-.16-.99.09-1.14.56 -.16.47.09.98.56 1.13l3.6 1.2c.24.08.52.05.74-.09 .22-.14.38-.37.42-.63l.6-3.6c.08-.5-.25-.96-.74-1.04 -.5-.09-.96.24-1.04.73l-.21 1.25 -2-3.72C13.61.4 10.29.4 9.04 2.71L6.95 6.58c-.24.44-.07 1 .39 1.23 .43.21.96.04 1.19-.38l2.08-3.88Zm9.64 13.04l-2.3-4.28c-.24-.45-.07-1.01.39-1.24 .43-.22.96-.05 1.19.37l2.29 4.27c1.18 2.19-.42 4.86-2.91 4.86h-4.24l.86.86c.35.35.35.92 0 1.27 -.36.35-.93.35-1.28 0l-2.4-2.4c-.36-.36-.36-.93 0-1.28l2.4-2.4c.35-.36.92-.36 1.27 0 .35.35.35.92 0 1.27l-.87.86h4.23c1.13 0 1.85-1.22 1.32-2.21Zm-11.63 2.2c.49 0 .9.4.9.9 0 .49-.41.9-.9.9H4.98c-2.5 0-4.09-2.67-2.91-4.87l2.21-4.13 -1.63.54c-.48.15-.99-.1-1.14-.57 -.16-.48.09-.99.56-1.14l3.6-1.21c.22-.08.47-.06.68.04 .21.1.37.29.45.52l1.2 3.6c.15.47-.1.98-.57 1.13 -.48.15-.99-.1-1.14-.57l-.49-1.47 -2.19 4.06c-.54.99.18 2.2 1.32 2.2h3.7Z"/><path fill="currentColor" fill-rule="evenodd" d="M9 2.74c1.28-2.39 4.7-2.39 5.99 0l1.85 3.45 .16-.97c.09-.55.6-.92 1.15-.83 .54.09.91.6.82 1.15l-.6 3.6c-.05.28-.22.54-.48.69 -.26.15-.56.18-.84.09l-3.6-1.2c-.53-.18-.81-.75-.64-1.27 .17-.53.74-.81 1.26-.64l.99.33 -1.88-3.49c-.53-.99-1.94-.99-2.47-.01L8.62 7.51c-.26.47-.85.66-1.33.42 -.51-.26-.71-.88-.44-1.37l2.08-3.88Zm5.81.09C13.6.58 10.37.58 9.17 2.82L7.08 6.69c-.22.39-.06.89.34 1.09 .38.19.85.04 1.06-.34l2.08-3.88c.6-1.13 2.21-1.13 2.81 0l1.99 3.71c.01.03.01.08-.02.11s-.07.04-.11.03l-1.24-.42c-.42-.14-.88.08-1.02.5 -.14.41.08.87.5 1.01l3.6 1.2c.22.07.46.04.66-.08 .2-.13.33-.33.37-.56l.6-3.6c.07-.44-.23-.85-.66-.93 -.44-.08-.85.22-.93.65l-.21 1.25c-.01.04-.05.07-.09.08 -.05 0-.09-.02-.11-.06l-2-3.72ZM6.34 9.47c-.19-.1-.41-.12-.62-.05l-3.6 1.2c-.42.13-.65.59-.51 1.01 .13.41.59.64 1.01.5l1.62-.55c.03-.02.08-.01.1.03 .02.03.03.07.01.11l-2.22 4.12c-1.15 2.13.39 4.71 2.81 4.71h3.7c.44 0 .8-.36.8-.8 0-.45-.36-.8-.8-.8H4.93c-1.21 0-1.99-1.3-1.41-2.36l2.18-4.07c.01-.04.05-.06.09-.06 .03 0 .07.03.08.06l.48 1.46c.13.41.59.64 1.01.5 .41-.14.64-.6.5-1.02l-1.2-3.61c-.07-.21-.22-.37-.41-.47Zm-.68-.24c.25-.09.52-.07.76.05 .23.11.41.32.5.57l1.2 3.6c.17.52-.11 1.09-.64 1.26 -.53.17-1.1-.11-1.27-.64l-.42-1.25 -2.08 3.86c-.51.93.17 2.06 1.23 2.06h3.7c.55 0 1 .44 1 1 0 .55-.45 1-1 1H4.93c-2.58 0-4.22-2.75-3-5.01l2.09-3.91 -1.39.46c-.53.17-1.1-.11-1.27-.64 -.18-.53.1-1.1.63-1.27l3.6-1.21Zm13.84 2.36c-.21-.39-.68-.54-1.07-.34 -.41.2-.57.69-.35 1.09l2.29 4.27c.57 1.06-.2 2.35-1.41 2.35h-4.24c-.05 0-.08-.03-.1-.07 -.02-.04-.01-.09.02-.11l.86-.87c.31-.32.31-.82 0-1.14 -.32-.32-.82-.32-1.14 0l-2.4 2.4c-.32.31-.32.81 0 1.13l2.4 2.4c.31.31.81.31 1.13 0 .31-.32.31-.82 0-1.14l-.87-.87c-.03-.03-.04-.08-.03-.11 .01-.04.05-.07.09-.07h4.23c2.41 0 3.96-2.59 2.81-4.72l-2.3-4.28Zm-1.16-.516c.48-.25 1.07-.06 1.32.42l2.29 4.27c1.21 2.26-.43 5-3 5h-3.99l.69.69c.39.39.39 1.02 0 1.41 -.4.39-1.03.39-1.42 0l-2.4-2.4c-.4-.4-.4-1.03 0-1.42l2.4-2.4c.39-.4 1.02-.4 1.41 0 .39.39.39 1.02 0 1.41l-.7.69h3.99c1.05 0 1.73-1.13 1.23-2.07l-2.3-4.28c-.27-.5-.08-1.12.43-1.37Z"/></g></svg>