<svg viewBox="0 0 24 24" xmlns="http://www.w3.org/2000/svg"><path fill="currentColor" d="M2 3c0-.56.44-1 1-1h9c5.52 0 10 4.47 10 10 0 2.72-1.1 5.19-2.86 7h-3.27c2.45-1.37 4.12-3.99 4.12-7 0-3.87-2.74-7.09-6.38-7.84 -.53-.11-1.07-.17-1.63-.17h-9c-.56 0-1-.45-1-1Zm8.18 18.83c.58.1 1.19.16 1.81.16h9c.55 0 1-.45 1-1 0-.56-.45-1-1-1h-9c-2.67 0-5.04-1.31-6.49-3.32 -.02-.03-.04-.05-.06-.08 -.92-1.31-1.47-2.9-1.47-4.61 0-3.02 1.66-5.64 4.12-7H4.82c-1.77 1.8-2.86 4.27-2.86 6.99 0 4.9 3.52 8.98 8.18 9.835Zm1.81-13.84c.55 0 1 .44 1 1v2h2c.55 0 1 .44 1 1 0 .55-.45 1-1 1h-2v2c0 .55-.45 1-1 1 -.56 0-1-.45-1-1v-2h-2c-.56 0-1-.45-1-1 0-.56.44-1 1-1h2v-2c0-.56.44-1 1-1Z"/></svg>