<svg viewBox="0 0 24 24" xmlns="http://www.w3.org/2000/svg"><g fill="currentColor"><path d="M20.36 18.03c.35.35.92.35 1.27 0 .35-.36.35-.93 0-1.28l-6.57-6.57 6.56-6.57c.35-.36.35-.93 0-1.28 -.36-.36-.93-.36-1.28 0l-7.2 7.2c-.36.35-.36.92 0 1.27l7.2 7.2ZM3.63 5.95c-.36-.36-.93-.36-1.28 0 -.36.35-.36.92 0 1.27l6.56 6.56 -6.57 6.56c-.36.35-.36.92 0 1.27 .35.35.92.35 1.27 0l7.19-7.2c.35-.36.35-.93 0-1.28L3.6 5.92Z"/><path fill="currentColor" fill-rule="evenodd" d="M20.25 2.25c.41-.42 1.07-.42 1.48 0 .41.41.41 1.07 0 1.48l-6.46 6.45 6.45 6.45c.41.41.41 1.07 0 1.48 -.41.41-1.08.41-1.49 0l-7.2-7.2c-.42-.41-.42-1.08 0-1.49l7.2-7.2Zm1.27.21c-.3-.3-.77-.3-1.07 0l-7.2 7.2c-.3.29-.3.76 0 1.06l7.2 7.2c.29.29.76.29 1.06 0 .29-.3.29-.77 0-1.07l-6.67-6.67 6.66-6.67c.29-.3.29-.77 0-1.07ZM2.24 5.84c.41-.42 1.07-.42 1.48 0l7.19 7.2c.41.41.41 1.07 0 1.48l-7.2 7.2c-.42.41-1.08.41-1.49 0 -.42-.41-.42-1.08 0-1.49l6.45-6.46 -6.46-6.46c-.42-.42-.42-1.08 0-1.49Zm1.27.21c-.3-.3-.77-.3-1.07 0 -.3.29-.3.76 0 1.06l6.66 6.66 -6.67 6.66c-.3.29-.3.76 0 1.06 .29.29.76.29 1.06 0l7.2-7.2c.29-.3.29-.77 0-1.07l-7.21-7.2Z"/></g></svg>