<svg viewBox="0 0 24 24" xmlns="http://www.w3.org/2000/svg"><path fill="currentColor" d="M9.75 2h3.99c.41 0 .75.33.75.75 0 .37-.29.69-.65.74l-.11 0h-1.25v17h1.24c.37 0 .69.28.74.64l0 .1c0 .37-.29.69-.65.74l-.11 0h-4c-.42 0-.75-.34-.75-.75 0-.38.28-.7.64-.75l.1-.01h1.24v-17H9.68c-.38 0-.7-.29-.75-.65l-.01-.11c0-.38.28-.7.64-.75l.1-.01Zm8.49 2.99c1.79 0 3.24 1.45 3.25 3.24l0 7.5c0 1.73-1.36 3.14-3.07 3.24l-.19 0 -4.75-.01V4.95h4.74Zm-8.25 0l-.01 14H5.23c-1.8 0-3.25-1.46-3.25-3.25V8.23c0-1.8 1.45-3.25 3.25-3.25h4.74Z"/></svg>