<svg viewBox="0 0 24 24" xmlns="http://www.w3.org/2000/svg"><g fill="currentColor"><path d="M3.59 7.8l0-3.6c0-.34.26-.6.6-.6 .33 0 .6.26.6.6v1.44C5.8 4.49 7.08 3.58 8.56 3.02c.85-.33 1.76-.54 2.71-.61 1.04-.08 2.06.01 3.03.25 4.17 1.03 7.27 4.81 7.27 9.31 0 .03-.01.06-.01.1 -.01.42-.04.84-.1 1.25 -.33 2.28-1.45 4.3-3.09 5.77 -.62.55-1.3 1.02-2.05 1.4 -1.15.58-2.43.95-3.78 1.03 -1.24.07-2.43-.09-3.55-.45 -.96-.31-1.84-.76-2.64-1.33 -2.06-1.47-3.53-3.74-3.93-6.43 -.01-.03-.01-.06-.02-.09 -.09-.65-.12-1.3-.08-1.93 .02-.34.3-.59.63-.57 .33.02.58.3.56.63 -.02.16-.02.32-.02.49 0 .01 0 .03 0 .05 0 3.72 2.41 6.87 5.76 7.97 .82.27 1.71.42 2.63.42 .17 0 .35-.01.52-.02 .2-.02.4-.04.61-.07 1-.14 1.94-.45 2.79-.9 3.02-1.61 4.88-4.98 4.39-8.57 -.49-3.52-3.07-6.22-6.32-7.02 -.65-.16-1.32-.25-2.01-.25 -.22 0-.42 0-.63.02 -.18.01-.35.03-.516.05 -.63.08-1.23.23-1.8.44 -1.62.6-3 1.68-3.97 3.07h2.09c.33 0 .6.26.6.6 0 .33-.27.6-.6.6h-3c-.05 0-.09-.01-.13-.02 -.28-.06-.48-.3-.48-.59Zm5.4 1.76c0-1.12 1.17-1.85 2.17-1.34L16 10.65c1.1.55 1.1 2.12 0 2.67l-4.85 2.43c-1 .5-2.18-.23-2.18-1.34V9.53Z"/><path d="M3.74 7.8l0-3.6c0-.25.2-.46.45-.46 .24 0 .45.2.45.45v1.44 .39l.26-.3c1-1.15 2.28-2.04 3.71-2.58 .85-.33 1.74-.53 2.67-.6 1.01-.08 2.01.01 2.99.25 4.17 1.03 7.16 4.8 7.16 9.17 -.01.05-.01.05-.01.1 -.01.41-.04.82-.1 1.23 -.32 2.2-1.4 4.2-3.04 5.68 -.61.54-1.29 1.01-2.02 1.38 -1.15.58-2.41.93-3.72 1.01 -1.2.07-2.38-.08-3.5-.44 -.93-.3-1.81-.74-2.6-1.31 -2.09-1.49-3.49-3.75-3.87-6.33 -.01-.05-.01-.05-.02-.09 -.09-.64-.11-1.27-.07-1.9 .01-.25.22-.44.47-.43 .24.01.43.22.42.47 -.02.16-.02.33-.02.5 0 .03 0 .03 0 .05 0 3.71 2.39 6.97 5.87 8.12 .85.28 1.75.42 2.67.42 .17 0 .35-.01.53-.02 .2-.02.41-.04.62-.07 1-.14 1.96-.45 2.83-.92 3.14-1.67 4.96-5.14 4.47-8.72 -.48-3.51-3.06-6.32-6.43-7.15 -.67-.17-1.35-.25-2.05-.25 -.22 0-.43 0-.64.02 -.18.01-.36.03-.53.05 -.63.08-1.24.23-1.83.45 -1.63.6-3.04 1.7-4.04 3.12l-.17.23h.28 2.09c.24 0 .45.2.45.45 0 .24-.21.45-.45.45h-3c-.04 0-.07-.01-.1-.01 -.21-.05-.36-.23-.36-.45Zm-.3-.01c0 .35.25.66.59.73 .05.01.1.01.15.01h3c.41 0 .75-.34.75-.75 0-.42-.34-.76-.75-.76h-2.1l.12.23c.95-1.38 2.31-2.44 3.89-3.02 .56-.21 1.15-.36 1.76-.45 .16-.03.33-.05.5-.06 .2-.02.4-.03.61-.03 .67 0 1.33.07 1.97.23 3.25.8 5.73 3.51 6.2 6.89 .47 3.45-1.28 6.8-4.32 8.41 -.85.44-1.78.74-2.75.87 -.21.02-.41.04-.61.06 -.18.01-.35.01-.52.01 -.89 0-1.76-.15-2.59-.42 -3.36-1.11-5.67-4.25-5.67-7.84 -.01-.04-.01-.04-.01-.07 0-.15 0-.31.01-.48 .02-.42-.29-.77-.71-.8 -.42-.03-.77.28-.8.7 -.05.64-.02 1.3.07 1.95 0 .04 0 .04.01.08 .38 2.65 1.83 4.99 3.98 6.52 .81.58 1.71 1.03 2.67 1.34 1.15.37 2.37.52 3.6.44 1.35-.09 2.64-.45 3.83-1.06 .75-.39 1.44-.87 2.07-1.44 1.69-1.53 2.8-3.6 3.13-5.87 .06-.43.09-.85.09-1.28 0-.06 0-.06 0-.11 0-4.51-3.08-8.39-7.39-9.47 -1.01-.26-2.04-.35-3.09-.27 -.96.06-1.88.27-2.76.61 -1.48.56-2.8 1.47-3.84 2.65l.26.09V3.98c0-.42-.34-.75-.75-.75 -.42 0-.75.33-.75.75l-.01 3.59Zm5.7 1.76c0-1.01 1.05-1.66 1.95-1.21l4.84 2.43c.99.49.99 1.91 0 2.41l-4.85 2.43c-.9.45-1.96-.21-1.96-1.21V9.52Zm-.3 0v4.87c0 1.22 1.29 2.02 2.39 1.47l4.84-2.44c1.21-.61 1.21-2.34-.01-2.95l-4.85-2.44c-1.1-.56-2.4.24-2.4 1.47Z"/></g></svg>