<svg viewBox="0 0 24 24" xmlns="http://www.w3.org/2000/svg"><path fill="currentColor" d="M4.5 6.25c0-.97.78-1.75 1.75-1.75h1.5c.41 0 .75-.34.75-.75 0-.42-.34-.75-.75-.75h-1.5C4.45 3 3 4.45 3 6.25v1.5c0 .41.33.75.75.75 .41 0 .75-.34.75-.75v-1.5ZM17.75 4.5c.96 0 1.75.78 1.75 1.75v1.5c0 .41.33.75.75.75 .41 0 .75-.34.75-.75v-1.5C21 4.45 19.54 3 17.75 3h-1.5c-.42 0-.75.33-.75.75 0 .41.33.75.75.75h1.5Zm0 15c.96 0 1.75-.79 1.75-1.75v-1.5c0-.42.33-.75.75-.75 .41 0 .75.33.75.75v1.5c0 1.79-1.46 3.25-3.25 3.25h-1.5c-.42 0-.75-.34-.75-.75 0-.42.33-.75.75-.75h1.5Zm-11.5 0c-.97 0-1.75-.79-1.75-1.75v-1.5c0-.42-.34-.75-.75-.75 -.42 0-.75.33-.75.75v1.5C3 19.54 4.45 21 6.25 21h1.5c.41 0 .75-.34.75-.75 0-.42-.34-.75-.75-.75h-1.5Zm2-13.5C7 6 6 7 6 8.25v7.49c0 1.24 1 2.25 2.25 2.25h7.49c1.24 0 2.25-1.01 2.25-2.25v-7.5c0-1.25-1.01-2.25-2.25-2.25h-7.5Z"/></svg>