<svg viewBox="0 0 24 24" xmlns="http://www.w3.org/2000/svg"><path fill="currentColor" d="M21.24 13c.37 0 .69.28.74.64l0 .1v5c0 1.73-1.36 3.14-3.07 3.24l-.19 0 -4.67 0c.53-.39.97-.91 1.26-1.5l3.4-.01c.91 0 1.67-.71 1.74-1.61l0-.15v-5c0-.42.33-.75.75-.75Zm-9.5-4c1.79 0 3.25 1.45 3.25 3.25v6.5c0 1.79-1.46 3.25-3.25 3.25h-6.5c-1.8 0-3.25-1.46-3.25-3.25v-6.5C1.99 10.45 3.44 9 5.24 9h6.49Zm-5.69 4.1c-.05.07-.07.15-.07.23v4.31c0 .27.22.5.5.5 .08 0 .16-.03.23-.07l3.95-2.16c.24-.14.33-.44.19-.68 -.05-.09-.12-.16-.2-.2l-3.96-2.16c-.25-.14-.55-.05-.68.19ZM18.73 1.99c1.73 0 3.14 1.35 3.24 3.06l0 .18v5c0 .41-.34.75-.75.75 -.38 0-.7-.29-.75-.65l-.01-.11v-5c0-.92-.71-1.68-1.61-1.75l-.15-.01h-5c-.42 0-.75-.34-.75-.75 0-.38.28-.7.64-.75l.1-.01h5Zm-8.5 0c.41 0 .75.33.75.75 0 .37-.29.69-.65.74l-.11 0h-5c-.92 0-1.68.7-1.75 1.6l-.01.14 -.01 3.4c-.6.29-1.12.72-1.51 1.26l0-4.67c0-1.74 1.35-3.15 3.06-3.25l.18-.01h4.99Z"/></svg>