<svg viewBox="0 0 24 24" xmlns="http://www.w3.org/2000/svg"><path fill="currentColor" d="M11 3c0-.56-.45-1-1-1H5.25C3.45 2 2 3.45 2 5.25V10c0 .55.44 1 1 1 .55 0 1-.45 1-1V5.25C4 4.55 4.55 4 5.25 4H10c.55 0 1-.45 1-1Zm3-1c-.56 0-1 .44-1 1 0 .55.44 1 1 1h4.75c.69 0 1.25.55 1.25 1.25V10c0 .55.44 1 1 1 .55 0 1-.45 1-1V5.25C22 3.45 20.54 2 18.75 2H14Zm0 20c-.56 0-1-.45-1-1 0-.56.44-1 1-1h4.75c.69 0 1.25-.56 1.25-1.25V14c0-.56.44-1 1-1 .55 0 1 .44 1 1v4.75c0 1.79-1.46 3.25-3.25 3.25H14ZM4 12c-1.66 0-3 1.34-3 3v5c0 .55.15 1.07.41 1.52l3.49-3.5c.87-.88 2.3-.88 3.18 0l3.49 3.49c.26-.45.41-.97.41-1.53v-5c0-1.66-1.35-3-3-3h-5Zm0 11c-.56 0-1.08-.16-1.53-.42l3.49-3.5c.29-.3.76-.3 1.06 0l3.49 3.49c-.45.26-.97.41-1.53.41h-5Zm5-7c-.56 0-1-.45-1-1 0-.56.44-1 1-1 .55 0 1 .44 1 1 0 .55-.45 1-1 1Z"/></svg>