<svg viewBox="0 0 24 24" xmlns="http://www.w3.org/2000/svg"><path fill="currentColor" d="M11 3c0-.56-.45-1-1-1H5.25C3.45 2 2 3.45 2 5.25V10c0 .55.44 1 1 1 .55 0 1-.45 1-1V5.25C4 4.55 4.55 4 5.25 4H10c.55 0 1-.45 1-1Zm3-1c-.56 0-1 .44-1 1 0 .55.44 1 1 1h4.75c.69 0 1.25.55 1.25 1.25V10c0 .55.44 1 1 1 .55 0 1-.45 1-1V5.25C22 3.45 20.54 2 18.75 2H14Zm0 20c-.56 0-1-.45-1-1 0-.56.44-1 1-1h4.75c.69 0 1.25-.56 1.25-1.25V14c0-.56.44-1 1-1 .55 0 1 .44 1 1v4.75c0 1.79-1.46 3.25-3.25 3.25H14Zm-4 0c.55 0 1-.45 1-1 0-.56-.45-1-1-1H5.25C4.55 20 4 19.44 4 18.75V14c0-.56-.45-1-1-1 -.56 0-1 .44-1 1v4.75C2 20.54 3.45 22 5.25 22H10Z"/></svg>