<svg viewBox="0 0 24 24" xmlns="http://www.w3.org/2000/svg"><path fill="currentColor" d="M5.25 2h5c.41 0 .75.33.75.75 0 .41-.34.75-.75.75h-5c-.97 0-1.75.78-1.75 1.75v2.96c-.58.2-1.1.54-1.5.98V5.23c0-1.8 1.45-3.25 3.25-3.25Zm10.53 18.5c-.21.57-.55 1.09-.99 1.5h3.95c1.79 0 3.25-1.46 3.25-3.25v-5c0-.42-.34-.75-.75-.75 -.42 0-.75.33-.75.75v5c0 .96-.79 1.75-1.75 1.75h-2.97Zm5.46-9.5c.41 0 .75-.34.75-.75v-5c0-1.8-1.46-3.25-3.25-3.25h-5c-.42 0-.75.33-.75.75 0 .41.33.75.75.75h5c.96 0 1.75.78 1.75 1.75v5c0 .41.33.75.75.75ZM6.99 9h3v3.5h-3V9Zm0 5h3v3.5h-3V14Zm4.5 0v3.5h3.5V14h-3.5Zm-4.5 5h3v3h-3v-3Zm4.5 0v3h.75c1.51 0 2.75-1.24 2.75-2.75V19h-3.5Zm0-10v3.5h3.5v-.75c0-1.52-1.24-2.75-2.75-2.75h-.75Zm-6 0h-.75c-1.52 0-2.75 1.23-2.75 2.75v.75h3.5V9Zm0 5h-3.5v3.5h3.5V14Zm0 5h-3.5v.25c0 1.51 1.23 2.75 2.75 2.75h.75v-3Z"/></svg>