<svg viewBox="0 0 24 24" xmlns="http://www.w3.org/2000/svg"><path fill="currentColor" d="M20.25 1.99c.96 0 1.75.78 1.75 1.75v3.04c0 1.02-.57 1.96-1.48 2.43l-6.31 3.29c1.64.81 2.77 2.51 2.77 4.47 0 2.76-2.24 5-5 5 -2.77 0-5-2.24-5-5 0-1.97 1.13-3.67 2.77-4.48l-6.31-3.3c-.91-.48-1.48-1.42-1.48-2.44V3.7c0-.97.78-1.75 1.75-1.75h16.5ZM12 13.49c-1.94 0-3.5 1.56-3.5 3.5 0 1.93 1.56 3.5 3.5 3.5 1.93 0 3.5-1.57 3.5-3.5 0-1.94-1.57-3.5-3.5-3.5Zm4-10.01H7.997v6.39l3.88 2.03c.07.03.15.03.23 0l3.88-2.03v-6.4Z"/></svg>