<svg viewBox="0 0 24 24" xmlns="http://www.w3.org/2000/svg"><path fill="currentColor" d="M17 21.24l0-6.01c-1.37 1.09-3.11 1.75-5.01 1.75s-3.63-.66-5-1.76l0 5.99c0 .6.68.96 1.18.61l3.81-2.69 3.81 2.68c.49.34 1.18-.01 1.18-.62Zm1.99-12.25c0-3.87-3.14-7-7-7 -3.87 0-7 3.13-7 7 0 3.86 3.13 7 7 7 3.86 0 7-3.14 7-7Zm-6.78-3.36l.91 1.85 2.04.29c.2.03.29.28.14.43l-1.48 1.44 .34 2.03c.03.2-.19.36-.38.26l-1.83-.97 -1.83.96c-.19.09-.41-.07-.38-.27l.35-2.04L8.6 8.16c-.16-.15-.07-.41.14-.44l2.04-.3 .91-1.86c.09-.19.36-.19.45 0Z"/></svg>