<svg viewBox="0 0 24 24" xmlns="http://www.w3.org/2000/svg"><path fill="currentColor" d="M5.45 6.51c-.3.77-.46 1.61-.46 2.48 0 3.86 3.13 7 7 7 .87 0 1.71-.17 2.48-.46l.76.76c-1 .44-2.1.68-3.26.68 -1.9 0-3.63-.66-5-1.76l0 5.99c0 .6.68.96 1.18.61l3.81-2.69 3.81 2.68c.49.34 1.18-.01 1.18-.62l0-3.19 3.71 3.71c.29.29.76.29 1.06 0 .29-.3.29-.77 0-1.07L3.22 2.12c-.3-.3-.77-.3-1.07-.01 -.3.29-.3.76-.01 1.06L5.37 6.4Zm1.68-2.56l9.89 9.89c1.21-1.26 1.96-2.98 1.96-4.86 0-3.87-3.14-7-7-7 -1.89 0-3.6.74-4.86 1.96Z"/></svg>