<svg viewBox="0 0 24 24" xmlns="http://www.w3.org/2000/svg"><path fill="currentColor" d="M23 6.5C23 3.46 20.53.99 17.5.99c-3.04 0-5.5 2.46-5.5 5.5 0 3.03 2.46 5.5 5.5 5.5 3.03 0 5.5-2.47 5.5-5.51ZM18 7l0 2.5c0 .27-.23.5-.5.5 -.28 0-.5-.23-.5-.51l-.01-2.51h-2.51c-.28 0-.5-.23-.5-.51s.22-.51.49-.51h2.5l-.01-2.51c0-.28.22-.51.5-.51 .27 0 .5.22.5.5l0 2.5h2.49c.27 0 .49.22.49.5 0 .27-.23.5-.5.5h-2.5Zm-7.01-.51c0-1.66.61-3.17 1.63-4.31 -.53-.13-1.08-.2-1.64-.2 -3.87 0-7 3.13-7 7 0 3.86 3.13 7 7 7 2.39 0 4.51-1.21 5.77-3.05 -3.25-.37-5.78-3.12-5.78-6.47Zm5 8.74l-.01 6c0 .6-.69.96-1.19.61l-3.82-2.69 -3.82 2.68c-.5.35-1.19-.01-1.19-.62l-.01-6.01c1.36 1.09 3.1 1.75 4.99 1.75 1.89 0 3.63-.66 5-1.76Z"/></svg>