<svg viewBox="0 0 24 24" xmlns="http://www.w3.org/2000/svg"><path fill="currentColor" d="M13.05 7.43c.97-.98 2.55-.98 3.53 0 .97.97.97 2.55 0 3.53 -.98.97-2.56.97-3.54 0 -.98-.98-.98-2.56 0-3.54Zm2.47 1.06c-.4-.4-1.03-.4-1.42 0 -.4.39-.4 1.02 0 1.41 .39.39 1.02.39 1.41 0 .39-.4.39-1.03 0-1.42Zm4.16-5.98c.86.26 1.54.94 1.81 1.81l.2.66c.74 2.39.09 5-1.68 6.77l-1 .99c1.02 1.36.91 3.32-.33 4.56l-1.25 1.24c-.3.29-.77.29-1.07 0l-1.59-1.59 -.18.17c-.69.68-1.8.68-2.48 0l-.49-.49 -.82 1.39c-.12.2-.33.33-.56.36 -.24.02-.47-.05-.63-.22l-3.89-3.89c-.17-.17-.25-.4-.22-.63 .02-.23.16-.44.35-.56l1.38-.83 -.48-.48c-.69-.69-.69-1.8 0-2.48l.17-.18 -1.6-1.6c-.3-.3-.3-.77 0-1.07l1.24-1.25c1.24-1.25 3.19-1.36 4.56-.33l.99-1c1.77-1.78 4.38-2.42 6.77-1.68l.66.2Zm.37 2.25c-.13-.4-.44-.71-.83-.83l-.67-.21c-1.87-.58-3.9-.08-5.27 1.3l-5.4 5.39c-.1.09-.1.25 0 .35l5.3 5.3c.09.09.25.09.35 0l5.39-5.4c1.37-1.38 1.87-3.41 1.3-5.28l-.21-.67ZM6.66 18.38c.29-.3.29-.77 0-1.07 -.3-.3-.77-.3-1.07 0l-2.48 2.47c-.3.29-.3.76 0 1.06 .29.29.76.29 1.06 0l2.47-2.48Zm-1.95-3.01c.29.29.29.76 0 1.06l-1.07 1.06c-.3.29-.77.29-1.07 0 -.3-.3-.3-.77 0-1.07l1.06-1.07c.29-.3.76-.3 1.06 0Zm3.88 4.95c.29-.3.29-.77 0-1.07 -.3-.3-.77-.3-1.07 0L6.46 20.3c-.3.29-.3.76-.01 1.06 .29.29.76.29 1.06 0l1.05-1.06Z"/></svg>