<svg viewBox="0 0 24 24" xmlns="http://www.w3.org/2000/svg"><path fill="currentColor" d="M14.5 15c-.42 0-.75-.34-.75-.75 0-.42.33-.75.75-.75h.5c2.48 0 4.5-1.57 4.5-3.5 0-1.88-1.9-3.41-4.28-3.5l-.23-.01H8.05L9.76 8.2c.29.29.29.76 0 1.06 -.27.26-.69.29-.98.07l-.09-.08 -3-3c-.3-.3-.3-.77 0-1.07l3-3 .08-.08c.29-.22.71-.2.97.07 .29.29.29.76 0 1.06L8.02 4.94h6.93c3.31 0 6 2.23 6 5 0 2.76-2.69 5-6 5h-.5Zm-11-4.64c-.28 0-.5.22-.5.5v9.13c0 .55.44 1 1 1h16.13c.17 0 .34-.1.43-.25 .13-.24.05-.55-.19-.69L3.73 10.41c-.08-.05-.17-.07-.26-.07Z"/></svg>