<svg viewBox="0 0 24 24" xmlns="http://www.w3.org/2000/svg"><path fill="currentColor" d="M9.5 15c.41 0 .75-.34.75-.75 0-.42-.34-.75-.75-.75H9c-2.49 0-4.5-1.57-4.5-3.5 0-1.88 1.89-3.41 4.27-3.5l.22-.01h6.939l-1.72 1.71c-.3.29-.3.76 0 1.06 .26.26.68.29.97.07l.08-.08 3-3c.29-.3.29-.77 0-1.07l-3-3 -.09-.08c-.3-.22-.72-.2-.98.07 -.3.29-.3.76 0 1.06l1.71 1.71h-6.94c-3.32 0-6 2.23-6 5 0 2.76 2.68 5 6 5h.5Zm11-4.64c.27 0 .5.22.5.5v9.13c0 .55-.45 1-1 1H3.86c-.18 0-.35-.1-.44-.25 -.14-.24-.06-.55.18-.69l16.63-9.64c.07-.05.16-.07.25-.07Z"/></svg>