<svg viewBox="0 0 24 24" xmlns="http://www.w3.org/2000/svg"><path fill="currentColor" d="M12 3.5c-4.15 0-7.5 3.35-7.5 7.5v.25c0 .41-.34.75-.75.75 -.42 0-.75-.34-.75-.75V11c0-4.98 4.02-9 9-9 4.97 0 9 4.02 9 9v.25c0 .41-.34.75-.75.75 -.42 0-.75-.34-.75-.75V11c0-4.15-3.36-7.5-7.5-7.5Zm0 3c-2.49 0-4.5 2.01-4.5 4.5v.25c0 .41-.34.75-.75.75 -.42 0-.75-.34-.75-.75V11c0-3.32 2.68-6 6-6 3.31 0 6 2.68 6 6v.25c0 .41-.34.75-.75.75 -.42 0-.75-.34-.75-.75V11c0-2.49-2.02-4.5-4.5-4.5ZM9 11c0-1.66 1.34-3 3-3 1.65 0 3 1.34 3 3 0 1.39-.96 2.57-2.25 2.9v2.09H18c1.65 0 3 1.34 3 3 0 1.65-1.35 3-3 3H6c-1.66 0-3-1.35-3-3 0-1.66 1.34-3 3-3h5.25v-2.1C9.95 13.55 9 12.38 9 10.98Z"/></svg>