<svg viewBox="0 0 24 24" xmlns="http://www.w3.org/2000/svg"><path fill="currentColor" d="M6.25 3C4.45 3 3 4.45 3 6.25v11.5C3 19.54 4.45 21 6.25 21h11.5c1.79 0 3.25-1.46 3.25-3.25V6.25C21 4.45 19.54 3 17.75 3H6.25Zm.5 4.5c-.41 0-.75-.32-.75-.73v-.06c0-.4.3-.73.69-.73l.05-.01c6.21 0 11.25 5.03 11.25 11.25l-.01.05c-.01.39-.34.69-.73.69h-.06c-.41 0-.73-.35-.73-.75 0-5.39-4.37-9.75-9.75-9.75ZM13.29 18h-.1c-.4 0-.71-.36-.71-.75 0-3.18-2.58-5.75-5.75-5.75 -.4 0-.75-.31-.75-.71v-.1c0-.38.28-.71.66-.71 .02-.01.05-.01.08-.01 4 0 7.25 3.24 7.25 7.25 0 .02-.01.05-.01.08 -.01.37-.33.66-.71.66Zm-5.8 0c-.83 0-1.5-.68-1.5-1.5 0-.83.67-1.5 1.5-1.5 .82 0 1.5.67 1.5 1.5 0 .82-.68 1.5-1.5 1.5Z"/></svg>