<svg viewBox="0 0 24 24" xmlns="http://www.w3.org/2000/svg"><path fill="currentColor" d="M7 4.25C7 3 8 2 9.25 2h5.5C15.99 2 17 3 17 4.25v15.5c0 1.24-1.01 2.25-2.25 2.25h-5.5c-.16 0-.31-.02-.46-.05 -1.03-.21-1.8-1.12-1.8-2.21V4.24ZM8.5 5v1.5h1.75c.41 0 .75-.34.75-.75 0-.42-.34-.75-.75-.75H8.5Zm0 3v1.5h3.75c.41 0 .75-.34.75-.75 0-.42-.34-.75-.75-.75H8.5Zm0 3.25v1.5h1.75c.41 0 .75-.34.75-.75 0-.42-.34-.75-.75-.75H8.5Zm0 3.25V16h3.75c.41 0 .75-.34.75-.75 0-.42-.34-.75-.75-.75H8.5Zm0 3V19h1.75c.41 0 .75-.34.75-.75 0-.42-.34-.75-.75-.75H8.5Z"/></svg>