<svg viewBox="0 0 24 24" xmlns="http://www.w3.org/2000/svg"><path fill="currentColor" d="M11.02 2.58c-.13-.05-.26-.06-.39-.04 -.99.16-2 .65-2.91 1.22 -.92.57-1.79 1.27-2.5 1.91 -.56.49-1.02.96-1.36 1.33 -.01 0-.02.01-.02.02 -.1.11-.27.28-.47.49 -.06.06-.13.12-.19.19 -.26.27-.57.59-.74.84 -.39.53-.75 1.12-1.09 1.74 -.1.18-.12.39-.06.59 .89 2.66 3.7 5.1 6.99 6.86 3.31 1.77 7.31 2.94 10.83 2.94h.83c.41 0 .74-.34.74-.75v-2.8c0-1.05-.59-2-1.52-2.46l-2.39-1.2c-.4-.49-.87-1.19-1.25-1.93 -.38-.73-.64-1.42-.72-1.98l.54-.9c.46-.78 1.16-1.38 1.99-1.72l.85-.36c.28-.12.46-.4.46-.71 -.01-.31-.2-.58-.49-.69l-7.24-2.72Zm8.23 14.63c-1.59-.21-2.26-.4-3.52-.77l.89-1.34 1.92.96c.42.21.69.64.69 1.11v.01Zm-4.01.65c1.39.4 2.13.61 4 .85v.52h-.09c-3.23 0-6.99-1.09-10.14-2.78 -3.04-1.63-5.34-3.71-6.17-5.73 .08-.16.17-.3.26-.45 .85 1.01 2.15 2.26 3.91 3.55 1.44 1.05 2.6 1.78 4.68 2.77 .02 0 .04.01.06.02l2.49.92c.01 0 .03.01.05.01 .33.09.63.18.9.25ZM8.76 8.92L6.73 6.33c.54-.46 1.15-.92 1.76-1.31 .76-.49 1.5-.84 2.16-.99L16 6.04c-.78.47-1.44 1.13-1.92 1.91l-.33.53L11 7.21c-.28-.13-.61-.08-.83.13 -.23.21-.3.53-.19.81l2.15 5.42 -.55 1.31c-1.4-.7-2.33-1.28-3.36-2.02l.61-3.41c.03-.22-.02-.43-.15-.6Z"/></svg>