<svg viewBox="0 0 24 24" xmlns="http://www.w3.org/2000/svg"><path fill="currentColor" d="M3.62 10.62c-1.18-1.18-1.18-3.08 0-4.25l3.25-3.26c1.17-1.18 3.07-1.18 4.24 0l3.66 3.66c-.05.06-.09.14-.13.21 -.27-.17-.58-.26-.92-.26 -.97 0-1.75.78-1.75 1.75v4.52c-.17-.02-.34-.04-.5-.04 -.67 0-1.25.16-1.7.39 -.22.11-.45.25-.65.43 -.04.03-.08.06-.11.1 -.08.07-.16.17-.24.28 -.09.13-.33.5-.33 1.03 0 .09 0 .18.02.27l-4.9-4.9Zm13.37-2.88v5.75c0 .27.22.5.5.5 .27 0 .5-.23.5-.5V8.48c0-.42.33-.75.75-.75 .41 0 .75.33.75.75v5.49c0 .27.22.5.5.5 .27 0 .5-.23.5-.5V9.72c0-.42.33-.75.75-.75 .41 0 .75.33.75.75v6.99c0 .62-.28 1.38-.57 2.03 -.31.68-.68 1.37-.98 1.9 -.49.83-1.38 1.31-2.31 1.31h-1.14c-.89 0-1.71-.43-2.23-1.14l-1.38-1.9 -1.66-1.9 -1.91-1.2c-.22-.14-.36-.38-.36-.64 0-.24.1-.41.15-.48 .05-.09.12-.16.18-.22 .11-.11.26-.21.42-.29 .31-.16.74-.29 1.24-.29 .52 0 1.07.15 1.5.31 -.01-.03-.01-.05-.01-.07V8.38c0-.42.33-.75.75-.75 .41 0 .75.33.75.75v5c0 .27.22.5.5.5 .27 0 .5-.23.5-.5V7.62c0-.42.33-.75.75-.75 .41 0 .75.33.75.75ZM4.24 13.99c.41 0 .75.33.75.75l0 .74h.74c.41 0 .75.33.75.75 0 .41-.34.75-.75.75h-.75l0 .75c0 .41-.34.75-.75.75 -.42 0-.76-.34-.76-.75l-.01-.76H2.7c-.42 0-.75-.34-.75-.75 0-.42.33-.75.75-.75h.75l-.01-.75c-.01-.42.33-.75.74-.75Zm4.75 4.25c-.01-.42-.34-.75-.76-.75s-.75.33-.75.75l0 .74h-.76c-.42 0-.75.33-.75.75 0 .41.33.75.75.75h.75l0 .75c0 .41.33.74.75.74 .41 0 .74-.34.74-.75l-.01-.76h.74c.41 0 .74-.34.74-.75 0-.42-.34-.75-.75-.75h-.75l-.01-.75Z"/></svg>