<svg viewBox="0 0 24 24" xmlns="http://www.w3.org/2000/svg"><path fill="currentColor" d="M5.75 3H7v3.25C7 7.49 8 8.5 9.25 8.5h2.5C12.99 8.5 14 7.49 14 6.25V3.26c.37.16.71.39 1.01.68l2.03 2.03c.6.6.95 1.43.95 2.29v6.96c0 1.51-1.24 2.75-2.75 2.75h-.25v-4.75c0-1.25-1.01-2.25-2.25-2.25h-4.5c-1.25 0-2.25 1-2.25 2.25v4.75h-.25c-1.52 0-2.75-1.24-2.75-2.75v-9.5c0-1.52 1.23-2.75 2.75-2.75ZM7.5 18h6v-4.75c0-.42-.34-.75-.75-.75h-4.5c-.42 0-.75.33-.75.75V18Zm1-15h4v3.25c0 .41-.34.75-.75.75h-2.5c-.42 0-.75-.34-.75-.75V3Zm2.24 18c-1.37 0-2.6-.58-3.47-1.5h8.96c1.79 0 3.25-1.46 3.25-3.25V8.43l.54.54c.6.6.95 1.43.95 2.29v4.96c0 2.62-2.13 4.75-4.75 4.75h-5.5Z"/></svg>