<svg viewBox="0 0 24 24" xmlns="http://www.w3.org/2000/svg"><path fill="currentColor" d="M3.6 6c0-1.33 1.07-2.4 2.4-2.4h1.2v4.2c0 .99.8 1.8 1.8 1.8h4.79c.99 0 1.8-.81 1.8-1.8V3.6h.45c.63 0 1.24.25 1.69.7l1.94 1.94c.45.45.7 1.06.7 1.69v10.05c0 1.32-1.08 2.4-2.4 2.4v-6.6c0-1-.81-1.8-1.8-1.8h-5.01c-2.13-1.72-5.25-1.6-7.22.38 -.14.13-.27.27-.39.42V5.97Zm9.07 12.52l1.87 1.87h2.25v-6.6c0-.34-.27-.6-.6-.6h-3.91c1.06 1.59 1.19 3.62.38 5.32Zm1.72-14.93h-6v4.2c0 .33.26.6.6.6h4.79c.33 0 .6-.27.6-.6v-4.2Zm-2.4 12.6c0 .94-.32 1.81-.84 2.51l3.06 3.06c.23.23.23.61 0 .84 -.24.23-.62.23-.85 0l-3.07-3.07c-.71.52-1.58.83-2.52.83 -2.32 0-4.2-1.89-4.2-4.2 0-2.32 1.88-4.2 4.2-4.2 2.31 0 4.19 1.88 4.19 4.2Zm-7.2 0c0 1.65 1.34 3 3 3 1.65 0 2.99-1.35 2.99-3 0-1.66-1.35-3-3-3 -1.66 0-3 1.34-3 3Z"/></svg>