<svg viewBox="0 0 24 24" xmlns="http://www.w3.org/2000/svg"><path fill="currentColor" d="M20.49 5.62c.87.3 1.5 1.14 1.5 2.12v10c0 2.34-1.91 4.25-4.25 4.25h-10c-.99 0-1.82-.63-2.13-1.51l2.09 0 10.02 0c1.51 0 2.75-1.24 2.75-2.75v-10l-.01-.06 0-2.08Zm-3.25-3.63c1.24 0 2.25 1 2.25 2.25v12.99c0 1.24-1.01 2.25-2.25 2.25h-13c-1.25 0-2.25-1.01-2.25-2.25v-13c0-1.25 1-2.25 2.25-2.25h12.99Zm-6.5 4.75c-.38 0-.7.28-.75.64l-.01.1v2.5h-2.5c-.42 0-.75.33-.75.75 0 .37.28.69.64.74l.1 0h2.5v2.5c0 .41.33.75.75.75 .37 0 .69-.29.74-.65l0-.11v-2.5h2.5c.41 0 .75-.34.75-.75 0-.38-.29-.7-.65-.75l-.11-.01h-2.5v-2.5c0-.42-.34-.75-.75-.75Z"/></svg>