<svg viewBox="0 0 24 24" xmlns="http://www.w3.org/2000/svg"><g fill="currentColor"><path d="M5.75 3h1v4.5c0 1.24 1 2.25 2.25 2.25h4.5c1.24 0 2.25-1.01 2.25-2.25V3c.84 0 1.66.35 2.26.95l2.03 2.03c.6.6.95 1.43.95 2.29v2.84c-.32-.09-.66-.13-1-.13h-5c-1.38 0-2.59.69-3.31 1.75H8.23c-1.25 0-2.25 1-2.25 2.25v6h-.25c-1.52 0-2.75-1.24-2.75-2.75V5.73c0-1.52 1.23-2.75 2.75-2.75Z"/><path d="M11.07 14.25H8.24c-.42 0-.75.33-.75.75v6h3.62c-.09-.32-.13-.66-.13-1v-5c0-.26.02-.51.07-.75Z"/><path d="M14.25 7.5V3h-6v4.5c0 .41.33.75.75.75h4.5c.41 0 .75-.34.75-.75Z"/><path fill="currentColor" fill-rule="evenodd" d="M12 15c0-1.66 1.34-3 3-3h5c1.65 0 3 1.34 3 3v5c0 .64-.21 1.24-.56 1.73l-3.54-3.54c-.79-.79-2.05-.79-2.83 0l-3.54 3.53c-.35-.5-.56-1.1-.56-1.74v-5Zm9 0c0 .55-.45 1-1 1 -.56 0-1-.45-1-1 0-.56.44-1 1-1 .55 0 1 .44 1 1Z"/><path d="M13.26 22.44c.49.34 1.09.55 1.73.55h5c.64 0 1.24-.21 1.73-.56l-3.54-3.54c-.4-.4-1.03-.4-1.42 0l-3.54 3.53Z"/></g></svg>