<svg viewBox="0 0 24 24" xmlns="http://www.w3.org/2000/svg"><path fill="currentColor" d="M6.75 3h-1C4.23 3 3 4.23 3 5.75v12.5C3 19.76 4.23 21 5.75 21H6v-6c0-1.25 1-2.25 2.25-2.25h7.35l1.78-1.79c.64-.65 1.48-.97 2.32-.97h0c.43 0 .87.08 1.28.26V8.27c0-.87-.35-1.69-.96-2.3l-2.04-2.04c-.61-.61-1.42-.95-2.27-.96v4.49c0 1.24-1.01 2.25-2.25 2.25h-4.5c-1.25 0-2.25-1.01-2.25-2.25v-4.5Zm7.35 11.25l-2.62 2.61c-.48.47-.81 1.06-.97 1.71l-.46 1.83c-.06.2-.08.4-.07.59h-2.5v-6c0-.42.33-.75.75-.75h5.85ZM14.24 3v4.5c0 .41-.34.75-.75.75h-4.5c-.42 0-.75-.34-.75-.75V3h6Zm5.46 8h-.01c-.59 0-1.17.22-1.62.66l-5.91 5.9c-.35.34-.59.77-.71 1.24l-.46 1.83c-.2.79.52 1.51 1.31 1.31l1.83-.46c.47-.12.9-.37 1.24-.71l5.9-5.91c.89-.9.89-2.34 0-3.24 -.45-.45-1.04-.67-1.62-.67Z"/></svg>