<svg viewBox="0 0 24 24" xmlns="http://www.w3.org/2000/svg"><path fill="currentColor" d="M6.75 3h-1C4.23 3 3 4.23 3 5.75v12.5C3 19.76 4.23 21 5.75 21H6v-6c0-1.25 1-2.25 2.25-2.25h7.5c1.24 0 2.25 1 2.25 2.25v6h.25c1.51 0 2.75-1.24 2.75-2.75V8.28c0-.87-.35-1.69-.96-2.3L18 3.94c-.61-.61-1.42-.95-2.27-.96v4.49c0 1.24-1.01 2.25-2.25 2.25h-4.5c-1.25 0-2.25-1.01-2.25-2.25v-4.5Zm7.5 0v4.5c0 .41-.34.75-.75.75H9c-.42 0-.75-.34-.75-.75V3h6Zm2.25 18v-6c0-.42-.34-.75-.75-.75h-7.5c-.42 0-.75.33-.75.75v6h9Z"/></svg>