<svg viewBox="0 0 24 24" xmlns="http://www.w3.org/2000/svg"><path fill="currentColor" d="M6.75 3h-1C4.23 3 3 4.23 3 5.75v12.5C3 19.76 4.23 21 5.75 21H6v-6c0-1.25 1-2.25 2.25-2.25h4.81c1.16-1.09 2.72-1.75 4.43-1.75 1.28 0 2.48.37 3.5 1.02V8.28c0-.87-.35-1.69-.96-2.3l-2.04-2.04c-.61-.61-1.42-.95-2.27-.96v4.49c0 1.24-1.01 2.25-2.25 2.25h-4.5c-1.25 0-2.25-1.01-2.25-2.25v-4.5Zm1.5 11.25h3.61c-.56.95-.87 2.06-.87 3.25 0 1.28.37 2.48 1.02 3.5H7.48v-6c0-.42.33-.75.75-.75Zm6-11.25v4.5c0 .41-.34.75-.75.75H9c-.42 0-.75-.34-.75-.75V3h6ZM23 17.5c0 3.03-2.47 5.5-5.5 5.5 -3.04 0-5.5-2.47-5.5-5.5 0-3.04 2.46-5.5 5.5-5.5 3.03 0 5.5 2.46 5.5 5.5Zm-8.5-.5c-.28 0-.5.22-.5.5 0 .27.22.5.5.5h4.79l-1.65 1.64c-.2.19-.2.51 0 .7 .19.19.51.19.7 0l2.5-2.5c.19-.2.19-.52 0-.71l-2.5-2.5c-.2-.2-.52-.2-.71 0 -.2.19-.2.51 0 .7l1.64 1.64h-4.8Z"/></svg>