<svg viewBox="0 0 24 24" xmlns="http://www.w3.org/2000/svg"><path fill="currentColor" d="M18.82 11.12c.96-.66 1.64-1.62 1.96-2.7 .09.13.19.27.28.42 .6.99.92 2.2.92 3.64 0 2.2-.84 3.74-1.69 4.73 -.43.49-.85.84-1.17 1.07 -.06.04-.11.07-.16.11v1.82c0 .96-.79 1.75-1.75 1.75h-1.25c-.83 0-1.5-.68-1.5-1.5h-2c0 .82-.68 1.5-1.5 1.5H9.71c-.97 0-1.75-.79-1.75-1.75v-.69c-.14-.05-.3-.11-.47-.18 -.6-.25-1.38-.68-2.07-1.37 -.79-.79-1.31-1.61-1.61-2.14 -.09-.16-.22-.24-.33-.26 -.89-.15-1.54-.92-1.54-1.82v-1.76c0-.85.6-1.57 1.44-1.71 .08-.02.21-.11.27-.29 .19-.58.56-1.44 1.25-2.13 .56-.57 1.18-.98 1.65-1.25 .13-.08.26-.15.37-.21V3.54c0-.94 1.13-1.33 1.73-.72 .33.32.81.76 1.34 1.13 .53.36 1.03.6 1.45.65 -.49.96-.66 2.07-.45 3.17 .18.95.91 1.56 1.6 1.84l3.69 1.53c.68.28 1.63.37 2.43-.18Zm-10.83-.13c.55 0 1-.45 1-1 0-.56-.45-1-1-1 -.56 0-1 .44-1 .99s.44 1 1 1Zm10.25-.7c.95-.65 1.56-1.68 1.7-2.79 0-.01 0 0 0 0 .08-.68 0-1.38-.28-2.06 -.85-2.05-3.19-3.01-5.23-2.17 -1.79.73-2.75 2.61-2.401 4.43 .02.13.06.25.12.36 .04.09.11.18.18.26 .18.21.42.37.69.48l3.69 1.53c.49.2 1.05.22 1.49-.08Z"/></svg>