<svg viewBox="0 0 24 24" xmlns="http://www.w3.org/2000/svg"><path fill="currentColor" d="M3.75 3c-.42 0-.75.33-.75.75 0 .41.33.75.75.75h1.04l-2.74 6.71c-.04.08-.06.18-.06.28 0 1.93 1.56 3.5 3.5 3.5 1.93 0 3.5-1.57 3.5-3.5 0-.1-.02-.2-.06-.29L6.19 4.48h5.042v12h-4c-1.25 0-2.25 1-2.25 2.25 0 1.24 1 2.25 2.25 2.25h9.49c1.24 0 2.25-1.01 2.25-2.25 0-1.25-1.01-2.25-2.25-2.25h-4v-12h5.04l-2.74 6.71c-.04.08-.06.18-.06.28 0 1.93 1.56 3.5 3.5 3.5 1.93 0 3.5-1.57 3.5-3.5 0-.1-.02-.2-.06-.29l-2.74-6.72h1.04c.41 0 .75-.34.75-.75 0-.42-.34-.75-.75-.75H3.7ZM5.5 6.73l1.63 4.01H3.86l1.63-4.02Zm11.36 4.01l1.63-4.02 1.63 4.01h-3.27Z"/></svg>