<svg viewBox="0 0 24 24" xmlns="http://www.w3.org/2000/svg"><path fill="currentColor" d="M4.25 4C3 4 2 5 2 6.25v11.5C2 18.99 3 20 4.25 20h15.5c1.24 0 2.25-1.01 2.25-2.25V6.25C22 5 20.99 4 19.75 4H4.25Zm3.74 5.43c.31.27.34.74.07 1.05l-.67.75h2.86c.41 0 .75.33.75.75 0 .41-.34.75-.75.75H7.38l.66.75c.27.31.24.78-.08 1.05s-.79.24-1.06-.08l-1.75-2c-.25-.29-.25-.71 0-.99l1.75-2c.27-.32.74-.35 1.05-.08Zm7.95 1.05c-.28-.32-.25-.79.07-1.06 .31-.28.78-.25 1.05.07l1.75 1.99c.24.28.24.7 0 .98l-1.75 2c-.28.31-.75.34-1.06.07 -.32-.28-.35-.75-.08-1.06l.66-.76h-2.87c-.42 0-.75-.34-.75-.75 0-.42.33-.75.75-.75h2.86l-.67-.76Z"/></svg>