<svg viewBox="0 0 24 24" xmlns="http://www.w3.org/2000/svg"><path fill="currentColor" d="M5.25 3C4 3 3 4 3 5.25v13.5C3 19.99 4 21 5.25 21h13.5c1.24 0 2.25-1.01 2.25-2.25V5.25C21 4 19.99 3 18.75 3H5.25ZM6 6.75c0-.42.33-.75.75-.75h2.5c.41 0 .75.33.75.75 0 .41-.34.75-.75.75h-.69l1.71 1.71c.29.29.29.76 0 1.06 -.3.29-.77.29-1.07 0L7.48 8.55v.69c0 .41-.34.75-.75.75 -.42 0-.75-.34-.75-.76V6.72Zm11.78 11.03c-.15.14-.34.21-.54.21h-2.5c-.42 0-.75-.34-.75-.75 0-.42.33-.75.75-.75h.68l-1.73-1.73c-.3-.3-.3-.77 0-1.07 .29-.3.76-.3 1.06 0l1.72 1.72v-.7c0-.42.33-.75.75-.75 .41 0 .75.33.75.75v2.5c0 .19-.08.38-.22.53Zm.21-11.04v2.5c0 .41-.34.74-.75.74 -.42 0-.75-.34-.75-.75v-.69l-1.73 1.71c-.3.29-.77.29-1.07-.01 -.3-.3-.3-.77 0-1.07l1.71-1.72h-.69c-.42 0-.75-.34-.75-.75 0-.42.33-.75.75-.75h2.5c.19 0 .38.07.53.21 .14.14.21.33.21.53ZM6.2 17.77c-.15-.15-.22-.34-.22-.54v-2.5c0-.42.33-.75.75-.75 .41 0 .75.33.75.75v.68l1.71-1.72c.29-.3.76-.3 1.06-.01 .29.29.29.76 0 1.06l-1.72 1.72h.69c.41 0 .75.33.75.75 0 .41-.34.75-.76.75H6.7c-.2 0-.39-.08-.54-.22Z"/></svg>