<svg viewBox="0 0 24 24" xmlns="http://www.w3.org/2000/svg"><path fill="currentColor" d="M3 6.5C3 4.56 4.56 3 6.5 3h1.86c.55 0 1 .44 1 1 0 .55-.45 1-1 1H6.49c-.83 0-1.5.67-1.5 1.5v1.86c0 .55-.45 1-1 1 -.56 0-1-.45-1-1V6.49ZM14.63 4c0-.56.44-1 1-1h1.86c1.93 0 3.5 1.56 3.5 3.5v1.86c0 .55-.45 1-1 1 -.56 0-1-.45-1-1V6.49c0-.83-.68-1.5-1.5-1.5h-1.87c-.56 0-1-.45-1-1ZM3.99 14.63c.55 0 1 .44 1 1v1.86c0 .82.67 1.5 1.5 1.5h1.86c.55 0 1 .44 1 1 0 .55-.45 1-1 1H6.48c-1.94 0-3.5-1.57-3.5-3.5v-1.87c0-.56.44-1 1-1Zm16 0c.55 0 1 .44 1 1v1.86c0 1.93-1.57 3.5-3.5 3.5h-1.87c-.56 0-1-.45-1-1 0-.56.44-1 1-1h1.86c.82 0 1.5-.68 1.5-1.5v-1.87c0-.56.44-1 1-1Zm-8-1.64c.55 0 1-.45 1-1 0-.56-.45-1-1-1 -.56 0-1 .44-1 1 0 .55.44 1 1 1Zm-1.16-6c-.48 0-.91.26-1.12.67l-.49 1.32h-.58c-.93 0-1.67.59-1.67 1.5v3.86c0 .9.74 1.63 1.66 1.63h6.66c.92 0 1.66-.74 1.66-1.64v-3.87c0-.91-.75-1.5-1.67-1.5h-.58l-.49-1.33c-.22-.42-.65-.68-1.12-.68h-2.31Zm1.15 7c-1.11 0-2-.9-2-2 0-1.11.89-2 2-2 1.1 0 2 .89 2 2 0 1.1-.9 2-2 2Z"/></svg>