<svg viewBox="0 0 24 24" xmlns="http://www.w3.org/2000/svg"><path fill="currentColor" d="M2.74 15c.37 0 .69.28.74.64l0 .1v3.5l0 .12c.05.58.52 1.05 1.11 1.11l.12 0h3.5l.1 0c.36.04.64.36.64.74 0 .37-.29.69-.65.74l-.11 0h-3.5l-.17-.01c-1.39-.09-2.5-1.19-2.58-2.58l-.01-.18v-3.51l0-.11c.04-.37.36-.65.74-.65Zm18.49 0c.37 0 .69.28.74.64l0 .1v3.5c0 1.46-1.15 2.65-2.59 2.74l-.17 0h-3.5c-.42 0-.75-.34-.75-.75 0-.38.28-.7.64-.75l.1-.01h3.5c.64 0 1.17-.5 1.24-1.13l0-.13V15.7c0-.42.33-.75.75-.75Zm-3.25-4v4c0 1.59-1.25 2.9-2.83 2.99l-.18 0h-6c-1.6 0-2.91-1.25-3-2.83l-.01-.18v-4h11.99Zm-3-5c1.59 0 2.9 1.24 2.99 2.82l0 .17v.5h-12v-.5c0-1.6 1.24-2.91 2.82-3l.17-.01h5.99ZM8.22 2c.41 0 .75.33.75.75 0 .37-.29.69-.65.74l-.11 0h-3.5c-.65 0-1.18.49-1.25 1.12l-.01.12v3.5c0 .41-.34.75-.75.75 -.38 0-.7-.29-.75-.65l-.01-.11V4.71c0-1.47 1.14-2.66 2.58-2.75l.16-.01h3.5Zm10.99 0l.16 0c1.38.08 2.49 1.18 2.57 2.57l0 .17v3.5l-.01.1c-.05.36-.37.64-.75.64s-.7-.29-.75-.65l-.01-.11V4.71l-.01-.13c-.06-.59-.53-1.06-1.12-1.12l-.13-.01h-3.5l-.11-.01c-.37-.05-.65-.37-.65-.75s.28-.7.64-.75l.1-.01h3.5Z"/></svg>