<svg viewBox="0 0 24 24" xmlns="http://www.w3.org/2000/svg"><path fill="currentColor" d="M3.5 5.25c0-.97.78-1.75 1.75-1.75h3c.41 0 .75-.34.75-.75C9 2.33 8.66 2 8.25 2h-3C3.45 2 2 3.45 2 5.25v3c0 .41.33.75.75.75 .41 0 .75-.34.75-.75v-3Zm17 0c0-.97-.79-1.75-1.75-1.75h-3c-.42 0-.75-.34-.75-.75 0-.42.33-.75.75-.75h3C20.54 2 22 3.45 22 5.25v3c0 .41-.34.75-.75.75 -.42 0-.75-.34-.75-.75v-3ZM5.25 20.5c-.97 0-1.75-.79-1.75-1.75v-3c0-.42-.34-.75-.75-.75 -.42 0-.75.33-.75.75v3C2 20.54 3.45 22 5.25 22h3c.41 0 .75-.34.75-.75 0-.42-.34-.75-.75-.75h-3Zm15.25-1.75c0 .96-.79 1.75-1.75 1.75h-3c-.42 0-.75.33-.75.75 0 .41.33.75.75.75h3c1.79 0 3.25-1.46 3.25-3.25v-3c0-.42-.34-.75-.75-.75 -.42 0-.75.33-.75.75v3ZM13.81 8.22c-.9-1.24-2.75-1.24-3.64 0l-3.06 4.19c-1.09 1.48-.02 3.57 1.81 3.57h6.1c1.83 0 2.9-2.09 1.81-3.58l-3.06-4.2Z"/></svg>