<svg viewBox="0 0 24 24" xmlns="http://www.w3.org/2000/svg"><path fill="currentColor" d="M2.48 3.54c-.31.49-.49 1.08-.49 1.7v3c0 .41.33.75.75.75 .41 0 .75-.34.75-.75v-3c0-.21.03-.41.1-.59l5.44 5.44c-.01 0-.01 0-.01 0 -.02 0-.03.01-.03.02l-1.55.84c-1.02.55-1.5 1.75-1.06 2.84l.43 1.08c.27.67.85 1.18 1.55 1.38l4.51 1.32c1.05.3 2.18 0 2.92-.73l3.49 3.49c-.19.06-.39.1-.59.1h-3c-.42 0-.75.33-.75.75 0 .41.33.75.75.75h3c.62 0 1.21-.18 1.7-.49l.26.26c.29.29.76.29 1.06 0 .29-.3.29-.77 0-1.07L3.21 2.12c-.3-.3-.77-.3-1.07-.01 -.3.29-.3.76-.01 1.06l.26.26Zm8.24 4l6.36 6.36 .55-1.76c.49-1.56-.78-3-2.34-3h-.2c.08-.39.14-.82.13-1.22 -.01-.42-.06-.97-.3-1.47 -.29-.58-.79-1-1.49-1.18 -1.12-.29-1.92.49-2.18 1.11 -.19.43-.35.73-.56 1.12Zm9.76 9.76l1.49 1.49c0-.03 0-.05 0-.07v-3c0-.42-.34-.75-.75-.75 -.42 0-.75.33-.75.75v1.56ZM5.16 1.98l1.49 1.49h1.56c.41 0 .75-.34.75-.75 0-.42-.34-.75-.75-.75h-3c-.03 0-.05 0-.07 0Zm15.31 3.24c0-.97-.79-1.75-1.75-1.75h-3c-.42 0-.75-.34-.75-.75 0-.42.33-.75.75-.75h3c1.79 0 3.25 1.45 3.25 3.25v3c0 .41-.34.75-.75.75 -.42 0-.75-.34-.75-.75v-3ZM5.22 20.47c-.97 0-1.75-.79-1.75-1.75v-3c0-.42-.34-.75-.75-.75 -.42 0-.75.33-.75.75v3c0 1.79 1.45 3.25 3.25 3.25h3c.41 0 .75-.34.75-.75 0-.42-.34-.75-.75-.75h-3Z"/></svg>