<svg viewBox="0 0 24 24" xmlns="http://www.w3.org/2000/svg"><path fill="currentColor" d="M5.5 4C4.67 4 4 4.67 4 5.5V8c0 .55-.45 1-1 1 -.56 0-1-.45-1-1V5.5C2 3.56 3.56 2 5.5 2H8c.55 0 1 .44 1 1 0 .55-.45 1-1 1H5.5Zm0 16c-.83 0-1.5-.68-1.5-1.5V16c0-.56-.45-1-1-1 -.56 0-1 .44-1 1v2.5C2 20.43 3.56 22 5.5 22H8c.55 0 1-.45 1-1 0-.56-.45-1-1-1H5.5ZM20 5.5c0-.83-.68-1.5-1.5-1.5H16c-.56 0-1-.45-1-1 0-.56.44-1 1-1h2.5C20.43 2 22 3.56 22 5.5V8c0 .55-.45 1-1 1 -.56 0-1-.45-1-1V5.5ZM7.75 6c-.56 0-1 .44-1 1v1.5c0 .55.44 1 1 1 .55 0 1-.45 1-1V8H11v8H9.75c-.56 0-1 .44-1 1 0 .55.44 1 1 1h1.26c-.02-.17-.02-.34-.02-.5 0-1.85.76-3.51 2-4.7V7.99h2.25v.5c0 .55.44 1 1 1 .55 0 1-.45 1-1v-1.5c0-.56-.45-1-1-1h-8.5ZM23 17.5c0 3.03-2.47 5.5-5.5 5.5 -3.04 0-5.5-2.47-5.5-5.5 0-3.04 2.46-5.5 5.5-5.5 3.03 0 5.5 2.46 5.5 5.5Zm-2.15-2.36c-.2-.2-.52-.2-.71 0l-3.65 3.64 -1.65-1.65c-.2-.2-.52-.2-.71 0 -.2.19-.2.51 0 .7l2 2c.19.19.51.19.7 0l4-4c.19-.2.19-.52 0-.71Z"/></svg>