<svg viewBox="0 0 24 24" xmlns="http://www.w3.org/2000/svg"><path fill="currentColor" d="M6.25 3C4.45 3 3 4.45 3 6.25V8c0 .55.44 1 1 1 .55 0 1-.45 1-1V6.25C5 5.55 5.55 5 6.25 5H8c.55 0 1-.45 1-1 0-.56-.45-1-1-1H6.25ZM16 3c-.56 0-1 .44-1 1 0 .55.44 1 1 1h1.75c.69 0 1.25.55 1.25 1.25V8c0 .55.44 1 1 1 .55 0 1-.45 1-1V6.25C21 4.45 19.54 3 17.75 3H16ZM5 16c0-.56-.45-1-1-1 -.56 0-1 .44-1 1v1.75C3 19.54 4.45 21 6.25 21H8c.55 0 1-.45 1-1 0-.56-.45-1-1-1H6.25C5.55 19 5 18.44 5 17.75V16Zm16 0c0-.56-.45-1-1-1 -.56 0-1 .44-1 1v1.75c0 .69-.56 1.25-1.25 1.25H16c-.56 0-1 .44-1 1 0 .55.44 1 1 1h1.75c1.79 0 3.25-1.46 3.25-3.25V16ZM8 7c-.56 0-1 .44-1 1 0 .55.44 1 1 1h8c.55 0 1-.45 1-1 0-.56-.45-1-1-1H8Zm-1 5c0-.56.44-1 1-1h8c.55 0 1 .44 1 1 0 .55-.45 1-1 1H8c-.56 0-1-.45-1-1Zm1 3c-.56 0-1 .44-1 1 0 .55.44 1 1 1h4c.55 0 1-.45 1-1 0-.56-.45-1-1-1H8Z"/></svg>