<svg viewBox="0 0 24 24" xmlns="http://www.w3.org/2000/svg"><path fill="currentColor" d="M3.5 5.25c0-.97.78-1.75 1.75-1.75h3c.41 0 .75-.34.75-.75C9 2.33 8.66 2 8.25 2h-3C3.45 2 2 3.45 2 5.25v3c0 .41.33.75.75.75 .41 0 .75-.34.75-.75v-3Zm17 0c0-.97-.79-1.75-1.75-1.75h-3c-.42 0-.75-.34-.75-.75 0-.42.33-.75.75-.75h3C20.54 2 22 3.45 22 5.25v3c0 .41-.34.75-.75.75 -.42 0-.75-.34-.75-.75v-3ZM5.25 20.5c-.97 0-1.75-.79-1.75-1.75v-3c0-.42-.34-.75-.75-.75 -.42 0-.75.33-.75.75v3C2 20.54 3.45 22 5.25 22h3c.41 0 .75-.34.75-.75 0-.42-.34-.75-.75-.75h-3Zm15.25-1.75c0 .96-.79 1.75-1.75 1.75h-3c-.42 0-.75.33-.75.75 0 .41.33.75.75.75h3c1.79 0 3.25-1.46 3.25-3.25v-3c0-.42-.34-.75-.75-.75 -.42 0-.75.33-.75.75v3ZM11.28 6.42c.26-.62 1.06-1.41 2.17-1.12 .7.18 1.2.6 1.48 1.17 .24.5.29 1.05.29 1.46 0 .39-.06.82-.14 1.21h.19c1.55 0 2.82 1.43 2.33 2.99l-1.15 3.65c-.47 1.48-2.1 2.25-3.58 1.81l-4.52-1.33c-.71-.21-1.29-.71-1.56-1.39l-.44-1.09c-.44-1.1.04-2.29 1.05-2.85l1.54-.85c0-.01.01-.02.02-.03 .05-.05.14-.12.26-.25 .23-.26.59-.71.96-1.43 .17-.36.32-.63.45-.88l0-.01c.21-.4.37-.71.56-1.14Z"/></svg>