<svg viewBox="0 0 24 24" xmlns="http://www.w3.org/2000/svg"><path fill="currentColor" d="M3 6.25C3 4.45 4.45 3 6.25 3h2c.41 0 .75.33.75.75 0 .41-.34.75-.75.75h-2c-.97 0-1.75.78-1.75 1.75v2c0 .41-.34.75-.75.75C3.33 9 3 8.66 3 8.25v-2Zm12-2.5c0-.42.33-.75.75-.75h2C19.54 3 21 4.45 21 6.25v2c0 .41-.34.75-.75.75 -.42 0-.75-.34-.75-.75v-2c0-.97-.79-1.75-1.75-1.75h-2c-.42 0-.75-.34-.75-.75ZM3.75 15c.41 0 .75.33.75.75v2c0 .96.78 1.75 1.75 1.75h1.99c.41 0 .75.33.75.75 0 .41-.34.75-.75.75h-2 -.01c-1.8-.01-3.25-1.46-3.25-3.25v-2c0-.42.33-.75.75-.75Zm16.5 0c.41 0 .75.33.75.75v2c0 1.79-1.46 3.25-3.25 3.25h-2c-.42 0-.75-.34-.75-.75 0-.09.01-.18.04-.25 .1-.3.38-.5.7-.5h2c.26 0 .5-.06.73-.16 0 0 0-.01 0 0 .6-.28 1.01-.89 1.01-1.59v-2c0-.42.33-.75.75-.75Zm-4.51 3.5c-.89 0-1.62.65-1.74 1.5H9.96c-.13-.85-.86-1.5-1.74-1.5h-2c-.3 0-.55-.17-.67-.42 .29-1.2 1.37-2.09 2.66-2.09h7.5c1.29 0 2.37.88 2.66 2.08 -.13.24-.38.41-.67.41h-2Zm-3.75-4c2.07 0 3.75-1.68 3.75-3.75 0-2.08-1.68-3.75-3.75-3.75 -2.08 0-3.76 1.67-3.76 3.75 0 2.07 1.67 3.75 3.75 3.75Z"/></svg>