<svg viewBox="0 0 24 24" xmlns="http://www.w3.org/2000/svg"><path fill="currentColor" d="M5.5 4C4.67 4 4 4.67 4 5.5V8c0 .55-.45 1-1 1 -.56 0-1-.45-1-1V5.5C2 3.56 3.56 2 5.5 2H8c.55 0 1 .44 1 1 0 .55-.45 1-1 1H5.5Zm0 16c-.83 0-1.5-.68-1.5-1.5V16c0-.56-.45-1-1-1 -.56 0-1 .44-1 1v2.5C2 20.43 3.56 22 5.5 22H8c.55 0 1-.45 1-1 0-.56-.45-1-1-1H5.5ZM20 5.5c0-.83-.68-1.5-1.5-1.5H16c-.56 0-1-.45-1-1 0-.56.44-1 1-1h2.5C20.43 2 22 3.56 22 5.5V8c0 .55-.45 1-1 1 -.56 0-1-.45-1-1V5.5ZM18.5 20c.82 0 1.5-.68 1.5-1.5V16c0-.56.44-1 1-1 .55 0 1 .44 1 1v2.5c0 1.93-1.57 3.5-3.5 3.5H16c-.56 0-1-.45-1-1 0-.56.44-1 1-1h2.5ZM7.75 6c-.56 0-1 .44-1 1v1.5c0 .55.44 1 1 1 .55 0 1-.45 1-1V8H11v8H9.75c-.56 0-1 .44-1 1 0 .55.44 1 1 1h4.5c.55 0 1-.45 1-1 0-.56-.45-1-1-1H13V8h2.25v.5c0 .55.44 1 1 1 .55 0 1-.45 1-1V7c0-.56-.45-1-1-1h-8.5Z"/></svg>