<svg viewBox="0 0 24 24" xmlns="http://www.w3.org/2000/svg"><path fill="currentColor" d="M6.5 3C4.56 3 3 4.56 3 6.5v1.86c0 .55.44 1 1 1 .55 0 1-.45 1-1V6.49c0-.83.67-1.5 1.5-1.5h1.86c.55 0 1-.45 1-1 0-.56-.45-1-1-1H6.49Zm9.13 0c-.56 0-1 .44-1 1 0 .55.44 1 1 1h1.86c.82 0 1.5.67 1.5 1.5v1.86c0 .55.44 1 1 1 .55 0 1-.45 1-1V6.49c0-1.94-1.57-3.5-3.5-3.5h-1.87ZM4.99 15.63c0-.56-.45-1-1-1 -.56 0-1 .44-1 1v1.86c0 1.93 1.56 3.5 3.5 3.5h1.86c.55 0 1-.45 1-1 0-.56-.45-1-1-1H6.48c-.83 0-1.5-.68-1.5-1.5v-1.87Zm16 0c0-.56-.45-1-1-1 -.56 0-1 .44-1 1v1.86c0 .82-.68 1.5-1.5 1.5h-1.87c-.56 0-1 .44-1 1 0 .55.44 1 1 1h1.86c1.93 0 3.5-1.57 3.5-3.5v-1.87Zm-13-4.64c-.56 0-1 .44-1 1 0 .55.44 1 1 1h8c.55 0 1-.45 1-1 0-.56-.45-1-1-1h-8Z"/></svg>