<svg viewBox="0 0 24 24" xmlns="http://www.w3.org/2000/svg"><path fill="currentColor" d="M3 6.5C3 4.56 4.56 3 6.5 3h1.86c.55 0 1 .44 1 1 0 .55-.45 1-1 1H6.49c-.83 0-1.5.67-1.5 1.5v1.86c0 .55-.45 1-1 1 -.56 0-1-.45-1-1V6.49ZM14.63 4c0-.56.44-1 1-1h1.86c1.93 0 3.5 1.56 3.5 3.5v1.86c0 .55-.45 1-1 1 -.56 0-1-.45-1-1V6.49c0-.83-.68-1.5-1.5-1.5h-1.87c-.56 0-1-.45-1-1ZM3.99 14.63c.55 0 1 .44 1 1v1.86c0 .82.67 1.5 1.5 1.5h1.86c.55 0 1 .44 1 1 0 .55-.45 1-1 1H6.48c-1.94 0-3.5-1.57-3.5-3.5v-1.87c0-.56.44-1 1-1Zm16 0c.55 0 1 .44 1 1v1.86c0 1.93-1.57 3.5-3.5 3.5h-1.87c-.56 0-1-.45-1-1 0-.56.44-1 1-1h1.86c.82 0 1.5-.68 1.5-1.5v-1.87c0-.56.44-1 1-1Zm-10-7.64h-3v3h3v4h-3v3h3v-3h4v3h3v-3h-3v-4h3v-3h-3v3h-4v-3Z"/></svg>