<svg viewBox="0 0 24 24" xmlns="http://www.w3.org/2000/svg"><g fill="currentColor"><path d="M2.98 3.82c-.37.53-.59 1.17-.59 1.87v1.79c0 .49.4.9.9.9 .49 0 .9-.41.9-.9v-1.8c0-.2.03-.38.1-.55l2.59 2.59v.35c0 .49.4.9.9.9 .1 0 .2-.02.3-.06l2.99 2.99v4.25h-.3c-.5 0-.9.4-.9.9 0 .49.4.9.89.9h2.4c.49 0 .9-.41.9-.9 0-.5-.41-.9-.9-.9h-.3v-2.46l5.94 5.94c-.17.06-.36.1-.55.1h-1.8c-.5 0-.9.4-.9.9 0 .49.4.9.9.9h1.8c.69 0 1.33-.22 1.87-.59l.4.4c.23.23.61.23.84 0 .23-.24.23-.62 0-.85l-.41-.41s0 0 0 0l-1.33-1.33s0 0 0 0L7.06 6.19s0 0 0 0L5.07 4.2c-.01 0 0-.01 0 0L3.74 2.87c-.01 0 0-.01 0 0l-.41-.41c-.24-.24-.62-.24-.85 0 -.24.23-.24.61 0 .84l.4.4Zm18.61 14.47c0 .23-.03.46-.08.68l-1.73-1.73v-.76c0-.5.4-.9.9-.9 .49 0 .89.4.89.9v1.8Zm-8.7-10.5v2.55l-1.8-1.8v-.76h-.76l-1.81-1.8h7.65c.49 0 .9.4.9.89v1.2c0 .49-.41.9-.9.9 -.5 0-.9-.41-.9-.9v-.3h-2.4Zm-5.4-3.6h-.76L5 2.46c.22-.05.44-.08.68-.08h1.8c.49 0 .9.4.9.9 0 .49-.41.9-.9.9Zm-1.8 15.59c-.83 0-1.5-.68-1.5-1.5v-1.8c0-.5-.41-.9-.9-.9 -.5 0-.9.4-.9.9v1.8c0 1.82 1.47 3.3 3.3 3.3h1.8c.49 0 .9-.41.9-.9 0-.5-.41-.9-.9-.9h-1.8Zm14.1-14.1c0-.83-.68-1.5-1.51-1.5h-1.8c-.5 0-.9-.41-.9-.9 0-.5.4-.9.9-.9h1.8c1.82 0 3.3 1.47 3.3 3.3v1.79c0 .49-.41.9-.9.9 -.5 0-.9-.41-.9-.9v-1.8Z"/><path fill="currentColor" fill-rule="evenodd" d="M5.22 2.53l1.56 1.56h.71c.44 0 .8-.36.8-.8 0-.45-.36-.8-.8-.8h-1.8c-.17 0-.33.01-.48.03Zm-.23-.17c.22-.05.46-.08.7-.08h1.8c.55 0 1 .44 1 1 0 .55-.45 1-1 1h-.8L4.8 2.39l.18-.04Zm11.5.12c-.45 0-.8.35-.8.8 0 .44.35.8.8.8h1.8c.88 0 1.6.71 1.6 1.6v1.79c0 .44.35.8.8.8 .44 0 .79-.36.79-.8v-1.8c0-1.77-1.44-3.2-3.2-3.2h-1.8Zm-1 .8c0-.56.44-1 1-1h1.8c1.87 0 3.4 1.52 3.4 3.4v1.79c0 .55-.45 1-1 1 -.56 0-1-.45-1-1v-1.8c0-.78-.63-1.4-1.41-1.4h-1.8c-.56 0-1-.45-1-1Zm-12.01-.8s0 0 0 0l.4.4 -.04.03s0 0 0 0l.03-.04 3.3 3.3 14.28 14.28c.27.27.27.71 0 .98 -.28.27-.72.27-.99 0l-.35-.35c-.54.34-1.18.55-1.86.55h-1.8c-.56 0-1-.45-1-1 0-.56.44-1 1-1h1.8c.12 0 .24-.02.36-.05l-5.67-5.67v2.11h.2c.55 0 1 .44 1 1 0 .55-.45 1-1 1h-2.4c-.56 0-1-.45-1-1 0-.56.44-1 .99-1h.2v-4.11L8 8.98c-.09.02-.18.03-.28.03 -.56 0-1-.45-1-1v-.32L4.26 5.23c-.04.11-.05.23-.05.36v1.79c0 .55-.45 1-1 1 -.56 0-1-.45-1-1v-1.8c0-.69.2-1.33.55-1.86l-.35-.35c-.28-.28-.28-.72 0-.99 .27-.28.71-.28.98 0Zm.36.44s0 0 0 0v0Zm-.51-.31c-.2-.2-.52-.2-.71-.01 -.2.19-.2.51 0 .7l.46.46 -.05.06c-.36.51-.57 1.14-.57 1.81v1.79c0 .44.35.8.8.8 .44 0 .8-.36.8-.8v-1.8c0-.21.03-.41.11-.59l.05-.15 2.73 2.73V8c0 .44.35.8.8.8 .09 0 .18-.02.26-.05l.05-.03 3.07 3.07v4.39h-.4c-.45 0-.8.35-.8.8 0 .44.35.8.8.8h2.4c.44 0 .8-.36.8-.8 0-.45-.36-.8-.8-.8h-.4v-2.8l6.22 6.22 -.15.05c-.19.07-.38.11-.59.11h-1.8c-.45 0-.8.35-.8.8 0 .44.35.8.8.8h1.8c.67 0 1.29-.21 1.81-.57l.06-.05 .46.46c.19.19.51.19.7 0 .19-.2.19-.52 0-.71L4.96 4.21 3.23 2.48Zm4.95 3.25h7.89c.55 0 1 .44 1 .99v1.2c0 .55-.45 1-1 1 -.56 0-1-.45-1-1v-.2h-2.2v2.69l-2-2.01v-.7h-.7l-2-2Zm.48.2h7.41c.44 0 .8.35.8.79v1.2c0 .44-.36.8-.8.8 -.45 0-.8-.36-.8-.8v-.4h-2.61v2.41l-1.6-1.6v-.82h-.82l-1.61-1.6ZM2.27 16.45c0-.56.44-1 1-1 .55 0 1 .44 1 1v1.8c0 .77.62 1.4 1.4 1.4h1.8c.55 0 1 .44 1 1 0 .55-.45 1-1 1h-1.8c-1.88 0-3.4-1.53-3.4-3.4v-1.8Zm1-.8c-.45 0-.8.35-.8.8v1.8c0 1.76 1.43 3.2 3.2 3.2h1.8c.44 0 .8-.36.8-.8 0-.45-.36-.8-.8-.8h-1.8c-.89 0-1.6-.72-1.6-1.6v-1.8c0-.45-.36-.8-.8-.8Zm17.4 0c-.45 0-.81.35-.81.8v.71l1.56 1.56c.02-.16.03-.32.03-.48v-1.8c0-.45-.36-.8-.8-.8Zm-1 .8c0-.56.44-1 1-1 .55 0 1 .44 1 1v1.8c0 .24-.03.47-.08.7l-.04.18 -1.89-1.89v-.8Z"/></g></svg>