<svg viewBox="0 0 24 24" xmlns="http://www.w3.org/2000/svg"><path fill="currentColor" d="M17.78 2c1.45.05 2.21 1.21 2.21 2.17l0 4.08c-.72-1.35-2.13-2.27-3.76-2.27 -1.05 0-2 .37-2.74 1l-5.27-.01c-.42 0-.75.33-.75.75 0 .41.33.75.75.75h4.12c-.21.46-.34.97-.37 1.5H8.21c-.42 0-.75.33-.75.75 0 .41.33.75.75.75l3.75-.01v.66c-.19-.09-.39-.15-.6-.17l-.16-.01c-.7 0-1.31.4-1.59 1l-1.42-.01c-.42 0-.75.33-.75.75 0 .41.33.75.75.75h1.25c0 3 1.97 5.53 4.75 6.36l.24.06v.32c0 .26.06.52.16.74l-8.42 0c-1.06 0-2.16-.85-2.25-2.03l-.01-.17V4.08c0-.93.81-2.09 2.07-2.19l.17-.01h11.52Zm3.46 11c.37 0 .69.28.74.64l0 .1v.75c0 2.92-2.18 5.24-5 5.6l-.01 1.14c0 .41-.34.75-.75.75 -.38 0-.7-.29-.75-.65l-.01-.11 0-1.15c-2.75-.35-4.89-2.56-5-5.37l-.01-.24v-.75c0-.42.33-.75.75-.75 .37 0 .69.28.74.64l0 .1v.75c0 2.34 1.9 4.15 4.25 4.15 2.27 0 4.13-1.7 4.24-3.94l0-.22v-.75c0-.42.33-.75.75-.75Zm-5-6c1.79 0 3.25 1.45 3.25 3.25v4c0 1.79-1.46 3.25-3.25 3.25 -1.8 0-3.25-1.46-3.25-3.25v-4c0-1.8 1.45-3.25 3.25-3.25Z"/></svg>