<svg viewBox="0 0 24 24" xmlns="http://www.w3.org/2000/svg"><path fill="currentColor" d="M2 7.25C2 5.45 3.45 4 5.25 4h13.5C20.54 4 22 5.45 22 7.25v9.5c0 1.79-1.46 3.25-3.25 3.25h-6.28l-2.05-2.05c.36-.74.57-1.57.57-2.46 0-3.04-2.47-5.5-5.5-5.5 -1.33 0-2.55.47-3.5 1.25V7.23ZM5.5 20c.97 0 1.87-.31 2.6-.84l2.61 2.61c.29.29.76.29 1.06 0 .29-.3.29-.77 0-1.07l-2.62-2.62c.52-.74.83-1.64.83-2.61 0-2.49-2.02-4.5-4.5-4.5 -2.49 0-4.5 2.01-4.5 4.5 0 2.48 2.01 4.5 4.5 4.5Zm0-1.5c-1.66 0-3-1.35-3-3 0-1.66 1.34-3 3-3 1.65 0 3 1.34 3 3 0 1.65-1.35 3-3 3Z"/></svg>