<svg viewBox="0 0 24 24" xmlns="http://www.w3.org/2000/svg"><g fill="currentColor"><path d="M3.6 7.19c0-.67.53-1.2 1.2-1.2h.6c.33 0 .6-.27.6-.6 0-.34-.27-.6-.6-.6h-.6c-1.33 0-2.4 1.07-2.4 2.4v.6c0 .33.26.6.6.6 .33 0 .6-.27.6-.6v-.6Z"/><path d="M4.8 16.8c-.67 0-1.2-.54-1.2-1.2V15c0-.34-.27-.6-.6-.6 -.34 0-.6.26-.6.6v.6c0 1.32 1.07 2.4 2.4 2.4h.3c.33 0 .6-.27.6-.6 0-.34-.27-.6-.6-.6h-.3Z"/><path d="M3 9.59c.33 0 .6.26.6.59v2.4c0 .33-.27.6-.6.6 -.34 0-.6-.27-.6-.6v-2.4c0-.34.26-.6.6-.6Z"/><path d="M20.4 7.19c0-.67-.54-1.2-1.2-1.2h-.6c-.34 0-.6-.27-.6-.6 0-.34.26-.6.6-.6h.6c1.32 0 2.4 1.07 2.4 2.4v.6c0 .33-.27.6-.6.6 -.34 0-.6-.27-.6-.6v-.6Z"/><path d="M20.4 15.6c0 .66-.54 1.2-1.2 1.2h-.31c-.34 0-.6.26-.6.6 0 .33.26.6.6.6h.3c1.32 0 2.4-1.08 2.4-2.4V15c0-.34-.27-.6-.6-.6 -.34 0-.6.26-.6.6v.6Z"/><path d="M20.4 10.19c0-.34.26-.6.6-.6 .33 0 .6.26.6.59v2.4c0 .33-.27.6-.6.6 -.34 0-.6-.27-.6-.6v-2.4Z"/><path d="M7.2 5.39c0-.34.26-.6.6-.6h2.99c.33 0 .6.26.6.6 0 .33-.27.6-.6.6h-3c-.34 0-.6-.27-.6-.6Z"/><path d="M13.2 4.79c-.34 0-.6.26-.6.6 0 .33.26.6.6.6h3c.33 0 .6-.27.6-.6 0-.34-.27-.6-.6-.6h-3Z"/><path d="M6 7.19c-.67 0-1.2.53-1.2 1.2v5.99c0 .66.53 1.2 1.2 1.2h3.23l.59-.9 -2.34-3.51c-.56-.83-.33-1.95.5-2.5 .82-.55 1.94-.33 2.49.5l1.5 2.25 1.5-2.26c.55-.83 1.66-1.06 2.49-.51 .83.54 1.05 1.66.5 2.49l-2.34 3.5 .59.89h3.24c.66 0 1.2-.54 1.2-1.2v-6c0-.67-.54-1.2-1.2-1.2h-12Z"/><path d="M8.65 9.7c-.28.18-.36.55-.17.82l2.78 4.17 -1.49 2.22c-.53-.19-1.13-.19-1.69.04 -1.23.49-1.83 1.89-1.33 3.12 .49 1.22 1.89 1.82 3.12 1.32 1.22-.5 1.82-1.9 1.32-3.13 -.11-.27-.26-.51-.44-.71l1.2-1.81 1.21 1.81c-.18.2-.33.43-.44.69 -.5 1.22.09 2.62 1.32 3.12 1.22.49 2.62-.1 3.12-1.33 .49-1.23-.1-2.63-1.33-3.13 -.57-.23-1.17-.23-1.7-.04l-1.49-2.24 0-.01 -.73-1.09 -.01 0L9.39 9.76c-.19-.28-.56-.36-.84-.17Zm6.34 10.69c-.67 0-1.2-.54-1.2-1.2 0-.67.53-1.2 1.2-1.2 .66 0 1.2.53 1.2 1.2 0 .66-.54 1.2-1.2 1.2Zm-6 0c-.67 0-1.2-.54-1.2-1.2 0-.67.53-1.2 1.2-1.2 .66 0 1.19.53 1.19 1.2 0 .66-.54 1.2-1.2 1.2Z"/><path d="M12.71 12.54l.72 1.08 2.05-3.09c.18-.28.1-.65-.17-.83 -.28-.19-.65-.11-.84.16l-1.78 2.66Z"/></g></svg>