<svg viewBox="0 0 24 24" xmlns="http://www.w3.org/2000/svg"><path fill="currentColor" d="M20 2.03v-.04c-.07 0-.14 0-.21 0v-.01H7.74c-1.8 0-3.25 1.45-3.25 3.25v10.25h7.75c.69 0 1.25.55 1.25 1.25v3c0 1.26 1.09 2.25 2.52 2.25 1.29 0 2.3-.78 2.49-1.89 0-.06 0-.12 0-.19l0-14.97 0-.01 -.01-.35c-.01-1.1.58-2.06 1.46-2.58ZM1 17.89c0-.5.4-.91.9-.91h10.09v2.85h0c.02.8.29 1.54.75 2.15H3.98c-1.63 0-3-1.24-3-2.93v-1.18ZM23.25 4.36v2.66c0 .94-.77 1.71-1.72 1.71h-1.54V4.35c0-.9.72-1.63 1.625-1.63 .89 0 1.625.72 1.625 1.62Z"/></svg>