<svg viewBox="0 0 24 24" xmlns="http://www.w3.org/2000/svg"><g fill="currentColor"><path d="M10.2 3.6c3.64 0 6.6 2.95 6.6 6.6 0 1.49-.5 2.87-1.34 3.98l4.97 4.97c.35.35.35.92 0 1.27 -.32.31-.82.34-1.18.08l-.11-.09 -4.98-4.98c-.65.49-1.39.86-2.19 1.09 0-.09 0-.17 0-.26V14.6c1.75-.72 3-2.44 3-4.46 0-2.66-2.15-4.8-4.8-4.8 -2.49 0-4.53 1.88-4.78 4.3 -.24.08-.45.22-.63.41 -.38.39-.76.7-1.15.93 -.04-.28-.06-.56-.06-.85 0-3.65 2.95-6.6 6.59-6.6Zm-1.8 8.81c-.42-.18-.82-.41-1.2-.7 -.3-.23-.59-.48-.86-.78 -.19-.2-.5-.2-.68-.01 -1.2 1.24-2.52 1.85-3.99 1.85 -.27 0-.48.22-.48.5v3l0 .31c.03.95.2 1.81.52 2.58 .18.43.4.83.67 1.2 .32.44.72.84 1.18 1.2 .62.48 1.37.87 2.24 1.17 .09.03.2.03.3 0 3.07-1.07 4.64-3.26 4.64-6.48v-3.01l-.01-.11c-.05-.23-.24-.4-.48-.4 -.25 0-.49-.02-.72-.06 -.42-.06-.82-.17-1.2-.34Z"/><path fill="currentColor" fill-rule="evenodd" d="M3.64 10.93c-.03-.25-.05-.49-.05-.74 0-3.65 2.95-6.6 6.59-6.6 3.64 0 6.6 2.95 6.6 6.6 0 1.49-.5 2.87-1.34 3.98l4.97 4.97c.35.35.35.92 0 1.27 -.32.31-.82.34-1.18.08l-.11-.09 -4.98-4.98c-.62.47-1.33.83-2.09 1.06 -.04.01-.07.01-.11.02 0-.04 0-.07 0-.11 0-.05 0-.1 0-.15v-1.66c1.75-.72 3-2.44 3-4.46 0-2.66-2.15-4.8-4.8-4.8 -2.49 0-4.53 1.88-4.78 4.3 -.24.08-.45.22-.63.41 -.35.36-.7.65-1.05.87 -.04.01-.07.03-.1.05 -.01-.04-.01-.08-.02-.11Zm10.53 4.65c-.65.47-1.37.83-2.16 1.05l-.14.03 0-.14c0-.09 0-.17 0-.25v-1.72l.06-.03c1.72-.7 2.93-2.39 2.93-4.36 0-2.6-2.11-4.7-4.7-4.7 -2.44 0-4.44 1.84-4.68 4.21l-.01.06 -.06.02c-.22.07-.42.2-.6.38 -.39.39-.77.71-1.17.94l-.14.07 -.02-.16c-.04-.29-.06-.57-.06-.86 0-3.71 2.99-6.7 6.69-6.7s6.7 2.99 6.7 6.7c0 1.48-.49 2.86-1.31 3.97L20.41 19c.39.39.39 1.02 0 1.41 -.36.35-.92.38-1.31.09l-.01-.01 -.11-.1 -4.92-4.92Zm-13.08.7l0-3.01c0-.33.25-.6.58-.6 1.43 0 2.73-.6 3.9-1.83 .22-.24.59-.24.82 0 .27.28.55.54.84.75 .38.28.77.51 1.17.68 .38.15.77.26 1.17.32 .23.03.46.04.7.04 .28 0 .51.2.56.48l0 0 .01.11 -.01 3c0 1.62-.4 2.99-1.2 4.1 -.8 1.1-1.98 1.92-3.53 2.46 -.12.04-.25.04-.37 0 -.88-.31-1.64-.71-2.28-1.19 -.47-.36-.88-.77-1.21-1.23 -.28-.375-.51-.79-.7-1.23 -.33-.78-.51-1.65-.54-2.62l-.01-.01 -.01-.32Zm.1 0v-3.01c0-.28.21-.5.48-.5 1.46 0 2.78-.62 3.98-1.86 .18-.2.49-.2.67 0 .27.29.56.54.85.77 .38.29.78.52 1.2.69 .38.16.78.27 1.2.33 .23.03.47.05.71.05 .23 0 .42.17.47.39l0 .1v3c0 3.21-1.58 5.4-4.65 6.47 -.1.03-.21.03-.31 0 -.88-.31-1.63-.7-2.25-1.18 -.47-.36-.86-.76-1.19-1.2 -.28-.37-.5-.77-.68-1.2 -.32-.77-.5-1.63-.53-2.59l-.01-.32Z"/></g></svg>