<svg viewBox="0 0 24 24" xmlns="http://www.w3.org/2000/svg"><g fill="currentColor"><path d="M10.2 3.6c3.64 0 6.6 2.95 6.6 6.6 0 1.49-.5 2.87-1.34 3.98l4.97 4.97c.35.35.35.92 0 1.27 -.32.31-.82.34-1.18.08l-.11-.09 -4.98-4.98c-.35.26-.72.48-1.11.68 -.12-.61-.32-1.19-.59-1.73 1.49-.82 2.5-2.4 2.5-4.22 0-2.66-2.15-4.8-4.8-4.8 -2.66 0-4.81 2.14-4.81 4.8 0 .23.01.47.05.69 -.61.1-1.2.29-1.74.56 -.08-.41-.13-.83-.13-1.26 0-3.65 2.95-6.6 6.6-6.6ZM3.67 13.73c.36 1.29-.42 2.64-1.72 2.97l-.56.14c-.02.18-.03.36-.03.55 0 .22.01.44.03.66l.41.09c1.34.31 2.14 1.7 1.74 3.02l-.16.5c.3.24.64.45 1 .62l.39-.42c.94-1.01 2.54-1.01 3.49 0l.4.42c.35-.17.68-.37.98-.6l-.19-.67c-.37-1.3.41-2.64 1.71-2.98l.55-.15c.01-.19.02-.37.02-.56 0-.23-.02-.45-.04-.67l-.42-.1c-1.35-.32-2.15-1.71-1.75-3.03l.15-.51c-.31-.25-.65-.46-1.01-.63l-.39.41c-.95 1-2.55 1-3.5-.01l-.41-.43c-.36.16-.69.36-.99.59l.18.66Zm2.92 4.86c-.67 0-1.2-.54-1.2-1.2 0-.67.53-1.2 1.2-1.2 .66 0 1.2.53 1.2 1.2 0 .66-.54 1.2-1.2 1.2Z"/><path fill="currentColor" fill-rule="evenodd" d="M10.2 3.7c-3.59 0-6.51 2.91-6.51 6.5 0 .37.03.75.09 1.11 .48-.23 1-.4 1.54-.5 -.03-.21-.04-.41-.04-.62 0-2.71 2.19-4.9 4.9-4.9 2.7 0 4.9 2.19 4.9 4.9 0 1.82-1 3.41-2.48 4.26 .23.48.41.99.52 1.53 .34-.18.66-.39.97-.62l.06-.06 5.03 5.03 .09.08c.31.23.75.2 1.03-.08 .31-.32.31-.82 0-1.14l-5.038-5.04 .05-.07c.82-1.1 1.31-2.46 1.31-3.93 0-3.59-2.92-6.5-6.5-6.5Zm-6.71 6.5c0-3.71 2.99-6.7 6.7-6.7 3.7 0 6.7 2.99 6.7 6.7 0 1.48-.49 2.86-1.31 3.97l4.91 4.91c.39.39.39 1.02 0 1.41 -.36.35-.92.38-1.31.09l-.01-.01 -.11-.1 -4.92-4.92c-.33.24-.69.45-1.06.63l-.12.05 -.03-.13c-.12-.6-.32-1.17-.59-1.7l-.05-.09 .08-.05c1.46-.8 2.45-2.35 2.45-4.14 0-2.6-2.11-4.7-4.7-4.7 -2.6 0-4.71 2.1-4.71 4.7 0 .23.01.46.04.68l.01.09 -.1.01c-.61.1-1.18.29-1.71.55l-.12.05 -.03-.13c-.09-.42-.13-.85-.13-1.28Zm1 2.14l.45.48c.9.96 2.43.96 3.34 0l.43-.47 .06.03c.36.17.7.38 1.02.63l.05.04 -.18.57c-.38 1.26.38 2.59 1.67 2.89l.48.11 0 .06c.02.22.03.44.03.67 0 .19-.01.37-.03.56l-.01.06 -.63.15c-1.26.31-2 1.6-1.65 2.84l.2.73 -.06.04c-.32.23-.65.44-1.01.6l-.07.03 -.46-.49c-.91-.97-2.44-.97-3.35-.01l-.44.46 -.07-.04c-.37-.18-.71-.39-1.03-.64l-.06-.05 .17-.58c.37-1.27-.39-2.6-1.68-2.9l-.49-.12 -.01-.07c-.03-.23-.04-.45-.04-.68 0-.2 0-.38.02-.57l0-.07 .62-.16c1.25-.32 1.99-1.61 1.64-2.85l-.21-.74 .05-.05c.31-.24.64-.45 1-.61l.06-.04Zm-.9.75l.16.6c.37 1.35-.43 2.75-1.79 3.09l-.49.12c-.02.15-.03.31-.03.47 0 .19.01.39.03.58l.35.08c1.39.33 2.23 1.77 1.82 3.14l-.14.44c.26.2.55.38.86.53l.33-.36c.98-1.05 2.65-1.05 3.63 0l.35.37c.29-.15.58-.32.84-.52l-.17-.61c-.38-1.36.42-2.75 1.78-3.1l.48-.13c.01-.16.02-.32.02-.48 0-.2-.02-.4-.04-.59l-.36-.09c-1.4-.34-2.24-1.78-1.83-3.15l.13-.45c-.27-.21-.56-.39-.87-.54l-.34.35c-.99 1.04-2.66 1.04-3.64-.01l-.36-.38c-.3.14-.59.31-.85.51Zm2.99 3.19c-.61 0-1.1.49-1.1 1.1 0 .6.49 1.1 1.1 1.1 .6 0 1.1-.5 1.1-1.1 0-.61-.5-1.1-1.1-1.1Zm-1.3 1.1c0-.72.58-1.3 1.3-1.3 .71 0 1.3.58 1.3 1.3 0 .71-.59 1.3-1.3 1.3 -.72 0-1.3-.59-1.3-1.3Z"/></g></svg>