<svg viewBox="0 0 24 24" xmlns="http://www.w3.org/2000/svg"><path fill="currentColor" d="M3 6.5C3 4.56 4.56 3 6.5 3H9c.55 0 1 .44 1 1 0 .55-.45 1-1 1H6.5C5.67 5 5 5.67 5 6.5V9c0 .55-.45 1-1 1 -.56 0-1-.45-1-1V6.5Zm18 11c0 1.93-1.57 3.5-3.5 3.5H15c-.56 0-1-.45-1-1 0-.56.44-1 1-1h2.5c.82 0 1.5-.68 1.5-1.5V15c0-.56.44-1 1-1 .55 0 1 .44 1 1v2.5Zm0-11C21 4.56 19.43 3 17.5 3H15c-.56 0-1 .44-1 1 0 .55.44 1 1 1h2.5c.82 0 1.5.67 1.5 1.5V9c0 .55.44 1 1 1 .55 0 1-.45 1-1V6.5ZM6.5 21C4.56 21 3 19.43 3 17.5V15c0-.56.44-1 1-1 .55 0 1 .44 1 1v2.5c0 .82.67 1.5 1.5 1.5H9c.55 0 1 .44 1 1 0 .55-.45 1-1 1H6.5Zm5.5-6c1.65 0 3-1.35 3-3 0-1.66-1.35-3-3-3 -1.66 0-3 1.34-3 3 0 1.65 1.34 3 3 3ZM7.5 8.75c.69 0 1.25-.56 1.25-1.25 0-.7-.56-1.25-1.25-1.25 -.7 0-1.25.55-1.25 1.25 0 .69.55 1.25 1.25 1.25Z"/></svg>