<svg viewBox="0 0 24 24" xmlns="http://www.w3.org/2000/svg"><path fill="currentColor" d="M18.58 6.41c.36.36.86.58 1.41.58 .16 0 .33-.03.48-.06 .86-.22 1.51-1.01 1.51-1.95 0-1.11-.9-2-2-2 -.76 0-1.42.42-1.76 1.04 -.16.28-.25.6-.25.95 0 .36.09.7.26 1 .08.14.18.27.29.39l.02.02ZM1.99 18.99c0 1.1.89 2 2 2 .74 0 1.38-.41 1.73-1 .17-.3.26-.64.26-1 0-.35-.09-.67-.25-.96 -.09-.17-.2-.31-.33-.44 -.37-.38-.88-.61-1.44-.61 -.16 0-.31.01-.46.05 -.02 0-.03 0-.04 0 -.87.21-1.52 1-1.52 1.94ZM6.57 6.4c.36.36.86.58 1.41.58 .16 0 .33-.03.48-.06 .53-.14.97-.48 1.24-.95 0-.02.01-.04.02-.05 .15-.29.24-.61.24-.96 0-.37-.1-.71-.27-1 -.35-.6-1-1-1.74-1 -1.11 0-2 .89-2 2 0 .54.21 1.03.56 1.39l.02.02Zm-.33 1.03l-2.45 8.56c.06-.01.12-.01.18-.01 .64 0 1.24.2 1.73.55l2.44-8.57c-.07 0-.13 0-.19 0 -.65 0-1.25-.21-1.74-.56Zm10.9-1.45h-6.35c.11-.32.17-.65.17-1 0-.36-.07-.69-.18-1h6.34c-.12.31-.18.64-.18 1 0 .35.06.68.17 1Zm-5.65 13.57c.14-.59.43-1.13.84-1.58H6.79c.11.31.17.64.17 1 0 .35-.07.68-.18 1h4.58l.1-.43Zm8.66-11.59l-.97 3.36c-.3.15-.59.35-.84.6l-2 1.99 1.85-6.51c.49.34 1.09.55 1.73.55 .06 0 .12-.01.18-.01Zm-1.09 4.67l-5.91 5.9c-.35.34-.59.77-.71 1.24l-.46 1.83c-.2.79.52 1.51 1.31 1.31l1.83-.46c.47-.12.9-.37 1.24-.71l5.9-5.91c.89-.9.89-2.34 0-3.24 -.9-.9-2.34-.9-3.24 0Z"/></svg>