<svg viewBox="0 0 24 24" xmlns="http://www.w3.org/2000/svg"><path fill="currentColor" d="M18.58 6.41c.36.36.86.58 1.41.58 .16 0 .33-.03.48-.06 .86-.22 1.51-1.01 1.51-1.95 0-1.11-.9-2-2-2 -.76 0-1.42.42-1.76 1.04 -.16.28-.25.6-.25.95 0 .36.09.7.26 1 .08.14.18.27.29.39 0 0 .01.01.02.02Zm-4.32 13.58c.34.59.99 1 1.73 1 1.1 0 2-.9 2-2 0-.55-.22-1.04-.57-1.4 -.01-.01-.02-.02-.03-.03 -.37-.37-.87-.59-1.42-.59 -.17 0-.34.02-.49.05 -.55.13-1.01.5-1.28.98 -.16.28-.25.6-.25.95 0 .36.09.7.26 1Zm-10.27 1c-1.11 0-2-.9-2-2 0-.94.64-1.73 1.51-1.95 .01-.01.02-.01.03-.01 .14-.04.29-.06.45-.06 .56 0 1.07.23 1.43.6 .12.13.23.27.32.43 .15.28.24.6.24.95 0 .36-.1.7-.27 1 -.35.59-1 1-1.74 1ZM6.57 6.4c.36.36.86.58 1.41.58 .16 0 .33-.03.48-.06 .53-.14.97-.48 1.24-.95 0-.02.01-.04.02-.05 .15-.29.24-.61.24-.96 0-.37-.1-.71-.27-1 -.35-.6-1-1-1.74-1 -1.11 0-2 .89-2 2 0 .54.21 1.03.56 1.39 0 0 .01.01.02.02Zm-2.78 9.59l2.44-8.57c.49.34 1.09.55 1.73.55 .06 0 .12-.01.18-.01l-2.45 8.56c-.5-.35-1.1-.56-1.74-.56 -.07 0-.13 0-.19 0ZM17.14 5.98h-6.35c.11-.32.17-.65.17-1 0-.36-.07-.69-.18-1h6.34c-.12.31-.18.64-.18 1 0 .35.06.68.17 1Zm-4 14c-.12-.32-.18-.65-.18-1 0-.36.06-.69.17-1H6.78c.11.31.17.64.17 1 0 .35-.07.68-.18 1h6.34Zm2.64-4l2.44-8.57c.49.34 1.09.55 1.73.55 .06 0 .12-.01.18-.01l-2.45 8.56c-.5-.35-1.1-.56-1.74-.56 -.07 0-.13 0-.19 0Z"/></svg>