<svg viewBox="0 0 24 24" xmlns="http://www.w3.org/2000/svg"><path fill="currentColor" d="M20.49 5.62c.87.3 1.5 1.14 1.5 2.12v10c0 2.34-1.91 4.25-4.25 4.25h-10c-.99 0-1.82-.63-2.13-1.51l2.09 0 10.02 0c1.51 0 2.75-1.24 2.75-2.75v-10l-.01-.06 0-2.08Zm-3.25-3.63c1.24 0 2.25 1 2.25 2.25v12.99c0 1.24-1.01 2.25-2.25 2.25h-13c-1.25 0-2.25-1.01-2.25-2.25v-13c0-1.25 1-2.25 2.25-2.25h12.99Zm-3.78 5.46l-3.89 3.88 -.99-1.31c-.25-.34-.72-.4-1.05-.15 -.34.24-.4.71-.15 1.05l1.5 2c.27.36.8.4 1.13.08l4.5-4.5c.29-.3.29-.77 0-1.07 -.3-.3-.77-.3-1.07 0Z"/></svg>