<svg viewBox="0 0 24 24" xmlns="http://www.w3.org/2000/svg"><path fill="currentColor" d="M7 5c0 1.1-.9 2-2 2 -1.11 0-2-.9-2-2 0-1.11.89-2 2-2 1.1 0 2 .89 2 2Zm1 0c0 .55.44 1 1 1h6c.55 0 1-.45 1-1 0-.56-.45-1-1-1H9c-.56 0-1 .44-1 1ZM5 8c-.56 0-1 .44-1 1v6c0 .55.44 1 1 1 .55 0 1-.45 1-1V9c0-.56-.45-1-1-1Zm14 0c-.56 0-1 .44-1 1v6c0 .55.44 1 1 1 .55 0 1-.45 1-1V9c0-.56-.45-1-1-1ZM9 20c-.56 0-1-.45-1-1 0-.56.44-1 1-1h6c.55 0 1 .44 1 1 0 .55-.45 1-1 1H9Zm-4 1c1.1 0 2-.9 2-2 0-1.11-.9-2-2-2 -1.11 0-2 .89-2 2 0 1.1.89 2 2 2ZM21 5c0 1.1-.9 2-2 2 -1.11 0-2-.9-2-2 0-1.11.89-2 2-2 1.1 0 2 .89 2 2Zm-2 16c1.1 0 2-.9 2-2 0-1.11-.9-2-2-2 -1.11 0-2 .89-2 2 0 1.1.89 2 2 2Z"/></svg>