<svg viewBox="0 0 24 24" xmlns="http://www.w3.org/2000/svg"><path fill="currentColor" d="M20 11.5c.51 0 .93.38.99.88l0 .11v4.5c0 2.96-2.35 5.37-5.28 5.49l-.23 0 -7.26-.01c-1.22 0-2.23-.87-2.46-2.02l2.34 0 .05 0 .05 0 7.25 0c1.86 0 3.38-1.46 3.49-3.3l0-.2v-4.52c0-.56.44-1 1-1Zm-3.01-2.02c.51 0 .93.38.99.88l0 .11v6.5c0 1.32-1.04 2.41-2.34 2.49l-.17 0H5.46c-1.33 0-2.42-1.04-2.5-2.34l-.01-.17v-6.49c0-.56.44-1.01 1-1.01 .51 0 .93.38.99.88l0 .11v6.48c0 .24.17.44.41.49l.08 0h10c.24 0 .44-.18.49-.42l0-.09v-6.51c0-.56.44-1 1-1ZM6.28 5.78l3.49-3.5c.36-.37.92-.39 1.31-.09l.09.08 3.5 3.5c.39.39.39 1.02 0 1.41 -.37.36-.93.38-1.32.08l-.1-.09 -1.8-1.8 0 8.83c0 .51-.39.93-.89.99l-.12 0c-.52 0-.94-.39-1-.89l-.01-.12 -.01-8.85 -1.8 1.79c-.37.36-.93.38-1.32.08l-.1-.09c-.37-.37-.39-.93-.09-1.32l.08-.1 3.49-3.5 -3.5 3.5Z"/></svg>