<svg viewBox="0 0 24 24" xmlns="http://www.w3.org/2000/svg"><path fill="currentColor" d="M12.81 11.94l-7.54 1.25c-.18.02-.33.15-.39.31l-2.6 6.95c-.25.63.42 1.24 1.03.94l11.96-5.99c-.75-.2-1.3-.89-1.3-1.7 0-.97.78-1.75 1.75-1.75h5.5c.15 0 .29.01.43.05 .14-.35.03-.79-.36-.98l-18-9.01c-.62-.31-1.29.3-1.04.94L4.84 9.9c.06.16.2.28.38.31l7.53 1.25c.1.01.18.12.16.23 -.02.08-.09.15-.17.16Zm2.93 2.55h.75v2.69c0 .34-.1.68-.27.99l-.47.81h5.45l-.47-.82c-.18-.31-.27-.65-.27-1v-2.7h.75c.41 0 .75-.34.75-.75 0-.42-.34-.75-.75-.75h-5.5c-.42 0-.75.33-.75.75 0 .41.33.75.75.75Zm-.55 5.5l-1.01 1.75c-.58.99.15 2.24 1.3 2.24h5.99c1.15 0 1.87-1.25 1.3-2.25l-1.01-1.76h-6.6Z"/></svg>