<svg viewBox="0 0 24 24" xmlns="http://www.w3.org/2000/svg"><path fill="currentColor" d="M12.81 12.19l-7.54 1.25c-.18.02-.33.15-.39.31l-2.6 6.95c-.25.63.42 1.24 1.03.94l7.67-3.84c-.01-.12-.01-.23-.01-.34 0-3.59 2.91-6.5 6.5-6.5 1.55 0 2.97.54 4.09 1.45 .26-.36.17-.91-.27-1.13l-18-9c-.62-.31-1.29.3-1.04.94l2.59 6.95c.06.16.2.28.38.31l7.53 1.25c.1.01.18.12.16.23 -.02.08-.09.15-.17.16Zm4.68-.2c3.03 0 5.5 2.46 5.5 5.5 0 3.03-2.47 5.5-5.5 5.5 -3.04 0-5.5-2.47-5.5-5.5 0-3.04 2.46-5.5 5.5-5.5Zm2 5.5h-2v-2.51c0-.28-.23-.5-.5-.5 -.28 0-.5.22-.5.5v2.99 0c0 .27.22.5.5.5h2.5c.27 0 .5-.23.5-.5 0-.28-.23-.5-.5-.5Z"/></svg>