<svg viewBox="0 0 24 24" xmlns="http://www.w3.org/2000/svg"><path fill="currentColor" d="M2.23 10.38c-.42-1.73.89-3.39 2.67-3.39h14.18c1.77 0 3.08 1.65 2.67 3.38l-1.08 4.5c-.3 1.23-1.41 2.11-2.68 2.11H5.95c-1.28 0-2.39-.88-2.68-2.12l-1.08-4.51Zm4.76 1.11c.41 0 .75-.34.75-.75 0-.42-.34-.75-.75-.75 -.42 0-.75.33-.75.74s.33.75.75.75Zm3.24-.75c0-.42-.34-.75-.75-.75 -.42 0-.75.33-.75.74s.33.75.75.75c.41 0 .74-.34.74-.75Zm-2 3.25c.41 0 .75-.34.75-.75 0-.42-.34-.75-.75-.75 -.42 0-.75.33-.75.75 0 .41.33.75.75.75Zm3.24-.75c0-.42-.34-.75-.75-.75 -.42 0-.75.33-.75.75 0 .41.33.75.75.75 .41 0 .75-.34.75-.75Zm1.75.75c.41 0 .75-.34.75-.75 0-.42-.34-.75-.75-.75 -.42 0-.75.33-.75.75 0 .41.33.75.75.75Zm3.25-.75c0-.42-.34-.75-.75-.75 -.42 0-.75.33-.75.75 0 .41.33.75.75.75 .41 0 .75-.34.75-.75Zm-4.5-1.75c.41 0 .75-.34.75-.75 0-.42-.34-.75-.75-.75 -.42 0-.75.33-.75.74s.33.75.75.75Zm3.25-.75c0-.42-.34-.75-.75-.75 -.42 0-.75.33-.75.74s.33.75.75.75c.41 0 .75-.34.75-.75Zm1.75.75c.41 0 .75-.34.75-.75 0-.42-.34-.75-.75-.75 -.42 0-.75.33-.75.74s.33.75.75.75Z"/></svg>