<svg viewBox="0 0 24 24" xmlns="http://www.w3.org/2000/svg"><path fill="currentColor" d="M8.24 19.5h5.99c1.24 0 2.25-1.01 2.25-2.25V3.75c0-.597-.24-1.17-.66-1.6 -.43-.43-1-.66-1.6-.66h-6c-.6 0-1.17.23-1.6.65 -.43.42-.66.99-.66 1.59v13.5c0 1.24 1 2.25 2.25 2.25ZM9.2 6.21c.14-.15.33-.22.53-.22h2.99c.19 0 .39.07.53.21 .14.14.21.33.21.53 0 .19-.08.39-.22.53s-.34.21-.54.21h-3c-.2 0-.39-.08-.54-.22 -.15-.14-.22-.34-.22-.54s.07-.39.21-.54Zm0 6c.14-.15.33-.22.53-.22h2.99c.19 0 .39.07.53.21 .14.14.21.33.21.53 0 .19-.08.39-.22.53s-.34.21-.54.21h-3c-.2 0-.39-.08-.54-.22 -.15-.14-.22-.34-.22-.54s.07-.39.21-.54Zm0 3c.14-.15.33-.22.53-.22h2.99c.19 0 .39.07.53.21 .14.14.21.33.21.53 0 .19-.08.39-.22.53 -.15.14-.34.21-.54.21h-3c-.2 0-.39-.08-.54-.22 -.15-.15-.22-.34-.22-.54s.07-.39.21-.54Zm11.73 6.26l-2.25-6c-.06-.15-.15-.27-.28-.36 -.13-.09-.28-.14-.43-.14v2.25c0 2.06-1.69 3.75-3.75 3.75h-6c-2.07 0-3.75-1.69-3.75-3.75v-2.25c-.16 0-.31.04-.43.13 -.13.08-.23.21-.28.35l-2.25 6c-.05.11-.06.23-.05.35 .01.12.05.23.12.33 .06.09.16.18.26.23 .1.05.22.08.34.08h17.99c.12 0 .24-.03.34-.09 .1-.06.19-.14.26-.24 .06-.11.11-.22.12-.34 .01-.12 0-.25-.05-.36Z"/></svg>