<svg viewBox="0 0 24 24" xmlns="http://www.w3.org/2000/svg"><path fill="currentColor" d="M9 2.39c-1.66 0-3 1.34-3 3v13.2c0 1.65 1.34 3 3 3h3.3c-.83-1-1.359-2.24-1.49-3.6H8.98c-.34 0-.6-.27-.6-.6 0-.34.26-.6.6-.6h1.82c.03-.42.11-.82.22-1.2H8.97c-.34 0-.6-.27-.6-.6 0-.34.26-.6.6-.6h2.51c1.09-2.14 3.31-3.6 5.88-3.6 .2 0 .4 0 .6.02V5.38c0-1.66-1.35-3-3-3h-6Zm-.6 4.2c0-.34.26-.6.6-.6h6c.33 0 .6.26.6.6 0 .33-.27.6-.6.6H9c-.34 0-.6-.27-.6-.6Zm14.4 10.8c0 2.98-2.42 5.4-5.4 5.4 -2.99 0-5.4-2.42-5.4-5.4 0-2.99 2.41-5.4 5.4-5.4 2.98 0 5.4 2.41 5.4 5.4Zm-2.75-.53l-3.57-1.99c-.4-.23-.9.06-.9.52v3.96c0 .45.49.74.89.52l3.56-1.99c.41-.23.41-.83 0-1.05Z"/></svg>