<svg viewBox="0 0 24 24" xmlns="http://www.w3.org/2000/svg"><path fill="currentColor" d="M8.99 2.39c-1.66 0-3 1.34-3 3v13.2c0 1.65 1.34 3 3 3h6c1.65 0 3-1.35 3-3V5.39c0-1.66-1.35-3-3-3h-6Zm0 3.6h6c.33 0 .6.26.6.6 0 .33-.27.6-.6.6h-6c-.34 0-.6-.27-.6-.6 0-.34.26-.6.6-.6Zm-.6 9c0-.34.26-.6.6-.6h6c.33 0 .6.26.6.6 0 .33-.27.6-.6.6h-6c-.34 0-.6-.27-.6-.6Zm0 2.4c0-.34.26-.6.6-.6h6c.33 0 .6.26.6.6 0 .33-.27.6-.6.6h-6c-.34 0-.6-.27-.6-.6Zm-6-9c0-1.33 1.07-2.4 2.4-2.4v12.6c0 .2.01.4.04.6h-.05c-1.33 0-2.4-1.08-2.4-2.4v-8.4Zm16.8 10.2c0 .2-.02.4-.05.6h.04c1.32 0 2.4-1.08 2.4-2.4v-8.4c0-1.33-1.08-2.4-2.4-2.4v12.6Z"/></svg>