<svg viewBox="0 0 24 24" xmlns="http://www.w3.org/2000/svg"><path fill="currentColor" d="M15 12h.74c.19 0 .39-.08.53-.22 .13-.15.21-.34.21-.54s-.08-.39-.22-.54c-.15-.14-.34-.22-.54-.22h-.75V8.23c0-.83-.28-1.61-.78-2.26 0 0 .01 0 .01 0h1.5c.19 0 .39-.08.53-.22 .13-.15.21-.34.21-.54s-.08-.4-.22-.54c-.15-.14-.34-.22-.54-.22h-1.5c-.2 0-.39.07-.54.21 -.14.14-.22.33-.22.53 0 0 0 0 0 .01 0 0 0 0 0 .01 -.65-.492-1.43-.78-2.253-.78h-.76v-.75c0-.597.23-1.17.65-1.6 .42-.43.99-.66 1.59-.66h4.5c.59 0 1.17.23 1.59.65 .42.42.65.98.65 1.58v9.009c0 1.24-1.01 2.25-2.25 2.25h-2.25v-3Zm5.99.62l1.46 4.39c.03.11.04.23.02.34 -.02.11-.07.22-.14.32h-.01c-.07.09-.16.17-.27.22 -.11.05-.23.08-.34.08h-4.88l-.49-1.47c-.01-.01-.01-.02-.01-.02 -.01-.01-.01-.02-.01-.02h.88c2.06 0 3.75-1.69 3.75-3.75v-.13Zm-6 4.5l1.46 4.39v0c.03.11.04.23.02.34 -.02.11-.07.22-.14.32h-.01c-.07.09-.16.17-.27.22 -.11.05-.23.08-.34.08H2.21c-.12 0-.24-.03-.35-.09 -.11-.06-.2-.14-.27-.23 -.08-.1-.12-.21-.14-.33 -.02-.12-.01-.24.03-.36l1.46-4.39v.12c0 2.06 1.68 3.75 3.75 3.75h4.49c2.067 0 3.75-1.69 3.75-3.75v-.13Zm-3.75 2.37h-4.5c-1.25 0-2.25-1.01-2.25-2.25v-9c0-.6.23-1.17.65-1.6 .42-.43.99-.66 1.59-.66h4.49c.59 0 1.17.23 1.59.65 .42.42.65.98.65 1.58v9c0 1.24-1.01 2.25-2.25 2.25Zm-3-10.5c-.2 0-.39.07-.54.21 -.14.14-.22.33-.22.53 0 .19.07.39.21.53 .14.13.33.21.53.21h1.5c.19 0 .38-.08.53-.22 .13-.15.21-.34.21-.54s-.08-.4-.22-.54c-.15-.14-.34-.22-.54-.22H8.2Zm0 6c-.2 0-.39.07-.54.21 -.14.14-.22.33-.22.53 0 .19.07.39.21.53 .14.13.33.21.53.21h1.5c.19 0 .38-.08.53-.22 .13-.15.21-.34.21-.54s-.08-.39-.22-.54c-.15-.14-.34-.22-.54-.22H8.2Z"/></svg>