<svg viewBox="0 0 24 24" xmlns="http://www.w3.org/2000/svg"><path fill="currentColor" d="M9 2c-.48 0-.94.04-1.38.13 -.3.05-.54.29-.59.59l-.36 1.85c-.03.14-.19.23-.33.18l-1.8-.62c-.29-.1-.61-.02-.81.21 -.61.68-1.09 1.49-1.39 2.39 -.1.28-.02.6.21.8l1.43 1.24c.11.09.11.27 0 .37l-1.44 1.24c-.23.19-.32.51-.22.8 .3.89.77 1.7 1.38 2.39 .2.22.51.31.8.21l1.79-.62c.14-.05.29.03.32.18l.35 1.85c.05.29.29.53.58.59 .44.08.9.13 1.37.13 .47 0 .93-.05 1.38-.14 .29-.06.53-.3.58-.6l.35-1.86c.02-.15.18-.24.32-.19l1.78.61c.28.09.6.01.8-.22 .6-.7 1.08-1.51 1.38-2.4 .09-.29.01-.61-.22-.81l-1.43-1.24c-.12-.1-.12-.28 0-.38l1.42-1.24c.22-.2.31-.52.21-.81 -.31-.9-.78-1.71-1.39-2.4 -.21-.23-.52-.32-.81-.22l-1.79.61c-.15.04-.3-.04-.33-.19l-.36-1.86c-.06-.3-.3-.54-.59-.6 -.45-.1-.92-.14-1.39-.14ZM7.25 9c0-.97.78-1.75 1.75-1.75 .96 0 1.74.78 1.74 1.74s-.79 1.74-1.75 1.74c-.97 0-1.75-.79-1.75-1.75Zm6.16 5.78c.12-.17.33-.22.52-.15l1.25.43c.26.09.54-.08.59-.35l.25-1.31c.03-.2.19-.36.39-.39 .18-.03.36-.04.55-.04 .18 0 .37.01.55.03 .2.02.35.18.39.38l.25 1.3c.05.27.33.43.59.34l1.25-.44c.19-.07.4-.02.52.14 .22.29.41.61.55.96 .07.18.01.4-.14.53l-1.01.87c-.21.18-.21.5 0 .68l1 .87c.15.13.21.34.13.53 -.15.34-.34.67-.56.96 -.13.16-.34.21-.53.15l-1.26-.44c-.27-.1-.55.07-.6.34l-.26 1.3c-.04.19-.2.35-.4.38 -.19.02-.37.03-.56.03 -.19 0-.38-.02-.56-.04 -.21-.03-.36-.19-.4-.39l-.26-1.31c-.06-.28-.34-.44-.6-.35l-1.26.43c-.2.06-.41.01-.53-.15 -.23-.3-.42-.62-.56-.97 -.08-.19-.02-.4.13-.54l1-.88c.2-.19.2-.51 0-.69l-1.01-.88c-.16-.14-.22-.35-.14-.54 .14-.35.33-.68.55-.97Zm4.83 2.71c0-.7-.56-1.26-1.26-1.26s-1.26.55-1.26 1.25c0 .69.55 1.25 1.25 1.25 .69 0 1.25-.56 1.25-1.26Z"/></svg>