<svg viewBox="0 0 24 24" xmlns="http://www.w3.org/2000/svg"><path fill="currentColor" d="M14.19 2.5c-.72-.16-1.45-.25-2.19-.26 -.76 0-1.49.09-2.21.25 -.32.06-.55.33-.59.64l-.18 1.52c-.05.43-.31.82-.69 1.04 -.39.22-.85.24-1.25.07l-1.41-.62c-.3-.13-.64-.06-.85.17C3.8 6.39 3.05 7.68 2.61 9.1c-.1.3.01.63.27.82l1.24.91c.35.26.56.67.56 1.11 0 .43-.21.85-.57 1.11l-1.25.91c-.26.18-.37.52-.28.82 .43 1.41 1.19 2.71 2.2 3.79 .21.23.55.3.84.17l1.4-.62c.4-.18.86-.15 1.24.06 .37.21.63.6.68 1.04l.16 1.52c.03.31.26.57.57.64 .45.1.91.18 1.37.22l.44-1.46c-.4-.84-.62-1.78-.62-2.77 0-.91.18-1.76.51-2.55 -1.43-.24-2.52-1.47-2.52-2.97 0-1.66 1.34-3.01 3-3.01 1.49 0 2.72 1.08 2.96 2.51 .78-.34 1.63-.52 2.54-.52 .67 0 1.32.1 1.94.29 .09-.16.21-.3.37-.41l1.24-.92c.25-.19.36-.53.27-.83 -.44-1.42-1.2-2.72-2.21-3.8 -.22-.24-.56-.31-.85-.18l-1.41.61c-.18.07-.37.11-.56.11 -.71-.01-1.3-.54-1.38-1.24l-.18-1.53c-.04-.32-.27-.58-.59-.65Zm5.08 9.79c-.49-.17-1-.27-1.532-.29 -.09-.01-.17-.01-.26-.01 -3.04 0-5.51 2.46-5.51 5.5 0 .96.25 1.87.68 2.66l-.67 2.18c-.12.38.24.74.62.62l2.18-.67c.78.43 1.69.68 2.66.68 3.03 0 5.5-2.47 5.5-5.51 0-2.42-1.56-4.47-3.72-5.21Zm-3.79 5.7h2c.27 0 .5.22.5.5 0 .27-.23.5-.51.5h-2.01c-.17 0-.31-.08-.4-.2 -.07-.09-.11-.2-.11-.31 0-.28.22-.51.5-.51Zm4-1.01h-4.01c-.15-.01-.28-.07-.37-.16 -.09-.09-.14-.21-.14-.35 0-.28.22-.51.5-.51h4c.27 0 .5.22.5.5 0 .27-.23.5-.51.5Z"/></svg>