<svg viewBox="0 0 24 24" xmlns="http://www.w3.org/2000/svg"><path fill="currentColor" d="M2 5.25C2 3.45 3.45 2 5.25 2h8c1.79 0 3.25 1.45 3.25 3.25V7.5h2.25c1.79 0 3.25 1.45 3.25 3.25v8c0 1.79-1.46 3.25-3.25 3.25h-8c-1.8 0-3.25-1.46-3.25-3.25V16.5H5.25C3.45 16.5 2 15.04 2 13.25v-8Zm13 0c0-.97-.79-1.75-1.75-1.75h-8c-.97 0-1.75.78-1.75 1.75v8c0 .96.78 1.75 1.75 1.75H7.5v-4.25c0-.64.18-1.24.5-1.74 .24-.39.55-.71.93-.97 .02-.02.05-.04.08-.06 .5-.32 1.09-.5 1.73-.5h4.25V5.23Zm1 9.73c-.02.02-.04.05-.06.08 -.26.37-.59.69-.97.93 -.51.31-1.1.5-1.74.5H8.98v2.25c0 .96.78 1.75 1.75 1.75h8c.96 0 1.75-.79 1.75-1.75v-8c0-.97-.79-1.75-1.75-1.75h-2.25v4.25c0 .63-.19 1.23-.5 1.73Z"/></svg>