<svg viewBox="0 0 24 24" xmlns="http://www.w3.org/2000/svg"><path fill="currentColor" d="M6.74 4h3.46c.41 0 .75.33.75.75 0 .37-.29.69-.65.74l-.11 0H6.72c-1.2 0-2.17.92-2.25 2.09l-.01.15v9.49c0 1.19.92 2.16 2.09 2.24l.15 0h9.5c1.19 0 2.16-.93 2.24-2.1l0-.16v-.5c0-.42.33-.75.75-.75 .37 0 .69.28.74.64l0 .1v.49c0 2-1.58 3.64-3.56 3.74l-.2 0H6.66c-2.01 0-3.65-1.58-3.75-3.56l-.01-.2v-9.5c0-2.01 1.57-3.65 3.55-3.75l.19-.01h3.46 -3.47Zm7.75 2.54v-2.8c0-.63.7-.97 1.18-.62l.08.06 5.99 5.75c.27.26.3.69.07.99l-.08.08 -6 5.75c-.46.43-1.19.15-1.27-.44l-.01-.11v-2.81l-.33-.01c-2.66-.01-4.93 1.08-6.87 3.3 -.5.56-1.43.13-1.31-.62 .82-5.15 3.59-8.05 8.18-8.56l.3-.04v-2.8 2.79Z"/></svg>