<svg viewBox="0 0 24 24" xmlns="http://www.w3.org/2000/svg"><path fill="currentColor" d="M2 7.25C2 5.45 3.45 4 5.25 4h13.5C20.54 4 22 5.45 22 7.25v7.25c0-1.94-1.57-3.5-3.5-3.5 -1.94 0-3.5 1.56-3.5 3.5 0 .97.4 1.86 1.05 2.5h-.28c-1.54 0-2.78 1.24-2.78 2.77v.1c0 .04 0 .08 0 .125H5.23c-1.8 0-3.25-1.46-3.25-3.25v-9.5ZM5 8v4c0 .55.44 1 1 1h5c.55 0 1-.45 1-1V8c0-.56-.45-1-1-1H6c-.56 0-1 .44-1 1Zm16 6.5c0 1.38-1.12 2.5-2.5 2.5 -1.39 0-2.5-1.12-2.5-2.5 0-1.39 1.11-2.5 2.5-2.5 1.38 0 2.5 1.11 2.5 2.5Zm2 5.375C23 21.425 21.71 23 18.5 23c-3.22 0-4.5-1.57-4.5-3.125v-.11c0-.98.79-1.78 1.77-1.78h5.45c.97 0 1.77.79 1.77 1.77v.1Z"/></svg>