<svg viewBox="0 0 24 24" xmlns="http://www.w3.org/2000/svg"><path fill="currentColor" d="M3.75 5c-.42 0-.75.33-.75.75V11c0 5 2.95 8.67 8.72 10.94 .17.06.37.06.54 0 5.76-2.28 8.72-5.95 8.72-10.95V5.74c0-.42-.34-.75-.75-.75 -2.67 0-5.26-.95-7.8-2.85 -.27-.2-.64-.2-.9 0 -2.55 1.9-5.14 2.85-7.8 2.85Zm6.32 10.5c-.3-.78-.49-1.72-.56-2.76H8.05c.22 1.18.97 2.19 2 2.75Zm1.52-.24c-.28-.62-.5-1.49-.58-2.52h1.94c-.08 1.02-.3 1.9-.58 2.51 -.17.37-.32.56-.41.65 -.1-.1-.24-.29-.41-.66Zm0-6.54c-.28.61-.5 1.48-.58 2.51h1.94c-.08-1.03-.3-1.91-.58-2.52 -.17-.38-.32-.57-.41-.66 -.1.09-.24.28-.41.65Zm2.32 6.77c.29-.78.48-1.72.55-2.76h1.45c-.23 1.18-.98 2.19-2.01 2.75Zm.55-4.26h1.45c-.23-1.19-.98-2.2-2.01-2.76 .29.77.48 1.71.55 2.75Zm-6.41 0H9.5c.06-1.04.26-1.99.55-2.76 -1.03.56-1.78 1.56-2.01 2.75Zm3.92-4.75c3.03 0 5.5 2.46 5.5 5.5 0 3.03-2.47 5.5-5.5 5.5 -3.04 0-5.5-2.47-5.5-5.5 0-3.04 2.46-5.5 5.5-5.5Z"/></svg>