<svg viewBox="0 0 24 24" xmlns="http://www.w3.org/2000/svg"><path fill="currentColor" d="M12.33 2.5c-.21-.14-.47-.14-.67 0C9.33 4.05 6.81 5.01 4.1 5.4c-.3.04-.52.29-.52.59v5.4c0 4.66 2.76 8.07 8.18 10.16 .13.05.29.05.43 0l.04-.02c-.92-1.14-1.47-2.58-1.47-4.15 0-.04 0-.07 0-.1 -2.13-.35-3.01-1.63-3.01-2.91 0-1 .8-1.8 1.8-1.8h3.27c1.18-1.12 2.77-1.8 4.52-1.8 1.08 0 2.09.25 2.99.71 0-.04 0-.08 0-.12v-5.4c0-.3-.22-.56-.52-.6 -2.72-.39-5.23-1.36-7.56-2.91Zm-.34 8.89c-1.33 0-2.4-1.08-2.4-2.4 0-1.33 1.07-2.4 2.4-2.4 1.32 0 2.4 1.07 2.4 2.4 0 1.32-1.08 2.39-2.4 2.39Zm10.8 6c0 2.98-2.42 5.4-5.4 5.4 -2.99 0-5.4-2.42-5.4-5.4 0-2.99 2.41-5.4 5.4-5.4 2.98 0 5.4 2.41 5.4 5.4Zm-4.8-2.4c0-.34-.27-.6-.6-.6 -.34 0-.6.26-.6.6v1.8h-1.8c-.34 0-.6.26-.6.6 0 .33.26.6.6.6h1.8v1.8c0 .33.26.6.6.6 .33 0 .6-.27.6-.6v-1.8h1.8c.33 0 .6-.27.6-.6 0-.34-.27-.6-.6-.6h-1.8v-1.8Z"/></svg>