<svg viewBox="0 0 24 24" xmlns="http://www.w3.org/2000/svg"><path fill="currentColor" d="M12.33 2.5c-.21-.14-.47-.14-.67 0C9.33 4.05 6.81 5.01 4.1 5.4c-.3.04-.52.29-.52.59v5.4c0 4.66 2.76 8.07 8.18 10.16 .13.05.29.05.43 0 5.41-2.09 8.18-5.5 8.18-10.16v-5.4c0-.3-.22-.56-.52-.6 -2.72-.39-5.23-1.36-7.56-2.91Zm-.34 8.89c-1.33 0-2.4-1.08-2.4-2.4 0-1.33 1.07-2.4 2.4-2.4 1.32 0 2.4 1.07 2.4 2.4 0 1.32-1.08 2.39-2.4 2.39Zm0 6c-3 0-4.2-1.51-4.2-3 0-1 .8-1.8 1.8-1.8h4.8c.99 0 1.8.8 1.8 1.8 0 1.49-1.2 3-4.2 3Z"/></svg>