<svg viewBox="0 0 24 24" xmlns="http://www.w3.org/2000/svg"><path fill="currentColor" d="M3 5.75c0-.42.33-.75.75-.75 2.66 0 5.25-.95 7.8-2.85 .26-.2.63-.2.9 0C14.992 4.05 17.58 5 20.25 5c.41 0 .75.33.75.75V11c0 5-2.96 8.67-8.73 10.94 -.18.06-.38.06-.55 0 -5.77-2.28-8.73-5.95-8.73-10.95V5.74ZM13 16c0-.56-.45-1-1-1 -.56 0-1 .44-1 1 0 .55.44 1 1 1 .55 0 1-.45 1-1Zm-2.25-6.25c0-.7.55-1.25 1.25-1.25 .69 0 1.25.55 1.25 1.25 0 .44-.25.73-.78 1.26l-.05.04c-.48.46-1.18 1.16-1.18 2.28 0 .41.33.75.75.75 .41 0 .75-.34.75-.75 0-.45.24-.75.77-1.28l.04-.05c.46-.47 1.17-1.17 1.17-2.29 0-1.52-1.24-2.75-2.75-2.75 -1.52 0-2.75 1.23-2.75 2.75 0 .41.33.75.75.75 .41 0 .75-.34.75-.75Z"/></svg>