<svg viewBox="0 0 24 24" xmlns="http://www.w3.org/2000/svg"><path fill="currentColor" d="M3 5.75c0-.42.33-.75.75-.75 2.66 0 5.25-.95 7.8-2.85 .26-.2.63-.2.9 0C14.992 4.05 17.58 5 20.25 5c.41 0 .75.33.75.75V11c0 .33-.02.67-.05.99 -1.01-.64-2.19-1-3.46-1 -3.59 0-6.5 2.91-6.5 6.5 0 1.65.61 3.15 1.62 4.3 -.12.04-.24.09-.36.14 -.18.06-.38.06-.55 0 -5.77-2.28-8.73-5.95-8.73-10.95V5.73ZM23 17.5c0-3.04-2.47-5.5-5.5-5.5 -3.04 0-5.5 2.46-5.5 5.5 0 3.03 2.46 5.5 5.5 5.5 3.03 0 5.5-2.47 5.5-5.5Zm-5 .5l0 2.5c0 .27-.23.5-.5.5 -.28 0-.5-.23-.5-.5l-.01-2.51h-2.51c-.28 0-.5-.23-.5-.5 0-.28.22-.5.49-.5h2.5l-.01-2.51c0-.28.22-.5.5-.5 .27 0 .5.22.5.5l0 2.5h2.49c.27 0 .49.22.49.5 0 .27-.23.5-.5.5h-2.5Z"/></svg>