<svg viewBox="0 0 24 24" xmlns="http://www.w3.org/2000/svg"><path fill="currentColor" d="M12.45 2.15C14.99 4.05 17.58 5 20.25 5c.41 0 .75.33.75.75V11c0 5-2.96 8.67-8.73 10.94 -.18.06-.38.06-.55 0 -5.77-2.28-8.73-5.95-8.73-10.95V5.74c0-.42.33-.75.75-.75 2.66 0 5.25-.95 7.8-2.85 .26-.2.63-.2.9 0ZM9.28 8.22c-.3-.3-.77-.3-1.06 0 -.27.26-.3.68-.08.97l.07.08 2.72 2.72 -2.73 2.72c-.3.29-.3.76 0 1.05 .29.29.76.29 1.05 0l2.72-2.73 2.72 2.72c.26.26.68.29.97.07l.08-.08c.26-.27.29-.69.07-.98l-.08-.09L13 11.94l2.72-2.73c.29-.3.29-.77 0-1.06 -.3-.3-.77-.3-1.06 0l-2.73 2.72L9.2 8.14Z"/></svg>