<svg viewBox="0 0 24 24" xmlns="http://www.w3.org/2000/svg"><path fill="currentColor" d="M3 5.75c0-.42.33-.75.75-.75 2.66 0 5.25-.95 7.8-2.85 .26-.2.63-.2.9 0C14.992 4.05 17.58 5 20.25 5c.41 0 .75.33.75.75V11c0 .18-.01.36-.02.53 -.64-.65-1.52-1.04-2.49-1.04 -1.94 0-3.5 1.56-3.5 3.5v.05c-1.15.23-2 1.24-2 2.45v5c0 .04 0 .09 0 .14 -.24.1-.49.2-.73.3 -.18.06-.38.06-.55 0 -5.77-2.28-8.73-5.95-8.73-10.95V5.73ZM16 15v-1c0-1.39 1.11-2.5 2.5-2.5 1.38 0 2.5 1.11 2.5 2.5v1h.5c.82 0 1.5.67 1.5 1.5v5c0 .82-.68 1.5-1.5 1.5h-6c-.83 0-1.5-.68-1.5-1.5v-5c0-.83.67-1.5 1.5-1.5h.5Zm1.5-1v1h2v-1c0-.56-.45-1-1-1 -.56 0-1 .44-1 1Zm2 5c0-.56-.45-1-1-1 -.56 0-1 .44-1 1 0 .55.44 1 1 1 .55 0 1-.45 1-1Z"/></svg>