<svg viewBox="0 0 24 24" xmlns="http://www.w3.org/2000/svg"><path fill="currentColor" d="M3.75 5c-.42 0-.75.33-.75.75V11c0 5 2.95 8.67 8.72 10.94 .17.06.37.06.54 0 .14-.06.28-.12.42-.18 -1.64-1.19-2.71-3.11-2.71-5.28 0-3.59 2.91-6.5 6.5-6.5 1.73 0 3.3.67 4.47 1.78 .01-.26.02-.53.02-.79V5.72c0-.42-.34-.75-.75-.75 -2.67 0-5.26-.95-7.8-2.85 -.27-.2-.64-.2-.9 0 -2.55 1.9-5.14 2.85-7.8 2.85ZM16.5 22c3.03 0 5.5-2.47 5.5-5.5 0-3.04-2.47-5.5-5.5-5.5 -3.04 0-5.5 2.46-5.5 5.5 0 3.03 2.46 5.5 5.5 5.5Zm-3.31-3.26c-.44-.65-.7-1.42-.7-2.25 0-2.21 1.79-4 4-4 .83 0 1.6.25 2.24.69l-5.56 5.55Zm1.06 1.06l5.55-5.56c.43.64.69 1.41.69 2.24 0 2.2-1.8 4-4 4 -.84 0-1.61-.26-2.25-.7Z"/></svg>