<svg viewBox="0 0 24 24" xmlns="http://www.w3.org/2000/svg"><path fill="currentColor" d="M11.1 4.04c.54-.07.94-.56.88-1.11 -.07-.55-.56-.95-1.11-.89 -5.01.55-8.89 4.79-8.89 9.93 0 5.52 4.47 10 10 10 5.14 0 9.38-3.89 9.93-8.89 .06-.55-.34-1.05-.89-1.11 -.55-.07-1.05.33-1.11.88 -.45 3.99-3.84 7.106-7.96 7.106 -4.42 0-8-3.59-8-8 0-4.12 3.11-7.51 7.1-7.96Zm3.65-1.66c-.54-.15-1.09.16-1.24.69 -.15.53.16 1.08.69 1.23 .28.08.56.17.84.28 .51.2 1.09-.04 1.3-.55 .2-.52-.04-1.1-.55-1.31 -.35-.15-.7-.27-1.06-.37Zm2.58 2.3c.37-.41 1-.44 1.41-.07 .21.19.41.39.6.6 .37.4.34 1.03-.07 1.41 -.41.37-1.04.34-1.42-.07 -.16-.17-.32-.34-.49-.49 -.41-.38-.44-1.01-.07-1.42Zm-6.35 1.3c.55 0 1 .44 1 1v5h3c.55 0 1 .44 1 1 0 .55-.45 1-1 1h-4c-.56 0-1-.45-1-1V6.97c0-.56.44-1 1-1Zm8.93 1.62c.51-.21 1.09.03 1.3.54 .1.26.2.53.28.8 .02.08.05.17.07.25 .14.53-.17 1.08-.7 1.23 -.54.14-1.09-.17-1.24-.7 -.02-.07-.04-.14-.07-.21 -.07-.22-.15-.44-.24-.65 -.21-.52.03-1.1.54-1.31Z"/></svg>