<svg viewBox="0 0 24 24" xmlns="http://www.w3.org/2000/svg"><path fill="currentColor" d="M15.5 5.5C15.5 3.56 13.93 2 12 2c-1.94 0-3.5 1.56-3.5 3.5C8.5 7.43 10.06 9 12 9c1.93 0 3.5-1.57 3.5-3.5ZM8.75 10C7.5 10 6.5 11 6.5 12.25v.5c0 .41.33.75.75.75h9.5c.41 0 .75-.34.75-.75v-.5C17.5 11 16.49 10 15.25 10h-6.5Zm-2.26 6.99c0 .55-.45.99-1 .99 -.56 0-1-.45-1-1 0-.56.44-1 .99-1s.99.44.99.99Zm-1 4.49c.55 0 .99-.45.99-1 0-.56-.45-1-1-1 -.56 0-1 .44-1 .99s.44.99.99.99Zm4.61-4.97c-.27.06-.52.21-.67.32 -.33.25-.8.19-1.06-.13 -.26-.33-.2-.8.12-1.06 .26-.21.71-.48 1.24-.61 .55-.14 1.23-.12 1.88.32 .78.53 1.04 1.46.91 2.23 -.05.27-.15.54-.3.79 .17.19.3.42.39.67 .24.7.13 1.58-.48 2.18 -.6.59-1.4.76-2.09.73 -.68-.04-1.38-.29-1.86-.7 -.32-.28-.35-.75-.07-1.06 .27-.32.74-.35 1.05-.07 .17.15.52.3.93.32 .4.02.73-.09.94-.3 .14-.15.2-.4.11-.63 -.08-.21-.23-.35-.5-.35h-.51c-.42 0-.76-.34-.76-.75 0-.42.33-.75.75-.75h.5c.11 0 .17-.04.21-.08 .05-.05.1-.15.12-.29 .05-.31-.08-.62-.29-.76 -.22-.15-.45-.17-.7-.11Zm6.38-1.53c-.87 0-1.57.37-1.99 1.08 -.39.64-.52 1.49-.52 2.41 0 .91.12 1.77.51 2.41 .42.71 1.11 1.08 1.98 1.08 .86 0 1.55-.37 1.98-1.08 .38-.65.51-1.5.51-2.43 0-.93-.13-1.78-.52-2.43 -.43-.72-1.13-1.08-1.99-1.08Zm-1.01 3.5c0-.84.12-1.36.29-1.65 .13-.23.31-.36.7-.36 .38 0 .56.12.7.35 .17.29.29.81.29 1.64 0 .83-.13 1.35-.3 1.64 -.14.22-.32.35-.71.35 -.39 0-.57-.13-.71-.36 -.18-.3-.3-.82-.3-1.65Z"/></svg>