<svg viewBox="0 0 24 24" xmlns="http://www.w3.org/2000/svg"><path fill="currentColor" d="M15 3c-.56-.01-1 .44-1 .99s.44 1 1 1l2.49 0c.82 0 1.5.67 1.5 1.5v10.99c0 .82-.68 1.5-1.5 1.5h-2.5c-.56 0-1 .44-1 1 0 .55.44 1 1 1h2.49c1.93 0 3.5-1.57 3.5-3.5v-11c0-1.94-1.57-3.5-3.5-3.5l-2.5-.01ZM4.99 6.5c0-.83.67-1.5 1.5-1.5h2.5c.55 0 1-.45 1-1 0-.56-.45-1-1-1h-2.5c-1.94 0-3.5 1.56-3.5 3.5v10.99c0 1.93 1.56 3.5 3.5 3.5h2.5c.55 0 1-.45 1-1 0-.56-.45-1-1-1h-2.5c-.83 0-1.5-.68-1.5-1.5v-11Zm7.5.49c0-.56-.45-1-1-1 -.56 0-1 .44-1 1v6c0 .55.44 1 1 1h4.49c.55 0 1-.45 1-1 0-.56-.45-1-1-1h-3.5v-5Z"/></svg>