<svg viewBox="0 0 24 24" xmlns="http://www.w3.org/2000/svg"><path fill="currentColor" d="M21 6.25C21 4.45 19.54 3 17.75 3H6.25C4.45 3 3 4.45 3 6.25v11.5C3 19.54 4.45 21 6.25 21h11.5c1.79 0 3.25-1.46 3.25-3.25V6.25ZM7.49 8.74c.34-.39.91-.75 1.75-.75 1.15 0 1.89.79 2.15 1.66 .25.84.09 1.89-.62 2.61 -.25.24-.54.47-.8.66l-.05.03c-.28.21-.53.41-.75.63 -.26.25-.47.53-.59.88h2.13c.41 0 .75.33.75.75 0 .41-.34.75-.75.75H7.7c-.2 0-.39-.08-.54-.22 -.15-.15-.22-.34-.22-.54 0-1.25.52-2.09 1.14-2.71 .29-.3.61-.55.89-.76l0-.01c.28-.23.5-.4.68-.58 .27-.28.36-.73.24-1.13 -.12-.39-.37-.6-.72-.6 -.36 0-.54.13-.65.25 -.06.06-.1.13-.13.18 -.02.02-.02.04-.03.04l-.01 0c-.13.38-.55.6-.94.47 -.4-.13-.62-.55-.5-.94l.03-.1c.01-.05.04-.11.08-.18 .07-.14.18-.33.34-.51Zm5.75-.75c.41 0 .75.33.75.75v2.74h1.5V8.73c0-.42.33-.75.75-.75 .41 0 .75.33.75.75v6.47c0 .41-.34.75-.75.75 -.42 0-.75-.34-.75-.75v-2.23h-2.25c-.42 0-.75-.34-.75-.75v-3.5c0-.42.33-.75.75-.75Z"/></svg>