<svg viewBox="0 0 24 24" xmlns="http://www.w3.org/2000/svg"><path fill="currentColor" d="M8.5 2C4.91 2 2 4.91 2 8.5c0 3.42 2.65 6.23 6.01 6.48 .25-3.73 3.23-6.72 6.96-6.97 -.25-3.37-3.06-6.02-6.49-6.02Zm2.78 5.78l-3.01 2.99c-.15.14-.34.21-.54.21 -.2-.01-.39-.08-.54-.22l-1.5-1.51c-.3-.3-.3-.77 0-1.07 .29-.3.76-.3 1.06 0l.96.97 2.46-2.47c.29-.3.76-.3 1.06 0 .29.29.29.76 0 1.06Zm-2.29 7.71c0-3.59 2.91-6.5 6.5-6.5 3.58 0 6.5 2.91 6.5 6.5 0 3.58-2.92 6.5-6.5 6.5 -3.59 0-6.5-2.92-6.5-6.5Zm4.21-2.27c-.3.29-.29.76 0 1.06l1.21 1.2 -1.22 1.21c-.3.29-.3.76 0 1.06 .29.29.76.29 1.06 0l1.21-1.22 1.21 1.21c.29.29.76.29 1.06 0 .29-.3.29-.77 0-1.07l-1.22-1.22 1.21-1.21c.29-.3.29-.77 0-1.07 -.3-.3-.77-.3-1.07-.01l-1.218 1.2 -1.23-1.21c-.3-.3-.77-.29-1.07 0Z"/></svg>