<svg viewBox="0 0 24 24" xmlns="http://www.w3.org/2000/svg"><path fill="currentColor" d="M6.25 3C4.45 3 3 4.45 3 6.25v5.77c1.01-.65 2.21-1.03 3.5-1.03 1.74 0 3.33.68 4.5 1.81 -.01-.03-.01-.05-.01-.07v-6c0-.42.33-.75.75-.75 .41 0 .75.33.75.75v5.25h3.75c.41 0 .75.33.75.75 0 .41-.34.75-.75.75h-4.5c-.05 0-.1-.01-.14-.02 .86 1.1 1.38 2.49 1.38 4.01 0 1.28-.375 2.48-1.03 3.5h5.77c1.79 0 3.25-1.46 3.25-3.25V6.22c0-1.8-1.46-3.25-3.25-3.25H6.22ZM12 17.5c0 3.03-2.47 5.5-5.5 5.5C3.46 23 1 20.53 1 17.5 1 14.46 3.46 12 6.5 12c3.03 0 5.5 2.46 5.5 5.5Zm-3.15-1.86c-.2-.2-.52-.2-.71 0l-2.65 2.64 -.9-.9c-.2-.2-.52-.2-.71 0 -.2.19-.2.51 0 .7l1.25 1.25c.19.19.51.19.7 0l3-3c.19-.2.19-.52 0-.71Z"/></svg>