<svg viewBox="0 0 24 24" xmlns="http://www.w3.org/2000/svg"><path fill="currentColor" d="M6.5 12c3.03 0 5.5 2.46 5.5 5.5 0 3.03-2.47 5.5-5.5 5.5C3.46 23 1 20.53 1 17.5 1 14.46 3.46 12 6.5 12Zm0 7.88c-.35 0-.63.27-.63.62 0 .34.27.62.62.62 .34 0 .62-.28.62-.63s-.28-.63-.63-.63ZM17.75 3C19.54 3 21 4.45 21 6.25v11.5c0 1.79-1.46 3.25-3.25 3.25l-5.78 0c.64-1.02 1.02-2.22 1.02-3.51 0-1.52-.52-2.91-1.39-4.02l.06 0 .07 0h4.49l.1-.01c.36-.05.64-.37.64-.75s-.29-.7-.65-.75l-.11-.01h-3.75V6.7l-.01-.11c-.05-.37-.37-.65-.75-.65s-.7.28-.75.64l-.01.1v6l0 .06c-1.17-1.13-2.76-1.82-4.51-1.82 -1.29 0-2.5.37-3.51 1.02l0-5.78c0-1.8 1.45-3.25 3.25-3.25h11.5ZM6.5 14c-1.05 0-1.87.81-1.86 1.95 0 .27.22.49.5.49 .27-.01.49-.23.49-.51 -.01-.58.35-.95.85-.95 .47 0 .85.39.85.94 0 .22-.08.39-.32.67l-.1.11 -.27.29c-.49.54-.68.89-.68 1.46 0 .27.22.5.5.5 .27 0 .5-.23.5-.5 0-.24.07-.41.32-.7l.1-.12 .26-.3c.47-.54.66-.89.66-1.45 0-1.11-.83-1.95-1.86-1.95Z"/></svg>