<svg viewBox="0 0 24 24" xmlns="http://www.w3.org/2000/svg"><path fill="currentColor" d="M6.25 3C4.45 3 3 4.45 3 6.25v5.77c1.01-.65 2.21-1.03 3.5-1.03 1.74 0 3.33.68 4.5 1.81 -.01-.03-.01-.05-.01-.07v-6c0-.42.33-.75.75-.75 .41 0 .75.33.75.75v5.25h3.75c.41 0 .75.33.75.75 0 .41-.34.75-.75.75h-4.5c-.05 0-.1-.01-.14-.02 .86 1.1 1.38 2.49 1.38 4.01 0 1.28-.375 2.48-1.03 3.5h5.77c1.79 0 3.25-1.46 3.25-3.25V6.22c0-1.8-1.46-3.25-3.25-3.25H6.22ZM12 17.5c0-3.04-2.47-5.5-5.5-5.5C3.46 12 1 14.46 1 17.5 1 20.53 3.46 23 6.5 23c3.03 0 5.5-2.47 5.5-5.5ZM7 18l0 2.5c0 .27-.23.5-.5.5 -.28 0-.5-.23-.5-.5l-.01-2.51H3.48c-.28 0-.5-.23-.5-.5 0-.28.22-.5.5-.5h2.5l-.01-2.51c0-.28.22-.5.5-.5 .27 0 .5.22.5.5l0 2.5h2.5c.27 0 .49.22.49.5 0 .27-.23.5-.5.5H6.95Z"/></svg>