<svg viewBox="0 0 24 24" xmlns="http://www.w3.org/2000/svg"><path fill="currentColor" d="M17.75 3C19.54 3 21 4.45 21 6.25v11.5c0 1.79-1.46 3.25-3.25 3.25h-5c.16-.39.24-.79.24-1.19 0-.92-.54-1.74-1.33-2.11 .5-.5.82-1.2.82-1.97 0-1.52-1.24-2.75-2.75-2.75 -.74 0-1.41.29-1.91.76 -.42-1.32-1.65-2.27-3.1-2.27 -.65 0-1.25.18-1.75.51V6.21c0-1.8 1.45-3.25 3.25-3.25h11.5Zm-6 3c-.42 0-.75.33-.75.75v6c0 .41.33.75.75.75h4.49c.41 0 .75-.34.75-.75 0-.42-.34-.75-.75-.75h-3.75V6.75c0-.42-.34-.75-.75-.75Zm-7 11C5.99 17 7 15.99 7 14.75c0-1.25-1.01-2.25-2.25-2.25 -1.25 0-2.25 1-2.25 2.25 0 1.24 1 2.25 2.25 2.25Zm0 6c2.67 0 3.75-1.57 3.75-3.125C8.5 18.835 7.78 18 6.89 18H2.6c-.89 0-1.61.83-1.61 1.875C.99 21.435 2.06 23 4.74 23Zm6.75-7.25c0 .96-.79 1.75-1.75 1.75 -.97 0-1.75-.79-1.75-1.75 0-.97.78-1.75 1.75-1.75 .96 0 1.75.78 1.75 1.75Zm-2.59 6.24c.4-.66.58-1.41.58-2.13 0-.48-.12-.96-.33-1.375h1.54c.71 0 1.28.58 1.28 1.31 0 1.08-.86 2.18-3 2.18 -.03 0-.06-.01-.09-.01Z"/></svg>