<svg viewBox="0 0 24 24" xmlns="http://www.w3.org/2000/svg"><path fill="currentColor" d="M7 5v2H5.5C4.67 7 4 7.67 4 8.5V18c0 2.2 1.79 4 4 4h4.16c-.31-.65-.2-1.45.34-1.99l.7-.71c-.15-.42-.23-.85-.23-1.31v-.34c-1.19-.57-2-1.77-2-3.17s.81-2.61 2-3.17V4.97c0-.34-.06-.66-.16-.96 .27-.34.69-.55 1.15-.55 .82 0 1.5.67 1.5 1.5v2h-1v4c1.93 0 3.5 1.56 3.5 3.5l-.01.02 2-2.01V8.44c0-.83-.68-1.5-1.5-1.5h-1.5v-2c0-1.66-1.35-3-3-3 -.77 0-1.47.28-2 .76 -.54-.48-1.24-.77-2-.77 -1.66 0-3 1.34-3 3Zm1.5 2V5c0-.83.67-1.5 1.5-1.5 .82 0 1.5.67 1.5 1.5v2h-3Zm6 10c1.38 0 2.5-1.12 2.5-2.5 0-1.39-1.12-2.5-2.5-2.5 -1.39 0-2.5 1.11-2.5 2.5 0 1.38 1.11 2.5 2.5 2.5Zm0-3.5c.55 0 1 .44 1 1 0 .55-.45 1-1 1 -.56 0-1-.45-1-1 0-.56.44-1 1-1Zm6 9.5c1.38 0 2.5-1.12 2.5-2.5 0-1.39-1.12-2.5-2.5-2.5 -1.39 0-2.5 1.11-2.5 2.5 0 1.38 1.11 2.5 2.5 2.5Zm0-3.5c.55 0 1 .44 1 1 0 .55-.45 1-1 1 -.56 0-1-.45-1-1 0-.56.44-1 1-1Zm1.28-5.22c.29-.3.29-.77 0-1.07 -.3-.3-.77-.3-1.07 0l-7.5 7.5c-.3.29-.3.76 0 1.06 .29.29.76.29 1.06 0l7.5-7.5Z"/></svg>