<svg viewBox="0 0 24 24" xmlns="http://www.w3.org/2000/svg"><path fill="currentColor" d="M7 7V5c0-1.66 1.34-3 3-3 .76 0 1.46.28 2 .76 .53-.48 1.23-.77 2-.77 1.65 0 3 1.34 3 3v2h1.5c.82 0 1.5.67 1.5 1.5v4.31l-.97-.96c-.57-.56-1.33-.87-2.12-.87l-2.42 0V6.96h1v-2c0-.83-.68-1.5-1.5-1.5 -.47 0-.89.21-1.16.54 .1.3.15.62.15.95v6.17c-1.17.41-2 1.51-2 2.82v2.93c0 .78.3 1.53.85 2.09l2.91 2.96H7.96c-2.21 0-4-1.8-4-4v-9.5c0-.83.67-1.5 1.5-1.5h1.5Zm1.5-2v2h3V5c0-.83-.68-1.5-1.5-1.5 -.83 0-1.5.67-1.5 1.5Zm4.07 13.33l4 4.07c.78.79 2.06.8 2.85.01l2.99-3c.78-.79.77-2.06-.02-2.83l-4.08-4.02c-.38-.37-.89-.58-1.42-.58l-2.92 0c-1.11 0-2.01.89-2.01 1.99v2.93c0 .52.2 1.02.57 1.39Zm3.42-3.34c0 .55-.45 1-1 1 -.56 0-1-.45-1-1 0-.56.44-1 .99-1s.99.44.99 1Z"/></svg>