<svg viewBox="0 0 24 24" xmlns="http://www.w3.org/2000/svg"><path fill="currentColor" d="M7 7V5c0-1.66 1.34-3 3-3 .76 0 1.46.28 2 .76 .53-.48 1.23-.77 2-.77 1.65 0 3 1.34 3 3v2h1.5c.82 0 1.5.67 1.5 1.5v2.99c-.77-.33-1.62-.5-2.5-.5 -1.09 0-2.11.26-3 .73V6.97h1v-2c0-.83-.68-1.5-1.5-1.5 -.47 0-.89.21-1.16.54 .1.3.15.62.15.95v7.8c-1.24 1.18-2 2.84-2 4.69 0 1.74.68 3.33 1.8 4.5H7.98c-2.21 0-4-1.8-4-4v-9.5c0-.83.67-1.5 1.5-1.5h1.5Zm1.5-2v2h3V5c0-.83-.68-1.5-1.5-1.5 -.83 0-1.5.67-1.5 1.5ZM23 17.5c0 3.03-2.47 5.5-5.5 5.5 -3.04 0-5.5-2.47-5.5-5.5 0-3.04 2.46-5.5 5.5-5.5 3.03 0 5.5 2.46 5.5 5.5Zm-7.15-2.36c-.2-.2-.52-.2-.71 0 -.2.19-.2.51 0 .7l1.64 1.64 -1.65 1.64c-.2.19-.2.51 0 .7 .19.19.51.19.7 0l1.64-1.65 1.64 1.64c.19.19.51.19.7 0 .19-.2.19-.52 0-.71l-1.65-1.65 1.64-1.65c.19-.2.19-.52 0-.71 -.2-.2-.52-.2-.71 0l-1.65 1.64 -1.65-1.65Z"/></svg>