<svg viewBox="0 0 24 24" xmlns="http://www.w3.org/2000/svg"><path fill="currentColor" d="M7 7V5c0-1.66 1.34-3 3-3 .76 0 1.46.28 2 .76 .53-.48 1.23-.77 2-.77 1.65 0 3 1.34 3 3v2h1.5c.82 0 1.5.67 1.5 1.5v9.5c0 1.4-.73 2.64-1.83 3.35l-.55-.1c-.78-.14-1.58-.57-2.18-1.18 -.61-.61-.96-1.35-.96-2.09v-11h1v-2c0-.83-.68-1.5-1.5-1.5 -.47 0-.89.21-1.16.54 .1.3.15.62.15.95v13c0 1.22.58 2.32 1.38 3.14 .32.32.68.61 1.07.85H7.95c-2.21 0-4-1.8-4-4v-9.5c0-.83.67-1.5 1.5-1.5h1.5Zm1.5-2v2h3V5c0-.83-.68-1.5-1.5-1.5 -.83 0-1.5.67-1.5 1.5Z"/></svg>