<svg viewBox="0 0 24 24" xmlns="http://www.w3.org/2000/svg"><g fill="currentColor" fill-rule="evenodd"><path d="M7 5v2H5.5C4.67 7 4 7.67 4 8.5V18c0 2.2 1.79 4 4 4h4.8c-1.13-1.17-1.81-2.76-1.81-4.5 0-1.85.76-3.51 2-4.7V4.99c0-.34-.06-.66-.16-.96 .27-.34.69-.55 1.15-.55 .82 0 1.5.67 1.5 1.5v2h-1v4.73c.89-.47 1.91-.74 3-.74 .88 0 1.73.17 2.5.49v-3c0-.83-.68-1.5-1.5-1.5h-1.5v-2c0-1.66-1.35-3-3-3 -.77 0-1.47.28-2 .76 -.54-.48-1.24-.77-2-.77 -1.66 0-3 1.34-3 3Zm1.5 2V5c0-.83.67-1.5 1.5-1.5 .82 0 1.5.67 1.5 1.5v2h-3Z"/><path d="M23 17.5c0-3.04-2.47-5.5-5.5-5.5 -3.04 0-5.5 2.46-5.5 5.5 0 3.03 2.46 5.5 5.5 5.5 3.03 0 5.5-2.47 5.5-5.5Zm-9 0c0-.28.22-.5.5-.5h4.79l-1.65-1.65c-.2-.2-.2-.52 0-.71 .19-.2.51-.2.7 0l2.5 2.5c.19.19.19.51 0 .7l-2.5 2.5c-.2.19-.52.19-.71 0 -.2-.2-.2-.52 0-.71l1.64-1.65h-4.8c-.28 0-.5-.23-.5-.5Z"/></g></svg>