<svg viewBox="0 0 24 24" xmlns="http://www.w3.org/2000/svg"><path fill="currentColor" d="M7 5v2H5.5C4.67 7 4 7.67 4 8.5V18c0 2.2 1.79 4 4 4h4.8c-1.13-1.17-1.81-2.76-1.81-4.5 0-1.85.76-3.51 2-4.7V4.99c0-.34-.06-.66-.16-.96 .27-.34.69-.55 1.15-.55 .82 0 1.5.67 1.5 1.5v2h-1v4.73c.89-.47 1.91-.74 3-.74 .88 0 1.73.17 2.5.49v-3c0-.83-.68-1.5-1.5-1.5h-1.5v-2c0-1.66-1.35-3-3-3 -.77 0-1.47.28-2 .76 -.54-.48-1.24-.77-2-.77 -1.66 0-3 1.34-3 3Zm3-1.5c.82 0 1.5.67 1.5 1.5v2h-3V5c0-.83.67-1.5 1.5-1.5Zm13 14c0 3.03-2.47 5.5-5.5 5.5 -3.04 0-5.5-2.47-5.5-5.5 0-3.04 2.46-5.5 5.5-5.5 3.03 0 5.5 2.46 5.5 5.5Zm-6.09-2.41c-.1-.07-.21-.1-.32-.1 -.09 0-.16.01-.23.05 -.08.03-.14.07-.19.13 -.06.05-.1.12-.14.19 -.04.07-.05.15-.05.23v3.75c0 .08.01.16.04.23s.07.14.13.2c.05.05.12.1.19.13s.14.04.22.04c.06 0 .11-.01.16-.03 .01-.01.02-.02.04-.02 .03-.02.07-.04.11-.07l2.8-1.92c.06-.05.11-.1.15-.16 .01-.03.02-.05.04-.07 .04-.1.07-.2.07-.3 0-.11-.03-.21-.08-.3 -.05-.1-.12-.17-.21-.23l-2.81-1.85Z"/></svg>