<svg viewBox="0 0 24 24" xmlns="http://www.w3.org/2000/svg"><path fill="currentColor" d="M8.96 3.5h-.47v2h.46c.41 0 .75.33.75.75 0 .41-.34.75-.75.75h-.72c-.7 0-1.25-.56-1.25-1.25v-2.5c0-.7.55-1.25 1.25-1.25h.71c.41 0 .75.33.75.75 0 .41-.34.75-.75.75ZM11.49 2c-.42 0-.75.33-.75.75 0 .41.33.75.75.75h1c.41 0 .75-.34.75-.75 0-.42-.34-.75-.75-.75h-1Zm3.53 0c-.42 0-.75.33-.75.75 0 .41.33.75.75.75h.46v2h-.47c-.42 0-.75.33-.75.75 0 .41.33.75.75.75h.71c.69 0 1.25-.56 1.25-1.25v-2.5c0-.7-.56-1.25-1.25-1.25H15Zm-3.54 3.5c-.42 0-.75.33-.75.75 0 .41.33.75.75.75h1c.41 0 .75-.34.75-.75 0-.42-.34-.75-.75-.75h-1ZM4.73 8c.41 0 .75.33.75.75v10c0 .96.78 1.75 1.75 1.75h9.5c.96 0 1.75-.79 1.75-1.75v-10c0-.42.33-.75.75-.75 .41 0 .75.33.75.75v10c0 1.79-1.46 3.25-3.25 3.25h-9.5c-1.8 0-3.25-1.46-3.25-3.25v-10c0-.42.33-.75.75-.75Zm3.5 6c-.7 0-1.25.55-1.25 1.25v2.5c0 .69.55 1.25 1.25 1.25h7.5c.69 0 1.25-.56 1.25-1.25v-2.5c0-.7-.56-1.25-1.25-1.25h-7.5Zm.25-4.5h.46c.41 0 .75-.34.75-.75 0-.42-.34-.75-.75-.75h-.72c-.7 0-1.25.55-1.25 1.25v2.5c0 .69.55 1.25 1.25 1.25h.71c.41 0 .75-.34.75-.75 0-.42-.34-.75-.75-.75h-.47v-2Zm2.25-.75c0-.42.33-.75.75-.75h1c.41 0 .75.33.75.75 0 .41-.34.75-.75.75h-1c-.42 0-.75-.34-.75-.75Zm3.53 0c0-.42.33-.75.75-.75h.71c.69 0 1.25.55 1.25 1.25v2.5c0 .69-.56 1.25-1.25 1.25H15c-.42 0-.75-.34-.75-.75 0-.42.33-.75.75-.75h.46v-2h-.47c-.42 0-.75-.34-.75-.75Zm-3.54 3.5c0-.42.33-.75.75-.75h1c.41 0 .75.33.75.75 0 .41-.34.75-.75.75h-1c-.42 0-.75-.34-.75-.75Z"/></svg>