<svg viewBox="0 0 24 24" xmlns="http://www.w3.org/2000/svg"><path fill="currentColor" d="M21.49 4.98l-2.02 2.01c-.33-.48-.7-.94-1.12-1.36 -.43-.43-.88-.8-1.36-1.12L19 2.49c.68-.69 1.78-.69 2.47 0 .68.68.68 1.78 0 2.47ZM5.28 13.71c.29.29.29.76 0 1.06l-2 2c-.3.29-.77.29-1.07 0 -.3-.3-.3-.77 0-1.07l2-2c.29-.3.76-.3 1.06 0Zm2.5 3.56c.29-.3.29-.77 0-1.07 -.3-.3-.77-.3-1.07 0l-2 2c-.3.29-.3.76 0 1.06 .29.29.76.29 1.06 0l2-2Zm2.49 2.5c.29-.3.29-.77 0-1.07 -.3-.3-.77-.3-1.07 0l-2 2c-.3.29-.3.76 0 1.06 .29.29.76.29 1.06 0l1.99-2ZM3.72 7.25c.68-.69 1.79-.69 2.47-.001l10.55 10.55c.68.68.68 1.79 0 2.47 -.69.68-1.8.68-2.48 0L3.7 9.7c-.69-.69-.69-1.8-.001-2.48Zm3.18-.71c-.14-.14-.28-.26-.44-.36 3.13-2.99 8.09-2.94 11.17.13 3.07 3.07 3.12 8.03.14 11.16 -.1-.14-.21-.28-.33-.4L6.88 6.51Z"/></svg>