<svg viewBox="0 0 24 24" xmlns="http://www.w3.org/2000/svg"><g fill="currentColor"><path d="M3.59 6.6c0-1.66 1.34-3 3-3h10.8c1.65 0 3 1.34 3 3v10.79c0 1.65-1.35 3-3 3h-3.11c-.09-.25-.23-.48-.43-.68l-2.4-2.4c.33-.71.52-1.5.52-2.33 0-2.99-2.42-5.4-5.4-5.4 -1.12 0-2.15.33-3 .9V6.57Zm12 1.19v8.4c0 .33.26.6.6.6 .33 0 .6-.27.6-.6v-8.4c0-.34-.27-.6-.6-.6 -.34 0-.6.26-.6.6Zm-4.8 7.2c0 .94-.32 1.81-.84 2.51l3.06 3.06c.23.23.23.61 0 .84 -.24.23-.62.23-.85 0l-3.07-3.07c-.71.52-1.58.83-2.52.83 -2.32 0-4.2-1.89-4.2-4.2 0-2.32 1.88-4.2 4.2-4.2 2.31 0 4.2 1.88 4.2 4.2Zm-1.2 0c0-1.66-1.35-3-3-3 -1.66 0-3 1.34-3 3 0 1.65 1.34 3 3 3 1.65 0 3-1.35 3-3Z"/><path fill="currentColor" fill-rule="evenodd" d="M14.22 20.5l-.03-.07c-.09-.24-.22-.45-.41-.64l-2.45-2.45 .03-.07c.33-.7.51-1.47.51-2.29 0-2.93-2.38-5.3-5.3-5.3 -1.09 0-2.11.32-2.95.89l-.16.1v-4.1c0-1.72 1.38-3.1 3.1-3.1h10.8c1.71 0 3.1 1.38 3.1 3.1v10.79c0 1.71-1.39 3.1-3.1 3.1h-3.18ZM3.59 6.6c-.001-1.66 1.34-3 3-3h10.8c1.65 0 3 1.34 3 3v10.79c0 1.65-1.35 3-3 3h-3.11c-.09-.25-.23-.48-.43-.68l-2.4-2.4c.33-.71.52-1.5.52-2.33 0-2.99-2.42-5.4-5.4-5.4 -1.07 0-2.07.3-2.9.84 -.04.02-.07.04-.1.06V6.57Zm12.1 1.19v8.4c0 .27.22.5.5.5 .27 0 .5-.23.5-.5v-8.4c0-.28-.23-.5-.5-.5 -.28 0-.5.22-.5.5Zm-5.61 9.7c.5-.71.8-1.58.8-2.51 0-2.38-1.93-4.3-4.3-4.3 -2.38 0-4.3 1.92-4.3 4.3 0 2.37 1.92 4.3 4.3 4.3 .93 0 1.79-.3 2.5-.81l2.99 2.99c.27.27.71.27.99 0 .27-.28.27-.72 0-.99l-3-3Zm-.98.85l3.06 3.06c.23.23.61.23.84 0 .23-.24.23-.62 0-.85l-3.07-3.07c.52-.71.83-1.58.83-2.52 0-2.32-1.89-4.2-4.2-4.2 -2.32 0-4.2 1.88-4.2 4.2 0 2.31 1.88 4.2 4.2 4.2 .94 0 1.81-.32 2.51-.84Zm.38-3.37c0-1.61-1.3-2.9-2.9-2.9 -1.61 0-2.9 1.29-2.9 2.9 0 1.6 1.29 2.9 2.9 2.9 1.6 0 2.9-1.3 2.9-2.9Zm6.1 1.2v-8.4c0-.34.26-.6.6-.6 .33 0 .6.26.6.6v8.4c0 .33-.27.6-.6.6 -.34 0-.6-.27-.6-.6Zm-9-4.2c1.65 0 3 1.34 3 3 0 1.65-1.35 3-3 3 -1.66 0-3-1.35-3-3 0-1.66 1.34-3 3-3Z"/></g></svg>