<svg viewBox="0 0 24 24" xmlns="http://www.w3.org/2000/svg"><g fill="currentColor"><path d="M3.59 6.6c0-1.66 1.34-3 3-3h10.8c1.65 0 3 1.34 3 3v8.39c0-2.99-2.42-5.4-5.4-5.4 -2.99 0-5.4 2.41-5.4 5.4 0 2.98 2.41 5.4 5.4 5.4l-8.4 0c-1.66 0-3-1.35-3-3V6.59Zm3.6 1.19v8.4c0 .33.26.6.6.6 .33 0 .6-.27.6-.6v-8.4c0-.34-.27-.6-.61-.6 -.34 0-.6.26-.6.6Zm12 7.2c0 .94-.32 1.81-.84 2.51l3.06 3.06c.23.23.23.61 0 .84 -.24.23-.62.23-.85 0l-3.07-3.07c-.71.52-1.58.83-2.52.83 -2.32 0-4.2-1.89-4.2-4.2 0-2.32 1.88-4.2 4.2-4.2 2.31 0 4.2 1.88 4.2 4.2Zm-1.2 0c0-1.66-1.35-3-3-3 -1.66 0-3 1.34-3 3 0 1.65 1.34 3 3 3 1.65 0 3-1.35 3-3Z"/><path fill="currentColor" fill-rule="evenodd" d="M6.59 3.65c-1.63 0-2.95 1.32-2.95 2.95v10.79c0 1.62 1.32 2.95 2.95 2.95l7.35-.01c-2.52-.49-4.41-2.7-4.41-5.35 0-3.01 2.44-5.45 5.44-5.45 2.65 0 4.86 1.89 5.35 4.4V6.57c0-1.63-1.33-2.95-2.95-2.95H6.57Zm13.85 11.34v-8.4c0-1.69-1.37-3.05-3.05-3.05H6.59c-1.69 0-3.05 1.36-3.05 3.05v10.79c0 1.68 1.36 3.05 3.05 3.05l8.4-.01v-.1c-2.96 0-5.35-2.4-5.35-5.35 0-2.96 2.39-5.35 5.34-5.35 2.95 0 5.35 2.39 5.35 5.35h.1Zm-13.3-7.2c0-.36.29-.65.65-.65 .35 0 .65.29.65.65v8.4c0 .35-.3.65-.65.65 -.36 0-.66-.3-.66-.65v-8.4Zm.65-.55c-.31 0-.56.24-.56.55v8.4c0 .3.24.55.55.55 .3 0 .54-.25.54-.55v-8.4c0-.31-.25-.55-.55-.55Zm7.19 3.6c-2.3 0-4.15 1.85-4.15 4.15 0 2.29 1.85 4.15 4.15 4.15 .93 0 1.79-.31 2.48-.83l.03-.03 3.09 3.09c.21.21.56.21.77 0 .21-.22.21-.57 0-.78l-3.1-3.1 .02-.04c.51-.7.82-1.56.82-2.49 0-2.3-1.86-4.15-4.15-4.15Zm-4.25 4.15c0-2.35 1.9-4.25 4.25-4.25 2.34 0 4.25 1.9 4.25 4.25 0 .93-.31 1.8-.83 2.51l3.02 3.03c.25.25.25.66 0 .91 -.26.25-.67.25-.92 0l-3.03-3.03c-.71.51-1.58.82-2.52.82 -2.35 0-4.25-1.91-4.25-4.25Zm1.2 0c0-1.69 1.36-3.05 3.05-3.05 1.68 0 3.05 1.36 3.05 3.05 0 1.68-1.37 3.05-3.05 3.05 -1.69 0-3.05-1.37-3.05-3.05Zm3.05-2.95c-1.63 0-2.95 1.32-2.95 2.95 0 1.62 1.32 2.95 2.95 2.95 1.62 0 2.95-1.33 2.95-2.95 0-1.63-1.33-2.95-2.95-2.95Z"/></g></svg>