<svg viewBox="0 0 24 24" xmlns="http://www.w3.org/2000/svg"><path fill="currentColor" d="M14.74 16.5c1.3 0 1.81.58 2.2 1.87l.06.23c.18.65.29.85.51.94 .25.1.43.09.7-.05l.14-.09c.05-.04.11-.07.17-.12l.66-.46c.61-.41 1.16-.68 1.84-.85 .4-.11.8.14.9.54 .1.4-.15.8-.55.9 -.41.1-.76.25-1.15.48l-.3.19 -.48.32c-.23.15-.41.26-.59.35 -.65.33-1.27.38-1.97.1 -.75-.31-1.05-.78-1.33-1.73l-.16-.55c-.19-.59-.31-.69-.74-.69 -.31 0-.63.15-1.07.52l-.19.16 -.93.87c-1.41 1.32-2.61 1.96-4.33 1.96 -1.69 0-3.15-.26-4.37-.77l2.94-.81c.44.04.92.07 1.42.07 1.18 0 2.03-.42 3.08-1.37l.25-.24 .53-.52c.23-.23.41-.39.59-.54 .68-.58 1.3-.88 2.03-.88Zm4.28-13.54c1.39 1.39 1.39 3.66 0 5.06l-.29.28c1.15 1.4 1.1 2.88.03 3.96l-2.01 2c-.3.29-.77.29-1.07-.01 -.3-.3-.3-.77 0-1.07l1.99-2c.48-.49.54-1.1-.04-1.84l-8.62 8.61c-.28.27-.63.47-1 .57l-5.12 1.39c-.56.15-1.08-.37-.93-.93l1.39-5.12c.1-.38.3-.73.57-1l9.96-9.97c1.39-1.4 3.66-1.4 5.06 0Z"/></svg>