<svg viewBox="0 0 24 24" xmlns="http://www.w3.org/2000/svg"><path fill="currentColor" d="M12 4.35v6.14l0 .5 7.44-.01 -1.73-1.73c-.27-.27-.3-.69-.08-.98l.07-.09c.26-.27.68-.3.97-.08l.08.07 2.99 2.99c.26.26.29.68.07.97l-.08.08 -3 3c-.3.29-.77.29-1.07 0 -.27-.27-.3-.69-.08-.98l.07-.09 1.71-1.72 -7.44 0 -.01 6.74c0 .46-.43.81-.89.73l-8.51-1.51c-.36-.07-.62-.38-.62-.74v-12c0-.37.26-.69.62-.75l8.5-1.4c.45-.08.87.27.87.74Zm-3.5 7.14c-.56 0-1.01.44-1.01 1 0 .55.44 1 1 1 .55 0 1-.45 1-1.01s-.45-1.01-1.01-1.01Zm4.49 7l.76 0 .1-.01c.36-.05.64-.37.64-.75l-.01-4.26h-1.51v5Zm0-8.51l-.01-1.28V4.97l.74 0c.37 0 .69.28.74.64l0 .1 0 4.25h-1.5Z"/></svg>