<svg viewBox="0 0 24 24" xmlns="http://www.w3.org/2000/svg"><path fill="currentColor" d="M3 2.25c-.56 0-1 .44-1 1V9c0 .55.44 1 1 1h5.25c.55 0 1-.45 1-1 0-.56-.45-1-1-1H4.86c.98-1.18 2.2-2.12 3.68-2.57 2.01-.63 4.14-.57 6.1.16 1.98.73 3.81 2.23 4.72 3.89 .26.48.87.66 1.35.39 .48-.27.66-.88.39-1.36 -1.18-2.15-3.42-3.93-5.78-4.81 -2.39-.89-4.97-.95-7.4-.2 -1.58.48-2.89 1.37-3.96 2.45V3.22c0-.56-.45-1-1-1ZM9.75 12c0-.42-.27-.8-.66-.94 -.4-.15-.84-.03-1.11.29 -.08.08-.15.17-.23.26 -.52.62-1.08 1.3-2.29 2.02 -.48.28-.63.89-.35 1.37 .28.47.89.62 1.37.34 .48-.29.88-.59 1.23-.87v5.5c0 .55.44 1 1 1 .55-.01.99-.45.99-1v-8Zm6.49-1c-1.39 0-2.4.63-3.01 1.66 -.57.94-.75 2.16-.75 3.33s.17 2.38.74 3.33c.6 1.02 1.62 1.66 3 1.66s2.39-.64 3-1.67c.56-.95.74-2.17.74-3.34 0-1.18-.18-2.39-.75-3.34 -.61-1.03-1.63-1.67-3.01-1.67Zm-1.75 5c0-1.04.16-1.82.46-2.32 .25-.43.61-.69 1.28-.69s1.03.26 1.28.68c.29.49.46 1.28.46 2.31s-.17 1.81-.47 2.31c-.26.42-.62.68-1.29.68 -.68 0-1.04-.26-1.29-.69 -.3-.5-.47-1.29-.47-2.32Z"/></svg>