<svg viewBox="0 0 24 24" xmlns="http://www.w3.org/2000/svg"><path fill="currentColor" d="M22 3.25c0-.56-.45-1.01-1-1.01 -.56 0-1 .44-1 1v2.72c-1.07-1.08-2.378-1.98-3.96-2.46 -2.44-.76-5.02-.69-7.4.19 -2.37.87-4.61 2.66-5.78 4.8 -.27.48-.09 1.09.39 1.35s1.09.08 1.35-.4c.91-1.67 2.74-3.16 4.72-3.9 1.96-.74 4.09-.79 6.1-.17 1.47.45 2.69 1.39 3.68 2.56h-3.39c-.56 0-1 .44-1 1 0 .55.44 1 1 1h5.25c.55 0 1-.45 1-1.01V3.16ZM6 14.99c0-1.11.89-2 2-2h8c1.1 0 2 .89 2 2v4c0 1.1-.9 2-2 2H8c-1.11 0-2-.9-2-2v-4Zm2 .5v3c0 .27.22.5.5.5h7c.27 0 .5-.23.5-.5v-3c0-.28-.23-.5-.5-.5h-7c-.28 0-.5.22-.5.5Z"/></svg>