<svg viewBox="0 0 24 24" xmlns="http://www.w3.org/2000/svg"><g fill="currentColor"><path d="M6.45 13.7c.15-.16.3-.31.57-.44 .27-.14.72-.28 1.46-.28 1.6 0 1.92.76 1.93 1.03 0 .24-.22.96-1.69.96 -.56 0-1 .44-1 1 0 .55.44 1 1 1 1.46 0 1.69.72 1.68.96 -.01.26-.33 1.03-1.94 1.03 -.75 0-1.2-.14-1.47-.28 -.28-.14-.43-.29-.58-.44 -.4-.39-1.03-.39-1.42 0 -.39.39-.39 1.02 0 1.41l0 0c.18.18.53.52 1.1.8 .58.28 1.33.47 2.34.47 2.24 0 3.87-1.24 3.93-2.97 .02-.81-.29-1.51-.85-2.04 .55-.53.87-1.24.84-2.04 -.07-1.74-1.69-2.97-3.94-2.97 -1.01 0-1.77.19-2.35.47 -.58.28-.92.62-1.11.8l-.01 0c-.4.38-.4 1.02-.01 1.41 .38.39 1.02.39 1.41 0Zm7.78-1.05c.6-1.03 1.62-1.67 3-1.67s2.39.63 3 1.66c.56.94.74 2.16.74 3.33s-.18 2.38-.75 3.33c-.61 1.02-1.63 1.66-3.01 1.66 -1.39 0-2.4-.64-3.01-1.67 -.57-.95-.75-2.17-.75-3.34 0-1.18.17-2.39.74-3.34Zm1.71 1.02c-.3.49-.47 1.28-.47 2.31s.16 1.81.46 2.31c.25.42.61.68 1.28.68s1.03-.26 1.28-.69c.29-.5.46-1.29.46-2.32 0-1.04-.17-1.82-.47-2.32 -.26-.43-.62-.69-1.29-.69 -.68 0-1.04.26-1.29.68Z"/><path d="M3 2.25c-.56 0-1 .44-1 1V9c0 .55.44 1 1 1h5.25c.55 0 1-.45 1-1 0-.56-.45-1-1-1H4.86c.98-1.18 2.2-2.12 3.68-2.57 2.01-.63 4.14-.57 6.1.16 1.98.73 3.81 2.23 4.72 3.89 .26.48.87.66 1.35.39 .48-.27.66-.88.39-1.36 -1.18-2.15-3.42-3.93-5.78-4.81 -2.39-.89-4.97-.95-7.4-.2 -1.58.48-2.89 1.37-3.96 2.45V3.22c0-.56-.45-1-1-1Z"/></g></svg>