<svg viewBox="0 0 24 24" xmlns="http://www.w3.org/2000/svg"><path fill="currentColor" d="M21 2.25c.55 0 1 .44 1 1V9c0 .55-.45 1-1 1h-5.25c-.56 0-1-.45-1-1.01s.44-1 1-1h3.38c-.99-1.18-2.21-2.12-3.69-2.57 -2.02-.63-4.15-.57-6.11.16 -1.99.73-3.82 2.23-4.73 3.89 -.27.48-.88.66-1.36.39 -.49-.27-.67-.88-.4-1.36 1.17-2.15 3.41-3.93 5.77-4.81 2.38-.89 4.96-.95 7.39-.2 1.57.48 2.88 1.37 3.95 2.45V3.21c0-.56.44-1.01 1-1.01ZM9.09 11.06c.39.14.65.51.65.93v7.99c0 .55-.45.99-1 1 -.56 0-1.01-.45-1.01-1v-5.51c-.35.28-.76.57-1.24.86 -.48.28-1.09.13-1.38-.35 -.29-.48-.14-1.09.34-1.38 1.2-.73 1.76-1.41 2.28-2.03 .07-.09.14-.18.22-.27 .27-.32.71-.44 1.1-.3Zm4.14 1.6c.6-1.03 1.62-1.67 3-1.67s2.39.63 3 1.66c.56.94.74 2.16.74 3.33s-.18 2.38-.75 3.33c-.61 1.02-1.63 1.66-3.01 1.66 -1.39 0-2.4-.64-3.01-1.67 -.57-.95-.75-2.17-.75-3.34 0-1.18.17-2.39.74-3.34Zm1.71 1.02c-.3.49-.47 1.28-.47 2.31s.16 1.81.46 2.31c.25.42.61.68 1.28.68s1.03-.26 1.28-.69c.29-.5.46-1.29.46-2.32 0-1.04-.17-1.82-.47-2.32 -.26-.43-.62-.69-1.29-.69 -.68 0-1.04.26-1.29.68Z"/></svg>