<svg viewBox="0 0 24 24" xmlns="http://www.w3.org/2000/svg"><g fill="currentColor"><path d="M6 15c0-1.11.89-2 2-2h8c1.1 0 2 .89 2 2v4c0 1.1-.9 2-2 2H8c-1.11 0-2-.9-2-2v-4Zm2 .5v3c0 .27.22.5.5.5h7c.27 0 .5-.23.5-.5v-3c0-.28-.23-.5-.5-.5h-7c-.28 0-.5.22-.5.5Z"/><path d="M2 3.25c0-.56.44-1.01 1-1.01 .55 0 1 .44 1 1v2.72C5.06 4.88 6.37 3.98 7.95 3.5c2.43-.76 5.01-.69 7.39.19 2.36.87 4.6 2.66 5.77 4.8 .26.48.08 1.09-.4 1.35 -.49.26-1.1.08-1.36-.4 -.92-1.67-2.75-3.16-4.73-3.9 -1.97-.74-4.1-.79-6.11-.17 -1.48.45-2.7 1.39-3.69 2.56H8.2c.55 0 1 .44 1 1 0 .55-.45 1-1 1H2.95c-.56 0-1-.45-1-1.01V3.16Z"/></g></svg>