<svg viewBox="0 0 24 24" xmlns="http://www.w3.org/2000/svg"><path fill="currentColor" d="M2 7.75C2 5.12 4.12 3 6.75 3h10C17.99 3 19 4 19 5.25v.25H7.75c-1.8 0-3.25 1.45-3.25 3.25v2.34c-.94.17-1.8.58-2.5 1.16V7.74Zm8.42 11.2l1.54 1.54h7.77c1.24 0 2.25-1.01 2.25-2.25v-9.5c0-1.25-1.01-2.25-2.25-2.25h-12c-1.25 0-2.25 1-2.25 2.25v2.25c3.03 0 5.5 2.46 5.5 5.5 0 .88-.21 1.71-.58 2.45Zm-4.93 2.04c.97 0 1.87-.31 2.6-.84l2.61 2.61c.29.29.76.29 1.06 0 .29-.3.29-.77 0-1.07l-2.62-2.62c.52-.74.83-1.64.83-2.61 0-2.49-2.02-4.5-4.5-4.5 -2.49 0-4.5 2.01-4.5 4.5 0 2.48 2.01 4.5 4.5 4.5Zm0-1.5c-1.66 0-3-1.35-3-3 0-1.66 1.34-3 3-3 1.65 0 3 1.34 3 3 0 1.65-1.35 3-3 3Z"/></svg>