<svg viewBox="0 0 24 24" xmlns="http://www.w3.org/2000/svg"><path fill="currentColor" d="M4.75 4C3.23 4 2 5.23 2 6.75v10.5C2 18.76 3.23 20 4.75 20h8.252c-.01-.05-.01-.09-.01-.125v-.11c0-1.54 1.24-2.78 2.77-2.78h.27c-.65-.64-1.06-1.53-1.06-2.5 0-.75.23-1.44.62-2H6.71c-.42 0-.75-.34-.75-.75 0-.42.33-.75.75-.75h9c.37 0 .68.27.74.63 .56-.4 1.26-.64 2-.64 1.76 0 3.22 1.3 3.46 3h.03v-7.25c0-1.52-1.24-2.75-2.75-2.75h-14.5ZM6 8.75c0-.42.33-.75.75-.75h4.5c.41 0 .75.33.75.75 0 .41-.34.75-.75.75h-4.5c-.42 0-.75-.34-.75-.75Zm.75 6.75c-.42 0-.75-.34-.75-.75 0-.42.33-.75.75-.75h6.5c.41 0 .75.33.75.75 0 .41-.34.75-.75.75h-6.5Zm14.25-1c0 1.38-1.12 2.5-2.5 2.5 -1.39 0-2.5-1.12-2.5-2.5 0-1.39 1.11-2.5 2.5-2.5 1.38 0 2.5 1.11 2.5 2.5Zm2 5.375C23 21.425 21.71 23 18.5 23c-3.22 0-4.5-1.57-4.5-3.125v-.11c0-.98.79-1.78 1.77-1.78h5.45c.97 0 1.77.79 1.77 1.77v.1Z"/></svg>