<svg viewBox="0 0 24 24" xmlns="http://www.w3.org/2000/svg"><path fill="currentColor" d="M2 6.75C2 5.23 3.23 4 4.75 4h14.5C20.76 4 22 5.23 22 6.75v10.5c0 1.51-1.24 2.75-2.75 2.75H4.75C3.23 20 2 18.76 2 17.25V6.75ZM6.75 8c-.42 0-.75.33-.75.75 0 .41.33.75.75.75h4.5c.41 0 .75-.34.75-.75 0-.42-.34-.75-.75-.75h-4.5Zm0 3c-.42 0-.75.33-.75.75 0 .41.33.75.75.75h8.5c.41 0 .75-.34.75-.75 0-.42-.34-.75-.75-.75h-8.5ZM6 14.75c0 .41.33.75.75.75h6.5c.41 0 .75-.34.75-.75 0-.42-.34-.75-.75-.75h-6.5c-.42 0-.75.33-.75.75Z"/></svg>