<svg viewBox="0 0 24 24" xmlns="http://www.w3.org/2000/svg"><path fill="currentColor" d="M2 6.75C2 5.23 3.23 4 4.75 4h14.5C20.76 4 22 5.23 22 6.75v10.5c0 1.51-1.24 2.75-2.75 2.75h-6.78l-2.05-2.05c.36-.74.57-1.57.57-2.46h4.25c.41 0 .75-.34.75-.75 0-.42-.34-.75-.75-.75h-4.46c-.16-.54-.39-1.05-.69-1.5h7.13c.41 0 .75-.34.75-.75 0-.42-.34-.75-.75-.75H8.63c-.9-.63-1.99-1-3.17-1 -1.33 0-2.55.47-3.5 1.25V6.73ZM6.75 8c-.42 0-.75.33-.75.75 0 .41.33.75.75.75h6.5c.41 0 .75-.34.75-.75 0-.42-.34-.75-.75-.75h-6.5ZM5.5 20c.97 0 1.87-.31 2.6-.84l2.61 2.61c.29.29.76.29 1.06 0 .29-.3.29-.77 0-1.07l-2.62-2.62c.52-.74.83-1.64.83-2.61 0-2.49-2.02-4.5-4.5-4.5 -2.49 0-4.5 2.01-4.5 4.5 0 2.48 2.01 4.5 4.5 4.5Zm0-1.5c-1.66 0-3-1.35-3-3 0-1.66 1.34-3 3-3 1.65 0 3 1.34 3 3 0 1.65-1.35 3-3 3Z"/></svg>