<svg viewBox="0 0 24 24" xmlns="http://www.w3.org/2000/svg"><path fill="currentColor" d="M4.75 4C3.23 4 2 5.23 2 6.75v10.5C2 18.76 3.23 20 4.75 20h6.74c-.33-.77-.5-1.62-.5-2.5 0-.7.11-1.37.31-2H6.73c-.42 0-.75-.34-.75-.75 0-.42.33-.75.75-.75H12c.36-.57.8-1.08 1.32-1.5h-6.6c-.42 0-.75-.34-.75-.75 0-.42.33-.75.75-.75h8.5c.21 0 .4.08.53.22 .54-.15 1.11-.23 1.71-.23 1.74 0 3.33.68 4.5 1.8V6.73c0-1.52-1.24-2.75-2.75-2.75H4.71ZM6 8.75c0-.42.33-.75.75-.75h4.5c.41 0 .75.33.75.75 0 .41-.34.75-.75.75h-4.5c-.42 0-.75-.34-.75-.75ZM17.5 21.5c-2.21 0-4-1.8-4-4 0-2.21 1.79-4 4-4 2.2 0 4 1.79 4 4 0 2.2-1.8 4-4 4Zm0 1.5c3.03 0 5.5-2.47 5.5-5.5 0-3.04-2.47-5.5-5.5-5.5 -3.04 0-5.5 2.46-5.5 5.5 0 3.03 2.46 5.5 5.5 5.5Zm0-3c1.38 0 2.5-1.12 2.5-2.5 0-1.39-1.12-2.5-2.5-2.5 -1.39 0-2.5 1.11-2.5 2.5 0 1.38 1.11 2.5 2.5 2.5Z"/></svg>