<svg viewBox="0 0 24 24" xmlns="http://www.w3.org/2000/svg"><path fill="currentColor" d="M17 4c1.65 0 3 1.34 3 3v9c0 1.65-1.35 3-3 3H5c-1.66 0-3-1.35-3-3V7c0-1.66 1.34-3 3-3h12ZM6.75 7.5c-.42 0-.75.33-.75.75 0 .41.33.75.75.75h3.5c.41 0 .75-.34.75-.75 0-.42-.34-.75-.75-.75h-3.5Zm0 3c-.42 0-.75.33-.75.75 0 .41.33.75.75.75h6.5c.41 0 .75-.34.75-.75 0-.42-.34-.75-.75-.75h-6.5ZM6 14.25c0 .41.33.75.75.75h4.5c.41 0 .75-.34.75-.75 0-.42-.34-.75-.75-.75h-4.5c-.42 0-.75.33-.75.75Zm15-6.74c.9.57 1.49 1.58 1.49 2.73v6c0 2.89-2.36 5.25-5.25 5.25h-9c-1.16 0-2.17-.6-2.74-1.5l11.73-.01c2.07 0 3.75-1.68 3.75-3.75l0-8.74Z"/></svg>