<svg viewBox="0 0 24 24" xmlns="http://www.w3.org/2000/svg"><path fill="currentColor" d="M2 6.75C2 5.23 3.23 4 4.75 4h14.5C20.76 4 22 5.23 22 6.75v7.75c0-1.74-1.39-3.5-3.5-3.5 -2.12 0-3.5 1.75-3.5 3.5v1.58c-.16-.06-.33-.09-.5-.09 -.83 0-1.5.67-1.5 1.5 0 .91.27 1.77.75 2.5H4.74c-1.52 0-2.75-1.24-2.75-2.75V6.74ZM6.75 8c-.42 0-.75.33-.75.75 0 .41.33.75.75.75h4.5c.41 0 .75-.34.75-.75 0-.42-.34-.75-.75-.75h-4.5Zm0 3c-.42 0-.75.33-.75.75 0 .41.33.75.75.75h6.5c.41 0 .75-.34.75-.75 0-.42-.34-.75-.75-.75h-6.5ZM6 14.75c0 .41.33.75.75.75h5.5c.41 0 .75-.34.75-.75 0-.42-.34-.75-.75-.75h-5.5c-.42 0-.75.33-.75.75Zm9 2.75c0 1.08.6 1.97 1.52 2.5 .56.31 1.24.5 1.97.5 1.93 0 3.5-1.25 3.5-3 0-.28.22-.5.5-.5 .27 0 .5.22.5.5 0 2-1.75 3.72-4 3.97v1.02c0 .27-.23.5-.5.5 -.28 0-.5-.23-.5-.5v-1.03c-1.2-.14-2.26-.69-2.99-1.48 -.64-.7-1.02-1.57-1.02-2.5 0-.28.22-.5.5-.5 .27 0 .5.22.5.5Zm1-3c0-1.26 1-2.5 2.5-2.5s2.5 1.25 2.5 2.5V17c0 1.24-1 2.5-2.5 2.5s-2.5-1.25-2.5-2.5v-2.5Z"/></svg>