<svg viewBox="0 0 24 24" xmlns="http://www.w3.org/2000/svg"><path fill="currentColor" d="M2 7.75C2 5.12 4.12 3 6.75 3h10C17.99 3 19 4 19 5.25v.25H7.75c-1.8 0-3.25 1.45-3.25 3.25V17h-.25C3 17 2 15.99 2 14.75v-7ZM7.75 6.5c-1.25 0-2.25 1-2.25 2.25v9.5c0 1.24 1 2.25 2.25 2.25h3.98c-.47-.9-.74-1.92-.74-3 0-3.59 2.91-6.5 6.5-6.5 1.74 0 3.33.68 4.5 1.8V8.74c0-1.25-1.01-2.25-2.25-2.25h-12ZM17.5 12c3.03 0 5.5 2.46 5.5 5.5 0 3.03-2.47 5.5-5.5 5.5 -3.04 0-5.5-2.47-5.5-5.5 0-3.04 2.46-5.5 5.5-5.5Zm-3 5c-.28 0-.5.22-.5.5 0 .27.22.5.5.5h4.79l-1.65 1.64c-.2.19-.2.51 0 .7 .19.19.51.19.7 0l2.5-2.5c.19-.2.19-.52 0-.71l-2.5-2.5c-.2-.2-.52-.2-.71 0 -.2.19-.2.51 0 .7l1.64 1.64h-4.8Z"/></svg>