<svg viewBox="0 0 24 24" xmlns="http://www.w3.org/2000/svg"><path fill="currentColor" d="M2 6.75C2 5.23 3.23 4 4.75 4h14.5C20.76 4 22 5.23 22 6.75v6.05c-1.17-1.13-2.76-1.81-4.5-1.81 -.6 0-1.17.07-1.72.22 -.14-.15-.33-.23-.54-.23h-8.5c-.42 0-.75.33-.75.75 0 .41.33.75.75.75h6.59c-.52.42-.97.93-1.33 1.5H6.72c-.42 0-.75.33-.75.75 0 .41.33.75.75.75h4.56c-.21.63-.32 1.3-.32 2 0 .88.17 1.73.49 2.5H4.7c-1.52 0-2.75-1.24-2.75-2.75V6.73ZM6.75 8c-.42 0-.75.33-.75.75 0 .41.33.75.75.75h4.5c.41 0 .75-.34.75-.75 0-.42-.34-.75-.75-.75h-4.5ZM23 17.5c0 3.03-2.47 5.5-5.5 5.5 -3.04 0-5.5-2.47-5.5-5.5 0-3.04 2.46-5.5 5.5-5.5 3.03 0 5.5 2.46 5.5 5.5Zm-8.5-.5c-.28 0-.5.22-.5.5 0 .27.22.5.5.5h4.79l-1.65 1.64c-.2.19-.2.51 0 .7 .19.19.51.19.7 0l2.5-2.5c.19-.2.19-.52 0-.71l-2.5-2.5c-.2-.2-.52-.2-.71 0 -.2.19-.2.51 0 .7l1.64 1.64h-4.8Z"/></svg>