<svg viewBox="0 0 24 24" xmlns="http://www.w3.org/2000/svg"><path fill="currentColor" d="M6.25 12.5c-.7 0-1.25.55-1.25 1.25v2c0 .69.55 1.25 1.25 1.25h4c.69 0 1.25-.56 1.25-1.25v-2c0-.7-.56-1.25-1.25-1.25h-4Zm7.5 0c-.7 0-1.25.55-1.25 1.25v2c0 .69.55 1.25 1.25 1.25h4c.69 0 1.25-.56 1.25-1.25v-2c0-.7-.56-1.25-1.25-1.25h-4ZM6.25 7C5.55 7 5 7.55 5 8.25v2c0 .69.55 1.25 1.25 1.25h4c.69 0 1.25-.56 1.25-1.25v-2c0-.7-.56-1.25-1.25-1.25h-4Zm7.5 0c-.7 0-1.25.55-1.25 1.25v2c0 .69.55 1.25 1.25 1.25h4c.69 0 1.25-.56 1.25-1.25v-2c0-.7-.56-1.25-1.25-1.25h-4ZM2 6.75C2 5.23 3.23 4 4.75 4h14.5C20.76 4 22 5.23 22 6.75v10.5c0 1.51-1.24 2.75-2.75 2.75H4.75C3.23 20 2 18.76 2 17.25V6.75ZM4.75 5.5c-.7 0-1.25.55-1.25 1.25v10.5c0 .69.55 1.25 1.25 1.25h14.5c.69 0 1.25-.56 1.25-1.25V6.75c0-.7-.56-1.25-1.25-1.25H4.75Z"/></svg>