<svg viewBox="0 0 24 24" xmlns="http://www.w3.org/2000/svg"><path fill="currentColor" d="M6.75 3C4.12 3 2 5.12 2 7.75v7C2 15.99 3 17 4.25 17h.25V8.75c0-1.8 1.45-3.25 3.25-3.25H19v-.25C19 4 17.99 3 16.75 3h-10Zm12.5 3.5h.49c1.19 0 2.16.92 2.24 2.09l0 .15v1c0 .41-.34.74-.75.74 -.38 0-.7-.29-.75-.65l-.01-.11V8.71c0-.38-.29-.7-.65-.75l-.11-.01h-.5c-.42 0-.75-.34-.75-.75 0-.38.28-.7.64-.75l.1-.01Zm-13.01 5c.37 0 .69.28.74.64l0 .1v2.49c0 .41-.34.75-.75.75 -.38 0-.7-.29-.75-.65l-.01-.11v-2.5c0-.42.33-.75.75-.75Zm.74 5.64c-.05-.37-.37-.65-.75-.65 -.42 0-.75.33-.75.75v1l0 .15c.07 1.17 1.05 2.096 2.24 2.096h.5l.1-.01c.36-.05.64-.37.64-.75 0-.42-.34-.75-.75-.75h-.5l-.11-.01c-.37-.05-.65-.37-.65-.75V17.2l-.01-.11Zm15 .1c0-.42-.34-.75-.75-.75 -.42 0-.75.33-.75.75v1c0 .41-.34.75-.75.75h-1.01c-.42 0-.75.33-.75.75 0 .41.33.75.75.75h1c1.24 0 2.25-1.01 2.25-2.25v-1.01Zm-7.25 1.75h1.49c.41 0 .75.33.75.75 0 .37-.29.69-.65.74l-.11 0h-1.5c-.42 0-.75-.34-.75-.75 0-.38.28-.7.64-.75l.1-.01Zm-2.51 0h-1.5l-.11 0c-.37.04-.65.36-.65.74 0 .41.33.75.75.75h1.49l.1-.01c.36-.05.64-.37.64-.75 0-.42-.34-.75-.75-.75Zm9.74-6.86c-.05-.37-.37-.65-.75-.65 -.42 0-.75.33-.75.75v2.49l0 .1c.04.36.36.64.74.64 .41 0 .75-.34.75-.75v-2.5l-.01-.11Zm-12.5-4.9c0-.42-.34-.75-.75-.75H7.7c-1.25 0-2.25 1-2.25 2.25v1c0 .41.33.74.75.74 .41 0 .75-.34.75-.75V8.71c0-.42.33-.75.75-.75h1c.41 0 .75-.34.75-.75Zm5.74-.75h1.5c.41 0 .75.33.75.75 0 .37-.29.69-.65.74l-.11 0h-1.51c-.42 0-.75-.34-.75-.75 0-.38.28-.7.64-.75l.1-.01Zm-2.51 0h-1.5l-.11 0c-.37.04-.65.36-.65.74 0 .41.33.75.75.75h1.49l.1-.01c.36-.05.64-.37.64-.75 0-.42-.34-.75-.75-.75Z"/></svg>