<svg viewBox="0 0 24 24" xmlns="http://www.w3.org/2000/svg"><path fill="currentColor" d="M2 6.75C2 5.23 3.23 4 4.75 4h14.5C20.76 4 22 5.23 22 6.75v10.5c0 1.51-1.24 2.75-2.75 2.75H4.75C3.23 20 2 18.76 2 17.25V6.75Zm14.78.46c-.15-.15-.34-.22-.54-.22h-2.51c-.42 0-.75.33-.75.75 0 .41.33.75.75.75h.69L12.7 10.2c-.3.29-.3.76-.01 1.06 .29.29.76.29 1.06 0l1.72-1.72v.68c0 .41.33.75.75.75 .41 0 .75-.34.75-.75v-2.5c0-.2-.08-.39-.22-.54Zm-9.04 9.78h2.5c.41 0 .75-.34.75-.75 0-.42-.34-.75-.75-.75h-.7l1.71-1.73c.29-.3.29-.77-.01-1.07 -.3-.3-.77-.3-1.07 0L8.45 14.4v-.69c0-.42-.34-.75-.75-.75 -.42 0-.75.33-.75.75v2.5c0 .19.07.38.21.53 .14.14.33.21.53.21Z"/></svg>