<svg viewBox="0 0 24 24" xmlns="http://www.w3.org/2000/svg"><path fill="currentColor" d="M14.5 2c.78 0 1.46.44 1.78 1.1 -.19.42-.29.89-.29 1.39 0 .21.02.43.05.64 -.34-.1-.7-.15-1.06-.15h-6c-.54 0-1.04.1-1.5.29v-1.3c0-1.11.89-2 2-2h5Zm.5 4c.58 0 1.13.16 1.6.46 .24.36.56.68.93.93 .29.46.46 1.01.46 1.6v1c.55 0 1 .44 1 1v1c0 .55-.45 1-1 1v2c0 1.65-1.35 3-3 3h-6c-1.66 0-3-1.35-3-3v-6c0-1.66 1.34-3 3-3h6ZM9 19c-.54 0-1.04-.11-1.5-.3v1.29c0 1.1.89 2 2 2h5c1.1 0 2-.9 2-2v-1.3c-.47.18-.97.29-1.5.29H9ZM22 4.5C22 3.11 20.88 2 19.5 2 18.11 2 17 3.11 17 4.5 17 5.88 18.11 7 19.5 7 20.88 7 22 5.88 22 4.5Z"/></svg>