<svg viewBox="0 0 24 24" xmlns="http://www.w3.org/2000/svg"><path fill="currentColor" d="M8.99 12.5c.8 0 1.26.88.84 1.53l-.07.09 -4.7 5.86 3.91 0c.51 0 .93.38.99.88l0 .11c0 .51-.39.93-.89.99l-.12 0h-6c-.81 0-1.27-.89-.85-1.54l.06-.1 4.69-5.88 -3.92 0c-.52 0-.94-.39-1-.89l-.01-.12c0-.52.38-.94.88-1l.11-.01H8.9ZM20.98 1.99c.8 0 1.26.89.84 1.54l-.07.09 -7.67 9.36h6.89c.51 0 .93.38.99.88l0 .11c0 .51-.39.93-.89.99l-.12 0h-9c-.81 0-1.27-.9-.85-1.55l.06-.1 7.66-9.37h-6.89c-.52 0-.94-.39-1-.89l-.01-.12c0-.52.38-.94.88-1l.11-.01h9Z"/></svg>