<svg viewBox="0 0 24 24" xmlns="http://www.w3.org/2000/svg"><path fill="currentColor" d="M3.5 12c0-4.7 3.8-8.5 8.5-8.5 4.69 0 8.5 3.8 8.5 8.5 0 2.21-.85 4.23-2.24 5.74l.99 1.13c1.7-1.8 2.74-4.22 2.74-6.89 0-5.53-4.48-10-10-10 -5.53 0-10 4.47-10 10 0 2.667 1.04 5.09 2.74 6.88l.99-1.14c-1.39-1.52-2.24-3.54-2.24-5.75Zm15.75.125c0 1.8-.68 3.45-1.79 4.71l-1-1.15c.8-.98 1.28-2.22 1.28-3.58 0-3.11-2.52-5.625-5.625-5.625C9 6.48 6.49 8.99 6.49 12.105c0 1.28.43 2.47 1.16 3.42l-1.01 1.14c-1.04-1.24-1.66-2.84-1.66-4.58 0-3.94 3.18-7.125 7.125-7.125 3.93 0 7.125 3.18 7.125 7.125Zm-3-.125c0 .93-.31 1.8-.83 2.51l-1.03-1.18c.22-.4.34-.86.34-1.34 0-1.52-1.24-2.75-2.75-2.75 -1.52 0-2.75 1.23-2.75 2.75 0 .48.12.94.34 1.33l-1.03 1.17c-.52-.71-.83-1.58-.83-2.52 0-2.35 1.9-4.25 4.25-4.25 2.34 0 4.25 1.9 4.25 4.25Zm-4.25.5c.21 0 .42.09.56.25l7 8c.19.22.24.53.11.8 -.13.26-.39.44-.69.44h-14c-.3 0-.57-.18-.69-.45 -.13-.27-.08-.59.11-.81l7-8c.14-.17.34-.26.56-.26Z"/></svg>