<svg viewBox="0 0 24 24" xmlns="http://www.w3.org/2000/svg"><path fill="currentColor" d="M12 2C6.47 2 2 6.47 2 12c0 5.52 4.47 10 10 10 5.52 0 10-4.48 10-10 0-5.53-4.48-10-10-10Zm-1 6.75v6.5c0 .41-.34.75-.75.75 -.42 0-.75-.34-.75-.75v-6.5c0-.42.33-.75.75-.75 .41 0 .75.33.75.75Zm6 0v6.5c0 .41-.34.75-.75.75 -.42 0-.75-.34-.75-.75v-6.5c0-.42.33-.75.75-.75 .41 0 .75.33.75.75Zm-3 1.5v3.5c0 .41-.34.75-.75.75 -.42 0-.75-.34-.75-.75v-3.5c0-.42.33-.75.75-.75 .41 0 .75.33.75.75Zm-6 .5v2.5c0 .41-.34.75-.75.75 -.42 0-.75-.34-.75-.75v-2.5c0-.42.33-.75.75-.75 .41 0 .75.33.75.75Z"/></svg>