<svg viewBox="0 0 24 24" xmlns="http://www.w3.org/2000/svg"><path fill="currentColor" d="M3 6.25C3 4.45 4.45 3 6.25 3h11.5C19.54 3 21 4.45 21 6.25V15h-.82l-2.25-3h1.56V6.25c0-.97-.79-1.75-1.75-1.75H6.24c-.97 0-1.75.78-1.75 1.75V12h1.56L3.8 15h-.82V6.25ZM15.692 16.5H21v1.25c0 1.79-1.46 3.25-3.25 3.25h-.67l-.37-1.23 -1.03-3.28Zm2.62-1.5h-3.09l-.94-3h1.77l2.25 3Zm-7.79 0h3.12l-.94-3h-1.45l-.75 3Zm3.59 1.5h-3.98L9 21h6.49l-.24-.79 -1.17-3.72ZM9.71 12l-.75 3H5.67l2.25-3H9.7ZM8.58 16.5H2.97v1.25c0 1.79 1.45 3.25 3.25 3.25h1.22l1.12-4.5Z"/></svg>