<svg viewBox="0 0 24 24" xmlns="http://www.w3.org/2000/svg"><path fill="currentColor" d="M8.66 15.73c.24.17.53.26.83.26v-.01c.28 0 .55-.09.79-.24 .23-.16.42-.38.53-.64l.61-1.87c.14-.43.37-.81.69-1.13 .31-.32.69-.56 1.12-.7l1.77-.58c.28-.11.53-.29.7-.54 .17-.25.26-.55.25-.86 -.01-.31-.11-.6-.29-.85 -.19-.25-.44-.43-.73-.52l-1.76-.57c-.43-.15-.82-.38-1.13-.7 -.32-.32-.56-.71-.7-1.13l-.58-1.78c-.11-.29-.29-.53-.54-.7 -.25-.18-.54-.27-.85-.27 -.31 0-.6.09-.84.27 -.25.17-.43.42-.53.7l-.59 1.79c-.15.41-.38.78-.68 1.09 -.31.3-.68.54-1.1.68L3.85 8c-.22.07-.41.19-.56.35 -.16.16-.28.35-.35.56 -.07.21-.09.43-.06.66 .03.22.12.43.24.61 .17.24.42.43.71.53l1.75.56c.42.14.81.38 1.12.7 .08.08.16.17.23.26 .19.25.35.54.45.85l.57 1.77c.09.28.28.52.52.7Zm7.66 5.04c-.2-.14-.34-.33-.41-.55l-.33-1.01c-.07-.2-.18-.37-.32-.51 -.15-.15-.32-.26-.51-.32l-1-.33c-.24-.08-.44-.23-.58-.43 -.14-.2-.22-.43-.21-.66 0-.24.07-.47.21-.67 .13-.2.33-.35.55-.42l1-.33c.18-.07.35-.18.49-.32 .13-.15.24-.32.3-.51l.32-1c.07-.23.22-.42.41-.56 .19-.14.42-.22.65-.22 .23-.01.46.06.66.2 .19.13.34.32.42.55l.32 1.01c.06.19.17.36.31.5 .14.14.31.24.5.31l.99.32c.22.07.42.21.57.4 .14.19.22.42.22.66 0 .23-.07.47-.21.67 -.14.19-.34.34-.56.42l-1.02.32c-.2.06-.37.17-.51.31 -.15.14-.25.31-.32.5l-.33.98c-.08.23-.23.43-.43.57 -.2.13-.43.21-.66.21 -.25 0-.48-.08-.67-.22Z"/></svg>