<svg viewBox="0 0 24 24" xmlns="http://www.w3.org/2000/svg"><path fill="currentColor" d="M12 22c5.52 0 10-4.48 10-10 0-5.53-4.48-10-10-10C6.47 2 2 6.47 2 12c0 5.52 4.47 10 10 10ZM8.55 6.16c.31-.89 1.57-.89 1.88-.01l.45 1.29c.1.29.34.53.63.63l1.29.45c.88.31.88 1.57-.01 1.88l-1.3.45c-.3.1-.54.34-.64.63l-.46 1.29c-.32.88-1.58.88-1.89-.01l-.46-1.3c-.11-.3-.35-.54-.65-.65l-1.3-.46c-.89-.32-.89-1.58-.01-1.89L7.37 8c.29-.11.53-.35.63-.64l.45-1.3Zm7.39 6.53l.17.59c.08.27.29.48.57.57l.59.17c.94.28.94 1.61 0 1.89l-.6.17c-.28.08-.49.29-.57.57l-.18.59c-.29.94-1.62.94-1.9 0l-.18-.6c-.09-.28-.3-.49-.58-.57l-.6-.18c-.95-.29-.95-1.62-.01-1.9l.59-.18c.27-.09.48-.3.56-.57l.17-.6c.28-.95 1.61-.95 1.89 0Z"/></svg>