<svg viewBox="0 0 24 24" xmlns="http://www.w3.org/2000/svg"><path fill="currentColor" d="M3.28 2.21c-.3-.3-.77-.3-1.07-.01 -.3.29-.3.76-.01 1.06l4.21 4.21H4.22c-1.25 0-2.25 1-2.25 2.25v4.49c0 1.24 1 2.25 2.25 2.25h3.67c.18 0 .36.06.49.18l4.49 3.99c.8.71 2.08.14 2.08-.94V16l5.71 5.71c.29.29.76.29 1.06 0 .29-.3.29-.77 0-1.07L3.22 2.13Zm13.86 11.73l1.13 1.13c.46-.94.72-1.99.72-3.1 0-1.21-.31-2.34-.85-3.33 -.2-.37-.66-.5-1.02-.31 -.37.19-.5.65-.31 1.01 .42.77.65 1.66.65 2.61 0 .69-.13 1.35-.36 1.95Zm2.24 2.24l1.09 1.09c.96-1.54 1.51-3.36 1.51-5.3 0-2.23-.73-4.29-1.96-5.95 -.25-.34-.72-.41-1.05-.16 -.34.24-.41.71-.16 1.04 1.04 1.41 1.66 3.15 1.66 5.05 0 1.53-.41 2.96-1.12 4.2ZM9.51 6.31l5.47 5.48V4.22c0-1.08-1.28-1.66-2.09-.94L9.49 6.3Z"/></svg>