<svg viewBox="0 0 24 24" xmlns="http://www.w3.org/2000/svg"><path fill="currentColor" d="M14.7 3.44c.19.22.29.51.29.8v15.5c0 .69-.56 1.25-1.25 1.25 -.3 0-.59-.11-.81-.3l-4.97-4.21H4.23c-1.25 0-2.25-1.01-2.25-2.25v-4.5c0-1.25 1-2.25 2.25-2.25h3.72l4.96-4.21c.52-.45 1.31-.39 1.76.14Zm2.79 6.45V6.74c0-.65.75-.98 1.22-.59l.07.07 3 3.25c.26.28.26.72 0 1.01l-.08.07 -1.71 1.42 1.7 1.42c.3.25.35.68.13 1l-.07.08 -3 3.25c-.44.47-1.22.2-1.3-.41l-.01-.11v-3.16l-.27.22c-.32.26-.8.22-1.06-.1 -.25-.29-.23-.71.01-.98l.07-.08 1.22-1.03v-.3l-1.23-1.03c-.32-.27-.37-.74-.1-1.06 .24-.29.65-.36.96-.17l.09.06 .26.22V6.64v3.14Zm1.5 3.2v2.23l1.16-1.27 -1.17-.98Zm0-4.44v2.23l1.16-.97 -1.17-1.27Z"/></svg>