<svg viewBox="0 0 24 24" xmlns="http://www.w3.org/2000/svg"><path fill="currentColor" d="M14.99 4.25v11.1l-2.51 2.5c-.45.44-.77.99-.94 1.59l-3.13-2.78c-.14-.13-.32-.19-.5-.19H4.23c-1.25 0-2.25-1.01-2.25-2.25v-4.5c0-1.25 1-2.25 2.24-2.25h3.67c.18 0 .36-.07.49-.19l4.49-4c.8-.72 2.08-.15 2.08.93Zm3.39 7.71c.18-.19.37-.34.58-.47 -.08-1.02-.37-1.98-.83-2.83 -.2-.37-.66-.5-1.02-.31 -.37.19-.5.65-.31 1.01 .42.77.65 1.66.65 2.61 0 .31-.03.63-.08.93l.97-.98Zm2.05-.96c.51-.05 1.04.03 1.52.23 -.15-1.94-.85-3.73-1.94-5.2 -.25-.34-.72-.41-1.05-.16 -.34.24-.41.71-.16 1.04 .86 1.16 1.43 2.55 1.6 4.06Zm-1.35 1.65l-5.91 5.9c-.35.34-.59.77-.71 1.24L12 21.62c-.2.79.52 1.51 1.31 1.31l1.83-.46c.47-.12.9-.37 1.24-.71l5.9-5.91c.89-.9.89-2.34 0-3.24 -.9-.9-2.34-.9-3.24 0Z"/></svg>