<svg viewBox="0 0 24 24" xmlns="http://www.w3.org/2000/svg"><path fill="currentColor" d="M15 4.25v15.49c0 1.07-1.28 1.65-2.09.93l-4.5-4c-.14-.13-.32-.19-.5-.19H4.23c-1.25 0-2.25-1.01-2.25-2.25v-4.5c0-1.25 1-2.25 2.25-2.25H7.9c.18 0 .36-.07.49-.19l4.49-4c.8-.72 2.08-.15 2.08.93Zm3.99 1.64c.33-.25.8-.18 1.04.15 1.23 1.66 1.95 3.72 1.95 5.94s-.73 4.28-1.96 5.94c-.25.33-.72.4-1.05.15 -.34-.25-.41-.72-.16-1.05 1.04-1.42 1.66-3.16 1.66-5.06 0-1.9-.62-3.65-1.67-5.06 -.25-.34-.18-.81.15-1.05Zm-1.85 2.47c.36-.2.81-.07 1.01.3 .53.99.84 2.12.84 3.32 0 1.2-.31 2.33-.85 3.32 -.2.36-.66.49-1.02.3 -.37-.2-.5-.66-.31-1.02 .42-.78.65-1.67.65-2.62 0-.95-.24-1.84-.66-2.62 -.2-.37-.07-.82.3-1.02Z"/></svg>