<svg viewBox="0 0 24 24" xmlns="http://www.w3.org/2000/svg"><path fill="currentColor" d="M15 4.25c0-1.08-1.28-1.66-2.09-.94L8.41 7.3c-.14.12-.32.18-.5.18H4.23c-1.25 0-2.25 1-2.25 2.25v4.49c0 1.24 1 2.25 2.25 2.25H7.9c.18 0 .36.06.49.18l4.49 3.99c.8.71 2.08.14 2.08-.94V4.2Zm1.21 4.96c.29-.3.76-.3 1.06 0l1.71 1.71 1.71-1.72c.29-.3.76-.3 1.06 0 .29.29.29.76 0 1.06l-1.72 1.71 1.71 1.71c.29.29.29.76 0 1.06 -.3.29-.77.29-1.07 0l-1.72-1.72 -1.72 1.71c-.3.29-.77.29-1.07 0 -.3-.3-.3-.77 0-1.07l1.71-1.72 -1.72-1.72c-.3-.3-.3-.77 0-1.07Z"/></svg>