<svg viewBox="0 0 24 24" xmlns="http://www.w3.org/2000/svg"><g fill="currentColor"><path d="M12 4.2c-4.31 0-7.8 3.49-7.8 7.8 0 .49-.41.9-.9.9 -.5 0-.9-.41-.9-.9 0-5.31 4.29-9.6 9.6-9.6 5.3 0 9.6 4.29 9.6 9.6 0 5.3-4.3 9.6-9.6 9.6 -.5 0-.9-.41-.9-.9 0-.5.4-.9.9-.9 4.3 0 7.8-3.5 7.8-7.8 0-4.31-3.5-7.8-7.8-7.8Z"/><path fill="currentColor" fill-rule="evenodd" d="M12 2.55c-5.22 0-9.45 4.23-9.45 9.45 -.001.41.33.75.75.75 .41 0 .75-.34.75-.75 0-4.4 3.55-7.95 7.95-7.95 4.39 0 7.95 3.55 7.95 7.95 0 4.39-3.56 7.95-7.95 7.95 -.42 0-.75.33-.75.75 0 .41.33.75.75.75 5.21 0 9.45-4.24 9.45-9.45 0-5.22-4.24-9.45-9.45-9.45ZM2.25 12c0-5.39 4.36-9.75 9.75-9.75 5.38 0 9.75 4.36 9.75 9.75 0 5.38-4.37 9.75-9.75 9.75 -.58 0-1.05-.48-1.05-1.05 0-.58.47-1.05 1.05-1.05 4.22 0 7.65-3.43 7.65-7.65 0-4.23-3.43-7.65-7.65-7.65 -4.23 0-7.65 3.42-7.65 7.65 0 .57-.48 1.05-1.05 1.05 -.58 0-1.05-.48-1.05-1.05Z"/></g></svg>