<svg viewBox="0 0 24 24" xmlns="http://www.w3.org/2000/svg"><g fill="currentColor"><path d="M11.4 2.4c.33 0 .6.26.6.6v18c0 .33-.27.6-.6.6 -.34 0-.6-.27-.6-.6V3c0-.34.26-.6.6-.6ZM4.8 4.8c-1.33 0-2.4 1.07-2.4 2.4v9.6c0 1.32 1.07 2.4 2.4 2.4h4.8V4.8H4.8ZM18 6c.66 0 1.2.53 1.2 1.2v.6c0 .33.26.6.6.6 .33 0 .6-.27.6-.6v-.6c0-1.33-1.08-2.4-2.4-2.4h-.6c-.34 0-.6.26-.6.6 0 .33.26.6.6.6h.6Zm0 12c.66 0 1.2-.54 1.2-1.2v-.6c0-.34.26-.6.6-.6 .33 0 .6.26.6.6v.6c0 1.32-1.08 2.4-2.4 2.4h-.6c-.34 0-.6-.27-.6-.6 0-.34.26-.6.6-.6h.6Zm1.8-8.4c-.34 0-.6.26-.6.6v3.6c0 .33.26.6.6.6 .33 0 .6-.27.6-.6v-3.6c0-.34-.27-.6-.6-.6ZM15 4.8c.33 0 .6.26.6.6 0 .33-.27.6-.6.6h-1.2c-.34 0-.6-.27-.6-.6 0-.34.26-.6.6-.6H15Zm.6 13.8c0-.34-.27-.6-.6-.6h-1.2c-.34 0-.6.26-.6.6 0 .33.26.6.6.6H15c.33 0 .6-.27.6-.6Z"/><path fill="currentColor" fill-rule="evenodd" d="M11.4 2.55c-.25 0-.45.2-.45.45v18c0 .24.2.45.45.45 .24 0 .45-.21.45-.45V3c0-.25-.21-.45-.45-.45Zm-.75.45c0-.42.33-.75.75-.75 .41 0 .75.33.75.75v18c0 .41-.34.75-.75.75 -.42 0-.75-.34-.75-.75V3Zm-8.4 4.2c0-1.41 1.14-2.55 2.55-2.55h4.8c.08 0 .15.06.15.15v14.4c0 .08-.07.15-.15.15H4.8c-1.41 0-2.55-1.15-2.55-2.55V7.2ZM4.8 4.95c-1.25 0-2.25 1-2.25 2.25v9.6c0 1.24 1 2.25 2.25 2.25h4.65V4.95H4.8Zm9 0c-.25 0-.45.2-.45.45 0 .24.2.45.45.45H15c.24 0 .45-.21.45-.45 0-.25-.21-.45-.45-.45h-1.2Zm-.75.45c0-.42.33-.75.75-.75H15c.41 0 .75.33.75.75 0 .41-.34.75-.75.75h-1.2c-.42 0-.75-.34-.75-.75Zm3.6 0c0-.42.33-.75.75-.75h.6c1.4 0 2.55 1.14 2.55 2.55v.6c0 .41-.34.75-.75.75 -.42 0-.75-.34-.75-.75v-.6c0-.58-.48-1.05-1.05-1.05h-.6c-.42 0-.75-.34-.75-.75Zm.75-.45c-.25 0-.45.2-.45.45 0 .24.2.45.45.45h.6c.74 0 1.35.6 1.35 1.35v.6c0 .24.2.45.45.45 .24 0 .45-.21.45-.45v-.6c0-1.25-1.01-2.25-2.25-2.25h-.6Zm1.65 5.25c0-.42.33-.75.75-.75 .41 0 .75.33.75.75v3.6c0 .41-.34.75-.75.75 -.42 0-.75-.34-.75-.75v-3.6Zm.75-.45c-.25 0-.45.2-.45.45v3.6c0 .24.2.45.45.45 .24 0 .45-.21.45-.45v-3.6c0-.25-.21-.45-.45-.45Zm0 6c-.25 0-.45.2-.45.45v.6c0 .74-.61 1.35-1.35 1.35h-.6c-.25 0-.45.2-.45.45 0 .24.2.45.45.45h.6c1.24 0 2.25-1.01 2.25-2.25v-.6c0-.25-.21-.45-.45-.45Zm-.75.45c0-.42.33-.75.75-.75 .41 0 .75.33.75.75v.6c0 1.4-1.15 2.55-2.55 2.55h-.6c-.42 0-.75-.34-.75-.75 0-.42.33-.75.75-.75h.6c.57 0 1.05-.48 1.05-1.05v-.6Zm-6 2.4c0-.42.33-.75.75-.75H15c.41 0 .75.33.75.75 0 .41-.34.75-.75.75h-1.2c-.42 0-.75-.34-.75-.75Zm.75-.45c-.25 0-.45.2-.45.45 0 .24.2.45.45.45H15c.24 0 .45-.21.45-.45 0-.25-.21-.45-.45-.45h-1.2Z"/></g></svg>