<svg viewBox="0 0 24 24" xmlns="http://www.w3.org/2000/svg"><g fill="currentColor"><path d="M1.8 11.99c0-.34.26-.6.6-.6h18c.33 0 .6.26.6.6 0 .33-.27.6-.6.6H2.39c-.34 0-.6-.27-.6-.6Zm2.4 6.6c0 1.32 1.07 2.4 2.4 2.4h9.6c1.32 0 2.4-1.08 2.4-2.4v-4.8H4.19v4.8Zm1.2-13.2c0-.67.53-1.2 1.2-1.2h.6c.33 0 .6-.27.6-.6 0-.34-.27-.6-.6-.6h-.6c-1.33 0-2.4 1.07-2.4 2.4v.6c0 .33.26.6.6.6 .33 0 .6-.27.6-.6v-.6Zm12 0c0-.67-.54-1.2-1.2-1.2h-.6c-.34 0-.6-.27-.6-.6 0-.34.26-.6.6-.6h.6c1.32 0 2.4 1.07 2.4 2.4v.6c0 .33-.27.6-.6.6 -.34 0-.6-.27-.6-.6v-.6Zm-8.41-1.8c0 .33.26.6.6.6h3.6c.33 0 .6-.27.6-.6 0-.34-.27-.6-.6-.6H9.58c-.34 0-.6.26-.6.6Zm-4.8 4.8c0-.34.26-.6.6-.6 .33 0 .6.26.6.6v1.2c0 .33-.27.6-.6.6 -.34 0-.6-.27-.6-.6v-1.2Zm13.8-.6c-.34 0-.6.26-.6.6v1.2c0 .33.26.6.6.6 .33 0 .6-.27.6-.6v-1.2c0-.34-.27-.6-.6-.6Z"/><path fill="currentColor" fill-rule="evenodd" d="M1.95 11.99c0 .24.2.45.45.45h18c.24 0 .45-.21.45-.45 0-.25-.21-.45-.45-.45H2.39c-.25 0-.45.2-.45.45Zm.45.75c-.42 0-.75-.34-.75-.75 0-.42.33-.75.75-.75h18c.41 0 .75.33.75.75 0 .41-.34.75-.75.75H2.39Zm4.2 8.4c-1.41 0-2.55-1.15-2.55-2.55v-4.8c0-.09.06-.15.15-.15h14.4c.08 0 .15.06.15.15v4.8c0 1.4-1.15 2.55-2.55 2.55H6.59Zm-2.25-2.55c0 1.24 1 2.25 2.25 2.25h9.6c1.24 0 2.25-1.01 2.25-2.25v-4.65H4.34v4.65Zm0-9c0 .24.2.45.45.45 .24 0 .45-.21.45-.45v-1.2c0-.25-.21-.45-.45-.45 -.25 0-.45.2-.45.45v1.2Zm.45.75c-.42 0-.75-.34-.75-.75v-1.2c0-.42.33-.75.75-.75 .41 0 .75.33.75.75v1.2c0 .41-.34.75-.75.75Zm0-3.6c-.42 0-.75-.34-.75-.75v-.6c0-1.41 1.14-2.55 2.55-2.55h.6c.41 0 .75.33.75.75 0 .41-.34.75-.75.75h-.6c-.58 0-1.05.47-1.05 1.05v.6c0 .41-.34.75-.75.75Zm-.45-.75c0 .24.2.45.45.45 .24 0 .45-.21.45-.45v-.6c0-.75.6-1.35 1.35-1.35h.6c.24 0 .45-.21.45-.45 0-.25-.21-.45-.45-.45h-.6c-1.25 0-2.25 1-2.25 2.25v.6ZM9.6 4.34c-.42 0-.75-.34-.75-.75 0-.42.33-.75.75-.75h3.6c.41 0 .75.33.75.75 0 .41-.34.75-.75.75H9.59Zm-.45-.75c0 .24.2.45.45.45h3.6c.24 0 .45-.21.45-.45 0-.25-.21-.45-.45-.45H9.59c-.25 0-.45.2-.45.45Zm6 0c0 .24.2.45.45.45h.6c.74 0 1.35.6 1.35 1.35v.6c0 .24.2.45.45.45 .24 0 .45-.21.45-.45v-.6c0-1.25-1.01-2.25-2.25-2.25h-.6c-.25 0-.45.2-.45.45Zm.45.75c-.42 0-.75-.34-.75-.75 0-.42.33-.75.75-.75h.6c1.4 0 2.55 1.14 2.55 2.55v.6c0 .41-.34.75-.75.75 -.42 0-.75-.34-.75-.75v-.6c0-.58-.48-1.05-1.05-1.05h-.6Zm2.4 6c-.42 0-.75-.34-.75-.75v-1.2c0-.42.33-.75.75-.75 .41 0 .75.33.75.75v1.2c0 .41-.34.75-.75.75Zm-.45-.75c0 .24.2.45.45.45 .24 0 .45-.21.45-.45v-1.2c0-.25-.21-.45-.45-.45 -.25 0-.45.2-.45.45v1.2Z"/></g></svg>