<svg viewBox="0 0 24 24" xmlns="http://www.w3.org/2000/svg"><path fill="currentColor" d="M12 2C6.47 2 2 6.47 2 12c0 5.52 4.47 10 10 10 5.52 0 10-4.48 10-10 0-5.53-4.48-10-10-10ZM8.24 4.37l3 1.79v2.19l-2.8 2.02 -2.05-.71 -.59-3.54c.68-.73 1.5-1.34 2.41-1.79Zm-4.63 9.06l2.32-2.33 2.03.7 1.08 3.33 -.97 1.57 -3.3-.2c-.59-.93-1-1.98-1.19-3.1Zm6.9 6.93l-1.19-2.81 .96-1.57h3.37l.91 1.58 -1.04 2.78c-.51.09-1.03.14-1.56.14 -.51 0-1-.05-1.48-.13Zm8.36-3.4l-3.03-.19 -.94-1.63 1.08-3.35 2.01-.7 2.31 2.52c-.24 1.22-.75 2.35-1.45 3.33Zm-.72-10.83l-.59 3.53 -2.04.7 -2.8-2.03v-2.2l3-1.8c.9.44 1.72 1.05 2.41 1.78Z"/></svg>