<svg viewBox="0 0 24 24" xmlns="http://www.w3.org/2000/svg"><path fill="currentColor" d="M3.94 6.07c-1.23 1.65-1.95 3.7-1.95 5.92 0 2.2.71 4.25 1.92 5.9 .07-.07.14-.14.22-.22 .64-.58 1.6-1.27 2.85-1.69 .39-.14.81.08.94.47 .13.39-.09.81-.48.94 -1.01.33-1.79.89-2.34 1.37 -.1.08-.18.16-.26.23 1.81 1.82 4.32 2.95 7.09 2.95 2.77 0 5.28-1.13 7.09-2.96 -.08-.08-.16-.16-.26-.24 -.55-.49-1.34-1.05-2.34-1.38 -.4-.14-.61-.56-.48-.95 .13-.4.55-.61.94-.48 1.24.41 2.21 1.1 2.85 1.68 .08.07.15.14.22.21 1.21-1.66 1.92-3.7 1.92-5.91 0-2.22-.73-4.27-1.95-5.93 -.07.06-.14.13-.22.19 -.65.57-1.61 1.26-2.86 1.68 -.4.13-.82-.09-.95-.48 -.14-.4.08-.82.47-.95 1-.34 1.78-.9 2.33-1.38 .08-.08.16-.16.23-.23 -1.82-1.82-4.32-2.94-7.09-2.94 -2.77 0-5.28 1.12-7.09 2.93 .07.07.15.14.23.22 .54.48 1.33 1.04 2.33 1.37 .39.13.6.55.47.94 -.14.39-.56.6-.95.47 -1.25-.42-2.22-1.11-2.86-1.69 -.08-.07-.15-.14-.22-.2Zm5.08 10.07c-.1-.4.15-.82.54-.91l0-.01 0-.01 .02-.01c.01-.01.04-.02.08-.02 .06-.02.16-.04.28-.06 .24-.05.59-.1 1.03-.13 .86-.07 2.05-.07 3.39.19 .4.08.66.47.58.88 -.09.4-.48.66-.89.58 -1.17-.24-2.23-.24-2.99-.18 -.38.02-.69.07-.891.1 -.11.01-.19.03-.24.04 -.03 0-.07.01-.07.01s-.75.09-.91-.55Zm.9-8.89c0-.001.04 0 .06.01 .05.01.12.02.23.04 .2.03.51.07.891.1 .76.05 1.81.05 2.98-.18 .4-.09.8.18.88.58 .08.4-.19.8-.59.88 -1.34.26-2.53.26-3.4.19 -.44-.04-.79-.09-1.04-.13 -.13-.03-.23-.05-.29-.06 -.04-.01-.07-.02-.09-.02l-.03-.01 -.01-.01 -.01-.01c-.4-.1-.65-.52-.55-.91 .16-.65.9-.55.9-.55Z"/></svg>