<svg viewBox="0 0 24 24" xmlns="http://www.w3.org/2000/svg"><path fill="currentColor" d="M20.16 4.89c.4.48.75 1.02 1.03 1.6 -.46.88-1.39 1.49-2.45 1.49 -.49 0-.95-.13-1.35-.35l2.75-2.76Zm-1.07-1.07l-2.76 2.75c-.23-.4-.35-.86-.35-1.35 0-1.07.6-2 1.49-2.45 .57.28 1.11.62 1.6 1.03Zm2.89 6.16c0-.62-.07-1.22-.21-1.79 -.78.79-1.86 1.28-3.05 1.28 -.91 0-1.74-.29-2.43-.77l-.77.76 5.03 5.03c.88-1.29 1.4-2.85 1.4-4.54Zm-7.5-4.75c0-1.2.49-2.28 1.28-3.05 -.58-.14-1.18-.21-1.79-.21 -1.69 0-3.25.51-4.54 1.4l5.03 5.03 .76-.77c-.48-.69-.77-1.53-.77-2.43Zm0 5.31l5.12 5.12c-1 .97-2.24 1.7-3.63 2.06 -.01-2.43-.89-4.64-2.35-6.35l.84-.85Zm-1.91-.22c-1.71-1.47-3.93-2.35-6.35-2.35 .35-1.4 1.08-2.64 2.06-3.63l5.12 5.12 -.85.84ZM4.22 8.97c-1.25 0-2.25 1-2.25 2.25v2c0 4.83 3.91 8.75 8.75 8.75h2c1.24 0 2.25-1.01 2.25-2.25v-2c0-4.84-3.92-8.75-8.75-8.75h-2Zm2.46 4.71c.29-.3.76-.3 1.06 0l2.49 2.5c.29.29.29.76 0 1.06 -.3.29-.77.29-1.07 0l-2.5-2.5c-.3-.3-.3-.77 0-1.07Z"/></svg>