<svg viewBox="0 0 24 24" xmlns="http://www.w3.org/2000/svg"><path fill="currentColor" d="M2.35 12.57c-.69 1.89-.78 3.87.43 5.099l-.01 0 .23.23c.15.15.37.38.66.66 .56.57 1.38 1.39 2.36 2.37 1.27 1.27 3.3 1.3 5.28.66 2.02-.66 4.25-2.061 6.22-4.04 1.97-1.98 3.38-4.2 4.03-6.23 .64-1.99.61-4.01-.66-5.29 -.52-.52-1.34-1.34-2.02-2.03 -.35-.35-.66-.66-.88-.89l-.37-.37 -.01 0c-1.23-1.22-3.21-1.13-5.1-.44 -1.97.7-4.15 2.14-6.12 4.11 -1.97 1.96-3.41 4.15-4.12 6.11Zm15.13-5.71l-.01 0 -.01 0 -.01 0 -.01.01 -.01.03c-.01.03-.02.07-.03.12 -.03.1-.06.26-.12.45 -.11.38-.28.91-.55 1.54 -.54 1.25-1.47 2.9-3.05 4.48 -1.58 1.57-3.28 2.56-4.59 3.15 -.66.29-1.21.49-1.61.61 -.2.06-.36.1-.47.13 -.06.01-.11.02-.14.03l-.04 0 -.02 0 -.01 0 -.01 0s-.75.08-.9-.58c-.09-.41.16-.81.57-.9l0-.01 0-.01 .02-.01c.02-.01.05-.02.09-.03 .08-.03.22-.07.39-.12 .34-.11.84-.29 1.43-.56 1.18-.54 2.71-1.43 4.13-2.85 1.41-1.42 2.25-2.9 2.73-4.02 .23-.56.38-1.03.47-1.35 .04-.17.07-.29.09-.37 0-.05.01-.08.01-.09 .07-.41.44-.71.86-.64 .4.06.68.45.61.86Z"/></svg>