<svg viewBox="0 0 24 24" xmlns="http://www.w3.org/2000/svg"><path fill="currentColor" d="M18.43 12.86c-1.29-.39-2.77-.9-4.17-2.08l-1.22 1.21 6.52 6.52c1.07-1.26 1.79-2.71 2.15-4.23 -.01-.01-.01-.01-.01-.01 -.01-.01-.01-.01-.01-.01 -.35-.35-.78-.59-1.34-.81 -.44-.17-.91-.31-1.43-.46 -.17-.05-.35-.1-.53-.16Zm.08-8.45l-4.25 4.24c-.93-1.13-1.35-2.34-1.71-3.53 -.05-.16-.1-.32-.14-.47 -.16-.54-.32-1.1-.52-1.6 -.15-.37-.31-.73-.52-1.06 2.51-.15 5.08.65 7.11 2.4Zm1.06 1.06l-4.25 4.24c1.12.91 2.33 1.34 3.52 1.7 .15.04.3.09.46.13 .53.15 1.09.31 1.59.51 .36.14.72.3 1.06.51 .14-2.52-.66-5.09-2.41-7.12ZM9.7 2.27l-.02-.02C8.15 2.6 6.7 3.32 5.45 4.4l6.52 6.52 1.21-1.22c-1.19-1.4-1.7-2.88-2.08-4.17 -.06-.19-.11-.36-.16-.53 -.16-.53-.29-1-.46-1.43 -.22-.56-.47-1-.81-1.34Zm-7.59 8.1c.28-1.77 1.04-3.48 2.28-4.91l6.52 6.52 -1.09 1.08c-1.48-1.2-3.2-1.62-4.67-1.92 -.21-.05-.41-.09-.61-.12 -.61-.12-1.15-.23-1.65-.37 -.32-.1-.59-.2-.82-.31Zm-.13 1.57c-.01 2.33.79 4.67 2.41 6.55l4.36-4.37c-1.15-.88-2.5-1.23-3.89-1.51 -.18-.04-.36-.08-.55-.11 -.63-.13-1.26-.25-1.83-.41 -.18-.06-.36-.11-.53-.18Zm7.84 3.25l-4.37 4.36c1.93 1.66 4.35 2.47 6.75 2.41 -.16-.31-.27-.62-.37-.94 -.17-.54-.29-1.125-.42-1.71 -.04-.17-.07-.34-.11-.5 -.28-1.28-.63-2.54-1.51-3.66Zm4.04 6.6c1.66-.32 3.26-1.07 4.62-2.24l-6.53-6.53 -1.09 1.08c1.18 1.43 1.6 3.03 1.9 4.4 .04.19.08.37.11.55 .11.55.22 1.05.36 1.51 .15.5.34.89.59 1.2Z"/></svg>