<svg viewBox="0 0 24 24" xmlns="http://www.w3.org/2000/svg"><path fill="currentColor" d="M21.37 11.49c-1.43 4.75-5.2 8.5-9.98 9.9l-8.82-8.82c1.39-4.78 5.14-8.55 9.9-9.98l8.87 8.87ZM13.71 9.2L9.2 13.7c-.3.29-.3.76 0 1.06 .29.29.76.29 1.06 0l4.5-4.5c.29-.3.29-.77 0-1.07 -.3-.3-.77-.3-1.07 0ZM2.18 14.3l7.48 7.48c-.8.13-1.61.19-2.43.19h-1c-2.35 0-4.25-1.91-4.25-4.25v-1c0-.83.06-1.64.19-2.43ZM14.19 2.19l7.56 7.56c.14-.83.21-1.67.21-2.54v-1c0-2.35-1.91-4.25-4.25-4.25h-1c-.87 0-1.72.07-2.54.21Z"/></svg>