<svg viewBox="0 0 24 24" xmlns="http://www.w3.org/2000/svg"><path fill="currentColor" d="M21 2.25c0-.42.33-.75.75-.75 .41 0 .75.33.75.75 0 .41-.34.75-.75.75 -.42 0-.75-.34-.75-.75Zm-3 1.5c0-.42.33-.75.75-.75 .41 0 .75.33.75.75 0 .41-.34.75-.75.75 -.42 0-.75-.34-.75-.75ZM15.75 6c.41 0 .75-.34.75-.75 0-.42-.34-.75-.75-.75 -.42 0-.75.33-.75.75 0 .41.33.75.75.75Zm3 0c-.42 0-.75.33-.75.75 0 .41.33.75.75.75 .41 0 .75-.34.75-.75 0-.42-.34-.75-.75-.75Zm3-1.5c-.42 0-.75.33-.75.75 0 .41.33.75.75.75 .41 0 .75-.34.75-.75 0-.42-.34-.75-.75-.75ZM21 8.25c0-.42.33-.75.75-.75 .41 0 .75.33.75.75 0 .41-.34.75-.75.75 -.42 0-.75-.34-.75-.75Zm-4.52 1.404c-.01-.04-.02-.07-.02-.1 -.04-.13-.09-.25-.19-.34l-2.79-2.79V3.73c0-.42-.34-.75-.75-.75h-3c-.42 0-.75.33-.75.75v2.68L6.19 9.18c-.1.09-.15.21-.19.33 -.01.03-.02.06-.02.09 -.01 0-.01.01-.01.02 -.01 0-.01 0-.01.01 -.01.01-.02.03-.02.05v10.125c0 1.44 1.17 2.625 2.625 2.625h5.25c1.44 0 2.62-1.18 2.62-2.625V9.68c0-.02-.01-.04-.01-.05 -.01-.01-.01-.01-.01-.01 -.01-.02-.01-.03-.01-.04ZM10.49 4.5h1.5V6h-1.5V4.5Zm-.44 3h2.37l1.5 1.5H8.54l1.5-1.5Z"/></svg>