<svg viewBox="0 0 24 24" xmlns="http://www.w3.org/2000/svg"><path fill="currentColor" d="M6.25 3c.41 0 .75.33.75.75 0 .41-.34.75-.75.75 -.97 0-1.75.78-1.75 1.75 0 .41-.34.75-.75.75C3.33 7 3 6.66 3 6.25 3 4.45 4.45 3 6.25 3Zm3.5 0c-.42 0-.75.33-.75.75 0 .41.33.75.75.75h4.5c.41 0 .75-.34.75-.75 0-.42-.34-.75-.75-.75h-4.5Zm7.25.75c0 .41.33.75.75.75 .96 0 1.75.78 1.75 1.75v1c0 .41.33.75.75.75 .41 0 .75-.34.75-.75v-1C21 4.45 19.54 3 17.75 3c-.42 0-.75.33-.75.75Zm-14 14c0-.42.33-.75.75-.75 .41 0 .75.33.75.75 0 .96.78 1.75 1.75 1.75h1c.41 0 .75.33.75.75 0 .41-.34.75-.75.75h-1C4.45 21 3 19.54 3 17.75Zm0-3.5c0 .41.33.75.75.75 .41 0 .75-.34.75-.75v-4.5c0-.42-.34-.75-.75-.75 -.42 0-.75.33-.75.75v4.5ZM7 5.5c-.83 0-1.5.67-1.5 1.5v10c0 .82.67 1.5 1.5 1.5h2v-.75c0-1.8 1.45-3.25 3.25-3.25h2.25v-2.25c0-1.8 1.45-3.25 3.25-3.25h.75V7c0-.83-.68-1.5-1.5-1.5H7Zm5.25 10h3.25v-3.25c0-1.25 1-2.25 2.25-2.25h3c1.24 0 2.25 1 2.25 2.25v7.5c0 1.79-1.46 3.25-3.25 3.25h-7.5C11 23 10 21.99 10 20.75v-3c0-1.25 1-2.25 2.25-2.25ZM17 12.25v3.25h4.5v-3.25c0-.42-.34-.75-.75-.75h-3c-.42 0-.75.33-.75.75Zm-1.5 9.25V17h-3.25c-.42 0-.75.33-.75.75v3c0 .41.33.75.75.75h3.25ZM17 17v4.5h2.75c.96 0 1.75-.79 1.75-1.75V17H17Z"/></svg>