<svg viewBox="0 0 24 24" xmlns="http://www.w3.org/2000/svg"><g fill="currentColor"><path d="M10.47 16.36l5.88-5.88c.52-.54 1.23-.85 1.98-.89 .74-.04 1.48.21 2.05.7V7.18c0-.96-.38-1.88-1.06-2.55 -.68-.68-1.6-1.06-2.55-1.06h-9.6c-.96 0-1.88.37-2.55 1.05 -.68.67-1.06 1.59-1.06 2.54v9.6c0 .95.37 1.87 1.05 2.54 .67.67 1.59 1.05 2.54 1.05h3.1c-.48-.58-.73-1.31-.7-2.06 .03-.75.34-1.46.86-1.99Zm9.28-5.04l2.51 2.51c.16.16.3.36.39.58 .09.21.13.45.13.68 0 .23-.05.47-.14.68 -.1.21-.23.41-.4.58l-4.32 4.32 -5.06-5.07 4.32-4.32c.16-.17.36-.3.58-.4 .21-.1.45-.14.68-.14 .23 0 .47.04.68.13 .21.09.41.22.58.39Zm-2.66 10.22l-5.06-5.07 -.72.72c-.17.16-.3.36-.4.58 -.1.21-.14.45-.14.68 0 .23.04.47.13.68 .09.21.22.41.39.58l2.52 2.51c.17.17.38.31.61.4 .23.09.47.13.72.12h4.91c.15 0 .31-.07.42-.18 .11-.12.17-.27.17-.43 0-.16-.07-.32-.18-.43 -.12-.12-.27-.18-.43-.18h-3.04l.04-.05Z"/><path fill="currentColor" fill-rule="evenodd" d="M16.35 10.48l-5.88 5.88c-.53.53-.84 1.23-.87 1.98 -.03.7.18 1.39.61 1.95 .02.03.05.06.08.1H7.18c-.96 0-1.88-.38-2.55-1.06 -.68-.68-1.06-1.6-1.06-2.55v-9.6c0-.96.37-1.88 1.05-2.55 .67-.68 1.59-1.06 2.54-1.06h9.6c.95 0 1.87.37 2.54 1.05 .67.67 1.05 1.59 1.05 2.54v3.1c-.04-.03-.07-.06-.1-.09 -.56-.44-1.25-.66-1.96-.63 -.75.03-1.46.34-1.99.88Zm-5.81 5.95l5.87-5.88c.5-.52 1.19-.83 1.91-.86 .72-.04 1.43.21 1.98.68l.16.13V7.17c0-.99-.39-1.93-1.09-2.62 -.7-.7-1.64-1.09-2.62-1.09h-9.6c-.99 0-1.93.38-2.62 1.08 -.7.69-1.09 1.63-1.09 2.61v9.6c0 .98.38 1.92 1.08 2.61 .69.69 1.63 1.08 2.61 1.08h3.32l-.14-.17c-.47-.56-.71-1.27-.68-1.99 .03-.73.32-1.41.83-1.92 0-.01 0 0 0 0Zm6.667-5.11c.16-.17.36-.3.58-.4 .21-.1.45-.14.68-.14 .23 0 .47.04.68.13 .21.09.41.22.58.39l2.51 2.51c.16.16.3.36.39.58 .09.21.13.45.13.68 0 .23-.05.47-.14.68 -.1.21-.23.41-.4.58l-4.32 4.32 -5.06-5.07 4.32-4.32Zm5.12 5.13l-4.4 4.39 -5.21-5.21 4.39-4.4c.17-.18.38-.32.61-.42 .23-.1.47-.15.72-.15 .24 0 .49.04.72.14 .23.09.43.23.61.41l2.51 2.51s0 0 0 0c.17.17.31.38.41.61 .09.23.14.47.14.72 0 .24-.05.49-.15.72 -.1.23-.24.44-.42.61 0 0 0 0 0 0Zm-5.29 5.14h3.03c.15 0 .31.06.42.17 .11.11.17.26.17.42 0 .15-.07.31-.18.42 -.12.11-.27.17-.43.17h-4.92c-.25 0-.5-.04-.73-.13 -.24-.1-.45-.23-.62-.41l-2.52-2.52c-.17-.17-.3-.37-.4-.59 -.1-.22-.14-.46-.14-.69 0-.24.04-.48.13-.69 .09-.22.22-.42.39-.59l.72-.72L17 21.49l-.05.04Zm-5.81-4.46l.79-.8 5.14 5.14h2.9c.18 0 .36.07.49.2s.2.3.2.49c0 .18-.08.36-.21.49 -.14.13-.31.2-.5.2h-4.91c-.27 0-.53-.04-.77-.13 -.25-.1-.47-.25-.65-.43l-2.52-2.52c-.18-.18-.32-.39-.42-.62 -.1-.24-.15-.48-.15-.73s.04-.5.14-.73c.09-.24.23-.45.41-.62 0 0 0 0 0 0Z"/></g></svg>