<svg viewBox="0 0 24 24" xmlns="http://www.w3.org/2000/svg"><path fill="currentColor" d="M10.75 3c-.42 0-.75.33-.75.75 0 .41.33.75.75.75h2.5c.41 0 .75-.34.75-.75 0-.42-.34-.75-.75-.75h-2.5Zm6.25.75c0 .41.33.75.75.75 .96 0 1.75.78 1.75 1.75 0 .41.33.75.75.75 .41 0 .75-.34.75-.75C21 4.45 19.54 3 17.75 3c-.42 0-.75.33-.75.75Zm-10 0C7 3.33 6.66 3 6.25 3 4.45 3 3 4.45 3 6.25c0 .41.33.75.75.75 .41 0 .75-.34.75-.75 0-.97.78-1.75 1.75-1.75 .41 0 .75-.34.75-.75Zm-4 14c0-.42.33-.75.75-.75 .41 0 .75.33.75.75 0 .96.78 1.75 1.75 1.75 .41 0 .75.33.75.75 0 .41-.34.75-.75.75C4.45 21 3 19.54 3 17.75Zm7 2.5c0-.42.33-.75.75-.75h2.5c.41 0 .75.33.75.75 0 .41-.34.75-.75.75h-2.5c-.42 0-.75-.34-.75-.75Zm7 0c0-.42.33-.75.75-.75 .96 0 1.75-.79 1.75-1.75 0-.42.33-.75.75-.75 .41 0 .75.33.75.75 0 1.79-1.46 3.25-3.25 3.25 -.42 0-.75-.34-.75-.75Zm4-9.5c0-.42-.34-.75-.75-.75 -.42 0-.75.33-.75.75v2.5c0 .41.33.75.75.75 .41 0 .75-.34.75-.75v-2.5ZM3.75 14c-.42 0-.75-.34-.75-.75v-2.5c0-.42.33-.75.75-.75 .41 0 .75.33.75.75v2.5c0 .41-.34.75-.75.75Zm4.93-6.25c.26-.47.76-.76 1.29-.76H14c.53 0 1.03.28 1.29.75l2.02 3.5c.26.46.26 1.03 0 1.49l-2.03 3.5c-.27.46-.77.75-1.3.75H9.94c-.54 0-1.04-.29-1.3-.76l-2.03-3.51c-.27-.47-.27-1.04 0-1.5L8.63 7.7Z"/></svg>