<svg viewBox="0 0 24 24" xmlns="http://www.w3.org/2000/svg"><g fill="currentColor"><path d="M5.4 2.4c-1.66 0-3 1.34-3 3v8.4c0 1.65 1.34 3 3 3h1.8v1.8c0 1.65 1.34 3 3 3h8.4c1.65 0 3-1.35 3-3v-8.4c0-1.66-1.35-3-3-3h-1.8V5.4c0-1.66-1.35-3-3-3H5.4Zm-1.2 3c0-.67.53-1.2 1.2-1.2h8.4c.66 0 1.2.53 1.2 1.2v8.4c0 .66-.54 1.2-1.2 1.2H5.4c-.67 0-1.2-.54-1.2-1.2V5.4Z"/><path fill="currentColor" fill-rule="evenodd" d="M2.25 5.4c0-1.74 1.41-3.15 3.15-3.15h8.4c1.73 0 3.15 1.41 3.15 3.15v1.65h1.65c1.73 0 3.15 1.41 3.15 3.15v8.4c0 1.73-1.42 3.15-3.15 3.15h-8.4c-1.74 0-3.15-1.42-3.15-3.15v-1.65H5.4c-1.74 0-3.15-1.42-3.15-3.15V5.4ZM5.4 2.55c-1.58 0-2.85 1.27-2.85 2.85v8.4c0 1.57 1.27 2.85 2.85 2.85h1.95v1.95c0 1.57 1.27 2.85 2.85 2.85h8.4c1.57 0 2.85-1.28 2.85-2.85v-8.4c0-1.58-1.28-2.85-2.85-2.85h-1.95V5.4c0-1.58-1.28-2.85-2.85-2.85H5.4Zm0 1.8c-.58 0-1.05.47-1.05 1.05v8.4c0 .57.47 1.05 1.05 1.05h8.4c.57 0 1.05-.48 1.05-1.05V5.4c0-.58-.48-1.05-1.05-1.05H5.4ZM4.05 5.4c0-.75.6-1.35 1.35-1.35h8.4c.74 0 1.35.6 1.35 1.35v8.4c0 .74-.61 1.35-1.35 1.35H5.4c-.75 0-1.35-.61-1.35-1.35V5.4Z"/></g></svg>