<svg viewBox="0 0 24 24" xmlns="http://www.w3.org/2000/svg"><path fill="currentColor" d="M6.25 3C4.45 3 3 4.45 3 6.25v11.5C3 19.54 4.45 21 6.25 21h5.77c-.65-1.02-1.03-2.22-1.03-3.5 0-3.59 2.91-6.5 6.5-6.5 1.28 0 2.48.37 3.5 1.02V6.24c0-1.8-1.46-3.25-3.25-3.25H6.24ZM12 17.5c0 3.03 2.46 5.5 5.5 5.5 3.03 0 5.5-2.47 5.5-5.5 0-3.04-2.47-5.5-5.5-5.5 -3.04 0-5.5 2.46-5.5 5.5Zm6.64-2.15c-.2-.2-.2-.52 0-.71 .19-.2.51-.2.7 0l1.5 1.5c.19.19.19.51 0 .7l-1.5 1.5c-.2.19-.52.19-.71 0 -.2-.2-.2-.52 0-.71l.64-.65h-2.05c-1.25 0-2.25 1-2.25 2.25v.25c0 .27-.23.5-.5.5 -.28 0-.5-.23-.5-.5v-.25c0-1.8 1.45-3.25 3.25-3.25h2.04l-.65-.65Z"/></svg>