<svg viewBox="0 0 24 24" xmlns="http://www.w3.org/2000/svg"><g fill="currentColor"><path d="M7.2 3.59c-1.99 0-3.6 1.61-3.6 3.6v9.6c0 1.98 1.61 3.6 3.6 3.6h4.31c-.47-.91-.72-1.92-.72-3 0-3.65 2.95-6.6 6.6-6.6 1.08 0 2.09.25 3 .71V7.18c0-1.99-1.62-3.6-3.6-3.6h-9.6Zm10.2 19.2c2.98 0 5.4-2.42 5.4-5.4 0-2.99-2.42-5.4-5.4-5.4 -2.99 0-5.4 2.41-5.4 5.4 0 2.98 2.41 5.4 5.4 5.4Zm0-8.4c.33 0 .6.26.6.6v1.8h1.8c.33 0 .6.26.6.6 0 .33-.27.6-.6.6H18v1.8c0 .33-.27.6-.6.6 -.34 0-.6-.27-.6-.6v-1.8H15c-.34 0-.6-.27-.6-.6 0-.34.26-.6.6-.6h1.8v-1.8c0-.34.26-.6.6-.6Z"/><path fill="currentColor" fill-rule="evenodd" d="M3.45 7.19c0-2.08 1.67-3.75 3.75-3.75h9.6c2.07 0 3.75 1.67 3.75 3.75v4.56l-.22-.12c-.88-.45-1.88-.71-2.94-.71 -3.57 0-6.45 2.88-6.45 6.45 0 1.05.25 2.05.7 2.93l.11.21H7.18c-2.08 0-3.75-1.68-3.75-3.75V7.15ZM7.2 3.74c-1.91 0-3.45 1.54-3.45 3.45v9.6c0 1.9 1.54 3.45 3.45 3.45h4.07c-.41-.87-.63-1.84-.63-2.85 0-3.73 3.02-6.75 6.75-6.75 1.01 0 1.98.22 2.85.62V7.18c0-1.91-1.55-3.45-3.45-3.45h-9.6Zm4.65 13.65c0-3.07 2.48-5.55 5.55-5.55 3.06 0 5.55 2.48 5.55 5.55 0 3.06-2.49 5.55-5.55 5.55 -3.07 0-5.55-2.49-5.55-5.55Zm5.55-5.25c-2.9 0-5.25 2.35-5.25 5.25 0 2.89 2.35 5.25 5.25 5.25 2.89 0 5.25-2.36 5.25-5.25 0-2.9-2.36-5.25-5.25-5.25Zm0 2.4c-.25 0-.45.2-.45.45v1.95H15c-.25 0-.45.2-.45.45 0 .24.2.45.45.45h1.95v1.95c0 .24.2.45.45.45 .24 0 .45-.21.45-.45v-1.95h1.95c.24 0 .45-.21.45-.45 0-.25-.21-.45-.45-.45h-1.95v-1.95c0-.25-.21-.45-.45-.45Zm-.75.45c0-.42.33-.75.75-.75 .41 0 .75.33.75.75v1.65h1.65c.41 0 .75.33.75.75 0 .41-.34.75-.75.75h-1.65v1.65c0 .41-.34.75-.75.75 -.42 0-.75-.34-.75-.75v-1.65H15c-.42 0-.75-.34-.75-.75 0-.42.33-.75.75-.75h1.65v-1.65Z"/></g></svg>