<svg viewBox="0 0 24 24" xmlns="http://www.w3.org/2000/svg"><path fill="currentColor" d="M16.08 6.41c-.08-.1-.16-.19-.24-.27 -.32-.32-.7-.55-1.12-.69L13.34 5c-.11-.04-.2-.11-.27-.2 -.07-.1-.1-.21-.1-.32 0-.12.03-.23.1-.32 .06-.1.15-.17.26-.2l1.37-.45c.41-.15.78-.38 1.09-.7 .29-.31.52-.67.66-1.08l.01-.04L16.9.31c.03-.11.1-.2.19-.27s.2-.1.31-.1c.11 0 .22.03.31.09s.16.15.19.26l.44 1.37c.13.41.37.79.68 1.11 .31.31.69.54 1.11.68l1.37.44 .02 0c.1.03.19.1.26.19 .06.09.1.2.1.31 0 .11-.04.22-.1.31 -.07.09-.16.16-.27.19l-1.38.44c-.42.13-.8.37-1.12.68 -.32.31-.55.69-.69 1.11l-.45 1.37c-.01.01-.01.02-.02.03 -.04.09-.11.17-.19.22 -.1.06-.21.09-.32.09 -.12 0-.23-.04-.32-.1 -.1-.07-.17-.16-.2-.27l-.45-1.38c-.11-.31-.26-.6-.46-.85Zm7.69 3.8L23 9.96c-.24-.08-.45-.21-.62-.39 -.18-.18-.31-.39-.39-.62l-.25-.77c-.03-.06-.06-.11-.12-.15 -.06-.04-.12-.06-.18-.06 -.07 0-.13.01-.18.05 -.06.03-.09.08-.12.14l-.25.76c-.08.23-.21.44-.38.61 -.18.17-.38.3-.61.38l-.77.24c-.06.02-.12.05-.15.11 -.04.05-.06.11-.06.17 0 .06.01.12.05.17 .03.05.08.08.14.11l.76.24c.23.07.44.2.61.38 .17.17.3.38.38.61l.24.76c.02.05.05.11.11.14 .05.03.11.05.17.05 .06 0 .12-.02.17-.06 .05-.04.08-.09.11-.15l.24-.77c.07-.24.2-.45.38-.62 .17-.18.38-.31.61-.39l.76-.25c.05-.03.11-.06.14-.12 .03-.06.05-.12.05-.18 0-.07-.02-.13-.06-.18 -.04-.06-.09-.09-.15-.12l-.02-.01ZM12.26 3.56c.19-.27.45-.46.76-.57 -.02-.01-.03-.01-.05-.01h-2c-.56 0-1 .44-1 1 0 .55.44 1 1 1h1.09c-.07-.17-.1-.35-.1-.54 0-.33.09-.64.28-.9ZM3.98 9.99c.55 0 1 .44 1 1v2c0 .55-.45 1-1 1 -.56 0-1-.45-1-1v-2c0-.56.44-1 1-1Zm10 10c0 .55-.45 1-1 1h-2c-.56 0-1-.45-1-1 0-.56.44-1 1-1h2c.55 0 1 .44 1 1Zm-8-17c.55 0 1 .44 1 1 0 .55-.45 1-1 1 -.56 0-1 .44-1 1 0 .55-.45 1-1 1 -.56 0-1-.45-1-1 0-1.66 1.34-3 3-3Zm0 18c.55 0 1-.45 1-1 0-.56-.45-1-1-1 -.56 0-1-.45-1-1 0-.56-.45-1-1-1 -.56 0-1 .44-1 1 0 1.65 1.34 3 3 3Zm11-1c0 .55.44 1 1 1 1.65 0 3-1.35 3-3 0-.56-.45-1-1-1 -.56 0-1 .44-1 1 0 .55-.45 1-1 1 -.56 0-1 .44-1 1Z"/></svg>