<svg viewBox="0 0 24 24" xmlns="http://www.w3.org/2000/svg"><g fill="currentColor"><path d="M11.1 3.6c-.5 0-.9.4-.9.9 0 .49.4.9.9.9h1.8c.49 0 .9-.41.9-.9 0-.5-.41-.9-.9-.9h-1.8Zm-7.5 9.3c0 .49.4.9.9.9 .49 0 .9-.41.9-.9v-1.8c0-.5-.41-.9-.9-.9 -.5 0-.9.4-.9.9v1.8ZM9 19.5c0-.5.4-.9.9-.9h1c.11.63.32 1.24.61 1.8H9.89c-.5 0-.9-.41-.9-.9Zm9.6-8.6c.63.11 1.24.32 1.8.61V9.89c0-.5-.41-.9-.9-.9 -.5 0-.9.4-.9.9v1ZM7.2 4.49c0-.5-.41-.9-.9-.9 -1.5 0-2.7 1.2-2.7 2.7 0 .49.4.9.9.9 .49 0 .9-.41.9-.9 0-.5.4-.9.9-.9 .49 0 .9-.41.9-.9Zm-.9 15.9c.49 0 .9-.41.9-.9 0-.5-.41-.9-.9-.9 -.5 0-.9-.41-.9-.9 0-.5-.41-.9-.9-.9 -.5 0-.9.4-.9.9 0 1.49 1.2 2.7 2.7 2.7Zm10.5-15.9c0-.5.4-.9.9-.9 1.49 0 2.7 1.2 2.7 2.7 0 .49-.41.9-.9.9 -.5 0-.9-.41-.9-.9 0-.5-.41-.9-.9-.9 -.5 0-.9-.41-.9-.9Zm.6 18.3c2.98 0 5.4-2.42 5.4-5.4 0-2.99-2.42-5.4-5.4-5.4 -2.99 0-5.4 2.41-5.4 5.4 0 2.98 2.41 5.4 5.4 5.4Zm-1.08-7.68l-1.08 1.07h1.85c1.82 0 3.3 1.47 3.3 3.3v.3c0 .33-.27.6-.6.6 -.34 0-.6-.27-.6-.6v-.3c0-1.16-.95-2.1-2.1-2.1h-1.86l1.07 1.07c.23.23.23.61 0 .84 -.24.23-.62.23-.85 0l-2.11-2.11c-.06-.06-.1-.13-.13-.2 -.03-.08-.05-.15-.05-.23 0-.09.01-.16.04-.23 .02-.08.07-.14.13-.2l2.1-2.1c.23-.24.61-.24.84 0 .23.23.23.61 0 .84Z"/><path fill="currentColor" fill-rule="evenodd" d="M10.99 18.5l.01.08c.11.62.32 1.22.6 1.77l.07.14H9.88c-.56 0-1-.45-1-1 0-.56.44-1 1-1h1.09Zm7.5-7.51v-1.1c0-.56.44-1 1-1 .55 0 1 .44 1 1v1.78l-.15-.08c-.56-.29-1.15-.49-1.78-.61l-.09-.02Zm-3.5 5.3l1.24-1.25c.19-.2.19-.52 0-.71 -.2-.2-.52-.2-.71 0l-2.1 2.1c-.05.04-.09.1-.11.16 -.03.05-.04.12-.04.19 0 .06.01.13.03.19 .02.05.05.11.1.15 -.01-.01 0 0 0 0l2.1 2.1c.19.19.51.19.7 0 .19-.2.19-.52 0-.71l-1.25-1.25h2.09c1.21 0 2.2.98 2.2 2.2v.3c0 .27.22.5.5.5 .27 0 .5-.23.5-.5v-.3c0-1.77-1.44-3.2-3.2-3.2h-2.1Zm1.31-1.18c.23-.24.23-.62 0-.85 -.24-.24-.62-.24-.85 0l-2.1 2.1c-.06.05-.11.12-.14.19 -.03.07-.05.14-.05.22 0 .08.01.15.04.22 .02.06.07.13.12.19l2.1 2.1c.23.23.61.23.84 0 .23-.24.23-.62 0-.85l-1.08-1.08h1.85c1.15 0 2.1.94 2.1 2.1v.3c0 .33.26.6.6.6 .33 0 .6-.27.6-.6v-.3c0-1.83-1.48-3.3-3.3-3.3h-1.86l1.07-1.08ZM10.07 4.48c0-.56.44-1 1-1h1.8c.55 0 1 .44 1 1 0 .55-.45 1-1 1h-1.8c-.56 0-1-.45-1-1Zm-5.6 9.4c-.56 0-1-.45-1-1v-1.8c0-.56.44-1 1-1 .55 0 1 .44 1 1v1.8c0 .55-.45 1-1 1Zm5.4 6.5c-.5 0-.9-.41-.9-.9 0-.5.4-.9.9-.9h1c.11.59.3 1.16.56 1.7 .01.03.03.06.05.1H9.86Zm10.4-8.94c.03.01.06.03.1.05V9.87c0-.5-.41-.9-.9-.9 -.5 0-.9.4-.9.9v1c.59.11 1.16.3 1.7.56Zm-14-7.97c.55 0 1 .44 1 1 0 .55-.45 1-1 1 -.45 0-.8.35-.8.8 0 .55-.45 1-1 1 -.56 0-1-.45-1-1 0-1.55 1.25-2.8 2.8-2.8Zm1 16c0 .55-.45 1-1 1 -1.55 0-2.8-1.26-2.8-2.8 0-.56.44-1 1-1 .55 0 1 .44 1 1 0 .44.35.8.8.8 .55 0 1 .44 1 1Zm9.4-15c0-.56.44-1 1-1 1.54 0 2.8 1.25 2.8 2.8 0 .55-.45 1-1 1 -.56 0-1-.45-1-1 0-.45-.36-.8-.8-.8 -.56 0-1-.45-1-1Zm6.2 12.9c0 3.03-2.47 5.5-5.5 5.5 -3.04 0-5.5-2.47-5.5-5.5 0-3.04 2.46-5.5 5.5-5.5 3.03 0 5.5 2.46 5.5 5.5Zm-12.7-12.9c0-.5.4-.9.9-.9h1.8c.49 0 .9.4.9.9 0 .49-.41.9-.9.9h-1.8c-.5 0-.9-.41-.9-.9Zm-5.7 9.3c-.5 0-.9-.41-.9-.9v-1.8c0-.5.4-.9.9-.9 .49 0 .9.4.9.9v1.8c0 .49-.41.9-.9.9Zm1.8-10.2c.49 0 .9.4.9.9 0 .49-.41.9-.9.9 -.5 0-.9.4-.9.9 0 .49-.41.9-.9.9 -.5 0-.9-.41-.9-.9 0-1.5 1.2-2.7 2.7-2.7Zm.9 15.9c0 .49-.41.9-.9.9 -1.5 0-2.7-1.21-2.7-2.7 0-.5.4-.9.9-.9 .49 0 .9.4.9.9 0 .49.4.9.9.9 .49 0 .9.4.9.9Zm10.5-15.9c-.5 0-.9.4-.9.9 0 .49.4.9.9.9 .49 0 .9.4.9.9 0 .49.4.9.9.9 .49 0 .9-.41.9-.9 0-1.5-1.21-2.7-2.7-2.7Zm5.1 13.8c0 2.98-2.42 5.4-5.4 5.4 -2.99 0-5.4-2.42-5.4-5.4 0-2.99 2.41-5.4 5.4-5.4 2.98 0 5.4 2.41 5.4 5.4Z"/></g></svg>