<svg viewBox="0 0 24 24" xmlns="http://www.w3.org/2000/svg"><g fill="currentColor"><path d="M7.2 3.59c-1.99 0-3.6 1.61-3.6 3.6v9.6c0 1.98 1.61 3.6 3.6 3.6h4.31c-.47-.91-.72-1.92-.72-3 0-3.65 2.95-6.6 6.6-6.6 1.08 0 2.09.25 3 .71V7.18c0-1.99-1.62-3.6-3.6-3.6h-9.6Zm10.2 19.2c2.98 0 5.4-2.42 5.4-5.4 0-2.99-2.42-5.4-5.4-5.4 -2.99 0-5.4 2.41-5.4 5.4 0 2.98 2.41 5.4 5.4 5.4Zm2.22-7.63c.23.23.23.61 0 .84l-1.38 1.37 1.37 1.37c.23.23.23.61 0 .84 -.24.23-.62.23-.85 0l-1.38-1.38L16 19.57c-.24.23-.62.23-.85 0 -.24-.24-.24-.62 0-.85l1.37-1.38 -1.38-1.38c-.24-.24-.24-.62 0-.85 .23-.24.61-.24.84 0l1.37 1.37 1.37-1.38c.23-.24.61-.24.84 0Z"/><path fill="currentColor" fill-rule="evenodd" d="M3.45 7.19c0-2.08 1.67-3.75 3.75-3.75h9.6c2.07 0 3.75 1.67 3.75 3.75v4.56l-.22-.12c-.88-.45-1.88-.71-2.94-.71 -3.57 0-6.45 2.88-6.45 6.45 0 1.05.25 2.05.7 2.93l.11.21H7.18c-2.08 0-3.75-1.68-3.75-3.75V7.15ZM7.2 3.74c-1.91 0-3.45 1.54-3.45 3.45v9.6c0 1.9 1.54 3.45 3.45 3.45h4.07c-.41-.87-.63-1.84-.63-2.85 0-3.73 3.02-6.75 6.75-6.75 1.01 0 1.98.22 2.85.62V7.18c0-1.91-1.55-3.45-3.45-3.45h-9.6Zm4.65 13.65c0-3.07 2.48-5.55 5.55-5.55 3.06 0 5.55 2.48 5.55 5.55 0 3.06-2.49 5.55-5.55 5.55 -3.07 0-5.55-2.49-5.55-5.55Zm5.55-5.25c-2.9 0-5.25 2.35-5.25 5.25 0 2.89 2.35 5.25 5.25 5.25 2.89 0 5.25-2.36 5.25-5.25 0-2.9-2.36-5.25-5.25-5.25Zm-1.49 3.13c-.18-.18-.47-.18-.64 0 -.18.17-.18.46 0 .63l1.48 1.48 -1.49 1.48c-.18.17-.18.46 0 .63 .17.17.46.17.63 0L17.37 18l1.48 1.48c.17.17.46.17.63 0 .17-.18.17-.47 0-.64l-1.49-1.49 1.48-1.49c.17-.18.17-.47 0-.64 -.18-.18-.47-.18-.64 0l-1.49 1.48 -1.49-1.49Zm-.85-.22c.29-.3.76-.3 1.06 0l1.26 1.26 1.26-1.27c.29-.3.76-.3 1.06 0 .29.29.29.76 0 1.06l-1.27 1.26 1.26 1.26c.29.29.29.76 0 1.06 -.3.29-.77.29-1.07 0l-1.27-1.27 -1.27 1.26c-.3.29-.77.29-1.07 0 -.3-.3-.3-.77 0-1.07l1.26-1.27L15 16.06c-.3-.3-.3-.77 0-1.07Z"/></g></svg>