<svg viewBox="0 0 24 24" xmlns="http://www.w3.org/2000/svg"><path fill="currentColor" d="M10 4c0-.56.44-1 1-1h2c.55 0 1 .44 1 1 0 .55-.45 1-1 1h-2c-.56 0-1-.45-1-1Zm7.5 1c-.56 0-1-.45-1-1 0-.56.44-1 1-1C19.43 3 21 4.56 21 6.5c0 .55-.45 1-1 1 -.56 0-1-.45-1-1 0-.83-.68-1.5-1.5-1.5Zm-11-2c.55 0 1 .44 1 1 0 .55-.45 1-1 1C5.67 5 5 5.67 5 6.5c0 .55-.45 1-1 1 -.56 0-1-.45-1-1C3 4.56 4.56 3 6.5 3ZM4 16.5c-.56 0-1 .44-1 1C3 19.43 4.56 21 6.5 21c.55 0 1-.45 1-1 0-.56-.45-1-1-1 -.83 0-1.5-.68-1.5-1.5 0-.56-.45-1-1-1Zm7 2.5c-.56 0-1 .44-1 1 0 .55.44 1 1 1h2c.55 0 1-.45 1-1 0-.56-.45-1-1-1h-2Zm6.5 0c-.56 0-1 .44-1 1 0 .55.44 1 1 1 1.93 0 3.5-1.57 3.5-3.5 0-.56-.45-1-1-1 -.56 0-1 .44-1 1 0 .82-.68 1.5-1.5 1.5Zm2.5-9c.55 0 1 .44 1 1v2c0 .55-.45 1-1 1 -.56 0-1-.45-1-1v-2c0-.56.44-1 1-1ZM3 13c0 .55.44 1 1 1 .55 0 1-.45 1-1v-2c0-.56-.45-1-1-1 -.56 0-1 .44-1 1v2Z"/></svg>