<svg viewBox="0 0 24 24" xmlns="http://www.w3.org/2000/svg"><path fill="currentColor" d="M4 4c-1.11 0-2 .89-2 2v7c0 1.1.89 2 2 2h11c1.1 0 2-.9 2-2V6c0-1.11-.9-2-2-2H4Zm5.49 2.09c.18 0 .36.1.44.27l.88 1.76 1.73.21c.19.02.36.16.41.35 .05.19-.01.39-.16.52l-1.27 1.05 .43 1.95c.04.19-.04.4-.2.51 -.17.11-.39.12-.56.01l-1.74-1.09 -1.74 1.08c-.18.1-.39.1-.56-.02 -.17-.12-.25-.32-.2-.52l.43-1.96 -1.27-1.06c-.16-.13-.22-.34-.16-.53 .05-.2.22-.34.41-.36l1.73-.22 .88-1.77c.08-.17.25-.28.44-.28Zm-3 11.4c-.94 0-1.72-.64-1.94-1.5h10.93c1.38 0 2.5-1.12 2.5-2.5V6.55c.86.22 1.5 1 1.5 1.93v5c0 2.2-1.8 4-4 4h-9Zm2.5 2.5c-.94 0-1.72-.64-1.94-1.5h9.18c2.34 0 4.25-1.91 4.25-4.25V9.05c.86.22 1.5 1 1.5 1.93v3.25c0 3.17-2.58 5.75-5.75 5.75H8.98Z"/></svg>