<svg viewBox="0 0 24 24" xmlns="http://www.w3.org/2000/svg"><path fill="currentColor" d="M3 6.25C3 4.45 4.45 3 6.25 3h11.5C19.54 3 21 4.45 21 6.25V20c0 .55-.45 1-1 1 -.56 0-1-.45-1-1v-3.75c0-.7-.56-1.25-1.25-1.25H6.25c-.7 0-1.25.55-1.25 1.25V20c0 .55-.45 1-1 1 -.56 0-1-.45-1-1V6.25Zm2 6.99c.38-.17.8-.25 1.25-.25h11.5c.44 0 .86.08 1.25.24v-2c0-.7-.56-1.25-1.25-1.25H6.25c-.7 0-1.25.55-1.25 1.25v1.99Zm14-7c0-.7-.56-1.25-1.25-1.25H6.25c-.7 0-1.25.55-1.25 1.25v1.99c.38-.17.8-.25 1.25-.25h11.5c.44 0 .86.08 1.25.24v-2Z"/></svg>