<svg viewBox="0 0 24 24" xmlns="http://www.w3.org/2000/svg"><path fill="currentColor" d="M17.75 3C19.54 3 21 4.45 21 6.25v11.5c0 1.79-1.46 3.25-3.25 3.25H4c-.56 0-1-.45-1-1 0-.56.44-1 1-1h3.75C8.44 19 9 18.44 9 17.75V6.25C9 5.55 8.44 5 7.75 5H4c-.56 0-1-.45-1-1 0-.56.44-1 1-1h13.75Zm-7 2c.16.38.24.8.24 1.25v11.5c0 .44-.09.86-.25 1.25h1.99c.69 0 1.25-.56 1.25-1.25V6.25c0-.7-.56-1.25-1.25-1.25h-2Zm6.99 14c.69 0 1.25-.56 1.25-1.25V6.25c0-.7-.56-1.25-1.25-1.25h-2c.16.38.24.8.24 1.25v11.5c0 .44-.09.86-.25 1.25h1.99Z"/></svg>