<svg viewBox="0 0 24 24" xmlns="http://www.w3.org/2000/svg"><path fill="currentColor" d="M12 7.5C12 4.46 9.53 2 6.5 2 3.46 2 1 4.46 1 7.5 1 10.53 3.46 13 6.5 13c3.03 0 5.5-2.47 5.5-5.5ZM7 8l0 2.5c0 .27-.23.5-.5.5 -.28 0-.5-.23-.5-.5l-.01-2.51H3.48c-.28 0-.5-.23-.5-.5 0-.28.22-.5.49-.5h2.5l-.01-2.51c0-.28.22-.5.5-.5 .27 0 .5.22.5.5l0 2.5h2.49c.27 0 .49.22.49.5 0 .27-.23.5-.5.5h-2.5Zm-.51 5.99c3.58 0 6.5-2.92 6.5-6.5 0-.89-.18-1.74-.5-2.5h2.49c1.1 0 2 .89 2 2v7c0 1.1-.9 2-2 2h-11c-1.11 0-2-.9-2-2v-1.81c1.16 1.12 2.75 1.8 4.5 1.8Zm0 4.5c-.94 0-1.72-.64-1.94-1.5h10.93c1.38 0 2.5-1.12 2.5-2.5V7.55c.86.22 1.5 1 1.5 1.93v5c0 2.2-1.8 4-4 4h-9Zm2.5 2.5c-.94 0-1.72-.64-1.94-1.5h9.18c2.34 0 4.25-1.91 4.25-4.25v-5.19c.86.22 1.5 1 1.5 1.93v3.25c0 3.17-2.58 5.75-5.75 5.75H8.98Z"/></svg>