<svg viewBox="0 0 24 24" xmlns="http://www.w3.org/2000/svg"><path fill="currentColor" d="M17.5 12C14.46 12 12 9.53 12 6.5 12 3.46 14.46 1 17.5 1 20.53 1 23 3.46 23 6.5c0 3.03-2.47 5.5-5.5 5.5Zm1.85-8.36c-.2-.2-.52-.2-.71 0 -.2.19-.2.51 0 .7l.64.64h-2.05c-1.8 0-3.25 1.45-3.25 3.25v.25c0 .27.22.5.5.5 .27 0 .5-.23.5-.5v-.25c0-1.25 1-2.25 2.25-2.25h2.04l-.65.64c-.2.19-.2.51 0 .7 .19.19.51.19.7 0l1.5-1.5c.19-.2.19-.52 0-.71l-1.5-1.5Zm-15.36.35h7.49c-.33.76-.5 1.61-.5 2.5 0 3.42 2.64 6.22 6 6.48v.01c0 1.1-.9 2-2 2h-11c-1.11 0-2-.9-2-2v-7c0-1.11.89-2 2-2Zm14 8.98c.51-.04 1.02-.15 1.5-.3v.81c0 2.2-1.8 4-4 4h-9c-.94 0-1.72-.64-1.94-1.5h10.93c1.38 0 2.5-1.12 2.5-2.5v-.52Zm4-1.8c-.45.42-.95.79-1.5 1.07v1.98c0 2.34-1.91 4.25-4.25 4.25H7.05c.22.86 1 1.5 1.93 1.5h7.24c3.17 0 5.75-2.58 5.75-5.75v-3.06Z"/></svg>