<svg viewBox="0 0 24 24" xmlns="http://www.w3.org/2000/svg"><path fill="currentColor" d="M10.78 3.1c.49-1.01 1.92-1.01 2.42 0l1.68 3.42c-1.08.16-1.9 1.1-1.9 2.22 0 .87.49 1.62 1.21 1.99 -.73.37-1.22 1.12-1.22 2 0 .87.49 1.62 1.21 2 -.73.37-1.22 1.12-1.22 2 0 .5.16.97.45 1.35l-6.17 3.24c-1 .52-2.15-.33-1.96-1.43l.9-5.26 -3.82-3.72c-.81-.79-.36-2.15.74-2.31l5.27-.77 2.35-4.78Zm3.71 13.64c0-.42.33-.75.75-.75h6c.41 0 .75.33.75.75 0 .41-.34.75-.75.75h-6c-.16 0-.3-.05-.42-.13 -.21-.14-.34-.37-.34-.63Zm0-4c0-.42.33-.75.75-.75h6c.41 0 .75.33.75.75 0 .41-.34.75-.75.75h-6c-.42 0-.75-.34-.75-.75Zm0-4c0-.42.33-.75.75-.75h6c.41 0 .75.33.75.75 0 .41-.34.75-.75.75h-6c-.42 0-.75-.34-.75-.75Z"/></svg>