<svg viewBox="0 0 24 24" xmlns="http://www.w3.org/2000/svg"><path fill="currentColor" d="M10.78 3.1c.49-1.01 1.92-1.01 2.42 0l2.35 4.77 5.27.76c1.1.16 1.54 1.52.74 2.3l-.91.88c-.95-.53-2.03-.84-3.19-.84 -3.59 0-6.5 2.91-6.5 6.5 0 .61.08 1.2.24 1.76l-3.96 2.08c-1 .52-2.15-.33-1.96-1.43l.9-5.26 -3.82-3.72c-.81-.79-.36-2.15.74-2.31l5.27-.77 2.35-4.78Zm3.49 10.87c.31 1.09-.34 2.22-1.45 2.49l-.59.14c-.05.28-.07.58-.07.88 0 .31.02.62.07.92l.53.13c1.11.26 1.77 1.41 1.45 2.51l-.19.63c.43.38.93.69 1.48.92l.49-.52c.78-.83 2.11-.83 2.89 0l.49.52c.54-.23 1.04-.54 1.48-.92l-.2-.69c-.32-1.1.33-2.23 1.44-2.5l.58-.15c.04-.29.06-.59.06-.89 0-.32-.03-.63-.08-.93l-.54-.13c-1.12-.27-1.78-1.42-1.45-2.52l.18-.64c-.44-.39-.94-.7-1.49-.93l-.5.51c-.79.82-2.12.82-2.9-.01l-.5-.53c-.55.22-1.05.53-1.49.91l.19.68Zm3.22 5.02c-.81 0-1.45-.68-1.45-1.5 0-.83.64-1.5 1.44-1.5 .8 0 1.44.67 1.44 1.5 0 .82-.65 1.5-1.45 1.5Z"/></svg>