<svg viewBox="0 0 24 24" xmlns="http://www.w3.org/2000/svg"><path fill="currentColor" d="M13.209 3.1c-.5-1.01-1.93-1.01-2.43 0l-2.36 4.77 -5.28.76c-1.11.16-1.55 1.52-.75 2.3l3.81 3.71 -.91 5.25c-.19 1.1.96 1.94 1.95 1.42l2.94-1.55 .3-1.22c.16-.65.49-1.24.96-1.72l5.89-5.91c1.19-1.2 3.09-1.28 4.38-.24 .53-.8.07-1.94-.94-2.08l-5.28-.77 -2.36-4.78Zm4.89 8.56l-5.9 5.9c-.35.34-.59.77-.71 1.24l-.46 1.83c-.2.79.52 1.51 1.31 1.31l1.82-.46c.47-.12.9-.37 1.24-.71l5.89-5.91c.89-.9.89-2.34 0-3.24 -.9-.9-2.34-.9-3.23 0Z"/></svg>