<svg viewBox="0 0 24 24" xmlns="http://www.w3.org/2000/svg"><path fill="currentColor" d="M13.21 3.1c-.5-1.01-1.93-1.01-2.43 0L8.42 7.87l-5.28.76c-1.11.16-1.55 1.52-.75 2.3l3.81 3.71 -.91 5.25c-.19 1.1.96 1.94 1.95 1.42l4.71-2.48 4.71 2.47c.99.52 2.14-.33 1.95-1.43l-.91-5.26 3.81-3.72c.8-.79.35-2.15-.75-2.31l-5.28-.77 -2.36-4.78Zm-12.05.67c-.26.32-.21.79.11 1.05l2.5 2c.32.25.79.2 1.05-.12 .25-.33.2-.8-.12-1.06l-2.5-2c-.33-.26-.8-.21-1.06.11ZM22.83 18.2c.25-.33.2-.8-.12-1.06l-2.5-2c-.33-.26-.8-.21-1.06.11s-.21.79.11 1.05l2.5 2c.32.25.79.2 1.05-.12ZM1.27 17.14c-.33.25-.38.73-.12 1.05 .25.32.73.37 1.05.11l2.5-2c.32-.26.37-.74.11-1.06 -.26-.33-.74-.38-1.06-.12l-2.5 2ZM22.82 3.75c.25.32.2.79-.12 1.05l-2.5 2c-.33.25-.8.2-1.06-.12 -.26-.33-.21-.8.11-1.06l2.5-2c.32-.26.79-.21 1.05.11Z"/></svg>