<svg viewBox="0 0 24 24" xmlns="http://www.w3.org/2000/svg"><path fill="currentColor" d="M10.78 3.1c.49-1.01 1.92-1.01 2.42 0l2.35 4.77 5.27.76c1.1.16 1.54 1.52.74 2.3l-.91.88c-.95-.53-2.03-.84-3.19-.84 -3.59 0-6.5 2.91-6.5 6.5 0 .61.08 1.2.24 1.76l-3.96 2.08c-1 .52-2.15-.33-1.96-1.43l.9-5.26 -3.82-3.72c-.81-.79-.36-2.15.74-2.31l5.27-.77 2.35-4.78Zm12.21 14.39c0 3.03-2.47 5.5-5.5 5.5 -3.04 0-5.5-2.47-5.5-5.5 0-3.04 2.46-5.5 5.5-5.5 3.03 0 5.5 2.46 5.5 5.5Zm-7.15-2.36c-.2-.2-.52-.2-.71 0 -.2.19-.2.51 0 .7l1.64 1.64 -1.65 1.64c-.2.19-.2.51 0 .7 .19.19.51.19.7 0l1.64-1.65 1.64 1.64c.19.19.51.19.7 0 .19-.2.19-.52 0-.71l-1.65-1.65 1.64-1.65c.19-.2.19-.52 0-.71 -.2-.2-.52-.2-.71 0l-1.65 1.64 -1.65-1.65Z"/></svg>