<svg viewBox="0 0 24 24" xmlns="http://www.w3.org/2000/svg"><g fill="currentColor"><path d="M13.21 3.1l1.78 3.62v0l.56 1.14 5.27.76c1.1.16 1.54 1.52.74 2.3l-3.82 3.71 .9 5.25c.18 1.1-.97 1.94-1.96 1.42l-4.72-2.48 -4.72 2.47c-.21.1-.43.15-.63.15 -.79 0-1.49-.71-1.34-1.59l.9-5.26 -3.82-3.72c-.81-.79-.36-2.15.74-2.31l5.27-.77 2.35-4.78c.24-.51.72-.76 1.21-.76 .48-.01.96.25 1.21.75Zm1.78 6.18v9.46l2.14 1.12 -.87-5.03c-.08-.44.07-.89.38-1.2l3.65-3.57 -5.05-.74c-.1-.02-.19-.04-.28-.07Z"/><path fill="currentColor" fill-rule="evenodd" d="M12.98 3.21c-.21-.41-.6-.62-.99-.62 -.4-.01-.79.2-.99.61L8.58 8.09l-5.41.78c-.91.13-1.27 1.23-.61 1.87l3.9 3.81 -.93 5.38c-.13.7.44 1.28 1.08 1.28 .16 0 .34-.04.51-.13l4.83-2.54 4.83 2.53c.8.42 1.75-.27 1.59-1.16l-.93-5.39 3.9-3.82c.65-.64.29-1.75-.61-1.88l-5.41-.79 -.66-1.32V6.7l-1.77-3.58Zm-.99-1.12c.56-.01 1.14.29 1.43.89l1.81 3.67v0l.48.97 5.14.74c1.31.19 1.83 1.8.88 2.72L18 14.7l.87 5.12c.22 1.3-1.15 2.3-2.33 1.68l-4.6-2.42 -4.6 2.41c-.25.12-.5.18-.75.18 -.93 0-1.76-.84-1.58-1.88l.87-5.13 .09.09 .17-.18 -.25-.05 -.03.12 -3.73-3.63c-.95-.93-.43-2.54.88-2.73l5.14-.75 -.06.11 .22.11 -.04-.25 -.14.01 2.29-4.66c.29-.6.86-.9 1.43-.9Zm2.75 6.82l.33.12c.07.02.14.04.22.05l5.55.8 -4.02 3.91c-.26.25-.38.61-.32.97l.94 5.52 -2.73-1.44V8.86Zm.5.67v8.99l1.56.82 -.78-4.54c-.09-.52.08-1.05.46-1.42l3.29-3.21 -4.54-.66Z"/><path d="M8.26 7.65l-.06.11 .22.11 -.04-.25 -.14.01Z"/><path d="M5.95 14.75l.09.09 .17-.18 -.25-.05 -.03.12Z"/></g></svg>