<svg viewBox="0 0 24 24" xmlns="http://www.w3.org/2000/svg"><path fill="currentColor" d="M13.209 3.1c-.5-1.01-1.93-1.01-2.43 0l-2.36 4.77 -5.28.76c-1.11.16-1.55 1.52-.75 2.3l3.81 3.71 -.91 5.25c-.19 1.1.96 1.94 1.95 1.42l3.95-2.09c-.16-.57-.25-1.16-.25-1.77 0-3.59 2.91-6.5 6.5-6.5 1.15 0 2.24.3 3.18.83l.9-.89c.8-.79.35-2.15-.75-2.31l-5.28-.77 -2.36-4.78ZM23 17.49c0 3.03-2.47 5.5-5.5 5.5 -3.04 0-5.5-2.47-5.5-5.5 0-3.04 2.46-5.5 5.5-5.5 3.03 0 5.5 2.46 5.5 5.5Zm-2.15-2.36c-.2-.2-.52-.2-.71 0l-3.65 3.64 -1.65-1.65c-.2-.2-.52-.2-.71 0 -.2.19-.2.51 0 .7l2 2c.19.19.51.19.7 0l4-4c.19-.2.19-.52 0-.71Z"/></svg>