<svg viewBox="0 0 24 24" xmlns="http://www.w3.org/2000/svg"><g fill="currentColor"><path d="M11.99 2.35c-.49-.01-.97.25-1.22.75L8.41 7.87l-5.28.76c-1.11.16-1.55 1.52-.75 2.3l3.81 3.71 -.91 5.25c-.15.87.54 1.58 1.33 1.58 .2 0 .42-.05.62-.16l4.71-2.48 4.71 2.47c.99.52 2.14-.33 1.95-1.43l-.91-5.26 3.81-3.72c.8-.79.35-2.15-.75-2.31l-5.28-.77 -2.36-4.78c-.25-.51-.73-.76-1.21-.76Zm0 14.99V4.03l2.25 4.57c.19.39.57.67 1.01.73l5.04.73 -3.66 3.56c-.32.31-.47.75-.39 1.19l.86 5.02 -4.52-2.38c-.2-.11-.42-.16-.63-.16Z"/><path fill="currentColor" fill-rule="evenodd" d="M10.56 2.99c.29-.6.86-.9 1.43-.9 .56 0 1.14.29 1.43.89l2.29 4.65 5.14.74c1.31.19 1.83 1.8.88 2.72L18 14.71l.87 5.12c.22 1.3-1.15 2.3-2.33 1.68l-4.6-2.42 -4.6 2.41c-.25.12-.5.18-.75.18 -.93 0-1.76-.84-1.58-1.88l.87-5.13 .09.09 .17-.18 -.25-.05 -.03.12 -3.73-3.63c-.95-.93-.43-2.54.88-2.73l5.14-.75 -.06.11 .22.11 -.04-.25 -.14.01 2.29-4.66Zm1.43-.4c.39 0 .78.2.98.61l2.41 4.89 5.4.78c.9.13 1.26 1.23.6 1.87l-3.91 3.81 .92 5.38c.15.89-.79 1.58-1.6 1.15l-4.84-2.54 -4.84 2.53c-.18.08-.35.12-.52.12 -.65 0-1.21-.59-1.09-1.29l.92-5.39 -3.91-3.82c-.66-.64-.3-1.75.6-1.88l5.4-.79 2.41-4.9c.2-.41.59-.62.98-.62Zm-.25 1.44l.47-.12 2.25 4.57c.16.32.47.54.82.6l5.55.8 -4.02 3.91c-.26.25-.38.61-.32.97l.94 5.52 -4.97-2.62c-.16-.09-.34-.13-.52-.13l-.25-.01V3.96Zm.5 1.07v11.99c.16.02.33.08.49.16l4.06 2.13 -.78-4.54c-.09-.52.08-1.05.46-1.42l3.29-3.21 -4.55-.67c-.53-.08-.98-.41-1.21-.88l-1.79-3.62Z"/><path d="M5.95 14.75l.09.09 .17-.18 -.25-.05 -.03.12Z"/><path d="M8.26 7.65l-.06.11 .22.11 -.04-.25 -.14.01Z"/></g></svg>