<svg viewBox="0 0 24 24" xmlns="http://www.w3.org/2000/svg"><path fill="currentColor" d="M12 2.99c1.24 0 2.43.25 3.51.71l-1.16 1.16c-.75-.25-1.54-.38-2.37-.38 -4.15 0-7.5 3.35-7.5 7.5 0 1.42.39 2.78 1.13 3.97 .3.48.65.92 1.06 1.33 .4.4.84.75 1.33 1.05 1.18.73 2.54 1.13 3.97 1.13 4.14 0 7.5-3.36 7.5-7.5 0-.81-.13-1.58-.36-2.3l1.16-1.18c.44 1.06.69 2.23.69 3.46 0 4.97-4.03 9-9 9 -1.71 0-3.36-.48-4.77-1.37 -.58-.37-1.12-.79-1.6-1.28 -.49-.49-.91-1.02-1.28-1.6 -.89-1.42-1.37-3.06-1.37-4.77 0-4.98 4.02-9 9-9Zm9.16-.43l.13.12c.93.93.94 2.45 0 3.39l-6.76 6.81c-.12.11-.26.2-.41.24l-4.35 1.37c-.11.03-.22-.03-.26-.14 -.02-.04-.02-.09 0-.13l1.37-4.36c.04-.16.13-.3.24-.41l6.75-6.82c.88-.9 2.3-.95 3.24-.14Z"/></svg>