<svg viewBox="0 0 24 24" xmlns="http://www.w3.org/2000/svg"><path fill="currentColor" d="M12 3.37c0-.76.61-1.38 1.37-1.38h3.75c.75 0 1.375.61 1.375 1.37v5.625h-1.5v-5.5h-3.5V7.1c0 .75-.62 1.37-1.375 1.37H8.49V12.1c0 .75-.62 1.375-1.38 1.375H3.48v3.5h5.5v1.5H3.36c-.76 0-1.375-.62-1.375-1.375v-3.75c0-.76.61-1.38 1.37-1.38h3.62V8.34c0-.76.61-1.38 1.37-1.38h3.62V3.33Zm3 8c0-.76.61-1.38 1.375-1.38h3.75c.75 0 1.375.61 1.375 1.37v6.87c0 1.79-1.46 3.25-3.25 3.25h-6.88c-.76 0-1.38-.62-1.38-1.375v-3.75c0-.76.61-1.375 1.37-1.375h3.62v-3.63Z"/></svg>