<svg viewBox="0 0 24 24" xmlns="http://www.w3.org/2000/svg"><path fill="currentColor" d="M3 2.5c-.56 0-1 .44-1 1L1.99 9c0 1.74.61 3.25 1.71 4.33 .87.86 2.01 1.4 3.28 1.59v.82c0 3.45 2.79 6.25 6.25 6.25 3.45 0 6.25-2.8 6.25-6.25v-.66c1.3-.43 2.25-1.65 2.25-3.1 0-1.8-1.46-3.25-3.25-3.25 -1.8 0-3.25 1.45-3.25 3.24 0 1.44.94 2.67 2.25 3.09v.65c0 2.34-1.91 4.25-4.25 4.25 -2.35 0-4.25-1.91-4.25-4.25v-.83c1.27-.19 2.41-.74 3.28-1.6 1.09-1.09 1.71-2.6 1.71-4.34V3.43c0-.56-.45-1-1-1h-2c-.56 0-1 .44-1 1 0 .55.44 1 1 1h.99v4.5c0 1.25-.44 2.24-1.12 2.91 -.69.67-1.67 1.08-2.89 1.08 -1.22 0-2.21-.42-2.89-1.09 -.68-.67-1.12-1.66-1.12-2.92l0-4.51h1c.55 0 1-.45 1-1 0-.56-.45-1-1-1h-2Zm15.49 8.25c.69 0 1.25.55 1.25 1.25 0 .69-.56 1.25-1.25 1.25 -.7 0-1.25-.56-1.25-1.25 0-.7.55-1.25 1.25-1.25Z"/></svg>