<svg viewBox="0 0 24 24" xmlns="http://www.w3.org/2000/svg"><path fill="currentColor" d="M17.75 3C19.54 3 21 4.45 21 6.25v6.74l-4.75 0 -.22 0c-1.2.07-2.22.8-2.72 1.83 -.42.11-.86.17-1.33.17 -1.05 0-1.98-.29-2.83-.88 -.35-.24-.81-.16-1.05.19 -.24.34-.16.8.19 1.04 1.09.75 2.32 1.14 3.67 1.14 .22 0 .45-.02.67-.04l.32-.05 -.01 4.56H6.19c-1.8 0-3.25-1.46-3.25-3.25V6.2c0-1.8 1.45-3.25 3.25-3.25h11.5Zm2.59 11.71l-5.63 5.62c-.07.06-.15.13-.22.19l-.01-4.29 0-.15c.06-.85.74-1.53 1.59-1.61l.15-.01 4.28 0c-.06.07-.13.14-.2.21ZM8.99 7.74c-.69 0-1.25.55-1.25 1.24 0 .68.55 1.24 1.24 1.24 .68 0 1.24-.56 1.24-1.25s-.56-1.25-1.25-1.25Zm5.99 0c-.69 0-1.25.55-1.25 1.24 0 .68.55 1.24 1.24 1.24s1.24-.56 1.24-1.25 -.56-1.25-1.25-1.25Z"/></svg>