<svg viewBox="0 0 24 24" xmlns="http://www.w3.org/2000/svg"><path fill="currentColor" d="M17.5 12c3.03 0 5.5 2.46 5.5 5.5 0 3.03-2.47 5.5-5.5 5.5 -3.04 0-5.5-2.47-5.5-5.5 0-3.04 2.46-5.5 5.5-5.5Zm0 1.99l-.09 0c-.21.03-.37.19-.41.4l-.01.08 -.01 2.5 -2.51 0 -.09 0c-.21.03-.37.19-.41.4l-.01.08 0 .08c.03.2.19.36.4.4l.08 0 2.5-.01 0 2.5 0 .08c.03.2.19.36.4.4l.08 0 .08-.01c.2-.04.36-.2.4-.41l0-.09 -.01-2.51 2.5 0 .08-.01c.2-.04.36-.2.4-.41l0-.09 -.01-.09c-.04-.21-.2-.37-.41-.41l-.09-.01 -2.51-.01 0-2.5 -.01-.09c-.04-.21-.2-.37-.41-.41l-.09-.01Zm.25-11c1.79 0 3.25 1.45 3.25 3.25l0 5.77c-1.02-.65-2.22-1.03-3.51-1.03 -2.7 0-5.02 1.64-6 3.98 -.85-.08-1.62-.36-2.33-.85 -.35-.24-.81-.16-1.05.19 -.24.34-.16.8.19 1.04 .84.58 1.76.94 2.76 1.07 -.06.34-.09.69-.09 1.05 0 1.28.37 2.49 1.02 3.5l-5.78-.01c-1.8 0-3.25-1.46-3.25-3.25V6.2c0-1.8 1.45-3.25 3.25-3.25h11.5ZM9 7.74c-.69 0-1.25.55-1.25 1.24 0 .68.55 1.24 1.24 1.24 .68 0 1.24-.56 1.24-1.25s-.56-1.25-1.25-1.25Zm5.99 0c-.69 0-1.25.55-1.25 1.24 0 .68.55 1.24 1.24 1.24s1.24-.56 1.24-1.25 -.56-1.25-1.25-1.25Z"/></svg>