<svg viewBox="0 0 25 24" xmlns="http://www.w3.org/2000/svg"><g fill="currentColor"><path d="M20.13 2.36c-.36-.36-.93-.36-1.28 0 -.36.35-.36.92 0 1.27l2.06 2.06h-4.43c-3.15 0-5.7 2.55-5.7 5.7v1.19c0 2.154-1.75 3.9-3.9 3.9h-3.6c-.5 0-.9.4-.9.9 0 .49.4.89.9.89h3.6c3.14 0 5.7-2.56 5.7-5.7v-1.2c0-2.16 1.74-3.91 3.9-3.91h4.42l-2.07 2.06c-.36.35-.36.92 0 1.27 .35.35.92.35 1.27 0l3.6-3.6c.35-.36.35-.93 0-1.28l-3.6-3.6Zm-4.24 1.83c-3.82 0-6.9 3.08-6.9 6.89v1.2c0 1.49-1.21 2.7-2.7 2.7h-3c-.5 0-.9-.41-.9-.91s.4-.9.9-.9h3c.49 0 .9-.41.9-.9v-1.21c0-4.81 3.89-8.7 8.7-8.7h.6c.49 0 .9.4.9.9 0 .49-.41.9-.9.9h-.6Zm1.09 4.8c-.3.58-.37 1.23-.21 1.85 -.35.12-.6.45-.6.84v1.2c0 4.8-3.9 8.7-8.7 8.7h-.6c-.5 0-.9-.41-.9-.9 0-.5.4-.9.9-.9h.6c3.81 0 6.9-3.09 6.9-6.9v-1.2c0-1.46 1.15-2.65 2.59-2.7Z"/><path fill="currentColor" fill-rule="evenodd" d="M18.75 2.25c.41-.42 1.07-.42 1.48 0l3.6 3.6c.41.41.41 1.07 0 1.48l-3.6 3.59c-.42.41-1.08.41-1.49 0 -.41-.41-.41-1.08 0-1.49l1.8-1.81h-4.07c-2.08 0-3.75 1.67-3.75 3.75v1.19c0 3.23-2.62 5.85-5.85 5.85h-3.6c-.58 0-1.05-.48-1.05-1.05 0-.58.47-1.06 1.05-1.06h3.6c2.07 0 3.75-1.68 3.75-3.75v-1.2c0-3.24 2.61-5.86 5.85-5.86h4.06l-1.81-1.81c-.41-.42-.41-1.08 0-1.49Zm1.27.21c-.3-.3-.77-.3-1.07 0 -.3.29-.3.76 0 1.06l2.06 2.06c.04.04.05.1.03.16 -.03.05-.08.09-.14.09h-4.43c-3.07 0-5.55 2.48-5.55 5.55v1.19c0 2.23-1.82 4.05-4.05 4.05h-3.6c-.42 0-.75.33-.75.75 0 .41.33.75.75.75h3.6c3.06 0 5.55-2.49 5.55-5.56v-1.2c0-2.24 1.81-4.06 4.05-4.06h4.42c.06 0 .11.03.13.09 .02.05.01.12-.04.16l-2.07 2.06c-.3.29-.3.76 0 1.06 .29.29.76.29 1.06 0l3.6-3.61c.29-.3.29-.77 0-1.07l-3.6-3.6Zm-4.14.08c-4.73 0-8.55 3.82-8.55 8.54v1.2c0 .57-.48 1.04-1.05 1.04h-3c-.42 0-.75.33-.75.75 0 .41.33.75.75.75h3c1.4 0 2.55-1.15 2.55-2.55v-1.21c0-3.9 3.15-7.05 7.05-7.05h.6c.41 0 .75-.34.75-.75 0-.42-.34-.75-.75-.75h-.6Zm-8.85 8.54c0-4.89 3.96-8.85 8.85-8.85h.6c.57 0 1.05.47 1.05 1.05 0 .57-.48 1.05-1.05 1.05h-.6c-3.73 0-6.75 3.02-6.75 6.74v1.2c0 1.57-1.28 2.85-2.85 2.85h-3c-.58 0-1.05-.48-1.05-1.06 0-.58.47-1.05 1.05-1.05h3c.41 0 .75-.34.75-.75v-1.21ZM17.1 8.9c.02.04.03.1 0 .14 -.28.54-.35 1.16-.2 1.74 .01.07-.03.15-.1.17 -.29.1-.5.38-.5.7v1.2c0 4.88-3.97 8.85-8.85 8.85h-.6c-.58 0-1.05-.48-1.05-1.05 0-.58.47-1.05 1.05-1.05h.6c3.72 0 6.75-3.03 6.75-6.75v-1.2c0-1.54 1.21-2.8 2.74-2.85 .05-.01.1.02.13.06Zm-.37.25c-1.25.16-2.21 1.23-2.21 2.52v1.2c0 3.89-3.16 7.05-7.05 7.05h-.6c-.42 0-.75.33-.75.75 0 .41.33.75.75.75h.6c4.72 0 8.55-3.83 8.55-8.55v-1.2c0-.41.23-.76.56-.94 -.11-.54-.07-1.09.13-1.6Z"/></g></svg>