<svg viewBox="0 0 24 24" xmlns="http://www.w3.org/2000/svg"><path fill="currentColor" d="M9 11c0-3.87 3.13-7 7-7h1.5c.55 0 1-.45 1-1 0-.56-.45-1-1-1H16c-4.98 0-9 4.02-9 9 0 .55-.45 1-1 1H3c-.56 0-1 .44-1 1 0 .55.44 1 1 1h3c1.65 0 3-1.35 3-3Zm8-3c-2.21 0-4 1.79-4 4 0 3.31-2.69 6-6 6H3c-.56 0-1-.45-1-1 0-.56.44-1 1-1h4c2.2 0 4-1.8 4-4 0-3.32 2.68-6 6-6h4c.55 0 1 .44 1 1 0 .55-.45 1-1 1h-4Zm1 4c-.56 0-1 .44-1 1 0 4.97-4.03 9-9 9H6c-.56 0-1-.45-1-1 0-.56.44-1 1-1h2c3.86 0 7-3.14 7-7 0-1.66 1.34-3 3-3h3c.55 0 1 .44 1 1 0 .55-.45 1-1 1h-3Z"/></svg>