<svg viewBox="0 0 24 24" xmlns="http://www.w3.org/2000/svg"><g fill="currentColor"><path d="M15.9 4.2C12.08 4.2 9 7.28 9 11.1v1.2C9 13.79 7.79 15 6.3 15h-3c-.5 0-.9-.41-.9-.9 0-.5.4-.9.9-.9h3c.49 0 .9-.41.9-.9v-1.2c0-4.81 3.89-8.7 8.7-8.7h.6c.49 0 .9.4.9.9 0 .49-.41.9-.9.9h-.6Zm-3.3 7.2c0-2.16 1.74-3.9 3.9-3.9h4.2c.49 0 .9-.41.9-.9 0-.5-.41-.9-.9-.9h-4.2c-3.15 0-5.7 2.55-5.7 5.7v1.2c0 2.15-1.75 3.9-3.9 3.9H3.3c-.5 0-.9.4-.9.9 0 .49.4.9.9.9h3.6c3.14 0 5.7-2.56 5.7-5.7v-1.2Zm4.5-.6c-.5 0-.9.4-.9.9v1.2c0 .79-.11 1.55-.31 2.285 -.29-.13-.6-.19-.9-.19 -.35 0-.69.07-1.01.23 .26-.73.4-1.52.4-2.34v-1.2c0-1.5 1.2-2.7 2.7-2.7h3.6c.49 0 .9.4.9.9 0 .49-.41.9-.9.9h-3.6Zm-1.68 10.99c.23.23.23.61 0 .84 -.24.23-.62.23-.85 0l-2.4-2.4c-.24-.24-.24-.62 0-.85l2.4-2.4c.23-.24.61-.24.84 0 .23.23.23.61 0 .84l-1.38 1.37h6.7l-1.38-1.38c-.24-.24-.24-.62 0-.85 .23-.24.61-.24.84 0l2.4 2.4c.23.23.23.61 0 .84l-2.4 2.4c-.24.23-.62.23-.85 0 -.24-.24-.24-.62 0-.85l1.37-1.38H14l1.37 1.37Z"/><path fill="currentColor" fill-rule="evenodd" d="M15.9 2.55c-4.73 0-8.55 3.82-8.55 8.55v1.2c0 .57-.48 1.05-1.05 1.05h-3c-.42 0-.75.33-.75.75 0 .41.33.75.75.75h3c1.4 0 2.55-1.15 2.55-2.55v-1.2c0-3.9 3.15-7.05 7.05-7.05h.6c.41 0 .75-.34.75-.75 0-.42-.34-.75-.75-.75h-.6ZM7.05 11.1c0-4.89 3.96-8.85 8.85-8.85h.6c.57 0 1.05.47 1.05 1.05 0 .57-.48 1.05-1.05 1.05h-.6c-3.73 0-6.75 3.02-6.75 6.75v1.2c0 1.57-1.28 2.85-2.85 2.85h-3c-.58 0-1.05-.48-1.05-1.05 0-.58.47-1.05 1.05-1.05h3c.41 0 .75-.34.75-.75v-1.2Zm3.6.3c0-3.24 2.61-5.85 5.85-5.85h4.2c.57 0 1.05.47 1.05 1.05 0 .57-.48 1.05-1.05 1.05h-4.2c-2.08 0-3.75 1.67-3.75 3.75v1.2c0 3.23-2.62 5.85-5.85 5.85H3.3c-.58 0-1.05-.48-1.05-1.05 0-.58.47-1.05 1.05-1.05h3.6c2.07 0 3.75-1.68 3.75-3.75v-1.2Zm5.85-5.55c-3.07 0-5.55 2.48-5.55 5.55v1.2c0 2.23-1.82 4.05-4.05 4.05H3.3c-.42 0-.75.33-.75.75 0 .41.33.75.75.75h3.6c3.06 0 5.55-2.49 5.55-5.55v-1.2c0-2.24 1.81-4.05 4.05-4.05h4.2c.41 0 .75-.34.75-.75 0-.42-.34-.75-.75-.75h-4.2Zm.6 3.3c-1.41 0-2.55 1.14-2.55 2.55v1.2c0 .72-.11 1.41-.31 2.07 .24-.09.5-.13.75-.13 .26 0 .53.04.79.13 .16-.67.25-1.37.25-2.09v-1.2c0-.58.47-1.05 1.05-1.05h3.6c.41 0 .75-.34.75-.75 0-.42-.34-.75-.75-.75h-3.6Zm-2.85 2.55c0-1.58 1.27-2.85 2.85-2.85h3.6c.57 0 1.05.47 1.05 1.05 0 .57-.48 1.05-1.05 1.05h-3.6c-.42 0-.75.33-.75.75v1.2c0 .8-.11 1.58-.31 2.32 -.02.04-.05.07-.08.09 -.04.01-.09.02-.13 0 -.27-.12-.56-.18-.84-.18 -.32 0-.64.07-.94.21 -.06.02-.13.01-.17-.03 -.05-.05-.07-.11-.05-.17 .25-.72.39-1.49.39-2.29v-1.2Zm5.86 5.4c-.18-.18-.47-.18-.64 0 -.18.17-.18.46 0 .63l1.37 1.37c.04.04.05.1.03.16 -.03.05-.08.09-.14.09h-6.71c-.07 0-.12-.04-.14-.1 -.03-.06-.02-.13.03-.17l1.37-1.38c.17-.18.17-.47 0-.64 -.18-.18-.47-.18-.64 0l-2.4 2.4c-.18.17-.18.46 0 .63l2.4 2.4c.17.17.46.17.63 0 .17-.18.17-.47 0-.64l-1.38-1.38c-.05-.05-.06-.11-.04-.17 .02-.06.07-.1.13-.1h6.7c.06 0 .11.03.13.09 .02.05.01.12-.04.16l-1.38 1.37c-.18.17-.18.46 0 .63 .17.17.46.17.63 0l2.4-2.4c.17-.18.17-.47 0-.64l-2.4-2.4Zm-5.65-.22c.29-.3.76-.3 1.06 0 .29.29.29.76 0 1.06l-1.12 1.11h5.97l-1.12-1.12c-.3-.3-.3-.77 0-1.07 .29-.3.76-.3 1.06 0l2.4 2.4c.29.29.29.76 0 1.06l-2.4 2.4c-.3.29-.77.29-1.07 0 -.3-.3-.3-.77 0-1.07l1.11-1.12h-5.98l1.11 1.11c.29.29.29.76 0 1.06 -.3.29-.77.29-1.07 0l-2.4-2.4c-.3-.3-.3-.77 0-1.07l2.4-2.4Z"/></g></svg>