<svg viewBox="0 0 25 24" xmlns="http://www.w3.org/2000/svg"><g fill="currentColor"><path d="M9.99 11.1c0-3.82 3.08-6.9 6.89-6.9h.6c.49 0 .9-.41.9-.9 0-.5-.41-.9-.9-.9h-.6c-4.81 0-8.7 3.89-8.7 8.7v1.2c0 .49-.41.9-.9.9h-.42l1.55 1.55c.92-.43 1.56-1.37 1.56-2.46v-1.2Zm-1.32 8.69l-1.48 1.47c.16.19.41.32.69.32h.6c4.8 0 8.69-3.9 8.69-8.7v-1.2c0-.5.4-.9.9-.9h3.6c.49 0 .9-.41.9-.9 0-.5-.41-.9-.9-.9h-3.6c-1.5 0-2.7 1.2-2.7 2.7v1.2c0 3.74-3 6.8-6.72 6.89Zm.94-3.71c.31.56.41 1.21.28 1.83 2.15-.82 3.68-2.9 3.68-5.34v-1.2c0-2.16 1.74-3.9 3.9-3.9h4.2c.49 0 .9-.41.9-.9 0-.5-.41-.9-.9-.9h-4.2c-3.15 0-5.7 2.55-5.7 5.7v1.2c0 1.53-.89 2.85-2.18 3.49Zm-6.57-2.94c.35-.36.92-.36 1.27 0l3.6 3.6c.35.35.35.92 0 1.27l-3.6 3.6c-.36.35-.93.35-1.28 0 -.36-.36-.36-.93 0-1.28l2.06-2.07H1.86c-.5 0-.91-.41-.91-.9 0-.5.4-.9.9-.9h3.22L3 14.39c-.36-.36-.36-.93 0-1.28Z"/><path fill="currentColor" fill-rule="evenodd" d="M8.04 11.1c0-4.89 3.96-8.85 8.84-8.85h.6c.57 0 1.05.47 1.05 1.05 0 .57-.48 1.05-1.05 1.05h-.6c-3.73 0-6.75 3.02-6.75 6.75v1.2c0 1.14-.68 2.13-1.66 2.58 -.06.02-.13.01-.17-.04l-1.56-1.56c-.05-.05-.06-.11-.04-.17 .02-.06.07-.1.13-.1h.41c.41 0 .75-.34.75-.75v-1.2Zm8.84-8.55c-4.73 0-8.55 3.82-8.55 8.55v1.2c0 .57-.48 1.05-1.05 1.05h-.06l1.22 1.22c.82-.43 1.38-1.29 1.38-2.27v-1.2c0-3.9 3.15-7.05 7.04-7.05h.6c.41 0 .75-.34.75-.75 0-.42-.34-.75-.75-.75h-.6Zm-5.25 8.85c0-3.24 2.61-5.85 5.85-5.85h4.2c.57 0 1.05.47 1.05 1.05 0 .57-.48 1.05-1.05 1.05h-4.2c-2.08 0-3.75 1.67-3.75 3.75v1.2c0 2.5-1.58 4.63-3.79 5.47 -.06.01-.11 0-.16-.03 -.05-.04-.07-.1-.05-.15 .11-.59.02-1.2-.28-1.74 -.03-.04-.03-.08-.02-.12 .01-.04.03-.08.07-.09 1.23-.62 2.08-1.89 2.08-3.37v-1.2Zm5.85-5.55c-3.07 0-5.55 2.48-5.55 5.55v1.2c0 1.53-.86 2.87-2.12 3.56 .23.48.32 1.01.27 1.53 1.96-.86 3.34-2.82 3.34-5.1v-1.2c0-2.24 1.81-4.05 4.05-4.05h4.2c.41 0 .75-.34.75-.75 0-.42-.34-.75-.75-.75h-4.2Zm-2.25 5.85c0-1.58 1.27-2.85 2.85-2.85h3.6c.57 0 1.05.47 1.05 1.05 0 .57-.48 1.05-1.05 1.05h-3.6c-.42 0-.75.33-.75.75v1.2c0 4.88-3.97 8.85-8.85 8.85h-.6c-.33 0-.62-.15-.81-.38 -.05-.06-.05-.15 0-.21l1.47-1.48c.02-.03.06-.05.1-.05 3.64-.1 6.57-3.08 6.57-6.75v-1.2Zm2.85-2.55c-1.41 0-2.55 1.14-2.55 2.55v1.2c0 3.81-3.03 6.91-6.81 7.04l-1.33 1.32c.13.1.29.17.48.17h.6c4.72 0 8.54-3.83 8.54-8.55v-1.2c0-.58.47-1.05 1.05-1.05h3.6c.41 0 .75-.34.75-.75 0-.42-.34-.75-.75-.75h-3.6ZM4.21 13.26c-.3-.3-.77-.3-1.07 0 -.3.29-.3.76 0 1.06l2.06 2.06c.04.04.05.1.03.16 -.03.05-.08.09-.14.09H1.86c-.42 0-.75.33-.75.75 0 .41.33.75.75.75h3.22c.06 0 .11.03.13.09 .02.05.01.12-.04.16L3.1 20.44c-.3.29-.3.76 0 1.06 .29.29.76.29 1.06 0l3.6-3.6c.29-.3.29-.77 0-1.07l-3.6-3.6Zm-1.28-.22c.41-.41 1.07-.41 1.48 0l3.6 3.6c.41.41.41 1.07 0 1.48l-3.6 3.6c-.42.41-1.08.41-1.49 0 -.42-.42-.42-1.08 0-1.49l1.8-1.81H1.85c-.58 0-1.06-.48-1.06-1.05 0-.58.47-1.05 1.05-1.05H4.7l-1.81-1.81c-.42-.42-.42-1.08 0-1.49Z"/></g></svg>