<svg viewBox="0 0 24 24" xmlns="http://www.w3.org/2000/svg"><path fill="currentColor" d="M17.4 4.72l2.71 10.14c.39 1.46-.48 2.97-1.95 3.36l-6.28 1.68c-1.47.39-2.98-.48-3.37-1.95L5.79 7.8c-.4-1.47.47-2.98 1.94-3.37L14 2.74c1.46-.4 2.97.47 3.36 1.94Zm-6.44 3.01c-.15-.54-.7-.86-1.23-.71 -.54.14-.86.69-.71 1.22 .14.53.69.85 1.22.7 .53-.15.85-.7.7-1.23Zm-5.17 3.91l1.76 6.57c.18.67.53 1.25 1 1.71l-.45-.03c-1.52-.08-2.69-1.38-2.61-2.9l.28-5.37Zm-.93-1.48l-.36 6.79c-.04.69.12 1.36.42 1.94l-.42-.17c-1.42-.55-2.13-2.14-1.59-3.56l1.92-5.03Z"/></svg>