<svg viewBox="0 0 24 24" xmlns="http://www.w3.org/2000/svg"><path fill="currentColor" d="M20.37 11.5c.01-.24.02-.47.02-.71 0-5.31-4.3-9.61-9.6-9.61 -5.31 0-9.6 4.29-9.6 9.6 0 5.3 4.29 9.6 9.6 9.6 .23 0 .47-.01.7-.03 -.46-.9-.71-1.91-.71-2.98 0-2.67 1.57-4.96 3.84-6H6.57c-.34 0-.6-.27-.6-.6 0-.34.26-.6.6-.6h8.4c.33 0 .6.26.6.6 0 .09-.03.18-.07.26 .59-.18 1.21-.27 1.86-.27 1.07 0 2.08.25 2.97.7Zm2.42 5.89c0 2.98-2.42 5.4-5.4 5.4 -2.99 0-5.4-2.42-5.4-5.4 0-2.99 2.41-5.4 5.4-5.4 2.98 0 5.4 2.41 5.4 5.4Zm-6.48-3.13c-.24-.24-.62-.24-.85 0l-2.1 2.1c-.06.05-.11.12-.14.19 -.03.07-.05.14-.05.22 0 .08.01.15.04.22 .02.06.07.13.12.19l2.1 2.1c.23.23.61.23.84 0 .23-.24.23-.62 0-.85l-1.08-1.08h1.85c1.15 0 2.1.94 2.1 2.1v.3c0 .33.26.6.6.6 .33 0 .6-.27.6-.6v-.3c0-1.83-1.48-3.3-3.3-3.3h-1.86l1.07-1.08c.23-.24.23-.62 0-.85Z"/></svg>