<svg viewBox="0 0 24 24" xmlns="http://www.w3.org/2000/svg"><path fill="currentColor" d="M20.37 11.5c.01-.24.02-.47.02-.71 0-5.31-4.3-9.61-9.6-9.61 -5.31 0-9.6 4.29-9.6 9.6 0 5.3 4.29 9.6 9.6 9.6 .23 0 .47-.01.7-.03 -.46-.9-.71-1.91-.71-2.98 0-2.67 1.57-4.96 3.84-6H6.57c-.34 0-.6-.27-.6-.6 0-.34.26-.6.6-.6h8.4c.33 0 .6.26.6.6 0 .09-.03.18-.07.26 .59-.18 1.21-.27 1.86-.27 1.07 0 2.08.25 2.97.7Zm-8.38 5.89c0 2.98 2.41 5.4 5.4 5.4 2.98 0 5.4-2.42 5.4-5.4 0-2.99-2.42-5.4-5.4-5.4 -2.99 0-5.4 2.41-5.4 5.4Zm6.47-3.13c.23-.24.61-.24.84 0l2.1 2.1c.05.05.1.12.13.19 .02.07.04.14.04.22 0 .08-.02.15-.05.22 -.03.06-.08.13-.13.19l-2.11 2.1c-.24.23-.62.23-.85 0 -.24-.24-.24-.62 0-.85l1.07-1.08h-1.86c-1.16 0-2.1.94-2.1 2.1v.3c0 .33-.27.6-.6.6 -.34 0-.6-.27-.6-.6v-.3c0-1.83 1.47-3.3 3.3-3.3h1.85l-1.08-1.08c-.24-.24-.24-.62 0-.85Z"/></svg>