<svg viewBox="0 0 24 24" xmlns="http://www.w3.org/2000/svg"><path fill="currentColor" d="M6 6c0-.56.44-1 1-1 .55 0 1 .44 1 1v6.02c.63.05 1.29.19 2 .41v-1.45h6v3.48c.8-.02 1.47-.18 2-.36V5.97c0-1.66-1.35-3-3-3 -1.66 0-3 1.34-3 3 0 .55.44 1 1 1 .55 0 1-.45 1-1 0-.56.44-1 1-1 .55 0 1 .44 1 1v3h-6v-3c0-1.66-1.35-3-3.01-3 -1.66 0-3 1.34-3 3 0 .55.44 1 1 1 .55 0 1-.45 1-1Zm.59 9.02c-1.03.12-1.7.54-1.99.76 -.44.33-1.07.24-1.41-.19 -.34-.44-.25-1.07.18-1.41 .49-.38 1.49-.98 2.95-1.16 1.47-.19 3.33.07 5.51 1.31 3.78 2.15 6.83.65 7.63.18 .47-.29 1.08-.13 1.36.35 .28.47.12 1.08-.36 1.36 -1.08.63-4.95 2.5-9.64-.17 -1.84-1.05-3.27-1.2-4.28-1.08ZM4.6 19.78c.28-.22.96-.64 1.98-.77 1.01-.13 2.44.02 4.27 1.07 4.69 2.66 8.56.8 9.63.16 .47-.29.63-.9.35-1.37 -.29-.48-.9-.64-1.37-.36 -.8.47-3.85 1.97-7.64-.19 -2.18-1.24-4.04-1.5-5.52-1.32 -1.47.18-2.47.78-2.96 1.15 -.44.33-.53.96-.19 1.4 .33.43.96.52 1.4.18Z"/></svg>