<svg viewBox="0 0 24 24" xmlns="http://www.w3.org/2000/svg"><path fill="currentColor" d="M6 12c0 .55.44 1 1 1h11.58l-1.3 1.29c-.37.36-.39.92-.09 1.32l.08.09c.36.36.92.38 1.32.08l.09-.09 3-3c.36-.37.38-.93.08-1.32l-.09-.1 -3-3.01c-.4-.4-1.03-.4-1.42 0 -.37.36-.39.92-.09 1.32l.08.09 1.29 1.29H6.94c-.56 0-1 .44-1 1Zm-4 0c0 2.76 2.23 5 5 5 2.05 0 3.81-1.24 4.58-3l-1.72 0c-.64.9-1.69 1.49-2.88 1.49 -1.94 0-3.5-1.57-3.5-3.5 0-1.94 1.56-3.5 3.5-3.5 1.18 0 2.24.59 2.87 1.5l1.71 0c-.78-1.77-2.54-3.01-4.59-3.01 -2.77 0-5 2.23-5 5Z"/></svg>