<svg viewBox="0 0 24 24" xmlns="http://www.w3.org/2000/svg"><path fill="currentColor" d="M12 6c.55 0 1 .44 1 1v11.58l1.29-1.3c.36-.37.92-.39 1.32-.09l.09.08c.36.36.38.92.08 1.32l-.09.09 -3 3c-.37.36-.93.38-1.32.08l-.1-.09 -3.01-3c-.4-.4-.4-1.03 0-1.42 .36-.37.92-.39 1.32-.09l.09.08 1.29 1.29V6.94c0-.56.44-1 1-1Zm0-4c2.76 0 5 2.23 5 5 0 2.05-1.24 3.81-3 4.58l0-1.72c.9-.64 1.49-1.69 1.49-2.88 0-1.94-1.57-3.5-3.5-3.5 -1.94 0-3.5 1.56-3.5 3.5 0 1.18.59 2.24 1.5 2.87l0 1.71c-1.77-.78-3.01-2.54-3.01-4.59 0-2.77 2.23-5 5-5Z"/></svg>