<svg viewBox="0 0 24 24" xmlns="http://www.w3.org/2000/svg"><path fill="currentColor" d="M12 18c.55 0 1-.45 1-1V5.41l1.29 1.29c.36.36.92.38 1.32.08l.09-.09c.36-.37.38-.93.08-1.33l-.09-.1 -3-3c-.37-.37-.93-.39-1.32-.09l-.1.08 -3.01 3c-.4.39-.4 1.02 0 1.41 .36.36.92.38 1.32.08l.09-.09 1.29-1.3V16.94c0 .55.44 1 1 1Zm0 4c2.76 0 5-2.24 5-5 0-2.06-1.24-3.82-3-4.59l0 1.71c.9.63 1.49 1.68 1.49 2.87 0 1.93-1.57 3.5-3.5 3.5 -1.94 0-3.5-1.57-3.5-3.5 0-1.19.59-2.25 1.5-2.88l0-1.72c-1.77.77-3.01 2.53-3.01 4.58 0 2.76 2.23 5 5 5Z"/></svg>