<svg viewBox="0 0 24 24" xmlns="http://www.w3.org/2000/svg"><path fill="currentColor" d="M18 12c0 .55-.45 1-1 1H5.41l1.29 1.29c.36.36.38.92.08 1.32l-.09.09c-.37.36-.93.38-1.33.08l-.1-.09 -3-3c-.37-.37-.39-.93-.09-1.32l.08-.1 3-3.01c.39-.4 1.02-.4 1.41 0 .36.36.38.92.08 1.32l-.09.09 -1.3 1.29H16.94c.55 0 1 .44 1 1Zm4 0c0 2.76-2.24 5-5 5 -2.06 0-3.82-1.24-4.59-3l1.71 0c.63.9 1.68 1.49 2.87 1.49 1.93 0 3.5-1.57 3.5-3.5 0-1.94-1.57-3.5-3.5-3.5 -1.19 0-2.25.59-2.88 1.5l-1.72 0c.77-1.77 2.53-3.01 4.58-3.01 2.76 0 5 2.23 5 5Z"/></svg>