<svg viewBox="0 0 24 24" xmlns="http://www.w3.org/2000/svg"><path fill="currentColor" d="M16.91 18c.41 0 .75.33.75.75 0 .37-.29.69-.65.74l-.11 0 -1.04 0c.55.62 1.36.99 2.23.99 .99 0 1.9-.49 2.46-1.3 .23-.35.7-.43 1.04-.19 .34.23.42.7.18 1.04 -.84 1.2-2.21 1.93-3.7 1.93 -1.12 0-2.16-.41-2.95-1.11l-.01.35c0 .41-.34.75-.75.75 -.38 0-.7-.29-.75-.65l-.01-.11v-2.5c0-.38.28-.7.64-.75l.1-.01h2.5ZM6.38 13l.1-.01c.37 0 .69.28.74.64l0 .1v3h3c.37 0 .69.28.74.64l0 .1c0 .37-.29.69-.65.74l-.11 0h-3v3c0 .37-.29.69-.65.74l-.11 0c-.38 0-.7-.29-.75-.65l-.01-.11v-3h-3c-.38 0-.7-.29-.75-.65l-.01-.11c0-.38.28-.7.64-.75l.1-.01h3v-3c0-.38.28-.7.64-.75l.1-.01 -.11 0Zm11.1-.01c1.11 0 2.15.4 2.94 1.1l0-.36c0-.42.33-.75.75-.75 .37 0 .69.28.74.64l0 .1v2.5c0 .37-.29.69-.65.74l-.11 0h-2.5c-.42 0-.75-.34-.75-.75 0-.38.28-.7.64-.75l.1-.01 1.03-.01c-.56-.63-1.37-1-2.24-1 -1 0-1.91.48-2.47 1.29 -.24.34-.71.42-1.05.18 -.35-.24-.43-.71-.19-1.05 .83-1.202 2.2-1.94 3.69-1.94Zm-11-11c2.48 0 4.5 2.01 4.5 4.5 0 2.48-2.02 4.5-4.5 4.5 -2.49 0-4.5-2.02-4.5-4.5 0-2.49 2.01-4.5 4.5-4.5Zm12.71 0c1.55 0 2.78 1.39 2.78 3.07 0 .86-.33 1.67-.86 2.21l-2.51 3.14c-.52.65-1.47.75-2.11.23 -.09-.08-.17-.16-.24-.24l-2.68-3.41c-.41-.55-.63-1.23-.63-1.95 0-1.69 1.23-3.08 2.78-3.08 .56 0 1.1.18 1.55.51l.16.13 .16-.14c.44-.34.98-.52 1.54-.52ZM3.89 4.96c-.27.44-.42.96-.42 1.52 0 1.65 1.34 3 3 3 .55 0 1.07-.16 1.52-.42L3.88 4.95Zm2.58-1.48c-.56 0-1.08.15-1.53.41l4.1 4.1c.26-.45.41-.97.41-1.53 0-1.66-1.35-3-3-3Z"/></svg>