<svg viewBox="0 0 24 24" xmlns="http://www.w3.org/2000/svg"><path fill="currentColor" d="M16.72 2.21c.29-.3.76-.3 1.06 0l4 4c.29.29.29.76 0 1.06 -.3.29-.77.29-1.07 0l-.48-.48 -1.7 1.68 2.46 2.46c.29.29.29.76 0 1.06 -.3.29-.77.29-1.07 0l-1.47-1.47 -6.85 6.84c-.71.7-1.66 1.09-2.66 1.09H6.49L3.2 21.73c-.3.29-.77.29-1.07 0 -.3-.3-.3-.77 0-1.07l3.28-3.29v-2.45c0-1 .39-1.95 1.09-2.66l.34-.35 1.53 1.53c.29.29.76.29 1.06 0 .29-.3.29-.77 0-1.07l-1.54-1.54 .93-.94 1.53 1.53c.29.29.76.29 1.06 0 .29-.3.29-.77 0-1.07L9.87 8.81l.93-.94 1.53 1.53c.29.29.76.29 1.06 0 .29-.3.29-.77 0-1.07l-1.54-1.54 1.43-1.44 -1.47-1.47c-.3-.3-.3-.77 0-1.07 .29-.3.76-.3 1.06 0l2.46 2.46 1.69-1.69 -.47-.47c-.3-.3-.3-.77 0-1.07Zm2.46 3.52l-.94-.94 -1.7 1.68 .93.93 1.69-1.69Z"/></svg>