<svg viewBox="0 0 24 24" xmlns="http://www.w3.org/2000/svg"><path fill="currentColor" d="M6.6 3.6c-1.66 0-3 1.34-3 3v4.91c.9-.47 1.91-.72 3-.72 3.64 0 6.59 2.95 6.59 6.6 0 1.08-.26 2.09-.72 3h4.91c1.65 0 3-1.35 3-3v-9h-9c-1 0-1.8-.81-1.8-1.8v-3h-3Zm4.19 0v3c0 .33.26.6.6.6h9v-.6c0-1.66-1.35-3-3-3h-6.6Zm-4.2 19.2c2.98 0 5.39-2.42 5.39-5.4 0-2.99-2.42-5.4-5.4-5.4 -2.99 0-5.4 2.41-5.4 5.4 0 2.98 2.41 5.4 5.4 5.4Zm0-8.4c.33 0 .6.26.6.6v1.8h1.2c.33 0 .6.26.6.6 0 .33-.27.6-.6.6h-1.8c-.34 0-.6-.27-.6-.6V15c0-.34.26-.6.6-.6Z"/></svg>