<svg viewBox="0 0 24 24" xmlns="http://www.w3.org/2000/svg"><path fill="currentColor" d="M5.75 3h12.5C19.76 3 21 4.23 21 5.75v12.5c0 1.51-1.24 2.75-2.75 2.75H5.75C4.23 21 3 19.76 3 18.25V5.75C3 4.23 4.23 3 5.75 3ZM5 5.75v.54l1.29-1.3h-.55c-.42 0-.75.33-.75.75ZM5 7.7v2.58l5.29-5.3H7.7l-2.71 2.7Zm6.7-2.71l-6.71 6.7v2.58L14.28 4.97h-2.59Zm4 0L4.99 15.69v2.54c0 .01 0 .02 0 .04l13.29-13.3c-.02-.01-.03-.01-.05-.01h-2.55Zm3.29.7L5.69 18.98c.01 0 .02 0 .04 0h2.54l10.7-10.71V5.72c0-.02-.01-.03-.01-.05Zm0 3.99l-9.3 9.29h2.58l6.7-6.71V9.67Zm0 4l-5.3 5.29h2.58l2.7-2.71v-2.59Zm0 4l-1.3 1.29h.54c.41 0 .75-.34.75-.75v-.55Z"/></svg>