<svg viewBox="0 0 24 24" xmlns="http://www.w3.org/2000/svg"><path fill="currentColor" d="M5.75 3C4.23 3 3 4.23 3 5.75v12.5C3 19.76 4.23 21 5.75 21h6.62c-.24-.52-.38-1.08-.38-1.68v-.33H5.74c-.42 0-.75-.34-.75-.75V5.74c0-.42.33-.75.75-.75h12.5c.41 0 .75.33.75.75v3.37c.78.2 1.47.63 2 1.22V5.72c0-1.52-1.24-2.75-2.75-2.75H5.74ZM15 13c0-1.66 1.34-3 3-3v1h2.23c.25.28.46.62.59 1h-2.83v1h3c0 .35-.07.68-.18 1h-2.83v1h2.23c-.55.61-1.35 1-2.24 1 -1.66 0-3-1.35-3-3Zm-.07 4c-.59 0-1.07.28-1.4.63 -.33.34-.55.82-.55 1.3v.38c0 1.96 2.04 3.67 5 3.67v-1h3.47c.4-.29.74-.63.99-1h-4.47v-1h4.91c.05-.22.08-.45.08-.68v-.33h-5v-1h4.72c-.08-.14-.17-.26-.28-.37 -.33-.36-.82-.64-1.4-.64h-6.13Z"/></svg>