<svg viewBox="0 0 24 24" xmlns="http://www.w3.org/2000/svg"><path fill="currentColor" d="M3 5.75C3 4.23 4.23 3 5.75 3h12.5C19.76 3 21 4.23 21 5.75v6.27c-.61-.39-1.28-.68-2-.85V5.74c0-.42-.34-.75-.75-.75H5.75c-.42 0-.75.33-.75.75v12.5c0 .41.33.75.75.75h5.42c.17.72.46 1.39.84 2H5.73c-1.52 0-2.75-1.24-2.75-2.75V5.74ZM17.5 23c-3.04 0-5.5-2.47-5.5-5.5 0-3.04 2.46-5.5 5.5-5.5 3.03 0 5.5 2.46 5.5 5.5 0 3.03-2.47 5.5-5.5 5.5Zm3-5c.27 0 .5-.23.5-.5 0-.28-.23-.5-.5-.5h-4.8l1.64-1.65c.19-.2.19-.52 0-.71 -.2-.2-.52-.2-.71 0l-2.5 2.5c-.2.19-.2.51 0 .7l2.5 2.5c.19.19.51.19.7 0 .19-.2.19-.52 0-.71l-1.65-1.65h4.79Z"/></svg>