<svg viewBox="0 0 24 24" xmlns="http://www.w3.org/2000/svg"><path fill="currentColor" d="M5.75 3C4.23 3 3 4.23 3 5.75v5.35c1.27-1.3 3.04-2.11 5-2.11 .98 0 1.91.2 2.76.56 .3-.5.85-.82 1.48-.82 .96 0 1.75.78 1.75 1.75v1.89c.63 1.05 1 2.28 1 3.6 0 1.95-.81 3.72-2.11 5h5.35c1.51 0 2.75-1.24 2.75-2.75V7.97h-7.75c-1.25 0-2.25-1.01-2.25-2.25V2.97H5.73Zm6.75 0v2.75c0 .41.33.75.75.75H21v-.75C21 4.23 19.76 3 18.25 3H12.5Zm.5 10.25c0 .41-.34.75-.75.75H9.5c-.42 0-.75-.34-.75-.75 0-.42.33-.75.75-.75h1.32c-.01-.01-.02-.01-.02-.02 -.78-.62-1.75-.99-2.82-.99 -2.49 0-4.5 2.01-4.5 4.5 0 2.48 2.01 4.5 4.5 4.5 2.48 0 4.5-2.02 4.5-4.5 0-.42.33-.75.75-.75 .41 0 .75.33.75.75 0 3.31-2.69 6-6 6 -3.32 0-6-2.69-6-6 0-3.32 2.68-6 6-6 1.3 0 2.51.41 3.5 1.12v-.63c0-.18.06-.34.16-.47 .13-.18.34-.29.58-.29 .41 0 .75.33.75.75v2.75Z"/></svg>