<svg viewBox="0 0 24 24" xmlns="http://www.w3.org/2000/svg"><path fill="currentColor" d="M3.59 6.6c0-1.66 1.34-3 3-3h3v3c0 .99.8 1.8 1.8 1.8h9v9c0 1.65-1.35 3-3 3H6.58c-1.66 0-3-1.35-3-3V6.6Zm6 6.6c0-.67-.54-1.2-1.2-1.2 -.67 0-1.2.53-1.2 1.2 0 .66.53 1.2 1.2 1.2 .66 0 1.2-.54 1.2-1.2Zm2.4 1.2c.66 0 1.2-.54 1.2-1.2 0-.67-.54-1.2-1.2-1.2 -.67 0-1.2.53-1.2 1.2 0 .66.53 1.2 1.2 1.2Zm4.8-1.2c0-.67-.54-1.2-1.2-1.2 -.67 0-1.2.53-1.2 1.2 0 .66.53 1.2 1.2 1.2 .66 0 1.2-.54 1.2-1.2Zm3.6-6v-.6c0-1.66-1.35-3-3-3h-6.6v3c0 .33.26.6.6.6h9Z"/></svg>