<svg viewBox="0 0 24 24" xmlns="http://www.w3.org/2000/svg"><path fill="currentColor" d="M5.85 3c-1.66 0-3 1.34-3 3v12c0 1.65 1.34 3 3 3h6.16c-.39-.61-.68-1.28-.85-2H5.84c-.56 0-1-.45-1-1V6c0-.56.44-1 1-1h11.99c.55 0 1 .44 1 1v5.14c.71.15 1.39.42 2 .79V5.99c0-1.66-1.35-3-3-3h-12Zm11.64 20c3.03 0 5.5-2.47 5.5-5.5 0-3.04-2.47-5.5-5.5-5.5 -3.04 0-5.5 2.46-5.5 5.5 0 3.03 2.46 5.5 5.5 5.5Zm-3.31-3.26c-.44-.65-.7-1.42-.7-2.25 0-2.21 1.79-4 4-4 .83 0 1.6.25 2.24.69l-5.56 5.55Zm1.06 1.06l5.55-5.56c.43.64.69 1.41.69 2.24 0 2.2-1.8 4-4 4 -.84 0-1.61-.26-2.25-.7Z"/></svg>