<svg viewBox="0 0 24 24" xmlns="http://www.w3.org/2000/svg"><path fill="currentColor" d="M11 3H6C4.34 3 3 4.34 3 6v4.53c.58-.35 1.27-.54 2-.54h5c2.2 0 4 1.79 4 4v5c0 .72-.2 1.41-.54 2h4.53c1.65 0 3-1.35 3-3v-10h-7.75c-1.25 0-2.25-1.01-2.25-2.25V2.99Zm10 3.5V6c0-1.66-1.35-3-3-3h-5.5v2.75c0 .41.33.75.75.75H21ZM5 11c-1.66 0-3 1.34-3 3v5c0 .55.15 1.07.41 1.52l3.49-3.5c.87-.88 2.3-.88 3.18 0l3.49 3.49c.26-.45.41-.97.41-1.53v-5c0-1.66-1.35-3-3-3h-5Zm0 11c-.56 0-1.08-.16-1.53-.42l3.49-3.5c.29-.3.76-.3 1.06 0l3.49 3.49c-.45.26-.97.41-1.53.41h-5Zm5-7c-.56 0-1-.45-1-1 0-.56.44-1 1-1 .55 0 1 .44 1 1 0 .55-.45 1-1 1Z"/></svg>