<svg viewBox="0 0 24 24" xmlns="http://www.w3.org/2000/svg"><path fill="currentColor" d="M6.59 3.6c-1.66 0-3 1.34-3 3v4.922c.9-.47 1.92-.73 3-.73 3.64 0 6.59 2.95 6.59 6.6 0 1.08-.26 2.09-.72 3h4.91c1.65 0 3-1.35 3-3v-9h-9c-1 0-1.8-.81-1.8-1.8v-3H6.56Zm4.19 0v3c0 .33.26.6.6.6h9v-.6c0-1.66-1.35-3-3-3h-6.6Zm1.2 13.8c0 2.98-2.42 5.4-5.4 5.4 -2.99 0-5.4-2.42-5.4-5.4 0-2.99 2.41-5.4 5.4-5.4 2.98 0 5.39 2.41 5.39 5.4Zm-8.23-.43l-.01 0c-.06.05-.1.12-.13.19 -.03.06-.05.14-.05.22l-.01 0 0 0c0 .08.01.15.04.22 .02.07.07.13.13.19l2.4 2.4c.23.23.61.23.84 0 .23-.24.23-.62 0-.85l-1.38-1.38h3.35c.33 0 .6-.27.6-.6 0-.34-.27-.6-.6-.6H5.57l1.37-1.38c.23-.24.23-.62 0-.85 -.24-.24-.62-.24-.85 0l-2.4 2.39Z"/></svg>