<svg viewBox="0 0 24 24" xmlns="http://www.w3.org/2000/svg"><path fill="currentColor" d="M2.4 5.39c0-1.66 1.34-3 3-3h1.8v3c0 .99.8 1.8 1.8 1.8h8.99v7.8c0 1.65-1.35 3-3 3h-1.83c.01-.2.02-.4.02-.6 0-3.65-2.96-6.6-6.6-6.6 -1.6 0-3.06.56-4.2 1.5V5.38Zm10.55 13.8c-.26.89-.69 1.7-1.27 2.4h5.1c2.65 0 4.8-2.15 4.8-4.8v-7.8c0-1.46-1.04-2.67-2.4-2.94v8.93c0 2.31-1.89 4.2-4.2 4.2h-2.05ZM8.39 5.39v-3h6.59c1.65 0 3 1.34 3 3v.6h-9c-.34 0-.6-.27-.6-.6Zm3.59 12c0 2.98-2.42 5.4-5.4 5.4 -2.99 0-5.4-2.42-5.4-5.4 0-2.99 2.41-5.4 5.4-5.4 2.98 0 5.39 2.41 5.39 5.4Zm-4.8-2.4c0-.34-.27-.6-.6-.6 -.34 0-.6.26-.6.6v1.8h-1.8c-.34 0-.6.26-.6.6 0 .33.26.6.6.6h1.8v1.8c0 .33.26.6.6.6 .33 0 .6-.27.6-.6v-1.8h1.8c.33 0 .6-.27.6-.6 0-.34-.27-.6-.6-.6h-1.8v-1.8Z"/></svg>