<svg viewBox="0 0 24 24" xmlns="http://www.w3.org/2000/svg"><path fill="currentColor" d="M3 5.75C3 4.23 4.23 3 5.75 3h12.5C19.76 3 21 4.23 21 5.75v4.98c-.67-.25-1.32-.67-1.94-1.3 -.03-.03-.05-.05-.07-.06V5.73c0-.42-.34-.75-.75-.75H5.74c-.42 0-.75.33-.75.75v12.5c0 .41.33.75.75.75h6.98c.21.44.47.86.77 1.25 .2.26.43.51.67.74H5.72c-1.52 0-2.75-1.24-2.75-2.75V5.72Zm15.35 4.39c1.24 1.24 2.61 1.85 4.14 1.85 .24 0 .44.17.49.41l0 .08v3c0 3.21-1.65 5.4-4.85 6.47 -.11.03-.22.03-.32 0 -3.11-1.04-4.75-3.13-4.84-6.19l-.01-.29v-3.01c0-.28.22-.5.5-.5 1.52 0 2.9-.62 4.14-1.86 .19-.2.51-.2.7 0Zm-2.39 3.69l-.07.05 -.06.06c-.12.17-.12.39 0 .56l.05.06 1.39 1.39 -1.4 1.39 -.06.06c-.12.17-.12.39 0 .56l.05.06 .06.05c.17.11.39.11.56 0l.06-.06 1.39-1.4L19.32 18l.06.05c.17.11.39.11.56 0l.06-.06 .05-.07c.11-.18.11-.4 0-.57l-.06-.07 -1.4-1.4 1.39-1.4 .05-.07c.11-.18.11-.4 0-.57l-.06-.07 -.07-.06c-.18-.12-.4-.12-.57 0l-.07.05 -1.4 1.39 -1.4-1.4 -.07-.06c-.15-.11-.34-.12-.5-.05l-.08.04Z"/></svg>