<svg viewBox="0 0 24 24" xmlns="http://www.w3.org/2000/svg"><path fill="currentColor" d="M19.8 10.8c.2 0 .4.01.6.04V9.59h-4.8v1.2h4.2Zm-9 9v-4.2H9.59v4.8h1.24c-.03-.2-.05-.4-.05-.6Zm.04-5.4c.26-1.84 1.71-3.3 3.55-3.56V9.59H9.58v4.8h1.24Zm-2.45 0V9.6h-4.8v4.8h4.79Zm-4.8 1.2h4.79v4.8h-1.8c-1.66 0-3-1.35-3-3v-1.8Zm12-7.2h4.8V6.6c0-1.66-1.35-3-3-3h-1.8v4.8Zm-1.2-4.8v4.8H9.58V3.6h4.8Zm-6.01 0v4.8h-4.8V6.6c0-1.66 1.34-3 3-3h1.79Zm3.6 11.4c0-1.66 1.34-3 3-3h4.8c1.65 0 3 1.34 3 3v4.8c0 .61-.19 1.18-.5 1.65l-3.64-3.64c-.71-.71-1.85-.71-2.55 0l-3.64 3.63c-.32-.48-.5-1.05-.5-1.66v-4.8Zm8.4.3c0-.5-.41-.9-.9-.9 -.5 0-.9.4-.9.9 0 .49.4.9.9.9 .49 0 .9-.41.9-.9Zm-7.06 7c.47.31 1.04.49 1.65.49h4.8c.61 0 1.18-.19 1.65-.5l-3.64-3.64c-.24-.24-.62-.24-.85 0l-3.64 3.63Z"/></svg>