<svg viewBox="0 0 24 24" xmlns="http://www.w3.org/2000/svg"><path fill="currentColor" d="M9.5 9.5v4.01c.24-.04.5-.02.75.05v-.83c0-.97.78-1.75 1.75-1.75 .96 0 1.75.78 1.75 1.75v.82c.24-.08.5-.1.75-.06V9.47h-5ZM8 9.5v5H3.75c-.2 0-.39-.08-.54-.22 -.15-.15-.22-.34-.22-.54V9.49h5ZM9.5 8h5V3h-5v5ZM16 9.5v5h4.25c.41 0 .75-.34.75-.75V9.5h-5ZM21 8h-5V3h1.75C19.54 3 21 4.45 21 6.25V8ZM8 8H3V6.25C3 4.45 4.45 3 6.25 3H8v5ZM3.75 19.5c-.42 0-.75.33-.75.75 0 .41.33.75.75.75h16.5c.41 0 .75-.34.75-.75 0-.42-.34-.75-.75-.75H3.75Zm5.43-4.75c.27-.31.74-.34 1.05-.07l1 .89v-2.83c0-.42.33-.75.75-.75 .41 0 .75.33.75.75v2.82l1-.9c.3-.28.78-.25 1.05.06 .27.3.24.78-.07 1.05l-2.25 2c-.29.25-.72.25-1 0l-2.25-2c-.31-.28-.34-.75-.07-1.06Z"/></svg>