<svg viewBox="0 0 24 24" xmlns="http://www.w3.org/2000/svg"><path fill="currentColor" d="M21 17.75c0 1.79-1.46 3.25-3.25 3.25H6.25C4.45 21 3 19.54 3 17.75v-.25h6.64l1.19 1.05c.66.58 1.66.58 2.32 0l1.19-1.06h6.64v.25ZM8.44 14.08c.46-.53 1.17-.71 1.8-.52v-3.15c-.64.18-1.35 0-1.81-.52 -.49-.55-.57-1.3-.28-1.92H2.98v8h5.16c-.3-.62-.21-1.38.27-1.92Zm5.3-3.66v3.14c.63-.19 1.34-.01 1.8.51 .48.54.56 1.29.27 1.91h5.16v-8H15.8c.29.61.2 1.37-.28 1.91 -.47.52-1.18.7-1.81.51Zm.6-3.93h6.64v-.25c0-1.8-1.46-3.25-3.25-3.25H6.23c-1.8 0-3.25 1.45-3.25 3.25v.25h6.64l1.19-1.06c.66-.59 1.66-.59 2.32 0l1.19 1.05Zm-1.61 9.07V8.4l1 .89c.3.27.78.24 1.05-.07s.24-.79-.07-1.06l-2.25-2c-.29-.26-.72-.26-1 0l-2.25 2c-.31.27-.34.74-.07 1.05 .27.3.74.33 1.05.06l1-.9v7.15l-1.01-.9c-.31-.28-.79-.25-1.06.06 -.28.3-.25.78.06 1.05l2.24 2s0 0 .01.01c.12.1.28.17.45.17 .01 0 .03 0 .05 0 .18-.01.34-.08.47-.2l2.24-2c.3-.28.33-.75.06-1.06 -.28-.31-.75-.34-1.06-.07l-1.01.89Z"/></svg>