<svg viewBox="0 0 24 24" xmlns="http://www.w3.org/2000/svg"><path fill="currentColor" d="M8.78 1.21c-.3-.3-.77-.3-1.07 0 -.3.29-.3.76 0 1.06l.71.71H6.23c-1.8 0-3.25 1.45-3.25 3.25v2.18l-.72-.72c-.3-.3-.77-.3-1.07 0 -.3.29-.3.76 0 1.06l2 1.99c.29.29.76.29 1.06 0l2-2c.29-.3.29-.77 0-1.07 -.3-.3-.77-.3-1.07 0l-.72.71V6.19c0-.97.78-1.75 1.75-1.75h2.18l-.72.71c-.3.29-.3.76 0 1.06 .29.29.76.29 1.06 0l1.99-2c.29-.3.29-.77 0-1.07l-2-2Zm5.71 6.78h-5V6.96l1.98-1.99c.53-.54.65-1.34.34-1.99h2.66v5Zm-11.5 3.83v2.66h5v-5H6.96l-1.99 1.98c-.54.53-1.34.65-1.99.34Zm11.5 2.66v-5h-5v5h5Zm1.5 0v-5h5v5h-5Zm0-6.5h5V6.23c0-1.8-1.46-3.25-3.25-3.25h-1.75v5Zm-1.5 13v-5h-5v5h5Zm-6.5-5h-5v1.75c0 1.79 1.45 3.25 3.25 3.25h1.75v-5Zm8 0h5v1.75c0 1.79-1.46 3.25-3.25 3.25h-1.75v-5Z"/></svg>