<svg viewBox="0 0 24 24" xmlns="http://www.w3.org/2000/svg"><g fill="currentColor"><path d="M6.25 3H14v5.5H3V6.25C3 4.45 4.45 3 6.25 3Z"/><path d="M21 8.5h-5.5V3h2.25C19.54 3 21 4.45 21 6.25V8.5Z"/><path d="M10 14v-4h11v2.02c-1.02-.65-2.22-1.03-3.5-1.03 -2.31 0-4.33 1.19-5.48 3H9.99Z"/><path d="M11.31 15.5H2.99v2.25c0 1.79 1.45 3.25 3.25 3.25h5.77c-.65-1.02-1.03-2.22-1.03-3.5 0-.7.11-1.37.31-2Z"/><path d="M3 10h5.5v4H3v-4Z"/><path fill="currentColor" fill-rule="evenodd" d="M12 17.5c0 3.03 2.46 5.5 5.5 5.5 3.03 0 5.5-2.47 5.5-5.5 0-3.04-2.47-5.5-5.5-5.5 -3.04 0-5.5 2.46-5.5 5.5Zm3 3c0-.28.22-.5.5-.5h4c.27 0 .5.22.5.5 0 .27-.23.5-.5.5h-4c-.28 0-.5-.23-.5-.5Zm1.18-5.61c-.22-.18-.26-.49-.08-.71 .17-.22.48-.26.7-.08l2.5 2c.11.09.18.23.18.39 0 .15-.07.29-.19.39l-2.5 2c-.22.17-.54.13-.71-.08 -.18-.22-.14-.54.07-.71l2.01-1.61 -2.02-1.61Z"/></g></svg>