<svg viewBox="0 0 24 24" xmlns="http://www.w3.org/2000/svg"><path fill="currentColor" d="M3 6.25C3 4.45 4.45 3 6.25 3h11.5C19.54 3 21 4.45 21 6.25v.25H3v-.25ZM3 8v8h18V8H3Zm12.57 3.25l-.9-1.01c-.28-.31-.25-.79.06-1.06 .3-.28.78-.25 1.05.06l1.99 2.24c.11.12.18.29.19.47 0 .02 0 .04-.01.06 -.01.17-.08.33-.18.45l-.02.01 -2 2.25c-.28.3-.75.33-1.06.06 -.31-.28-.34-.75-.07-1.06l.89-1.01H8.35l.89 1c.27.3.24.78-.07 1.05s-.79.24-1.06-.07l-2-2.25c-.26-.29-.26-.72 0-1l2-2.25c.27-.31.74-.34 1.05-.07 .3.27.33.74.06 1.05l-.9 1h7.15Zm-12.58 6.5v-.25h18v.25c0 1.79-1.46 3.25-3.25 3.25H6.24c-1.8 0-3.25-1.46-3.25-3.25Z"/></svg>