<svg viewBox="0 0 24 24" xmlns="http://www.w3.org/2000/svg"><path fill="currentColor" d="M15.6 8.4h4.8V6.6c0-1.66-1.35-3-3-3h-1.8v4.8Zm-7.21 6V9.6h-4.8v4.8h4.79Zm6-4.21v-.6H9.58v4.8h3.6v-1.8c0-.99.47-1.86 1.2-2.41Zm-1.2 5.4H9.58v4.8h3.6v-4.8Zm-4.81 0h-4.8v1.8c0 1.65 1.34 3 3 3h1.79v-4.8Zm6-7.2v-4.8H9.57v4.8h4.8Zm-6.01-4.8v4.8h-4.8v-1.8c0-1.66 1.34-3 3-3h1.79Zm6 9c0-1 .8-1.8 1.8-1.8h4.8c.99 0 1.8.8 1.8 1.8v8.4c0 .99-.81 1.8-1.8 1.8h-4.8c-1 0-1.8-.81-1.8-1.8v-8.4Zm3 3h-1.2c-.34 0-.6.26-.6.6 0 .33.26.6.6.6h1.2c.33 0 .6-.27.6-.6 0-.34-.27-.6-.6-.6Zm4.2.6c0-.34-.27-.6-.6-.6h-1.2c-.34 0-.6.26-.6.6 0 .33.26.6.6.6h1.2c.33 0 .6-.27.6-.6Zm-4.2 1.8h-1.2c-.34 0-.6.26-.6.6 0 .33.26.6.6.6h1.2c.33 0 .6-.27.6-.6 0-.34-.27-.6-.6-.6Zm4.2.6c0-.34-.27-.6-.6-.6h-1.2c-.34 0-.6.26-.6.6 0 .33.26.6.6.6h1.2c.33 0 .6-.27.6-.6Zm-4.2 1.8h-1.2c-.34 0-.6.26-.6.6 0 .33.26.6.6.6h1.2c.33 0 .6-.27.6-.6 0-.34-.27-.6-.6-.6Zm4.2.6c0-.34-.27-.6-.6-.6h-1.2c-.34 0-.6.26-.6.6 0 .33.26.6.6.6h1.2c.33 0 .6-.27.6-.6Zm-5.4-9c-.34 0-.6.26-.6.6v1.2c0 .33.26.6.6.6h4.8c.33 0 .6-.27.6-.6v-1.2c0-.34-.27-.6-.6-.6h-4.8Z"/></svg>