<svg viewBox="0 0 24 24" xmlns="http://www.w3.org/2000/svg"><g fill="currentColor"><path d="M22.14 3.3c-.33-.55-.67-.93-.92-1.13 -.32-.27-.8-.23-1.06.09 -.27.31-.23.79.09 1.05 .12.1.35.35.58.74 .4.66.64 1.47.64 2.42s-.25 1.75-.65 2.42c-.24.39-.47.64-.59.74 -.32.26-.37.73-.1 1.05 .26.31.73.36 1.05.09 .24-.21.58-.59.91-1.13 .53-.9.85-1.97.85-3.2 0-1.24-.33-2.31-.86-3.2Z"/><path d="M19.87 4.39c-.24-.36-.49-.61-.68-.75 -.34-.25-.81-.19-1.05.15 -.25.33-.19.8.15 1.05 .06.04.19.17.32.37 .23.35.37.77.37 1.27s-.14.92-.38 1.27c-.14.2-.27.33-.33.37l-.09.07c-.26.25-.3.67-.07.97 .24.33.71.39 1.05.15 .18-.15.43-.39.67-.75 .39-.59.62-1.3.62-2.11 0-.82-.24-1.52-.63-2.11Z"/><path d="M17 3.75c0-.32-.2-.6-.49-.71 -.3-.11-.63-.03-.83.2l-1.53 1.74h-1.41c-.42 0-.75.33-.75.75v1.5c0 .41.33.75.75.75h1.4l1.52 1.74c.2.23.53.31.82.2 .29-.11.48-.39.48-.71v-5.5Z"/><path d="M12 3.99l1.53-.01H4.24c-1.25 0-2.25 1-2.25 2.25v11.5c0 1.24 1 2.25 2.25 2.25h15.49c1.24 0 2.25-1.01 2.25-2.25v-6.28c-.05.04-.09.07-.13.11 -.75.61-1.85.51-2.47-.23 -.22-.27-.35-.58-.4-.9 -.43.06-.88-.04-1.24-.28 -.55.95-1.95 1.24-2.81.33l-1.44-1.54h-1.54c-.56 0-1-.45-1-1v-3c0-.56.44-1 1-1Zm-1.75 11.5h3.5c.41 0 .75.33.75.75 0 .41-.34.75-.75.75h-3.5c-.42 0-.75-.34-.75-.75 0-.42.33-.75.75-.75Z"/></g></svg>