<svg viewBox="0 0 24 24" xmlns="http://www.w3.org/2000/svg"><path fill="currentColor" d="M20.25 4.5c.41 0 .75-.34.75-.75 0-.42-.34-.75-.75-.75H3.75c-.42 0-.75.33-.75.75 0 .41.33.75.75.75h16.5Zm.53 5.21c.14.14.21.33.21.53v4.25h-5v-5h4.25c.19 0 .38.07.53.21Zm-6.29 4.78v-4.02c-.25.03-.51.01-.75-.06v.82c0 .96-.79 1.75-1.75 1.75 -.97 0-1.75-.79-1.75-1.75v-.83c-.25.07-.51.09-.75.05v4.01h5Zm-5 1.5h5v5h-5v-5Zm-1.5-1.5v-5H3.74c-.42 0-.75.33-.75.75v4.25h5Zm-5 1.5h5v5H6.24c-1.8 0-3.25-1.46-3.25-3.25v-1.75Zm13 0h5v1.75c0 1.79-1.46 3.25-3.25 3.25h-1.75v-5ZM14.8 9.23c-.28.3-.75.33-1.06.06l-1.01-.9v2.82c0 .41-.34.75-.75.75 -.42 0-.75-.34-.75-.75V8.38l-1.01.89c-.31.27-.79.24-1.06-.07 -.28-.31-.25-.79.06-1.06l2.24-2c.28-.26.71-.26.99 0l2.25 2c.3.27.33.74.06 1.05Z"/></svg>