<svg viewBox="0 0 24 24" xmlns="http://www.w3.org/2000/svg"><path fill="currentColor" d="M9.5 21h5v-1h-1.01c-1.1 0-1.83-1.15-1.36-2.14l.87-1.87H9.48v5ZM21 9.5V11h-4.69c-.11 0-.22.01-.32.03V9.49h5Zm-6.5 0v3.34l-.78 1.65H9.49v-5h5ZM21 8V6.25C21 4.45 19.54 3 17.75 3H16v5h5Zm-6.5-5h-5v5h5V3ZM8 3H6.25C4.45 3 3 4.45 3 6.25V8h5V3ZM3 9.5v5h5v-5H3ZM3 16v1.75C3 19.54 4.45 21 6.25 21H8v-5H3Zm13.31-4h4.82c.38 0 .62.41.43.74l-1.84 3.25h1.49c.64 0 .98.75.56 1.24l-4.83 5.5c-.51.57-1.45.08-1.26-.66l.77-3.1h-3.01c-.37 0-.61-.39-.46-.72l2.82-6c.08-.18.25-.29.45-.29Z"/></svg>