<svg viewBox="0 0 24 24" xmlns="http://www.w3.org/2000/svg"><path fill="currentColor" d="M14 3H6.25C4.45 3 3 4.45 3 6.25V8.5h11V3Zm1.5 5.5H21V6.25C21 4.45 19.54 3 17.75 3H15.5v5.5ZM10 10v4h2.02c1.15-1.81 3.17-3 5.47-3 1.28 0 2.48.37 3.5 1.02V9.99h-11Zm-7 5.5h8.31c-.21.63-.32 1.3-.32 2 0 1.28.37 2.48 1.02 3.5H6.23c-1.8 0-3.25-1.46-3.25-3.25V15.5ZM8.5 10H3v4h5.5v-4Zm9 13c3.03 0 5.5-2.47 5.5-5.5 0-3.04-2.47-5.5-5.5-5.5 -3.04 0-5.5 2.46-5.5 5.5 0 3.03 2.46 5.5 5.5 5.5Zm-2-3h4c.27 0 .5.22.5.5 0 .27-.23.5-.5.5h-4c-.28 0-.5-.23-.5-.5 0-.28.22-.5.5-.5Zm3.39-5.82c.17.21.13.53-.08.7l-2.02 1.6 2.01 1.6c.21.17.25.48.07.7 -.18.21-.49.25-.71.07l-2.5-2c-.12-.1-.19-.24-.19-.4 0-.16.06-.3.18-.4l2.5-2c.21-.18.53-.14.7.07Z"/></svg>