<svg viewBox="0 0 24 24" xmlns="http://www.w3.org/2000/svg"><path fill="currentColor" d="M9.5 21h2.06c-.37-.67-.57-1.44-.57-2.25 0-1.03.32-1.98.87-2.75H9.48v5ZM21 9.5v4.83c-.55-.22-1.14-.34-1.75-.34H16v-4.5h5Zm-6.5 0v4.66c-.31.08-.6.19-.88.33H9.49v-5h5ZM21 8V6.25C21 4.45 19.54 3 17.75 3H16v5h5Zm-6.5-5h-5v5h5V3ZM8 3H6.25C4.45 3 3 4.45 3 6.25V8h5V3ZM3 9.5v5h5v-5H3ZM3 16v1.75C3 19.54 4.45 21 6.25 21H8v-5H3Zm16.25-1c2.07 0 3.75 1.67 3.75 3.75 0 2-1.58 3.64-3.55 3.74l-.2 0v0c-.42 0-.76-.34-.76-.75 -.01-.38.27-.7.64-.75l.1-.01 0-.01c1.24 0 2.25-1.01 2.25-2.25 0-1.2-.93-2.17-2.096-2.25l-.16-.01c-.42 0-.75-.34-.75-.75 0-.38.28-.7.64-.75l.1-.01Zm-3.5 0c.41 0 .75.33.75.75 0 .37-.29.69-.65.74l-.11 0c-1.25 0-2.25 1-2.25 2.25 0 1.19.92 2.16 2.096 2.24l.15 0c.41 0 .75.33.75.75 0 .37-.29.69-.65.74l-.11 0c-2.08 0-3.75-1.68-3.75-3.75 0-2.01 1.57-3.65 3.55-3.75l.19-.01Zm3.5 3c.41 0 .75.33.75.75 0 .37-.29.69-.65.74l-.11 0h-3.5c-.42 0-.75-.34-.75-.75 0-.38.28-.7.64-.75l.1-.01h3.5Z"/></svg>