<svg viewBox="0 0 24 24" xmlns="http://www.w3.org/2000/svg"><path fill="currentColor" d="M21.99 17.24c0-.42-.34-.75-.75-.75l-4.75-.01v1.5l4.74 0 .1-.01c.36-.05.64-.37.64-.75ZM4.24 10.99c-1.25 0-2.25 1-2.25 2.25v5.5c0 1.24 1 2.25 2.25 2.25h9c1.24 0 2.25-1.01 2.25-2.25v-5.5c0-1.25-1.01-2.25-2.25-2.25h-9Zm2.75 6.75c0-.42.33-.75.75-.75h2.5c.41 0 .75.33.75.75 0 .41-.34.75-.75.75h-2.5c-.42 0-.75-.34-.75-.75Zm9.49-1.75h1.75c.96 0 1.75-.79 1.75-1.75V6.73c0-.97-.79-1.75-1.75-1.75H5.73c-.97 0-1.75.78-1.75 1.75v3.28c.16-.03.33-.04.49-.04h9c1.65 0 3 1.34 3 2.99l-.01 3Z"/></svg>