<svg viewBox="0 0 24 24" xmlns="http://www.w3.org/2000/svg"><path fill="currentColor" d="M9.5 21H13v-4.5c0-.18.01-.34.05-.5H9.5v5ZM21 9.5v2.05c-.64-.65-1.53-1.06-2.5-1.06 -.98 0-1.87.4-2.5 1.05V9.48h5Zm-6.5 0v4.7c-.18.07-.35.17-.51.29h-4.5v-5h5ZM21 8V6.25C21 4.45 19.54 3 17.75 3H16v5h5Zm-6.5-5h-5v5h5V3ZM8 3H6.25C4.45 3 3 4.45 3 6.25V8h5V3ZM3 9.5v5h5v-5H3ZM3 16v1.75C3 19.54 4.45 21 6.25 21H8v-5H3Zm12.5-1c-.83 0-1.5.67-1.5 1.5v5c0 .82.67 1.5 1.5 1.5h6c.82 0 1.5-.68 1.5-1.5v-5c0-.83-.68-1.5-1.5-1.5H21v-1c0-1.39-1.12-2.5-2.5-2.5 -1.39 0-2.5 1.11-2.5 2.5v1h-.5Zm2-1c0-.56.44-1 1-1 .55 0 1 .44 1 1v1h-2v-1Zm2 5c0 .55-.45 1-1 1 -.56 0-1-.45-1-1 0-.56.44-1 1-1 .55 0 1 .44 1 1Z"/></svg>