<svg viewBox="0 0 24 24" xmlns="http://www.w3.org/2000/svg"><path fill="currentColor" d="M9.59 7.19h4.8v-4.8h-4.8v4.8Zm-1.2-4.8h-4.2c-.34 0-.6.26-.6.6v1.8c0 1.32 1.07 2.4 2.4 2.4h2.4v-4.8Zm7.2 4.8h2.4c1.32 0 2.4-1.08 2.4-2.4v-1.8c0-.34-.27-.6-.6-.6h-4.2v4.8Zm4.8 13.8c0 .33-.27.6-.6.6h-4.2v-4.8h2.4c1.32 0 2.4 1.07 2.4 2.4v1.8Zm-6-4.2v4.8h-4.8v-4.8h4.8Zm-10.2 4.8h4.2v-4.8h-2.4c-1.33 0-2.4 1.07-2.4 2.4v1.8c0 .33.26.6.6.6Zm-1.2-10.2h18c.33 0 .6.27.6.6 -.01.32-.28.59-.6.59H2.98c-.34 0-.6-.27-.6-.6 0-.34.26-.6.6-.6Z"/></svg>