<svg viewBox="0 0 24 24" xmlns="http://www.w3.org/2000/svg"><path fill="currentColor" d="M14 3H6.25C4.45 3 3 4.45 3 6.25V8.5h11V3Zm1.5 5.5H21V6.25C21 4.45 19.54 3 17.75 3H15.5v5.5ZM10 10v4h2.02c1.15-1.81 3.17-3 5.47-3 1.28 0 2.48.37 3.5 1.02V9.99h-11Zm-7 5.5h8.31c-.21.63-.32 1.3-.32 2 0 1.28.37 2.48 1.02 3.5H6.23c-1.8 0-3.25-1.46-3.25-3.25V15.5ZM8.5 10H3v4h5.5v-4ZM23 17.5c0-3.04-2.47-5.5-5.5-5.5 -3.04 0-5.5 2.46-5.5 5.5 0 3.03 2.46 5.5 5.5 5.5 3.03 0 5.5-2.47 5.5-5.5Zm-5 .5l0 2.5c0 .27-.23.5-.5.5 -.28 0-.5-.23-.5-.5l-.01-2.51h-2.51c-.28 0-.5-.23-.5-.5 0-.28.22-.5.49-.5h2.5l-.01-2.51c0-.28.22-.5.5-.5 .27 0 .5.22.5.5l0 2.5h2.49c.27 0 .49.22.49.5 0 .27-.23.5-.5.5h-2.5Z"/></svg>