<svg viewBox="0 0 24 24" xmlns="http://www.w3.org/2000/svg"><path fill="currentColor" d="M14 3H6.25C4.45 3 3 4.45 3 6.25V8.5h11V3Zm1.5 5.5H21V6.25C21 4.45 19.54 3 17.75 3H15.5v5.5ZM10 10v4h2.02c1.15-1.81 3.17-3 5.47-3 1.28 0 2.48.37 3.5 1.02V9.99h-11Zm-7 5.5h8.31c-.21.63-.32 1.3-.32 2 0 1.28.37 2.48 1.02 3.5H6.23c-1.8 0-3.25-1.46-3.25-3.25V15.5ZM8.5 10H3v4h5.5v-4Zm5.77 3.97c.31 1.09-.34 2.22-1.45 2.49l-.59.14c-.05.28-.07.58-.07.88 0 .31.02.62.07.92l.53.12c1.11.26 1.77 1.41 1.45 2.51l-.19.63c.43.38.93.69 1.48.92l.49-.52c.78-.83 2.11-.83 2.89 0l.49.52c.54-.23 1.04-.54 1.48-.92l-.2-.69c-.32-1.1.33-2.23 1.44-2.5l.58-.15c.04-.29.06-.59.06-.89 0-.32-.03-.63-.08-.93l-.54-.13c-1.12-.27-1.78-1.42-1.45-2.52l.18-.64c-.44-.39-.94-.7-1.49-.93l-.5.51c-.79.82-2.12.82-2.9-.01l-.5-.53c-.55.22-1.05.53-1.49.91l.19.68Zm3.22 5.02c-.81 0-1.45-.68-1.45-1.5 0-.83.64-1.5 1.44-1.5 .8 0 1.44.67 1.44 1.5 0 .82-.65 1.5-1.45 1.5Z"/></svg>