<svg viewBox="0 0 24 24" xmlns="http://www.w3.org/2000/svg"><path fill="currentColor" d="M17.75 3C19.54 3 21 4.45 21 6.25v11.5c0 1.79-1.46 3.25-3.25 3.25h-.25v-6.65l1.05-1.2c.58-.67.58-1.67 0-2.33l-1.06-1.2V2.97h.25Zm-3.67 12.558c-.53-.47-.71-1.18-.52-1.81h-3.15c.18.63 0 1.34-.52 1.8 -.55.48-1.3.56-1.92.27v5.16h8V15.8c-.62.29-1.38.2-1.92-.28Zm0-7.12c.54-.49 1.29-.57 1.91-.28V2.98h-8v5.16c.61-.3 1.37-.21 1.91.27 .52.46.7 1.17.51 1.8h3.14c-.19-.64-.01-1.35.51-1.81Zm-7.59 1.2V2.98h-.25c-1.8 0-3.25 1.45-3.25 3.25v11.5c0 1.79 1.45 3.25 3.25 3.25h.25v-6.65l-1.06-1.2c-.59-.67-.59-1.67 0-2.33l1.05-1.2Zm9.07 1.6H8.4l.89-1.01c.27-.31.24-.79-.07-1.06 -.31-.28-.79-.25-1.06.06l-2 2.24c-.26.28-.26.71 0 .99l2 2.25c.27.3.74.33 1.05.06 .3-.28.33-.75.06-1.06l-.9-1.01h7.15l-.9 1c-.28.3-.25.78.06 1.05 .3.27.78.24 1.05-.07l2-2.25c0-.01 0-.01.01-.02 .1-.13.17-.29.17-.46 0-.03 0-.05 0-.07 -.01-.19-.08-.35-.2-.48l-2-2.25c-.28-.31-.75-.34-1.06-.07 -.31.27-.34.74-.07 1.05l.89 1Z"/></svg>