<svg viewBox="0 0 24 24" xmlns="http://www.w3.org/2000/svg"><path fill="currentColor" d="M22 3.75V8h-5V6.25C17 4.45 18.45 3 20.25 3h1c.41 0 .75.33.75.75Zm0 5.75v5h-5v-5h5ZM21.25 21c.41 0 .75-.34.75-.75V16h-5v1.75c0 1.79 1.45 3.25 3.25 3.25h1ZM2 20.25c0 .41.33.75.75.75h1C5.54 21 7 19.54 7 17.75V16H2v4.25ZM2 9.5v5h5v-5H2Zm0-5.75V8h5V6.25C7 4.45 5.54 3 3.75 3h-1c-.42 0-.75.33-.75.75Zm9.25 11.77v5.72c0 .41.33.75.75.75 .41 0 .75-.34.75-.75v-5.73c-.03-.03-.06-.05-.08-.08l-.68-.68 -.68.67c-.03.02-.05.04-.08.07Zm0-6.8c.02.02.05.04.07.07l.67.67 .67-.68c.02-.03.05-.05.07-.08V2.72c0-.42-.34-.75-.75-.75 -.42 0-.75.33-.75.75v5.97Zm-1.79 5.8c-.3-.3-.3-.77 0-1.07l1.46-1.47 -1.47-1.47c-.3-.3-.3-.77 0-1.07 .29-.3.76-.3 1.06 0l1.46 1.46 1.46-1.47c.29-.3.76-.3 1.06 0 .29.29.29.76 0 1.06l-1.47 1.46 1.46 1.46c.29.29.29.76 0 1.06 -.3.29-.77.29-1.07 0L11.94 13l-1.47 1.46c-.3.29-.77.29-1.07 0Z"/></svg>