<svg viewBox="0 0 24 24" xmlns="http://www.w3.org/2000/svg"><path fill="currentColor" d="M20.4 16.2c0 2.31-1.89 4.2-4.2 4.2H6.8c.92.75 2.1 1.2 3.39 1.2h6c2.98 0 5.4-2.42 5.4-5.4v-6c0-1.29-.45-2.47-1.2-3.4v9.39ZM5.39 19.19h1.8v-4.8h-4.8v1.8c0 1.65 1.34 3 3 3Zm1.8-10.8v4.8h-4.8v-4.8h4.8Zm5.99 4.8h-4.8v-4.8h4.79v4.8Zm-4.8 1.2h4.79v4.8h-4.8v-4.8Zm5.99-6v4.8h4.8v-4.8h-4.8Zm0 6h4.8v1.8c0 1.65-1.35 3-3 3h-1.8v-4.8Zm-12-7.2h4.8v-4.8h-1.8c-1.66 0-3.01 1.34-3.01 3v1.8Zm6 0v-4.8h4.79v4.8h-4.8Zm5.99 0v-4.8h1.8c1.65 0 3 1.34 3 3v1.8h-4.8Z"/></svg>