<svg viewBox="0 0 24 24" xmlns="http://www.w3.org/2000/svg"><path fill="currentColor" d="M3.6 16.2c0 2.31 1.88 4.2 4.19 4.2h9.39c-.93.75-2.11 1.2-3.4 1.2h-6c-2.99 0-5.4-2.42-5.4-5.4v-6c0-1.29.44-2.47 1.2-3.4v9.39Zm14.99 2.99h-1.8v-4.8h4.8v1.8c0 1.65-1.35 3-3 3Zm-1.8-10.8v4.8h4.8v-4.8h-4.8Zm-6 4.8h4.8v-4.8h-4.8v4.8Zm4.8 1.2h-4.8v4.8h4.8v-4.8Zm-6-6v4.8h-4.8v-4.8h4.8Zm0 6h-4.8v1.8c0 1.65 1.34 3 3 3h1.8v-4.8Zm11.99-7.2h-4.8v-4.8h1.8c1.65 0 3 1.34 3 3v1.8Zm-6 0v-4.8h-4.8v4.8h4.8Zm-6 0v-4.8h-1.8c-1.66 0-3 1.34-3 3v1.8h4.8Z"/></svg>