<svg viewBox="0 0 24 24" xmlns="http://www.w3.org/2000/svg"><path fill="currentColor" d="M3.75 2H8v5H6.25C4.45 7 3 5.54 3 3.75v-1c0-.42.33-.75.75-.75ZM9.5 2h5v5h-5V2Zm11.5.75c0-.42-.34-.75-.75-.75H16v5h1.75C19.54 7 21 5.54 21 3.75v-1ZM20.25 22c.41 0 .75-.34.75-.75v-1c0-1.8-1.46-3.25-3.25-3.25H16v5h4.25ZM9.5 22h5v-5h-5v5Zm-5.75 0H8v-5H6.25C4.45 17 3 18.45 3 20.25v1c0 .41.33.75.75.75Zm11.77-9.25h5.72c.41 0 .75-.34.75-.75 0-.42-.34-.75-.75-.75h-5.73c-.03.02-.05.05-.08.07l-.68.67 .67.67c.02.02.04.05.07.07Zm-6.8 0c.02-.03.04-.06.07-.08l.67-.68 -.68-.68c-.03-.03-.05-.05-.08-.08H2.72c-.42 0-.75.33-.75.75 0 .41.33.75.75.75h5.97Zm5.8 1.78c-.3.29-.77.29-1.07 0l-1.47-1.47 -1.47 1.46c-.3.29-.77.29-1.07 0 -.3-.3-.3-.77 0-1.07l1.46-1.47 -1.47-1.47c-.3-.3-.3-.77 0-1.07 .29-.3.76-.3 1.06 0l1.46 1.46 1.46-1.47c.29-.3.76-.3 1.06 0 .29.29.29.76 0 1.06L13 11.95l1.46 1.46c.29.29.29.76 0 1.06Z"/></svg>