<svg viewBox="0 0 24 24" xmlns="http://www.w3.org/2000/svg"><g fill="currentColor"><path d="M8.39 3.59v4.8h-4.8v-1.8c0-1.66 1.34-3 3-3h1.8Zm6 6H9.58v4.8h4.8V9.58Zm1.2 6h4.8v1.8c0 1.65-1.35 3-3 3h-1.8v-4.8ZM9.58 4.78h7.8c.99-.001 1.8.8 1.8 1.8v7.8h1.2V6.57c0-1.66-1.35-3-3-3H9.57v1.2Zm-3 14.4h7.8v1.2H6.57c-1.66 0-3-1.35-3-3V9.57h1.2v7.8c0 .99.8 1.8 1.8 1.8Z"/><path fill="currentColor" fill-rule="evenodd" d="M6.59 3.74c-1.58 0-2.85 1.27-2.85 2.85v1.65h4.5v-4.5H6.59ZM3.44 6.59c0-1.74 1.41-3.15 3.15-3.15h1.95v5.1h-5.1V6.59Zm6-3.15h7.95c1.73 0 3.14 1.41 3.14 3.15v7.95h-1.5V6.58c0-.92-.74-1.65-1.65-1.65H9.42v-1.5Zm.3.3v.9h7.65c1.07 0 1.94.87 1.94 1.95v7.65h.9V6.58c0-1.58-1.28-2.85-2.85-2.85H9.72Zm-6.3 5.7h1.5v7.95c0 .91.73 1.64 1.65 1.64h7.95v1.5H6.58c-1.74 0-3.15-1.42-3.15-3.15V9.42Zm.3.3v7.65c0 1.57 1.27 2.85 2.85 2.85h7.65v-.91H6.58c-1.08 0-1.95-.88-1.95-1.95V9.72h-.9Zm5.7-.3h5.1v5.1H9.43V9.43Zm.3.3v4.5h4.5V9.73H9.73Zm5.7 5.7h5.09v1.95c0 1.73-1.42 3.14-3.15 3.14h-1.95v-5.1Zm.3.3v4.5h1.65c1.57 0 2.85-1.28 2.85-2.85v-1.65h-4.5Z"/></g></svg>