<svg viewBox="0 0 24 24" xmlns="http://www.w3.org/2000/svg"><path fill="currentColor" d="M9.5 21h2.52c-.65-1.02-1.03-2.22-1.03-3.5 0-.52.06-1.02.17-1.5H9.48v5ZM21 9.5v2.52c-1.02-.65-2.22-1.03-3.5-1.03 -.52 0-1.02.06-1.5.17V9.48h5Zm-6.5 0v2.23c-1.19.61-2.16 1.58-2.77 2.76H9.49v-5h5ZM21 8V6.25C21 4.45 19.54 3 17.75 3H16v5h5Zm-6.5-5h-5v5h5V3ZM8 3H6.25C4.45 3 3 4.45 3 6.25V8h5V3ZM3 9.5v5h5v-5H3ZM3 16v1.75C3 19.54 4.45 21 6.25 21H8v-5H3Zm20 1.5c0-3.04-2.47-5.5-5.5-5.5 -3.04 0-5.5 2.46-5.5 5.5 0 3.03 2.46 5.5 5.5 5.5 3.03 0 5.5-2.47 5.5-5.5Zm-5 .5l0 2.5c0 .27-.23.5-.5.5 -.28 0-.5-.23-.5-.5l-.01-2.51h-2.51c-.28 0-.5-.23-.5-.5 0-.28.22-.5.5-.5h2.5l-.01-2.51c0-.28.22-.5.5-.5 .27 0 .5.22.5.5l0 2.5h2.5c.27 0 .5.22.5.5 0 .27-.23.5-.5.5h-2.51Z"/></svg>