<svg viewBox="0 0 24 24" xmlns="http://www.w3.org/2000/svg"><path fill="currentColor" d="M12.49 19.81c.11-.48.36-.91.7-1.25l5.9-5.91c.27-.28.6-.47.96-.58 .01-.01.03-.02.05-.02 .12-.04.24-.06.37-.07 .65-.07 1.33.15 1.84.65 .89.89.89 2.33 0 3.23l-5.91 5.9c-.35.34-.78.58-1.25.7l-1.84.45c-.8.19-1.52-.53-1.32-1.32l.45-1.84Zm-3 1.18h1.66l.35-1.43c.16-.65.49-1.24.96-1.72l1.86-1.87H9.46v4.99Zm6.49-11.5v4.85l2.39-2.4c.71-.72 1.67-1.04 2.6-.96V9.46h-5Zm4.99-1.5V6.24c0-1.8-1.46-3.25-3.25-3.25h-1.75v4.99h4.99Zm-6.5-5h-5v4.99h4.99v-5Zm-6.5 0H6.22c-1.8 0-3.25 1.45-3.25 3.24v1.74h4.99v-5Zm-5 6.49v4.99h4.99v-5h-5Zm0 6.49v1.74c0 1.79 1.45 3.24 3.24 3.24h1.74v-5h-5Zm11.499-6.5v4.99h-5v-5h4.99Z"/></svg>