<svg viewBox="0 0 24 24" xmlns="http://www.w3.org/2000/svg"><g fill="currentColor"><path d="M15.6 20.4h1.8c1.65 0 3-1.35 3-3v-1.8h-4.8v4.8Z"/><path d="M15.6 14.4V9.6h4.8v4.8h-4.8Z"/><path d="M14.4 14.4h-3.91c-.21-.59-.52-1.13-.9-1.6V9.59h4.8v4.8Z"/><path d="M10.27 18.52l1.87 1.87h2.25v-4.8h-3.64c.02.19.03.39.03.6 0 .83-.19 1.62-.53 2.32Z"/><path d="M5.39 10.8c1.11 0 2.14.33 3 .9V9.59h-4.8v1.5c.56-.2 1.16-.31 1.8-.31Z"/><path d="M15.6 8.4h4.8V6.6c0-1.66-1.35-3-3-3h-1.8v4.8Z"/><path d="M14.4 3.6v4.8H9.59V3.6h4.8Z"/><path d="M8.39 3.6v4.8h-4.8V6.6c0-1.66 1.34-3 3-3h1.8Z"/><path d="M5.39 20.4c.94 0 1.81-.32 2.51-.84l3.06 3.06c.23.23.61.23.84 0 .23-.24.23-.62 0-.85L8.73 18.7c.52-.71.83-1.58.83-2.52 0-2.32-1.89-4.2-4.2-4.2 -2.32 0-4.2 1.88-4.2 4.2 0 2.31 1.88 4.2 4.2 4.2Zm0-1.2c-1.66 0-3-1.35-3-3 0-1.66 1.34-3 3-3 1.65 0 3 1.34 3 3 0 1.65-1.35 3-3 3Z"/></g></svg>