<svg viewBox="0 0 24 24" xmlns="http://www.w3.org/2000/svg"><path fill="currentColor" d="M12.02 21H9.49v-5h1.67c-.12.48-.18.98-.18 1.5 0 1.28.37 2.48 1.02 3.5Zm8.97-8.98V9.49h-5v1.67c.48-.12.98-.18 1.5-.18 1.28 0 2.48.37 3.5 1.02Zm-6.5-.29V9.49h-5v5h2.23c.61-1.19 1.58-2.16 2.76-2.77Zm6.5-5.49v1.75h-5v-5h1.75c1.79 0 3.25 1.45 3.25 3.25ZM9.49 2.99h5v5h-5v-5Zm-3.25 0h1.75v5h-5V6.24c0-1.8 1.45-3.25 3.25-3.25Zm-3.25 11.5v-5h5v5h-5Zm0 3.25v-1.75h5v5H6.24c-1.8 0-3.25-1.46-3.25-3.25Zm20-.25c0-3.04-2.47-5.5-5.5-5.5 -3.04 0-5.5 2.46-5.5 5.5 0 3.03 2.46 5.5 5.5 5.5 3.03 0 5.5-2.47 5.5-5.5Zm-5.573-3.5l.08-.01c.02 0 .04 0 .06 0l.05.01 .06.02 .06.03 .04.03 2.54 2.54 .05.06c.13.19.11.46-.06.63 -.18.17-.45.19-.64.05l-.07-.06 -1.65-1.65 0 5.29 -.01.08c-.04.2-.2.36-.41.4l-.09 0 -.09-.01c-.21-.04-.37-.2-.41-.41l-.01-.09 -.01-5.3 -1.65 1.64 -.07.05c-.18.11-.4.11-.57 0l-.07-.06 -.06-.07c-.12-.18-.12-.4 0-.57l.05-.07L17.04 14l.05-.05 .07-.05 .08-.04 .05-.02Z"/></svg>