<svg viewBox="0 0 24 24" xmlns="http://www.w3.org/2000/svg"><path fill="currentColor" d="M9.5 21h2.52c-.65-1.02-1.03-2.22-1.03-3.5 0-.52.06-1.02.17-1.5H9.48v5ZM21 9.5v2.52c-1.02-.65-2.22-1.03-3.5-1.03 -.52 0-1.02.06-1.5.17V9.48h5Zm-6.5 0v2.23c-1.19.61-2.16 1.58-2.77 2.76H9.49v-5h5ZM21 8V6.25C21 4.45 19.54 3 17.75 3H16v5h5Zm-6.5-5h-5v5h5V3ZM8 3H6.25C4.45 3 3 4.45 3 6.25V8h5V3ZM3 9.5v5h5v-5H3ZM3 16v1.75C3 19.54 4.45 21 6.25 21H8v-5H3Zm11.27-2.03c.31 1.09-.34 2.22-1.45 2.49l-.59.14c-.05.28-.07.58-.07.88 0 .31.02.62.07.92l.53.13c1.11.26 1.77 1.41 1.45 2.51l-.19.63c.43.38.93.69 1.48.92l.49-.52c.78-.83 2.11-.83 2.89 0l.49.52c.54-.23 1.04-.54 1.48-.92l-.2-.69c-.32-1.1.33-2.23 1.44-2.5l.58-.15c.04-.29.06-.59.06-.89 0-.32-.03-.63-.08-.93l-.54-.13c-1.12-.27-1.78-1.42-1.45-2.52l.18-.64c-.44-.39-.94-.7-1.49-.93l-.5.51c-.79.82-2.12.82-2.9-.01l-.5-.53c-.55.22-1.05.53-1.49.91l.19.68Zm3.22 5.02c-.81 0-1.45-.68-1.45-1.5 0-.83.64-1.5 1.44-1.5 .8 0 1.44.67 1.44 1.5 0 .82-.65 1.5-1.45 1.5Z"/></svg>