<svg viewBox="0 0 24 24" xmlns="http://www.w3.org/2000/svg"><g fill="currentColor"><path d="M5.25 6.5C4 6.5 3 7.5 3 8.75v4.5c0 1.24 1 2.25 2.25 2.25H8v-9H5.25Z"/><path d="M12.48 14.86c-.2.19-.37.4-.51.63H9.48v-9h5v6.35l-2.02 2.01Z"/><path d="M20.71 8c.05 0 .1 0 .15 0 -.31-.88-1.15-1.51-2.13-1.51h-2.75v4.85l2.39-2.4c.64-.65 1.48-.97 2.32-.97h0Z"/><path d="M20.71 9h-.01c-.59 0-1.17.22-1.62.66l-5.91 5.9c-.35.34-.59.77-.71 1.24L12 18.63c-.2.79.52 1.51 1.31 1.31l1.83-.46c.47-.12.9-.37 1.24-.71l5.9-5.91c.89-.9.89-2.34 0-3.24 -.45-.45-1.04-.67-1.62-.67Z"/></g></svg>