<svg viewBox="0 0 24 24" xmlns="http://www.w3.org/2000/svg"><path fill="currentColor" d="M16 21h1.75c1.79 0 3.25-1.46 3.25-3.25V16h-5v5Zm0-6.5h5v-5h-5v5Zm-5.52-5h4.01v5h-4.02c.03-.25.01-.51-.06-.75h.82c.96 0 1.75-.79 1.75-1.75 0-.97-.79-1.75-1.75-1.75h-.83c.07-.25.09-.51.05-.75ZM15.99 8h5V6.25c0-1.8-1.46-3.25-3.25-3.25h-1.75v5Zm-1.5-5v5h-5V3.75c0-.2.07-.39.21-.54 .14-.15.33-.22.53-.22h4.25Zm0 13v5h-4.25c-.42 0-.75-.34-.75-.75V16h5Zm-10-12.25c0-.42-.34-.75-.75-.75 -.42 0-.75.33-.75.75v16.5c0 .41.33.75.75.75 .41 0 .75-.34.75-.75V3.75Zm4.74 5.43c.3.27.33.74.06 1.05l-.9 1h2.82c.41 0 .75.33.75.75 0 .41-.34.75-.75.75H8.38l.89 1c.27.3.24.78-.07 1.05s-.79.24-1.06-.07l-2-2.25c-.26-.29-.26-.72 0-1l2-2.25c.27-.31.74-.34 1.05-.07Z"/></svg>