<svg viewBox="0 0 24 24" xmlns="http://www.w3.org/2000/svg"><path fill="currentColor" d="M19.74 2c1.24 0 2.25 1 2.25 2.25v5.46c0 .86-.35 1.68-.96 2.29l-.42.41c-.58-1.15-1.77-1.93-3.13-1.93 -1.94 0-3.5 1.56-3.5 3.5v.05c-1.15.23-2 1.24-2 2.45v4.45c-1.26.8-2.95.65-4.05-.44l-4.47-4.46c-1.28-1.27-1.28-3.33-.01-4.596l8.49-8.51c.6-.62 1.43-.96 2.29-.96h5.46Zm-2.75 3.5c-.83 0-1.5.67-1.5 1.49s.67 1.49 1.5 1.49c.82 0 1.5-.68 1.5-1.5 0-.83-.68-1.5-1.5-1.5Zm-2 9.49h-.5c-.83 0-1.5.67-1.5 1.5v5c0 .82.67 1.5 1.5 1.5h6c.82 0 1.5-.68 1.5-1.5v-5c0-.83-.68-1.5-1.5-1.5h-.5v-1c0-1.39-1.12-2.5-2.5-2.5 -1.39 0-2.5 1.11-2.5 2.5v1Zm1.5-1c0-.56.44-1 1-1 .55 0 1 .44 1 1v1h-2v-1Zm2 5c0 .55-.45 1-1 1 -.56 0-1-.45-1-1 0-.56.44-1 1-1 .55 0 1 .44 1 1Z"/></svg>