<svg viewBox="0 0 24 24" xmlns="http://www.w3.org/2000/svg"><path fill="currentColor" d="M19.74 2c1.24 0 2.25 1 2.25 2.25v5.46c0 .86-.35 1.68-.96 2.29l-.03.02c-1.02-.66-2.23-1.04-3.53-1.04 -3.59 0-6.5 2.91-6.5 6.5 0 1.27.36 2.45.99 3.45 -1.26.8-2.95.65-4.05-.45l-4.47-4.46c-1.28-1.27-1.28-3.33-.01-4.596l8.49-8.51c.6-.62 1.43-.96 2.29-.96h5.46Zm-2.75 3.5c-.83 0-1.5.67-1.5 1.49s.67 1.49 1.5 1.49c.82 0 1.5-.68 1.5-1.5 0-.83-.68-1.5-1.5-1.5Zm6 11.99c0 3.03-2.47 5.5-5.5 5.5 -3.04 0-5.5-2.47-5.5-5.5 0-3.04 2.46-5.5 5.5-5.5 3.03 0 5.5 2.46 5.5 5.5Zm-5.5-3.5c-.28 0-.5.22-.5.5v4c0 .27.22.5.5.5 .27 0 .5-.23.5-.5v-4c0-.28-.23-.5-.5-.5Zm0 7.125c.34 0 .62-.28.62-.625 0-.35-.28-.625-.63-.625s-.63.27-.63.625c0 .34.27.625.62.625Z"/></svg>