<svg viewBox="0 0 24 24" xmlns="http://www.w3.org/2000/svg"><path fill="currentColor" d="M21.99 4.25C21.99 3 20.98 2 19.74 2h-5.47c-.87 0-1.69.34-2.3.95l-8.5 8.5c-1.27 1.27-1.27 3.32 0 4.596l4.46 4.45c1.27 1.26 3.32 1.26 4.59-.01l.09-.1c-1.013-1-1.65-2.39-1.65-3.92 0-3.04 2.46-5.5 5.5-5.5 1.53 0 2.92.62 3.91 1.64l.63-.64c.6-.61.95-1.436.95-2.3V4.19ZM15.49 7c0-.83.67-1.5 1.5-1.5 .82 0 1.5.67 1.5 1.49s-.68 1.49-1.5 1.49c-.83 0-1.5-.68-1.5-1.5Zm4.66 12.1c.52-.74.83-1.64.83-2.61 0-2.49-2.02-4.5-4.5-4.5 -2.49 0-4.5 2.01-4.5 4.5 0 2.48 2.01 4.5 4.5 4.5 .97 0 1.87-.31 2.6-.84l2.61 2.61c.29.29.76.29 1.06 0 .29-.3.29-.77 0-1.07l-2.62-2.62Zm-.67-2.61c0 1.65-1.35 3-3 3 -1.66 0-3-1.35-3-3 0-1.66 1.34-3 3-3 1.65 0 3 1.34 3 3Z"/></svg>