<svg viewBox="0 0 24 24" xmlns="http://www.w3.org/2000/svg"><path fill="currentColor" d="M15.99 17.06l4.71 4.71c.29.29.76.29 1.06 0 .29-.3.29-.77 0-1.07L3.26 2.19c-.3-.3-.77-.3-1.07-.001 -.3.29-.3.76 0 1.06l4.72 4.72 -3.46 3.46c-1.27 1.27-1.27 3.32 0 4.596l4.46 4.45c1.27 1.26 3.32 1.26 4.59-.01L15.95 17ZM21.03 12l-2.99 2.98 -9.06-9.06 2.98-2.99c.6-.62 1.43-.96 2.29-.96h5.46c1.24 0 2.25 1 2.25 2.25v5.46c0 .86-.35 1.68-.96 2.29Zm-4.05-6.51c-.83 0-1.5.67-1.5 1.49s.67 1.49 1.5 1.49c.82 0 1.49-.68 1.49-1.5 0-.83-.68-1.5-1.5-1.5Z"/></svg>