<svg viewBox="0 0 24 24" xmlns="http://www.w3.org/2000/svg"><path fill="currentColor" d="M21.99 4.25C21.99 3 20.98 2 19.74 2h-5.47c-.87 0-1.69.34-2.3.95l-8.5 8.5c-1.27 1.27-1.27 3.32 0 4.596l4.46 4.45c1.27 1.26 3.32 1.26 4.59-.01l0-.01c-.37-.79-.56-1.64-.56-2.51 0-.56.25-1.05.65-1.37l-1.65-1.65c-.69-.69-.69-1.8 0-2.48l2-2c.68-.69 1.79-.69 2.47 0 .4.4.57.96.49 1.48h2.01c.86 0 1.72.18 2.5.54l.53-.54c.6-.61.95-1.436.95-2.3V4.17ZM15.49 7c0-.83.67-1.5 1.5-1.5 .82 0 1.5.67 1.5 1.49s-.68 1.49-1.5 1.49c-.83 0-1.5-.68-1.5-1.5Zm-.72 5.27c.29-.3.29-.77 0-1.07 -.3-.3-.77-.3-1.07 0l-2 2c-.3.29-.3.76 0 1.06l2 2c.29.29.76.29 1.06 0 .29-.3.29-.77 0-1.07l-.72-.72h3.93c.69 0 1.36.2 1.94.58 .57.38 1.02.93 1.28 1.57 .26.63.33 1.34.19 2.02 -.14.67-.47 1.3-.96 1.79 -.49.48-1.12.82-1.8.95 -.68.13-1.39.06-2.03-.2 -.64-.27-1.19-.72-1.58-1.29 -.39-.58-.59-1.26-.59-1.95 0-.42-.34-.75-.75-.75 -.42 0-.75.33-.75.75 0 .98.29 1.95.84 2.77 .54.82 1.33 1.46 2.24 1.84 .91.37 1.91.47 2.88.28 .96-.2 1.86-.67 2.56-1.37 .69-.7 1.17-1.6 1.36-2.56 .19-.97.09-1.98-.29-2.89 -.38-.92-1.02-1.7-1.85-2.25 -.83-.55-1.79-.85-2.78-.85h-3.94l.71-.72Z"/></svg>