<svg viewBox="0 0 24 24" xmlns="http://www.w3.org/2000/svg"><path fill="currentColor" d="M19.74 2c1.24 0 2.25 1 2.25 2.25v5.46c0 .86-.35 1.68-.96 2.29l-.03.02c-1.02-.66-2.23-1.04-3.53-1.04 -3.59 0-6.5 2.91-6.5 6.5 0 1.27.36 2.45.99 3.45 -1.26.8-2.95.65-4.05-.45l-4.47-4.46c-1.28-1.27-1.28-3.33-.01-4.596l8.49-8.51c.6-.62 1.43-.96 2.29-.96h5.46Zm-2.75 3.5c-.83 0-1.5.67-1.5 1.49s.67 1.49 1.5 1.49c.82 0 1.5-.68 1.5-1.5 0-.83-.68-1.5-1.5-1.5Zm6 11.99c0-3.04-2.47-5.5-5.5-5.5 -3.04 0-5.5 2.46-5.5 5.5 0 3.03 2.46 5.5 5.5 5.5 3.03 0 5.5-2.47 5.5-5.5Zm-6.13 3c0-.35.27-.63.62-.63 .34 0 .62.27.62.62 0 .34-.28.62-.63.62s-.63-.28-.63-.63Zm-1.23-4.55c-.02-1.14.8-1.96 1.85-1.96 1.03 0 1.85.84 1.85 1.94 0 .56-.19.91-.67 1.44l-.27.29 -.11.11c-.25.29-.33.46-.33.69 0 .27-.23.5-.5.5 -.28 0-.5-.23-.5-.5 0-.58.18-.93.67-1.47l.26-.3 .09-.12c.24-.29.31-.46.31-.68 0-.56-.39-.95-.86-.95 -.5 0-.86.36-.86.94 0 .27-.22.5-.5.5s-.51-.22-.51-.5Z"/></svg>