<svg viewBox="0 0 24 24" xmlns="http://www.w3.org/2000/svg"><path fill="currentColor" d="M12.75 2c-.84 0-1.64.32-2.25.89L3.68 9.38c-.92.87-.94 2.33-.04 3.22l6.25 6.22c.87.87 2.28.87 3.16 0l6.94-6.84c.62-.62.97-1.45.97-2.32V4.7c0-1.52-1.24-2.75-2.75-2.75h-5.5Zm3.49 5.75c-.7 0-1.25-.56-1.25-1.25 0-.7.55-1.25 1.25-1.25 .69 0 1.25.55 1.25 1.25 0 .69-.56 1.25-1.25 1.25Zm3 6.43l1.47-1.46c.04-.05.08-.09.13-.14 .31.95.08 2.05-.7 2.81l-5.34 5.22c-1.86 1.81-4.83 1.8-6.67-.02l-4.36-4.32c-.77-.76-1-1.86-.69-2.81l1.62 1.62c.03.04.06.08.1.12l2.41 2.38 1.93 1.92c1.05 1.05 2.65 1.22 3.89.52 .24-.14.47-.31.68-.52l5.33-5.23c.04-.05.09-.11.13-.16Z"/></svg>