<svg viewBox="0 0 24 24" xmlns="http://www.w3.org/2000/svg"><path fill="currentColor" d="M11.74 7c1.35 0 1.95.89 1.99 2.32l0 .18v2.48l2.87.42c.11.01.22.03.33.07 1.4.38 2.25 1.8 1.95 3.21l-.05.16 -1.23 4.44c-.18.62-.68 1.09-1.3 1.23l-.15.02 -3.07.43c-.77.1-1.5-.3-1.83-.98l-.07-.15 -.22-.58c-.25-.65-.66-1.23-1.18-1.68l-.21-.17 -1.6-1.21c-.09-.07-.18-.12-.27-.17l-.15-.07 -2.2-.87c-.28-.11-.46-.37-.48-.66 -.04-.73.48-1.25 1.42-1.72 .71-.36 1.72-.33 3.06.04l.27.07V9.35c0-1.54.57-2.51 1.99-2.51Zm0-5c4 0 7.25 3.24 7.25 7.25 0 1.01-.21 1.97-.59 2.85 -.36-.26-.76-.46-1.2-.58l-.18-.05c.29-.69.45-1.45.45-2.24 0-3.18-2.58-5.76-5.76-5.76 -3.18 0-5.76 2.57-5.76 5.75 0 1.28.42 2.46 1.13 3.42 -.51.03-.9.12-1.17.26 -.13.06-.24.12-.35.18 -.72-1.12-1.13-2.45-1.13-3.88 0-4.01 3.24-7.26 7.25-7.26Zm0 2.5c2.62 0 4.74 2.12 4.74 4.74 0 .74-.18 1.44-.48 2.07l-1.28-.19 0-.65c.15-.39.24-.81.24-1.25 0-.96-.42-1.83-1.08-2.42l-.15-.13c-.48-.46-1.15-.72-2.03-.72 -.89 0-1.56.26-2.04.72 -.74.59-1.21 1.5-1.21 2.52 0 .44.08.86.25 1.25l0 1.85c-.01.16-.14.29-.3.29 -.9-.87-1.46-2.08-1.46-3.42 0-2.63 2.12-4.75 4.74-4.75Z"/></svg>