<svg viewBox="0 0 24 24" xmlns="http://www.w3.org/2000/svg"><path fill="currentColor" d="M11.74 6c1.35 0 1.95.89 1.99 2.32l0 .18v2.48l2.87.42c.11.01.22.03.33.07 1.4.38 2.25 1.8 1.95 3.21l-.05.16 -1.23 4.44c-.18.62-.68 1.09-1.3 1.23l-.15.02 -3.061.43c-.77.1-1.5-.3-1.83-.98l-.07-.14 -.22-.58c-.25-.65-.66-1.23-1.18-1.68l-.21-.17 -1.6-1.21c-.09-.07-.18-.12-.27-.17l-.15-.07 -2.2-.87c-.28-.11-.46-.37-.48-.66 -.04-.73.48-1.25 1.42-1.72 .71-.36 1.72-.33 3.06.04l.27.07V8.36c0-1.54.57-2.51 1.99-2.51Zm0-3.5c3.17 0 5.75 2.57 5.75 5.75 0 .79-.17 1.54-.46 2.23l.17.04c-.15-.05-.31-.08-.46-.1l-1.27-.19c.31-.6.49-1.28.49-2 0-2.35-1.91-4.26-4.26-4.26 -2.35 0-4.26 1.9-4.26 4.25 0 1.17.47 2.24 1.25 3.01l-.01.41c-.62-.11-1.17-.14-1.68-.08 -.69-.95-1.09-2.11-1.09-3.36 0-3.18 2.57-5.76 5.75-5.76Z"/></svg>