<svg viewBox="0 0 24 24" xmlns="http://www.w3.org/2000/svg"><path fill="currentColor" d="M11.99 13.999c1.1 0 1.99-.9 1.99-2 0-1.11-.9-2-2-2 -1.11 0-2 .89-2 1.99s.89 1.99 1.99 1.99Zm-6-2c0-3.32 2.68-6 5.99-6s5.99 2.68 5.99 5.99c0 .12-.01.24-.02.36l-5.5 5.49c-.05.04-.08.08-.12.12 -.13 0-.25.01-.38.01 -3.32 0-6-2.69-6-6Zm5.99-4c-2.21 0-4 1.79-4 3.99s1.79 3.99 3.99 3.99 3.99-1.8 3.99-4c0-2.21-1.8-4-4-4Zm0-4c4.11 0 7.49 3.1 7.94 7.08 .66-.17 1.38-.11 2.02.15 -.39-5.18-4.71-9.25-9.98-9.25 -5.53 0-10 4.47-10 9.99 0 5.18 3.94 9.44 8.99 9.94 -.01-.18.01-.36.06-.55l.35-1.43c-4.15-.3-7.42-3.76-7.42-7.98 0-4.42 3.58-8 7.99-8Zm7.09 8.66l-5.91 5.9c-.35.34-.59.77-.71 1.24l-.46 1.83c-.2.79.52 1.51 1.31 1.31l1.83-.46c.47-.12.9-.37 1.24-.71l5.9-5.91c.89-.9.89-2.34 0-3.24 -.9-.9-2.34-.9-3.24 0Z"/></svg>