<svg viewBox="0 0 24 24" xmlns="http://www.w3.org/2000/svg"><path fill="currentColor" d="M4 12c0 4.24 3.31 7.72 7.49 7.98 .3.74.74 1.41 1.28 1.98 -.26.01-.52.03-.79.03 -5.53 0-10-4.48-10-10 0-5.53 4.47-10 10-10 5.52 0 10 4.47 10 10 0 .26-.02.52-.03.78 -.58-.55-1.25-.99-1.99-1.29 -.27-4.19-3.74-7.5-7.99-7.5 -4.42 0-8 3.58-8 8Zm7.19 3.91c-1.83-.38-3.2-1.99-3.2-3.92 0-2.21 1.79-4 4-4 1.93 0 3.54 1.37 3.91 3.19 .5-.13 1.03-.2 1.58-.2 .14 0 .28 0 .41.01 -.48-2.85-2.95-5.02-5.92-5.02 -3.32 0-6 2.68-6 6 0 2.97 2.16 5.44 5.01 5.91 -.01-.14-.02-.28-.02-.42 0-.55.06-1.08.19-1.59Zm.8-1.92l.02-.01c.5-.8 1.18-1.47 1.97-1.98l0-.03c0-1.11-.9-2-2-2 -1.11 0-2 .89-2 2 0 1.1.89 2 2 2Zm5.5-2c3.03 0 5.5 2.46 5.5 5.5 0 3.03-2.47 5.5-5.5 5.5 -3.04 0-5.5-2.47-5.5-5.5 0-3.04 2.46-5.5 5.5-5.5Zm-2.407 2.96l-.07.05 -.06.06c-.12.17-.12.39 0 .56l.05.06 1.76 1.76 -1.77 1.76 -.06.06c-.12.17-.12.39 0 .56l.05.06 .06.05c.17.11.39.11.56 0l.06-.06 1.76-1.77 1.76 1.76 .06.05c.17.11.39.11.56 0l.06-.06 .05-.07c.11-.18.11-.4 0-.57l-.06-.07 -1.77-1.77 1.77-1.77 .05-.07c.11-.18.11-.4 0-.57l-.06-.07 -.07-.06c-.18-.12-.4-.12-.57 0l-.07.05 -1.78 1.76 -1.77-1.77 -.07-.06c-.15-.11-.34-.12-.5-.05l-.08.04Z"/></svg>