<svg viewBox="0 0 24 24" xmlns="http://www.w3.org/2000/svg"><path fill="currentColor" d="M21.78 6.78c.21-.22.27-.54.16-.82 -.12-.29-.39-.47-.7-.47l-2.76-.01V2.72c0-.31-.19-.58-.47-.7 -.29-.12-.61-.06-.82.16l-2.5 2.5c-.15.14-.22.33-.22.53l0 2.83 -1.99 1.98c-.17-.05-.34-.07-.52-.07 -1.11 0-2 .89-2 2 0 1.1.89 2 2 2 1.1 0 2-.9 2-2 0-.18-.03-.36-.07-.52l1.98-1.99h2.83c.19 0 .38-.08.53-.22l2.5-2.5Zm-9.79-4.79c1.2 0 2.35.21 3.42.6L13.99 4c-.07.06-.13.12-.18.2 -.6-.14-1.21-.22-1.85-.22 -4.42 0-8 3.58-8 8 0 4.41 3.58 8 8 8 4.41 0 8-3.59 8-8 0-.64-.08-1.25-.22-1.85 .07-.06.13-.11.2-.18l1.41-1.42c.38 1.06.6 2.22.6 3.42 0 5.52-4.48 10-10 10 -5.53 0-10-4.48-10-10 0-5.53 4.47-10.01 10-10.01Zm0 4c.51 0 1.02.06 1.5.18l0 1.48 -.42.41c-.02.01-.04.03-.05.05 -.34-.09-.68-.14-1.04-.14 -2.21 0-4 1.79-4 4 0 2.2 1.79 4 4 4 2.2 0 4-1.8 4-4 0-.36-.05-.71-.14-1.04 .01-.02.03-.04.05-.05l.41-.42h1.48c.12.47.18.98.18 1.5 0 3.31-2.69 6-6 6 -3.32 0-6-2.69-6-6 0-3.32 2.68-6.01 6-6.01Z"/></svg>