<svg viewBox="0 0 24 24" xmlns="http://www.w3.org/2000/svg"><path fill="currentColor" d="M4 12c0 4.24 3.31 7.72 7.49 7.98 .3.74.74 1.41 1.28 1.98 -.26.01-.52.03-.79.03 -5.53 0-10-4.48-10-10 0-5.53 4.47-10 10-10 5.52 0 10 4.47 10 10 0 .26-.02.52-.03.78 -.58-.55-1.25-.99-1.99-1.29 -.27-4.19-3.74-7.5-7.99-7.5 -4.42 0-8 3.58-8 8Zm7.19 3.91c-1.83-.38-3.2-1.99-3.2-3.92 0-2.21 1.79-4 4-4 1.93 0 3.54 1.37 3.91 3.19 .5-.13 1.03-.2 1.58-.2 .14 0 .28 0 .41.01 -.48-2.85-2.95-5.02-5.92-5.02 -3.32 0-6 2.68-6 6 0 2.97 2.16 5.44 5.01 5.91 -.01-.14-.02-.28-.02-.42 0-.55.06-1.08.19-1.59Zm.82-1.92l-.03 0c-1.11 0-2-.9-2-2 0-1.11.89-2 2-2 1.1 0 2 .89 2 2l-.01.02c-.8.5-1.47 1.18-1.98 1.97Zm5.47-2c3.03 0 5.5 2.46 5.5 5.5 0 3.03-2.47 5.5-5.5 5.5 -3.04 0-5.5-2.47-5.5-5.5 0-3.04 2.46-5.5 5.5-5.5Zm.5 8.5l-.01-2.51h2.5c.27 0 .5-.23.5-.5 0-.28-.23-.5-.5-.5h-2.51l-.01-2.51c0-.28-.23-.5-.5-.5 -.28 0-.5.22-.5.5l0 2.5h-2.51c-.28 0-.5.22-.5.5 0 .27.22.5.5.5h2.5l0 2.5c0 .27.22.5.5.5 .27 0 .5-.23.5-.5Z"/></svg>