<svg viewBox="0 0 24 24" xmlns="http://www.w3.org/2000/svg"><path fill="currentColor" d="M3 6.25C3 4.45 4.45 3 6.25 3h11.5C19.54 3 21 4.45 21 6.25v11.5c0 1.79-1.46 3.25-3.25 3.25H6.25C4.45 21 3 19.54 3 17.75V6.25ZM7.25 14c-.42 0-.75.33-.75.75 0 .41.33.75.75.75h3.5c.41 0 .75-.34.75-.75 0-.42-.34-.75-.75-.75h-3.5ZM6.5 9.25c0 .41.33.75.75.75h3.5c.41 0 .75-.34.75-.75 0-.42-.34-.75-.75-.75h-3.5c-.42 0-.75.33-.75.75Zm11.28-.47c.29-.3.29-.77 0-1.07 -.3-.3-.77-.3-1.07 0l-1.47 1.46 -.47-.47c-.3-.3-.77-.3-1.07 0 -.3.29-.3.76 0 1.06l1 .99c.29.29.76.29 1.06 0l2-2Zm0 4.43c-.3-.3-.77-.3-1.07 0l-1.47 1.46 -.47-.47c-.3-.3-.77-.3-1.07 0 -.3.29-.3.76 0 1.06l1 1c.29.29.76.29 1.06 0l2-2c.29-.3.29-.77 0-1.07Z"/></svg>