<svg viewBox="0 0 24 24" xmlns="http://www.w3.org/2000/svg"><path fill="currentColor" d="M3 6.25C3 4.45 4.45 3 6.25 3h11.5C19.54 3 21 4.45 21 6.25v5.77c-1.02-.65-2.22-1.03-3.5-1.03 -3.59 0-6.5 2.91-6.5 6.5 0 1.28.37 2.48 1.02 3.5H6.24c-1.8 0-3.25-1.46-3.25-3.25V6.24Zm9.5 3c0 .41.33.75.75.75h3.5c.41 0 .75-.34.75-.75 0-.42-.34-.75-.75-.75h-3.5c-.42 0-.75.33-.75.75Zm-1.72-.47c.29-.3.29-.77 0-1.07 -.3-.3-.77-.3-1.07 0L8.24 9.17l-.47-.47c-.3-.3-.77-.3-1.07 0 -.3.29-.3.76 0 1.06l1 .99c.29.29.76.29 1.06 0l1.99-2Zm0 4.43c-.3-.3-.77-.3-1.07 0l-1.47 1.46 -.47-.47c-.3-.3-.77-.3-1.07 0 -.3.29-.3.76 0 1.06l1 1c.29.29.76.29 1.06 0l1.99-2c.29-.3.29-.77 0-1.07Zm12.21 4.28c0-3.04-2.47-5.5-5.5-5.5 -3.04 0-5.5 2.46-5.5 5.5 0 3.03 2.46 5.5 5.5 5.5 3.03 0 5.5-2.47 5.5-5.5Zm-5 .5l0 2.5c0 .27-.23.5-.5.5 -.28 0-.5-.23-.5-.5l-.01-2.51h-2.51c-.28 0-.5-.23-.5-.5 0-.28.22-.5.49-.5h2.5l-.01-2.51c0-.28.22-.5.5-.5 .27 0 .5.22.5.5l0 2.5h2.49c.27 0 .49.22.49.5 0 .27-.23.5-.5.5h-2.5Z"/></svg>