<svg viewBox="0 0 24 24" xmlns="http://www.w3.org/2000/svg"><path fill="currentColor" d="M6.7 3.29c-.4-.4-1.03-.4-1.42 0l-1.3 1.29 -.3-.3c-.4-.4-1.03-.4-1.42 0 -.4.39-.4 1.02 0 1.41l1 1c.39.39 1.02.39 1.41 0l2-2c.39-.4.39-1.03 0-1.42Zm14.29 13.7H9.98l-.12 0c-.5.05-.89.48-.89.99 0 .55.44 1 1 1h11l.11-.01c.49-.06.88-.49.88-1 0-.56-.45-1-1-1Zm0-6H9.98l-.12 0c-.5.05-.89.48-.89.99 0 .55.44 1 1 1h11l.11-.01c.49-.06.88-.49.88-1 0-.56-.45-1-1-1Zm0-6H9.98l-.12 0c-.5.05-.89.48-.89.99 0 .55.44 1 1 1h11l.11-.01c.49-.06.88-.49.88-1 0-.56-.45-1-1-1ZM6.69 16.28c-.4-.4-1.03-.4-1.42 0l-1.3 1.29 -.3-.3c-.4-.4-1.03-.4-1.42 0 -.4.39-.4 1.02 0 1.41l1 1c.39.39 1.02.39 1.41 0l2-2c.39-.4.39-1.03 0-1.42ZM5.27 9.77c.39-.4 1.02-.4 1.41 0 .39.39.39 1.02 0 1.41l-2 2c-.4.39-1.03.39-1.42 0l-1-1c-.4-.4-.4-1.03 0-1.42 .39-.4 1.02-.4 1.41 0l.29.29 1.29-1.3Z"/></svg>