<svg viewBox="0 0 24 24" xmlns="http://www.w3.org/2000/svg"><path fill="currentColor" d="M7.2 3.6c-1.99 0-3.6 1.61-3.6 3.6v9.6c0 1.98 1.61 3.6 3.6 3.6h3.66c-.04-.2-.07-.4-.07-.61v-4.86L9.11 16.6c-.23.22-.6.23-.83.01l-.9-.83c-.25-.23-.27-.61-.04-.85 .22-.25.6-.27.84-.04l.47.43 1.69-1.7c.11-.12.27-.18.42-.18v-.9c0-1.47 1.05-2.54 2.19-3.18 1.18-.66 2.74-1.03 4.4-1.03 1.06 0 2.08.15 3 .43V7.12c0-1.99-1.62-3.6-3.6-3.6h-9.6Zm13.2 6.5c-.86-.32-1.89-.51-3-.51 -2.99 0-5.4 1.34-5.4 3 0-.01 0 0 0 0 0 1.65 2.41 3 5.4 3 2.98 0 5.4-1.35 5.4-3 0-1.05-.96-1.96-2.4-2.5Zm-9.18-2.43c.23.23.23.61 0 .84L9.11 10.6c-.23.22-.6.23-.83.01l-.9-.83c-.25-.23-.27-.61-.04-.85 .22-.25.6-.27.84-.04l.47.43 1.69-1.7c.23-.24.61-.24.84 0Zm6.17 9.12c1.65 0 3.21-.38 4.4-1.03 .35-.2.69-.44 1-.71 -.01 1.41-.01 3.65-.01 4.73 0 1.65-2.42 3-5.4 3 -2.99 0-5.4-1.35-5.4-3v-4.74c.3.27.64.51.99.7 1.18.65 2.74 1.02 4.4 1.02Z"/></svg>