<svg viewBox="0 0 24 24" xmlns="http://www.w3.org/2000/svg"><path fill="currentColor" d="M17.74 2c1.19 0 2.16.92 2.24 2.09l0 .15v10.12c-.13.08-.24.17-.35.28l-3.41 3.4 -.91-.91c-.42-.42-.96-.64-1.51-.66h2.4c.41 0 .75-.34.75-.75 0-.42-.34-.75-.75-.75h-5.01c-.42 0-.75.33-.75.75 0 .41.33.75.75.75h2.41c-.55.02-1.09.24-1.5.65 -.88.87-.88 2.3-.01 3.18l1.65 1.66H6.17c-1.2 0-2.17-.93-2.25-2.1l-.01-.16V4.2c0-1.2.92-2.17 2.09-2.25l.15-.01h11.49ZM8.99 7.75c0-.56-.45-1-1-1 -.56 0-1 .44-1 1 0 .55.44 1 1 1 .55 0 1-.45 1-1Zm2.24-.76c-.42 0-.75.33-.75.75 0 .41.33.75.75.75h5c.41 0 .75-.34.75-.75 0-.42-.34-.75-.75-.75h-5.01Zm-.75 4.75c0 .41.33.75.75.75h5c.41 0 .75-.34.75-.75 0-.42-.34-.75-.75-.75h-5.01c-.42 0-.75.33-.75.75Zm-1.5 0c0-.56-.45-1-1-1 -.56 0-1 .44-1 1 0 .55.44 1 1 1 .55 0 1-.45 1-1Zm0 3.99c0-.56-.45-1-1-1 -.56 0-1 .44-1 1 0 .55.44 1 1 1 .55 0 1-.45 1-1Zm7.24 4.44l4.46-4.47c.29-.3.76-.3 1.06 0 .29.29.29.76 0 1.06l-5 5c-.02.01-.04.03-.06.04 -.13.1-.28.16-.45.17 -.02 0-.03 0-.04 0 -.02 0-.03-.01-.04-.01 -.19-.01-.37-.09-.5-.22l-2.5-2.51c-.3-.3-.3-.77 0-1.061 .29-.3.76-.3 1.06 0l1.96 1.97Z"/></svg>