<svg viewBox="0 0 24 24" xmlns="http://www.w3.org/2000/svg"><path fill="currentColor" d="M6.7 2.29c-.4-.4-1.03-.4-1.42 0l-1.3 1.29 -.3-.3c-.4-.4-1.03-.4-1.42 0 -.4.39-.4 1.02 0 1.41l1 1c.39.39 1.02.39 1.41 0l2-2c.39-.4.39-1.03 0-1.42Zm4.29 15.2c0 .16 0 .33.01.49H9.98c-.56 0-1-.45-1-1 0-.52.38-.94.88-1l.11-.01h1.17c-.12.48-.18.98-.18 1.5Zm6.5-6.5c1.27 0 2.46.36 3.46 1h.03l.11-.01c.49-.06.88-.49.88-1 0-.56-.45-1.01-1-1.01H9.96l-.12 0c-.5.05-.89.48-.89.99 0 .55.44 1 1 1h4.03c1-.64 2.19-1 3.46-1Zm3.5-7H9.98l-.12 0c-.5.05-.89.48-.89.99 0 .55.44 1 1 1h11l.11-.01c.49-.06.88-.49.88-1 0-.56-.45-1-1-1ZM6.69 15.28c-.4-.4-1.03-.4-1.42 0l-1.3 1.29 -.3-.3c-.4-.4-1.03-.4-1.42 0 -.4.39-.4 1.02 0 1.41l1 1c.39.39 1.02.39 1.41 0l2-2c.39-.4.39-1.03 0-1.42ZM5.27 8.77c.39-.4 1.02-.4 1.41 0 .39.39.39 1.02 0 1.41l-2 2c-.4.39-1.03.39-1.42 0l-1-1c-.4-.4-.4-1.03 0-1.42 .39-.4 1.02-.4 1.41 0l.29.29 1.29-1.3Zm17.7 8.7c0-3.04-2.47-5.5-5.5-5.5 -3.04 0-5.5 2.46-5.5 5.5 0 3.03 2.46 5.5 5.5 5.5 3.03 0 5.5-2.47 5.5-5.5Zm-5 .5l0 2.5c0 .27-.23.5-.5.5 -.28 0-.5-.23-.5-.5l-.01-2.51h-2.51c-.28 0-.5-.23-.5-.5 0-.28.22-.5.49-.5h2.5l-.01-2.51c0-.28.22-.5.5-.5 .27 0 .5.22.5.5l0 2.5h2.49c.27 0 .49.22.49.5 0 .27-.23.5-.5.5h-2.5Z"/></svg>