<svg viewBox="0 0 24 24" xmlns="http://www.w3.org/2000/svg"><path fill="currentColor" d="M7.2 3.6c-1.99 0-3.6 1.61-3.6 3.6v9.6c0 1.98 1.61 3.6 3.6 3.6h4.32c-.47-.93-.73-1.95-.73-3 0-1.31.38-2.59 1.11-3.67 .72-1.09 1.75-1.94 2.96-2.44 1.2-.5 2.53-.64 3.81-.38 .59.11 1.17.31 1.71.59V7.17c0-1.99-1.62-3.6-3.6-3.6h-9.6Zm4.02 4.07c.23.23.23.61 0 .84L9.11 10.6c-.23.22-.6.23-.83.01l-.9-.83c-.25-.23-.27-.61-.04-.85 .22-.25.6-.27.84-.04l.47.43 1.69-1.7c.23-.24.61-.24.84 0Zm-.85 5.99c.23-.24.61-.24.84 0 .23.23.23.61 0 .84L9.1 16.59c-.23.22-.6.23-.83.01l-.9-.83c-.25-.23-.27-.61-.04-.85 .22-.25.6-.27.84-.04l.47.43 1.69-1.7Zm2.82-4.08c-.34 0-.6-.27-.6-.6 0-.34.26-.6.6-.6h3c.33 0 .6.26.6.6 0 .33-.27.6-.6.6h-3Zm-.44 7.1c.3-.08.6-.22.85-.42 .25-.2.46-.44.62-.72 .15-.28.26-.59.3-.91 .03-.32.01-.64-.08-.95l-.19-.67c.3-.24.63-.44.98-.6l.4.42c.22.23.49.42.79.55 .3.12.62.19.95.19 .32 0 .65-.07.95-.2 .3-.13.57-.32.79-.56l.38-.42c.35.16.69.37 1 .62l-.16.5c-.1.31-.13.64-.09.96 .03.32.14.63.3.92 .16.28.38.52.64.72 .26.19.56.33.87.4l.41.09c.02.22.03.44.03.66 0 .18-.01.37-.03.55l-.56.14c-.31.07-.61.21-.86.41 -.26.19-.47.43-.63.71 -.16.27-.27.58-.31.9 -.04.31-.02.63.07.94l.18.66c-.31.23-.64.43-.99.6l-.41-.43c-.23-.24-.5-.43-.8-.56 -.31-.13-.63-.2-.96-.2 -.33 0-.66.06-.96.19 -.31.12-.58.31-.8.55l-.39.41c-.36-.17-.7-.38-1.01-.63l.15-.51c.09-.32.12-.65.08-.97 -.04-.33-.15-.64-.31-.93 -.17-.29-.39-.53-.65-.73 -.27-.2-.57-.34-.88-.41l-.42-.1c-.03-.23-.04-.45-.04-.67 0-.19 0-.38.02-.56l.55-.15Zm5.83.69c0-.32-.13-.63-.36-.85 -.23-.23-.54-.36-.85-.36 -.24 0-.47.07-.67.2 -.2.13-.36.31-.45.53 -.1.21-.12.46-.07.69 .04.23.16.44.32.61 .16.16.38.28.61.32 .23.04.47.02.69-.07 .21-.1.4-.25.53-.45s.2-.43.2-.67Z"/></svg>