<svg viewBox="0 0 24 24" xmlns="http://www.w3.org/2000/svg"><path fill="currentColor" d="M3.6 7.2c0-1.99 1.61-3.6 3.6-3.6h9.6c1.98 0 3.6 1.61 3.6 3.6v4.08c-.53-.31-1.15-.49-1.8-.49 -1.99 0-3.6 1.61-3.6 3.6h-1.8c-.34 0-.6.26-.6.6 0 .33.26.6.6.6h2c.15.45.4.86.72 1.21 -1.53.13-2.73 1.42-2.73 2.98 0 .2.01.4.04.6H7.18c-1.99 0-3.6-1.62-3.6-3.6v-9.6Zm7.62 1.32c.23-.24.23-.62 0-.85 -.24-.24-.62-.24-.85-.01l-1.7 1.69 -.48-.44c-.25-.23-.63-.21-.85.03 -.23.24-.21.62.03.84l.9.82c.23.21.6.2.82-.02l2.1-2.1Zm0 5.15c-.24-.24-.62-.24-.85 0l-1.7 1.69 -.48-.44c-.25-.23-.63-.21-.85.03 -.23.24-.21.62.03.84l.9.82c.23.21.6.2.82-.02l2.1-2.1c.23-.24.23-.62 0-.85Zm1.37-4.68c0 .33.26.6.6.6h3c.33 0 .6-.27.6-.6 0-.34-.27-.6-.6-.6h-3c-.34 0-.6.26-.6.6Zm8.4 5.4c0 1.32-1.08 2.4-2.4 2.4 -1.33 0-2.4-1.08-2.4-2.4 0-1.33 1.07-2.4 2.4-2.4 1.32 0 2.4 1.07 2.4 2.4Zm1.8 5.4c0 1.49-1.2 3-4.2 3s-4.2-1.51-4.2-3c0-1 .8-1.8 1.8-1.8h4.8c.99 0 1.8.8 1.8 1.8Z"/></svg>