<svg viewBox="0 0 24 24" xmlns="http://www.w3.org/2000/svg"><path fill="currentColor" d="M3.2 10.27c-.45-.65-.71-1.43-.71-2.28 0-2.21 1.79-4 4-4 1.17 0 2.22.5 2.95 1.3 -2.84.7-5.15 2.54-6.26 4.96ZM14.53 5.3c.73-.81 1.78-1.31 2.95-1.31 2.2 0 4 1.79 4 4 0 .84-.27 1.62-.71 2.27 -1.11-2.42-3.42-4.27-6.26-4.97Zm-7.92 14c-1.91-1.38-3.13-3.47-3.13-5.82 0-4.15 3.8-7.5 8.5-7.5 4.69 0 8.5 3.35 8.5 7.5 0 2.34-1.22 4.43-3.13 5.81 -.26-1.15-.87-2.16-1.71-2.92 -.98-.88-2.26-1.4-3.67-1.4 -2.63 0-4.83 1.84-5.38 4.31Zm8.37-2.17c-.46-.41-.98-.72-1.55-.91 -.17.43-.76.75-1.46.75 -.71 0-1.3-.33-1.46-.76 -1.59.54-2.78 1.94-3.01 3.64 1.29.7 2.82 1.11 4.45 1.11 1.63 0 3.16-.41 4.45-1.12 -.15-1.07-.67-2.03-1.46-2.75Z"/></svg>