<svg viewBox="0 0 24 24" xmlns="http://www.w3.org/2000/svg"><path fill="currentColor" d="M12.26 2.2c-.3-.28-.76-.27-1.05.01L9.51 3.9C8.35 5.05 7.06 6.05 5.67 6.89c-.4.23-.67.63-.73 1.09l-1.36 9.49h-.85c-.42 0-.75.33-.75.75 0 .41.33.75.75.75h18.5c.41 0 .75-.34.75-.75 0-.42-.34-.75-.75-.75h-.85l-1.36-9.46c-.07-.49-.37-.92-.8-1.15 -1.54-.84-2.96-1.87-4.24-3.06l-1.76-1.64Zm1.83 12.91c.48.87 1.12 1.72 1.64 2.38H8.26c.53-.66 1.17-1.53 1.63-2.41 .62-1.2 1.32-2.99 1.86-4.45 .07-.2.13-.39.2-.57 .05.17.12.34.18.52 .52 1.45 1.22 3.25 1.92 4.5Z"/></svg>