<svg viewBox="0 0 24 24" xmlns="http://www.w3.org/2000/svg"><path fill="currentColor" d="M21 2c.55 0 1 .44 1 1v4c0 1.65-1.35 3-3 3h-4.59l2.29 2.29c.39.39.39 1.02 0 1.41 -.4.39-1.03.39-1.42 0l-4-4c-.4-.4-.4-1.03 0-1.42l4-4c.39-.4 1.02-.4 1.41 0 .39.39.39 1.02 0 1.41l-2.3 2.29h4.58c.55 0 1-.45 1-1v-4c0-.56.44-1 1-1ZM7.29 11.29c-.4.39-.4 1.02 0 1.41l2.29 2.29H2.99c-.56 0-1 .44-1 1 0 .55.44 1 1 1h6.58l-2.3 2.29c-.4.39-.4 1.02 0 1.41 .39.39 1.02.39 1.41 0l3.99-4c.09-.1.16-.21.21-.33 .04-.12.07-.25.07-.38v-.01c0-.27-.11-.51-.28-.69 -.01-.01-.02-.02-.03-.03l-4-4c-.4-.4-1.03-.4-1.42 0Z"/></svg>