<svg viewBox="0 0 24 24" xmlns="http://www.w3.org/2000/svg"><path fill="currentColor" d="M7.49 3.49c0 .82-.68 1.49-1.5 1.49 -.83 0-1.5-.68-1.5-1.5 0-.83.67-1.5 1.49-1.5s1.49.67 1.49 1.49Zm-.5 4l-.01 13.5c0 .55-.45 1-1 1 -.52 0-.94-.39-1-.89l-.01-.12V7.47c0-.56.44-1 1-1 .51 0 .93.38.99.88l0 .11Zm6.49-4.01c0 .82-.68 1.49-1.5 1.49 -.83 0-1.5-.68-1.5-1.5 0-.83.67-1.5 1.49-1.5s1.49.67 1.49 1.49Zm-.5 4v13.5c0 .55-.45 1-1 1 -.52 0-.94-.39-1-.89l-.01-.12V7.46c0-.56.44-1 1-1 .51 0 .93.38.99.88l0 .11Zm6.49-4.01c0 .82-.68 1.49-1.5 1.49 -.83 0-1.5-.68-1.5-1.5 0-.83.67-1.5 1.49-1.5s1.49.67 1.49 1.49Zm-.5 4v13.5c0 .55-.45 1-1 1 -.52 0-.94-.39-1-.89l-.01-.12V7.45c0-.56.44-1 1-1 .51 0 .93.38.99.88l0 .11Z"/></svg>