<svg viewBox="0 0 24 24" xmlns="http://www.w3.org/2000/svg"><path fill="currentColor" d="M4 3c0-.56-.45-1-1-1 -.56 0-1 .44-1 1v7c0 .55.44 1 1 1h8c.55 0 1-.45 1-1V3c0-.56-.45-1-1-1 -.56 0-1 .44-1 1v6H8V6c0-.56-.45-1-1-1 -.56 0-1 .44-1 1v3H4V3Zm14.5 0c0-.56-.45-1-1-1 -.56 0-1 .44-1 1v15.58l-1.8-1.8c-.4-.4-1.03-.4-1.42 0 -.4.39-.4 1.02 0 1.41l3.5 3.5c.39.39 1.02.39 1.41 0l3.5-3.5c.39-.4.39-1.03 0-1.42 -.4-.4-1.03-.4-1.42 0l-1.8 1.79V2.97ZM7 13c.4 0 .76.23.91.6l3 7c.21.5-.02 1.09-.53 1.31 -.51.21-1.1-.02-1.32-.53l-.6-1.4H5.49l-.6 1.39c-.22.5-.81.74-1.32.52 -.51-.22-.75-.81-.53-1.32l3-7c.15-.37.51-.61.91-.61Zm0 3.53l-.63 1.46h1.25l-.63-1.47Z"/></svg>