<svg viewBox="0 0 24 24" xmlns="http://www.w3.org/2000/svg"><path fill="currentColor" d="M3.74 3c0-.56.44-1 1-1h5.25c.37 0 .72.21.89.55 .16.33.13.74-.1 1.04L6.72 8.98h3.25c.55 0 1 .44 1 1 0 .55-.45.99-1.01.99H4.7c-.38 0-.73-.22-.9-.56 -.17-.34-.14-.75.09-1.05l4.05-5.4H4.68c-.56 0-1.01-.45-1.01-1Zm4.22 9.67c-.14-.41-.52-.68-.95-.68 -.43 0-.81.27-.95.67l-2.8 8.069c-.19.52.09 1.09.61 1.27 .52.18 1.09-.1 1.27-.62l.41-1.19h2.87l.41 1.18c.18.52.75.79 1.27.61 .52-.19.79-.76.61-1.28l-2.8-8.069ZM6.27 18.2l.74-2.15 .74 2.14H6.26ZM17.48 1.99c.55 0 1 .44 1 1v15.58l1.79-1.8c.39-.4 1.02-.4 1.41 0 .39.39.39 1.02 0 1.41l-3.5 3.5c-.4.39-1.03.39-1.42 0l-3.5-3.5c-.4-.4-.4-1.03 0-1.42 .39-.4 1.02-.4 1.41 0l1.79 1.79V2.96c0-.56.44-1 1-1Z"/></svg>