<svg viewBox="0 0 24 24" xmlns="http://www.w3.org/2000/svg"><path fill="currentColor" d="M6.25 3C4.45 3 3 4.45 3 6.25v11.5C3 19.54 4.45 21 6.25 21h4.91l.35-1.43c.16-.65.49-1.24.96-1.72l1.36-1.37h-2.61c-.42 0-.75-.34-.75-.75 0-.42.33-.75.75-.75h4.1l3.03-3.04c.71-.72 1.67-1.04 2.6-.96V6.21c0-1.8-1.46-3.25-3.25-3.25H6.2Zm2.5 5.25c0 .55-.45 1-1 1 -.56 0-1-.45-1-1 0-.56.44-1 1-1 .55 0 1 .44 1 1Zm1.75 0c0-.42.33-.75.75-.75h5.5c.41 0 .75.33.75.75 0 .41-.34.75-.75.75h-5.5c-.42 0-.75-.34-.75-.75Zm0 3.75c0-.42.33-.75.75-.75h5.49c.41 0 .75.33.75.75 0 .41-.34.75-.75.75h-5.5c-.42 0-.75-.34-.75-.75Zm-2.76-1c.55 0 1 .44 1 1 0 .55-.45 1-1 1 -.56 0-1-.45-1-1 0-.56.44-1 1-1Zm1 4.75c0 .55-.45 1-1 1 -.56 0-1-.45-1-1 0-.56.44-1 1-1 .55 0 1 .44 1 1Zm10.34-3.09l-5.91 5.9c-.35.34-.59.77-.71 1.24L12 21.63c-.2.79.52 1.51 1.31 1.31l1.83-.46c.47-.12.9-.37 1.24-.71l5.9-5.91c.89-.9.89-2.34 0-3.24 -.9-.9-2.34-.9-3.24 0Z"/></svg>