<svg viewBox="0 0 24 24" xmlns="http://www.w3.org/2000/svg"><path fill="currentColor" d="M3.59 6.9c0-1.83 1.47-3.3 3.3-3.3h10.19c1.82 0 3.3 1.47 3.3 3.3v4.61c-.91-.47-1.92-.72-3-.72 -1.42 0-2.73.44-3.8 1.2h-2.21c-.34 0-.6.26-.6.6 0 .33.26.6.6.6h.9c-.95 1.14-1.51 2.6-1.51 4.2 0 1.08.25 2.09.71 3H6.85c-1.83 0-3.3-1.48-3.3-3.3V6.89Zm4.5 2.7c.49 0 .9-.41.9-.9 0-.5-.41-.9-.9-.9 -.5 0-.9.4-.9.9 0 .49.4.9.9.9Zm.9 2.7c0-.5-.41-.9-.9-.9 -.5 0-.9.4-.9.9 0 .49.4.9.9.9 .49 0 .9-.41.9-.9Zm-.9 4.5c.49 0 .9-.41.9-.9 0-.5-.41-.9-.9-.9 -.5 0-.9.4-.9.9 0 .49.4.9.9.9ZM10.78 9c0 .33.26.6.6.6h4.8c.33 0 .6-.27.6-.6 0-.34-.27-.6-.6-.6h-4.8c-.34 0-.6.26-.6.6Zm3.67 4.73c.36 1.29-.42 2.64-1.72 2.97l-.56.14c-.02.18-.03.36-.03.55 0 .22.01.44.03.66l.41.09c1.34.31 2.14 1.7 1.74 3.02l-.16.5c.3.24.64.45 1 .62l.39-.42c.94-1.01 2.54-1.01 3.49 0l.4.42c.35-.17.68-.37.98-.6l-.19-.67c-.37-1.3.41-2.65 1.71-2.98l.55-.15c.01-.19.02-.37.02-.56 0-.23-.02-.45-.04-.67l-.42-.1c-1.35-.32-2.15-1.71-1.75-3.03l.15-.51c-.31-.25-.65-.46-1.01-.63l-.39.41c-.95 1-2.55 1-3.5-.01l-.41-.43c-.36.16-.69.36-.99.59l.18.66Zm2.92 4.86c-.67 0-1.2-.54-1.2-1.2 0-.67.53-1.2 1.2-1.2 .66 0 1.2.53 1.2 1.2 0 .66-.54 1.2-1.2 1.2Z"/></svg>