<svg viewBox="0 0 24 24" xmlns="http://www.w3.org/2000/svg"><path fill="currentColor" d="M17.5 12c3.03 0 5.5 2.46 5.5 5.5 0 3.03-2.47 5.5-5.5 5.5 -3.04 0-5.5-2.47-5.5-5.5 0-3.04 2.46-5.5 5.5-5.5Zm2.64 3.14l-4.1 4.09 -1.16-1.54c-.17-.23-.48-.27-.7-.1 -.23.16-.27.47-.1.7l1.5 2c.18.24.53.26.75.05l4.5-4.5c.19-.2.19-.52 0-.71 -.2-.2-.52-.2-.71 0Zm-9.13 1.85H2.99l-.12 0c-.5.05-.89.48-.89.99 0 .55.44 1 1 1h8.17c-.12-.49-.18-.99-.18-1.5 0-.17 0-.34.01-.5Zm.47-2h-8.5c-.56 0-1-.45-1-1 0-.52.38-.94.88-1l.11-.01h9.8c-.56.57-1 1.25-1.32 2Zm-8.5-4c-.56 0-1-.45-1-1 0-.52.38-.94.88-1l.11-.01h18c.55 0 1 .44 1 1 0 .51-.39.93-.89.99l-.12 0h-18Zm18-6h-18l-.12 0c-.5.05-.89.48-.89.99 0 .55.44 1 1 1h18l.11-.01c.49-.06.88-.49.88-1 0-.56-.45-1-1-1Z"/></svg>