<svg viewBox="0 0 24 24" xmlns="http://www.w3.org/2000/svg"><path fill="currentColor" d="M3.75 5c0-.56.44-1 1-1h12.5c.55 0 1 .44 1 1v2c0 .55-.45 1-1 1 -.56 0-1-.45-1-1V6H12v8.03c-.64 1-1 2.19-1 3.46 0 .88.17 1.73.49 2.5h-2.5c-.56 0-1-.45-1-1 0-.56.44-1 1-1h1v-12H5.74v1c0 .55-.45 1-1 1 -.56 0-1-.45-1-1v-2ZM23 17.5c0-3.04-2.47-5.5-5.5-5.5 -3.04 0-5.5 2.46-5.5 5.5 0 3.03 2.46 5.5 5.5 5.5 3.03 0 5.5-2.47 5.5-5.5Zm-5 .5l0 2.5c0 .27-.23.5-.5.5 -.28 0-.5-.23-.5-.5l-.01-2.51h-2.51c-.28 0-.5-.23-.5-.5 0-.28.22-.5.49-.5h2.5l-.01-2.51c0-.28.22-.5.5-.5 .27 0 .5.22.5.5l0 2.5h2.49c.27 0 .49.22.49.5 0 .27-.23.5-.5.5h-2.5Z"/></svg>