<svg viewBox="0 0 24 24" xmlns="http://www.w3.org/2000/svg"><defs><clipPath id="a"><path d="M0 0h24v24H0Z"/></clipPath></defs><path clip-path="url(#a)" fill="currentColor" d="M4.96.37c.34-.44.97-.51 1.4-.16l.62.5L7.6.2c.43-.35 1.06-.28 1.4.15 .34.43.27 1.06-.16 1.4l-1.25 1c-.37.29-.89.29-1.25 0l-1.25-1C4.65 1.4 4.58.77 4.93.34Zm12.53 1.62c.55 0 1 .44 1 1v15.58l1.79-1.8c.39-.4 1.02-.4 1.41 0 .39.39.39 1.02 0 1.41l-3.5 3.5c-.4.39-1.03.39-1.42 0l-3.5-3.5c-.4-.4-.4-1.03 0-1.42 .39-.4 1.02-.4 1.41 0l1.79 1.79V2.96c0-.56.44-1 1-1ZM6.99 12.98c.4 0 .76.23.91.6l3 7c.21.5-.02 1.09-.53 1.31 -.51.21-1.1-.02-1.32-.53l-.6-1.4H5.48l-.6 1.39c-.22.5-.81.74-1.32.52 -.51-.22-.75-.81-.53-1.32l3-7c.15-.37.51-.61.91-.61Zm-.001 3.53l-.63 1.46H7.6l-.63-1.47ZM4.47 3.97c-.56 0-1 .44-1 1 0 .55.44 1 1 1h3.22l-3.97 4.32c-.27.29-.34.71-.18 1.07 .15.36.51.59.91.59h5.5c.55 0 1-.45 1-1 0-.56-.45-1-1-1H6.72l3.96-4.33c.26-.3.33-.72.17-1.08 -.16-.37-.52-.6-.92-.6h-5.5Z"/></svg>