<svg viewBox="0 0 24 24" xmlns="http://www.w3.org/2000/svg"><path fill="currentColor" d="M14.75 3.81c-.48-1.11-1.56-1.82-2.76-1.82 -1.21 0-2.29.71-2.76 1.81l-4.26 9.93c-.02.04-.04.08-.06.12l-1.69 3.93c-.66 1.52.05 3.28 1.57 3.93 1.52.65 3.28-.06 3.93-1.58l.93-2.19h4.61l.93 2.18c.65 1.52 2.41 2.22 3.93 1.57 1.52-.66 2.22-2.42 1.57-3.94L19 13.81c-.02-.05-.04-.09-.06-.13l-4.26-9.94Zm-1.84.78l4.27 9.97c0 .01.01.02.01.04l1.7 3.97c.21.5-.02 1.09-.53 1.31 -.51.21-1.1-.02-1.32-.53l-1.46-3.4H8.32l-1.46 3.39c-.22.5-.81.74-1.32.52 -.51-.22-.75-.81-.53-1.32l1.7-3.98c0-.02.01-.03.01-.05l4.27-9.98c.15-.37.51-.61.91-.61s.76.23.91.6Zm1.85 9.39H9.22l2.76-6.47 2.76 6.46Z"/></svg>