<svg viewBox="0 0 24 24" xmlns="http://www.w3.org/2000/svg"><path fill="currentColor" d="M14.19 3.8c-.44-.18-1.05.06-1.29.59 -.23.5-.83.72-1.33.49 -.51-.23-.73-.83-.5-1.33 .61-1.35 2.27-2.26 3.85-1.64 1.68.67 2.44 2.78 1.45 4.37 -.32.5-.75.92-1.15 1.28 -.24.2-.51.43-.77.63 -.16.12-.31.24-.43.35 -.18.14-.33.28-.46.4h2.64c.55 0 1 .44 1 1 0 .55-.45 1-1 1h-4.25c-.56 0-1-.45-1-1.01 0-1.38 1.03-2.32 1.76-2.94 .18-.16.35-.3.51-.43 .21-.18.41-.35.63-.54 .35-.32.6-.59.77-.85 .3-.49.07-1.23-.5-1.46Zm-10.2-.81c0-.56-.45-1-1-1 -.56 0-1 .44-1 1v7c0 .55.44 1 1 1 .55 0 1-.45 1-1.01v-2.5h3v2.49c0 .55.44 1 1 1 .55 0 1-.45 1-1.01v-7c0-.56-.45-1-1-1 -.56 0-1 .44-1 1v2.49h-3v-2.5Zm-1 16c-.56 0-1 .44-1 1 0 .55.44 1 1 1h18c.55 0 1-.45 1-1 0-.56-.45-1-1-1h-18Zm-1-4c0-.56.44-1 1-1h18c.55 0 1 .44 1 1 0 .55-.45 1-1 1h-18c-.56 0-1-.45-1-1Z"/></svg>