<svg viewBox="0 0 24 24" xmlns="http://www.w3.org/2000/svg"><path fill="currentColor" d="M17.5 2c.55 0 1 .44 1 1v15.58l1.79-1.8c.39-.4 1.02-.4 1.41 0 .39.39.39 1.02 0 1.41l-3.5 3.5c-.4.39-1.03.39-1.42 0l-3.5-3.5c-.4-.4-.4-1.03 0-1.42 .39-.4 1.02-.4 1.41 0l1.79 1.79V2.97c0-.56.44-1 1-1ZM8.72 6.3c.47-.46.77-1.1.77-1.81 0-1.39-1.12-2.5-2.5-2.5 -1.39 0-2.5 1.11-2.5 2.5 0 .71.29 1.35.77 1.8l-2.2 5.3c-.22.51.03 1.09.54 1.3 .51.21 1.09-.04 1.3-.55l.57-1.39h3l.57 1.38c.21.51.79.75 1.3.54 .51-.22.75-.8.54-1.31l-2.2-5.31ZM7.66 8.99H6.3l.67-1.64 .67 1.63Zm-1.18-4.5c0-.28.22-.5.5-.5 .27 0 .5.22.5.5 0 .27-.23.5-.5.5 -.28 0-.5-.23-.5-.5Zm1.41 9.1c-.16-.37-.52-.61-.92-.61 -.41 0-.77.23-.92.6l-3 7c-.22.5.01 1.09.52 1.31 .5.21 1.09-.02 1.31-.53l.59-1.4h2.96l.59 1.39c.21.5.8.74 1.31.52 .5-.22.74-.81.52-1.32l-3-7Zm-.3 4.39H6.33l.62-1.47 .62 1.46Z"/></svg>