<svg viewBox="0 0 24 24" xmlns="http://www.w3.org/2000/svg"><path fill="currentColor" d="M7.99 3c0-.56-.45-1-1-1 -.56 0-1 .44-1 1v1h-3.5c-.56 0-1 .44-1 1v1.25c0 .55.44 1 1 1 .55 0 1-.45 1-1V6h7v.25c0 .55.44 1 1 1 .55 0 1-.45 1-1V5c0-.56-.45-1-1-1H7.98V3Zm-4 5c0-.56.44-1 1-1h4c.38 0 .73.22.9.56 .16.34.11.75-.13 1.05l-1.5 1.87h2.71c.55 0 1 .44 1 1 0 .55-.45 1-1 1H7.96v1.096c0 2.03-2.39 3.14-3.95 1.83l-.2-.17c-.43-.36-.48-.99-.13-1.41 .35-.43.98-.48 1.4-.13l.19.16c.26.21.65.03.65-.31V12.45h-3c-.56 0-1-.45-1-1 0-.56.44-1 1-1h2.99c0-.23.07-.45.21-.63l.7-.88H4.9c-.56 0-1-.45-1-1Zm14.17-3.39c-.16-.38-.52-.62-.93-.62 -.41-.01-.77.24-.93.61l-3.75 9c-.22.5.02 1.09.53 1.3 .5.21 1.09-.03 1.3-.54l.78-1.89h4.08l.78 1.88c.21.5.79.75 1.3.53 .5-.22.75-.8.53-1.31L18.1 4.56Zm.28 5.88h-2.42l1.2-2.9 1.2 2.89ZM11.16 20.5l4.29-5.16c.35-.43.98-.49 1.4-.13 .42.35.48.98.12 1.4l-5 6c-.38.45-1.06.48-1.48.06l-2.51-2.5c-.4-.4-.4-1.03 0-1.42 .39-.4 1.02-.4 1.41 0l1.72 1.72Z"/></svg>