<svg viewBox="0 0 24 24" xmlns="http://www.w3.org/2000/svg"><path fill="currentColor" d="M13.84 11.5h5.65c.55 0 1 .44 1 1 0 .55-.45 1-1 1H17.1c.66.77.99 1.67.99 2.68 0 2.92-3.29 4.91-7.04 4.47 -2.33-.28-3.97-1.22-4.83-2.84 -.27-.49-.21-1.02.24-1.34 .45-.32 1.25-.1 1.51.38 .53.99 1.6 1.59 3.29 1.78 2.58.3 4.8-.91 4.8-2.5 0-1.1-.55-1.94-2.11-2.69H4.94c-.56 0-1-.45-1-1 0-.56.44-1 1-1h8.81c.01-.01.01-.01.03 0ZM6.97 9.69c-.11-.16-.21-.33-.3-.51 -.31-.6-.47-1.22-.44-1.84 .15-2.97 2.93-4.72 6.6-4.29 2.26.26 3.98 1.08 5.14 2.48 .35.42.27 1.04-.16 1.4 -.43.35-1.05.32-1.4-.1 -.82-.99-2.07-1.6-3.83-1.81 -2.57-.3-4.38.71-4.38 2.32 0 .71.23 1.21.76 1.8 .22.25.64.52 1.26.81H7.13c-.12-.17-.18-.27-.21-.31Z"/></svg>