<svg viewBox="0 0 24 24" xmlns="http://www.w3.org/2000/svg"><path fill="currentColor" d="M10.75 2.5c.41 0 .75.33.75.75V6.5H13c.41 0 .75.33.75.75 0 .41-.34.75-.75.75h-1.5v3.03L10 12.52V3.24c0-.42.33-.75.75-.75Zm-.43 11.11l1.17-1.18v0l4-4.01c1.25-1.26 3.29-1.26 4.55 0 1.25 1.25 1.25 3.29-.01 4.55l-7.12 7.1c-.28.27-.61.46-.98.57l-4.62 1.3c-.58.16-1.1-.38-.93-.95l1.38-4.55c.1-.36.3-.68.56-.94l1.93-1.94s-.01-.01 0 0ZM1.99 4.24c0-.42.33-.75.75-.75h5c.38 0 .71.29.74.68 .19 2.13-1.15 5.96-5.54 7.28 -.4.11-.82-.11-.94-.51s.1-.82.5-.94c3.13-.94 4.29-3.4 4.46-5.04H2.71c-.42 0-.75-.34-.75-.75Z"/></svg>