<svg viewBox="0 0 24 24" xmlns="http://www.w3.org/2000/svg"><path fill="currentColor" d="M15.39 7.94c.19-.4.8-1.2 2.35-1.2 .79 0 1.34.24 1.68.57 .34.32.56.8.56 1.42 0 1.82-1.14 2.8-2.74 4.01 -.08.05-.15.1-.22.16 -1.44 1.08-3.31 2.49-3.31 5.07 0 .26.1.51.29.7 .18.18.44.29.7.29h6.5c.55 0 1-.45 1-1 0-.56-.45-1-1-1h-5.33c.36-.97 1.28-1.68 2.55-2.65 1.53-1.17 3.51-2.69 3.51-5.61 0-1.13-.41-2.15-1.19-2.89 -.78-.74-1.86-1.12-3.07-1.12 -2.45 0-3.68 1.36-4.15 2.3 -.25.49-.05 1.09.44 1.34 .49.24 1.09.04 1.34-.45ZM3.99 5.99c0-.56-.45-1-1-1 -.56 0-1 .44-1 1v12c0 .55.44 1 1 1 .55 0 1-.45 1-1v-5h6v5c0 .55.44 1 1 1 .55 0 1-.45 1-1v-12c0-.56-.45-1-1-1 -.56 0-1 .44-1 1v5h-6v-5Z"/></svg>