<svg viewBox="0 0 24 24" xmlns="http://www.w3.org/2000/svg"><path fill="currentColor" d="M4.29 3.29c.39-.4 1.02-.4 1.41 0 .39.39.39 1.02 0 1.41l-.3.29h15.58c.55 0 1 .44 1 1 0 .55-.45 1-1 1H5.39l.29.29c.39.39.39 1.02 0 1.41 -.4.39-1.03.39-1.42 0l-2-2c-.4-.4-.4-1.03 0-1.42l2-2Zm14.29 15.7l-.3.29c-.4.39-.4 1.02 0 1.41 .39.39 1.02.39 1.41 0l2-2c.39-.4.39-1.03 0-1.42l-2-2c-.4-.4-1.03-.4-1.42 0 -.4.39-.4 1.02 0 1.41l.29.29H2.97c-.56 0-1 .44-1 1 0 .55.44 1 1 1h15.58Zm-15.59-8c-.56 0-1 .44-1 1 0 .55.44 1 1 1h18c.55 0 1-.45 1-1 0-.56-.45-1-1-1h-18Z"/></svg>