<svg viewBox="0 0 24 24" xmlns="http://www.w3.org/2000/svg"><path fill="currentColor" d="M16.5 20.5c0-.83.67-1.5 1.49-1.5s1.49.67 1.49 1.49 -.68 1.49-1.5 1.49c-.83 0-1.5-.68-1.5-1.5Zm.49-4.01V2.98c0-.56.44-1 1-1 .51 0 .93.38.99.88l0 .11v13.5c0 .55-.45 1-1 1 -.52 0-.94-.39-1-.89l-.01-.12Zm-6.5 4c0-.83.67-1.5 1.49-1.5s1.49.67 1.49 1.49 -.68 1.49-1.5 1.49c-.83 0-1.5-.68-1.5-1.5Zm.49-4.01V2.97c0-.56.44-1 1-1 .51 0 .93.38.99.88l0 .11v13.5c0 .55-.45 1-1 1 -.52 0-.94-.39-1-.89l-.01-.12Zm-6.5 4c0-.83.67-1.5 1.49-1.5s1.49.67 1.49 1.49 -.68 1.49-1.5 1.49c-.83 0-1.5-.68-1.5-1.5Zm.49-4.01V2.96c0-.56.44-1 1-1 .51 0 .93.38.99.88l0 .11v13.5c0 .55-.45 1-1 1 -.52 0-.94-.39-1-.89l-.01-.12Z"/></svg>