<svg viewBox="0 0 24 24" xmlns="http://www.w3.org/2000/svg"><path fill="currentColor" d="M11.99 4.34c.46-.52 1.31-.7 1.83-.54 .31.1.52.31.61.53 .08.2.08.43-.08.66 -.29.41-.75.48-1.47.48l-.05 0 -.09 0c-.56 0-1 .44-1 1 0 .55.44 1 1 1l.08 0 .04 0c.72 0 1.18.07 1.46.48 .15.23.16.46.07.66 -.1.21-.31.43-.62.53 -.53.16-1.37-.02-1.84-.54 -.37-.42-1.01-.45-1.42-.08 -.42.36-.45 1-.08 1.41 1 1.11 2.67 1.5 3.93 1.1 1.67-.54 2.73-2.52 1.59-4.23 -.1-.14-.2-.27-.3-.38 .1-.12.2-.24.29-.38 1.14-1.71.08-3.69-1.6-4.23 -1.26-.41-2.93-.02-3.94 1.1 -.37.41-.34 1.04.07 1.41 .41.36 1.04.33 1.41-.08Zm-9-2.35c.55-.001 1 .44 1 1v2.5h3v-2.5c0-.56.44-1 1-1 .55 0 1 .44 1 1v6.99c0 .55-.45 1-1 1 -.56 0-1-.45-1-1.01v-2.5h-3v2.5c0 .55-.45 1-1 1 -.56 0-1-.45-1-1.01v-7c0-.56.44-1 1-1Zm14.55 3.46c.11-.29.38-.47.69-.47h3c.3 0 .57.18.69.46 .11.28.05.6-.17.81l-1.51 1.5c-.3.29-.77.29-1.07 0l-1.51-1.51c-.22-.22-.28-.54-.17-.82ZM1.98 19.98c0-.56.44-1 1-1h18c.55 0 1 .44 1 1 0 .55-.45 1-1 1h-18c-.56 0-1-.45-1-1Zm1-6c-.56 0-1 .44-1 1 0 .55.44 1 1 1h18c.55 0 1-.45 1-1 0-.56-.45-1-1-1h-18Z"/></svg>