<svg viewBox="0 0 24 24" xmlns="http://www.w3.org/2000/svg"><defs><clipPath id="a"><path d="M0 0h24v24H0Z"/></clipPath></defs><path clip-path="url(#a)" fill="currentColor" d="M7.74 3.75c0-.56-.45-1-1-1 -.56 0-1 .44-1 1v7.5c0 .55.44 1 1 1 .55 0 1-.45 1-1v-4.5c.55 0 1-.45 1-1 0-.56-.45-1-1-1v-1ZM22.98 4c0-.56-.45-1-1-1 -.56 0-1 .44-1 1v6.99c0 .55.44 1 1 1 .55 0 1-.45 1-1V6.73c.55 0 1-.45 1-1 0-.56-.45-1-1-1v-.75Zm-9-1.01c.55 0 1 .44 1 1v.75h.25c.55 0 1 .44 1 1 0 .55-.45 1-1 1h-.26v4.24c0 .55-.45 1-1 1 -.56 0-1-.45-1-1V8.5c-.01.45-.34.86-.81.95l-2.51.5c-.35.06-.71-.06-.95-.32 -.24-.27-.32-.64-.2-.98L10 4.14c.17-.53.74-.81 1.26-.64 .52.17.8.74.63 1.26l-.96 2.86 .81-.17c.54-.11 1.06.24 1.17.78 .01.05.01.11.01.17V3.91c0-.56.44-1 1-1ZM-.03 4.73c0-.56.44-1 1-1h2.99c.26 0 .51.1.7.29 .18.18.29.44.29.7 0 1.75-.87 4.45-3.6 5.66 -.51.22-1.1-.01-1.32-.51 -.23-.51 0-1.1.5-1.32 1.33-.6 2.02-1.77 2.28-2.84H.93c-.56 0-1-.45-1-1Zm16.5.25c0-.56.44-1 1-1h1.5c.55 0 1 .44 1 1 0 .55-.45 1-1 1h-.5v2.21l.75-.19c.53-.14 1.07.19 1.21.72 .13.53-.2 1.07-.73 1.21l-2 .49c-.3.07-.62 0-.86-.19 -.25-.19-.39-.49-.39-.79v-4.5Zm1.21 10.2c.02-.08.07-.2.17-.28 .08-.08.24-.18.61-.18 .62 0 .75.39.75.47 0 .21-.05.39-.14.5 -.06.06-.24.26-.91.26 -.56 0-1 .44-1 1 0 .55.44 1 1 1 .26 0 .59.03.82.14 .1.04.14.09.16.12 .01.01.04.06.04.21 0 .42-.14.56-.2.62 -.1.07-.28.15-.56.15 -.34 0-.49-.06-.56-.11 -.06-.04-.15-.12-.25-.4 -.18-.53-.74-.81-1.27-.64 -.53.17-.81.73-.64 1.26 .19.6.53 1.11 1.07 1.45 .51.32 1.09.41 1.62.41 .58 0 1.28-.15 1.84-.63 .59-.51.9-1.25.9-2.15 0-.53-.15-.99-.42-1.38 -.05-.06-.09-.11-.13-.16 .46-.61.54-1.3.54-1.72 0-1.22-1.05-2.48-2.75-2.48 -.83 0-1.47.26-1.94.67 -.45.39-.68.87-.78 1.22 -.16.53.15 1.08.68 1.23 .53.15 1.08-.16 1.23-.69Zm-6.23-.46c-.39 0-.74.36-.74.77 0 .55-.45 1-1 1 -.56 0-1-.45-1-1 0-1.37 1.1-2.78 2.73-2.78 .92 0 1.84.43 2.36 1.23 .54.84.54 1.91-.06 2.93 -.31.52-.73.9-1.11 1.21 -.2.15-.39.29-.57.41l-.08.05c-.16.1-.3.2-.43.3 -.17.12-.3.23-.42.34h1.99c.55 0 1 .44 1 1 0 .55-.45 1-1 1H9.68l-.01-.01 -.01 0c-.56 0-1-.45-1-1 0-1.52.9-2.37 1.66-2.95 .16-.13.32-.24.47-.35l.07-.06c.17-.13.33-.24.48-.36 .29-.24.49-.44.62-.66 .27-.46.17-.72.09-.84 -.11-.17-.36-.33-.69-.33Zm-6.69 2.19c.07-.05.14-.11.21-.16v3.45c0 .55.44 1 1 1 .55 0 1-.45 1-1v-6.5c0-.52-.4-.95-.91-1 -.5-.05-.97.28-1.08.78 -.11.5-.63 1.26-1.36 1.74 -.46.3-.59.92-.28 1.38 .3.45.92.58 1.38.27Z"/></svg>