<svg viewBox="0 0 24 24" xmlns="http://www.w3.org/2000/svg"><path fill="currentColor" d="M3.75 3.75c-.56 0-1 .44-1 1 0 .55.44 1 1 1h16.5c.55 0 1-.45 1-1 0-.56-.45-1-1-1H3.75Zm3.25 5c-1.25 0-2.25 1-2.25 2.25v4.75c0 .55-.45 1-1 1 -.56 0-1-.45-1-1V11c0-2.35 1.9-4.25 4.25-4.25 2.34 0 4.25 1.9 4.25 4.25v4.75c0 .55-.45 1-1 1 -.56 0-1-.45-1-1V11c0-1.25-1.01-2.25-2.25-2.25Zm6.75 5.5c-.56 0-1 .44-1 1 0 .55.44 1 1 1h6.5c.55 0 1-.45 1-1 0-.56-.45-1-1-1h-6.5Zm-10 3.5c-.56 0-1 .44-1 1 0 .55.44 1 1 1h16.5c.55 0 1-.45 1-1 0-.56-.45-1-1-1H3.75Z"/></svg>