<svg viewBox="0 0 24 24" xmlns="http://www.w3.org/2000/svg"><path fill="currentColor" d="M20.38 15.32l-9-3.75c-.51-.22-1.1.02-1.31.53 -.22.5.02 1.09.53 1.3l2.38.99v3.66l-2.39.99c-.51.21-.76.79-.54 1.3 .21.5.79.75 1.3.53l9-3.75c.37-.16.61-.52.61-.93 0-.41-.25-.77-.62-.93Zm-5.39-.08l2.4 1 -2.4 1v-2Zm-7 4.75c0 .55-.45 1-1 1 -.56 0-1-.45-1-1V6.4l-.3.29c-.4.39-1.03.39-1.42 0 -.4-.4-.4-1.03 0-1.42l2-2c.39-.4 1.02-.4 1.41 0l2 2c.39.39.39 1.02 0 1.41 -.4.39-1.03.39-1.42 0l-.3-.3v13.58Zm8-9c-.56 0-1-.45-1-1V6.4l-.3.29c-.4.39-1.03.39-1.42 0 -.4-.4-.4-1.03 0-1.42l2-2c.39-.4 1.02-.4 1.41 0l2 2c.39.39.39 1.02 0 1.41 -.4.39-1.03.39-1.42 0l-.3-.3v3.58c0 .55-.45 1-1 1Z"/></svg>