<svg viewBox="0 0 24 24" xmlns="http://www.w3.org/2000/svg"><path fill="currentColor" d="M2 6c0-.56.44-1 1-1h18c.55 0 1 .44 1 1 0 .55-.45 1-1 1H2.99c-.56 0-1-.45-1-1Zm0 6c0-.56.44-1 1-1h18c.55 0 1 .44 1 1 0 .55-.45 1-1 1H2.99c-.56 0-1-.45-1-1Zm16 6c0-.56.44-1 1-1h2c.55 0 1 .44 1 1 0 .55-.45 1-1 1h-2c-.56 0-1-.45-1-1Zm-3.97-.88c-.07.06-.12.15-.14.22 -.15.53-.7.84-1.23.7 -.54-.15-.85-.7-.71-1.23 .08-.34.29-.79.7-1.17 .43-.41 1.03-.67 1.79-.67 1.61 0 2.53 1.25 2.53 2.36 0 .38-.07 1.01-.47 1.58 .03.03.06.08.09.12 .24.36.37.8.37 1.29 0 .83-.27 1.53-.82 2.02 -.53.46-1.18.61-1.72.61 -.5 0-1.04-.09-1.52-.41 -.5-.34-.8-.83-.98-1.39 -.17-.53.12-1.09.65-1.26 .52-.17 1.08.12 1.25.65 .07.25.15.3.17.31 .02.01.12.07.4.07 .21 0 .33-.06.38-.11 .02-.03.14-.14.14-.54 0-.13-.03-.17-.04-.18 -.01-.01 0 0 0 0 -.01-.02-.03-.04-.11-.08 -.18-.09-.44-.12-.66-.12 -.56 0-1-.45-1-1 0-.56.44-1 1-1 .28 0 .44-.05.532-.09 .08-.04.12-.08.14-.11 .06-.09.1-.24.1-.45 0-.04-.03-.13-.11-.22 -.07-.07-.19-.15-.43-.15 -.28 0-.39.08-.44.12Zm-6.23.5c0-.16.06-.34.17-.47 .1-.13.22-.18.33-.18 .22 0 .4.11.48.24 .05.09.14.31-.09.72 -.11.18-.28.36-.53.57 -.13.1-.27.2-.42.32l-.07.04c-.14.09-.29.2-.43.32 -.69.54-1.49 1.34-1.49 2.76 0 .55.44 1 1 1 0 0 0 0 0 0s0 0 0 0h3c.55 0 .99-.45.99-1 0-.56-.45-1-1-1H8.21c.06-.07.14-.13.23-.2 .11-.1.23-.19.36-.29l.06-.06c.15-.12.33-.25.5-.4 .34-.29.71-.65.98-1.15 .53-.96.53-1.96.04-2.75 -.47-.76-1.31-1.2-2.19-1.2 -1.56 0-2.52 1.39-2.52 2.63 0 .55.44 1 1 1 .55 0 1-.45 1-1Zm-5.27 1.37c-.45.29-1.06.18-1.37-.26 -.32-.46-.21-1.08.24-1.4 .6-.43 1.05-1.12 1.14-1.57 .1-.51.56-.84 1.06-.8 .51.04.91.47.91.99v6c0 .55-.45 1-1 1 -.56 0-1-.45-1-1v-2.99Z"/></svg>