<svg viewBox="0 0 24 24" xmlns="http://www.w3.org/2000/svg"><path fill="currentColor" d="M11.754 10.61c-.13.65-.31 1.31-.56 1.96 -.15.37-.33.75-.53 1.1 -.53.93-1.24 1.76-2.18 2.35 -.94.59-2.1.95-3.5.95 -.56 0-1-.45-1-1 0-.56.44-1 1-1 1.98 0 3.17-.96 3.92-2.3 .04-.09.09-.18.14-.27 .22-.46.4-.95.54-1.45 .18-.66.29-1.35.34-2H4.96c-.56 0-1-.45-1-1 0-.56.44-1 1-1h6c.55 0 1 .44 1 1 0 .36-.02.74-.05 1.14 -.01 0-.01.01-.01.01 -.04.46-.11.95-.2 1.45Zm-4.24.38c-.1.26-.21.5-.34.72 -.26.45-.54.74-.83.93 -.29.18-.71.33-1.36.33 -1.66 0-3 1.34-3 3 0 1.65 1.34 3 3 3 3.64 0 6.06-1.94 7.41-4.33 1.24-2.22 1.58-4.79 1.58-6.68v10c0 1.65 1.34 3 3 3 1.65 0 3-1.35 3-3v-5.05c1.41-.24 2.5-1.48 2.5-2.96 0-1.49-1.09-2.73-2.5-2.96V4.94c0-1.66-1.35-3-3-3 -1.66 0-3 1.34-3 3v3c0-1.66-1.35-3-3-3h-6c-1.66 0-3 1.34-3 3 0 1.65 1.34 3 3 3h2.51Zm11.98 0h-1.5v7c0 .55-.45 1-1 1 -.56 0-1-.45-1-1v-13c0-.56.44-1 1-1 .55 0 1 .44 1 1v4h1.5c.55 0 1 .44 1 1 0 .55-.45 1-1 1Z"/></svg>