<svg viewBox="0 0 24 24" xmlns="http://www.w3.org/2000/svg"><defs><clipPath id="a"><path d="M0 0h24v24H0Z"/></clipPath></defs><path clip-path="url(#a)" fill="currentColor" d="M7.75 3.75c0-.56-.45-1-1-1 -.56 0-1 .44-1 1v7.5c0 .55.44 1 1 1 .55 0 1-.45 1-1v-4.5c.55 0 1-.45 1-1 0-.56-.45-1-1-1v-1ZM23 4c0-.56-.45-1-1-1 -.56 0-1 .44-1 1v6.99c0 .55.44 1 1 1 .55 0 1-.45 1-1V6.73c.55 0 1-.45 1-1 0-.56-.45-1-1-1v-.75Zm-9-1.01c.55 0 1 .44 1 1v.75h.25c.55 0 1 .44 1 1 0 .55-.45 1-1 1H15v4.24c0 .55-.45 1-1 1 -.56 0-1-.45-1-1V8.5c-.01.45-.34.86-.81.95l-2.51.5c-.35.06-.71-.06-.95-.32 -.24-.27-.32-.64-.2-.98l1.5-4.51c.17-.53.74-.81 1.26-.64 .52.17.8.74.63 1.26l-.96 2.86 .81-.17c.54-.11 1.06.24 1.17.78 .01.05.01.11.01.17V3.91c0-.56.44-1 1-1ZM-.01 4.73c0-.56.44-1 1-1h3c.26 0 .51.1.7.29 .18.18.29.44.29.7 0 1.75-.87 4.45-3.6 5.66 -.51.22-1.1-.01-1.32-.51 -.23-.51 0-1.1.5-1.32 1.33-.6 2.02-1.77 2.28-2.84H.96c-.56 0-1.01-.45-1.01-1Zm16.5.25c0-.56.44-1 1-1h1.5c.55 0 1 .44 1 1 0 .55-.45 1-1 1h-.5v2.21l.75-.19c.53-.14 1.07.19 1.21.72 .13.53-.2 1.07-.73 1.21l-2 .49c-.3.07-.62 0-.86-.19 -.25-.19-.39-.49-.39-.79v-4.5Zm-5.32 12.76l4.29-5.16c.35-.43.98-.49 1.4-.13 .42.35.48.98.12 1.4l-5 6c-.38.45-1.06.48-1.48.06l-2.51-2.5c-.4-.4-.4-1.03 0-1.42 .39-.4 1.02-.4 1.41 0l1.72 1.72Z"/></svg>