<svg viewBox="0 0 24 24" xmlns="http://www.w3.org/2000/svg"><g fill="currentColor"><path d="M3.29 5.99c-.5 0-.9.4-.9.9 0 .49.4.9.9.9h17.39c.49 0 .9-.41.9-.9 0-.5-.41-.9-.9-.9H3.28Zm0 3.6c-.5 0-.9.4-.9.9 0 .49.4.9.9.9h11.34c.83-.39 1.77-.6 2.75-.6s1.91.21 2.75.6h.54c.49 0 .9-.41.9-.9 0-.5-.41-.91-.9-.91H3.27Zm0 3.6h9c-.45.53-.81 1.14-1.06 1.8H3.28c-.5 0-.9-.41-.9-.9 0-.5.4-.9.9-.9Zm0 3.6h7.52c-.02.19-.03.39-.03.6 0 .4.03.81.1 1.2H3.27c-.5 0-.9-.41-.9-.9 0-.5.4-.9.9-.9Zm19.49.6c0 2.98-2.42 5.39-5.4 5.39 -2.99 0-5.4-2.42-5.4-5.4 0-2.99 2.41-5.4 5.4-5.4 2.98 0 5.4 2.41 5.4 5.4Zm-5.4-3c-.34 0-.6.26-.6.6v2.4c0 .33.26.6.6.6 .33 0 .6-.27.6-.6v-2.4c0-.34-.27-.6-.6-.6Zm0 6.15c.41 0 .75-.34.75-.75 0-.42-.34-.75-.75-.75 -.42 0-.75.33-.75.75 0 .41.33.75.75.75Z"/><path fill="currentColor" fill-rule="evenodd" d="M2.34 6.89c0-.53.42-.95.95-.95h17.39c.52 0 .95.42.95.95 0 .52-.43.95-.95.95H3.28c-.53 0-.95-.43-.95-.95Zm.95-.85c-.47 0-.85.38-.85.85 0 .46.38.85.85.85h17.39c.46 0 .85-.39.85-.85 0-.47-.39-.85-.85-.85H3.28Zm-.95 4.45c0-.53.42-.96.95-.96h17.39c.52 0 .95.42.95.95 0 .52-.43.95-.95.95h-.56l-.01-.01c-.84-.39-1.76-.6-2.74-.6 -.98 0-1.91.21-2.74.59l-.01 0H3.26c-.53 0-.95-.43-.95-.95Zm.95-.86c-.47 0-.85.38-.85.85 0 .46.38.85.85.85h11.33c.84-.39 1.77-.6 2.76-.6 .98 0 1.92.21 2.76.6h.53c.46 0 .85-.39.85-.85 0-.47-.39-.86-.85-.86H3.27Zm14.09 2.4c-2.96 0-5.35 2.39-5.35 5.35 0 2.95 2.39 5.34 5.35 5.34 2.95 0 5.35-2.4 5.35-5.35 0-2.96-2.4-5.35-5.35-5.35Zm-5.45 5.35c0-3.01 2.44-5.45 5.45-5.45 3.01 0 5.45 2.44 5.45 5.45 0 3-2.44 5.44-5.45 5.44 -3.01 0-5.45-2.44-5.45-5.45Zm-8.65-4.15c-.47 0-.85.38-.85.85 0 .46.38.85.85.85h7.91c.24-.62.57-1.19.98-1.7H3.26Zm-.95.85c0-.53.42-.95.95-.95h9.11l-.07.08c-.44.53-.8 1.13-1.06 1.78l-.02.03H3.25c-.53 0-.95-.43-.95-.95Zm14.39.9c0-.36.29-.65.65-.65 .35 0 .65.29.65.65v2.4c0 .35-.3.65-.65.65 -.36 0-.65-.3-.65-.65v-2.4Zm.65-.55c-.31 0-.55.24-.55.55v2.4c0 .3.24.55.55.55 .3 0 .55-.25.55-.55v-2.4c0-.31-.25-.55-.55-.55Zm-14.1 2.4c-.47 0-.85.38-.85.85 0 .46.38.85.85.85h7.54c-.07-.38-.1-.76-.1-1.15 0-.19 0-.37.02-.55H3.25Zm-.95.85c0-.53.42-.95.95-.95h7.58l-.01.05c-.02.19-.03.39-.03.59 0 .4.03.8.1 1.19l.01.05H3.25c-.53 0-.95-.43-.95-.95Zm14.24 2.1c0-.45.35-.8.8-.8 .44 0 .8.35.8.8 0 .44-.36.8-.8.8 -.45 0-.8-.36-.8-.8Zm.8-.7c-.39 0-.7.31-.7.7 0 .38.31.7.7.7 .38 0 .7-.32.7-.7 0-.39-.32-.7-.7-.7Z"/></g></svg>