<svg viewBox="0 0 24 24" xmlns="http://www.w3.org/2000/svg"><path fill="currentColor" d="M3 5c0-1.66 1.34-3 3-3h4c.55 0 1 .44 1 1v7c0 .55-.45 1-1 1 -.56 0-1-.45-1-1V8H6.33c-.04 0-.08.01-.14.03 -.14.04-.32.11-.5.24 -.31.22-.72.67-.72 1.71 0 .55-.45 1-1 1 -.56 0-1-.45-1-1 0-1.28.4-2.19.95-2.81 -.59-.55-.96-1.33-.96-2.2Zm3.27 1h2.72V4h-3c-.56 0-1 .44-1 1 0 .55.44 1 1 1h.24c0-.01.01-.01.02 0Zm11.22-4c.55 0 1 .44 1 1v15.58l1.79-1.8c.39-.4 1.02-.4 1.41 0 .39.39.39 1.02 0 1.41l-3.5 3.5c-.4.39-1.03.39-1.42 0l-3.5-3.5c-.4-.4-.4-1.03 0-1.42 .39-.4 1.02-.4 1.41 0l1.79 1.79V2.97c0-.56.44-1 1-1ZM7.96 12.67c-.14-.41-.52-.68-.95-.68 -.43 0-.81.27-.95.67l-2.8 8.069c-.19.52.09 1.09.61 1.27 .52.18 1.09-.1 1.27-.62l.41-1.19h2.87l.41 1.18c.18.52.75.79 1.27.61 .52-.19.79-.76.61-1.28l-2.8-8.069ZM6.27 18.2l.74-2.15 .74 2.14H6.26Z"/></svg>