<svg viewBox="0 0 24 24" xmlns="http://www.w3.org/2000/svg"><path fill="currentColor" d="M5.95 3.41c-.14-.4-.52-.66-.93-.67 -.42-.01-.8.24-.95.63l-2.52 6.5c-.2.51.05 1.09.57 1.29 .51.19 1.09-.06 1.29-.58l.21-.57h2.53l.19.53c.18.52.75.79 1.27.6 .52-.19.79-.76.6-1.28L5.9 3.36Zm-.48 4.63H4.41l.55-1.43 .5 1.42Zm3.51-4.3c0-.56.44-1 .99-1l.01 0h2.14l.02-.01c.21-.01.85-.01 1.45.33 .33.18.64.46.86.88 .21.4.32.88.32 1.41 0 .52-.12.97-.32 1.33 .13.12.25.27.36.45 .25.41.37.9.37 1.45 0 .53-.13 1.01-.38 1.41 -.25.39-.59.66-.91.83 -.63.33-1.29.37-1.59.37H9.92c-.56 0-1-.45-1-1.01v-6.5Zm3.16 2.25c.13-.01.32-.03.46-.12 .05-.04.09-.07.11-.12 .02-.06.07-.17.07-.4 0-.28-.06-.42-.09-.47 -.03-.05-.05-.07-.09-.09 -.11-.07-.28-.08-.5-.08h-1.17v1.24h1.16Zm0 2c-.01 0-.01 0-.02 0h-1.17v1.24h1.37c.17 0 .44-.04.63-.14 .08-.05.13-.1.16-.14 .02-.05.07-.15.07-.35 0-.26-.06-.38-.09-.42 -.03-.05-.06-.08-.13-.11 -.18-.09-.42-.1-.67-.1h-.21Zm8.46-4.96c.68.33 1.2.96 1.55 1.92 .18.51-.09 1.09-.61 1.27 -.52.18-1.1-.09-1.28-.61 -.22-.61-.45-.76-.56-.81 -.16-.08-.35-.1-.76-.1 -.32 0-.51.09-.64.21 -.16.13-.3.35-.4.63 -.11.27-.17.57-.2.8 -.02.11-.03.2-.03.26 -.01.03-.01.05-.01.06l-.01.01c0 .52.01 1.15.21 1.66 .09.23.21.41.37.54 .15.12.38.24.77.28 .11.01.37.01.62-.08 .22-.09.44-.24.6-.59 .22-.51.82-.73 1.32-.5 .5.22.72.82.49 1.32 -.84 1.85-2.69 1.88-3.28 1.82 -.74-.09-1.35-.34-1.83-.74 -.48-.4-.78-.89-.97-1.37 -.31-.78-.37-1.64-.35-2.47 0-.04 0-.08 0-.13 0-.11.01-.25.03-.42 .04-.33.12-.79.3-1.26 .17-.47.46-1.01.93-1.43 .49-.45 1.15-.73 1.96-.73 .01 0 .02-.01.04-.01 .35-.01.98-.01 1.59.29Zm-2.76 11.88c-.1.08-.16.2-.18.27 -.16.53-.71.83-1.24.68 -.54-.16-.84-.71-.69-1.24 .1-.36.32-.84.77-1.23 .46-.42 1.11-.68 1.93-.68 1.7 0 2.75 1.26 2.75 2.47 0 .42-.08 1.11-.55 1.71 .04.05.08.1.12.15 .27.38.41.85.41 1.37 0 .9-.31 1.64-.91 2.14 -.57.47-1.26.62-1.85.62 -.54 0-1.12-.09-1.63-.42 -.54-.34-.88-.85-1.08-1.46 -.18-.53.11-1.09.63-1.27 .52-.18 1.08.11 1.26.63 .09.27.19.35.24.39 .07.04.22.1.55.1 .28 0 .46-.08.55-.16 .06-.06.19-.2.19-.63 0-.15-.04-.2-.05-.22 -.02-.03-.07-.08-.17-.13 -.24-.11-.57-.15-.83-.15 -.56 0-1-.45-1-1 0-.56.44-1 1-1 .66 0 .85-.2.9-.27 .08-.11.13-.29.13-.51 0-.09-.13-.48-.75-.48 -.37 0-.54.1-.62.17Zm-7.14.59c0-.41.34-.78.73-.78 .33 0 .57.15.68.32 .07.11.17.37-.1.83 -.13.21-.33.42-.63.65 -.15.11-.31.22-.49.35l-.08.05c-.16.1-.32.22-.48.34 -.77.57-1.67 1.42-1.67 2.94 0 .55.44 1 1 1 0 0 0 0 0 0s0 0 0 0h3.43c.55 0 1-.45 1-1 0-.56-.45-1-1-1h-2c.11-.11.24-.23.41-.35 .13-.11.27-.2.42-.31l.07-.06c.17-.13.37-.27.56-.42 .38-.31.79-.69 1.1-1.22 .59-1.02.59-2.1.05-2.94 -.52-.8-1.44-1.24-2.37-1.24 -1.64 0-2.74 1.4-2.74 2.77 0 .55.44 1 1 1 .55 0 .99-.45.99-1Zm-5.73 1.26c-.08.05-.15.1-.22.15 -.46.3-1.09.18-1.39-.28 -.31-.46-.19-1.09.27-1.39 .72-.49 1.24-1.25 1.35-1.75 .1-.51.57-.84 1.07-.79 .5.04.9.47.9.99v6.5c0 .55-.45 1-1 1 -.56 0-1-.45-1-1v-3.46Z"/></svg>