<svg viewBox="0 0 24 24" xmlns="http://www.w3.org/2000/svg"><g fill="currentColor"><path d="M18 7.12v-1.5c0-.63-.51-1.13-1.125-1.13h-9.76c-.63 0-1.125.5-1.125 1.12v1.5c0 .62.5 1.12 1.125 1.12 .62 0 1.12-.51 1.12-1.13v-.38h2.62v10.5h-.38c-.63 0-1.13.5-1.13 1.125 0 .62.5 1.125 1.12 1.125h3c.62 0 1.125-.51 1.125-1.125 0-.63-.51-1.125-1.125-1.125h-.375V6.71h2.625v.37c0 .62.5 1.12 1.12 1.12 .62 0 1.125-.51 1.125-1.13Zm-11.63 2.9c-.47-.42-1.173-.38-1.59.09l-3 3.375c-.38.42-.38 1.06-.001 1.49l3 3.375c.22.25.53.37.84.37 .26 0 .53-.1.74-.29 .46-.42.5-1.13.09-1.59l-2.34-2.63 2.33-2.63c.41-.47.37-1.18-.1-1.59Zm12.84.09l3 3.37v0c.37.42.37 1.06 0 1.49l-3 3.375c-.23.25-.54.37-.85.37 -.27 0-.54-.1-.75-.29 -.47-.42-.51-1.13-.1-1.59l2.33-2.628 -2.34-2.628c-.42-.47-.38-1.18.09-1.59 .46-.42 1.17-.38 1.58.09Z"/><path fill="currentColor" fill-rule="evenodd" d="M5.95 5.62c0-.65.52-1.18 1.17-1.18h9.75c.64 0 1.17.52 1.17 1.17v1.5c0 .64-.53 1.17-1.18 1.17 -.65 0-1.18-.53-1.18-1.18v-.33h-2.53v10.4h.32c.64 0 1.17.52 1.17 1.17 0 .64-.53 1.17-1.18 1.17h-3c-.65 0-1.18-.53-1.18-1.18 0-.65.52-1.18 1.17-1.18h.32V6.74H8.24v.32c0 .64-.53 1.17-1.18 1.17 -.65 0-1.18-.53-1.18-1.18v-1.5Zm1.17-1.08c-.6 0-1.08.48-1.08 1.07v1.5c0 .59.48 1.07 1.07 1.07 .59 0 1.07-.49 1.07-1.08v-.43h2.72v10.6h-.43c-.6 0-1.08.48-1.08 1.07 0 .59.48 1.07 1.07 1.07h3c.59 0 1.07-.49 1.07-1.08 0-.6-.49-1.08-1.08-1.08h-.43V6.64h2.72v.42c0 .59.48 1.07 1.07 1.07 .59 0 1.07-.49 1.07-1.08v-1.5c0-.6-.49-1.08-1.08-1.08H7.04Zm-2.38 5.54c.43-.49 1.17-.53 1.65-.1 .48.43.52 1.17.09 1.65l-2.31 2.59 2.3 2.59c.43.48.38 1.22-.1 1.65 -.23.19-.51.29-.79.29 -.33 0-.65-.14-.88-.4m0 0l-3-3.38c-.4-.45-.4-1.12-.001-1.57l3-3.38m.07.06c.39-.45 1.07-.49 1.51-.09 .44.39.48 1.07.08 1.51m0 0l-2.37 2.66 2.36 2.66c.39.44.35 1.12-.09 1.51 -.21.18-.46.27-.72.27 -.3 0-.6-.13-.81-.37l-3.01-3.38c-.37-.41-.37-1.03-.01-1.43l3-3.38m14.35 0c-.4-.45-1.08-.49-1.52-.09 -.45.39-.49 1.07-.09 1.51l2.36 2.66 -2.37 2.66c-.4.44-.36 1.12.08 1.51 .2.18.45.27.71.27 .29 0 .59-.13.8-.37m0 0l3-3.38c.36-.41.36-1.03 0-1.43l-.02-.02v-.01l-2.99-3.37m.07-.07c-.44-.49-1.18-.53-1.66-.1 -.49.43-.53 1.17-.1 1.65l2.3 2.59 -2.31 2.59c-.44.48-.39 1.22.09 1.65 .22.19.5.29.78.29 .32 0 .64-.14.87-.4l3-3.38c.39-.45.39-1.11.01-1.55v-.01l-3.02-3.39Z"/></g></svg>