<svg viewBox="0 0 24 24" xmlns="http://www.w3.org/2000/svg"><path fill="currentColor" d="M3 2c.55 0 1 .44 1 1v2.5h3V3c0-.56.44-1 1-1 .55 0 1 .44 1 1v6.99c0 .55-.45 1-1 1 -.56 0-1-.45-1-1.01v-2.5H4v2.5c0 .55-.45 1-1 1 -.56 0-1-.45-1-1v-7c0-.56.44-1 1-1Zm0 17c-.56 0-1 .44-1 1 0 .55.44 1 1 1h18c.55 0 1-.45 1-1 0-.56-.45-1-1-1H3Zm-1-4c0-.56.44-1 1-1h18c.55 0 1 .44 1 1 0 .55-.45 1-1 1H3c-.56 0-1-.45-1-1Zm10.99-5c0 .55.45 1 1 1s1-.45 1-1V3c0-.46-.32-.86-.77-.97 -.45-.11-.92.11-1.12.51 -.5 1-1.53 1.55-1.56 1.56 -.49.25-.69.85-.44 1.34 .24.5.85.7 1.34.45 .01-.01.02-.02.05-.03 .09-.06.27-.16.49-.3v4.43Z"/></svg>