<svg viewBox="0 0 24 24" xmlns="http://www.w3.org/2000/svg"><g fill="currentColor"><path d="M13.79 3.6c-2.66 0-4.8 2.14-4.8 4.8 0 2.65 2.14 4.79 4.8 4.79h1.8v7.8c0 .33.26.6.6.6 .33 0 .6-.27.6-.6V4.79h1.2v16.19c0 .33.26.6.6.6 .33 0 .6-.27.6-.6V4.78h.6c.33 0 .6-.27.6-.6 0-.34-.27-.6-.6-.6h-6ZM6.16 9.17c.23-.24.61-.24.84 0 .23.23.23.61 0 .84l-1.98 1.97 1.97 1.97c.23.23.23.61 0 .84 -.24.23-.62.23-.85 0l-2.4-2.4c-.24-.24-.24-.62 0-.85l2.4-2.41Z"/><path fill="currentColor" fill-rule="evenodd" d="M8.94 8.4c0-2.68 2.17-4.85 4.85-4.85h6c.35 0 .65.29.65.65 0 .35-.3.65-.65.65h-.55v16.14c0 .35-.3.65-.65.65 -.36 0-.65-.3-.65-.65V4.84h-1.1v16.14c0 .35-.3.65-.65.65 -.36 0-.65-.3-.65-.65v-7.75h-1.75c-2.68 0-4.85-2.18-4.85-4.85Zm4.85-4.75c-2.63 0-4.75 2.12-4.75 4.75 0 2.62 2.12 4.74 4.75 4.74h1.85v7.85c0 .3.24.55.55.55 .3 0 .55-.25.55-.55V4.74h1.3v16.24c0 .3.24.55.55.55 .3 0 .55-.25.55-.55V4.73h.65c.3-.001.55-.25.55-.55 0-.31-.25-.55-.55-.55h-6ZM6.97 9.21c-.22-.22-.57-.22-.78 0l-2.4 2.39c-.22.21-.22.56 0 .77l2.4 2.4c.21.21.56.21.77 0 .21-.22.21-.57 0-.78l-2.02-2.02 2.01-2.02c.21-.22.21-.57 0-.78Zm-.85-.08c.25-.26.66-.26.91 0 .25.25.25.66 0 .91l-1.95 1.94 1.94 1.94c.25.25.25.66 0 .91 -.26.25-.67.25-.92 0l-2.4-2.4c-.26-.26-.26-.67 0-.92l2.4-2.4Z"/></g></svg>