<svg viewBox="0 0 24 24" xmlns="http://www.w3.org/2000/svg"><path fill="currentColor" d="M7.75 3c.4 0 .76.24.92.61l3.74 9c.21.5-.03 1.09-.54 1.3 -.51.21-1.1-.03-1.31-.54l-1-2.39H5.89l-1 2.38c-.22.5-.8.75-1.31.53 -.51-.22-.76-.8-.54-1.31l3.75-9.01c.15-.38.51-.62.92-.62Zm0 3.6l-1 2.4h2l-1-2.4Zm9.54-1.31c.39-.4 1.02-.4 1.41 0l1.92 1.93c.22.18.36.45.36.77v0 0c-.01.31-.15.58-.37.77l-1.93 1.93c-.4.39-1.03.39-1.42 0 -.4-.4-.4-1.03 0-1.42l.29-.3h-4.59c-.56 0-1-.45-1-1 0-.56.44-1 1-1h4.58l-.3-.3c-.4-.4-.4-1.03 0-1.42Zm1.41 9c-.4-.4-1.03-.4-1.42 0 -.4.39-.4 1.02 0 1.41l.29.29H3.98c-.56 0-1 .44-1 1 0 .55.44 1 1 1h13.58l-.3.29c-.4.39-.4 1.02 0 1.41 .39.39 1.02.39 1.41 0l2-2c.39-.4.39-1.03 0-1.42l-2-2Z"/></svg>