<svg viewBox="0 0 24 24" xmlns="http://www.w3.org/2000/svg"><path fill="currentColor" d="M7 3c.55 0 1 .44 1 1v13.58l.29-.3c.39-.4 1.02-.4 1.41 0 .39.39.39 1.02 0 1.41l-2 2c-.4.39-1.03.39-1.42 0l-2-2c-.4-.4-.4-1.03 0-1.42 .39-.4 1.02-.4 1.41 0l.29.29V3.97c0-.56.44-1 1-1Zm8 12c0-.56.44-1 1-1 .55 0 1 .44 1 1v2.58l.29-.3c.39-.4 1.02-.4 1.41 0 .39.39.39 1.02 0 1.41l-2 2c-.4.39-1.03.39-1.42 0l-2-2c-.4-.4-.4-1.03 0-1.42 .39-.4 1.02-.4 1.41 0l.29.29v-2.59Zm5-11c0-.56-.45-1-1-1 -.56 0-1 .44-1 1v8c0 .55.44 1 1 1 .55 0 1-.45 1-1V9h1c.55 0 1-.45 1-1 0-.56-.45-1-1-1h-1V4Zm-8 0c-.56 0-1 .44-1 1 0 .55.44 1 1 1h3v.25c0 .89-.19 1.86-.65 2.58 -.42.65-1.11 1.16-2.36 1.16 -.56 0-1 .44-1 1 0 .55.44 1 1 1 1.94 0 3.26-.87 4.04-2.09 .74-1.16.95-2.56.95-3.67V4.98c0-.56-.45-1-1-1h-4Z"/></svg>