<svg viewBox="0 0 24 24" xmlns="http://www.w3.org/2000/svg"><path fill="currentColor" d="M3.49 16.5c.82 0 1.49.67 1.49 1.49s-.68 1.49-1.5 1.49c-.83 0-1.5-.68-1.5-1.5 0-.83.67-1.5 1.49-1.5Zm4 .49h13.5c.55 0 1 .44 1 1 0 .51-.39.93-.89.99l-.12 0H7.47c-.56 0-1-.45-1-1 0-.52.38-.94.88-1l.11-.01h13.5H7.45Zm-4.01-6.5c.82 0 1.49.67 1.49 1.49s-.68 1.49-1.5 1.49c-.83 0-1.5-.68-1.5-1.5 0-.83.67-1.5 1.49-1.5Zm4 .49h13.5c.55 0 1 .44 1 1 0 .51-.39.93-.89.99l-.12 0H7.46c-.56 0-1-.45-1-1 0-.52.38-.94.88-1l.11-.01h13.5H7.44Zm-4.01-6.5c.82 0 1.49.67 1.49 1.49s-.68 1.49-1.5 1.49c-.83 0-1.5-.68-1.5-1.5 0-.83.67-1.5 1.49-1.5Zm4 .49h13.5c.55 0 1 .44 1 1 0 .51-.39.93-.89.99l-.12 0H7.45c-.56 0-1-.45-1-1 0-.52.38-.94.88-1l.11-.01h13.5H7.43Z"/></svg>