<svg viewBox="0 0 24 24" xmlns="http://www.w3.org/2000/svg"><path fill="currentColor" d="M16.51 2.75c.41 0 .78.27.92.66l5.5 15.5c.18.52-.09 1.09-.61 1.27 -.53.18-1.1-.09-1.28-.61l-1.28-3.59H12.8l-1.4 3.61c-.2.51-.78.77-1.3.57 -.52-.2-.78-.78-.58-1.3l6-15.5c.15-.39.52-.65.94-.64Zm-.06 3.87l-2.86 7.37h5.47l-2.62-7.38ZM8.24 20.25c-.46 0-.84-.3-.96-.71 -.9.46-1.74.7-2.55.7 -1.98 0-3.5-1.41-3.5-3.5 0-.93.31-1.74.91-2.36 .59-.62 1.43-1.02 2.46-1.15 .85-.11 1.72-.06 2.59.13 -.05-.34-.17-.58-.34-.75 -.23-.23-.61-.37-1.19-.4 -.95-.05-1.56.09-1.88.32 -.46.31-1.08.2-1.4-.25 -.32-.46-.21-1.08.24-1.4 .71-.51 1.67-.72 2.83-.7l0 0 .29.01c1.02.05 1.86.37 2.46.94 .6.57.93 1.37.97 2.33l0 0 0 .21v5.5c0 .5-.38.92-.87.99l-.01 0 -.12 0h-.01Zm-3.38-4.98c-.58.07-.99.25-1.24.5 -.26.24-.39.58-.39 1 0 .49.15.86.41 1.1 .25.24.62.39 1.08.39 .6 0 1.39-.29 2.36-.93l.13-.1v-1.78l-.13-.04c-.78-.22-1.53-.28-2.26-.19Z"/></svg>