<svg viewBox="0 0 24 24" xmlns="http://www.w3.org/2000/svg"><path fill="currentColor" d="M3.75 3.75c-.56 0-1 .44-1 1 0 .55.44 1 1 1h16.5c.55 0 1-.45 1-1 0-.56-.45-1-1-1H3.75Zm12.12 5.5c-.39-.86-1.05-1.56-1.88-2 -.6-.32-1.28-.5-2.01-.5 -.73 0-1.41.18-2.01.5 -.83.44-1.49 1.14-1.88 2 -.21.46-.34.96-.37 1.5 -.01.08-.01.16-.01.25v4.75c0 .18.04.35.13.5 .17.29.49.5.86.5 .55 0 1-.45 1-1V11c0-.03 0-.05 0-.07 0-.07 0-.13.01-.19 .06-.61.37-1.14.82-1.5 .38-.32.87-.5 1.41-.5 .53 0 1.02.18 1.41.5 .44.36.75.89.82 1.5 0 .06.01.12.01.18 0 .02 0 .04 0 .06v4.75c0 .55.44 1 1 1 .37 0 .69-.21.86-.5 .08-.15.13-.32.13-.5v-4.75c0-.09-.01-.17-.01-.25 -.04-.54-.16-1.04-.37-1.5Zm-12.13-2h4.57c-.57.55-1.01 1.23-1.28 2h-3.3c-.56 0-1-.45-1-1 0-.56.44-1 1-1Zm0 3.5h3c-.01.08-.01.16-.01.25v1.75h-3c-.56 0-1-.45-1-1 0-.56.44-1 1-1Zm0 3.5h3v1.5c0 .17.02.34.06.5H3.73c-.56 0-1-.45-1-1 0-.56.44-1 1-1Zm13.5 1.5c0 .17-.03.34-.07.5h3.06c.55 0 1-.45 1-1 0-.56-.45-1-1-1h-3v1.5Zm3-3h-3V11c0-.09-.01-.17-.01-.25h3c.55 0 1 .44 1 1 0 .55-.45 1-1 1Zm0-3.5h-3.3c-.27-.77-.72-1.45-1.28-2h4.57c.55 0 1 .44 1 1 0 .55-.45 1-1 1Zm-16.5 8.5h16.5c.55 0 1 .44 1 1 0 .55-.45 1-1 1H3.74c-.56 0-1-.45-1-1 0-.56.44-1 1-1Z"/></svg>