<svg viewBox="0 0 24 24" xmlns="http://www.w3.org/2000/svg"><path fill="currentColor" d="M7.91 1.6c-.16-.37-.52-.61-.92-.61 -.41 0-.77.23-.92.6l-3 7c-.22.5.01 1.09.52 1.31 .5.21 1.09-.02 1.31-.53l.59-1.4h2.96l.59 1.39c.21.5.8.74 1.31.52 .5-.22.74-.81.52-1.32l-3-7Zm-.3 4.39H6.35l.62-1.47 .62 1.46Zm10.87-3c0-.56-.45-1-1-1 -.56 0-1 .44-1 1v15.58l-1.8-1.8c-.4-.4-1.03-.4-1.42 0 -.4.39-.4 1.02 0 1.41l3.5 3.5c.39.39 1.02.39 1.41 0l3.5-3.5c.39-.4.39-1.03 0-1.42 -.4-.4-1.03-.4-1.42 0l-1.8 1.79V2.96Zm-12.75 10c.41 0 .75-.34.75-.75 0-.42-.34-.75-.75-.75 -.42 0-.75.33-.75.75 0 .41.33.75.75.75Zm3.25-.75c0 .41-.34.75-.75.75 -.42 0-.75-.34-.75-.75 0-.42.33-.75.75-.75 .41 0 .75.33.75.75Zm-2 1.25c-2.78 0-5.25 2.01-5.25 4.75 0 2.73 2.47 4.75 5.25 4.75 2.77 0 5.25-2.02 5.25-4.75 0-2.74-2.48-4.75-5.25-4.75Zm-3.25 4.75c0-1.41 1.33-2.75 3.25-2.75 1.91 0 3.25 1.34 3.25 2.75 0 1.4-1.34 2.75-3.25 2.75 -1.92 0-3.25-1.35-3.25-2.75Z"/></svg>