<svg viewBox="0 0 24 24" xmlns="http://www.w3.org/2000/svg"><g fill="currentColor"><path d="M22.8 18.9v.6c-.01.55-.23 1.09-.62 1.48 -.4.39-.93.61-1.49.61H3.28c-.56-.01-1.1-.23-1.49-.62 -.4-.4-.62-.93-.62-1.49v-.6c0-.24.09-.47.26-.64 .16-.17.39-.27.63-.27 .23 0 .46.09.63.26 .16.16.26.39.26.63v.6c0 .07.03.15.08.21 .05.05.13.08.21.08h17.4c.07 0 .15-.04.21-.09 .05-.06.08-.14.08-.22v-.6c0-.24.09-.47.26-.64 .16-.17.39-.27.63-.27 .23 0 .46.09.63.26 .16.16.26.39.26.63ZM4.59 12.45c.9-.57 1.96-.82 3.03-.74 .44.02.88.08 1.32.19 -.03-.2-.1-.39-.22-.54 -.12-.16-.27-.29-.45-.37 -.48-.22-1-.32-1.52-.29 -.45 0-.88.1-1.29.28 -.11.05-.23.08-.34.09 -.12 0-.24-.01-.35-.05 -.12-.04-.22-.1-.31-.18 -.09-.08-.17-.18-.22-.28 -.06-.11-.09-.23-.1-.34 -.01-.12 0-.24.04-.35 .03-.12.09-.22.17-.31 .07-.09.17-.17.27-.22 .63-.3 1.32-.46 2.02-.47 .82-.05 1.64.11 2.38.46 .56.3 1.02.75 1.32 1.32 .3.56.42 1.19.36 1.83v4.85c0 .23-.08.47-.24.64 -.17.17-.39.27-.63.28 -.24 0-.48-.08-.65-.24 -.18-.17-.28-.39-.29-.63 -.51.35-1.09.59-1.7.71 -.61.11-1.24.1-1.84-.03 -.6-.16-1.14-.48-1.55-.94 -.42-.46-.69-1.03-.78-1.63 -.1-.61-.01-1.23.25-1.79 .25-.56.67-1.03 1.19-1.35Zm1.33 3.96c.57.06 1.14-.01 1.68-.22 .53-.21 1.01-.55 1.38-.99v-1.42c-.48-.17-.97-.26-1.46-.29 -.68-.07-1.36.08-1.95.43 -.24.13-.43.32-.55.56 -.12.23-.17.5-.13.77 .03.26.15.51.33.71 .17.19.41.33.67.4Zm7.26.98V4.79c0-.24.09-.47.26-.64 .16-.17.39-.27.63-.27 .23 0 .46.09.63.26 .16.16.26.39.26.63v5.58c.58-.51 1.32-.79 2.1-.79 1.03.08 1.98.57 2.66 1.36 .67.78 1.01 1.8.93 2.83 .07 1.03-.27 2.05-.94 2.83 -.68.78-1.64 1.27-2.67 1.36 -.78-.01-1.52-.29-2.1-.79v.18c0 .23-.1.46-.27.63 -.17.16-.4.26-.64.26s-.47-.1-.64-.27c-.17-.17-.27-.4-.27-.64Zm2.1-3.6c-.07.55.07 1.11.41 1.56 .33.44.83.74 1.38.83 .55-.09 1.04-.39 1.38-.84 .33-.45.48-1.01.41-1.57 .06-.56-.08-1.12-.42-1.57 -.34-.45-.84-.75-1.39-.84 -.56.08-1.05.38-1.39.83 -.34.44-.49 1-.42 1.56Z"/><path fill="currentColor" fill-rule="evenodd" d="M14.1 3.95c-.23 0-.45.08-.61.24 -.16.15-.25.37-.25.6v12.6c0 .22.08.44.24.6 .15.15.37.24.6.24 .22 0 .44-.09.6-.25 .15-.16.24-.38.24-.61v-.3l.08.07c.57.49 1.3.77 2.06.77 1.01-.09 1.96-.57 2.62-1.35 .66-.78.99-1.79.92-2.81l-.01-.01c.07-1.02-.26-2.03-.93-2.81 -.67-.78-1.61-1.26-2.63-1.35 -.76 0-1.5.28-2.07.77l-.09.07v-5.7c0-.23-.09-.45-.25-.61 -.16-.16-.38-.25-.61-.25Zm-.68.17c.17-.18.41-.28.67-.28 .25 0 .49.1.67.27 .17.17.27.41.27.67v5.48c.57-.47 1.3-.73 2.04-.74l0-.01c1.04.08 2.01.58 2.69 1.37 .68.79 1.02 1.82.94 2.87 .07 1.04-.27 2.07-.95 2.87 -.69.79-1.66 1.29-2.7 1.37l-.01 0c-.75-.01-1.47-.27-2.05-.74v.08c0 .25-.11.49-.28.67 -.18.17-.42.27-.68.27 -.26 0-.5-.11-.68-.28 -.18-.18-.28-.42-.28-.68V4.71c0-.26.1-.5.27-.68ZM9.07 9.43c-.74-.35-1.55-.51-2.37-.47l-.01 0c-.7.01-1.38.17-2.01.46 -.1.04-.19.11-.27.2 -.08.08-.13.18-.17.28 -.04.1-.05.21-.05.32 0 .11.03.22.08.31 .04.09.11.18.2.26 .08.07.18.12.28.16 .1.03.21.04.32.04 .11-.01.22-.04.31-.09l0-.01c.41-.18.85-.28 1.29-.29 .52-.04 1.05.06 1.53.28 .18.08.34.21.46.38 .12.16.19.35.22.56l0 .07 -.08-.02c-.44-.11-.87-.17-1.32-.2l-.01-.01c-1.06-.09-2.11.16-3.01.72 -.52.31-.93.77-1.18 1.32 -.26.54-.35 1.15-.25 1.75 .09.59.35 1.15.76 1.6 .4.44.93.76 1.51.91 .59.13 1.21.14 1.81.02 .6-.12 1.17-.36 1.67-.71l.07-.06 0 .09c0 .22.1.43.27.59 .16.15.38.23.61.22 .22-.01.43-.11.59-.28 .15-.17.23-.39.22-.62v-.01 -4.86c.05-.63-.07-1.26-.37-1.81 -.3-.56-.75-1.01-1.31-1.3ZM6.7 8.86c.83-.05 1.65.11 2.41.47l0 0c.57.3 1.03.77 1.34 1.34 .3.56.43 1.21.37 1.85v4.84c0 .25-.09.49-.26.68 -.18.18-.41.29-.67.3 -.26 0-.5-.09-.69-.26 -.17-.16-.27-.36-.3-.58 -.5.33-1.06.55-1.65.67 -.62.11-1.25.1-1.86-.03l-.01-.01c-.61-.16-1.15-.49-1.57-.95 -.42-.47-.7-1.04-.79-1.66 -.1-.62-.01-1.25.25-1.82 .26-.57.68-1.05 1.21-1.38 .91-.57 1.98-.83 3.06-.74 .42.02.84.08 1.25.17 -.04-.16-.1-.32-.2-.45 -.12-.16-.26-.28-.43-.36 -.47-.22-.98-.31-1.49-.28l-.01 0c-.44 0-.87.1-1.27.27 -.12.05-.24.08-.36.09 -.13 0-.25-.01-.37-.05s-.23-.11-.33-.19c-.1-.09-.18-.19-.23-.3 -.06-.12-.09-.24-.1-.36 -.01-.13 0-.25.04-.37 .03-.12.1-.23.18-.33 .08-.1.18-.18.29-.23l0-.01c.64-.3 1.33-.46 2.04-.48Zm10.38 2.47l0 0c.56.09 1.07.39 1.41.85 .34.45.49 1.02.42 1.59 .06.56-.09 1.13-.43 1.59 -.35.45-.86.76-1.42.85l-.01 0 -.01-.01c-.57-.1-1.08-.4-1.42-.86 -.35-.46-.5-1.03-.43-1.6 -.07-.57.08-1.14.42-1.6 .34-.46.85-.77 1.41-.86l0-.01Zm0 .1c-.54.08-1.02.38-1.35.81 -.33.43-.48.98-.41 1.52l0 .01 -.01-.01c-.07.54.07 1.09.4 1.52 .32.43.8.72 1.34.81 .53-.09 1.01-.39 1.34-.82 .32-.44.47-.99.4-1.53l-.01-.02 0 0c.06-.55-.08-1.09-.41-1.53 -.33-.44-.81-.73-1.35-.82Zm-9.56 2.01c.5.02.99.12 1.47.28l.03.01v1.46L9 15.2c-.38.44-.87.78-1.41.99 -.55.21-1.13.28-1.71.22l-.01-.01c-.27-.07-.52-.22-.7-.42 -.19-.21-.31-.47-.35-.74 -.04-.28 0-.56.13-.81 .12-.25.31-.46.56-.59 .59-.36 1.28-.51 1.97-.44Zm-.01.09c-.67-.07-1.34.08-1.92.42l-.01 0c-.23.12-.41.31-.53.54 -.12.23-.16.49-.13.74s.14.49.31.68c.17.19.39.32.64.38 .56.06 1.12-.01 1.65-.22 .52-.21.98-.54 1.35-.96v-1.36c-.46-.16-.94-.25-1.42-.27l-.01-.01Zm-5.44 4.48c-.23 0-.45.08-.61.24 -.16.15-.25.37-.25.6v.59c0 .54.21 1.06.6 1.44 .38.38.9.6 1.44.6h17.39c.54-.01 1.06-.22 1.44-.61 .38-.39.6-.91.6-1.45v-.6c0-.23-.09-.45-.25-.61 -.16-.16-.38-.25-.61-.25 -.23 0-.45.08-.61.24 -.16.15-.25.37-.25.6v.6c0 .09-.04.18-.11.24s-.16.1-.25.1H3.19c-.1 0-.19-.04-.25-.11 -.07-.07-.11-.16-.11-.25v-.6c0-.23-.09-.45-.25-.61 -.16-.16-.38-.25-.61-.25Zm-.68.17c.17-.18.41-.28.67-.28 .25 0 .49.1.67.27 .17.17.27.41.27.67v.6c0 .06.02.12.07.17 .04.04.11.07.17.07h17.4c.06 0 .12-.03.17-.08 .04-.05.07-.12.07-.18v-.6c0-.26.1-.5.27-.68 .17-.18.41-.28.67-.28 .25 0 .49.1.67.27 .17.17.27.41.27.67v.6c-.01.57-.23 1.11-.64 1.51 -.41.4-.95.62-1.52.63H3.19c-.57-.01-1.12-.23-1.52-.64 -.41-.41-.63-.95-.64-1.52v-.61c0-.26.1-.5.27-.68Z"/></g></svg>