<svg viewBox="0 0 24 24" xmlns="http://www.w3.org/2000/svg"><path fill="currentColor" d="M17 3c.55 0 1 .44 1 1v6h2c.55 0 1 .44 1 1 0 .55-.45 1-1 1h-2v8h-.05c-.2-.98-.98-1.76-1.95-1.95V4c0-.56.44-1 1-1ZM3 6c0-.56.44-1 1-1h8c.55 0 1 .44 1 1 0 1.54-.45 4.22-1.76 6.54 -1.33 2.36-3.62 4.45-7.25 4.45 -.56 0-1-.45-1-1 0-.56.44-1 1-1 2.7 0 4.41-1.5 5.5-3.44 .85-1.53 1.28-3.27 1.43-4.57H3.98c-.56 0-1-.45-1-1Zm7.5 16c.82 0 1.5-.68 1.5-1.5 0-.83-.68-1.5-1.5-1.5 -.83 0-1.5.67-1.5 1.5 0 .82.67 1.5 1.5 1.5Zm6.5-1.5c0 .82-.68 1.5-1.5 1.5 -.83 0-1.5-.68-1.5-1.5 0-.83.67-1.5 1.5-1.5 .82 0 1.5.67 1.5 1.5Zm5 0c0 .82-.68 1.5-1.5 1.5 -.83 0-1.5-.68-1.5-1.5 0-.83.67-1.5 1.5-1.5 .82 0 1.5.67 1.5 1.5Z"/></svg>