<svg viewBox="0 0 24 24" xmlns="http://www.w3.org/2000/svg"><path fill="currentColor" d="M6 1v1H3c-.56 0-1 .44-1 1 0 .55.44 1 1 1h8c.55 0 1-.45 1-1 0-.56-.45-1-1-1H8V1c0-.56-.45-1-1-1 -.56 0-1 .44-1 1ZM2 15c0-.56.44-1 1-1h7c.55 0 1 .44 1 1v7c0 .55-.45 1-1 1 -.56 0-1-.45-1-1v-6H3c-.56 0-1-.45-1-1Zm10-6c0 2.2-2.24 4-5 4 -2.77 0-5-1.8-5-4 0-2.21 2.23-4 5-4 2.76 0 5 1.79 5 4Zm-2 0c0-.72-.91-2-3-2C4.9 7 4 8.28 4 9c0 .71.9 2 3 2 2.09 0 3-1.29 3-2Zm7.5-7c.55 0 1 .44 1 1v15.58l1.79-1.8c.39-.4 1.02-.4 1.41 0 .39.39.39 1.02 0 1.41l-3.5 3.5c-.4.39-1.03.39-1.42 0l-3.5-3.5c-.4-.4-.4-1.03 0-1.42 .39-.4 1.02-.4 1.41 0l1.79 1.79V2.97c0-.56.44-1 1-1Z"/></svg>