<svg viewBox="0 0 24 24" xmlns="http://www.w3.org/2000/svg"><path fill="currentColor" d="M5.5 7c0 .55.44 1 1 1H15l.11-.01c.49-.06.88-.49.88-1 0-.56-.45-1-1-1h-8.5l-.12 0c-.5.05-.89.48-.89.99Zm-2 6l11.5-.01 .11-.01c.49-.06.88-.49.88-1 0-.56-.45-1-1.01-1l-11.5 0 -.12 0c-.5.05-.89.48-.89.99 0 .55.44.99 1 .99Zm1.99 3.99c0 .55.44 1 1 1h8.5l.11-.01c.49-.06.88-.49.88-1 0-.56-.45-1-1-1h-8.5l-.12 0c-.5.05-.89.48-.89.99Zm14.11-2.21c-.4.3-.96.27-1.32-.09 -.4-.4-.4-1.03 0-1.42l1.29-1.3 -1.3-1.3 -.09-.1c-.31-.4-.28-.96.08-1.33 .39-.4 1.02-.4 1.41 0l2 2 .08.09c.3.39.27.95-.09 1.32l-2 2 -.1.08Z"/></svg>