<svg viewBox="0 0 24 24" xmlns="http://www.w3.org/2000/svg"><path fill="currentColor" d="M22.19 4.97c-.35-.96-.87-1.59-1.56-1.93 -.61-.3-1.24-.3-1.6-.3l-.05 0c-.81 0-1.47.27-1.97.72 -.48.42-.77.96-.94 1.42 -.18.47-.27.92-.31 1.25 -.03.16-.04.3-.04.41 -.01.05-.01.09-.01.12l-.01.03 -.01.01v0 0 .04c-.01.49-.01 1.46.35 2.36 .18.47.48.96.96 1.36 .48.39 1.09.65 1.82.73 .59.06 2.43.02 3.27-1.83 .22-.51 0-1.1-.5-1.33 -.51-.23-1.1-.01-1.33.49 -.16.34-.39.49-.61.58 -.26.09-.51.09-.63.07 -.4-.05-.63-.17-.78-.29 -.16-.13-.28-.31-.38-.55 -.21-.52-.22-1.14-.22-1.67l0-.02c0-.02 0-.04 0-.07 0-.07.01-.16.02-.27 .02-.24.08-.53.19-.81 .1-.29.24-.5.39-.64 .13-.12.31-.22.63-.22 .4 0 .59.01.75.09 .1.05.33.2.55.8 .18.51.76.78 1.27.6 .51-.19.78-.77.6-1.28Zm-7.68 1.74c.19-.37.31-.81.31-1.34 0-.54-.11-1.01-.33-1.42 -.23-.42-.54-.7-.87-.89 -.6-.34-1.24-.34-1.46-.34l-.03 0H9.96c-.56 0-1.01.44-1.01 1v6.49c0 .55.44 1 1 1h.01 2.36c.29 0 .96-.04 1.58-.38 .32-.18.65-.45.9-.84 .25-.41.37-.88.37-1.42 0-.56-.13-1.05-.38-1.46 -.11-.18-.24-.33-.37-.46Zm-1.86-1.89c.03.01.05.03.08.08 .02.05.08.18.08.46 0 .22-.05.34-.08.39 -.03.05-.07.08-.12.11 -.14.08-.34.1-.47.11h-1.17V4.72h1.16c.22 0 .38.01.49.07Zm-.49 3.17h.2c.25 0 .49.01.66.09 .06.03.09.06.12.1 .02.04.08.15.08.41 0 .2-.05.3-.08.34 -.03.04-.08.09-.17.13 -.2.1-.47.13-.64.13h-1.38V7.94h1.16l.01-.01ZM5.01 2.74c.41 0 .78.27.92.66l2.3 6.5c.18.52-.09 1.09-.61 1.27 -.53.18-1.1-.09-1.28-.61l-.2-.54H3.6l-.22.56c-.2.51-.78.77-1.3.57 -.52-.2-.78-.78-.58-1.3l2.51-6.5c.15-.39.52-.65.94-.64Zm-.06 3.87l-.56 1.42h1.05L4.93 6.6Zm10.5 5.98l-4.3 5.15 -1.73-1.73c-.4-.4-1.03-.4-1.42 0 -.4.39-.4 1.02 0 1.41l2.49 2.5c.41.41 1.09.38 1.47-.07l5-6c.35-.43.29-1.06-.13-1.41 -.43-.36-1.06-.3-1.41.12Z"/></svg>