<svg viewBox="0 0 24 24" xmlns="http://www.w3.org/2000/svg"><path fill="currentColor" d="M20.38 8.67l-9 3.74c-.51.21-1.1-.03-1.31-.54 -.22-.51.02-1.1.53-1.31l2.38-1V5.89l-2.39-1c-.51-.22-.76-.8-.54-1.31 .21-.51.79-.76 1.3-.54l9 3.75c.37.15.61.51.61.92 0 .4-.25.76-.62.92Zm-5.39.07l2.4-1 -2.4-1v2Zm-7-4.76c0-.56-.45-1-1-1 -.56 0-1 .44-1 1v13.58l-.3-.3c-.4-.4-1.03-.4-1.42 0 -.4.39-.4 1.02 0 1.41l2 2c.39.39 1.02.39 1.41 0l2-2c.39-.4.39-1.03 0-1.42 -.4-.4-1.03-.4-1.42 0l-.3.29V3.95Zm8 9c-.56 0-1 .44-1 1v3.58l-.3-.3c-.4-.4-1.03-.4-1.42 0 -.4.39-.4 1.02 0 1.41l2 2c.39.39 1.02.39 1.41 0l2-2c.39-.4.39-1.03 0-1.42 -.4-.4-1.03-.4-1.42 0l-.3.29v-3.59c0-.56-.45-1-1-1Z"/></svg>