<svg viewBox="0 0 24 24" xmlns="http://www.w3.org/2000/svg"><path fill="currentColor" d="M9.97 7.52c-.09-.36-.01-.72.21-.98 .21-.26.66-.55 1.55-.55 .92 0 1.56.25 1.96.48 .19.11.33.23.42.3 .04.03.07.06.08.08l0 0c.34.42.96.48 1.39.14 .43-.35.5-.98.15-1.41 -.16-.11-.01-.01-.01-.01l-.01-.01 -.01-.01 -.01-.01 -.01-.01c-.01-.01-.02-.02-.03-.03 -.02-.02-.04-.05-.07-.07 -.05-.06-.12-.13-.21-.21 -.18-.16-.43-.36-.76-.56 -.67-.4-1.66-.77-2.98-.77 -1.36-.01-2.43.45-3.1 1.26 -.67.79-.84 1.8-.63 2.7 .2.89.8 1.5 1.41 1.93 .58.4 1.28.72 1.9 1l.05.02c.67.3 1.25.57 1.74.9 .47.32.77.65.92 1.02 .28.71.14 1.17-.12 1.47 -.3.34-.94.65-1.96.65 -1.26 0-1.87-.41-2.17-.71 -.17-.17-.26-.32-.32-.43 -.03-.06-.05-.1-.06-.12l-.01-.02c-.15-.53-.68-.84-1.21-.71 -.54.13-.87.67-.73 1.21 .09.29 0 0 0 0l0 0 0 0 0 0 0 .01c0 .01 0 .02.01.03 0 .03.02.06.03.11 .03.08.07.2.14.33 .13.26.34.6.68.94 .69.69 1.83 1.29 3.58 1.29 1.38 0 2.65-.43 3.45-1.34 .84-.96.99-2.25.47-3.54 -.36-.88-.99-1.49-1.66-1.94 -.65-.44-1.39-.78-2.02-1.07l-.03-.02c-.68-.31-1.23-.56-1.65-.86 -.41-.29-.57-.52-.62-.75ZM6.99 17.99c-.56 0-1 .44-1 1 0 .55.44 1 1 1h10c.55 0 1-.45 1-1 0-.56-.45-1-1-1h-10Z"/></svg>