<svg viewBox="0 0 24 24" xmlns="http://www.w3.org/2000/svg"><path fill="currentColor" d="M6.89 3.6c-1.83 0-3.3 1.47-3.3 3.3v10.2c0 1.82 1.47 3.3 3.3 3.3h4.61c-.47-.91-.72-1.92-.72-3 0-1.6.56-3.06 1.5-4.2h-.91c-.34 0-.6-.27-.6-.6 0-.34.26-.6.6-.6h2.2c1.07-.76 2.38-1.2 3.79-1.2 1.08 0 2.09.25 3 .71V6.89c0-1.83-1.48-3.3-3.3-3.3H6.86Zm2.1 5.1c0 .49-.41.9-.9.9 -.5 0-.9-.41-.9-.9 0-.5.4-.9.9-.9 .49 0 .9.4.9.9Zm-.9 2.7c.49 0 .9.4.9.9 0 .49-.41.9-.9.9 -.5 0-.9-.41-.9-.9 0-.5.4-.9.9-.9Zm.9 4.5c0 .49-.41.9-.9.9 -.5 0-.9-.41-.9-.9 0-.5.4-.9.9-.9 .49 0 .9.4.9.9Zm2.39-6.3c-.34 0-.6-.27-.6-.6 0-.34.26-.6.6-.6h4.8c.33 0 .6.26.6.6 0 .33-.27.6-.6.6h-4.8Zm6 13.2c2.98 0 5.4-2.42 5.4-5.4 0-2.99-2.42-5.4-5.4-5.4 -2.99 0-5.4 2.41-5.4 5.4 0 2.98 2.41 5.4 5.4 5.4Zm-.6-7.8c0-.34.26-.6.6-.6 .33 0 .6.26.6.6v1.8h1.2c.33 0 .6.26.6.6 0 .33-.27.6-.6.6h-1.8c-.34 0-.6-.27-.6-.6V15Z"/></svg>