<svg viewBox="0 0 24 24" xmlns="http://www.w3.org/2000/svg"><path fill="currentColor" d="M21 6c0-.56-.45-1-1-1h-9c-.56 0-1 .44-1 1 0 .55.44 1 1 1h9c.55 0 1-.45 1-1ZM8 6c0-.56-.45-1-1-1H4c-.56 0-1 .44-1 1 0 .55.44 1 1 1h3c.55 0 1-.45 1-1Zm13 4c0-.56-.45-1-1-1h-9c-.56 0-1 .44-1 1 0 .55.44 1 1 1h9c.55 0 1-.45 1-1ZM8 10c0-.56-.45-1-1-1H4c-.56 0-1 .44-1 1 0 .55.44 1 1 1h3c.55 0 1-.45 1-1Zm13 4c0-.56-.45-1-1-1h-9c-.56 0-1 .44-1 1 0 .55.44 1 1 1h9c.55 0 1-.45 1-1ZM8 14c0-.56-.45-1-1-1H4c-.56 0-1 .44-1 1 0 .55.44 1 1 1h3c.55 0 1-.45 1-1Zm13 4c0-.56-.45-1-1-1h-9c-.56 0-1 .44-1 1 0 .55.44 1 1 1h9c.55 0 1-.45 1-1ZM8 18c0-.56-.45-1-1-1H4c-.56 0-1 .44-1 1 0 .55.44 1 1 1h3c.55 0 1-.45 1-1Z"/></svg>