<svg viewBox="0 0 24 24" xmlns="http://www.w3.org/2000/svg"><path fill="currentColor" d="M3 6c0-.56.44-1 1-1h9c.55 0 1 .44 1 1 0 .55-.45 1-1 1H4c-.56 0-1-.45-1-1Zm13 0c0-.56.44-1 1-1h3c.55 0 1 .44 1 1 0 .55-.45 1-1 1h-3c-.56 0-1-.45-1-1ZM3 10c0-.56.44-1 1-1h9c.55 0 1 .44 1 1 0 .55-.45 1-1 1H4c-.56 0-1-.45-1-1Zm13 0c0-.56.44-1 1-1h3c.55 0 1 .44 1 1 0 .55-.45 1-1 1h-3c-.56 0-1-.45-1-1ZM3 14c0-.56.44-1 1-1h9c.55 0 1 .44 1 1 0 .55-.45 1-1 1H4c-.56 0-1-.45-1-1Zm13 0c0-.56.44-1 1-1h3c.55 0 1 .44 1 1 0 .55-.45 1-1 1h-3c-.56 0-1-.45-1-1ZM3 18c0-.56.44-1 1-1h9c.55 0 1 .44 1 1 0 .55-.45 1-1 1H4c-.56 0-1-.45-1-1Zm13 0c0-.56.44-1 1-1h3c.55 0 1 .44 1 1 0 .55-.45 1-1 1h-3c-.56 0-1-.45-1-1Z"/></svg>