<svg viewBox="0 0 24 24" xmlns="http://www.w3.org/2000/svg"><g fill="currentColor"><path d="M14.69 5.7c0-.5-.41-.9-.9-.9 -.5 0-.9.4-.9.9v2.22l-2.12-.69c-.48-.16-.99.1-1.14.57 -.16.47.1.98.57 1.13l2.12.68 -1.32 1.8c-.3.4-.21.96.19 1.25 .4.29.96.2 1.25-.2l1.3-1.81 1.3 1.8c.29.4.85.49 1.25.19s.49-.86.19-1.26l-1.32-1.81 2.12-.7c.47-.16.73-.67.57-1.14 -.16-.48-.67-.74-1.14-.58l-2.13.69V5.6Zm-6.9 13.5c.99 0 1.8-.81 1.8-1.8 0-1-.81-1.8-1.8-1.8 -1 0-1.8.8-1.8 1.8 0 .99.8 1.8 1.8 1.8Z"/><path fill="currentColor" fill-rule="evenodd" d="M12.84 5.7c0-.53.42-.95.95-.95 .52 0 .95.42.95.95v2.16l2.06-.67c.49-.17 1.03.11 1.19.6 .16.49-.12 1.03-.61 1.19l-2.06.66 1.27 1.74c.3.42.21 1.01-.22 1.32 -.43.3-1.02.21-1.33-.22l-1.27-1.75 -1.27 1.74c-.31.42-.91.51-1.33.21 -.43-.31-.52-.91-.22-1.33l1.27-1.75 -2.06-.67c-.5-.17-.78-.7-.61-1.2 .16-.5.69-.78 1.19-.61l2.05.66V5.61Zm.95-.85c-.47 0-.85.38-.85.85v2.29l-2.19-.71c-.45-.15-.93.09-1.08.54 -.15.44.09.92.54 1.07l2.18.71 -1.36 1.86c-.28.37-.2.91.18 1.18 .37.27.91.19 1.18-.19l1.34-1.86 1.34 1.85c.27.37.8.46 1.18.18 .37-.28.46-.81.18-1.19l-1.36-1.86 2.19-.72c.44-.15.69-.63.54-1.08 -.15-.45-.63-.7-1.08-.55l-2.2.71V5.62c0-.47-.39-.85-.85-.85ZM5.94 17.4c0-1.03.82-1.85 1.85-1.85 1.02 0 1.85.82 1.85 1.85 0 1.02-.83 1.85-1.85 1.85 -1.03 0-1.85-.83-1.85-1.85Zm1.85-1.75c-.97 0-1.75.78-1.75 1.75 0 .96.78 1.75 1.75 1.75 .96 0 1.74-.79 1.74-1.75 0-.97-.79-1.75-1.75-1.75Z"/></g></svg>