<svg viewBox="0 0 24 24" xmlns="http://www.w3.org/2000/svg"><path fill="currentColor" d="M4.99 18c0-.83-.68-1.5-1.5-1.5 -.83 0-1.5.67-1.5 1.49s.67 1.49 1.49 1.49 1.49-.68 1.49-1.5Zm7.02-1H7.49l-.12 0c-.5.05-.89.48-.89.99 0 .55.44 1 1 1h4.67c-.12-.49-.18-.99-.18-1.5 0-.17 0-.34.01-.5Zm1.79-4H7.49c-.56 0-1-.45-1-1 0-.52.38-.94.88-1l.11-.01h10.99c-1.85 0-3.51.76-4.7 2Zm-8.82-1c0-.83-.68-1.5-1.5-1.5 -.83 0-1.5.67-1.5 1.49s.67 1.49 1.49 1.49 1.49-.68 1.49-1.5Zm0-6c0-.83-.68-1.5-1.5-1.5 -.83 0-1.5.67-1.5 1.49s.67 1.49 1.49 1.49 1.49-.68 1.49-1.5Zm16-1.01H7.47l-.12 0c-.5.05-.89.48-.89.99 0 .55.44 1 1 1h13.5l.11-.01c.49-.06.88-.49.88-1 0-.56-.45-1-1-1Zm2.99 12.49c0-3.04-2.47-5.5-5.5-5.5 -3.04 0-5.5 2.46-5.5 5.5 0 3.03 2.46 5.5 5.5 5.5 3.03 0 5.5-2.47 5.5-5.5Zm-5 .5l0 2.5c0 .27-.23.5-.5.5 -.28 0-.5-.23-.5-.5l-.01-2.51h-2.51c-.28 0-.5-.23-.5-.5 0-.28.22-.5.49-.5h2.5l-.01-2.51c0-.28.22-.5.5-.5 .27 0 .5.22.5.5l0 2.5h2.49c.27 0 .49.22.49.5 0 .27-.23.5-.5.5h-2.5Z"/></svg>