<svg viewBox="0 0 24 24" xmlns="http://www.w3.org/2000/svg"><path fill="currentColor" d="M4.29 17.29c-.4.39-.4 1.02 0 1.41l2 2c.39.39 1.02.39 1.41 0l2-2c.39-.4.39-1.03 0-1.42 -.4-.4-1.03-.4-1.42 0l-.3.29V3.98c0-.56-.45-1-1-1 -.56 0-1 .44-1 1v13.58l-.3-.3c-.4-.4-1.03-.4-1.42 0Zm9 1.41c-.4-.4-.4-1.03 0-1.42 .39-.4 1.02-.4 1.41 0l.29.29v-1.59c0-.56.44-1 1-1 .55 0 1 .44 1 1v1.58l.29-.3c.39-.4 1.02-.4 1.41 0 .39.39.39 1.02 0 1.41l-2 2c-.4.39-1.03.39-1.42 0l-2-2Zm6.7-6.71c.55 0 1-.45 1-1 0-.56-.45-1-1-1h-9.25c-.56 0-1 .44-1 1 0 .55.44 1 1 1h4.25v1c0 .55.44 1 1 1 .55 0 1-.45 1-1v-1h3Zm0-8c0-.56-.45-1-1-1 -.56 0-1 .44-1 1v3h-.25c-.9 0-1.87-.19-2.59-.65 -.66-.42-1.17-1.11-1.17-2.36 0-.56-.45-1-1-1 -.56 0-1 .44-1 1 0 1.94.86 3.26 2.08 4.04 1.15.74 2.55.95 3.66.95h1.25c.55 0 1-.45 1-1v-4Z"/></svg>