<svg viewBox="0 0 24 24" xmlns="http://www.w3.org/2000/svg"><path fill="currentColor" d="M21 5.75C21 4.23 19.76 3 18.25 3H5.75C4.23 3 3 4.23 3 5.75v12.5C3 19.76 4.23 21 5.75 21h6.27c-.65-1.02-1.03-2.22-1.03-3.5 0-.17 0-.34.01-.5H6.73c-.42 0-.75-.34-.75-.75 0-.38.28-.7.64-.75l.1-.01h4.56c.3-.95.82-1.8 1.49-2.5H6.71c-.42 0-.75-.34-.75-.75 0-.38.28-.7.64-.75l.1-.01h7.5c.16 0 .31.05.43.13 .85-.41 1.8-.64 2.81-.64 1.28 0 2.48.37 3.5 1.02V5.71ZM17.25 7.5c.41 0 .75.33.75.75 0 .37-.29.69-.65.74l-.11 0H6.74c-.42 0-.75-.34-.75-.75 0-.38.28-.7.64-.75l.1-.01h10.5Zm-4.75 8.12l.44.43c.81.78.81 2.09 0 2.88l-.45.43c.2.57.49 1.1.85 1.56l.6-.18c1.09-.33 2.24.33 2.51 1.44l.17.71c.28.04.56.07.86.07 .29 0 .58-.03.86-.08l.17-.72c.26-1.12 1.41-1.78 2.51-1.45l.6.17c.36-.47.65-1 .85-1.57l-.45-.44c-.82-.79-.82-2.1 0-2.89l.44-.44c-.21-.58-.5-1.11-.86-1.57l-.61.17c-1.1.32-2.25-.34-2.52-1.45l-.18-.72c-.29-.05-.57-.08-.87-.08 -.3 0-.59.02-.87.07l-.18.71c-.27 1.11-1.42 1.77-2.52 1.44l-.61-.18c-.37.46-.66.99-.86 1.56Zm4.99 3.37c-.81 0-1.45-.68-1.45-1.5 0-.83.64-1.5 1.44-1.5 .8 0 1.44.67 1.44 1.5 0 .82-.65 1.5-1.45 1.5Z"/></svg>