<svg viewBox="0 0 24 24" xmlns="http://www.w3.org/2000/svg"><path fill="currentColor" d="M7.5 6c1.32 0 2.41 1.03 2.49 2.33l0 .2c-.01 3.55-1.25 6.61-3.71 9.22 -.29.3-.76.31-1.07.03 -.31-.29-.32-.76-.04-1.07 1.64-1.74 2.66-3.68 3.07-5.86 -.25.08-.51.12-.79.12 -1.39 0-2.5-1.12-2.5-2.5 0-1.39 1.11-2.5 2.5-2.5Zm9 0c1.32 0 2.41 1.03 2.49 2.33l0 .2c-.01 3.56-1.24 6.61-3.71 9.22 -.29.3-.76.31-1.07.02 -.31-.29-.32-.76-.03-1.07 1.64-1.74 2.66-3.68 3.07-5.86 -.25.08-.52.12-.79.12 -1.39 0-2.5-1.12-2.5-2.5 0-1.39 1.11-2.5 2.5-2.5Z"/></svg>