<svg viewBox="0 0 24 24" xmlns="http://www.w3.org/2000/svg"><path fill="currentColor" d="M6 4c0 .55.44 1 1 1h14c.55 0 1-.45 1-1 0-.56-.45-1-1-1H7c-.56 0-1 .44-1 1Zm7 5c0 .55.44 1 1 1h7c.55 0 1-.45 1-1 0-.56-.45-1-1-1h-7c-.56 0-1 .44-1 1Zm-6 9h14c.55 0 1 .44 1 1 0 .55-.45 1-1 1H7c-.56 0-1-.45-1-1 0-.56.44-1 1-1Zm6-4c0 .55.44 1 1 1h7c.55 0 1-.45 1-1 0-.56-.45-1-1-1h-7c-.56 0-1 .44-1 1Zm-2-2.5C11 9.01 8.98 7 6.5 7 4.01 7 2 9.01 2 11.5 2 13.98 4.01 16 6.5 16c2.48 0 4.5-2.02 4.5-4.5Zm-2 0c0 .27-.23.5-.5.5h-4c-.28 0-.5-.23-.5-.5 0-.28.22-.5.5-.5h4c.27 0 .5.22.5.5Z"/></svg>