<svg viewBox="0 0 24 24" xmlns="http://www.w3.org/2000/svg"><path fill="currentColor" d="M15 4c0-.56-.45-1-1-1 -.56 0-1 .44-1 1v15.25c0 .55.44 1 1 1 .52 0 .94-.4.99-.91 .61.41 1.34.65 2.11.65 2.27 0 4.11-2.08 4.11-4.63 0-2.56-1.85-4.63-4.12-4.63 -.78 0-1.5.23-2.12.65V3.97Zm2.11 14c-.96 0-2.12-.95-2.12-2.63s1.16-2.63 2.11-2.63 2.11.94 2.11 2.62c0 1.67-1.17 2.62-2.12 2.62Zm-6.12 1.26v-5.5l-.01-.22 -.01-.01c-.05-.97-.38-1.77-.98-2.34 -.61-.58-1.45-.9-2.47-.95l-.3-.01 -.01-.01c-1.16-.03-2.12.18-2.84.69 -.46.31-.57.94-.25 1.39 .31.45.94.56 1.39.24 .32-.23.93-.37 1.87-.32 .58.02.95.17 1.18.39 .17.16.29.41.33.74 -.88-.2-1.75-.24-2.6-.14 -1.04.12-1.88.52-2.47 1.14 -.6.61-.92 1.43-.92 2.35 0 2.09 1.52 3.5 3.5 3.5 .8 0 1.65-.25 2.54-.71 .12.4.5.7.95.7h0l.11-.01 0-.01c.48-.07.86-.49.86-1Zm-6-2.47c0-.42.13-.76.38-1 .25-.26.65-.44 1.23-.51 .72-.09 1.47-.03 2.25.18l.12.03v1.77l-.14.09c-.97.63-1.76.92-2.37.92 -.47 0-.84-.15-1.09-.4 -.26-.25-.42-.62-.42-1.11Z"/></svg>