<svg viewBox="0 0 24 24" xmlns="http://www.w3.org/2000/svg"><path fill="currentColor" d="M16.75 5.65c.35-.42.31-1.06-.11-1.42 -.42-.36-1.06-.32-1.41.1l-5.25 6.11 -5.25-6.12c-.36-.42-1-.47-1.42-.11 -.42.35-.47.99-.11 1.41l5.44 6.34 -5.45 6.34c-.36.41-.32 1.05.1 1.41 .41.35 1.05.31 1.41-.11l5.24-6.12L15 19.39c.14-.83.51-1.48.94-1.98l-4.7-5.48 5.44-6.35Zm1.97 9.09c-.39 0-.74.36-.74.77 0 .55-.45 1-1 1 -.56 0-1-.45-1-1 0-1.37 1.1-2.78 2.73-2.78 .92 0 1.84.43 2.36 1.23 .54.84.54 1.91-.06 2.93 -.31.52-.73.9-1.11 1.21 -.2.15-.39.29-.57.41l-.08.05c-.16.1-.3.2-.43.3 -.17.12-.3.23-.42.34h1.99c.55 0 1 .44 1 1 0 .55-.45 1-1 1h-3.44 -.01 -.01c-.56 0-1-.45-1-1 0-1.52.9-2.37 1.66-2.95 .16-.13.32-.24.47-.35l.07-.06c.17-.13.33-.24.48-.36 .29-.24.49-.44.62-.66 .27-.46.17-.72.09-.84 -.11-.17-.36-.33-.69-.33Z"/></svg>