<svg viewBox="0 0 24 24" xmlns="http://www.w3.org/2000/svg"><path fill="currentColor" d="M9 16h8.5c.55 0 1 .44 1 1 0 .51-.39.93-.89.99l-.12 0h-8.5c-.56 0-1-.45-1-1 0-.52.38-.94.88-1l.11-.01h8.5 -8.5Zm-6.71-4.71l2-2.01c.39-.4 1.02-.4 1.41 0 .36.36.38.92.08 1.32l-.09.09 -1.3 1.29 1.29 1.29c.39.39.39 1.02 0 1.41 -.37.36-.93.38-1.33.08l-.1-.09 -2-2c-.37-.37-.39-.93-.09-1.32l.08-.1 2-2.01 -2 2Zm6.7-.3l11.49-.01c.55 0 1 .44 1 .99 0 .51-.39.93-.89.99l-.12 0 -11.51 0c-.56 0-1.01-.45-1.01-1 0-.52.38-.94.88-1l.11-.01 11.49-.01 -11.5 0Zm0-5h8.5c.55 0 1 .44 1 1 0 .51-.39.93-.89.99l-.12 0h-8.5c-.56 0-1-.45-1-1 0-.52.38-.94.88-1l.11-.01h8.5 -8.5Z"/></svg>