<svg viewBox="0 0 24 24" xmlns="http://www.w3.org/2000/svg"><path fill="currentColor" d="M14.57 3.81c-.52-.17-1.37.01-1.84.53 -.37.41-1 .44-1.42.07 -.42-.37-.45-1.01-.08-1.42 1-1.12 2.67-1.51 3.92-1.11 1.67.53 2.73 2.51 1.58 4.22 -.1.13-.2.26-.3.37 .1.11.2.23.29.37 1.14 1.7.08 3.68-1.59 4.22 -1.26.4-2.93.01-3.93-1.11 -.37-.42-.34-1.05.07-1.42 .41-.37 1.04-.34 1.41.07 .46.51 1.31.69 1.83.53 .31-.11.52-.32.61-.54 .08-.21.07-.44-.08-.67 -.28-.42-.75-.49-1.47-.49l-.05-.01 -.09-.01c-.56 0-1-.45-1-1 0-.56.44-1 .99-1l.08-.01 .04-.01c.72-.01 1.18-.08 1.46-.49 .15-.24.16-.47.07-.67 -.1-.22-.31-.44-.62-.54ZM3.99 2.99c0-.56-.45-1-1-1 -.56 0-1 .44-1 1v6.99c0 .55.44 1 1 1 .55 0 1-.45 1-1v-2.5h3v2.49c0 .55.44.99 1 .99 .55 0 1-.45 1-1v-7c0-.56-.45-1-1-1 -.56 0-1 .44-1 1v2.49h-3v-2.5Zm-1 15.99c-.56 0-1 .44-1 1 0 .55.44 1 1 1h18c.55 0 1-.45 1-1 0-.56-.45-1-1-1h-18Zm-1-4c0-.56.44-1 1-1h18c.55 0 1 .44 1 1 0 .55-.45 1-1 1h-18c-.56 0-1-.45-1-1Z"/></svg>