<svg viewBox="0 0 24 24" xmlns="http://www.w3.org/2000/svg"><path fill="currentColor" d="M11.5 2c-.56 0-1 .44-1 1 0 .55.44 1 1 1h.08L8.53 7.04c-.4.39-.4 1.02 0 1.41 .39.39 1.02.39 1.41 0l3.04-3.05v.08c0 .55.44 1 1 1 .55 0 1-.45 1-1v-2.5c0-.56-.45-1-1-1h-2.5ZM3.42 7.59c-.39-.19-.84-.11-1.14.19 -.3.29-.38.75-.2 1.13l4.5 9.5c.23.49.83.71 1.33.47 .49-.24.71-.84.47-1.34l-1.15-2.42 2.39-2.4 2.41 1.14c.49.23 1.09.02 1.33-.48 .23-.5.02-1.1-.48-1.34l-9.5-4.51Zm4.3 4.25l-1.39 1.38 -1.25-2.64 2.63 1.24Zm10.76-2.85c-.56 0-1 .44-1 1 0 .55.44 1 1 1h.08l-9.3 9.29c-.4.39-.4 1.02 0 1.41 .39.39 1.02.39 1.41 0l9.29-9.3v.08c0 .55.44 1 1 1 .55 0 1-.45 1-1v-2.5c0-.56-.45-1-1-1h-2.5Z"/></svg>