<svg viewBox="0 0 24 24" xmlns="http://www.w3.org/2000/svg"><path fill="currentColor" d="M3 2c.55 0 1 .44 1 1v2.5h3V3c0-.56.44-1 1-1 .55 0 1 .44 1 1v6.99c0 .55-.45 1-1 1 -.56 0-1-.45-1-1.01v-2.5H4v2.5c0 .55-.45 1-1 1 -.56 0-1-.45-1-1v-7c0-.56.44-1 1-1Zm14.55 3.46c.11-.29.38-.47.69-.47h3c.3 0 .57.18.69.46 .11.28.05.6-.17.81l-1.51 1.5c-.3.29-.77.29-1.07 0l-1.51-1.51c-.22-.22-.28-.54-.17-.82ZM2.99 18.99c-.56 0-1 .44-1 1 0 .55.44 1 1 1h18c.55 0 1-.45 1-1 0-.56-.45-1-1-1h-18Zm-1-4c0-.56.44-1 1-1h18c.55 0 1 .44 1 1 0 .55-.45 1-1 1h-18c-.56 0-1-.45-1-1Zm10.99-5c0 .55.45 1 1 1s1-.45 1-1v-7c0-.46-.32-.86-.77-.97 -.45-.11-.92.11-1.12.51 -.5 1-1.53 1.55-1.56 1.56 -.49.25-.69.85-.44 1.34 .24.5.85.7 1.34.45 .01-.01.02-.02.05-.03 .09-.06.27-.16.49-.3v4.43Z"/></svg>