<svg viewBox="0 0 24 24" xmlns="http://www.w3.org/2000/svg"><path fill="currentColor" d="M3.75 3.75c-.56 0-1 .44-1 1 0 .55.44 1 1 1h16.5c.55 0 1-.45 1-1 0-.56-.45-1-1-1H3.75Zm8.25 5c-.79 0-1.47.39-1.88 1h-2.2c.53-1.74 2.15-3 4.06-3 1.91 0 3.52 1.26 4.06 3h-2.2c-.41-.61-1.1-1-1.88-1Zm-8.25 2c-.56 0-1 .44-1 1 0 .55.44 1 1 1h16.5c.55 0 1-.45 1-1 0-.56-.45-1-1-1H3.75Zm4 3h2v2c0 .55-.45 1-1 1 -.56 0-1-.45-1-1v-2Zm8.5 0h-2v2c0 .55.44 1 1 1 .55 0 1-.45 1-1v-2Zm-13.5 5c0-.56.44-1 1-1h16.5c.55 0 1 .44 1 1 0 .55-.45 1-1 1H3.75c-.56 0-1-.45-1-1Z"/></svg>