<svg viewBox="0 0 24 24" xmlns="http://www.w3.org/2000/svg"><path fill="currentColor" d="M7.91 2.6c-.16-.37-.52-.61-.92-.61 -.41 0-.77.23-.92.6l-3 7c-.22.5.01 1.09.52 1.31 .5.21 1.09-.02 1.31-.53l.59-1.4h2.96l.59 1.39c.21.5.8.74 1.31.52 .5-.22.74-.81.52-1.32l-3-7Zm-.3 4.39H6.35l.62-1.47 .62 1.46Zm-.63 7c-1.64 0-3 1.36-3 3.1 0 1.1.55 2.05 1.37 2.6 .34.23.62.59.62 1.01v.27c0 .55-.45 1-1 1h-2c-.56 0-1-.45-1-1 0-.52.39-.94.89-1 -.57-.83-.9-1.84-.9-2.91 0-2.8 2.21-5.1 5-5.1 2.78 0 5 2.3 5 5.1 0 1.07-.33 2.07-.9 2.9 .5.05.89.47.89.99 0 .55-.45 1-1 1h-2c-.56 0-1-.45-1-1v-.28c0-.42.27-.79.62-1.02 .82-.55 1.37-1.51 1.37-2.61 0-1.74-1.37-3.1-3-3.1Zm10.25-12c.41 0 .75.33.75.75v16.68l2.21-2.22c.29-.3.76-.3 1.06 0 .29.29.29.76 0 1.06l-3.5 3.5c-.3.29-.77.29-1.07 0l-3.5-3.5c-.3-.3-.3-.77 0-1.07 .29-.3.76-.3 1.06 0l2.21 2.21V2.71c0-.42.33-.75.75-.75Z"/></svg>