<svg viewBox="0 0 24 24" xmlns="http://www.w3.org/2000/svg"><path fill="currentColor" d="M12 5c0-.56-.45-1-1-1 -.56 0-1 .44-1 1v8c0 .55.44 1 1 1 .55 0 1-.45 1-1v-3h1c.55 0 1-.45 1-1 0-.56-.45-1-1-1h-1V5ZM4 5c-.56 0-1 .44-1 1 0 .55.44 1 1 1h3v.25c0 .89-.19 1.86-.65 2.58 -.42.65-1.11 1.16-2.36 1.16 -.56 0-1 .44-1 1 0 .55.44 1 1 1 1.94 0 3.26-.87 4.04-2.09 .74-1.16.95-2.56.95-3.67V5.98c0-.56-.45-1-1-1h-4Zm14.29 9.29c.39-.4 1.02-.4 1.41 0l2 2c.39.39.39 1.02 0 1.41l-2 2c-.4.39-1.03.39-1.42 0 -.4-.4-.4-1.03 0-1.42l.29-.3H4.98c-.56 0-1-.45-1-1 0-.56.44-1 1-1h13.58l-.3-.3c-.4-.4-.4-1.03 0-1.42Zm1.41-8.01c-.4-.4-1.03-.4-1.42 0 -.4.39-.4 1.02 0 1.41l.29.29h-2.59c-.56 0-1 .44-1 1 0 .55.44 1 1 1h2.58l-.3.29c-.4.39-.4 1.02 0 1.41 .39.39 1.02.39 1.41 0l2-2c.39-.4.39-1.03 0-1.42l-2-2Z"/></svg>