<svg viewBox="0 0 24 24" xmlns="http://www.w3.org/2000/svg"><path fill="currentColor" d="M18 3h-3c-.56 0-1 .44-1 1v15.25c0 .55.44 1 1 1h3.87c2.69 0 4.875-2.19 4.875-4.88 0-1.81-.98-3.38-2.44-4.23 .88-.87 1.43-2.07 1.43-3.41 0-2.63-2.13-4.75-4.75-4.75Zm0 7.5h-2V5h2c1.51 0 2.75 1.23 2.75 2.75 0 1.51-1.24 2.75-2.75 2.75Zm-2 7.75V12.5h2.87c1.58 0 2.875 1.28 2.875 2.87 0 1.58-1.29 2.87-2.875 2.87h-2.88ZM7.25 3c.41 0 .79.26.93.66l5.5 15.24c.18.51-.09 1.09-.61 1.28 -.52.18-1.1-.09-1.28-.61l-1.3-3.59H3.76l-1.36 3.6c-.2.51-.78.77-1.29.58 -.52-.2-.78-.78-.59-1.29L6.26 3.62c.14-.4.52-.66.94-.65ZM4.54 13.99h5.24L7.21 6.87l-2.69 7.11Z"/></svg>