<svg viewBox="0 0 24 24" xmlns="http://www.w3.org/2000/svg"><path fill="currentColor" d="M21 5.75C21 4.23 19.76 3 18.25 3H5.75C4.23 3 3 4.23 3 5.75v12.5C3 19.76 4.23 21 5.75 21h12.5c1.51 0 2.75-1.24 2.75-2.75V5.75Zm-6.75 5.75c.41 0 .75.33.75.75 0 .37-.29.69-.65.74l-.11 0h-7.5c-.42 0-.75-.34-.75-.75 0-.38.28-.7.64-.75l.1-.01h7.5Zm-7.5 4h10.5c.41 0 .75.33.75.75 0 .37-.29.69-.65.74l-.11 0H6.74c-.42 0-.75-.34-.75-.75 0-.38.28-.7.64-.75l.1-.01Zm10.5-8c.41 0 .75.33.75.75 0 .37-.29.69-.65.74l-.11 0H6.74c-.42 0-.75-.34-.75-.75 0-.38.28-.7.64-.75l.1-.01h10.5Z"/></svg>