<svg viewBox="0 0 24 24" xmlns="http://www.w3.org/2000/svg"><path fill="currentColor" d="M16 5c0-.56-.45-1-1-1 -.56 0-1 .44-1 1v11c0 .55.44 1 1 1 .55 0 1-.45 1-1v-5h2c.55 0 1-.45 1-1 0-.56-.45-1-1-1h-2V5ZM5 7c0-.56.44-1 1-1h5.99c.55 0 1 .44 1 1 0 1.81-.5 3.48-1.64 4.88 -1.14 1.38-2.83 2.41-5.09 3.07 -.53.15-1.09-.15-1.25-.68 -.16-.53.14-1.09.67-1.25 1.99-.59 3.29-1.44 4.1-2.43 .6-.75.97-1.62 1.11-2.62H5.95c-.56 0-1-.45-1-1Zm.74 11c-.56 0-1 .44-1 1 0 .55.44 1 1 1h12.5c.55 0 1-.45 1-1 0-.56-.45-1-1-1H5.74Z"/></svg>