<svg viewBox="0 0 24 24" xmlns="http://www.w3.org/2000/svg"><path fill="currentColor" d="M19 5.41v15.58c0 .55-.45 1-1 1 -.56 0-1-.45-1-1V5.4l-.3.29c-.4.39-1.03.39-1.42 0 -.4-.4-.4-1.03 0-1.42l2-2c.39-.4 1.02-.4 1.41 0l2 2c.39.39.39 1.02 0 1.41 -.4.39-1.03.39-1.42 0l-.3-.3ZM5 18.58l-.3-.3c-.4-.4-1.03-.4-1.42 0 -.4.39-.4 1.02 0 1.41l2 2c.39.39 1.02.39 1.41 0l2-2c.39-.4.39-1.03 0-1.42 -.4-.4-1.03-.4-1.42 0l-.3.29V2.97c0-.56-.45-1-1-1 -.56 0-1 .44-1 1v15.58Zm8-15.59c0-.56-.45-1-1-1 -.56 0-1 .44-1 1v18c0 .55.44 1 1 1 .55 0 1-.45 1-1v-18Z"/></svg>