<svg viewBox="0 0 24 24" xmlns="http://www.w3.org/2000/svg"><path fill="currentColor" d="M2 6c0-.56.44-1 1-1h18c.55 0 1 .44 1 1 0 .55-.45 1-1 1H3c-.56 0-1-.45-1-1Zm1 11c-.56 0-1 .44-1 1 0 .55.44 1 1 1h6c.55 0 1-.45 1-1 0-.56-.45-1-1-1H3Zm12.41 0h3.58c1.1 0 2-.9 2-2 0-1.11-.9-2-2-2h-16c-.56 0-1-.45-1-1 0-.56.44-1 1-1h16c2.2 0 4 1.79 4 4 0 2.2-1.8 4-4 4H15.4l.29.29c.39.39.39 1.02 0 1.41 -.4.39-1.03.39-1.42 0l-2-2c-.4-.4-.4-1.03 0-1.42l2-2c.39-.4 1.02-.4 1.41 0 .39.39.39 1.02 0 1.41l-.3.29Z"/></svg>