<svg viewBox="0 0 24 24" xmlns="http://www.w3.org/2000/svg"><path fill="currentColor" d="M16.5 3.75c.96 0 1.75.78 1.75 1.75v4h1c.96 0 1.75.78 1.75 1.75 0 .96-.79 1.75-1.75 1.75h-1v5.5c0 .96-.79 1.75-1.75 1.75 -.97 0-1.75-.79-1.75-1.75v-13c0-.97.78-1.75 1.75-1.75Zm-12 1c-.97 0-1.75.78-1.75 1.75 0 .96.78 1.75 1.75 1.75h5.17c-.13 1.28-.42 2.51-.97 3.55 -.75 1.39-2.03 2.56-4.5 2.97 -.96.15-1.6 1.06-1.44 2.01 .15.95 1.06 1.59 2.01 1.43 3.53-.59 5.74-2.43 7-4.78 1.2-2.26 1.45-4.85 1.45-6.95 0-.97-.79-1.75-1.75-1.75H4.46Z"/></svg>