<svg viewBox="0 0 24 24" xmlns="http://www.w3.org/2000/svg"><g fill="currentColor"><path d="M12.71 3c0-.4-.33-.72-.72-.72 -.4 0-.72.32-.72.72v7.26L6.13 5.12c-.29-.29-.74-.29-1.02 0 -.29.28-.29.73 0 1.01l5.13 5.13H2.97c-.4 0-.72.32-.72.72 0 .39.32.72.72.72h7.26l-5.14 5.13c-.29.28-.29.73 0 1.01 .28.28.73.28 1.01 0l5.13-5.14v7.26c0 .39.32.72.72.72 .39 0 .72-.33.72-.72v-7.27l5.13 5.13c.28.28.73.28 1.01 0 .28-.29.28-.74 0-1.02l-5.14-5.14h7.26c.39 0 .72-.33.72-.72 0-.4-.33-.72-.72-.72h-7.27l5.13-5.14c.28-.29.28-.74 0-1.02 -.29-.29-.74-.29-1.02 0l-5.14 5.13V2.92Z"/><path fill="currentColor" fill-rule="evenodd" d="M11.12 3c0-.49.38-.87.87-.87 .48 0 .87.38.87.87v6.89l4.87-4.88c.33-.34.89-.34 1.23 0 .33.33.33.89 0 1.23l-4.88 4.87h6.89c.48 0 .87.38.87.87 0 .48-.39.87-.87.87h-6.9l4.87 4.87c.33.33.33.89 0 1.23 -.34.33-.9.33-1.24 0l-4.88-4.88v6.89c0 .48-.39.87-.87.87 -.49 0-.87-.39-.87-.87v-6.9L6.2 18.93c-.34.33-.9.33-1.24 0 -.34-.34-.34-.9 0-1.24l4.87-4.88h-6.9c-.49 0-.87-.39-.87-.87 0-.49.38-.87.87-.87h6.89L4.94 6.19c-.34-.34-.34-.9 0-1.24 .33-.34.89-.34 1.23 0l4.87 4.87v-6.9Zm.87-.57c-.32 0-.57.25-.57.57v7.26c0 .06-.04.11-.1.13 -.06.02-.13.01-.17-.04L6.01 5.21c-.23-.23-.59-.23-.81 0 -.23.22-.23.58 0 .8l5.13 5.13c.04.04.05.1.03.16 -.03.05-.08.09-.14.09H2.95c-.32 0-.57.25-.57.57 0 .31.25.57.57.57h7.26c.06 0 .11.03.13.09 .02.05.01.12-.04.16l-5.14 5.13c-.23.22-.23.58 0 .8 .22.22.58.22.8 0l5.13-5.14c.04-.05.1-.06.16-.04 .05.02.09.07.09.13v7.26c0 .31.25.57.57.57 .31 0 .57-.26.57-.57v-7.27c0-.07.03-.12.09-.14 .05-.03.12-.02.16.03l5.13 5.13c.22.22.58.22.8 0 .22-.23.22-.59 0-.81l-5.14-5.14c-.05-.05-.06-.11-.04-.17 .02-.06.07-.1.13-.1h7.26c.31 0 .57-.26.57-.57 0-.32-.26-.57-.57-.57H13.6c-.07 0-.12-.04-.14-.1 -.03-.06-.02-.13.03-.17l5.13-5.14c.22-.23.22-.59 0-.81 -.23-.23-.59-.23-.81 0l-5.14 5.13c-.05.04-.11.05-.17.03 -.06-.03-.1-.08-.1-.14V2.84c0-.32-.26-.57-.57-.57Z"/></g></svg>