<svg viewBox="0 0 24 24" xmlns="http://www.w3.org/2000/svg"><path fill="currentColor" d="M9.51 1.75c.41 0 .78.27.92.66l3.15 8.88c-.61.45-1.13 1.01-1.54 1.64L9.44 5.6l-2.86 7.37h5.41c-.39.6-.68 1.27-.85 2H5.79l-1.4 3.61c-.2.51-.78.77-1.3.57 -.52-.2-.78-.78-.58-1.3l6-15.5c.15-.39.52-.65.94-.64Zm7.48 14.24v3c0 .27.22.5.5.5 .27 0 .5-.23.5-.5v-3c0-.28-.23-.5-.5-.5 -.28 0-.5.22-.5.5Zm1.25-2.25c0 .41-.34.75-.75.75 -.42 0-.75-.34-.75-.75 0-.42.33-.75.75-.75 .41 0 .75.33.75.75Zm4.75 2.75c0 3.03-2.47 5.5-5.5 5.5 -3.04 0-5.5-2.47-5.5-5.5 0-3.04 2.46-5.5 5.5-5.5 3.03 0 5.5 2.46 5.5 5.5Zm-1 0c0-2.49-2.02-4.5-4.5-4.5 -2.49 0-4.5 2.01-4.5 4.5 0 2.48 2.01 4.5 4.5 4.5 2.48 0 4.5-2.02 4.5-4.5Z"/></svg>