<svg viewBox="0 0 24 24" xmlns="http://www.w3.org/2000/svg"><path fill="currentColor" d="M9.97 16.16l4.59-12.52c.3-.84 1.44-.88 1.82-.12l.04.11 5.5 14.99c.19.51-.08 1.09-.6 1.28 -.49.17-1.02-.05-1.24-.49l-.05-.11 -1.42-3.85H12.3l-1.45 3.91 -.05.07 -.08.1 -.08.08 -.09.07 -.09.06 -.06.03 -.09.04 -.11.04 -.11.02 -.14.01 -.11 0 -.08-.01 -.11-.02 -.15-.05 -.07-.03 -.11-.06 -.12-.09 -.1-.09 -.07-.08 -.07-.09 -.06-.11 -.75-1.92H4.46l-.73 1.86c-.19.47-.7.73-1.19.6l-.12-.04c-.48-.19-.74-.7-.61-1.19l.03-.12 3.49-9c.31-.81 1.42-.85 1.81-.12l.05.11 2.53 6.52 4.59-12.52 -4.6 12.51Zm-3.48-3.41l-1.07 2.73h2.13l-1.07-2.74Zm9-5.86l-2.42 6.59h4.83l-2.42-6.6Z"/></svg>