<svg viewBox="0 0 24 24" xmlns="http://www.w3.org/2000/svg"><path fill="currentColor" d="M8 4c0-.56-.45-1-1-1 -.56 0-1 .44-1 1v13.58l-.3-.3c-.4-.4-1.03-.4-1.42 0 -.4.39-.4 1.02 0 1.41l2 2c.39.39 1.02.39 1.41 0l2-2c.39-.4.39-1.03 0-1.42 -.4-.4-1.03-.4-1.42 0l-.3.29V3.97Zm9.17-.39c-.16-.38-.52-.62-.93-.62 -.41 0-.77.24-.93.61l-3.75 9c-.22.5.02 1.09.53 1.3 .5.21 1.09-.03 1.3-.54l.99-2.39h3.66l.99 2.38c.21.5.79.75 1.3.53 .5-.22.75-.8.53-1.31l-3.75-9.01Zm.07 5.38h-2l1-2.4 1 2.4Zm-1.26 5c-.56 0-1 .44-1 1v2.58l-.3-.3c-.4-.4-1.03-.4-1.42 0 -.4.39-.4 1.02 0 1.41l2 2c.39.39 1.02.39 1.41 0l2-2c.39-.4.39-1.03 0-1.42 -.4-.4-1.03-.4-1.42 0l-.3.29v-2.59c0-.56-.45-1-1-1Z"/></svg>