<svg viewBox="0 0 24 24" xmlns="http://www.w3.org/2000/svg"><g fill="currentColor"><path d="M12.83 4.16c-.14-.35-.47-.57-.84-.57 -.37-.01-.71.22-.84.56l-4.51 11.4c-.19.46.04.98.5 1.16 .46.18.98-.05 1.16-.51l1.43-3.64h4.45l1.43 3.63c.18.46.7.68 1.16.5 .46-.19.68-.71.5-1.17l-4.5-11.4Zm.68 6.63h-3.04l1.51-3.85 1.51 3.84Z"/><path d="M3 19.2c-.34 0-.6.26-.6.59 0 .33.26.6.6.6h18c.33 0 .6-.27.6-.61 0-.34-.27-.6-.6-.6H3Z"/><path fill="currentColor" fill-rule="evenodd" d="M12 3.74c-.31-.01-.59.18-.7.47l-4.51 11.4c-.16.38.03.82.42.97 .38.15.82-.04.97-.43l1.47-3.73h4.66l1.47 3.72c.15.38.58.57.97.42 .38-.16.57-.59.42-.98l-4.5-11.4c-.12-.29-.39-.48-.7-.48Zm-.98.36c.15-.41.54-.67.97-.67 .43 0 .81.26.97.66l4.49 11.4c.21.53-.06 1.14-.6 1.36 -.54.21-1.15-.06-1.37-.6l-1.4-3.54H9.82l-1.4 3.53c-.22.53-.83.8-1.37.59 -.54-.22-.81-.83-.6-1.37l4.5-11.4Zm.97 2.42l1.73 4.4h-3.48l1.73-4.41Zm-1.3 4.1h2.59l-1.3-3.3 -1.3 3.29Zm-7.71 8.69c-.25 0-.45.2-.45.45 0 .24.2.45.45.45h18c.24 0 .45-.21.45-.46s-.21-.45-.45-.45h-18Zm-.75.45c0-.42.33-.75.75-.75h18c.41 0 .75.33.75.75 0 .41-.34.75-.75.75h-18c-.42 0-.75-.34-.75-.75Z"/></g></svg>