<svg viewBox="0 0 24 24" xmlns="http://www.w3.org/2000/svg"><path fill="currentColor" d="M3.59 6.9c0-1.83 1.47-3.3 3.3-3.3h10.19c1.82 0 3.3 1.47 3.3 3.3v4.38c-.53-.31-1.15-.49-1.8-.49 -1.07 0-2.03.46-2.69 1.2h-4.52c-.34 0-.6.26-.6.6 0 .33.26.6.6.6h3.8c-.14.37-.21.77-.21 1.2 0 .42.07.82.2 1.2h-3.81c-.34 0-.6.26-.6.6 0 .33.26.6.6.6h4.51l.01.01c-1.53.13-2.73 1.42-2.73 2.98 0 .2.01.4.04.6H6.83c-1.83 0-3.3-1.48-3.3-3.3V6.88Zm4.5 2.7c.49 0 .9-.41.9-.9 0-.5-.41-.9-.9-.9 -.5 0-.9.4-.9.9 0 .49.4.9.9.9Zm.9 2.7c0-.5-.41-.9-.9-.9 -.5 0-.9.4-.9.9 0 .49.4.9.9.9 .49 0 .9-.41.9-.9Zm-.9 4.5c.49 0 .9-.41.9-.9 0-.5-.41-.9-.9-.9 -.5 0-.9.4-.9.9 0 .49.4.9.9.9ZM10.78 9c0 .33.26.6.6.6h4.8c.33 0 .6-.27.6-.6 0-.34-.27-.6-.6-.6h-4.8c-.34 0-.6.26-.6.6Zm10.2 5.4c0 1.32-1.08 2.4-2.4 2.4 -1.33 0-2.4-1.08-2.4-2.4 0-1.33 1.07-2.4 2.4-2.4 1.32 0 2.4 1.07 2.4 2.4Zm1.8 5.4c0 1.49-1.2 3-4.2 3s-4.2-1.51-4.2-3c0-1 .8-1.8 1.8-1.8h4.8c.99 0 1.8.8 1.8 1.8Z"/></svg>