<svg viewBox="0 0 24 24" xmlns="http://www.w3.org/2000/svg"><path fill="currentColor" d="M3 6.25C3 4.45 4.45 3 6.25 3h11.5C19.54 3 21 4.45 21 6.25v11.5c0 1.79-1.46 3.25-3.25 3.25H6.25C4.45 21 3 19.54 3 17.75V6.25Zm4.75 3c.55 0 1-.45 1-1 0-.56-.45-1-1-1 -.56 0-1 .44-1 1 0 .55.44 1 1 1Zm3.5-1.75c-.42 0-.75.33-.75.75 0 .41.33.75.75.75h5.5c.41 0 .75-.34.75-.75 0-.42-.34-.75-.75-.75h-5.5Zm0 3.75c-.42 0-.75.33-.75.75 0 .41.33.75.75.75h5.49c.41 0 .75-.34.75-.75 0-.42-.34-.75-.75-.75h-5.5Zm-.75 4.5c0 .41.33.75.75.75h5.49c.41 0 .75-.34.75-.75 0-.42-.34-.75-.75-.75h-5.5c-.42 0-.75.33-.75.75ZM8.74 12c0-.56-.45-1-1-1 -.56 0-1 .44-1 1 0 .55.44 1 1 1 .55 0 1-.45 1-1Zm-1 4.75c.55 0 1-.45 1-1 0-.56-.45-1-1-1 -.56 0-1 .44-1 1 0 .55.44 1 1 1Z"/></svg>