<svg viewBox="0 0 24 24" xmlns="http://www.w3.org/2000/svg"><path fill="currentColor" d="M18.25 3C19.76 3 21 4.23 21 5.75v12.5c0 1.51-1.24 2.75-2.75 2.75H5.75C4.23 21 3 19.76 3 18.25V5.75C3 4.23 4.23 3 5.75 3h12.5ZM12.5 9.75c0-.42-.34-.75-.75-.75 -.38 0-.7.28-.75.64l-.01.1v7.5c0 .41.33.75.75.75 .37 0 .69-.29.74-.65l0-.11v-7.5Zm-4 7.5V6.75c0-.42-.34-.75-.75-.75 -.38 0-.7.28-.75.64l-.01.1v10.5c0 .41.33.75.75.75 .37 0 .69-.29.74-.65l0-.11Zm8-10.5c0-.42-.34-.75-.75-.75 -.38 0-.7.28-.75.64l-.01.1v10.5c0 .41.33.75.75.75 .37 0 .69-.29.74-.65l0-.11V6.73Z"/></svg>