<svg viewBox="0 0 24 24" xmlns="http://www.w3.org/2000/svg"><path fill="currentColor" d="M12.41 4.4c.23-.53.85-.78 1.28-.6 .57.22.8.96.49 1.45 -.17.26-.43.53-.78.84 -.22.19-.43.35-.64.53 -.17.13-.33.26-.52.42 -.74.61-1.77 1.56-1.77 2.93 0 .55.44 1 1 1h4.25c.55 0 1-.45 1-1 0-.56-.45-1.01-1-1.01H13.07c.12-.13.27-.26.45-.41 .12-.11.26-.23.42-.36 .25-.21.532-.44.76-.64 .4-.36.82-.78 1.14-1.29 .99-1.59.23-3.7-1.452-4.38 -1.58-.63-3.24.28-3.86 1.63 -.23.5-.01 1.09.49 1.32 .5.22 1.09 0 1.32-.5ZM2.99 1.99c.55 0 1 .44 1 1v2.5h3v-2.5c0-.56.44-1 1-1 .55 0 1 .44 1 1v6.99c0 .55-.45 1-1 1 -.56 0-1-.45-1-1.01v-2.5h-3v2.5c0 .55-.45 1-1 1 -.56 0-1-.45-1-1V2.96c0-.56.44-1 1-1Zm14.55 3.46c.11-.29.38-.47.69-.47h3c.3 0 .57.18.69.46 .11.28.05.6-.17.81l-1.51 1.5c-.3.29-.77.29-1.07 0l-1.51-1.51c-.22-.22-.28-.54-.17-.82ZM1.98 19.98c0-.56.44-1 1-1h18c.55 0 1 .44 1 1 0 .55-.45 1-1 1h-18c-.56 0-1-.45-1-1Zm1-6c-.56 0-1 .44-1 1 0 .55.44 1 1 1h18c.55 0 1-.45 1-1 0-.56-.45-1-1-1h-18Z"/></svg>