<svg viewBox="0 0 24 24" xmlns="http://www.w3.org/2000/svg"><path fill="currentColor" d="M2.75 3.99c-.36 0-.67.24-.74.59 -.08.34.1.69.42.83l0 0s.01 0 .02.01c.02.01.06.02.1.05 .09.05.23.13.38.23 .31.21.66.52.9.9 .21.35.68.45 1.03.23s.45-.69.23-1.04c-.08-.13-.17-.25-.25-.36H7.2c.41 0 .75-.34.75-.75 0-.42-.34-.75-.75-.75H2.7Zm15.25 7v8.5l0 .11c.05.49.48.88.99.88 .55 0 1-.45 1-1v-8.5l-.01-.12c-.06-.5-.49-.89-1-.89 -.56 0-1 .44-1 1Zm-6.5 0v8.5l0 .11c.05.49.48.88.99.88 .55 0 1-.45 1-1v-8.5l-.01-.12c-.06-.5-.49-.89-1-.89 -.56 0-1 .44-1 1Zm-5.51-1c-.56 0-1 .44-1 1v8.5l0 .11c.05.49.48.88.99.88 .55 0 1-.45 1-1v-8.5l-.01-.12c-.06-.5-.49-.89-1-.89Zm4.51-5.16c-.06.3.06.67.26.87 .29.29.29.76-.01 1.06 -.3.29-.77.29-1.07-.01 -.56-.56-.82-1.44-.68-2.2 .07-.4.25-.81.6-1.12 .35-.32.82-.48 1.35-.48 .61 0 1.08.27 1.42.6 .28.27.51.63.68.9l.05.07c.12.19.23.35.33.48V3.67c0-.42.33-.75.75-.75 .41 0 .75.33.75.75v2.49c0 .41-.34.75-.75.75 -1.32 0-1.96-.99-2.34-1.58l-.04-.07c-.21-.32-.35-.54-.51-.69 -.14-.14-.24-.18-.37-.18 -.23 0-.32.06-.36.09 -.05.04-.1.11-.13.25Zm10.76 2.18s.08-.1 0-.01l0-.01 .01-.02c0-.01.02-.03.03-.04 .02-.03.05-.07.09-.12 .07-.1.15-.23.24-.4 .17-.35.32-.84.32-1.47 0-.64-.19-1.2-.54-1.61 -.37-.41-.86-.62-1.36-.6 -.42.01-.8.16-1.11.42 -.31-.26-.69-.42-1.11-.43 -.51-.02-1 .18-1.36.59 -.36.4-.54.96-.54 1.6 0 .62.15 1.11.32 1.46 .08.16.17.3.24.39 .03.04.06.08.09.11 .01.01.02.02.03.03l.01.01 0 0 0 0 0 0 0 0c.29.29.76.29 1.06 0 .28-.29.29-.76.01-1.05 -.01-.01-.01-.02-.03-.03 -.03-.04-.07-.09-.11-.17 -.08-.16-.18-.42-.18-.79 0-.37.09-.54.16-.61 .06-.07.12-.1.18-.09 .06 0 .15.03.23.12 .07.08.16.26.16.57 0 .41.33.75.75.75 .41 0 .75-.34.75-.75 0-.31.09-.49.16-.58 .07-.1.16-.13.23-.13 .06-.01.12.01.18.08s.16.24.16.6c0 .37-.1.63-.18.78 -.05.08-.08.13-.11.16 -.02.01-.02.02-.03.02 -.29.29-.28.75.01 1.04 .29.29.76.29 1.06 0ZM16.69 7l0 0c-.01-.01-.17-.21-.01-.01Z"/></svg>