<svg viewBox="0 0 24 24" xmlns="http://www.w3.org/2000/svg"><path fill="currentColor" d="M22 11.5c0-.56-.45-1-1-1 -.56 0-1 .44-1 1v.08l-3.05-3.05c-.4-.4-1.03-.4-1.42 0 -.4.39-.4 1.02 0 1.41l3.04 3.04h-.09c-.56 0-1 .44-1 1 0 .55.44 1 1 1h2.5c.55 0 1-.45 1-1v-2.5Zm-5.6-8.08c.18-.39.1-.84-.2-1.14 -.3-.3-.76-.38-1.14-.2l-9.5 4.5c-.5.23-.72.83-.48 1.33 .23.49.83.71 1.33.47l2.41-1.15 2.39 2.39 -1.15 2.41c-.24.49-.03 1.09.47 1.33 .49.23 1.09.02 1.33-.48l4.5-9.5Zm-4.26 4.3l-1.39-1.39 2.63-1.25 -1.25 2.63Zm2.84 10.76c0-.56-.45-1-1-1 -.56 0-1 .44-1 1v.08l-9.3-9.3c-.4-.4-1.03-.4-1.42 0 -.4.39-.4 1.02 0 1.41l9.29 9.29h-.09c-.56 0-1 .44-1 1 0 .55.44 1 1 1h2.5c.55 0 1-.45 1-1v-2.5Z"/></svg>