<svg viewBox="0 0 24 24" xmlns="http://www.w3.org/2000/svg"><path fill="currentColor" d="M3.6 6.9c0-1.83 1.47-3.3 3.3-3.3h10.2c1.82 0 3.3 1.47 3.3 3.3v10.2c0 1.82-1.48 3.3-3.3 3.3h-4.96l-1.88-1.88c.25-.54.42-1.12.49-1.73h5.433c.33 0 .6-.27.6-.6 0-.34-.27-.6-.6-.6H10.75c-.3-2.7-2.59-4.8-5.37-4.8 -.64 0-1.24.1-1.8.3V6.88Zm4.5 2.7c.49 0 .9-.41.9-.9 0-.5-.41-.9-.9-.9 -.5 0-.9.4-.9.9 0 .49.4.9.9.9Zm2.7-.6c0 .33.26.6.6.6h4.8c.33 0 .6-.27.6-.6 0-.34-.27-.6-.6-.6h-4.8c-.34 0-.6.26-.6.6Zm.6 3c-.34 0-.6.26-.6.6 0 .33.26.6.6.6h4.8c.33 0 .6-.27.6-.6 0-.34-.27-.6-.6-.6h-4.8Zm-6 8.4c.94 0 1.81-.32 2.51-.84l3.06 3.06c.23.23.61.23.84 0 .23-.24.23-.62 0-.85L8.74 18.7c.52-.71.83-1.58.83-2.52 0-2.32-1.89-4.2-4.2-4.2 -2.32 0-4.2 1.88-4.2 4.2 0 2.31 1.88 4.2 4.2 4.2Zm0-1.2c-1.66 0-3-1.35-3-3 0-1.66 1.34-3 3-3 1.65 0 3 1.34 3 3 0 1.65-1.35 3-3 3Z"/></svg>