<svg viewBox="0 0 24 24" xmlns="http://www.w3.org/2000/svg"><path fill="currentColor" d="M15.39 7.94c.19-.4.8-1.2 2.35-1.2 .79 0 1.34.24 1.68.57 .34.32.56.8.56 1.42 0 .57-.15.95-.32 1.21 -.19.26-.45.47-.78.63 -.7.33-1.56.39-2.14.39 -.56 0-1 .44-1 1 0 .55.44 1 1 1 .57 0 1.43.06 2.13.39 .33.16.59.36.77.63 .17.26.31.63.31 1.21 0 .94-.81 2-2.25 2 -1.64 0-2.16-.71-2.33-1.12 -.21-.52-.79-.77-1.3-.57 -.52.2-.77.78-.57 1.29 .49 1.25 1.81 2.38 4.17 2.38 2.55 0 4.25-1.95 4.25-4 0-.93-.24-1.71-.66-2.34 -.26-.38-.57-.68-.89-.92 .32-.25.63-.55.88-.92 .42-.63.65-1.41.65-2.34 0-1.13-.41-2.15-1.19-2.89 -.78-.74-1.86-1.12-3.07-1.12 -2.45 0-3.68 1.36-4.15 2.3 -.25.49-.05 1.09.44 1.34 .49.24 1.09.04 1.34-.45ZM3.99 5.99c0-.56-.45-1-1-1 -.56 0-1 .44-1 1v12c0 .55.44 1 1 1 .55 0 1-.45 1-1v-5h6v5c0 .55.44 1 1 1 .55 0 1-.45 1-1v-12c0-.56-.45-1-1-1 -.56 0-1 .44-1 1v5h-6v-5Z"/></svg>