<svg viewBox="0 0 24 24" xmlns="http://www.w3.org/2000/svg"><path fill="currentColor" d="M8.94 5.43c1.29-1.24 2.95-1.83 4.88-1.68 2.05.15 3.2 1.27 3.79 2.36 .28.52.43 1.03.52 1.4 .04.18.06.34.08.46 0 .05.01.1.01.14 0 .01 0 .03 0 .04l0 .01 0 0 0 0 0 0s-.04-.29-.01-.01l0 0c.03.55-.4 1.02-.95 1.05 -.55.02-1.02-.39-1.06-.94l-.01-.01c-.01-.02-.01-.04-.01-.07 -.01-.07-.03-.17-.05-.29 -.06-.25-.16-.57-.33-.89 -.33-.6-.93-1.23-2.2-1.33 -1.4-.11-2.49.3-3.36 1.13 -.9.85-1.63 2.21-2.1 4.11 -.47 1.87-.61 3.7-.22 5.05 .19.65.49 1.15.91 1.51 .41.35 1.01.62 1.91.69 1.76.14 2.85-.57 3.52-1.31 .34-.38.58-.77.74-1.07 .07-.15.12-.27.16-.35 .01-.04.02-.07.03-.09l0-.02 -.01 0 -.01 0c.17-.53.73-.82 1.25-.64 .52.17.81.73.64 1.26l-.01.01c0-.01 0-.01 0-.01l-.01 0 -.01 0 -.01 0 -.01.01c-.01.01-.02.02-.02.04 -.02.03-.04.09-.07.15 -.06.12-.14.3-.24.51 -.22.41-.56.96-1.05 1.5 -1.02 1.1-2.68 2.14-5.17 1.94 -1.24-.1-2.26-.5-3.05-1.17 -.79-.67-1.28-1.54-1.55-2.49 -.54-1.85-.31-4.1.19-6.1 .52-2.11 1.39-3.87 2.65-5.08Z"/></svg>