<svg viewBox="0 0 24 24" xmlns="http://www.w3.org/2000/svg"><path fill="currentColor" d="M2.76 14c-.22 0-.41-.06-.55-.18 -.15-.13-.22-.29-.22-.47 0-.11.03-.25.09-.41L6 2.7c.18-.48.51-.71.99-.71 .45 0 .77.23.95.7l3.93 10.24c.06.16.09.29.09.4 0 .18-.08.33-.22.46 -.15.11-.33.17-.55.17 -.37 0-.61-.19-.75-.57l-1.09-2.93H4.51l-1.08 2.92c-.14.37-.39.56-.75.56Zm2.25-4.74h3.95L7 3.89h-.06L4.98 9.25Zm7.77 5.46l5.48 5.48 4.15-4.16c.76-.77.76-2 0-2.76l-2.724-2.73c-.15-.15-.3-.26-.47-.35 -.74-.4-1.68-.28-2.3.34l-4.16 4.15Zm1.95-3.38l-1.75 1.74V2.72c0-.23.06-.41.19-.55 .13-.15.3-.22.51-.22 .2 0 .37.07.5.21 .13.14.2.32.2.54v4.07h.03c.27-.49.64-.87 1.11-1.15 .47-.28 1-.42 1.59-.42 1.06 0 1.92.39 2.58 1.19 .65.79.98 1.85.98 3.17 0 .17-.01.34-.02.51l-.29-.29c-.34-.34-.74-.58-1.17-.72 -.07-.74-.28-1.33-.63-1.8 -.44-.57-1.03-.85-1.77-.85 -.72 0-1.31.28-1.77.86 -.46.57-.69 1.32-.69 2.25 0 .66.11 1.23.34 1.72Zm2.46 9.91l-5.49-5.49 -1.16 1.15c-.77.76-.77 1.99-.01 2.75l2.72 2.724c.33.33.76.52 1.2.56l-.01 0h5.5c.41 0 .75-.34.75-.75 0-.42-.34-.75-.75-.75h-3.03l.22-.23Z"/></svg>