<svg viewBox="0 0 24 24" xmlns="http://www.w3.org/2000/svg"><path fill="currentColor" d="M20 2.75c0-.36-.25-.67-.6-.74 -.35-.08-.7.1-.84.42l-.01 0c-.01 0-.01.01-.02.02 -.02.02-.03.06-.06.1 -.06.09-.14.23-.24.38 -.22.31-.53.66-.91.9 -.36.21-.46.68-.24 1.03 .21.35.68.45 1.03.23 .12-.08.24-.17.35-.25V7.2c0 .41.33.75.75.75 .41 0 .75-.34.75-.75V2.7ZM12.99 18h-8.5l-.12 0c-.5.05-.89.48-.89.99 0 .55.44 1 1 1h8.5l.11-.01c.49-.06.88-.49.88-1 0-.56-.45-1-1-1Zm0-6.5h-8.5l-.12 0c-.5.05-.89.48-.89.99 0 .55.44 1 1 1h8.5l.11-.01c.49-.06.88-.49.88-1 0-.56-.45-1-1-1Zm1-5.51c0-.56-.45-1-1-1h-8.5l-.12 0c-.5.05-.89.48-.89.99 0 .55.44 1 1 1h8.5l.11-.01c.49-.06.88-.49.88-1Zm5.15 4.51c-.31-.06-.68.06-.88.26 -.3.29-.77.29-1.07-.01 -.3-.3-.3-.77 0-1.07 .55-.56 1.43-.82 2.19-.68 .39.07.8.25 1.11.6 .31.35.47.82.47 1.35 0 .61-.28 1.08-.61 1.42 -.28.28-.64.51-.91.68l-.08.05c-.2.12-.36.23-.49.33h1.32c.41 0 .75.33.75.75 0 .41-.34.75-.75.75h-2.5c-.42 0-.75-.34-.75-.75 0-1.32.98-1.96 1.57-2.34l.06-.04c.31-.21.53-.35.68-.51 .13-.14.17-.24.17-.37 0-.23-.07-.32-.1-.36 -.05-.05-.12-.1-.26-.13Zm-2.19 10.76s.09.08 0 0l0 0 .01.01c.01 0 .02.02.03.03 .02.02.06.05.11.09 .09.07.22.15.39.24 .34.17.83.32 1.46.32s1.19-.19 1.6-.54c.4-.37.61-.86.59-1.36 -.02-.42-.17-.8-.43-1.11 .25-.31.41-.69.42-1.11 .01-.51-.19-1-.6-1.36 -.41-.36-.97-.54-1.61-.54 -.63 0-1.12.15-1.47.32 -.17.08-.31.17-.4.24 -.05.03-.09.06-.12.09 -.02.01-.03.02-.04.03l-.02.01 -.01 0 -.01 0 -.01 0 -.01 0c-.3.29-.3.76 0 1.06 .28.28.75.29 1.04.01 0-.01.01-.01.02-.03 .03-.03.08-.07.16-.11 .15-.08.41-.18.78-.18 .36 0 .53.09.6.16 .06.06.09.12.08.18 -.01.06-.04.15-.13.23 -.09.07-.27.16-.58.16 -.42 0-.75.33-.75.75 0 .41.33.75.75.75 .3 0 .48.09.57.16 .09.07.12.16.12.23 0 .06-.02.12-.09.18 -.08.06-.25.16-.61.16 -.38 0-.64-.1-.79-.18 -.09-.05-.14-.08-.17-.11 -.02-.02-.03-.02-.03-.03 -.3-.29-.76-.28-1.05.01 -.3.29-.3.76 0 1.06Zm0-4.57l-.01 0c0-.01.2-.17 0-.01Z"/></svg>