<svg viewBox="0 0 24 24" xmlns="http://www.w3.org/2000/svg"><path fill="currentColor" d="M11.63 5.18c-.5.34-.89.95-.89 2.06 0 .54.19.89.56 1.22 .42.37 1.01.68 1.8 1.08l.03.01c1.48.76 3.56 1.82 4.07 4.47 .53 2.73-1.6 6.19-5.74 6.19 -2.9 0-4.44-2.25-4.93-3.13 -.08-.14-.14-.26-.18-.35 -.03-.05-.04-.08-.05-.11l-.02-.04 -.01-.02 -.01-.01 -.01-.01 -.01-.01c-.22-.51.02-1.1.53-1.31 .5-.22 1.09.02 1.3.53l0 0s.01.02.02.05c.02.05.06.12.11.22 .41.74 1.43 2.1 3.18 2.1 2.85 0 4.06-2.29 3.76-3.81 -.32-1.6-1.48-2.29-3.04-3.09 -.05-.03-.1-.05-.14-.08 -.7-.36-1.5-.77-2.12-1.33 -.73-.65-1.24-1.52-1.24-2.72 0-1.65.61-2.93 1.74-3.71 1.08-.76 2.47-.95 3.86-.79 1.95.21 2.97 1.39 3.45 2.25 .14.26.24.5.3.68 .03.08.05.16.07.22 0 .02.01.05.01.07l0 .02 0 0 0 0 0 0c.12.53-.22 1.07-.76 1.19 -.54.12-1.07-.22-1.2-.75m0 0l-.01-.01 -.01-.01 -.01-.01m0 0c-.01-.01-.01-.01-.01-.02 -.01-.02-.02-.06-.04-.1 -.04-.1-.09-.23-.18-.39 -.27-.49-.81-1.12-1.93-1.25 -1.11-.13-1.97.06-2.51.44"/></svg>