<svg viewBox="0 0 24 24" xmlns="http://www.w3.org/2000/svg"><path fill="currentColor" d="M20.5 16.5c-.83 0-1.5.67-1.5 1.49s.67 1.49 1.49 1.49 1.49-.68 1.49-1.5c0-.83-.68-1.5-1.5-1.5Zm-4.01.49H2.98c-.56 0-1 .44-1 1 0 .51.38.93.88.99l.11 0h13.5c.55 0 1-.45 1-1 0-.52-.39-.94-.89-1l-.12-.01Zm4-6.5c-.83 0-1.5.67-1.5 1.49s.67 1.49 1.49 1.49 1.49-.68 1.49-1.5c0-.83-.68-1.5-1.5-1.5Zm-4.01.49H2.97c-.56 0-1 .44-1 1 0 .51.38.93.88.99l.11 0h13.5c.55 0 1-.45 1-1 0-.52-.39-.94-.89-1l-.12-.01Zm4-6.5c-.83 0-1.5.67-1.5 1.49s.67 1.49 1.49 1.49 1.49-.68 1.49-1.5c0-.83-.68-1.5-1.5-1.5Zm-4.01.49H2.96c-.56 0-1 .44-1 1 0 .51.38.93.88.99l.11 0h13.5c.55 0 1-.45 1-1 0-.52-.39-.94-.89-1l-.12-.01Z"/></svg>