<svg viewBox="0 0 24 24" xmlns="http://www.w3.org/2000/svg"><path fill="currentColor" d="M13.5 3C10.46 3 8 5.46 8 8.5c0 3.03 2.46 5.5 5.49 5.5h1.5v7.2c0 .43.33.79.75.79 .41 0 .75-.36.75-.8V4.48h1.5V21.19c0 .43.33.79.75.79 .41 0 .75-.36.75-.8V4.47h.54l.12-.01c.46-.05.82-.37.82-.75 0-.42-.43-.75-.96-.75h-6.55Zm-9.43 8.85c-.26.2-.63.19-.88-.04 -.27-.26-.29-.68-.03-.95l1.71-1.88L3.15 7.1l-.07-.08c-.19-.27-.16-.64.08-.87 .26-.26.69-.25.94.02L6.24 8.5l.06.08c.17.25.15.6-.07.83l-2.15 2.33 -.08.06Zm1.32 8c.25.2.62.19.87-.04 .26-.26.28-.68.02-.95l-1.72-1.88 1.71-1.88 .06-.08c.18-.27.15-.64-.09-.87 -.27-.26-.7-.25-.95.02L3.14 16.5l-.07.08c-.18.25-.16.6.06.83l2.14 2.33 .07.06Z"/></svg>