<svg viewBox="0 0 24 24" xmlns="http://www.w3.org/2000/svg"><path fill="currentColor" d="M21 17H9c-.56 0-1 .44-1 1 0 .51.38.93.88.99l.11 0h12c.55 0 1-.45 1-1 0-.52-.39-.94-.89-1l-.12-.01h-12 12Zm0-4H3c-.56 0-1 .44-1 1 0 .51.38.93.88.99l.11 0h18c.55 0 1-.45 1-1 0-.52-.39-.94-.89-1l-.12-.01h-18 18Zm0-4H3c-.56 0-1 .44-1 1 0 .51.38.93.88.99l.11 0h18c.55 0 1-.45 1-1 0-.52-.39-.94-.89-1l-.12-.01h-18 18Zm0-4H3c-.56 0-1 .44-1 1 0 .51.38.93.88.99l.11 0h18c.55 0 1-.45 1-1 0-.52-.39-.94-.89-1l-.12-.01h-18 18Z"/></svg>