<svg viewBox="0 0 24 24" xmlns="http://www.w3.org/2000/svg"><path fill="currentColor" d="M3 5h18c.55 0 1 .44 1 1 0 .51-.39.93-.89.99l-.12 0h-18c-.56 0-1-.45-1-1 0-.52.38-.94.88-1l.11-.01Zm0 6c-.56 0-1-.45-1-1 0-.52.38-.94.88-1l.11-.01h18c.55 0 1 .44 1 1 0 .51-.39.93-.89.99l-.12 0h-18Zm0 4h8.49c.31-.75.75-1.43 1.31-2H2.99l-.12 0c-.5.05-.89.48-.89.99 0 .55.44 1 1 1Zm0 2h8.01c-.02.16-.02.33-.02.5 0 .51.06 1.01.17 1.5H2.98c-.56 0-1-.45-1-1 0-.52.38-.94.88-1l.11-.01Zm9 .5c0 3.03 2.46 5.5 5.5 5.5 3.03 0 5.5-2.47 5.5-5.5 0-3.04-2.47-5.5-5.5-5.5 -3.04 0-5.5 2.46-5.5 5.5Zm6.35 2.85l-.07.05c-.2.13-.47.11-.64-.06l-.06-.07c-.14-.2-.12-.47.05-.64l1.64-1.65h-4.79l-.09-.01c-.24-.05-.42-.25-.42-.5l0-.09c.04-.24.24-.42.49-.42h4.78l-1.65-1.65 -.06-.07c-.14-.2-.12-.47.05-.64 .19-.2.51-.2.7 0l2.51 2.51 .05.06 .03.06 .02.08 .01.08 -.01.11 -.02.08 -.03.05 -.05.07 -.05.05 -2.52 2.51Z"/></svg>