<svg viewBox="0 0 24 24" xmlns="http://www.w3.org/2000/svg"><path fill="currentColor" d="M20.18 5.01c.08.01.17.04.25.08 .36.17.57.54.56.93v11.96c0 .55-.45 1-1 1 -.56 0-1-.45-1-1V9.59c-.64.62-1.37 1.06-2.19 1.33 -.53.17-1.1-.11-1.27-.64 -.18-.53.1-1.1.63-1.27 1.12-.38 2.18-1.34 2.85-3.34 .03-.12.08-.23.15-.32 .03-.05.07-.1.11-.14 .22-.22.54-.31.86-.26ZM2.99 4.99c.55 0 1 .44 1 1v4.99h6v-5c0-.56.44-1 1-1 .55 0 1 .44 1 1v11.99c0 .55-.45 1-1 1 -.56 0-1-.45-1-1v-5h-6v5c0 .55-.45 1-1 1 -.56 0-1-.45-1-1v-12c0-.56.44-1 1-1Z"/></svg>