<svg viewBox="0 0 24 24" xmlns="http://www.w3.org/2000/svg"><path fill="currentColor" d="M20.02 7.54c-.08.05-.15.1-.22.15 -.46.3-1.09.18-1.39-.28 -.31-.46-.19-1.09.27-1.39 .72-.49 1.24-1.25 1.35-1.75 .1-.51.57-.84 1.07-.79 .5.04.9.47.9.99v6.5c0 .55-.45 1-1 1 -.56 0-1-.45-1-1V7.51ZM2.1 17.97l-.01-.01c-.23-.21-.36-.48-.36-.79 0-.19.04-.37.11-.54l0-.01 3.43-8.96c.1-.28.27-.53.51-.7 .24-.18.53-.25.82-.25 .28 0 .56.07.8.25 .23.17.39.41.49.68l3.44 8.96c.06.16.11.35.11.53 0 .31-.14.58-.37.78l-.01 0c-.24.19-.51.27-.8.27 -.25 0-.5-.07-.71-.23 -.21-.16-.34-.37-.42-.6l-.83-2.23H4.76l-.82 2.22 -.01 0c-.09.22-.22.44-.42.59 -.21.15-.46.22-.71.22 -.29 0-.57-.09-.8-.27l-.01-.01Zm5.53-4.87l-1.02-2.8 -1.02 2.79h2.03Zm4.1 4.03c0 .28.08.55.28.77l0 0c.21.22.49.31.78.31 .29 0 .57-.11.78-.32 .1-.11.18-.23.23-.35 .1.08.22.16.34.23l0 0c.5.28 1.06.42 1.67.42 1.08 0 1.99-.41 2.66-1.22l0-.01c.66-.81.97-1.86.97-3.11 0-1.24-.31-2.29-.98-3.1 -.68-.82-1.57-1.23-2.65-1.23 -.6 0-1.16.14-1.65.42l-.01 0c-.09.05-.17.1-.25.16V7.8c0-.31-.1-.6-.32-.82 -.22-.24-.5-.35-.81-.35 -.31 0-.59.11-.81.33l-.01 0c-.22.22-.31.51-.31.81V17Zm5.48-3.22c0 .77-.18 1.31-.47 1.69 -.28.35-.65.53-1.16.53 -.48 0-.85-.18-1.16-.57 -.31-.4-.49-.94-.49-1.67 0-.74.17-1.28.48-1.67 .31-.4.68-.58 1.15-.58 .5 0 .87.18 1.15.54 .29.37.46.92.46 1.69Z"/></svg>