<svg viewBox="0 0 24 24" xmlns="http://www.w3.org/2000/svg"><g fill="currentColor"><path d="M3.61 7.1c.83 0 1.51-.68 1.51-1.5 0-.83-.68-1.5-1.52-1.5s-1.52.67-1.52 1.5c0 .82.67 1.5 1.51 1.5Zm4.54-1.5c0-.5.4-.9.9-.9h11.5c.5 0 .9.4.9.9 0 .49-.41.9-.91.9H9.03c-.51 0-.91-.41-.91-.9Zm.9 5.1c-.51 0-.91.4-.91.9 0 .49.4.9.9.9h6.6c.84-.39 1.78-.6 2.77-.6 .89 0 1.75.17 2.54.49 .28-.16.48-.46.48-.8 0-.5-.41-.9-.91-.9H9.01Zm0 6h2.97c-.17.57-.26 1.17-.26 1.8H9.03c-.51 0-.91-.41-.91-.9 0-.5.4-.9.9-.9Zm-3.94-5.1c0 .82-.68 1.5-1.52 1.5s-1.52-.68-1.52-1.5c0-.83.67-1.5 1.51-1.5 .83 0 1.51.67 1.51 1.5Zm-1.52 7.5c.83 0 1.51-.68 1.51-1.5 0-.83-.68-1.5-1.52-1.5s-1.52.67-1.52 1.5c0 .82.67 1.5 1.51 1.5Zm20.28-.6c0 2.98-2.44 5.4-5.45 5.4 -3.01 0-5.45-2.42-5.45-5.4 0-2.99 2.43-5.4 5.44-5.4 3 0 5.44 2.41 5.44 5.4Zm-4.6 0l1.38-1.38c.23-.24.23-.62 0-.85 -.24-.24-.62-.24-.86 0l-1.39 1.37 -1.39-1.38c-.24-.24-.62-.24-.86 0 -.24.23-.24.61 0 .84l1.38 1.37 -1.39 1.37c-.24.23-.24.61 0 .84 .23.23.61.23.85 0l1.38-1.38 1.38 1.37c.23.23.61.23.85 0 .23-.24.23-.62 0-.85l-1.39-1.38Z"/><path fill="currentColor" fill-rule="evenodd" d="M2 5.6C2 4.71 2.72 4 3.61 4c.89 0 1.61.71 1.61 1.6 0 .88-.73 1.6-1.62 1.6 -.9 0-1.62-.72-1.62-1.6Zm1.61-1.4c-.79 0-1.42.62-1.42 1.4 0 .77.63 1.4 1.41 1.4 .78 0 1.41-.63 1.41-1.4 0-.78-.64-1.4-1.42-1.4Zm5.44.6c-.45 0-.81.35-.81.8 0 .44.36.8.8.8h11.5c.44 0 .8-.36.8-.8 0-.45-.37-.8-.81-.8H9.02Zm-1.01.8c0-.56.45-1 1-1h11.5c.55 0 1 .44 1 1 0 .55-.46 1-1.01 1H9.02c-.56 0-1.01-.45-1.01-1Zm-4.45 4.6c-.79 0-1.42.62-1.42 1.4 0 .77.63 1.4 1.41 1.4 .78 0 1.41-.63 1.41-1.4 0-.78-.64-1.4-1.42-1.4Zm-1.62 1.4c0-.89.72-1.6 1.61-1.6 .89 0 1.61.71 1.61 1.6 0 .88-.73 1.6-1.62 1.6 -.9 0-1.62-.72-1.62-1.6Zm6.05 0c0-.56.45-1 1-1h11.5c.55 0 1 .44 1 1 0 .38-.22.71-.55.88l-.05.02 -.05-.02c-.78-.32-1.62-.49-2.51-.49 -.98 0-1.91.21-2.74.59l-.02 0H8.97c-.56 0-1.01-.45-1.01-1Zm1-.8c-.45 0-.81.35-.81.8 0 .44.36.8.8.8h6.58c.85-.39 1.8-.6 2.8-.6 .89 0 1.75.17 2.53.48 .23-.14.39-.4.39-.69 0-.45-.37-.8-.81-.8H8.99Zm9.38 2.4c-2.96 0-5.35 2.37-5.35 5.3 0 2.92 2.39 5.3 5.34 5.3 2.95 0 5.34-2.38 5.34-5.3 0-2.93-2.4-5.3-5.35-5.3Zm-5.56 5.3c0-3.04 2.48-5.5 5.55-5.5 3.06 0 5.55 2.46 5.55 5.5 0 3.03-2.49 5.5-5.56 5.5 -3.07 0-5.56-2.47-5.56-5.5Zm-10.9-.9c0-.89.72-1.6 1.61-1.6 .89 0 1.61.71 1.61 1.6 0 .88-.73 1.6-1.62 1.6 -.9 0-1.62-.72-1.62-1.6Zm1.61-1.4c-.79 0-1.42.62-1.42 1.4 0 .77.63 1.4 1.41 1.4 .78 0 1.41-.63 1.41-1.4 0-.78-.64-1.4-1.42-1.4Zm12.51 0c.27-.28.72-.28.99 0l1.31 1.3 1.31-1.31c.27-.28.72-.28.99 0 .27.27.27.71 0 .99l-1.32 1.3 1.31 1.3c.27.27.27.71 0 .99 -.28.27-.73.27-1 0l-1.32-1.31 -1.32 1.3c-.28.27-.73.27-1 0 -.28-.28-.28-.72 0-.99l1.31-1.31L16 17.15c-.28-.28-.28-.72 0-.99Zm.85.14c-.2-.2-.52-.2-.72 0 -.2.19-.2.51 0 .7l1.45 1.44 -1.46 1.44c-.2.19-.2.51 0 .7 .19.19.51.19.71 0l1.45-1.45 1.45 1.44c.19.19.51.19.71 0 .19-.2.19-.52 0-.71l-1.46-1.45L20.49 17c.19-.2.19-.52 0-.71 -.2-.2-.52-.2-.72 0l-1.46 1.44 -1.46-1.45Zm-7.93.45c-.45 0-.81.35-.81.8 0 .44.36.8.8.8h2.62c0-.56.08-1.09.21-1.6H8.95Zm-1.01.8c0-.56.45-1 1-1h3.1l-.04.12c-.17.56-.25 1.15-.25 1.77v.1H8.95c-.56 0-1.01-.45-1.01-1Z"/></g></svg>