<svg viewBox="0 0 24 24" xmlns="http://www.w3.org/2000/svg"><path fill="currentColor" d="M3 17h7.52l-2.01 2H2.98c-.56 0-1-.45-1-1 0-.52.38-.94.88-1l.11-.01Zm0-2h7.84c-.52-.31-.85-.87-.85-1.5 0-.18.02-.35.07-.5H2.98l-.12 0c-.5.05-.89.48-.89.99 0 .55.44 1 1 1Zm0-8h18l.11-.01c.49-.06.88-.49.88-1 0-.56-.45-1-1-1h-18l-.12 0c-.5.05-.89.48-.89.99 0 .55.44 1 1 1Zm9.71 9.21c.29-.3.76-.3 1.06 0 .29.29.29.76 0 1.06l-4.5 4.5c-.3.29-.77.29-1.07 0 -.3-.3-.3-.77 0-1.07l4.5-4.5ZM2.99 8.99h10c.55 0 1 .44 1 1 0 .51-.39.93-.89.99l-.12 0h-10c-.56 0-1-.45-1-1 0-.52.38-.94.88-1l.11-.01Zm13.5-1c.37 0 .69.28.74.65l.13 1.12c.18 1.48 1.34 2.64 2.82 2.82l1.12.13c.37.04.65.36.65.74 0 .37-.29.69-.66.74l-1.13.13c-1.49.18-2.65 1.34-2.83 2.82l-.14 1.12c-.05.37-.37.65-.75.65s-.7-.29-.75-.66l-.14-1.13c-.19-1.49-1.35-2.65-2.83-2.83l-1.13-.14c-.38-.05-.66-.37-.66-.75s.28-.7.65-.75l1.12-.14c1.48-.19 2.64-1.35 2.82-2.83l.13-1.13c.04-.38.36-.66.74-.66Z"/></svg>