<svg viewBox="0 0 24 24" xmlns="http://www.w3.org/2000/svg"><path fill="currentColor" d="M4 5c-.56 0-1 .44-1 1 0 .55.44 1 1 1h16c.55 0 1-.45 1-1 0-.56-.45-1-1-1H4Zm0 4c-.56 0-1 .44-1 1 0 .55.44 1 1 1h16c.55 0 1-.45 1-1 0-.56-.45-1-1-1H4Zm7 8.5c0-.17 0-.34.01-.5H3.99c-.56 0-1 .44-1 1 0 .55.44 1 1 1h7.17c-.12-.49-.18-.99-.18-1.5Zm.49-2.5c.31-.75.75-1.43 1.31-2H3.99c-.56 0-1 .44-1 1 0 .55.44 1 1 1h7.49Zm11.5 2.5c0 3.03-2.47 5.5-5.5 5.5 -3.04 0-5.5-2.47-5.5-5.5 0-3.04 2.46-5.5 5.5-5.5 3.03 0 5.5 2.46 5.5 5.5ZM18.51 14h-1.44c-.21 0-.4.12-.47.32l-1.125 3c-.13.32.11.67.46.67h.77l-.78 2.31c-.12.33.13.68.49.68 .17 0 .33-.09.43-.24l2.62-4.04c.2-.32-.03-.73-.4-.73h-.64l.49-1.33c.12-.33-.12-.68-.47-.68Z"/></svg>