<svg viewBox="0 0 24 24" xmlns="http://www.w3.org/2000/svg"><path fill="currentColor" d="M17.5 12c3.03 0 5.5 2.46 5.5 5.5 0 3.03-2.47 5.5-5.5 5.5 -3.04 0-5.5-2.47-5.5-5.5 0-3.04 2.46-5.5 5.5-5.5Zm-.79 2.58l-.07.05 -2.52 2.51 -.05.05 -.05.07 -.03.05 -.02.08 -.01.11 .01.08 .02.08 .03.06 .05.06 2.51 2.51c.19.19.51.19.7 0 .17-.18.19-.45.05-.64l-.06-.07 -1.65-1.65h4.78c.24 0 .44-.18.49-.42l0-.09c0-.25-.18-.45-.42-.5l-.09-.01h-4.79l1.64-1.65c.17-.18.19-.45.05-.64l-.06-.07c-.18-.18-.45-.2-.64-.06ZM11 16.99H2.98l-.12 0c-.5.05-.89.48-.89.99 0 .55.44 1 1 1h8.17c-.12-.49-.18-.99-.18-1.5 0-.17 0-.34.01-.5Zm.47-2h-8.5c-.56 0-1-.45-1-1 0-.52.38-.94.88-1l.11-.01h9.8c-.56.57-1 1.25-1.32 2Zm-8.5-4c-.56 0-1-.45-1-1 0-.52.38-.94.88-1l.11-.01h18c.55 0 1 .44 1 1 0 .51-.39.93-.89.99l-.12 0h-18Zm18-6h-18l-.12 0c-.5.05-.89.48-.89.99 0 .55.44 1 1 1h18l.11-.01c.49-.06.88-.49.88-1 0-.56-.45-1-1-1Z"/></svg>