<svg viewBox="0 0 24 24" xmlns="http://www.w3.org/2000/svg"><path fill="currentColor" d="M18 4c.55 0 1 .44 1 1v3h1c.55 0 1 .44 1 1 0 .55-.45 1-1 1h-1v3c0 .55-.45 1-1 1 -.56 0-1-.45-1-1V5c0-.56.44-1 1-1Zm-8 2c0-.56.44-1 1-1h4c.55 0 1 .44 1 1v1.25c0 1.1-.22 2.5-.96 3.66 -.79 1.22-2.1 2.08-4.05 2.08 -.56 0-1-.45-1-1 0-.56.44-1 1-1 1.25 0 1.93-.52 2.35-1.17 .45-.72.64-1.7.64-2.59v-.25h-3c-.56 0-1-.45-1-1Zm-4.71 8.29c.39-.4 1.02-.4 1.41 0 .39.39.39 1.02 0 1.41l-.3.29h13.58c.55 0 1 .44 1 1 0 .55-.45 1-1 1H6.39l.29.29c.39.39.39 1.02 0 1.41 -.4.39-1.03.39-1.42 0l-2-2c-.4-.4-.4-1.03 0-1.42l2-2ZM6.7 6.28c-.4-.4-1.03-.4-1.42 0l-2 2c-.4.39-.4 1.02 0 1.41l2 1.99c.39.39 1.02.39 1.41 0 .39-.4.39-1.03 0-1.42l-.3-.3h1.08c.55 0 1-.45 1-1 0-.56-.45-1-1-1H6.38l.29-.3c.39-.4.39-1.03 0-1.42Z"/></svg>