<svg viewBox="0 0 24 24" xmlns="http://www.w3.org/2000/svg"><path fill="currentColor" d="M20 6.41v3.58c0 .55-.45 1-1 1 -.56 0-1-.45-1-1V6.4l-.3.29c-.4.39-1.03.39-1.42 0 -.4-.4-.4-1.03 0-1.42l2-2c.09-.1.2-.17.32-.22 .11-.05.24-.08.38-.08 .13 0 .26.02.38.07 .11.04.22.12.32.21l2 2c.39.39.39 1.02 0 1.41 -.4.39-1.03.39-1.42 0l-.3-.3ZM2 5.99c0-.56.44-1 1-1h8c.55 0 1 .44 1 1 0 .55-.45 1-1 1H3c-.56 0-1-.45-1-1Zm0 6c0-.56.44-1 1-1h11c.55 0 1 .44 1 1 0 .55-.45 1-1 1H3c-.56 0-1-.45-1-1Zm1 5c-.56 0-1 .44-1 1 0 .55.44 1 1 1h8c.55 0 1-.45 1-1 0-.56-.45-1-1-1H3Zm17-3v3.58l.29-.3c.39-.4 1.02-.4 1.41 0 .39.39.39 1.02 0 1.41l-2 2c-.4.39-1.03.39-1.42 0l-2-2c-.4-.4-.4-1.03 0-1.42 .39-.4 1.02-.4 1.41 0l.29.29v-3.59c0-.56.44-1 1-1 .55 0 1 .44 1 1Z"/></svg>