<svg viewBox="0 0 24 24" xmlns="http://www.w3.org/2000/svg"><path fill="currentColor" d="M2 6c0-.56.44-1 1-1h18c.55 0 1 .44 1 1 0 .55-.45 1-1 1H3c-.56 0-1-.45-1-1Zm3.7 9.29c-.4-.4-1.03-.4-1.42 0l-2 2c-.4.39-.4 1.02 0 1.41l2 2c.39.39 1.02.39 1.41 0 .39-.4.39-1.03 0-1.42l-.3-.3h13.17l-.3.29c-.4.39-.4 1.02 0 1.41 .39.39 1.02.39 1.41 0l2-2c.39-.4.39-1.03 0-1.42l-2-2c-.4-.4-1.03-.4-1.42 0 -.4.39-.4 1.02 0 1.41l.29.29H5.36l.29-.3c.39-.4.39-1.03 0-1.42Zm-2.71-4.3c-.56 0-1 .44-1 1 0 .55.44 1 1 1h18c.55 0 1-.45 1-1 0-.56-.45-1-1-1h-18Z"/></svg>