<svg viewBox="0 0 24 24" xmlns="http://www.w3.org/2000/svg"><path fill="currentColor" d="M16.24 3c-.41 0-.77.24-.93.61l-3.75 9c-.22.5.02 1.09.53 1.3 .5.21 1.09-.03 1.3-.54l.99-2.39h3.66l.99 2.38c.21.5.79.75 1.3.53 .5-.22.75-.8.53-1.31l-3.75-9.01c-.16-.38-.52-.62-.93-.62Zm0 3.6l1 2.4h-2l1-2.4ZM6.69 5.29c-.4-.4-1.03-.4-1.42 0L3.34 7.22c-.23.18-.37.45-.37.77v0 0c0 .31.14.58.36.77l1.92 1.93c.39.39 1.02.39 1.41 0 .39-.4.39-1.03 0-1.42l-.3-.3h4.58c.55 0 1-.45 1-1 0-.56-.45-1-1-1H6.35l.29-.3c.39-.4.39-1.03 0-1.42Zm-1.42 9c.39-.4 1.02-.4 1.41 0 .39.39.39 1.02 0 1.41l-.3.29h13.58c.55 0 1 .44 1 1 0 .55-.45 1-1 1H6.37l.29.29c.39.39.39 1.02 0 1.41 -.4.39-1.03.39-1.42 0l-2-2c-.4-.4-.4-1.03 0-1.42l2-2Z"/></svg>