<svg viewBox="0 0 24 24" xmlns="http://www.w3.org/2000/svg"><path fill="currentColor" d="M18.25 3C19.76 3 21 4.23 21 5.75v12.3c-.17-.04-.33-.05-.5-.05 -1.2 0-2.19.83-2.44 1.95 -.01.02-.04.04-.07.04 -.03 0-.06-.03-.07-.05 -.26-1.12-1.25-1.96-2.44-1.96 -1.2 0-2.19.83-2.44 1.95 -.01.02-.04.04-.07.04 -.03 0-.06-.03-.07-.05 -.26-1.12-1.25-1.96-2.44-1.96 -1.39 0-2.5 1.11-2.5 2.5 0 .17.01.33.05.5H5.7c-1.52 0-2.75-1.24-2.75-2.75V5.71c0-1.52 1.23-2.75 2.75-2.75h12.5ZM15 12.25c0-.42-.34-.75-.75-.75h-7.5l-.11 0c-.37.04-.65.36-.65.74 0 .41.33.75.75.75h7.5l.1-.01c.36-.05.64-.37.64-.75Zm2.25 3.25H6.75l-.11 0c-.37.04-.65.36-.65.74 0 .41.33.75.75.75h10.5l.1-.01c.36-.05.64-.37.64-.75 0-.42-.34-.75-.75-.75ZM18 8.25c0-.42-.34-.75-.75-.75H6.75l-.11 0c-.37.04-.65.36-.65.74 0 .41.33.75.75.75h10.5l.1-.01c.36-.05.64-.37.64-.75ZM12 20.5c0 .82-.68 1.5-1.5 1.5 -.83 0-1.5-.68-1.5-1.5 0-.83.67-1.5 1.5-1.5 .82 0 1.5.67 1.5 1.5Zm3.5 1.5c.82 0 1.5-.68 1.5-1.5 0-.83-.68-1.5-1.5-1.5 -.83 0-1.5.67-1.5 1.5 0 .82.67 1.5 1.5 1.5Zm5 0c.82 0 1.5-.68 1.5-1.5 0-.83-.68-1.5-1.5-1.5 -.83 0-1.5.67-1.5 1.5 0 .82.67 1.5 1.5 1.5Z"/></svg>