<svg viewBox="0 0 24 24" xmlns="http://www.w3.org/2000/svg"><path fill="currentColor" d="M12.5 3.25c0-.42-.34-.75-.75-.75 -.42 0-.75.33-.75.75v8.5c0 .41.33.75.75.75 .41 0 .75-.34.75-.75V8H14c.41 0 .75-.34.75-.75 0-.42-.34-.75-.75-.75h-1.5V3.25Zm-8.75.25c-.42 0-.75.33-.75.75 0 .41.33.75.75.75h4.24c-.17 1.63-1.33 4.09-4.47 5.03 -.4.11-.63.53-.51.93 .11.39.53.62.93.5 4.39-1.32 5.72-5.16 5.53-7.29 -.04-.39-.36-.69-.75-.69h-5Zm14.52 16.71l-5.49-5.49 4.15-4.16c.62-.63 1.55-.74 2.29-.35 .16.08.32.2.46.34l2.72 2.724c.76.76.76 1.99-.01 2.75l-4.16 4.15Zm-6.55-4.43l5.48 5.481 -.23.22h3.02c.41 0 .75.33.75.75 0 .41-.34.75-.75.75h-5.51l0-.01c-.45-.04-.88-.23-1.21-.57l-2.73-2.73c-.77-.77-.77-2 0-2.76l1.15-1.16Z"/></svg>