<svg viewBox="0 0 24 24" xmlns="http://www.w3.org/2000/svg"><path fill="currentColor" d="M3 6.25C3 4.45 4.45 3 6.25 3h11.5C19.54 3 21 4.45 21 6.25v8.65l-1.26-2.53c-.66-1.32-2.19-1.7-3.34-1.14h-5.16c-.42 0-.75.33-.75.75 0 .41.33.75.75.75h3.83l-1.13 2.25h-2.71c-.42 0-.75.33-.75.75 0 .41.33.75.75.75h1.95l-1.94 3.88c-.11.2-.18.41-.22.61H6.21c-1.8 0-3.25-1.46-3.25-3.25V6.22Zm4.75 3c.55 0 1-.45 1-1 0-.56-.45-1-1-1 -.56 0-1 .44-1 1 0 .55.44 1 1 1Zm3.5-1.75c-.42 0-.75.33-.75.75 0 .41.33.75.75.75h5.5c.41 0 .75-.34.75-.75 0-.42-.34-.75-.75-.75h-5.5ZM8.75 12c0-.56-.45-1-1-1 -.56 0-1 .44-1 1 0 .55.44 1 1 1 .55 0 1-.45 1-1Zm-1 4.75c.55 0 1-.45 1-1 0-.56-.45-1-1-1 -.56 0-1 .44-1 1 0 .55.44 1 1 1Zm8.41-3.92c.55-1.11 2.13-1.11 2.68 0l3.99 7.99c.49.99-.23 2.17-1.35 2.17h-8c-1.12 0-1.85-1.18-1.35-2.18l3.99-8ZM18 15.49c0-.28-.23-.51-.51-.51s-.51.22-.51.5v3c0 .27.22.5.5.5 .27 0 .5-.23.5-.51v-3.01Zm-.51 5.5c.27 0 .5-.23.5-.51s-.23-.51-.51-.51 -.51.22-.51.5c0 .27.22.5.5.5Z"/></svg>