<svg viewBox="0 0 24 24" xmlns="http://www.w3.org/2000/svg"><path fill="currentColor" d="M11.01 17H2.99l-.12 0c-.5.05-.89.48-.89.99 0 .55.44 1 1 1h8.17c-.12-.49-.18-.99-.18-1.5 0-.17 0-.34.01-.5Zm9.98-6h-18c-.56 0-1-.45-1-1 0-.52.38-.94.88-1l.11-.01h18c.55 0 1 .44 1 1 0 .51-.39.93-.89.99l-.12 0Zm-18 4h8.49c.31-.75.75-1.43 1.31-2H2.98l-.12 0c-.5.05-.89.48-.89.99 0 .55.44 1 1 1Zm18-10h-18l-.12 0c-.5.05-.89.48-.89.99 0 .55.44 1 1 1h18l.11-.01c.49-.06.88-.49.88-1 0-.56-.45-1-1-1Zm-6.73 8.97l-.2-.69c.43-.39.93-.7 1.48-.92l.49.52c.78.82 2.11.82 2.89 0l.49-.52c.54.22 1.04.53 1.48.92l-.19.63c-.33 1.09.33 2.24 1.45 2.51l.53.12c.04.3.07.6.07.92 0 .3-.03.59-.07.88l-.59.14c-1.11.27-1.76 1.4-1.45 2.49l.19.68c-.44.38-.94.69-1.49.91l-.5-.53c-.79-.83-2.12-.83-2.9-.01l-.5.51c-.55-.23-1.045-.54-1.49-.93l.18-.64c.32-1.1-.34-2.25-1.45-2.52l-.54-.13c-.05-.31-.08-.61-.08-.93 0-.31.02-.6.06-.89l.58-.15c1.1-.28 1.75-1.41 1.44-2.5Zm3.22 5.02c.8 0 1.44-.68 1.44-1.5 0-.83-.65-1.5-1.45-1.5 -.81 0-1.45.67-1.45 1.5 0 .82.64 1.5 1.44 1.5Z"/></svg>