<svg viewBox="0 0 24 24" xmlns="http://www.w3.org/2000/svg"><path fill="currentColor" d="M3.28 2.21c-.3-.3-.77-.3-1.07-.01 -.3.29-.3.76-.01 1.06l1.71 1.71h-.94c-.56 0-1 .44-1 1 0 .55.44 1 1 1H5.9l3.99 4H2.95c-.56 0-1 .44-1 1 0 .55.44 1 1 1h8.93l2.32 2.32 -1.97 1.96c-.4.39-.4 1.02 0 1.41l2 2c.39.39 1.02.39 1.41 0 .39-.4.39-1.03 0-1.42l-.3-.3h2.52l2.78 2.78c.29.29.76.29 1.06 0 .29-.3.29-.77 0-1.07L3.2 2.14Zm10.9 8.78h4.81c2.2 0 4 1.79 4 4 0 1.31-.64 2.47-1.62 3.2l-1.45-1.45c.62-.34 1.05-1.01 1.05-1.77 0-1.11-.9-2-2-2h-2.82l-2-2Zm-4-4l-2-2h12.81c.55 0 1 .44 1 1 0 .55-.45 1-1 1H10.17Zm-8.19 11c0-.56.44-1 1-1h6c.55 0 1 .44 1 1 0 .55-.45 1-1 1h-6c-.56 0-1-.45-1-1Z"/></svg>