<svg viewBox="0 0 24 24" xmlns="http://www.w3.org/2000/svg"><path fill="currentColor" d="M12.25 2c.41 0 .75.33.75.75v18.5c0 .41-.34.75-.75.75 -.42 0-.75-.34-.75-.75V2.75c0-.42.33-.75.75-.75ZM10 5H2.75c-.42 0-.75.33-.75.75 0 .41.33.75.75.75H10V5Zm0 4H2.75c-.42 0-.75.33-.75.75 0 .41.33.75.75.75H10V9Zm0 4H2.75c-.42 0-.75.33-.75.75 0 .41.33.75.75.75H10V13Zm0 4H2.75c-.42 0-.75.33-.75.75 0 .41.33.75.75.75H10V17Zm9.75 1H14.5v-4.5h5.25c1.24 0 2.25 1 2.25 2.25 0 1.24-1.01 2.25-2.25 2.25Zm0-7.5H14.5V6h5.25C20.99 6 22 7 22 8.25c0 1.24-1.01 2.25-2.25 2.25Z"/></svg>