<svg viewBox="0 0 24 24" xmlns="http://www.w3.org/2000/svg"><path fill="currentColor" d="M9 20.25V13.5H6.83c-.82 1.33-2.16 2.42-4.19 2.73 -.55.08-1.06-.29-1.15-.84 -.09-.55.28-1.06.83-1.15 .77-.13 1.37-.4 1.85-.77H1.71c-.56 0-1-.45-1-1 0-.56.44-1 1-1h20.5c.55 0 1 .44 1 1 0 .55-.45 1-1 1h-.25v7c0 .55-.45 1-1 1 -.56 0-1-.45-1-1v-7h-4.75l-.14 1.35 2.75-.35c.54-.07 1.04.32 1.11.86 .06.54-.33 1.04-.87 1.11l-4 .5c-.31.03-.61-.07-.83-.28 -.22-.22-.33-.52-.3-.82l.24-2.41h-2.25v6.75c0 .55-.45 1-1 1 -.56 0-1-.45-1-1Zm13-9.75V5c0-.56-.45-1-1-1 -.56 0-1 .44-1 1v5.5h2Zm-6.45 0l.44-4.41c.05-.55-.35-1.04-.9-1.1 -.55-.06-1.04.34-1.1.89l-.46 4.59h2.01Zm-4.56 0V4.75c0-.56-.45-1-1-1 -.56 0-1 .44-1 1v5.75h2Zm-3.12 0c.08-.54.11-1.05.11-1.5 0-.56-.45-1-1-1h-4.5c-.56 0-1 .44-1 1 0 .55.44 1 1 1h3.43c-.03.16-.05.33-.08.5h2.02Z"/></svg>