<svg viewBox="0 0 24 24" xmlns="http://www.w3.org/2000/svg"><path fill="currentColor" d="M3.75 3.75c-.56 0-1 .44-1 1 0 .55.44 1 1 1h16.5c.55 0 1-.45 1-1 0-.56-.45-1-1-1H3.75Zm-1 4.5c0-.56.44-1 1-1h2c.55 0 1 .44 1 1 0 .55-.45 1-1 1h-2c-.56 0-1-.45-1-1Zm14.5 0c0-.56.44-1 1-1h2c.55 0 1 .44 1 1 0 .55-.45 1-1 1h-2c-.56 0-1-.45-1-1Zm-13.5 2.5c-.56 0-1 .44-1 1 0 .55.44 1 1 1h2c.55 0 1-.45 1-1 0-.56-.45-1-1-1h-2Zm13.5 1c0-.56.44-1 1-1h2c.55 0 1 .44 1 1 0 .55-.45 1-1 1h-2c-.56 0-1-.45-1-1Zm-13.5 2.5c-.56 0-1 .44-1 1 0 .55.44 1 1 1h2c.55 0 1-.45 1-1 0-.56-.45-1-1-1h-2Zm13.5 1c0-.56.44-1 1-1h2c.55 0 1 .44 1 1 0 .55-.45 1-1 1h-2c-.56 0-1-.45-1-1Zm-14.5 3.5c0-.56.44-1 1-1h16.5c.55 0 1 .44 1 1 0 .55-.45 1-1 1H3.75c-.56 0-1-.45-1-1Zm7-7.75c0-1.25 1-2.25 2.25-2.25 1.24 0 2.25 1 2.25 2.25v4.75c0 .55.44 1 1 1 .55 0 1-.45 1-1V11c0-2.35-1.91-4.25-4.25-4.25 -2.35 0-4.25 1.9-4.25 4.25v4.75c0 .55.44 1 1 1 .55 0 1-.45 1-1V11Z"/></svg>