<svg viewBox="0 0 24 24" xmlns="http://www.w3.org/2000/svg"><path fill="currentColor" d="M21.24 20c.35 0 .66-.25.73-.6 .07-.35-.11-.7-.43-.84l-.01-.01c-.01-.01-.02-.01-.03-.02 -.03-.02-.07-.03-.11-.06 -.1-.06-.24-.14-.39-.24 -.32-.22-.67-.53-.91-.91 -.22-.36-.69-.46-1.04-.24 -.36.21-.46.68-.24 1.03 .07.12.16.24.24.35h-2.37c-.42 0-.75.33-.75.75 0 .41.33.75.75.75h4.5ZM5.99 12.99v-8.5l-.01-.12c-.06-.5-.49-.89-1-.89 -.56 0-1 .44-1 1v8.5l0 .11c.05.49.48.88.99.88 .55 0 1-.45 1-1Zm6.49 0v-8.5l-.01-.12c-.06-.5-.49-.89-1-.89 -.56 0-1 .44-1 1v8.5l0 .11c.05.49.48.88.99.88 .55 0 1-.45 1-1Zm5.5 1c.55 0 1-.45 1-1v-8.5l-.01-.12c-.06-.5-.49-.89-1-.89 -.56 0-1 .44-1 1v8.5l0 .11c.05.49.48.88.99.88Zm-4.52 5.15c.05-.31-.07-.68-.27-.88 -.3-.3-.3-.77 0-1.07 .29-.3.76-.3 1.06 0 .55.55.81 1.43.67 2.19 -.08.39-.26.8-.61 1.11 -.36.31-.83.47-1.36.47 -.62 0-1.08-.28-1.43-.61 -.29-.28-.52-.64-.69-.91l-.06-.08c-.13-.2-.24-.36-.34-.49v1.32c0 .41-.34.75-.75.75 -.42 0-.75-.34-.75-.75v-2.5c0-.42.33-.75.75-.75 1.31 0 1.95.98 2.33 1.57l.03.06c.2.31.34.53.5.68 .13.13.23.17.36.17 .22 0 .31-.07.35-.1 .04-.05.09-.12.12-.26ZM2.69 16.95s-.09.09-.01 0l-.01 0 -.02.01c-.01.01-.03.02-.04.03 -.03.02-.06.06-.1.11 -.08.09-.16.22-.25.39 -.18.34-.33.83-.33 1.46s.18 1.19.53 1.6c.36.4.85.61 1.35.59 .41-.02.79-.17 1.1-.43 .3.25.68.41 1.1.42 .5.01.99-.19 1.35-.6 .35-.41.53-.97.53-1.61 0-.63-.16-1.12-.33-1.47 -.09-.17-.18-.31-.25-.4 -.04-.05-.07-.09-.1-.12 -.02-.02-.03-.03-.04-.04l-.02-.02 -.01-.01 -.01-.01 -.01-.01 -.01-.01c-.3-.3-.77-.3-1.07 0 -.29.28-.3.75-.02 1.04 0 0 .01.01.02.02 .02.03.06.08.1.16 .07.15.17.41.17.78 0 .36-.1.53-.17.6 -.07.06-.13.09-.19.08 -.07-.01-.16-.04-.24-.13 -.08-.09-.17-.27-.17-.58 0-.42-.34-.75-.75-.75 -.42 0-.75.33-.75.75 0 .3-.1.48-.17.57 -.08.09-.17.12-.24.12 -.07 0-.13-.02-.19-.09 -.07-.08-.17-.25-.17-.61 0-.38.09-.64.17-.79 .04-.09.07-.14.1-.17 .01-.02.01-.03.02-.03 .28-.3.27-.76-.02-1.05 -.3-.3-.77-.3-1.07 0Zm4.56 0l-.01-.01s.16.2 0 0Z"/></svg>