<svg viewBox="0 0 24 24" xmlns="http://www.w3.org/2000/svg"><path fill="currentColor" d="M3 5.75C3 4.23 4.23 3 5.75 3h12.5C19.76 3 21 4.23 21 5.75v12.5c0 1.51-1.24 2.75-2.75 2.75H5.75C4.23 21 3 19.76 3 18.25V5.75Zm6.75 5.75c-.42 0-.75.33-.75.75 0 .37.28.69.64.74l.1 0h7.5c.41 0 .75-.34.75-.75 0-.38-.29-.7-.65-.75l-.11-.01h-7.5Zm7.5 4H6.75c-.42 0-.75.33-.75.75 0 .37.28.69.64.74l.1 0h10.5c.41 0 .75-.34.75-.75 0-.38-.29-.7-.65-.75l-.11-.01Zm-10.5-8c-.42 0-.75.33-.75.75 0 .37.28.69.64.74l.1 0h10.5c.41 0 .75-.34.75-.75 0-.38-.29-.7-.65-.75l-.11-.01H6.73Z"/></svg>