<svg viewBox="0 0 24 24" xmlns="http://www.w3.org/2000/svg"><path fill="currentColor" d="M8.44 3.41c-.14-.4-.52-.66-.93-.67 -.42-.01-.8.24-.95.63l-6 15.49c-.2.51.05 1.09.57 1.29 .51.19 1.09-.06 1.29-.58l1.39-3.62h6.95l1.27 3.58c.18.52.75.79 1.27.6 .52-.19.79-.76.6-1.28L8.4 3.34ZM4.6 13.99l2.85-7.38 2.61 7.37H4.58Zm11.39-11c.55 0 1 .44 1 1v7.61c.58-.4 1.27-.62 2-.62 2.2 0 4 2.07 4 4.625 0 2.55-1.8 4.625-4 4.625 -.76 0-1.46-.25-2.06-.66 -.14.38-.51.65-.95.65 -.56 0-1-.45-1-1V3.97c0-.56.44-1 1-1Zm3 15.25c.84 0 2-.9 2-2.625 0-1.74-1.16-2.625-2-2.625 -.85 0-2 .89-2 2.625 0 1.73 1.15 2.625 2 2.625Z"/></svg>