<svg viewBox="0 0 24 24" xmlns="http://www.w3.org/2000/svg"><path fill="currentColor" d="M19.7 6.7c.39-.4.39-1.03 0-1.42l-2-2c-.4-.4-1.03-.4-1.42 0l-2 2c-.4.39-.4 1.02 0 1.41 .39.39 1.02.39 1.41 0l.29-.3v13.58c0 .55.44 1 1 1 .55 0 1-.45 1-1V6.38l.29.29c.39.39 1.02.39 1.41 0Zm-9-1.42c.39.39.39 1.02 0 1.41 -.4.39-1.03.39-1.42 0l-.3-.3v1.58c0 .55-.45 1-1 1 -.56 0-1-.45-1-1V6.38l-.3.29c-.4.39-1.03.39-1.42 0 -.4-.4-.4-1.03 0-1.42l2-2c.39-.4 1.02-.4 1.41 0l1.99 2Zm-6.71 6.7c-.56 0-1 .44-1 1 0 .55.44 1 1 1h9.25c.55 0 1-.45 1-1 0-.56-.45-1-1-1H8.99v-1c0-.56-.45-1-1-1 -.56 0-1 .44-1 1v1h-3Zm0 8c0 .55.44 1 1 1 .55 0 1-.45 1-1v-3h.25c.89 0 1.86.18 2.58.64 .65.41 1.16 1.1 1.16 2.35 0 .55.44 1 1 1 .55 0 1-.45 1-1 0-1.95-.87-3.27-2.09-4.05 -1.16-.75-2.56-.96-3.67-.96H4.97c-.56 0-1 .44-1 1v4Z"/></svg>