<svg viewBox="0 0 24 24" xmlns="http://www.w3.org/2000/svg"><g fill="currentColor"><path d="M8.7 5.29c.39.39.39 1.02 0 1.41 -.4.39-1.03.39-1.42 0l-.3-.3v13.58c0 .55-.45 1-1 1 -.56 0-1-.45-1-1V6.39l-.3.29c-.4.39-1.03.39-1.42 0 -.4-.4-.4-1.03 0-1.42l2-2c.39-.4 1.02-.4 1.41 0l2 2Z"/><path d="M16.7 6.7c.39-.4.39-1.03 0-1.42l-2-2c-.4-.4-1.03-.4-1.42 0l-2 2c-.4.39-.4 1.02 0 1.41 .39.39 1.02.39 1.41 0l.29-.3v1.58c0 .55.44 1 1 1 .55 0 1-.45 1-1V6.38l.29.29c.39.39 1.02.39 1.41 0Z"/><path d="M9 13c0-.56.44-1 1-1h3v-1c0-.56.44-1 1-1 .55 0 1 .44 1 1v1h4.25c.55 0 1 .44 1 1 0 .55-.45 1-1 1H10c-.56 0-1-.45-1-1Z"/><path d="M11 21c-.56 0-1-.45-1-1v-4c0-.56.44-1 1-1h1.25c1.1 0 2.5.21 3.66.95 1.22.78 2.08 2.09 2.08 4.04 0 .55-.45 1-1 1 -.56 0-1-.45-1-1 0-1.26-.52-1.94-1.17-2.36 -.72-.46-1.7-.65-2.59-.65h-.25v3c0 .55-.45 1-1 1Z"/></g></svg>