<svg viewBox="0 0 24 24" xmlns="http://www.w3.org/2000/svg"><path fill="currentColor" d="M7 18c-.56 0-1 .44-1 1 0 .55.44 1 1 1h14c.55 0 1-.45 1-1 0-.56-.45-1-1-1H7Zm6-9c0-.56.44-1 1-1h7c.55 0 1 .44 1 1 0 .55-.45 1-1 1h-7c-.56 0-1-.45-1-1ZM6 4c0-.56.44-1 1-1h14c.55 0 1 .44 1 1 0 .55-.45 1-1 1H7c-.56 0-1-.45-1-1Zm7 10c0-.56.44-1 1-1h7c.55 0 1 .44 1 1 0 .55-.45 1-1 1h-7c-.56 0-1-.45-1-1Zm-2-2.5c0 2.48-2.02 4.5-4.5 4.5C4.01 16 2 13.98 2 11.5 2 9.01 4.01 7 6.5 7 8.98 7 11 9.01 11 11.5Zm-4-2c0-.28-.23-.5-.5-.5 -.28 0-.5.22-.5.5V11H4.5c-.28 0-.5.22-.5.5 0 .27.22.5.5.5H6v1.5c0 .27.22.5.5.5 .27 0 .5-.23.5-.5V12h1.5c.27 0 .5-.23.5-.5 0-.28-.23-.5-.5-.5H7V9.5Z"/></svg>