<svg viewBox="0 0 24 24" xmlns="http://www.w3.org/2000/svg"><path fill="currentColor" d="M20.02 7.54c-.08.05-.15.1-.22.15 -.46.3-1.09.18-1.39-.28 -.31-.46-.19-1.09.27-1.39 .72-.49 1.24-1.25 1.35-1.75 .1-.51.57-.84 1.07-.79 .5.04.9.47.9.99v6.49c0 .55-.45 1-1 1 -.56 0-1-.45-1-1V7.5ZM.99 8.99c0-.56.44-1 1-1h3.5c.55 0 1 .44 1 1 0 .99-.17 2.3-.79 3.47 -.65 1.2-1.77 2.23-3.56 2.51 -.55.08-1.06-.29-1.15-.84 -.09-.55.28-1.06.83-1.15 1.08-.17 1.71-.75 2.09-1.48 .24-.47.4-1.01.48-1.54H1.96c-.56 0-1-.45-1-1Zm6.49-3v12c0 .55.44 1 1 1 .55 0 1-.45 1-1V5.98c0-.56-.45-1-1-1 -.56 0-1 .44-1 1Zm8 12V5.98c0-.56.44-1 1-1 .55 0 1 .44 1 1v12c0 .55-.45 1-1 1 -.56 0-1-.45-1-1Zm-2.03-10.8c.11-.55-.23-1.08-.77-1.19 -.54-.12-1.08.22-1.19.76l-1.5 7c-.07.32.02.66.25.9 .22.23.56.35.88.29l3-.5c.54-.1.91-.61.82-1.16 -.1-.55-.61-.92-1.16-.83l-1.55.25 1.19-5.57Z"/></svg>