<svg viewBox="0 0 24 24" xmlns="http://www.w3.org/2000/svg"><path fill="currentColor" d="M3.59 6.9c0-1.83 1.47-3.3 3.3-3.3h10.19c1.82 0 3.3 1.47 3.3 3.3v5.6c-.62-.17-1.23-.54-1.83-1.19 -.31-.33-.73-.52-1.17-.52h-.02c-.44 0-.86.18-1.17.51 -.26.27-.52.5-.78.68h-4.05c-.34 0-.6.26-.6.6 0 .33.26.6.6.6h.97c-.24.29-.38.67-.38 1.05v2.71l0 .3 0 0c.03 1.13.27 2.18.72 3.12H6.84c-1.83 0-3.3-1.48-3.3-3.3V6.86Zm4.5 2.7c.49 0 .9-.41.9-.9 0-.5-.41-.9-.9-.9 -.5 0-.9.4-.9.9 0 .49.4.9.9.9Zm.9 2.7c0-.5-.41-.9-.9-.9 -.5 0-.9.4-.9.9 0 .49.4.9.9.9 .49 0 .9-.41.9-.9Zm-.9 4.5c.49 0 .9-.41.9-.9 0-.5-.41-.9-.9-.9 -.5 0-.9.4-.9.9 0 .49.4.9.9.9ZM10.78 9c0 .33.26.6.6.6h4.8c.33 0 .6-.27.6-.6 0-.34-.27-.6-.6-.6h-4.8c-.34 0-.6.26-.6.6Zm6.59 13.8c-.05-.01-.09-.01-.14-.03 -.84-.3-1.54-.69-2.12-1.18l-.01-.01c-.42-.36-.77-.76-1.06-1.2l-.01-.01c-.56-.88-.86-1.94-.9-3.17l-.01-.29V14.2c0-.25.18-.45.42-.45 1.28 0 2.43-.55 3.48-1.67 .08-.09.18-.14.29-.14 .1 0 .21.04.29.13 1.04 1.11 2.19 1.66 3.48 1.66 .23 0 .42.2.42.45v2.7l-.01.28c-.04 1.23-.34 2.28-.9 3.16l-.01 0c-.29.44-.64.84-1.06 1.19l-.01 0c-.58.48-1.29.87-2.12 1.17 -.05.01-.09.02-.14.02Z"/></svg>