<svg viewBox="0 0 24 24" xmlns="http://www.w3.org/2000/svg"><path fill="currentColor" d="M3.59 6.9c0-1.83 1.47-3.3 3.3-3.3h10.19c1.82 0 3.3 1.47 3.3 3.3v4.49c-.51-.38-1.13-.6-1.8-.6h-2.4c-.99 0-1.86.47-2.41 1.2h-2.4c-.34 0-.6.26-.6.6 0 .33.26.6.6.6h1.86c-.01.01-.01.03-.01.05 -1.4.25-2.46 1.48-2.46 2.94v4.2h-3.9c-1.83 0-3.3-1.48-3.3-3.3V6.88Zm4.5 2.7c.49 0 .9-.41.9-.9 0-.5-.41-.9-.9-.9 -.5 0-.9.4-.9.9 0 .49.4.9.9.9Zm.9 2.7c0-.5-.41-.9-.9-.9 -.5 0-.9.4-.9.9 0 .49.4.9.9.9 .49 0 .9-.41.9-.9Zm-.9 4.5c.49 0 .9-.41.9-.9 0-.5-.41-.9-.9-.9 -.5 0-.9.4-.9.9 0 .49.4.9.9.9ZM10.78 9c0 .33.26.6.6.6h4.8c.33 0 .6-.27.6-.6 0-.34-.27-.6-.6-.6h-4.8c-.34 0-.6.26-.6.6Zm3.6 5.4v-.6c0-1 .8-1.8 1.8-1.8h2.4c.99 0 1.8.8 1.8 1.8v.6h.6c.99 0 1.8.8 1.8 1.8V18h-2.4v-.6c0-.34-.27-.6-.6-.6 -.34 0-.6.26-.6.6v.6h-3.6v-.6c0-.34-.27-.6-.6-.6 -.34 0-.6.26-.6.6v.6h-2.4v-1.8c0-1 .8-1.8 1.8-1.8h.6Zm1.2-.6v.6h3.6v-.6c0-.34-.27-.6-.6-.6h-2.4c-.34 0-.6.26-.6.6Zm4.8 5.4h2.4V21c0 .99-.81 1.8-1.8 1.8h-7.2c-1 0-1.8-.81-1.8-1.8v-1.8h2.4v.6c0 .33.26.6.6.6 .33 0 .6-.27.6-.6v-.6h3.6v.6c0 .33.26.6.6.6 .33 0 .6-.27.6-.6v-.6Z"/></svg>