<svg viewBox="0 0 24 24" xmlns="http://www.w3.org/2000/svg"><path fill="currentColor" d="M16 15V6.5c0-.56.44-1 1-1 .51 0 .93.38.99.88l0 .11v8.5c0 .55-.45 1-1 1 -.52 0-.94-.39-1-.89l-.01-.12v-8.5 8.5Zm-6.71 6.7c-.37-.37-.39-.93-.09-1.32l.08-.1 2-2c.36-.37.92-.39 1.32-.09l.09.08 2 2c.39.39.39 1.02 0 1.41 -.37.36-.93.38-1.32.08l-.1-.09 -1.3-1.3 -1.3 1.29c-.4.39-1.03.39-1.42 0Zm1.7-6.71l-.01-11.51c0-.56.44-1.01.99-1.01 .51 0 .93.38.99.88l0 .11 0 11.49c0 .55-.45 1-1 1 -.52 0-.94-.39-1-.89l-.01-.12 -.01-11.51 0 11.5Zm-5-.01v-8.5c0-.56.44-1 1-1 .51 0 .93.38.99.88l0 .11v8.5c0 .55-.45 1-1 1 -.52 0-.94-.39-1-.89l-.01-.12v-8.5 8.5Z"/></svg>