<svg viewBox="0 0 24 24" xmlns="http://www.w3.org/2000/svg"><path fill="currentColor" d="M19.7 5.29c.39.39.39 1.02 0 1.41 -.4.39-1.03.39-1.42 0l-.3-.3v13.58c0 .55-.45 1-1 1 -.56 0-1-.45-1-1V6.39l-.3.29c-.4.39-1.03.39-1.42 0 -.4-.4-.4-1.03 0-1.42l2-2c.39-.4 1.02-.4 1.41 0l1.99 2ZM3.6 17.17l9 3.75c.5.21 1.09-.03 1.3-.54 .21-.51-.03-1.1-.54-1.31l-2.39-1V14.4l2.38-1c.5-.22.75-.8.53-1.31 -.22-.51-.8-.76-1.31-.54L3.56 15.3c-.38.15-.62.51-.62.92 0 .4.24.76.61.92Zm5.38.07l-2.4-1 2.4-1v2Zm1.7-10.55c.39-.4.39-1.03 0-1.42l-2.01-2c-.4-.4-1.03-.4-1.42 0l-2 2c-.4.39-.4 1.02 0 1.41 .39.39 1.02.39 1.41 0l.29-.3v3.58c0 .55.44 1 1 1 .55 0 1-.45 1-1V6.37l.29.29c.39.39 1.02.39 1.41 0Z"/></svg>