<svg viewBox="0 0 24 24" xmlns="http://www.w3.org/2000/svg"><path fill="currentColor" d="M18.25 21c1.51 0 2.75-1.24 2.75-2.75V5.75C21 4.23 19.76 3 18.25 3H5.75C4.23 3 3 4.23 3 5.75v12.5C3 19.76 4.23 21 5.75 21h12.5Zm-5.75-6.75c0 .41-.34.75-.75.75 -.38 0-.7-.29-.75-.65l-.01-.11v-7.5c0-.42.33-.75.75-.75 .37 0 .69.28.74.64l0 .1v7.5Zm-4-7.5v10.5c0 .41-.34.75-.75.75 -.38 0-.7-.29-.75-.65l-.01-.11V6.74c0-.42.33-.75.75-.75 .37 0 .69.28.74.64l0 .1Zm8 10.5c0 .41-.34.75-.75.75 -.38 0-.7-.29-.75-.65l-.01-.11V6.74c0-.42.33-.75.75-.75 .37 0 .69.28.74.64l0 .1v10.5Z"/></svg>