<svg viewBox="0 0 24 24" xmlns="http://www.w3.org/2000/svg"><path fill="currentColor" d="M10.67 2.61c-.16-.38-.52-.62-.93-.62 -.41 0-.77.24-.93.61l-6.75 16c-.22.5.02 1.09.53 1.31 .5.21 1.09-.03 1.31-.54l1.85-4.39h7.95l1.28 3.04c.15-.04.32-.05.48-.05 .81 0 1.54.39 2 1 0-.13-.03-.27-.08-.39l-6.75-16Zm2.21 10.38H6.61l3.13-7.43 3.13 7.42Zm-2.39 9c.82 0 1.5-.68 1.5-1.5 0-.83-.68-1.5-1.5-1.5 -.83 0-1.5.67-1.5 1.5 0 .82.67 1.5 1.5 1.5Zm6.5-1.5c0 .82-.68 1.5-1.5 1.5 -.83 0-1.5-.68-1.5-1.5 0-.83.67-1.5 1.5-1.5 .82 0 1.5.67 1.5 1.5Zm5 0c0 .82-.68 1.5-1.5 1.5 -.83 0-1.5-.68-1.5-1.5 0-.83.67-1.5 1.5-1.5 .82 0 1.5.67 1.5 1.5Z"/></svg>