<svg viewBox="0 0 24 24" xmlns="http://www.w3.org/2000/svg"><path fill="currentColor" d="M7.91 2.6c-.16-.37-.52-.61-.92-.61 -.41 0-.77.23-.92.6l-3 7c-.22.5.01 1.09.52 1.31 .5.21 1.09-.02 1.31-.53l.59-1.4h2.96l.59 1.39c.21.5.8.74 1.31.52 .5-.22.74-.81.52-1.32l-3-7Zm-.3 4.39H6.35l.62-1.47 .62 1.46ZM6.35 11.2c-.44-.35-1.07-.28-1.41.15 -.35.43-.28 1.06.15 1.4l1.25 1c.36.29.88.29 1.24 0l1.25-1c.43-.35.5-.98.15-1.41 -.35-.44-.98-.51-1.41-.16l-.63.5 -.63-.51Zm-1.88 3.78c-.56 0-1 .44-1 1 0 .55.44 1 1 1h3.22L3.72 21.3c-.27.29-.34.71-.18 1.07 .15.36.51.59.91.59h5.5c.55 0 1-.45 1-1 0-.56-.45-1-1-1H6.72l3.96-4.33c.26-.3.33-.72.17-1.08 -.16-.37-.52-.6-.92-.6h-5.5Zm13-13c.55 0 1 .44 1 1v15.58l1.79-1.8c.39-.4 1.02-.4 1.41 0 .39.39.39 1.02 0 1.41l-3.5 3.5c-.4.39-1.03.39-1.42 0l-3.5-3.5c-.4-.4-.4-1.03 0-1.42 .39-.4 1.02-.4 1.41 0l1.79 1.79V2.95c0-.56.44-1 1-1Z"/></svg>