<svg viewBox="0 0 24 24" xmlns="http://www.w3.org/2000/svg"><path fill="currentColor" d="M12.54 17H2.99l-.12 0c-.5.05-.89.48-.89.99 0 .55.44 1 1 1h9.08c-.13-.36-.13-.76.05-1.14l.4-.87Zm.94-2H2.99c-.56 0-1-.45-1-1 0-.52.38-.94.88-1l.11-.01H14.4l-.94 2Zm7.51-4l.11-.01c.49-.06.88-.49.88-1 0-.56-.45-1-1-1h-18l-.12 0c-.5.05-.89.48-.89.99 0 .55.44 1 1 1h18Zm0-6h-18l-.12 0c-.5.05-.89.48-.89.99 0 .55.44 1 1 1h18l.11-.01c.49-.06.88-.49.88-1 0-.56-.45-1-1-1Zm-4.69 7h4.82c.38 0 .62.41.43.74l-1.84 3.25h1.49c.64 0 .98.75.56 1.24l-4.83 5.5c-.51.57-1.45.08-1.26-.66l.77-3.1h-3.01c-.37 0-.61-.39-.46-.72l2.82-6c.08-.18.25-.29.45-.29Z"/></svg>