<svg viewBox="0 0 24 24" xmlns="http://www.w3.org/2000/svg"><path fill="currentColor" d="M4 7.1C4 5.36 5.36 4 7 4c1.63 0 3 1.36 3 3.1 0 1.1-.56 2.05-1.38 2.6 -.35.23-.63.59-.63 1.01v.27c0 .55.44 1 1 1h2c.55 0 1-.45 1-1 0-.52-.4-.94-.9-1 .56-.83.89-1.84.89-2.91 0-2.8-2.22-5.1-5-5.1 -2.79 0-5 2.3-5 5.1 0 1.07.32 2.07.89 2.9 -.51.05-.9.47-.9.99 0 .55.44 1 1 1h2c.55 0 1-.45 1-1v-.28c0-.42-.28-.79-.63-1.02 -.83-.55-1.38-1.51-1.38-2.61ZM18.5 3c0-.56-.45-1-1-1 -.56 0-1 .44-1 1v15.58l-1.8-1.8c-.4-.4-1.03-.4-1.42 0 -.4.39-.4 1.02 0 1.41l3.5 3.5c.39.39 1.02.39 1.41 0l3.5-3.5c.39-.4.39-1.03 0-1.42 -.4-.4-1.03-.4-1.42 0l-1.8 1.79V2.97ZM7.91 13.6c-.16-.37-.52-.61-.92-.61 -.41 0-.77.23-.92.6l-3 7c-.22.5.01 1.09.52 1.31 .5.21 1.09-.02 1.31-.53l.59-1.4h2.96l.59 1.39c.21.5.8.74 1.31.52 .5-.22.74-.81.52-1.32l-3-7Zm-.3 4.39H6.35l.62-1.47 .62 1.46Z"/></svg>