<svg viewBox="0 0 24 24" xmlns="http://www.w3.org/2000/svg"><path fill="currentColor" d="M8 9v8.5c0 .55-.45 1-1 1 -.52 0-.94-.39-1-.89l-.01-.12v-8.5c0-.56.44-1 1-1 .51 0 .93.38.99.88l0 .11Zm4.7-6.71l2 2c.39.39.39 1.02 0 1.41 -.37.36-.93.38-1.32.08l-.1-.09 -1.3-1.3 -1.3 1.29c-.4.39-1.03.39-1.42 0 -.37-.37-.39-.93-.09-1.33l.08-.1 2-2c.36-.37.92-.39 1.32-.09l.09.08Zm.29 6.7l0 11.49c0 .55-.45 1-1 1 -.52 0-.94-.39-1-.89l-.01-.12 -.01-11.51c-.01-.56.44-1.01.99-1.01 .51 0 .93.38.99.88l0 .11Zm5 0v8.5c0 .55-.45 1-1 1 -.52 0-.94-.39-1-.89l-.01-.12v-8.5c0-.56.44-1 1-1 .51 0 .93.38.99.88l0 .11Z"/></svg>