<svg viewBox="0 0 24 24" xmlns="http://www.w3.org/2000/svg"><path fill="currentColor" d="M17 5.5c-.56 0-1 .44-1 1V15l0 .11c.05.49.48.88.99.88 .55 0 1-.45 1-1v-8.5l-.01-.12c-.06-.5-.49-.89-1-.89Zm-6.01-2l0 11.5 0 .11c.05.49.48.88.99.88 .55 0 1-.45.99-1.01l-.01-11.5 -.01-.12c-.06-.5-.49-.89-1-.89 -.56 0-1 .44-1 1Zm-4 1.99c-.56 0-1 .44-1 1v8.5l0 .11c.05.49.48.88.99.88 .55 0 1-.45 1-1v-8.5l-.01-.12c-.06-.5-.49-.89-1-.89Zm2.2 14.11c-.31-.4-.28-.96.08-1.32 .39-.4 1.02-.4 1.41 0l1.29 1.29 1.29-1.3 .09-.09c.39-.31.95-.28 1.32.08 .39.39.39 1.02 0 1.41l-2 2 -.1.08c-.4.3-.96.27-1.32-.09l-2-2 -.09-.1Z"/></svg>