<svg viewBox="0 0 24 24" xmlns="http://www.w3.org/2000/svg"><path fill="currentColor" d="M11.5 3.5c.96 0 1.75.78 1.75 1.75v4.43l4.71-5.13c.65-.72 1.76-.76 2.47-.11 .71.65.75 1.76.1 2.47l-4.66 5.06 4.65 5.06c.65.71.6 1.81-.11 2.47 -.72.65-1.82.6-2.48-.11l-4.72-5.13v4.43c0 .96-.79 1.75-1.75 1.75 -.97 0-1.75-.79-1.75-1.75v-4.44l-4.72 5.12c-.66.71-1.77.75-2.48.1 -.72-.66-.76-1.77-.11-2.48l4.65-5.07 -4.66-5.07c-.66-.72-.61-1.82.1-2.48 .71-.66 1.81-.61 2.47.1l4.71 5.12V5.15c0-.97.78-1.75 1.74-1.75Z"/></svg>