<svg viewBox="0 0 24 24" xmlns="http://www.w3.org/2000/svg"><path fill="currentColor" d="M6.5 1.25c0 .41-.34.75-.75.75C5.33 2 5 1.66 5 1.25c0-.42.33-.75.75-.75 .41 0 .75.33.75.75ZM18.5 3c0-.56-.45-1-1-1 -.56 0-1 .44-1 1v15.58l-1.8-1.8c-.4-.4-1.03-.4-1.42 0 -.4.39-.4 1.02 0 1.41l3.5 3.5c.39.39 1.02.39 1.41 0l3.5-3.5c.39-.4.39-1.03 0-1.42 -.4-.4-1.03-.4-1.42 0l-1.8 1.79V2.97ZM8.25 2c.41 0 .75-.34.75-.75C9 .83 8.66.5 8.25.5c-.42 0-.75.33-.75.75 0 .41.33.75.75.75Zm-6.5 5.25C1.75 4.51 4.22 2.5 7 2.5c2.77 0 5.25 2.01 5.25 4.75C12.25 9.98 9.77 12 7 12c-2.78 0-5.25-2.02-5.25-4.75ZM7 4.5c-1.92 0-3.25 1.34-3.25 2.75C3.75 8.65 5.08 10 7 10c1.91 0 3.25-1.35 3.25-2.75C10.25 5.84 8.91 4.5 7 4.5ZM7 13c.4 0 .76.23.91.6l3 7c.21.5-.02 1.09-.53 1.31 -.51.21-1.1-.02-1.32-.53l-.6-1.4H5.49l-.6 1.39c-.22.5-.81.74-1.32.52 -.51-.22-.75-.81-.53-1.32l3-7c.15-.37.51-.61.91-.61Zm0 3.53l-.63 1.46h1.25l-.63-1.47Z"/></svg>