<svg viewBox="0 0 24 24" xmlns="http://www.w3.org/2000/svg"><path fill="currentColor" d="M8 9v8.5c0 .55-.45 1-1 1 -.52 0-.94-.39-1-.89l-.01-.12v-8.5c0-.56.44-1 1-1 .51 0 .93.38.99.88l0 .11Zm6.7-6.71c.36.36.38.92.08 1.32l-.09.09 -2 2c-.37.36-.93.38-1.32.08l-.1-.09 -2.01-2c-.4-.4-.4-1.03 0-1.42 .36-.37.92-.39 1.32-.09l.09.08 1.29 1.29 1.29-1.3c.39-.4 1.02-.4 1.41 0Zm-1.71 6.7l0 11.49c0 .55-.45 1-1 1 -.52 0-.94-.39-1-.89l-.01-.12 -.01-11.51c-.01-.56.44-1.01.99-1.01 .51 0 .93.38.99.88l0 .11Zm5 0v8.5c0 .55-.45 1-1 1 -.52 0-.94-.39-1-.89l-.01-.12v-8.5c0-.56.44-1 1-1 .51 0 .93.38.99.88l0 .11Z"/></svg>