<svg viewBox="0 0 24 24" xmlns="http://www.w3.org/2000/svg"><path fill="currentColor" d="M15.5 3.25c0-.42-.34-.75-.75-.75 -.42 0-.75.33-.75.75v8.5c0 .41.33.75.75.75 .41 0 .75-.34.75-.75V8H17c.41 0 .75-.34.75-.75 0-.42-.34-.75-.75-.75h-1.5V3.25Zm-8.75.25c-.42 0-.75.33-.75.75 0 .41.33.75.75.75h4.24c-.17 1.63-1.33 4.09-4.47 5.03 -.4.11-.63.53-.51.93 .11.39.53.62.93.5 4.39-1.32 5.72-5.16 5.53-7.29 -.04-.39-.36-.69-.75-.69h-5Zm13.24 13.25c0-1.25-1.01-2.26-2.25-2.26H5.24c-1.25 0-2.25 1-2.25 2.25v2.99c0 1.24 1 2.25 2.25 2.25h12.5c1.24 0 2.25-1.01 2.25-2.25v-3Z"/></svg>