<svg viewBox="0 0 24 24" xmlns="http://www.w3.org/2000/svg"><path fill="currentColor" d="M8.57 4.458c.91-.62 2.05-.96 3.42-.96 1.92 0 3.3.65 4.21 1.38 .44.35.76.71.97 1 .1.14.19.26.25.36 .03.04.05.09.07.12 0 .01.01.03.02.04l.01.01 0 .01 0 0s-.57-.97-.01-.01l0 0c.43.86.08 1.91-.79 2.34 -.86.42-1.89.09-2.33-.75 -.01-.02-.03-.05-.06-.09 -.07-.09-.19-.23-.37-.38 -.34-.27-.96-.62-2.04-.62 -.76 0-1.21.18-1.49.37 -.3.19-.51.46-.67.78 -.17.33-.26.68-.31.96 -.03.13-.04.24-.04.31 -.01.03-.01.05-.01.06l-.01 0v4.98c0 1.38 1.11 2.49 2.49 2.49 1.38 0 2.5-1.12 2.5-2.5l-.75-.01c-.97 0-1.75-.79-1.75-1.75 0-.97.78-1.75 1.75-1.75h2.5c.96 0 1.75.78 1.75 1.75v1.75c0 3.31-2.69 5.99-6 5.99 -3.32 0-6-2.69-6-6V9.32l0-.02c-.01.51-.01.01-.01.01V9.3l0-.01 0-.01 -.01-.03c0-.02 0-.04 0-.07 0-.06 0-.12.01-.21 .01-.17.03-.39.07-.65 .08-.52.25-1.23.62-1.96 .36-.74.95-1.54 1.85-2.14Z"/></svg>