<svg viewBox="0 0 24 24" xmlns="http://www.w3.org/2000/svg"><path fill="currentColor" d="M12.25 12.25C12.25 9.9 14.15 8 16.5 8h4.75c.41 0 .75.33.75.75 0 .41-.34.75-.75.75H21v11.75c0 .41-.34.75-.75.75 -.42 0-.75-.34-.75-.75V9.5h-1v11.75c0 .41-.34.75-.75.75 -.42 0-.75-.34-.75-.75V16.5h-.5c-2.35 0-4.25-1.91-4.25-4.25ZM2 5.75c0-.42.33-.75.75-.75h18.5c.41 0 .75.33.75.75 0 .41-.34.75-.75.75H2.75c-.42 0-.75-.34-.75-.75Zm0 5c0-.42.33-.75.75-.75h9c-.23.46-.38.97-.46 1.5H2.73c-.42 0-.75-.34-.75-.75ZM2.75 15h9.277c.36.58.83 1.09 1.39 1.5H2.747c-.42 0-.75-.34-.75-.75 0-.42.33-.75.75-.75Z"/></svg>