<svg viewBox="0 0 24 24" xmlns="http://www.w3.org/2000/svg"><path fill="currentColor" d="M6.04 3.17c.26-.62 1.06-1.41 2.17-1.12 .7.18 1.2.6 1.48 1.17 .24.5.29 1.05.29 1.46 0 .39-.06.82-.14 1.21h.19c1.55 0 2.82 1.43 2.33 2.99l-1.15 3.65c-.47 1.48-2.1 2.25-3.58 1.81l-4.52-1.33c-.71-.21-1.29-.71-1.56-1.39l-.44-1.09c-.44-1.1.04-2.29 1.05-2.85l1.54-.85c0-.01.01-.02.02-.03 .05-.05.14-.12.26-.25 .23-.26.59-.71.96-1.43 .17-.36.32-.63.45-.88l0-.01c.21-.4.37-.71.56-1.14Zm11.91 17.64c-.27.61-1.07 1.4-2.18 1.11 -.71-.19-1.21-.61-1.49-1.18 -.25-.51-.3-1.06-.3-1.47 -.01-.4.05-.83.13-1.22h-.2c-1.56 0-2.83-1.44-2.34-3l1.14-3.66c.46-1.49 2.1-2.26 3.57-1.82l4.51 1.32c.7.2 1.28.7 1.55 1.38l.43 1.08c.43 1.09-.05 2.28-1.06 2.84l-1.55.84c-.01 0-.02.01-.03.02 -.06.04-.15.11-.27.24 -.24.25-.6.7-.97 1.42 -.18.35-.33.62-.46.87l-.01 0c-.22.39-.38.7-.57 1.13Z"/></svg>