<svg viewBox="0 0 24 24" xmlns="http://www.w3.org/2000/svg"><path fill="currentColor" d="M12 5c4.69 0 8.5 3.8 8.5 8.5 0 4.69-3.81 8.5-8.5 8.5 -4.7 0-8.5-3.81-8.5-8.5C3.5 8.8 7.3 5 12 5Zm0 3c-.38 0-.7.28-.75.64l-.01.1v4.5l0 .1c.04.36.36.64.74.64 .37 0 .69-.29.74-.65l0-.11v-4.5l-.01-.11c-.05-.37-.37-.65-.75-.65Zm7.17-2.88l.08.06 1.14 1c.31.27.34.74.07 1.05 -.25.28-.67.33-.98.13l-.09-.07 -1.15-1c-.32-.28-.35-.75-.08-1.06 .24-.29.66-.34.97-.14Zm-4.93-2.63c.41 0 .75.33.75.75 0 .37-.29.69-.65.74l-.11 0h-4.5c-.42 0-.75-.34-.75-.75 0-.38.28-.7.64-.75l.1-.01h4.5Z"/></svg>