<svg viewBox="0 0 24 24" xmlns="http://www.w3.org/2000/svg"><path fill="currentColor" d="M3.28 2.21c-.3-.3-.77-.3-1.07-.01 -.3.29-.3.76-.01 1.06l3.99 3.99c-1.67 1.55-2.72 3.76-2.72 6.22 0 4.69 3.8 8.5 8.5 8.5 2.45 0 4.67-1.05 6.22-2.72l2.49 2.49c.29.29.76.29 1.06 0 .29-.3.29-.77 0-1.07L3.24 2.16Zm9.33 11.45c-.14.19-.37.32-.62.32 -.38 0-.7-.29-.75-.65l-.01-.11v-.94l1.36 1.36Zm.13-4.93v.81l7.12 7.12c.4-.99.62-2.07.62-3.2 0-4.7-3.81-8.51-8.5-8.51 -1.14 0-2.21.22-3.2.62l2.63 2.63c.13-.16.33-.26.56-.26 .37 0 .69.28.74.64l0 .1Zm6.42-3.63l.08.06 1.14 1c.31.27.34.74.07 1.05 -.25.28-.67.33-.98.13l-.09-.07 -1.15-1c-.32-.28-.35-.75-.08-1.06 .24-.29.66-.34.97-.14Zm-4.93-2.63c.41 0 .75.33.75.75 0 .37-.29.69-.65.74l-.11 0h-4.5c-.42 0-.75-.34-.75-.75 0-.38.28-.7.64-.75l.1-.01h4.5Z"/></svg>