<svg viewBox="0 0 24 24" xmlns="http://www.w3.org/2000/svg"><path fill="currentColor" d="M12.62 2.21c-.37-.3-.89-.3-1.25 0l-3.75 3c-.44.34-.51.97-.16 1.4 .34.43.97.5 1.4.15l3.12-2.51 3.12 2.5c.43.34 1.06.27 1.4-.16 .34-.44.27-1.07-.16-1.41l-3.75-3ZM2.74 8.99c-1.25 0-2.25 1-2.25 2.25v1.5c0 1.24 1 2.25 2.25 2.25 1.24 0 2.25-1.01 2.25-2.25v-1.5c0-1.25-1.01-2.25-2.25-2.25Zm-.75 2.25c0-.42.33-.75.75-.75 .41 0 .75.33.75.75v1.5c0 .41-.34.75-.75.75 -.42 0-.75-.34-.75-.75v-1.5Zm6.25-2.25c-1.25 0-2.25 1-2.25 2.25v1.5c0 1.24 1 2.25 2.25 2.25 1.24 0 2.25-1.01 2.25-2.25v-1.5c0-1.25-1.01-2.25-2.25-2.25Zm-.75 2.25c0-.42.33-.75.75-.75 .41 0 .75.33.75.75v1.5c0 .41-.34.75-.75.75 -.42 0-.75-.34-.75-.75v-1.5Zm6.5 0c0-1.25 1-2.25 2.25-2.25 1.24 0 2.25 1 2.25 2.25v1.5c0 1.24-1.01 2.25-2.25 2.25 -1.25 0-2.25-1.01-2.25-2.25v-1.5Zm2.25-.75c-.42 0-.75.33-.75.75v1.5c0 .41.33.75.75.75 .41 0 .75-.34.75-.75v-1.5c0-.42-.34-.75-.75-.75Zm5.5-1.5c-1.25 0-2.25 1-2.25 2.25v1.5c0 1.24 1 2.25 2.25 2.25 1.24 0 2.25-1.01 2.25-2.25v-1.5c0-1.25-1.01-2.25-2.25-2.25Zm-.75 2.25c0-.42.33-.75.75-.75 .41 0 .75.33.75.75v1.5c0 .41-.34.75-.75.75 -.42 0-.75-.34-.75-.75v-1.5Zm-8-.5c0 .41-.34.75-.75.75 -.42 0-.75-.34-.75-.75 0-.42.33-.75.75-.75 .41 0 .75.33.75.75Zm-.75 3.75c.41 0 .75-.34.75-.75 0-.42-.34-.75-.75-.75 -.42 0-.75.33-.75.75 0 .41.33.75.75.75Zm.38 7.52l4-3.25c.42-.35.49-.98.14-1.41 -.35-.43-.98-.5-1.41-.15l-3.37 2.73 -3.37-2.74c-.43-.35-1.06-.29-1.41.14 -.35.42-.29 1.05.14 1.4l3.99 3.25c.36.29.89.29 1.26 0Z"/></svg>