<svg viewBox="0 0 24 24" xmlns="http://www.w3.org/2000/svg"><path fill="currentColor" d="M15.25 13c.96 0 1.75.78 1.75 1.75v4.5c0 .96-.79 1.75-1.75 1.75H3.74c-.97 0-1.75-.79-1.75-1.75v-4.51c0-.97.78-1.75 1.75-1.75h11.5ZM21 14.89l-.01 5.35c0 .41-.34.75-.75.75 -.38 0-.7-.29-.75-.65l-.01-.11 -.01-5.35c.23.05.47.08.72.08 .26 0 .52-.04.77-.11Zm-.76-4.81c1.05 0 1.9.85 1.9 1.9 0 1.05-.86 1.9-1.91 1.9 -1.06 0-1.91-.86-1.91-1.91 0-1.06.85-1.91 1.9-1.91Zm-5.01-7.1c.96 0 1.75.78 1.75 1.75v4.5c0 .96-.79 1.75-1.75 1.75H3.72c-.97 0-1.75-.79-1.75-1.75V4.72c0-.92.7-1.68 1.6-1.75l.14-.01h11.5Zm5 0c.37 0 .69.28.74.64l0 .1 -.01 5.34c-.25-.07-.51-.11-.78-.11 -.26 0-.5.03-.73.08l0-5.34c0-.42.33-.75.75-.75Z"/></svg>