<svg viewBox="0 0 24 24" xmlns="http://www.w3.org/2000/svg"><path fill="currentColor" d="M12 5c4.19 0 7.68 3.04 8.37 7.04 -.21-.04-.42-.05-.63-.05 -1.63 0-3.04.91-3.75 2.24v-.5c0-.57-.28-1.1-.73-1.42 -.46-.33-1.05-.42-1.58-.25l-.95.31V8.71l-.01-.11c-.05-.37-.37-.65-.75-.65s-.7.28-.75.64l-.01.1v4.5l0 .08c-.26.42-.34.95-.17 1.46 .21.64.77 1.08 1.41 1.17v6c-.17 0-.34.01-.5.01 -4.7 0-8.5-3.81-8.5-8.5 0-4.7 3.8-8.5 8.5-8.5Zm7.17.12l.08.06 1.14 1c.31.27.34.74.07 1.05 -.25.28-.67.33-.98.13l-.09-.07 -1.15-1c-.32-.28-.35-.75-.08-1.06 .24-.29.66-.34.97-.14Zm-4.93-2.63c.41 0 .75.33.75.75 0 .37-.29.69-.65.74l-.11 0h-4.5c-.42 0-.75-.34-.75-.75 0-.38.28-.7.64-.75l.1-.01h4.5Zm.43 10.64c.19.14.31.36.31.6v8.5c0 .41-.34.75-.75.75 -.42 0-.75-.34-.75-.75v-7.46l-.52.17c-.4.13-.82-.09-.95-.48 -.14-.4.08-.82.47-.95l1.5-.5c.22-.08.48-.04.67.1Zm1.81 3.1c0-1.8 1.45-3.25 3.25-3.25 1.79 0 3.25 1.45 3.25 3.25v3.5c0 1.79-1.46 3.25-3.25 3.25 -1.8 0-3.25-1.46-3.25-3.25v-3.5Zm3.25-1.75c-.97 0-1.75.78-1.75 1.75v3.5c0 .96.78 1.75 1.75 1.75 .96 0 1.75-.79 1.75-1.75v-3.5c0-.97-.79-1.75-1.75-1.75Z"/></svg>