<svg viewBox="0 0 24 24" xmlns="http://www.w3.org/2000/svg"><path fill="currentColor" d="M15.445 15.91c.53.59 1.37.74 2.06.41 -.33.47-.51 1.05-.51 1.67 0 .61.18 1.19.5 1.67 -.69-.34-1.54-.19-2.07.41 -.35.38-.49.88-.44 1.36 -.94.35-1.96.54-3.02.54 -4.7 0-8.5-3.81-8.5-8.5 0-4.7 3.8-8.5 8.5-8.5 4.23 0 7.74 3.09 8.393 7.14 -.38-.1-.77-.15-1.15-.15 -1.1 0-2.03.39-2.62.71 -.31.16-.56.33-.74.46 -.09.06-.17.12-.22.16 -.03.02-.05.04-.07.05l-.03.02 -.01 0 -.01 0 -.01 0c-.73.64-.79 1.75-.14 2.47Zm-4.19-7.27l-.01.1v4.5l0 .1c.04.36.36.64.74.64 .37 0 .69-.29.74-.65l0-.11v-4.5l-.01-.11c-.05-.37-.37-.65-.75-.65s-.7.28-.75.64Zm7.99-3.47l-.09-.07c-.31-.21-.73-.16-.98.13 -.28.31-.24.78.07 1.05l1.14 1 .08.06c.3.2.72.15.97-.14 .27-.32.23-.79-.08-1.06l-1.15-1Zm-4.26-1.94c0-.42-.34-.75-.75-.75h-4.5l-.11 0c-.37.04-.65.36-.65.74 0 .41.33.75.75.75h4.5l.1-.01c.36-.05.64-.37.64-.75Zm3.25 14.75c0-.42.33-.75.75-.75 .52 0 1.05-.19 1.44-.48 .39-.3.55-.63.55-.91 0-.65-.67-1.38-1.75-1.38 -.52 0-1.02.18-1.41.4 -.2.1-.35.21-.46.28 -.06.03-.1.07-.12.09 -.02.01-.03.01-.03.02l-.01 0c-.31.27-.79.24-1.06-.07 -.28-.31-.25-.79.06-1.06l0-.01 0-.01 0-.01 .01-.02c.01-.02.02-.03.05-.05 .04-.04.1-.09.17-.14 .14-.11.35-.26.61-.4 .51-.29 1.26-.6 2.13-.6 1.67 0 3.25 1.17 3.25 2.87 0 .89-.52 1.62-1.16 2.1l-.03.02 .02.02c.63.47 1.15 1.2 1.15 2.1 0 1.69-1.58 2.875-3.25 2.875 -.87 0-1.62-.32-2.14-.6 -.27-.15-.48-.29-.62-.4 -.08-.06-.14-.11-.18-.14 -.03-.02-.04-.04-.06-.05l-.02-.02 -.01-.01 -.01-.01 -.01-.01c-.31-.28-.34-.76-.06-1.06 .27-.31.74-.34 1.05-.07l0 0 0 0s.01 0 .01.01c0 0 0 0 0 0 .02.02.06.05.11.09 .1.07.26.18.45.28 .39.21.88.4 1.4.4 1.08 0 1.75-.73 1.75-1.375 0-.28-.17-.61-.56-.91 -.39-.29-.92-.48-1.45-.48 -.42 0-.75-.34-.75-.75Z"/></svg>