<svg viewBox="0 0 24 24" xmlns="http://www.w3.org/2000/svg"><path fill="currentColor" d="M20.39 12.15c-.65-4.06-4.16-7.16-8.4-7.16 -4.7 0-8.5 3.8-8.5 8.5 0 4.69 3.8 8.5 8.5 8.5 1.05 0 2.06-.2 3-.55v-.21c0-1.32.59-2.49 1.52-3.27 -.87-.11-1.53-.85-1.53-1.74 0-2.35 1.9-4.25 4.25-4.25 .39 0 .78.05 1.14.15Zm-9.14-3.51c.04-.37.36-.65.74-.65 .37 0 .69.28.74.64l0 .1v4.5l-.01.1c-.05.36-.37.64-.75.64s-.7-.29-.75-.65l-.01-.11v-4.5l0-.11Zm7.99-3.47l-.09-.07c-.31-.21-.73-.16-.98.13 -.28.31-.24.78.07 1.05l1.14 1 .08.06c.3.2.72.15.97-.14 .27-.32.23-.79-.08-1.06l-1.15-1Zm-4.26-1.94c0-.42-.34-.75-.75-.75h-4.5l-.11 0c-.37.04-.65.36-.65.74 0 .41.33.75.75.75h4.5l.1-.01c.36-.05.64-.37.64-.75Zm4.25 9.75c-1.8 0-3.25 1.45-3.25 3.25 0 .41.33.75.75.75 .41 0 .75-.34.75-.75 0-.97.78-1.75 1.75-1.75 .96 0 1.75.78 1.75 1.75 0 .96-.79 1.75-1.75 1.75 -1.8 0-3.25 1.45-3.25 3.25v1c0 .41.33.75.75.75h5c.41 0 .75-.34.75-.75 0-.42-.34-.75-.75-.75h-4.25v-.25c0-.97.78-1.75 1.75-1.75 1.79 0 3.25-1.46 3.25-3.25 0-1.8-1.46-3.25-3.25-3.25Z"/></svg>