<svg viewBox="0 0 24 24" xmlns="http://www.w3.org/2000/svg"><path fill="currentColor" d="M11.99 18.53c.51 0 .93.38.99.88l0 .11v1.45c0 .55-.45 1-1 1 -.52 0-.94-.39-1-.89l-.01-.12V19.5c0-.56.44-1 1-1Zm6.03-1.94l1.02 1.02c.39.39.39 1.02 0 1.41 -.4.39-1.03.39-1.42 0l-1.03-1.03c-.4-.4-.4-1.03 0-1.42 .39-.4 1.02-.4 1.41 0Zm-10.66 0c.39.39.39 1.02-.001 1.41l-1.03 1.02c-.4.39-1.03.39-1.42 0 -.4-.4-.4-1.03 0-1.42l1.02-1.03c.39-.4 1.02-.4 1.41 0Zm4.63-10.13c3.05 0 5.52 2.47 5.52 5.525 0 3.05-2.48 5.52-5.53 5.52 -3.06 0-5.53-2.48-5.53-5.53 0-3.06 2.47-5.525 5.52-5.525Zm-.76 2.52c-.38 0-.7.28-.75.64l-.01.1v3l0 .1c.04.33.3.59.64.64l.1 0h1.99l.1-.01c.33-.05.59-.31.64-.65l0-.11 -.01-.11c-.05-.34-.31-.6-.65-.65l-.11-.01 -1.25-.01V9.65l-.01-.11c-.05-.37-.37-.65-.75-.65Zm9.72 2.01c.55 0 1 .44 1 1 0 .51-.39.93-.89.99l-.12 0h-1.46c-.56 0-1-.45-1-1 0-.52.38-.94.88-1l.11-.01h1.45Zm-16.5-.03c.55 0 1 .44 1 1 0 .51-.39.93-.89.99l-.12 0H2.98c-.56 0-1-.45-1-1 0-.52.38-.94.88-1l.11-.01h1.45Zm1.77-6.12l.09.08 1.02 1.02c.39.39.39 1.02 0 1.41 -.37.36-.93.38-1.33.08l-.1-.09 -1.03-1.03c-.4-.4-.4-1.03 0-1.42 .36-.37.92-.39 1.32-.09Zm12.81.08c.36.36.38.92.08 1.32l-.09.09 -1.03 1.02c-.4.39-1.03.39-1.42 0 -.37-.37-.39-.93-.09-1.33l.08-.1 1.02-1.03c.39-.4 1.02-.4 1.41 0Zm-7.07-2.95c.51 0 .93.38.99.88l0 .11v1.45c0 .55-.45 1-1 1 -.52 0-.94-.39-1-.89l-.01-.12V2.94c0-.56.44-1 1-1Z"/></svg>