<svg viewBox="0 0 24 24" xmlns="http://www.w3.org/2000/svg"><path fill="currentColor" d="M4.25 2C3 2 2 3 2 4.25v7.5C2 12.99 3 14 4.25 14h1.94l1.89 3.59c.12.24.38.4.66.4 .27 0 .53-.16.66-.41l1.89-3.6h1.94c1.24 0 2.25-1.01 2.25-2.25v-7.5c0-1.25-1.01-2.25-2.25-2.25h-9ZM5.5 6.25c0-.42.33-.75.75-.75h1.5c.41 0 .75.33.75.75 0 2.15-1.29 3.59-1.72 4.03 -.3.29-.77.29-1.07 0 -.3-.3-.3-.77 0-1.07 .2-.21.61-.67.91-1.33 -.12.06-.25.1-.39.1 -.42 0-.75-.34-.75-.75v-1Zm4 0c0-.42.33-.75.75-.75h1.5c.41 0 .75.33.75.75 0 2.15-1.29 3.59-1.72 4.03 -.3.29-.77.29-1.07 0 -.3-.3-.3-.77 0-1.07 .2-.21.61-.67.91-1.33 -.12.06-.25.1-.39.1 -.42 0-.75-.34-.75-.75v-1ZM2.75 16.5h3.62l.78 1.5H2.73c-.42 0-.75-.34-.75-.75 0-.42.33-.75.75-.75Zm18.5 1.5H10.33l.78-1.5h10.12c.41 0 .75.33.75.75 0 .41-.34.75-.75.75ZM2 21.25c0-.42.33-.75.75-.75h12c.41 0 .75.33.75.75 0 .41-.34.75-.75.75h-12c-.42 0-.75-.34-.75-.75Z"/></svg>