<svg viewBox="0 0 24 24" xmlns="http://www.w3.org/2000/svg"><path fill="currentColor" d="M7 6.25v.74H4.25C3 6.99 2 7.99 2 9.24v2.25h4.5v-.75c0-.42.33-.75.75-.75 .41 0 .75.33.75.75v.75h8v-.75c0-.42.33-.75.75-.75 .41 0 .75.33.75.75v.75H22V9.23c0-1.25-1.01-2.25-2.25-2.25H17v-.75c0-1.25-1.01-2.25-2.25-2.25h-5.5C8 3.98 7 4.98 7 6.23Zm2.25-.75h5.5c.41 0 .75.33.75.75v.74h-7v-.75c0-.42.33-.75.75-.75ZM22 12.99h-4.5v1.25c0 .41-.34.75-.75.75 -.42 0-.75-.34-.75-.75v-1.25H8v1.25c0 .41-.34.75-.75.75 -.42 0-.75-.34-.75-.75v-1.25H2v4.74c0 1.24 1 2.25 2.25 2.25h15.5c1.24 0 2.25-1.01 2.25-2.25v-4.75Z"/></svg>