<svg viewBox="0 0 24 24" xmlns="http://www.w3.org/2000/svg"><path fill="currentColor" d="M11 3.55v1.44c0 .55.44 1 1 1 .55 0 1-.45 1-1V3.54c3.89.45 6.98 3.54 7.44 7.44h-1.45c-.56 0-1 .44-1 1 0 .55.44 1 1 1h1.43c-.23 1.81-1.05 3.44-2.24 4.74 -.29.3-.27.77.04 1.05 .3.28.77.26 1.05-.05 1.64-1.78 2.69-4.13 2.69-6.76 0-5.53-4.48-10-10-10 -5.53 0-10 4.47-10 10 0 2.63 1.05 4.98 2.69 6.75 .28.3.75.32 1.05.04 .3-.29.32-.76.04-1.06 -1.2-1.3-2.02-2.93-2.24-4.75h1.43c.55 0 1-.45 1-1 0-.56-.45-1-1-1H3.48c.18-1.6.81-3.07 1.76-4.27l.96.96c.39.39 1.02.39 1.41 0 .39-.4.39-1.03 0-1.42l-.97-.97c1.2-.95 2.66-1.58 4.26-1.77Zm5.75 3.07c-.24-.19-.58-.18-.81.01l-.22.18c-.14.11-.34.28-.58.48 -.48.4-1.13.94-1.78 1.5 -.66.55-1.33 1.13-1.87 1.61 -.27.23-.51.44-.69.62 -.18.15-.34.31-.42.42 -.66.8-.52 1.98.31 2.61 .82.63 2.02.5 2.67-.31 .08-.11.2-.3.32-.5 .12-.22.28-.49.45-.8 .34-.62.76-1.4 1.17-2.15 .4-.76.79-1.49 1.09-2.04 .14-.28.26-.51.34-.66l.13-.25c.13-.27.06-.59-.18-.78Z"/></svg>