<svg viewBox="0 0 24 24" xmlns="http://www.w3.org/2000/svg"><path fill="currentColor" d="M3.07 5.62c.78-.37 2.43-.92 4.45-.34l0 0c.63.18 1.15.48 1.54.88 .39.39.62.85.75 1.29 .2.67.18 1.42.16 1.83 -.01.07-.01.14-.01.2v5.5c0 .55-.45 1-1.01 1 -.46 0-.84-.31-.96-.72 -.03.01-.06.02-.09.03 -.97.46-2.4.92-3.88.5 -1.64-.46-2.46-1.81-2.58-3.14 -.12-1.28.41-2.74 1.68-3.45 1.52-.86 3.11-.84 4.26-.65 .19.03.38.07.55.11 -.01-.25-.03-.47-.09-.69 -.06-.19-.14-.34-.26-.46 -.13-.13-.33-.27-.69-.38 -1.39-.41-2.52-.03-3.05.22 -.51.23-1.1.01-1.33-.49 -.24-.51-.02-1.1.48-1.33Zm4.03 4.95c-.89-.16-1.96-.14-2.95.41 -.43.23-.73.82-.67 1.52 .05.64.42 1.19 1.11 1.38 .79.22 1.68-.01 2.47-.39 .36-.18.67-.37.9-.53v-2.2c-.24-.08-.55-.17-.89-.23Zm9.18-3.54c.52.16.81.72.64 1.25 -.06.17-.11.37-.16.58 .67-.09 1.34-.21 1.96-.36 .53-.14 1.07.19 1.2.73 .13.53-.2 1.07-.74 1.2 -.9.22-1.87.37-2.85.47 -.07.33-.12.65-.17.96 .62-.15 1.22-.19 1.79-.14 .1-.45.5-.78.97-.78 .55 0 1 .44 1 1 0 .1-.01.21-.01.32 .93.48 1.66 1.24 2.1 2.16 .5 1.05.6 2.28.17 3.46 -.44 1.18-1.39 2.21-2.83 2.93 -.5.24-1.1.04-1.35-.45 -.25-.5-.05-1.1.44-1.35 1.05-.53 1.6-1.21 1.83-1.85 .23-.64.18-1.32-.1-1.91 -.16-.32-.38-.62-.66-.87 -.54 1.75-1.59 3.12-2.74 4.06 .01.03.02.07.04.11 .18.52-.09 1.09-.61 1.27 -.43.15-.89-.01-1.15-.35 -.34.14-.67.25-.99.32 -.8.16-1.83.14-2.5-.59 -.94-1.03-.87-2.6-.24-3.89 .49-1.02 1.37-1.99 2.63-2.71 .05-.53.13-1.09.23-1.7 -.49 0-.96-.02-1.42-.05 -.56-.04-.97-.52-.93-1.07 .03-.56.51-.97 1.06-.93 .53.03 1.08.05 1.65.03 .08-.45.19-.96.32-1.35 .16-.53.72-.82 1.25-.65ZM14 15.26c-.35.34-.6.69-.76 1.03 -.43.87-.26 1.45-.1 1.64l0 0c.02.01.18.08.61-.01 .2-.05.43-.12.67-.23 -.14-.43-.26-.92-.35-1.48 -.05-.31-.08-.63-.1-.98Zm2.17 1.2c.67-.7 1.25-1.62 1.56-2.73l-1.66.26c-.04.01-.07.02-.1.03 -.03.77.01 1.39.08 1.904 .02.18.06.36.09.52Z"/></svg>