<svg viewBox="0 0 24 24" xmlns="http://www.w3.org/2000/svg"><path fill="currentColor" d="M12 1.95c.05-.55.54-.96 1.09-.9 1.79.17 3.46.78 4.9 1.72v-.28c0-.56.44-1 1-1 .55 0 1 .44 1 1v2.5c0 .55-.45 1-1 1h-2.5c-.56 0-1-.45-1-1 0-.46.29-.84.7-.96 -1.01-.54-2.13-.89-3.31-1 -.55-.06-.96-.55-.9-1.1ZM5.99 21.49v-.28c1.43.93 3.1 1.54 4.9 1.72 .54.05 1.03-.35 1.09-.9 .05-.55-.35-1.04-.9-1.1 -1.19-.12-2.31-.47-3.31-1 .41-.13.7-.51.7-.96 0-.56-.45-1-1-1h-2.5c-.56 0-1 .44-1 1v2.5c0 .55.44 1 1 1 .55 0 1-.45 1-1Zm10.95-13.2c.16-.53-.13-1.09-.65-1.26 -.53-.17-1.09.12-1.26.64 -.13.38-.24.89-.33 1.34 -.57.01-1.13 0-1.66-.04 -.56-.04-1.03.37-1.07.92 -.04.55.37 1.02.92 1.06 .45.03.93.04 1.41.04 -.11.61-.19 1.17-.24 1.69 -1.27.71-2.15 1.68-2.64 2.7 -.63 1.28-.71 2.85.23 3.88 .67.73 1.7.75 2.49.58 .32-.07.65-.18.98-.33 .25.34.71.49 1.14.34 .52-.19.79-.76.6-1.28 -.02-.04-.03-.08-.05-.12 1.14-.94 2.2-2.31 2.73-4.06 .28.25.5.54.65.86 .28.59.33 1.27.09 1.9 -.24.63-.78 1.31-1.84 1.84 -.5.24-.7.84-.45 1.34 .24.49.84.69 1.34.44 1.44-.73 2.38-1.76 2.82-2.94 .43-1.18.33-2.42-.18-3.47 -.44-.92-1.18-1.68-2.11-2.17 0-.11 0-.22 0-.33 0-.56-.45-1-1-1 -.48 0-.87.32-.98.77 -.57-.05-1.17-.01-1.8.13 .04-.31.1-.63.16-.97 .97-.1 1.94-.26 2.84-.48 .53-.14.86-.68.73-1.21 -.14-.54-.68-.87-1.21-.74 -.63.15-1.29.27-1.97.35 .04-.21.09-.41.15-.59Zm-3.69 8.01c.16-.35.41-.7.75-1.04 .01.34.05.67.09.97 .08.55.2 1.04.34 1.47 -.25.1-.48.18-.68.22 -.43.09-.59.01-.62 0l-.01-.01c-.17-.2-.33-.78.09-1.65Zm4.49-2.57c-.31 1.11-.89 2.03-1.57 2.72 -.04-.17-.07-.34-.1-.53 -.08-.52-.12-1.14-.09-1.91 .03-.02.06-.03.09-.04l1.65-.27ZM3.05 5.59c.78-.37 2.43-.92 4.45-.34l0 0c.63.18 1.15.48 1.54.88 .39.39.62.85.75 1.29 .2.67.18 1.42.16 1.83 -.01.07-.01.14-.01.2v5.5c0 .55-.45 1-1.01 1 -.46 0-.84-.31-.96-.718 -.03.01-.06.02-.09.03 -.97.46-2.4.92-3.88.5 -1.64-.46-2.46-1.81-2.58-3.14 -.12-1.28.41-2.74 1.68-3.45 1.52-.86 3.11-.84 4.26-.65 .19.03.38.07.55.11 -.01-.25-.03-.47-.09-.69 -.06-.19-.14-.34-.26-.46 -.13-.13-.33-.27-.69-.38 -1.39-.41-2.52-.03-3.05.22 -.51.23-1.1.01-1.33-.49 -.24-.51-.02-1.1.48-1.33Zm4.03 4.95c-.89-.16-1.96-.14-2.95.41 -.43.23-.73.82-.67 1.52 .05.64.42 1.19 1.11 1.38 .79.22 1.68-.01 2.47-.39 .36-.18.67-.37.9-.53v-2.2c-.24-.08-.55-.17-.89-.23Z"/></svg>