<svg viewBox="0 0 24 24" xmlns="http://www.w3.org/2000/svg"><path fill="currentColor" d="M12 2c-1.52 0-2.75 1.23-2.75 2.75 0 1.25.84 2.32 2 2.64v3.85c0 .41.33.75.75.75 .41 0 .75-.34.75-.75V7.38c1.15-.33 2-1.39 2-2.65 0-1.52-1.24-2.75-2.75-2.75ZM5.5 4C4.11 4 3 5.11 3 6.5v12C3 19.88 4.11 21 5.5 21 6.88 21 8 19.88 8 18.5V15h1.5v3.5c0 1.38 1.11 2.5 2.5 2.5 1.38 0 2.5-1.12 2.5-2.5V15H19c1.1 0 2-.9 2-2V6.5C21 5.11 19.88 4 18.5 4 17.11 4 16 5.11 16 6.5V10h-2.25v1.5h3.75v-5c0-.56.44-1 1-1 .55 0 1 .44 1 1V13c0 .27-.23.5-.5.5h-6v5c0 .55-.45 1-1 1 -.56 0-1-.45-1-1v-5H6.5v5c0 .55-.45 1-1 1 -.56 0-1-.45-1-1v-12c0-.56.44-1 1-1 .55 0 1 .44 1 1v5h3.75V10H8V6.5C8 5.11 6.88 4 5.5 4Z"/></svg>