<svg viewBox="0 0 24 24" xmlns="http://www.w3.org/2000/svg"><path fill="currentColor" d="M13.75 2c-.7 0-1.25.55-1.25 1.25v2.5c0 .69.55 1.25 1.25 1.25h4C18.44 7 19 6.44 19 5.75v-2.5c0-.7-.56-1.25-1.25-1.25h-4Zm2.53 6.71c-.3-.3-.77-.3-1.07 0l-2.5 2.5c-.3.29-.3.76 0 1.06 .29.29.76.29 1.06 0l1.21-1.22v6.68c0 .41.33.75.75.75 .41 0 .75-.34.75-.75v-6.69l1.21 1.21c.29.29.76.29 1.06 0 .29-.3.29-.77 0-1.07l-2.5-2.51ZM6.24 13.49c-.7 0-1.25.55-1.25 1.25v2.5c0 .69.55 1.25 1.25 1.25h4c.69 0 1.25-.56 1.25-1.25v-2.5c0-.7-.56-1.25-1.25-1.25h-4Zm-2.75 3.25c0-.42-.34-.75-.75-.75 -.42 0-.75.33-.75.75v2c0 1.51 1.23 2.75 2.75 2.75h14.5c1.51 0 2.75-1.24 2.75-2.75v-2c0-.42-.34-.75-.75-.75 -.42 0-.75.33-.75.75v2c0 .69-.56 1.25-1.25 1.25H4.74c-.7 0-1.25-.56-1.25-1.25v-2Z"/></svg>