<svg viewBox="0 0 24 24" xmlns="http://www.w3.org/2000/svg"><g fill="currentColor"><path d="M12.74 2.65c-.44-.35-1.06-.35-1.49 0L7.28 5.78c-.97.76-.85 2.09-.07 2.77L5.45 9.99c-1.16.95-.69 2.72.61 3.11l-1.91 1.78c-1.19 1.1-.4 3.09 1.22 3.09h4.2v2.1c0 .82.67 1.5 1.5 1.5h1.8c.82 0 1.5-.68 1.5-1.5v-2.1h4.2c1.62 0 2.4-1.99 1.22-3.1l-1.91-1.79c1.3-.39 1.77-2.17.61-3.12l-1.76-1.45c.77-.69.89-2.02-.07-2.78l-3.97-3.14Zm-1.95 15.34h2.4v2.1c0 .16-.14.3-.3.3h-1.8c-.17 0-.3-.14-.3-.3v-2.1Z"/><path fill="currentColor" fill-rule="evenodd" d="M11.22 2.61c.45-.36 1.09-.36 1.54-.01l3.96 3.13c.97.76.87 2.1.11 2.81l1.71 1.41c1.16.96.72 2.73-.56 3.17l1.84 1.72c1.21 1.13.41 3.18-1.26 3.18H14.4v2.05c0 .85-.7 1.55-1.55 1.55h-1.8c-.86 0-1.56-.7-1.56-1.55v-2.05H5.33c-1.67 0-2.48-2.04-1.26-3.18l1.84-1.73c-1.28-.45-1.72-2.22-.55-3.18l1.71-1.42c-.76-.72-.87-2.05.11-2.82l3.96-3.14Zm1.48.07c-.42-.33-1.01-.33-1.43 0L7.3 5.81c-.94.74-.83 2.03-.07 2.69 .01 0 .01.02.01.03 -.01.01-.01.02-.02.03L5.46 10c-1.13.92-.67 2.65.59 3.02 .01 0 .03.01.03.03 0 .01-.01.03-.02.04l-1.91 1.78c-1.15 1.07-.39 3 1.18 3h4.2c.02 0 .05.02.05.05v2.1c0 .8.64 1.45 1.45 1.45h1.8c.8 0 1.45-.65 1.45-1.45v-2.1c0-.03.02-.05.05-.05h4.2c1.57 0 2.33-1.94 1.18-3.01l-1.91-1.79c-.02-.02-.02-.04-.02-.05 0-.02.01-.04.03-.04 1.26-.38 1.72-2.11.59-3.03L16.64 8.5c-.02-.01-.02-.03-.02-.04 -.01-.02 0-.03.01-.04 .75-.67.87-1.97-.07-2.71l-3.97-3.14Zm-1.97 15.3c0-.03.02-.05.05-.05h2.4c.02 0 .05.02.05.05v2.1c0 .19-.16.35-.35.35h-1.8c-.2 0-.35-.16-.35-.35v-2.1Zm.1.05v2.05c0 .13.11.25.25.25h1.8c.13 0 .25-.12.25-.25v-2.05h-2.3Z"/></g></svg>