<svg viewBox="0 0 24 24" xmlns="http://www.w3.org/2000/svg"><path fill="currentColor" d="M22.8 6.59c0 2.98-2.42 5.4-5.4 5.4 -2.99 0-5.4-2.42-5.4-5.41s2.41-5.4 5.4-5.4c2.98 0 5.4 2.41 5.4 5.4Zm-2.58.42l0-.01c.05-.06.09-.13.12-.2 .02-.07.04-.15.04-.23v-.01 -.01c-.01-.09-.02-.16-.05-.23 -.03-.08-.08-.14-.14-.2l-2.4-2.4c-.24-.24-.62-.24-.85 0 -.24.23-.24.61 0 .84l1.37 1.37h-3.36c-.34 0-.6.26-.6.6 0 .33.26.6.6.6h3.35L16.92 8.5c-.24.23-.24.61 0 .84 .23.23.61.23.84 0l2.39-2.4Zm-2.83 6.17c1.59 0 3.05-.57 4.2-1.51v3.9c0 1.32-1.08 2.4-2.4 2.4H4.79c-1.33 0-2.4-1.08-2.4-2.4V7.16c0-1.33 1.07-2.4 2.4-2.4h6.24c-.17.57-.25 1.17-.25 1.8 0 3.64 2.95 6.6 6.6 6.6Zm-10.8 6c-.34 0-.6.26-.6.6 0 .33.26.6.6.6h10.8c.33 0 .6-.27.6-.6 0-.34-.27-.6-.6-.6H6.59Z"/></svg>