<svg viewBox="0 0 24 24" xmlns="http://www.w3.org/2000/svg"><path fill="currentColor" d="M4.75 3C3.23 3 2 4.23 2 5.75v8.5C2 15.76 3.23 17 4.75 17h9.75v-3c0-.82.39-1.55 1-2.01v-1c0-1.39 1.11-2.5 2.5-2.5h3c.35 0 .69.07 1 .2V5.73c0-1.52-1.24-2.75-2.75-2.75H4.75Zm1 15.5h9c.04.09.09.18.15.27l.8 1.22H5.74c-.42 0-.75-.34-.75-.75 0-.42.33-.75.75-.75ZM17.5 20l-1.34-2.05c-.11-.17-.17-.36-.17-.55v-3.41c0-.56.44-1 1-1v-2c0-.56.44-1 1-1h3c.55 0 1 .44 1 1v2c.55 0 1 .44 1 1v3.44c0 .19-.06.38-.17.55l-1.34 2v2c0 .55-.45 1-1 1h-2c-.56 0-1-.45-1-1v-2Zm1-8.5V13h2v-1.5h-2Z"/></svg>