<svg viewBox="0 0 24 24" xmlns="http://www.w3.org/2000/svg"><path fill="currentColor" d="M10.24 10.91c.47-.4 1.07-.74 1.75-.74 .67 0 1.27.33 1.75.73 .23.19.41.39.53.53 .06.07.1.13.13.17l.03.05c.13.2.37.32.62.32 .24 0 .48-.13.62-.33 .02-.04.11-.15.17-.23 .12-.15.3-.35.53-.54 .47-.4 1.07-.74 1.75-.74 .67 0 1.27.33 1.75.73 .23.19.41.39.53.53l.17.22c.18.27.52.39.84.29 .31-.1.53-.39.53-.72 0-4.68-4.05-9.25-10-9.25 -5.96 0-10 4.57-10 9.25 0 .32.21.62.53.71 .31.09.65-.03.84-.3l.17-.23c.12-.15.3-.35.53-.54 .47-.4 1.07-.74 1.75-.74 .67 0 1.27.33 1.75.73 .23.19.41.39.53.53 .06.07.14.18.17.22 .13.2.37.32.62.32 .24 0 .48-.13.62-.33l.03-.06c.02-.04.07-.1.13-.18 .12-.15.3-.35.53-.54Zm1.75.26c-.24 0-.49.08-.75.23v7.58c0 .82-.68 1.5-1.5 1.5 -.83 0-1.5-.68-1.5-1.5v-.25c0-.42-.34-.75-.75-.75 -.42 0-.75.33-.75.75v.25c0 1.65 1.34 3 3 3 1.65 0 3-1.35 3-3v-7.59c-.27-.16-.52-.24-.75-.24Z"/></svg>