<svg viewBox="0 0 24 24" xmlns="http://www.w3.org/2000/svg"><path fill="currentColor" d="M16.61 8.79l.09-.09 1.79-1.8 1.79 1.79c.36.36.92.38 1.32.08l.09-.09c.36-.37.38-.93.08-1.33l-.09-.1 -1.8-1.8 1.79-1.8c.36-.37.38-.93.08-1.33l-.09-.1c-.37-.37-.93-.39-1.32-.09l-.1.08L18.44 4l-1.8-1.8c-.37-.37-.93-.39-1.32-.09l-.1.08c-.37.36-.39.92-.09 1.32l.08.09L17 5.39l-1.8 1.79c-.37.36-.39.92-.09 1.32l.08.09c.33.33.83.38 1.21.15l.1-.07Zm1.88 12.2c1.38 0 2.5-1.12 2.5-2.5v-5c0-1.39-1.12-2.5-2.5-2.5h-5.5v-5.5c0-1.39-1.12-2.5-2.5-2.5h-5c-1.39 0-2.5 1.11-2.5 2.5v13c0 1.38 1.11 2.5 2.5 2.5h13Zm-13.5-10v-5.5c0-.28.22-.5.5-.5h5c.27 0 .5.22.5.5v5.5h-6Zm6 8h-5.5c-.28 0-.5-.23-.5-.5v-5.5h6v6Zm7.5 0h-5.5v-6h5.5c.27 0 .5.22.5.5v5c0 .27-.23.5-.5.5Z"/></svg>