<svg viewBox="0 0 24 24" xmlns="http://www.w3.org/2000/svg"><path fill="currentColor" d="M14 13.5c.82 0 1.5-.68 1.5-1.5 0-.83-.68-1.5-1.5-1.5 -.83 0-1.5.67-1.5 1.5 0 .82.67 1.5 1.5 1.5ZM2 7.75C2 5.67 3.67 4 5.75 4h12.5C20.32 4 22 5.67 22 7.75v8.5c0 2.07-1.68 3.75-3.75 3.75H5.75C3.67 20 2 18.32 2 16.25v-8.5ZM5.75 7c-.42 0-.75.33-.75.75v8.5c0 .41.33.75.75.75 .41 0 .75-.34.75-.75v-8.5c0-.42-.34-.75-.75-.75Zm5.53 1.21c-.3-.3-.77-.3-1.07 0 -.3.29-.3.76 0 1.06l1.19 1.19c-.27.44-.42.96-.42 1.52 0 .55.15 1.07.41 1.52l-1.2 1.19c-.3.29-.3.76 0 1.06 .29.29.76.29 1.06 0l1.19-1.2c.44.26.96.41 1.52.41 .55 0 1.07-.16 1.52-.42l1.19 1.19c.29.29.76.29 1.06 0 .29-.3.29-.77 0-1.07l-1.2-1.2c.26-.45.41-.97.41-1.53s-.16-1.08-.42-1.53l1.19-1.2c.29-.3.29-.77 0-1.07 -.3-.3-.77-.3-1.07 0l-1.2 1.19c-.45-.27-.97-.42-1.53-.42s-1.08.15-1.53.41l-1.2-1.2Z"/></svg>