<svg viewBox="0 0 24 24" xmlns="http://www.w3.org/2000/svg"><path fill="currentColor" d="M3 5.25C3 4 4 3 5.25 3h13.5C19.99 3 21 4 21 5.25v13.5c0 .41-.34.75-.75.75h-1v-8.25c0-.11-.02-.22-.04-.33l-.74-3.33c-.31-1.38-1.53-2.35-2.93-2.35h-7.1c-1.41 0-2.63.97-2.93 2.34l-.74 3.32c-.03.1-.04.21-.04.32v8.25h-1c-.42 0-.75-.34-.75-.75V5.22ZM8.45 6c-1.06 0-1.97.73-2.2 1.76l-.74 3.32c-.02.05-.02.1-.02.16v9c0 .96.78 1.75 1.75 1.75h1.5c.96 0 1.75-.79 1.75-1.75v-.75h3v.75c0 .96.78 1.75 1.75 1.75h1.5c.96 0 1.75-.79 1.75-1.75v-9c0-.06-.01-.11-.02-.17l-.74-3.33c-.23-1.03-1.15-1.77-2.2-1.77h-7.1Zm-.74 2.08c.07-.35.38-.59.73-.59h7.09c.35 0 .65.24.73.58l.53 2.41H7.15l.53-2.42Zm-.73 12.16v-.75h2v.75c0 .13-.12.25-.25.25h-1.5c-.14 0-.25-.12-.25-.25Zm10-.75v.75c0 .13-.12.25-.25.25h-1.5c-.14 0-.25-.12-.25-.25v-.75h2Zm-6.25-3h2.5c.41 0 .75.33.75.75 0 .41-.34.75-.75.75h-2.5c-.42 0-.75-.34-.75-.75 0-.42.33-.75.75-.75Zm-.75-2.5c0 .55-.45 1-1.01 1s-1-.45-1-1c0-.56.44-1 1-1 .55 0 1 .44 1 1Zm4.99 1c-.56 0-1-.45-1-1 0-.56.44-1 1-1 .55 0 1 .44 1 1 0 .55-.45 1-1 1Z"/></svg>