<svg viewBox="0 0 24 24" xmlns="http://www.w3.org/2000/svg"><path fill="currentColor" d="M8.75 2c-.42 0-.75.33-.75.75V5H5.75c-.42 0-.75.33-.75.75v4.76l-1.47.53c-.2.07-.36.22-.44.41 -.09.19-.08.41.01.6l2.33 5.01c.16-.06.34-.09.52-.09 .77-.02 1.46.49 1.69 1.23 0 0 0 .01 0 .02 .01.03.03.09.06.16 .06.15.17.34.3.52 .27.36.56.55.94.55 .37 0 .66-.19.94-.55 .13-.19.23-.38.3-.53 .03-.08.05-.14.06-.17 0-.02 0-.03 0-.03 .22-.74.9-1.24 1.66-1.24 .76-.01 1.44.49 1.67 1.22 0 0 0 .01 0 .02 .01.03.03.09.06.16 .06.15.17.34.3.52 .27.36.56.55.94.55 .37 0 .66-.19.94-.56 .13-.19.24-.38.3-.53 .03-.08.05-.14.06-.17 0-.02 0-.03 0-.03 .23-.75.92-1.25 1.7-1.23 .2 0 .4.04.59.11l2.46-5.04c.09-.2.1-.42.02-.62 -.09-.2-.25-.36-.45-.43l-1.67-.6V5.59c0-.42-.34-.75-.75-.75h-2.25V2.59c0-.42-.34-.75-.75-.75h-6.5Zm5.75 3h-5V3.5h5V5Zm3 1.5v3.41l-4.4-1.57c-.72-.26-1.5-.26-2.21 0l-4.4 1.6V6.47h11Zm1.22 12.06l-.01-.01c-.09-.33-.38-.55-.72-.56 -.34-.01-.64.21-.74.53l-.01 0 -.01 0c-.01.01-.02.03-.03.05 -.02.05-.06.13-.1.23 -.09.19-.23.46-.43.71 -.39.51-.94.95-1.75.95s-1.36-.44-1.75-.96c-.2-.26-.34-.52-.43-.72 -.05-.1-.08-.18-.1-.24 -.01-.03-.02-.05-.03-.06l-.01-.01c-.01-.01 0 0 0 0 -.1-.32-.39-.54-.72-.54 -.34 0-.63.21-.72.53l-.01 0 -.01 0c-.01.01-.02.03-.03.05 -.02.05-.06.13-.1.23 -.09.19-.23.46-.42.71 -.39.51-.94.94-1.75.94s-1.36-.44-1.75-.95c-.2-.26-.34-.52-.42-.72 -.05-.1-.08-.18-.1-.24 -.01-.03-.02-.05-.03-.06l-.01-.02c-.1-.32-.4-.54-.73-.54 -.34 0-.63.23-.72.55l-.01 0c-.01.01-.01.02-.02.05 -.02.05-.05.12-.09.22 -.09.19-.22.44-.42.69 -.39.49-1 .96-2.01.96 -.42 0-.75.33-.75.75 0 .41.33.75.75.75 1.57 0 2.58-.78 3.18-1.54 .02-.03.04-.06.06-.09 .01.02.03.05.05.07 .55.73 1.49 1.55 2.94 1.55 1.44 0 2.39-.82 2.94-1.56 .01-.03.03-.06.05-.08 .01.02.03.05.05.07 .55.73 1.49 1.54 2.94 1.54 1.44 0 2.39-.82 2.94-1.55 .01-.03.03-.05.05-.08 .02.02.04.05.06.08 .59.76 1.6 1.53 3.18 1.53 .41 0 .75-.34.75-.75 0-.42-.34-.75-.75-.75 -1.02 0-1.63-.48-2.01-.97 -.2-.26-.33-.51-.42-.7 -.05-.1-.07-.18-.09-.23 -.01-.03-.02-.05-.02-.06Z"/></svg>