<svg viewBox="0 0 24 24" xmlns="http://www.w3.org/2000/svg"><path fill="currentColor" d="M1.75 4.5c-.42 0-.75.33-.75.75v5.99c0 1.24 1 2.25 2.25 2.25h5c1.24 0 2.25-1.01 2.25-2.25v-6c0-.42-.34-.75-.75-.75H9.5V3.48C9.5 2.09 8.38.98 7 .98c-.46 0-.89.12-1.26.33 -.37-.22-.8-.34-1.25-.34C3.1.96 1.98 2.08 1.98 3.47v.99h-.25ZM7 4.5v-1c0-.35-.08-.68-.2-.99 .06-.02.13-.02.19-.02 .55 0 1 .44 1 1v1H6.98Zm-1.5-1v.99h-2v-1c0-.56.44-1.01 1-1.01 .55 0 .99.44.99 1ZM2 17.24v-3c.38.16.8.24 1.25.24h5c1.79 0 3.25-1.455 3.25-3.25v-6c0-.7-.41-1.31-1-1.59v-.17c0-.17-.02-.34-.04-.5h3.78c1.24 0 2.25 1 2.25 2.25v.75h1.55c.86 0 1.66.5 2.03 1.28l1.69 3.58c.14.3.21.63.21.96v5.41c0 1.24-1.01 2.25-2.25 2.25h-1.8c-.24 1.41-1.48 2.5-2.96 2.5 -1.49 0-2.73-1.09-2.96-2.5H9.91c-.24 1.41-1.48 2.5-2.96 2.5 -1.49 0-2.73-1.09-2.97-2.51 -1.15-.11-2.04-1.07-2.04-2.25Zm18.5-1.75h-1.25c-.42 0-.75.33-.75.75 0 .41.33.75.75.75h1.25v-1.5Zm-.32-4.51L18.72 7.9c-.13-.27-.39-.43-.68-.43h-1.56v3.5h3.68Zm-13.19 9.5c.82 0 1.5-.68 1.5-1.5 0-.83-.68-1.5-1.5-1.5 -.83 0-1.5.67-1.5 1.5 0 .82.67 1.5 1.5 1.5Zm9.5-1.5c0-.83-.68-1.5-1.5-1.5 -.83 0-1.5.67-1.5 1.5 0 .82.67 1.5 1.5 1.5 .82 0 1.5-.68 1.5-1.5Zm-13-15.5c0-.15.02-.28.08-.4l-.09.39Z"/></svg>