<svg viewBox="0 0 24 24" xmlns="http://www.w3.org/2000/svg"><path fill="currentColor" d="M16.25 3C18.32 3 20 4.67 20 6.75v9c0 1.77-1.24 3.26-2.9 3.651l2.46 1.17c.37.17.53.62.35.99 -.17.34-.56.5-.91.39l-.1-.04 -5.1-2.43h-3.67l-5.1 2.42c-.38.17-.83.01-1-.36 -.18-.38-.02-.83.35-1l2.46-1.18c-1.66-.39-2.89-1.88-2.89-3.66v-9c0-2.08 1.67-3.75 3.75-3.75h8.5ZM7.99 15c-.56 0-1 .44-1 1 0 .55.44 1 1 1 .55 0 1-.45 1-1 0-.56-.45-1-1-1Zm8 0c-.56 0-1 .44-1 1 0 .55.44 1 1 1 .55 0 1-.45 1-1 0-.56-.45-1-1-1Zm.25-10.5H7.73c-1.25 0-2.25 1-2.25 2.25l-.01 5.75h12.99l0-5.75c0-1.25-1.01-2.25-2.25-2.25Zm-3 1.5c.41 0 .75.33.75.75 0 .41-.34.75-.75.75h-2.5c-.42 0-.76-.34-.76-.75 0-.42.33-.75.75-.75h2.5Z"/></svg>