<svg viewBox="0 0 24 24" xmlns="http://www.w3.org/2000/svg"><g fill="currentColor" fill-rule="evenodd"><path d="M6.5 1C9.53 1 12 3.46 12 6.5 12 9.53 9.53 12 6.5 12 3.46 12 1 9.53 1 6.5 1 3.46 3.46 1 6.5 1Zm2 5.5h-2V3.99c0-.28-.23-.5-.5-.5 -.28 0-.5.22-.5.5v2.99 0c0 .27.22.5.5.5h2.5c.27 0 .5-.23.5-.5 0-.28-.23-.5-.5-.5Z"/><path d="M13 9.5v-4h-.08c-.09-.53-.23-1.03-.43-1.5h3.47c1.24 0 2.32.83 2.65 2.02l.95 3.49c1.36.16 2.42 1.32 2.42 2.73v2.25c0 .86-.4 1.63-1.03 2.14 -.2 1.61-1.564 2.85-3.23 2.85 -1.45 0-2.68-.95-3.1-2.25H9.8c-.43 1.3-1.65 2.25-3.1 2.25 -1.54 0-2.83-1.08-3.17-2.51 -.94-.44-1.59-1.39-1.59-2.5v-1.69c0-.48.12-.93.33-1.32 1.12.94 2.57 1.5 4.16 1.5 2.5 0 4.68-1.43 5.76-3.5h.73Zm4.17-3.08c-.15-.55-.65-.93-1.21-.93h-1.48v4h3.51l-.84-3.08Zm.57 8.07c-.97 0-1.75.78-1.75 1.75 0 .96.78 1.75 1.75 1.75 .96 0 1.75-.79 1.75-1.75 0-.97-.79-1.75-1.75-1.75Zm-9.25 1.75c0-.97-.79-1.75-1.75-1.75 -.97 0-1.75.78-1.75 1.75 0 .96.78 1.75 1.75 1.75 .96 0 1.75-.79 1.75-1.75Z"/></g></svg>