<svg viewBox="0 0 24 24" xmlns="http://www.w3.org/2000/svg"><path fill="currentColor" d="M15.97 4c1.24 0 2.32.83 2.65 2.02l.95 3.49c1.36.16 2.42 1.32 2.42 2.73v2.25c0 .86-.4 1.63-1.03 2.14 -.2 1.61-1.564 2.85-3.23 2.85 -1.45 0-2.68-.95-3.1-2.25H9.81c-.43 1.3-1.65 2.25-3.1 2.25 -1.54 0-2.83-1.08-3.17-2.51 -.94-.44-1.59-1.39-1.59-2.5v-1.69c0-1.27.85-2.362 2.08-2.67l2.18-.55 2.5-4.25c.49-.84 1.39-1.36 2.36-1.36h4.83Zm1.2 2.42c-.15-.55-.65-.93-1.21-.93h-1.48v4h3.51l-.84-3.08Zm-4.18 3.07v-4h-1.86c-.45 0-.86.23-1.08.61l-2 3.38h4.93Zm4.75 5c-.97 0-1.75.78-1.75 1.75 0 .96.78 1.75 1.75 1.75 .96 0 1.75-.79 1.75-1.75 0-.97-.79-1.75-1.75-1.75Zm-9.25 1.75c0-.97-.79-1.75-1.75-1.75 -.97 0-1.75.78-1.75 1.75 0 .96.78 1.75 1.75 1.75 .96 0 1.75-.79 1.75-1.75Z"/></svg>