<svg viewBox="0 0 24 24" xmlns="http://www.w3.org/2000/svg"><path fill="currentColor" d="M22 5.25C22 4 20.99 3 19.75 3h-10C8.5 3 7.5 4 7.5 5.25V6H5.94c-.87 0-1.67.5-2.04 1.28l-1.7 3.58c-.15.3-.22.63-.22.96v5.41c0 1.24 1 2.25 2.25 2.25h1.79c.23 1.41 1.47 2.5 2.95 2.5 1.48 0 2.72-1.09 2.95-2.5H14c.23 1.41 1.47 2.5 2.95 2.5 1.48 0 2.72-1.09 2.96-2.51 1.14-.11 2.03-1.07 2.03-2.25v-12ZM3.5 15.5h1.25c.41 0 .75.33.75.75 0 .41-.34.75-.75.75H3.49v-1.5Zm.31-4.51l1.45-3.08c.12-.27.38-.43.67-.43h1.55v3.5H3.79Zm13.18 9.5c-.83 0-1.5-.68-1.5-1.5 0-.83.67-1.5 1.5-1.5 .82 0 1.5.67 1.5 1.5 0 .82-.68 1.5-1.5 1.5Zm-9.5-1.5c0-.83.67-1.5 1.5-1.5 .82 0 1.5.67 1.5 1.5 0 .82-.68 1.5-1.5 1.5 -.83 0-1.5-.68-1.5-1.5Z"/></svg>