<svg viewBox="0 0 24 24" xmlns="http://www.w3.org/2000/svg"><path fill="currentColor" d="M12.34 2.29c-.2-.26-.54-.36-.84-.26 -.31.1-.51.38-.51.71v4.5c0 .41.33.75.75.75 .41 0 .75-.34.75-.75v-2.3l1.15 1.5c.23.3.67.38 1 .17l1.71-1.1 -.83 2.48c-.08.22-.04.48.1.67 .14.19.36.31.6.31h3.18l-1.22 1.21c-.26.25-.3.66-.08.96l1.65 2.314H18.2c-.42 0-.75.33-.75.75 0 .41.33.75.75.75h3c.28 0 .53-.16.66-.41 .12-.25.1-.56-.06-.78l-2.14-2.99 2.05-2.06c.21-.22.27-.54.16-.82 -.12-.29-.39-.47-.7-.47h-3.96l1.17-3.52c.1-.31-.01-.64-.26-.83 -.26-.2-.6-.22-.87-.04l-2.93 1.87 -2.08-2.71ZM2.85 13.74h-.12c-.42 0-.75-.34-.75-.75 0-.42.33-.75.75-.75h.76l.26-1.42c.19-1.07 1.12-1.84 2.21-1.84h6.08c1.03 0 1.93.7 2.18 1.7l.38 1.54h.6c.41 0 .75.33.75.75 0 .41-.34.75-.75.75h-.12c.53.5.86 1.21.86 2v4.74c0 .82-.68 1.5-1.5 1.5 -.83 0-1.5-.68-1.5-1.5v-.5h-8v.49c0 .82-.68 1.5-1.5 1.5 -.83 0-1.5-.68-1.5-1.5V15.7c0-.79.33-1.5.86-2Zm2.39-2.64l-.36 1.88h8.34c0-.05 0-.09 0-.12l-.46-1.82c-.09-.34-.39-.57-.73-.57H5.94c-.37 0-.68.25-.74.61Zm7.74 5.38c0-.56-.45-1-1-1 -.56 0-1 .44-1 1 0 .55.44 1 1 1 .55 0 1-.45 1-1Zm-7 1c.55 0 1-.45 1-1 0-.56-.45-1-1-1 -.56 0-1 .44-1 1 0 .55.44 1 1 1Z"/></svg>