<svg viewBox="0 0 24 24" xmlns="http://www.w3.org/2000/svg"><path fill="currentColor" d="M9.26 1.99c-.42 0-.75.33-.75.75v1.75h-.67c-1.43 0-2.7.93-3.11 2.3l-.07.19h-.94c-.42 0-.75.33-.75.75 0 .41.33.75.75.75h.53l-.21.82c-.65.39-1.09 1.1-1.09 1.92v8.5c0 .96.78 1.75 1.75 1.75h1.5c.96 0 1.75-.79 1.75-1.75v-1.25h8v1.25c0 .96.78 1.75 1.75 1.75h1.5c.96 0 1.75-.79 1.75-1.75v-8.5c0-.82-.44-1.53-1.09-1.93l-.21-.83h.53c.41 0 .75-.34.75-.75 0-.42-.34-.75-.75-.75h-.95l-.06-.19c-.42-1.38-1.68-2.32-3.12-2.32h-.66V2.69c0-.42-.34-.75-.75-.75H9.17Zm-1.42 4h8.28c.77 0 1.45.5 1.67 1.24l.21.7 .26 1.05H5.67l.25-1.06 .21-.71c.22-.74.9-1.24 1.67-1.24Zm-3.36 12.5h2v1.25c0 .13-.12.25-.25.25h-1.5c-.14 0-.25-.12-.25-.25v-1.25Zm13 0h2v1.25c0 .13-.12.25-.25.25h-1.5c-.14 0-.25-.12-.25-.25v-1.25Zm-9.5-5.5c0 .55-.45 1-1 1 -.56 0-1-.45-1-1 0-.56.44-1 1-1 .55 0 1 .44 1 1Zm8.99 1c-.56 0-1-.45-1-1 0-.56.44-1 1-1 .55 0 1 .44 1 1 0 .55-.45 1-1 1Z"/></svg>