<svg viewBox="0 0 24 24" xmlns="http://www.w3.org/2000/svg"><path fill="currentColor" d="M17.25 2c0-.56.44-1 1-1H22c.55 0 1 .44 1 1v5c0 .55-.45 1-1 1h-1v14.25c0 .41-.34.75-.75.75 -.42 0-.75-.34-.75-.75V8h-1.25c-.56 0-1-.45-1-1V2Zm-1.46 1c.15 0 .3.01.45.03v1.52c-.15-.04-.3-.06-.46-.06h-7.6c-.81 0-1.51.54-1.7 1.32l-.8 3.17h12.78v9.5h-1.01l0 1.24c0 .13.11.25.25.25h.75v1.5h-.75c-.97 0-1.75-.79-1.75-1.75l-.01-1.25h-8l0 1.24c0 .96-.79 1.75-1.75 1.75H4.68c-.97 0-1.75-.79-1.75-1.75v-8.5c0-.82.43-1.53 1.08-1.93l.2-.83h-.54c-.38 0-.7-.29-.75-.65l-.01-.11c0-.38.28-.7.64-.75l.1-.01h.91l.38-1.54C5.3 3.94 6.6 2.92 8.09 2.92h7.59Zm-9.3 15.5H4.48l0 1.24c0 .13.11.25.25.25h1.5c.13 0 .25-.12.25-.25l-.01-1.25Zm7.24-4.5h-3.51l-.11 0c-.37.04-.65.36-.65.74 0 .37.28.69.64.74l.1 0h3.5l.1-.01c.36-.05.64-.37.64-.75 0-.42-.34-.75-.75-.75Zm3.24-2c-.56 0-1 .44-1 1 0 .55.44.99 1 .99 .55 0 .99-.45.99-1 0-.56-.45-1-1-1ZM6.96 12c-.56 0-1 .44-1 1 0 .55.44.99.99.99s.99-.45.99-1c0-.56-.45-1-1-1Z"/></svg>