<svg viewBox="0 0 24 24" xmlns="http://www.w3.org/2000/svg"><path fill="currentColor" d="M8.02 4c-1.25 0-2.33.83-2.66 2.02L4.4 9.51c-1.37.16-2.43 1.32-2.43 2.73v2.25c0 .86.39 1.63 1.02 2.14 .19 1.61 1.56 2.85 3.22 2.85 1.44 0 2.67-.95 3.09-2.25h4.81c.42 1.3 1.64 2.25 3.09 2.25 1.53 0 2.82-1.08 3.16-2.51 .93-.44 1.58-1.39 1.58-2.5v-1.69c0-1.27-.86-2.362-2.09-2.67l-2.19-.55 -2.51-4.25c-.5-.84-1.4-1.36-2.37-1.36H7.94ZM6.81 6.42c.14-.55.64-.93 1.2-.93h1.47v4H5.96l.83-3.08Zm4.17 3.07v-4h1.85c.44 0 .85.23 1.07.61l1.99 3.38h-4.94Zm-4.75 5c.96 0 1.75.78 1.75 1.75 0 .96-.79 1.75-1.75 1.75 -.97 0-1.75-.79-1.75-1.75 0-.97.78-1.75 1.75-1.75Zm9.25 1.75c0-.97.78-1.75 1.75-1.75 .96 0 1.75.78 1.75 1.75 0 .96-.79 1.75-1.75 1.75 -.97 0-1.75-.79-1.75-1.75Z"/></svg>