<svg viewBox="0 0 24 24" xmlns="http://www.w3.org/2000/svg"><path fill="currentColor" d="M13 2c-.56 0-1 .44-1 1 0 .55.44 1 1 1h1.18l.625 3h-5.82V6c0-.56-.45-1-1.01-1h-3c-.56 0-1 .44-1 1 0 .55.44 1 1 1h2v.85L6.06 11c-2.3.2-4.1 2.13-4.1 4.48 0 2.48 2.01 4.5 4.5 4.5 2.48 0 4.5-2.02 4.5-4.5 0-.05-.01-.09-.01-.13l4.47-5.22 .25 1.2c-1.61.68-2.73 2.28-2.73 4.13 0 2.48 2.01 4.5 4.5 4.5 2.48 0 4.5-2.02 4.5-4.5 0-2.43-1.92-4.4-4.32-4.5l-1.71-8.21c-.1-.47-.51-.8-.98-.8h-2Zm3.14 11.39l.37 1.8c.11.54.64.88 1.18.77 .54-.12.88-.65.77-1.19l-.36-1.72c1.08.27 1.87 1.25 1.87 2.42 0 1.38-1.12 2.5-2.5 2.5 -1.39 0-2.5-1.12-2.5-2.5 0-.89.45-1.66 1.14-2.11Zm-5.84-.3c-.52-.82-1.3-1.47-2.21-1.82l.65-2.3h5.07l-3.52 4.1Zm-2.77.12c.37.17.7.44.95.77H7.3l.22-.78Zm-2.08-.01l-.43 1.5c-.09.3-.03.62.16.87 .18.25.48.39.79.39h2.94c-.24 1.14-1.25 2-2.45 2 -1.39 0-2.5-1.12-2.5-2.5 0-1.02.6-1.89 1.46-2.28Z"/></svg>