<svg viewBox="0 0 24 24" xmlns="http://www.w3.org/2000/svg"><path fill="currentColor" d="M1 8.57V4.42c0-.57.32-1.09.82-1.35l3.5-1.75c.42-.22.91-.22 1.34 0l3.49 1.74c.5.25.82.77.82 1.34v4.14c0 .56-.33 1.08-.83 1.34l-3.5 1.75c-.43.21-.92.21-1.35 0l-3.5-1.76c-.51-.26-.83-.78-.83-1.35Zm1.55-4.05c-.13.24-.03.54.22.67l2.72 1.36v2.94c0 .27.22.5.5.5 .27 0 .5-.23.5-.51V6.53l2.72-1.37c.24-.13.34-.43.22-.68 -.13-.25-.43-.35-.68-.23L5.97 5.63 3.19 4.24c-.25-.13-.55-.03-.68.22Zm8.99-1.53c.28.41.44.9.44 1.42v4.14c0 .94-.54 1.81-1.39 2.23l-3.5 1.75c-.71.35-1.54.35-2.24 0l-2.89-1.45v6.13c0 1.17.89 2.13 2.03 2.24 .23 1.42 1.47 2.5 2.96 2.5 1.48 0 2.72-1.09 2.95-2.5h2.08c.23 1.41 1.47 2.5 2.95 2.5 1.48 0 2.72-1.09 2.95-2.5h1.79c1.24 0 2.25-1.01 2.25-2.25v-5.42c0-.34-.08-.67-.22-.97L20 7.22c-.38-.79-1.17-1.29-2.04-1.29H16.4v-.75c0-1.25-1.01-2.25-2.25-2.25h-2.7Zm7.69 12.5h1.25v1.5h-1.25c-.42 0-.75-.34-.75-.75 0-.42.33-.75.75-.75Zm-.53-7.58l1.45 3.07h-3.69v-3.5h1.55c.28 0 .55.16.67.42ZM8.47 18.98c0 .82-.68 1.5-1.5 1.5 -.83 0-1.5-.68-1.5-1.5 0-.83.67-1.5 1.5-1.5 .82 0 1.5.67 1.5 1.5Zm6.5-1.5c.82 0 1.5.67 1.5 1.5 0 .82-.68 1.5-1.5 1.5 -.83 0-1.5-.68-1.5-1.5 0-.83.67-1.5 1.5-1.5Z"/></svg>