<svg viewBox="0 0 24 24" xmlns="http://www.w3.org/2000/svg"><path fill="currentColor" d="M2 5.25C2 4 3 3 4.25 3h10c1.24 0 2.25 1 2.25 2.25V6h1.55c.86 0 1.66.5 2.03 1.28l1.69 3.58c.14.3.21.63.21.96v5.41c0 1.24-1.01 2.25-2.25 2.25h-1.8c-.24 1.41-1.48 2.5-2.96 2.5 -1.49 0-2.73-1.09-2.96-2.5H9.92c-.24 1.41-1.48 2.5-2.96 2.5 -1.49 0-2.73-1.09-2.97-2.51 -1.15-.11-2.04-1.07-2.04-2.25v-12ZM20.5 15.5h-1.25c-.42 0-.75.33-.75.75 0 .41.33.75.75.75h1.25v-1.5Zm-.32-4.51l-1.46-3.08c-.13-.27-.39-.43-.68-.43h-1.56v3.5h3.68Zm-13.19 9.5c.82 0 1.5-.68 1.5-1.5 0-.83-.68-1.5-1.5-1.5 -.83 0-1.5.67-1.5 1.5 0 .82.67 1.5 1.5 1.5Zm9.5-1.5c0-.83-.68-1.5-1.5-1.5 -.83 0-1.5.67-1.5 1.5 0 .82.67 1.5 1.5 1.5 .82 0 1.5-.68 1.5-1.5Z"/></svg>