<svg viewBox="0 0 24 24" xmlns="http://www.w3.org/2000/svg"><path fill="currentColor" d="M21.14 3c.41-.06.78.23.84.64 .05.41-.24.78-.65.84l-6.86.92v1.83c0 .64-.19 1.24-.52 1.75h2.76c1.79 0 3.25 1.45 3.25 3.25v3.25H3.95v-3.25c0-1.8 1.45-3.26 3.25-3.26h4c.96-.01 1.74-.79 1.74-1.75V5.59L2.79 6.96c-.42.05-.79-.24-.85-.65 -.06-.42.23-.79.64-.85l10.35-1.4V3.7c0-.42.33-.75.75-.75 .41 0 .75.33.75.75v.15l6.64-.9Zm-1.15 13.99v1.75c0 1.24-1.01 2.25-2.25 2.25H6.23c-1.25 0-2.25-1.01-2.25-2.25v-1.75h16Z"/></svg>