<svg viewBox="0 0 24 24" xmlns="http://www.w3.org/2000/svg"><path fill="currentColor" d="M6.5 1C9.53 1 12 3.46 12 6.5 12 9.53 9.53 12 6.5 12 3.46 12 1 9.53 1 6.5 1 3.46 3.46 1 6.5 1Zm2 5.5h-2V3.99c0-.28-.23-.5-.5-.5 -.28 0-.5.22-.5.5v2.99 0c0 .27.22.5.5.5h2.5c.27 0 .5-.23.5-.5 0-.28-.23-.5-.5-.5Zm-2 6.49c1.74 0 3.33-.69 4.5-1.81v.8h4.93l-2-3.39c-.23-.39-.64-.62-1.08-.62h-.04c.11-.49.17-.99.17-1.5 .91.04 1.75.55 2.22 1.34l2.5 4.24 2.18.54c1.22.3 2.08 1.4 2.08 2.66v1.68c0 1.1-.65 2.05-1.59 2.49 -.34 1.43-1.63 2.5-3.17 2.5 -1.45 0-2.68-.95-3.1-2.25H9.28c-.43 1.3-1.65 2.25-3.1 2.25 -1.67 0-3.04-1.25-3.23-2.86 -.63-.51-1.03-1.28-1.03-2.15v-2.25c0-1.09.62-2.02 1.53-2.47 .88.45 1.89.71 2.96.71Zm-.25 4c-.97 0-1.75.78-1.75 1.75 0 .96.78 1.75 1.75 1.75 .96 0 1.75-.79 1.75-1.75 0-.97-.79-1.75-1.75-1.75Zm9.25 1.75c0 .96.78 1.75 1.75 1.75 .96 0 1.75-.79 1.75-1.75 0-.97-.79-1.75-1.75-1.75 -.97 0-1.75.78-1.75 1.75Z"/></svg>