<svg viewBox="0 0 24 24" xmlns="http://www.w3.org/2000/svg"><path fill="currentColor" d="M10.74 5c-.42 0-.75.33-.75.75 0 .41.33.75.74.75h2.5c.41 0 .75-.34.75-.75 0-.42-.34-.75-.75-.75h-2.5Zm-6.75.75C3.98 3.67 5.66 2 7.74 2h8.49c2.07 0 3.75 1.67 3.75 3.75V9.5h1.22c.41 0 .75.33.75.75 0 .41-.34.75-.75.75h-1.23v8.75c0 .96-.79 1.75-1.75 1.75h-1.5c-.97 0-1.75-.79-1.75-1.75V18.5h-6v1.25c0 .96-.79 1.75-1.75 1.75h-1.5c-.97 0-1.75-.79-1.75-1.75V11H2.71c-.42 0-.75-.34-.75-.75 0-.42.33-.75.75-.75h1.25V5.75ZM16.48 18.5v1.25c0 .13.11.25.25.25h1.5c.13 0 .25-.12.25-.25V18.5h-2Zm-11 0v1.25c0 .13.11.25.25.25h1.5c.13 0 .25-.12.25-.25V18.5h-2Zm2.25-15c-1.25 0-2.25 1-2.25 2.25V12h12.99V5.75c0-1.25-1.01-2.25-2.25-2.25h-8.5ZM8.98 15c0-.56-.45-1-1-1 -.56 0-1 .44-1 1 0 .55.44 1 1 1 .55 0 1-.45 1-1Zm6.99 1c.55 0 1-.45 1-1 0-.56-.45-1-1-1 -.56 0-1 .44-1 1 0 .55.44 1 1 1Z"/></svg>