<svg viewBox="0 0 24 24" xmlns="http://www.w3.org/2000/svg"><path fill="currentColor" d="M15.79 3c1.49 0 2.79 1.01 3.15 2.45l.38 1.54h.91c.37 0 .69.28.74.64l0 .1c0 .37-.29.69-.65.74l-.11 0h-.54l.2.82c.64.39 1.08 1.1 1.08 1.92v8.49c0 .96-.79 1.75-1.75 1.75h-1.51c-.97 0-1.75-.79-1.75-1.75l-.01-1.25h-8l0 1.24c0 .96-.79 1.75-1.75 1.75H4.67c-.97 0-1.75-.79-1.75-1.75v-8.5c0-.82.43-1.53 1.08-1.93l.2-.83h-.54c-.38 0-.7-.29-.75-.65l-.01-.11c0-.38.28-.7.64-.75l.1-.01h.91l.38-1.54C5.29 3.92 6.59 2.9 8.08 2.9h7.59Zm-9.3 15.5H4.48l0 1.24c0 .13.11.25.25.25h1.5c.13 0 .25-.12.25-.25l-.01-1.25Zm13 0h-2.01l0 1.24c0 .13.11.25.25.25h1.5c.13 0 .25-.12.25-.25l-.01-1.25ZM13.73 14h-3.51l-.11 0c-.37.04-.65.36-.65.74 0 .37.28.69.64.74l.1 0h3.5l.1-.01c.36-.05.64-.37.64-.75 0-.42-.34-.75-.75-.75Zm3.24-2c-.56 0-1 .44-1 1 0 .55.44.99 1 .99 .55 0 .99-.45.99-1 0-.56-.45-1-1-1ZM6.96 12c-.56 0-1 .44-1 1 0 .55.44.99.99.99s.99-.45.99-1c0-.56-.45-1-1-1Zm8.79-7.5h-7.6c-.81 0-1.51.54-1.7 1.32l-.8 3.17h12.58l-.8-3.18c-.2-.78-.9-1.33-1.7-1.33Z"/></svg>