<svg viewBox="0 0 24 24" xmlns="http://www.w3.org/2000/svg"><path fill="currentColor" d="M6 16.938v2.12l-.95.94H2.93l3.06-3.07Zm16-2.51v2.12l-3.442 3.44h-.57l0-1.56 4-4.01Zm-13.26-.44h6.49c.91 0 1.67.7 1.74 1.6l0 .14v4.25h-10v-4.25c0-.92.7-1.68 1.6-1.75l.14-.01Zm-.73-3.59c.05.57.24 1.12.52 1.59l-6.55 6.54v-2.122L8 10.37Zm13.98-.49v2.12l-4.01 4.01 0-.32 -.01-.17c-.03-.46-.17-.88-.39-1.25l4.39-4.41ZM12.04 3.97L1.98 14.036V11.9L9.91 3.96h2.12Zm9.94 1.43v2.12l-5.67 5.66c-.27-.12-.56-.19-.86-.22l-.23-.01 -.6 0c.34-.31.63-.67.85-1.07l6.5-6.51ZM11.97 6.96c1.65 0 3 1.34 3 3 0 1.65-1.35 3-3 3 -1.66 0-3-1.35-3-3 0-1.66 1.34-3.01 3-3.01ZM7.52 3.95L1.96 9.51V7.39l3.43-3.44h2.12Zm13.49 0l-5.15 5.14c-.12-.54-.35-1.04-.66-1.48l3.67-3.68h2.122Zm-4.5 0l-2.55 2.54c-.48-.28-1.03-.47-1.6-.53l2.02-2.03h2.12Z"/></svg>