<svg viewBox="0 0 24 24" xmlns="http://www.w3.org/2000/svg"><path fill="currentColor" d="M16 16.25c0 1.79-1.46 3.25-3.25 3.25h-.48c.46-.9.73-1.92.73-3 0-2.03-.7-3.64-2.37-5.02 -1.17-.97-2.23-1.35-3.59-1.47 -.19-.02-.37-.03-.56-.03 -1.75 0-3.34.68-4.51 1.81V7.72c0-1.8 1.45-3.25 3.25-3.25h7.5c1.79 0 3.25 1.45 3.25 3.25v8.5Zm5.76-10.36c.15.18.23.41.23.64v10.91c0 .55-.45 1-1 1 -.24 0-.47-.09-.65-.24l-3.36-2.85V8.6l3.35-2.85c.42-.36 1.05-.31 1.4.11ZM9.99 12.25c-.84-.7-1.89-1.14-3.03-1.24 -.16-.02-.32-.02-.47-.02 -3.04 0-5.51 2.46-5.51 5.5 0 .96.24 1.87.68 2.66l-.67 2.18c-.12.38.24.74.62.62l2.18-.67c.78.43 1.69.68 2.66.68 3.03 0 5.5-2.47 5.5-5.51 0-1.71-.78-3.24-2.01-4.25Zm-5.5 3.74c-.28 0-.51-.23-.51-.51s.22-.51.5-.51h4c.27 0 .5.22.5.5 0 .27-.23.5-.51.5H4.46Zm2 2H4.48c-.28 0-.51-.23-.51-.51s.22-.51.5-.51h2c.27 0 .5.22.5.5 0 .27-.23.5-.51.5Z"/></svg>