<svg viewBox="0 0 24 24" xmlns="http://www.w3.org/2000/svg"><path fill="currentColor" d="M19.74 4c1.24 0 2.25 1 2.25 2.25v11.5c0 1.24-1.01 2.25-2.25 2.25H4.24c-1.25 0-2.25-1.01-2.25-2.25V6.24c0-1.25 1-2.25 2.25-2.25h15.49Zm0 1.5H4.24c-.42 0-.75.33-.75.75v11.5c0 .41.33.75.75.75l2.74-.01 0-2.76c0-.92.7-1.68 1.6-1.75l.14-.01h6.49c.91 0 1.67.7 1.74 1.6l0 .14 -.01 2.75 2.75 0c.41 0 .75-.34.75-.75V6.2c0-.42-.34-.75-.75-.75ZM11.99 7c1.65 0 3 1.34 3 3 0 1.65-1.35 3-3 3 -1.66 0-3-1.35-3-3 0-1.66 1.34-3.01 3-3.01Z"/></svg>