<svg viewBox="0 0 24 24" xmlns="http://www.w3.org/2000/svg"><path fill="currentColor" d="M12.6 4.79c1.65 0 3 1.34 3 3v8.4c0 1.45-1.04 2.66-2.4 2.94v-4.14c0-2.32-1.89-4.2-4.21-4.2h-4.8c-.65 0-1.26.14-1.8.4V7.78c0-1.66 1.34-3 3-3h7.2Zm4.2 9.69V9.49l3.32-2.78c.58-.49 1.47-.08 1.47.69v9.2c0 .76-.9 1.18-1.49.68l-3.32-2.83Zm-15.61.5c0-1.66 1.34-3 3-3h4.8c1.65 0 3 1.34 3 3v4.8c0 1.65-1.35 3-3.01 3h-4.8c-1.66 0-3-1.35-3-3v-4.8Zm4.82.04c-.1-.07-.2-.1-.32-.1 -.08 0-.16.01-.23.05 -.08.03-.14.07-.19.13 -.06.05-.1.11-.13.19 -.04.07-.05.15-.05.23v3.68c0 .08.01.15.04.23 .03.07.07.13.12.19 .05.05.11.09.18.13 .07.03.14.04.22.04 .05 0 .11-.01.16-.03 .05-.02.1-.05.15-.08l2.75-1.88c.08-.06.14-.13.19-.23 .04-.1.07-.2.07-.3 0-.11-.03-.21-.08-.3 -.05-.1-.12-.17-.21-.22l-2.76-1.81Z"/></svg>