<svg viewBox="0 0 24 24" xmlns="http://www.w3.org/2000/svg"><path fill="currentColor" d="M21.99 6.25C21.99 5 20.98 4 19.74 4H4.24C2.99 4 1.99 5 1.99 6.25v11.5c0 1.24 1 2.25 2.25 2.25h9.75c.03-.43.19-.85.47-1.21l.8-1.01c.41-.53 1.05-.83 1.7-.84l0-1.21 -.01-.15c-.08-.9-.83-1.61-1.75-1.61H8.7l-.15 0c-.9.07-1.61.82-1.61 1.74l-.01 2.75 -2.75 0c-.42 0-.75-.34-.75-.75V6.2c0-.42.33-.75.75-.75h15.49c.41 0 .75.33.75.75v3.77c.33-.06.68-.03 1.02.08l.43.14 .03.01V6.18Zm-7 3.75c0-1.66-1.35-3.01-3-3.01 -1.66 0-3 1.34-3 3 0 1.65 1.34 3 3 3 1.65 0 3-1.35 3-3Zm4.19 2.99l.47-1.21c.24-.62.92-.94 1.54-.73l.43.14c.72.23 1.32.8 1.34 1.56 .09 3.11-2.48 7.58-5.22 9.05 -.68.36-1.47.12-2.04-.4l-.34-.31c-.49-.45-.56-1.19-.15-1.71l.79-1.02c.29-.37.76-.54 1.22-.43l1.29.31c1.1-.73 1.69-1.76 1.77-3.08l-.92-.97c-.33-.34-.42-.84-.25-1.28Z"/></svg>