<svg viewBox="0 0 24 24" xmlns="http://www.w3.org/2000/svg"><g fill="currentColor"><path d="M3.42 2.57c-.24-.24-.62-.24-.85 0 -.24.23-.24.61 0 .84l1.42 1.42c-.91.19-1.6 1-1.6 1.99v10.32c0 1.25 1.12 2.21 2.36 2.01 .59-.1 1.19-.19 1.8-.26 3.85-.47 7.75-.44 11.6.09l2.4 2.4c.23.23.61.23.84 0 .23-.24.23-.62 0-.85l-18-18Zm13.36 15.06c-.4-.05-.8-.08-1.2-.11v-1.09l1.19 1.19Zm-2.4-2.4v2.2c-1.6-.09-3.21-.09-4.81 0v-3.06c0-.67.53-1.2 1.2-1.2h1.55l2.04 2.04Zm-9.61 2.7v-2.36c0-.67.53-1.2 1.2-1.2h2.4v3.13c-1.21.09-2.41.23-3.6.41Zm1.8-4.76c-.67 0-1.2-.54-1.2-1.2 0-.67.53-1.2 1.2-1.2 .66 0 1.2.53 1.2 1.2 0 .66-.54 1.2-1.2 1.2Zm10.34 1.19l-9.2-9.2c3.82.35 7.68.23 11.48-.39 1.23-.2 2.36.75 2.36 2.01V17.1c0 .53-.21 1-.53 1.36l-1.88-1.88v-1.06c0-.67-.54-1.2-1.2-1.2h-1.06Zm.45-1.2c.66 0 1.2-.54 1.2-1.2 0-.67-.54-1.2-1.2-1.2 -.67 0-1.2.53-1.2 1.2 0 .66.53 1.2 1.2 1.2Z"/><path fill="currentColor" fill-rule="evenodd" d="M2.54 2.54c.25-.26.66-.26.91 0l18 18c.25.25.25.66 0 .91 -.26.25-.67.25-.92 0l-2.4-2.4c-3.84-.53-7.73-.56-11.58-.1 -.61.07-1.21.15-1.8.25 -1.27.2-2.43-.78-2.43-2.07V6.8c0-.99.66-1.79 1.54-2.02L2.5 3.42c-.26-.26-.26-.67 0-.92Zm.84.07c-.22-.22-.57-.22-.78 0 -.22.21-.22.56 0 .77l1.48 1.48 -.09.01c-.88.19-1.56.97-1.56 1.94v10.32c0 1.22 1.09 2.15 2.3 1.96 .59-.1 1.2-.19 1.8-.26 3.85-.47 7.76-.44 11.61.09l.01 0 2.42 2.42c.21.21.56.21.77 0 .21-.22.21-.57 0-.78L3.33 2.55Zm18.16 4.22c0-1.23-1.1-2.16-2.31-1.97 -3.76.6-7.58.73-11.37.39l9.08 9.08h1.03c.69 0 1.25.55 1.25 1.25v1.03l1.82 1.82c.29-.35.47-.8.47-1.3V6.8Zm-2.33-2.07c1.26-.21 2.42.77 2.42 2.06v10.32c0 .54-.21 1.03-.54 1.39l-.04.03 -1.93-1.93v-1.08c0-.64-.52-1.15-1.15-1.15h-1.08L7.58 5.09l.13.01c3.82.35 7.67.23 11.47-.39ZM6.58 10.83c-.64 0-1.15.51-1.15 1.15 0 .63.51 1.15 1.15 1.15 .63 0 1.15-.52 1.15-1.15 0-.64-.52-1.15-1.15-1.15Zm-1.25 1.15c0-.7.55-1.25 1.25-1.25 .69 0 1.25.55 1.25 1.25 0 .69-.56 1.25-1.25 1.25 -.7 0-1.25-.56-1.25-1.25Zm10.8 0c0-.7.55-1.25 1.25-1.25 .69 0 1.25.55 1.25 1.25 0 .69-.56 1.25-1.25 1.25 -.7 0-1.25-.56-1.25-1.25Zm1.25-1.15c-.64 0-1.15.51-1.15 1.15 0 .63.51 1.15 1.15 1.15 .63 0 1.15-.52 1.15-1.15 0-.64-.52-1.15-1.15-1.15Zm-6.6 2.39c-.64 0-1.16.51-1.16 1.15v3c1.56-.08 3.13-.08 4.7 0v-2.14l-2.02-2.02h-1.54Zm-1.26 1.15c0-.7.55-1.25 1.25-1.25h1.57l2.07 2.07v2.28l-.06-.01c-1.6-.09-3.2-.09-4.8 0l-.06 0v-3.11Zm-3.55.05c-.64 0-1.15.51-1.15 1.15v2.29c1.16-.19 2.32-.32 3.5-.41v-3.04H5.97Zm-1.25 1.15c0-.7.55-1.25 1.25-1.25h2.45v3.23l-.05 0c-1.21.09-2.41.23-3.6.41l-.06 0v-2.42Zm10.8.72l1.37 1.37 -.14-.02c-.4-.05-.8-.08-1.2-.11l-.05-.01v-1.26Zm.1.24v.91c.33.02.673.05 1 .09l-1.01-1.01Z"/></g></svg>