<svg viewBox="0 0 24 24" xmlns="http://www.w3.org/2000/svg"><path fill="currentColor" d="M19.74 4c1.24 0 2.25 1 2.25 2.25v6.55c-.45-.43-.95-.79-1.5-1.08V6.24c0-.42-.34-.75-.75-.75H4.24c-.42 0-.75.33-.75.75v11.5c0 .41.33.75.75.75l2.74-.01 0-2.76c0-.92.7-1.68 1.6-1.75l.14-.01h3.27c-.65 1.01-1.03 2.21-1.03 3.5 0 .88.17 1.73.5 2.5H4.2c-1.25 0-2.25-1.01-2.25-2.25V6.2c0-1.25 1-2.25 2.25-2.25h15.49Zm-7.75 3c1.65 0 3 1.34 3 3 0 1.65-1.35 3-3 3 -1.66 0-3-1.35-3-3 0-1.66 1.34-3.01 3-3.01Zm11 10.49c0 3.03-2.47 5.5-5.5 5.5 -3.04 0-5.5-2.47-5.5-5.5 0-3.04 2.46-5.5 5.5-5.5 3.03 0 5.5 2.46 5.5 5.5Zm-4.95-3.08c-.18-.57-.94-.57-1.12 0l-.56 1.78h-1.81c-.57 0-.81.75-.35 1.1l1.45 1.1 -.56 1.78c-.18.56.44 1.02.89.68l1.45-1.11 1.45 1.1c.45.34 1.07-.12.89-.69l-.56-1.79 1.45-1.11c.45-.35.22-1.11-.35-1.11H18.5l-.56-1.79Z"/></svg>