<svg viewBox="0 0 24 24" xmlns="http://www.w3.org/2000/svg"><path fill="currentColor" d="M4.297 4h15.44c.29-.01.58.05.86.17 .27.11.52.27.73.48 .2.2.37.45.48.72 .11.27.17.56.17.86v11.5c0 .59-.24 1.16-.66 1.59 -.43.42-1 .65-1.6.65H4.21c-.6 0-1.17-.24-1.6-.66 -.43-.43-.66-1-.66-1.6V10.5c.06.07.13.14.21.19 .18.12.4.2.62.23 .22.02.45-.01.66-.09v6.86c0 .19.07.38.21.53 .14.14.33.21.53.21h2.74v-2.76c0-.44.16-.87.46-1.19 .29-.33.7-.53 1.14-.56l.14-.01h6.49c.43 0 .86.16 1.18.46 .32.29.52.7.55 1.14l0 .14v2.74h2.75c.19 0 .38-.08.53-.22 .14-.15.21-.34.21-.54V6.13c0-.2-.08-.39-.22-.54 -.15-.15-.34-.22-.54-.22H5.28l-.29-.1c-.14-.05-.26-.12-.35-.22 -.1-.1-.17-.22-.22-.35l-.28-.85Zm9.82 3.87c.56.56.87 1.32.87 2.12 0 .39-.08.78-.23 1.14 -.16.36-.38.69-.66.97 -.28.27-.61.49-.98.65 -.37.15-.76.22-1.15.22 -.4 0-.79-.08-1.15-.23 -.37-.16-.7-.38-.98-.65 -.28-.28-.5-.61-.66-.98 -.16-.37-.23-.76-.23-1.15 0-.8.31-1.56.87-2.13 .56-.57 1.32-.88 2.12-.88 .79 0 1.55.31 2.12.87Zm-11.77.96l.3.91c.02.07.07.13.133.17 .06.04.13.06.2.06s.14-.03.21-.07c.01-.02.03-.03.05-.05 .02-.04.05-.07.07-.11l0-.03 .3-.92c.09-.28.24-.54.45-.75 .2-.21.46-.37.74-.46l.91-.3c.07-.03.13-.08.17-.14 .04-.07.06-.14.06-.21 0-.08-.03-.15-.07-.21 -.05-.07-.11-.11-.18-.14h-.02l-.92-.3c-.28-.1-.54-.25-.75-.46 -.21-.21-.37-.47-.46-.75l-.3-.92c-.03-.08-.08-.14-.14-.18 -.07-.05-.14-.07-.21-.07 -.08 0-.15.02-.21.06 -.07.04-.11.1-.14.17l-.3.91 -.01.02c-.1.26-.25.51-.45.71 -.21.2-.46.36-.74.46l-.92.29c-.08.02-.14.07-.18.13 -.05.06-.07.13-.07.2s.02.14.06.2c.04.06.1.1.17.13l.91.29c.27.09.53.25.74.45 .05.05.1.11.15.17 .13.16.23.35.3.56Zm2.53 1.7l.53-.18c.16-.06.3-.15.42-.28 .05-.07.11-.13.15-.2 .04-.08.07-.15.1-.23l.17-.54c.01-.05.04-.08.07-.1 .01-.01.02-.02.04-.03 .02-.02.05-.02.07-.02 .04 0 .08.01.12.03 .01 0 .02.01.03.03 .01.02.03.04.04.07l.17.53c.05.16.14.31.26.43s.27.21.43.26l.53.17h.01c.01 0 .02.01.03.01 .02.01.04.03.06.05 .02.03.03.07.03.12 0 .04-.02.08-.04.12 -.03.03-.06.06-.1.07l-.54.17c-.17.05-.32.14-.44.26 -.13.12-.22.26-.27.43l-.18.53c-.02.04-.05.07-.08.09 -.04.02-.08.03-.13.03s-.09-.02-.13-.04c-.04-.03-.07-.06-.08-.1l-.18-.54c-.06-.17-.15-.32-.27-.44 -.13-.13-.27-.22-.44-.27l-.54-.18c-.05-.02-.08-.05-.1-.08 -.03-.04-.04-.08-.04-.13s.01-.09.03-.13c.02-.04.05-.07.1-.08Z"/></svg>