<svg viewBox="0 0 24 24" xmlns="http://www.w3.org/2000/svg"><path fill="currentColor" d="M11 17.5c0-3.08 2.13-5.65 5-6.33V8.24c0-1.8-1.46-3.25-3.25-3.25h-7.5C3.45 4.99 2 6.44 2 8.24v8.5c0 1.79 1.45 3.25 3.25 3.25h6.24c-.33-.77-.5-1.62-.5-2.5Zm6.5-6.5c1.74 0 3.33.68 4.5 1.8V7.03c0-.24-.09-.47-.24-.65 -.36-.43-.99-.48-1.41-.12L16.99 9.1v1.89c.16-.02.33-.02.5-.02Zm5.5 6.5c0 3.03-2.47 5.5-5.5 5.5 -3.04 0-5.5-2.47-5.5-5.5 0-3.04 2.46-5.5 5.5-5.5 3.03 0 5.5 2.46 5.5 5.5Zm-9.5 0c0 .83.25 1.6.69 2.24l5.55-5.56c-.65-.44-1.42-.7-2.25-.7 -2.21 0-4 1.79-4 4Zm4 4c2.2 0 4-1.8 4-4 0-.84-.26-1.61-.7-2.25l-5.56 5.55c.64.43 1.41.69 2.24.69Z"/></svg>