<svg viewBox="0 0 24 24" xmlns="http://www.w3.org/2000/svg"><path fill="currentColor" d="M2.21 2.21c.29-.3.76-.3 1.06 0l18.49 18.5c.29.29.29.76 0 1.06 -.3.29-.77.29-1.07 0l-1.79-1.79H4.21c-.6 0-1.17-.24-1.6-.66 -.43-.43-.66-1-.66-1.6v-6.21c.06.07.13.14.21.19 .18.12.4.2.62.23 .22.02.45-.01.66-.09v5.86c0 .19.07.38.21.53 .14.14.33.21.53.21h2.74v-2.76c0-.44.16-.87.46-1.19 .29-.33.7-.53 1.14-.56l.14-.01h4.18l-1-1c-.38-.01-.74-.09-1.09-.23 -.37-.16-.7-.38-.98-.65 -.28-.28-.5-.61-.66-.98 -.15-.35-.22-.72-.23-1.09L2.09 3.18c-.3-.3-.3-.77 0-1.07Zm12.4 9.22l-4.08-4.08c.43-.25.93-.38 1.44-.38 .79 0 1.55.31 2.12.87 .56.56.87 1.32.87 2.12 0 .39-.08.78-.23 1.14 -.05.1-.1.2-.15.29Zm5.86 5.86V6.22c0-.2-.08-.39-.22-.54 -.15-.15-.34-.22-.54-.22H8.64l-1.5-1.5H19.7c.29-.01.58.05.86.17 .27.11.52.27.73.48 .2.2.37.45.48.72 .11.27.17.56.17.86v11.5c0 .3-.07.6-.19.88l-1.33-1.33ZM2.63 10.73l-.3-.92c-.07-.21-.17-.4-.3-.57 -.05-.07-.11-.13-.16-.18 -.21-.21-.47-.37-.75-.46L.2 8.3c-.08-.03-.14-.08-.18-.14 -.05-.07-.07-.14-.07-.21 0-.08.02-.15.06-.21 .04-.07.1-.11.17-.14l.91-.3c.27-.1.52-.26.73-.47 .19-.21.34-.45.44-.72l0-.03 .3-.92c.02-.08.07-.14.13-.18 .06-.05.13-.07.21-.07 .07 0 .14.02.2.06 .06.04.1.1.13.17l.3.91c.09.27.24.53.45.74 .2.2.46.36.74.45l.91.29h.01c.07.02.13.07.17.13 .04.06.06.13.06.2s-.03.14-.07.2c-.05.06-.11.1-.18.13l-.92.29c-.28.09-.54.24-.75.45 -.21.2-.37.46-.46.74l-.3.91 -.01.02c-.02.03-.05.07-.07.1 -.02.01-.04.03-.06.04 -.07.04-.14.06-.21.06 -.08 0-.15-.03-.21-.07 -.07-.05-.11-.11-.133-.18Zm2.76.61l-.54.17c-.05.01-.08.04-.1.07 -.03.03-.04.07-.04.12 0 .04.01.08.03.12 .02.03.05.06.1.07l.53.17c.16.05.31.14.43.26s.21.27.26.43l.17.53c.01.04.04.07.07.09 .03.02.07.03.12.03 .04 0 .08-.02.12-.04 .03-.03.06-.06.07-.1l.17-.54c.05-.17.14-.32.26-.44 .12-.13.26-.22.43-.27l.53-.18c.04-.02.07-.05.1-.08 .02-.04.03-.08.03-.13s-.02-.09-.04-.13c-.02-.03-.04-.05-.07-.06 -.02-.01-.03-.02-.04-.02h-.02l-.54-.18c-.17-.06-.32-.15-.44-.27 -.13-.13-.22-.27-.27-.44l-.18-.54c-.01-.03-.03-.06-.05-.08 -.02-.02-.03-.03-.04-.04 -.04-.03-.08-.04-.13-.04 -.03-.01-.06 0-.08.01 -.02 0-.03.01-.05.02 -.04.02-.07.05-.08.1l-.18.53c-.03.07-.06.15-.1.22 -.05.07-.1.13-.16.19 -.13.12-.27.21-.43.27Z"/></svg>