<svg viewBox="0 0 24 24" xmlns="http://www.w3.org/2000/svg"><path fill="currentColor" d="M21.99 5.25C21.99 4 20.98 3 19.74 3H4.24C2.99 3 1.99 4 1.99 5.25v11.5c0 1.24 1 2.25 2.25 2.25h6.92c-.12-.49-.18-.99-.18-1.51 0-1.75.68-3.34 1.8-4.5H8.72l-.15 0c-.9.07-1.61.82-1.61 1.74l-.01 2.75 -2.75 0c-.42 0-.75-.34-.75-.75V5.22c0-.42.33-.75.75-.75h15.49c.41 0 .75.33.75.75v6.47c.55.28 1.05.64 1.5 1.07V5.2Zm-7 3.75c0-1.66-1.35-3-3-3 -1.66 0-3 1.34-3 3 0 1.65 1.34 3 3 3 1.65 0 3-1.35 3-3.01Zm2.5 2.99c3.03 0 5.5 2.46 5.5 5.5 0 3.03-2.47 5.5-5.5 5.5 -3.04 0-5.5-2.47-5.5-5.5 0-3.04 2.46-5.5 5.5-5.5Zm2 5.5h-2v-2.51c0-.28-.23-.5-.5-.5 -.28 0-.5.22-.5.5v2.99 0c0 .27.22.5.5.5h2.5c.27 0 .5-.23.5-.5 0-.28-.23-.5-.5-.5Z"/></svg>