<svg viewBox="0 0 24 24" xmlns="http://www.w3.org/2000/svg"><path fill="currentColor" d="M2.21 2.21c.29-.3.76-.3 1.06 0l18.49 18.5c.29.29.29.76 0 1.06 -.3.29-.77.29-1.07 0l-1.78-1.78H4.21c-1.25 0-2.25-1.01-2.25-2.25V6.23c0-.87.48-1.62 1.19-2l-.98-.98c-.3-.3-.3-.77 0-1.07Zm9.71 10.78c-1.61-.04-2.91-1.34-2.94-2.94L4.41 5.48h-.19c-.42 0-.75.33-.75.75v11.5c0 .41.33.75.75.75l2.74-.01 0-2.76c0-.92.7-1.68 1.6-1.75l.14-.01h4.18l-1.01-1.01Zm2.68-1.56l-4.08-4.08c.42-.24.92-.38 1.44-.38 1.65 0 3 1.34 3 3 0 .52-.14 1.01-.38 1.44Zm5.86 5.86V6.22c0-.42-.34-.75-.75-.75H8.64l-1.5-1.5H19.7c1.24 0 2.25 1 2.25 2.25v11.5c0 .31-.07.61-.18.88l-1.33-1.33Z"/></svg>