<svg viewBox="0 0 24 24" xmlns="http://www.w3.org/2000/svg"><path fill="currentColor" d="M4.69 4.01c-1.38-.2-2.7.85-2.7 2.29l0 11.36c0 1.44 1.31 2.49 2.69 2.29 .19-.03.4-.06.63-.09 1.58-.2 3.88-.4 6.67-.4 3.18 0 5.73.26 7.3.48 1.37.19 2.69-.86 2.69-2.3V6.27c0-1.45-1.32-2.5-2.7-2.3 -1.58.22-4.12.48-7.31.48 -3.2 0-5.74-.27-7.31-.49Zm14.3 14.41c-.94-.12-2.12-.25-3.5-.33v-3.11h2.5c.55 0 1 .44 1 1v2.42Zm-5.01-.4c-.64-.03-1.31-.04-2-.04 -.7 0-1.37.01-2 .03 -.01-.02-.01-.03-.01-.04v-3c0-.56.44-1 1-1h2c.55 0 1 .44 1 1v3c0 .01-.01.02-.01.03Zm-5.5.07c-1.39.08-2.57.2-3.5.32v-2.43c0-.56.44-1 1-1h2.5v3.1Zm3.5-5.11c-.83 0-1.5-.68-1.5-1.5 0-.83.67-1.5 1.5-1.5 .82 0 1.5.67 1.5 1.5 0 .82-.68 1.5-1.5 1.5Zm-3.5-.5c0 .82-.68 1.5-1.5 1.5 -.83 0-1.5-.68-1.5-1.5 0-.83.67-1.5 1.5-1.5 .82 0 1.5.67 1.5 1.5Zm10 0c0 .82-.68 1.5-1.5 1.5 -.83 0-1.5-.68-1.5-1.5 0-.83.67-1.5 1.5-1.5 .82 0 1.5.67 1.5 1.5Z"/></svg>