<svg viewBox="0 0 24 24" xmlns="http://www.w3.org/2000/svg"><path fill="currentColor" d="M4.5 5.62c0-1.87 1.51-3.38 3.375-3.38h11.24c1.86 0 3.375 1.51 3.375 3.37v7.5c0 1.86-1.52 3.375-3.375 3.375h-4.74c-.45-.99-1.41-1.63-2.4-1.82v-1.19c0-1.25 1-2.25 2.25-2.25h3.75c1.24 0 2.25 1 2.25 2.25v1.12c.45-.35.75-.89.75-1.51v-7.5c0-1.04-.84-1.88-1.875-1.88H7.85c-1.04 0-1.875.83-1.875 1.87v.23c-.55.17-1.06.44-1.5.79v-1.04Zm6.89 10.125c.62 0 1.25.27 1.66.75h-.01c.31.36.5.84.47 1.4 -.11 1.55-.69 2.76-1.81 3.54 -1.08.75-2.54 1.04-4.23 1.04 -1.69 0-3.12-.29-4.18-1.04 -1.1-.78-1.68-1.97-1.82-3.49 -.13-1.32.99-2.23 2.14-2.23h7.73Zm4.73-5.25c1.44 0 2.625-1.18 2.625-2.625 0-1.45-1.18-2.625-2.625-2.625 -1.45 0-2.625 1.17-2.625 2.625 0 1.44 1.17 2.625 2.625 2.625Zm-4.875 0c0 2.07-1.68 3.75-3.75 3.75 -2.08 0-3.75-1.68-3.75-3.75 0-2.08 1.67-3.75 3.75-3.75 2.07 0 3.75 1.67 3.75 3.75Z"/></svg>