<svg viewBox="0 0 24 24" xmlns="http://www.w3.org/2000/svg"><path fill="currentColor" d="M16 16.25c0 1.79-1.46 3.25-3.25 3.25h-.07c.2-.64.31-1.31.31-2 0-3.59-2.92-6.5-6.5-6.5 -1.75 0-3.34.68-4.5 1.8V7.74c0-1.8 1.45-3.25 3.25-3.25h7.5c1.79 0 3.25 1.45 3.25 3.25v8.5Zm5.76-10.36c.15.18.23.41.23.64v10.91c0 .55-.45 1-1 1 -.24 0-.47-.09-.65-.24l-3.36-2.85V8.6l3.35-2.85c.42-.36 1.05-.31 1.4.11Zm-9.77 11.6c0-3.04-2.47-5.5-5.5-5.5 -3.04 0-5.5 2.46-5.5 5.5 0 3.03 2.46 5.5 5.5 5.5 3.03 0 5.5-2.47 5.5-5.5Zm-5 .5l0 2.5c0 .27-.23.5-.5.5 -.28 0-.5-.23-.5-.5l-.01-2.51H3.47c-.28 0-.5-.23-.5-.5 0-.28.22-.5.49-.5h2.5l-.01-2.51c0-.28.22-.5.5-.5 .27 0 .5.22.5.5l0 2.5h2.49c.27 0 .49.22.49.5 0 .27-.23.5-.5.5h-2.5Z"/></svg>