<svg viewBox="0 0 24 24" xmlns="http://www.w3.org/2000/svg"><path fill="currentColor" d="M2.12 5.5C2.42 4.62 3.26 4 4.24 4h15.5c.97 0 1.81.62 2.12 1.5H2.11Zm19.87 5.75h-6.2c-.19.56-.5 1.07-.9 1.5h7.09v-1.5Zm0-2.25h-6.13c-.15-.56-.41-1.07-.76-1.5h6.87V9Zm-7.18 0c-.22-.62-.64-1.15-1.18-1.5 -.48-.32-1.05-.5-1.66-.5 -.62 0-1.19.18-1.66.5 -.54.35-.96.88-1.18 1.5 -.12.31-.18.64-.18 1 0 .44.09.86.27 1.25 .3.66.85 1.2 1.52 1.5 .36.16.77.25 1.2.25 .42 0 .83-.09 1.2-.25 .67-.3 1.22-.84 1.52-1.5 .17-.39.27-.81.27-1.25 0-.36-.07-.69-.18-1ZM1.98 7.5h6.87c-.35.43-.61.94-.76 1.5H1.96V7.5Zm0 3.75h6.19c.18.56.49 1.07.89 1.5h-7.1v-1.5Zm0 3.75h4.1c-.07.23-.11.49-.11.75v.75h-4V15Zm.12 3.5h3.87V20H4.21c-.98 0-1.82-.63-2.13-1.5Zm4.87-2.75c0-.27.06-.53.16-.75 .28-.6.88-1 1.58-1h6.5c.69 0 1.3.4 1.58 1 .1.22.16.48.16.75V20h-10v-4.25Zm11 2.75V20h1.74c.97 0 1.81-.63 2.12-1.5h-3.88Zm4-2h-4v-.75c0-.26-.04-.52-.11-.75h4.1v1.5Z"/></svg>