<svg viewBox="0 0 24 24" xmlns="http://www.w3.org/2000/svg"><path fill="currentColor" d="M3.28 2.21c-.3-.3-.77-.3-1.07-.01 -.3.29-.3.76-.01 1.06l.97.97c-.72.37-1.2 1.12-1.2 1.99v11.5c0 1.24 1 2.25 2.25 2.25h7.25c-.33-.78-.51-1.62-.51-2.51 0-1.29.37-2.49 1.02-3.5H8.7l-.15 0c-.9.07-1.61.82-1.61 1.74l-.01 2.75 -2.75 0c-.42 0-.75-.34-.75-.75V6.19c0-.42.33-.75.75-.75h.18L8.92 10c.03 1.6 1.32 2.9 2.93 2.93l1.17 1.17c-.71.923-1.12 2.07-1.12 3.32 0 3.03 2.46 5.5 5.5 5.5 1.25 0 2.4-.42 3.33-1.13 .29.19.68.16.94-.1 .29-.3.29-.77 0-1.07L3.17 2.11Zm16.45 18.57c-.19.21-.51.28-.78.08l-1.46-1.11 -1.46 1.1c-.46.34-1.08-.12-.9-.69l.55-1.79 -1.46-1.11c-.46-.35-.23-1.11.34-1.11h.56l4.58 4.58ZM10.54 7.35l4.07 4.07c.23-.43.37-.93.37-1.45 0-1.66-1.35-3.01-3-3.01 -.53 0-1.02.13-1.45.37Zm4.98 4.98l1.7 1.7c.29-.15.69-.03.81.36l.2.65 1.12 1.12h1.02c.56 0 .8.75.34 1.1l-.16.11 2.03 2.03c.23-.61.35-1.27.35-1.96 0-3.04-2.47-5.5-5.5-5.5 -.7 0-1.36.12-1.96.35ZM7.16 3.97l1.49 1.5h11.06c.41 0 .75.33.75.75v5.47c.55.28 1.05.64 1.5 1.07V6.2c0-1.25-1.01-2.25-2.25-2.25H7.14Z"/></svg>