<svg viewBox="0 0 24 24" xmlns="http://www.w3.org/2000/svg"><path fill="currentColor" d="M15.6 7.79c0-1.66-1.35-3-3-3H5.39c-1.66 0-3 1.34-3 3v4.5c1.14-.95 2.6-1.51 4.2-1.51 3.64 0 6.6 2.95 6.6 6.6 0 .61-.09 1.21-.25 1.77 1.48-.18 2.64-1.45 2.64-2.98v-8.4Zm1.2 1.71v4.98l3.31 2.82c.58.49 1.48.08 1.48-.69V7.4c0-.77-.9-1.19-1.48-.7l-3.33 2.77ZM1.19 17.38c0 2.98 2.41 5.4 5.4 5.4 2.98 0 5.4-2.42 5.4-5.4 0-2.99-2.42-5.4-5.41-5.4s-5.4 2.41-5.4 5.4Zm7.8-3.6c.33 0 .6.26.6.6v1.8c0 .33-.27.6-.6.6h-1.8c-.34 0-.6-.27-.6-.6 0-.34.26-.6.6-.6h.56c-.07-.04-.13-.07-.19-.1 -.3-.14-.62-.21-.94-.21 -.33-.01-.65.05-.95.17 -.3.12-.58.3-.8.52 -.24.23-.62.23-.85 0 -.24-.24-.24-.62 0-.85 .34-.35.74-.62 1.19-.8 .44-.19.92-.27 1.41-.27 .48 0 .95.11 1.4.31 .11.05.22.1.33.17v-.19c0-.34.26-.6.6-.6Zm-1.06 6.63c-.45.18-.93.27-1.42.26 -.49-.01-.96-.12-1.41-.32 -.12-.06-.23-.11-.34-.18v.18c0 .33-.27.6-.6.6 -.34 0-.6-.27-.6-.6v-1.8c0-.34.26-.6.6-.6h1.8c.33 0 .6.26.6.6 0 .33-.27.6-.6.6h-.57c.06.03.12.06.18.09 .29.13.61.2.93.2 .32 0 .64-.06.94-.18 .29-.13.57-.31.79-.53 .23-.24.61-.24.84 0 .23.23.23.61 0 .84 -.35.34-.75.61-1.2.79Z"/></svg>