<svg viewBox="0 0 24 24" xmlns="http://www.w3.org/2000/svg"><path fill="currentColor" d="M4 5.75c-.01-1.52 1.23-2.76 2.75-2.76h5.5c1.51 0 2.75 1.23 2.75 2.75v6.5c0 1.51-1.24 2.75-2.75 2.75h-5.5C5.23 14.99 4 13.75 4 12.24l-.01-6.51Zm.19 9.24c-.42.14-.79.3-1.1.47 -.51.28-1.11.77-1.11 1.52 0 .74.6 1.23 1.1 1.52 .55.31 1.31.58 2.17.79 1.73.42 4.08.67 6.65.68l-.72.71c-.3.29-.3.76 0 1.06 .29.29.76.29 1.06 0l1.99-2c.29-.3.29-.77 0-1.07l-2-2c-.3-.3-.77-.3-1.07-.01 -.3.29-.3.76-.01 1.06l.71.72c-2.49-.01-4.72-.26-6.31-.64 -.81-.2-1.41-.42-1.79-.64 -.18-.11-.27-.18-.32-.23 .04-.05.13-.13.31-.23 .37-.22.97-.45 1.78-.64 .22-.06.46-.11.72-.16 -.84-.09-1.59-.45-2.17-.99Zm9.82.56c1.68.09 3.18.3 4.34.58 .8.19 1.4.41 1.78.63 .17.1.26.17.31.22 -.01 0-.01 0-.02.01 -.11.09-.3.22-.61.36 -.62.27-1.55.53-2.73.73 -.41.06-.69.45-.62.86 .06.4.45.68.86.61 1.23-.21 2.3-.5 3.09-.85 .38-.18.74-.39 1.01-.65s.51-.63.51-1.1c0-.75-.61-1.24-1.11-1.53 -.56-.32-1.32-.59-2.18-.8 -.93-.23-2.03-.41-3.25-.52 -.35.58-.86 1.07-1.46 1.39Zm6.48 1.38c0-.01 0-.01 0-.01l-.01 0Zm-.51-11.7c0-.29-.17-.56-.43-.68 -.26-.13-.57-.09-.8.09l-2.79 2.22v4.22l2.78 2.22c.22.17.53.21.79.08 .25-.125.42-.39.42-.68V5.2Z"/></svg>