<svg viewBox="0 0 24 24" xmlns="http://www.w3.org/2000/svg"><path fill="currentColor" d="M19.74 3c1.19 0 2.16.92 2.24 2.09l0 .15v10.5c0 1.19-.93 2.16-2.1 2.24l-.16 0 -4.25-.01v2.49l1.75 0c.41 0 .75.33.75.75 0 .37-.29.69-.65.74l-.11 0H6.71c-.42 0-.75-.34-.75-.75 0-.38.28-.7.64-.75l.1-.01 1.74-.01v-2.5l-4.25 0c-1.2 0-2.17-.93-2.25-2.1l-.01-.16V5.16c0-1.2.92-2.17 2.09-2.25l.15-.01h15.49Zm-5.76 15h-4l0 2.49h4l-.01-2.5Zm4.5-12.01H9.47c-.28 0-.5.22-.5.5v8c0 .27.22.5.5.5h9c.27 0 .5-.23.5-.5V6.48c0-.28-.23-.5-.5-.5Zm-11.01 0h-2c-.28 0-.5.22-.5.5v8c0 .27.22.5.5.5h1.99c.27 0 .5-.23.5-.5V6.48c0-.28-.23-.5-.5-.5Z"/></svg>