<svg viewBox="0 0 24 24" xmlns="http://www.w3.org/2000/svg"><g fill="currentColor"><path d="M5.81 8.64c.3-.4.22-.96-.17-1.27 -.4-.31-.96-.23-1.27.16l-3 3.89c-.25.32-.25.77 0 1.09l3 3.9c.3.39.86.46 1.26.16 .39-.31.46-.87.16-1.27l-2.58-3.36 2.57-3.36Zm15.73 4.6c-.16-.84-.66-1.56-1.36-2l-2.01-2.61c-.31-.4-.23-.96.16-1.27 .39-.31.95-.23 1.26.16l3 3.89c.24.32.24.77 0 1.09l-.63.81c-.15-.05-.29-.09-.44-.12ZM8.39 11.98c0 .66-.54 1.2-1.2 1.2 -.67 0-1.2-.54-1.2-1.2 0-.67.53-1.2 1.2-1.2 .66 0 1.2.53 1.2 1.2Zm3.6 1.2c.66 0 1.2-.54 1.2-1.2 0-.67-.54-1.2-1.2-1.2 -.67 0-1.2.53-1.2 1.2 0 .66.53 1.2 1.2 1.2Zm2.4 1.2v-.6c0-1 .8-1.8 1.8-1.8h2.4c.99 0 1.8.8 1.8 1.8v.6h.6c.99 0 1.8.8 1.8 1.8v1.8h-2.4v-.6c0-.34-.27-.6-.6-.6 -.34 0-.6.26-.6.6v.6h-3.6v-.6c0-.34-.27-.6-.6-.6 -.34 0-.6.26-.6.6v.6h-2.4v-1.8c0-1 .8-1.8 1.8-1.8h.6Zm1.2-.6v.6h3.6v-.6c0-.34-.27-.6-.6-.6h-2.4c-.34 0-.6.26-.6.6Zm4.8 5.4h2.4v1.8c0 .99-.81 1.8-1.8 1.8h-7.2c-1 0-1.8-.81-1.8-1.8v-1.8h2.4v.6c0 .33.26.6.6.6 .33 0 .6-.27.6-.6v-.6h3.6v.6c0 .33.26.6.6.6 .33 0 .6-.27.6-.6v-.6Z"/><path fill="currentColor" fill-rule="evenodd" d="M19.57 7.58c-.29-.38-.82-.45-1.2-.16 -.38.28-.45.81-.16 1.19l2 2.6c.69.43 1.2 1.15 1.36 1.98 .12.02.25.05.37.09l.6-.79c.23-.31.23-.74 0-1.04l-3-3.9Zm-1.26-.24c.41-.32 1.01-.25 1.33.17l3 3.89c.26.34.26.81 0 1.15l-.66.84 -.04-.02c-.14-.05-.29-.09-.43-.12l-.04-.01 -.01-.04c-.16-.83-.65-1.53-1.34-1.96l-.01-.01 -2.02-2.62c-.32-.42-.25-1.02.17-1.34Zm-13.98.17c.31-.42.91-.5 1.33-.18 .41.31.49.91.17 1.33l-2.56 3.32 2.55 3.32c.31.41.24 1.01-.18 1.33 -.42.31-1.02.24-1.34-.18l-3-3.9c-.27-.35-.27-.82 0-1.16l3-3.9Zm1.27-.1c-.38-.29-.91-.22-1.2.15l-3 3.9c-.24.3-.24.73 0 1.03l3 3.9c.28.37.81.44 1.19.15 .37-.29.44-.82.15-1.2l-2.61-3.39 2.6-3.39c.28-.38.21-.91-.16-1.2Zm1.58 3.42c-.64 0-1.15.51-1.15 1.15 0 .63.51 1.15 1.15 1.15 .63 0 1.15-.52 1.15-1.15 0-.64-.52-1.15-1.15-1.15Zm-1.25 1.15c0-.7.55-1.25 1.25-1.25 .69 0 1.25.55 1.25 1.25 0 .69-.56 1.25-1.25 1.25 -.7 0-1.25-.56-1.25-1.25Zm4.8 0c0-.7.55-1.25 1.25-1.25 .69 0 1.25.55 1.25 1.25 0 .69-.56 1.25-1.25 1.25 -.7 0-1.25-.56-1.25-1.25Zm1.25-1.15c-.64 0-1.15.51-1.15 1.15 0 .63.51 1.15 1.15 1.15 .63 0 1.15-.52 1.15-1.15 0-.64-.52-1.15-1.15-1.15Zm4.2 1.2c-.97 0-1.75.78-1.75 1.75v.65h-.65c-.97 0-1.75.78-1.75 1.75v1.75h2.3v-.55c0-.36.29-.65.65-.65 .359 0 .65.29.65.65v.55h3.5v-.55c0-.36.29-.65.65-.65 .35 0 .65.29.65.65v.55h2.3v-1.75c0-.97-.79-1.75-1.75-1.75h-.65v-.65c0-.97-.79-1.75-1.75-1.75h-2.4Zm-1.85 1.75c0-1.03.82-1.85 1.85-1.85h2.4c1.02 0 1.85.82 1.85 1.85v.55h.55c1.02 0 1.85.82 1.85 1.85v1.85h-2.5v-.65c0-.31-.25-.55-.55-.55 -.31 0-.55.24-.55.55v.65h-3.7v-.65c0-.31-.25-.55-.55-.55 -.31 0-.55.24-.55.55v.65h-2.5v-1.85c0-1.03.82-1.85 1.85-1.85h.55v-.55Zm1.2 0c0-.36.29-.65.65-.65h2.4c.35 0 .65.29.65.65v.65h-3.7v-.65Zm.65-.55c-.31 0-.55.24-.55.55v.55h3.5v-.55c0-.31-.25-.55-.55-.55h-2.4Zm-4.25 5.9h2.5v.65c0 .3.24.55.55.55 .3 0 .55-.25.55-.55v-.65h3.7v.65c0 .3.24.55.55.55 .3 0 .55-.25.55-.55v-.65h2.5v1.85c0 1.02-.83 1.85-1.85 1.85h-7.2c-1.03 0-1.85-.83-1.85-1.85v-1.85Zm.1.1v1.75c0 .96.78 1.75 1.75 1.75h7.2c.96 0 1.75-.79 1.75-1.75v-1.75h-2.3v.55c0 .35-.3.65-.65.65 -.36 0-.65-.3-.65-.65v-.55h-3.5v.55c0 .35-.3.65-.65.65 -.36 0-.65-.3-.65-.65v-.55h-2.3Z"/></g></svg>