<svg viewBox="0 0 24 24" xmlns="http://www.w3.org/2000/svg"><g fill="currentColor"><path d="M5.64 7.38c.39.3.46.86.16 1.26l-2.58 3.35 2.57 3.35c.3.39.22.95-.17 1.26 -.4.3-.96.22-1.27-.17l-3-3.9c-.25-.33-.25-.78 0-1.1l3-3.9c.3-.4.86-.47 1.26-.17Zm12.53 7.96c-.31.39-.23.95.16 1.26 .39.3.95.22 1.26-.17l3-3.9c.24-.33.24-.78 0-1.1l-3-3.9c-.31-.4-.87-.47-1.27-.17 -.4.3-.47.86-.17 1.26l2.57 3.35 -2.58 3.35ZM7.18 13.18c.66 0 1.2-.54 1.2-1.2 0-.67-.54-1.2-1.2-1.2 -.67 0-1.2.53-1.2 1.2 0 .66.53 1.2 1.2 1.2Zm6-1.2c0 .66-.54 1.2-1.2 1.2 -.67 0-1.2-.54-1.2-1.2 0-.67.53-1.2 1.2-1.2 .66 0 1.2.53 1.2 1.2Zm3.6 1.2c.66 0 1.2-.54 1.2-1.2 0-.67-.54-1.2-1.2-1.2 -.67 0-1.2.53-1.2 1.2 0 .66.53 1.2 1.2 1.2Z"/><path fill="currentColor" fill-rule="evenodd" d="M18.32 7.34c.41-.32 1.01-.25 1.33.17l3 3.89c.26.34.26.81 0 1.15l-3 3.9c-.32.41-.92.49-1.34.17 -.42-.32-.5-.92-.18-1.34l2.55-3.33 -2.56-3.33c-.32-.42-.25-1.02.17-1.34Zm1.25.23c-.29-.38-.82-.45-1.2-.16 -.38.28-.45.81-.16 1.19l2.6 3.38 -2.61 3.38c-.29.37-.22.9.15 1.19 .37.28.9.21 1.19-.16l3-3.9c.23-.31.23-.74 0-1.04l-3-3.9ZM5.61 7.41c-.38-.29-.91-.22-1.2.15l-3 3.9c-.24.3-.24.73 0 1.03l3 3.9c.28.37.81.44 1.19.15 .37-.29.44-.82.15-1.2l-2.61-3.39 2.6-3.39c.28-.38.21-.91-.16-1.2Zm-1.28.09c.31-.42.91-.5 1.33-.18 .41.31.49.91.17 1.33l-2.56 3.32 2.55 3.32c.31.41.24 1.01-.18 1.33 -.42.31-1.02.24-1.34-.18l-3-3.9c-.27-.35-.27-.82 0-1.16l3-3.9Zm1.6 4.47c0-.7.55-1.25 1.25-1.25 .69 0 1.25.55 1.25 1.25 0 .69-.56 1.25-1.25 1.25 -.7 0-1.25-.56-1.25-1.25Zm1.25-1.15c-.64 0-1.15.51-1.15 1.15 0 .63.51 1.15 1.15 1.15 .63 0 1.15-.52 1.15-1.15 0-.64-.52-1.15-1.15-1.15Zm4.8 0c-.64 0-1.15.51-1.15 1.15 0 .63.51 1.15 1.15 1.15 .63 0 1.15-.52 1.15-1.15 0-.64-.52-1.15-1.15-1.15Zm-1.25 1.15c0-.7.55-1.25 1.25-1.25 .69 0 1.25.55 1.25 1.25 0 .69-.56 1.25-1.25 1.25 -.7 0-1.25-.56-1.25-1.25Zm4.8 0c0-.7.55-1.25 1.25-1.25 .69 0 1.25.55 1.25 1.25 0 .69-.56 1.25-1.25 1.25 -.7 0-1.25-.56-1.25-1.25Zm1.25-1.15c-.64 0-1.15.51-1.15 1.15 0 .63.51 1.15 1.15 1.15 .63 0 1.15-.52 1.15-1.15 0-.64-.52-1.15-1.15-1.15Z"/></g></svg>