<svg viewBox="0 0 24 24" xmlns="http://www.w3.org/2000/svg"><path fill="currentColor" d="M15.59 9.59c.89 0 1.66.48 2.08 1.2 1.48.06 2.84.61 3.91 1.5V7.18c0-1.33-1.08-2.4-2.4-2.4H4.78c-1.33 0-2.4 1.07-2.4 2.4v9.6c0 1.32 1.07 2.4 2.4 2.4h6.24c-.17-.58-.25-1.18-.25-1.8 0-2.06.94-3.9 2.41-5.11 -.02-.1-.02-.2-.02-.3 0-.44.11-.85.32-1.2h-3.05c.2.35.32.76.32 1.2 0 1.32-1.08 2.4-2.4 2.4 -1.33 0-2.4-1.08-2.4-2.4 0-1.33 1.07-2.4 2.4-2.4h7.2Zm-8.4 2.4c-.001-.67.53-1.2 1.2-1.2 .66 0 1.2.53 1.2 1.2 0 .66-.54 1.2-1.2 1.2 -.67 0-1.2-.54-1.2-1.2Zm15.6 5.4c0 2.98-2.42 5.4-5.4 5.4 -2.99 0-5.4-2.42-5.4-5.4 0-2.99 2.41-5.4 5.4-5.4 2.98 0 5.4 2.41 5.4 5.4Zm-8.4 0c0 .33.26.6.6.6h4.8c.33 0 .6-.27.6-.6 0-.34-.27-.6-.6-.6h-4.8c-.34 0-.6.26-.6.6Z"/></svg>