<svg viewBox="0 0 24 24" xmlns="http://www.w3.org/2000/svg"><path fill="currentColor" d="M19.74 4c1.24 0 2.25 1 2.25 2.25v11.5c0 1.24-1.01 2.25-2.25 2.25H4.24c-1.25 0-2.25-1.01-2.25-2.25V6.24c0-1.25 1-2.25 2.25-2.25h15.49Zm-4.01 5H7.98L7.8 9c-1.58.09-2.83 1.39-2.83 2.99 0 1.65 1.34 3 3 3 1.65 0 3-1.35 3-3 0-.47-.11-.92-.3-1.31l-.11-.2h2.8c-.26.44-.41.95-.41 1.49 0 1.65 1.34 3 3 3 1.65 0 3-1.35 3-3 0-1.6-1.25-2.91-2.83-3l-.18-.01 -.17 0 -.09-.01Zm-7.75 1.5c.82 0 1.5.67 1.5 1.5 0 .82-.68 1.5-1.5 1.5 -.83 0-1.5-.68-1.5-1.5 0-.83.67-1.5 1.5-1.5Zm8 0c.82 0 1.5.67 1.5 1.5 0 .82-.68 1.5-1.5 1.5 -.83 0-1.5-.68-1.5-1.5 0-.83.67-1.5 1.5-1.5Z"/></svg>