<svg viewBox="0 0 24 24" xmlns="http://www.w3.org/2000/svg"><path fill="currentColor" d="M7.19 11.99c0-.67.53-1.2 1.2-1.2 .66 0 1.2.53 1.2 1.2 0 .66-.54 1.2-1.2 1.2 -.67 0-1.2-.54-1.2-1.2Zm8.4-2.4c.89 0 1.66.48 2.08 1.2 1.48.06 2.84.61 3.91 1.5V7.18c0-1.33-1.08-2.4-2.4-2.4H4.78c-1.33 0-2.4 1.07-2.4 2.4v9.6c0 1.32 1.07 2.4 2.4 2.4h6.24c-.17-.58-.25-1.18-.25-1.8 0-2.06.94-3.9 2.41-5.11 -.02-.1-.02-.2-.02-.3 0-.44.11-.85.32-1.2h-3.05c.2.35.32.76.32 1.2 0 1.32-1.08 2.4-2.4 2.4 -1.33 0-2.4-1.08-2.4-2.4 0-1.33 1.07-2.4 2.4-2.4h7.2Zm1.8 13.2c2.98 0 5.4-2.42 5.4-5.4 0-2.99-2.42-5.4-5.4-5.4 -2.99 0-5.4 2.41-5.4 5.4 0 2.98 2.41 5.4 5.4 5.4Zm-1.08-7.68l-1.08 1.07h1.85c1.82 0 3.3 1.47 3.3 3.3v.3c0 .33-.27.6-.6.6 -.34 0-.6-.27-.6-.6v-.3c0-1.16-.95-2.1-2.1-2.1h-1.86l1.07 1.07c.23.23.23.61 0 .84 -.24.23-.62.23-.85 0l-2.11-2.11c-.06-.06-.1-.13-.13-.2 -.03-.08-.05-.15-.05-.23 0-.09.01-.16.04-.23 .02-.08.07-.14.13-.2l2.1-2.1c.23-.24.61-.24.84 0 .23.23.23.61 0 .84Z"/></svg>