<svg viewBox="0 0 24 24" xmlns="http://www.w3.org/2000/svg"><path fill="currentColor" d="M19.74 4c1.24 0 2.25 1 2.25 2.25v5.35c-.87-.37-1.56-.88-1.97-1.23 -.48-.41-1.14-.49-1.69-.25 -.52-.65-1.3-1.09-2.18-1.14l-.18-.01 -.17 0 -.09-.01H7.96l-.18 0c-1.58.09-2.83 1.39-2.83 2.99 0 1.65 1.34 3 3 3 1.65 0 3-1.35 3-3 0-.47-.11-.92-.3-1.31l-.11-.2h2.8c-.26.44-.41.95-.41 1.49 0 .31.04.61.13.89 -.09.18-.14.4-.14.63l0 3.49c0 1.16.26 2.14.68 2.97H4.16c-1.25 0-2.25-1.01-2.25-2.25V6.15c0-1.25 1-2.25 2.25-2.25h15.49Zm-3.75 6.5c.44 0 .84.19 1.12.5 -.68.43-1.6.88-2.63.99v-.01c0-.83.67-1.5 1.5-1.5Zm-8 0c.82 0 1.5.67 1.5 1.5 0 .82-.68 1.5-1.5 1.5 -.83 0-1.5-.68-1.5-1.5 0-.83.67-1.5 1.5-1.5Zm11.38.63c.68.58 2.2 1.69 4.11 1.86 .27.02.49.24.49.52L23.96 17c0 4.21-4.1 5.7-4.88 5.95 -.09.02-.18.02-.26 0 -.78-.25-4.88-1.74-4.88-5.96l-.01-3.5c0-.28.22-.5.49-.53 1.9-.18 3.43-1.29 4.11-1.87 .21-.19.55-.19.76 0Z"/></svg>