<svg viewBox="0 0 24 24" xmlns="http://www.w3.org/2000/svg"><path fill="currentColor" d="M21.94 14.47l.02.06 .02.1 0 .09v6.51c0 .37-.29.69-.65.74l-.11 0H2.72c-.38 0-.7-.29-.75-.65l-.01-.11v-6.5l0-.06 .01-.09c.01-.06.02-.11.04-.16l2.75-6.02c.1-.24.32-.4.57-.43l.1-.01 2.53-.01 -.79 1.37 -.07.12 -1.21 0 -2.07 4.49H19.97l-2.03-4.35 .86-1.5c.06.05.12.11.17.18l.05.09 2.81 6.03ZM13.36 2.05l.09.04 5.18 3c.32.18.45.59.31.93l-.05.09 -2.81 4.87 1.13 0c.41 0 .75.33.75.75 0 .37-.29.69-.65.74l-.11 0 -2.01-.01 -.01 0H11.1l-.01-.01 -4.416 0c-.42 0-.75-.34-.75-.75 0-.38.28-.7.64-.75l.1-.01 1.82-.01 -.19-.11c-.33-.19-.46-.6-.32-.94l.04-.1 4.31-7.5c.18-.33.58-.46.93-.32Zm-.01 1.71L9.78 9.95l1.77 1.02h2.817l2.86-4.98 -3.9-2.26Z"/></svg>