<svg viewBox="0 0 24 24" xmlns="http://www.w3.org/2000/svg"><path fill="currentColor" d="M9.5 7.5v3h5v-3h-5ZM8.75 1c.41 0 .75.33.75.75V3h7.25C17.99 3 19 4 19 5.25V14c0 .18-.08.37-.2.5l-1.31 1.4v3.83c0 1.24-1.01 2.25-2.25 2.25h-6.5c-1.25 0-2.25-1.01-2.25-2.25v-3.84l-1.31-1.41c-.13-.14-.2-.33-.2-.51V5.22c0-1.25 1-2.25 2.25-2.25h.75V1.72c0-.42.33-.75.75-.75ZM8 6.75v4.5c0 .41.33.75.75.75h6.5c.41 0 .75-.34.75-.75v-4.5c0-.42-.34-.75-.75-.75h-6.5c-.42 0-.75.33-.75.75Zm1.5 8c0 .41.33.75.75.75h3.5c.41 0 .75-.34.75-.75 0-.42-.34-.75-.75-.75h-3.5c-.42 0-.75.33-.75.75Z"/></svg>