<svg viewBox="0 0 24 24" xmlns="http://www.w3.org/2000/svg"><path fill="currentColor" d="M3 6.25C3 4.45 4.45 3 6.25 3H10c.55 0 1 .44 1 1 0 .55-.45 1-1 1H6.25C5.55 5 5 5.55 5 6.25V10c0 .55-.45 1-1 1 -.56 0-1-.45-1-1V6.25ZM13 4c0-.56.44-1 1-1h3.75C19.54 3 21 4.45 21 6.25V10c0 .55-.45 1-1 1 -.56 0-1-.45-1-1V6.25c0-.7-.56-1.25-1.25-1.25H14c-.56 0-1-.45-1-1Zm-9 9c.55 0 1 .44 1 1v3.58l4.52-4.53c1.36-1.37 3.58-1.37 4.94 0l4.52 4.52v-3.59c0-.56.44-1 1-1 .55 0 1 .44 1 1v3.75c0 1.79-1.46 3.25-3.25 3.25h-3.75c-.56 0-1-.45-1-1 0-.56.44-1 1-1h3.58l-4.53-4.53c-.59-.59-1.54-.59-2.13 0l-4.53 4.52h3.58c.55 0 1 .44 1 1 0 .55-.45 1-1 1H6.2c-1.8 0-3.25-1.46-3.25-3.25v-3.75c0-.56.44-1 1-1Zm13.5-4.25c0 1.24-1.01 2.25-2.25 2.25C14 11 13 9.99 13 8.75c0-1.25 1-2.25 2.25-2.25 1.24 0 2.25 1 2.25 2.25Z"/></svg>