<svg viewBox="0 0 24 24" xmlns="http://www.w3.org/2000/svg"><path fill="currentColor" d="M14.35 2.59c.08-.12.25-.13.36-.04l.92.81 -2.91 3.62h1.92l2.1-2.64 1.65 1.45c.1.08.11.24.02.34l-.7.82h1.94c.49-.73.38-1.72-.29-2.31l-3.7-3.27c-.76-.67-1.92-.56-2.54.22L8.91 6.92h1.9l3.46-4.41Zm-9.11 3.9c-.42 0-.75.33-.75.75 0 .41.33.75.75.75h13c1.79 0 3.25 1.45 3.25 3.25v6.5c0 1.79-1.46 3.25-3.25 3.25h-12c-1.8 0-3.25-1.46-3.25-3.25V7.24c0-1.25 1-2.25 2.25-2.25h4.32l-1.2 1.5H5.23Zm10.25 8.25c0 .41.33.75.75.75h2c.41 0 .75-.34.75-.75 0-.42-.34-.75-.75-.75h-2c-.42 0-.75.33-.75.75Z"/></svg>