<svg viewBox="0 0 24 24" xmlns="http://www.w3.org/2000/svg"><path fill="currentColor" d="M11.4 9.46l-8.71 8.71c-.89.88-.89 2.32 0 3.2 .88.88 2.32.88 3.2-.01l8.7-8.72 -3.21-3.22ZM16.84 15l-.11-.01c-.38 0-.7.28-.75.64l-.01.1v.75h-.75c-.38 0-.7.28-.75.64l-.01.1c0 .37.28.69.64.74l.1 0h.75v.75c0 .37.28.69.64.74l.1 0c.37 0 .69-.29.74-.65l0-.11v-.75h.75c.37 0 .69-.29.74-.65l0-.11c0-.38-.29-.7-.65-.75l-.11-.01h-.75v-.75c0-.38-.29-.7-.65-.75l-.11-.01 .1 0ZM13.3 7.55l-.14.12 -.72.71 3.21 3.21 .71-.72c.87-.88.87-2.31-.01-3.19l-.16-.15c-.84-.72-2.08-.72-2.92-.01ZM6.83 4.99l-.11-.01c-.38 0-.7.28-.75.64l-.01.1v.75h-.75c-.38 0-.7.28-.75.64l-.01.1c0 .37.28.69.64.74l.1 0h.75v.75c0 .37.28.69.64.74l.1 0c.37 0 .69-.29.74-.65l0-.11v-.75h.75c.37 0 .69-.29.74-.65l0-.11c0-.38-.29-.7-.65-.75l-.11-.01H7.4v-.75c0-.38-.29-.7-.65-.75l-.11-.01 .1 0Zm12-2l-.11-.01c-.38 0-.7.28-.75.64l-.01.1v.75h-.75c-.38 0-.7.28-.75.64l-.01.1c0 .37.28.69.64.74l.1 0h.75v.75c0 .37.28.69.64.74l.1 0c.37 0 .69-.29.74-.65l0-.11v-.75h.75c.37 0 .69-.29.74-.65l0-.11c0-.38-.29-.7-.65-.75l-.11-.01h-.75v-.75c0-.38-.29-.7-.65-.75l-.11-.01 .1 0Z"/></svg>