<svg viewBox="0 0 24 24" xmlns="http://www.w3.org/2000/svg"><g fill="currentColor"><path d="M9.22 2.22l-7.88 14.3c-.66 1.19.2 2.66 1.57 2.66h9.52c-.27-.79-.42-1.64-.45-2.55l-.01-.02 -.01-.34v-3.02c0-.9.7-1.7 1.68-1.7 1.06 0 2.07-.43 3.06-1.44l-4.37-7.95c-.69-1.25-2.48-1.25-3.16 0Zm1.57 4.67c.49 0 .9.4.9.9v4.8c0 .49-.41.9-.9.9 -.5 0-.91-.41-.91-.9v-4.8c0-.5.4-.9.9-.9Zm.9 8.4c0 .49-.41.9-.9.9 -.5 0-.91-.41-.91-.9 0-.5.4-.9.9-.9 .49 0 .9.4.9.9Z"/><path d="M20.4 12.41c-.42-.18-.82-.41-1.2-.7 -.3-.23-.59-.48-.86-.78 -.19-.2-.5-.2-.68-.01 -1.2 1.24-2.52 1.85-3.99 1.85 -.27 0-.48.22-.48.5v3l0 .31c.03.95.2 1.81.52 2.58 .18.43.4.83.67 1.2 .32.44.72.84 1.18 1.2 .62.48 1.37.87 2.24 1.17 .09.03.2.03.3 0 3.07-1.07 4.64-3.26 4.64-6.48v-3.01l-.01-.11c-.05-.23-.24-.4-.48-.4 -.25 0-.49-.02-.72-.06 -.42-.06-.82-.17-1.2-.34Z"/><path fill="currentColor" fill-rule="evenodd" d="M9.17 2.19c.7-1.28 2.53-1.28 3.24 0l4.38 7.97 -.03.02c-1 1.02-2.02 1.44-3.11 1.44 -.95 0-1.63.78-1.63 1.65v3.01l0 .33 0 .01c.02.89.17 1.74.44 2.52l.02.06h-9.6c-1.41 0-2.3-1.51-1.63-2.75L9.12 2.14Zm3.15.04c-.67-1.21-2.41-1.21-3.07 0l-7.88 14.3c-.65 1.16.2 2.59 1.53 2.59h9.45c-.26-.78-.4-1.61-.43-2.49l-.01-.02 -.01-.34v-3.02c0-.92.72-1.75 1.73-1.75 1.04 0 2.02-.41 3-1.4l-4.36-7.92ZM9.83 7.78c0-.53.42-.95.95-.95 .52 0 .95.42.95.95v4.8c0 .52-.43.95-.95.95 -.53 0-.96-.43-.96-.95v-4.8Zm.95-.85c-.47 0-.86.38-.86.85v4.8c0 .46.38.85.85.85 .46 0 .85-.39.85-.85v-4.8c0-.47-.39-.85-.85-.85Zm7.504 4.03c-.17-.18-.44-.18-.61-.01 -1.21 1.25-2.54 1.86-4.02 1.86 -.24 0-.43.19-.43.45v3l0 .31c.03.95.2 1.8.52 2.56 .17.42.4.82.67 1.18 .32.44.71.83 1.17 1.19 .62.47 1.36.86 2.23 1.16 .08.03.18.03.27 0 1.52-.54 2.68-1.34 3.45-2.42 .77-1.08 1.16-2.42 1.16-4.02v-3l-.01-.1c-.05-.21-.22-.36-.43-.36 -.25 0-.49-.02-.73-.06 -.42-.06-.83-.18-1.22-.34 -.42-.18-.83-.42-1.22-.71 -.3-.23-.59-.49-.87-.78Zm-.68-.07c.2-.22.54-.22.75 0 .27.28.56.54.85.76 .38.29.78.52 1.18.69 .38.16.77.27 1.18.32 .23.03.47.05.71.05 .25 0 .47.19.51.43l0 0 0 .1 -.01 3c0 1.61-.4 2.97-1.19 4.07 -.79 1.09-1.96 1.91-3.51 2.44 -.11.03-.23.03-.34 0 -.88-.31-1.63-.7-2.27-1.19 -.47-.36-.87-.76-1.2-1.21 -.28-.38-.51-.78-.69-1.22 -.33-.77-.51-1.64-.54-2.6l-.01-.32V13.2c0-.31.23-.55.53-.55 1.45 0 2.75-.61 3.94-1.84Zm-7.78 4.38c0-.53.42-.95.95-.95 .52 0 .95.42.95.95 0 .52-.43.95-.95.95 -.53 0-.96-.43-.96-.95Zm.95-.85c-.47 0-.86.38-.86.85 0 .46.38.85.85.85 .46 0 .85-.39.85-.85 0-.47-.39-.85-.85-.85Z"/></g></svg>