<svg viewBox="0 0 24 24" xmlns="http://www.w3.org/2000/svg"><path fill="currentColor" d="M8.25 13.75C8.25 11.67 9.92 10 12 10c1.85 0 3.39 1.34 3.69 3.11 -.17.15-.37.29-.64.41 -.54.23-1.42.36-2.94-.02 -1.7-.43-2.85-.18-3.65.32 -.08.04-.16.09-.23.15 -.01-.08-.01-.16-.01-.24ZM6.25 3C4.45 3 3 4.45 3 6.25v11.5C3 19.54 4.45 21 6.25 21h11.5c1.79 0 3.25-1.46 3.25-3.25V6.25C21 4.45 19.54 3 17.75 3H6.25ZM8 7.25c-.56 0-1-.45-1-1 0-.56.44-1 1-1 .55 0 1 .44 1 1 0 .55-.45 1-1 1Zm4-1c0-.42.33-.75.75-.75h3.5c.41 0 .75.33.75.75 0 .41-.34.75-.75.75h-3.5c-.42 0-.75-.34-.75-.75Zm0 2.25c2.89 0 5.25 2.35 5.25 5.25 0 2.89-2.36 5.25-5.25 5.25 -2.9 0-5.25-2.36-5.25-5.25 0-2.9 2.35-5.25 5.25-5.25Z"/></svg>