<svg viewBox="0 0 24 24" xmlns="http://www.w3.org/2000/svg"><path fill="currentColor" d="M18.456 3.5c.39-.02.76.19.93.55 .42.84.93 1.35 1.32 1.64 .19.14.36.24.47.29 .05.02.09.04.11.05l.01 0c.51.17.79.73.62 1.25 -.18.52-.74.8-1.27.63l-.01-.01 -.01-.01 -.01-.01 -.02-.01 -.03-.02c-.03-.01-.05-.02-.09-.04 -.07-.03-.16-.07-.26-.12 -.21-.11-.48-.26-.78-.49 -.31-.23-.65-.53-.98-.92 -.87 1.04-2.05 1.61-3.3 1.61 -1.23 0-2.4-.56-3.25-1.56 -.86 1-2.03 1.55-3.26 1.55 -1.25 0-2.44-.58-3.3-1.62 -.34.38-.67.69-.98.91 -.31.22-.58.38-.78.48 -.11.05-.19.08-.26.11 -.04.01-.06.02-.09.03l-.03.01 -.02 0 -.01 0 -.01 0 -.01 0c-.53.17-1.1-.11-1.27-.64 -.18-.52.1-1.09.62-1.27l.01-.01c.02-.01.06-.03.11-.06 .1-.06.27-.15.47-.3 .39-.3.9-.81 1.33-1.65 .17-.36.54-.57.93-.56 .39.01.74.26.88.63C6.75 5.27 7.71 5.8 8.54 5.8c.83 0 1.79-.53 2.31-1.87 .15-.39.51-.64.93-.64 .41 0 .77.25.93.63 .52 1.33 1.48 1.86 2.31 1.86 .83-.01 1.79-.53 2.31-1.87 .14-.37.49-.62.88-.64Zm0 6c.39-.02.76.19.93.55 .42.84.93 1.35 1.32 1.64 .19.14.36.24.47.29 .05.02.09.04.11.05l.01 0c.51.17.79.73.62 1.25 -.18.52-.74.8-1.27.63l-.01-.01 -.01-.01 -.01-.01 -.02-.01 -.03-.02c-.03-.01-.05-.02-.09-.04 -.07-.03-.16-.07-.26-.12 -.21-.11-.48-.26-.78-.49 -.31-.23-.65-.53-.98-.92 -.87 1.04-2.05 1.61-3.3 1.61 -1.23 0-2.4-.56-3.25-1.56 -.86 1-2.03 1.55-3.26 1.55 -1.25 0-2.44-.58-3.3-1.62 -.34.38-.67.69-.98.91 -.31.22-.58.38-.78.48 -.11.05-.19.08-.26.11 -.04.01-.06.02-.09.03l-.03.01 -.02 0 -.01 0 -.01 0 -.01 0c-.53.17-1.1-.11-1.27-.64 -.18-.52.1-1.09.62-1.27l.01-.01c.02-.01.06-.03.11-.06 .1-.06.27-.15.47-.3 .39-.3.9-.81 1.33-1.65 .17-.36.54-.57.93-.56 .39.01.74.26.88.63 .52 1.33 1.48 1.86 2.31 1.86 .83 0 1.79-.53 2.31-1.87 .15-.39.51-.64.93-.64 .41 0 .77.25.93.63 .52 1.33 1.48 1.86 2.31 1.86 .83-.01 1.79-.53 2.31-1.87 .14-.37.49-.62.88-.64Zm.93 6.55c-.18-.36-.55-.57-.94-.56 -.4.01-.75.26-.89.63 -.53 1.33-1.49 1.86-2.32 1.86 -.84 0-1.8-.53-2.32-1.87 -.16-.39-.52-.64-.94-.64 -.42 0-.78.25-.94.63 -.53 1.33-1.49 1.86-2.32 1.86 -.84 0-1.8-.53-2.32-1.87 -.15-.37-.5-.62-.89-.64 -.4-.02-.77.19-.94.55 -.43.84-.94 1.35-1.34 1.64 -.2.14-.37.24-.48.29 -.06.02-.1.04-.12.05l-.02 0c-.52.17-.8.74-.63 1.26 .17.52.74.8 1.26.63l0-.01 0-.01 0-.01 .01-.01 .02-.02c.02-.01.04-.02.08-.04 .06-.03.15-.07.25-.12 .2-.11.47-.26.77-.49 .3-.23.64-.54.97-.92 .86 1.04 2.04 1.61 3.29 1.61 1.22 0 2.39-.56 3.25-1.56 .85 1 2.02 1.55 3.25 1.55 1.25-.01 2.43-.58 3.29-1.62 .33.38.67.68.97.91 .3.22.57.38.77.48 .1.05.18.08.25.11 .03.01.05.02.08.03l.02.01 .01 0 0 0 0 0c.52.17 1.09-.12 1.26-.64 .17-.53-.11-1.09-.63-1.26l-.02-.01c-.03-.01-.07-.03-.12-.06 -.11-.06-.28-.15-.48-.3 -.4-.3-.91-.8-1.33-1.65Z"/></svg>