<svg viewBox="0 0 24 24" xmlns="http://www.w3.org/2000/svg"><path fill="currentColor" d="M10.75 20c.41 0 .75.33.75.75 0 .41-.34.75-.75.75 -.42 0-.76-.34-.76-.75 0-.42.33-.75.75-.75Zm4.5 0c.41 0 .75.33.75.75 0 .41-.34.75-.75.75 -.42 0-.75-.34-.75-.75 0-.42.33-.75.75-.75Zm-6.76-1c.41 0 .75.33.75.75 0 .41-.34.75-.75.75 -.42 0-.75-.34-.75-.75 0-.42.33-.75.75-.75Zm4.5 0c.41 0 .75.33.75.75 0 .41-.34.75-.75.75 -.42 0-.75-.34-.75-.75 0-.42.33-.75.75-.75Zm4.5 0c.41 0 .75.33.75.75 0 .41-.34.75-.75.75 -.42 0-.75-.34-.75-.75 0-.42.33-.75.75-.75Zm-4.5-12.99c3.16 0 4.96 2.09 5.22 4.63h.07c2.03 0 3.69 1.64 3.69 3.68 0 2.03-1.66 3.68-3.7 3.68H7.65c-2.04 0-3.7-1.65-3.7-3.69s1.65-3.69 3.69-3.69h.07c.26-2.55 2.05-4.64 5.22-4.64ZM6.57 2c.79.04 1.56.27 2.26.67 1.05.6 1.8 1.53 2.2 2.59 -1.99.56-3.41 2-4 3.94l-.07.24 -.06.23 -.21.03c-1.15.24-2.14.9-2.81 1.81l-.16-.09c-.66-.38-1.22-.9-1.65-1.52 -.28-.41-.1-.97.36-1.14 1.64-.59 2.52-1.25 3.03-2.22 .55-1.06.65-2.18.28-3.68 -.12-.49.26-.96.76-.93Z"/></svg>