<svg viewBox="0 0 24 24" xmlns="http://www.w3.org/2000/svg"><path fill="currentColor" d="M13 20c.55 0 1 .44 1 1 0 .55-.45 1-1 1 -.56 0-1-.45-1-1 0-.56.44-1 1-1Zm-3.5-1c.55 0 1 .44 1 1 0 .55-.45 1-1 1 -.56 0-1-.45-1-1 0-.56.44-1 1-1Zm7 0c.55 0 1 .44 1 1 0 .55-.45 1-1 1 -.56 0-1-.45-1-1 0-.56.44-1 1-1ZM13 6c3.16 0 4.96 2.09 5.22 4.63h.08c2.03 0 3.692 1.64 3.692 3.68 0 2.03-1.66 3.68-3.692 3.68H7.68c-2.04 0-3.7-1.65-3.7-3.69s1.65-3.69 3.69-3.69h.07C8 8.06 9.79 5.97 12.96 5.97ZM6.58 1.99c.79.04 1.56.27 2.26.67 1.05.6 1.8 1.53 2.2 2.59 -1.99.56-3.41 2-4 3.94l-.07.24 -.06.23 -.21.03c-1.15.24-2.14.9-2.81 1.81 -.06-.03-.11-.06-.16-.09 -.66-.38-1.22-.9-1.65-1.52 -.28-.41-.1-.97.36-1.14 1.64-.59 2.52-1.25 3.03-2.22 .55-1.06.65-2.18.28-3.68 -.12-.49.26-.96.76-.93Z"/></svg>