<svg viewBox="0 0 24 24" xmlns="http://www.w3.org/2000/svg"><path fill="currentColor" d="M9.75 18.15c.41 0 .75.33.75.75 0 .41-.34.75-.76.75s-.75-.34-.75-.75c0-.42.33-.75.75-.75Zm4.5 0c.41 0 .75.33.75.75 0 .41-.34.75-.75.75 -.42 0-.75-.34-.75-.75 0-.42.33-.75.75-.75Zm-6.76-1c.41 0 .75.33.75.75 0 .41-.34.75-.75.75 -.42 0-.75-.34-.75-.75 0-.42.33-.75.75-.75Zm4.5 0c.41 0 .75.33.75.75 0 .41-.34.75-.75.75 -.42 0-.75-.34-.75-.75 0-.42.33-.75.75-.75Zm4.5 0c.41 0 .75.33.75.75 0 .41-.34.75-.75.75 -.42 0-.75-.34-.75-.75 0-.42.33-.75.75-.75Zm-4.5-13.16c3.16 0 4.96 2.09 5.22 4.63h.07c2.03 0 3.69 1.64 3.69 3.68 0 2.03-1.66 3.68-3.7 3.68H6.65c-2.04 0-3.7-1.65-3.7-3.69s1.65-3.69 3.69-3.69h.07c.26-2.55 2.05-4.64 5.22-4.64Z"/></svg>