<svg viewBox="0 0 24 24" xmlns="http://www.w3.org/2000/svg"><path fill="currentColor" d="M13.75 13.2c.3.27.33.75.05 1.05l-1.12 1.23h2.27c.62 0 .97.72.58 1.21l-3.22 4.03c-.26.32-.73.37-1.06.11 -.33-.26-.38-.73-.12-1.06l2.24-2.82h-2.41c-.65 0-1-.77-.56-1.26l2.23-2.49c.27-.31.75-.34 1.05-.06ZM12.99 5c3.16 0 4.96 2.09 5.22 4.63h.08c2.03 0 3.692 1.64 3.692 3.68 0 2.03-1.66 3.68-3.692 3.68l-1.75 0c.54-1.12-.26-2.51-1.59-2.51h-.14c.31-.68.16-1.52-.42-2.04 -.72-.65-1.83-.59-2.48.13l-2.24 2.48c-.52.57-.57 1.32-.28 1.92l-1.75-.01c-2.04 0-3.7-1.65-3.7-3.69s1.65-3.69 3.69-3.69h.07c.26-2.55 2.05-4.64 5.22-4.64ZM9.98 1.99c1.61 0 3.04.81 3.9 2.06 -.3-.04-.59-.06-.9-.06 -3 0-5.18 1.67-5.94 4.21l-.07.24 -.06.23 -.21.03c-1.61.33-2.92 1.5-3.45 3.04 -.79-.6-1.29-1.55-1.29-2.61 0-1.76 1.36-3.19 3.09-3.28l.25-.01c.38-2.23 2.32-3.9 4.64-3.9Z"/></svg>