<svg viewBox="0 0 24 24" xmlns="http://www.w3.org/2000/svg"><path fill="currentColor" d="M12.75 2.75c0-.42-.34-.75-.75-.75 -.42 0-.75.33-.75.75v1.5c0 .41.33.75.75.75 .41 0 .75-.34.75-.75v-1.5Zm6.28 2.21c.29.29.29.76 0 1.06l-1.07 1.06c-.3.29-.77.29-1.07 0 -.3-.3-.3-.77 0-1.07l1.06-1.07c.29-.3.76-.3 1.06 0ZM6.59 12.99c-.06-.33-.1-.66-.1-1 0-3.04 2.46-5.5 5.5-5.5 3.03 0 5.5 2.46 5.5 5.5 0 .34-.04.67-.1 1h3.84c.41 0 .75.33.75.75 0 .41-.34.75-.75.75H2.73c-.42 0-.75-.34-.75-.75 0-.42.33-.75.75-.75h3.84Zm.15 3c-.42 0-.75.33-.75.75 0 .41.33.75.75.75h10.5c.41 0 .75-.34.75-.75 0-.42-.34-.75-.75-.75H6.74Zm4 3c-.42 0-.75.33-.75.75 0 .41.33.75.75.75h2.5c.41 0 .75-.34.75-.75 0-.42-.34-.75-.75-.75h-2.5ZM4.95 4.95c.29-.3.76-.3 1.06 0l1.06 1.06c.29.29.29.76 0 1.06 -.3.29-.77.29-1.07 0L4.93 6c-.3-.3-.3-.77 0-1.07Z"/></svg>