<svg viewBox="0 0 24 24" xmlns="http://www.w3.org/2000/svg"><path fill="currentColor" d="M13 20c.55 0 1 .44 1 1 0 .55-.45 1-1 1 -.56 0-1-.45-1-1 0-.56.44-1 1-1Zm-3.51-1c.55 0 1 .44 1 1 0 .55-.45 1-1.01 1s-1-.45-1-1c0-.56.44-1 1-1Zm7 0c.55 0 1 .44 1 1 0 .55-.45 1-1 1 -.56 0-1-.45-1-1 0-.56.44-1 1-1Zm-3.5-13c3.16 0 4.96 2.09 5.22 4.63h.07c2.03 0 3.69 1.64 3.69 3.68 0 2.03-1.66 3.68-3.7 3.68H7.65c-2.04 0-3.7-1.65-3.7-3.69s1.65-3.69 3.69-3.69h.07c.26-2.55 2.05-4.64 5.22-4.64Zm-8.64 4.15c.14.35 0 .74-.32.93l-.1.04 -.93.38c-.39.15-.83-.03-.98-.41 -.15-.36-.01-.75.31-.94l.09-.05 .92-.39c.38-.16.82.02.97.4Zm6.487-4.84l-.18.05c-1.79.63-3.07 2-3.62 3.82l-.08.25 -.06.23 -.21.03c-.61.12-1.18.37-1.68.71 -.09-.16-.17-.31-.24-.48 -.84-2.02.12-4.32 2.13-5.15 1.34-.56 2.81-.32 3.89.5Zm-7.92.03l.1.03 .92.38c.38.15.56.59.4.97 -.15.34-.52.52-.88.44l-.11-.04 -.93-.39c-.39-.16-.57-.6-.41-.98 .14-.35.51-.53.87-.45Zm3.81-2.99l.04.09 .38.92c.15.38-.03.82-.41.97 -.36.14-.75 0-.94-.32l-.05-.1 -.39-.93c-.16-.39.02-.83.4-.98 .35-.15.74-.01.93.31Zm4.35-.32c.34.14.52.51.44.87l-.04.1 -.39.92c-.16.38-.6.56-.98.4 -.35-.15-.53-.52-.45-.88l.03-.11 .38-.93c.15-.39.59-.57.97-.41Z"/></svg>