<svg viewBox="0 0 24 24" xmlns="http://www.w3.org/2000/svg"><path fill="currentColor" d="M11.54 3.5c-1.96 0-3.65 1.38-4.04 3.3 -.11.54.24 1.06.78 1.17 .54.1 1.06-.25 1.17-.79 .19-.99 1.06-1.7 2.06-1.7h.2c1.24 0 2.25 1 2.25 2.25 0 1.24-1.01 2.24-2.25 2.24H2.96c-.56 0-1 .44-1 1 0 .55.44 1 1 1h8.75c2.34 0 4.25-1.91 4.25-4.25 0-2.35-1.91-4.26-4.25-4.26h-.21Zm7.27 6c-1.38 0-2.59.891-3.02 2.18 -.18.52.1 1.09.63 1.26 .52.17 1.09-.11 1.26-.64 .16-.49.62-.82 1.12-.82 .65 0 1.17.52 1.17 1.17v.07c0 .69-.56 1.25-1.25 1.25H2.97c-.56 0-1 .44-1 1 0 .55.44 1 1 1h5.99 0 5.74c.69 0 1.25.55 1.25 1.25v.07c0 .65-.53 1.17-1.18 1.17 -.51 0-.96-.33-1.13-.82 -.18-.53-.75-.81-1.27-.64 -.53.17-.81.74-.64 1.26 .43 1.29 1.64 2.18 3.01 2.18 1.75 0 3.17-1.43 3.17-3.18v-.08c0-.45-.09-.87-.25-1.25h.99c1.79 0 3.25-1.46 3.25-3.25v-.08c0-1.76-1.43-3.18-3.18-3.18ZM3.98 6.25c.69 0 1.25-.56 1.25-1.25 0-.7-.56-1.25-1.25-1.25 -.7 0-1.25.55-1.25 1.25 0 .69.55 1.25 1.25 1.25ZM10.23 20c0 .69-.56 1.25-1.25 1.25 -.7 0-1.25-.56-1.25-1.25 0-.7.55-1.25 1.25-1.25 .69 0 1.25.55 1.25 1.25Zm8.75-12.75c.69 0 1.25-.56 1.25-1.25 0-.7-.56-1.25-1.25-1.25 -.7 0-1.25.55-1.25 1.25 0 .69.55 1.25 1.25 1.25Z"/></svg>