<svg viewBox="0 0 24 24" xmlns="http://www.w3.org/2000/svg"><path fill="currentColor" d="M7.74 19.5h8.5c.41 0 .74.33.74.75 0 .37-.29.69-.65.74l-.11 0H7.71c-.42 0-.75-.34-.75-.75 0-.38.28-.7.64-.75l.1-.01h8.5 -8.51Zm-3-2.99h14.5c.41 0 .75.33.75.75 0 .37-.29.69-.65.74l-.11 0H4.73c-.42 0-.75-.34-.75-.75 0-.38.28-.7.64-.75l.1-.01Zm7.25-13.52c3.16 0 4.96 2.09 5.22 4.63h.08c2.03 0 3.69 1.64 3.69 3.68 0 2.03-1.66 3.68-3.7 3.68H6.66c-2.04 0-3.7-1.65-3.7-3.69s1.65-3.69 3.69-3.69h.07c.26-2.55 2.05-4.64 5.22-4.64Z"/></svg>