<svg viewBox="0 0 24 24" xmlns="http://www.w3.org/2000/svg"><path fill="currentColor" d="M13 7c3.16 0 4.96 2.09 5.22 4.63h.08c2.03 0 3.692 1.64 3.692 3.68 0 2.03-1.66 3.68-3.692 3.68H7.68c-2.04 0-3.7-1.65-3.7-3.69s1.65-3.69 3.69-3.69h.07C8 9.06 9.79 6.97 12.96 6.97ZM9.99 3.99c1.61 0 3.04.81 3.9 2.06 -.3-.04-.59-.06-.9-.06 -3 0-5.18 1.67-5.94 4.21l-.07.24 -.06.23 -.21.03c-1.61.33-2.92 1.5-3.45 3.04 -.79-.6-1.29-1.55-1.29-2.61 0-1.76 1.36-3.19 3.09-3.28l.25-.01c.38-2.23 2.32-3.9 4.64-3.9Z"/></svg>