<svg viewBox="0 0 24 24" xmlns="http://www.w3.org/2000/svg"><path fill="currentColor" d="M12 2c.41 0 .75.33.75.75v1.5c0 .41-.34.75-.75.75 -.42 0-.75-.34-.75-.75v-1.5c0-.42.33-.75.75-.75Zm5 10c0 2.76-2.24 5-5 5 -2.77 0-5-2.24-5-5 0-2.77 2.23-5 5-5 2.76 0 5 2.23 5 5Zm4.25.75c.41 0 .75-.34.75-.75 0-.42-.34-.75-.75-.75h-1.5c-.42 0-.75.33-.75.75 0 .41.33.75.75.75h1.5ZM12 19c.41 0 .75.33.75.75v1.5c0 .41-.34.75-.75.75 -.42 0-.75-.34-.75-.75v-1.5c0-.42.33-.75.75-.75Zm-7.75-6.25c.41 0 .75-.34.75-.75 0-.42-.34-.75-.75-.75h-1.5c-.42 0-.75.33-.75.75 0 .41.33.75.75.75h1.5Zm-.04-8.53c.29-.3.76-.3 1.06-.001l1.5 1.5c.29.29.29.76 0 1.06 -.3.29-.77.29-1.07 0l-1.5-1.5c-.3-.3-.3-.77 0-1.07Zm1.06 15.56c-.3.29-.77.29-1.07 0 -.3-.3-.3-.77 0-1.07l1.5-1.5c.29-.3.76-.3 1.06 0 .29.29.29.76 0 1.06l-1.5 1.5ZM19.76 4.21c-.3-.3-.77-.3-1.07-.001l-1.5 1.5c-.3.29-.3.76 0 1.06 .29.29.76.29 1.06 0l1.5-1.5c.29-.3.29-.77 0-1.07Zm-1.07 15.56c.29.29.76.29 1.06 0 .29-.3.29-.77 0-1.07l-1.5-1.5c-.3-.3-.77-.3-1.07 0 -.3.29-.3.76 0 1.06l1.5 1.5Z"/></svg>