<svg viewBox="0 0 24 24" xmlns="http://www.w3.org/2000/svg"><path fill="currentColor" d="M12 2c.41 0 .75.33.75.75v.5c0 .41-.34.75-.75.75 -.42 0-.75-.34-.75-.75v-.5c0-.42.33-.75.75-.75ZM8 9c0-2.21 1.79-4 4-4 2.2 0 4 1.79 4 4 0 2.2-1.8 4-4 4 -2.21 0-4-1.8-4-4Zm4.75 5.75c0-.42-.34-.75-.75-.75 -.42 0-.75.33-.75.75v.5c0 .41.33.75.75.75 .41 0 .75-.34.75-.75v-.5ZM5.75 8c-.42 0-.75.33-.75.75 0 .41.33.75.75.75h.5c.41 0 .75-.34.75-.75C7 8.33 6.66 8 6.25 8h-.5ZM17 8.75c0-.42.33-.75.75-.75h.5c.41 0 .75.33.75.75 0 .41-.34.75-.75.75h-.5c-.42 0-.75-.34-.75-.75ZM6.71 5.78c.29.29.76.29 1.06 0 .29-.3.29-.77 0-1.07l-.5-.5c-.3-.3-.77-.3-1.07 0 -.3.29-.3.76 0 1.06l.5.5Zm1.06 6.43c-.3-.3-.77-.3-1.07 0l-.5.5c-.3.29-.3.76 0 1.06 .29.29.76.29 1.06 0l.5-.5c.29-.3.29-.77 0-1.07Zm9.49-6.44c-.3.29-.77.29-1.07 0 -.3-.3-.3-.77 0-1.07l.5-.5c.29-.3.76-.3 1.06 0 .29.29.29.76 0 1.06l-.5.5Zm-1.07 6.43c.29-.3.76-.3 1.06 0l.5.5c.29.29.29.76 0 1.06 -.3.29-.77.29-1.07 0l-.5-.5c-.3-.3-.3-.77 0-1.07ZM3.18 21.81c-.33.25-.8.2-1.06-.12 -.41-.52.11-1.06.11-1.06l0-.01 .01-.02c0-.01.02-.02.03-.04 .03-.03.08-.07.14-.11 .12-.09.3-.22.53-.37 .46-.3 1.13-.69 1.98-1.09 1.69-.79 4.11-1.57 7-1.57 2.88 0 5.3.78 7 1.56 .84.39 1.51.78 1.98 1.08 .23.14.41.27.53.36 .06.04.1.08.14.1 .01.01.03.02.03.03l.01 0 0 0 0 0c.32.25.37.73.11 1.05 -.26.32-.74.37-1.06.11l-.01-.01 -.03-.02c-.03-.02-.07-.05-.12-.09 -.11-.08-.26-.19-.47-.32 -.42-.27-1.03-.63-1.8-.99 -1.56-.72-3.76-1.44-6.38-1.44s-4.82.71-6.38 1.43c-.78.35-1.39.71-1.8.98 -.21.13-.37.24-.47.31 -.06.03-.09.06-.12.08l-.03.01 -.01 0Z"/></svg>