<svg viewBox="0 0 24 24" xmlns="http://www.w3.org/2000/svg"><path fill="currentColor" d="M11.99 3c3.16 0 4.96 2.09 5.22 4.63h.08c2.03 0 3.69 1.64 3.69 3.68 0 2.03-1.66 3.68-3.7 3.68l-.59-.01 -.01 0h-.27c-.03.05-.05.11-.09.16l-1 1.5c-.23.34-.7.43-1.05.2 -.35-.23-.44-.7-.21-1.04l.55-.84h-1.83l-.01 0h-.4c-.03.05-.05.11-.09.16l-1 1.5c-.23.34-.7.43-1.04.2 -.35-.23-.44-.7-.21-1.05l.55-.84h-1.7l-.01 0h-.53c-.03.05-.05.11-.09.16l-1 1.5c-.23.34-.7.43-1.05.2 -.35-.23-.44-.7-.21-1.04l.55-.84c-2.04-.01-3.69-1.66-3.69-3.69 0-2.04 1.65-3.69 3.69-3.69h.07c.26-2.55 2.05-4.64 5.22-4.64ZM7.11 18.83c-.23.34-.14.81.2 1.04 .34.22.81.13 1.04-.21l.99-1.5c.22-.35.13-.82-.21-1.04 -.35-.23-.82-.14-1.05.2l-1 1.5Zm4.2 1.03c-.35-.23-.44-.7-.21-1.04l.99-1.5c.22-.35.69-.44 1.04-.21 .34.22.43.69.2 1.04l-1 1.49c-.23.34-.7.43-1.04.2Z"/></svg>