<svg viewBox="0 0 24 24" xmlns="http://www.w3.org/2000/svg"><path fill="currentColor" d="M12 4c3.16 0 4.96 2.09 5.22 4.63h.07c2.03 0 3.69 1.64 3.69 3.68 0 2.03-1.66 3.68-3.7 3.68l-.59-.01 -1.59 2.63c-.21.35-.67.48-1.03.27 -.33-.19-.46-.6-.32-.94l.04-.1 1.14-1.89h-2.14l-1.59 2.63c-.21.35-.67.48-1.03.27 -.33-.19-.46-.6-.32-.94l.04-.1 1.14-1.89H8.89L7.3 18.55c-.21.35-.67.48-1.03.27 -.33-.19-.46-.6-.32-.94l.04-.1 1.14-1.89 -.57 0c-2.04 0-3.7-1.65-3.7-3.69s1.65-3.69 3.69-3.69h.07c.26-2.55 2.05-4.64 5.22-4.64Z"/></svg>