<svg viewBox="0 0 24 24" xmlns="http://www.w3.org/2000/svg"><path fill="currentColor" d="M6.84 13.984c.53-.08 1.05-.08 1.58 0 .04 0 .08.01.13.02 1.29.21 2.52.83 3.82 1.59 2.35 1.37 4.94 1.1 6.43.03 .33-.25.8-.17 1.04.17 .24.33.16.8-.18 1.04 -2.01 1.43-5.24 1.68-8.07.03 -1.29-.76-2.32-1.25-3.31-1.42 -.96-.16-1.96-.01-3.21.67 -.37.19-.82.06-1.02-.3 -.2-.37-.07-.82.29-1.02 .86-.47 1.66-.75 2.45-.86Zm2.79-2.71c-.36-.12-.73-.22-1.09-.28 -.66-.11-1.32-.11-2 .02 -.01 0 0-.01 0 0 -.7.13-1.42.39-2.17.81 -.37.19-.5.65-.3 1.01 .19.36.65.49 1.01.29 1.25-.69 2.24-.83 3.2-.68 .27.04.55.11.84.21 .74.24 1.53.65 2.46 1.19 .06.03.12.06.18.1 2.78 1.53 5.91 1.26 7.88-.15 .33-.25.41-.71.17-1.05 -.25-.34-.71-.42-1.05-.18 -.41.29-.91.52-1.45.67 0 0 0-.01 0 0 -1.09.3-2.38.31-3.68-.13 -.44-.15-.88-.35-1.32-.6 -.94-.55-1.83-1.03-2.74-1.33Zm7.88.72c0 .07-.01.14-.01.2 -1.21.48-2.97.5-4.65-.48 -1.31-.77-2.68-1.48-4.17-1.72 -.63-.11-1.24-.12-1.86-.05 .8-2.05 2.8-3.5 5.14-3.5 3.05 0 5.525 2.47 5.525 5.52Zm-5.41 10c-.05 0-.09.01-.13.01 -.05 0-.09-.01-.13-.02h.25ZM5.95 4.93l-.09-.08c-.3-.22-.72-.2-.98.07 -.3.29-.3.76 0 1.06l1.06 1.06 .08.07c.29.21.71.19.97-.08 .29-.3.29-.77 0-1.07L5.92 4.89Zm13.17.97c.21-.3.19-.72-.08-.98 -.3-.3-.77-.3-1.07 0L16.9 5.98l-.08.08c-.22.29-.2.71.07.97 .29.29.76.29 1.06 0l1.06-1.07 .07-.09Zm-6.41-3.28c-.05-.37-.37-.65-.75-.65 -.42 0-.75.33-.75.75v1.5l0 .1c.04.36.36.64.74.64 .41 0 .75-.34.75-.75v-1.5l-.01-.11ZM5.07 19.14c1.25-.69 2.24-.83 3.2-.68 .99.16 2.01.65 3.3 1.41 2.82 1.64 6.05 1.39 8.06-.04 .33-.25.41-.71.17-1.05 -.25-.34-.71-.42-1.05-.18 -1.5 1.06-4.08 1.33-6.44-.04 -1.31-.76-2.53-1.39-3.83-1.6 -1.34-.22-2.67.01-4.17.83 -.37.19-.5.65-.3 1.01 .19.36.65.49 1.01.29Z"/></svg>