<svg viewBox="0 0 24 24" xmlns="http://www.w3.org/2000/svg"><path fill="currentColor" d="M7.74 6.19c.65-1.63 2.23-2.7 3.98-2.7 2.34 0 4.26 1.89 4.26 4.25 0 2.34-1.91 4.24-4.25 4.24H2.98c-.56 0-1-.45-1-1 0-.56.44-1 1-1h8.75c1.24 0 2.25-1.01 2.25-2.25s-1.02-2.26-2.27-2.26c-.94 0-1.79.57-2.13 1.43l-.18.43c-.21.51-.79.76-1.3.55 -.52-.21-.77-.79-.56-1.3l.17-.44Zm8.05 5.49c.43-1.3 1.64-2.19 3.01-2.19 1.75 0 3.17 1.42 3.17 3.17v.07c0 1.79-1.46 3.25-3.25 3.25h-1c.16.38.24.8.24 1.25v.07c0 1.75-1.43 3.17-3.18 3.17 -1.38 0-2.59-.9-3.02-2.19 -.18-.53.1-1.1.63-1.27 .52-.18 1.09.1 1.26.63 .16.48.62.81 1.12.81 .65 0 1.17-.53 1.17-1.18v-.08c0-.7-.56-1.25-1.25-1.25H8.94c-.01 0-.01 0-.01 0h-6c-.56 0-1-.45-1-1 0-.56.44-1 1-1h15.74c.69 0 1.25-.56 1.25-1.25v-.08c0-.66-.53-1.18-1.18-1.18 -.51 0-.96.32-1.13.81 -.18.52-.75.8-1.27.63 -.53-.18-.81-.75-.64-1.27Z"/></svg>