<svg viewBox="0 0 24 24" xmlns="http://www.w3.org/2000/svg"><path fill="currentColor" d="M12 2c.55 0 1 .44 1 1v2.55l1.7-1.71c.39-.4 1.02-.4 1.41 0 .39.39.39 1.02 0 1.41l-3.13 3.12v2.62h2.62l3.12-3.13c.39-.4 1.02-.4 1.41 0 .39.39.39 1.02 0 1.41l-1.71 1.7h2.55c.55 0 1 .44 1 1 0 .55-.45 1-1 1h-2.56l1.7 1.7c.39.39.39 1.02 0 1.41 -.4.39-1.03.39-1.42 0l-3.13-3.13h-2.63v2.62l3.12 3.12c.39.39.39 1.02 0 1.41 -.4.39-1.03.39-1.42 0l-1.71-1.71v2.55c0 .55-.45 1-1 1 -.56 0-1-.45-1-1v-2.56l-1.71 1.7c-.4.39-1.03.39-1.42 0 -.4-.4-.4-1.03 0-1.42l3.12-3.13V12.9H8.28l-3.13 3.12c-.4.39-1.03.39-1.42 0 -.4-.4-.4-1.03 0-1.42l1.7-1.71H2.87c-.56 0-1-.45-1-1 0-.56.44-1 1-1h2.55L3.71 9.18c-.4-.4-.4-1.03 0-1.42 .39-.4 1.02-.4 1.41 0l3.12 3.12h2.62V8.25L7.73 5.12c-.4-.4-.4-1.03 0-1.42 .39-.4 1.02-.4 1.41 0l1.7 1.7V2.84c0-.56.44-1 1-1Z"/></svg>