<svg viewBox="0 0 24 24" xmlns="http://www.w3.org/2000/svg"><path fill="currentColor" d="M15.989 4l-3.067 3.06c-.34.33-.61.73-.78 1.18l-.09.22 -.74 2.29c-.14.43-.15.89-.02 1.33 .34 1.13 1.5 1.8 2.64 1.54l.15-.05 2.32-.7c.47-.15.91-.39 1.28-.71l.18-.17L21.95 7.9v8.8c0 1.79-1.46 3.25-3.25 3.25H5.2c-1.8 0-3.26-1.46-3.26-3.25l0-4.2 .07-.04 .07-.05 3.75-2.37 .09-.06c.33-.15.73-.04.93.28 .12.19.14.43.07.64l-.05.1 -1.21 2.28 -.08.14c-.48 1.07-.05 2.34 1 2.89 .62.32 1.35.34 1.98.05l.16-.09 1.76-1 .08-.06c.29-.23.38-.64.19-.97 -.19-.33-.59-.47-.94-.33l-.1.04 -1.76.99 -.1.04c-.21.07-.43.06-.63-.04 -.34-.18-.49-.58-.36-.93l.04-.1 1.2-2.29 .07-.17c.28-.68.23-1.46-.17-2.09 -.64-1.01-1.93-1.34-2.96-.8l-.15.08 -3.12 1.95V7.03c0-1.74 1.35-3.15 3.06-3.25l.18-.01h10.73Zm5.18-.46l.13.12 .12.13c.76.89.72 2.23-.13 3.07l-4.29 4.27c-.27.26-.59.45-.95.56l-2.33.69c-.53.15-1.09-.15-1.25-.68 -.06-.2-.06-.41 0-.6l.73-2.3c.1-.35.29-.65.55-.91l4.29-4.29c.84-.85 2.18-.89 3.07-.12Z"/></svg>