<svg viewBox="0 0 24 24" xmlns="http://www.w3.org/2000/svg"><g fill="currentColor"><path d="M21.41 9.74c-.4-.58-.86-1.13-1.34-1.62C15.63 3.68 8.43 3.68 4 8.12c-.47.46-.92 1.01-1.33 1.6 -.29.4-.19.96.22 1.25 .4.28.96.18 1.25-.23 .35-.51.73-.98 1.11-1.36 3.73-3.74 9.78-3.74 13.52 0 .4.4.79.87 1.13 1.36 .28.4.84.51 1.25.22 .4-.29.51-.85.22-1.26ZM8.53 13.25c1.35-1.36 3.3-1.77 5-1.22 -.6.43-1.13.96-1.55 1.56 -.8.01-1.59.31-2.19.92 -.28.27-.5.6-.66.97 -.2.45-.73.66-1.19.46 -.46-.2-.67-.73-.47-1.19 .25-.58.59-1.1 1.03-1.53Zm8.97-2.87c.13.13.26.27.39.42 -.17-.02-.34-.02-.51-.02 -.65 0-1.28.09-1.87.26 -2.33-1.7-5.6-1.5-7.69.59 -.46.45-.82.95-1.1 1.51 -.23.44-.77.62-1.21.39 -.45-.23-.63-.77-.4-1.21 .36-.73.84-1.39 1.43-1.98 3.01-3.02 7.91-3.02 10.93 0Zm-3.03 3.33c.36 1.29-.42 2.64-1.72 2.97l-.56.14c-.02.18-.03.36-.03.55 0 .22.01.44.03.66l.41.09c1.34.31 2.14 1.7 1.74 3.02l-.16.5c.3.24.64.45 1 .62l.39-.42c.94-1.01 2.54-1.01 3.49 0l.4.42c.35-.17.68-.37.98-.6l-.19-.67c-.37-1.3.41-2.65 1.71-2.98l.55-.15c.01-.19.02-.37.02-.56 0-.23-.02-.45-.04-.67l-.42-.1c-1.35-.32-2.15-1.71-1.75-3.03l.15-.51c-.31-.25-.65-.46-1.01-.63l-.39.41c-.95 1-2.55 1-3.5-.01l-.41-.43c-.36.16-.69.36-.99.59l.18.66Zm2.92 4.86c-.67 0-1.2-.54-1.2-1.2 0-.67.53-1.2 1.2-1.2 .66 0 1.2.53 1.2 1.2 0 .66-.54 1.2-1.2 1.2Z"/><path fill="currentColor" fill-rule="evenodd" d="M3.97 8.09c4.45-4.46 11.68-4.46 16.13 0 .48.48.94 1.04 1.34 1.61 .29.43.18 1.02-.25 1.32 -.44.29-1.03.18-1.33-.25 -.34-.49-.73-.96-1.13-1.36 -3.72-3.72-9.74-3.72-13.46 0 -.39.38-.77.84-1.12 1.35 -.3.43-.9.53-1.33.23 -.44-.3-.54-.891-.24-1.33 .4-.6.86-1.15 1.33-1.62Zm16.06.07c-4.42-4.42-11.58-4.42-16 0 -.47.46-.92 1.01-1.32 1.59 -.27.38-.18.91.21 1.18 .38.26.91.17 1.18-.22 .35-.51.73-.98 1.12-1.37 3.75-3.76 9.83-3.76 13.59 0 .4.4.79.87 1.13 1.36 .26.38.79.48 1.18.21 .38-.27.48-.8.21-1.19 -.4-.58-.86-1.13-1.34-1.61Zm-2.57 2.26c-3-3-7.87-3-10.87 0C6 11 5.53 11.65 5.16 12.37c-.22.41-.05.93.37 1.14 .41.21.93.04 1.14-.38 .28-.57.65-1.08 1.1-1.53 2.1-2.11 5.39-2.32 7.73-.62 .58-.18 1.21-.27 1.85-.27 .12 0 .25 0 .38.01 -.11-.12-.21-.23-.32-.34Zm-10.94-.08c3.03-3.04 7.96-3.04 11 0 .13.13.26.27.39.42l.07.09 -.12-.01c-.17-.02-.33-.02-.5-.02 -.65 0-1.27.09-1.85.26l-.03 0 -.02-.02c-2.31-1.69-5.55-1.49-7.63.59 -.45.44-.81.94-1.09 1.49 -.24.46-.81.65-1.28.41 -.47-.24-.66-.81-.42-1.28 .36-.74.85-1.4 1.43-1.99Zm6.89 1.7c-1.67-.5-3.55-.09-4.87 1.23 -.44.43-.78.94-1.03 1.51 -.19.43 0 .93.43 1.11 .43.18.93-.01 1.11-.44 .16-.38.39-.72.66-1 .6-.61 1.39-.93 2.19-.94 .4-.58.9-1.09 1.46-1.5ZM8.47 13.2c1.36-1.37 3.33-1.78 5.05-1.24l.09.03 -.09.05c-.6.42-1.12.95-1.54 1.55l-.02.02 -.03 0c-.79.01-1.56.31-2.16.9 -.27.26-.49.59-.65.96 -.22.48-.78.69-1.26.48 -.49-.22-.7-.78-.49-1.26 .25-.58.6-1.11 1.04-1.55Zm6.78-.82l.42.45c.92.98 2.49.98 3.41 0l.41-.44 .03.01c.36.17.69.38 1.01.62l.02.02 -.17.53c-.39 1.29.39 2.64 1.71 2.95l.45.1 0 .03c.02.22.03.44.03.67 0 .18-.01.37-.03.55l-.01.03 -.59.14c-1.28.32-2.04 1.64-1.69 2.91l.19.7 -.03.02c-.31.23-.65.43-1 .6l-.04.01 -.43-.46c-.93-.99-2.5-.99-3.42-.01l-.42.43 -.04-.02c-.37-.18-.7-.39-1.02-.63l-.03-.03 .16-.54c.38-1.3-.4-2.65-1.72-2.96l-.46-.11 -.01-.04c-.03-.22-.04-.45-.04-.68 0-.19 0-.38.02-.56l0-.04 .58-.15c1.27-.33 2.03-1.65 1.68-2.92l-.2-.71 .02-.03c.3-.24.64-.44.99-.61l.03-.02Zm-.95.67l.17.63c.37 1.32-.42 2.69-1.76 3.03l-.52.13c-.02.16-.03.34-.03.51 0 .21.01.41.03.62l.38.09c1.37.32 2.18 1.73 1.78 3.08l-.15.47c.28.22.6.41.93.57l.36-.39c.96-1.03 2.59-1.03 3.56 0l.38.4c.32-.16.63-.34.91-.56l-.18-.64c-.38-1.33.41-2.7 1.75-3.04l.51-.14c.01-.17.02-.35.02-.52 0-.22-.02-.42-.04-.63l-.39-.1c-1.38-.33-2.19-1.74-1.79-3.09l.14-.48c-.29-.23-.61-.42-.94-.58l-.37.38c-.97 1.02-2.6 1.02-3.57-.01l-.39-.41c-.33.15-.64.33-.92.55Zm3.05 3.16c-.64 0-1.15.51-1.15 1.15 0 .63.51 1.15 1.15 1.15 .63 0 1.15-.52 1.15-1.15 0-.64-.52-1.15-1.15-1.15Zm-1.25 1.15c0-.7.55-1.25 1.25-1.25 .69 0 1.25.55 1.25 1.25 0 .69-.56 1.25-1.25 1.25 -.7 0-1.25-.56-1.25-1.25Z"/></g></svg>