<svg viewBox="0 0 24 24" xmlns="http://www.w3.org/2000/svg"><path fill="currentColor" d="M12.85 14.273l7.43 7.43c.39.39 1.02.39 1.41 0 .39-.4.39-1.03-.01-1.42l-18-18.01c-.4-.4-1.03-.4-1.42 0 -.4.39-.4 1.02 0 1.41l3.09 3.09c-.65.42-1.26.92-1.83 1.49 -.49.48-.97 1.06-1.39 1.68 -.32.45-.21 1.07.25 1.39 .45.31 1.07.2 1.39-.26 .36-.53.76-1.02 1.16-1.41 .57-.58 1.19-1.06 1.85-1.47l1.15 1.15c-.61.34-1.19.78-1.7 1.3 -.62.61-1.12 1.31-1.51 2.07 -.25.49-.06 1.09.44 1.34 .49.24 1.09.05 1.34-.45 .29-.58.66-1.1 1.13-1.57 .52-.53 1.12-.94 1.76-1.24l1.4 1.4c-.94.21-1.82.67-2.55 1.4 -.47.46-.83 1-1.1 1.61 -.23.5 0 1.09.51 1.31 .5.22 1.09-.01 1.31-.52 .16-.39.39-.73.67-1.01 .84-.85 2.03-1.13 3.1-.85Zm-1.34-5.93l2.22 2.22c.95.27 1.86.79 2.61 1.55 .44.44.83.99 1.13 1.58 .25.49.85.68 1.34.43 .49-.26.68-.86.43-1.35 -.4-.77-.91-1.49-1.51-2.09 -1.72-1.72-4.02-2.51-6.26-2.37Zm-3.02-3.02l1.65 1.65c3.1-.59 6.43.32 8.84 2.73 .42.42.82.9 1.17 1.41 .31.45.93.56 1.39.25 .45-.32.56-.94.25-1.4 -.42-.61-.9-1.19-1.41-1.7 -3.23-3.23-7.84-4.22-11.91-2.98Zm4.55 11.11c.58.58.58 1.53 0 2.12 -.59.58-1.54.58-2.13 0 -.59-.59-.59-1.54 0-2.13 .58-.59 1.53-.59 2.12 0Z"/></svg>