<svg viewBox="0 0 24 24" xmlns="http://www.w3.org/2000/svg"><path fill="currentColor" d="M17.78 10.7c.59.59 1.11 1.31 1.5 2.08 .25.49.05 1.09-.44 1.34 -.5.25-1.1.05-1.35-.44 -.3-.59-.7-1.14-1.14-1.59 -1.91-1.91-4.75-2.3-7.04-1.18 -.44-.6-1.06-1.06-1.78-1.29 3.15-2.09 7.44-1.74 10.21 1.04Zm-12.81-1c-.09.08-.18.17-.26.27 -.6.35-1.09.87-1.39 1.5 -.3.1-.64.07-.92-.12 -.46-.32-.57-.94-.26-1.4 .42-.62.9-1.2 1.38-1.69 4.65-4.66 12.19-4.66 16.85 0 .5.5.98 1.08 1.4 1.69 .31.45.19 1.07-.26 1.39 -.46.31-1.08.19-1.4-.26 -.35-.51-.76-1-1.18-1.42 -3.88-3.88-10.16-3.88-14.03 0Zm10.75 3.98c.46.46.83 1.02 1.1 1.62 .22.5-.01 1.09-.52 1.31 -.51.22-1.1-.01-1.32-.52 -.17-.38-.41-.74-.69-1.02 -.74-.74-1.74-1.05-2.69-.93 -.36-.58-.95-1.01-1.64-1.15v-.05c0-.14-.01-.28-.03-.42 1.9-.82 4.2-.45 5.75 1.11Zm-2.68 2.74c.58.58.58 1.53 0 2.12 -.3.29-.68.43-1.07.43v-3.01c.38 0 .76.14 1.06.43Zm-9.07-2.45v-1c0-1.39 1.11-2.5 2.5-2.5 1.38 0 2.5 1.11 2.5 2.5v1h.5c.82 0 1.5.67 1.5 1.5v5c0 .82-.68 1.5-1.5 1.5h-6c-.83 0-1.5-.68-1.5-1.5v-5c0-.83.67-1.5 1.5-1.5h.5Zm1.5-1v1h2v-1c0-.56-.45-1-1-1 -.56 0-1 .44-1 1Zm2 5c0-.56-.45-1-1-1 -.56 0-1 .44-1 1 0 .55.44 1 1 1 .55 0 1-.45 1-1Z"/></svg>