<svg viewBox="0 0 24 24" xmlns="http://www.w3.org/2000/svg"><path fill="currentColor" d="M17.78 10.7c.11.11.23.24.34.37 -.8-.21-1.68-.02-2.31.55 -2.41-1.9-5.91-1.74-8.13.48 -.47.46-.85.98-1.14 1.56 -.25.49-.86.69-1.35.44 -.5-.25-.7-.86-.45-1.35 .38-.77.88-1.46 1.5-2.08 3.17-3.18 8.32-3.18 11.49 0Zm-5.83 8.29l1.21-2.44c-.04-.05-.08-.09-.12-.13 -.59-.59-1.54-.59-2.13 0 -.59.58-.59 1.53 0 2.12 .28.28.64.42 1.01.43Zm2.07-4.15l.9-1.82c-2.04-1.36-4.81-1.14-6.6.65 -.47.46-.83 1-1.1 1.61 -.23.5 0 1.09.51 1.31 .5.22 1.09-.01 1.31-.52 .16-.39.39-.73.67-1.01 1.16-1.17 3.01-1.26 4.27-.26Zm6.39-6.56c.5.5.98 1.08 1.4 1.69 .31.45.19 1.07-.26 1.39 -.46.31-1.08.19-1.4-.26 -.35-.51-.76-1-1.18-1.42 -3.88-3.88-10.16-3.88-14.03 0 -.4.39-.8.88-1.17 1.4 -.32.45-.94.56-1.4.25 -.46-.32-.57-.94-.26-1.4 .42-.62.9-1.2 1.38-1.69 4.65-4.66 12.19-4.66 16.85 0Zm-4.27 4.53l-4 7.99c-.5.99.22 2.17 1.34 2.17h7.99c1.11 0 1.84-1.18 1.34-2.18l-4-8c-.56-1.11-2.14-1.11-2.69 0Zm1.84 2.66v3c0 .27-.23.5-.51.5s-.51-.23-.51-.51v-3.01c0-.28.22-.51.5-.51 .27 0 .5.22.5.5Zm-.51 5.5c-.28 0-.51-.23-.51-.51s.22-.51.5-.51c.27 0 .5.22.5.5 0 .27-.23.5-.51.5Z"/></svg>