<svg viewBox="0 0 24 24" xmlns="http://www.w3.org/2000/svg"><path fill="currentColor" d="M17.78 10.7c.59.59 1.11 1.31 1.5 2.08 .25.49.05 1.09-.44 1.34 -.5.25-1.1.05-1.35-.44 -.3-.59-.7-1.14-1.14-1.59 -2.4-2.4-6.28-2.4-8.67 0 -.47.46-.85.98-1.14 1.56 -.25.49-.86.69-1.35.44 -.5-.25-.7-.86-.45-1.35 .38-.77.88-1.46 1.5-2.08 3.17-3.18 8.32-3.18 11.49 0Zm-2.05 2.99c.46.46.83 1.02 1.1 1.62 .22.5-.01 1.09-.52 1.31 -.51.22-1.1-.01-1.32-.52 -.17-.38-.41-.74-.69-1.02 -1.27-1.27-3.31-1.27-4.58 0 -.28.27-.51.61-.68 1 -.23.5-.82.73-1.32.51 -.51-.23-.74-.82-.52-1.32 .26-.61.63-1.16 1.09-1.62 2.04-2.05 5.35-2.05 7.4 0Zm4.68-5.41c.5.5.98 1.08 1.4 1.69 .31.45.19 1.07-.26 1.39 -.46.31-1.08.19-1.4-.26 -.35-.51-.76-1-1.18-1.42 -3.88-3.88-10.16-3.88-14.03 0 -.4.39-.8.88-1.17 1.4 -.32.45-.94.56-1.4.25 -.46-.32-.57-.94-.26-1.4 .42-.62.9-1.2 1.38-1.69 4.65-4.66 12.19-4.66 16.85 0Zm-7.36 8.14c.58.58.58 1.53 0 2.12 -.59.58-1.54.58-2.13 0 -.59-.59-.59-1.54 0-2.13 .58-.59 1.53-.59 2.12 0Z"/></svg>