<svg viewBox="0 0 24 24" xmlns="http://www.w3.org/2000/svg"><path fill="currentColor" d="M3.6 6.6c0-1.66 1.34-3 3-3h10.8c1.65 0 3 1.34 3 3v.6H3.6v1.2h14.39c-2.32 0-4.2 1.88-4.2 4.2 0 1.17.48 2.23 1.26 3 -.98 0-1.76.49-2.24 1.03 -.48.53-.83 1.28-.83 2.1v.38c0 .44.06.87.19 1.27h-5.6c-1.66 0-3-1.35-3-3V6.58Zm14.4 9c-1.66 0-3-1.35-3-3 0-1.66 1.34-3 3-3 .98 0 1.85.47 2.4 1.2h-2.41V12h2.94c.03.19.06.39.06.6 0 .2-.03.4-.06.6h-2.94v1.2h2.4c-.55.72-1.42 1.2-2.41 1.2Zm-2.94 1.2c-.56 0-1.03.28-1.34.63 -.32.34-.53.82-.53 1.3v.38c0 1.96 1.95 3.67 4.8 3.67 1.48 0 2.73-.48 3.58-1.2h-3.59v-1.2h4.51c.17-.38.27-.79.28-1.2h-4.8v-1.2h4.64c-.1-.21-.22-.41-.37-.57 -.32-.36-.79-.64-1.34-.64h-5.88Z"/></svg>