<svg viewBox="0 0 24 24" xmlns="http://www.w3.org/2000/svg"><g fill="currentColor"><path d="M5.99 11.25c0-.34.26-.6.6-.6h10.8c.33 0 .6.26.6.6 0 .33-.27.6-.6.6H6.58c-.34 0-.6-.27-.6-.6Zm0 2.55c0-.34.26-.6.6-.6h6c.33 0 .6.26.6.6 0 .33-.27.6-.6.6H6.58c-.34 0-.6-.27-.6-.6Zm8.4 0c0-.34.26-.6.6-.6h2.4c.33 0 .6.26.6.6 0 .33-.27.6-.6.6h-2.4c-.34 0-.6-.27-.6-.6Zm-3.6 2.44c0-.34.26-.6.6-.6h6c.33 0 .6.26.6.6 0 .33-.27.6-.6.6h-6c-.34 0-.6-.27-.6-.6Zm-4.81 0c0-.34.26-.6.6-.6h2.4c.33 0 .6.26.6.6 0 .33-.27.6-.6.6h-2.4c-.34 0-.6-.27-.6-.6Zm1.2-12.65c-1.99 0-3.6 1.61-3.6 3.6v9.6c0 1.98 1.61 3.6 3.6 3.6h9.59c1.98 0 3.6-1.62 3.6-3.6v-9.6c0-1.99-1.62-3.6-3.61-3.6h-9.6Zm-2.4 13.2v-8.4h14.4v8.4c0 1.32-1.08 2.4-2.41 2.4h-9.6c-1.33 0-2.4-1.08-2.4-2.4Z"/><path fill="currentColor" fill-rule="evenodd" d="M3.44 7.2c0-2.08 1.67-3.75 3.75-3.75h9.59c2.07 0 3.75 1.67 3.75 3.75v9.6c0 2.07-1.68 3.75-3.75 3.75h-9.6c-2.08 0-3.75-1.68-3.75-3.75V7.2Zm3.75-3.45c-1.91 0-3.45 1.54-3.45 3.45v9.6c0 1.9 1.54 3.45 3.45 3.45h9.59c1.9 0 3.45-1.55 3.45-3.45V7.2c0-1.91-1.55-3.45-3.46-3.45h-9.6Zm-2.55 4.5h14.69v8.55c0 1.4-1.15 2.55-2.55 2.55h-9.6c-1.41 0-2.55-1.15-2.55-2.55V8.25Zm.3.3v8.25c0 1.24 1 2.25 2.25 2.25h9.59c1.24 0 2.25-1.01 2.25-2.25V8.55H4.93Zm1.65 2.24c-.25 0-.45.2-.45.45 0 .24.2.45.45.45h10.8c.24 0 .44-.21.44-.45 0-.25-.21-.45-.45-.45H6.57Zm-.75.45c0-.42.33-.75.75-.75h10.8c.41 0 .75.33.75.75 0 .41-.34.75-.75.75H6.58c-.42 0-.75-.34-.75-.75Zm.75 2.1c-.25 0-.45.2-.45.45 0 .24.2.45.45.45h5.99c.24 0 .45-.21.45-.45 0-.25-.21-.45-.46-.45h-6Zm-.75.45c0-.42.33-.75.75-.75h5.99c.41 0 .75.33.75.75 0 .41-.34.75-.75.75h-6c-.42 0-.75-.34-.75-.75Zm9.15-.45c-.25 0-.45.2-.45.45 0 .24.2.45.45.45h2.4c.24 0 .44-.21.44-.45 0-.25-.21-.45-.45-.45h-2.4Zm-.75.45c0-.42.33-.75.75-.75h2.4c.41 0 .75.33.75.75 0 .41-.34.75-.75.75h-2.4c-.42 0-.75-.34-.75-.75Zm-7.66 1.99c-.25 0-.45.2-.45.45 0 .24.2.45.45.45h2.4c.24 0 .45-.21.45-.45 0-.25-.21-.45-.45-.45h-2.4Zm-.75.45c0-.42.33-.75.75-.75h2.4c.41 0 .75.33.75.75 0 .41-.34.75-.75.75h-2.4c-.42 0-.75-.34-.75-.75Zm5.55-.45c-.25 0-.45.2-.45.45 0 .24.2.45.45.45h6c.24 0 .44-.21.44-.45 0-.25-.21-.45-.45-.45h-6Zm-.75.45c0-.42.33-.75.75-.75h6c.41 0 .75.33.75.75 0 .41-.34.75-.75.75h-6c-.42 0-.75-.34-.75-.75Z"/></g></svg>