<svg viewBox="0 0 24 24" xmlns="http://www.w3.org/2000/svg"><g fill="currentColor"><path d="M2.39 5.4c0-1.66 1.34-3 3-3h9.59c1.65 0 3 1.34 3 3V15c0 1.65-1.35 3-3 3h-1.91c.13-.39.13-.82 0-1.2h1.9c.99 0 1.8-.81 1.8-1.8V7.2H3.57v6.1c-.25.08-.48.22-.68.42l-.53.52V5.38Zm14.39 16.2h-7.8c.46 0 .92-.18 1.27-.53l.67-.68h5.85c1.98 0 3.6-1.62 3.6-3.6v-7.8c0-.79-.51-1.46-1.2-1.7V6.04c1.36.27 2.4 1.48 2.4 2.93v7.79c0 2.651-2.15 4.8-4.8 4.8Zm-4.98-3.78l-2.41 2.4c-.24.23-.62.23-.85 0 -.24-.24-.24-.62 0-.85l1.37-1.38H3.2l1.37 1.37c.23.23.23.61 0 .84 -.24.23-.62.23-.85 0l-2.4-2.4c-.24-.24-.24-.62 0-.85l2.4-2.4c.23-.24.61-.24.84 0 .23.23.23.61 0 .84l-1.38 1.37h2.15 4.55L8.5 15.38c-.24-.24-.24-.62 0-.85 .23-.24.61-.24.84 0l2.4 2.4c.23.23.23.61 0 .84Zm-7.94-1.03h1.5 .08"/><path fill="currentColor" fill-rule="evenodd" d="M5.39 2.55c-1.58 0-2.86 1.27-2.86 2.85v8.49l.27-.28c.18-.19.4-.33.62-.43v-6c0-.09.06-.15.15-.15h13.2c.08 0 .15.06.15.15v7.8c0 1.07-.88 1.95-1.95 1.95h-1.71c.06.29.06.6 0 .9h1.7c1.57 0 2.85-1.28 2.85-2.85v-9.6c0-1.58-1.28-2.85-2.85-2.85h-9.6ZM2.23 5.4c0-1.74 1.41-3.15 3.15-3.15h9.59c1.73 0 3.15 1.41 3.15 3.15V15c0 1.73-1.42 3.15-3.15 3.15h-1.91c-.05 0-.1-.03-.13-.07 -.03-.04-.04-.1-.02-.14 .12-.36.12-.75 0-1.11 -.02-.05-.01-.1.01-.14 .02-.04.07-.07.12-.07h1.9c.91 0 1.65-.74 1.65-1.65V7.32H3.69v5.95c0 .06-.05.12-.11.14 -.23.07-.44.2-.62.38l-.53.52c-.05.04-.11.05-.17.03 -.06-.03-.1-.08-.1-.14V5.34Zm16.85.54c.03-.03.08-.04.12-.04 1.43.29 2.52 1.56 2.52 3.08v7.79c0 2.73-2.22 4.95-4.95 4.95h-7.8c-.09 0-.15-.07-.15-.15 0-.09.06-.15.15-.15 .42 0 .84-.17 1.16-.49l.67-.68c.02-.03.06-.05.1-.05h5.85c1.9 0 3.45-1.55 3.45-3.45v-7.8c0-.72-.46-1.33-1.1-1.56 -.06-.03-.1-.08-.1-.15V5.99c0-.05.02-.09.05-.12Zm-9.07 15.5h6.75c2.56 0 4.65-2.09 4.65-4.65v-7.8c0-1.32-.89-2.43-2.1-2.76v.94c.7.29 1.2.98 1.2 1.8v7.79c0 2.07-1.68 3.75-3.75 3.75h-5.8l-.63.62c-.11.1-.22.19-.34.27Zm-5.53-6.77c-.18-.18-.47-.18-.64 0l-2.4 2.4c-.18.17-.18.46 0 .63l2.4 2.4c.17.17.46.17.63 0 .17-.18.17-.47 0-.64l-1.38-1.38c-.05-.05-.06-.11-.04-.17 .02-.06.07-.1.13-.1h6.7c.06 0 .11.03.13.09 .02.05.01.12-.04.16l-1.38 1.37c-.18.17-.18.46 0 .63 .17.17.46.17.63 0l2.4-2.4c.17-.18.17-.47 0-.64l-2.4-2.4c-.18-.18-.47-.18-.64 0 -.18.17-.18.46 0 .63l1.37 1.37c.04.04.05.1.03.16 -.03.05-.08.09-.14.09H3.13c-.07 0-.12-.04-.14-.1 -.03-.06-.02-.13.03-.17l1.37-1.38c.17-.18.17-.47 0-.64Zm5.07 1.96l-1.12-1.12c-.3-.3-.3-.77 0-1.07 .29-.3.76-.3 1.06 0l2.39 2.4c.29.29.29.76 0 1.06l-2.4 2.4c-.3.29-.77.29-1.07 0 -.3-.3-.3-.77 0-1.07l1.11-1.12H3.54l1.11 1.11c.29.29.29.76 0 1.06 -.3.29-.77.29-1.07 0l-2.4-2.4c-.3-.3-.3-.77 0-1.07l2.4-2.4c.29-.3.76-.3 1.06 0 .29.29.29.76 0 1.06l-1.12 1.11h5.97Z"/></g></svg>