<svg viewBox="0 0 24 24" xmlns="http://www.w3.org/2000/svg"><g fill="currentColor"><path d="M3 6.25C3 4.45 4.45 3 6.25 3h11.5C19.54 3 21 4.45 21 6.25v5.77c-.47-.3-.97-.54-1.5-.71V8.49h-15v9.25c0 .96.78 1.75 1.75 1.75h5.06c.17.53.41 1.03.7 1.5H6.23c-1.8 0-3.25-1.46-3.25-3.25V6.24Z"/><path fill="currentColor" fill-rule="evenodd" d="M17.5 23c-3.04 0-5.5-2.47-5.5-5.5 0-3.04 2.46-5.5 5.5-5.5 3.03 0 5.5 2.46 5.5 5.5 0 3.03-2.47 5.5-5.5 5.5Zm3-5c.27 0 .5-.23.5-.5 0-.28-.23-.5-.5-.5h-4.8l1.64-1.65c.19-.2.19-.52 0-.71 -.2-.2-.52-.2-.71 0l-2.5 2.5c-.2.19-.2.51 0 .7l2.5 2.5c.19.19.51.19.7 0 .19-.2.19-.52 0-.71l-1.65-1.65h4.79Z"/></g></svg>