<svg viewBox="0 0 24 24" xmlns="http://www.w3.org/2000/svg"><g fill="currentColor"><path d="M3.59 7.2c0-1.99 1.61-3.6 3.6-3.6h9.59c1.98 0 3.6 1.61 3.6 3.6v3.6c-.41.01-.82.11-1.2.27V8.39H4.77v8.4c0 1.32 1.07 2.4 2.4 2.4h4.16c-.02.06-.04.12-.06.18l-.26 1.01H7.14c-1.99 0-3.6-1.62-3.6-3.6v-9.6Zm9.57 11.25l5.79-5.8c.87-.88 2.29-.88 3.17 0 .87.87.87 2.29 0 3.17l-5.8 5.79c-.34.33-.77.57-1.23.69l-1.8.44c-.79.19-1.49-.52-1.3-1.3l.44-1.8c.11-.47.35-.89.69-1.23Z"/><path fill="currentColor" fill-rule="evenodd" d="M7.19 3.75c-1.91 0-3.45 1.54-3.45 3.45v9.6c0 1.9 1.54 3.45 3.45 3.45h3.74l.22-.9H7.17c-1.41 0-2.55-1.15-2.55-2.55V8.25h14.69v2.6c.29-.11.59-.17.9-.2V7.18c0-1.91-1.55-3.45-3.46-3.45h-9.6ZM3.44 7.2c0-2.08 1.67-3.75 3.75-3.75h9.59c2.07 0 3.75 1.67 3.75 3.75v3.74l-.15 0c-.4.01-.79.1-1.15.26l-.21.08V8.52H4.92v8.25c0 1.24 1 2.25 2.25 2.25h4.37l-.06.19c-.02.05-.04.11-.05.17l-.29 1.12H7.15c-2.08 0-3.75-1.68-3.75-3.75v-9.6Zm18.58 5.56c-.82-.82-2.15-.82-2.97 0l-5.8 5.79c-.32.31-.55.71-.66 1.15l-.45 1.79c-.17.67.44 1.28 1.11 1.11l1.79-.45c.43-.11.83-.34 1.15-.66l5.79-5.8c.81-.82.81-2.15 0-2.97Zm-3.18-.22c.93-.94 2.45-.94 3.38 0 .93.93.93 2.45 0 3.38l-5.8 5.79c-.36.35-.81.61-1.3.73l-1.8.44c-.9.22-1.7-.59-1.48-1.48l.44-1.8c.12-.49.37-.94.73-1.3l5.79-5.8Z"/></g></svg>