<svg viewBox="0 0 24 24" xmlns="http://www.w3.org/2000/svg"><path fill="currentColor" d="M6.77 10.97c.23-.24.61-.24.84 0l2.4 2.4c.11.11.17.26.17.42 0 .15-.07.31-.18.42l-2.41 2.4c-.24.23-.62.23-.85 0 -.24-.24-.24-.62 0-.85l1.97-1.98 -1.98-1.98c-.24-.24-.24-.62 0-.85Zm10.02 4.62h-5.4c-.34 0-.6.26-.6.6 0 .33.26.6.6.6h5.4c.33 0 .6-.27.6-.6 0-.34-.27-.6-.6-.6Zm-13.2-9c0-1.66 1.34-3 3-3h10.8c1.65 0 3 1.34 3 3v10.8c0 1.65-1.35 3-3 3H6.59c-1.66 0-3-1.35-3-3V6.59Zm1.8 1.8v8.7c0 .82.67 1.5 1.5 1.5h10.2c.82 0 1.5-.68 1.5-1.5v-8.7H5.39Z"/></svg>