<svg viewBox="0 0 24 24" xmlns="http://www.w3.org/2000/svg"><g fill="currentColor"><path d="M5.4 2.4c-1.66 0-3 1.34-3 3V15c0 1.65 1.34 3 3 3H15c1.65 0 3-1.35 3-3V5.4c0-1.66-1.35-3-3-3H5.4ZM3.6 15V7.2h13.2V15c0 .99-.81 1.8-1.8 1.8H5.4c-1 0-1.8-.81-1.8-1.8Zm5.39 6.6c-1.46 0-2.67-1.04-2.94-2.4h1.24c.24.69.91 1.2 1.69 1.2h7.8c1.98 0 3.6-1.62 3.6-3.6V9c0-.79-.51-1.46-1.2-1.7V6.05c1.36.27 2.4 1.48 2.4 2.93v7.79c0 2.651-2.15 4.8-4.8 4.8H8.97Z"/><g fill="currentColor" fill-rule="evenodd"><path d="M2.35 5.4c0-1.69 1.36-3.05 3.05-3.05H15c1.68 0 3.05 1.36 3.05 3.05V15c0 1.68-1.37 3.05-3.05 3.05H5.4c-1.69 0-3.05-1.37-3.05-3.05V5.4ZM5.4 2.45c-1.63 0-2.95 1.32-2.95 2.95V15c0 1.62 1.32 2.95 2.95 2.95H15c1.62 0 2.95-1.33 2.95-2.95V5.4c0-1.63-1.33-2.95-2.95-2.95H5.4Zm13.76 3.57c.01-.01.02-.02.04-.02 1.39.28 2.44 1.51 2.44 2.98v7.79c0 2.67-2.18 4.85-4.85 4.85H8.98c-1.48 0-2.71-1.05-2.99-2.44 -.01-.02 0-.03.01-.05 0-.02.02-.02.03-.02h1.24c.02 0 .04.01.04.03 .24.67.88 1.16 1.65 1.16h7.8c1.96 0 3.55-1.59 3.55-3.55v-7.8c0-.77-.49-1.42-1.17-1.66 -.02-.01-.04-.03-.04-.05V5.99c0-.02 0-.03.01-.04Zm.08.1v1.14c.7.26 1.2.93 1.2 1.73v7.79c0 2.01-1.64 3.65-3.65 3.65H8.98c-.8 0-1.47-.5-1.74-1.2H6.09c.29 1.31 1.47 2.3 2.87 2.3h7.8c2.62 0 4.75-2.13 4.75-4.75v-7.8c0-1.41-.99-2.59-2.3-2.88ZM3.54 7.19c-.001-.03.02-.05.05-.05h13.2c.02 0 .05.02.05.05v7.8c0 1.02-.83 1.85-1.85 1.85h-9.6c-1.03 0-1.85-.83-1.85-1.85v-7.8Zm.1.05v7.75c0 .96.78 1.75 1.75 1.75h9.6c.96 0 1.75-.79 1.75-1.75V7.24H3.64Z"/><path d="M2.25 5.4c0-1.74 1.41-3.15 3.15-3.15H15c1.73 0 3.15 1.41 3.15 3.15V15c0 1.73-1.42 3.15-3.15 3.15H5.4c-1.74 0-3.15-1.42-3.15-3.15V5.4ZM5.4 2.55c-1.58 0-2.85 1.27-2.85 2.85V15c0 1.57 1.27 2.85 2.85 2.85H15c1.57 0 2.85-1.28 2.85-2.85V5.4c0-1.58-1.28-2.85-2.85-2.85H5.4Zm13.7 3.39c.03-.03.08-.04.12-.04 1.43.29 2.52 1.56 2.52 3.08v7.79c0 2.73-2.22 4.95-4.95 4.95H8.98c-1.53 0-2.8-1.09-3.09-2.53 -.01-.05 0-.09.03-.13 .02-.04.07-.06.11-.06h1.24c.06 0 .12.04.14.1 .22.64.83 1.1 1.55 1.1h7.8c1.9 0 3.45-1.55 3.45-3.45v-7.8c0-.72-.46-1.33-1.1-1.56 -.06-.03-.1-.08-.1-.15V5.99c0-.05.02-.09.05-.12ZM7.19 19.34h-.95c.32 1.21 1.43 2.1 2.75 2.1h7.8c2.56 0 4.65-2.09 4.65-4.65v-7.8c0-1.32-.89-2.43-2.1-2.76v.94c.7.29 1.2.98 1.2 1.8v7.79c0 2.07-1.68 3.75-3.75 3.75H8.98c-.82 0-1.51-.5-1.81-1.2ZM3.44 7.19c0-.09.06-.15.15-.15h13.2c.08 0 .15.06.15.15v7.8c0 1.07-.88 1.95-1.95 1.95h-9.6c-1.08 0-1.95-.88-1.95-1.95v-7.8Zm.3.15v7.65c0 .91.73 1.65 1.65 1.65h9.6c.91 0 1.65-.74 1.65-1.65V7.34H3.74Z"/></g></g></svg>