<svg viewBox="0 0 24 24" xmlns="http://www.w3.org/2000/svg"><g fill="currentColor"><path d="M3.6 6.59c0-1.66 1.34-3 3-3h10.79c1.65 0 3 1.34 3 3v10.8c0 1.65-1.35 3-3 3H6.59c-1.66 0-3-1.35-3-3V6.59Zm1.8 1.8v9c0 .66.53 1.2 1.2 1.2h10.79c.66 0 1.2-.54 1.2-1.2v-9H5.39Z"/><path fill="currentColor" fill-rule="evenodd" d="M6.6 3.64c-1.63 0-2.95 1.32-2.95 2.95v10.8c0 1.62 1.32 2.95 2.95 2.95h10.79c1.62 0 2.95-1.33 2.95-2.95V6.59c0-1.63-1.33-2.95-2.95-2.95H6.59ZM3.55 6.59c0-1.69 1.36-3.05 3.05-3.05h10.79c1.68 0 3.05 1.36 3.05 3.05v10.8c0 1.68-1.37 3.05-3.05 3.05H6.59c-1.69 0-3.05-1.37-3.05-3.05V6.59Zm1.8 1.75h13.29v9.05c0 .69-.56 1.25-1.25 1.25H6.59c-.7 0-1.25-.56-1.25-1.25V8.34Zm.1.1v8.95c0 .63.51 1.15 1.15 1.15h10.79c.63 0 1.15-.52 1.15-1.15V8.44H5.44Z"/></g></svg>