<svg viewBox="0 0 24 24" xmlns="http://www.w3.org/2000/svg"><g fill="currentColor"><path d="M3.59 7.2c0-1.99 1.61-3.6 3.6-3.6h9.6c1.98 0 3.6 1.61 3.6 3.6v5.7c-.38-.25-.78-.46-1.2-.61V8.38H4.78v8.4c0 1.32 1.07 2.4 2.4 2.4h5.1c.15.42.35.82.6 1.2H7.17c-1.99 0-3.6-1.62-3.6-3.6v-9.6Zm14.46 11.19c-.2.13-.43.2-.67.2 -.32 0-.63-.13-.85-.36 -.23-.23-.36-.54-.36-.85 0-.24.07-.47.2-.67 .13-.2.31-.36.53-.45 .21-.1.46-.12.69-.07 .23.04.44.16.61.32 .16.16.28.38.32.61 .04.23.02.47-.07.69 -.1.21-.25.4-.45.53Zm3.47-1.6h.66c.15 0 .31.06.42.17 .11.11.17.26.17.42 0 .15-.07.31-.18.42 -.12.11-.27.17-.43.17h-.67c-.13.89-.55 1.71-1.19 2.35 -.64.63-1.47 1.05-2.36 1.18v.66c0 .15-.07.31-.18.42 -.12.11-.27.17-.43.17 -.16 0-.32-.07-.43-.18 -.12-.12-.18-.27-.18-.43v-.67c-.9-.13-1.72-.55-2.36-1.19 -.64-.64-1.06-1.47-1.19-2.36h-.67c-.16 0-.32-.07-.43-.18 -.12-.12-.18-.27-.18-.43 0-.16.06-.32.17-.43 .11-.12.26-.18.42-.18h.66c.12-.9.54-1.72 1.18-2.36 .63-.64 1.46-1.06 2.35-1.19v-.67c0-.16.06-.32.17-.43 .11-.12.26-.18.42-.18 .15 0 .31.06.42.17 .11.11.17.26.17.42v.66c.89.12 1.71.54 2.35 1.18 .63.63 1.05 1.46 1.18 2.35Zm-3.85 3.58c.69-.07 1.33-.38 1.82-.87 .27-.28.49-.61.65-.98 .15-.37.22-.76.22-1.15 -.01-.7-.25-1.37-.69-1.91 -.45-.54-1.06-.91-1.74-1.04 -.69-.14-1.39-.04-2 .29 -.62.32-1.1.85-1.36 1.49 -.27.64-.31 1.35-.1 2.01 .2.66.62 1.23 1.2 1.62 .57.38 1.27.55 1.96.49Z"/><g fill="currentColor" fill-rule="evenodd"><path d="M7.19 3.65c-1.97 0-3.55 1.58-3.55 3.55v9.6c0 1.96 1.58 3.55 3.55 3.55h5.61c-.23-.35-.41-.72-.55-1.1H7.17c-1.36 0-2.45-1.1-2.45-2.45V8.35h14.5v3.92c.38.14.75.32 1.1.54V7.19c0-1.97-1.59-3.55-3.55-3.55H7.16ZM3.54 7.2c0-2.02 1.63-3.65 3.65-3.65h9.6c2.01 0 3.65 1.63 3.65 3.65V13l-.08-.06c-.37-.25-.77-.45-1.19-.6l-.04-.02v-3.9H4.82v8.35c0 1.29 1.05 2.35 2.35 2.35h5.14l.01.03c.14.42.35.82.59 1.18l.05.07H7.15c-2.02 0-3.65-1.64-3.65-3.65v-9.6Zm13.85 4.85c-.15 0-.29.05-.39.16 -.11.1-.17.24-.17.38v.7l-.05 0c-.89.12-1.7.53-2.33 1.16 -.63.63-1.04 1.44-1.17 2.32l-.01.04h-.71c-.15 0-.29.05-.39.16 -.11.1-.17.24-.17.38s.05.28.16.38c.1.1.24.16.38.16h.7l0 .04c.12.88.53 1.69 1.16 2.32 .63.63 1.44 1.03 2.32 1.16l.04 0v.7c0 .14.05.28.16.38 .1.1.24.16.38.16s.28-.06.38-.17c.1-.11.16-.25.16-.39v-.71l.04-.01c.88-.13 1.69-.54 2.32-1.17 .63-.64 1.03-1.45 1.16-2.33l0-.05h.7c.14 0 .28-.06.38-.17 .1-.11.16-.25.16-.39 0-.15-.06-.29-.17-.39 -.11-.11-.25-.17-.39-.17h-.71l-.01-.05c-.13-.89-.54-1.7-1.17-2.33 -.64-.64-1.45-1.04-2.33-1.17l-.05-.01v-.71c0-.15-.06-.29-.17-.39 -.11-.11-.25-.17-.39-.17Zm-.46.09c.12-.13.28-.2.45-.2 .17 0 .33.06.45.19 .12.12.19.28.19.45v.61c.88.13 1.7.55 2.34 1.18 .63.63 1.05 1.45 1.18 2.34h.61c.17 0 .33.06.45.19 .12.12.19.28.19.45 0 .17-.07.33-.2.45s-.29.19-.46.19h-.62c-.14.88-.56 1.7-1.19 2.34 -.64.63-1.46 1.05-2.35 1.18v.61c0 .17-.07.33-.2.45s-.29.19-.46.19c-.18 0-.34-.07-.46-.2 -.13-.13-.2-.29-.2-.46v-.62c-.89-.14-1.71-.56-2.35-1.19 -.64-.64-1.06-1.46-1.19-2.35h-.62c-.18 0-.34-.07-.46-.2 -.13-.13-.2-.29-.2-.46 0-.18.06-.34.19-.46 .12-.13.28-.2.45-.2h.61c.13-.89.55-1.71 1.18-2.35 .63-.64 1.45-1.06 2.34-1.19v-.62c0-.18.06-.34.19-.46Zm-.98 2.57c.62-.34 1.34-.44 2.03-.31 .69.13 1.31.51 1.76 1.05 .44.54.69 1.22.69 1.93 0 .4-.08.79-.24 1.16 -.16.37-.38.7-.67.98 -.5.49-1.16.8-1.86.87 -.71.06-1.41-.11-2-.5 -.59-.4-1.02-.98-1.23-1.66 -.21-.68-.17-1.41.1-2.06 .27-.66.75-1.2 1.37-1.53Zm2.01-.21c-.67-.14-1.37-.03-1.97.29 -.61.32-1.08.84-1.34 1.47 -.27.63-.3 1.33-.1 1.98 .19.65.61 1.21 1.18 1.59 .56.37 1.24.54 1.92.48 .67-.07 1.31-.37 1.79-.86 .27-.28.49-.6.63-.96s.22-.75.22-1.13c-.01-.69-.24-1.35-.67-1.88 -.44-.53-1.04-.89-1.71-1.03Zm-.36 1.76c-.23-.05-.46-.03-.67.06 -.22.08-.39.23-.52.42 -.13.18-.2.41-.2.63 0 .3.12.59.33.81 .21.21.5.33.81.33 .22 0 .44-.07.63-.2 .18-.13.33-.31.42-.52 .08-.22.1-.45.06-.67 -.05-.23-.16-.43-.32-.59 -.17-.17-.37-.28-.59-.32Zm-.71-.03c.22-.1.47-.12.72-.08 .24.04.46.16.64.34 .17.17.29.39.34.64 .04.24.02.49-.08.72 -.1.22-.26.42-.47.56 -.21.13-.45.21-.7.21 -.34 0-.65-.14-.89-.37 -.24-.24-.37-.56-.37-.89 0-.25.07-.49.21-.7 .13-.21.33-.37.56-.47Z"/><path d="M3.44 7.2c0-2.08 1.67-3.75 3.75-3.75h9.6c2.07 0 3.75 1.67 3.75 3.75v5.99l-.24-.16c-.36-.25-.76-.44-1.17-.59l-.1-.04V8.53H4.92v8.25c0 1.24 1 2.25 2.25 2.25h5.21l.03.1c.14.41.34.8.58 1.16l.15.23h-6c-2.08 0-3.75-1.68-3.75-3.75v-9.6Zm8.75 12.15H7.18c-1.41 0-2.55-1.15-2.55-2.55V8.25h14.7v3.95c.31.11.61.26.9.43V7.19c0-1.91-1.55-3.45-3.45-3.45H7.17c-1.91 0-3.45 1.54-3.45 3.45v9.6c0 1.9 1.54 3.45 3.45 3.45h5.43c-.18-.29-.32-.59-.44-.9Zm4.66-7.29c.14-.15.33-.22.53-.22 .19 0 .38.07.53.21 .14.14.21.33.21.53v.53c.87.15 1.68.57 2.31 1.2 .62.62 1.04 1.43 1.2 2.31h.53c.19 0 .38.07.53.21 .14.14.21.33.21.53 0 .19-.08.38-.22.53 -.15.14-.34.21-.54.21h-.54c-.16.87-.58 1.68-1.21 2.31 -.63.62-1.44 1.04-2.32 1.2v.53c0 .19-.08.38-.22.53 -.15.14-.34.21-.54.21s-.39-.08-.54-.22c-.15-.15-.22-.34-.22-.54v-.54c-.88-.16-1.69-.58-2.32-1.21 -.63-.63-1.05-1.44-1.21-2.32h-.54c-.2 0-.39-.08-.54-.22 -.15-.15-.22-.34-.22-.54s.07-.39.21-.54c.14-.15.33-.22.53-.22h.53c.15-.88.57-1.69 1.2-2.32 .62-.63 1.43-1.05 2.31-1.21v-.54c0-.2.07-.39.21-.54Zm.53.08c-.12 0-.24.04-.32.13 -.09.08-.14.19-.14.31v.79l-.13.01c-.87.12-1.66.52-2.28 1.13 -.62.61-1.02 1.41-1.14 2.27l-.02.12h-.8c-.12 0-.24.04-.32.13 -.09.08-.14.19-.14.31 0 .11.04.23.13.31 .08.08.19.13.31.13h.79l.01.12c.12.86.52 1.65 1.13 2.27 .61.61 1.41 1.01 2.27 1.13l.12.01v.79c0 .11.04.23.13.31 .08.08.19.13.31.13 .11 0 .23-.05.31-.14 .08-.09.13-.2.13-.32v-.8l.12-.02c.86-.13 1.65-.53 2.27-1.14 .61-.62 1.01-1.42 1.13-2.28l.01-.13h.79c.11 0 .23-.05.31-.14 .08-.09.13-.2.13-.32s-.05-.24-.14-.32c-.09-.09-.2-.14-.32-.14h-.8l-.02-.13c-.13-.87-.53-1.66-1.14-2.28 -.62-.62-1.42-1.02-2.28-1.14l-.13-.02v-.8c0-.12-.05-.24-.14-.32 -.09-.09-.2-.14-.32-.14Zm-1.49 2.47c.64-.35 1.38-.46 2.09-.32s1.35.52 1.82 1.09c.46.56.71 1.26.71 1.99 0 .41-.09.82-.24 1.2 -.16.38-.4.72-.69 1.02 -.52.51-1.2.83-1.92.9 -.73.07-1.46-.12-2.06-.52 -.61-.41-1.06-1.01-1.27-1.71 -.22-.7-.18-1.45.1-2.12 .27-.68.78-1.23 1.42-1.58Zm2.04-.02c-.65-.13-1.32-.03-1.9.28 -.59.31-1.04.81-1.29 1.42 -.26.6-.29 1.28-.1 1.91 .19.63.59 1.17 1.14 1.54 .54.36 1.2.53 1.86.46 .65-.07 1.26-.36 1.73-.83 .26-.27.47-.58.61-.93 .14-.35.21-.72.21-1.1 -.01-.66-.23-1.3-.65-1.81 -.42-.51-1.01-.86-1.65-.99Zm-1.08 1.54c.24-.11.51-.13.78-.08 .26.05.5.18.69.36 .18.18.31.42.36.69 .05.26.02.53-.08.78 -.11.24-.28.45-.5.6 -.23.14-.49.22-.75.22 -.36 0-.71-.15-.96-.4 -.26-.26-.4-.6-.4-.96 0-.27.07-.53.22-.75 .14-.23.35-.4.6-.5Zm.72.21c-.21-.05-.42-.02-.61.05 -.2.07-.36.21-.48.38s-.18.37-.18.58c0 .27.11.54.3.74 .19.19.46.3.74.3 .2 0 .41-.07.58-.18 .17-.12.3-.28.38-.48 .07-.2.1-.41.05-.61 -.05-.21-.15-.4-.29-.54 -.15-.15-.34-.25-.54-.29Z"/></g></g></svg>