<svg viewBox="0 0 24 24" xmlns="http://www.w3.org/2000/svg"><path fill="currentColor" d="M3 6.25C3 4.45 4.45 3 6.25 3h11.5C19.54 3 21 4.45 21 6.25V9c-.09-.01-.17-.01-.25-.01H19.5v-.5h-15v9.25c0 .96.78 1.75 1.75 1.75H9v1.25c0 .08 0 .16 0 .25H6.24c-1.8 0-3.25-1.46-3.25-3.25V6.24Zm9.25 9.25h3.25v-3.25c0-1.25 1-2.25 2.25-2.25h3c1.24 0 2.25 1 2.25 2.25v7.5c0 1.79-1.46 3.25-3.25 3.25h-7.5C11 23 10 21.99 10 20.75v-3c0-1.25 1-2.25 2.25-2.25ZM17 12.25v3.25h4.5v-3.25c0-.42-.34-.75-.75-.75h-3c-.42 0-.75.33-.75.75Zm-1.5 9.25V17h-3.25c-.42 0-.75.33-.75.75v3c0 .41.33.75.75.75h3.25ZM17 17v4.5h2.75c.96 0 1.75-.79 1.75-1.75V17H17Z"/></svg>