<svg viewBox="0 0 24 24" xmlns="http://www.w3.org/2000/svg"><g fill="currentColor"><path d="M7.19 3.6c-1.99 0-3.6 1.61-3.6 3.6v9.6c0 1.98 1.61 3.6 3.6 3.6h6.04c-.04-.2-.05-.4-.05-.6 0-.21.02-.41.06-.6H7.17c-1.33 0-2.4-1.08-2.4-2.4V8.4h14.4v2.44c.43.07.83.22 1.2.43V7.18c0-1.99-1.62-3.6-3.6-3.6H7.16Zm0 7.2h3.6v3.6H7.18v-3.6Zm-.6-1.2c-.34 0-.6.26-.6.6V15c0 .33.26.6.6.6h4.8c.33 0 .6-.27.6-.6v-4.8c0-.34-.27-.6-.6-.6H6.58Zm14.4 4.8c0 1.32-1.08 2.4-2.4 2.4 -1.33 0-2.4-1.08-2.4-2.4 0-1.33 1.07-2.4 2.4-2.4 1.32 0 2.4 1.07 2.4 2.4Zm1.8 5.4c0 1.49-1.2 3-4.2 3s-4.2-1.51-4.2-3c0-1 .8-1.8 1.8-1.8h4.8c.99 0 1.8.8 1.8 1.8Z"/><path fill="currentColor" fill-rule="evenodd" d="M3.44 7.2c0-2.08 1.67-3.75 3.75-3.75h9.6c2.07 0 3.75 1.67 3.75 3.75v4.34l-.23-.14c-.35-.21-.74-.35-1.15-.42l-.13-.03V8.52H4.92v8.25c0 1.24 1 2.25 2.25 2.25h6.24l-.04.17c-.04.18-.06.37-.06.57 0 .19.01.38.04.57l.02.17H7.14c-2.08 0-3.75-1.68-3.75-3.75v-9.6Zm3.75-3.45c-1.91 0-3.45 1.54-3.45 3.45v9.6c0 1.9 1.54 3.45 3.45 3.45h5.87c-.02-.15-.03-.3-.03-.45 0-.16.01-.31.03-.45H7.17c-1.41 0-2.55-1.15-2.55-2.55V8.25h14.7v2.47c.31.06.61.16.9.3V7.18c0-1.91-1.55-3.45-3.45-3.45H7.16ZM5.84 10.2c0-.42.33-.75.75-.75h4.8c.41 0 .75.33.75.75V15c0 .41-.34.75-.75.75H6.58c-.42 0-.75-.34-.75-.75v-4.8Zm.75-.45c-.25 0-.45.2-.45.45V15c0 .24.2.45.45.45h4.8c.24 0 .45-.21.45-.45v-4.8c0-.25-.21-.45-.45-.45H6.58Zm.45.9h3.9v3.9H7.03v-3.9Zm.3.3v3.3h3.3v-3.3H7.33Zm11.25 1.2c-1.25 0-2.25 1-2.25 2.25 0 1.24 1 2.25 2.25 2.25 1.24 0 2.25-1.01 2.25-2.25 0-1.25-1.01-2.25-2.25-2.25Zm-2.55 2.25c0-1.41 1.14-2.55 2.55-2.55 1.4 0 2.55 1.14 2.55 2.55 0 1.4-1.15 2.55-2.55 2.55 -1.41 0-2.55-1.15-2.55-2.55Zm.15 3.75c-.92 0-1.65.73-1.65 1.65 0 .7.28 1.41.92 1.94s1.65.9 3.12.9c1.47 0 2.48-.38 3.12-.91 .63-.54.92-1.24.92-1.95 0-.92-.74-1.65-1.65-1.65h-4.8Zm-1.95 1.65c0-1.08.87-1.95 1.95-1.95h4.8c1.07 0 1.95.87 1.95 1.95 0 .78-.32 1.58-1.03 2.17 -.71.59-1.8.97-3.33.97s-2.62-.39-3.33-.98c-.72-.6-1.03-1.39-1.03-2.18Z"/></g></svg>