<svg viewBox="0 0 24 24" xmlns="http://www.w3.org/2000/svg"><path fill="currentColor" d="M6.25 3C4.45 3 3 4.45 3 6.25v11.5C3 19.54 4.45 21 6.25 21h4.79c.09-.49.32-.95.69-1.32l.18-.19H6.23c-.97 0-1.75-.79-1.75-1.75V8.49h15v2.53c.17.01.34.04.51.08 .47.1.81.41.98.79V6.23c0-1.8-1.46-3.25-3.25-3.25H6.22Zm13.88 9.51c0-.2-.12-.37-.34-.42 -.1-.03-.2-.04-.3-.06 -1.23-.18-2.52.21-3.46 1.15 -1.21 1.2-1.5 2.98-.88 4.47l-2.73 2.72c-.18.17-.31.38-.38.6 -.18.52-.05 1.13.37 1.55 .59.59 1.56.59 2.16 0l2.72-2.73c1.48.62 3.26.33 4.47-.88 1.01-1.02 1.38-2.45 1.09-3.76 -.08-.36-.51-.45-.77-.19l-1.91 1.9c-.03.02-.06.05-.09.07 -.2.16-.42.27-.66.32 -.5.11-1.04-.03-1.43-.41 -.6-.6-.6-1.57 0-2.16l1.9-1.91c.09-.1.14-.23.14-.35Zm-2.42 8.48c-.04-.01-.08-.02-.12-.03l-.03.02h.14Z"/></svg>