<svg viewBox="0 0 24 24" xmlns="http://www.w3.org/2000/svg"><path fill="currentColor" d="M17.74 3l.18 0c1.64.09 2.96 1.41 3.06 3.06l0 .18v6.36c-.69-.14-1.35-.51-2-1.19l-.01-.01 -.01-3.43h-14l-.01 9.75c0 .64.49 1.17 1.12 1.24l.12 0h7.12c.2.59.49 1.14.86 1.64 .09.12.18.24.29.35H6.17c-1.74 0-3.15-1.36-3.25-3.07l-.01-.19V6.19c0-1.74 1.35-3.15 3.06-3.25l.18-.01h11.49Zm1.25 9.76c.62.47 1.29.75 2 .86 .19.02.39.04.59.04 .19 0 .35.14.39.33l0 .08v2.5c0 2.68-1.32 4.5-3.88 5.39 -.09.02-.18.02-.26 0 -.73-.26-1.36-.58-1.88-.98 -.71-.54-1.23-1.21-1.56-2 -.27-.64-.42-1.36-.45-2.16l-.01-.27v-2.51c0-.24.17-.42.4-.42 1.22 0 2.32-.51 3.31-1.55 .15-.17.4-.17.56 0 .23.24.47.45.71.64Z"/></svg>