<svg viewBox="0 0 24 24" xmlns="http://www.w3.org/2000/svg"><g fill="currentColor"><path d="M6.69 10.93c-.07.14-.1.3-.1.46 0 .16.03.32.09.48 .05.14.14.26.25.37 .11.1.24.19.38.25s.3.09.46.09c.16 0 .32-.03.46-.1s.27-.16.38-.27c.1-.11.19-.24.25-.38 .06-.15.09-.31.09-.47 0-.17-.04-.32-.1-.47 -.06-.15-.15-.28-.27-.39 -.12-.11-.25-.2-.39-.26 -.15-.07-.31-.1-.46-.1 -.17-.01-.33.02-.47.09 -.15.06-.28.15-.39.26 -.11.1-.2.23-.26.37Zm0 4.8c-.07.14-.1.3-.1.46 0 .16.03.32.09.47 .05.14.14.27.25.37 .11.1.24.19.38.25s.3.09.46.09c.16 0 .32-.03.46-.1s.27-.16.38-.27c.1-.11.19-.24.25-.38 .06-.15.09-.31.09-.47 0-.17-.04-.32-.1-.47 -.06-.15-.15-.28-.27-.39 -.12-.11-.25-.2-.39-.26 -.15-.07-.31-.1-.46-.1 -.17-.01-.33.02-.47.09 -.15.06-.28.15-.39.26 -.11.1-.2.23-.26.37Zm4.76-3.74c-.18 0-.34-.07-.47-.18v-.01c-.07-.06-.11-.12-.15-.19 -.04-.08-.06-.16-.06-.24 0-.08.01-.16.05-.24 .03-.08.08-.14.14-.19 .12-.12.29-.19.46-.18h5.28c.17-.01.33.06.46.18 .06.05.1.11.14.18 .03.07.05.15.05.23 0 .07-.02.15-.06.23 -.04.07-.09.13-.15.18 -.13.11-.3.18-.47.17h-5.28Zm-.47 4.62c.12.11.29.17.46.17h5.28c.17 0 .33-.07.46-.18 .06-.06.1-.12.14-.19 .03-.08.05-.16.05-.24 0-.08-.02-.16-.06-.24 -.04-.08-.09-.14-.15-.19 -.13-.12-.3-.19-.47-.19h-5.28c-.18-.01-.34.06-.47.17 -.07.05-.11.11-.15.18 -.04.07-.06.15-.06.23 0 .07.01.15.05.23 .03.07.08.13.14.18v0ZM7.18 3.58c-1.99 0-3.6 1.61-3.6 3.6v9.6c0 1.98 1.61 3.6 3.6 3.6h9.59c1.98 0 3.6-1.62 3.6-3.6v-9.6c0-1.99-1.62-3.6-3.6-3.6h-9.6Zm-2.4 13.2v-8.4h14.39v8.4c0 1.32-1.08 2.4-2.4 2.4h-9.6c-1.33 0-2.4-1.08-2.4-2.4Z"/><path fill="currentColor" fill-rule="evenodd" d="M3.55 7.19c0-2.02 1.63-3.65 3.65-3.65h9.59c2.01 0 3.65 1.63 3.65 3.65v9.6c0 2.01-1.64 3.65-3.65 3.65h-9.6c-2.02 0-3.65-1.64-3.65-3.65v-9.6ZM7.2 3.64c-1.97 0-3.55 1.58-3.55 3.55v9.6c0 1.96 1.58 3.55 3.55 3.55h9.59c1.96 0 3.55-1.59 3.55-3.55v-9.6c0-1.97-1.59-3.55-3.55-3.55h-9.6Zm-2.45 4.7h14.49v8.45c0 1.35-1.1 2.45-2.45 2.45h-9.6c-1.36 0-2.45-1.1-2.45-2.45V8.34Zm.1.1v8.35c0 1.29 1.05 2.35 2.35 2.35h9.59c1.29 0 2.35-1.06 2.35-2.35V8.44H4.84Zm2.95 1.69c.16-.01.32.03.47.09 .14.06.28.15.39.26 .11.11.21.25.27.4 .06.15.09.31.09.48 0 .16-.04.33-.1.48 -.07.14-.16.27-.27.39 -.12.11-.26.2-.4.27 -.16.07-.33.1-.5.09 -.17 0-.34-.04-.49-.1 -.15-.07-.29-.16-.4-.27 -.12-.11-.21-.25-.27-.4 -.07-.16-.1-.33-.1-.5 -.01-.17.03-.34.09-.49 .06-.15.15-.28.26-.39 .11-.12.25-.21.39-.28 .15-.08.32-.11.49-.11Zm-.01.1c-.16-.01-.31.02-.45.09 -.14.06-.27.14-.38.25 -.11.1-.19.22-.25.35 -.07.14-.1.29-.09.44 0 .15.03.31.09.46 .05.13.13.25.24.35 .1.1.23.18.36.24 .14.06.29.09.44.08h0c.15 0 .3-.03.44-.09 .13-.07.26-.15.36-.26 .1-.11.18-.23.24-.36 .06-.15.09-.3.08-.45 0-.16-.04-.31-.09-.45 -.06-.14-.15-.27-.26-.37 -.11-.11-.24-.19-.37-.25 -.14-.06-.29-.1-.44-.09H7.7Zm3.65.6c-.16-.01-.32.05-.43.16l-.01 0c-.06.04-.1.1-.13.17 -.04.06-.05.13-.05.21 0 .07.01.14.04.21 .03.06.07.12.12.17l.01.01v0c.11.09.26.15.41.15h5.28c.15 0 .31-.06.43-.17l0-.01c.05-.05.09-.11.12-.18 .03-.07.04-.14.04-.22 0-.08-.02-.15-.05-.22 -.04-.07-.08-.13-.13-.18l-.01-.01c-.12-.11-.27-.18-.43-.17h-5.29Zm0-.1c-.19-.01-.37.06-.5.19 -.07.05-.12.12-.16.2 -.04.07-.06.16-.06.25 0 .08.01.17.05.25 .03.07.07.13.13.19v0l.01.01c.13.12.31.19.49.19h5.27c.18 0 .36-.07.49-.2 .06-.06.11-.13.15-.21 .03-.08.05-.17.05-.26s-.02-.18-.06-.26c-.04-.08-.09-.15-.16-.21 -.14-.13-.32-.2-.5-.2 -.01 0 0 0 0 0M7.7 14.86c.16-.01.32.03.47.09 .14.06.28.15.39.26 .11.11.21.25.27.4 .06.15.09.31.09.48 0 .16-.04.33-.1.48 -.07.14-.16.27-.27.39 -.12.11-.26.2-.4.27 -.16.07-.33.1-.5.09 -.17 0-.34-.04-.49-.1 -.15-.07-.29-.16-.4-.27 -.12-.11-.21-.25-.27-.4 -.07-.16-.1-.33-.1-.5 -.01-.17.03-.34.09-.49 .06-.15.15-.28.26-.4 .11-.12.25-.21.39-.28 .15-.08.32-.11.49-.1Zm-.01.1c-.16-.01-.31.02-.45.09 -.14.06-.27.14-.37.25 -.11.1-.19.22-.25.36 -.07.14-.1.29-.09.44 0 .15.03.31.09.46 .05.13.13.25.24.35 .1.1.23.18.36.24 .14.06.29.09.44.08h0c.15 0 .3-.03.44-.09 .13-.07.26-.15.36-.26 .1-.11.18-.23.24-.36 .06-.15.09-.3.08-.45 0-.16-.04-.31-.09-.45 -.06-.14-.15-.27-.26-.37 -.11-.11-.24-.19-.37-.25 -.14-.07-.29-.1-.44-.1h-.01Zm3.16.69c.13-.13.31-.2.49-.2 -.01 0 0 0 0 0h5.27s0 0 0 0m.49.19c.06.05.11.12.15.2 .03.07.05.16.05.25 0 .08-.02.17-.06.25 -.04.07-.09.14-.16.2m-5.78.19h5.27 -5.28Zm-.01-1.2c-.16-.01-.32.05-.43.16l-.01 0c-.06.04-.1.1-.13.17 -.04.06-.05.13-.05.21 0 .07.01.14.04.21 .03.06.07.12.12.17l.01.01v0c.11.09.26.15.41.15h5.28c.15 0 .31-.06.43-.17l0-.01c.05-.05.09-.11.12-.18 .03-.07.04-.14.04-.22 0-.08-.02-.15-.05-.22 -.04-.07-.08-.13-.13-.18l-.01-.01c-.12-.11-.28-.17-.43-.17h-5.29Z"/></g></svg>