<svg viewBox="0 0 24 24" xmlns="http://www.w3.org/2000/svg"><path fill="currentColor" d="M19 17.97v-.14c1.17-.49 2-1.65 2-3.01V6.23c0-1.8-1.46-3.25-3.25-3.25h-8.5c-1.45 0-2.68.94-3.1 2.25h-.21c-.92 0-1.69.32-2.23.95 -.52.61-.74 1.43-.74 2.29v8.75c0 1.06.38 2.01 1.11 2.69 .72.68 1.73 1.04 2.88 1.04l3.91 0 4.07 0h0c.97 0 1.94-.21 2.69-.69 .77-.5 1.3-1.3 1.3-2.35ZM5.95 6.74h.04v8.08c0 1.79 1.45 3.25 3.25 3.25h8.24c-.04.41-.25.72-.62.96 -.44.27-1.1.44-1.88.44h-.01l-4.09-.01 -3.92-.01c-.85 0-1.47-.27-1.87-.64 -.4-.38-.64-.92-.64-1.61V8.45c0-.64.15-1.07.37-1.33 .2-.25.53-.43 1.07-.43Zm6.06-.25h4.72c.41 0 .75.33.75.75v4.72c0 .41-.34.75-.75.75 -.42 0-.75-.34-.75-.75V9.04l-5.22 5.21c-.3.29-.77.29-1.07 0 -.3-.3-.3-.77 0-1.07l5.21-5.22h-2.92c-.42 0-.75-.34-.75-.75 0-.42.33-.75.75-.75Z"/></svg>