<svg viewBox="0 0 24 24" xmlns="http://www.w3.org/2000/svg"><path fill="currentColor" d="M3 6.25C3 4.45 4.45 3 6.25 3h11.5C19.54 3 21 4.45 21 6.25v4.57c-.48-.12-.98-.2-1.5-.25V8.49h-15v9.25c0 .96.78 1.75 1.75 1.75h5.25v1.5H6.25c-1.8 0-3.25-1.46-3.25-3.25V6.24Zm11.664 6.23c.88-.31 2.06-.49 3.33-.49 1.26 0 2.44.17 3.33.48 .44.15.84.34 1.13.58 .29.24.52.55.52.93 0 .37-.23.69-.53.93 -.3.23-.7.43-1.14.58 -.89.3-2.07.48-3.34.48s-2.45-.18-3.34-.49c-.45-.16-.85-.35-1.14-.59 -.3-.25-.53-.56-.53-.94 0-.38.22-.7.52-.94 .29-.24.69-.44 1.13-.59Zm-1.67 8.51v-4.61c.38.23.79.41 1.17.54 1.08.37 2.43.56 3.82.56 1.38 0 2.74-.2 3.82-.57 .38-.14.79-.31 1.17-.55v4.6c0 .42-.27.75-.55.97 -.3.22-.69.41-1.12.55 -.88.29-2.06.46-3.34.46 -1.28 0-2.46-.18-3.34-.47 -.44-.15-.83-.33-1.12-.56 -.29-.23-.55-.55-.55-.98Z"/></svg>