<svg viewBox="0 0 24 24" xmlns="http://www.w3.org/2000/svg"><path fill="currentColor" d="M3.42 2.57l18 17.99c.23.23.23.61 0 .84 -.24.23-.62.23-.85 0l-1.53-1.53c-.48.31-1.05.49-1.66.49H6.58c-1.66 0-3-1.35-3-3V6.56c0-.62.18-1.19.49-1.66L2.54 3.37c-.24-.24-.24-.62 0-.85 .23-.24.61-.24.84 0Zm14.22 15.92l-4.45-4.45v.95c0 .33-.27.6-.6.6h-4.8c-.34 0-.6-.27-.6-.6v-4.8c0-.34.26-.6.6-.6h.95l-1.2-1.2H5.38v8.7c0 .82.67 1.5 1.5 1.5h10.2c.19 0 .37-.04.54-.11Zm-7.7-7.7H8.38v3.6h3.6v-1.56l-2.05-2.05Zm8.64 5.25V8.38h-7.66L6.14 3.6c.13-.02.28-.03.42-.03h10.8c1.65 0 3 1.34 3 3v10.8c0 .14-.02.28-.03.42l-1.78-1.78Z"/></svg>