<svg viewBox="0 0 24 24" xmlns="http://www.w3.org/2000/svg"><path fill="currentColor" d="M3.6 7.2c0-1.99 1.61-3.6 3.6-3.6h9.6c1.98 0 3.6 1.61 3.6 3.6v4.31c-.39-.2-.79-.36-1.2-.48V8.38H4.8v8.4c0 1.32 1.07 2.4 2.4 2.4h3.84c.11.41.27.81.47 1.2H7.19c-1.99 0-3.6-1.62-3.6-3.6v-9.6Zm10 4.8c.94-.67 2.07-1.1 3.29-1.19 -.06-.02-.11-.02-.17-.02h-5.28c-.18-.01-.34.06-.47.17 -.07.05-.11.11-.15.18 -.04.07-.06.15-.06.23 0 .07.01.15.05.23 .03.07.08.13.14.18v0c.12.11.29.18.46.17h2.14Zm-6.92-1.07c-.07.14-.1.3-.1.46 0 .16.03.32.09.48 .05.14.14.26.25.37 .11.1.24.19.38.25s.3.09.46.09c.16 0 .32-.03.46-.1s.27-.16.38-.27c.1-.11.19-.24.25-.38 .06-.15.09-.31.09-.47 0-.17-.04-.32-.1-.47 -.06-.15-.15-.28-.27-.39 -.12-.11-.25-.2-.39-.26 -.15-.07-.31-.1-.46-.1 -.17-.01-.33.02-.47.09 -.15.06-.28.15-.39.26 -.11.1-.2.23-.26.37Zm-.1 5.26c-.01-.17.03-.33.09-.47 .06-.14.14-.27.25-.38 .11-.11.24-.2.38-.27s.3-.11.46-.1c.15-.01.31.03.45.09s.27.14.38.25c.11.1.2.23.26.38 .06.14.09.3.09.46 0 .16-.04.32-.1.46 -.07.13-.15.26-.26.37 -.12.1-.25.19-.39.26 -.15.06-.31.1-.47.09 -.17 0-.33-.04-.47-.1 -.15-.07-.28-.15-.39-.26 -.12-.11-.2-.24-.26-.38 -.06-.16-.09-.32-.1-.48Zm13.8 5.69c-.89.59-1.94.91-3.01.91 -1.44 0-2.81-.57-3.82-1.59 -1.02-1.02-1.59-2.39-1.59-3.82 0-1.07.31-2.12.91-3.01 .59-.89 1.43-1.59 2.42-1.99 .98-.41 2.07-.52 3.12-.31 1.04.2 2 .72 2.76 1.47 .75.75 1.26 1.71 1.47 2.76 .2 1.04.1 2.13-.31 3.12 -.41.98-1.11 1.83-1.99 2.42Zm-2.58-7.32c-.12-.12-.27-.18-.43-.18 -.16 0-.32.06-.43.17 -.12.11-.18.26-.18.42v1.8h-1.8c-.16 0-.32.06-.43.17 -.12.11-.18.26-.18.42 0 .15.06.31.17.42 .11.11.26.17.42.17h1.8v1.8c0 .15.06.31.17.42 .11.11.26.17.42.17 .15 0 .31-.07.42-.18 .11-.12.17-.27.17-.43v-1.8h1.8c.15 0 .31-.07.42-.18 .11-.12.17-.27.17-.43 0-.16-.07-.32-.18-.43 -.12-.12-.27-.18-.43-.18h-1.8v-1.8c0-.16-.07-.32-.18-.43Z"/></svg>