<svg viewBox="0 0 24 24" xmlns="http://www.w3.org/2000/svg"><g fill="currentColor"><path d="M3.59 7.2c0-1.99 1.61-3.6 3.6-3.6h9.6c1.98 0 3.6 1.61 3.6 3.6v4.31c-.39-.2-.79-.36-1.2-.48V8.38H4.78v8.4c0 1.32 1.07 2.4 2.4 2.4h3.84c.11.41.27.81.47 1.2H7.17c-1.99 0-3.6-1.62-3.6-3.6v-9.6Zm10.87 6.53c.36 1.29-.42 2.64-1.72 2.97l-.56.14c-.02.18-.03.36-.03.55 0 .22.01.44.03.66l.41.09c1.34.31 2.14 1.7 1.74 3.02l-.16.5c.3.24.64.45 1 .62l.39-.42c.94-1.01 2.54-1.01 3.49 0l.4.42c.35-.17.68-.37.98-.6l-.19-.67c-.37-1.3.41-2.64 1.71-2.98l.55-.15c.01-.19.02-.37.02-.56 0-.23-.02-.45-.04-.67l-.42-.1c-1.35-.32-2.15-1.71-1.75-3.03l.15-.51c-.31-.25-.65-.46-1.01-.63l-.39.41c-.95 1-2.55 1-3.5-.01l-.41-.43c-.36.16-.69.36-.99.59l.18.66Zm2.92 4.86c-.67 0-1.2-.54-1.2-1.2 0-.67.53-1.2 1.2-1.2 .66 0 1.2.53 1.2 1.2 0 .66-.54 1.2-1.2 1.2Z"/><path fill="currentColor" fill-rule="evenodd" d="M7.19 3.75c-1.91 0-3.45 1.54-3.45 3.45v9.6c0 1.9 1.54 3.45 3.45 3.45h4.07c-.14-.29-.26-.59-.35-.9H7.17c-1.41 0-2.55-1.15-2.55-2.55V8.25h14.7v2.686c.3.09.61.2.9.34v-4.08c0-1.91-1.55-3.45-3.45-3.45H7.16ZM3.44 7.2c0-2.08 1.67-3.75 3.75-3.75h9.6c2.07 0 3.75 1.67 3.75 3.75v4.56l-.22-.12c-.38-.19-.77-.35-1.18-.47l-.11-.04V8.51H4.92v8.25c0 1.24 1 2.25 2.25 2.25h3.96l.03.1c.11.4.27.8.46 1.17l.11.21H7.16c-2.08 0-3.75-1.68-3.75-3.75v-9.6Zm11.86 5.08l.47.5c.88.94 2.38.94 3.27 0l.46-.5 .09.04c.36.17.71.38 1.03.63l.07.06 -.19.6c-.38 1.23.37 2.53 1.63 2.83l.52.12 .01.1c.02.22.04.45.04.68 0 .19-.01.38-.03.56l-.02.1 -.66.16c-1.23.31-1.96 1.57-1.61 2.78l.21.76 -.09.06c-.32.24-.66.44-1.02.61l-.1.04 -.48-.51c-.89-.95-2.39-.95-3.28-.01l-.47.49 -.1-.05c-.37-.18-.72-.39-1.04-.64l-.08-.07 .18-.61c.37-1.24-.38-2.54-1.64-2.84l-.53-.13 -.02-.11c-.03-.23-.05-.46-.05-.69 0-.2 0-.39.02-.57l.01-.11 .65-.17c1.22-.32 1.95-1.58 1.6-2.79l-.22-.77 .08-.07c.31-.25.65-.45 1.01-.62l.09-.05Zm-.85.83l.15.56c.38 1.37-.44 2.8-1.83 3.15l-.46.11c-.02.14-.02.28-.02.43 0 .18 0 .36.02.54l.31.07c1.42.33 2.27 1.8 1.85 3.21l-.13.4c.24.18.51.35.79.49l.31-.34c1-1.07 2.7-1.07 3.7 0l.33.35c.27-.14.53-.3.77-.48l-.16-.57c-.39-1.38.43-2.81 1.82-3.16l.44-.12c.01-.15.01-.29.01-.44 0-.19-.01-.37-.03-.55l-.32-.08c-1.43-.34-2.28-1.81-1.86-3.22l.12-.41c-.25-.19-.52-.36-.8-.5l-.32.33c-1.01 1.06-2.71 1.06-3.71-.01l-.33-.36c-.28.13-.54.29-.78.47Zm2.93 3.22c-.58 0-1.05.47-1.05 1.05 0 .57.47 1.05 1.05 1.05 .57 0 1.05-.48 1.05-1.05 0-.58-.48-1.05-1.05-1.05Zm-1.35 1.05c0-.75.6-1.35 1.35-1.35 .74 0 1.35.6 1.35 1.35 0 .74-.61 1.35-1.35 1.35 -.75 0-1.35-.61-1.35-1.35Z"/></g></svg>