<svg viewBox="0 0 24 24" xmlns="http://www.w3.org/2000/svg"><g fill="currentColor"><path d="M6.59 3.6c-1.66 0-3 1.34-3 3v10.8c0 1.65 1.34 3 3 3h10.8c1.65 0 3-1.35 3-3V9.59h0v-1.8h-.01v-1.2c0-1.66-1.35-3-3-3H6.57Zm12 3.59v.6h-1.55l1.37-1.38c.11.23.17.49.17.77Zm-1.03-1.63l-2.23 2.22h-3.4l2.4-2.4h2.44c.27 0 .54.06.77.17Zm-4.92-.18l-2.4 2.4h-3.4l2.4-2.4h3.39Zm-5.1 0L5.36 7.55v-.38c0-1 .8-1.8 1.8-1.8h.37Zm.89 4.2l-3.07 3.06V9.57h3.06Zm-3.07 4.75l4.75-4.76h3.39l-7.98 7.97c-.12-.24-.18-.5-.18-.78v-2.45Zm9.85-4.76h3.34v.04l-8.96 8.95H7.14c-.28 0-.54-.07-.78-.18l8.82-8.83Zm3.34 1.74v3.39l-3.87 3.86h-3.4l7.25-7.26Zm0 5.09v.36c0 .99-.81 1.8-1.8 1.8h-.37l2.16-2.17Z"/><path fill="currentColor" fill-rule="evenodd" d="M3.54 6.6c0-1.69 1.36-3.05 3.04-3.05h10.8c1.68 0 3.05 1.36 3.05 3.05v1.14h0v1.9h-.01v7.75c0 1.68-1.37 3.05-3.05 3.05H6.56c-1.69 0-3.05-1.37-3.05-3.05V6.58Zm16.8 2.94v-1.7h-.01V6.59c0-1.63-1.33-2.95-2.95-2.95H6.57c-1.63 0-2.95 1.32-2.95 2.95v10.8c0 1.62 1.32 2.95 2.94 2.95h10.8c1.62 0 2.95-1.33 2.95-2.95V9.53h0ZM7.18 5.44c-.97 0-1.75.78-1.75 1.75v.25l2-2.01h-.26ZM5.33 7.19c0-1.03.82-1.85 1.85-1.85h.49L5.32 7.68v-.5Zm3.89-1.85h3.53l-2.5 2.5H6.71l2.5-2.5Zm.04.1l-2.3 2.3h3.25l2.3-2.3H9.25Zm5.04-.1h2.46c.28 0 .55.06.79.18l.06.03 -2.29 2.28h-3.54l2.5-2.5Zm.04.1l-2.3 2.3h3.25l2.15-2.16c-.22-.1-.45-.15-.7-.15h-2.42Zm4.05.89l.03.06c.11.24.17.51.17.79v.65h-1.72l1.5-1.51Zm-1.27 1.4h1.37v-.55c0-.25-.05-.48-.15-.69L17.1 7.72ZM5.29 9.53h3.23l-3.24 3.23V9.52Zm.1.1v2.89l2.89-2.9h-2.9Zm4.68-.1h3.53l-8.12 8.11 -.04-.07c-.12-.25-.19-.52-.19-.8V14.3l4.78-4.79Zm.04.1l-4.74 4.73v2.41c0 .24.05.47.14.69l7.84-7.85h-3.26Zm5.04-.1h3.41v.11l-8.99 8.98H7.1c-.29 0-.56-.07-.8-.18l-.07-.04 8.89-8.89Zm.04.1l-8.76 8.75c.21.09.44.14.68.14h2.42l8.9-8.9h-3.26Zm3.37 1.57v3.53l-3.9 3.89h-3.54l7.42-7.43Zm-7.19 7.32h3.25l3.83-3.84v-3.26l-7.09 7.08Zm7.18-2.24v.48c0 1.02-.83 1.85-1.85 1.85h-.49l2.33-2.34Zm-2.1 2.23h.24c.96 0 1.75-.79 1.75-1.75v-.25l-2 1.99Z"/></g></svg>