<svg viewBox="0 0 24 24" xmlns="http://www.w3.org/2000/svg"><g fill="currentColor"><path d="M3.42 2.57c-.24-.24-.62-.24-.85 0 -.24.23-.24.61 0 .84l1.52 1.52c-.32.47-.5 1.04-.5 1.65v10.8c0 1.65 1.34 3 3 3h10.8c.61 0 1.18-.19 1.65-.5l1.52 1.52c.23.23.61.23.84 0 .23-.24.23-.62 0-.85l-18.01-18ZM17.7 18.55c-.1.02-.21.04-.32.04H6.58c-.67 0-1.2-.54-1.2-1.2v-9h2.15l10.15 10.15Zm.88-10.16v7.65l1.77 1.77c.01-.14.02-.29.02-.43V6.58c0-1.66-1.35-3-3-3H6.57c-.15 0-.29.01-.43.02l4.77 4.77h7.65Z"/><path fill="currentColor" fill-rule="evenodd" d="M2.54 2.54c.25-.26.66-.26.91 0l17.99 18c.25.25.25.66 0 .91 -.26.25-.67.25-.92 0l-1.5-1.5c-.48.3-1.05.48-1.65.48H6.57c-1.69 0-3.05-1.37-3.05-3.05V6.58c0-.61.17-1.18.48-1.65l-1.5-1.5c-.26-.26-.26-.67 0-.92Zm.84.07c-.22-.22-.57-.22-.78 0 -.22.21-.22.56 0 .77l1.55 1.55 -.03.03c-.31.46-.49 1.02-.49 1.62v10.8c0 1.62 1.32 2.95 2.95 2.95h10.8c.6 0 1.16-.18 1.62-.49l.03-.03 1.55 1.55c.21.21.56.21.77 0 .21-.22.21-.57 0-.78l-18-18.01Zm2.77.96c.14-.02.28-.04.43-.04h10.8c1.68 0 3.05 1.36 3.05 3.05v10.8c0 .14-.02.29-.04.43l-.02.09 -1.86-1.86V8.41h-7.63L6.02 3.55l.09-.02Zm.11.08l4.68 4.68h7.68v7.68l1.68 1.68c.01-.11.01-.21.01-.32V6.57c0-1.63-1.33-2.95-2.95-2.95H6.56c-.11 0-.22 0-.32.01Zm-.94 4.68h2.22l10.23 10.23 -.09.02c-.11.02-.22.04-.33.04H6.55c-.7 0-1.25-.56-1.25-1.25V8.32Zm.1.1v8.95c0 .63.51 1.15 1.15 1.15h10.8c.07 0 .14-.01.21-.02L7.49 8.42H5.4Z"/></g></svg>