<svg viewBox="0 0 24 24" xmlns="http://www.w3.org/2000/svg"><path fill="currentColor" d="M16.07 2.41c.12-.26.38-.42.67-.42h1.5c.28 0 .54.16.67.41l1 2c.11.22.1.48-.02.7l-.91 1.57v5.3h1.25c.41 0 .75.33.75.75v1.75h-7v-1.75c0-.42.33-.75.75-.75h1.25V6.66l-.91-1.58c-.13-.22-.14-.49-.02-.71l1-2Zm-2.08 13.58v2.5c0 1.93 1.56 3.5 3.5 3.5 1.93 0 3.5-1.57 3.5-3.5v-2.5h-7ZM8.81 2.2c.2-.14.46-.17.69-.08 2.03.8 3.47 2.79 3.47 5.11 0 2.12-1.21 3.96-2.97 4.88v7.33c0 1.4-1.14 2.53-2.54 2.53 -1.41 0-2.54-1.14-2.54-2.54v-7.34c-1.77-.92-2.97-2.76-2.97-4.89 0-2.33 1.44-4.31 3.47-5.12 .23-.1.49-.07.69.07 .2.13.32.37.32.62v3.66c0 .55.44 1 1 1 .55 0 1-.45 1-1V2.76c0-.25.12-.49.32-.63Z"/></svg>