<svg viewBox="0 0 24 24" xmlns="http://www.w3.org/2000/svg"><path fill="currentColor" d="M9.8 5.5c-.53-.27-1.11-.31-1.64-.21l-1.19.22c-.87.16-1.61.71-2.01 1.5 -1.37 2.67-2.41 4.86-2.8 6.72 -.42 1.92-.16 3.57 1.07 5.07 .82.99 2.22.79 2.96-.04 .55-.64 1.19-1.37 1.81-2.09 .4-.48 1-.75 1.62-.75h4.65c.62 0 1.21.27 1.62.74 .62.72 1.25 1.45 1.81 2.08 .73.83 2.14 1.03 2.96.03 1.23-1.51 1.49-3.16 1.07-5.08 -.4-1.87-1.44-4.06-2.8-6.73 -.41-.79-1.15-1.34-2.01-1.51l-1.19-.23c-.53-.11-1.11-.06-1.64.2 -.15.07-.3.14-.44.22 -.36.19-.74.29-1.12.29h-1.29c-.38 0-.76-.11-1.12-.3 -.15-.09-.3-.16-.44-.23Zm2.19 5.49c-.56 0-1-.45-1-1 0-.56.44-1 1-1 .55 0 1 .44 1 1 0 .55-.45.99-1 .99Z"/></svg>