<svg viewBox="0 0 24 24" xmlns="http://www.w3.org/2000/svg"><path fill="currentColor" d="M9.8 4.5c-.53-.27-1.11-.31-1.64-.21l-1.19.22c-.87.16-1.61.71-2.01 1.5 -1.37 2.67-2.41 4.86-2.8 6.72 -.42 1.92-.16 3.57 1.07 5.07 .82.99 2.22.79 2.96-.04 .55-.64 1.19-1.37 1.81-2.09 .4-.48 1-.75 1.62-.75h1.51c.69-2.85 3.25-4.97 6.31-4.97 1.46 0 2.82.48 3.9 1.3 -.53-1.54-1.37-3.27-2.4-5.28 -.41-.79-1.15-1.34-2.01-1.51l-1.19-.23c-.53-.11-1.11-.06-1.64.2 -.15.07-.3.14-.44.22 -.36.19-.74.29-1.12.29h-1.29c-.38 0-.76-.11-1.12-.3 -.15-.09-.3-.16-.44-.23Zm2.19 5.49c-.56 0-1-.45-1-1 0-.56.44-1 1-1 .55 0 1 .44 1 1 0 .55-.45 1-1 1Zm11 6.49c0 3.03-2.47 5.5-5.5 5.5 -3.04 0-5.5-2.47-5.5-5.5 0-3.04 2.46-5.5 5.5-5.5 3.03 0 5.5 2.46 5.5 5.5Zm-5.5-3.5c-.28 0-.5.22-.5.5v4c0 .27.22.5.5.5 .27 0 .5-.23.5-.5v-4c0-.28-.23-.5-.5-.5Zm0 7.12c.34 0 .625-.28.625-.625 0-.35-.28-.625-.625-.625 -.35 0-.625.27-.625.625 0 .34.27.625.625.625Z"/></svg>