<svg viewBox="0 0 24 24" xmlns="http://www.w3.org/2000/svg"><path fill="currentColor" d="M14 16.75c0-.42.33-.75.75-.75 .41 0 .75.33.75.75 0 .41-.34.75-.75.75 -.42 0-.75-.34-.75-.75ZM9.25 16c-.42 0-.75.33-.75.75 0 .41.33.75.75.75 .41 0 .75-.34.75-.75 0-.42-.34-.75-.75-.75ZM4 5.25C4 3.45 5.45 2 7.25 2h9.5C18.54 2 20 3.45 20 5.25v13.5c0 1.79-1.46 3.25-3.25 3.25h-9.5C5.45 22 4 20.54 4 18.75V5.25Zm8.75.5c0-.42-.34-.75-.75-.75 -.42 0-.75.33-.75.75v.75H9c-.42 0-.75.33-.75.75 0 .41.33.75.75.75h2.25v1h-3.5c-.42 0-.75.33-.75.75 0 .41.33.75.75.75h3.5v1h-3.5c-.42 0-.75.33-.75.75 0 .41.33.75.75.75h3.5v1.5h-2C8 14.5 7 15.5 7 16.75 7 17.99 8 19 9.25 19c1.24 0 2.25-1.01 2.25-2.25 0-.27-.05-.52-.13-.75h1.25c-.09.23-.13.48-.13.75 0 1.24 1 2.25 2.25 2.25 1.24 0 2.25-1.01 2.25-2.25 0-1.25-1.01-2.25-2.25-2.25h-2V13h3.5c.41 0 .75-.34.75-.75 0-.42-.34-.75-.75-.75h-3.5v-1h3.5c.41 0 .75-.34.75-.75 0-.42-.34-.75-.75-.75h-3.5V8h2.25c.41 0 .75-.34.75-.75 0-.42-.34-.75-.75-.75h-2.25v-.75Z"/></svg>