<svg viewBox="0 0 24 24" xmlns="http://www.w3.org/2000/svg"><path fill="currentColor" d="M12.51 2.7c-.29-.28-.75-.28-1.04-.01L9.24 4.78c-.31.28-.78.26-1.07-.04 -.29-.31-.27-.78.03-1.07l2.22-2.1c.86-.82 2.22-.82 3.09 0l2.2 2.09c.3.28.31.75.02 1.06 -.29.3-.76.31-1.07.02l-2.21-2.1ZM4.76 8.19c.3.28.31.75.03 1.06l-2.1 2.22c-.28.28-.28.74 0 1.03l2.09 2.2c.28.3.27.77-.03 1.06 -.31.28-.78.27-1.07-.03l-2.1-2.21c-.83-.87-.83-2.23-.01-3.1l2.09-2.23c.28-.31.75-.32 1.06-.04Zm14.45.01c.3-.29.77-.28 1.06.02l2.09 2.21c.82.86.82 2.22 0 3.09l-2.1 2.21c-.29.3-.76.31-1.07.02 -.31-.29-.32-.76-.03-1.07l2.09-2.22c.27-.29.27-.75 0-1.04l-2.1-2.22c-.29-.31-.28-.78.02-1.07Zm-3.44 11.01c.28.3.27.77-.03 1.06l-2.22 2.09c-.87.82-2.23.82-3.1 0l-2.22-2.1c-.31-.29-.32-.76-.03-1.07 .28-.31.75-.32 1.06-.03l2.21 2.09c.28.27.74.27 1.03-.01l2.21-2.1c.3-.29.77-.28 1.06.02ZM9.72 6.98c-1.52 0-2.75 1.23-2.75 2.75v4.5c0 1.51 1.23 2.75 2.75 2.75h4.5c1.51 0 2.75-1.24 2.75-2.75V9.72c0-1.52-1.24-2.75-2.75-2.75h-4.5Z"/></svg>