<svg width="24" height="24" viewBox="0 0 24 24" fill="none" xmlns="http://www.w3.org/2000/svg">
<path fill-rule="evenodd" clip-rule="evenodd" d="M11.9999 1.43994C9.87875 1.43994 8.15994 3.15875 8.15994 5.27994C8.15994 7.06963 9.38349 8.57288 11.0399 8.99903V20.5865C9.10164 20.3699 7.28292 19.5021 5.89095 18.1093C4.49857 16.7162 3.63021 14.8978 3.41345 12.9599H5.27994C5.81013 12.9599 6.23994 12.5301 6.23994 11.9999C6.23994 11.4697 5.81013 11.0399 5.27994 11.0399H2.39994C1.86975 11.0399 1.43994 11.4697 1.43994 11.9999C1.43994 14.8008 2.55326 17.4858 4.53293 19.4666C6.51313 21.4479 9.19946 22.5599 11.9999 22.5599C14.8004 22.5599 17.4867 21.4479 19.467 19.4666C21.4466 17.4858 22.5599 14.8008 22.5599 11.9999C22.5599 11.4697 22.1301 11.0399 21.5999 11.0399H18.7199C18.1897 11.0399 17.7599 11.4697 17.7599 11.9999C17.7599 12.5301 18.1897 12.9599 18.7199 12.9599H20.5864C20.3697 14.8978 19.5013 16.7162 18.1089 18.1093C16.717 19.5021 14.8982 20.3699 12.9599 20.5865V8.99903C14.6164 8.57288 15.8399 7.06963 15.8399 5.27994C15.8399 3.15875 14.1211 1.43994 11.9999 1.43994ZM10.0799 5.27994C10.0799 4.21914 10.9391 3.35994 11.9999 3.35994C13.0607 3.35994 13.9199 4.21913 13.9199 5.27994C13.9199 6.34075 13.0607 7.19994 11.9999 7.19994C10.9391 7.19994 10.0799 6.34075 10.0799 5.27994Z" fill="black" style="fill:black;fill-opacity:1;"/>
</svg>
