<svg width="24" height="24" viewBox="0 0 24 24" fill="none" xmlns="http://www.w3.org/2000/svg">
<path d="M2 12C2 12.552 2.448 13 3 13H21C21.552 13 22 12.552 22 12C22 11.448 21.552 11 21 11H3C2.448 11 2 11.448 2 12Z" fill="black" style="fill:black;fill-opacity:1;"/>
<path d="M2.29301 11.293C1.90201 11.684 1.90201 12.317 2.29301 12.708L9.29301 19.708C9.68401 20.099 10.317 20.099 10.708 19.708C11.099 19.317 11.099 18.684 10.708 18.294L4.41501 12.001L10.708 5.70801C11.099 5.31701 11.099 4.68401 10.708 4.29301C10.317 3.90201 9.68401 3.90201 9.29301 4.29301L2.29301 11.293Z" fill="black" style="fill:black;fill-opacity:1;"/>
</svg>
