<svg xmlns="http://www.w3.org/2000/svg" width="24" height="24" fill="none" viewBox="0 0 24 24"><path fill="#000" d="M10.08 9.11994C10.08 8.58975 9.6502 8.15994 9.12 8.15994C8.58981 8.15994 8.16 8.58975 8.16 9.11994V14.8799C8.16 15.4101 8.58981 15.8399 9.12 15.8399H14.88C15.4102 15.8399 15.84 15.4101 15.84 14.8799C15.84 14.3497 15.4102 13.9199 14.88 13.9199H11.4376L15.5588 9.79876C15.9337 9.42386 15.9337 8.81602 15.5588 8.44112C15.1839 8.06622 14.5761 8.06622 14.2012 8.44112L10.08 12.5623V9.11994Z"/><path fill="#000" fill-rule="evenodd" d="M12 1.43994C6.16781 1.43994 1.44 6.16775 1.44 11.9999C1.44 17.8321 6.16781 22.5599 12 22.5599C17.8322 22.5599 22.56 17.8321 22.56 11.9999C22.56 6.16775 17.8322 1.43994 12 1.43994ZM3.36 11.9999C3.36 7.22814 7.2282 3.35994 12 3.35994C16.7718 3.35994 20.64 7.22814 20.64 11.9999C20.64 16.7717 16.7718 20.6399 12 20.6399C7.2282 20.6399 3.36 16.7717 3.36 11.9999Z" clip-rule="evenodd"/></svg>