<svg width="24" height="24" viewBox="0 0 24 24" fill="none" xmlns="http://www.w3.org/2000/svg">
<path d="M22 12C22 12.552 21.552 13 21 13H3C2.448 13 2 12.552 2 12C2 11.448 2.448 11 3 11H21C21.552 11 22 11.448 22 12Z" fill="black" style="fill:black;fill-opacity:1;"/>
<path d="M21.707 11.293C22.098 11.684 22.098 12.317 21.707 12.708L14.707 19.708C14.316 20.099 13.683 20.099 13.292 19.708C12.901 19.317 12.901 18.684 13.292 18.294L19.585 12.001L13.292 5.70801C12.901 5.31701 12.901 4.68401 13.292 4.29301C13.683 3.90201 14.316 3.90201 14.707 4.29301L21.707 11.293Z" fill="black" style="fill:black;fill-opacity:1;"/>
</svg>
