<svg width="24" height="24" viewBox="0 0 24 24" fill="none" xmlns="http://www.w3.org/2000/svg">
<path d="M12 22C6.477 22 2 17.523 2 12C2 6.477 6.478 2 12 2C17.523 2 22 6.477 22 12C22 17.523 17.523 22 12 22ZM9.707 8.293C9.316 7.902 8.683 7.902 8.292 8.293C7.901 8.684 7.901 9.317 8.292 9.708L10.585 12.001L8.292 14.294C7.901 14.685 7.901 15.318 8.292 15.709C8.683 16.1 9.316 16.1 9.707 15.709L12 13.416L14.293 15.709C14.684 16.1 15.317 16.1 15.708 15.709C16.099 15.318 16.099 14.685 15.708 14.294L13.415 12.001L15.708 9.708C16.099 9.317 16.099 8.684 15.708 8.293C15.317 7.902 14.684 7.902 14.293 8.293L12 10.586L9.707 8.293Z" fill="black" style="fill:black;fill-opacity:1;"/>
</svg>
