<svg width="24" height="24" viewBox="0 0 24 24" fill="none" xmlns="http://www.w3.org/2000/svg">
<path d="M17.657 6.34305C17.266 5.95205 16.633 5.95205 16.243 6.34305L12 10.5861L7.758 6.34405C7.367 5.95305 6.734 5.95305 6.344 6.34405C5.954 6.73505 5.953 7.36805 6.344 7.75805L10.586 12.0001L6.344 16.2421C5.953 16.6331 5.953 17.2661 6.344 17.6571C6.735 18.0481 7.368 18.0481 7.758 17.6571L12 13.4151L16.243 17.6581C16.634 18.0491 17.267 18.0491 17.657 17.6581C18.047 17.2671 18.048 16.6341 17.657 16.2441L13.414 12.0011L17.657 7.75805C18.048 7.36705 18.048 6.73305 17.657 6.34305Z" fill="black" style="fill:black;fill-opacity:1;"/>
</svg>
