<svg width="24" height="24" viewBox="0 0 24 24" fill="none" xmlns="http://www.w3.org/2000/svg">
<path d="M10.8489 5.00552C11.8887 3.98639 13.3101 3.35994 14.8799 3.35994C18.0607 3.35994 20.6399 5.93913 20.6399 9.11994C20.6399 10.6898 20.0135 12.1112 18.9944 13.1509C18.6232 13.5296 18.6293 14.1374 19.0079 14.5085C19.3866 14.8797 19.9944 14.8736 20.3655 14.4949C21.7224 13.1107 22.5599 11.2121 22.5599 9.11994C22.5599 4.87875 19.1211 1.43994 14.8799 1.43994C12.7878 1.43994 10.8892 2.27749 9.50494 3.63437C9.12631 4.0055 9.12023 4.61331 9.49136 4.99194C9.8625 5.37058 10.4703 5.37665 10.8489 5.00552Z" fill="black" style="fill:black;fill-opacity:1;"/>
<path fill-rule="evenodd" clip-rule="evenodd" d="M9.11994 7.19994C4.87875 7.19994 1.43994 10.6387 1.43994 14.8799C1.43994 19.1211 4.87875 22.5599 9.11994 22.5599C13.3611 22.5599 16.7999 19.1211 16.7999 14.8799C16.7999 10.6387 13.3611 7.19994 9.11994 7.19994ZM3.35994 14.8799C3.35994 11.6991 5.93913 9.11994 9.11994 9.11994C12.3007 9.11994 14.8799 11.6991 14.8799 14.8799C14.8799 18.0607 12.3007 20.6399 9.11994 20.6399C5.93913 20.6399 3.35994 18.0607 3.35994 14.8799Z" fill="black" style="fill:black;fill-opacity:1;"/>
</svg>
