<svg width="24" height="24" viewBox="0 0 24 24" fill="none" xmlns="http://www.w3.org/2000/svg">
<path d="M14 12C14 13.105 13.105 14 12 14C10.895 14 10 13.105 10 12C10 10.895 10.896 10 12 10C13.104 10 14 10.896 14 12Z" fill="black" style="fill:black;fill-opacity:1;"/>
<path d="M16.832 15.557C15.739 17.038 13.982 18 12 18C7.995 18 5 14.268 5 10C5 5.732 7.995 2 12 2C12.552 2 13 2.448 13 3C13 3.552 12.552 4 12 4C9.79 4 7.753 5.802 7.168 8.443C8.261 6.961 10.018 6 12 6C16.005 6 19 9.732 19 14C19 18.268 16.005 22 12 22C11.448 22 11 21.552 11 21C11 20.448 11.448 20 12 20C14.21 20 16.247 18.198 16.832 15.557ZM11.755 15.992C11.837 15.997 11.919 16 12 16C14.209 16 16 14.209 16 12C16 9.867 14.33 8.123 12.226 8.006C12.151 8.001 12.075 8 12 8C9.79 8 8 9.791 8 12C8 14.127 9.659 15.866 11.755 15.992Z" fill="black" style="fill:black;fill-opacity:1;"/>
</svg>
