<svg xmlns="http://www.w3.org/2000/svg" width="24" height="24" fill="none" viewBox="0 0 24 24"><path fill="#000" d="M12 20C7.582 20 4 16.418 4 12C4 7.582 7.582 4 12 4C16.418 4 20 7.582 20 12C20 16.418 16.418 20 12 20ZM12 22C17.523 22 22 17.523 22 12C22 6.477 17.523 2 12 2C6.477 2 2 6.477 2 12C2 17.523 6.477 22 12 22Z"/><path fill="#000" d="M10 9.5C10 10.329 9.329 11 8.5 11C7.671 11 7 10.329 7 9.5C7 8.671 7.671 8 8.5 8C9.329 8 10 8.671 10 9.5ZM17 9.5C17 10.329 16.329 11 15.5 11C14.671 11 14 10.329 14 9.5C14 8.671 14.671 8 15.5 8C16.329 8 17 8.671 17 9.5ZM9 14C8.448 14 8 14.448 8 15C8 15.552 8.448 16 9 16H15C15.552 16 16 15.552 16 15C16 14.448 15.552 14 15 14H8.999H9Z"/></svg>