<svg xmlns="http://www.w3.org/2000/svg" width="24" height="24" fill="none" viewBox="0 0 24 24"><path fill="#000" d="M21.878 7.79102C21.958 8.18202 22 8.58602 22 9.00002C22 16.351 15.329 19.806 12.884 20.825C12.315 21.063 11.685 21.063 11.116 20.825C10.811 20.697 10.439 20.532 10.022 20.325C7.10702 18.881 1.99902 15.431 1.99902 8.99902C1.99902 5.68602 4.68602 2.99902 7.99902 2.99902C9.53602 2.99902 10.937 3.57602 11.999 4.52702C13.06 3.57702 14.462 2.99902 15.999 2.99902C17.294 2.99902 18.493 3.40902 19.474 4.10702C20.689 4.97102 21.568 6.27802 21.878 7.79102Z"/></svg>