<svg width="24" height="24" viewBox="0 0 24 24" fill="none" xmlns="http://www.w3.org/2000/svg">
<path d="M21 2H9C8.448 2 8 2.448 8 3V7H6C5.448 7 5 7.448 5 8V12H3C2.448 12 2 12.448 2 13V21C2 21.552 2.448 22 3 22H11C11.552 22 12 21.552 12 21V19H16C16.552 19 17 18.552 17 18V16H21C21.552 16 22 15.552 22 15V3C22 2.448 21.552 2 21 2ZM10 20H4V14H10V20ZM15 17H12V13C12 12.448 11.552 12 11 12H7V9H15L14.999 17H15ZM20 14H17V8C17 7.448 16.552 7 16 7H10V4H20V14Z" fill="black" style="fill:black;fill-opacity:1;"/>
</svg>
