<svg width="24" height="24" viewBox="0 0 24 24" fill="none" xmlns="http://www.w3.org/2000/svg">
<path d="M9 18H15V20C15 21.105 14.105 22 13 22H11C9.895 22 9 21.105 9 20V18Z" fill="black" style="fill:black;fill-opacity:1;"/>
<path d="M10.707 10.293C10.316 9.90201 9.683 9.90201 9.292 10.293C8.901 10.684 8.901 11.317 9.292 11.708L10.999 13.415V20.001H12.999V13.415L14.706 11.708C15.097 11.317 15.097 10.684 14.706 10.293C14.315 9.90201 13.682 9.90201 13.291 10.293L11.998 11.586L10.707 10.293Z" fill="black" style="fill:black;fill-opacity:1;"/>
<path d="M15 15.285L15.749 14.684C17.124 13.581 18 11.893 18 9.99898C18 6.68598 15.313 3.99898 12 3.99898C8.687 3.99898 6 6.68598 6 9.99898C6 11.893 6.875 13.581 8.251 14.684L9 15.285V17C9 17.552 9.448 18 10 18H14C14.552 18 15 17.552 15 17L15.001 15.285H15ZM17 16.246V17.001C17 18.658 15.657 20.001 14 20.001H10C8.343 20.001 7 18.658 7 17.001V16.246C5.171 14.78 4 12.527 4 10.001C4 5.58298 7.582 2.00098 12 2.00098C16.418 2.00098 20 5.58298 20 10.001C20 12.528 18.83 14.78 17 16.246Z" fill="black" style="fill:black;fill-opacity:1;"/>
</svg>
