<svg width="24" height="24" viewBox="0 0 24 24" fill="none" xmlns="http://www.w3.org/2000/svg">
<path d="M21 2H15C14.448 2 14 2.448 14 3C14 3.552 14.448 4 15 4H20V9C20 9.552 20.448 10 21 10C21.552 10 22 9.552 22 9V3C22 2.448 21.552 2 21 2ZM21 14C20.448 14 20 14.448 20 15V20H15C14.448 20 14 20.448 14 21C14 21.552 14.448 22 15 22H21C21.552 22 22 21.552 22 21V15C22 14.448 21.552 14 21 14ZM12 6C10.343 6 9 7.343 9 9V10C7.895 10 7 10.896 7 12V16C7 17.105 7.896 18 9 18H15C16.105 18 17 17.105 17 16V12C17 10.895 16.105 10 15 10V9C15 7.343 13.657 6 12 6ZM11 9C11 8.448 11.448 8 12 8C12.552 8 13 8.448 13 9V10H11L11.001 9H11ZM15 16H9V12H15V16ZM3 10C3.552 10 4 9.552 4 9V4H9C9.552 4 10 3.552 10 3C10 2.448 9.552 2 9 2H3C2.448 2 2 2.448 2 3V9C2 9.552 2.448 10 3 10ZM9 20H4V15C4 14.448 3.552 14 3 14C2.448 14 2 14.448 2 15V21C2 21.552 2.448 22 3 22H9C9.552 22 10 21.552 10 21C10 20.448 9.552 20 9 20Z" fill="black" style="fill:black;fill-opacity:1;"/>
</svg>
