<svg width="24" height="24" viewBox="0 0 24 24" fill="none" xmlns="http://www.w3.org/2000/svg">
<path d="M12 4C7.582 4 4 7.582 4 12C4 16.418 7.582 20 12 20C16.418 20 20 16.418 20 12C20 7.582 16.418 4 12 4ZM2 12C2 6.477 6.478 2 12 2C17.522 2 22 6.478 22 12C22 17.523 17.523 22 12 22C6.477 22 2 17.523 2 12Z" fill="black" style="fill:black;fill-opacity:1;"/>
<path d="M7 12C7 11.448 7.448 11 8 11H16C16.552 11 17 11.448 17 12C17 12.552 16.552 13 16 13H8C7.448 13 7 12.552 7 12Z" fill="black" style="fill:black;fill-opacity:1;"/>
</svg>
