<svg width="24" height="24" viewBox="0 0 24 24" fill="none" xmlns="http://www.w3.org/2000/svg">
<path d="M20 3.99699C20 2.71699 18.815 1.76699 17.566 2.04499L10.566 3.60099C9.651 3.80399 9 4.61599 9 5.55299V18.5C9 19.052 9.448 19.5 10 19.5C10.552 19.5 11 19.052 11 18.5V9.80199L18 8.24599V16.499C18 17.051 18.448 17.499 19 17.499C19.552 17.499 20 17.051 20 16.499V3.99599V3.99699Z" fill="black" style="fill:black;fill-opacity:1;"/>
<path d="M16.5 20C18.433 20 20 18.433 20 16.5C20 14.567 18.433 13 16.5 13C14.567 13 13 14.567 13 16.5C13 18.433 14.567 20 16.5 20ZM7.5 22C9.433 22 11 20.433 11 18.5C11 16.567 9.433 15 7.5 15C5.567 15 4 16.567 4 18.5C4 20.433 5.567 22 7.5 22Z" fill="black" style="fill:black;fill-opacity:1;"/>
</svg>
