<svg width="24" height="24" viewBox="0 0 24 24" fill="none" xmlns="http://www.w3.org/2000/svg">
<path d="M9 3C9 2.448 9.448 2 10 2C10.552 2 11 2.448 11 3C11 3.552 10.552 4 10 4C9.448 4 9 3.552 9 3ZM4 5C4 4.448 4.448 4 5 4C5.552 4 6 4.448 6 5C6 5.552 5.552 6 5 6C4.448 6 4 5.552 4 5ZM15 4C14.448 4 14 4.448 14 5C14 5.552 14.448 6 15 6C15.552 6 16 5.552 16 5C16 4.448 15.552 4 15 4ZM3 9C3.552 9 4 9.448 4 10C4 10.552 3.552 11 3 11C2.448 11 2 10.552 2 10C2 9.448 2.448 9 3 9ZM8 10C8 8.895 8.896 8 10 8C10.593 8 11.123 8.256 11.491 8.667C11.859 9.079 12.492 9.113 12.903 8.745C13.314 8.377 13.349 7.745 12.981 7.333C12.25 6.516 11.185 6 10 6C7.79 6 6 7.791 6 10C6 10.552 6.448 11 7 11C7.552 11 8 10.552 8 10ZM11.777 14.67L10.359 14.151C10.094 14.054 9.806 14 9.5 14C8.119 14 7 15.119 7 16.5C7 17.881 8.119 19 9.5 19H15.5C17.433 19 19 17.433 19 15.5C19 13.567 17.433 12 15.5 12C14.336 12 13.304 12.566 12.664 13.447L11.777 14.67ZM11.046 12.272C12.046 10.895 13.668 10 15.5 10C18.538 10 21 12.462 21 15.5C21 18.538 18.538 21 15.5 21H9.5C7.014 21 5 18.985 5 16.5C5 14.015 7.014 12 9.5 12C10.043 12 10.564 12.096 11.046 12.272Z" fill="black" style="fill:black;fill-opacity:1;"/>
</svg>
