<svg width="24" height="24" viewBox="0 0 24 24" fill="none" xmlns="http://www.w3.org/2000/svg">
<path d="M9.5 16H14.5M14.5 10.5C14.5 11.8807 13.3807 13 12 13C10.6193 13 9.5 11.8807 9.5 10.5C9.5 9.11929 10.6193 8 12 8C13.3807 8 14.5 9.11929 14.5 10.5ZM6.5 20.5H17.5C18.6046 20.5 19.5 19.6046 19.5 18.5V5.5C19.5 4.39543 18.6046 3.5 17.5 3.5H6.5C5.39543 3.5 4.5 4.39543 4.5 5.5V18.5C4.5 19.6046 5.39543 20.5 6.5 20.5Z" stroke="black" style="stroke:black;stroke-opacity:1;" stroke-width="2" stroke-linecap="round" stroke-linejoin="round"/>
</svg>
