<svg xmlns="http://www.w3.org/2000/svg" width="24" height="24" fill="none" viewBox="0 0 24 24"><path fill="#000" d="M19.3988 5.95883C19.7737 5.58393 19.7737 4.97609 19.3988 4.60118 19.0239 4.22628 18.4161 4.22628 18.0412 4.60118L4.60118 18.0412C4.22628 18.4161 4.22628 19.0239 4.60118 19.3988 4.97609 19.7737 5.58393 19.7737 5.95883 19.3988L19.3988 5.95883ZM6.72001 4.80001C5.65981 4.80001 4.80001 5.65981 4.80001 6.72001 4.80001 7.7802 5.65981 8.64001 6.72001 8.64001 7.7802 8.64001 8.64001 7.7802 8.64001 6.72001 8.64001 5.65981 7.7802 4.80001 6.72001 4.80001ZM17.28 15.36C16.2198 15.36 15.36 16.2198 15.36 17.28 15.36 18.3402 16.2198 19.2 17.28 19.2 18.3402 19.2 19.2 18.3402 19.2 17.28 19.2 16.2198 18.3402 15.36 17.28 15.36Z"/></svg>