<svg width="24" height="24" viewBox="0 0 24 24" fill="none" xmlns="http://www.w3.org/2000/svg">
<path fill-rule="evenodd" clip-rule="evenodd" d="M6.23999 2.40002C4.1188 2.40002 2.39999 4.11883 2.39999 6.24002C2.39999 8.36122 4.1188 10.08 6.23999 10.08C6.95225 10.08 7.61913 9.88623 8.19081 9.54849L10.6423 12L8.19081 14.4516C7.61913 14.1138 6.95225 13.92 6.23999 13.92C4.1188 13.92 2.39999 15.6388 2.39999 17.76C2.39999 19.8812 4.1188 21.6 6.23999 21.6C8.36119 21.6 10.08 19.8812 10.08 17.76C10.08 17.0478 9.8862 16.3809 9.54846 15.8092L12 13.3577L19.0012 20.3588C19.3761 20.7337 19.9839 20.7337 20.3588 20.3588C20.7337 19.9839 20.7337 19.3761 20.3588 19.0012L13.3576 12L20.3588 4.99885C20.7337 4.62394 20.7337 4.01611 20.3588 3.6412C19.9839 3.2663 19.3761 3.2663 19.0012 3.6412L12 10.6424L9.54846 8.19084C9.8862 7.61916 10.08 6.95228 10.08 6.24002C10.08 4.11883 8.36119 2.40002 6.23999 2.40002ZM4.31999 6.24002C4.31999 5.17922 5.17919 4.32002 6.23999 4.32002C7.3008 4.32002 8.15999 5.17922 8.15999 6.24002C8.15999 7.30083 7.3008 8.16002 6.23999 8.16002C5.17919 8.16002 4.31999 7.30083 4.31999 6.24002ZM4.31999 17.76C4.31999 16.6992 5.17919 15.84 6.23999 15.84C7.3008 15.84 8.15999 16.6992 8.15999 17.76C8.15999 18.8208 7.3008 19.68 6.23999 19.68C5.17919 19.68 4.31999 18.8208 4.31999 17.76Z" fill="black" style="fill:black;fill-opacity:1;"/>
</svg>
