<svg width="24" height="24" viewBox="0 0 24 24" fill="none" xmlns="http://www.w3.org/2000/svg">
<path d="M13.793 13.793C14.184 13.402 14.817 13.402 15.207 13.793L20.707 19.293C21.098 19.684 21.098 20.317 20.707 20.707C20.316 21.097 19.683 21.098 19.292 20.707L13.792 15.207C13.401 14.816 13.401 14.183 13.792 13.793H13.793Z" fill="black" style="fill:black;fill-opacity:1;"/>
<path d="M10 5C7.238 5 5 7.239 5 10C5 12.761 7.239 15 10 15C12.761 15 15 12.761 15 10C15 7.239 12.761 5 10 5ZM3 10C3 6.134 6.134 3 10 3C13.866 3 17 6.134 17 10C17 13.866 13.866 17 10 17C6.134 17 3 13.866 3 10Z" fill="black" style="fill:black;fill-opacity:1;"/>
</svg>
