<svg xmlns="http://www.w3.org/2000/svg" width="24" height="24" fill="none" viewBox="0 0 24 24"><path fill="#000" d="M9.79882 7.87881C10.1737 7.50391 10.1737 6.89607 9.79882 6.52117 9.42392 6.14626 8.81608 6.14626 8.44118 6.52117L3.64118 11.3212C3.46114 11.5012 3.36 11.7454 3.36 12 3.36 12.2546 3.46114 12.4988 3.64118 12.6788L8.44118 17.4788C8.81608 17.8537 9.42392 17.8537 9.79882 17.4788 10.1737 17.1039 10.1737 16.4961 9.79882 16.1212L5.67765 12 9.79882 7.87881ZM15.5588 6.52117C15.1839 6.14626 14.5761 6.14626 14.2012 6.52117 13.8263 6.89607 13.8263 7.50391 14.2012 7.87881L18.3224 12 14.2012 16.1212C13.8263 16.4961 13.8263 17.1039 14.2012 17.4788 14.5761 17.8537 15.1839 17.8537 15.5588 17.4788L20.3588 12.6788C20.5389 12.4988 20.64 12.2546 20.64 12 20.64 11.7454 20.5389 11.5012 20.3588 11.3212L15.5588 6.52117Z"/></svg>