<svg xmlns="http://www.w3.org/2000/svg" width="24" height="24" fill="none" viewBox="0 0 24 24"><path fill="#000" d="M12.6788 3.64116C12.4988 3.46113 12.2546 3.35999 12 3.35999 11.7454 3.35999 11.5012 3.46113 11.3212 3.64116L6.52117 8.44116C6.14626 8.81607 6.14626 9.4239 6.52117 9.79881 6.89607 10.1737 7.50391 10.1737 7.87881 9.79881L12 5.67763 16.1212 9.79881C16.4961 10.1737 17.1039 10.1737 17.4788 9.79881 17.8537 9.4239 17.8537 8.81607 17.4788 8.44116L12.6788 3.64116ZM7.87881 14.2012C7.50391 13.8263 6.89607 13.8263 6.52117 14.2012 6.14626 14.5761 6.14626 15.1839 6.52117 15.5588L11.3212 20.3588C11.5012 20.5388 11.7454 20.64 12 20.64 12.2546 20.64 12.4988 20.5388 12.6788 20.3588L17.4788 15.5588C17.8537 15.1839 17.8537 14.5761 17.4788 14.2012 17.1039 13.8263 16.4961 13.8263 16.1212 14.2012L12 18.3223 7.87881 14.2012Z"/></svg>