<svg width="24" height="24" viewBox="0 0 24 24" fill="none" xmlns="http://www.w3.org/2000/svg">
<path d="M3 4C3 3.448 3.448 3 4 3H20C20.552 3 21 3.448 21 4C21 4.552 20.552 5 20 5H4C3.448 5 3 4.552 3 4ZM3 12C3 11.448 3.448 11 4 11H20C20.552 11 21 11.448 21 12C21 12.552 20.552 13 20 13H4C3.448 13 3 12.552 3 12ZM4 19C3.448 19 3 19.448 3 20C3 20.552 3.448 21 4 21H20C20.552 21 21 20.552 21 20C21 19.448 20.552 19 20 19H4ZM7 8C7 7.448 7.448 7 8 7H16C16.552 7 17 7.448 17 8C17 8.552 16.552 9 16 9H8C7.448 9 7 8.552 7 8ZM8 15C7.448 15 7 15.448 7 16C7 16.552 7.448 17 8 17H16C16.552 17 17 16.552 17 16C17 15.448 16.552 15 16 15H8Z" fill="black" style="fill:black;fill-opacity:1;"/>
</svg>
