<svg width="24" height="24" viewBox="0 0 24 24" fill="none" xmlns="http://www.w3.org/2000/svg">
<path d="M3 4C3 3.448 3.448 3 4 3H20C20.552 3 21 3.448 21 4C21 4.552 20.552 5 20 5H4C3.448 5 3 4.552 3 4ZM3 12C3 11.448 3.448 11 4 11H20C20.552 11 21 11.448 21 12C21 12.552 20.552 13 20 13H4C3.448 13 3 12.552 3 12ZM4 19C3.448 19 3 19.448 3 20C3 20.552 3.448 21 4 21H20C20.552 21 21 20.552 21 20C21 19.448 20.552 19 20 19H4ZM3 8C3 7.448 3.448 7 4 7H20C20.552 7 21 7.448 21 8C21 8.552 20.552 9 20 9H4C3.448 9 3 8.552 3 8ZM4 15C3.448 15 3 15.448 3 16C3 16.552 3.448 17 4 17H20C20.552 17 21 16.552 21 16C21 15.448 20.552 15 20 15H4Z" fill="black" style="fill:black;fill-opacity:1;"/>
</svg>
