<svg width="24" height="24" viewBox="0 0 24 24" fill="none" xmlns="http://www.w3.org/2000/svg">
<path d="M14.217 2.02397C14.756 2.14397 15.096 2.67797 14.976 3.21697L10.976 21.217C10.856 21.756 10.322 22.096 9.78297 21.976C9.24397 21.856 8.90397 21.322 9.02397 20.783L13.024 2.78297C13.144 2.24397 13.678 1.90397 14.217 2.02397Z" fill="black" style="fill:black;fill-opacity:1;"/>
<path d="M9 2C8.448 2 8 2.448 8 3C8 3.552 8.448 4 9 4H19C19.552 4 20 3.552 20 3C20 2.448 19.552 2 19 2H9ZM5 20C4.448 20 4 20.448 4 21C4 21.552 4.448 22 5 22H15C15.552 22 16 21.552 16 21C16 20.448 15.552 20 15 20H5Z" fill="black" style="fill:black;fill-opacity:1;"/>
</svg>
