<svg xmlns="http://www.w3.org/2000/svg" width="24" height="24" fill="none" viewBox="0 0 24 24"><path stroke="#000" stroke-linejoin="round" stroke-width="2" d="M14.4999 16C18.0898 16 20.9999 13.0899 20.9999 9.5C20.9999 8.75038 20.873 8.03041 20.6395 7.36037L17.9999 10C16.8953 11.1046 15.1045 11.1046 13.9999 10C12.8953 8.89543 12.8953 7.10457 13.9999 6L16.6395 3.36037C15.9695 3.12689 15.2495 3 14.4999 3C10.91 3 7.99995 5.91015 7.99995 9.5C7.99995 10.3864 8.17738 11.2314 8.49865 12.0013L3.66416 16.8358C2.88311 17.6168 2.88311 18.8832 3.66416 19.6642L4.33574 20.3358C5.11679 21.1168 6.38311 21.1168 7.16416 20.3358L11.9986 15.5013C12.7685 15.8226 13.6135 16 14.4999 16Z"/></svg>