<svg width="24" height="24" viewBox="0 0 24 24" fill="none" xmlns="http://www.w3.org/2000/svg">
<path d="M12 7C12.552 7 13 7.448 13 8V12C13 12.552 12.552 13 12 13C11.448 13 11 12.552 11 12V8C11 7.448 11.448 7 12 7Z" fill="black" style="fill:black;fill-opacity:1;"/>
<path d="M11 16C11 15.448 11.448 15 12 15C12.552 15 13 15.448 13 16C13 16.552 12.552 17 12 17C11.448 17 11 16.552 11 16Z" fill="black" style="fill:black;fill-opacity:1;"/>
<path fill-rule="evenodd" clip-rule="evenodd" d="M12 2C6.478 2 2 6.477 2 12C2 17.523 6.477 22 12 22C17.523 22 22 17.523 22 12C22 6.478 17.522 2 12 2ZM4 12C4 7.582 7.582 4 12 4C16.418 4 20 7.582 20 12C20 16.418 16.418 20 12 20C7.582 20 4 16.418 4 12Z" fill="black" style="fill:black;fill-opacity:1;"/>
</svg>
