<svg width="24" height="24" viewBox="0 0 24 24" fill="none" xmlns="http://www.w3.org/2000/svg">
<path d="M10 3C6.134 3 3 6.134 3 10C3 13.866 6.134 17 10 17C11.572 17 13.023 16.482 14.193 15.607L19.294 20.708C19.685 21.099 20.318 21.099 20.709 20.708C21.1 20.317 21.1 19.684 20.709 19.293L15.608 14.192C16.483 13.024 17.002 11.572 17.002 10C17.002 6.134 13.868 3 10.002 3L10.001 3.001L10 3ZM5 10C5 7.239 7.239 5 10 5C12.761 5 15 7.239 15 10C15 12.761 12.761 15 10 15C7.239 15 5 12.761 5 10Z" fill="black" style="fill:black;fill-opacity:1;"/>
<path d="M10 7C9.448 7 9 7.448 9 8V9H8C7.448 9 7 9.448 7 10C7 10.552 7.448 11 8 11H9V12C9 12.552 9.448 13 10 13C10.552 13 11 12.552 11 12V11H12C12.552 11 13 10.552 13 10C13 9.448 12.552 9 12 9H11V8C11 7.448 10.552 7 10 7Z" fill="black" style="fill:black;fill-opacity:1;"/>
</svg>
