<svg width="200" height="200" viewBox="0 0 200 200" fill="none" xmlns="http://www.w3.org/2000/svg">
<path d="M158 0H42C18.804 0 0 18.804 0 42V158C0 181.196 18.804 200 42 200H158C181.196 200 200 181.196 200 158V42C200 18.804 181.196 0 158 0Z" fill="url(#paint0_linear_1_24)"/>
<g style="mix-blend-mode:soft-light" filter="url(#filter0_di_1_24)">
<mask id="mask0_1_24" style="mask-type:luminance" maskUnits="userSpaceOnUse" x="29" y="29" width="142" height="142">
<g style="mix-blend-mode:soft-light">
<path d="M170.312 29.6875H29.6875V170.312H170.312V29.6875Z" fill="white"/>
</g>
</mask>
<g mask="url(#mask0_1_24)">
<path d="M50.9285 132.05C64.402 152.685 90.064 163.321 115.163 156.596C140.263 149.87 157.168 127.829 158.519 103.221C156.468 104.34 154.33 105.413 152.162 106.438C140.231 112.079 123.952 117.844 106.064 122.637C88.1747 127.431 71.195 130.577 58.0424 131.658C55.6515 131.854 53.264 131.993 50.9285 132.05Z" fill="black"/>
<path d="M84.8325 43.4012C110.09 36.6335 135.903 47.4444 149.309 68.3241C152.424 68.3661 155.254 68.616 157.624 69.1505C159.228 69.5123 160.946 70.0738 162.46 71.0212C164.007 71.9897 165.722 73.6183 166.398 76.1405C167.215 79.1895 166.08 81.8272 164.977 83.5008C163.857 85.2012 162.283 86.6905 160.654 87.9747C157.359 90.574 152.669 93.236 147.153 95.844C136.031 101.103 120.455 106.649 103.031 111.318C85.6065 115.987 69.3441 118.971 57.0832 119.978C51.0013 120.478 45.6089 120.517 41.4554 119.914C39.4031 119.616 37.2953 119.113 35.4748 118.201C33.6831 117.303 31.3816 115.586 30.5646 112.537C29.8888 110.015 30.5594 107.747 31.4155 106.134C32.253 104.557 33.4593 103.212 34.6679 102.097C36.4533 100.448 38.7789 98.817 41.4556 97.223C42.6255 72.438 59.575 50.169 84.8325 43.4012Z" fill="black"/>
</g>
</g>
<defs>
<filter id="filter0_di_1_24" x="14.288" y="33.3899" width="168.388" height="149.217" filterUnits="userSpaceOnUse" color-interpolation-filters="sRGB">
<feFlood flood-opacity="0" result="BackgroundImageFix"/>
<feColorMatrix in="SourceAlpha" type="matrix" values="0 0 0 0 0 0 0 0 0 0 0 0 0 0 0 0 0 0 127 0" result="hardAlpha"/>
<feOffset dy="8"/>
<feGaussianBlur stdDeviation="8"/>
<feComposite in2="hardAlpha" operator="out"/>
<feColorMatrix type="matrix" values="0 0 0 0 0.109804 0 0 0 0 0.0980392 0 0 0 0 0.0901961 0 0 0 0.33 0"/>
<feBlend mode="normal" in2="BackgroundImageFix" result="effect1_dropShadow_1_24"/>
<feBlend mode="normal" in="SourceGraphic" in2="effect1_dropShadow_1_24" result="shape"/>
<feColorMatrix in="SourceAlpha" type="matrix" values="0 0 0 0 0 0 0 0 0 0 0 0 0 0 0 0 0 0 127 0" result="hardAlpha"/>
<feOffset dx="8" dy="16"/>
<feGaussianBlur stdDeviation="12"/>
<feComposite in2="hardAlpha" operator="arithmetic" k2="-1" k3="1"/>
<feColorMatrix type="matrix" values="0 0 0 0 0.0470588 0 0 0 0 0.0392157 0 0 0 0 0.0352941 0 0 0 0.5 0"/>
<feBlend mode="normal" in2="shape" result="effect2_innerShadow_1_24"/>
</filter>
<linearGradient id="paint0_linear_1_24" x1="207.422" y1="-4.47463e-06" x2="0" y2="200" gradientUnits="userSpaceOnUse">
<stop stop-color="#633FE2"/>
<stop offset="1" stop-color="#9473EE"/>
</linearGradient>
</defs>
</svg>
