<svg width="788" height="220" viewBox="0 0 788 220" fill="none" xmlns="http://www.w3.org/2000/svg">
<rect x="10" y="10" width="200" height="200" rx="42" fill="url(#paint0_linear_32_45)"/>
<g style="mix-blend-mode:soft-light" filter="url(#filter0_di_32_45)">
<mask id="mask0_32_45" style="mask-type:luminance" maskUnits="userSpaceOnUse" x="39" y="39" width="142" height="142">
<path d="M180.312 39.6875H39.6875V180.312H180.312V39.6875Z" fill="white"/>
</mask>
<g mask="url(#mask0_32_45)">
<path d="M60.9285 142.05C74.402 162.685 100.064 173.321 125.163 166.596C150.263 159.87 167.168 137.829 168.519 113.221C166.468 114.34 164.33 115.413 162.162 116.438C150.231 122.079 133.952 127.844 116.064 132.637C98.1747 137.431 81.195 140.577 68.0424 141.658C65.6515 141.854 63.264 141.993 60.9285 142.05Z" fill="black"/>
<path d="M94.8325 53.4012C120.09 46.6335 145.903 57.4444 159.309 78.3241C162.424 78.3661 165.254 78.616 167.624 79.1505C169.228 79.5123 170.946 80.0738 172.46 81.0212C174.007 81.9897 175.722 83.6183 176.398 86.1405C177.215 89.1895 176.08 91.8272 174.977 93.5008C173.857 95.2012 172.283 96.6905 170.654 97.9747C167.359 100.574 162.669 103.236 157.153 105.844C146.031 111.103 130.455 116.649 113.031 121.318C95.6065 125.987 79.3441 128.971 67.0832 129.978C61.0013 130.478 55.6089 130.517 51.4554 129.914C49.4031 129.616 47.2953 129.113 45.4748 128.201C43.6831 127.303 41.3816 125.586 40.5646 122.537C39.8888 120.015 40.5594 117.747 41.4155 116.134C42.253 114.557 43.4593 113.212 44.6679 112.097C46.4533 110.448 48.7789 108.817 51.4556 107.223C52.6255 82.438 69.575 60.169 94.8325 53.4012Z" fill="black"/>
</g>
</g>
<path d="M353.711 51.625V34.585H359.351C363.335 34.585 365.303 36.121 365.303 39.265C365.303 41.185 364.127 42.553 362.231 42.889C364.607 43.201 366.023 44.689 366.023 46.897C366.023 49.969 364.031 51.625 360.311 51.625H353.711ZM355.343 50.041H360.311C362.927 50.041 364.319 48.937 364.319 46.897C364.319 44.953 362.831 43.801 360.311 43.801H355.343V50.041ZM355.343 42.217H359.351C362.087 42.217 363.599 41.161 363.599 39.265C363.599 37.201 362.183 36.169 359.351 36.169H355.343V42.217ZM385.511 45.673C385.511 49.609 383.135 52.009 379.223 52.009C375.311 52.009 372.935 49.609 372.935 45.673V34.561H374.567V45.673C374.567 48.697 376.247 50.401 379.223 50.401C382.199 50.401 383.879 48.697 383.879 45.673V34.561H385.511V45.673ZM393.208 34.585H394.84V51.625H393.208V34.585ZM402.925 51.625V34.585H404.557V50.041H413.293V51.625H402.925ZM428.79 34.585V36.169H423.318V51.625H421.686V36.169H416.214V34.585H428.79ZM443.146 34.585H444.922L448.762 49.465L452.458 34.585H454.378L458.074 49.465L461.914 34.585H463.69L459.106 51.625H456.994L453.418 37.633L449.818 51.625H447.73L443.146 34.585ZM470.059 34.585H471.691V51.625H470.059V34.585ZM490.745 34.585V36.169H485.273V51.625H483.641V36.169H478.169V34.585H490.745ZM497.205 51.625V34.585H498.837V42.217H507.765V34.585H509.397V51.625H507.765V43.801H498.837V51.625H497.205ZM527.957 46.129C528.245 48.553 530.141 50.305 532.973 50.305C535.349 50.305 537.053 49.201 537.053 47.377C537.053 45.577 535.493 44.425 531.941 43.513C528.821 42.721 526.613 41.353 526.613 38.809C526.613 35.977 528.869 34.201 532.205 34.201C535.685 34.201 538.133 36.481 538.373 39.553L536.669 39.673C536.453 37.369 534.677 35.809 532.109 35.809C529.877 35.809 528.317 36.961 528.317 38.809C528.317 40.801 530.405 41.497 533.165 42.289C536.549 43.249 538.757 44.761 538.757 47.233C538.757 50.161 536.021 51.913 532.829 51.913C529.181 51.913 526.445 49.585 526.253 46.249L527.957 46.129ZM545.458 51.625V34.585H547.09V42.217H556.018V34.585H557.65V51.625H556.018V43.801H547.09V51.625H545.458ZM572.017 52.009C567.265 52.009 564.361 48.601 564.361 43.129C564.361 37.609 567.265 34.201 572.017 34.201C576.769 34.201 579.673 37.609 579.673 43.129C579.673 48.601 576.769 52.009 572.017 52.009ZM566.089 43.129C566.089 47.617 568.321 50.401 572.017 50.401C575.713 50.401 577.945 47.617 577.945 43.129C577.945 38.593 575.713 35.809 572.017 35.809C568.321 35.809 566.089 38.593 566.089 43.129ZM586.455 34.585H596.943V36.169H588.087V42.313H596.655V43.873H588.087V50.041H597.135V51.625H586.455V34.585ZM604.281 51.625V34.585H605.913V50.041H614.649V51.625H604.281ZM620.333 51.625L626.525 34.585H628.685L634.901 51.625H633.125L631.301 46.513H623.933L622.109 51.625H620.333ZM624.485 44.929H630.749L627.605 36.049L624.485 44.929ZM653.862 45.913C653.238 49.633 650.862 52.009 647.142 52.009C642.366 52.009 639.558 48.241 639.558 43.129C639.558 37.993 642.366 34.201 647.142 34.201C650.598 34.201 652.974 36.409 653.718 39.913L651.99 40.033C651.438 37.369 649.638 35.809 647.142 35.809C643.206 35.809 641.286 39.001 641.286 43.129C641.286 47.233 643.23 50.401 647.142 50.401C649.758 50.401 651.606 48.769 652.11 45.793L653.862 45.913ZM660.527 34.585H671.015V36.169H662.159V42.313H670.727V43.873H662.159V50.041H671.207V51.625H660.527V34.585Z" fill="#A9A6A2"/>
<path d="M254.704 72.745H278.128L311.152 129.833V72.745H333.552V163.625H309.36L276.976 108.841V163.625H254.704V72.745ZM349.329 72.745H414.609V90.921H371.601V108.969H413.073V127.145H371.601V145.449H415.633V163.625H349.329V72.745ZM429.704 163.625V72.745H463.368C489.352 72.745 502.152 80.425 502.152 97.961C502.152 108.841 495.24 115.369 482.824 116.649C498.056 117.929 505.992 125.097 505.992 137.897C505.992 154.793 493.32 163.625 468.488 163.625H429.704ZM451.976 146.089H469.256C477.576 146.089 483.592 142.761 483.592 135.593C483.592 128.553 477.704 125.097 469.256 125.097H451.976V146.089ZM451.976 109.737H465.672C473.992 109.737 479.752 106.665 479.752 100.137C479.752 93.225 474.248 90.281 465.672 90.281H451.976V109.737ZM595.715 130.473C595.715 151.977 580.867 165.673 557.187 165.673C533.507 165.673 518.659 151.977 518.659 130.473V72.617H540.931V130.473C540.931 141.737 547.075 147.497 557.187 147.497C567.427 147.497 573.315 141.737 573.315 130.473V72.617H595.715V130.473ZM611.204 163.625V72.745H633.476V145.449H674.18V163.625H611.204ZM683.328 163.625L716.096 72.745H741.824L774.592 163.625H751.808L745.792 146.473H712L706.112 163.625H683.328ZM718.016 128.809H739.904L729.024 96.809L718.016 128.809Z" fill="white"/>
<defs>
<filter id="filter0_di_32_45" x="23.6875" y="31.6875" width="172.625" height="172.625" filterUnits="userSpaceOnUse" color-interpolation-filters="sRGB">
<feFlood flood-opacity="0" result="BackgroundImageFix"/>
<feColorMatrix in="SourceAlpha" type="matrix" values="0 0 0 0 0 0 0 0 0 0 0 0 0 0 0 0 0 0 127 0" result="hardAlpha"/>
<feOffset dy="8"/>
<feGaussianBlur stdDeviation="8"/>
<feComposite in2="hardAlpha" operator="out"/>
<feColorMatrix type="matrix" values="0 0 0 0 0.109804 0 0 0 0 0.0980392 0 0 0 0 0.0901961 0 0 0 0.33 0"/>
<feBlend mode="normal" in2="BackgroundImageFix" result="effect1_dropShadow_32_45"/>
<feBlend mode="normal" in="SourceGraphic" in2="effect1_dropShadow_32_45" result="shape"/>
<feColorMatrix in="SourceAlpha" type="matrix" values="0 0 0 0 0 0 0 0 0 0 0 0 0 0 0 0 0 0 127 0" result="hardAlpha"/>
<feOffset dx="8" dy="16"/>
<feGaussianBlur stdDeviation="12"/>
<feComposite in2="hardAlpha" operator="arithmetic" k2="-1" k3="1"/>
<feColorMatrix type="matrix" values="0 0 0 0 0.0470588 0 0 0 0 0.0392157 0 0 0 0 0.0352941 0 0 0 0.5 0"/>
<feBlend mode="normal" in2="shape" result="effect2_innerShadow_32_45"/>
</filter>
<linearGradient id="paint0_linear_32_45" x1="217.422" y1="10" x2="10" y2="210" gradientUnits="userSpaceOnUse">
<stop stop-color="#633FE2"/>
<stop offset="1" stop-color="#9473EE"/>
</linearGradient>
</defs>
</svg>
