<svg xmlns="http://www.w3.org/2000/svg" width="24" height="24" fill="none" viewBox="0 0 24 24"><path fill="#000" d="M4 8H20V17C20 19.209 18.209 21 16 21H8C5.79 21 4 19.209 4 17V8ZM6 10V17C6 18.105 6.895 19 8 19H16C17.105 19 18 18.105 18 17V10H6Z"/><path fill="#000" d="M9 13C9 12.448 9.448 12 10 12H14C14.552 12 15 12.448 15 13C15 13.552 14.552 14 14 14H10C9.448 14 9 13.552 9 13ZM3 5.5C3 4.119 4.119 3 5.5 3H18.5C19.881 3 21 4.119 21 5.5V7.5C21 8.881 19.881 10 18.5 10H5.5C4.119 10 3 8.881 3 7.5V5.5ZM5.5 5C5.224 5 5 5.224 5 5.5V7.5C5 7.776 5.224 8 5.5 8H18.5C18.776 8 19 7.777 19 7.5V5.5C19 5.224 18.776 5 18.5 5H5.5Z"/></svg>