<svg xmlns="http://www.w3.org/2000/svg" width="24" height="24" fill="none" viewBox="0 0 24 24"><path fill="#000" d="M9.12 10.0799C8.58981 10.0799 8.16 9.65014 8.16 9.11994C8.16 8.58975 8.58981 8.15994 9.12 8.15994H14.88C15.4102 8.15994 15.84 8.58975 15.84 9.11994V14.8799C15.84 15.4101 15.4102 15.8399 14.88 15.8399C14.3498 15.8399 13.92 15.4101 13.92 14.8799V11.4376L9.79882 15.5588C9.42392 15.9337 8.81608 15.9337 8.44118 15.5588C8.06628 15.1839 8.06628 14.576 8.44118 14.2011L12.5624 10.0799H9.12Z"/><path fill="#000" fill-rule="evenodd" d="M1.44 11.9999C1.44 6.16775 6.16781 1.43994 12 1.43994C17.8322 1.43994 22.56 6.16775 22.56 11.9999C22.56 17.8321 17.8322 22.5599 12 22.5599C6.16781 22.5599 1.44 17.8321 1.44 11.9999ZM12 3.35994C7.2282 3.35994 3.36 7.22814 3.36 11.9999C3.36 16.7717 7.2282 20.6399 12 20.6399C16.7718 20.6399 20.64 16.7717 20.64 11.9999C20.64 7.22814 16.7718 3.35994 12 3.35994Z" clip-rule="evenodd"/></svg>