<svg xmlns="http://www.w3.org/2000/svg" width="24" height="24" fill="none" viewBox="0 0 24 24"><path stroke="#000" stroke-linecap="square" stroke-linejoin="round" stroke-width="2" d="M7 19V7C7 6.44772 6.55228 6 6 6H4C3.44772 6 3 6.44772 3 7V19C3 19.5523 3.44772 20 4 20H6C6.55228 20 7 19.5523 7 19ZM7 19V5C7 4.44772 7.44772 4 8 4H12C12.5523 4 13 4.44772 13 5V19C13 19.5523 12.5523 20 12 20H8C7.44772 20 7 19.5523 7 19ZM7 8H13M7 16H13M15.3518 7.17246L17.2836 6.65482C17.8171 6.51188 18.3654 6.82846 18.5084 7.36192L21.4201 18.2286C21.563 18.7621 21.2465 19.3104 20.713 19.4533L18.7811 19.971C18.2477 20.1139 17.6993 19.7973 17.5564 19.2639L14.6447 8.3972C14.5017 7.86373 14.8183 7.3154 15.3518 7.17246Z"/></svg>