<svg xmlns="http://www.w3.org/2000/svg" width="24" height="24" fill="none" viewBox="0 0 24 24"><path fill="#000" d="M8.29 13.29C8.107 13.471 7.994 13.723 7.994 14C7.994 14.277 8.107 14.529 8.29 14.71L11.29 17.71C11.471 17.893 11.723 18.006 12 18.006C12.277 18.006 12.529 17.893 12.71 17.71L15.71 14.71C15.892 14.528 16.004 14.277 16.004 14C16.004 13.446 15.555 12.996 15 12.996C14.723 12.996 14.472 13.109 14.29 13.29L13 14.59V3C13 2.448 12.552 2 12 2C11.448 2 11 2.448 11 3V14.59L9.71 13.29C9.529 13.107 9.277 12.995 9 12.995C8.723 12.995 8.471 13.108 8.29 13.29ZM18 9H16C15.448 9 15 9.448 15 10C15 10.552 15.448 11 16 11H18C18.552 11 19 11.448 19 12V19C19 19.552 18.552 20 18 20H6C5.448 20 5 19.552 5 19V12C5 11.448 5.448 11 6 11H8C8.552 11 9 10.552 9 10C9 9.448 8.552 9 8 9H6C4.343 9 3 10.343 3 12V19C3 20.657 4.343 22 6 22H18C19.657 22 21 20.657 21 19V12C21 10.343 19.657 9 18 9Z"/></svg>