<svg xmlns="http://www.w3.org/2000/svg" width="24" height="24" fill="none" viewBox="0 0 24 24"><path fill="#000" d="M12 7.212L13.333 6.018C14.042 5.384 14.973 5 15.999 5C18.208 5 19.999 6.791 19.999 9C19.999 11.999 18.659 14.212 16.967 15.85C15.245 17.516 13.219 18.518 12.114 18.979C12.037 19.011 11.963 19.011 11.885 18.979C10.779 18.518 8.754 17.517 7.032 15.85C5.339 14.212 4 11.999 4 9C4 6.79 5.791 5 8 5C9.026 5 9.957 5.383 10.666 6.018L12 7.212ZM12 4.528C10.939 3.578 9.537 3 8 3C4.687 3 2 5.686 2 9C2 16.351 8.671 19.806 11.116 20.825C11.685 21.063 12.314 21.063 12.884 20.825C15.328 19.806 22 16.35 22 9C22 5.686 19.314 3 16 3C14.463 3 13.061 3.577 12 4.528Z"/></svg>