<svg xmlns="http://www.w3.org/2000/svg" width="24" height="24" fill="none" viewBox="0 0 24 24"><path fill="#000" d="M12 22C17.523 22 22 17.523 22 12C22 6.477 17.523 2 12 2C6.477 2 2 6.477 2 12C2 17.523 6.477 22 12 22ZM6.85 6H18V17.161L14.275 13.956C14.727 13.431 15 12.747 15 12C15 10.343 13.657 9 12 9C11.243 9 10.552 9.281 10.024 9.743L6.85 6ZM13.581 14.55L16.532 18H6.001V7.434L9.443 10.432C9.163 10.888 9.001 11.426 9.001 12C9.001 13.657 10.344 15 12.001 15C12.582 15 13.122 14.835 13.581 14.55Z"/></svg>