<svg xmlns="http://www.w3.org/2000/svg" width="24" height="24" fill="none" viewBox="0 0 24 24"><path fill="#000" stroke="#000" stroke-width="1" d="M16.8 15.86V15.575L16.554 15.429C15.627 14.881 15 13.856 15 12.675C15 10.911 16.398 9.499 18.1 9.499C19.802 9.499 21.2 10.911 21.2 12.675C21.2 13.855 20.573 14.881 19.646 15.429L19.4 15.575V19.161C19.4 19.194 19.387 19.224 19.367 19.244L18.167 20.47C18.129 20.509 18.071 20.509 18.033 20.47L16.833 19.245C16.813 19.225 16.8 19.195 16.8 19.162L16.801 15.86H16.8ZM3.50002 18.938V16.125C3.50002 14.33 4.95502 12.875 6.75002 12.875H11.875C12.336 12.875 12.674 12.889 12.922 12.918C13.176 12.947 13.302 12.986 13.363 13.016C13.379 13.024 13.388 13.03 13.391 13.032C13.4 13.052 13.414 13.1 13.428 13.246C13.431 13.275 13.433 13.306 13.436 13.339C13.461 13.62 13.5 14.046 13.723 14.555C13.955 15.084 14.372 15.678 15.123 16.353V18.939C15.123 19.18 14.927 19.376 14.686 19.376H3.93602C3.69402 19.376 3.49902 19.18 3.49902 18.939L3.50002 18.938ZM13.25 6.75C13.25 8.545 11.795 10 10 10C8.20502 10 6.75002 8.545 6.75002 6.75C6.75002 4.955 8.20502 3.5 10 3.5C11.795 3.5 13.25 4.955 13.25 6.75ZM19.8 12.676C19.8 11.733 19.049 10.951 18.1 10.951C17.151 10.951 16.4 11.733 16.4 12.676C16.4 13.619 17.152 14.402 18.1 14.402C19.048 14.402 19.8 13.62 19.8 12.676Z"/></svg>