<svg xmlns="http://www.w3.org/2000/svg" width="24" height="24" fill="none" viewBox="0 0 24 24"><path fill="#000" d="M4.99881 4.60118C4.6239 4.22628 4.01607 4.22628 3.64116 4.60118 3.26626 4.97609 3.26626 5.58393 3.64116 5.95883L8.72234 11.04 3.64116 16.1212C3.26626 16.4961 3.26626 17.1039 3.64116 17.4788 4.01607 17.8537 4.6239 17.8537 4.99881 17.4788L10.7588 11.7188C10.9388 11.5388 11.04 11.2946 11.04 11.04 11.04 10.7854 10.9388 10.5412 10.7588 10.3612L4.99881 4.60118ZM12 17.76C11.4698 17.76 11.04 18.1898 11.04 18.72 11.04 19.2502 11.4698 19.68 12 19.68H19.68C20.2102 19.68 20.64 19.2502 20.64 18.72 20.64 18.1898 20.2102 17.76 19.68 17.76H12Z"/></svg>